<?xml version="1.0" encoding="us-ascii" standalone="no"?><svg xmlns="http://www.w3.org/2000/svg" xmlns:xlink="http://www.w3.org/1999/xlink" contentStyleType="text/css" height="374px" preserveAspectRatio="none" style="width:619px;height:374px;background:#FFFFFF;" version="1.1" viewBox="0 0 619 374" width="619px" zoomAndPan="magnify"><defs/><g><text fill="#000000" font-family="sans-serif" font-size="14" font-weight="bold" lengthAdjust="spacing" textLength="435" x="93.5" y="27.6738">US015 - Sequence Diagram Partial (Get Message Request List)</text><rect fill="#FFFFFF" height="216.1875" style="stroke:#181818;stroke-width:1.0;" width="10" x="94.5" y="97.9219"/><rect fill="#FFFFFF" height="28.5234" style="stroke:#181818;stroke-width:1.0;" width="10" x="289.5" y="141.9688"/><rect fill="#FFFFFF" height="28.5234" style="stroke:#181818;stroke-width:1.0;" width="10" x="396.5" y="199.0156"/><rect fill="#FFFFFF" height="28.5234" style="stroke:#181818;stroke-width:1.0;" width="10" x="526.5" y="270.5859"/><rect fill="none" height="202.1875" style="stroke:#000000;stroke-width:1.5;" width="603" x="10" y="104.9219"/><line style="stroke:#181818;stroke-width:0.5;stroke-dasharray:5.0,5.0;" x1="99" x2="99" y1="87.9219" y2="324.1094"/><line style="stroke:#181818;stroke-width:0.5;stroke-dasharray:5.0,5.0;" x1="294" x2="294" y1="87.9219" y2="324.1094"/><line style="stroke:#181818;stroke-width:0.5;stroke-dasharray:5.0,5.0;" x1="401" x2="401" y1="87.9219" y2="324.1094"/><line style="stroke:#181818;stroke-width:0.5;stroke-dasharray:5.0,5.0;" x1="531" x2="531" y1="87.9219" y2="324.1094"/><rect fill="#E2E2F0" height="29.6406" rx="2.5" ry="2.5" style="stroke:#181818;stroke-width:0.5;" width="159" x="20" y="57.2813"/><text fill="#000000" font-family="sans-serif" font-size="14" lengthAdjust="spacing" textLength="145" x="27" y="76.9551">:ListMessageController</text><rect fill="#E2E2F0" height="29.6406" rx="2.5" ry="2.5" style="stroke:#181818;stroke-width:0.5;" width="159" x="20" y="323.1094"/><text fill="#000000" font-family="sans-serif" font-size="14" lengthAdjust="spacing" textLength="145" x="27" y="342.7832">:ListMessageController</text><rect fill="#E2E2F0" height="29.6406" rx="2.5" ry="2.5" style="stroke:#181818;stroke-width:0.5;" width="97" x="246" y="57.2813"/><text fill="#000000" font-family="sans-serif" font-size="14" lengthAdjust="spacing" textLength="83" x="253" y="76.9551">:Repositories</text><rect fill="#E2E2F0" height="29.6406" rx="2.5" ry="2.5" style="stroke:#181818;stroke-width:0.5;" width="97" x="246" y="323.1094"/><text fill="#000000" font-family="sans-serif" font-size="14" lengthAdjust="spacing" textLength="83" x="253" y="342.7832">:Repositories</text><rect fill="#E2E2F0" height="45.2813" rx="2.5" ry="2.5" style="stroke:#181818;stroke-width:0.5;" width="97" x="353" y="41.6406"/><text fill="#000000" font-family="sans-serif" font-size="14" lengthAdjust="spacing" textLength="74" x="364.5" y="61.3145">repositories</text><text fill="#000000" font-family="sans-serif" font-size="14" lengthAdjust="spacing" textLength="83" x="360" y="76.9551">:Repositories</text><rect fill="#E2E2F0" height="45.2813" rx="2.5" ry="2.5" style="stroke:#181818;stroke-width:0.5;" width="97" x="353" y="323.1094"/><text fill="#000000" font-family="sans-serif" font-size="14" lengthAdjust="spacing" textLength="74" x="364.5" y="342.7832">repositories</text><text fill="#000000" font-family="sans-serif" font-size="14" lengthAdjust="spacing" textLength="83" x="360" y="358.4238">:Repositories</text><rect fill="#E2E2F0" height="45.2813" rx="2.5" ry="2.5" style="stroke:#181818;stroke-width:0.5;" width="143" x="460" y="41.6406"/><text fill="#000000" font-family="sans-serif" font-size="14" lengthAdjust="spacing" textLength="129" x="467" y="61.3145">messageRepository:</text><text fill="#000000" font-family="sans-serif" font-size="14" lengthAdjust="spacing" textLength="125" x="469" y="76.9551">MessageRepository</text><rect fill="#E2E2F0" height="45.2813" rx="2.5" ry="2.5" style="stroke:#181818;stroke-width:0.5;" width="143" x="460" y="323.1094"/><text fill="#000000" font-family="sans-serif" font-size="14" lengthAdjust="spacing" textLength="129" x="467" y="342.7832">messageRepository:</text><text fill="#000000" font-family="sans-serif" font-size="14" lengthAdjust="spacing" textLength="125" x="469" y="358.4238">MessageRepository</text><rect fill="#FFFFFF" height="216.1875" style="stroke:#181818;stroke-width:1.0;" width="10" x="94.5" y="97.9219"/><rect fill="#FFFFFF" height="28.5234" style="stroke:#181818;stroke-width:1.0;" width="10" x="289.5" y="141.9688"/><rect fill="#FFFFFF" height="28.5234" style="stroke:#181818;stroke-width:1.0;" width="10" x="396.5" y="199.0156"/><rect fill="#FFFFFF" height="28.5234" style="stroke:#181818;stroke-width:1.0;" width="10" x="526.5" y="270.5859"/><path d="M10,104.9219 L217,104.9219 L217,111.4453 L207,121.4453 L10,121.4453 L10,104.9219 " fill="#EEEEEE" style="stroke:#000000;stroke-width:1.5;"/><rect fill="none" height="202.1875" style="stroke:#000000;stroke-width:1.5;" width="603" x="10" y="104.9219"/><text fill="#000000" font-family="sans-serif" font-size="13" font-weight="bold" lengthAdjust="spacing" textLength="162" x="25" y="117.6904">Get Message Request List</text><polygon fill="#181818" points="277.5,137.9688,287.5,141.9688,277.5,145.9688,281.5,141.9688" style="stroke:#181818;stroke-width:1.0;"/><line style="stroke:#181818;stroke-width:1.0;" x1="104.5" x2="283.5" y1="141.9688" y2="141.9688"/><text fill="#000000" font-family="sans-serif" font-size="13" font-weight="bold" lengthAdjust="spacing" textLength="14" x="111.5" y="137.2139">15</text><text fill="#000000" font-family="sans-serif" font-size="13" lengthAdjust="spacing" textLength="75" x="129.5" y="137.2139">getInstance()</text><polygon fill="#181818" points="115.5,166.4922,105.5,170.4922,115.5,174.4922,111.5,170.4922" style="stroke:#181818;stroke-width:1.0;"/><line style="stroke:#181818;stroke-width:1.0;stroke-dasharray:2.0,2.0;" x1="109.5" x2="293.5" y1="170.4922" y2="170.4922"/><text fill="#000000" font-family="sans-serif" font-size="13" font-weight="bold" lengthAdjust="spacing" textLength="14" x="121.5" y="165.7373">16</text><text fill="#000000" font-family="sans-serif" font-size="13" lengthAdjust="spacing" textLength="143" x="139.5" y="165.7373">repositories:Repositories</text><polygon fill="#181818" points="384.5,195.0156,394.5,199.0156,384.5,203.0156,388.5,199.0156" style="stroke:#181818;stroke-width:1.0;"/><line style="stroke:#181818;stroke-width:1.0;" x1="104.5" x2="390.5" y1="199.0156" y2="199.0156"/><text fill="#000000" font-family="sans-serif" font-size="13" font-weight="bold" lengthAdjust="spacing" textLength="14" x="111.5" y="194.2607">17</text><text fill="#000000" font-family="sans-serif" font-size="13" lengthAdjust="spacing" textLength="141" x="129.5" y="194.2607">getMessageRepository()</text><polygon fill="#181818" points="115.5,223.5391,105.5,227.5391,115.5,231.5391,111.5,227.5391" style="stroke:#181818;stroke-width:1.0;"/><line style="stroke:#181818;stroke-width:1.0;stroke-dasharray:2.0,2.0;" x1="109.5" x2="400.5" y1="227.5391" y2="227.5391"/><text fill="#000000" font-family="sans-serif" font-size="13" font-weight="bold" lengthAdjust="spacing" textLength="14" x="121.5" y="222.7842">18</text><text fill="#000000" font-family="sans-serif" font-size="13" lengthAdjust="spacing" textLength="115" x="139.5" y="222.7842">messageRepository</text><polygon fill="#181818" points="514.5,266.5859,524.5,270.5859,514.5,274.5859,518.5,270.5859" style="stroke:#181818;stroke-width:1.0;"/><line style="stroke:#181818;stroke-width:1.0;" x1="104.5" x2="520.5" y1="270.5859" y2="270.5859"/><text fill="#000000" font-family="sans-serif" font-size="13" font-weight="bold" lengthAdjust="spacing" textLength="14" x="111.5" y="258.5693">19</text><text fill="#000000" font-family="sans-serif" font-size="13" lengthAdjust="spacing" textLength="140" x="129.5" y="251.3076">getMessageRequestList</text><text fill="#000000" font-family="sans-serif" font-size="13" lengthAdjust="spacing" textLength="235" x="129.5" y="265.8311">(employeeByEmail, beginDate, endDate)</text><polygon fill="#181818" points="115.5,295.1094,105.5,299.1094,115.5,303.1094,111.5,299.1094" style="stroke:#181818;stroke-width:1.0;"/><line style="stroke:#181818;stroke-width:1.0;stroke-dasharray:2.0,2.0;" x1="109.5" x2="530.5" y1="299.1094" y2="299.1094"/><text fill="#000000" font-family="sans-serif" font-size="13" font-weight="bold" lengthAdjust="spacing" textLength="14" x="121.5" y="294.3545">20</text><text fill="#000000" font-family="sans-serif" font-size="13" lengthAdjust="spacing" textLength="122" x="139.5" y="294.3545">messageRequestList</text><!--SRC=[XP9DRy8m38Rl_XKM5q2YOqpYqiCEWscQ1D84surBQBqIAKswn9tMVxz-G9TIgd6eKFhupMExunDpviBvF5D2SvwgkyYaSqTVEUc8WbYAn8eK05Yo8lpOto-M6E3-3E2w0V1DM9P2uUI56BVad4W8TnNb63VIyHHWV98nuQSnV3G_05bL4icil1T7OSMSwrP6ipLAaHsXSBXwtssku1rbnaasLfAhcVQWw9BM0m-wNzU-BnwwXMcZyfSR7lJs-goEw9q2Y9oDpjCZMLmi0H9hyWo71bFY4SjlmTHq2jKJWqUl9mmn8NxLZaKvyyaKqFkrrRw13tWvGHbRnuVeJwOpbqvjJF_6NtIzKJQ-lS4CYVjBw11-fAVUsysGyc3mnRcdU6LURwbQqa5FACsKAOYUYkTKI3N38oLIhyjxPaWwhluCz7VZ2_6vliIjNbkLeMPlt59g0NX8bVaB]--></g></svg>