<?xml version="1.0" encoding="us-ascii" standalone="no"?><svg xmlns="http://www.w3.org/2000/svg" xmlns:xlink="http://www.w3.org/1999/xlink" contentStyleType="text/css" height="885px" preserveAspectRatio="none" style="width:817px;height:885px;background:#FFFFFF;" version="1.1" viewBox="0 0 817 885" width="817px" zoomAndPan="magnify"><defs/><g><text fill="#000000" font-family="sans-serif" font-size="14" font-weight="bold" lengthAdjust="spacing" textLength="450" x="185" y="27.6738">US015 - Sequence Diagram Partial (Create List Of Messages Dto)</text><rect fill="#FFFFFF" height="730.1563" style="stroke:#181818;stroke-width:1.0;" width="10" x="204" y="102.8047"/><rect fill="#FFFFFF" height="605.9453" style="stroke:#181818;stroke-width:1.0;" width="10" x="209" y="227.0156"/><rect fill="#FFFFFF" height="28" style="stroke:#181818;stroke-width:1.0;" width="10" x="214" y="696.9141"/><rect fill="#FFFFFF" height="28.5234" style="stroke:#181818;stroke-width:1.0;" width="10" x="472" y="260.5391"/><rect fill="#FFFFFF" height="28.5234" style="stroke:#181818;stroke-width:1.0;" width="10" x="472" y="317.5859"/><rect fill="#FFFFFF" height="28.5234" style="stroke:#181818;stroke-width:1.0;" width="10" x="472" y="374.6328"/><rect fill="#FFFFFF" height="28.5234" style="stroke:#181818;stroke-width:1.0;" width="10" x="472" y="431.6797"/><rect fill="#FFFFFF" height="28.5234" style="stroke:#181818;stroke-width:1.0;" width="10" x="472" y="488.7266"/><rect fill="#FFFFFF" height="28.5234" style="stroke:#181818;stroke-width:1.0;" width="10" x="472" y="545.7734"/><rect fill="#FFFFFF" height="28.5234" style="stroke:#181818;stroke-width:1.0;" width="10" x="472" y="602.8203"/><rect fill="#FFFFFF" height="30" style="stroke:#181818;stroke-width:1.0;" width="10" x="667" y="760.4375"/><rect fill="none" height="687.6328" style="stroke:#000000;stroke-width:1.5;" width="683.5" x="127.5" y="117.8047"/><rect fill="none" height="616.4688" style="stroke:#000000;stroke-width:1.5;" width="663.5" x="137.5" y="181.9688"/><line style="stroke:#181818;stroke-width:0.5;stroke-dasharray:5.0,5.0;" x1="208.5" x2="208.5" y1="72.2813" y2="850.9609"/><line style="stroke:#181818;stroke-width:0.5;stroke-dasharray:5.0,5.0;" x1="477" x2="477" y1="72.2813" y2="850.9609"/><line style="stroke:#181818;stroke-width:0.5;stroke-dasharray:5.0,5.0;" x1="672" x2="672" y1="164.6484" y2="850.9609"/><rect fill="#E3E3E3" height="29.6406" rx="2.5" ry="2.5" style="stroke:#181818;stroke-width:0.5;" width="123" x="147.5" y="41.6406"/><text fill="#000000" font-family="sans-serif" font-size="14" lengthAdjust="spacing" textLength="109" x="154.5" y="61.3145">:MessageMapper</text><rect fill="#E3E3E3" height="29.6406" rx="2.5" ry="2.5" style="stroke:#181818;stroke-width:0.5;" width="123" x="147.5" y="849.9609"/><text fill="#000000" font-family="sans-serif" font-size="14" lengthAdjust="spacing" textLength="109" x="154.5" y="869.6348">:MessageMapper</text><rect fill="#E3E3E3" height="29.6406" rx="2.5" ry="2.5" style="stroke:#181818;stroke-width:0.5;" width="132" x="411" y="41.6406"/><text fill="#000000" font-family="sans-serif" font-size="14" lengthAdjust="spacing" textLength="118" x="418" y="61.3145">message:Message</text><rect fill="#E3E3E3" height="29.6406" rx="2.5" ry="2.5" style="stroke:#181818;stroke-width:0.5;" width="132" x="411" y="849.9609"/><text fill="#000000" font-family="sans-serif" font-size="14" lengthAdjust="spacing" textLength="118" x="418" y="869.6348">message:Message</text><rect fill="#E3E3E3" height="29.6406" rx="2.5" ry="2.5" style="stroke:#181818;stroke-width:0.5;" width="238" x="553" y="849.9609"/><text fill="#000000" font-family="sans-serif" font-size="14" lengthAdjust="spacing" textLength="224" x="560" y="869.6348">listOfMessagesDto:List&lt;Messages&gt;</text><rect fill="#FFFFFF" height="730.1563" style="stroke:#181818;stroke-width:1.0;" width="10" x="204" y="102.8047"/><rect fill="#FFFFFF" height="605.9453" style="stroke:#181818;stroke-width:1.0;" width="10" x="209" y="227.0156"/><rect fill="#FFFFFF" height="28" style="stroke:#181818;stroke-width:1.0;" width="10" x="214" y="696.9141"/><rect fill="#FFFFFF" height="28.5234" style="stroke:#181818;stroke-width:1.0;" width="10" x="472" y="260.5391"/><rect fill="#FFFFFF" height="28.5234" style="stroke:#181818;stroke-width:1.0;" width="10" x="472" y="317.5859"/><rect fill="#FFFFFF" height="28.5234" style="stroke:#181818;stroke-width:1.0;" width="10" x="472" y="374.6328"/><rect fill="#FFFFFF" height="28.5234" style="stroke:#181818;stroke-width:1.0;" width="10" x="472" y="431.6797"/><rect fill="#FFFFFF" height="28.5234" style="stroke:#181818;stroke-width:1.0;" width="10" x="472" y="488.7266"/><rect fill="#FFFFFF" height="28.5234" style="stroke:#181818;stroke-width:1.0;" width="10" x="472" y="545.7734"/><rect fill="#FFFFFF" height="28.5234" style="stroke:#181818;stroke-width:1.0;" width="10" x="472" y="602.8203"/><rect fill="#FFFFFF" height="30" style="stroke:#181818;stroke-width:1.0;" width="10" x="667" y="760.4375"/><polygon fill="#181818" points="192,98.8047,202,102.8047,192,106.8047,196,102.8047" style="stroke:#181818;stroke-width:1.0;"/><line style="stroke:#181818;stroke-width:1.0;" x1="0" x2="198" y1="102.8047" y2="102.8047"/><text fill="#000000" font-family="sans-serif" font-size="13" font-weight="bold" lengthAdjust="spacing" textLength="14" x="7" y="98.0498">26</text><text fill="#000000" font-family="sans-serif" font-size="13" lengthAdjust="spacing" textLength="167" x="25" y="98.0498">toDTO(messageRequestList)</text><path d="M127.5,117.8047 L348.5,117.8047 L348.5,124.3281 L338.5,134.3281 L127.5,134.3281 L127.5,117.8047 " fill="#EEEEEE" style="stroke:#000000;stroke-width:1.5;"/><rect fill="none" height="687.6328" style="stroke:#000000;stroke-width:1.5;" width="683.5" x="127.5" y="117.8047"/><text fill="#000000" font-family="sans-serif" font-size="13" font-weight="bold" lengthAdjust="spacing" textLength="176" x="142.5" y="130.5732">Create List Of Messages Dto</text><polygon fill="#181818" points="541,150.8516,551,154.8516,541,158.8516,545,154.8516" style="stroke:#181818;stroke-width:1.0;"/><line style="stroke:#181818;stroke-width:1.0;stroke-dasharray:2.0,2.0;" x1="214" x2="547" y1="154.8516" y2="154.8516"/><text fill="#000000" font-family="sans-serif" font-size="13" font-weight="bold" lengthAdjust="spacing" textLength="14" x="221" y="150.0967">27</text><text fill="#000000" font-family="sans-serif" font-size="13" lengthAdjust="spacing" textLength="44" x="239" y="150.0967">create()</text><rect fill="#E3E3E3" height="29.6406" rx="2.5" ry="2.5" style="stroke:#181818;stroke-width:0.5;" width="238" x="553" y="134.3281"/><text fill="#000000" font-family="sans-serif" font-size="14" lengthAdjust="spacing" textLength="224" x="560" y="154.002">listOfMessagesDto:List&lt;Messages&gt;</text><path d="M137.5,181.9688 L210.5,181.9688 L210.5,188.4922 L200.5,198.4922 L137.5,198.4922 L137.5,181.9688 " fill="#EEEEEE" style="stroke:#000000;stroke-width:1.5;"/><rect fill="none" height="616.4688" style="stroke:#000000;stroke-width:1.5;" width="663.5" x="137.5" y="181.9688"/><text fill="#000000" font-family="sans-serif" font-size="13" font-weight="bold" lengthAdjust="spacing" textLength="28" x="152.5" y="194.7373">loop</text><text fill="#000000" font-family="sans-serif" font-size="11" font-weight="bold" lengthAdjust="spacing" textLength="155" x="225.5" y="193.9268">[for each message request]</text><line style="stroke:#181818;stroke-width:1.0;" x1="214" x2="261" y1="214.0156" y2="214.0156"/><line style="stroke:#181818;stroke-width:1.0;" x1="261" x2="261" y1="214.0156" y2="227.0156"/><line style="stroke:#181818;stroke-width:1.0;" x1="220" x2="261" y1="227.0156" y2="227.0156"/><polygon fill="#181818" points="230,223.0156,220,227.0156,230,231.0156,226,227.0156" style="stroke:#181818;stroke-width:1.0;"/><text fill="#000000" font-family="sans-serif" font-size="13" font-weight="bold" lengthAdjust="spacing" textLength="14" x="226" y="209.2607">28</text><text fill="#000000" font-family="sans-serif" font-size="13" lengthAdjust="spacing" textLength="92" x="244" y="209.2607">toDto(Message)</text><polygon fill="#181818" points="460,256.5391,470,260.5391,460,264.5391,464,260.5391" style="stroke:#181818;stroke-width:1.0;"/><line style="stroke:#181818;stroke-width:1.0;" x1="219" x2="466" y1="260.5391" y2="260.5391"/><text fill="#000000" font-family="sans-serif" font-size="13" font-weight="bold" lengthAdjust="spacing" textLength="14" x="226" y="255.7842">29</text><text fill="#000000" font-family="sans-serif" font-size="13" lengthAdjust="spacing" textLength="93" x="244" y="255.7842">getClientName()</text><polygon fill="#181818" points="230,285.0625,220,289.0625,230,293.0625,226,289.0625" style="stroke:#181818;stroke-width:1.0;"/><line style="stroke:#181818;stroke-width:1.0;stroke-dasharray:2.0,2.0;" x1="224" x2="476" y1="289.0625" y2="289.0625"/><text fill="#000000" font-family="sans-serif" font-size="13" font-weight="bold" lengthAdjust="spacing" textLength="14" x="236" y="284.3076">30</text><text fill="#000000" font-family="sans-serif" font-size="13" lengthAdjust="spacing" textLength="65" x="254" y="284.3076">clientName</text><polygon fill="#181818" points="460,313.5859,470,317.5859,460,321.5859,464,317.5859" style="stroke:#181818;stroke-width:1.0;"/><line style="stroke:#181818;stroke-width:1.0;" x1="219" x2="466" y1="317.5859" y2="317.5859"/><text fill="#000000" font-family="sans-serif" font-size="13" font-weight="bold" lengthAdjust="spacing" textLength="14" x="226" y="312.8311">31</text><text fill="#000000" font-family="sans-serif" font-size="13" lengthAdjust="spacing" textLength="141" x="244" y="312.8311">getClientPhoneNumber()</text><polygon fill="#181818" points="230,342.1094,220,346.1094,230,350.1094,226,346.1094" style="stroke:#181818;stroke-width:1.0;"/><line style="stroke:#181818;stroke-width:1.0;stroke-dasharray:2.0,2.0;" x1="224" x2="476" y1="346.1094" y2="346.1094"/><text fill="#000000" font-family="sans-serif" font-size="13" font-weight="bold" lengthAdjust="spacing" textLength="14" x="236" y="341.3545">32</text><text fill="#000000" font-family="sans-serif" font-size="13" lengthAdjust="spacing" textLength="113" x="254" y="341.3545">clientPhoneNumber</text><polygon fill="#181818" points="460,370.6328,470,374.6328,460,378.6328,464,374.6328" style="stroke:#181818;stroke-width:1.0;"/><line style="stroke:#181818;stroke-width:1.0;" x1="219" x2="466" y1="374.6328" y2="374.6328"/><text fill="#000000" font-family="sans-serif" font-size="13" font-weight="bold" lengthAdjust="spacing" textLength="14" x="226" y="369.8779">33</text><text fill="#000000" font-family="sans-serif" font-size="13" lengthAdjust="spacing" textLength="53" x="244" y="369.8779">getDate()</text><polygon fill="#181818" points="230,399.1563,220,403.1563,230,407.1563,226,403.1563" style="stroke:#181818;stroke-width:1.0;"/><line style="stroke:#181818;stroke-width:1.0;stroke-dasharray:2.0,2.0;" x1="224" x2="476" y1="403.1563" y2="403.1563"/><text fill="#000000" font-family="sans-serif" font-size="13" font-weight="bold" lengthAdjust="spacing" textLength="14" x="236" y="398.4014">34</text><text fill="#000000" font-family="sans-serif" font-size="13" lengthAdjust="spacing" textLength="25" x="254" y="398.4014">date</text><polygon fill="#181818" points="460,427.6797,470,431.6797,460,435.6797,464,431.6797" style="stroke:#181818;stroke-width:1.0;"/><line style="stroke:#181818;stroke-width:1.0;" x1="219" x2="466" y1="431.6797" y2="431.6797"/><text fill="#000000" font-family="sans-serif" font-size="13" font-weight="bold" lengthAdjust="spacing" textLength="14" x="226" y="426.9248">35</text><text fill="#000000" font-family="sans-serif" font-size="13" lengthAdjust="spacing" textLength="84" x="244" y="426.9248">getInitialTime()</text><polygon fill="#181818" points="230,456.2031,220,460.2031,230,464.2031,226,460.2031" style="stroke:#181818;stroke-width:1.0;"/><line style="stroke:#181818;stroke-width:1.0;stroke-dasharray:2.0,2.0;" x1="224" x2="476" y1="460.2031" y2="460.2031"/><text fill="#000000" font-family="sans-serif" font-size="13" font-weight="bold" lengthAdjust="spacing" textLength="14" x="236" y="455.4482">36</text><text fill="#000000" font-family="sans-serif" font-size="13" lengthAdjust="spacing" textLength="58" x="254" y="455.4482">initialTime</text><polygon fill="#181818" points="460,484.7266,470,488.7266,460,492.7266,464,488.7266" style="stroke:#181818;stroke-width:1.0;"/><line style="stroke:#181818;stroke-width:1.0;" x1="219" x2="466" y1="488.7266" y2="488.7266"/><text fill="#000000" font-family="sans-serif" font-size="13" font-weight="bold" lengthAdjust="spacing" textLength="14" x="226" y="483.9717">37</text><text fill="#000000" font-family="sans-serif" font-size="13" lengthAdjust="spacing" textLength="77" x="244" y="483.9717">getEndTime()</text><polygon fill="#181818" points="230,513.25,220,517.25,230,521.25,226,517.25" style="stroke:#181818;stroke-width:1.0;"/><line style="stroke:#181818;stroke-width:1.0;stroke-dasharray:2.0,2.0;" x1="224" x2="476" y1="517.25" y2="517.25"/><text fill="#000000" font-family="sans-serif" font-size="13" font-weight="bold" lengthAdjust="spacing" textLength="14" x="236" y="512.4951">38</text><text fill="#000000" font-family="sans-serif" font-size="13" lengthAdjust="spacing" textLength="49" x="254" y="512.4951">endTime</text><polygon fill="#181818" points="460,541.7734,470,545.7734,460,549.7734,464,545.7734" style="stroke:#181818;stroke-width:1.0;"/><line style="stroke:#181818;stroke-width:1.0;" x1="219" x2="466" y1="545.7734" y2="545.7734"/><text fill="#000000" font-family="sans-serif" font-size="13" font-weight="bold" lengthAdjust="spacing" textLength="14" x="226" y="541.0186">39</text><text fill="#000000" font-family="sans-serif" font-size="13" lengthAdjust="spacing" textLength="91" x="244" y="541.0186">getDescription()</text><polygon fill="#181818" points="230,570.2969,220,574.2969,230,578.2969,226,574.2969" style="stroke:#181818;stroke-width:1.0;"/><line style="stroke:#181818;stroke-width:1.0;stroke-dasharray:2.0,2.0;" x1="224" x2="476" y1="574.2969" y2="574.2969"/><text fill="#000000" font-family="sans-serif" font-size="13" font-weight="bold" lengthAdjust="spacing" textLength="14" x="236" y="569.542">40</text><text fill="#000000" font-family="sans-serif" font-size="13" lengthAdjust="spacing" textLength="63" x="254" y="569.542">description</text><polygon fill="#181818" points="460,598.8203,470,602.8203,460,606.8203,464,602.8203" style="stroke:#181818;stroke-width:1.0;"/><line style="stroke:#181818;stroke-width:1.0;" x1="219" x2="466" y1="602.8203" y2="602.8203"/><text fill="#000000" font-family="sans-serif" font-size="13" font-weight="bold" lengthAdjust="spacing" textLength="14" x="226" y="598.0654">41</text><text fill="#000000" font-family="sans-serif" font-size="13" lengthAdjust="spacing" textLength="156" x="244" y="598.0654">getPublishAnnouncement()</text><polygon fill="#181818" points="230,627.3438,220,631.3438,230,635.3438,226,631.3438" style="stroke:#181818;stroke-width:1.0;"/><line style="stroke:#181818;stroke-width:1.0;stroke-dasharray:2.0,2.0;" x1="224" x2="476" y1="631.3438" y2="631.3438"/><text fill="#000000" font-family="sans-serif" font-size="13" font-weight="bold" lengthAdjust="spacing" textLength="14" x="236" y="626.5889">42</text><text fill="#000000" font-family="sans-serif" font-size="13" lengthAdjust="spacing" textLength="128" x="254" y="626.5889">publishAnnouncement</text><line style="stroke:#181818;stroke-width:1.0;" x1="224" x2="266" y1="688.9141" y2="688.9141"/><line style="stroke:#181818;stroke-width:1.0;" x1="266" x2="266" y1="688.9141" y2="701.9141"/><line style="stroke:#181818;stroke-width:1.0;" x1="225" x2="266" y1="701.9141" y2="701.9141"/><polygon fill="#181818" points="235,697.9141,225,701.9141,235,705.9141,231,701.9141" style="stroke:#181818;stroke-width:1.0;"/><text fill="#000000" font-family="sans-serif" font-size="13" font-weight="bold" lengthAdjust="spacing" textLength="14" x="231" y="669.6357">43</text><text fill="#000000" font-family="sans-serif" font-size="13" lengthAdjust="spacing" textLength="193" x="249" y="655.1123">messageDto = toDto(clientName,</text><text fill="#000000" font-family="sans-serif" font-size="13" lengthAdjust="spacing" textLength="221" x="249" y="669.6357">clientPhoneNumber, description, date,</text><text fill="#000000" font-family="sans-serif" font-size="13" lengthAdjust="spacing" textLength="119" x="249" y="684.1592">initialTime, endTime)</text><polygon fill="#181818" points="655,756.4375,665,760.4375,655,764.4375,659,760.4375" style="stroke:#181818;stroke-width:1.0;"/><line style="stroke:#181818;stroke-width:1.0;stroke-dasharray:2.0,2.0;" x1="219" x2="661" y1="760.4375" y2="760.4375"/><text fill="#000000" font-family="sans-serif" font-size="13" font-weight="bold" lengthAdjust="spacing" textLength="14" x="226" y="755.6826">44</text><text fill="#000000" font-family="sans-serif" font-size="13" lengthAdjust="spacing" textLength="102" x="244" y="755.6826">add(messageDto)</text><polygon fill="#181818" points="11,828.9609,1,832.9609,11,836.9609,7,832.9609" style="stroke:#181818;stroke-width:1.0;"/><line style="stroke:#181818;stroke-width:1.0;stroke-dasharray:2.0,2.0;" x1="5" x2="208" y1="832.9609" y2="832.9609"/><text fill="#000000" font-family="sans-serif" font-size="13" font-weight="bold" lengthAdjust="spacing" textLength="14" x="17" y="828.2061">45</text><text fill="#000000" font-family="sans-serif" font-size="13" lengthAdjust="spacing" textLength="122" x="35" y="828.2061">messageRequestList</text><!--SRC=[hPLDZvim48Rl_XMZlPIiG6ehjOTekrArwQ5ITnCrkxUzE6O2re9DRTEFVryRx00RIDG6JWY_yyupOpFMBrnKLD4IIYaaovKi4OogaUZ3IaNP2yrmQ_uK20gPeI8h-WATqrJ-uYA3FIqq4a9h8qLTxb31-u-466vivDFsxRiFaC0MVzGe6CAAqyo5RwWod1OGtIca1k4RrmRMUxX7hMrU3IiZ5uIyoNcAi9VIxEHlGYeNnNX5XO6hfTVUqwf2TGLKG_iwb9MjAgXRdSyoL1QMORqFQnPWwQXkmeVR9jI93fB7DN4Fz9_arcF04eoqaiWJV7SzqCPvBWOXb1d-qpN1uvDCoRg24vsnANsEnAPxXNHzRJEp9ZXQ3E4AAIlRJGL8MGwUosvl0pQK1lzGJLECaP5FTAQ22ISFkOGCpLt1KPW7MZhASREmIqExq8UanyOEPWDjYkVCZjYW1xV9fS27vapFnjZpd0TrrUxpPNJMAhK1yn1z5Tpzsu-yd0MCTtR_nZS9-4Ma8t1mrcuK3rkpeVJ_sLQecUALuLBCm6UtjVEx7B4XtDGxEt7opqB8sexqqXxgMKYhOzyBYCFs-25dHnTyyYEi6nOnF8kZtpBkzonk_eluMVHEOHpsVBBgTWfEmeyCoHFpt1P1qpJg2fbA-_fgcif_T8NrTRQqaG-3BpT94d2x1lTkDtAwxfEhVm40]--></g></svg>