<?xml version="1.0" encoding="UTF-8" standalone="no"?><svg xmlns="http://www.w3.org/2000/svg" xmlns:xlink="http://www.w3.org/1999/xlink" contentStyleType="text/css" height="1218px" preserveAspectRatio="none" style="width:3245px;height:1218px;background:#FFFFFF;" version="1.1" viewBox="0 0 3245 1218" width="3245px" zoomAndPan="magnify"><defs/><g><text fill="#000000" font-family="sans-serif" font-size="14" font-weight="bold" lengthAdjust="spacing" textLength="223" x="1510.25" y="29.5332">Sequence Diagram Split - US015</text><rect fill="#FFFFFF" height="972.5313" style="stroke:#181818;stroke-width:1.0;" width="10" x="28.5" y="138.7656"/><rect fill="#FFFFFF" height="89.3125" style="stroke:#181818;stroke-width:1.0;" width="10" x="638.5" y="169.9219"/><rect fill="#FFFFFF" height="812.9063" style="stroke:#181818;stroke-width:1.0;" width="10" x="638.5" y="298.3906"/><rect fill="#FFFFFF" height="709.4375" style="stroke:#181818;stroke-width:1.0;" width="10" x="882.5" y="337.5469"/><rect fill="#FFFFFF" height="165.7813" style="stroke:#181818;stroke-width:1.0;" width="10" x="887.5" y="641.1094"/><rect fill="#FFFFFF" height="154.7813" style="stroke:#181818;stroke-width:1.0;" width="10" x="2615" y="853.0469"/><line style="stroke:#181818;stroke-width:0.5;stroke-dasharray:5.0,5.0;" x1="33" x2="33" y1="128.7656" y2="1129.2969"/><line style="stroke:#181818;stroke-width:0.5;stroke-dasharray:5.0,5.0;" x1="643" x2="643" y1="128.7656" y2="1129.2969"/><line style="stroke:#181818;stroke-width:0.5;stroke-dasharray:5.0,5.0;" x1="887" x2="887" y1="213" y2="1129.2969"/><line style="stroke:#181818;stroke-width:0.5;stroke-dasharray:5.0,5.0;" x1="1209.5" x2="1209.5" y1="128.7656" y2="1129.2969"/><line style="stroke:#181818;stroke-width:0.5;stroke-dasharray:5.0,5.0;" x1="1349.5" x2="1349.5" y1="128.7656" y2="1129.2969"/><line style="stroke:#181818;stroke-width:0.5;stroke-dasharray:5.0,5.0;" x1="1521.5" x2="1521.5" y1="128.7656" y2="1129.2969"/><line style="stroke:#181818;stroke-width:0.5;stroke-dasharray:5.0,5.0;" x1="1721.5" x2="1721.5" y1="128.7656" y2="1129.2969"/><line style="stroke:#181818;stroke-width:0.5;stroke-dasharray:5.0,5.0;" x1="1915.5" x2="1915.5" y1="128.7656" y2="1129.2969"/><line style="stroke:#181818;stroke-width:0.5;stroke-dasharray:5.0,5.0;" x1="2089.5" x2="2089.5" y1="128.7656" y2="1129.2969"/><line style="stroke:#181818;stroke-width:0.5;stroke-dasharray:5.0,5.0;" x1="2275.5" x2="2275.5" y1="128.7656" y2="1129.2969"/><line style="stroke:#181818;stroke-width:0.5;stroke-dasharray:5.0,5.0;" x1="2457.5" x2="2457.5" y1="128.7656" y2="1129.2969"/><line style="stroke:#181818;stroke-width:0.5;stroke-dasharray:5.0,5.0;" x1="2619.5" x2="2619.5" y1="128.7656" y2="1129.2969"/><line style="stroke:#181818;stroke-width:0.5;stroke-dasharray:5.0,5.0;" x1="2804.5" x2="2804.5" y1="128.7656" y2="1129.2969"/><line style="stroke:#181818;stroke-width:0.5;stroke-dasharray:5.0,5.0;" x1="3072.5" x2="3072.5" y1="128.7656" y2="1129.2969"/><text fill="#000000" font-family="sans-serif" font-size="20" lengthAdjust="spacing" textLength="51" x="5" y="124.3711">Agent</text><ellipse cx="33.5" cy="52.1094" fill="#E3E3E3" rx="8" ry="8" style="stroke:#181818;stroke-width:0.5;"/><path d="M33.5,60.1094 L33.5,87.1094 M20.5,68.1094 L46.5,68.1094 M33.5,87.1094 L20.5,102.1094 M33.5,87.1094 L46.5,102.1094 " fill="none" style="stroke:#181818;stroke-width:0.5;"/><text fill="#000000" font-family="sans-serif" font-size="20" lengthAdjust="spacing" textLength="51" x="5" y="1149.0586">Agent</text><ellipse cx="33.5" cy="1161.9531" fill="#E3E3E3" rx="8" ry="8" style="stroke:#181818;stroke-width:0.5;"/><path d="M33.5,1169.9531 L33.5,1196.9531 M20.5,1177.9531 L46.5,1177.9531 M33.5,1196.9531 L20.5,1211.9531 M33.5,1196.9531 L46.5,1211.9531 " fill="none" style="stroke:#181818;stroke-width:0.5;"/><rect fill="#E3E3E3" height="39.1563" rx="2.5" ry="2.5" style="stroke:#181818;stroke-width:0.5;" width="151" x="568" y="88.6094"/><text fill="#000000" font-family="sans-serif" font-size="20" lengthAdjust="spacing" textLength="137" x="575" y="116.3711">:ListMessageUI</text><rect fill="#E3E3E3" height="39.1563" rx="2.5" ry="2.5" style="stroke:#181818;stroke-width:0.5;" width="151" x="568" y="1128.2969"/><text fill="#000000" font-family="sans-serif" font-size="20" lengthAdjust="spacing" textLength="137" x="575" y="1156.0586">:ListMessageUI</text><rect fill="#E3E3E3" height="39.1563" rx="2.5" ry="2.5" style="stroke:#181818;stroke-width:0.5;" width="217" x="779" y="1128.2969"/><text fill="#000000" font-family="sans-serif" font-size="20" lengthAdjust="spacing" textLength="203" x="786" y="1156.0586">:ListMessageController</text><rect fill="#E3E3E3" height="39.1563" rx="2.5" ry="2.5" style="stroke:#181818;stroke-width:0.5;" width="130" x="1144.5" y="88.6094"/><text fill="#000000" font-family="sans-serif" font-size="20" lengthAdjust="spacing" textLength="116" x="1151.5" y="116.3711">:Repositories</text><rect fill="#E3E3E3" height="39.1563" rx="2.5" ry="2.5" style="stroke:#181818;stroke-width:0.5;" width="130" x="1144.5" y="1128.2969"/><text fill="#000000" font-family="sans-serif" font-size="20" lengthAdjust="spacing" textLength="116" x="1151.5" y="1156.0586">:Repositories</text><rect fill="#E3E3E3" height="64.3125" rx="2.5" ry="2.5" style="stroke:#181818;stroke-width:0.5;" width="130" x="1284.5" y="63.4531"/><text fill="#000000" font-family="sans-serif" font-size="20" lengthAdjust="spacing" textLength="103" x="1298" y="91.2148">repositories</text><text fill="#000000" font-family="sans-serif" font-size="20" lengthAdjust="spacing" textLength="116" x="1291.5" y="116.3711">:Repositories</text><rect fill="#E3E3E3" height="64.3125" rx="2.5" ry="2.5" style="stroke:#181818;stroke-width:0.5;" width="130" x="1284.5" y="1128.2969"/><text fill="#000000" font-family="sans-serif" font-size="20" lengthAdjust="spacing" textLength="103" x="1298" y="1156.0586">repositories</text><text fill="#000000" font-family="sans-serif" font-size="20" lengthAdjust="spacing" textLength="116" x="1291.5" y="1181.2148">:Repositories</text><rect fill="#E3E3E3" height="64.3125" rx="2.5" ry="2.5" style="stroke:#181818;stroke-width:0.5;" width="195" x="1424.5" y="63.4531"/><text fill="#000000" font-family="sans-serif" font-size="20" lengthAdjust="spacing" textLength="181" x="1431.5" y="91.2148">messageRepository:</text><text fill="#000000" font-family="sans-serif" font-size="20" lengthAdjust="spacing" textLength="176" x="1434" y="116.3711">MessageRepository</text><rect fill="#E3E3E3" height="64.3125" rx="2.5" ry="2.5" style="stroke:#181818;stroke-width:0.5;" width="195" x="1424.5" y="1128.2969"/><text fill="#000000" font-family="sans-serif" font-size="20" lengthAdjust="spacing" textLength="181" x="1431.5" y="1156.0586">messageRepository:</text><text fill="#000000" font-family="sans-serif" font-size="20" lengthAdjust="spacing" textLength="176" x="1434" y="1181.2148">MessageRepository</text><rect fill="#E3E3E3" height="39.1563" rx="2.5" ry="2.5" style="stroke:#181818;stroke-width:0.5;" width="184" x="1629.5" y="88.6094"/><text fill="#000000" font-family="sans-serif" font-size="20" lengthAdjust="spacing" textLength="170" x="1636.5" y="116.3711">:ApplicationSession</text><rect fill="#E3E3E3" height="39.1563" rx="2.5" ry="2.5" style="stroke:#181818;stroke-width:0.5;" width="184" x="1629.5" y="1128.2969"/><text fill="#000000" font-family="sans-serif" font-size="20" lengthAdjust="spacing" textLength="170" x="1636.5" y="1156.0586">:ApplicationSession</text><rect fill="#E3E3E3" height="64.3125" rx="2.5" ry="2.5" style="stroke:#181818;stroke-width:0.5;" width="184" x="1823.5" y="63.4531"/><text fill="#000000" font-family="sans-serif" font-size="20" lengthAdjust="spacing" textLength="102" x="1864.5" y="91.2148">appSession</text><text fill="#000000" font-family="sans-serif" font-size="20" lengthAdjust="spacing" textLength="170" x="1830.5" y="116.3711">:ApplicationSession</text><rect fill="#E3E3E3" height="64.3125" rx="2.5" ry="2.5" style="stroke:#181818;stroke-width:0.5;" width="184" x="1823.5" y="1128.2969"/><text fill="#000000" font-family="sans-serif" font-size="20" lengthAdjust="spacing" textLength="102" x="1864.5" y="1156.0586">appSession</text><text fill="#000000" font-family="sans-serif" font-size="20" lengthAdjust="spacing" textLength="170" x="1830.5" y="1181.2148">:ApplicationSession</text><rect fill="#E3E3E3" height="64.3125" rx="2.5" ry="2.5" style="stroke:#181818;stroke-width:0.5;" width="144" x="2017.5" y="63.4531"/><text fill="#000000" font-family="sans-serif" font-size="20" lengthAdjust="spacing" textLength="130" x="2024.5" y="91.2148">currentSession</text><text fill="#000000" font-family="sans-serif" font-size="20" lengthAdjust="spacing" textLength="116" x="2031.5" y="116.3711">:UserSession</text><rect fill="#E3E3E3" height="64.3125" rx="2.5" ry="2.5" style="stroke:#181818;stroke-width:0.5;" width="144" x="2017.5" y="1128.2969"/><text fill="#000000" font-family="sans-serif" font-size="20" lengthAdjust="spacing" textLength="130" x="2024.5" y="1156.0586">currentSession</text><text fill="#000000" font-family="sans-serif" font-size="20" lengthAdjust="spacing" textLength="116" x="2031.5" y="1181.2148">:UserSession</text><rect fill="#E3E3E3" height="64.3125" rx="2.5" ry="2.5" style="stroke:#181818;stroke-width:0.5;" width="208" x="2171.5" y="63.4531"/><text fill="#000000" font-family="sans-serif" font-size="20" lengthAdjust="spacing" textLength="180" x="2185.5" y="91.2148">employeeRepository</text><text fill="#000000" font-family="sans-serif" font-size="20" lengthAdjust="spacing" textLength="194" x="2178.5" y="116.3711">:Employee Repository</text><rect fill="#E3E3E3" height="64.3125" rx="2.5" ry="2.5" style="stroke:#181818;stroke-width:0.5;" width="208" x="2171.5" y="1128.2969"/><text fill="#000000" font-family="sans-serif" font-size="20" lengthAdjust="spacing" textLength="180" x="2185.5" y="1156.0586">employeeRepository</text><text fill="#000000" font-family="sans-serif" font-size="20" lengthAdjust="spacing" textLength="194" x="2178.5" y="1181.2148">:Employee Repository</text><rect fill="#E3E3E3" height="39.1563" rx="2.5" ry="2.5" style="stroke:#181818;stroke-width:0.5;" width="136" x="2389.5" y="88.6094"/><text fill="#000000" font-family="sans-serif" font-size="20" lengthAdjust="spacing" textLength="122" x="2396.5" y="116.3711">:sortAlgorithm</text><rect fill="#E3E3E3" height="39.1563" rx="2.5" ry="2.5" style="stroke:#181818;stroke-width:0.5;" width="136" x="2389.5" y="1128.2969"/><text fill="#000000" font-family="sans-serif" font-size="20" lengthAdjust="spacing" textLength="122" x="2396.5" y="1156.0586">:sortAlgorithm</text><rect fill="#E3E3E3" height="39.1563" rx="2.5" ry="2.5" style="stroke:#181818;stroke-width:0.5;" width="169" x="2535.5" y="88.6094"/><text fill="#000000" font-family="sans-serif" font-size="20" lengthAdjust="spacing" textLength="155" x="2542.5" y="116.3711">:MessageMapper</text><rect fill="#E3E3E3" height="39.1563" rx="2.5" ry="2.5" style="stroke:#181818;stroke-width:0.5;" width="169" x="2535.5" y="1128.2969"/><text fill="#000000" font-family="sans-serif" font-size="20" lengthAdjust="spacing" textLength="155" x="2542.5" y="1156.0586">:MessageMapper</text><rect fill="#E3E3E3" height="39.1563" rx="2.5" ry="2.5" style="stroke:#181818;stroke-width:0.5;" width="181" x="2714.5" y="88.6094"/><text fill="#000000" font-family="sans-serif" font-size="20" lengthAdjust="spacing" textLength="167" x="2721.5" y="116.3711">message:Message</text><rect fill="#E3E3E3" height="39.1563" rx="2.5" ry="2.5" style="stroke:#181818;stroke-width:0.5;" width="181" x="2714.5" y="1128.2969"/><text fill="#000000" font-family="sans-serif" font-size="20" lengthAdjust="spacing" textLength="167" x="2721.5" y="1156.0586">message:Message</text><rect fill="#E3E3E3" height="39.1563" rx="2.5" ry="2.5" style="stroke:#181818;stroke-width:0.5;" width="334" x="2905.5" y="88.6094"/><text fill="#000000" font-family="sans-serif" font-size="20" lengthAdjust="spacing" textLength="320" x="2912.5" y="116.3711">listOfMessagesDto:List&lt;Messages&gt;</text><rect fill="#E3E3E3" height="39.1563" rx="2.5" ry="2.5" style="stroke:#181818;stroke-width:0.5;" width="334" x="2905.5" y="1128.2969"/><text fill="#000000" font-family="sans-serif" font-size="20" lengthAdjust="spacing" textLength="320" x="2912.5" y="1156.0586">listOfMessagesDto:List&lt;Messages&gt;</text><rect fill="#FFFFFF" height="972.5313" style="stroke:#181818;stroke-width:1.0;" width="10" x="28.5" y="138.7656"/><rect fill="#FFFFFF" height="89.3125" style="stroke:#181818;stroke-width:1.0;" width="10" x="638.5" y="169.9219"/><rect fill="#FFFFFF" height="812.9063" style="stroke:#181818;stroke-width:1.0;" width="10" x="638.5" y="298.3906"/><rect fill="#FFFFFF" height="709.4375" style="stroke:#181818;stroke-width:1.0;" width="10" x="882.5" y="337.5469"/><rect fill="#FFFFFF" height="165.7813" style="stroke:#181818;stroke-width:1.0;" width="10" x="887.5" y="641.1094"/><rect fill="#FFFFFF" height="154.7813" style="stroke:#181818;stroke-width:1.0;" width="10" x="2615" y="853.0469"/><polygon fill="#181818" points="626.5,165.9219,636.5,169.9219,626.5,173.9219,630.5,169.9219" style="stroke:#181818;stroke-width:1.0;"/><line style="stroke:#181818;stroke-width:1.0;" x1="38.5" x2="632.5" y1="169.9219" y2="169.9219"/><text fill="#000000" font-family="sans-serif" font-size="20" font-weight="bold" lengthAdjust="spacing" textLength="11" x="45.5" y="163.5273">1</text><text fill="#000000" font-family="sans-serif" font-size="20" lengthAdjust="spacing" textLength="550" x="60.5" y="163.5273">asks to list all booking requests for properties managed by him</text><polygon fill="#181818" points="767,205.0781,777,209.0781,767,213.0781,771,209.0781" style="stroke:#181818;stroke-width:1.0;"/><line style="stroke:#181818;stroke-width:1.0;" x1="648.5" x2="773" y1="209.0781" y2="209.0781"/><text fill="#000000" font-family="sans-serif" font-size="20" font-weight="bold" lengthAdjust="spacing" textLength="11" x="655.5" y="202.6836">2</text><text fill="#000000" font-family="sans-serif" font-size="20" lengthAdjust="spacing" textLength="56" x="670.5" y="202.6836">create</text><rect fill="#E3E3E3" height="39.1563" rx="2.5" ry="2.5" style="stroke:#181818;stroke-width:0.5;" width="217" x="779" y="177.9219"/><text fill="#000000" font-family="sans-serif" font-size="20" lengthAdjust="spacing" textLength="203" x="786" y="205.6836">:ListMessageController</text><polygon fill="#181818" points="49.5,255.2344,39.5,259.2344,49.5,263.2344,45.5,259.2344" style="stroke:#181818;stroke-width:1.0;"/><line style="stroke:#181818;stroke-width:1.0;stroke-dasharray:2.0,2.0;" x1="43.5" x2="642.5" y1="259.2344" y2="259.2344"/><text fill="#000000" font-family="sans-serif" font-size="20" font-weight="bold" lengthAdjust="spacing" textLength="11" x="55.5" y="252.8398">3</text><text fill="#000000" font-family="sans-serif" font-size="20" lengthAdjust="spacing" textLength="520" x="70.5" y="252.8398">requests an initial date and an end date for list the requests</text><polygon fill="#181818" points="626.5,294.3906,636.5,298.3906,626.5,302.3906,630.5,298.3906" style="stroke:#181818;stroke-width:1.0;"/><line style="stroke:#181818;stroke-width:1.0;" x1="38.5" x2="632.5" y1="298.3906" y2="298.3906"/><text fill="#000000" font-family="sans-serif" font-size="20" font-weight="bold" lengthAdjust="spacing" textLength="11" x="45.5" y="291.9961">4</text><text fill="#000000" font-family="sans-serif" font-size="20" lengthAdjust="spacing" textLength="402" x="60.5" y="291.9961">selects requested data (begin date, end date)</text><polygon fill="#181818" points="870.5,333.5469,880.5,337.5469,870.5,341.5469,874.5,337.5469" style="stroke:#181818;stroke-width:1.0;"/><line style="stroke:#181818;stroke-width:1.0;" x1="648.5" x2="876.5" y1="337.5469" y2="337.5469"/><text fill="#000000" font-family="sans-serif" font-size="20" font-weight="bold" lengthAdjust="spacing" textLength="11" x="655.5" y="331.1523">5</text><text fill="#000000" font-family="sans-serif" font-size="20" lengthAdjust="spacing" textLength="154" x="670.5" y="331.1523">getListMessage()</text><rect fill="none" height="110.625" style="stroke:#000000;stroke-width:1.5;" width="223" x="776" y="345.5469"/><path d="M776,345.5469 L847,345.5469 L847,362.5469 L837,372.5469 L776,372.5469 L776,345.5469 " fill="#EEEEEE" style="stroke:#000000;stroke-width:2.0;"/><text fill="#000000" font-family="sans-serif" font-size="20" font-weight="bold" lengthAdjust="spacing" textLength="26" x="789" y="368.3086">ref</text><text fill="#000000" font-family="sans-serif" font-size="20" lengthAdjust="spacing" textLength="6" x="884.5" y="397.3086"> </text><text fill="#000000" font-family="sans-serif" font-size="20" lengthAdjust="spacing" textLength="173" x="801" y="422.4648">Get Agent By Email</text><text fill="#000000" font-family="sans-serif" font-size="20" lengthAdjust="spacing" textLength="6" x="884.5" y="447.6211"> </text><rect fill="none" height="110.625" style="stroke:#000000;stroke-width:1.5;" width="244" x="776" y="461.1719"/><path d="M776,461.1719 L847,461.1719 L847,478.1719 L837,488.1719 L776,488.1719 L776,461.1719 " fill="#EEEEEE" style="stroke:#000000;stroke-width:2.0;"/><text fill="#000000" font-family="sans-serif" font-size="20" font-weight="bold" lengthAdjust="spacing" textLength="26" x="789" y="483.9336">ref</text><text fill="#000000" font-family="sans-serif" font-size="20" lengthAdjust="spacing" textLength="6" x="895" y="512.9336"> </text><text fill="#000000" font-family="sans-serif" font-size="20" lengthAdjust="spacing" textLength="236" x="780" y="538.0898">Get Message Request List</text><text fill="#000000" font-family="sans-serif" font-size="20" lengthAdjust="spacing" textLength="6" x="895" y="563.2461"> </text><line style="stroke:#181818;stroke-width:1.0;" x1="892.5" x2="939.5" y1="628.1094" y2="628.1094"/><line style="stroke:#181818;stroke-width:1.0;" x1="939.5" x2="939.5" y1="628.1094" y2="641.1094"/><line style="stroke:#181818;stroke-width:1.0;" x1="898.5" x2="939.5" y1="641.1094" y2="641.1094"/><polygon fill="#181818" points="908.5,637.1094,898.5,641.1094,908.5,645.1094,904.5,641.1094" style="stroke:#181818;stroke-width:1.0;"/><text fill="#000000" font-family="sans-serif" font-size="20" font-weight="bold" lengthAdjust="spacing" textLength="22" x="904.5" y="609.1367">21</text><text fill="#000000" font-family="sans-serif" font-size="20" lengthAdjust="spacing" textLength="272" x="930.5" y="596.5586">getSortedMessageRequestList</text><text fill="#000000" font-family="sans-serif" font-size="20" lengthAdjust="spacing" textLength="198" x="930.5" y="621.7148">(messageRequestList)</text><rect fill="none" height="110.625" style="stroke:#000000;stroke-width:1.5;" width="223" x="776" y="654.1094"/><path d="M776,654.1094 L847,654.1094 L847,671.1094 L837,681.1094 L776,681.1094 L776,654.1094 " fill="#EEEEEE" style="stroke:#000000;stroke-width:2.0;"/><text fill="#000000" font-family="sans-serif" font-size="20" font-weight="bold" lengthAdjust="spacing" textLength="26" x="789" y="676.8711">ref</text><text fill="#000000" font-family="sans-serif" font-size="20" lengthAdjust="spacing" textLength="6" x="884.5" y="705.8711"> </text><text fill="#000000" font-family="sans-serif" font-size="20" lengthAdjust="spacing" textLength="191" x="792" y="731.0273">Create Sort Algorithm</text><text fill="#000000" font-family="sans-serif" font-size="20" lengthAdjust="spacing" textLength="6" x="884.5" y="756.1836"> </text><line style="stroke:#181818;stroke-width:1.0;stroke-dasharray:2.0,2.0;" x1="897.5" x2="939.5" y1="805.8906" y2="805.8906"/><line style="stroke:#181818;stroke-width:1.0;stroke-dasharray:2.0,2.0;" x1="939.5" x2="939.5" y1="805.8906" y2="818.8906"/><line style="stroke:#181818;stroke-width:1.0;stroke-dasharray:2.0,2.0;" x1="892.5" x2="939.5" y1="818.8906" y2="818.8906"/><polygon fill="#181818" points="902.5,814.8906,892.5,818.8906,902.5,822.8906,898.5,818.8906" style="stroke:#181818;stroke-width:1.0;"/><text fill="#000000" font-family="sans-serif" font-size="20" font-weight="bold" lengthAdjust="spacing" textLength="22" x="904.5" y="799.4961">25</text><text fill="#000000" font-family="sans-serif" font-size="20" lengthAdjust="spacing" textLength="241" x="930.5" y="799.4961">sortedMessageRequestList</text><polygon fill="#181818" points="2603,849.0469,2613,853.0469,2603,857.0469,2607,853.0469" style="stroke:#181818;stroke-width:1.0;"/><line style="stroke:#181818;stroke-width:1.0;" x1="892.5" x2="2609" y1="853.0469" y2="853.0469"/><text fill="#000000" font-family="sans-serif" font-size="20" font-weight="bold" lengthAdjust="spacing" textLength="22" x="899.5" y="846.6523">26</text><text fill="#000000" font-family="sans-serif" font-size="20" lengthAdjust="spacing" textLength="257" x="925.5" y="846.6523">toDTO(messageRequestList)</text><rect fill="none" height="110.625" style="stroke:#000000;stroke-width:1.5;" width="267" x="2532.5" y="861.0469"/><path d="M2532.5,861.0469 L2603.5,861.0469 L2603.5,878.0469 L2593.5,888.0469 L2532.5,888.0469 L2532.5,861.0469 " fill="#EEEEEE" style="stroke:#000000;stroke-width:2.0;"/><text fill="#000000" font-family="sans-serif" font-size="20" font-weight="bold" lengthAdjust="spacing" textLength="26" x="2545.5" y="883.8086">ref</text><text fill="#000000" font-family="sans-serif" font-size="20" lengthAdjust="spacing" textLength="6" x="2663" y="912.8086"> </text><text fill="#000000" font-family="sans-serif" font-size="20" lengthAdjust="spacing" textLength="259" x="2536.5" y="937.9648">Create List Of Messages Dto</text><text fill="#000000" font-family="sans-serif" font-size="20" lengthAdjust="spacing" textLength="6" x="2663" y="963.1211"> </text><polygon fill="#181818" points="903.5,1003.8281,893.5,1007.8281,903.5,1011.8281,899.5,1007.8281" style="stroke:#181818;stroke-width:1.0;"/><line style="stroke:#181818;stroke-width:1.0;stroke-dasharray:2.0,2.0;" x1="897.5" x2="2619" y1="1007.8281" y2="1007.8281"/><text fill="#000000" font-family="sans-serif" font-size="20" font-weight="bold" lengthAdjust="spacing" textLength="22" x="909.5" y="1001.4336">45</text><text fill="#000000" font-family="sans-serif" font-size="20" lengthAdjust="spacing" textLength="184" x="935.5" y="1001.4336">messageRequestList</text><polygon fill="#181818" points="659.5,1042.9844,649.5,1046.9844,659.5,1050.9844,655.5,1046.9844" style="stroke:#181818;stroke-width:1.0;"/><line style="stroke:#181818;stroke-width:1.0;stroke-dasharray:2.0,2.0;" x1="653.5" x2="886.5" y1="1046.9844" y2="1046.9844"/><text fill="#000000" font-family="sans-serif" font-size="20" font-weight="bold" lengthAdjust="spacing" textLength="22" x="665.5" y="1040.5898">46</text><text fill="#000000" font-family="sans-serif" font-size="20" lengthAdjust="spacing" textLength="184" x="691.5" y="1040.5898">messageRequestList</text><polygon fill="#181818" points="44.5,1107.2969,34.5,1111.2969,44.5,1115.2969,40.5,1111.2969" style="stroke:#181818;stroke-width:1.0;"/><line style="stroke:#181818;stroke-width:1.0;stroke-dasharray:2.0,2.0;" x1="38.5" x2="642.5" y1="1111.2969" y2="1111.2969"/><text fill="#000000" font-family="sans-serif" font-size="20" font-weight="bold" lengthAdjust="spacing" textLength="22" x="50.5" y="1092.3242">47</text><text fill="#000000" font-family="sans-serif" font-size="20" lengthAdjust="spacing" textLength="550" x="76.5" y="1079.7461">shows all message requests sorted by date in ascending order</text><text fill="#000000" font-family="sans-serif" font-size="20" lengthAdjust="spacing" textLength="274" x="76.5" y="1104.9023">and displays operation success</text><!--SRC=[bLLDJ-Cm4BtdLuouB8iM2T1ogLP8NTX5I20GQM-zkCaqiUhOMTk1pVxw7Rjf4gT91Rwa6R_vUfbvDLikIwPP8LIonHHItB1AsDzAsfZ_GxYwYCmU0eMIAicrAX2ihh1tKx9aopACRIqGD2QMoKpq0IPdgNhdCeCD4mQZY5LMoQfOeuuYoosvnVYdGfaWt76MEP-u5Dp2EIpZYylhAFgIynHXevHTgxyHIwpIS3BFKDeJO0RyhuYoMPxmaaaB9xD7RkmJ6aEbBHyyQlam3RcbfhKI0hM7tYvU7mVWLooLuPIOe_6Orb27IDq3hkIXNtjVNuMEnQwKBkvi9P-6DX_Ym3geTLuIVGcpNCcOeFJmRgmiGo0PcdigTC9f_l8IEYMLraHtvxWqgFiUxZrqmQ8KgiPUmUJsgp72eBczVT2JKThEHKOyshpmm7WnVxmVe1fcdgYpvbFkVeuolKVtEJKXKj28F6_sTtTM-Q7viJVSU5VHpP6vMpn7T6X4-Hkps8nc1Ctnht1-GyC8C_BT6h3A1m0c1AoLshf5qMuVZ3KqyXfAhQW3I_C31PEK98Lr3Jalkh1jEfhnrkWEfQ5aRfpFpYXXef5G8SHZ2BGhRTRbPXAuv9Op0QcBpMJgR4WF_-vgyvNR75klC7IAavKDg023WhJ3x0EXJyBWT8qPbpxXjpRrrp3IT8wkVKgHeUrj_EbK4B_xuPt63QWtr6DtTExHDjtyh6by6HS33DKTMeu4TC6Q4capF1VWoWvH1n4xJOMho_3Ajn_G4DCkOTggY4_YSgpaQN5W37awGjEWgLi_Q-1oGRkud-ZYUgoBhWqpqKCqCN-xeaQ9sKa4nRIArlVZ53JICax2s6L3YGi9pvjMSe1q9G0Uu-NxzQ2BfleUDSM7IMcAF7ux_XdyrXQVf7z2SaokteqNm2PW9qAxp-m4psiEIG4p2V7ZL5Bf5FLAEbrAkIa5gmqugVJ_OM2g9A5eqRGEzQoDJFy7]--></g></svg>