<?xml version="1.0" encoding="us-ascii" standalone="no"?><svg xmlns="http://www.w3.org/2000/svg" xmlns:xlink="http://www.w3.org/1999/xlink" contentStyleType="text/css" height="1117.9px" preserveAspectRatio="none" style="width:1920px;height:1117px;background:#FFFFFF;" version="1.1" viewBox="0 0 1920 1117" width="1920.8px" zoomAndPan="magnify"><defs/><g><text fill="#000000" font-family="sans-serif" font-size="9.8" font-weight="bold" lengthAdjust="spacing" textLength="154.7" x="884.1" y="19.3717">Sequence Diagram (SD) - US015</text><rect fill="#FFFFFF" height="960.3344" style="stroke:#181818;stroke-width:0.6999999999999998;" width="7" x="15.05" y="89.0969"/><rect fill="#FFFFFF" height="48.4148" style="stroke:#181818;stroke-width:0.6999999999999998;" width="7" x="299.25" y="103.4633"/><rect fill="#FFFFFF" height="837.6539" style="stroke:#181818;stroke-width:0.6999999999999998;" width="7" x="299.25" y="171.8445"/><rect fill="#FFFFFF" height="26.2664" style="stroke:#181818;stroke-width:0.6999999999999998;" width="7" x="299.25" y="1029.4648"/><rect fill="#FFFFFF" height="787.5547" style="stroke:#181818;stroke-width:0.6999999999999998;" width="7" x="457.45" y="191.8109"/><rect fill="#FFFFFF" height="19.9664" style="stroke:#181818;stroke-width:0.6999999999999998;" width="7" x="593.95" y="400.575"/><rect fill="#FFFFFF" height="19.9664" style="stroke:#181818;stroke-width:0.6999999999999998;" width="7" x="668.85" y="440.5078"/><rect fill="#FFFFFF" height="19.9664" style="stroke:#181818;stroke-width:0.6999999999999998;" width="7" x="759.85" y="490.607"/><rect fill="#FFFFFF" height="19.9664" style="stroke:#181818;stroke-width:0.6999999999999998;" width="7" x="864.85" y="240.8437"/><rect fill="#FFFFFF" height="19.9664" style="stroke:#181818;stroke-width:0.6999999999999998;" width="7" x="967.75" y="280.7766"/><rect fill="#FFFFFF" height="19.9664" style="stroke:#181818;stroke-width:0.6999999999999998;" width="7" x="1060.85" y="320.7094"/><rect fill="#FFFFFF" height="19.9664" style="stroke:#181818;stroke-width:0.6999999999999998;" width="7" x="1159.2" y="360.6422"/><rect fill="#FFFFFF" height="428.8594" style="stroke:#181818;stroke-width:0.6999999999999998;" width="7" x="1245.3" y="530.5398"/><rect fill="#FFFFFF" height="19.6" style="stroke:#181818;stroke-width:0.6999999999999998;" width="7" x="1248.8" y="840.618"/><rect fill="#FFFFFF" height="21" style="stroke:#181818;stroke-width:0.6999999999999998;" width="7" x="1661.8" y="913.5328"/><rect fill="#FFFFFF" height="19.9664" style="stroke:#181818;stroke-width:0.6999999999999998;" width="7" x="1830.5" y="595.4211"/><rect fill="#FFFFFF" height="19.9664" style="stroke:#181818;stroke-width:0.6999999999999998;" width="7" x="1830.5" y="635.3539"/><rect fill="#FFFFFF" height="19.9664" style="stroke:#181818;stroke-width:0.6999999999999998;" width="7" x="1830.5" y="675.2867"/><rect fill="#FFFFFF" height="19.9664" style="stroke:#181818;stroke-width:0.6999999999999998;" width="7" x="1830.5" y="715.2195"/><rect fill="#FFFFFF" height="19.9664" style="stroke:#181818;stroke-width:0.6999999999999998;" width="7" x="1830.5" y="755.1523"/><rect fill="#FFFFFF" height="19.9664" style="stroke:#181818;stroke-width:0.6999999999999998;" width="7" x="1830.5" y="795.0852"/><rect fill="none" height="370.6445" style="stroke:#000000;stroke-width:1.0499999999999998;" width="700.7" x="1215.9" y="569.4883"/><line style="stroke:#181818;stroke-width:0.3499999999999999;stroke-dasharray:5.0,5.0;" x1="18.2" x2="18.2" y1="82.0969" y2="1062.0312"/><line style="stroke:#181818;stroke-width:0.3499999999999999;stroke-dasharray:5.0,5.0;" x1="302.4" x2="302.4" y1="82.0969" y2="1062.0312"/><line style="stroke:#181818;stroke-width:0.3499999999999999;stroke-dasharray:5.0,5.0;" x1="460.6" x2="460.6" y1="130.2875" y2="1062.0312"/><line style="stroke:#181818;stroke-width:0.3499999999999999;stroke-dasharray:5.0,5.0;" x1="597.1" x2="597.1" y1="82.0969" y2="1062.0312"/><line style="stroke:#181818;stroke-width:0.3499999999999999;stroke-dasharray:5.0,5.0;" x1="672" x2="672" y1="82.0969" y2="1062.0312"/><line style="stroke:#181818;stroke-width:0.3499999999999999;stroke-dasharray:5.0,5.0;" x1="763" x2="763" y1="82.0969" y2="1062.0312"/><line style="stroke:#181818;stroke-width:0.3499999999999999;stroke-dasharray:5.0,5.0;" x1="868" x2="868" y1="82.0969" y2="1062.0312"/><line style="stroke:#181818;stroke-width:0.3499999999999999;stroke-dasharray:5.0,5.0;" x1="970.9" x2="970.9" y1="82.0969" y2="1062.0312"/><line style="stroke:#181818;stroke-width:0.3499999999999999;stroke-dasharray:5.0,5.0;" x1="1064" x2="1064" y1="82.0969" y2="1062.0312"/><line style="stroke:#181818;stroke-width:0.3499999999999999;stroke-dasharray:5.0,5.0;" x1="1162.7" x2="1162.7" y1="82.0969" y2="1062.0312"/><line style="stroke:#181818;stroke-width:0.3499999999999999;stroke-dasharray:5.0,5.0;" x1="1248.8" x2="1248.8" y1="82.0969" y2="1062.0312"/><line style="stroke:#181818;stroke-width:0.3499999999999999;stroke-dasharray:5.0,5.0;" x1="1665.3" x2="1665.3" y1="891.9422" y2="1062.0312"/><line style="stroke:#181818;stroke-width:0.3499999999999999;stroke-dasharray:5.0,5.0;" x1="1834" x2="1834" y1="82.0969" y2="1062.0312"/><text fill="#000000" font-family="sans-serif" font-size="9.8" lengthAdjust="spacing" textLength="25.9" x="3.5" y="80.0201">Agent</text><ellipse cx="18.55" cy="35.0984" fill="#E3E3E3" rx="5.6" ry="5.6" style="stroke:#181818;stroke-width:0.3499999999999999;"/><path d="M18.55,40.6984 L18.55,59.5984 M9.45,46.2984 L27.65,46.2984 M18.55,59.5984 L9.45,70.0984 M18.55,59.5984 L27.65,70.0984 " fill="none" style="stroke:#181818;stroke-width:0.3499999999999999;"/><text fill="#000000" font-family="sans-serif" font-size="9.8" lengthAdjust="spacing" textLength="25.9" x="3.5" y="1070.2029">Agent</text><ellipse cx="18.55" cy="1078.2297" fill="#E3E3E3" rx="5.6" ry="5.6" style="stroke:#181818;stroke-width:0.3499999999999999;"/><path d="M18.55,1083.8297 L18.55,1102.7297 M9.45,1089.4297 L27.65,1089.4297 M18.55,1102.7297 L9.45,1113.2297 M18.55,1102.7297 L27.65,1113.2297 " fill="none" style="stroke:#181818;stroke-width:0.3499999999999999;"/><rect fill="#E3E3E3" height="20.7484" rx="1.75" ry="1.75" style="stroke:#181818;stroke-width:0.3499999999999999;" width="93.1" x="256.2" y="60.6484"/><text fill="#000000" font-family="sans-serif" font-size="9.8" lengthAdjust="spacing" textLength="83.3" x="261.1" y="74.4201">:DisplayMessageUI</text><rect fill="#E3E3E3" height="20.7484" rx="1.75" ry="1.75" style="stroke:#181818;stroke-width:0.3499999999999999;" width="93.1" x="256.2" y="1061.3312"/><text fill="#000000" font-family="sans-serif" font-size="9.8" lengthAdjust="spacing" textLength="83.3" x="261.1" y="1075.1029">:DisplayMessageUI</text><rect fill="#E3E3E3" height="20.7484" rx="1.75" ry="1.75" style="stroke:#181818;stroke-width:0.3499999999999999;" width="128.1" x="396.9" y="1061.3312"/><text fill="#000000" font-family="sans-serif" font-size="9.8" lengthAdjust="spacing" textLength="118.3" x="401.8" y="1075.1029">:DisplayMessageController</text><rect fill="#E3E3E3" height="20.7484" rx="1.75" ry="1.75" style="stroke:#181818;stroke-width:0.3499999999999999;" width="67.9" x="563.5" y="60.6484"/><text fill="#000000" font-family="sans-serif" font-size="9.8" lengthAdjust="spacing" textLength="58.1" x="568.4" y="74.4201">:Repositories</text><rect fill="#E3E3E3" height="20.7484" rx="1.75" ry="1.75" style="stroke:#181818;stroke-width:0.3499999999999999;" width="67.9" x="563.5" y="1061.3312"/><text fill="#000000" font-family="sans-serif" font-size="9.8" lengthAdjust="spacing" textLength="58.1" x="568.4" y="1075.1029">:Repositories</text><rect fill="#E3E3E3" height="31.6969" rx="1.75" ry="1.75" style="stroke:#181818;stroke-width:0.3499999999999999;" width="67.9" x="638.4" y="49.7"/><text fill="#000000" font-family="sans-serif" font-size="9.8" lengthAdjust="spacing" textLength="51.8" x="646.45" y="63.4717">repositories</text><text fill="#000000" font-family="sans-serif" font-size="9.8" lengthAdjust="spacing" textLength="58.1" x="643.3" y="74.4201">:Repositories</text><rect fill="#E3E3E3" height="31.6969" rx="1.75" ry="1.75" style="stroke:#181818;stroke-width:0.3499999999999999;" width="67.9" x="638.4" y="1061.3312"/><text fill="#000000" font-family="sans-serif" font-size="9.8" lengthAdjust="spacing" textLength="51.8" x="646.45" y="1075.1029">repositories</text><text fill="#000000" font-family="sans-serif" font-size="9.8" lengthAdjust="spacing" textLength="58.1" x="643.3" y="1086.0514">:Repositories</text><rect fill="#E3E3E3" height="31.6969" rx="1.75" ry="1.75" style="stroke:#181818;stroke-width:0.3499999999999999;" width="100.1" x="713.3" y="49.7"/><text fill="#000000" font-family="sans-serif" font-size="9.8" lengthAdjust="spacing" textLength="90.3" x="718.2" y="63.4717">messageRepository:</text><text fill="#000000" font-family="sans-serif" font-size="9.8" lengthAdjust="spacing" textLength="87.5" x="719.6" y="74.4201">MessageRepository</text><rect fill="#E3E3E3" height="31.6969" rx="1.75" ry="1.75" style="stroke:#181818;stroke-width:0.3499999999999999;" width="100.1" x="713.3" y="1061.3312"/><text fill="#000000" font-family="sans-serif" font-size="9.8" lengthAdjust="spacing" textLength="90.3" x="718.2" y="1075.1029">messageRepository:</text><text fill="#000000" font-family="sans-serif" font-size="9.8" lengthAdjust="spacing" textLength="87.5" x="719.6" y="1086.0514">MessageRepository</text><rect fill="#E3E3E3" height="20.7484" rx="1.75" ry="1.75" style="stroke:#181818;stroke-width:0.3499999999999999;" width="95.9" x="820.4" y="60.6484"/><text fill="#000000" font-family="sans-serif" font-size="9.8" lengthAdjust="spacing" textLength="86.1" x="825.3" y="74.4201">:ApplicationSession</text><rect fill="#E3E3E3" height="20.7484" rx="1.75" ry="1.75" style="stroke:#181818;stroke-width:0.3499999999999999;" width="95.9" x="820.4" y="1061.3312"/><text fill="#000000" font-family="sans-serif" font-size="9.8" lengthAdjust="spacing" textLength="86.1" x="825.3" y="1075.1029">:ApplicationSession</text><rect fill="#E3E3E3" height="31.6969" rx="1.75" ry="1.75" style="stroke:#181818;stroke-width:0.3499999999999999;" width="95.9" x="923.3" y="49.7"/><text fill="#000000" font-family="sans-serif" font-size="9.8" lengthAdjust="spacing" textLength="51.8" x="945.35" y="63.4717">appSession</text><text fill="#000000" font-family="sans-serif" font-size="9.8" lengthAdjust="spacing" textLength="86.1" x="928.2" y="74.4201">:ApplicationSession</text><rect fill="#E3E3E3" height="31.6969" rx="1.75" ry="1.75" style="stroke:#181818;stroke-width:0.3499999999999999;" width="95.9" x="923.3" y="1061.3312"/><text fill="#000000" font-family="sans-serif" font-size="9.8" lengthAdjust="spacing" textLength="51.8" x="945.35" y="1075.1029">appSession</text><text fill="#000000" font-family="sans-serif" font-size="9.8" lengthAdjust="spacing" textLength="86.1" x="928.2" y="1086.0514">:ApplicationSession</text><rect fill="#E3E3E3" height="31.6969" rx="1.75" ry="1.75" style="stroke:#181818;stroke-width:0.3499999999999999;" width="76.3" x="1026.2" y="49.7"/><text fill="#000000" font-family="sans-serif" font-size="9.8" lengthAdjust="spacing" textLength="66.5" x="1031.1" y="63.4717">currentSession</text><text fill="#000000" font-family="sans-serif" font-size="9.8" lengthAdjust="spacing" textLength="58.1" x="1035.3" y="74.4201">:UserSession</text><rect fill="#E3E3E3" height="31.6969" rx="1.75" ry="1.75" style="stroke:#181818;stroke-width:0.3499999999999999;" width="76.3" x="1026.2" y="1061.3312"/><text fill="#000000" font-family="sans-serif" font-size="9.8" lengthAdjust="spacing" textLength="66.5" x="1031.1" y="1075.1029">currentSession</text><text fill="#000000" font-family="sans-serif" font-size="9.8" lengthAdjust="spacing" textLength="58.1" x="1035.3" y="1086.0514">:UserSession</text><rect fill="#E3E3E3" height="31.6969" rx="1.75" ry="1.75" style="stroke:#181818;stroke-width:0.3499999999999999;" width="106.4" x="1109.5" y="49.7"/><text fill="#000000" font-family="sans-serif" font-size="9.8" lengthAdjust="spacing" textLength="90.3" x="1117.55" y="63.4717">employeeRepository</text><text fill="#000000" font-family="sans-serif" font-size="9.8" lengthAdjust="spacing" textLength="96.6" x="1114.4" y="74.4201">:Employee Repository</text><rect fill="#E3E3E3" height="31.6969" rx="1.75" ry="1.75" style="stroke:#181818;stroke-width:0.3499999999999999;" width="106.4" x="1109.5" y="1061.3312"/><text fill="#000000" font-family="sans-serif" font-size="9.8" lengthAdjust="spacing" textLength="90.3" x="1117.55" y="1075.1029">employeeRepository</text><text fill="#000000" font-family="sans-serif" font-size="9.8" lengthAdjust="spacing" textLength="96.6" x="1114.4" y="1086.0514">:Employee Repository</text><rect fill="#E3E3E3" height="20.7484" rx="1.75" ry="1.75" style="stroke:#181818;stroke-width:0.3499999999999999;" width="51.8" x="1222.9" y="60.6484"/><text fill="#000000" font-family="sans-serif" font-size="9.8" lengthAdjust="spacing" textLength="42" x="1227.8" y="74.4201">:XMapper</text><rect fill="#E3E3E3" height="20.7484" rx="1.75" ry="1.75" style="stroke:#181818;stroke-width:0.3499999999999999;" width="51.8" x="1222.9" y="1061.3312"/><text fill="#000000" font-family="sans-serif" font-size="9.8" lengthAdjust="spacing" textLength="42" x="1227.8" y="1075.1029">:XMapper</text><rect fill="#E3E3E3" height="20.7484" rx="1.75" ry="1.75" style="stroke:#181818;stroke-width:0.3499999999999999;" width="172.2" x="1579.2" y="1061.3312"/><text fill="#000000" font-family="sans-serif" font-size="9.8" lengthAdjust="spacing" textLength="162.4" x="1584.1" y="1075.1029">listOfMessagesDTO:List&lt;Messages&gt;</text><rect fill="#E3E3E3" height="20.7484" rx="1.75" ry="1.75" style="stroke:#181818;stroke-width:0.3499999999999999;" width="151.2" x="1758.4" y="60.6484"/><text fill="#000000" font-family="sans-serif" font-size="9.8" lengthAdjust="spacing" textLength="141.4" x="1763.3" y="74.4201">listOfMessages:List&lt;Messages&gt;</text><rect fill="#E3E3E3" height="20.7484" rx="1.75" ry="1.75" style="stroke:#181818;stroke-width:0.3499999999999999;" width="151.2" x="1758.4" y="1061.3312"/><text fill="#000000" font-family="sans-serif" font-size="9.8" lengthAdjust="spacing" textLength="141.4" x="1763.3" y="1075.1029">listOfMessages:List&lt;Messages&gt;</text><rect fill="#FFFFFF" height="960.3344" style="stroke:#181818;stroke-width:0.6999999999999998;" width="7" x="15.05" y="89.0969"/><rect fill="#FFFFFF" height="48.4148" style="stroke:#181818;stroke-width:0.6999999999999998;" width="7" x="299.25" y="103.4633"/><rect fill="#FFFFFF" height="837.6539" style="stroke:#181818;stroke-width:0.6999999999999998;" width="7" x="299.25" y="171.8445"/><rect fill="#FFFFFF" height="26.2664" style="stroke:#181818;stroke-width:0.6999999999999998;" width="7" x="299.25" y="1029.4648"/><rect fill="#FFFFFF" height="787.5547" style="stroke:#181818;stroke-width:0.6999999999999998;" width="7" x="457.45" y="191.8109"/><rect fill="#FFFFFF" height="19.9664" style="stroke:#181818;stroke-width:0.6999999999999998;" width="7" x="593.95" y="400.575"/><rect fill="#FFFFFF" height="19.9664" style="stroke:#181818;stroke-width:0.6999999999999998;" width="7" x="668.85" y="440.5078"/><rect fill="#FFFFFF" height="19.9664" style="stroke:#181818;stroke-width:0.6999999999999998;" width="7" x="759.85" y="490.607"/><rect fill="#FFFFFF" height="19.9664" style="stroke:#181818;stroke-width:0.6999999999999998;" width="7" x="864.85" y="240.8437"/><rect fill="#FFFFFF" height="19.9664" style="stroke:#181818;stroke-width:0.6999999999999998;" width="7" x="967.75" y="280.7766"/><rect fill="#FFFFFF" height="19.9664" style="stroke:#181818;stroke-width:0.6999999999999998;" width="7" x="1060.85" y="320.7094"/><rect fill="#FFFFFF" height="19.9664" style="stroke:#181818;stroke-width:0.6999999999999998;" width="7" x="1159.2" y="360.6422"/><rect fill="#FFFFFF" height="428.8594" style="stroke:#181818;stroke-width:0.6999999999999998;" width="7" x="1245.3" y="530.5398"/><rect fill="#FFFFFF" height="19.6" style="stroke:#181818;stroke-width:0.6999999999999998;" width="7" x="1248.8" y="840.618"/><rect fill="#FFFFFF" height="21" style="stroke:#181818;stroke-width:0.6999999999999998;" width="7" x="1661.8" y="913.5328"/><rect fill="#FFFFFF" height="19.9664" style="stroke:#181818;stroke-width:0.6999999999999998;" width="7" x="1830.5" y="595.4211"/><rect fill="#FFFFFF" height="19.9664" style="stroke:#181818;stroke-width:0.6999999999999998;" width="7" x="1830.5" y="635.3539"/><rect fill="#FFFFFF" height="19.9664" style="stroke:#181818;stroke-width:0.6999999999999998;" width="7" x="1830.5" y="675.2867"/><rect fill="#FFFFFF" height="19.9664" style="stroke:#181818;stroke-width:0.6999999999999998;" width="7" x="1830.5" y="715.2195"/><rect fill="#FFFFFF" height="19.9664" style="stroke:#181818;stroke-width:0.6999999999999998;" width="7" x="1830.5" y="755.1523"/><rect fill="#FFFFFF" height="19.9664" style="stroke:#181818;stroke-width:0.6999999999999998;" width="7" x="1830.5" y="795.0852"/><polygon fill="#181818" points="290.85,100.6633,297.85,103.4633,290.85,106.2633,293.65,103.4633" style="stroke:#181818;stroke-width:0.6999999999999998;"/><line style="stroke:#181818;stroke-width:0.6999999999999998;" x1="22.05" x2="295.05" y1="103.4633" y2="103.4633"/><text fill="#000000" font-family="sans-serif" font-size="9.1" font-weight="bold" lengthAdjust="spacing" textLength="4.9" x="26.95" y="100.1349">1</text><text fill="#000000" font-family="sans-serif" font-size="9.1" lengthAdjust="spacing" textLength="254.1" x="34.65" y="100.1349">asks to list all booking requests for properties managed by him</text><polygon fill="#181818" points="388.5,120.6297,395.5,123.4297,388.5,126.2297,391.3,123.4297" style="stroke:#181818;stroke-width:0.6999999999999998;"/><line style="stroke:#181818;stroke-width:0.6999999999999998;" x1="306.25" x2="392.7" y1="123.4297" y2="123.4297"/><text fill="#000000" font-family="sans-serif" font-size="9.1" font-weight="bold" lengthAdjust="spacing" textLength="4.9" x="311.15" y="120.1013">2</text><text fill="#000000" font-family="sans-serif" font-size="9.1" lengthAdjust="spacing" textLength="25.2" x="318.85" y="120.1013">create</text><rect fill="#E3E3E3" height="20.7484" rx="1.75" ry="1.75" style="stroke:#181818;stroke-width:0.3499999999999999;" width="128.1" x="396.9" y="109.0633"/><text fill="#000000" font-family="sans-serif" font-size="9.8" lengthAdjust="spacing" textLength="118.3" x="401.8" y="122.835">:DisplayMessageController</text><polygon fill="#181818" points="29.75,149.0781,22.75,151.8781,29.75,154.6781,26.95,151.8781" style="stroke:#181818;stroke-width:0.6999999999999998;"/><line style="stroke:#181818;stroke-width:0.6999999999999998;stroke-dasharray:2.0,2.0;" x1="25.55" x2="302.05" y1="151.8781" y2="151.8781"/><text fill="#000000" font-family="sans-serif" font-size="9.1" font-weight="bold" lengthAdjust="spacing" textLength="4.9" x="33.95" y="148.5497">3</text><text fill="#000000" font-family="sans-serif" font-size="9.1" lengthAdjust="spacing" textLength="240.1" x="41.65" y="148.5497">requests an initial date and an end date for list the requests</text><polygon fill="#181818" points="290.85,169.0445,297.85,171.8445,290.85,174.6445,293.65,171.8445" style="stroke:#181818;stroke-width:0.6999999999999998;"/><line style="stroke:#181818;stroke-width:0.6999999999999998;" x1="22.05" x2="295.05" y1="171.8445" y2="171.8445"/><text fill="#000000" font-family="sans-serif" font-size="9.1" font-weight="bold" lengthAdjust="spacing" textLength="4.9" x="26.95" y="168.5161">4</text><text fill="#000000" font-family="sans-serif" font-size="9.1" lengthAdjust="spacing" textLength="176.4" x="34.65" y="168.5161">types requested data (begin date, end date)</text><polygon fill="#181818" points="449.05,189.0109,456.05,191.8109,449.05,194.6109,451.85,191.8109" style="stroke:#181818;stroke-width:0.6999999999999998;"/><line style="stroke:#181818;stroke-width:0.6999999999999998;" x1="306.25" x2="453.25" y1="191.8109" y2="191.8109"/><text fill="#000000" font-family="sans-serif" font-size="9.1" font-weight="bold" lengthAdjust="spacing" textLength="4.9" x="311.15" y="188.4825">5</text><text fill="#000000" font-family="sans-serif" font-size="9.1" lengthAdjust="spacing" textLength="65.8" x="318.85" y="188.4825">getListBooking()</text><line style="stroke:#181818;stroke-width:0.6999999999999998;" x1="464.45" x2="493.85" y1="211.7773" y2="211.7773"/><line style="stroke:#181818;stroke-width:0.6999999999999998;" x1="493.85" x2="493.85" y1="211.7773" y2="220.8773"/><line style="stroke:#181818;stroke-width:0.6999999999999998;" x1="465.15" x2="493.85" y1="220.8773" y2="220.8773"/><polygon fill="#181818" points="472.15,218.0773,465.15,220.8773,472.15,223.6773,469.35,220.8773" style="stroke:#181818;stroke-width:0.6999999999999998;"/><text fill="#000000" font-family="sans-serif" font-size="9.1" font-weight="bold" lengthAdjust="spacing" textLength="4.9" x="469.35" y="208.4489">6</text><text fill="#000000" font-family="sans-serif" font-size="9.1" lengthAdjust="spacing" textLength="90.3" x="477.05" y="208.4489">getAgentFromSession</text><polygon fill="#181818" points="856.45,238.0437,863.45,240.8437,856.45,243.6437,859.25,240.8437" style="stroke:#181818;stroke-width:0.6999999999999998;"/><line style="stroke:#181818;stroke-width:0.6999999999999998;" x1="464.45" x2="860.65" y1="240.8437" y2="240.8437"/><text fill="#000000" font-family="sans-serif" font-size="9.1" font-weight="bold" lengthAdjust="spacing" textLength="4.9" x="469.35" y="237.5153">7</text><text fill="#000000" font-family="sans-serif" font-size="9.1" lengthAdjust="spacing" textLength="52.5" x="477.05" y="237.5153">getInstance()</text><polygon fill="#181818" points="472.15,258.0102,465.15,260.8102,472.15,263.6102,469.35,260.8102" style="stroke:#181818;stroke-width:0.6999999999999998;"/><line style="stroke:#181818;stroke-width:0.6999999999999998;stroke-dasharray:2.0,2.0;" x1="467.95" x2="867.65" y1="260.8102" y2="260.8102"/><text fill="#000000" font-family="sans-serif" font-size="9.1" font-weight="bold" lengthAdjust="spacing" textLength="4.9" x="476.35" y="257.4817">8</text><text fill="#000000" font-family="sans-serif" font-size="9.1" lengthAdjust="spacing" textLength="47.6" x="484.05" y="257.4817">appSession</text><polygon fill="#181818" points="959.35,277.9766,966.35,280.7766,959.35,283.5766,962.15,280.7766" style="stroke:#181818;stroke-width:0.6999999999999998;"/><line style="stroke:#181818;stroke-width:0.6999999999999998;" x1="464.45" x2="963.55" y1="280.7766" y2="280.7766"/><text fill="#000000" font-family="sans-serif" font-size="9.1" font-weight="bold" lengthAdjust="spacing" textLength="4.9" x="469.35" y="277.4481">9</text><text fill="#000000" font-family="sans-serif" font-size="9.1" lengthAdjust="spacing" textLength="80.5" x="477.05" y="277.4481">getCurrentSession()</text><polygon fill="#181818" points="472.15,297.943,465.15,300.743,472.15,303.543,469.35,300.743" style="stroke:#181818;stroke-width:0.6999999999999998;"/><line style="stroke:#181818;stroke-width:0.6999999999999998;stroke-dasharray:2.0,2.0;" x1="467.95" x2="970.55" y1="300.743" y2="300.743"/><text fill="#000000" font-family="sans-serif" font-size="9.1" font-weight="bold" lengthAdjust="spacing" textLength="9.8" x="476.35" y="297.4146">10</text><text fill="#000000" font-family="sans-serif" font-size="9.1" lengthAdjust="spacing" textLength="60.9" x="488.95" y="297.4146">currentSession</text><polygon fill="#181818" points="1052.45,317.9094,1059.45,320.7094,1052.45,323.5094,1055.25,320.7094" style="stroke:#181818;stroke-width:0.6999999999999998;"/><line style="stroke:#181818;stroke-width:0.6999999999999998;" x1="464.45" x2="1056.65" y1="320.7094" y2="320.7094"/><text fill="#000000" font-family="sans-serif" font-size="9.1" font-weight="bold" lengthAdjust="spacing" textLength="9.8" x="469.35" y="317.381">11</text><text fill="#000000" font-family="sans-serif" font-size="9.1" lengthAdjust="spacing" textLength="93.1" x="481.95" y="317.381">email = getUserEmail()</text><polygon fill="#181818" points="472.15,337.8758,465.15,340.6758,472.15,343.4758,469.35,340.6758" style="stroke:#181818;stroke-width:0.6999999999999998;"/><line style="stroke:#181818;stroke-width:0.6999999999999998;stroke-dasharray:2.0,2.0;" x1="467.95" x2="1063.65" y1="340.6758" y2="340.6758"/><text fill="#000000" font-family="sans-serif" font-size="9.1" font-weight="bold" lengthAdjust="spacing" textLength="9.8" x="476.35" y="337.3474">12</text><text fill="#000000" font-family="sans-serif" font-size="9.1" lengthAdjust="spacing" textLength="21.7" x="488.95" y="337.3474">email</text><polygon fill="#181818" points="1150.8,357.8422,1157.8,360.6422,1150.8,363.4422,1153.6,360.6422" style="stroke:#181818;stroke-width:0.6999999999999998;"/><line style="stroke:#181818;stroke-width:0.6999999999999998;" x1="464.45" x2="1155" y1="360.6422" y2="360.6422"/><text fill="#000000" font-family="sans-serif" font-size="9.1" font-weight="bold" lengthAdjust="spacing" textLength="9.8" x="469.35" y="357.3138">13</text><text fill="#000000" font-family="sans-serif" font-size="9.1" lengthAdjust="spacing" textLength="84" x="481.95" y="357.3138">getAgemntByEmail()</text><polygon fill="#181818" points="472.15,377.8086,465.15,380.6086,472.15,383.4086,469.35,380.6086" style="stroke:#181818;stroke-width:0.6999999999999998;"/><line style="stroke:#181818;stroke-width:0.6999999999999998;stroke-dasharray:2.0,2.0;" x1="467.95" x2="1162" y1="380.6086" y2="380.6086"/><text fill="#000000" font-family="sans-serif" font-size="9.1" font-weight="bold" lengthAdjust="spacing" textLength="9.8" x="476.35" y="377.2802">14</text><text fill="#000000" font-family="sans-serif" font-size="9.1" lengthAdjust="spacing" textLength="56.7" x="488.95" y="377.2802">agentByEmail</text><polygon fill="#181818" points="585.55,397.775,592.55,400.575,585.55,403.375,588.35,400.575" style="stroke:#181818;stroke-width:0.6999999999999998;"/><line style="stroke:#181818;stroke-width:0.6999999999999998;" x1="464.45" x2="589.75" y1="400.575" y2="400.575"/><text fill="#000000" font-family="sans-serif" font-size="9.1" font-weight="bold" lengthAdjust="spacing" textLength="9.8" x="469.35" y="397.2466">15</text><text fill="#000000" font-family="sans-serif" font-size="9.1" lengthAdjust="spacing" textLength="52.5" x="481.95" y="397.2466">getInstance()</text><polygon fill="#181818" points="472.15,417.7414,465.15,420.5414,472.15,423.3414,469.35,420.5414" style="stroke:#181818;stroke-width:0.6999999999999998;"/><line style="stroke:#181818;stroke-width:0.6999999999999998;stroke-dasharray:2.0,2.0;" x1="467.95" x2="596.75" y1="420.5414" y2="420.5414"/><text fill="#000000" font-family="sans-serif" font-size="9.1" font-weight="bold" lengthAdjust="spacing" textLength="9.8" x="476.35" y="417.213">16</text><text fill="#000000" font-family="sans-serif" font-size="9.1" lengthAdjust="spacing" textLength="100.1" x="488.95" y="417.213">repositories:Repositories</text><polygon fill="#181818" points="660.45,437.7078,667.45,440.5078,660.45,443.3078,663.25,440.5078" style="stroke:#181818;stroke-width:0.6999999999999998;"/><line style="stroke:#181818;stroke-width:0.6999999999999998;" x1="464.45" x2="664.65" y1="440.5078" y2="440.5078"/><text fill="#000000" font-family="sans-serif" font-size="9.1" font-weight="bold" lengthAdjust="spacing" textLength="9.8" x="469.35" y="437.1794">17</text><text fill="#000000" font-family="sans-serif" font-size="9.1" lengthAdjust="spacing" textLength="98.7" x="481.95" y="437.1794">getMessageRepository()</text><polygon fill="#181818" points="472.15,457.6742,465.15,460.4742,472.15,463.2742,469.35,460.4742" style="stroke:#181818;stroke-width:0.6999999999999998;"/><line style="stroke:#181818;stroke-width:0.6999999999999998;stroke-dasharray:2.0,2.0;" x1="467.95" x2="671.65" y1="460.4742" y2="460.4742"/><text fill="#000000" font-family="sans-serif" font-size="9.1" font-weight="bold" lengthAdjust="spacing" textLength="9.8" x="476.35" y="457.1458">18</text><text fill="#000000" font-family="sans-serif" font-size="9.1" lengthAdjust="spacing" textLength="80.5" x="488.95" y="457.1458">messageRepository</text><polygon fill="#181818" points="751.45,487.807,758.45,490.607,751.45,493.407,754.25,490.607" style="stroke:#181818;stroke-width:0.6999999999999998;"/><line style="stroke:#181818;stroke-width:0.6999999999999998;" x1="464.45" x2="755.65" y1="490.607" y2="490.607"/><text fill="#000000" font-family="sans-serif" font-size="9.1" font-weight="bold" lengthAdjust="spacing" textLength="9.8" x="469.35" y="482.1954">19</text><text fill="#000000" font-family="sans-serif" font-size="9.1" lengthAdjust="spacing" textLength="168" x="481.95" y="477.1122">getMessageRequestListByAgentAndDate</text><text fill="#000000" font-family="sans-serif" font-size="9.1" lengthAdjust="spacing" textLength="164.5" x="481.95" y="487.2786">(employeeByEmail, beginDate, endDate)</text><polygon fill="#181818" points="472.15,507.7734,465.15,510.5734,472.15,513.3734,469.35,510.5734" style="stroke:#181818;stroke-width:0.6999999999999998;"/><line style="stroke:#181818;stroke-width:0.6999999999999998;stroke-dasharray:2.0,2.0;" x1="467.95" x2="762.65" y1="510.5734" y2="510.5734"/><text fill="#000000" font-family="sans-serif" font-size="9.1" font-weight="bold" lengthAdjust="spacing" textLength="9.8" x="476.35" y="507.245">20</text><text fill="#000000" font-family="sans-serif" font-size="9.1" lengthAdjust="spacing" textLength="155.4" x="488.95" y="507.245">messageRequestListByAgentAndDate</text><polygon fill="#181818" points="1236.9,527.7398,1243.9,530.5398,1236.9,533.3398,1239.7,530.5398" style="stroke:#181818;stroke-width:0.6999999999999998;"/><line style="stroke:#181818;stroke-width:0.6999999999999998;" x1="464.45" x2="1241.1" y1="530.5398" y2="530.5398"/><text fill="#000000" font-family="sans-serif" font-size="9.1" font-weight="bold" lengthAdjust="spacing" textLength="9.8" x="469.35" y="527.2114">21</text><text fill="#000000" font-family="sans-serif" font-size="9.1" lengthAdjust="spacing" textLength="153.3" x="481.95" y="527.2114">toDTO(messageListByAgentAndDate)</text><polygon fill="#181818" points="1570.8,547.7062,1577.8,550.5062,1570.8,553.3062,1573.6,550.5062" style="stroke:#181818;stroke-width:0.6999999999999998;"/><line style="stroke:#181818;stroke-width:0.6999999999999998;stroke-dasharray:2.0,2.0;" x1="1252.3" x2="1575" y1="550.5062" y2="550.5062"/><text fill="#000000" font-family="sans-serif" font-size="9.1" font-weight="bold" lengthAdjust="spacing" textLength="9.8" x="1257.2" y="547.1778">22</text><text fill="#000000" font-family="sans-serif" font-size="9.1" lengthAdjust="spacing" textLength="30.8" x="1269.8" y="547.1778">create()</text><rect fill="#E3E3E3" height="20.7484" rx="1.75" ry="1.75" style="stroke:#181818;stroke-width:0.3499999999999999;" width="172.2" x="1579.2" y="536.1398"/><text fill="#000000" font-family="sans-serif" font-size="9.8" lengthAdjust="spacing" textLength="162.4" x="1584.1" y="549.9115">listOfMessagesDTO:List&lt;Messages&gt;</text><path d="M1215.9,569.4883 L1267,569.4883 L1267,574.0547 L1260,581.0547 L1215.9,581.0547 L1215.9,569.4883 " fill="#EEEEEE" style="stroke:#000000;stroke-width:1.0499999999999998;"/><rect fill="none" height="370.6445" style="stroke:#000000;stroke-width:1.0499999999999998;" width="700.7" x="1215.9" y="569.4883"/><text fill="#000000" font-family="sans-serif" font-size="9.1" font-weight="bold" lengthAdjust="spacing" textLength="19.6" x="1226.4" y="578.4263">loop</text><polygon fill="#181818" points="1822.1,592.6211,1829.1,595.4211,1822.1,598.2211,1824.9,595.4211" style="stroke:#181818;stroke-width:0.6999999999999998;"/><line style="stroke:#181818;stroke-width:0.6999999999999998;" x1="1252.3" x2="1826.3" y1="595.4211" y2="595.4211"/><text fill="#000000" font-family="sans-serif" font-size="9.1" font-weight="bold" lengthAdjust="spacing" textLength="9.8" x="1257.2" y="592.0927">23</text><text fill="#000000" font-family="sans-serif" font-size="9.1" lengthAdjust="spacing" textLength="107.8" x="1269.8" y="592.0927">clientName = clientName()</text><polygon fill="#181818" points="1822.1,632.5539,1829.1,635.3539,1822.1,638.1539,1824.9,635.3539" style="stroke:#181818;stroke-width:0.6999999999999998;"/><line style="stroke:#181818;stroke-width:0.6999999999999998;" x1="1252.3" x2="1826.3" y1="635.3539" y2="635.3539"/><text fill="#000000" font-family="sans-serif" font-size="9.1" font-weight="bold" lengthAdjust="spacing" textLength="9.8" x="1257.2" y="632.0255">25</text><text fill="#000000" font-family="sans-serif" font-size="9.1" lengthAdjust="spacing" textLength="175" x="1269.8" y="632.0255">clientPhoneNumber = clientPhoneNumber()</text><polygon fill="#181818" points="1822.1,672.4867,1829.1,675.2867,1822.1,678.0867,1824.9,675.2867" style="stroke:#181818;stroke-width:0.6999999999999998;"/><line style="stroke:#181818;stroke-width:0.6999999999999998;" x1="1252.3" x2="1826.3" y1="675.2867" y2="675.2867"/><text fill="#000000" font-family="sans-serif" font-size="9.1" font-weight="bold" lengthAdjust="spacing" textLength="9.8" x="1257.2" y="671.9583">27</text><text fill="#000000" font-family="sans-serif" font-size="9.1" lengthAdjust="spacing" textLength="51.8" x="1269.8" y="671.9583">date = date()</text><polygon fill="#181818" points="1822.1,712.4195,1829.1,715.2195,1822.1,718.0195,1824.9,715.2195" style="stroke:#181818;stroke-width:0.6999999999999998;"/><line style="stroke:#181818;stroke-width:0.6999999999999998;" x1="1252.3" x2="1826.3" y1="715.2195" y2="715.2195"/><text fill="#000000" font-family="sans-serif" font-size="9.1" font-weight="bold" lengthAdjust="spacing" textLength="9.8" x="1257.2" y="711.8911">29</text><text fill="#000000" font-family="sans-serif" font-size="9.1" lengthAdjust="spacing" textLength="98" x="1269.8" y="711.8911">initialTime = initialTime()</text><polygon fill="#181818" points="1822.1,752.3523,1829.1,755.1523,1822.1,757.9523,1824.9,755.1523" style="stroke:#181818;stroke-width:0.6999999999999998;"/><line style="stroke:#181818;stroke-width:0.6999999999999998;" x1="1252.3" x2="1826.3" y1="755.1523" y2="755.1523"/><text fill="#000000" font-family="sans-serif" font-size="9.1" font-weight="bold" lengthAdjust="spacing" textLength="9.8" x="1257.2" y="751.8239">31</text><text fill="#000000" font-family="sans-serif" font-size="9.1" lengthAdjust="spacing" textLength="85.4" x="1269.8" y="751.8239">endTime = endTime()</text><polygon fill="#181818" points="1822.1,792.2852,1829.1,795.0852,1822.1,797.8852,1824.9,795.0852" style="stroke:#181818;stroke-width:0.6999999999999998;"/><line style="stroke:#181818;stroke-width:0.6999999999999998;" x1="1252.3" x2="1826.3" y1="795.0852" y2="795.0852"/><text fill="#000000" font-family="sans-serif" font-size="9.1" font-weight="bold" lengthAdjust="spacing" textLength="9.8" x="1257.2" y="791.7567">33</text><text fill="#000000" font-family="sans-serif" font-size="9.1" lengthAdjust="spacing" textLength="107.8" x="1269.8" y="791.7567">description = description ()</text><line style="stroke:#181818;stroke-width:0.6999999999999998;" x1="1255.8" x2="1285.2" y1="835.018" y2="835.018"/><line style="stroke:#181818;stroke-width:0.6999999999999998;" x1="1285.2" x2="1285.2" y1="835.018" y2="844.118"/><line style="stroke:#181818;stroke-width:0.6999999999999998;" x1="1256.5" x2="1285.2" y1="844.118" y2="844.118"/><polygon fill="#181818" points="1263.5,841.318,1256.5,844.118,1263.5,846.918,1260.7,844.118" style="stroke:#181818;stroke-width:0.6999999999999998;"/><text fill="#000000" font-family="sans-serif" font-size="9.1" font-weight="bold" lengthAdjust="spacing" textLength="9.8" x="1260.7" y="831.6896">35</text><text fill="#000000" font-family="sans-serif" font-size="9.1" lengthAdjust="spacing" textLength="387.1" x="1273.3" y="831.6896">messageDTO = toDTO(clientName, clientPhoneNumber, description, date, initialTime, endTime)</text><polygon fill="#181818" points="1570.8,882.2844,1577.8,885.0844,1570.8,887.8844,1573.6,885.0844" style="stroke:#181818;stroke-width:0.6999999999999998;"/><line style="stroke:#181818;stroke-width:0.6999999999999998;stroke-dasharray:2.0,2.0;" x1="1252.3" x2="1575" y1="885.0844" y2="885.0844"/><text fill="#000000" font-family="sans-serif" font-size="9.1" font-weight="bold" lengthAdjust="spacing" textLength="9.8" x="1257.2" y="881.756">36</text><text fill="#000000" font-family="sans-serif" font-size="9.1" lengthAdjust="spacing" textLength="39.2" x="1269.8" y="881.756">create(...)</text><rect fill="#E3E3E3" height="20.7484" rx="1.75" ry="1.75" style="stroke:#181818;stroke-width:0.3499999999999999;" width="172.2" x="1579.2" y="870.718"/><text fill="#000000" font-family="sans-serif" font-size="9.8" lengthAdjust="spacing" textLength="162.4" x="1584.1" y="884.4896">listOfMessagesDTO:List&lt;Messages&gt;</text><polygon fill="#181818" points="1653.4,910.7328,1660.4,913.5328,1653.4,916.3328,1656.2,913.5328" style="stroke:#181818;stroke-width:0.6999999999999998;"/><line style="stroke:#181818;stroke-width:0.6999999999999998;stroke-dasharray:2.0,2.0;" x1="1252.3" x2="1657.6" y1="913.5328" y2="913.5328"/><text fill="#000000" font-family="sans-serif" font-size="9.1" font-weight="bold" lengthAdjust="spacing" textLength="9.8" x="1257.2" y="910.2044">37</text><text fill="#000000" font-family="sans-serif" font-size="9.1" lengthAdjust="spacing" textLength="75.6" x="1269.8" y="910.2044">add(messageDTO)</text><polygon fill="#181818" points="472.15,956.5992,465.15,959.3992,472.15,962.1992,469.35,959.3992" style="stroke:#181818;stroke-width:0.6999999999999998;"/><line style="stroke:#181818;stroke-width:0.6999999999999998;stroke-dasharray:2.0,2.0;" x1="467.95" x2="1248.1" y1="959.3992" y2="959.3992"/><text fill="#000000" font-family="sans-serif" font-size="9.1" font-weight="bold" lengthAdjust="spacing" textLength="9.8" x="476.35" y="956.0708">38</text><text fill="#000000" font-family="sans-serif" font-size="9.1" lengthAdjust="spacing" textLength="121.8" x="488.95" y="956.0708">messageListByAgentAndDate</text><polygon fill="#181818" points="313.95,976.5656,306.95,979.3656,313.95,982.1656,311.15,979.3656" style="stroke:#181818;stroke-width:0.6999999999999998;"/><line style="stroke:#181818;stroke-width:0.6999999999999998;stroke-dasharray:2.0,2.0;" x1="309.75" x2="460.25" y1="979.3656" y2="979.3656"/><text fill="#000000" font-family="sans-serif" font-size="9.1" font-weight="bold" lengthAdjust="spacing" textLength="9.8" x="318.15" y="976.0372">39</text><text fill="#000000" font-family="sans-serif" font-size="9.1" lengthAdjust="spacing" textLength="121.8" x="330.75" y="976.0372">messageListByAgentAndDate</text><polygon fill="#181818" points="29.75,1006.6984,22.75,1009.4984,29.75,1012.2984,26.95,1009.4984" style="stroke:#181818;stroke-width:0.6999999999999998;"/><line style="stroke:#181818;stroke-width:0.6999999999999998;stroke-dasharray:2.0,2.0;" x1="25.55" x2="302.05" y1="1009.4984" y2="1009.4984"/><text fill="#000000" font-family="sans-serif" font-size="9.1" font-weight="bold" lengthAdjust="spacing" textLength="9.8" x="33.95" y="1001.0868">40</text><text fill="#000000" font-family="sans-serif" font-size="9.1" lengthAdjust="spacing" textLength="247.8" x="46.55" y="996.0036">shows all booking requests sorted by date in ascending order</text><text fill="#000000" font-family="sans-serif" font-size="9.1" lengthAdjust="spacing" textLength="104.3" x="46.55" y="1006.17">and requests confirmation</text><polygon fill="#181818" points="290.85,1026.6648,297.85,1029.4648,290.85,1032.2648,293.65,1029.4648" style="stroke:#181818;stroke-width:0.6999999999999998;"/><line style="stroke:#181818;stroke-width:0.6999999999999998;" x1="22.05" x2="295.05" y1="1029.4648" y2="1029.4648"/><text fill="#000000" font-family="sans-serif" font-size="9.1" font-weight="bold" lengthAdjust="spacing" textLength="9.8" x="26.95" y="1026.1364">41</text><text fill="#000000" font-family="sans-serif" font-size="9.1" lengthAdjust="spacing" textLength="52.5" x="39.55" y="1026.1364">submits data</text><polygon fill="#181818" points="26.25,1046.6312,19.25,1049.4312,26.25,1052.2312,23.45,1049.4312" style="stroke:#181818;stroke-width:0.6999999999999998;"/><line style="stroke:#181818;stroke-width:0.6999999999999998;stroke-dasharray:2.0,2.0;" x1="22.05" x2="298.55" y1="1049.4312" y2="1049.4312"/><text fill="#000000" font-family="sans-serif" font-size="9.1" font-weight="bold" lengthAdjust="spacing" textLength="9.8" x="30.45" y="1046.1028">42</text><text fill="#000000" font-family="sans-serif" font-size="9.1" lengthAdjust="spacing" textLength="110.6" x="43.05" y="1046.1028">displays operation success</text><!--SRC=[pLZVJzim47xFNs7nie8AsYRjfHf8G9c4n2zHAaqQUt2JexL8xCnsn_BVx-muYPtKfMWFeo-jptVVVRRFTxwgPyPBAcb12i55kfAY0ABb6XBLpfGqVQPBcEag1o8XrPGlSrz1hMWcNXXVaYUQAqWIkjQ2hui5o2JHJAFP37wjWQT0femkZSreDjqdXsG- -_ZfIv9yMB4Co9CGUY7-93JLGfAzqoLmlKUe8lPNWiuqIrb9kIPxaobJPKwhQr0AoSqlhUBySglMkU1QYZm7QRNF7-wlUlhtK0h5q3q3PNLQGHLgIa_naG_jsldgSsXOr5GwtCaZl-xBBCH0skDwMfOvIwbcWizG5R-i6ItBK145RXw9HenEx-v2etGj9MvwPpXN87qBCmvDe2XpKO576Cqkd93q5jV8azwYlbyZNNS-zSzG8MTAtpwvhL7JXzl95Kg-De8JQsYKF9Lj2A-P9ua9H_QRQd1Xc13tiKDoU89HHoPezwo85jQOq3md2o6UpPsG9lILLXZUafHIu98qHWafA4S76LbKPCMA3hPrXy7S2iq7tQ0p4xG71-WmbO1QeOhLGQMQsgJpJJbXd6b6Sv8PRCep8mFyicF3pJBNAsYjGkWCeinwMq5qLO9gOC2we6IqW2NZrjsuTRmVuiGzT8j71qlGvjZEwXqUnK3i_GxdB400PAb_mxpdWZjYWA5OwrzoXGamXQXNS_-2AMDwsFdihcCIsTu1GaC2RsbDuZoudJqgNRpYfGvcZBt79BpZCJO3b8QDoG280WLbEJasj8pamWnZZ6pI28FQW7YSB5gCoj2yuTAccUPC2wxFggrSkWpaJxT0_ecP475eCMgRqHfwNVBR6aGjcfVp0mKFn-FdrwAW4iN8nk0RkbxnglaEIb6Ck5_s0WqVqgC-g8Onob7WXlE0Oe-vpKKsQrJsof_oR8h0ZtpKr2rtmcDY4zMqoLFJGPfgIGqhTA0tfBHfvH5YiOrunMUx7RPseXyji0AEdBUXczZAwj8RBgU6D6le5LYl7c5W14Qv4ELcc105xNE6j6ueFa2FlK4iqi8YlSd13tnKPi1_XevY-_ewNeX36iPtAy7XnhvsM-AUx1tpjvN_s7wzOvRktVB0R61ue__FEKuQyuOZx7v5dmixeEz0zr_vPg1IoKhJ5fY8y4RlZNYRs5nAm_I3ZEiirsMDyV0YZlrbZTqxr0kdSNDKiGMxd1XZlobbRisPRSeyEZhQtzdEl4UoRDIjVfVpCKtGBhjkz095t99e4GWBsHigs8QDgijMqq2y6J9ywVUQ8BKIBsfpIwQ4r7KBPdCXjYTKfRXceoHa1lAHcqwfrKy5VsAoiErpigKf2liXjLuK3ArD6xIzpUinp-f_BnGnJQDrYbXfYhlJT-vQqxy0]--></g></svg>