<?xml version="1.0" encoding="us-ascii" standalone="no"?><svg xmlns="http://www.w3.org/2000/svg" xmlns:xlink="http://www.w3.org/1999/xlink" contentStyleType="text/css" height="430px" preserveAspectRatio="none" style="width:605px;height:430px;background:#FFFFFF;" version="1.1" viewBox="0 0 605 430" width="605px" zoomAndPan="magnify"><defs/><g><text fill="#000000" font-family="sans-serif" font-size="14" font-weight="bold" lengthAdjust="spacing" textLength="401" x="103.5" y="27.6738">US015 - Sequence Diagram Partial (Create Sort Algorithm)</text><rect fill="#FFFFFF" height="304.875" style="stroke:#181818;stroke-width:1.0;" width="10" x="94.5" y="82.2813"/><rect fill="#FFFFFF" height="260.3516" style="stroke:#181818;stroke-width:1.0;" width="10" x="99.5" y="110.8047"/><rect fill="#FFFFFF" height="28.5234" style="stroke:#181818;stroke-width:1.0;" width="10" x="454.5" y="301.1094"/><rect fill="none" height="206.8281" style="stroke:#000000;stroke-width:1.5;" width="589" x="10" y="130.8047"/><line style="stroke:#181818;stroke-width:0.5;stroke-dasharray:5.0,5.0;" x1="99" x2="99" y1="72.2813" y2="396.1563"/><line style="stroke:#181818;stroke-width:0.5;stroke-dasharray:5.0,5.0;" x1="459" x2="459" y1="177.6484" y2="396.1563"/><rect fill="#E3E3E3" height="29.6406" rx="2.5" ry="2.5" style="stroke:#181818;stroke-width:0.5;" width="159" x="20" y="41.6406"/><text fill="#000000" font-family="sans-serif" font-size="14" lengthAdjust="spacing" textLength="145" x="27" y="61.3145">:ListMessageController</text><rect fill="#E3E3E3" height="29.6406" rx="2.5" ry="2.5" style="stroke:#181818;stroke-width:0.5;" width="159" x="20" y="395.1563"/><text fill="#000000" font-family="sans-serif" font-size="14" lengthAdjust="spacing" textLength="145" x="27" y="414.8301">:ListMessageController</text><rect fill="#E3E3E3" height="29.6406" rx="2.5" ry="2.5" style="stroke:#181818;stroke-width:0.5;" width="101" x="409" y="395.1563"/><text fill="#000000" font-family="sans-serif" font-size="14" lengthAdjust="spacing" textLength="87" x="416" y="414.8301">:sortAlgorithm</text><rect fill="#FFFFFF" height="304.875" style="stroke:#181818;stroke-width:1.0;" width="10" x="94.5" y="82.2813"/><rect fill="#FFFFFF" height="260.3516" style="stroke:#181818;stroke-width:1.0;" width="10" x="99.5" y="110.8047"/><rect fill="#FFFFFF" height="28.5234" style="stroke:#181818;stroke-width:1.0;" width="10" x="454.5" y="301.1094"/><line style="stroke:#181818;stroke-width:1.0;" x1="104.5" x2="151.5" y1="97.8047" y2="97.8047"/><line style="stroke:#181818;stroke-width:1.0;" x1="151.5" x2="151.5" y1="97.8047" y2="110.8047"/><line style="stroke:#181818;stroke-width:1.0;" x1="110.5" x2="151.5" y1="110.8047" y2="110.8047"/><polygon fill="#181818" points="120.5,106.8047,110.5,110.8047,120.5,114.8047,116.5,110.8047" style="stroke:#181818;stroke-width:1.0;"/><text fill="#000000" font-family="sans-serif" font-size="13" font-weight="bold" lengthAdjust="spacing" textLength="14" x="116.5" y="93.0498">21</text><text fill="#000000" font-family="sans-serif" font-size="13" lengthAdjust="spacing" textLength="308" x="134.5" y="93.0498">getSortedMessageRequestList(messageRequestList)</text><path d="M10,130.8047 L193,130.8047 L193,137.3281 L183,147.3281 L10,147.3281 L10,130.8047 " fill="#EEEEEE" style="stroke:#000000;stroke-width:1.5;"/><rect fill="none" height="206.8281" style="stroke:#000000;stroke-width:1.5;" width="589" x="10" y="130.8047"/><text fill="#000000" font-family="sans-serif" font-size="13" font-weight="bold" lengthAdjust="spacing" textLength="138" x="25" y="143.5732">Create Sort Algorithm</text><polygon fill="#181818" points="397,163.8516,407,167.8516,397,171.8516,401,167.8516" style="stroke:#181818;stroke-width:1.0;"/><line style="stroke:#181818;stroke-width:1.0;" x1="109.5" x2="403" y1="167.8516" y2="167.8516"/><text fill="#000000" font-family="sans-serif" font-size="13" font-weight="bold" lengthAdjust="spacing" textLength="14" x="116.5" y="163.0967">22</text><text fill="#000000" font-family="sans-serif" font-size="13" lengthAdjust="spacing" textLength="44" x="134.5" y="163.0967">create()</text><rect fill="#E3E3E3" height="29.6406" rx="2.5" ry="2.5" style="stroke:#181818;stroke-width:0.5;" width="101" x="409" y="147.3281"/><text fill="#000000" font-family="sans-serif" font-size="14" lengthAdjust="spacing" textLength="87" x="416" y="167.002">:sortAlgorithm</text><path d="M329,192.9688 L329,274.9688 L589,274.9688 L589,202.9688 L579,192.9688 L329,192.9688 " fill="#FAFAFA" style="stroke:#181818;stroke-width:0.5;"/><path d="M579,192.9688 L579,202.9688 L589,202.9688 L579,192.9688 " fill="#FAFAFA" style="stroke:#181818;stroke-width:0.5;"/><text fill="#000000" font-family="sans-serif" font-size="13" lengthAdjust="spacing" textLength="4" x="335" y="209.7373">&#160;</text><text fill="#000000" font-family="sans-serif" font-size="13" lengthAdjust="spacing" textLength="239" x="335" y="224.2607">SortAlgorithm implementation will depend</text><text fill="#000000" font-family="sans-serif" font-size="13" lengthAdjust="spacing" textLength="227" x="335" y="238.7842">on the sorting algorithm specified in the</text><text fill="#000000" font-family="sans-serif" font-size="13" lengthAdjust="spacing" textLength="97" x="335" y="253.3076">configuration file.</text><text fill="#000000" font-family="sans-serif" font-size="13" lengthAdjust="spacing" textLength="4" x="335" y="267.8311">&#160;</text><polygon fill="#181818" points="442.5,297.1094,452.5,301.1094,442.5,305.1094,446.5,301.1094" style="stroke:#181818;stroke-width:1.0;"/><line style="stroke:#181818;stroke-width:1.0;" x1="109.5" x2="448.5" y1="301.1094" y2="301.1094"/><text fill="#000000" font-family="sans-serif" font-size="13" font-weight="bold" lengthAdjust="spacing" textLength="14" x="116.5" y="296.3545">23</text><text fill="#000000" font-family="sans-serif" font-size="13" lengthAdjust="spacing" textLength="308" x="134.5" y="296.3545">getSortedMessageRequestList(messageRequestList)</text><polygon fill="#181818" points="120.5,325.6328,110.5,329.6328,120.5,333.6328,116.5,329.6328" style="stroke:#181818;stroke-width:1.0;"/><line style="stroke:#181818;stroke-width:1.0;stroke-dasharray:2.0,2.0;" x1="114.5" x2="458.5" y1="329.6328" y2="329.6328"/><text fill="#000000" font-family="sans-serif" font-size="13" font-weight="bold" lengthAdjust="spacing" textLength="14" x="126.5" y="324.8779">24</text><text fill="#000000" font-family="sans-serif" font-size="13" lengthAdjust="spacing" textLength="158" x="144.5" y="324.8779">sortedMessageRequestList</text><line style="stroke:#181818;stroke-width:1.0;stroke-dasharray:2.0,2.0;" x1="109.5" x2="151.5" y1="370.1563" y2="370.1563"/><line style="stroke:#181818;stroke-width:1.0;stroke-dasharray:2.0,2.0;" x1="151.5" x2="151.5" y1="370.1563" y2="383.1563"/><line style="stroke:#181818;stroke-width:1.0;stroke-dasharray:2.0,2.0;" x1="104.5" x2="151.5" y1="383.1563" y2="383.1563"/><polygon fill="#181818" points="114.5,379.1563,104.5,383.1563,114.5,387.1563,110.5,383.1563" style="stroke:#181818;stroke-width:1.0;"/><text fill="#000000" font-family="sans-serif" font-size="13" font-weight="bold" lengthAdjust="spacing" textLength="14" x="116.5" y="365.4014">25</text><text fill="#000000" font-family="sans-serif" font-size="13" lengthAdjust="spacing" textLength="158" x="134.5" y="365.4014">sortedMessageRequestList</text><!--SRC=[hLBDIiD04BxlKmnUR0iL5Rpq89GANYg8qGVORYR9uEvEt9tuy_RkfbeJRGN171BO-VxcsyH7ygqEse5ZpwO9x10aTAZYRj9gywXhBEJD8WGqedrjXu3Ow99VoDTGQHjHATq9-yvjCC3vcL92afWFnUdP1SoXmASElK6u8brd-gqEGjh2P1LG2qB1GM1fQmuaZPigTTnGYL0nouPVbMeptb2hlS3HOarHRZ36b735NW9RY-48T8JL_Ttw6pWcwPro3ohkb-lhbDW8FMVpdjI_ONwv_IwWHicXiFmmkiihHCdM4_VZQAfWy8oLbQe3TotiNLLzscvJpMR9slJ0IMfXAEevaVavzVkHVpWiXai2kTQYGozQY3syaBLGOek-797II1g4N52-IBtZnnODLOGbK0yPiGpxYkekRBKhidWopf9i-h3Zqyyz-_2m-9TwznNHoy-_xZ4US1cnIlnDC_UsPvS_UXpms_uYxm00]--></g></svg>