<?xml version="1.0" encoding="us-ascii" standalone="no"?><svg xmlns="http://www.w3.org/2000/svg" xmlns:xlink="http://www.w3.org/1999/xlink" contentStyleType="text/css" height="1900px" preserveAspectRatio="none" style="width:2650px;height:1900px;background:#FFFFFF;" version="1.1" viewBox="0 0 2650 1900" width="2650px" zoomAndPan="magnify"><defs/><g><text fill="#000000" font-family="sans-serif" font-size="14" font-weight="bold" lengthAdjust="spacing" textLength="218" x="1217.75" y="27.6738">Sequence Diagram Full - US015</text><rect fill="#FFFFFF" height="1675.1875" style="stroke:#181818;stroke-width:1.0;" width="10" x="21.5" y="127.2813"/><rect fill="#FFFFFF" height="69.1641" style="stroke:#181818;stroke-width:1.0;" width="10" x="435.5" y="147.8047"/><rect fill="#FFFFFF" height="1556.9766" style="stroke:#181818;stroke-width:1.0;" width="10" x="435.5" y="245.4922"/><rect fill="#FFFFFF" height="1485.4063" style="stroke:#181818;stroke-width:1.0;" width="10" x="609.5" y="274.0156"/><rect fill="#FFFFFF" height="229.8281" style="stroke:#181818;stroke-width:1.0;" width="10" x="614.5" y="765.9141"/><rect fill="#FFFFFF" height="28.5234" style="stroke:#181818;stroke-width:1.0;" width="10" x="959.5" y="572.25"/><rect fill="#FFFFFF" height="28.5234" style="stroke:#181818;stroke-width:1.0;" width="10" x="1066.5" y="629.2969"/><rect fill="#FFFFFF" height="28.5234" style="stroke:#181818;stroke-width:1.0;" width="10" x="1196.5" y="700.8672"/><rect fill="#FFFFFF" height="28.5234" style="stroke:#181818;stroke-width:1.0;" width="10" x="1346.5" y="344.0625"/><rect fill="#FFFFFF" height="28.5234" style="stroke:#181818;stroke-width:1.0;" width="10" x="1493.5" y="401.1094"/><rect fill="#FFFFFF" height="28.5234" style="stroke:#181818;stroke-width:1.0;" width="10" x="1626.5" y="458.1563"/><rect fill="#FFFFFF" height="28.5234" style="stroke:#181818;stroke-width:1.0;" width="10" x="1767" y="515.2031"/><rect fill="#FFFFFF" height="28.5234" style="stroke:#181818;stroke-width:1.0;" width="10" x="1903.5" y="932.6953"/><rect fill="#FFFFFF" height="780.2031" style="stroke:#181818;stroke-width:1.0;" width="10" x="2025.5" y="1031.2656"/><rect fill="#FFFFFF" height="598.9453" style="stroke:#181818;stroke-width:1.0;" width="10" x="2030.5" y="1131.9531"/><rect fill="#FFFFFF" height="28" style="stroke:#181818;stroke-width:1.0;" width="10" x="2035.5" y="1601.8516"/><rect fill="#FFFFFF" height="28.5234" style="stroke:#181818;stroke-width:1.0;" width="10" x="2293.5" y="1165.4766"/><rect fill="#FFFFFF" height="28.5234" style="stroke:#181818;stroke-width:1.0;" width="10" x="2293.5" y="1222.5234"/><rect fill="#FFFFFF" height="28.5234" style="stroke:#181818;stroke-width:1.0;" width="10" x="2293.5" y="1279.5703"/><rect fill="#FFFFFF" height="28.5234" style="stroke:#181818;stroke-width:1.0;" width="10" x="2293.5" y="1336.6172"/><rect fill="#FFFFFF" height="28.5234" style="stroke:#181818;stroke-width:1.0;" width="10" x="2293.5" y="1393.6641"/><rect fill="#FFFFFF" height="28.5234" style="stroke:#181818;stroke-width:1.0;" width="10" x="2293.5" y="1450.7109"/><rect fill="#FFFFFF" height="28.5234" style="stroke:#181818;stroke-width:1.0;" width="10" x="2293.5" y="1507.7578"/><rect fill="#FFFFFF" height="30" style="stroke:#181818;stroke-width:1.0;" width="10" x="2510.5" y="1665.375"/><rect fill="none" height="616.4688" style="stroke:#000000;stroke-width:1.5;" width="685.5" x="1959" y="1086.9063"/><line style="stroke:#181818;stroke-width:0.5;stroke-dasharray:5.0,5.0;" x1="26" x2="26" y1="117.2813" y2="1820.4688"/><line style="stroke:#181818;stroke-width:0.5;stroke-dasharray:5.0,5.0;" x1="440" x2="440" y1="117.2813" y2="1820.4688"/><line style="stroke:#181818;stroke-width:0.5;stroke-dasharray:5.0,5.0;" x1="614" x2="614" y1="186.125" y2="1820.4688"/><line style="stroke:#181818;stroke-width:0.5;stroke-dasharray:5.0,5.0;" x1="964" x2="964" y1="117.2813" y2="1820.4688"/><line style="stroke:#181818;stroke-width:0.5;stroke-dasharray:5.0,5.0;" x1="1071" x2="1071" y1="117.2813" y2="1820.4688"/><line style="stroke:#181818;stroke-width:0.5;stroke-dasharray:5.0,5.0;" x1="1201" x2="1201" y1="117.2813" y2="1820.4688"/><line style="stroke:#181818;stroke-width:0.5;stroke-dasharray:5.0,5.0;" x1="1351" x2="1351" y1="117.2813" y2="1820.4688"/><line style="stroke:#181818;stroke-width:0.5;stroke-dasharray:5.0,5.0;" x1="1498" x2="1498" y1="117.2813" y2="1820.4688"/><line style="stroke:#181818;stroke-width:0.5;stroke-dasharray:5.0,5.0;" x1="1631" x2="1631" y1="117.2813" y2="1820.4688"/><line style="stroke:#181818;stroke-width:0.5;stroke-dasharray:5.0,5.0;" x1="1772" x2="1772" y1="117.2813" y2="1820.4688"/><line style="stroke:#181818;stroke-width:0.5;stroke-dasharray:5.0,5.0;" x1="1908" x2="1908" y1="809.2344" y2="1820.4688"/><line style="stroke:#181818;stroke-width:0.5;stroke-dasharray:5.0,5.0;" x1="2030" x2="2030" y1="117.2813" y2="1820.4688"/><line style="stroke:#181818;stroke-width:0.5;stroke-dasharray:5.0,5.0;" x1="2298.5" x2="2298.5" y1="117.2813" y2="1820.4688"/><line style="stroke:#181818;stroke-width:0.5;stroke-dasharray:5.0,5.0;" x1="2515.5" x2="2515.5" y1="1069.5859" y2="1820.4688"/><text fill="#000000" font-family="sans-serif" font-size="14" lengthAdjust="spacing" textLength="37" x="5" y="114.3145">Agent</text><ellipse cx="26.5" cy="50.1406" fill="#E3E3E3" rx="8" ry="8" style="stroke:#181818;stroke-width:0.5;"/><path d="M26.5,58.1406 L26.5,85.1406 M13.5,66.1406 L39.5,66.1406 M26.5,85.1406 L13.5,100.1406 M26.5,85.1406 L39.5,100.1406 " fill="none" style="stroke:#181818;stroke-width:0.5;"/><text fill="#000000" font-family="sans-serif" font-size="14" lengthAdjust="spacing" textLength="37" x="5" y="1832.1426">Agent</text><ellipse cx="26.5" cy="1843.6094" fill="#E3E3E3" rx="8" ry="8" style="stroke:#181818;stroke-width:0.5;"/><path d="M26.5,1851.6094 L26.5,1878.6094 M13.5,1859.6094 L39.5,1859.6094 M26.5,1878.6094 L13.5,1893.6094 M26.5,1878.6094 L39.5,1893.6094 " fill="none" style="stroke:#181818;stroke-width:0.5;"/><rect fill="#E3E3E3" height="29.6406" rx="2.5" ry="2.5" style="stroke:#181818;stroke-width:0.5;" width="109" x="386" y="86.6406"/><text fill="#000000" font-family="sans-serif" font-size="14" lengthAdjust="spacing" textLength="95" x="393" y="106.3145">:ListMessageUI</text><rect fill="#E3E3E3" height="29.6406" rx="2.5" ry="2.5" style="stroke:#181818;stroke-width:0.5;" width="109" x="386" y="1819.4688"/><text fill="#000000" font-family="sans-serif" font-size="14" lengthAdjust="spacing" textLength="95" x="393" y="1839.1426">:ListMessageUI</text><rect fill="#E3E3E3" height="29.6406" rx="2.5" ry="2.5" style="stroke:#181818;stroke-width:0.5;" width="159" x="535" y="1819.4688"/><text fill="#000000" font-family="sans-serif" font-size="14" lengthAdjust="spacing" textLength="145" x="542" y="1839.1426">:ListMessageController</text><rect fill="#E3E3E3" height="29.6406" rx="2.5" ry="2.5" style="stroke:#181818;stroke-width:0.5;" width="97" x="916" y="86.6406"/><text fill="#000000" font-family="sans-serif" font-size="14" lengthAdjust="spacing" textLength="83" x="923" y="106.3145">:Repositories</text><rect fill="#E3E3E3" height="29.6406" rx="2.5" ry="2.5" style="stroke:#181818;stroke-width:0.5;" width="97" x="916" y="1819.4688"/><text fill="#000000" font-family="sans-serif" font-size="14" lengthAdjust="spacing" textLength="83" x="923" y="1839.1426">:Repositories</text><rect fill="#E3E3E3" height="45.2813" rx="2.5" ry="2.5" style="stroke:#181818;stroke-width:0.5;" width="97" x="1023" y="71"/><text fill="#000000" font-family="sans-serif" font-size="14" lengthAdjust="spacing" textLength="74" x="1034.5" y="90.6738">repositories</text><text fill="#000000" font-family="sans-serif" font-size="14" lengthAdjust="spacing" textLength="83" x="1030" y="106.3145">:Repositories</text><rect fill="#E3E3E3" height="45.2813" rx="2.5" ry="2.5" style="stroke:#181818;stroke-width:0.5;" width="97" x="1023" y="1819.4688"/><text fill="#000000" font-family="sans-serif" font-size="14" lengthAdjust="spacing" textLength="74" x="1034.5" y="1839.1426">repositories</text><text fill="#000000" font-family="sans-serif" font-size="14" lengthAdjust="spacing" textLength="83" x="1030" y="1854.7832">:Repositories</text><rect fill="#E3E3E3" height="45.2813" rx="2.5" ry="2.5" style="stroke:#181818;stroke-width:0.5;" width="143" x="1130" y="71"/><text fill="#000000" font-family="sans-serif" font-size="14" lengthAdjust="spacing" textLength="129" x="1137" y="90.6738">messageRepository:</text><text fill="#000000" font-family="sans-serif" font-size="14" lengthAdjust="spacing" textLength="125" x="1139" y="106.3145">MessageRepository</text><rect fill="#E3E3E3" height="45.2813" rx="2.5" ry="2.5" style="stroke:#181818;stroke-width:0.5;" width="143" x="1130" y="1819.4688"/><text fill="#000000" font-family="sans-serif" font-size="14" lengthAdjust="spacing" textLength="129" x="1137" y="1839.1426">messageRepository:</text><text fill="#000000" font-family="sans-serif" font-size="14" lengthAdjust="spacing" textLength="125" x="1139" y="1854.7832">MessageRepository</text><rect fill="#E3E3E3" height="29.6406" rx="2.5" ry="2.5" style="stroke:#181818;stroke-width:0.5;" width="137" x="1283" y="86.6406"/><text fill="#000000" font-family="sans-serif" font-size="14" lengthAdjust="spacing" textLength="123" x="1290" y="106.3145">:ApplicationSession</text><rect fill="#E3E3E3" height="29.6406" rx="2.5" ry="2.5" style="stroke:#181818;stroke-width:0.5;" width="137" x="1283" y="1819.4688"/><text fill="#000000" font-family="sans-serif" font-size="14" lengthAdjust="spacing" textLength="123" x="1290" y="1839.1426">:ApplicationSession</text><rect fill="#E3E3E3" height="45.2813" rx="2.5" ry="2.5" style="stroke:#181818;stroke-width:0.5;" width="137" x="1430" y="71"/><text fill="#000000" font-family="sans-serif" font-size="14" lengthAdjust="spacing" textLength="74" x="1461.5" y="90.6738">appSession</text><text fill="#000000" font-family="sans-serif" font-size="14" lengthAdjust="spacing" textLength="123" x="1437" y="106.3145">:ApplicationSession</text><rect fill="#E3E3E3" height="45.2813" rx="2.5" ry="2.5" style="stroke:#181818;stroke-width:0.5;" width="137" x="1430" y="1819.4688"/><text fill="#000000" font-family="sans-serif" font-size="14" lengthAdjust="spacing" textLength="74" x="1461.5" y="1839.1426">appSession</text><text fill="#000000" font-family="sans-serif" font-size="14" lengthAdjust="spacing" textLength="123" x="1437" y="1854.7832">:ApplicationSession</text><rect fill="#E3E3E3" height="45.2813" rx="2.5" ry="2.5" style="stroke:#181818;stroke-width:0.5;" width="109" x="1577" y="71"/><text fill="#000000" font-family="sans-serif" font-size="14" lengthAdjust="spacing" textLength="95" x="1584" y="90.6738">currentSession</text><text fill="#000000" font-family="sans-serif" font-size="14" lengthAdjust="spacing" textLength="83" x="1590" y="106.3145">:UserSession</text><rect fill="#E3E3E3" height="45.2813" rx="2.5" ry="2.5" style="stroke:#181818;stroke-width:0.5;" width="109" x="1577" y="1819.4688"/><text fill="#000000" font-family="sans-serif" font-size="14" lengthAdjust="spacing" textLength="95" x="1584" y="1839.1426">currentSession</text><text fill="#000000" font-family="sans-serif" font-size="14" lengthAdjust="spacing" textLength="83" x="1590" y="1854.7832">:UserSession</text><rect fill="#E3E3E3" height="45.2813" rx="2.5" ry="2.5" style="stroke:#181818;stroke-width:0.5;" width="152" x="1696" y="71"/><text fill="#000000" font-family="sans-serif" font-size="14" lengthAdjust="spacing" textLength="129" x="1707.5" y="90.6738">employeeRepository</text><text fill="#000000" font-family="sans-serif" font-size="14" lengthAdjust="spacing" textLength="138" x="1703" y="106.3145">:Employee Repository</text><rect fill="#E3E3E3" height="45.2813" rx="2.5" ry="2.5" style="stroke:#181818;stroke-width:0.5;" width="152" x="1696" y="1819.4688"/><text fill="#000000" font-family="sans-serif" font-size="14" lengthAdjust="spacing" textLength="129" x="1707.5" y="1839.1426">employeeRepository</text><text fill="#000000" font-family="sans-serif" font-size="14" lengthAdjust="spacing" textLength="138" x="1703" y="1854.7832">:Employee Repository</text><rect fill="#E3E3E3" height="29.6406" rx="2.5" ry="2.5" style="stroke:#181818;stroke-width:0.5;" width="101" x="1858" y="1819.4688"/><text fill="#000000" font-family="sans-serif" font-size="14" lengthAdjust="spacing" textLength="87" x="1865" y="1839.1426">:sortAlgorithm</text><rect fill="#E3E3E3" height="29.6406" rx="2.5" ry="2.5" style="stroke:#181818;stroke-width:0.5;" width="123" x="1969" y="86.6406"/><text fill="#000000" font-family="sans-serif" font-size="14" lengthAdjust="spacing" textLength="109" x="1976" y="106.3145">:MessageMapper</text><rect fill="#E3E3E3" height="29.6406" rx="2.5" ry="2.5" style="stroke:#181818;stroke-width:0.5;" width="123" x="1969" y="1819.4688"/><text fill="#000000" font-family="sans-serif" font-size="14" lengthAdjust="spacing" textLength="109" x="1976" y="1839.1426">:MessageMapper</text><rect fill="#E3E3E3" height="29.6406" rx="2.5" ry="2.5" style="stroke:#181818;stroke-width:0.5;" width="176" x="2210.5" y="86.6406"/><text fill="#000000" font-family="sans-serif" font-size="14" lengthAdjust="spacing" textLength="162" x="2217.5" y="106.3145">messageDto:MessageDto</text><rect fill="#E3E3E3" height="29.6406" rx="2.5" ry="2.5" style="stroke:#181818;stroke-width:0.5;" width="176" x="2210.5" y="1819.4688"/><text fill="#000000" font-family="sans-serif" font-size="14" lengthAdjust="spacing" textLength="162" x="2217.5" y="1839.1426">messageDto:MessageDto</text><rect fill="#E3E3E3" height="29.6406" rx="2.5" ry="2.5" style="stroke:#181818;stroke-width:0.5;" width="238" x="2396.5" y="1819.4688"/><text fill="#000000" font-family="sans-serif" font-size="14" lengthAdjust="spacing" textLength="224" x="2403.5" y="1839.1426">listOfMessagesDto:List&lt;Messages&gt;</text><rect fill="#FFFFFF" height="1675.1875" style="stroke:#181818;stroke-width:1.0;" width="10" x="21.5" y="127.2813"/><rect fill="#FFFFFF" height="69.1641" style="stroke:#181818;stroke-width:1.0;" width="10" x="435.5" y="147.8047"/><rect fill="#FFFFFF" height="1556.9766" style="stroke:#181818;stroke-width:1.0;" width="10" x="435.5" y="245.4922"/><rect fill="#FFFFFF" height="1485.4063" style="stroke:#181818;stroke-width:1.0;" width="10" x="609.5" y="274.0156"/><rect fill="#FFFFFF" height="229.8281" style="stroke:#181818;stroke-width:1.0;" width="10" x="614.5" y="765.9141"/><rect fill="#FFFFFF" height="28.5234" style="stroke:#181818;stroke-width:1.0;" width="10" x="959.5" y="572.25"/><rect fill="#FFFFFF" height="28.5234" style="stroke:#181818;stroke-width:1.0;" width="10" x="1066.5" y="629.2969"/><rect fill="#FFFFFF" height="28.5234" style="stroke:#181818;stroke-width:1.0;" width="10" x="1196.5" y="700.8672"/><rect fill="#FFFFFF" height="28.5234" style="stroke:#181818;stroke-width:1.0;" width="10" x="1346.5" y="344.0625"/><rect fill="#FFFFFF" height="28.5234" style="stroke:#181818;stroke-width:1.0;" width="10" x="1493.5" y="401.1094"/><rect fill="#FFFFFF" height="28.5234" style="stroke:#181818;stroke-width:1.0;" width="10" x="1626.5" y="458.1563"/><rect fill="#FFFFFF" height="28.5234" style="stroke:#181818;stroke-width:1.0;" width="10" x="1767" y="515.2031"/><rect fill="#FFFFFF" height="28.5234" style="stroke:#181818;stroke-width:1.0;" width="10" x="1903.5" y="932.6953"/><rect fill="#FFFFFF" height="780.2031" style="stroke:#181818;stroke-width:1.0;" width="10" x="2025.5" y="1031.2656"/><rect fill="#FFFFFF" height="598.9453" style="stroke:#181818;stroke-width:1.0;" width="10" x="2030.5" y="1131.9531"/><rect fill="#FFFFFF" height="28" style="stroke:#181818;stroke-width:1.0;" width="10" x="2035.5" y="1601.8516"/><rect fill="#FFFFFF" height="28.5234" style="stroke:#181818;stroke-width:1.0;" width="10" x="2293.5" y="1165.4766"/><rect fill="#FFFFFF" height="28.5234" style="stroke:#181818;stroke-width:1.0;" width="10" x="2293.5" y="1222.5234"/><rect fill="#FFFFFF" height="28.5234" style="stroke:#181818;stroke-width:1.0;" width="10" x="2293.5" y="1279.5703"/><rect fill="#FFFFFF" height="28.5234" style="stroke:#181818;stroke-width:1.0;" width="10" x="2293.5" y="1336.6172"/><rect fill="#FFFFFF" height="28.5234" style="stroke:#181818;stroke-width:1.0;" width="10" x="2293.5" y="1393.6641"/><rect fill="#FFFFFF" height="28.5234" style="stroke:#181818;stroke-width:1.0;" width="10" x="2293.5" y="1450.7109"/><rect fill="#FFFFFF" height="28.5234" style="stroke:#181818;stroke-width:1.0;" width="10" x="2293.5" y="1507.7578"/><rect fill="#FFFFFF" height="30" style="stroke:#181818;stroke-width:1.0;" width="10" x="2510.5" y="1665.375"/><polygon fill="#181818" points="423.5,143.8047,433.5,147.8047,423.5,151.8047,427.5,147.8047" style="stroke:#181818;stroke-width:1.0;"/><line style="stroke:#181818;stroke-width:1.0;" x1="31.5" x2="429.5" y1="147.8047" y2="147.8047"/><text fill="#000000" font-family="sans-serif" font-size="13" font-weight="bold" lengthAdjust="spacing" textLength="7" x="38.5" y="143.0498">1</text><text fill="#000000" font-family="sans-serif" font-size="13" lengthAdjust="spacing" textLength="363" x="49.5" y="143.0498">asks to list all booking requests for properties managed by him</text><polygon fill="#181818" points="523,172.3281,533,176.3281,523,180.3281,527,176.3281" style="stroke:#181818;stroke-width:1.0;"/><line style="stroke:#181818;stroke-width:1.0;" x1="445.5" x2="529" y1="176.3281" y2="176.3281"/><text fill="#000000" font-family="sans-serif" font-size="13" font-weight="bold" lengthAdjust="spacing" textLength="7" x="452.5" y="171.5732">2</text><text fill="#000000" font-family="sans-serif" font-size="13" lengthAdjust="spacing" textLength="36" x="463.5" y="171.5732">create</text><rect fill="#E3E3E3" height="29.6406" rx="2.5" ry="2.5" style="stroke:#181818;stroke-width:0.5;" width="159" x="535" y="155.8047"/><text fill="#000000" font-family="sans-serif" font-size="14" lengthAdjust="spacing" textLength="145" x="542" y="175.4785">:ListMessageController</text><polygon fill="#181818" points="42.5,212.9688,32.5,216.9688,42.5,220.9688,38.5,216.9688" style="stroke:#181818;stroke-width:1.0;"/><line style="stroke:#181818;stroke-width:1.0;stroke-dasharray:2.0,2.0;" x1="36.5" x2="439.5" y1="216.9688" y2="216.9688"/><text fill="#000000" font-family="sans-serif" font-size="13" font-weight="bold" lengthAdjust="spacing" textLength="7" x="48.5" y="212.2139">3</text><text fill="#000000" font-family="sans-serif" font-size="13" lengthAdjust="spacing" textLength="264" x="59.5" y="212.2139">requests to select an initial date and end date</text><polygon fill="#181818" points="423.5,241.4922,433.5,245.4922,423.5,249.4922,427.5,245.4922" style="stroke:#181818;stroke-width:1.0;"/><line style="stroke:#181818;stroke-width:1.0;" x1="31.5" x2="429.5" y1="245.4922" y2="245.4922"/><text fill="#000000" font-family="sans-serif" font-size="13" font-weight="bold" lengthAdjust="spacing" textLength="7" x="38.5" y="240.7373">4</text><text fill="#000000" font-family="sans-serif" font-size="13" lengthAdjust="spacing" textLength="262" x="49.5" y="240.7373">selects requested data (begin date, end date)</text><polygon fill="#181818" points="597.5,270.0156,607.5,274.0156,597.5,278.0156,601.5,274.0156" style="stroke:#181818;stroke-width:1.0;"/><line style="stroke:#181818;stroke-width:1.0;" x1="445.5" x2="603.5" y1="274.0156" y2="274.0156"/><text fill="#000000" font-family="sans-serif" font-size="13" font-weight="bold" lengthAdjust="spacing" textLength="7" x="452.5" y="269.2607">5</text><text fill="#000000" font-family="sans-serif" font-size="13" lengthAdjust="spacing" textLength="100" x="463.5" y="269.2607">getListMessage()</text><line style="stroke:#181818;stroke-width:1.0;" x1="619.5" x2="661.5" y1="302.5391" y2="302.5391"/><line style="stroke:#181818;stroke-width:1.0;" x1="661.5" x2="661.5" y1="302.5391" y2="315.5391"/><line style="stroke:#181818;stroke-width:1.0;" x1="620.5" x2="661.5" y1="315.5391" y2="315.5391"/><polygon fill="#181818" points="630.5,311.5391,620.5,315.5391,630.5,319.5391,626.5,315.5391" style="stroke:#181818;stroke-width:1.0;"/><text fill="#000000" font-family="sans-serif" font-size="13" font-weight="bold" lengthAdjust="spacing" textLength="7" x="626.5" y="297.7842">6</text><text fill="#000000" font-family="sans-serif" font-size="13" lengthAdjust="spacing" textLength="129" x="637.5" y="297.7842">getAgentFromSession</text><polygon fill="#181818" points="1334.5,340.0625,1344.5,344.0625,1334.5,348.0625,1338.5,344.0625" style="stroke:#181818;stroke-width:1.0;"/><line style="stroke:#181818;stroke-width:1.0;" x1="619.5" x2="1340.5" y1="344.0625" y2="344.0625"/><text fill="#000000" font-family="sans-serif" font-size="13" font-weight="bold" lengthAdjust="spacing" textLength="7" x="626.5" y="339.3076">7</text><text fill="#000000" font-family="sans-serif" font-size="13" lengthAdjust="spacing" textLength="75" x="637.5" y="339.3076">getInstance()</text><polygon fill="#181818" points="630.5,368.5859,620.5,372.5859,630.5,376.5859,626.5,372.5859" style="stroke:#181818;stroke-width:1.0;"/><line style="stroke:#181818;stroke-width:1.0;stroke-dasharray:2.0,2.0;" x1="624.5" x2="1350.5" y1="372.5859" y2="372.5859"/><text fill="#000000" font-family="sans-serif" font-size="13" font-weight="bold" lengthAdjust="spacing" textLength="7" x="636.5" y="367.8311">8</text><text fill="#000000" font-family="sans-serif" font-size="13" lengthAdjust="spacing" textLength="68" x="647.5" y="367.8311">appSession</text><polygon fill="#181818" points="1481.5,397.1094,1491.5,401.1094,1481.5,405.1094,1485.5,401.1094" style="stroke:#181818;stroke-width:1.0;"/><line style="stroke:#181818;stroke-width:1.0;" x1="619.5" x2="1487.5" y1="401.1094" y2="401.1094"/><text fill="#000000" font-family="sans-serif" font-size="13" font-weight="bold" lengthAdjust="spacing" textLength="7" x="626.5" y="396.3545">9</text><text fill="#000000" font-family="sans-serif" font-size="13" lengthAdjust="spacing" textLength="115" x="637.5" y="396.3545">getCurrentSession()</text><polygon fill="#181818" points="630.5,425.6328,620.5,429.6328,630.5,433.6328,626.5,429.6328" style="stroke:#181818;stroke-width:1.0;"/><line style="stroke:#181818;stroke-width:1.0;stroke-dasharray:2.0,2.0;" x1="624.5" x2="1497.5" y1="429.6328" y2="429.6328"/><text fill="#000000" font-family="sans-serif" font-size="13" font-weight="bold" lengthAdjust="spacing" textLength="14" x="636.5" y="424.8779">10</text><text fill="#000000" font-family="sans-serif" font-size="13" lengthAdjust="spacing" textLength="87" x="654.5" y="424.8779">currentSession</text><polygon fill="#181818" points="1614.5,454.1563,1624.5,458.1563,1614.5,462.1563,1618.5,458.1563" style="stroke:#181818;stroke-width:1.0;"/><line style="stroke:#181818;stroke-width:1.0;" x1="619.5" x2="1620.5" y1="458.1563" y2="458.1563"/><text fill="#000000" font-family="sans-serif" font-size="13" font-weight="bold" lengthAdjust="spacing" textLength="14" x="626.5" y="453.4014">11</text><text fill="#000000" font-family="sans-serif" font-size="13" lengthAdjust="spacing" textLength="86" x="644.5" y="453.4014">getUserEmail()</text><polygon fill="#181818" points="630.5,482.6797,620.5,486.6797,630.5,490.6797,626.5,486.6797" style="stroke:#181818;stroke-width:1.0;"/><line style="stroke:#181818;stroke-width:1.0;stroke-dasharray:2.0,2.0;" x1="624.5" x2="1630.5" y1="486.6797" y2="486.6797"/><text fill="#000000" font-family="sans-serif" font-size="13" font-weight="bold" lengthAdjust="spacing" textLength="14" x="636.5" y="481.9248">12</text><text fill="#000000" font-family="sans-serif" font-size="13" lengthAdjust="spacing" textLength="113" x="654.5" y="481.9248">UserSession(email)</text><polygon fill="#181818" points="1755,511.2031,1765,515.2031,1755,519.2031,1759,515.2031" style="stroke:#181818;stroke-width:1.0;"/><line style="stroke:#181818;stroke-width:1.0;" x1="619.5" x2="1761" y1="515.2031" y2="515.2031"/><text fill="#000000" font-family="sans-serif" font-size="13" font-weight="bold" lengthAdjust="spacing" textLength="14" x="626.5" y="510.4482">13</text><text fill="#000000" font-family="sans-serif" font-size="13" lengthAdjust="spacing" textLength="120" x="644.5" y="510.4482">getAgemntByEmail()</text><polygon fill="#181818" points="630.5,539.7266,620.5,543.7266,630.5,547.7266,626.5,543.7266" style="stroke:#181818;stroke-width:1.0;"/><line style="stroke:#181818;stroke-width:1.0;stroke-dasharray:2.0,2.0;" x1="624.5" x2="1771" y1="543.7266" y2="543.7266"/><text fill="#000000" font-family="sans-serif" font-size="13" font-weight="bold" lengthAdjust="spacing" textLength="14" x="636.5" y="538.9717">14</text><text fill="#000000" font-family="sans-serif" font-size="13" lengthAdjust="spacing" textLength="81" x="654.5" y="538.9717">agentByEmail</text><polygon fill="#181818" points="947.5,568.25,957.5,572.25,947.5,576.25,951.5,572.25" style="stroke:#181818;stroke-width:1.0;"/><line style="stroke:#181818;stroke-width:1.0;" x1="619.5" x2="953.5" y1="572.25" y2="572.25"/><text fill="#000000" font-family="sans-serif" font-size="13" font-weight="bold" lengthAdjust="spacing" textLength="14" x="626.5" y="567.4951">15</text><text fill="#000000" font-family="sans-serif" font-size="13" lengthAdjust="spacing" textLength="75" x="644.5" y="567.4951">getInstance()</text><polygon fill="#181818" points="630.5,596.7734,620.5,600.7734,630.5,604.7734,626.5,600.7734" style="stroke:#181818;stroke-width:1.0;"/><line style="stroke:#181818;stroke-width:1.0;stroke-dasharray:2.0,2.0;" x1="624.5" x2="963.5" y1="600.7734" y2="600.7734"/><text fill="#000000" font-family="sans-serif" font-size="13" font-weight="bold" lengthAdjust="spacing" textLength="14" x="636.5" y="596.0186">16</text><text fill="#000000" font-family="sans-serif" font-size="13" lengthAdjust="spacing" textLength="143" x="654.5" y="596.0186">repositories:Repositories</text><polygon fill="#181818" points="1054.5,625.2969,1064.5,629.2969,1054.5,633.2969,1058.5,629.2969" style="stroke:#181818;stroke-width:1.0;"/><line style="stroke:#181818;stroke-width:1.0;" x1="619.5" x2="1060.5" y1="629.2969" y2="629.2969"/><text fill="#000000" font-family="sans-serif" font-size="13" font-weight="bold" lengthAdjust="spacing" textLength="14" x="626.5" y="624.542">17</text><text fill="#000000" font-family="sans-serif" font-size="13" lengthAdjust="spacing" textLength="141" x="644.5" y="624.542">getMessageRepository()</text><polygon fill="#181818" points="630.5,653.8203,620.5,657.8203,630.5,661.8203,626.5,657.8203" style="stroke:#181818;stroke-width:1.0;"/><line style="stroke:#181818;stroke-width:1.0;stroke-dasharray:2.0,2.0;" x1="624.5" x2="1070.5" y1="657.8203" y2="657.8203"/><text fill="#000000" font-family="sans-serif" font-size="13" font-weight="bold" lengthAdjust="spacing" textLength="14" x="636.5" y="653.0654">18</text><text fill="#000000" font-family="sans-serif" font-size="13" lengthAdjust="spacing" textLength="115" x="654.5" y="653.0654">messageRepository</text><polygon fill="#181818" points="1184.5,696.8672,1194.5,700.8672,1184.5,704.8672,1188.5,700.8672" style="stroke:#181818;stroke-width:1.0;"/><line style="stroke:#181818;stroke-width:1.0;" x1="619.5" x2="1190.5" y1="700.8672" y2="700.8672"/><text fill="#000000" font-family="sans-serif" font-size="13" font-weight="bold" lengthAdjust="spacing" textLength="14" x="626.5" y="688.8506">19</text><text fill="#000000" font-family="sans-serif" font-size="13" lengthAdjust="spacing" textLength="140" x="644.5" y="681.5889">getMessageRequestList</text><text fill="#000000" font-family="sans-serif" font-size="13" lengthAdjust="spacing" textLength="235" x="644.5" y="696.1123">(employeeByEmail, beginDate, endDate)</text><polygon fill="#181818" points="630.5,725.3906,620.5,729.3906,630.5,733.3906,626.5,729.3906" style="stroke:#181818;stroke-width:1.0;"/><line style="stroke:#181818;stroke-width:1.0;stroke-dasharray:2.0,2.0;" x1="624.5" x2="1200.5" y1="729.3906" y2="729.3906"/><text fill="#000000" font-family="sans-serif" font-size="13" font-weight="bold" lengthAdjust="spacing" textLength="14" x="636.5" y="724.6357">20</text><text fill="#000000" font-family="sans-serif" font-size="13" lengthAdjust="spacing" textLength="122" x="654.5" y="724.6357">messageRequestList</text><line style="stroke:#181818;stroke-width:1.0;" x1="619.5" x2="666.5" y1="752.9141" y2="752.9141"/><line style="stroke:#181818;stroke-width:1.0;" x1="666.5" x2="666.5" y1="752.9141" y2="765.9141"/><line style="stroke:#181818;stroke-width:1.0;" x1="625.5" x2="666.5" y1="765.9141" y2="765.9141"/><polygon fill="#181818" points="635.5,761.9141,625.5,765.9141,635.5,769.9141,631.5,765.9141" style="stroke:#181818;stroke-width:1.0;"/><text fill="#000000" font-family="sans-serif" font-size="13" font-weight="bold" lengthAdjust="spacing" textLength="14" x="631.5" y="748.1592">21</text><text fill="#000000" font-family="sans-serif" font-size="13" lengthAdjust="spacing" textLength="308" x="649.5" y="748.1592">getSortedMessageRequestList(messageRequestList)</text><polygon fill="#181818" points="1846,795.4375,1856,799.4375,1846,803.4375,1850,799.4375" style="stroke:#181818;stroke-width:1.0;"/><line style="stroke:#181818;stroke-width:1.0;" x1="624.5" x2="1852" y1="799.4375" y2="799.4375"/><text fill="#000000" font-family="sans-serif" font-size="13" font-weight="bold" lengthAdjust="spacing" textLength="14" x="631.5" y="794.6826">22</text><text fill="#000000" font-family="sans-serif" font-size="13" lengthAdjust="spacing" textLength="44" x="649.5" y="794.6826">create()</text><rect fill="#E3E3E3" height="29.6406" rx="2.5" ry="2.5" style="stroke:#181818;stroke-width:0.5;" width="101" x="1858" y="778.9141"/><text fill="#000000" font-family="sans-serif" font-size="14" lengthAdjust="spacing" textLength="87" x="1865" y="798.5879">:sortAlgorithm</text><path d="M1778,824.5547 L1778,906.5547 L2038,906.5547 L2038,834.5547 L2028,824.5547 L1778,824.5547 " fill="#FAFAFA" style="stroke:#181818;stroke-width:0.5;"/><path d="M2028,824.5547 L2028,834.5547 L2038,834.5547 L2028,824.5547 " fill="#FAFAFA" style="stroke:#181818;stroke-width:0.5;"/><text fill="#000000" font-family="sans-serif" font-size="13" lengthAdjust="spacing" textLength="4" x="1784" y="841.3232">&#160;</text><text fill="#000000" font-family="sans-serif" font-size="13" lengthAdjust="spacing" textLength="239" x="1784" y="855.8467">SortAlgorithm implementation will depend</text><text fill="#000000" font-family="sans-serif" font-size="13" lengthAdjust="spacing" textLength="227" x="1784" y="870.3701">on the sorting algorithm specified in the</text><text fill="#000000" font-family="sans-serif" font-size="13" lengthAdjust="spacing" textLength="97" x="1784" y="884.8936">configuration file.</text><text fill="#000000" font-family="sans-serif" font-size="13" lengthAdjust="spacing" textLength="4" x="1784" y="899.417">&#160;</text><polygon fill="#181818" points="1891.5,928.6953,1901.5,932.6953,1891.5,936.6953,1895.5,932.6953" style="stroke:#181818;stroke-width:1.0;"/><line style="stroke:#181818;stroke-width:1.0;" x1="624.5" x2="1897.5" y1="932.6953" y2="932.6953"/><text fill="#000000" font-family="sans-serif" font-size="13" font-weight="bold" lengthAdjust="spacing" textLength="14" x="631.5" y="927.9404">23</text><text fill="#000000" font-family="sans-serif" font-size="13" lengthAdjust="spacing" textLength="308" x="649.5" y="927.9404">getSortedMessageRequestList(messageRequestList)</text><polygon fill="#181818" points="635.5,957.2188,625.5,961.2188,635.5,965.2188,631.5,961.2188" style="stroke:#181818;stroke-width:1.0;"/><line style="stroke:#181818;stroke-width:1.0;stroke-dasharray:2.0,2.0;" x1="629.5" x2="1907.5" y1="961.2188" y2="961.2188"/><text fill="#000000" font-family="sans-serif" font-size="13" font-weight="bold" lengthAdjust="spacing" textLength="14" x="641.5" y="956.4639">24</text><text fill="#000000" font-family="sans-serif" font-size="13" lengthAdjust="spacing" textLength="158" x="659.5" y="956.4639">sortedMessageRequestList</text><line style="stroke:#181818;stroke-width:1.0;stroke-dasharray:2.0,2.0;" x1="624.5" x2="666.5" y1="994.7422" y2="994.7422"/><line style="stroke:#181818;stroke-width:1.0;stroke-dasharray:2.0,2.0;" x1="666.5" x2="666.5" y1="994.7422" y2="1007.7422"/><line style="stroke:#181818;stroke-width:1.0;stroke-dasharray:2.0,2.0;" x1="619.5" x2="666.5" y1="1007.7422" y2="1007.7422"/><polygon fill="#181818" points="629.5,1003.7422,619.5,1007.7422,629.5,1011.7422,625.5,1007.7422" style="stroke:#181818;stroke-width:1.0;"/><text fill="#000000" font-family="sans-serif" font-size="13" font-weight="bold" lengthAdjust="spacing" textLength="14" x="631.5" y="989.9873">25</text><text fill="#000000" font-family="sans-serif" font-size="13" lengthAdjust="spacing" textLength="158" x="649.5" y="989.9873">sortedMessageRequestList</text><polygon fill="#181818" points="2013.5,1027.2656,2023.5,1031.2656,2013.5,1035.2656,2017.5,1031.2656" style="stroke:#181818;stroke-width:1.0;"/><line style="stroke:#181818;stroke-width:1.0;" x1="619.5" x2="2019.5" y1="1031.2656" y2="1031.2656"/><text fill="#000000" font-family="sans-serif" font-size="13" font-weight="bold" lengthAdjust="spacing" textLength="14" x="626.5" y="1026.5107">26</text><text fill="#000000" font-family="sans-serif" font-size="13" lengthAdjust="spacing" textLength="167" x="644.5" y="1026.5107">toDTO(messageRequestList)</text><polygon fill="#181818" points="2384.5,1055.7891,2394.5,1059.7891,2384.5,1063.7891,2388.5,1059.7891" style="stroke:#181818;stroke-width:1.0;"/><line style="stroke:#181818;stroke-width:1.0;stroke-dasharray:2.0,2.0;" x1="2035.5" x2="2390.5" y1="1059.7891" y2="1059.7891"/><text fill="#000000" font-family="sans-serif" font-size="13" font-weight="bold" lengthAdjust="spacing" textLength="14" x="2042.5" y="1055.0342">27</text><text fill="#000000" font-family="sans-serif" font-size="13" lengthAdjust="spacing" textLength="44" x="2060.5" y="1055.0342">create()</text><rect fill="#E3E3E3" height="29.6406" rx="2.5" ry="2.5" style="stroke:#181818;stroke-width:0.5;" width="238" x="2396.5" y="1039.2656"/><text fill="#000000" font-family="sans-serif" font-size="14" lengthAdjust="spacing" textLength="224" x="2403.5" y="1058.9395">listOfMessagesDto:List&lt;Messages&gt;</text><path d="M1959,1086.9063 L2032,1086.9063 L2032,1093.4297 L2022,1103.4297 L1959,1103.4297 L1959,1086.9063 " fill="#EEEEEE" style="stroke:#000000;stroke-width:1.5;"/><rect fill="none" height="616.4688" style="stroke:#000000;stroke-width:1.5;" width="685.5" x="1959" y="1086.9063"/><text fill="#000000" font-family="sans-serif" font-size="13" font-weight="bold" lengthAdjust="spacing" textLength="28" x="1974" y="1099.6748">loop</text><text fill="#000000" font-family="sans-serif" font-size="11" font-weight="bold" lengthAdjust="spacing" textLength="155" x="2047" y="1098.8643">[for each message request]</text><line style="stroke:#181818;stroke-width:1.0;" x1="2035.5" x2="2082.5" y1="1118.9531" y2="1118.9531"/><line style="stroke:#181818;stroke-width:1.0;" x1="2082.5" x2="2082.5" y1="1118.9531" y2="1131.9531"/><line style="stroke:#181818;stroke-width:1.0;" x1="2041.5" x2="2082.5" y1="1131.9531" y2="1131.9531"/><polygon fill="#181818" points="2051.5,1127.9531,2041.5,1131.9531,2051.5,1135.9531,2047.5,1131.9531" style="stroke:#181818;stroke-width:1.0;"/><text fill="#000000" font-family="sans-serif" font-size="13" font-weight="bold" lengthAdjust="spacing" textLength="14" x="2047.5" y="1114.1982">28</text><text fill="#000000" font-family="sans-serif" font-size="13" lengthAdjust="spacing" textLength="92" x="2065.5" y="1114.1982">toDto(Message)</text><polygon fill="#181818" points="2281.5,1161.4766,2291.5,1165.4766,2281.5,1169.4766,2285.5,1165.4766" style="stroke:#181818;stroke-width:1.0;"/><line style="stroke:#181818;stroke-width:1.0;" x1="2040.5" x2="2287.5" y1="1165.4766" y2="1165.4766"/><text fill="#000000" font-family="sans-serif" font-size="13" font-weight="bold" lengthAdjust="spacing" textLength="14" x="2047.5" y="1160.7217">29</text><text fill="#000000" font-family="sans-serif" font-size="13" lengthAdjust="spacing" textLength="93" x="2065.5" y="1160.7217">getClientName()</text><polygon fill="#181818" points="2051.5,1190,2041.5,1194,2051.5,1198,2047.5,1194" style="stroke:#181818;stroke-width:1.0;"/><line style="stroke:#181818;stroke-width:1.0;stroke-dasharray:2.0,2.0;" x1="2045.5" x2="2297.5" y1="1194" y2="1194"/><text fill="#000000" font-family="sans-serif" font-size="13" font-weight="bold" lengthAdjust="spacing" textLength="14" x="2057.5" y="1189.2451">30</text><text fill="#000000" font-family="sans-serif" font-size="13" lengthAdjust="spacing" textLength="65" x="2075.5" y="1189.2451">clientName</text><polygon fill="#181818" points="2281.5,1218.5234,2291.5,1222.5234,2281.5,1226.5234,2285.5,1222.5234" style="stroke:#181818;stroke-width:1.0;"/><line style="stroke:#181818;stroke-width:1.0;" x1="2040.5" x2="2287.5" y1="1222.5234" y2="1222.5234"/><text fill="#000000" font-family="sans-serif" font-size="13" font-weight="bold" lengthAdjust="spacing" textLength="14" x="2047.5" y="1217.7686">31</text><text fill="#000000" font-family="sans-serif" font-size="13" lengthAdjust="spacing" textLength="141" x="2065.5" y="1217.7686">getClientPhoneNumber()</text><polygon fill="#181818" points="2051.5,1247.0469,2041.5,1251.0469,2051.5,1255.0469,2047.5,1251.0469" style="stroke:#181818;stroke-width:1.0;"/><line style="stroke:#181818;stroke-width:1.0;stroke-dasharray:2.0,2.0;" x1="2045.5" x2="2297.5" y1="1251.0469" y2="1251.0469"/><text fill="#000000" font-family="sans-serif" font-size="13" font-weight="bold" lengthAdjust="spacing" textLength="14" x="2057.5" y="1246.292">32</text><text fill="#000000" font-family="sans-serif" font-size="13" lengthAdjust="spacing" textLength="113" x="2075.5" y="1246.292">clientPhoneNumber</text><polygon fill="#181818" points="2281.5,1275.5703,2291.5,1279.5703,2281.5,1283.5703,2285.5,1279.5703" style="stroke:#181818;stroke-width:1.0;"/><line style="stroke:#181818;stroke-width:1.0;" x1="2040.5" x2="2287.5" y1="1279.5703" y2="1279.5703"/><text fill="#000000" font-family="sans-serif" font-size="13" font-weight="bold" lengthAdjust="spacing" textLength="14" x="2047.5" y="1274.8154">33</text><text fill="#000000" font-family="sans-serif" font-size="13" lengthAdjust="spacing" textLength="53" x="2065.5" y="1274.8154">getDate()</text><polygon fill="#181818" points="2051.5,1304.0938,2041.5,1308.0938,2051.5,1312.0938,2047.5,1308.0938" style="stroke:#181818;stroke-width:1.0;"/><line style="stroke:#181818;stroke-width:1.0;stroke-dasharray:2.0,2.0;" x1="2045.5" x2="2297.5" y1="1308.0938" y2="1308.0938"/><text fill="#000000" font-family="sans-serif" font-size="13" font-weight="bold" lengthAdjust="spacing" textLength="14" x="2057.5" y="1303.3389">34</text><text fill="#000000" font-family="sans-serif" font-size="13" lengthAdjust="spacing" textLength="25" x="2075.5" y="1303.3389">date</text><polygon fill="#181818" points="2281.5,1332.6172,2291.5,1336.6172,2281.5,1340.6172,2285.5,1336.6172" style="stroke:#181818;stroke-width:1.0;"/><line style="stroke:#181818;stroke-width:1.0;" x1="2040.5" x2="2287.5" y1="1336.6172" y2="1336.6172"/><text fill="#000000" font-family="sans-serif" font-size="13" font-weight="bold" lengthAdjust="spacing" textLength="14" x="2047.5" y="1331.8623">35</text><text fill="#000000" font-family="sans-serif" font-size="13" lengthAdjust="spacing" textLength="84" x="2065.5" y="1331.8623">getInitialTime()</text><polygon fill="#181818" points="2051.5,1361.1406,2041.5,1365.1406,2051.5,1369.1406,2047.5,1365.1406" style="stroke:#181818;stroke-width:1.0;"/><line style="stroke:#181818;stroke-width:1.0;stroke-dasharray:2.0,2.0;" x1="2045.5" x2="2297.5" y1="1365.1406" y2="1365.1406"/><text fill="#000000" font-family="sans-serif" font-size="13" font-weight="bold" lengthAdjust="spacing" textLength="14" x="2057.5" y="1360.3857">36</text><text fill="#000000" font-family="sans-serif" font-size="13" lengthAdjust="spacing" textLength="58" x="2075.5" y="1360.3857">initialTime</text><polygon fill="#181818" points="2281.5,1389.6641,2291.5,1393.6641,2281.5,1397.6641,2285.5,1393.6641" style="stroke:#181818;stroke-width:1.0;"/><line style="stroke:#181818;stroke-width:1.0;" x1="2040.5" x2="2287.5" y1="1393.6641" y2="1393.6641"/><text fill="#000000" font-family="sans-serif" font-size="13" font-weight="bold" lengthAdjust="spacing" textLength="14" x="2047.5" y="1388.9092">37</text><text fill="#000000" font-family="sans-serif" font-size="13" lengthAdjust="spacing" textLength="77" x="2065.5" y="1388.9092">getEndTime()</text><polygon fill="#181818" points="2051.5,1418.1875,2041.5,1422.1875,2051.5,1426.1875,2047.5,1422.1875" style="stroke:#181818;stroke-width:1.0;"/><line style="stroke:#181818;stroke-width:1.0;stroke-dasharray:2.0,2.0;" x1="2045.5" x2="2297.5" y1="1422.1875" y2="1422.1875"/><text fill="#000000" font-family="sans-serif" font-size="13" font-weight="bold" lengthAdjust="spacing" textLength="14" x="2057.5" y="1417.4326">38</text><text fill="#000000" font-family="sans-serif" font-size="13" lengthAdjust="spacing" textLength="49" x="2075.5" y="1417.4326">endTime</text><polygon fill="#181818" points="2281.5,1446.7109,2291.5,1450.7109,2281.5,1454.7109,2285.5,1450.7109" style="stroke:#181818;stroke-width:1.0;"/><line style="stroke:#181818;stroke-width:1.0;" x1="2040.5" x2="2287.5" y1="1450.7109" y2="1450.7109"/><text fill="#000000" font-family="sans-serif" font-size="13" font-weight="bold" lengthAdjust="spacing" textLength="14" x="2047.5" y="1445.9561">39</text><text fill="#000000" font-family="sans-serif" font-size="13" lengthAdjust="spacing" textLength="91" x="2065.5" y="1445.9561">getDescription()</text><polygon fill="#181818" points="2051.5,1475.2344,2041.5,1479.2344,2051.5,1483.2344,2047.5,1479.2344" style="stroke:#181818;stroke-width:1.0;"/><line style="stroke:#181818;stroke-width:1.0;stroke-dasharray:2.0,2.0;" x1="2045.5" x2="2297.5" y1="1479.2344" y2="1479.2344"/><text fill="#000000" font-family="sans-serif" font-size="13" font-weight="bold" lengthAdjust="spacing" textLength="14" x="2057.5" y="1474.4795">40</text><text fill="#000000" font-family="sans-serif" font-size="13" lengthAdjust="spacing" textLength="63" x="2075.5" y="1474.4795">description</text><polygon fill="#181818" points="2281.5,1503.7578,2291.5,1507.7578,2281.5,1511.7578,2285.5,1507.7578" style="stroke:#181818;stroke-width:1.0;"/><line style="stroke:#181818;stroke-width:1.0;" x1="2040.5" x2="2287.5" y1="1507.7578" y2="1507.7578"/><text fill="#000000" font-family="sans-serif" font-size="13" font-weight="bold" lengthAdjust="spacing" textLength="14" x="2047.5" y="1503.0029">41</text><text fill="#000000" font-family="sans-serif" font-size="13" lengthAdjust="spacing" textLength="156" x="2065.5" y="1503.0029">getPublishAnnouncement()</text><polygon fill="#181818" points="2051.5,1532.2813,2041.5,1536.2813,2051.5,1540.2813,2047.5,1536.2813" style="stroke:#181818;stroke-width:1.0;"/><line style="stroke:#181818;stroke-width:1.0;stroke-dasharray:2.0,2.0;" x1="2045.5" x2="2297.5" y1="1536.2813" y2="1536.2813"/><text fill="#000000" font-family="sans-serif" font-size="13" font-weight="bold" lengthAdjust="spacing" textLength="14" x="2057.5" y="1531.5264">42</text><text fill="#000000" font-family="sans-serif" font-size="13" lengthAdjust="spacing" textLength="128" x="2075.5" y="1531.5264">publishAnnouncement</text><line style="stroke:#181818;stroke-width:1.0;" x1="2045.5" x2="2087.5" y1="1593.8516" y2="1593.8516"/><line style="stroke:#181818;stroke-width:1.0;" x1="2087.5" x2="2087.5" y1="1593.8516" y2="1606.8516"/><line style="stroke:#181818;stroke-width:1.0;" x1="2046.5" x2="2087.5" y1="1606.8516" y2="1606.8516"/><polygon fill="#181818" points="2056.5,1602.8516,2046.5,1606.8516,2056.5,1610.8516,2052.5,1606.8516" style="stroke:#181818;stroke-width:1.0;"/><text fill="#000000" font-family="sans-serif" font-size="13" font-weight="bold" lengthAdjust="spacing" textLength="14" x="2052.5" y="1574.5732">43</text><text fill="#000000" font-family="sans-serif" font-size="13" lengthAdjust="spacing" textLength="193" x="2070.5" y="1560.0498">messageDto = toDto(clientName,</text><text fill="#000000" font-family="sans-serif" font-size="13" lengthAdjust="spacing" textLength="221" x="2070.5" y="1574.5732">clientPhoneNumber, description, date,</text><text fill="#000000" font-family="sans-serif" font-size="13" lengthAdjust="spacing" textLength="119" x="2070.5" y="1589.0967">initialTime, endTime)</text><polygon fill="#181818" points="2498.5,1661.375,2508.5,1665.375,2498.5,1669.375,2502.5,1665.375" style="stroke:#181818;stroke-width:1.0;"/><line style="stroke:#181818;stroke-width:1.0;stroke-dasharray:2.0,2.0;" x1="2040.5" x2="2504.5" y1="1665.375" y2="1665.375"/><text fill="#000000" font-family="sans-serif" font-size="13" font-weight="bold" lengthAdjust="spacing" textLength="14" x="2047.5" y="1660.6201">44</text><text fill="#000000" font-family="sans-serif" font-size="13" lengthAdjust="spacing" textLength="102" x="2065.5" y="1660.6201">add(messageDto)</text><polygon fill="#181818" points="630.5,1726.8984,620.5,1730.8984,630.5,1734.8984,626.5,1730.8984" style="stroke:#181818;stroke-width:1.0;"/><line style="stroke:#181818;stroke-width:1.0;stroke-dasharray:2.0,2.0;" x1="624.5" x2="2024.5" y1="1730.8984" y2="1730.8984"/><text fill="#000000" font-family="sans-serif" font-size="13" font-weight="bold" lengthAdjust="spacing" textLength="14" x="636.5" y="1726.1436">45</text><text fill="#000000" font-family="sans-serif" font-size="13" lengthAdjust="spacing" textLength="122" x="654.5" y="1726.1436">messageRequestList</text><polygon fill="#181818" points="456.5,1755.4219,446.5,1759.4219,456.5,1763.4219,452.5,1759.4219" style="stroke:#181818;stroke-width:1.0;"/><line style="stroke:#181818;stroke-width:1.0;stroke-dasharray:2.0,2.0;" x1="450.5" x2="613.5" y1="1759.4219" y2="1759.4219"/><text fill="#000000" font-family="sans-serif" font-size="13" font-weight="bold" lengthAdjust="spacing" textLength="14" x="462.5" y="1754.667">46</text><text fill="#000000" font-family="sans-serif" font-size="13" lengthAdjust="spacing" textLength="122" x="480.5" y="1754.667">messageRequestList</text><polygon fill="#181818" points="37.5,1798.4688,27.5,1802.4688,37.5,1806.4688,33.5,1802.4688" style="stroke:#181818;stroke-width:1.0;"/><line style="stroke:#181818;stroke-width:1.0;stroke-dasharray:2.0,2.0;" x1="31.5" x2="439.5" y1="1802.4688" y2="1802.4688"/><text fill="#000000" font-family="sans-serif" font-size="13" font-weight="bold" lengthAdjust="spacing" textLength="14" x="43.5" y="1790.4521">47</text><text fill="#000000" font-family="sans-serif" font-size="13" lengthAdjust="spacing" textLength="362" x="61.5" y="1783.1904">shows all message requests sorted by date in ascending order</text><text fill="#000000" font-family="sans-serif" font-size="13" lengthAdjust="spacing" textLength="183" x="61.5" y="1797.7139">and displays operation success</text><!--SRC=[hLXDR-Cs4BthLn2vrBjm5cs1Ne9s0M-SBG8aky4wkVb2IxH5X29LajhK_xv3KfH8KKoQn0Q2oEBCcpVaVD7gaV8MIzoWHd1Hrb8q16dPaK8DAoqk7_61RFIH4IH9gJ4_i510rRWIJvGVq1upHOe2TrhmhjaHMHIQQb3Ra7ywmak2rXGVZCxNZZ5qZXusl_xsHr7yKjEAeBqGUYV-BN2fXKHdgmFX-WnXXUnJ0SOqBMcBkKPd5pTKwLkY531xkBPI3zTvaKl1jHIC4Mb5B-z_t4o4Vv1MA0g6AL5MPdXnZ2Lb8BZbgTwmVlmzLcmSbH7tOijlf-yiHF9smdNLjeoMM5F1Do0A_wmQRjjO45xqwq0qexIwkukLoavAsEvHyK4H6MgOxx4AQLecZYGW36fN_KiqSSw_d_YaXDGhTe1zr7LZ1JVtgvk_9rBzpjo2P_rHkiVPdLvhuHNWCTnP5Sip29JlUxzcr4pe_EbVVBQgR8mcjRx_Ni070fN-n9hq0LgW_cE_elFF49Be0dGV5TB20Y0CORyJuj5aYpH9eRI2m9UebGByq115gC4SZ5HeTqGrRKROmHn4-l3IVC0C63D1_V4Z62mb0QbOnCg0aADsCTe6Oeemo6g4EQASQeePgemLp2j4uCzyYR4gagKoyTr1As-EM3IC5ZjoeDmYBmSR7sAWl8dHNR1m83h8yqKEn6Pyl6O18Y3B_IlKm3xSCmeGSKx-cYieXcNUgid8QCcedeysnmGjClkR87WIaBUEn6MKhnCgOuH2caShHZzW4cTzZas2ujcOck3ecAUh1bEMOsBBHno-HZdW4XIS1J5G7t9yKYnFQAW-_c0RhhySdoKs5APeUG0AZyt4IO-MepQFvkcDDV7PI1hGWbOG2GGu0R-mHKKDAaSs1-_f1ZtDyKqwL8vus0qZYH0oe9uqoHpbBB3dd52SCBS5oPIEhOaoTrZzcIwHhKzhNvxMINKQQAIjEf9BISpvEb39EVk2bRIIRQ2RaYhrTP7Qp3YM5anlnJNceDF0sKU2N82- -0b9xLfujBW9-poYiF6aWMooSmbwej0UAzB2daTAiAHhWioCO1ed7lHLIqgwfz1Ng1M9j4h1z_JGIOUzfunyYhcOpcF8pljfoQEBa-pct4PO-20SLCPABYXcC1trjqEwGvzF9pjd0QOMCFtyVy_x-IpE2eTbY4wcgcUYYWdHsaa9wDO-T_nWCO_lMLlIMYnwGszWEfGJvNeken2ptt2JBTZ3e3bN3fHrtNCh1x0Nqb-zn0q5vEvgmSatUmax6SS0ypHKr-wStySEe98HzSsChjq4V4-Ran2Z8zph-6K9Nl5gXXnw4MwM7d5WsUd-bTpMH9MIjZgTGz_23uvrn7i_HSlmhjj1nQbNd8iEnYtJUKx2j4rnty7O7yzuZqL_zILiB1PBjEL9MYx3FLkw2zQM1r6uz6UUzTfLmIpvcIBvJ3qtmt9LBKP7ScQdj-kS_UGMFkddsKRp-fbhnjEXlzhBRVFAlfgvYgjQF2dxmy2agQc-VviV0koD76OSh4hmqWn1GbP4RhcvfLTKjGmV5J8_8RXfHtLb2MX5_heUNklSpnV_0G00]--></g></svg>