<?xml version="1.0" encoding="UTF-8" standalone="no"?><svg xmlns="http://www.w3.org/2000/svg" xmlns:xlink="http://www.w3.org/1999/xlink" contentStyleType="text/css" height="499px" preserveAspectRatio="none" style="width:833px;height:499px;background:#FFFFFF;" version="1.1" viewBox="0 0 833 499" width="833px" zoomAndPan="magnify"><defs/><g><text fill="#000000" font-family="sans-serif" font-size="14" font-weight="bold" lengthAdjust="spacing" textLength="435" x="200.75" y="29.5332">US015 - Sequence Diagram Partial (Get Message Request List)</text><rect fill="#FFFFFF" height="301.25" style="stroke:#181818;stroke-width:1.0;" width="10" x="123.5" y="118.9219"/><rect fill="#FFFFFF" height="39.1563" style="stroke:#181818;stroke-width:1.0;" width="10" x="402.5" y="184.2344"/><rect fill="#FFFFFF" height="39.1563" style="stroke:#181818;stroke-width:1.0;" width="10" x="542.5" y="262.5469"/><rect fill="#FFFFFF" height="39.1563" style="stroke:#181818;stroke-width:1.0;" width="10" x="715" y="366.0156"/><rect fill="none" height="287.25" style="stroke:#000000;stroke-width:1.5;" width="817.5" x="10" y="125.9219"/><line style="stroke:#181818;stroke-width:0.5;stroke-dasharray:5.0,5.0;" x1="128" x2="128" y1="108.9219" y2="430.1719"/><line style="stroke:#181818;stroke-width:0.5;stroke-dasharray:5.0,5.0;" x1="407.5" x2="407.5" y1="108.9219" y2="430.1719"/><line style="stroke:#181818;stroke-width:0.5;stroke-dasharray:5.0,5.0;" x1="547.5" x2="547.5" y1="108.9219" y2="430.1719"/><line style="stroke:#181818;stroke-width:0.5;stroke-dasharray:5.0,5.0;" x1="719.5" x2="719.5" y1="108.9219" y2="430.1719"/><rect fill="#E2E2F0" height="39.1563" rx="2.5" ry="2.5" style="stroke:#181818;stroke-width:0.5;" width="217" x="20" y="68.7656"/><text fill="#000000" font-family="sans-serif" font-size="20" lengthAdjust="spacing" textLength="203" x="27" y="96.5273">:ListMessageController</text><rect fill="#E2E2F0" height="39.1563" rx="2.5" ry="2.5" style="stroke:#181818;stroke-width:0.5;" width="217" x="20" y="429.1719"/><text fill="#000000" font-family="sans-serif" font-size="20" lengthAdjust="spacing" textLength="203" x="27" y="456.9336">:ListMessageController</text><rect fill="#E2E2F0" height="39.1563" rx="2.5" ry="2.5" style="stroke:#181818;stroke-width:0.5;" width="130" x="342.5" y="68.7656"/><text fill="#000000" font-family="sans-serif" font-size="20" lengthAdjust="spacing" textLength="116" x="349.5" y="96.5273">:Repositories</text><rect fill="#E2E2F0" height="39.1563" rx="2.5" ry="2.5" style="stroke:#181818;stroke-width:0.5;" width="130" x="342.5" y="429.1719"/><text fill="#000000" font-family="sans-serif" font-size="20" lengthAdjust="spacing" textLength="116" x="349.5" y="456.9336">:Repositories</text><rect fill="#E2E2F0" height="64.3125" rx="2.5" ry="2.5" style="stroke:#181818;stroke-width:0.5;" width="130" x="482.5" y="43.6094"/><text fill="#000000" font-family="sans-serif" font-size="20" lengthAdjust="spacing" textLength="103" x="496" y="71.3711">repositories</text><text fill="#000000" font-family="sans-serif" font-size="20" lengthAdjust="spacing" textLength="116" x="489.5" y="96.5273">:Repositories</text><rect fill="#E2E2F0" height="64.3125" rx="2.5" ry="2.5" style="stroke:#181818;stroke-width:0.5;" width="130" x="482.5" y="429.1719"/><text fill="#000000" font-family="sans-serif" font-size="20" lengthAdjust="spacing" textLength="103" x="496" y="456.9336">repositories</text><text fill="#000000" font-family="sans-serif" font-size="20" lengthAdjust="spacing" textLength="116" x="489.5" y="482.0898">:Repositories</text><rect fill="#E2E2F0" height="64.3125" rx="2.5" ry="2.5" style="stroke:#181818;stroke-width:0.5;" width="195" x="622.5" y="43.6094"/><text fill="#000000" font-family="sans-serif" font-size="20" lengthAdjust="spacing" textLength="181" x="629.5" y="71.3711">messageRepository:</text><text fill="#000000" font-family="sans-serif" font-size="20" lengthAdjust="spacing" textLength="176" x="632" y="96.5273">MessageRepository</text><rect fill="#E2E2F0" height="64.3125" rx="2.5" ry="2.5" style="stroke:#181818;stroke-width:0.5;" width="195" x="622.5" y="429.1719"/><text fill="#000000" font-family="sans-serif" font-size="20" lengthAdjust="spacing" textLength="181" x="629.5" y="456.9336">messageRepository:</text><text fill="#000000" font-family="sans-serif" font-size="20" lengthAdjust="spacing" textLength="176" x="632" y="482.0898">MessageRepository</text><rect fill="#FFFFFF" height="301.25" style="stroke:#181818;stroke-width:1.0;" width="10" x="123.5" y="118.9219"/><rect fill="#FFFFFF" height="39.1563" style="stroke:#181818;stroke-width:1.0;" width="10" x="402.5" y="184.2344"/><rect fill="#FFFFFF" height="39.1563" style="stroke:#181818;stroke-width:1.0;" width="10" x="542.5" y="262.5469"/><rect fill="#FFFFFF" height="39.1563" style="stroke:#181818;stroke-width:1.0;" width="10" x="715" y="366.0156"/><path d="M10,125.9219 L304,125.9219 L304,143.0781 L294,153.0781 L10,153.0781 L10,125.9219 " fill="#EEEEEE" style="stroke:#000000;stroke-width:1.5;"/><rect fill="none" height="287.25" style="stroke:#000000;stroke-width:1.5;" width="817.5" x="10" y="125.9219"/><text fill="#000000" font-family="sans-serif" font-size="20" font-weight="bold" lengthAdjust="spacing" textLength="249" x="25" y="147.6836">Get Message Request List</text><polygon fill="#181818" points="390.5,180.2344,400.5,184.2344,390.5,188.2344,394.5,184.2344" style="stroke:#181818;stroke-width:1.0;"/><line style="stroke:#181818;stroke-width:1.0;" x1="133.5" x2="396.5" y1="184.2344" y2="184.2344"/><text fill="#000000" font-family="sans-serif" font-size="20" font-weight="bold" lengthAdjust="spacing" textLength="22" x="140.5" y="177.8398">15</text><text fill="#000000" font-family="sans-serif" font-size="20" lengthAdjust="spacing" textLength="116" x="166.5" y="177.8398">getInstance()</text><polygon fill="#181818" points="144.5,219.3906,134.5,223.3906,144.5,227.3906,140.5,223.3906" style="stroke:#181818;stroke-width:1.0;"/><line style="stroke:#181818;stroke-width:1.0;stroke-dasharray:2.0,2.0;" x1="138.5" x2="406.5" y1="223.3906" y2="223.3906"/><text fill="#000000" font-family="sans-serif" font-size="20" font-weight="bold" lengthAdjust="spacing" textLength="22" x="150.5" y="216.9961">16</text><text fill="#000000" font-family="sans-serif" font-size="20" lengthAdjust="spacing" textLength="219" x="176.5" y="216.9961">repositories:Repositories</text><polygon fill="#181818" points="530.5,258.5469,540.5,262.5469,530.5,266.5469,534.5,262.5469" style="stroke:#181818;stroke-width:1.0;"/><line style="stroke:#181818;stroke-width:1.0;" x1="133.5" x2="536.5" y1="262.5469" y2="262.5469"/><text fill="#000000" font-family="sans-serif" font-size="20" font-weight="bold" lengthAdjust="spacing" textLength="22" x="140.5" y="256.1523">17</text><text fill="#000000" font-family="sans-serif" font-size="20" lengthAdjust="spacing" textLength="218" x="166.5" y="256.1523">getMessageRepository()</text><polygon fill="#181818" points="144.5,297.7031,134.5,301.7031,144.5,305.7031,140.5,301.7031" style="stroke:#181818;stroke-width:1.0;"/><line style="stroke:#181818;stroke-width:1.0;stroke-dasharray:2.0,2.0;" x1="138.5" x2="546.5" y1="301.7031" y2="301.7031"/><text fill="#000000" font-family="sans-serif" font-size="20" font-weight="bold" lengthAdjust="spacing" textLength="22" x="150.5" y="295.3086">18</text><text fill="#000000" font-family="sans-serif" font-size="20" lengthAdjust="spacing" textLength="175" x="176.5" y="295.3086">messageRepository</text><polygon fill="#181818" points="703,362.0156,713,366.0156,703,370.0156,707,366.0156" style="stroke:#181818;stroke-width:1.0;"/><line style="stroke:#181818;stroke-width:1.0;" x1="133.5" x2="709" y1="366.0156" y2="366.0156"/><text fill="#000000" font-family="sans-serif" font-size="20" font-weight="bold" lengthAdjust="spacing" textLength="22" x="140.5" y="347.043">19</text><text fill="#000000" font-family="sans-serif" font-size="20" lengthAdjust="spacing" textLength="213" x="166.5" y="334.4648">getMessageRequestList</text><text fill="#000000" font-family="sans-serif" font-size="20" lengthAdjust="spacing" textLength="357" x="166.5" y="359.6211">(employeeByEmail, beginDate, endDate)</text><polygon fill="#181818" points="144.5,401.1719,134.5,405.1719,144.5,409.1719,140.5,405.1719" style="stroke:#181818;stroke-width:1.0;"/><line style="stroke:#181818;stroke-width:1.0;stroke-dasharray:2.0,2.0;" x1="138.5" x2="719" y1="405.1719" y2="405.1719"/><text fill="#000000" font-family="sans-serif" font-size="20" font-weight="bold" lengthAdjust="spacing" textLength="22" x="150.5" y="398.7773">20</text><text fill="#000000" font-family="sans-serif" font-size="20" lengthAdjust="spacing" textLength="184" x="176.5" y="398.7773">messageRequestList</text><!--SRC=[XP8_JyCm4CLtVufJ5rg9q3zIbmmCj82GMWcri7LnaskmwjWclY32fyT9sk0qZSWGHVPxxtvt5tiKol2Cfr97HumXnWFF9JrfHLlnWp2Ri9iF8cF3yTX8hYXFvLsaqx75pnnLX44iUEByZ34I917UjvFf70BOdWImh0NmoZCINCBm6GdMQ2rF43QboXAiXAKHSxL4Z73GclRwcp5JMY9XN5qOXANcv5iulanBYTa0k8N5ssPr8TwWqLQGpWJQIjCS56rbvWbtgkjhxejPsvZMA7-vuKwjBy-gYCufOpmdhV9qZnbCvumbcSuDz0t6oICINvomxfILRmZklPuWX0JfHLdYRkR34GFlQTm-WI_mSW8NMyM7u4-cDPUMDyP_uy-utYXhtivW-i3z9RGKVgI7tjbD7t9ly9cvWtX1NcsfND9E3J4rKXU83yLZoeMyXJqcGYrTdLj05PSVFVrT-KDyNHVYMgyDIb-pLweuBCOyIPdv2m00]--></g></svg>