<?xml version="1.0" encoding="UTF-8" standalone="no"?><svg xmlns="http://www.w3.org/2000/svg" xmlns:xlink="http://www.w3.org/1999/xlink" contentStyleType="text/css" height="1042px" preserveAspectRatio="none" style="width:1275px;height:1042px;background:#FFFFFF;" version="1.1" viewBox="0 0 1275 1042" width="1275px" zoomAndPan="magnify"><defs/><g><text fill="#000000" font-family="sans-serif" font-size="14" font-weight="bold" lengthAdjust="spacing" textLength="276" x="500.5" y="29.5332">US18 - System Sequence Diagram (SSD)</text><rect fill="#FFFFFF" height="804.9063" style="stroke:#181818;stroke-width:1.0;" width="10" x="94" y="138.7656"/><rect fill="#FFFFFF" height="39.1563" style="stroke:#181818;stroke-width:1.0;" width="10" x="1200" y="169.9219"/><rect fill="#FFFFFF" height="108.625" style="stroke:#181818;stroke-width:1.0;" width="10" x="1200" y="248.2344"/><rect fill="#FFFFFF" height="121.625" style="stroke:#181818;stroke-width:1.0;" width="10" x="1200" y="396.0156"/><rect fill="#FFFFFF" height="149.7813" style="stroke:#181818;stroke-width:1.0;" width="10" x="1200" y="556.7969"/><rect fill="#FFFFFF" height="152.625" style="stroke:#181818;stroke-width:1.0;" width="10" x="1200" y="790.0469"/><rect fill="none" height="140.7813" style="stroke:#000000;stroke-width:1.5;" width="1238" x="20" y="263.2344"/><rect fill="none" height="363.875" style="stroke:#000000;stroke-width:1.5;" width="1258" x="10" y="571.7969"/><rect fill="none" height="167.9375" style="stroke:#000000;stroke-width:1.5;" width="1238" x="20" y="721.5781"/><line style="stroke:#181818;stroke-width:0.5;stroke-dasharray:5.0,5.0;" x1="99" x2="99" y1="128.7656" y2="952.6719"/><line style="stroke:#181818;stroke-width:0.5;stroke-dasharray:5.0,5.0;" x1="1205" x2="1205" y1="128.7656" y2="952.6719"/><text fill="#000000" font-family="sans-serif" font-size="20" lengthAdjust="spacing" textLength="132" x="30" y="124.3711">Store Manager</text><ellipse cx="99" cy="52.1094" fill="#E3E3E3" rx="8" ry="8" style="stroke:#181818;stroke-width:0.5;"/><path d="M99,60.1094 L99,87.1094 M86,68.1094 L112,68.1094 M99,87.1094 L86,102.1094 M99,87.1094 L112,102.1094 " fill="none" style="stroke:#181818;stroke-width:0.5;"/><text fill="#000000" font-family="sans-serif" font-size="20" lengthAdjust="spacing" textLength="132" x="30" y="972.4336">Store Manager</text><ellipse cx="99" cy="985.3281" fill="#E3E3E3" rx="8" ry="8" style="stroke:#181818;stroke-width:0.5;"/><path d="M99,993.3281 L99,1020.3281 M86,1001.3281 L112,1001.3281 M99,1020.3281 L86,1035.3281 M99,1020.3281 L112,1035.3281 " fill="none" style="stroke:#181818;stroke-width:0.5;"/><rect fill="#E3E3E3" height="39.1563" rx="2.5" ry="2.5" style="stroke:#181818;stroke-width:0.5;" width="86" x="1162" y="88.6094"/><text fill="#000000" font-family="sans-serif" font-size="20" lengthAdjust="spacing" textLength="72" x="1169" y="116.3711">:System</text><rect fill="#E3E3E3" height="39.1563" rx="2.5" ry="2.5" style="stroke:#181818;stroke-width:0.5;" width="86" x="1162" y="951.6719"/><text fill="#000000" font-family="sans-serif" font-size="20" lengthAdjust="spacing" textLength="72" x="1169" y="979.4336">:System</text><rect fill="#FFFFFF" height="804.9063" style="stroke:#181818;stroke-width:1.0;" width="10" x="94" y="138.7656"/><rect fill="#FFFFFF" height="39.1563" style="stroke:#181818;stroke-width:1.0;" width="10" x="1200" y="169.9219"/><rect fill="#FFFFFF" height="108.625" style="stroke:#181818;stroke-width:1.0;" width="10" x="1200" y="248.2344"/><rect fill="#FFFFFF" height="121.625" style="stroke:#181818;stroke-width:1.0;" width="10" x="1200" y="396.0156"/><rect fill="#FFFFFF" height="149.7813" style="stroke:#181818;stroke-width:1.0;" width="10" x="1200" y="556.7969"/><rect fill="#FFFFFF" height="152.625" style="stroke:#181818;stroke-width:1.0;" width="10" x="1200" y="790.0469"/><polygon fill="#181818" points="1188,165.9219,1198,169.9219,1188,173.9219,1192,169.9219" style="stroke:#181818;stroke-width:1.0;"/><line style="stroke:#181818;stroke-width:1.0;" x1="104" x2="1194" y1="169.9219" y2="169.9219"/><text fill="#000000" font-family="sans-serif" font-size="20" font-weight="bold" lengthAdjust="spacing" textLength="11" x="111" y="163.5273">1</text><text fill="#000000" font-family="sans-serif" font-size="20" lengthAdjust="spacing" textLength="266" x="126" y="163.5273">asks for a deal analysis report</text><polygon fill="#181818" points="115,205.0781,105,209.0781,115,213.0781,111,209.0781" style="stroke:#181818;stroke-width:1.0;"/><line style="stroke:#181818;stroke-width:1.0;stroke-dasharray:2.0,2.0;" x1="109" x2="1204" y1="209.0781" y2="209.0781"/><text fill="#000000" font-family="sans-serif" font-size="20" font-weight="bold" lengthAdjust="spacing" textLength="11" x="121" y="202.6836">2</text><text fill="#000000" font-family="sans-serif" font-size="20" lengthAdjust="spacing" textLength="526" x="136" y="202.6836">asks to select the type of regression to use (simple or multi)</text><polygon fill="#181818" points="1188,244.2344,1198,248.2344,1188,252.2344,1192,248.2344" style="stroke:#181818;stroke-width:1.0;"/><line style="stroke:#181818;stroke-width:1.0;" x1="104" x2="1194" y1="248.2344" y2="248.2344"/><text fill="#000000" font-family="sans-serif" font-size="20" font-weight="bold" lengthAdjust="spacing" textLength="11" x="111" y="241.8398">3</text><text fill="#000000" font-family="sans-serif" font-size="20" lengthAdjust="spacing" textLength="260" x="126" y="241.8398">selects the type of regression</text><path d="M20,263.2344 L96,263.2344 L96,280.3906 L86,290.3906 L20,290.3906 L20,263.2344 " fill="#EEEEEE" style="stroke:#000000;stroke-width:1.5;"/><rect fill="none" height="140.7813" style="stroke:#000000;stroke-width:1.5;" width="1238" x="20" y="263.2344"/><text fill="#000000" font-family="sans-serif" font-size="20" font-weight="bold" lengthAdjust="spacing" textLength="31" x="35" y="284.9961">opt</text><text fill="#000000" font-family="sans-serif" font-size="20" font-weight="bold" lengthAdjust="spacing" textLength="405" x="111" y="285.9961">[type of regression equals to simple linear]</text><polygon fill="#181818" points="115,352.8594,105,356.8594,115,360.8594,111,356.8594" style="stroke:#181818;stroke-width:1.0;"/><line style="stroke:#181818;stroke-width:1.0;stroke-dasharray:2.0,2.0;" x1="109" x2="1204" y1="356.8594" y2="356.8594"/><text fill="#000000" font-family="sans-serif" font-size="20" font-weight="bold" lengthAdjust="spacing" textLength="11" x="121" y="337.8867">4</text><text fill="#000000" font-family="sans-serif" font-size="20" lengthAdjust="spacing" textLength="1046" x="136" y="325.3086">asks to select only one parameter [property area (in square feet), the distance from the center (in miles), the number of</text><text fill="#000000" font-family="sans-serif" font-size="20" lengthAdjust="spacing" textLength="616" x="142" y="350.4648">bedrooms, the number of bathrooms or the number of parking spaces]</text><polygon fill="#181818" points="1188,392.0156,1198,396.0156,1188,400.0156,1192,396.0156" style="stroke:#181818;stroke-width:1.0;"/><line style="stroke:#181818;stroke-width:1.0;" x1="104" x2="1194" y1="396.0156" y2="396.0156"/><text fill="#000000" font-family="sans-serif" font-size="20" font-weight="bold" lengthAdjust="spacing" textLength="11" x="111" y="389.6211">5</text><text fill="#000000" font-family="sans-serif" font-size="20" lengthAdjust="spacing" textLength="263" x="126" y="389.6211">selects one of the parameters</text><polygon fill="#181818" points="115,513.6406,105,517.6406,115,521.6406,111,517.6406" style="stroke:#181818;stroke-width:1.0;"/><line style="stroke:#181818;stroke-width:1.0;stroke-dasharray:2.0,2.0;" x1="109" x2="1204" y1="517.6406" y2="517.6406"/><text fill="#000000" font-family="sans-serif" font-size="20" font-weight="bold" lengthAdjust="spacing" textLength="11" x="121" y="473.5117">6</text><text fill="#000000" font-family="sans-serif" font-size="20" lengthAdjust="spacing" textLength="1051" x="136" y="435.7773">shows the report for the chosen property [property values/prices (sale prices and forecast prices), the regression model</text><text fill="#000000" font-family="sans-serif" font-size="20" lengthAdjust="spacing" textLength="1025" x="142" y="460.9336">used to estimate each value, R(SLR), R2 and R2 adjusted for SLR or MLR, confidence intervals and hypothesis tests</text><text fill="#000000" font-family="sans-serif" font-size="20" lengthAdjust="spacing" textLength="1027" x="142" y="486.0898">for regression coefficients and significance model with Anova] and asks if the manager wants to get a prediction price</text><text fill="#000000" font-family="sans-serif" font-size="20" lengthAdjust="spacing" textLength="121" x="142" y="511.2461">for a property</text><polygon fill="#181818" points="1188,552.7969,1198,556.7969,1188,560.7969,1192,556.7969" style="stroke:#181818;stroke-width:1.0;"/><line style="stroke:#181818;stroke-width:1.0;" x1="104" x2="1194" y1="556.7969" y2="556.7969"/><text fill="#000000" font-family="sans-serif" font-size="20" font-weight="bold" lengthAdjust="spacing" textLength="11" x="111" y="550.4023">7</text><text fill="#000000" font-family="sans-serif" font-size="20" lengthAdjust="spacing" textLength="356" x="126" y="550.4023">says if he wants to get a prediction price</text><path d="M10,571.7969 L78,571.7969 L78,588.9531 L68,598.9531 L10,598.9531 L10,571.7969 " fill="#EEEEEE" style="stroke:#000000;stroke-width:1.5;"/><rect fill="none" height="363.875" style="stroke:#000000;stroke-width:1.5;" width="1258" x="10" y="571.7969"/><text fill="#000000" font-family="sans-serif" font-size="20" font-weight="bold" lengthAdjust="spacing" textLength="23" x="25" y="593.5586">alt</text><text fill="#000000" font-family="sans-serif" font-size="20" font-weight="bold" lengthAdjust="spacing" textLength="146" x="93" y="594.5586">[if option is No]</text><polygon fill="#181818" points="115,636.2656,105,640.2656,115,644.2656,111,640.2656" style="stroke:#181818;stroke-width:1.0;"/><line style="stroke:#181818;stroke-width:1.0;stroke-dasharray:2.0,2.0;" x1="109" x2="1199" y1="640.2656" y2="640.2656"/><text fill="#000000" font-family="sans-serif" font-size="20" font-weight="bold" lengthAdjust="spacing" textLength="11" x="121" y="633.8711">8</text><text fill="#000000" font-family="sans-serif" font-size="20" lengthAdjust="spacing" textLength="236" x="136" y="633.8711">displays operation success</text><line style="stroke:#000000;stroke-width:1.0;stroke-dasharray:2.0,2.0;" x1="10" x2="1268" y1="649.2656" y2="649.2656"/><text fill="#000000" font-family="sans-serif" font-size="20" font-weight="bold" lengthAdjust="spacing" textLength="155" x="15" y="670.0273">[if option is Yes]</text><polygon fill="#181818" points="115,702.5781,105,706.5781,115,710.5781,111,706.5781" style="stroke:#181818;stroke-width:1.0;"/><line style="stroke:#181818;stroke-width:1.0;stroke-dasharray:2.0,2.0;" x1="109" x2="1204" y1="706.5781" y2="706.5781"/><text fill="#000000" font-family="sans-serif" font-size="20" font-weight="bold" lengthAdjust="spacing" textLength="11" x="121" y="700.1836">9</text><text fill="#000000" font-family="sans-serif" font-size="20" lengthAdjust="spacing" textLength="173" x="136" y="700.1836">requests parameter</text><path d="M20,721.5781 L88,721.5781 L88,738.7344 L78,748.7344 L20,748.7344 L20,721.5781 " fill="#EEEEEE" style="stroke:#000000;stroke-width:1.5;"/><rect fill="none" height="167.9375" style="stroke:#000000;stroke-width:1.5;" width="1238" x="20" y="721.5781"/><text fill="#000000" font-family="sans-serif" font-size="20" font-weight="bold" lengthAdjust="spacing" textLength="23" x="35" y="743.3398">alt</text><text fill="#000000" font-family="sans-serif" font-size="20" font-weight="bold" lengthAdjust="spacing" textLength="423" x="103" y="744.3398">[if type of regression equals to simple linear]</text><polygon fill="#181818" points="1188,786.0469,1198,790.0469,1188,794.0469,1192,790.0469" style="stroke:#181818;stroke-width:1.0;"/><line style="stroke:#181818;stroke-width:1.0;" x1="104" x2="1194" y1="790.0469" y2="790.0469"/><text fill="#000000" font-family="sans-serif" font-size="20" font-weight="bold" lengthAdjust="spacing" textLength="22" x="111" y="783.6523">10</text><text fill="#000000" font-family="sans-serif" font-size="20" lengthAdjust="spacing" textLength="242" x="137" y="783.6523">inputs requested parameter</text><line style="stroke:#000000;stroke-width:1.0;stroke-dasharray:2.0,2.0;" x1="20" x2="1258" y1="799.0469" y2="799.0469"/><text fill="#000000" font-family="sans-serif" font-size="20" font-weight="bold" lengthAdjust="spacing" textLength="423" x="25" y="819.8086">[if type of regression equals to simple linear]</text><polygon fill="#181818" points="1188,877.5156,1198,881.5156,1188,885.5156,1192,881.5156" style="stroke:#181818;stroke-width:1.0;"/><line style="stroke:#181818;stroke-width:1.0;" x1="104" x2="1194" y1="881.5156" y2="881.5156"/><text fill="#000000" font-family="sans-serif" font-size="20" font-weight="bold" lengthAdjust="spacing" textLength="22" x="111" y="862.543">11</text><text fill="#000000" font-family="sans-serif" font-size="20" lengthAdjust="spacing" textLength="1000" x="137" y="849.9648">inputs requested parameters [property area (in square feet), the distance from the center (in miles), the number of</text><text fill="#000000" font-family="sans-serif" font-size="20" lengthAdjust="spacing" textLength="616" x="143" y="875.1211">bedrooms, the number of bathrooms or the number of parking spaces]</text><polygon fill="#181818" points="115,923.6719,105,927.6719,115,931.6719,111,927.6719" style="stroke:#181818;stroke-width:1.0;"/><line style="stroke:#181818;stroke-width:1.0;stroke-dasharray:2.0,2.0;" x1="109" x2="1199" y1="927.6719" y2="927.6719"/><text fill="#000000" font-family="sans-serif" font-size="20" font-weight="bold" lengthAdjust="spacing" textLength="22" x="121" y="921.2773">12</text><text fill="#000000" font-family="sans-serif" font-size="20" lengthAdjust="spacing" textLength="162" x="147" y="921.2773">displays prediction</text><!--SRC=[rLKzRzj03DtrAuXC3f2WRQOYGu42GQUaWuKEHPk1aIZfwjETUZpPK7zzoPEis8cS5DdgmHywyl7nyV7C6-Cw3DXQNsoeX98gx6tyubtCpH-2g_SPxqEWzSuNJV0jGGmz7PnqM6omfZmEbY1G4T7LzZ206opzphWQAhHCMHPDbD1l-OUFS0dvm95QoEbtJwuWk35OQzOgps_Eimpxw5tVFb2GxqNq0SvoUIUuGoTLmnaWGpj-pwHUD8Nfq4KuknwHKm0FdDBD5YFDuHd8Q_e1bvyq2gubVCDGII4KHT22dDk13KjldGyn9SrG2HYcb-PV2iuUSiAA7fYi20En4VM6Zi1NWbO7OZRUQK3F12isRIV2IEbMvc3E4x1mU5Ri6USHdqyKE47PTt69ZGn2nfHOZtoiSOHXxlBVs_NE3l96a7n0KM9-TC5t5E8060XXPHomr9DvLaJn_29rK1eM4uaNAl5RUbAGqsmDRuqbdW97OoZ_dmuUg0pUj_pqw05ZamvKsECZuRLHNx9ucFX-xcn9ynTrroO5Jz7dNdbEEmBJ1-JAR5b1Rlnk7EFejcJ4f43ZcHpCyZqAkKNR4x_hWf4Un4Ge8vj-e2iLW0haE3sRb3kOT-jBiYgWUB3KwH57qofTKQ4PuIzWlSflrvAylage-b7-wcN1KWMGGvNtxdPz0OLtbIdJCXiTsrRjf4dDq7afhhiKfGXBJSqzu59ugYhPO1dtcCAcTaQU93kCJ7ScDl3P-ItUfv1aEZEAlnToXmeWlTGKPO-xGAMH8NWtgZ0LnbdEfKrR7ZWEgPZKUgL6jZXvj57JPVKqK8JuwbzQADc4pcf9fOafX_j2nZZvIAxJOxZln2US5VI25T4V3Nf8w0ttm0d9JkwA_1tqaVSyn3V7H1QNvQZBDt9y2oF-3owg_INoYdCUVPbfnjEhxIy0]--></g></svg>