<?xml version="1.0" encoding="UTF-8" standalone="no"?><svg xmlns="http://www.w3.org/2000/svg" xmlns:xlink="http://www.w3.org/1999/xlink" contentStyleType="text/css" height="377px" preserveAspectRatio="none" style="width:814px;height:377px;background:#FFFFFF;" version="1.1" viewBox="0 0 814 377" width="814px" zoomAndPan="magnify"><defs/><g><rect fill="none" height="27.6094" id="_title" style="stroke:none;stroke-width:1.0;" width="286" x="263.25" y="10"/><text fill="#000000" font-family="sans-serif" font-size="14" font-weight="bold" lengthAdjust="spacing" textLength="276" x="268.25" y="29.5332">US18 - System Sequence Diagram (SSD)</text><rect fill="#FFFFFF" height="155.1094" style="stroke:#181818;stroke-width:1.0;" width="10" x="50" y="131.2188"/><rect fill="#FFFFFF" height="30.3516" style="stroke:#181818;stroke-width:1.0;" width="10" x="784" y="153.5703"/><rect fill="#FFFFFF" height="63.0547" style="stroke:#181818;stroke-width:1.0;" width="10" x="784" y="214.2734"/><line style="stroke:#181818;stroke-width:0.5;stroke-dasharray:5.0,5.0;" x1="55" x2="55" y1="121.2188" y2="295.3281"/><line style="stroke:#181818;stroke-width:0.5;stroke-dasharray:5.0,5.0;" x1="788.5" x2="788.5" y1="121.2188" y2="295.3281"/><text fill="#000000" font-family="sans-serif" font-size="14" lengthAdjust="spacing" textLength="94" x="5" y="118.1426">Store Manager</text><ellipse cx="55" cy="52.1094" fill="#E3E3E3" rx="8" ry="8" style="stroke:#181818;stroke-width:0.5;"/><path d="M55,60.1094 L55,87.1094 M42,68.1094 L68,68.1094 M55,87.1094 L42,102.1094 M55,87.1094 L68,102.1094 " fill="none" style="stroke:#181818;stroke-width:0.5;"/><text fill="#000000" font-family="sans-serif" font-size="14" lengthAdjust="spacing" textLength="94" x="5" y="308.8613">Store Manager</text><ellipse cx="55" cy="320.4375" fill="#E3E3E3" rx="8" ry="8" style="stroke:#181818;stroke-width:0.5;"/><path d="M55,328.4375 L55,355.4375 M42,336.4375 L68,336.4375 M55,355.4375 L42,370.4375 M55,355.4375 L68,370.4375 " fill="none" style="stroke:#181818;stroke-width:0.5;"/><rect fill="#E3E3E3" height="31.6094" rx="2.5" ry="2.5" style="stroke:#181818;stroke-width:0.5;" width="39" x="769.5" y="88.6094"/><text fill="#000000" font-family="sans-serif" font-size="14" lengthAdjust="spacing" textLength="25" x="776.5" y="110.1426">:sys</text><rect fill="#E3E3E3" height="31.6094" rx="2.5" ry="2.5" style="stroke:#181818;stroke-width:0.5;" width="39" x="769.5" y="294.3281"/><text fill="#000000" font-family="sans-serif" font-size="14" lengthAdjust="spacing" textLength="25" x="776.5" y="315.8613">:sys</text><rect fill="#FFFFFF" height="155.1094" style="stroke:#181818;stroke-width:1.0;" width="10" x="50" y="131.2188"/><rect fill="#FFFFFF" height="30.3516" style="stroke:#181818;stroke-width:1.0;" width="10" x="784" y="153.5703"/><rect fill="#FFFFFF" height="63.0547" style="stroke:#181818;stroke-width:1.0;" width="10" x="784" y="214.2734"/><polygon fill="#181818" points="772,149.5703,782,153.5703,772,157.5703,776,153.5703" style="stroke:#181818;stroke-width:1.0;"/><line style="stroke:#181818;stroke-width:1.0;" x1="60" x2="778" y1="153.5703" y2="153.5703"/><text fill="#000000" font-family="sans-serif" font-size="13" font-weight="bold" lengthAdjust="spacing" textLength="7" x="67" y="148.7139">1</text><text fill="#000000" font-family="sans-serif" font-size="13" lengthAdjust="spacing" textLength="232" x="78" y="148.7139">asks for a list of houses and apartments</text><polygon fill="#181818" points="71,179.9219,61,183.9219,71,187.9219,67,183.9219" style="stroke:#181818;stroke-width:1.0;"/><line style="stroke:#181818;stroke-width:1.0;stroke-dasharray:2.0,2.0;" x1="65" x2="788" y1="183.9219" y2="183.9219"/><text fill="#000000" font-family="sans-serif" font-size="13" font-weight="bold" lengthAdjust="spacing" textLength="7" x="77" y="179.0654">2</text><text fill="#000000" font-family="sans-serif" font-size="13" lengthAdjust="spacing" textLength="348" x="88" y="179.0654">shows list of houses and apartments and asks to select one</text><polygon fill="#181818" points="772,210.2734,782,214.2734,772,218.2734,776,214.2734" style="stroke:#181818;stroke-width:1.0;"/><line style="stroke:#181818;stroke-width:1.0;" x1="60" x2="778" y1="214.2734" y2="214.2734"/><text fill="#000000" font-family="sans-serif" font-size="13" font-weight="bold" lengthAdjust="spacing" textLength="7" x="67" y="209.417">3</text><text fill="#000000" font-family="sans-serif" font-size="13" lengthAdjust="spacing" textLength="115" x="78" y="209.417">selects the property</text><polygon fill="#181818" points="71,273.3281,61,277.3281,71,281.3281,67,277.3281" style="stroke:#181818;stroke-width:1.0;"/><line style="stroke:#181818;stroke-width:1.0;stroke-dasharray:2.0,2.0;" x1="65" x2="788" y1="277.3281" y2="277.3281"/><text fill="#000000" font-family="sans-serif" font-size="13" font-weight="bold" lengthAdjust="spacing" textLength="7" x="77" y="256.1201">4</text><text fill="#000000" font-family="sans-serif" font-size="13" lengthAdjust="spacing" textLength="685" x="88" y="239.7686">shows the report for the chosen property [property values/prices (sale prices and forecast prices), the regression model</text><text fill="#000000" font-family="sans-serif" font-size="13" lengthAdjust="spacing" textLength="558" x="92" y="256.1201">used to estimate each value, R(SLR), R2 and R2 adjusted for SLR and MLR, confidence intervals</text><text fill="#000000" font-family="sans-serif" font-size="13" lengthAdjust="spacing" textLength="478" x="92" y="272.4717">and hypothesis tests for regression coefficients and significance model with Anova]</text><!--MD5=[207d5b892a4e50403ab7b8b90b3f3f2b]
@startuml
skinparam monochrome true
skinparam packageStyle rectangle
skinparam shadowing false

title US18 - System Sequence Diagram (SSD)

autonumber

actor "Store Manager" as manager
participant ":sys" as sys

activate manager

    manager -> sys : asks for a list of houses and apartments 
    activate sys

        sys - -> manager : shows list of houses and apartments and asks to select one
    deactivate sys

    manager -> sys : selects the property
    activate sys

        sys - -> manager : shows the report for the chosen property [property values/prices (sale prices and forecast prices), the regression model \n used to estimate each value, R(SLR), R2 and R2 adjusted for SLR and MLR, confidence intervals \n and hypothesis tests for regression coefficients and significance model with Anova]
        deactivate sys

@enduml

PlantUML version 1.2022.7(Mon Aug 22 18:01:30 WEST 2022)
(GPL source distribution)
Java Runtime: OpenJDK Runtime Environment
JVM: OpenJDK 64-Bit Server VM
Default Encoding: Cp1252
Language: pt
Country: PT
--></g></svg>