<?xml version="1.0" encoding="UTF-8" standalone="no"?><svg xmlns="http://www.w3.org/2000/svg" xmlns:xlink="http://www.w3.org/1999/xlink" contentStyleType="text/css" height="1697px" preserveAspectRatio="none" style="width:1500px;height:1697px;background:#FFFFFF;" version="1.1" viewBox="0 0 1500 1697" width="1500px" zoomAndPan="magnify"><defs/><g><text fill="#000000" font-family="sans-serif" font-size="14" font-weight="bold" lengthAdjust="spacing" textLength="156" x="665" y="24.5332">US002 - Domain Model</text><!--class Address--><g id="elem_Address"><rect codeLine="14" fill="#F1F1F1" height="93.4688" id="Address" rx="2.5" ry="2.5" style="stroke:#181818;stroke-width:0.5;" width="92" x="144.5" y="1339.6094"/><text fill="#000000" font-family="sans-serif" font-size="20" lengthAdjust="spacing" textLength="73" x="154" y="1365.3711">Address</text><line style="stroke:#181818;stroke-width:0.5;" x1="145.5" x2="235.5" y1="1374.7656" y2="1374.7656"/><text fill="#000000" font-family="sans-serif" font-size="20" lengthAdjust="spacing" textLength="54" x="150.5" y="1399.5273">Street</text><text fill="#000000" font-family="sans-serif" font-size="20" lengthAdjust="spacing" textLength="80" x="150.5" y="1424.6836">Zip Code</text></g><!--class City--><g id="elem_City"><rect codeLine="19" fill="#F1F1F1" height="68.3125" id="City" rx="2.5" ry="2.5" style="stroke:#181818;stroke-width:0.5;" width="100" x="17.5" y="504.6094"/><text fill="#000000" font-family="sans-serif" font-size="20" lengthAdjust="spacing" textLength="34" x="50.5" y="530.3711">City</text><line style="stroke:#181818;stroke-width:0.5;" x1="18.5" x2="116.5" y1="539.7656" y2="539.7656"/><text fill="#000000" font-family="sans-serif" font-size="20" lengthAdjust="spacing" textLength="88" x="23.5" y="564.5273">City name</text></g><!--class District--><g id="elem_District"><rect codeLine="23" fill="#F1F1F1" height="68.3125" id="District" rx="2.5" ry="2.5" style="stroke:#181818;stroke-width:0.5;" width="127" x="7" y="762.6094"/><text fill="#000000" font-family="sans-serif" font-size="20" lengthAdjust="spacing" textLength="61" x="40" y="788.3711">District</text><line style="stroke:#181818;stroke-width:0.5;" x1="8" x2="133" y1="797.7656" y2="797.7656"/><text fill="#000000" font-family="sans-serif" font-size="20" lengthAdjust="spacing" textLength="115" x="13" y="822.5273">District name</text></g><!--class State--><g id="elem_State"><rect codeLine="27" fill="#F1F1F1" height="68.3125" id="State" rx="2.5" ry="2.5" style="stroke:#181818;stroke-width:0.5;" width="113" x="22" y="1005.1094"/><text fill="#000000" font-family="sans-serif" font-size="20" lengthAdjust="spacing" textLength="47" x="55" y="1030.8711">State</text><line style="stroke:#181818;stroke-width:0.5;" x1="23" x2="134" y1="1040.2656" y2="1040.2656"/><text fill="#000000" font-family="sans-serif" font-size="20" lengthAdjust="spacing" textLength="101" x="28" y="1065.0273">State name</text></g><!--class Contacts--><g id="elem_Contacts"><rect codeLine="36" fill="#F1F1F1" height="93.4688" id="Contacts" rx="2.5" ry="2.5" style="stroke:#181818;stroke-width:0.5;" width="141" x="1352" y="262.6094"/><text fill="#000000" font-family="sans-serif" font-size="20" lengthAdjust="spacing" textLength="78" x="1383.5" y="288.3711">Contacts</text><line style="stroke:#181818;stroke-width:0.5;" x1="1353" x2="1492" y1="297.7656" y2="297.7656"/><text fill="#000000" font-family="sans-serif" font-size="20" lengthAdjust="spacing" textLength="129" x="1358" y="322.5273">Phone Number</text><text fill="#000000" font-family="sans-serif" font-size="20" lengthAdjust="spacing" textLength="116" x="1358" y="347.6836">Email Adress</text></g><!--class Business--><g id="elem_Business"><rect codeLine="41" fill="#F1F1F1" height="68.3125" id="Business" rx="2.5" ry="2.5" style="stroke:#181818;stroke-width:0.5;" width="156" x="884.5" y="1352.1094"/><text fill="#000000" font-family="sans-serif" font-size="20" lengthAdjust="spacing" textLength="78" x="923.5" y="1377.8711">Business</text><line style="stroke:#181818;stroke-width:0.5;" x1="885.5" x2="1039.5" y1="1387.2656" y2="1387.2656"/><text fill="#000000" font-family="sans-serif" font-size="20" lengthAdjust="spacing" textLength="144" x="890.5" y="1412.0273">Requested price</text></g><!--class Store--><g id="elem_Store"><rect codeLine="45" fill="#F1F1F1" height="93.4688" id="Store" rx="2.5" ry="2.5" style="stroke:#181818;stroke-width:0.5;" width="114" x="796.5" y="262.6094"/><text fill="#000000" font-family="sans-serif" font-size="20" lengthAdjust="spacing" textLength="48" x="829.5" y="288.3711">Store</text><line style="stroke:#181818;stroke-width:0.5;" x1="797.5" x2="909.5" y1="297.7656" y2="297.7656"/><text fill="#000000" font-family="sans-serif" font-size="20" lengthAdjust="spacing" textLength="20" x="802.5" y="322.5273">ID</text><text fill="#000000" font-family="sans-serif" font-size="20" lengthAdjust="spacing" textLength="102" x="802.5" y="347.6836">Designation</text></g><!--class User--><g id="elem_User"><rect codeLine="50" fill="#F1F1F1" height="68.3125" id="User" rx="2.5" ry="2.5" style="stroke:#181818;stroke-width:0.5;" width="100" x="803.5" y="45.6094"/><text fill="#000000" font-family="sans-serif" font-size="20" lengthAdjust="spacing" textLength="41" x="833" y="71.3711">User</text><line style="stroke:#181818;stroke-width:0.5;" x1="804.5" x2="902.5" y1="80.7656" y2="80.7656"/><text fill="#000000" font-family="sans-serif" font-size="20" lengthAdjust="spacing" textLength="88" x="809.5" y="105.5273">Password</text></g><!--class Agent--><g id="elem_Agent"><rect fill="#F1F1F1" height="43.1563" id="Agent" rx="2.5" ry="2.5" style="stroke:#181818;stroke-width:0.5;" width="57" x="825" y="517.1094"/><text fill="#000000" font-family="sans-serif" font-size="20" lengthAdjust="spacing" textLength="51" x="828" y="542.8711">Agent</text><line style="stroke:#181818;stroke-width:0.5;" x1="826" x2="881" y1="552.2656" y2="552.2656"/></g><!--class Residence--><g id="elem_Residence"><rect codeLine="61" fill="#F1F1F1" height="118.625" id="Residence" rx="2.5" ry="2.5" style="stroke:#181818;stroke-width:0.5;" width="247" x="367" y="1159.6094"/><text fill="#000000" font-family="sans-serif" font-size="20" lengthAdjust="spacing" textLength="92" x="444.5" y="1185.3711">Residence</text><line style="stroke:#181818;stroke-width:0.5;" x1="368" x2="613" y1="1194.7656" y2="1194.7656"/><text fill="#000000" font-family="sans-serif" font-size="20" lengthAdjust="spacing" textLength="187" x="373" y="1219.5273">Number of Bedrooms</text><text fill="#000000" font-family="sans-serif" font-size="20" lengthAdjust="spacing" textLength="192" x="373" y="1244.6836">Number of Bathrooms</text><text fill="#000000" font-family="sans-serif" font-size="20" lengthAdjust="spacing" textLength="235" x="373" y="1269.8398">Number of Parking Spaces</text></g><!--class Property--><g id="elem_Property"><rect codeLine="67" fill="#F1F1F1" height="118.625" id="Property" rx="2.5" ry="2.5" style="stroke:#181818;stroke-width:0.5;" width="264" x="406.5" y="979.6094"/><text fill="#000000" font-family="sans-serif" font-size="20" lengthAdjust="spacing" textLength="76" x="500.5" y="1005.3711">Property</text><line style="stroke:#181818;stroke-width:0.5;" x1="407.5" x2="669.5" y1="1014.7656" y2="1014.7656"/><text fill="#000000" font-family="sans-serif" font-size="20" lengthAdjust="spacing" textLength="42" x="412.5" y="1039.5273">Area</text><text fill="#000000" font-family="sans-serif" font-size="20" lengthAdjust="spacing" textLength="61" x="412.5" y="1064.6836">Photos</text><text fill="#000000" font-family="sans-serif" font-size="20" lengthAdjust="spacing" textLength="252" x="412.5" y="1089.8398">Distance from the city center</text></g><!--class TypeOfProperty--><g id="elem_TypeOfProperty"><rect codeLine="73" fill="#F1F1F1" height="68.3125" id="TypeOfProperty" rx="2.5" ry="2.5" style="stroke:#181818;stroke-width:0.5;" width="148" x="342.5" y="762.6094"/><text fill="#000000" font-family="sans-serif" font-size="20" lengthAdjust="spacing" textLength="142" x="345.5" y="788.3711">TypeOfProperty</text><line style="stroke:#181818;stroke-width:0.5;" x1="343.5" x2="489.5" y1="797.7656" y2="797.7656"/><text fill="#000000" font-family="sans-serif" font-size="20" lengthAdjust="spacing" textLength="44" x="348.5" y="822.5273">Type</text></g><!--class Photos--><g id="elem_Photos"><rect codeLine="77" fill="#F1F1F1" height="68.3125" id="Photos" rx="2.5" ry="2.5" style="stroke:#181818;stroke-width:0.5;" width="67" x="252" y="1005.1094"/><text fill="#000000" font-family="sans-serif" font-size="20" lengthAdjust="spacing" textLength="61" x="255" y="1030.8711">Photos</text><line style="stroke:#181818;stroke-width:0.5;" x1="253" x2="318" y1="1040.2656" y2="1040.2656"/><text fill="#000000" font-family="sans-serif" font-size="20" lengthAdjust="spacing" textLength="33" x="258" y="1065.0273">URI</text></g><!--class House--><g id="elem_House"><rect codeLine="81" fill="#F1F1F1" height="93.4688" id="House" rx="2.5" ry="2.5" style="stroke:#181818;stroke-width:0.5;" width="140" x="340.5" y="1339.6094"/><text fill="#000000" font-family="sans-serif" font-size="20" lengthAdjust="spacing" textLength="55" x="383" y="1365.3711">House</text><line style="stroke:#181818;stroke-width:0.5;" x1="341.5" x2="479.5" y1="1374.7656" y2="1374.7656"/><text fill="#000000" font-family="sans-serif" font-size="20" lengthAdjust="spacing" textLength="88" x="346.5" y="1399.5273">Basement</text><text fill="#000000" font-family="sans-serif" font-size="20" lengthAdjust="spacing" textLength="128" x="346.5" y="1424.6836">Inhabitable loft</text></g><!--class SunExposure--><g id="elem_SunExposure"><rect codeLine="86" fill="#F1F1F1" height="68.3125" id="SunExposure" rx="2.5" ry="2.5" style="stroke:#181818;stroke-width:0.5;" width="121" x="324" y="1622.6094"/><text fill="#000000" font-family="sans-serif" font-size="20" lengthAdjust="spacing" textLength="115" x="327" y="1648.3711">SunExposure</text><line style="stroke:#181818;stroke-width:0.5;" x1="325" x2="444" y1="1657.7656" y2="1657.7656"/><text fill="#000000" font-family="sans-serif" font-size="20" lengthAdjust="spacing" textLength="77" x="330" y="1682.5273">Direction</text></g><!--class AvailableEquipment--><g id="elem_AvailableEquipment"><rect codeLine="90" fill="#F1F1F1" height="68.3125" id="AvailableEquipment" rx="2.5" ry="2.5" style="stroke:#181818;stroke-width:0.5;" width="176" x="513.5" y="1493.6094"/><text fill="#000000" font-family="sans-serif" font-size="20" lengthAdjust="spacing" textLength="170" x="516.5" y="1519.3711">AvailableEquipment</text><line style="stroke:#181818;stroke-width:0.5;" x1="514.5" x2="688.5" y1="1528.7656" y2="1528.7656"/><text fill="#000000" font-family="sans-serif" font-size="20" lengthAdjust="spacing" textLength="92" x="519.5" y="1553.5273">Equipment</text></g><!--class Comission--><g id="elem_Comission"><rect codeLine="104" fill="#F1F1F1" height="68.3125" id="Comission" rx="2.5" ry="2.5" style="stroke:#181818;stroke-width:0.5;" width="96" x="1001.5" y="504.6094"/><text fill="#000000" font-family="sans-serif" font-size="20" lengthAdjust="spacing" textLength="90" x="1004.5" y="530.3711">Comission</text><line style="stroke:#181818;stroke-width:0.5;" x1="1002.5" x2="1096.5" y1="539.7656" y2="539.7656"/><text fill="#000000" font-family="sans-serif" font-size="20" lengthAdjust="spacing" textLength="49" x="1007.5" y="564.5273">Value</text></g><!--class ComissionPercentage--><g id="elem_ComissionPercentage"><rect codeLine="108" fill="#F1F1F1" height="68.3125" id="ComissionPercentage" rx="2.5" ry="2.5" style="stroke:#181818;stroke-width:0.5;" width="197" x="929" y="633.6094"/><text fill="#000000" font-family="sans-serif" font-size="20" lengthAdjust="spacing" textLength="191" x="932" y="659.3711">ComissionPercentage</text><line style="stroke:#181818;stroke-width:0.5;" x1="930" x2="1125" y1="668.7656" y2="668.7656"/><text fill="#000000" font-family="sans-serif" font-size="20" lengthAdjust="spacing" textLength="152" x="935" y="693.5273">Percentage value</text></g><!--class Rent--><g id="elem_Rent"><rect codeLine="112" fill="#F1F1F1" height="68.3125" id="Rent" rx="2.5" ry="2.5" style="stroke:#181818;stroke-width:0.5;" width="185" x="870" y="1622.6094"/><text fill="#000000" font-family="sans-serif" font-size="20" lengthAdjust="spacing" textLength="41" x="942" y="1648.3711">Rent</text><line style="stroke:#181818;stroke-width:0.5;" x1="871" x2="1054" y1="1657.7656" y2="1657.7656"/><text fill="#000000" font-family="sans-serif" font-size="20" lengthAdjust="spacing" textLength="173" x="876" y="1682.5273">Duration of contract</text></g><!--class AnnouncementRequest--><g id="elem_AnnouncementRequest"><rect codeLine="116" fill="#F1F1F1" height="68.3125" id="AnnouncementRequest" rx="2.5" ry="2.5" style="stroke:#181818;stroke-width:0.5;" width="207" x="630" y="762.6094"/><text fill="#000000" font-family="sans-serif" font-size="20" lengthAdjust="spacing" textLength="201" x="633" y="788.3711">AnnouncementRequest</text><line style="stroke:#181818;stroke-width:0.5;" x1="631" x2="836" y1="797.7656" y2="797.7656"/><text fill="#000000" font-family="sans-serif" font-size="20" lengthAdjust="spacing" textLength="90" x="636" y="822.5273">Initial date</text></g><!--class PublishedAnnouncement--><g id="elem_PublishedAnnouncement"><rect codeLine="120" fill="#F1F1F1" height="68.3125" id="PublishedAnnouncement" rx="2.5" ry="2.5" style="stroke:#181818;stroke-width:0.5;" width="218" x="853.5" y="1005.1094"/><text fill="#000000" font-family="sans-serif" font-size="20" lengthAdjust="spacing" textLength="212" x="856.5" y="1030.8711">PublishedAnnouncement</text><line style="stroke:#181818;stroke-width:0.5;" x1="854.5" x2="1070.5" y1="1040.2656" y2="1040.2656"/><text fill="#000000" font-family="sans-serif" font-size="20" lengthAdjust="spacing" textLength="119" x="859.5" y="1065.0273">Contract type</text></g><!--link District to State--><g id="link_District_State"><path codeLine="31" d="M71.6,830.7994 C73.13,876.6694 75.87,958.9794 77.39,1004.8794 " fill="none" id="District-State" style="stroke:#181818;stroke-width:1.0;"/><polygon fill="#000000" points="82.2341,897.1919,78.0155,911.8124,87.4148,911.4997,82.2341,897.1919" style="stroke:#000000;stroke-width:1.0;"/><text fill="#000000" font-family="sans-serif" font-size="20" lengthAdjust="spacing" textLength="31" x="95.5" y="913.3711">has</text><text fill="#000000" font-family="sans-serif" font-size="20" lengthAdjust="spacing" textLength="8" x="63.1016" y="859.5725">*</text><text fill="#000000" font-family="sans-serif" font-size="20" lengthAdjust="spacing" textLength="11" x="65.2539" y="992.5959">1</text></g><!--link City to District--><g id="link_City_District"><path codeLine="32" d="M67.89,572.8194 C68.46,621.9194 69.54,713.3894 70.11,762.4594 " fill="none" id="City-District" style="stroke:#181818;stroke-width:1.0;"/><polygon fill="#000000" points="77.4064,659.688,72.8738,674.2142,82.2777,674.1041,77.4064,659.688" style="stroke:#000000;stroke-width:1.0;"/><text fill="#000000" font-family="sans-serif" font-size="20" lengthAdjust="spacing" textLength="31" x="90.5" y="675.8711">has</text><text fill="#000000" font-family="sans-serif" font-size="20" lengthAdjust="spacing" textLength="8" x="59.2695" y="601.5959">*</text><text fill="#000000" font-family="sans-serif" font-size="20" lengthAdjust="spacing" textLength="11" x="58.0977" y="750.1897">1</text></g><!--link State to Address--><g id="link_State_Address"><path codeLine="33" d="M77.98,1073.4594 C78.37,1120.8394 83.28,1209.5394 111.5,1278.6094 C120.38,1300.3494 134.73,1321.6694 148.77,1339.4594 " fill="none" id="State-Address" style="stroke:#181818;stroke-width:1.0;"/><polygon fill="#000000" points="121.5574,1226.9184,122.3796,1211.7237,113.2914,1214.1424,121.5574,1226.9184" style="stroke:#000000;stroke-width:1.0;"/><text fill="#000000" font-family="sans-serif" font-size="20" lengthAdjust="spacing" textLength="31" x="132.5" y="1227.3711">has</text><text fill="#000000" font-family="sans-serif" font-size="20" lengthAdjust="spacing" textLength="11" x="65.9453" y="1102.26">1</text><text fill="#000000" font-family="sans-serif" font-size="20" lengthAdjust="spacing" textLength="8" x="134.625" y="1327.2518">*</text></g><!--link User to Contacts--><g id="link_User_Contacts"><path codeLine="54" d="M903.77,81.8894 C1010.62,85.4794 1256.16,98.5194 1324.5,143.6094 C1366.68,171.4394 1393.32,224.2094 1408,262.4994 " fill="none" id="User-Contacts" style="stroke:#181818;stroke-width:1.0;"/><polygon fill="#000000" points="1393.0314,190.8852,1380.9926,181.5782,1377.8213,190.4319,1393.0314,190.8852" style="stroke:#000000;stroke-width:1.0;"/><text fill="#000000" font-family="sans-serif" font-size="20" lengthAdjust="spacing" textLength="31" x="1398.5" y="196.3711">has</text><text fill="#000000" font-family="sans-serif" font-size="20" lengthAdjust="spacing" textLength="11" x="911.6127" y="76.2029">1</text><text fill="#000000" font-family="sans-serif" font-size="20" lengthAdjust="spacing" textLength="11" x="1394.3125" y="250.2972">1</text></g><!--link Store to Contacts--><g id="link_Store_Contacts"><path codeLine="55" d="M910.66,309.1094 C1015.36,309.1094 1237.59,309.1094 1351.68,309.1094 " fill="none" id="Store-Contacts" style="stroke:#181818;stroke-width:1.0;"/><polygon fill="#000000" points="1120.75,292.6875,1106.2779,287.9852,1106.2779,297.3898,1120.75,292.6875" style="stroke:#000000;stroke-width:1.0;"/><text fill="#000000" font-family="sans-serif" font-size="20" lengthAdjust="spacing" textLength="31" x="1125.75" y="300.8711">has</text><text fill="#000000" font-family="sans-serif" font-size="20" lengthAdjust="spacing" textLength="11" x="918.6883" y="303.2495">1</text><text fill="#000000" font-family="sans-serif" font-size="20" lengthAdjust="spacing" textLength="11" x="1332.8095" y="303.5659">1</text></g><!--link User to Address--><g id="link_User_Address"><path codeLine="56" d="M803.4,83.3794 C648.94,92.5694 190.5,125.0694 190.5,187.1094 C190.5,187.1094 190.5,187.1094 190.5,1220.1094 C190.5,1260.4994 190.5,1306.4494 190.5,1339.5894 " fill="none" id="User-Address" style="stroke:#181818;stroke-width:1.0;"/><polygon fill="#000000" points="194.9921,674.8774,205.5641,663.9327,197.1119,659.8089,194.9921,674.8774" style="stroke:#000000;stroke-width:1.0;"/><text fill="#000000" font-family="sans-serif" font-size="20" lengthAdjust="spacing" textLength="31" x="211.5" y="675.8711">has</text><text fill="#000000" font-family="sans-serif" font-size="20" lengthAdjust="spacing" textLength="11" x="784.5813" y="77.9025">1</text><text fill="#000000" font-family="sans-serif" font-size="20" lengthAdjust="spacing" textLength="11" x="178.7609" y="1327.3993">1</text></g><!--link User to Store--><g id="link_User_Store"><path codeLine="57" d="M853.5,113.6894 C853.5,152.8794 853.5,218.3894 853.5,262.3994 " fill="none" id="User-Store" style="stroke:#181818;stroke-width:1.0;"/><polygon fill="#000000" points="861.5,196.1875,866.2023,181.7154,856.7977,181.7154,861.5,196.1875" style="stroke:#000000;stroke-width:1.0;"/><text fill="#000000" font-family="sans-serif" font-size="20" lengthAdjust="spacing" textLength="74" x="874.5" y="196.3711">contacts</text><text fill="#000000" font-family="sans-serif" font-size="20" lengthAdjust="spacing" textLength="11" x="841.5203" y="142.7342">1</text><text fill="#000000" font-family="sans-serif" font-size="20" lengthAdjust="spacing" textLength="11" x="841.7609" y="250.1838">1</text></g><!--link Store to Agent--><g id="link_Store_Agent"><path codeLine="58" d="M853.5,355.8694 C853.5,404.9194 853.5,480.5994 853.5,516.8594 " fill="none" id="Store-Agent" style="stroke:#181818;stroke-width:1.0;"/><polygon fill="#000000" points="861.5,438.1875,866.2023,423.7154,856.7977,423.7154,861.5,438.1875" style="stroke:#000000;stroke-width:1.0;"/><text fill="#000000" font-family="sans-serif" font-size="20" lengthAdjust="spacing" textLength="31" x="874.5" y="438.3711">has</text><text fill="#000000" font-family="sans-serif" font-size="20" lengthAdjust="spacing" textLength="11" x="841.7266" y="384.9426">1</text><text fill="#000000" font-family="sans-serif" font-size="20" lengthAdjust="spacing" textLength="8" x="844.575" y="504.7008">*</text></g><!--reverse link Residence to House--><g id="link_Residence_House"><path codeLine="94" d="M453.28,1296.8794 C446.23,1311.4094 439.07,1326.1794 432.68,1339.3694 " fill="none" id="Residence-backto-House" style="stroke:#181818;stroke-width:1.0;"/><polygon fill="none" points="447.05,1293.6894,462.07,1278.7494,459.64,1299.7994,447.05,1293.6894" style="stroke:#181818;stroke-width:1.0;"/></g><!--reverse link Property to Residence--><g id="link_Property_Residence"><path codeLine="95" d="M517.34,1118.5794 C513.64,1132.2894 509.86,1146.3294 506.33,1159.3894 " fill="none" id="Property-backto-Residence" style="stroke:#181818;stroke-width:1.0;"/><polygon fill="none" points="510.68,1116.3694,522.65,1098.8894,524.2,1120.0194,510.68,1116.3694" style="stroke:#181818;stroke-width:1.0;"/></g><!--link Photos to Property--><g id="link_Photos_Property"><path codeLine="96" d="M319.1,1039.1094 C342.01,1039.1094 374,1039.1094 406.47,1039.1094 " fill="none" id="Photos-Property" style="stroke:#181818;stroke-width:1.0;"/><polygon fill="#000000" points="336.25,1022.6875,350.7221,1027.3898,350.7221,1017.9852,336.25,1022.6875" style="stroke:#000000;stroke-width:1.0;"/><text fill="#000000" font-family="sans-serif" font-size="20" lengthAdjust="spacing" textLength="31" x="357.25" y="1030.8711">has</text><text fill="#000000" font-family="sans-serif" font-size="20" lengthAdjust="spacing" textLength="45" x="326.9891" y="1061.6179">1..30</text><text fill="#000000" font-family="sans-serif" font-size="20" lengthAdjust="spacing" textLength="11" x="387.519" y="1034.1638">1</text></g><!--link House to SunExposure--><g id="link_House_SunExposure"><path codeLine="97" d="M406.09,1432.6594 C400.87,1486.5194 392.32,1574.8594 387.7,1622.5694 " fill="none" id="House-SunExposure" style="stroke:#181818;stroke-width:1.0;"/><polygon fill="#000000" points="407.7289,1535.6503,413.8042,1521.6987,404.4434,1520.7923,407.7289,1535.6503" style="stroke:#000000;stroke-width:1.0;"/><text fill="#000000" font-family="sans-serif" font-size="20" lengthAdjust="spacing" textLength="72" x="421.5" y="1535.8711">contains</text><text fill="#000000" font-family="sans-serif" font-size="20" lengthAdjust="spacing" textLength="8" x="396.9073" y="1461.703">*</text><text fill="#000000" font-family="sans-serif" font-size="20" lengthAdjust="spacing" textLength="11" x="376.3047" y="1610.3186">1</text></g><!--link Property to Address--><g id="link_Property_Address"><path codeLine="98" d="M406.22,1085.9194 C367.3,1104.2194 327.02,1128.4994 296.5,1159.6094 C270.07,1186.5494 230.42,1281.5394 207.85,1339.2894 " fill="none" id="Property-Address" style="stroke:#181818;stroke-width:1.0;"/><polygon fill="#000000" points="299.5683,1225.4866,312.1923,1216.9902,304.7873,1211.1927,299.5683,1225.4866" style="stroke:#000000;stroke-width:1.0;"/><text fill="#000000" font-family="sans-serif" font-size="20" lengthAdjust="spacing" textLength="31" x="317.5" y="1227.3711">has</text><text fill="#000000" font-family="sans-serif" font-size="20" lengthAdjust="spacing" textLength="11" x="387.6852" y="1083.5719">1</text><text fill="#000000" font-family="sans-serif" font-size="20" lengthAdjust="spacing" textLength="11" x="198.4423" y="1327.059">1</text></g><!--link User to Property--><g id="link_User_Property"><path codeLine="99" d="M803.45,87.8694 C718.34,101.6294 554.5,134.8994 554.5,187.1094 C554.5,187.1094 554.5,187.1094 554.5,906.1094 C554.5,930.2294 551.83,956.6594 548.68,979.4794 " fill="none" id="User-Property" style="stroke:#181818;stroke-width:1.0;"/><polygon fill="#000000" points="560.302,546.3796,568.7995,533.7564,559.7569,531.1725,560.302,546.3796" style="stroke:#000000;stroke-width:1.0;"/><text fill="#000000" font-family="sans-serif" font-size="20" lengthAdjust="spacing" textLength="31" x="575.5" y="546.8711">has</text><text fill="#000000" font-family="sans-serif" font-size="20" lengthAdjust="spacing" textLength="11" x="784.6383" y="111.5395">1</text><text fill="#000000" font-family="sans-serif" font-size="20" lengthAdjust="spacing" textLength="8" x="541.3559" y="967.3809">*</text></g><!--link Residence to AvailableEquipment--><g id="link_Residence_AvailableEquipment"><path codeLine="100" d="M511.77,1278.8394 C534.87,1342.6394 570.96,1442.2794 589.55,1493.5994 " fill="none" id="Residence-AvailableEquipment" style="stroke:#181818;stroke-width:1.0;"/><polygon fill="#000000" points="577.2242,1393.7094,576.7173,1378.5009,567.8748,1381.7034,577.2242,1393.7094" style="stroke:#000000;stroke-width:1.0;"/><text fill="#000000" font-family="sans-serif" font-size="20" lengthAdjust="spacing" textLength="72" x="587.5" y="1394.3711">contains</text><text fill="#000000" font-family="sans-serif" font-size="20" lengthAdjust="spacing" textLength="11" x="502.3963" y="1307.0772">1</text><text fill="#000000" font-family="sans-serif" font-size="20" lengthAdjust="spacing" textLength="8" x="578.8086" y="1481.3538">*</text></g><!--link TypeOfProperty to Property--><g id="link_TypeOfProperty_Property"><path codeLine="101" d="M419.81,830.7694 C423.27,855.8494 430.14,890.6394 443.5,918.6094 C453.72,940.0094 468.41,961.0594 483.19,979.3794 " fill="none" id="TypeOfProperty-Property" style="stroke:#181818;stroke-width:1.0;"/><polygon fill="#000000" points="454.6384,912.5462,453.2863,897.3895,444.6357,901.0789,454.6384,912.5462" style="stroke:#000000;stroke-width:1.0;"/><text fill="#000000" font-family="sans-serif" font-size="20" lengthAdjust="spacing" textLength="63" x="464.5" y="913.3711">defines</text><text fill="#000000" font-family="sans-serif" font-size="20" lengthAdjust="spacing" textLength="11" x="408.4199" y="859.8285">1</text><text fill="#000000" font-family="sans-serif" font-size="20" lengthAdjust="spacing" textLength="11" x="465.5389" y="967.27">1</text></g><!--link Comission to Agent--><g id="link_Comission_Agent"><path codeLine="124" d="M1001.24,538.6094 C963.81,538.6094 913.21,538.6094 882,538.6094 " fill="none" id="Comission-Agent" style="stroke:#181818;stroke-width:1.0;"/><polygon fill="#000000" points="915.25,522.1875,900.7779,517.4852,900.7779,526.8898,915.25,522.1875" style="stroke:#000000;stroke-width:1.0;"/><text fill="#000000" font-family="sans-serif" font-size="20" lengthAdjust="spacing" textLength="63" x="920.25" y="530.3711">defines</text><text fill="#000000" font-family="sans-serif" font-size="20" lengthAdjust="spacing" textLength="11" x="982.344" y="532.5237">1</text><text fill="#000000" font-family="sans-serif" font-size="20" lengthAdjust="spacing" textLength="11" x="889.8625" y="531.4805">1</text></g><!--link Comission to Business--><g id="link_Comission_Business"><path codeLine="125" d="M1095.59,572.8294 C1114.04,588.8994 1133.31,609.8594 1143.5,633.6094 C1198.73,762.2994 1151.5,808.5594 1151.5,948.6094 C1151.5,948.6094 1151.5,948.6094 1151.5,1220.1094 C1151.5,1282.2894 1092.73,1326.4294 1040.74,1353.3094 " fill="none" id="Comission-Business" style="stroke:#181818;stroke-width:1.0;"/><polygon fill="#000000" points="1162.0608,897.2072,1156.3556,911.3141,1165.737,911.9734,1162.0608,897.2072" style="stroke:#000000;stroke-width:1.0;"/><text fill="#000000" font-family="sans-serif" font-size="20" lengthAdjust="spacing" textLength="72" x="1174.5" y="913.3711">contains</text><text fill="#000000" font-family="sans-serif" font-size="20" lengthAdjust="spacing" textLength="11" x="1091.5664" y="601.6077">1</text><text fill="#000000" font-family="sans-serif" font-size="20" lengthAdjust="spacing" textLength="11" x="1048.4598" y="1344.8878">1</text></g><!--link User to Business--><g id="link_User_Business"><path codeLine="126" d="M903.68,82.0794 C1020.06,86.8494 1298.5,106.6794 1298.5,187.1094 C1298.5,187.1094 1298.5,187.1094 1298.5,1220.1094 C1298.5,1334.3294 1140.14,1369.4794 1040.85,1380.2994 " fill="none" id="User-Business" style="stroke:#181818;stroke-width:1.0;"/><polygon fill="#000000" points="1307.3406,675.6432,1310.4962,660.7571,1301.1437,661.7453,1307.3406,675.6432" style="stroke:#000000;stroke-width:1.0;"/><text fill="#000000" font-family="sans-serif" font-size="20" lengthAdjust="spacing" textLength="76" x="1319.5" y="675.8711">requests</text><text fill="#000000" font-family="sans-serif" font-size="20" lengthAdjust="spacing" textLength="11" x="911.51" y="104.9353">1</text><text fill="#000000" font-family="sans-serif" font-size="20" lengthAdjust="spacing" textLength="11" x="1048.5799" y="1374.3659">1</text></g><!--link Property to Business--><g id="link_Property_Business"><path codeLine="127" d="M585.44,1098.7494 C600.45,1117.9394 616.93,1139.4894 631.5,1159.6094 C668.87,1211.2294 662.67,1237.6594 711.5,1278.6094 C761.82,1320.8194 831.33,1348.5594 884.44,1365.1094 " fill="none" id="Property-Business" style="stroke:#181818;stroke-width:1.0;"/><polygon fill="#000000" points="713.5265,1213.8661,721.2048,1227.0037,727.4605,1219.9815,713.5265,1213.8661" style="stroke:#000000;stroke-width:1.0;"/><text fill="#000000" font-family="sans-serif" font-size="20" lengthAdjust="spacing" textLength="48" x="732.5" y="1227.3711">has a</text><text fill="#000000" font-family="sans-serif" font-size="20" lengthAdjust="spacing" textLength="11" x="578.7135" y="1126.9779">1</text><text fill="#000000" font-family="sans-serif" font-size="20" lengthAdjust="spacing" textLength="11" x="865.4757" y="1357.6707">1</text></g><!--link AnnouncementRequest to Business--><g id="link_AnnouncementRequest_Business"><path codeLine="128" d="M734.78,830.7694 C737.88,887.4194 748.37,1005.7094 783.5,1098.6094 C821.15,1198.1794 895.39,1300.5694 935.41,1351.7394 " fill="none" id="AnnouncementRequest-Business" style="stroke:#181818;stroke-width:1.0;"/><polygon fill="#000000" points="794.375,1046.653,793.5622,1031.4579,784.7859,1034.8377,794.375,1046.653" style="stroke:#000000;stroke-width:1.0;"/><text fill="#000000" font-family="sans-serif" font-size="20" lengthAdjust="spacing" textLength="31" x="804.5" y="1047.3711">has</text><text fill="#000000" font-family="sans-serif" font-size="20" lengthAdjust="spacing" textLength="11" x="723.0283" y="859.8285">1</text><text fill="#000000" font-family="sans-serif" font-size="20" lengthAdjust="spacing" textLength="11" x="919.0123" y="1339.7253">1</text></g><!--link Agent to AnnouncementRequest--><g id="link_Agent_AnnouncementRequest"><path codeLine="129" d="M825.19,560.2294 C803.86,577.3894 775.76,603.7694 760.5,633.6094 C739.54,674.6094 734.28,728.3494 733.25,762.4394 " fill="none" id="Agent-AnnouncementRequest" style="stroke:#181818;stroke-width:1.0;"/><polygon fill="#000000" points="765.1888,674.9701,775.4594,663.7421,766.8982,659.8495,765.1888,674.9701" style="stroke:#000000;stroke-width:1.0;"/><text fill="#000000" font-family="sans-serif" font-size="20" lengthAdjust="spacing" textLength="67" x="781.5" y="675.8711">reviews</text><text fill="#000000" font-family="sans-serif" font-size="20" lengthAdjust="spacing" textLength="11" x="805.9488" y="558.2141">1</text><text fill="#000000" font-family="sans-serif" font-size="20" lengthAdjust="spacing" textLength="11" x="721.2617" y="750.1663">1</text></g><!--link AnnouncementRequest to Property--><g id="link_AnnouncementRequest_Property"><path codeLine="130" d="M706.59,830.7994 C675.56,869.0694 623.97,932.6994 586.11,979.3894 " fill="none" id="AnnouncementRequest-Property" style="stroke:#181818;stroke-width:1.0;"/><polygon fill="#000000" points="659.4615,911.4015,672.2287,903.1218,664.9237,897.1987,659.4615,911.4015" style="stroke:#000000;stroke-width:1.0;"/><text fill="#000000" font-family="sans-serif" font-size="20" lengthAdjust="spacing" textLength="48" x="677.5" y="913.3711">has a</text><text fill="#000000" font-family="sans-serif" font-size="20" lengthAdjust="spacing" textLength="11" x="690.0195" y="859.5725">1</text><text fill="#000000" font-family="sans-serif" font-size="20" lengthAdjust="spacing" textLength="11" x="579.7158" y="967.2811">1</text></g><!--reverse link AnnouncementRequest to PublishedAnnouncement--><g id="link_AnnouncementRequest_PublishedAnnouncement"><path codeLine="131" d="M779.12,845.5194 C824.05,892.7094 891.51,963.5494 930.86,1004.8794 " fill="none" id="AnnouncementRequest-backto-PublishedAnnouncement" style="stroke:#181818;stroke-width:1.0;"/><polygon fill="none" points="773.82,850.1094,765.1,830.7994,783.96,840.4594,773.82,850.1094" style="stroke:#181818;stroke-width:1.0;"/></g><!--link PublishedAnnouncement to Agent--><g id="link_PublishedAnnouncement_Agent"><path codeLine="132" d="M955.23,1004.8794 C934.42,909.6694 874.97,637.7894 858.04,560.3994 " fill="none" id="PublishedAnnouncement-Agent" style="stroke:#181818;stroke-width:1.0;"/><polygon fill="#000000" points="926.2089,804.5028,927.7112,789.3603,918.5237,791.3692,926.2089,804.5028" style="stroke:#000000;stroke-width:1.0;"/><text fill="#000000" font-family="sans-serif" font-size="20" lengthAdjust="spacing" textLength="81" x="937.5" y="804.8711">publishes</text><text fill="#000000" font-family="sans-serif" font-size="20" lengthAdjust="spacing" textLength="8" x="945.293" y="992.5959">*</text><text fill="#000000" font-family="sans-serif" font-size="20" lengthAdjust="spacing" textLength="11" x="846.818" y="589.0907">1</text></g><!--link PublishedAnnouncement to Business--><g id="link_PublishedAnnouncement_Business"><path codeLine="133" d="M962.5,1073.1894 C962.5,1139.0494 962.5,1285.8894 962.5,1351.8794 " fill="none" id="PublishedAnnouncement-Business" style="stroke:#181818;stroke-width:1.0;"/><polygon fill="#000000" points="970.5,1211.1875,965.7977,1225.6596,975.2023,1225.6596,970.5,1211.1875" style="stroke:#000000;stroke-width:1.0;"/><text fill="#000000" font-family="sans-serif" font-size="20" lengthAdjust="spacing" textLength="48" x="983.5" y="1227.3711">has a</text><text fill="#000000" font-family="sans-serif" font-size="20" lengthAdjust="spacing" textLength="11" x="950.5203" y="1102.2342">1</text><text fill="#000000" font-family="sans-serif" font-size="20" lengthAdjust="spacing" textLength="11" x="950.5547" y="1339.5959">1</text></g><!--reverse link Business to Rent--><g id="link_Business_Rent"><path codeLine="134" d="M962.5,1440.6094 C962.5,1494.8494 962.5,1577.0494 962.5,1622.4894 " fill="none" id="Business-backto-Rent" style="stroke:#181818;stroke-width:1.0;"/><polygon fill="none" points="955.5,1440.2994,962.5,1420.2994,969.5,1440.2994,955.5,1440.2994" style="stroke:#181818;stroke-width:1.0;"/></g><!--reverse link Comission to ComissionPercentage--><g id="link_Comission_ComissionPercentage"><path codeLine="135" d="M1040.31,592.6694 C1037.92,606.4294 1035.42,620.8694 1033.27,633.2994 " fill="none" id="Comission-backto-ComissionPercentage" style="stroke:#181818;stroke-width:1.0;"/><polygon fill="none" points="1033.47,591.1594,1043.78,572.6494,1047.26,593.5494,1033.47,591.1594" style="stroke:#181818;stroke-width:1.0;"/></g><!--SRC=[XLN9Rjim4BtpAmXV0WHmuQQt82ZWn2dgGrl3RdheZPR65c69LBWaJPT_xv0YAJAsMryiaM-MD_Dcf0zSz4onhfNL0MfQmuxPrdoGmcpuJw1NCq9qnD2zahPVYWOKDqnKU9rTTbB8gb6o0sgKXUocPzM1xM5ZNbgW2YgqtRSvG3UibizSxEcEjHh8nNZLSW7cfGSgbMaakMXXPwYHLF5zOsZDdJikHUQiQfdMSsCKtre3oqeApsH66bu3hRYgCBP_xW1TrfeGmmrczh2PpQxeb2vanxYWdsGDBI7U7PtNjGBy_qKe_ZP60HZ_-9ttz0wHv4-4td7p4d3-KR0kkrrmZPbL9Y3IQudQ66OW1NFFyNvucxoTqAdjfrCwkPma9zUqOPg-9ybf2NFPH4Zauyu30h7U-G2v8OaFQe5L9d9VDL80_MoxBIX_S8_LQh50pj_8uDPgx5ogs1eUBMY32kiniuAfL97fSZ7K13JV2-RRcd0F6bJC0D-VfQhTfJ_sD5508j286KUoGmoFyh8v0qirSK2diu1pCM9HJiRp_gzf5Gk5hlOWp55nFQeixXgvrk16QU0sr9NA7Rs5MadPwTV7p3IdpbTC7Tm0RN3O8El3IiaUL5BaN06BRJHI9mtwQTxXy5BJk251WmefO8kJfwyuXLzsqT_WpfrbiRpF4EbXlHnlFagh8yLRfg53tqFBHSEsk4osE7-jt9bC65RS_-YbjaaUYpJi2JH_Gkqvu_j7otldDM3JkyEEHRxvFVHjI8YaugJp11tlIZcyUVDkDWbCaxwoLCkHys62ChXmZIz4bhGHWvsNsULh48hic7ofk4IcoA3iuv6OnoZuBN0ZZ976LT1nhR43eShVM6lppHUlLw2SUd3dnv4T3vvAc_NOiuLLVkYTd5s-2eSfQxKGqY8NnpDiaxWs13USjRJ6vPM9qMvRhXkeSyEubuDtQe9-Hs97MyAFybYCczVO08lxhYZrsCOZb1eekEgMhJX2kcOpfvmJ1JXlaNPGXZZbmMNonE7PM_mdGYb0TiR23HCQd6u0ETqMhzkou7q0kZgUCVfdkT87Q4Z7wInhdJiyfLVo5m00]--></g></svg>