<?xml version="1.0" encoding="UTF-8" standalone="no"?><svg xmlns="http://www.w3.org/2000/svg" xmlns:xlink="http://www.w3.org/1999/xlink" contentStyleType="text/css" height="1240px" preserveAspectRatio="none" style="width:2755px;height:1240px;background:#FFFFFF;" version="1.1" viewBox="0 0 2755 1240" width="2755px" zoomAndPan="magnify"><defs/><g><rect fill="#FFFFFF" height="1072.75" style="stroke:#181818;stroke-width:1.0;" width="10" x="112.5" y="80.3125"/><rect fill="#FFFFFF" height="1041.5938" style="stroke:#181818;stroke-width:1.0;" width="10" x="561.5" y="111.4688"/><rect fill="#FFFFFF" height="39.1563" style="stroke:#181818;stroke-width:1.0;" width="10" x="1337.5" y="345.5625"/><rect fill="#FFFFFF" height="30" style="stroke:#181818;stroke-width:1.0;" width="10" x="1567" y="512.5"/><rect fill="#FFFFFF" height="30" style="stroke:#181818;stroke-width:1.0;" width="10" x="1567" y="581.6563"/><rect fill="#FFFFFF" height="30" style="stroke:#181818;stroke-width:1.0;" width="10" x="1567" y="650.8125"/><rect fill="#FFFFFF" height="30" style="stroke:#181818;stroke-width:1.0;" width="10" x="1567" y="719.9688"/><rect fill="#FFFFFF" height="30" style="stroke:#181818;stroke-width:1.0;" width="10" x="1913.5" y="891.4375"/><rect fill="#FFFFFF" height="30" style="stroke:#181818;stroke-width:1.0;" width="10" x="2588.5" y="1076.9063"/><rect fill="none" height="837.8125" style="stroke:#000000;stroke-width:1.5;" width="2279.5" x="469.5" y="277.0938"/><rect fill="none" height="536.7188" style="stroke:#000000;stroke-width:1.5;" width="1540.5" x="479.5" y="399.7188"/><rect fill="none" height="485.4063" style="stroke:#000000;stroke-width:1.5;" width="1520.5" x="489.5" y="444.0313"/><line style="stroke:#181818;stroke-width:0.5;stroke-dasharray:5.0,5.0;" x1="117" x2="117" y1="70.3125" y2="1171.0625"/><line style="stroke:#181818;stroke-width:0.5;stroke-dasharray:5.0,5.0;" x1="566.5" x2="566.5" y1="70.3125" y2="1171.0625"/><line style="stroke:#181818;stroke-width:0.5;stroke-dasharray:5.0,5.0;" x1="1342" x2="1342" y1="70.3125" y2="1171.0625"/><line style="stroke:#181818;stroke-width:0.5;stroke-dasharray:5.0,5.0;" x1="1572" x2="1572" y1="70.3125" y2="1171.0625"/><line style="stroke:#181818;stroke-width:0.5;stroke-dasharray:5.0,5.0;" x1="1742" x2="1742" y1="845.2031" y2="1171.0625"/><line style="stroke:#181818;stroke-width:0.5;stroke-dasharray:5.0,5.0;" x1="1918" x2="1918" y1="167.125" y2="1171.0625"/><line style="stroke:#181818;stroke-width:0.5;stroke-dasharray:5.0,5.0;" x1="2224" x2="2224" y1="1030.6719" y2="1171.0625"/><line style="stroke:#181818;stroke-width:0.5;stroke-dasharray:5.0,5.0;" x1="2593" x2="2593" y1="242.4375" y2="1171.0625"/><rect fill="#E3E3E3" height="39.1563" rx="2.5" ry="2.5" style="stroke:#181818;stroke-width:0.5;" width="225" x="5" y="30.1563"/><text fill="#000000" font-family="sans-serif" font-size="20" lengthAdjust="spacing" textLength="211" x="12" y="57.918">:OfferDecisionController</text><rect fill="#E3E3E3" height="39.1563" rx="2.5" ry="2.5" style="stroke:#181818;stroke-width:0.5;" width="225" x="5" y="1170.0625"/><text fill="#000000" font-family="sans-serif" font-size="20" lengthAdjust="spacing" textLength="211" x="12" y="1197.8242">:OfferDecisionController</text><rect fill="#E3E3E3" height="39.1563" rx="2.5" ry="2.5" style="stroke:#181818;stroke-width:0.5;" width="134" x="499.5" y="30.1563"/><text fill="#000000" font-family="sans-serif" font-size="20" lengthAdjust="spacing" textLength="120" x="506.5" y="57.918">:OfferMapper</text><rect fill="#E3E3E3" height="39.1563" rx="2.5" ry="2.5" style="stroke:#181818;stroke-width:0.5;" width="134" x="499.5" y="1170.0625"/><text fill="#000000" font-family="sans-serif" font-size="20" lengthAdjust="spacing" textLength="120" x="506.5" y="1197.8242">:OfferMapper</text><rect fill="#E3E3E3" height="64.3125" rx="2.5" ry="2.5" style="stroke:#181818;stroke-width:0.5;" width="287" x="1199" y="5"/><text fill="#000000" font-family="sans-serif" font-size="20" lengthAdjust="spacing" textLength="243" x="1221" y="32.7617">PublishedAnnouncementList</text><text fill="#000000" font-family="sans-serif" font-size="20" lengthAdjust="spacing" textLength="273" x="1206" y="57.918">:List&lt;PublishedAnnouncement&gt;</text><rect fill="#E3E3E3" height="64.3125" rx="2.5" ry="2.5" style="stroke:#181818;stroke-width:0.5;" width="287" x="1199" y="1170.0625"/><text fill="#000000" font-family="sans-serif" font-size="20" lengthAdjust="spacing" textLength="243" x="1221" y="1197.8242">PublishedAnnouncementList</text><text fill="#000000" font-family="sans-serif" font-size="20" lengthAdjust="spacing" textLength="273" x="1206" y="1222.9805">:List&lt;PublishedAnnouncement&gt;</text><rect fill="#E3E3E3" height="64.3125" rx="2.5" ry="2.5" style="stroke:#181818;stroke-width:0.5;" width="152" x="1496" y="5"/><text fill="#000000" font-family="sans-serif" font-size="20" lengthAdjust="spacing" textLength="77" x="1533.5" y="32.7617">OfferList</text><text fill="#000000" font-family="sans-serif" font-size="20" lengthAdjust="spacing" textLength="138" x="1503" y="57.918">:List&lt;OfferList&gt;</text><rect fill="#E3E3E3" height="64.3125" rx="2.5" ry="2.5" style="stroke:#181818;stroke-width:0.5;" width="152" x="1496" y="1170.0625"/><text fill="#000000" font-family="sans-serif" font-size="20" lengthAdjust="spacing" textLength="77" x="1533.5" y="1197.8242">OfferList</text><text fill="#000000" font-family="sans-serif" font-size="20" lengthAdjust="spacing" textLength="138" x="1503" y="1222.9805">:List&lt;OfferList&gt;</text><rect fill="#E3E3E3" height="39.1563" rx="2.5" ry="2.5" style="stroke:#181818;stroke-width:0.5;" width="169" x="1658" y="1170.0625"/><text fill="#000000" font-family="sans-serif" font-size="20" lengthAdjust="spacing" textLength="155" x="1665" y="1197.8242">offerDto:OfferDto</text><rect fill="#E3E3E3" height="64.3125" rx="2.5" ry="2.5" style="stroke:#181818;stroke-width:0.5;" width="163" x="1837" y="1170.0625"/><text fill="#000000" font-family="sans-serif" font-size="20" lengthAdjust="spacing" textLength="88" x="1874.5" y="1197.8242">OfferDTO</text><text fill="#000000" font-family="sans-serif" font-size="20" lengthAdjust="spacing" textLength="149" x="1844" y="1222.9805">:List&lt;OfferDTO&gt;</text><rect fill="#E3E3E3" height="39.1563" rx="2.5" ry="2.5" style="stroke:#181818;stroke-width:0.5;" width="428" x="2010" y="1170.0625"/><text fill="#000000" font-family="sans-serif" font-size="20" lengthAdjust="spacing" textLength="414" x="2017" y="1197.8242">announcementOfferDto:AnnouncementOfferDto</text><rect fill="#E3E3E3" height="64.3125" rx="2.5" ry="2.5" style="stroke:#181818;stroke-width:0.5;" width="291" x="2448" y="1170.0625"/><text fill="#000000" font-family="sans-serif" font-size="20" lengthAdjust="spacing" textLength="216" x="2485.5" y="1197.8242">AnnouncementOfferDTO</text><text fill="#000000" font-family="sans-serif" font-size="20" lengthAdjust="spacing" textLength="277" x="2455" y="1222.9805">:List&lt;AnnouncementOfferDTO&gt;</text><rect fill="#FFFFFF" height="1072.75" style="stroke:#181818;stroke-width:1.0;" width="10" x="112.5" y="80.3125"/><rect fill="#FFFFFF" height="1041.5938" style="stroke:#181818;stroke-width:1.0;" width="10" x="561.5" y="111.4688"/><rect fill="#FFFFFF" height="39.1563" style="stroke:#181818;stroke-width:1.0;" width="10" x="1337.5" y="345.5625"/><rect fill="#FFFFFF" height="30" style="stroke:#181818;stroke-width:1.0;" width="10" x="1567" y="512.5"/><rect fill="#FFFFFF" height="30" style="stroke:#181818;stroke-width:1.0;" width="10" x="1567" y="581.6563"/><rect fill="#FFFFFF" height="30" style="stroke:#181818;stroke-width:1.0;" width="10" x="1567" y="650.8125"/><rect fill="#FFFFFF" height="30" style="stroke:#181818;stroke-width:1.0;" width="10" x="1567" y="719.9688"/><rect fill="#FFFFFF" height="30" style="stroke:#181818;stroke-width:1.0;" width="10" x="1913.5" y="891.4375"/><rect fill="#FFFFFF" height="30" style="stroke:#181818;stroke-width:1.0;" width="10" x="2588.5" y="1076.9063"/><polygon fill="#181818" points="549.5,107.4688,559.5,111.4688,549.5,115.4688,553.5,111.4688" style="stroke:#181818;stroke-width:1.0;"/><line style="stroke:#181818;stroke-width:1.0;" x1="122.5" x2="555.5" y1="111.4688" y2="111.4688"/><text fill="#000000" font-family="sans-serif" font-size="20" font-weight="bold" lengthAdjust="spacing" textLength="11" x="129.5" y="105.0742">1</text><text fill="#000000" font-family="sans-serif" font-size="20" lengthAdjust="spacing" textLength="405" x="144.5" y="105.0742">toDTO(PublishedAnnouncementList, OfferList)</text><polygon fill="#181818" points="1825,146.625,1835,150.625,1825,154.625,1829,150.625" style="stroke:#181818;stroke-width:1.0;"/><line style="stroke:#181818;stroke-width:1.0;stroke-dasharray:2.0,2.0;" x1="571.5" x2="1831" y1="150.625" y2="150.625"/><text fill="#000000" font-family="sans-serif" font-size="20" font-weight="bold" lengthAdjust="spacing" textLength="11" x="578.5" y="144.2305">2</text><text fill="#000000" font-family="sans-serif" font-size="20" lengthAdjust="spacing" textLength="70" x="593.5" y="144.2305">create()</text><rect fill="#E3E3E3" height="64.3125" rx="2.5" ry="2.5" style="stroke:#181818;stroke-width:0.5;" width="163" x="1837" y="119.4688"/><text fill="#000000" font-family="sans-serif" font-size="20" lengthAdjust="spacing" textLength="88" x="1874.5" y="147.2305">OfferDTO</text><text fill="#000000" font-family="sans-serif" font-size="20" lengthAdjust="spacing" textLength="149" x="1844" y="172.3867">:List&lt;OfferDTO&gt;</text><polygon fill="#181818" points="2436,221.9375,2446,225.9375,2436,229.9375,2440,225.9375" style="stroke:#181818;stroke-width:1.0;"/><line style="stroke:#181818;stroke-width:1.0;stroke-dasharray:2.0,2.0;" x1="571.5" x2="2442" y1="225.9375" y2="225.9375"/><text fill="#000000" font-family="sans-serif" font-size="20" font-weight="bold" lengthAdjust="spacing" textLength="11" x="578.5" y="219.543">3</text><text fill="#000000" font-family="sans-serif" font-size="20" lengthAdjust="spacing" textLength="70" x="593.5" y="219.543">create()</text><rect fill="#E3E3E3" height="64.3125" rx="2.5" ry="2.5" style="stroke:#181818;stroke-width:0.5;" width="291" x="2448" y="194.7813"/><text fill="#000000" font-family="sans-serif" font-size="20" lengthAdjust="spacing" textLength="216" x="2485.5" y="222.543">AnnouncementOfferDTO</text><text fill="#000000" font-family="sans-serif" font-size="20" lengthAdjust="spacing" textLength="277" x="2455" y="247.6992">:List&lt;AnnouncementOfferDTO&gt;</text><path d="M469.5,277.0938 L555.5,277.0938 L555.5,294.25 L545.5,304.25 L469.5,304.25 L469.5,277.0938 " fill="#EEEEEE" style="stroke:#000000;stroke-width:1.5;"/><rect fill="none" height="837.8125" style="stroke:#000000;stroke-width:1.5;" width="2279.5" x="469.5" y="277.0938"/><text fill="#000000" font-family="sans-serif" font-size="20" font-weight="bold" lengthAdjust="spacing" textLength="41" x="484.5" y="298.8555">loop</text><text fill="#000000" font-family="sans-serif" font-size="20" font-weight="bold" lengthAdjust="spacing" textLength="400" x="570.5" y="299.8555">[for each published announcement object]</text><polygon fill="#181818" points="1325.5,341.5625,1335.5,345.5625,1325.5,349.5625,1329.5,345.5625" style="stroke:#181818;stroke-width:1.0;"/><line style="stroke:#181818;stroke-width:1.0;" x1="571.5" x2="1331.5" y1="345.5625" y2="345.5625"/><text fill="#000000" font-family="sans-serif" font-size="20" font-weight="bold" lengthAdjust="spacing" textLength="11" x="578.5" y="339.168">4</text><text fill="#000000" font-family="sans-serif" font-size="20" lengthAdjust="spacing" textLength="258" x="593.5" y="339.168">getPublishedAnnouncement(i)</text><polygon fill="#181818" points="582.5,380.7188,572.5,384.7188,582.5,388.7188,578.5,384.7188" style="stroke:#181818;stroke-width:1.0;"/><line style="stroke:#181818;stroke-width:1.0;stroke-dasharray:2.0,2.0;" x1="576.5" x2="1341.5" y1="384.7188" y2="384.7188"/><text fill="#000000" font-family="sans-serif" font-size="20" font-weight="bold" lengthAdjust="spacing" textLength="11" x="588.5" y="378.3242">5</text><text fill="#000000" font-family="sans-serif" font-size="20" lengthAdjust="spacing" textLength="210" x="603.5" y="378.3242">publishedAnnouncement</text><path d="M479.5,399.7188 L565.5,399.7188 L565.5,416.875 L555.5,426.875 L479.5,426.875 L479.5,399.7188 " fill="#EEEEEE" style="stroke:#000000;stroke-width:1.5;"/><rect fill="none" height="536.7188" style="stroke:#000000;stroke-width:1.5;" width="1540.5" x="479.5" y="399.7188"/><text fill="#000000" font-family="sans-serif" font-size="20" font-weight="bold" lengthAdjust="spacing" textLength="41" x="494.5" y="421.4805">loop</text><text fill="#000000" font-family="sans-serif" font-size="20" font-weight="bold" lengthAdjust="spacing" textLength="207" x="580.5" y="422.4805">[for each offer object]</text><path d="M489.5,444.0313 L565.5,444.0313 L565.5,461.1875 L555.5,471.1875 L489.5,471.1875 L489.5,444.0313 " fill="#EEEEEE" style="stroke:#000000;stroke-width:1.5;"/><rect fill="none" height="485.4063" style="stroke:#000000;stroke-width:1.5;" width="1520.5" x="489.5" y="444.0313"/><text fill="#000000" font-family="sans-serif" font-size="20" font-weight="bold" lengthAdjust="spacing" textLength="31" x="504.5" y="465.793">opt</text><text fill="#000000" font-family="sans-serif" font-size="20" font-weight="bold" lengthAdjust="spacing" textLength="672" x="580.5" y="466.793">[if publishAnnouncement equals to offer.getPublishedAnnouncement()]</text><polygon fill="#181818" points="1555,508.5,1565,512.5,1555,516.5,1559,512.5" style="stroke:#181818;stroke-width:1.0;"/><line style="stroke:#181818;stroke-width:1.0;" x1="571.5" x2="1561" y1="512.5" y2="512.5"/><text fill="#000000" font-family="sans-serif" font-size="20" font-weight="bold" lengthAdjust="spacing" textLength="11" x="578.5" y="506.1055">6</text><text fill="#000000" font-family="sans-serif" font-size="20" lengthAdjust="spacing" textLength="212" x="593.5" y="506.1055">name = offer.getName()</text><polygon fill="#181818" points="1555,577.6563,1565,581.6563,1555,585.6563,1559,581.6563" style="stroke:#181818;stroke-width:1.0;"/><line style="stroke:#181818;stroke-width:1.0;" x1="571.5" x2="1561" y1="581.6563" y2="581.6563"/><text fill="#000000" font-family="sans-serif" font-size="20" font-weight="bold" lengthAdjust="spacing" textLength="11" x="578.5" y="575.2617">7</text><text fill="#000000" font-family="sans-serif" font-size="20" lengthAdjust="spacing" textLength="207" x="593.5" y="575.2617">client = offer.getClient()</text><polygon fill="#181818" points="1555,646.8125,1565,650.8125,1555,654.8125,1559,650.8125" style="stroke:#181818;stroke-width:1.0;"/><line style="stroke:#181818;stroke-width:1.0;" x1="571.5" x2="1561" y1="650.8125" y2="650.8125"/><text fill="#000000" font-family="sans-serif" font-size="20" font-weight="bold" lengthAdjust="spacing" textLength="11" x="578.5" y="644.418">8</text><text fill="#000000" font-family="sans-serif" font-size="20" lengthAdjust="spacing" textLength="344" x="593.5" y="644.418">orderAmount = offer.getOrderAmount()</text><polygon fill="#181818" points="1555,715.9688,1565,719.9688,1555,723.9688,1559,719.9688" style="stroke:#181818;stroke-width:1.0;"/><line style="stroke:#181818;stroke-width:1.0;" x1="571.5" x2="1561" y1="719.9688" y2="719.9688"/><text fill="#000000" font-family="sans-serif" font-size="20" font-weight="bold" lengthAdjust="spacing" textLength="11" x="578.5" y="713.5742">9</text><text fill="#000000" font-family="sans-serif" font-size="20" lengthAdjust="spacing" textLength="294" x="593.5" y="713.5742">offerState = offer.getOfferState()</text><line style="stroke:#181818;stroke-width:1.0;" x1="571.5" x2="613.5" y1="789.125" y2="789.125"/><line style="stroke:#181818;stroke-width:1.0;" x1="613.5" x2="613.5" y1="789.125" y2="802.125"/><line style="stroke:#181818;stroke-width:1.0;" x1="572.5" x2="613.5" y1="802.125" y2="802.125"/><polygon fill="#181818" points="582.5,798.125,572.5,802.125,582.5,806.125,578.5,802.125" style="stroke:#181818;stroke-width:1.0;"/><text fill="#000000" font-family="sans-serif" font-size="20" font-weight="bold" lengthAdjust="spacing" textLength="22" x="578.5" y="782.7305">10</text><text fill="#000000" font-family="sans-serif" font-size="20" lengthAdjust="spacing" textLength="592" x="604.5" y="782.7305">offerDto = toOfferDtoObject(name, client, orderAmount, offerState)</text><polygon fill="#181818" points="1646,837.2813,1656,841.2813,1646,845.2813,1650,841.2813" style="stroke:#181818;stroke-width:1.0;"/><line style="stroke:#181818;stroke-width:1.0;stroke-dasharray:2.0,2.0;" x1="571.5" x2="1652" y1="841.2813" y2="841.2813"/><text fill="#000000" font-family="sans-serif" font-size="20" font-weight="bold" lengthAdjust="spacing" textLength="22" x="578.5" y="834.8867">11</text><text fill="#000000" font-family="sans-serif" font-size="20" lengthAdjust="spacing" textLength="70" x="604.5" y="834.8867">create()</text><rect fill="#E3E3E3" height="39.1563" rx="2.5" ry="2.5" style="stroke:#181818;stroke-width:0.5;" width="169" x="1658" y="810.125"/><text fill="#000000" font-family="sans-serif" font-size="20" lengthAdjust="spacing" textLength="155" x="1665" y="837.8867">offerDto:OfferDto</text><polygon fill="#181818" points="1901.5,887.4375,1911.5,891.4375,1901.5,895.4375,1905.5,891.4375" style="stroke:#181818;stroke-width:1.0;"/><line style="stroke:#181818;stroke-width:1.0;" x1="571.5" x2="1907.5" y1="891.4375" y2="891.4375"/><text fill="#000000" font-family="sans-serif" font-size="20" font-weight="bold" lengthAdjust="spacing" textLength="22" x="578.5" y="885.043">12</text><text fill="#000000" font-family="sans-serif" font-size="20" lengthAdjust="spacing" textLength="119" x="604.5" y="885.043">add(offerDto)</text><line style="stroke:#181818;stroke-width:1.0;stroke-dasharray:2.0,2.0;" x1="571.5" x2="613.5" y1="974.5938" y2="974.5938"/><line style="stroke:#181818;stroke-width:1.0;stroke-dasharray:2.0,2.0;" x1="613.5" x2="613.5" y1="974.5938" y2="987.5938"/><line style="stroke:#181818;stroke-width:1.0;stroke-dasharray:2.0,2.0;" x1="572.5" x2="613.5" y1="987.5938" y2="987.5938"/><polygon fill="#181818" points="582.5,983.5938,572.5,987.5938,582.5,991.5938,578.5,987.5938" style="stroke:#181818;stroke-width:1.0;"/><text fill="#000000" font-family="sans-serif" font-size="20" font-weight="bold" lengthAdjust="spacing" textLength="22" x="578.5" y="968.1992">13</text><text fill="#000000" font-family="sans-serif" font-size="20" lengthAdjust="spacing" textLength="726" x="604.5" y="968.1992">announcementOffersDto = toDtoObject(publishedAnnouncement, offersListToDTO)</text><polygon fill="#181818" points="1998,1022.75,2008,1026.75,1998,1030.75,2002,1026.75" style="stroke:#181818;stroke-width:1.0;"/><line style="stroke:#181818;stroke-width:1.0;stroke-dasharray:2.0,2.0;" x1="571.5" x2="2004" y1="1026.75" y2="1026.75"/><text fill="#000000" font-family="sans-serif" font-size="20" font-weight="bold" lengthAdjust="spacing" textLength="22" x="578.5" y="1020.3555">14</text><text fill="#000000" font-family="sans-serif" font-size="20" lengthAdjust="spacing" textLength="88" x="604.5" y="1020.3555">create(...)</text><rect fill="#E3E3E3" height="39.1563" rx="2.5" ry="2.5" style="stroke:#181818;stroke-width:0.5;" width="428" x="2010" y="995.5938"/><text fill="#000000" font-family="sans-serif" font-size="20" lengthAdjust="spacing" textLength="414" x="2017" y="1023.3555">announcementOfferDto:AnnouncementOfferDto</text><polygon fill="#181818" points="2576.5,1072.9063,2586.5,1076.9063,2576.5,1080.9063,2580.5,1076.9063" style="stroke:#181818;stroke-width:1.0;"/><line style="stroke:#181818;stroke-width:1.0;" x1="571.5" x2="2582.5" y1="1076.9063" y2="1076.9063"/><text fill="#000000" font-family="sans-serif" font-size="20" font-weight="bold" lengthAdjust="spacing" textLength="22" x="578.5" y="1070.5117">15</text><text fill="#000000" font-family="sans-serif" font-size="20" lengthAdjust="spacing" textLength="260" x="604.5" y="1070.5117">add(announcementOffersDto)</text><polygon fill="#181818" points="128.5,1149.0625,118.5,1153.0625,128.5,1157.0625,124.5,1153.0625" style="stroke:#181818;stroke-width:1.0;"/><line style="stroke:#181818;stroke-width:1.0;stroke-dasharray:2.0,2.0;" x1="122.5" x2="565.5" y1="1153.0625" y2="1153.0625"/><text fill="#000000" font-family="sans-serif" font-size="20" font-weight="bold" lengthAdjust="spacing" textLength="22" x="134.5" y="1146.668">16</text><text fill="#000000" font-family="sans-serif" font-size="20" lengthAdjust="spacing" textLength="255" x="160.5" y="1146.668">announcementOffersDTOList</text><!--SRC=[pLP1hzem3BxtLqJlH16WQKUq8Q67TdeRa-2uIrxhGaORTscwQVlrIqhIfjHzmBG3lK0S-_DdEx5JdOGikU95Zia9KfP2nkjSVqAfT-8FiFVleighi08b9aU51J2jQWXsIfwS-05s-dSEJ46YkJpaeK9rv2d-4lB0CfvN44MyrYZhuXLK51aLBH9HSgdPqtARPQ0sa8XAe7msH1JcEQWdnYkMj4lAw3ClIwTOD7_xIb_hrrnKHqZNKc8j4oX0wXTHwMzoQNy-a0gh1ey74gEZ-yYDzn2f5PojqIw7Peruez65hB5HJZKIw9lzjWTkrW7sm2Rawz6NQqBOO50RVRoXHiU7sblvK9geJRaJBNvo3M45sSNNRR7vobMGBPb6WpSPBTwCjScE1v2jMtSUXZuLs6rFz7BRaPWRFZxFq-dIMKtYj_GTv7JA0lqXWHonP1ag1Zmvij97sJjm35-_cpiriBKVAVGqLeDpQyWSG9F9d8YO16jpEBW3fFQbmtbOov9oJEAaCEwNDEWdigcMpnkfRpyiDHEPPnLoOl2ZDetA7Bupr68qQ_4eEX5ArmYk6NKbR6rC_YGtlVTZH-cBMT_0u1_y_qVIIIviHWFQputauOcZIa6j2rFh7ljj9txy4Ep_dRPGOGIjz243QDk57v26kqO_cBRDfPxOgp1pPsiMbceM11tVxFNSiVlT-iwK6tjZpTDquddVcrmxnk_DxLis8DFHFRehMeleIfxQyWmU6PMlLLScikEx4bLsQE_jU8-l-QHUA66n5ej5V6KKke7iIaHolp80nru95sLfrQARiXj46Ro0oEpkjo-K_y2tU-SGEy73woy0]--></g></svg>