<?xml version="1.0" encoding="UTF-8" standalone="no"?><svg xmlns="http://www.w3.org/2000/svg" xmlns:xlink="http://www.w3.org/1999/xlink" contentStyleType="text/css" height="772px" preserveAspectRatio="none" style="width:2128px;height:772px;background:#FFFFFF;" version="1.1" viewBox="0 0 2128 772" width="2128px" zoomAndPan="magnify"><defs/><g><rect fill="#FFFFFF" height="613.5" style="stroke:#181818;stroke-width:1.0;" width="10" x="112.5" y="80.3125"/><rect fill="#FFFFFF" height="39.1563" style="stroke:#181818;stroke-width:1.0;" width="10" x="300" y="111.4688"/><rect fill="#FFFFFF" height="39.1563" style="stroke:#181818;stroke-width:1.0;" width="10" x="505.5" y="189.7813"/><rect fill="#FFFFFF" height="416.7188" style="stroke:#181818;stroke-width:1.0;" width="10" x="696.5" y="268.0938"/><rect fill="#FFFFFF" height="39.1563" style="stroke:#181818;stroke-width:1.0;" width="10" x="1364.5" y="426.875"/><rect fill="#FFFFFF" height="30" style="stroke:#181818;stroke-width:1.0;" width="10" x="1953.5" y="601.6563"/><rect fill="none" height="288.25" style="stroke:#000000;stroke-width:1.5;" width="1556.5" x="565.5" y="358.4063"/><rect fill="none" height="158.625" style="stroke:#000000;stroke-width:1.5;" width="1536.5" x="575.5" y="481.0313"/><line style="stroke:#181818;stroke-width:0.5;stroke-dasharray:5.0,5.0;" x1="117" x2="117" y1="70.3125" y2="702.8125"/><line style="stroke:#181818;stroke-width:0.5;stroke-dasharray:5.0,5.0;" x1="305" x2="305" y1="70.3125" y2="702.8125"/><line style="stroke:#181818;stroke-width:0.5;stroke-dasharray:5.0,5.0;" x1="510.5" x2="510.5" y1="70.3125" y2="702.8125"/><line style="stroke:#181818;stroke-width:0.5;stroke-dasharray:5.0,5.0;" x1="701.5" x2="701.5" y1="70.3125" y2="702.8125"/><line style="stroke:#181818;stroke-width:0.5;stroke-dasharray:5.0,5.0;" x1="1369" x2="1369" y1="70.3125" y2="702.8125"/><line style="stroke:#181818;stroke-width:0.5;stroke-dasharray:5.0,5.0;" x1="1674" x2="1674" y1="70.3125" y2="702.8125"/><line style="stroke:#181818;stroke-width:0.5;stroke-dasharray:5.0,5.0;" x1="1958" x2="1958" y1="323.75" y2="702.8125"/><rect fill="#E3E3E3" height="39.1563" rx="2.5" ry="2.5" style="stroke:#181818;stroke-width:0.5;" width="225" x="5" y="30.1563"/><text fill="#000000" font-family="sans-serif" font-size="20" lengthAdjust="spacing" textLength="211" x="12" y="57.918">:OfferDecisionController</text><rect fill="#E3E3E3" height="39.1563" rx="2.5" ry="2.5" style="stroke:#181818;stroke-width:0.5;" width="225" x="5" y="701.8125"/><text fill="#000000" font-family="sans-serif" font-size="20" lengthAdjust="spacing" textLength="211" x="12" y="729.5742">:OfferDecisionController</text><rect fill="#E3E3E3" height="39.1563" rx="2.5" ry="2.5" style="stroke:#181818;stroke-width:0.5;" width="130" x="240" y="30.1563"/><text fill="#000000" font-family="sans-serif" font-size="20" lengthAdjust="spacing" textLength="116" x="247" y="57.918">:Repositories</text><rect fill="#E3E3E3" height="39.1563" rx="2.5" ry="2.5" style="stroke:#181818;stroke-width:0.5;" width="130" x="240" y="701.8125"/><text fill="#000000" font-family="sans-serif" font-size="20" lengthAdjust="spacing" textLength="116" x="247" y="729.5742">:Repositories</text><rect fill="#E3E3E3" height="64.3125" rx="2.5" ry="2.5" style="stroke:#181818;stroke-width:0.5;" width="130" x="445.5" y="5"/><text fill="#000000" font-family="sans-serif" font-size="20" lengthAdjust="spacing" textLength="103" x="459" y="32.7617">repositories</text><text fill="#000000" font-family="sans-serif" font-size="20" lengthAdjust="spacing" textLength="116" x="452.5" y="57.918">:Repositories</text><rect fill="#E3E3E3" height="64.3125" rx="2.5" ry="2.5" style="stroke:#181818;stroke-width:0.5;" width="130" x="445.5" y="701.8125"/><text fill="#000000" font-family="sans-serif" font-size="20" lengthAdjust="spacing" textLength="103" x="459" y="729.5742">repositories</text><text fill="#000000" font-family="sans-serif" font-size="20" lengthAdjust="spacing" textLength="116" x="452.5" y="754.7305">:Repositories</text><rect fill="#E3E3E3" height="64.3125" rx="2.5" ry="2.5" style="stroke:#181818;stroke-width:0.5;" width="232" x="585.5" y="5"/><text fill="#000000" font-family="sans-serif" font-size="20" lengthAdjust="spacing" textLength="212" x="595.5" y="32.7617">PublishedAnnouncement</text><text fill="#000000" font-family="sans-serif" font-size="20" lengthAdjust="spacing" textLength="218" x="592.5" y="57.918">:PublishedAnnouncement</text><rect fill="#E3E3E3" height="64.3125" rx="2.5" ry="2.5" style="stroke:#181818;stroke-width:0.5;" width="232" x="585.5" y="701.8125"/><text fill="#000000" font-family="sans-serif" font-size="20" lengthAdjust="spacing" textLength="212" x="595.5" y="729.5742">PublishedAnnouncement</text><text fill="#000000" font-family="sans-serif" font-size="20" lengthAdjust="spacing" textLength="218" x="592.5" y="754.7305">:PublishedAnnouncement</text><rect fill="#E3E3E3" height="64.3125" rx="2.5" ry="2.5" style="stroke:#181818;stroke-width:0.5;" width="327" x="1206" y="5"/><text fill="#000000" font-family="sans-serif" font-size="20" lengthAdjust="spacing" textLength="305" x="1217" y="32.7617">publishedAnnouncementRepository</text><text fill="#000000" font-family="sans-serif" font-size="20" lengthAdjust="spacing" textLength="313" x="1213" y="57.918">:PublishedAnnouncementRepository</text><rect fill="#E3E3E3" height="64.3125" rx="2.5" ry="2.5" style="stroke:#181818;stroke-width:0.5;" width="327" x="1206" y="701.8125"/><text fill="#000000" font-family="sans-serif" font-size="20" lengthAdjust="spacing" textLength="305" x="1217" y="729.5742">publishedAnnouncementRepository</text><text fill="#000000" font-family="sans-serif" font-size="20" lengthAdjust="spacing" textLength="313" x="1213" y="754.7305">:PublishedAnnouncementRepository</text><rect fill="#E3E3E3" height="64.3125" rx="2.5" ry="2.5" style="stroke:#181818;stroke-width:0.5;" width="262" x="1543" y="5"/><text fill="#000000" font-family="sans-serif" font-size="20" lengthAdjust="spacing" textLength="248" x="1550" y="32.7617">AnnouncementOfferMapper:</text><text fill="#000000" font-family="sans-serif" font-size="20" lengthAdjust="spacing" textLength="242" x="1553" y="57.918">AnnouncementOfferMapper</text><rect fill="#E3E3E3" height="64.3125" rx="2.5" ry="2.5" style="stroke:#181818;stroke-width:0.5;" width="262" x="1543" y="701.8125"/><text fill="#000000" font-family="sans-serif" font-size="20" lengthAdjust="spacing" textLength="248" x="1550" y="729.5742">AnnouncementOfferMapper:</text><text fill="#000000" font-family="sans-serif" font-size="20" lengthAdjust="spacing" textLength="242" x="1553" y="754.7305">AnnouncementOfferMapper</text><rect fill="#E3E3E3" height="64.3125" rx="2.5" ry="2.5" style="stroke:#181818;stroke-width:0.5;" width="287" x="1815" y="701.8125"/><text fill="#000000" font-family="sans-serif" font-size="20" lengthAdjust="spacing" textLength="243" x="1837" y="729.5742">PublishedAnnouncementList</text><text fill="#000000" font-family="sans-serif" font-size="20" lengthAdjust="spacing" textLength="273" x="1822" y="754.7305">:List&lt;PublishedAnnouncement&gt;</text><rect fill="#FFFFFF" height="613.5" style="stroke:#181818;stroke-width:1.0;" width="10" x="112.5" y="80.3125"/><rect fill="#FFFFFF" height="39.1563" style="stroke:#181818;stroke-width:1.0;" width="10" x="300" y="111.4688"/><rect fill="#FFFFFF" height="39.1563" style="stroke:#181818;stroke-width:1.0;" width="10" x="505.5" y="189.7813"/><rect fill="#FFFFFF" height="416.7188" style="stroke:#181818;stroke-width:1.0;" width="10" x="696.5" y="268.0938"/><rect fill="#FFFFFF" height="39.1563" style="stroke:#181818;stroke-width:1.0;" width="10" x="1364.5" y="426.875"/><rect fill="#FFFFFF" height="30" style="stroke:#181818;stroke-width:1.0;" width="10" x="1953.5" y="601.6563"/><polygon fill="#181818" points="288,107.4688,298,111.4688,288,115.4688,292,111.4688" style="stroke:#181818;stroke-width:1.0;"/><line style="stroke:#181818;stroke-width:1.0;" x1="122.5" x2="294" y1="111.4688" y2="111.4688"/><text fill="#000000" font-family="sans-serif" font-size="20" font-weight="bold" lengthAdjust="spacing" textLength="11" x="129.5" y="105.0742">1</text><text fill="#000000" font-family="sans-serif" font-size="20" lengthAdjust="spacing" textLength="116" x="144.5" y="105.0742">getInstance()</text><polygon fill="#181818" points="133.5,146.625,123.5,150.625,133.5,154.625,129.5,150.625" style="stroke:#181818;stroke-width:1.0;"/><line style="stroke:#181818;stroke-width:1.0;stroke-dasharray:2.0,2.0;" x1="127.5" x2="304" y1="150.625" y2="150.625"/><text fill="#000000" font-family="sans-serif" font-size="20" font-weight="bold" lengthAdjust="spacing" textLength="11" x="139.5" y="144.2305">2</text><text fill="#000000" font-family="sans-serif" font-size="20" lengthAdjust="spacing" textLength="88" x="154.5" y="144.2305">repository</text><polygon fill="#181818" points="493.5,185.7813,503.5,189.7813,493.5,193.7813,497.5,189.7813" style="stroke:#181818;stroke-width:1.0;"/><line style="stroke:#181818;stroke-width:1.0;" x1="122.5" x2="499.5" y1="189.7813" y2="189.7813"/><text fill="#000000" font-family="sans-serif" font-size="20" font-weight="bold" lengthAdjust="spacing" textLength="11" x="129.5" y="183.3867">3</text><text fill="#000000" font-family="sans-serif" font-size="20" lengthAdjust="spacing" textLength="349" x="144.5" y="183.3867">getPublishedAnnouncementRepository()</text><polygon fill="#181818" points="133.5,224.9375,123.5,228.9375,133.5,232.9375,129.5,228.9375" style="stroke:#181818;stroke-width:1.0;"/><line style="stroke:#181818;stroke-width:1.0;stroke-dasharray:2.0,2.0;" x1="127.5" x2="509.5" y1="228.9375" y2="228.9375"/><text fill="#000000" font-family="sans-serif" font-size="20" font-weight="bold" lengthAdjust="spacing" textLength="11" x="139.5" y="222.543">4</text><text fill="#000000" font-family="sans-serif" font-size="20" lengthAdjust="spacing" textLength="307" x="154.5" y="222.543">PublishedAnnouncementRepository</text><polygon fill="#181818" points="684.5,264.0938,694.5,268.0938,684.5,272.0938,688.5,268.0938" style="stroke:#181818;stroke-width:1.0;"/><line style="stroke:#181818;stroke-width:1.0;" x1="122.5" x2="690.5" y1="268.0938" y2="268.0938"/><text fill="#000000" font-family="sans-serif" font-size="20" font-weight="bold" lengthAdjust="spacing" textLength="11" x="129.5" y="261.6992">5</text><text fill="#000000" font-family="sans-serif" font-size="20" lengthAdjust="spacing" textLength="264" x="144.5" y="261.6992">getPublishedAnnouncements()</text><polygon fill="#181818" points="1803,303.25,1813,307.25,1803,311.25,1807,307.25" style="stroke:#181818;stroke-width:1.0;"/><line style="stroke:#181818;stroke-width:1.0;stroke-dasharray:2.0,2.0;" x1="706.5" x2="1809" y1="307.25" y2="307.25"/><text fill="#000000" font-family="sans-serif" font-size="20" font-weight="bold" lengthAdjust="spacing" textLength="11" x="713.5" y="300.8555">6</text><text fill="#000000" font-family="sans-serif" font-size="20" lengthAdjust="spacing" textLength="70" x="728.5" y="300.8555">create()</text><rect fill="#E3E3E3" height="64.3125" rx="2.5" ry="2.5" style="stroke:#181818;stroke-width:0.5;" width="287" x="1815" y="276.0938"/><text fill="#000000" font-family="sans-serif" font-size="20" lengthAdjust="spacing" textLength="243" x="1837" y="303.8555">PublishedAnnouncementList</text><text fill="#000000" font-family="sans-serif" font-size="20" lengthAdjust="spacing" textLength="273" x="1822" y="329.0117">:List&lt;PublishedAnnouncement&gt;</text><path d="M565.5,358.4063 L651.5,358.4063 L651.5,375.5625 L641.5,385.5625 L565.5,385.5625 L565.5,358.4063 " fill="#EEEEEE" style="stroke:#000000;stroke-width:1.5;"/><rect fill="none" height="288.25" style="stroke:#000000;stroke-width:1.5;" width="1556.5" x="565.5" y="358.4063"/><text fill="#000000" font-family="sans-serif" font-size="20" font-weight="bold" lengthAdjust="spacing" textLength="41" x="580.5" y="380.168">loop</text><text fill="#000000" font-family="sans-serif" font-size="20" font-weight="bold" lengthAdjust="spacing" textLength="336" x="666.5" y="381.168">[for each published announcement]</text><polygon fill="#181818" points="1352.5,422.875,1362.5,426.875,1352.5,430.875,1356.5,426.875" style="stroke:#181818;stroke-width:1.0;"/><line style="stroke:#181818;stroke-width:1.0;" x1="706.5" x2="1358.5" y1="426.875" y2="426.875"/><text fill="#000000" font-family="sans-serif" font-size="20" font-weight="bold" lengthAdjust="spacing" textLength="11" x="713.5" y="420.4805">7</text><text fill="#000000" font-family="sans-serif" font-size="20" lengthAdjust="spacing" textLength="258" x="728.5" y="420.4805">getPublishedAnnouncement(i)</text><polygon fill="#181818" points="717.5,462.0313,707.5,466.0313,717.5,470.0313,713.5,466.0313" style="stroke:#181818;stroke-width:1.0;"/><line style="stroke:#181818;stroke-width:1.0;stroke-dasharray:2.0,2.0;" x1="711.5" x2="1368.5" y1="466.0313" y2="466.0313"/><text fill="#000000" font-family="sans-serif" font-size="20" font-weight="bold" lengthAdjust="spacing" textLength="11" x="723.5" y="459.6367">8</text><text fill="#000000" font-family="sans-serif" font-size="20" lengthAdjust="spacing" textLength="212" x="738.5" y="459.6367">PublishedAnnouncement</text><path d="M575.5,481.0313 L651.5,481.0313 L651.5,498.1875 L641.5,508.1875 L575.5,508.1875 L575.5,481.0313 " fill="#EEEEEE" style="stroke:#000000;stroke-width:1.5;"/><rect fill="none" height="158.625" style="stroke:#000000;stroke-width:1.5;" width="1536.5" x="575.5" y="481.0313"/><text fill="#000000" font-family="sans-serif" font-size="20" font-weight="bold" lengthAdjust="spacing" textLength="31" x="590.5" y="502.793">opt</text><text fill="#000000" font-family="sans-serif" font-size="20" font-weight="bold" lengthAdjust="spacing" textLength="510" x="666.5" y="503.793">[if published announcement state not defined as sold]</text><line style="stroke:#181818;stroke-width:1.0;stroke-dasharray:2.0,2.0;" x1="706.5" x2="748.5" y1="549.5" y2="549.5"/><line style="stroke:#181818;stroke-width:1.0;stroke-dasharray:2.0,2.0;" x1="748.5" x2="748.5" y1="549.5" y2="562.5"/><line style="stroke:#181818;stroke-width:1.0;stroke-dasharray:2.0,2.0;" x1="707.5" x2="748.5" y1="562.5" y2="562.5"/><polygon fill="#181818" points="717.5,558.5,707.5,562.5,717.5,566.5,713.5,562.5" style="stroke:#181818;stroke-width:1.0;"/><text fill="#000000" font-family="sans-serif" font-size="20" font-weight="bold" lengthAdjust="spacing" textLength="11" x="713.5" y="543.1055">9</text><text fill="#000000" font-family="sans-serif" font-size="20" lengthAdjust="spacing" textLength="629" x="728.5" y="543.1055">compare(publishedAnnouncement1Date, publishedAnnouncement2Date)</text><polygon fill="#181818" points="1941.5,597.6563,1951.5,601.6563,1941.5,605.6563,1945.5,601.6563" style="stroke:#181818;stroke-width:1.0;"/><line style="stroke:#181818;stroke-width:1.0;" x1="706.5" x2="1947.5" y1="601.6563" y2="601.6563"/><text fill="#000000" font-family="sans-serif" font-size="20" font-weight="bold" lengthAdjust="spacing" textLength="22" x="713.5" y="595.2617">10</text><text fill="#000000" font-family="sans-serif" font-size="20" lengthAdjust="spacing" textLength="257" x="739.5" y="595.2617">add(publishedAnnouncement)</text><polygon fill="#181818" points="133.5,680.8125,123.5,684.8125,133.5,688.8125,129.5,684.8125" style="stroke:#181818;stroke-width:1.0;"/><line style="stroke:#181818;stroke-width:1.0;stroke-dasharray:2.0,2.0;" x1="127.5" x2="700.5" y1="684.8125" y2="684.8125"/><text fill="#000000" font-family="sans-serif" font-size="20" font-weight="bold" lengthAdjust="spacing" textLength="22" x="139.5" y="678.418">11</text><text fill="#000000" font-family="sans-serif" font-size="20" lengthAdjust="spacing" textLength="243" x="165.5" y="678.418">PublishedAnnouncementList</text><!--SRC=[bLN1Rjim3BtxAuYUac81kXw38S2mOi205XlMQo-gJ2T2PD6Gv0tPrqzo5bkof3ZJ9Ob8FZxoaOev2jKnpLf9_8WrrDYmNjglfEoh-8Fm-52PYmkqf8WVDBK8LlSOM3h6ZsoFh_Oa4JHoozHUXWxcm6hwBTGU6YODLXNhBQc-VKTTEGyhkEYOid2t_Tuqg9-G2oD8VN4yD4c9-WwO0Jx-d0Nzn8wCiAG5ci7J24_0fOWTTU3tfjAmq1v7_kZVfJ07h3yhHRtYsAAo3Y9xFs2nu2B6wd8n8vTJ2NNoIF0TxpX563Tqz8Lr7UhjcofO1iXs-7f3uS_2-EBznwUimowXw7oiavrRyOjP3AMiuD-Pxc2pcoI4BUpHVbF6JHN7rNhq7y4cjKVRvKme6uSPPDXEOf_Yi1gNW6EYuT2SkIx8vqg8uCPqqVWbfKHvaceMSXPBl9uphZJKyqgb9j0egJ5QYpIVnhdJC3W9NCXaCwFc8-xl7S4pshpTboE9EcX8Wsl60SQbZ1dc0hENAQlTV4Mlj6mbrcNKNElynjz2mwVTfD9bIHG1Wt6PSoZ6K6T1D8MsWjjb1wR8-dySeRpPFTeawpBWJT9xqQbr3nYkig_inoUNzmDaRO_UjlvV0kdeEGwihlFvrylekKvdT-16bSuFRoa8LLtb1zfRblTk-GrwpkOlaFqB]--></g></svg>