<?xml version="1.0" encoding="UTF-8" standalone="no"?><svg xmlns="http://www.w3.org/2000/svg" xmlns:xlink="http://www.w3.org/1999/xlink" contentStyleType="text/css" height="602px" preserveAspectRatio="none" style="width:1031px;height:602px;background:#FFFFFF;" version="1.1" viewBox="0 0 1031 602" width="1031px" zoomAndPan="magnify"><defs/><g><rect fill="#FFFFFF" height="443.0313" style="stroke:#181818;stroke-width:1.0;" width="10" x="112.5" y="80.3125"/><rect fill="#FFFFFF" height="412.875" style="stroke:#181818;stroke-width:1.0;" width="10" x="315.5" y="111.4688"/><rect fill="#FFFFFF" height="372.7188" style="stroke:#181818;stroke-width:1.0;" width="10" x="623.5" y="150.625"/><rect fill="none" height="350.7188" style="stroke:#000000;stroke-width:1.5;" width="459" x="565.5" y="165.625"/><rect fill="none" height="220.0938" style="stroke:#000000;stroke-width:1.5;" width="439" x="575.5" y="209.9375"/><rect fill="none" height="168.7813" style="stroke:#000000;stroke-width:1.5;" width="419" x="585.5" y="254.25"/><line style="stroke:#181818;stroke-width:0.5;stroke-dasharray:5.0,5.0;" x1="117" x2="117" y1="70.3125" y2="533.3438"/><line style="stroke:#181818;stroke-width:0.5;stroke-dasharray:5.0,5.0;" x1="320" x2="320" y1="70.3125" y2="533.3438"/><line style="stroke:#181818;stroke-width:0.5;stroke-dasharray:5.0,5.0;" x1="628.5" x2="628.5" y1="70.3125" y2="533.3438"/><rect fill="#E3E3E3" height="39.1563" rx="2.5" ry="2.5" style="stroke:#181818;stroke-width:0.5;" width="225" x="5" y="30.1563"/><text fill="#000000" font-family="sans-serif" font-size="20" lengthAdjust="spacing" textLength="211" x="12" y="57.918">:OfferDecisionController</text><rect fill="#E3E3E3" height="39.1563" rx="2.5" ry="2.5" style="stroke:#181818;stroke-width:0.5;" width="225" x="5" y="532.3438"/><text fill="#000000" font-family="sans-serif" font-size="20" lengthAdjust="spacing" textLength="211" x="12" y="560.1055">:OfferDecisionController</text><rect fill="#E3E3E3" height="64.3125" rx="2.5" ry="2.5" style="stroke:#181818;stroke-width:0.5;" width="161" x="240" y="5"/><text fill="#000000" font-family="sans-serif" font-size="20" lengthAdjust="spacing" textLength="136" x="252.5" y="32.7617">offerRepository</text><text fill="#000000" font-family="sans-serif" font-size="20" lengthAdjust="spacing" textLength="147" x="247" y="57.918">:OfferRepository</text><rect fill="#E3E3E3" height="64.3125" rx="2.5" ry="2.5" style="stroke:#181818;stroke-width:0.5;" width="161" x="240" y="532.3438"/><text fill="#000000" font-family="sans-serif" font-size="20" lengthAdjust="spacing" textLength="136" x="252.5" y="560.1055">offerRepository</text><text fill="#000000" font-family="sans-serif" font-size="20" lengthAdjust="spacing" textLength="147" x="247" y="585.2617">:OfferRepository</text><rect fill="#E3E3E3" height="64.3125" rx="2.5" ry="2.5" style="stroke:#181818;stroke-width:0.5;" width="66" x="595.5" y="5"/><text fill="#000000" font-family="sans-serif" font-size="20" lengthAdjust="spacing" textLength="46" x="605.5" y="32.7617">Offer</text><text fill="#000000" font-family="sans-serif" font-size="20" lengthAdjust="spacing" textLength="52" x="602.5" y="57.918">:Offer</text><rect fill="#E3E3E3" height="64.3125" rx="2.5" ry="2.5" style="stroke:#181818;stroke-width:0.5;" width="66" x="595.5" y="532.3438"/><text fill="#000000" font-family="sans-serif" font-size="20" lengthAdjust="spacing" textLength="46" x="605.5" y="560.1055">Offer</text><text fill="#000000" font-family="sans-serif" font-size="20" lengthAdjust="spacing" textLength="52" x="602.5" y="585.2617">:Offer</text><rect fill="#FFFFFF" height="443.0313" style="stroke:#181818;stroke-width:1.0;" width="10" x="112.5" y="80.3125"/><rect fill="#FFFFFF" height="412.875" style="stroke:#181818;stroke-width:1.0;" width="10" x="315.5" y="111.4688"/><rect fill="#FFFFFF" height="372.7188" style="stroke:#181818;stroke-width:1.0;" width="10" x="623.5" y="150.625"/><polygon fill="#181818" points="303.5,107.4688,313.5,111.4688,303.5,115.4688,307.5,111.4688" style="stroke:#181818;stroke-width:1.0;"/><line style="stroke:#181818;stroke-width:1.0;" x1="122.5" x2="309.5" y1="111.4688" y2="111.4688"/><text fill="#000000" font-family="sans-serif" font-size="20" font-weight="bold" lengthAdjust="spacing" textLength="11" x="129.5" y="105.0742">1</text><text fill="#000000" font-family="sans-serif" font-size="20" lengthAdjust="spacing" textLength="6" x="144.5" y="105.0742"> </text><polygon fill="#181818" points="611.5,146.625,621.5,150.625,611.5,154.625,615.5,150.625" style="stroke:#181818;stroke-width:1.0;"/><line style="stroke:#181818;stroke-width:1.0;" x1="325.5" x2="617.5" y1="150.625" y2="150.625"/><text fill="#000000" font-family="sans-serif" font-size="20" font-weight="bold" lengthAdjust="spacing" textLength="11" x="332.5" y="144.2305">2</text><text fill="#000000" font-family="sans-serif" font-size="20" lengthAdjust="spacing" textLength="264" x="347.5" y="144.2305">sendOfferStatus(offer, status)</text><path d="M565.5,165.625 L633.5,165.625 L633.5,182.7813 L623.5,192.7813 L565.5,192.7813 L565.5,165.625 " fill="#EEEEEE" style="stroke:#000000;stroke-width:1.5;"/><rect fill="none" height="350.7188" style="stroke:#000000;stroke-width:1.5;" width="459" x="565.5" y="165.625"/><text fill="#000000" font-family="sans-serif" font-size="20" font-weight="bold" lengthAdjust="spacing" textLength="23" x="580.5" y="187.3867">alt</text><text fill="#000000" font-family="sans-serif" font-size="20" font-weight="bold" lengthAdjust="spacing" textLength="213" x="648.5" y="188.3867">[if status == accepted]</text><path d="M575.5,209.9375 L661.5,209.9375 L661.5,227.0938 L651.5,237.0938 L575.5,237.0938 L575.5,209.9375 " fill="#EEEEEE" style="stroke:#000000;stroke-width:1.5;"/><rect fill="none" height="220.0938" style="stroke:#000000;stroke-width:1.5;" width="439" x="575.5" y="209.9375"/><text fill="#000000" font-family="sans-serif" font-size="20" font-weight="bold" lengthAdjust="spacing" textLength="41" x="590.5" y="231.6992">loop</text><text fill="#000000" font-family="sans-serif" font-size="20" font-weight="bold" lengthAdjust="spacing" textLength="150" x="676.5" y="232.6992">[for every offer]</text><path d="M585.5,254.25 L653.5,254.25 L653.5,271.4063 L643.5,281.4063 L585.5,281.4063 L585.5,254.25 " fill="#EEEEEE" style="stroke:#000000;stroke-width:1.5;"/><rect fill="none" height="168.7813" style="stroke:#000000;stroke-width:1.5;" width="419" x="585.5" y="254.25"/><text fill="#000000" font-family="sans-serif" font-size="20" font-weight="bold" lengthAdjust="spacing" textLength="23" x="600.5" y="276.0117">alt</text><text fill="#000000" font-family="sans-serif" font-size="20" font-weight="bold" lengthAdjust="spacing" textLength="331" x="668.5" y="277.0117">[if it is the offer that was accepted]</text><line style="stroke:#181818;stroke-width:1.0;stroke-dasharray:2.0,2.0;" x1="633.5" x2="675.5" y1="322.7188" y2="322.7188"/><line style="stroke:#181818;stroke-width:1.0;stroke-dasharray:2.0,2.0;" x1="675.5" x2="675.5" y1="322.7188" y2="335.7188"/><line style="stroke:#181818;stroke-width:1.0;stroke-dasharray:2.0,2.0;" x1="634.5" x2="675.5" y1="335.7188" y2="335.7188"/><polygon fill="#181818" points="644.5,331.7188,634.5,335.7188,644.5,339.7188,640.5,335.7188" style="stroke:#181818;stroke-width:1.0;"/><text fill="#000000" font-family="sans-serif" font-size="20" font-weight="bold" lengthAdjust="spacing" textLength="11" x="640.5" y="316.3242">3</text><text fill="#000000" font-family="sans-serif" font-size="20" lengthAdjust="spacing" textLength="239" x="655.5" y="316.3242">changeStatusToAccepted()</text><line style="stroke:#000000;stroke-width:1.0;stroke-dasharray:2.0,2.0;" x1="585.5" x2="1004.5" y1="344.7188" y2="344.7188"/><text fill="#000000" font-family="sans-serif" font-size="20" font-weight="bold" lengthAdjust="spacing" textLength="213" x="590.5" y="365.4805">[if it is any other offer]</text><line style="stroke:#181818;stroke-width:1.0;stroke-dasharray:2.0,2.0;" x1="633.5" x2="675.5" y1="402.0313" y2="402.0313"/><line style="stroke:#181818;stroke-width:1.0;stroke-dasharray:2.0,2.0;" x1="675.5" x2="675.5" y1="402.0313" y2="415.0313"/><line style="stroke:#181818;stroke-width:1.0;stroke-dasharray:2.0,2.0;" x1="634.5" x2="675.5" y1="415.0313" y2="415.0313"/><polygon fill="#181818" points="644.5,411.0313,634.5,415.0313,644.5,419.0313,640.5,415.0313" style="stroke:#181818;stroke-width:1.0;"/><text fill="#000000" font-family="sans-serif" font-size="20" font-weight="bold" lengthAdjust="spacing" textLength="11" x="640.5" y="395.6367">4</text><text fill="#000000" font-family="sans-serif" font-size="20" lengthAdjust="spacing" textLength="231" x="655.5" y="395.6367">changeStatusToDeclined()</text><line style="stroke:#000000;stroke-width:1.0;stroke-dasharray:2.0,2.0;" x1="565.5" x2="1024.5" y1="438.0313" y2="438.0313"/><text fill="#000000" font-family="sans-serif" font-size="20" font-weight="bold" lengthAdjust="spacing" textLength="206" x="570.5" y="458.793">[if status == declined]</text><line style="stroke:#181818;stroke-width:1.0;stroke-dasharray:2.0,2.0;" x1="633.5" x2="675.5" y1="495.3438" y2="495.3438"/><line style="stroke:#181818;stroke-width:1.0;stroke-dasharray:2.0,2.0;" x1="675.5" x2="675.5" y1="495.3438" y2="508.3438"/><line style="stroke:#181818;stroke-width:1.0;stroke-dasharray:2.0,2.0;" x1="634.5" x2="675.5" y1="508.3438" y2="508.3438"/><polygon fill="#181818" points="644.5,504.3438,634.5,508.3438,644.5,512.3438,640.5,508.3438" style="stroke:#181818;stroke-width:1.0;"/><text fill="#000000" font-family="sans-serif" font-size="20" font-weight="bold" lengthAdjust="spacing" textLength="11" x="640.5" y="488.9492">5</text><text fill="#000000" font-family="sans-serif" font-size="20" lengthAdjust="spacing" textLength="239" x="655.5" y="488.9492">changeStatusToAccepted()</text><!--SRC=[hLBDQiCm3BxxAKHFBQmmTYnqC3Ps7ImxxgBPIcFgMC5MMhgddvicJUhHZS5q2B7o_SbHt5hVOC3QiTwI0KCbjawUsKjXFmdkRbKS852pPrq5hWaaj3Jvqg3UueOAEJY2G5hGRzmK42iqlBT-0oMwI4fXA-pR-eE2IWYnsZRe1MQhbxAay4JQHil-CUK8x1o56M04VJvUalZ8UQM6enKEXtT_KXax7Rj3XNFlKg8Z3CGHhb9IBNQ7GbFtyHMMzxamh60avQOvTg2l898tdNiXA6sST-qRYDrfaIagw0kTW2rx5ApNW5fJ8sJEYA4SSmCb1w0T9UDBcRnwMPkU4QJgNTCR2kpJvLnroUl4MmvZfhlHLLeEEWtvnW-zq7nnLOhImenXqAViAL7uPOA_1aahvwp_EOZ_Fk-qDmGTVuRfHTK_NClHoL2s1fF6P3s_0000]--></g></svg>