<?xml version="1.0" encoding="UTF-8" standalone="no"?><svg xmlns="http://www.w3.org/2000/svg" xmlns:xlink="http://www.w3.org/1999/xlink" contentStyleType="text/css" height="1749px" preserveAspectRatio="none" style="width:3765px;height:1749px;background:#FFFFFF;" version="1.1" viewBox="0 0 3765 1749" width="3765px" zoomAndPan="magnify"><defs/><g><!--class OfferDecisionUI--><g id="elem_OfferDecisionUI"><rect codeLine="6" fill="#F1F1F1" height="168.9375" id="OfferDecisionUI" rx="2.5" ry="2.5" style="stroke:#181818;stroke-width:0.5;" width="582" x="1449" y="115"/><ellipse cx="1666" cy="132.5781" fill="#ADD1B2" rx="12" ry="12" style="stroke:#181818;stroke-width:1.0;"/><path d="M1668.1406,127.5 Q1668.3281,127.25 1668.5469,127.125 Q1668.7656,126.9844 1669.0156,126.9844 Q1669.4531,126.9844 1669.7344,127.2969 Q1670.0156,127.5938 1670.0156,128.3125 L1670.0156,130.0156 Q1670.0156,130.7344 1669.7344,131.0469 Q1669.4531,131.3594 1669.0156,131.3594 Q1668.625,131.3594 1668.375,131.125 Q1668.125,130.9063 1668.0156,130.2969 Q1667.9531,129.875 1667.7344,129.6563 Q1667.3438,129.2188 1666.625,128.9531 Q1665.9063,128.6875 1665.1875,128.6875 Q1664.2813,128.6875 1663.5313,129.0781 Q1662.7813,129.4688 1662.2031,130.3594 Q1661.625,131.2344 1661.625,132.4375 L1661.625,133.7344 Q1661.625,135.1875 1662.6719,136.1563 Q1663.7344,137.125 1665.5938,137.125 Q1666.7031,137.125 1667.4844,136.8125 Q1667.9219,136.6406 1668.4375,136.125 Q1668.75,135.8125 1668.9219,135.7188 Q1669.0938,135.625 1669.3281,135.625 Q1669.7188,135.625 1670.0156,135.9375 Q1670.3281,136.2344 1670.3281,136.6406 Q1670.3281,137.0469 1669.9219,137.5156 Q1669.3281,138.2031 1668.3906,138.5938 Q1667.125,139.125 1665.6094,139.125 Q1663.8281,139.125 1662.4063,138.3906 Q1661.25,137.7969 1660.4375,136.5313 Q1659.625,135.2656 1659.625,133.7813 L1659.625,132.4219 Q1659.625,130.8594 1660.3438,129.5156 Q1661.0781,128.1563 1662.3594,127.4219 Q1663.6563,126.6875 1665.1094,126.6875 Q1665.9688,126.6875 1666.7188,126.8906 Q1667.4844,127.0938 1668.1406,127.5 Z " fill="#000000"/><text fill="#000000" font-family="sans-serif" font-size="20" lengthAdjust="spacing" textLength="139" x="1688" y="140.7617">OfferDecisionUI</text><line style="stroke:#181818;stroke-width:0.5;" x1="1450" x2="2030" y1="150.1563" y2="150.1563"/><ellipse cx="1460" cy="168.2344" fill="#84BE84" rx="3" ry="3" style="stroke:#038048;stroke-width:1.0;"/><text fill="#000000" font-family="sans-serif" font-size="20" lengthAdjust="spacing" textLength="412" x="1470" y="174.918">getOffersList(): List&lt;AnnouncementOfferDTO&gt;</text><ellipse cx="1460" cy="193.3906" fill="#84BE84" rx="3" ry="3" style="stroke:#038048;stroke-width:1.0;"/><text fill="#000000" font-family="sans-serif" font-size="20" lengthAdjust="spacing" textLength="202" x="1470" y="200.0742">keepOffer(offer: Offer)</text><ellipse cx="1460" cy="218.5469" fill="#84BE84" rx="3" ry="3" style="stroke:#038048;stroke-width:1.0;"/><text fill="#000000" font-family="sans-serif" font-size="20" lengthAdjust="spacing" textLength="218" x="1470" y="225.2305">acceptOffer(offer: Offer)</text><ellipse cx="1460" cy="243.7031" fill="#84BE84" rx="3" ry="3" style="stroke:#038048;stroke-width:1.0;"/><text fill="#000000" font-family="sans-serif" font-size="20" lengthAdjust="spacing" textLength="220" x="1470" y="250.3867">declineOffer(offer: Offer)</text><ellipse cx="1460" cy="268.8594" fill="#84BE84" rx="3" ry="3" style="stroke:#038048;stroke-width:1.0;"/><text fill="#000000" font-family="sans-serif" font-size="20" lengthAdjust="spacing" textLength="555" x="1470" y="275.543">sendVisualizedEmail(email: String, subject: String, body: String)</text></g><!--class OfferDecisionController--><g id="elem_OfferDecisionController"><rect codeLine="14" fill="#F1F1F1" height="176.9375" id="OfferDecisionController" rx="2.5" ry="2.5" style="stroke:#181818;stroke-width:0.5;" width="713" x="1084.5" y="324"/><ellipse cx="1334" cy="341.5781" fill="#ADD1B2" rx="12" ry="12" style="stroke:#181818;stroke-width:1.0;"/><path d="M1336.1406,336.5 Q1336.3281,336.25 1336.5469,336.125 Q1336.7656,335.9844 1337.0156,335.9844 Q1337.4531,335.9844 1337.7344,336.2969 Q1338.0156,336.5938 1338.0156,337.3125 L1338.0156,339.0156 Q1338.0156,339.7344 1337.7344,340.0469 Q1337.4531,340.3594 1337.0156,340.3594 Q1336.625,340.3594 1336.375,340.125 Q1336.125,339.9063 1336.0156,339.2969 Q1335.9531,338.875 1335.7344,338.6563 Q1335.3438,338.2188 1334.625,337.9531 Q1333.9063,337.6875 1333.1875,337.6875 Q1332.2813,337.6875 1331.5313,338.0781 Q1330.7813,338.4688 1330.2031,339.3594 Q1329.625,340.2344 1329.625,341.4375 L1329.625,342.7344 Q1329.625,344.1875 1330.6719,345.1563 Q1331.7344,346.125 1333.5938,346.125 Q1334.7031,346.125 1335.4844,345.8125 Q1335.9219,345.6406 1336.4375,345.125 Q1336.75,344.8125 1336.9219,344.7188 Q1337.0938,344.625 1337.3281,344.625 Q1337.7188,344.625 1338.0156,344.9375 Q1338.3281,345.2344 1338.3281,345.6406 Q1338.3281,346.0469 1337.9219,346.5156 Q1337.3281,347.2031 1336.3906,347.5938 Q1335.125,348.125 1333.6094,348.125 Q1331.8281,348.125 1330.4063,347.3906 Q1329.25,346.7969 1328.4375,345.5313 Q1327.625,344.2656 1327.625,342.7813 L1327.625,341.4219 Q1327.625,339.8594 1328.3438,338.5156 Q1329.0781,337.1563 1330.3594,336.4219 Q1331.6563,335.6875 1333.1094,335.6875 Q1333.9688,335.6875 1334.7188,335.8906 Q1335.4844,336.0938 1336.1406,336.5 Z " fill="#000000"/><text fill="#000000" font-family="sans-serif" font-size="20" lengthAdjust="spacing" textLength="205" x="1356" y="349.7617">OfferDecisionController</text><line style="stroke:#181818;stroke-width:0.5;" x1="1085.5" x2="1796.5" y1="359.1563" y2="359.1563"/><rect fill="none" height="6" style="stroke:#C82930;stroke-width:1.0;" width="6" x="1092.5" y="374.2344"/><text fill="#000000" font-family="sans-serif" font-size="20" lengthAdjust="spacing" textLength="225" x="1105.5" y="383.918">repositories: Repositories</text><line style="stroke:#181818;stroke-width:0.5;" x1="1085.5" x2="1796.5" y1="392.3125" y2="392.3125"/><ellipse cx="1095.5" cy="410.3906" fill="#84BE84" rx="3" ry="3" style="stroke:#038048;stroke-width:1.0;"/><text fill="#000000" font-family="sans-serif" font-size="20" lengthAdjust="spacing" textLength="412" x="1105.5" y="417.0742">getOffersList(): List&lt;AnnouncementOfferDTO&gt;</text><ellipse cx="1095.5" cy="435.5469" fill="#84BE84" rx="3" ry="3" style="stroke:#038048;stroke-width:1.0;"/><text fill="#000000" font-family="sans-serif" font-size="20" lengthAdjust="spacing" textLength="487" x="1105.5" y="442.2305">declineOtherOffers(offer: Offer, offersList: List&lt;Offer&gt;)</text><ellipse cx="1095.5" cy="460.7031" fill="#84BE84" rx="3" ry="3" style="stroke:#038048;stroke-width:1.0;"/><text fill="#000000" font-family="sans-serif" font-size="20" lengthAdjust="spacing" textLength="686" x="1105.5" y="467.3867">changeAnnouncementState(publishedAnnouncement: PublishedAnnouncement)</text><ellipse cx="1095.5" cy="485.8594" fill="#84BE84" rx="3" ry="3" style="stroke:#038048;stroke-width:1.0;"/><text fill="#000000" font-family="sans-serif" font-size="20" lengthAdjust="spacing" textLength="260" x="1105.5" y="492.543">storeDecrement(store: Store)</text></g><!--class Repositories--><g id="elem_Repositories"><rect codeLine="22" fill="#F1F1F1" height="118.625" id="Repositories" rx="2.5" ry="2.5" style="stroke:#181818;stroke-width:0.5;" width="695" x="833.5" y="541"/><ellipse cx="1121.5" cy="558.5781" fill="#ADD1B2" rx="12" ry="12" style="stroke:#181818;stroke-width:1.0;"/><path d="M1123.6406,553.5 Q1123.8281,553.25 1124.0469,553.125 Q1124.2656,552.9844 1124.5156,552.9844 Q1124.9531,552.9844 1125.2344,553.2969 Q1125.5156,553.5938 1125.5156,554.3125 L1125.5156,556.0156 Q1125.5156,556.7344 1125.2344,557.0469 Q1124.9531,557.3594 1124.5156,557.3594 Q1124.125,557.3594 1123.875,557.125 Q1123.625,556.9063 1123.5156,556.2969 Q1123.4531,555.875 1123.2344,555.6563 Q1122.8438,555.2188 1122.125,554.9531 Q1121.4063,554.6875 1120.6875,554.6875 Q1119.7813,554.6875 1119.0313,555.0781 Q1118.2813,555.4688 1117.7031,556.3594 Q1117.125,557.2344 1117.125,558.4375 L1117.125,559.7344 Q1117.125,561.1875 1118.1719,562.1563 Q1119.2344,563.125 1121.0938,563.125 Q1122.2031,563.125 1122.9844,562.8125 Q1123.4219,562.6406 1123.9375,562.125 Q1124.25,561.8125 1124.4219,561.7188 Q1124.5938,561.625 1124.8281,561.625 Q1125.2188,561.625 1125.5156,561.9375 Q1125.8281,562.2344 1125.8281,562.6406 Q1125.8281,563.0469 1125.4219,563.5156 Q1124.8281,564.2031 1123.8906,564.5938 Q1122.625,565.125 1121.1094,565.125 Q1119.3281,565.125 1117.9063,564.3906 Q1116.75,563.7969 1115.9375,562.5313 Q1115.125,561.2656 1115.125,559.7813 L1115.125,558.4219 Q1115.125,556.8594 1115.8438,555.5156 Q1116.5781,554.1563 1117.8594,553.4219 Q1119.1563,552.6875 1120.6094,552.6875 Q1121.4688,552.6875 1122.2188,552.8906 Q1122.9844,553.0938 1123.6406,553.5 Z " fill="#000000"/><text fill="#000000" font-family="sans-serif" font-size="20" lengthAdjust="spacing" textLength="110" x="1143.5" y="566.7617">Repositories</text><line style="stroke:#181818;stroke-width:0.5;" x1="834.5" x2="1527.5" y1="576.1563" y2="576.1563"/><ellipse cx="844.5" cy="594.2344" fill="#84BE84" rx="3" ry="3" style="stroke:#038048;stroke-width:1.0;"/><text fill="#000000" font-family="sans-serif" font-size="20" lengthAdjust="spacing" textLength="668" x="854.5" y="600.918">getPublishedAnnouncementRepository(): PublishedAnnouncementRepository</text><ellipse cx="844.5" cy="619.3906" fill="#84BE84" rx="3" ry="3" style="stroke:#038048;stroke-width:1.0;"/><text fill="#000000" font-family="sans-serif" font-size="20" lengthAdjust="spacing" textLength="336" x="854.5" y="626.0742">getOfferRepository(): OfferRepository</text><ellipse cx="844.5" cy="644.5469" fill="#84BE84" rx="3" ry="3" style="stroke:#038048;stroke-width:1.0;"/><text fill="#000000" font-family="sans-serif" font-size="20" lengthAdjust="spacing" textLength="340" x="854.5" y="651.2305">getStoreRepository(): StoreRepository</text></g><!--class PublishedAnnouncement--><g id="elem_PublishedAnnouncement"><rect codeLine="28" fill="#F1F1F1" height="118.625" id="PublishedAnnouncement" rx="2.5" ry="2.5" style="stroke:#181818;stroke-width:0.5;" width="713" x="1068.5" y="1490"/><ellipse cx="1314.5" cy="1507.5781" fill="#ADD1B2" rx="12" ry="12" style="stroke:#181818;stroke-width:1.0;"/><path d="M1316.6406,1502.5 Q1316.8281,1502.25 1317.0469,1502.125 Q1317.2656,1501.9844 1317.5156,1501.9844 Q1317.9531,1501.9844 1318.2344,1502.2969 Q1318.5156,1502.5938 1318.5156,1503.3125 L1318.5156,1505.0156 Q1318.5156,1505.7344 1318.2344,1506.0469 Q1317.9531,1506.3594 1317.5156,1506.3594 Q1317.125,1506.3594 1316.875,1506.125 Q1316.625,1505.9063 1316.5156,1505.2969 Q1316.4531,1504.875 1316.2344,1504.6563 Q1315.8438,1504.2188 1315.125,1503.9531 Q1314.4063,1503.6875 1313.6875,1503.6875 Q1312.7813,1503.6875 1312.0313,1504.0781 Q1311.2813,1504.4688 1310.7031,1505.3594 Q1310.125,1506.2344 1310.125,1507.4375 L1310.125,1508.7344 Q1310.125,1510.1875 1311.1719,1511.1563 Q1312.2344,1512.125 1314.0938,1512.125 Q1315.2031,1512.125 1315.9844,1511.8125 Q1316.4219,1511.6406 1316.9375,1511.125 Q1317.25,1510.8125 1317.4219,1510.7188 Q1317.5938,1510.625 1317.8281,1510.625 Q1318.2188,1510.625 1318.5156,1510.9375 Q1318.8281,1511.2344 1318.8281,1511.6406 Q1318.8281,1512.0469 1318.4219,1512.5156 Q1317.8281,1513.2031 1316.8906,1513.5938 Q1315.625,1514.125 1314.1094,1514.125 Q1312.3281,1514.125 1310.9063,1513.3906 Q1309.75,1512.7969 1308.9375,1511.5313 Q1308.125,1510.2656 1308.125,1508.7813 L1308.125,1507.4219 Q1308.125,1505.8594 1308.8438,1504.5156 Q1309.5781,1503.1563 1310.8594,1502.4219 Q1312.1563,1501.6875 1313.6094,1501.6875 Q1314.4688,1501.6875 1315.2188,1501.8906 Q1315.9844,1502.0938 1316.6406,1502.5 Z " fill="#000000"/><text fill="#000000" font-family="sans-serif" font-size="20" lengthAdjust="spacing" textLength="212" x="1336.5" y="1515.7617">PublishedAnnouncement</text><line style="stroke:#181818;stroke-width:0.5;" x1="1069.5" x2="1780.5" y1="1525.1563" y2="1525.1563"/><ellipse cx="1079.5" cy="1543.2344" fill="#84BE84" rx="3" ry="3" style="stroke:#038048;stroke-width:1.0;"/><text fill="#000000" font-family="sans-serif" font-size="20" lengthAdjust="spacing" textLength="543" x="1089.5" y="1549.918">getPublishedAnnouncements(): List&lt;PublishedAnnouncement&gt;</text><ellipse cx="1079.5" cy="1568.3906" fill="#84BE84" rx="3" ry="3" style="stroke:#038048;stroke-width:1.0;"/><text fill="#000000" font-family="sans-serif" font-size="20" lengthAdjust="spacing" textLength="343" x="1089.5" y="1575.0742">compare(date1: Date, date2: Date): int</text><ellipse cx="1079.5" cy="1593.5469" fill="#84BE84" rx="3" ry="3" style="stroke:#038048;stroke-width:1.0;"/><text fill="#000000" font-family="sans-serif" font-size="20" lengthAdjust="spacing" textLength="686" x="1089.5" y="1600.2305">changeAnnouncementState(publishedAnnouncement: PublishedAnnouncement)</text></g><!--class Offer--><g id="elem_Offer"><rect codeLine="34" fill="#F1F1F1" height="118.625" id="Offer" rx="2.5" ry="2.5" style="stroke:#181818;stroke-width:0.5;" width="376" x="646" y="859"/><ellipse cx="806.5" cy="876.5781" fill="#ADD1B2" rx="12" ry="12" style="stroke:#181818;stroke-width:1.0;"/><path d="M808.6406,871.5 Q808.8281,871.25 809.0469,871.125 Q809.2656,870.9844 809.5156,870.9844 Q809.9531,870.9844 810.2344,871.2969 Q810.5156,871.5938 810.5156,872.3125 L810.5156,874.0156 Q810.5156,874.7344 810.2344,875.0469 Q809.9531,875.3594 809.5156,875.3594 Q809.125,875.3594 808.875,875.125 Q808.625,874.9063 808.5156,874.2969 Q808.4531,873.875 808.2344,873.6563 Q807.8438,873.2188 807.125,872.9531 Q806.4063,872.6875 805.6875,872.6875 Q804.7813,872.6875 804.0313,873.0781 Q803.2813,873.4688 802.7031,874.3594 Q802.125,875.2344 802.125,876.4375 L802.125,877.7344 Q802.125,879.1875 803.1719,880.1563 Q804.2344,881.125 806.0938,881.125 Q807.2031,881.125 807.9844,880.8125 Q808.4219,880.6406 808.9375,880.125 Q809.25,879.8125 809.4219,879.7188 Q809.5938,879.625 809.8281,879.625 Q810.2188,879.625 810.5156,879.9375 Q810.8281,880.2344 810.8281,880.6406 Q810.8281,881.0469 810.4219,881.5156 Q809.8281,882.2031 808.8906,882.5938 Q807.625,883.125 806.1094,883.125 Q804.3281,883.125 802.9063,882.3906 Q801.75,881.7969 800.9375,880.5313 Q800.125,879.2656 800.125,877.7813 L800.125,876.4219 Q800.125,874.8594 800.8438,873.5156 Q801.5781,872.1563 802.8594,871.4219 Q804.1563,870.6875 805.6094,870.6875 Q806.4688,870.6875 807.2188,870.8906 Q807.9844,871.0938 808.6406,871.5 Z " fill="#000000"/><text fill="#000000" font-family="sans-serif" font-size="20" lengthAdjust="spacing" textLength="46" x="828.5" y="884.7617">Offer</text><line style="stroke:#181818;stroke-width:0.5;" x1="647" x2="1021" y1="894.1563" y2="894.1563"/><ellipse cx="657" cy="912.2344" fill="#84BE84" rx="3" ry="3" style="stroke:#038048;stroke-width:1.0;"/><text fill="#000000" font-family="sans-serif" font-size="20" lengthAdjust="spacing" textLength="308" x="667" y="918.918">getOffer(property: Property): Offer</text><ellipse cx="657" cy="937.3906" fill="#84BE84" rx="3" ry="3" style="stroke:#038048;stroke-width:1.0;"/><text fill="#000000" font-family="sans-serif" font-size="20" lengthAdjust="spacing" textLength="349" x="667" y="944.0742">compare(amount1: int, amount2: int): int</text><ellipse cx="657" cy="962.5469" fill="#84BE84" rx="3" ry="3" style="stroke:#038048;stroke-width:1.0;"/><text fill="#000000" font-family="sans-serif" font-size="20" lengthAdjust="spacing" textLength="327" x="667" y="969.2305">setOfferState(offerState: OfferState)</text></g><!--class Store--><g id="elem_Store"><rect codeLine="40" fill="#F1F1F1" height="68.3125" id="Store" rx="2.5" ry="2.5" style="stroke:#181818;stroke-width:0.5;" width="315" x="1259.5" y="884.5"/><ellipse cx="1388.5" cy="902.0781" fill="#ADD1B2" rx="12" ry="12" style="stroke:#181818;stroke-width:1.0;"/><path d="M1390.6406,897 Q1390.8281,896.75 1391.0469,896.625 Q1391.2656,896.4844 1391.5156,896.4844 Q1391.9531,896.4844 1392.2344,896.7969 Q1392.5156,897.0938 1392.5156,897.8125 L1392.5156,899.5156 Q1392.5156,900.2344 1392.2344,900.5469 Q1391.9531,900.8594 1391.5156,900.8594 Q1391.125,900.8594 1390.875,900.625 Q1390.625,900.4063 1390.5156,899.7969 Q1390.4531,899.375 1390.2344,899.1563 Q1389.8438,898.7188 1389.125,898.4531 Q1388.4063,898.1875 1387.6875,898.1875 Q1386.7813,898.1875 1386.0313,898.5781 Q1385.2813,898.9688 1384.7031,899.8594 Q1384.125,900.7344 1384.125,901.9375 L1384.125,903.2344 Q1384.125,904.6875 1385.1719,905.6563 Q1386.2344,906.625 1388.0938,906.625 Q1389.2031,906.625 1389.9844,906.3125 Q1390.4219,906.1406 1390.9375,905.625 Q1391.25,905.3125 1391.4219,905.2188 Q1391.5938,905.125 1391.8281,905.125 Q1392.2188,905.125 1392.5156,905.4375 Q1392.8281,905.7344 1392.8281,906.1406 Q1392.8281,906.5469 1392.4219,907.0156 Q1391.8281,907.7031 1390.8906,908.0938 Q1389.625,908.625 1388.1094,908.625 Q1386.3281,908.625 1384.9063,907.8906 Q1383.75,907.2969 1382.9375,906.0313 Q1382.125,904.7656 1382.125,903.2813 L1382.125,901.9219 Q1382.125,900.3594 1382.8438,899.0156 Q1383.5781,897.6563 1384.8594,896.9219 Q1386.1563,896.1875 1387.6094,896.1875 Q1388.4688,896.1875 1389.2188,896.3906 Q1389.9844,896.5938 1390.6406,897 Z " fill="#000000"/><text fill="#000000" font-family="sans-serif" font-size="20" lengthAdjust="spacing" textLength="48" x="1410.5" y="910.2617">Store</text><line style="stroke:#181818;stroke-width:0.5;" x1="1260.5" x2="1573.5" y1="919.6563" y2="919.6563"/><ellipse cx="1270.5" cy="937.7344" fill="#84BE84" rx="3" ry="3" style="stroke:#038048;stroke-width:1.0;"/><text fill="#000000" font-family="sans-serif" font-size="20" lengthAdjust="spacing" textLength="288" x="1280.5" y="944.418">decrementAvailableListing(): void</text></g><!--class PublishedAnnouncementRepository--><g id="elem_PublishedAnnouncementRepository"><rect codeLine="44" fill="#F1F1F1" height="68.3125" id="PublishedAnnouncementRepository" rx="2.5" ry="2.5" style="stroke:#181818;stroke-width:0.5;" width="582" x="1134" y="1382"/><ellipse cx="1267" cy="1399.5781" fill="#ADD1B2" rx="12" ry="12" style="stroke:#181818;stroke-width:1.0;"/><path d="M1269.1406,1394.5 Q1269.3281,1394.25 1269.5469,1394.125 Q1269.7656,1393.9844 1270.0156,1393.9844 Q1270.4531,1393.9844 1270.7344,1394.2969 Q1271.0156,1394.5938 1271.0156,1395.3125 L1271.0156,1397.0156 Q1271.0156,1397.7344 1270.7344,1398.0469 Q1270.4531,1398.3594 1270.0156,1398.3594 Q1269.625,1398.3594 1269.375,1398.125 Q1269.125,1397.9063 1269.0156,1397.2969 Q1268.9531,1396.875 1268.7344,1396.6563 Q1268.3438,1396.2188 1267.625,1395.9531 Q1266.9063,1395.6875 1266.1875,1395.6875 Q1265.2813,1395.6875 1264.5313,1396.0781 Q1263.7813,1396.4688 1263.2031,1397.3594 Q1262.625,1398.2344 1262.625,1399.4375 L1262.625,1400.7344 Q1262.625,1402.1875 1263.6719,1403.1563 Q1264.7344,1404.125 1266.5938,1404.125 Q1267.7031,1404.125 1268.4844,1403.8125 Q1268.9219,1403.6406 1269.4375,1403.125 Q1269.75,1402.8125 1269.9219,1402.7188 Q1270.0938,1402.625 1270.3281,1402.625 Q1270.7188,1402.625 1271.0156,1402.9375 Q1271.3281,1403.2344 1271.3281,1403.6406 Q1271.3281,1404.0469 1270.9219,1404.5156 Q1270.3281,1405.2031 1269.3906,1405.5938 Q1268.125,1406.125 1266.6094,1406.125 Q1264.8281,1406.125 1263.4063,1405.3906 Q1262.25,1404.7969 1261.4375,1403.5313 Q1260.625,1402.2656 1260.625,1400.7813 L1260.625,1399.4219 Q1260.625,1397.8594 1261.3438,1396.5156 Q1262.0781,1395.1563 1263.3594,1394.4219 Q1264.6563,1393.6875 1266.1094,1393.6875 Q1266.9688,1393.6875 1267.7188,1393.8906 Q1268.4844,1394.0938 1269.1406,1394.5 Z " fill="#000000"/><text fill="#000000" font-family="sans-serif" font-size="20" lengthAdjust="spacing" textLength="307" x="1289" y="1407.7617">PublishedAnnouncementRepository</text><line style="stroke:#181818;stroke-width:0.5;" x1="1135" x2="1715" y1="1417.1563" y2="1417.1563"/><ellipse cx="1145" cy="1435.2344" fill="#84BE84" rx="3" ry="3" style="stroke:#038048;stroke-width:1.0;"/><text fill="#000000" font-family="sans-serif" font-size="20" lengthAdjust="spacing" textLength="555" x="1155" y="1441.918">getPublishedAnnouncement(index: int): PublishedAnnouncement</text></g><!--class OfferRepository--><g id="elem_OfferRepository"><rect codeLine="48" fill="#F1F1F1" height="118.625" id="OfferRepository" rx="2.5" ry="2.5" style="stroke:#181818;stroke-width:0.5;" width="514" x="577" y="700"/><ellipse cx="759" cy="717.5781" fill="#ADD1B2" rx="12" ry="12" style="stroke:#181818;stroke-width:1.0;"/><path d="M761.1406,712.5 Q761.3281,712.25 761.5469,712.125 Q761.7656,711.9844 762.0156,711.9844 Q762.4531,711.9844 762.7344,712.2969 Q763.0156,712.5938 763.0156,713.3125 L763.0156,715.0156 Q763.0156,715.7344 762.7344,716.0469 Q762.4531,716.3594 762.0156,716.3594 Q761.625,716.3594 761.375,716.125 Q761.125,715.9063 761.0156,715.2969 Q760.9531,714.875 760.7344,714.6563 Q760.3438,714.2188 759.625,713.9531 Q758.9063,713.6875 758.1875,713.6875 Q757.2813,713.6875 756.5313,714.0781 Q755.7813,714.4688 755.2031,715.3594 Q754.625,716.2344 754.625,717.4375 L754.625,718.7344 Q754.625,720.1875 755.6719,721.1563 Q756.7344,722.125 758.5938,722.125 Q759.7031,722.125 760.4844,721.8125 Q760.9219,721.6406 761.4375,721.125 Q761.75,720.8125 761.9219,720.7188 Q762.0938,720.625 762.3281,720.625 Q762.7188,720.625 763.0156,720.9375 Q763.3281,721.2344 763.3281,721.6406 Q763.3281,722.0469 762.9219,722.5156 Q762.3281,723.2031 761.3906,723.5938 Q760.125,724.125 758.6094,724.125 Q756.8281,724.125 755.4063,723.3906 Q754.25,722.7969 753.4375,721.5313 Q752.625,720.2656 752.625,718.7813 L752.625,717.4219 Q752.625,715.8594 753.3438,714.5156 Q754.0781,713.1563 755.3594,712.4219 Q756.6563,711.6875 758.1094,711.6875 Q758.9688,711.6875 759.7188,711.8906 Q760.4844,712.0938 761.1406,712.5 Z " fill="#000000"/><text fill="#000000" font-family="sans-serif" font-size="20" lengthAdjust="spacing" textLength="141" x="781" y="725.7617">OfferRepository</text><line style="stroke:#181818;stroke-width:0.5;" x1="578" x2="1090" y1="735.1563" y2="735.1563"/><ellipse cx="588" cy="753.2344" fill="#84BE84" rx="3" ry="3" style="stroke:#038048;stroke-width:1.0;"/><text fill="#000000" font-family="sans-serif" font-size="20" lengthAdjust="spacing" textLength="308" x="598" y="759.918">getOffer(property: Property): Offer</text><ellipse cx="588" cy="778.3906" fill="#84BE84" rx="3" ry="3" style="stroke:#038048;stroke-width:1.0;"/><text fill="#000000" font-family="sans-serif" font-size="20" lengthAdjust="spacing" textLength="487" x="598" y="785.0742">declineOtherOffers(offer: Offer, offersList: List&lt;Offer&gt;)</text><ellipse cx="588" cy="803.5469" fill="#84BE84" rx="3" ry="3" style="stroke:#038048;stroke-width:1.0;"/><text fill="#000000" font-family="sans-serif" font-size="20" lengthAdjust="spacing" textLength="220" x="598" y="810.2305">declineOffer(offer: Offer)</text></g><!--class StoreRepository--><g id="elem_StoreRepository"><rect codeLine="54" fill="#F1F1F1" height="68.3125" id="StoreRepository" rx="2.5" ry="2.5" style="stroke:#181818;stroke-width:0.5;" width="334" x="1250" y="725.5"/><ellipse cx="1341" cy="743.0781" fill="#ADD1B2" rx="12" ry="12" style="stroke:#181818;stroke-width:1.0;"/><path d="M1343.1406,738 Q1343.3281,737.75 1343.5469,737.625 Q1343.7656,737.4844 1344.0156,737.4844 Q1344.4531,737.4844 1344.7344,737.7969 Q1345.0156,738.0938 1345.0156,738.8125 L1345.0156,740.5156 Q1345.0156,741.2344 1344.7344,741.5469 Q1344.4531,741.8594 1344.0156,741.8594 Q1343.625,741.8594 1343.375,741.625 Q1343.125,741.4063 1343.0156,740.7969 Q1342.9531,740.375 1342.7344,740.1563 Q1342.3438,739.7188 1341.625,739.4531 Q1340.9063,739.1875 1340.1875,739.1875 Q1339.2813,739.1875 1338.5313,739.5781 Q1337.7813,739.9688 1337.2031,740.8594 Q1336.625,741.7344 1336.625,742.9375 L1336.625,744.2344 Q1336.625,745.6875 1337.6719,746.6563 Q1338.7344,747.625 1340.5938,747.625 Q1341.7031,747.625 1342.4844,747.3125 Q1342.9219,747.1406 1343.4375,746.625 Q1343.75,746.3125 1343.9219,746.2188 Q1344.0938,746.125 1344.3281,746.125 Q1344.7188,746.125 1345.0156,746.4375 Q1345.3281,746.7344 1345.3281,747.1406 Q1345.3281,747.5469 1344.9219,748.0156 Q1344.3281,748.7031 1343.3906,749.0938 Q1342.125,749.625 1340.6094,749.625 Q1338.8281,749.625 1337.4063,748.8906 Q1336.25,748.2969 1335.4375,747.0313 Q1334.625,745.7656 1334.625,744.2813 L1334.625,742.9219 Q1334.625,741.3594 1335.3438,740.0156 Q1336.0781,738.6563 1337.3594,737.9219 Q1338.6563,737.1875 1340.1094,737.1875 Q1340.9688,737.1875 1341.7188,737.3906 Q1342.4844,737.5938 1343.1406,738 Z " fill="#000000"/><text fill="#000000" font-family="sans-serif" font-size="20" lengthAdjust="spacing" textLength="143" x="1363" y="751.2617">StoreRepository</text><line style="stroke:#181818;stroke-width:0.5;" x1="1251" x2="1583" y1="760.6563" y2="760.6563"/><ellipse cx="1261" cy="778.7344" fill="#84BE84" rx="3" ry="3" style="stroke:#038048;stroke-width:1.0;"/><text fill="#000000" font-family="sans-serif" font-size="20" lengthAdjust="spacing" textLength="307" x="1271" y="785.418">storeDecrement(store: Store): void</text></g><!--class AnnouncementOfferMapper--><g id="elem_AnnouncementOfferMapper"><rect codeLine="58" fill="#F1F1F1" height="68.3125" id="AnnouncementOfferMapper" rx="2.5" ry="2.5" style="stroke:#181818;stroke-width:0.5;" width="1100" x="1833" y="378.5"/><ellipse cx="2257.5" cy="396.0781" fill="#ADD1B2" rx="12" ry="12" style="stroke:#181818;stroke-width:1.0;"/><path d="M2259.6406,391 Q2259.8281,390.75 2260.0469,390.625 Q2260.2656,390.4844 2260.5156,390.4844 Q2260.9531,390.4844 2261.2344,390.7969 Q2261.5156,391.0938 2261.5156,391.8125 L2261.5156,393.5156 Q2261.5156,394.2344 2261.2344,394.5469 Q2260.9531,394.8594 2260.5156,394.8594 Q2260.125,394.8594 2259.875,394.625 Q2259.625,394.4063 2259.5156,393.7969 Q2259.4531,393.375 2259.2344,393.1563 Q2258.8438,392.7188 2258.125,392.4531 Q2257.4063,392.1875 2256.6875,392.1875 Q2255.7813,392.1875 2255.0313,392.5781 Q2254.2813,392.9688 2253.7031,393.8594 Q2253.125,394.7344 2253.125,395.9375 L2253.125,397.2344 Q2253.125,398.6875 2254.1719,399.6563 Q2255.2344,400.625 2257.0938,400.625 Q2258.2031,400.625 2258.9844,400.3125 Q2259.4219,400.1406 2259.9375,399.625 Q2260.25,399.3125 2260.4219,399.2188 Q2260.5938,399.125 2260.8281,399.125 Q2261.2188,399.125 2261.5156,399.4375 Q2261.8281,399.7344 2261.8281,400.1406 Q2261.8281,400.5469 2261.4219,401.0156 Q2260.8281,401.7031 2259.8906,402.0938 Q2258.625,402.625 2257.1094,402.625 Q2255.3281,402.625 2253.9063,401.8906 Q2252.75,401.2969 2251.9375,400.0313 Q2251.125,398.7656 2251.125,397.2813 L2251.125,395.9219 Q2251.125,394.3594 2251.8438,393.0156 Q2252.5781,391.6563 2253.8594,390.9219 Q2255.1563,390.1875 2256.6094,390.1875 Q2257.4688,390.1875 2258.2188,390.3906 Q2258.9844,390.5938 2259.6406,391 Z " fill="#000000"/><text fill="#000000" font-family="sans-serif" font-size="20" lengthAdjust="spacing" textLength="242" x="2279.5" y="404.2617">AnnouncementOfferMapper</text><line style="stroke:#181818;stroke-width:0.5;" x1="1834" x2="2932" y1="413.6563" y2="413.6563"/><ellipse cx="1844" cy="431.7344" fill="#84BE84" rx="3" ry="3" style="stroke:#038048;stroke-width:1.0;"/><text fill="#000000" font-family="sans-serif" font-size="20" lengthAdjust="spacing" textLength="1073" x="1854" y="438.418">toDTO(publishedAnnouncementList: List&lt;PublishedAnnouncement&gt;, offerList: List&lt;Offer&gt;): List&lt;AnnouncementOfferDTO&gt;</text></g><!--class EmailService--><g id="elem_EmailService"><rect codeLine="62" fill="#F1F1F1" height="68.3125" id="EmailService" rx="2.5" ry="2.5" style="stroke:#181818;stroke-width:0.5;" width="542" x="872" y="165.5"/><ellipse cx="1079.5" cy="183.0781" fill="#B4A7E5" rx="12" ry="12" style="stroke:#181818;stroke-width:1.0;"/><path d="M1080.5,179.25 L1080.5,187.0781 L1082.5313,187.0781 Q1083.25,187.0781 1083.5469,187.3594 Q1083.8594,187.625 1083.8594,188.0781 Q1083.8594,188.5156 1083.5469,188.7969 Q1083.25,189.0781 1082.5313,189.0781 L1076.4844,189.0781 Q1075.75,189.0781 1075.4375,188.7969 Q1075.1406,188.5156 1075.1406,188.0781 Q1075.1406,187.625 1075.4375,187.3594 Q1075.75,187.0781 1076.4844,187.0781 L1078.5,187.0781 L1078.5,179.25 L1076.4844,179.25 Q1075.75,179.25 1075.4375,178.9688 Q1075.1406,178.6875 1075.1406,178.2344 Q1075.1406,177.7813 1075.4375,177.5156 Q1075.75,177.2344 1076.4844,177.2344 L1082.5313,177.2344 Q1083.25,177.2344 1083.5469,177.5156 Q1083.8594,177.7813 1083.8594,178.2344 Q1083.8594,178.6875 1083.5469,178.9688 Q1083.25,179.25 1082.5313,179.25 L1080.5,179.25 Z " fill="#000000"/><text fill="#000000" font-family="sans-serif" font-size="20" font-style="italic" lengthAdjust="spacing" textLength="118" x="1101.5" y="191.2617">EmailService</text><line style="stroke:#181818;stroke-width:0.5;" x1="873" x2="1413" y1="200.6563" y2="200.6563"/><ellipse cx="883" cy="218.7344" fill="#84BE84" rx="3" ry="3" style="stroke:#038048;stroke-width:1.0;"/><text fill="#000000" font-family="sans-serif" font-size="20" lengthAdjust="spacing" textLength="515" x="893" y="225.418">sendEmail(email: String, subject: String, body: String): void</text></g><!--class DEIService--><g id="elem_DEIService"><rect codeLine="66" fill="#F1F1F1" height="68.3125" id="DEIService" rx="2.5" ry="2.5" style="stroke:#181818;stroke-width:0.5;" width="542" x="1738" y="7"/><ellipse cx="1955.5" cy="24.5781" fill="#ADD1B2" rx="12" ry="12" style="stroke:#181818;stroke-width:1.0;"/><path d="M1957.6406,19.5 Q1957.8281,19.25 1958.0469,19.125 Q1958.2656,18.9844 1958.5156,18.9844 Q1958.9531,18.9844 1959.2344,19.2969 Q1959.5156,19.5938 1959.5156,20.3125 L1959.5156,22.0156 Q1959.5156,22.7344 1959.2344,23.0469 Q1958.9531,23.3594 1958.5156,23.3594 Q1958.125,23.3594 1957.875,23.125 Q1957.625,22.9063 1957.5156,22.2969 Q1957.4531,21.875 1957.2344,21.6563 Q1956.8438,21.2188 1956.125,20.9531 Q1955.4063,20.6875 1954.6875,20.6875 Q1953.7813,20.6875 1953.0313,21.0781 Q1952.2813,21.4688 1951.7031,22.3594 Q1951.125,23.2344 1951.125,24.4375 L1951.125,25.7344 Q1951.125,27.1875 1952.1719,28.1563 Q1953.2344,29.125 1955.0938,29.125 Q1956.2031,29.125 1956.9844,28.8125 Q1957.4219,28.6406 1957.9375,28.125 Q1958.25,27.8125 1958.4219,27.7188 Q1958.5938,27.625 1958.8281,27.625 Q1959.2188,27.625 1959.5156,27.9375 Q1959.8281,28.2344 1959.8281,28.6406 Q1959.8281,29.0469 1959.4219,29.5156 Q1958.8281,30.2031 1957.8906,30.5938 Q1956.625,31.125 1955.1094,31.125 Q1953.3281,31.125 1951.9063,30.3906 Q1950.75,29.7969 1949.9375,28.5313 Q1949.125,27.2656 1949.125,25.7813 L1949.125,24.4219 Q1949.125,22.8594 1949.8438,21.5156 Q1950.5781,20.1563 1951.8594,19.4219 Q1953.1563,18.6875 1954.6094,18.6875 Q1955.4688,18.6875 1956.2188,18.8906 Q1956.9844,19.0938 1957.6406,19.5 Z " fill="#000000"/><text fill="#000000" font-family="sans-serif" font-size="20" lengthAdjust="spacing" textLength="98" x="1977.5" y="32.7617">DEIService</text><line style="stroke:#181818;stroke-width:0.5;" x1="1739" x2="2279" y1="42.1563" y2="42.1563"/><ellipse cx="1749" cy="60.2344" fill="#84BE84" rx="3" ry="3" style="stroke:#038048;stroke-width:1.0;"/><text fill="#000000" font-family="sans-serif" font-size="20" lengthAdjust="spacing" textLength="515" x="1759" y="66.918">sendEmail(email: String, subject: String, body: String): void</text></g><!--class GmailService--><g id="elem_GmailService"><rect codeLine="70" fill="#F1F1F1" height="68.3125" id="GmailService" rx="2.5" ry="2.5" style="stroke:#181818;stroke-width:0.5;" width="542" x="1161" y="7"/><ellipse cx="1369.5" cy="24.5781" fill="#ADD1B2" rx="12" ry="12" style="stroke:#181818;stroke-width:1.0;"/><path d="M1371.6406,19.5 Q1371.8281,19.25 1372.0469,19.125 Q1372.2656,18.9844 1372.5156,18.9844 Q1372.9531,18.9844 1373.2344,19.2969 Q1373.5156,19.5938 1373.5156,20.3125 L1373.5156,22.0156 Q1373.5156,22.7344 1373.2344,23.0469 Q1372.9531,23.3594 1372.5156,23.3594 Q1372.125,23.3594 1371.875,23.125 Q1371.625,22.9063 1371.5156,22.2969 Q1371.4531,21.875 1371.2344,21.6563 Q1370.8438,21.2188 1370.125,20.9531 Q1369.4063,20.6875 1368.6875,20.6875 Q1367.7813,20.6875 1367.0313,21.0781 Q1366.2813,21.4688 1365.7031,22.3594 Q1365.125,23.2344 1365.125,24.4375 L1365.125,25.7344 Q1365.125,27.1875 1366.1719,28.1563 Q1367.2344,29.125 1369.0938,29.125 Q1370.2031,29.125 1370.9844,28.8125 Q1371.4219,28.6406 1371.9375,28.125 Q1372.25,27.8125 1372.4219,27.7188 Q1372.5938,27.625 1372.8281,27.625 Q1373.2188,27.625 1373.5156,27.9375 Q1373.8281,28.2344 1373.8281,28.6406 Q1373.8281,29.0469 1373.4219,29.5156 Q1372.8281,30.2031 1371.8906,30.5938 Q1370.625,31.125 1369.1094,31.125 Q1367.3281,31.125 1365.9063,30.3906 Q1364.75,29.7969 1363.9375,28.5313 Q1363.125,27.2656 1363.125,25.7813 L1363.125,24.4219 Q1363.125,22.8594 1363.8438,21.5156 Q1364.5781,20.1563 1365.8594,19.4219 Q1367.1563,18.6875 1368.6094,18.6875 Q1369.4688,18.6875 1370.2188,18.8906 Q1370.9844,19.0938 1371.6406,19.5 Z " fill="#000000"/><text fill="#000000" font-family="sans-serif" font-size="20" lengthAdjust="spacing" textLength="116" x="1391.5" y="32.7617">GmailService</text><line style="stroke:#181818;stroke-width:0.5;" x1="1162" x2="1702" y1="42.1563" y2="42.1563"/><ellipse cx="1172" cy="60.2344" fill="#84BE84" rx="3" ry="3" style="stroke:#038048;stroke-width:1.0;"/><text fill="#000000" font-family="sans-serif" font-size="20" lengthAdjust="spacing" textLength="515" x="1182" y="66.918">sendEmail(email: String, subject: String, body: String): void</text></g><!--class HotmailService--><g id="elem_HotmailService"><rect codeLine="74" fill="#F1F1F1" height="68.3125" id="HotmailService" rx="2.5" ry="2.5" style="stroke:#181818;stroke-width:0.5;" width="542" x="584" y="7"/><ellipse cx="785.5" cy="24.5781" fill="#ADD1B2" rx="12" ry="12" style="stroke:#181818;stroke-width:1.0;"/><path d="M787.6406,19.5 Q787.8281,19.25 788.0469,19.125 Q788.2656,18.9844 788.5156,18.9844 Q788.9531,18.9844 789.2344,19.2969 Q789.5156,19.5938 789.5156,20.3125 L789.5156,22.0156 Q789.5156,22.7344 789.2344,23.0469 Q788.9531,23.3594 788.5156,23.3594 Q788.125,23.3594 787.875,23.125 Q787.625,22.9063 787.5156,22.2969 Q787.4531,21.875 787.2344,21.6563 Q786.8438,21.2188 786.125,20.9531 Q785.4063,20.6875 784.6875,20.6875 Q783.7813,20.6875 783.0313,21.0781 Q782.2813,21.4688 781.7031,22.3594 Q781.125,23.2344 781.125,24.4375 L781.125,25.7344 Q781.125,27.1875 782.1719,28.1563 Q783.2344,29.125 785.0938,29.125 Q786.2031,29.125 786.9844,28.8125 Q787.4219,28.6406 787.9375,28.125 Q788.25,27.8125 788.4219,27.7188 Q788.5938,27.625 788.8281,27.625 Q789.2188,27.625 789.5156,27.9375 Q789.8281,28.2344 789.8281,28.6406 Q789.8281,29.0469 789.4219,29.5156 Q788.8281,30.2031 787.8906,30.5938 Q786.625,31.125 785.1094,31.125 Q783.3281,31.125 781.9063,30.3906 Q780.75,29.7969 779.9375,28.5313 Q779.125,27.2656 779.125,25.7813 L779.125,24.4219 Q779.125,22.8594 779.8438,21.5156 Q780.5781,20.1563 781.8594,19.4219 Q783.1563,18.6875 784.6094,18.6875 Q785.4688,18.6875 786.2188,18.8906 Q786.9844,19.0938 787.6406,19.5 Z " fill="#000000"/><text fill="#000000" font-family="sans-serif" font-size="20" lengthAdjust="spacing" textLength="130" x="807.5" y="32.7617">HotmailService</text><line style="stroke:#181818;stroke-width:0.5;" x1="585" x2="1125" y1="42.1563" y2="42.1563"/><ellipse cx="595" cy="60.2344" fill="#84BE84" rx="3" ry="3" style="stroke:#038048;stroke-width:1.0;"/><text fill="#000000" font-family="sans-serif" font-size="20" lengthAdjust="spacing" textLength="515" x="605" y="66.918">sendEmail(email: String, subject: String, body: String): void</text></g><!--class YahooService--><g id="elem_YahooService"><rect codeLine="78" fill="#F1F1F1" height="68.3125" id="YahooService" rx="2.5" ry="2.5" style="stroke:#181818;stroke-width:0.5;" width="542" x="7" y="7"/><ellipse cx="212.5" cy="24.5781" fill="#ADD1B2" rx="12" ry="12" style="stroke:#181818;stroke-width:1.0;"/><path d="M214.6406,19.5 Q214.8281,19.25 215.0469,19.125 Q215.2656,18.9844 215.5156,18.9844 Q215.9531,18.9844 216.2344,19.2969 Q216.5156,19.5938 216.5156,20.3125 L216.5156,22.0156 Q216.5156,22.7344 216.2344,23.0469 Q215.9531,23.3594 215.5156,23.3594 Q215.125,23.3594 214.875,23.125 Q214.625,22.9063 214.5156,22.2969 Q214.4531,21.875 214.2344,21.6563 Q213.8438,21.2188 213.125,20.9531 Q212.4063,20.6875 211.6875,20.6875 Q210.7813,20.6875 210.0313,21.0781 Q209.2813,21.4688 208.7031,22.3594 Q208.125,23.2344 208.125,24.4375 L208.125,25.7344 Q208.125,27.1875 209.1719,28.1563 Q210.2344,29.125 212.0938,29.125 Q213.2031,29.125 213.9844,28.8125 Q214.4219,28.6406 214.9375,28.125 Q215.25,27.8125 215.4219,27.7188 Q215.5938,27.625 215.8281,27.625 Q216.2188,27.625 216.5156,27.9375 Q216.8281,28.2344 216.8281,28.6406 Q216.8281,29.0469 216.4219,29.5156 Q215.8281,30.2031 214.8906,30.5938 Q213.625,31.125 212.1094,31.125 Q210.3281,31.125 208.9063,30.3906 Q207.75,29.7969 206.9375,28.5313 Q206.125,27.2656 206.125,25.7813 L206.125,24.4219 Q206.125,22.8594 206.8438,21.5156 Q207.5781,20.1563 208.8594,19.4219 Q210.1563,18.6875 211.6094,18.6875 Q212.4688,18.6875 213.2188,18.8906 Q213.9844,19.0938 214.6406,19.5 Z " fill="#000000"/><text fill="#000000" font-family="sans-serif" font-size="20" lengthAdjust="spacing" textLength="122" x="234.5" y="32.7617">YahooService</text><line style="stroke:#181818;stroke-width:0.5;" x1="8" x2="548" y1="42.1563" y2="42.1563"/><ellipse cx="18" cy="60.2344" fill="#84BE84" rx="3" ry="3" style="stroke:#038048;stroke-width:1.0;"/><text fill="#000000" font-family="sans-serif" font-size="20" lengthAdjust="spacing" textLength="515" x="28" y="66.918">sendEmail(email: String, subject: String, body: String): void</text></g><!--class AnnouncementOfferDTO--><g id="elem_AnnouncementOfferDTO"><rect codeLine="82" fill="#F1F1F1" height="68.3125" id="AnnouncementOfferDTO" rx="2.5" ry="2.5" style="stroke:#181818;stroke-width:0.5;" width="1073" x="1846.5" y="566.5"/><ellipse cx="2270.5" cy="584.0781" fill="#ADD1B2" rx="12" ry="12" style="stroke:#181818;stroke-width:1.0;"/><path d="M2272.6406,579 Q2272.8281,578.75 2273.0469,578.625 Q2273.2656,578.4844 2273.5156,578.4844 Q2273.9531,578.4844 2274.2344,578.7969 Q2274.5156,579.0938 2274.5156,579.8125 L2274.5156,581.5156 Q2274.5156,582.2344 2274.2344,582.5469 Q2273.9531,582.8594 2273.5156,582.8594 Q2273.125,582.8594 2272.875,582.625 Q2272.625,582.4063 2272.5156,581.7969 Q2272.4531,581.375 2272.2344,581.1563 Q2271.8438,580.7188 2271.125,580.4531 Q2270.4063,580.1875 2269.6875,580.1875 Q2268.7813,580.1875 2268.0313,580.5781 Q2267.2813,580.9688 2266.7031,581.8594 Q2266.125,582.7344 2266.125,583.9375 L2266.125,585.2344 Q2266.125,586.6875 2267.1719,587.6563 Q2268.2344,588.625 2270.0938,588.625 Q2271.2031,588.625 2271.9844,588.3125 Q2272.4219,588.1406 2272.9375,587.625 Q2273.25,587.3125 2273.4219,587.2188 Q2273.5938,587.125 2273.8281,587.125 Q2274.2188,587.125 2274.5156,587.4375 Q2274.8281,587.7344 2274.8281,588.1406 Q2274.8281,588.5469 2274.4219,589.0156 Q2273.8281,589.7031 2272.8906,590.0938 Q2271.625,590.625 2270.1094,590.625 Q2268.3281,590.625 2266.9063,589.8906 Q2265.75,589.2969 2264.9375,588.0313 Q2264.125,586.7656 2264.125,585.2813 L2264.125,583.9219 Q2264.125,582.3594 2264.8438,581.0156 Q2265.5781,579.6563 2266.8594,578.9219 Q2268.1563,578.1875 2269.6094,578.1875 Q2270.4688,578.1875 2271.2188,578.3906 Q2271.9844,578.5938 2272.6406,579 Z " fill="#000000"/><text fill="#000000" font-family="sans-serif" font-size="20" lengthAdjust="spacing" textLength="216" x="2292.5" y="592.2617">AnnouncementOfferDTO</text><line style="stroke:#181818;stroke-width:0.5;" x1="1847.5" x2="2918.5" y1="601.6563" y2="601.6563"/><ellipse cx="1857.5" cy="619.7344" fill="#84BE84" rx="3" ry="3" style="stroke:#038048;stroke-width:1.0;"/><text fill="#000000" font-family="sans-serif" font-size="20" lengthAdjust="spacing" textLength="1046" x="1867.5" y="626.418">create(publishedAnnouncement: PublishedAnnouncement, offersListToDTO: List&lt;OfferDTO&gt;): AnnouncementOfferDTO</text></g><!--class OfferDTO--><g id="elem_OfferDTO"><rect codeLine="86" fill="#F1F1F1" height="68.3125" id="OfferDTO" rx="2.5" ry="2.5" style="stroke:#181818;stroke-width:0.5;" width="790" x="2968" y="378.5"/><ellipse cx="3314.5" cy="396.0781" fill="#ADD1B2" rx="12" ry="12" style="stroke:#181818;stroke-width:1.0;"/><path d="M3316.6406,391 Q3316.8281,390.75 3317.0469,390.625 Q3317.2656,390.4844 3317.5156,390.4844 Q3317.9531,390.4844 3318.2344,390.7969 Q3318.5156,391.0938 3318.5156,391.8125 L3318.5156,393.5156 Q3318.5156,394.2344 3318.2344,394.5469 Q3317.9531,394.8594 3317.5156,394.8594 Q3317.125,394.8594 3316.875,394.625 Q3316.625,394.4063 3316.5156,393.7969 Q3316.4531,393.375 3316.2344,393.1563 Q3315.8438,392.7188 3315.125,392.4531 Q3314.4063,392.1875 3313.6875,392.1875 Q3312.7813,392.1875 3312.0313,392.5781 Q3311.2813,392.9688 3310.7031,393.8594 Q3310.125,394.7344 3310.125,395.9375 L3310.125,397.2344 Q3310.125,398.6875 3311.1719,399.6563 Q3312.2344,400.625 3314.0938,400.625 Q3315.2031,400.625 3315.9844,400.3125 Q3316.4219,400.1406 3316.9375,399.625 Q3317.25,399.3125 3317.4219,399.2188 Q3317.5938,399.125 3317.8281,399.125 Q3318.2188,399.125 3318.5156,399.4375 Q3318.8281,399.7344 3318.8281,400.1406 Q3318.8281,400.5469 3318.4219,401.0156 Q3317.8281,401.7031 3316.8906,402.0938 Q3315.625,402.625 3314.1094,402.625 Q3312.3281,402.625 3310.9063,401.8906 Q3309.75,401.2969 3308.9375,400.0313 Q3308.125,398.7656 3308.125,397.2813 L3308.125,395.9219 Q3308.125,394.3594 3308.8438,393.0156 Q3309.5781,391.6563 3310.8594,390.9219 Q3312.1563,390.1875 3313.6094,390.1875 Q3314.4688,390.1875 3315.2188,390.3906 Q3315.9844,390.5938 3316.6406,391 Z " fill="#000000"/><text fill="#000000" font-family="sans-serif" font-size="20" lengthAdjust="spacing" textLength="88" x="3336.5" y="404.2617">OfferDTO</text><line style="stroke:#181818;stroke-width:0.5;" x1="2969" x2="3757" y1="413.6563" y2="413.6563"/><ellipse cx="2979" cy="431.7344" fill="#84BE84" rx="3" ry="3" style="stroke:#038048;stroke-width:1.0;"/><text fill="#000000" font-family="sans-serif" font-size="20" lengthAdjust="spacing" textLength="763" x="2989" y="438.418">create(name: String, client: String, orderAmount: int, offerState: OfferState): OfferDTO</text></g><!--class OfferState--><g id="elem_OfferState"><rect codeLine="90" fill="#F1F1F1" height="118.625" id="OfferState" rx="2.5" ry="2.5" style="stroke:#181818;stroke-width:0.5;" width="127" x="770.5" y="1018"/><ellipse cx="786.5" cy="1035.5781" fill="#EB937F" rx="12" ry="12" style="stroke:#181818;stroke-width:1.0;"/><path d="M784.4531,1036.6406 L784.4531,1039.5781 L789.5469,1039.5781 L789.5469,1038.4844 Q789.5469,1037.7656 789.8281,1037.4688 Q790.1094,1037.1563 790.5625,1037.1563 Q791,1037.1563 791.2813,1037.4688 Q791.5625,1037.7656 791.5625,1038.4844 L791.5625,1041.5781 L782.125,1041.5781 Q781.4063,1041.5781 781.0938,1041.2969 Q780.7969,1041.0156 780.7969,1040.5781 Q780.7969,1040.125 781.1094,1039.8594 Q781.4219,1039.5781 782.125,1039.5781 L782.4375,1039.5781 L782.4375,1031.75 L782.125,1031.75 Q781.4063,1031.75 781.0938,1031.4688 Q780.7969,1031.1875 780.7969,1030.7344 Q780.7969,1030.2813 781.0938,1030.0156 Q781.4063,1029.7344 782.125,1029.7344 L791.1094,1029.7344 L791.1094,1032.7813 Q791.1094,1033.5 790.8281,1033.8125 Q790.5625,1034.1094 790.125,1034.1094 Q789.6719,1034.1094 789.3906,1033.8125 Q789.1094,1033.5156 789.1094,1032.7813 L789.1094,1031.75 L784.4531,1031.75 L784.4531,1034.6406 L786.2031,1034.6406 Q786.2031,1033.8594 786.3438,1033.625 Q786.6563,1033.1563 787.2031,1033.1563 Q787.6563,1033.1563 787.9219,1033.4688 Q788.2031,1033.7656 788.2031,1034.4844 L788.2031,1036.7969 Q788.2031,1037.4531 788.0469,1037.6719 Q787.7344,1038.125 787.2031,1038.125 Q786.6563,1038.125 786.3438,1037.6563 Q786.2031,1037.4219 786.2031,1036.6406 L784.4531,1036.6406 Z " fill="#000000"/><text fill="#000000" font-family="sans-serif" font-size="20" lengthAdjust="spacing" textLength="93" x="801.5" y="1043.7617">OfferState</text><line style="stroke:#181818;stroke-width:0.5;" x1="771.5" x2="896.5" y1="1053.1563" y2="1053.1563"/><text fill="#000000" font-family="sans-serif" font-size="20" lengthAdjust="spacing" textLength="81" x="776.5" y="1077.918">accepted</text><text fill="#000000" font-family="sans-serif" font-size="20" lengthAdjust="spacing" textLength="71" x="776.5" y="1103.0742">rejected</text><text fill="#000000" font-family="sans-serif" font-size="20" lengthAdjust="spacing" textLength="68" x="776.5" y="1128.2305">pending</text></g><!--class PublishedAnnouncementState--><g id="elem_PublishedAnnouncementState"><rect codeLine="96" fill="#F1F1F1" height="93.4688" id="PublishedAnnouncementState" rx="2.5" ry="2.5" style="stroke:#181818;stroke-width:0.5;" width="293" x="1278.5" y="1649"/><ellipse cx="1294.5" cy="1666.5781" fill="#EB937F" rx="12" ry="12" style="stroke:#181818;stroke-width:1.0;"/><path d="M1292.4531,1667.6406 L1292.4531,1670.5781 L1297.5469,1670.5781 L1297.5469,1669.4844 Q1297.5469,1668.7656 1297.8281,1668.4688 Q1298.1094,1668.1563 1298.5625,1668.1563 Q1299,1668.1563 1299.2813,1668.4688 Q1299.5625,1668.7656 1299.5625,1669.4844 L1299.5625,1672.5781 L1290.125,1672.5781 Q1289.4063,1672.5781 1289.0938,1672.2969 Q1288.7969,1672.0156 1288.7969,1671.5781 Q1288.7969,1671.125 1289.1094,1670.8594 Q1289.4219,1670.5781 1290.125,1670.5781 L1290.4375,1670.5781 L1290.4375,1662.75 L1290.125,1662.75 Q1289.4063,1662.75 1289.0938,1662.4688 Q1288.7969,1662.1875 1288.7969,1661.7344 Q1288.7969,1661.2813 1289.0938,1661.0156 Q1289.4063,1660.7344 1290.125,1660.7344 L1299.1094,1660.7344 L1299.1094,1663.7813 Q1299.1094,1664.5 1298.8281,1664.8125 Q1298.5625,1665.1094 1298.125,1665.1094 Q1297.6719,1665.1094 1297.3906,1664.8125 Q1297.1094,1664.5156 1297.1094,1663.7813 L1297.1094,1662.75 L1292.4531,1662.75 L1292.4531,1665.6406 L1294.2031,1665.6406 Q1294.2031,1664.8594 1294.3438,1664.625 Q1294.6563,1664.1563 1295.2031,1664.1563 Q1295.6563,1664.1563 1295.9219,1664.4688 Q1296.2031,1664.7656 1296.2031,1665.4844 L1296.2031,1667.7969 Q1296.2031,1668.4531 1296.0469,1668.6719 Q1295.7344,1669.125 1295.2031,1669.125 Q1294.6563,1669.125 1294.3438,1668.6563 Q1294.2031,1668.4219 1294.2031,1667.6406 L1292.4531,1667.6406 Z " fill="#000000"/><text fill="#000000" font-family="sans-serif" font-size="20" lengthAdjust="spacing" textLength="259" x="1309.5" y="1674.7617">PublishedAnnouncementState</text><line style="stroke:#181818;stroke-width:0.5;" x1="1279.5" x2="1570.5" y1="1684.1563" y2="1684.1563"/><text fill="#000000" font-family="sans-serif" font-size="20" lengthAdjust="spacing" textLength="76" x="1284.5" y="1708.918">available</text><text fill="#000000" font-family="sans-serif" font-size="20" lengthAdjust="spacing" textLength="36" x="1284.5" y="1734.0742">sold</text></g><!--link OfferDecisionUI to OfferDecisionController--><g id="link_OfferDecisionUI_OfferDecisionController"><path codeLine="101" d="M1623.25,284.3 C1623.25,284.3 1623.25,318.81 1623.25,318.81 " fill="none" id="OfferDecisionUI-to-OfferDecisionController" style="stroke:#181818;stroke-width:1.0;"/><polygon fill="#181818" points="1623.25,323.81,1627.25,314.81,1623.25,318.81,1619.25,314.81,1623.25,323.81" style="stroke:#181818;stroke-width:1.0;"/></g><!--link OfferDecisionController to Repositories--><g id="link_OfferDecisionController_Repositories"><path codeLine="102" d="M1306.5,501.27 C1306.5,501.27 1306.5,535.82 1306.5,535.82 " fill="none" id="OfferDecisionController-to-Repositories" style="stroke:#181818;stroke-width:1.0;stroke-dasharray:7.0,7.0;"/><polygon fill="#181818" points="1306.5,540.82,1310.5,531.82,1306.5,535.82,1302.5,531.82,1306.5,540.82" style="stroke:#181818;stroke-width:1.0;"/></g><!--link OfferDecisionController to OfferRepository--><g id="link_OfferDecisionController_OfferRepository"><path codeLine="104" d="M1084.26,413 C898.12,413 708.75,413 708.75,413 C708.75,413 708.75,694.93 708.75,694.93 " fill="none" id="OfferDecisionController-to-OfferRepository" style="stroke:#181818;stroke-width:1.0;stroke-dasharray:7.0,7.0;"/><polygon fill="#181818" points="708.75,699.93,712.75,690.93,708.75,694.93,704.75,690.93,708.75,699.93" style="stroke:#181818;stroke-width:1.0;"/></g><!--link OfferDecisionController to PublishedAnnouncementRepository--><g id="link_OfferDecisionController_PublishedAnnouncementRepository"><path codeLine="105" d="M1650,501.11 C1650,501.11 1650,1376.72 1650,1376.72 " fill="none" id="OfferDecisionController-to-PublishedAnnouncementRepository" style="stroke:#181818;stroke-width:1.0;stroke-dasharray:7.0,7.0;"/><polygon fill="#181818" points="1650,1381.72,1654,1372.72,1650,1376.72,1646,1372.72,1650,1381.72" style="stroke:#181818;stroke-width:1.0;"/></g><!--link OfferDecisionController to StoreRepository--><g id="link_OfferDecisionController_StoreRepository"><path codeLine="106" d="M1556.25,501.41 C1556.25,501.41 1556.25,720.17 1556.25,720.17 " fill="none" id="OfferDecisionController-to-StoreRepository" style="stroke:#181818;stroke-width:1.0;stroke-dasharray:7.0,7.0;"/><polygon fill="#181818" points="1556.25,725.17,1560.25,716.17,1556.25,720.17,1552.25,716.17,1556.25,725.17" style="stroke:#181818;stroke-width:1.0;"/></g><!--link OfferDecisionController to AnnouncementOfferMapper--><g id="link_OfferDecisionController_AnnouncementOfferMapper"><path codeLine="107" d="M1797.8,413 C1797.8,413 1827.82,413 1827.82,413 " fill="none" id="OfferDecisionController-to-AnnouncementOfferMapper" style="stroke:#181818;stroke-width:1.0;"/><polygon fill="#181818" points="1832.82,413,1823.8315,408.9743,1827.82,412.9857,1823.8086,416.9743,1832.82,413" style="stroke:#181818;stroke-width:1.0;"/></g><!--link AnnouncementOfferMapper to OfferDTO--><g id="link_AnnouncementOfferMapper_OfferDTO"><path codeLine="109" d="M2933.16,413 C2933.16,413 2962.68,413 2962.68,413 " fill="none" id="AnnouncementOfferMapper-to-OfferDTO" style="stroke:#181818;stroke-width:1.0;"/><polygon fill="#181818" points="2967.68,413,2958.68,409,2962.68,413,2958.68,417,2967.68,413" style="stroke:#181818;stroke-width:1.0;"/></g><!--link AnnouncementOfferMapper to AnnouncementOfferDTO--><g id="link_AnnouncementOfferMapper_AnnouncementOfferDTO"><path codeLine="110" d="M2383,446.55 C2383,446.55 2383,561.39 2383,561.39 " fill="none" id="AnnouncementOfferMapper-to-AnnouncementOfferDTO" style="stroke:#181818;stroke-width:1.0;"/><polygon fill="#181818" points="2383,566.39,2387,557.39,2383,561.39,2379,557.39,2383,566.39" style="stroke:#181818;stroke-width:1.0;"/></g><!--link PublishedAnnouncement to PublishedAnnouncementState--><g id="link_PublishedAnnouncement_PublishedAnnouncementState"><path codeLine="112" d="M1425,1609.31 C1425,1609.31 1425,1643.97 1425,1643.97 " fill="none" id="PublishedAnnouncement-to-PublishedAnnouncementState" style="stroke:#181818;stroke-width:1.0;"/><polygon fill="#181818" points="1425,1648.97,1429,1639.97,1425,1643.97,1421,1639.97,1425,1648.97" style="stroke:#181818;stroke-width:1.0;"/></g><!--link Offer to OfferState--><g id="link_Offer_OfferState"><path codeLine="113" d="M834,978.16 C834,978.16 834,1012.77 834,1012.77 " fill="none" id="Offer-to-OfferState" style="stroke:#181818;stroke-width:1.0;"/><polygon fill="#181818" points="834,1017.77,838,1008.77,834,1012.77,830,1008.77,834,1017.77" style="stroke:#181818;stroke-width:1.0;"/></g><!--link OfferRepository to Offer--><g id="link_OfferRepository_Offer"><path codeLine="114" d="M834,819.16 C834,819.16 834,853.77 834,853.77 " fill="none" id="OfferRepository-to-Offer" style="stroke:#181818;stroke-width:1.0;"/><polygon fill="#181818" points="834,858.77,838,849.77,834,853.77,830,849.77,834,858.77" style="stroke:#181818;stroke-width:1.0;"/></g><!--link StoreRepository to Store--><g id="link_StoreRepository_Store"><path codeLine="115" d="M1417,793.61 C1417,793.61 1417,879.45 1417,879.45 " fill="none" id="StoreRepository-to-Store" style="stroke:#181818;stroke-width:1.0;"/><polygon fill="#181818" points="1417,884.45,1421,875.45,1417,879.45,1413,875.45,1417,884.45" style="stroke:#181818;stroke-width:1.0;"/></g><!--link PublishedAnnouncementRepository to PublishedAnnouncement--><g id="link_PublishedAnnouncementRepository_PublishedAnnouncement"><path codeLine="116" d="M1425,1450.03 C1425,1450.03 1425,1484.85 1425,1484.85 " fill="none" id="PublishedAnnouncementRepository-to-PublishedAnnouncement" style="stroke:#181818;stroke-width:1.0;"/><polygon fill="#181818" points="1425,1489.85,1429,1480.85,1425,1484.85,1421,1480.85,1425,1489.85" style="stroke:#181818;stroke-width:1.0;"/></g><!--link DEIService to EmailService--><g id="link_DEIService_EmailService"><path codeLine="118" d="M1884.5,75.2 C1884.5,85.92 1884.5,95 1884.5,95 C1884.5,95 1329.67,95 1329.67,95 C1329.67,95 1329.67,145.28 1329.67,145.28 " fill="none" id="DEIService-to-EmailService" style="stroke:#181818;stroke-width:1.0;stroke-dasharray:7.0,7.0;"/><polygon fill="none" points="1336.67,145.28,1329.67,165.28,1322.67,145.28,1336.67,145.28" style="stroke:#181818;stroke-width:1.0;"/></g><!--link GmailService to EmailService--><g id="link_GmailService_EmailService"><path codeLine="119" d="M1245.33,75 C1245.33,75 1245.33,145.28 1245.33,145.28 " fill="none" id="GmailService-to-EmailService" style="stroke:#181818;stroke-width:1.0;stroke-dasharray:7.0,7.0;"/><polygon fill="none" points="1252.33,145.28,1245.33,165.28,1238.33,145.28,1252.33,145.28" style="stroke:#181818;stroke-width:1.0;"/></g><!--link HotmailService to EmailService--><g id="link_HotmailService_EmailService"><path codeLine="120" d="M999,75 C999,75 999,145.28 999,145.28 " fill="none" id="HotmailService-to-EmailService" style="stroke:#181818;stroke-width:1.0;stroke-dasharray:7.0,7.0;"/><polygon fill="none" points="1006,145.28,999,165.28,992,145.28,1006,145.28" style="stroke:#181818;stroke-width:1.0;"/></g><!--link YahooService to EmailService--><g id="link_YahooService_EmailService"><path codeLine="121" d="M278,75.11 C278,121.83 278,200 278,200 C278,200 851.98,200 851.98,200 " fill="none" id="YahooService-to-EmailService" style="stroke:#181818;stroke-width:1.0;stroke-dasharray:7.0,7.0;"/><polygon fill="none" points="851.98,193,871.98,200,851.98,207,851.98,193" style="stroke:#181818;stroke-width:1.0;"/></g><!--reverse link EmailService to OfferDecisionController--><g id="link_EmailService_OfferDecisionController"><path codeLine="123" d="M1249.25,238.72 C1249.25,238.72 1249.25,323.68 1249.25,323.68 " fill="none" id="EmailService-backto-OfferDecisionController" style="stroke:#181818;stroke-width:1.0;"/><polygon fill="#181818" points="1249.25,233.72,1245.25,242.72,1249.25,238.72,1253.25,242.72,1249.25,233.72" style="stroke:#181818;stroke-width:1.0;"/></g><!--link Repositories to PublishedAnnouncementRepository--><g id="link_Repositories_PublishedAnnouncementRepository"><path codeLine="125" d="M1192,660.14 C1192,660.14 1192,1376.99 1192,1376.99 " fill="none" id="Repositories-to-PublishedAnnouncementRepository" style="stroke:#181818;stroke-width:1.0;stroke-dasharray:7.0,7.0;"/><polygon fill="#181818" points="1192,1381.99,1196,1372.99,1192,1376.99,1188,1372.99,1192,1381.99" style="stroke:#181818;stroke-width:1.0;"/><text fill="#000000" font-family="sans-serif" font-size="20" lengthAdjust="spacing" textLength="307" x="1193" y="1013.3217">PublishedAnnouncementRepository</text></g><!--link Repositories to OfferRepository--><g id="link_Repositories_OfferRepository"><path codeLine="126" d="M962.25,660.16 C962.25,660.16 962.25,694.77 962.25,694.77 " fill="none" id="Repositories-to-OfferRepository" style="stroke:#181818;stroke-width:1.0;stroke-dasharray:7.0,7.0;"/><polygon fill="#181818" points="962.25,699.77,966.25,690.77,962.25,694.77,958.25,690.77,962.25,699.77" style="stroke:#181818;stroke-width:1.0;"/><text fill="#000000" font-family="sans-serif" font-size="20" lengthAdjust="spacing" textLength="141" x="963.25" y="699.2317">OfferRepository</text></g><!--link Repositories to StoreRepository--><g id="link_Repositories_StoreRepository"><path codeLine="127" d="M1389.25,660.16 C1389.25,660.16 1389.25,720.39 1389.25,720.39 " fill="none" id="Repositories-to-StoreRepository" style="stroke:#181818;stroke-width:1.0;stroke-dasharray:7.0,7.0;"/><polygon fill="#181818" points="1389.25,725.39,1393.25,716.39,1389.25,720.39,1385.25,716.39,1389.25,725.39" style="stroke:#181818;stroke-width:1.0;"/><text fill="#000000" font-family="sans-serif" font-size="20" lengthAdjust="spacing" textLength="143" x="1245.25" y="685.0317">StoreRepository</text></g><!--SRC=[jLRTRziW47_dhs3QYwCbKHljAQeiLKkxLThKQkqcJL4UY7r9M6om07VBFlxt0Vu8Th3JTKiUOhWxZhlV7J-GMyeo8aYQy6WBCOvXHV94NNEcxkaFm9Cpz4BBA0DCXE3V9a5C1KIASZR0U3wVlppJl-lhnH3FOo8t4DjHPRDOBD26ne0XpTGEfv0kGKWagrrneZshNGQO2xNXZa8GjfMGuTTd24K9aHBVhbOWPX1HgHr_ki4_4SQlrg2iNBwdKWM3AJRVYql6UCuYI84Lwjd3RMZCjm2P5GJS_4yBfmEZ8b44cUfGnX2PI3kq4bZycSgS91go-2ebD0d0_4_nlHAKhOTOvikl6fAzOCdZNJKReD_U9D_eAWYU921iiYC16PTKSK51Jl57P_OCAAgKr0P4iQwHs13psbdfoif3ct6q8MmDhkzxHHG4MRvCgEa2LpN5Tpvn0PsE7tI-mee2EpMmw8-3YfjgNNUlqzfoPn0uOkAYrbpO4fM6DgocOKkq3zcxTN_iiYwQLssh5l5Kdmy8Oets-HJFz6U8pMHIJBG7ojJ_Ar6pCPjdBiW4pq0etSTtvQY2pWsLfDgVEhU13N4nczZPFbXPkYn2vFMmT6V7JZ0MzIAOkEgToqTzuCWo0OEWFbG6p4TEuoCbsTUklpW1PJ5yhyBschJ0ydX-2cp_T2vxUAe9NZkuldFOnl60KZwGBAkQGt5DCFucSqBsDtYPss5glLocuz950R4Y4M1BllSW7cbKDeWXvsTGSZlfsTNDATo-FLMyxxWwbUilPCFvAHpxwbjieFloRxdBFIWFfYdTbZADexVtRTY-YriXC9B2FXrzscm4rPoB6CIbfRYIxpguR8hT_O3bgQEr6nRl4OZrK801qGupZRJUgLxaJTrnKf6Y7akUMApRxwZHAEnwTg2kvyXu73RV7xsMxTkqsxR-XKVlxhuDsxTob-re9EXwey8kIaEeY-lgbNKPkor3VvyX_nF1s7TNjKXbNpD7w51whKPjiZSQAqF7RiFEE11gaEp5h_4upnn-zAfTdlCQDFdAQ-Bo3kgfQPw5ZNi0eSRxyGdDXOy_7GzSjcjm-8WyMD8kpk5pyWy0]--></g></svg>