<?xml version="1.0" encoding="UTF-8" standalone="no"?><svg xmlns="http://www.w3.org/2000/svg" xmlns:xlink="http://www.w3.org/1999/xlink" contentStyleType="text/css" height="342px" preserveAspectRatio="none" style="width:1345px;height:342px;background:#FFFFFF;" version="1.1" viewBox="0 0 1345 342" width="1345px" zoomAndPan="magnify"><defs/><g><rect fill="#FFFFFF" height="167.625" style="stroke:#181818;stroke-width:1.0;" width="10" x="112.5" y="80.3125"/><rect fill="#FFFFFF" height="136.4688" style="stroke:#181818;stroke-width:1.0;" width="10" x="904.5" y="111.4688"/><line style="stroke:#181818;stroke-width:0.5;stroke-dasharray:5.0,5.0;" x1="117" x2="117" y1="70.3125" y2="272.9375"/><line style="stroke:#181818;stroke-width:0.5;stroke-dasharray:5.0,5.0;" x1="671" x2="671" y1="70.3125" y2="272.9375"/><line style="stroke:#181818;stroke-width:0.5;stroke-dasharray:5.0,5.0;" x1="795" x2="795" y1="70.3125" y2="272.9375"/><line style="stroke:#181818;stroke-width:0.5;stroke-dasharray:5.0,5.0;" x1="909" x2="909" y1="70.3125" y2="272.9375"/><rect fill="#E3E3E3" height="39.1563" rx="2.5" ry="2.5" style="stroke:#181818;stroke-width:0.5;" width="225" x="5" y="30.1563"/><text fill="#000000" font-family="sans-serif" font-size="20" lengthAdjust="spacing" textLength="211" x="12" y="57.918">:OfferDecisionController</text><rect fill="#E3E3E3" height="39.1563" rx="2.5" ry="2.5" style="stroke:#181818;stroke-width:0.5;" width="225" x="5" y="271.9375"/><text fill="#000000" font-family="sans-serif" font-size="20" lengthAdjust="spacing" textLength="211" x="12" y="299.6992">:OfferDecisionController</text><rect fill="#E3E3E3" height="64.3125" rx="2.5" ry="2.5" style="stroke:#181818;stroke-width:0.5;" width="161" x="591" y="5"/><text fill="#000000" font-family="sans-serif" font-size="20" lengthAdjust="spacing" textLength="136" x="603.5" y="32.7617">offerRepository</text><text fill="#000000" font-family="sans-serif" font-size="20" lengthAdjust="spacing" textLength="147" x="598" y="57.918">:OfferRepository</text><rect fill="#E3E3E3" height="64.3125" rx="2.5" ry="2.5" style="stroke:#181818;stroke-width:0.5;" width="161" x="591" y="271.9375"/><text fill="#000000" font-family="sans-serif" font-size="20" lengthAdjust="spacing" textLength="136" x="603.5" y="299.6992">offerRepository</text><text fill="#000000" font-family="sans-serif" font-size="20" lengthAdjust="spacing" textLength="147" x="598" y="324.8555">:OfferRepository</text><rect fill="#E3E3E3" height="64.3125" rx="2.5" ry="2.5" style="stroke:#181818;stroke-width:0.5;" width="66" x="762" y="5"/><text fill="#000000" font-family="sans-serif" font-size="20" lengthAdjust="spacing" textLength="46" x="772" y="32.7617">Offer</text><text fill="#000000" font-family="sans-serif" font-size="20" lengthAdjust="spacing" textLength="52" x="769" y="57.918">:Offer</text><rect fill="#E3E3E3" height="64.3125" rx="2.5" ry="2.5" style="stroke:#181818;stroke-width:0.5;" width="66" x="762" y="271.9375"/><text fill="#000000" font-family="sans-serif" font-size="20" lengthAdjust="spacing" textLength="46" x="772" y="299.6992">Offer</text><text fill="#000000" font-family="sans-serif" font-size="20" lengthAdjust="spacing" textLength="52" x="769" y="324.8555">:Offer</text><rect fill="#E3E3E3" height="64.3125" rx="2.5" ry="2.5" style="stroke:#181818;stroke-width:0.5;" width="143" x="838" y="5"/><text fill="#000000" font-family="sans-serif" font-size="20" lengthAdjust="spacing" textLength="123" x="848" y="32.7617">EmailServices</text><text fill="#000000" font-family="sans-serif" font-size="20" lengthAdjust="spacing" textLength="129" x="845" y="57.918">:EmailServices</text><rect fill="#E3E3E3" height="64.3125" rx="2.5" ry="2.5" style="stroke:#181818;stroke-width:0.5;" width="143" x="838" y="271.9375"/><text fill="#000000" font-family="sans-serif" font-size="20" lengthAdjust="spacing" textLength="123" x="848" y="299.6992">EmailServices</text><text fill="#000000" font-family="sans-serif" font-size="20" lengthAdjust="spacing" textLength="129" x="845" y="324.8555">:EmailServices</text><rect fill="#FFFFFF" height="167.625" style="stroke:#181818;stroke-width:1.0;" width="10" x="112.5" y="80.3125"/><rect fill="#FFFFFF" height="136.4688" style="stroke:#181818;stroke-width:1.0;" width="10" x="904.5" y="111.4688"/><polygon fill="#181818" points="892.5,107.4688,902.5,111.4688,892.5,115.4688,896.5,111.4688" style="stroke:#181818;stroke-width:1.0;"/><line style="stroke:#181818;stroke-width:1.0;" x1="122.5" x2="898.5" y1="111.4688" y2="111.4688"/><text fill="#000000" font-family="sans-serif" font-size="20" font-weight="bold" lengthAdjust="spacing" textLength="11" x="129.5" y="105.0742">1</text><text fill="#000000" font-family="sans-serif" font-size="20" lengthAdjust="spacing" textLength="585" x="144.5" y="105.0742">String emailServiceClass = properties.getProperty("emailService");</text><line style="stroke:#181818;stroke-width:1.0;stroke-dasharray:2.0,2.0;" x1="122.5" x2="164.5" y1="150.625" y2="150.625"/><line style="stroke:#181818;stroke-width:1.0;stroke-dasharray:2.0,2.0;" x1="164.5" x2="164.5" y1="150.625" y2="163.625"/><line style="stroke:#181818;stroke-width:1.0;stroke-dasharray:2.0,2.0;" x1="123.5" x2="164.5" y1="163.625" y2="163.625"/><polygon fill="#181818" points="133.5,159.625,123.5,163.625,133.5,167.625,129.5,163.625" style="stroke:#181818;stroke-width:1.0;"/><text fill="#000000" font-family="sans-serif" font-size="20" font-weight="bold" lengthAdjust="spacing" textLength="11" x="129.5" y="144.2305">2</text><text fill="#000000" font-family="sans-serif" font-size="20" lengthAdjust="spacing" textLength="515" x="144.5" y="144.2305">emailService = (EmailService) serviceClass.newInstance();</text><polygon fill="#181818" points="892.5,198.7813,902.5,202.7813,892.5,206.7813,896.5,202.7813" style="stroke:#181818;stroke-width:1.0;"/><line style="stroke:#181818;stroke-width:1.0;" x1="122.5" x2="898.5" y1="202.7813" y2="202.7813"/><text fill="#000000" font-family="sans-serif" font-size="20" font-weight="bold" lengthAdjust="spacing" textLength="11" x="129.5" y="196.3867">3</text><text fill="#000000" font-family="sans-serif" font-size="20" lengthAdjust="spacing" textLength="537" x="144.5" y="196.3867">sendVisualizedEmail(String email, String subject, String body)</text><line style="stroke:#181818;stroke-width:1.0;stroke-dasharray:2.0,2.0;" x1="914.5" x2="956.5" y1="246.9375" y2="246.9375"/><line style="stroke:#181818;stroke-width:1.0;stroke-dasharray:2.0,2.0;" x1="956.5" x2="956.5" y1="246.9375" y2="259.9375"/><line style="stroke:#181818;stroke-width:1.0;stroke-dasharray:2.0,2.0;" x1="909.5" x2="956.5" y1="259.9375" y2="259.9375"/><polygon fill="#181818" points="919.5,255.9375,909.5,259.9375,919.5,263.9375,915.5,259.9375" style="stroke:#181818;stroke-width:1.0;"/><text fill="#000000" font-family="sans-serif" font-size="20" font-weight="bold" lengthAdjust="spacing" textLength="11" x="921.5" y="240.543">4</text><text fill="#000000" font-family="sans-serif" font-size="20" lengthAdjust="spacing" textLength="402" x="936.5" y="240.543">emailService.sendEmail(email, subject, body);</text><!--SRC=[TLAzJiCm4Dxp5ATCgGGLOYo2fO34128I4ylLlgIcZXtvd5RXwN6Ird6auktklh-ppGTbMdJOQ2iE945IXPtshzRuKlqItDzbV850OuqLUsSR0kywIYOjYWFMLFfU4pWI7asjKm3lKTgJCZLKg9co33jlJTVio6K1uPLGBHeF-UQzgiWzar2ihDc67CvgJIu7P12nN9BimFcarhBorlNVPbAPEoDxHBdOMqgCX0jnXYz1BmqgNP8xAa4Sm8jw9D7GoS91uTKHFQMPuNpc5jm-JHJOGEdTS3-KQ6urCiCZjCws578Ghslo7rFL5tcApLSFqI2QJt6k-GRZfDmiR8DZaQws0axoh0sTtWo79nPK9ARNjs8oyajnXpfy9pcg5kccDvUzkTlzX8yJwvsL_IgAJtAtYN0QU3suJDfdqQWsoimX9VrpDyaWUR7i3m00]--></g></svg>