<?xml version="1.0" encoding="UTF-8" standalone="no"?><svg xmlns="http://www.w3.org/2000/svg" xmlns:xlink="http://www.w3.org/1999/xlink" contentStyleType="text/css" height="444px" preserveAspectRatio="none" style="width:1737px;height:444px;background:#FFFFFF;" version="1.1" viewBox="0 0 1737 444" width="1737px" zoomAndPan="magnify"><defs/><g><rect fill="#FFFFFF" height="285.25" style="stroke:#181818;stroke-width:1.0;" width="10" x="112.5" y="80.3125"/><rect fill="#FFFFFF" height="254.0938" style="stroke:#181818;stroke-width:1.0;" width="10" x="631.5" y="111.4688"/><rect fill="#FFFFFF" height="214.9375" style="stroke:#181818;stroke-width:1.0;" width="10" x="1150.5" y="150.625"/><rect fill="none" height="140.7813" style="stroke:#000000;stroke-width:1.5;" width="629" x="1102.5" y="217.7813"/><rect fill="none" height="89.4688" style="stroke:#000000;stroke-width:1.5;" width="609" x="1112.5" y="262.0938"/><line style="stroke:#181818;stroke-width:0.5;stroke-dasharray:5.0,5.0;" x1="117" x2="117" y1="70.3125" y2="375.5625"/><line style="stroke:#181818;stroke-width:0.5;stroke-dasharray:5.0,5.0;" x1="305" x2="305" y1="70.3125" y2="375.5625"/><line style="stroke:#181818;stroke-width:0.5;stroke-dasharray:5.0,5.0;" x1="445" x2="445" y1="70.3125" y2="375.5625"/><line style="stroke:#181818;stroke-width:0.5;stroke-dasharray:5.0,5.0;" x1="636" x2="636" y1="70.3125" y2="375.5625"/><line style="stroke:#181818;stroke-width:0.5;stroke-dasharray:5.0,5.0;" x1="1155.5" x2="1155.5" y1="70.3125" y2="375.5625"/><rect fill="#E3E3E3" height="39.1563" rx="2.5" ry="2.5" style="stroke:#181818;stroke-width:0.5;" width="225" x="5" y="30.1563"/><text fill="#000000" font-family="sans-serif" font-size="20" lengthAdjust="spacing" textLength="211" x="12" y="57.918">:OfferDecisionController</text><rect fill="#E3E3E3" height="39.1563" rx="2.5" ry="2.5" style="stroke:#181818;stroke-width:0.5;" width="225" x="5" y="374.5625"/><text fill="#000000" font-family="sans-serif" font-size="20" lengthAdjust="spacing" textLength="211" x="12" y="402.3242">:OfferDecisionController</text><rect fill="#E3E3E3" height="39.1563" rx="2.5" ry="2.5" style="stroke:#181818;stroke-width:0.5;" width="130" x="240" y="30.1563"/><text fill="#000000" font-family="sans-serif" font-size="20" lengthAdjust="spacing" textLength="116" x="247" y="57.918">:Repositories</text><rect fill="#E3E3E3" height="39.1563" rx="2.5" ry="2.5" style="stroke:#181818;stroke-width:0.5;" width="130" x="240" y="374.5625"/><text fill="#000000" font-family="sans-serif" font-size="20" lengthAdjust="spacing" textLength="116" x="247" y="402.3242">:Repositories</text><rect fill="#E3E3E3" height="64.3125" rx="2.5" ry="2.5" style="stroke:#181818;stroke-width:0.5;" width="130" x="380" y="5"/><text fill="#000000" font-family="sans-serif" font-size="20" lengthAdjust="spacing" textLength="103" x="393.5" y="32.7617">repositories</text><text fill="#000000" font-family="sans-serif" font-size="20" lengthAdjust="spacing" textLength="116" x="387" y="57.918">:Repositories</text><rect fill="#E3E3E3" height="64.3125" rx="2.5" ry="2.5" style="stroke:#181818;stroke-width:0.5;" width="130" x="380" y="374.5625"/><text fill="#000000" font-family="sans-serif" font-size="20" lengthAdjust="spacing" textLength="103" x="393.5" y="402.3242">repositories</text><text fill="#000000" font-family="sans-serif" font-size="20" lengthAdjust="spacing" textLength="116" x="387" y="427.4805">:Repositories</text><rect fill="#E3E3E3" height="64.3125" rx="2.5" ry="2.5" style="stroke:#181818;stroke-width:0.5;" width="161" x="556" y="5"/><text fill="#000000" font-family="sans-serif" font-size="20" lengthAdjust="spacing" textLength="136" x="568.5" y="32.7617">offerRepository</text><text fill="#000000" font-family="sans-serif" font-size="20" lengthAdjust="spacing" textLength="147" x="563" y="57.918">:OfferRepository</text><rect fill="#E3E3E3" height="64.3125" rx="2.5" ry="2.5" style="stroke:#181818;stroke-width:0.5;" width="161" x="556" y="374.5625"/><text fill="#000000" font-family="sans-serif" font-size="20" lengthAdjust="spacing" textLength="136" x="568.5" y="402.3242">offerRepository</text><text fill="#000000" font-family="sans-serif" font-size="20" lengthAdjust="spacing" textLength="147" x="563" y="427.4805">:OfferRepository</text><rect fill="#E3E3E3" height="64.3125" rx="2.5" ry="2.5" style="stroke:#181818;stroke-width:0.5;" width="66" x="1122.5" y="5"/><text fill="#000000" font-family="sans-serif" font-size="20" lengthAdjust="spacing" textLength="46" x="1132.5" y="32.7617">Offer</text><text fill="#000000" font-family="sans-serif" font-size="20" lengthAdjust="spacing" textLength="52" x="1129.5" y="57.918">:Offer</text><rect fill="#E3E3E3" height="64.3125" rx="2.5" ry="2.5" style="stroke:#181818;stroke-width:0.5;" width="66" x="1122.5" y="374.5625"/><text fill="#000000" font-family="sans-serif" font-size="20" lengthAdjust="spacing" textLength="46" x="1132.5" y="402.3242">Offer</text><text fill="#000000" font-family="sans-serif" font-size="20" lengthAdjust="spacing" textLength="52" x="1129.5" y="427.4805">:Offer</text><rect fill="#FFFFFF" height="285.25" style="stroke:#181818;stroke-width:1.0;" width="10" x="112.5" y="80.3125"/><rect fill="#FFFFFF" height="254.0938" style="stroke:#181818;stroke-width:1.0;" width="10" x="631.5" y="111.4688"/><rect fill="#FFFFFF" height="214.9375" style="stroke:#181818;stroke-width:1.0;" width="10" x="1150.5" y="150.625"/><polygon fill="#181818" points="619.5,107.4688,629.5,111.4688,619.5,115.4688,623.5,111.4688" style="stroke:#181818;stroke-width:1.0;"/><line style="stroke:#181818;stroke-width:1.0;" x1="122.5" x2="625.5" y1="111.4688" y2="111.4688"/><text fill="#000000" font-family="sans-serif" font-size="20" font-weight="bold" lengthAdjust="spacing" textLength="11" x="129.5" y="105.0742">1</text><text fill="#000000" font-family="sans-serif" font-size="20" lengthAdjust="spacing" textLength="475" x="144.5" y="105.0742">declineOtherOffers(Offer offer, List&lt;Offer&gt; offersList)</text><polygon fill="#181818" points="1138.5,146.625,1148.5,150.625,1138.5,154.625,1142.5,150.625" style="stroke:#181818;stroke-width:1.0;"/><line style="stroke:#181818;stroke-width:1.0;stroke-dasharray:2.0,2.0;" x1="641.5" x2="1144.5" y1="150.625" y2="150.625"/><text fill="#000000" font-family="sans-serif" font-size="20" font-weight="bold" lengthAdjust="spacing" textLength="11" x="648.5" y="144.2305">2</text><text fill="#000000" font-family="sans-serif" font-size="20" lengthAdjust="spacing" textLength="475" x="663.5" y="144.2305">declineOtherOffers(Offer offer, List&lt;Offer&gt; offersList)</text><line style="stroke:#181818;stroke-width:1.0;stroke-dasharray:2.0,2.0;" x1="1160.5" x2="1202.5" y1="189.7813" y2="189.7813"/><line style="stroke:#181818;stroke-width:1.0;stroke-dasharray:2.0,2.0;" x1="1202.5" x2="1202.5" y1="189.7813" y2="202.7813"/><line style="stroke:#181818;stroke-width:1.0;stroke-dasharray:2.0,2.0;" x1="1161.5" x2="1202.5" y1="202.7813" y2="202.7813"/><polygon fill="#181818" points="1171.5,198.7813,1161.5,202.7813,1171.5,206.7813,1167.5,202.7813" style="stroke:#181818;stroke-width:1.0;"/><text fill="#000000" font-family="sans-serif" font-size="20" font-weight="bold" lengthAdjust="spacing" textLength="11" x="1167.5" y="183.3867">3</text><text fill="#000000" font-family="sans-serif" font-size="20" lengthAdjust="spacing" textLength="361" x="1182.5" y="183.3867">offer.setOfferState(OfferState.accepted)</text><path d="M1102.5,217.7813 L1188.5,217.7813 L1188.5,234.9375 L1178.5,244.9375 L1102.5,244.9375 L1102.5,217.7813 " fill="#EEEEEE" style="stroke:#000000;stroke-width:1.5;"/><rect fill="none" height="140.7813" style="stroke:#000000;stroke-width:1.5;" width="629" x="1102.5" y="217.7813"/><text fill="#000000" font-family="sans-serif" font-size="20" font-weight="bold" lengthAdjust="spacing" textLength="41" x="1117.5" y="239.543">loop</text><text fill="#000000" font-family="sans-serif" font-size="20" font-weight="bold" lengthAdjust="spacing" textLength="270" x="1203.5" y="240.543">[for every offer in offersList]</text><path d="M1112.5,262.0938 L1188.5,262.0938 L1188.5,279.25 L1178.5,289.25 L1112.5,289.25 L1112.5,262.0938 " fill="#EEEEEE" style="stroke:#000000;stroke-width:1.5;"/><rect fill="none" height="89.4688" style="stroke:#000000;stroke-width:1.5;" width="609" x="1112.5" y="262.0938"/><text fill="#000000" font-family="sans-serif" font-size="20" font-weight="bold" lengthAdjust="spacing" textLength="31" x="1127.5" y="283.8555">opt</text><text fill="#000000" font-family="sans-serif" font-size="20" font-weight="bold" lengthAdjust="spacing" textLength="513" x="1203.5" y="284.8555">[if it is not equal to the offer sent through parameters]</text><line style="stroke:#181818;stroke-width:1.0;stroke-dasharray:2.0,2.0;" x1="1160.5" x2="1202.5" y1="330.5625" y2="330.5625"/><line style="stroke:#181818;stroke-width:1.0;stroke-dasharray:2.0,2.0;" x1="1202.5" x2="1202.5" y1="330.5625" y2="343.5625"/><line style="stroke:#181818;stroke-width:1.0;stroke-dasharray:2.0,2.0;" x1="1161.5" x2="1202.5" y1="343.5625" y2="343.5625"/><polygon fill="#181818" points="1171.5,339.5625,1161.5,343.5625,1171.5,347.5625,1167.5,343.5625" style="stroke:#181818;stroke-width:1.0;"/><text fill="#000000" font-family="sans-serif" font-size="20" font-weight="bold" lengthAdjust="spacing" textLength="11" x="1167.5" y="324.168">4</text><text fill="#000000" font-family="sans-serif" font-size="20" lengthAdjust="spacing" textLength="231" x="1182.5" y="324.168">changeStatusToDeclined()</text><!--SRC=[jLCzJyCm4DtpAqwTMebMYB52B5HCI9Ke8ujnBebLnnTybwBowt7SDbzjsF0GEtVlFR_psRmthb9UbPRq7bD8CLErbHToiZC_20_t2LyWK98ZNNWg4SJNsCjKIkzLZZivMWIFMfJBRH_0XKhfsxWSCcKPaqJLGgukFz4d0I56cqevWTbwcsNeDwWD6tBFmOSdQz7FG37ezdT4UiEAs0XvWnoHR1e3OOiXqFTm7-wQriyFcTJOQl77GDuE8v4VKQt8SIWH2HTY1mzdeSKSb62_FZYFBWJBfx4-h4F3j3KEjrAWZy8yZzC9UWUlXkKnHiviRYABLlyoMW_Z4iR0iONbnTP_URdjeBzld5QC4hLt4gZpRhbIMcCbc5vlP8agoCW37Z2KSX8shcVkYjAQg0HC1YPy6Hm9u5UjB0X1gFwin1ZQBk71r7a1yHsW1Dr9pOa2GvTr4HuKDkNK_4wRqpcdyyMa5Beq-IkMuiGXZnCtRa8FqjtENm00]--></g></svg>