<?xml version="1.0" encoding="UTF-8" standalone="no"?><svg xmlns="http://www.w3.org/2000/svg" xmlns:xlink="http://www.w3.org/1999/xlink" contentStyleType="text/css" height="693px" preserveAspectRatio="none" style="width:1199px;height:693px;background:#FFFFFF;" version="1.1" viewBox="0 0 1199 693" width="1199px" zoomAndPan="magnify"><defs/><g><rect fill="#FFFFFF" height="535.1875" style="stroke:#181818;stroke-width:1.0;" width="10" x="112.5" y="80.3125"/><rect fill="#FFFFFF" height="39.1563" style="stroke:#181818;stroke-width:1.0;" width="10" x="440" y="111.4688"/><rect fill="#FFFFFF" height="416.7188" style="stroke:#181818;stroke-width:1.0;" width="10" x="548" y="189.7813"/><rect fill="#FFFFFF" height="39.1563" style="stroke:#181818;stroke-width:1.0;" width="10" x="926" y="348.5625"/><rect fill="#FFFFFF" height="30" style="stroke:#181818;stroke-width:1.0;" width="10" x="1092.5" y="523.3438"/><rect fill="none" height="288.25" style="stroke:#000000;stroke-width:1.5;" width="693.5" x="500" y="280.0938"/><rect fill="none" height="158.625" style="stroke:#000000;stroke-width:1.5;" width="673.5" x="510" y="402.7188"/><line style="stroke:#181818;stroke-width:0.5;stroke-dasharray:5.0,5.0;" x1="117" x2="117" y1="70.3125" y2="624.5"/><line style="stroke:#181818;stroke-width:0.5;stroke-dasharray:5.0,5.0;" x1="305" x2="305" y1="70.3125" y2="624.5"/><line style="stroke:#181818;stroke-width:0.5;stroke-dasharray:5.0,5.0;" x1="445" x2="445" y1="70.3125" y2="624.5"/><line style="stroke:#181818;stroke-width:0.5;stroke-dasharray:5.0,5.0;" x1="553" x2="553" y1="70.3125" y2="624.5"/><line style="stroke:#181818;stroke-width:0.5;stroke-dasharray:5.0,5.0;" x1="930.5" x2="930.5" y1="70.3125" y2="624.5"/><line style="stroke:#181818;stroke-width:0.5;stroke-dasharray:5.0,5.0;" x1="1097.5" x2="1097.5" y1="245.4375" y2="624.5"/><rect fill="#E3E3E3" height="39.1563" rx="2.5" ry="2.5" style="stroke:#181818;stroke-width:0.5;" width="225" x="5" y="30.1563"/><text fill="#000000" font-family="sans-serif" font-size="20" lengthAdjust="spacing" textLength="211" x="12" y="57.918">:OfferDecisionController</text><rect fill="#E3E3E3" height="39.1563" rx="2.5" ry="2.5" style="stroke:#181818;stroke-width:0.5;" width="225" x="5" y="623.5"/><text fill="#000000" font-family="sans-serif" font-size="20" lengthAdjust="spacing" textLength="211" x="12" y="651.2617">:OfferDecisionController</text><rect fill="#E3E3E3" height="39.1563" rx="2.5" ry="2.5" style="stroke:#181818;stroke-width:0.5;" width="130" x="240" y="30.1563"/><text fill="#000000" font-family="sans-serif" font-size="20" lengthAdjust="spacing" textLength="116" x="247" y="57.918">:Repositories</text><rect fill="#E3E3E3" height="39.1563" rx="2.5" ry="2.5" style="stroke:#181818;stroke-width:0.5;" width="130" x="240" y="623.5"/><text fill="#000000" font-family="sans-serif" font-size="20" lengthAdjust="spacing" textLength="116" x="247" y="651.2617">:Repositories</text><rect fill="#E3E3E3" height="64.3125" rx="2.5" ry="2.5" style="stroke:#181818;stroke-width:0.5;" width="130" x="380" y="5"/><text fill="#000000" font-family="sans-serif" font-size="20" lengthAdjust="spacing" textLength="103" x="393.5" y="32.7617">repositories</text><text fill="#000000" font-family="sans-serif" font-size="20" lengthAdjust="spacing" textLength="116" x="387" y="57.918">:Repositories</text><rect fill="#E3E3E3" height="64.3125" rx="2.5" ry="2.5" style="stroke:#181818;stroke-width:0.5;" width="130" x="380" y="623.5"/><text fill="#000000" font-family="sans-serif" font-size="20" lengthAdjust="spacing" textLength="103" x="393.5" y="651.2617">repositories</text><text fill="#000000" font-family="sans-serif" font-size="20" lengthAdjust="spacing" textLength="116" x="387" y="676.418">:Repositories</text><rect fill="#E3E3E3" height="64.3125" rx="2.5" ry="2.5" style="stroke:#181818;stroke-width:0.5;" width="66" x="520" y="5"/><text fill="#000000" font-family="sans-serif" font-size="20" lengthAdjust="spacing" textLength="46" x="530" y="32.7617">Offer</text><text fill="#000000" font-family="sans-serif" font-size="20" lengthAdjust="spacing" textLength="52" x="527" y="57.918">:Offer</text><rect fill="#E3E3E3" height="64.3125" rx="2.5" ry="2.5" style="stroke:#181818;stroke-width:0.5;" width="66" x="520" y="623.5"/><text fill="#000000" font-family="sans-serif" font-size="20" lengthAdjust="spacing" textLength="46" x="530" y="651.2617">Offer</text><text fill="#000000" font-family="sans-serif" font-size="20" lengthAdjust="spacing" textLength="52" x="527" y="676.418">:Offer</text><rect fill="#E3E3E3" height="64.3125" rx="2.5" ry="2.5" style="stroke:#181818;stroke-width:0.5;" width="161" x="850.5" y="5"/><text fill="#000000" font-family="sans-serif" font-size="20" lengthAdjust="spacing" textLength="136" x="863" y="32.7617">offerRepository</text><text fill="#000000" font-family="sans-serif" font-size="20" lengthAdjust="spacing" textLength="147" x="857.5" y="57.918">:OfferRepository</text><rect fill="#E3E3E3" height="64.3125" rx="2.5" ry="2.5" style="stroke:#181818;stroke-width:0.5;" width="161" x="850.5" y="623.5"/><text fill="#000000" font-family="sans-serif" font-size="20" lengthAdjust="spacing" textLength="136" x="863" y="651.2617">offerRepository</text><text fill="#000000" font-family="sans-serif" font-size="20" lengthAdjust="spacing" textLength="147" x="857.5" y="676.418">:OfferRepository</text><rect fill="#E3E3E3" height="64.3125" rx="2.5" ry="2.5" style="stroke:#181818;stroke-width:0.5;" width="152" x="1021.5" y="623.5"/><text fill="#000000" font-family="sans-serif" font-size="20" lengthAdjust="spacing" textLength="77" x="1059" y="651.2617">OfferList</text><text fill="#000000" font-family="sans-serif" font-size="20" lengthAdjust="spacing" textLength="138" x="1028.5" y="676.418">:List&lt;OfferList&gt;</text><rect fill="#FFFFFF" height="535.1875" style="stroke:#181818;stroke-width:1.0;" width="10" x="112.5" y="80.3125"/><rect fill="#FFFFFF" height="39.1563" style="stroke:#181818;stroke-width:1.0;" width="10" x="440" y="111.4688"/><rect fill="#FFFFFF" height="416.7188" style="stroke:#181818;stroke-width:1.0;" width="10" x="548" y="189.7813"/><rect fill="#FFFFFF" height="39.1563" style="stroke:#181818;stroke-width:1.0;" width="10" x="926" y="348.5625"/><rect fill="#FFFFFF" height="30" style="stroke:#181818;stroke-width:1.0;" width="10" x="1092.5" y="523.3438"/><polygon fill="#181818" points="428,107.4688,438,111.4688,428,115.4688,432,111.4688" style="stroke:#181818;stroke-width:1.0;"/><line style="stroke:#181818;stroke-width:1.0;" x1="122.5" x2="434" y1="111.4688" y2="111.4688"/><text fill="#000000" font-family="sans-serif" font-size="20" font-weight="bold" lengthAdjust="spacing" textLength="11" x="129.5" y="105.0742">1</text><text fill="#000000" font-family="sans-serif" font-size="20" lengthAdjust="spacing" textLength="183" x="144.5" y="105.0742">getOfferRepository()</text><polygon fill="#181818" points="133.5,146.625,123.5,150.625,133.5,154.625,129.5,150.625" style="stroke:#181818;stroke-width:1.0;"/><line style="stroke:#181818;stroke-width:1.0;stroke-dasharray:2.0,2.0;" x1="127.5" x2="444" y1="150.625" y2="150.625"/><text fill="#000000" font-family="sans-serif" font-size="20" font-weight="bold" lengthAdjust="spacing" textLength="11" x="139.5" y="144.2305">2</text><text fill="#000000" font-family="sans-serif" font-size="20" lengthAdjust="spacing" textLength="141" x="154.5" y="144.2305">OfferRepository</text><polygon fill="#181818" points="536,185.7813,546,189.7813,536,193.7813,540,189.7813" style="stroke:#181818;stroke-width:1.0;"/><line style="stroke:#181818;stroke-width:1.0;" x1="122.5" x2="542" y1="189.7813" y2="189.7813"/><text fill="#000000" font-family="sans-serif" font-size="20" font-weight="bold" lengthAdjust="spacing" textLength="11" x="129.5" y="183.3867">3</text><text fill="#000000" font-family="sans-serif" font-size="20" lengthAdjust="spacing" textLength="129" x="144.5" y="183.3867">getOffersList()</text><polygon fill="#181818" points="1009.5,224.9375,1019.5,228.9375,1009.5,232.9375,1013.5,228.9375" style="stroke:#181818;stroke-width:1.0;"/><line style="stroke:#181818;stroke-width:1.0;stroke-dasharray:2.0,2.0;" x1="558" x2="1015.5" y1="228.9375" y2="228.9375"/><text fill="#000000" font-family="sans-serif" font-size="20" font-weight="bold" lengthAdjust="spacing" textLength="11" x="565" y="222.543">4</text><text fill="#000000" font-family="sans-serif" font-size="20" lengthAdjust="spacing" textLength="70" x="580" y="222.543">create()</text><rect fill="#E3E3E3" height="64.3125" rx="2.5" ry="2.5" style="stroke:#181818;stroke-width:0.5;" width="152" x="1021.5" y="197.7813"/><text fill="#000000" font-family="sans-serif" font-size="20" lengthAdjust="spacing" textLength="77" x="1059" y="225.543">OfferList</text><text fill="#000000" font-family="sans-serif" font-size="20" lengthAdjust="spacing" textLength="138" x="1028.5" y="250.6992">:List&lt;OfferList&gt;</text><path d="M500,280.0938 L586,280.0938 L586,297.25 L576,307.25 L500,307.25 L500,280.0938 " fill="#EEEEEE" style="stroke:#000000;stroke-width:1.5;"/><rect fill="none" height="288.25" style="stroke:#000000;stroke-width:1.5;" width="693.5" x="500" y="280.0938"/><text fill="#000000" font-family="sans-serif" font-size="20" font-weight="bold" lengthAdjust="spacing" textLength="41" x="515" y="301.8555">loop</text><text fill="#000000" font-family="sans-serif" font-size="20" font-weight="bold" lengthAdjust="spacing" textLength="143" x="601" y="302.8555">[for each offer]</text><polygon fill="#181818" points="914,344.5625,924,348.5625,914,352.5625,918,348.5625" style="stroke:#181818;stroke-width:1.0;"/><line style="stroke:#181818;stroke-width:1.0;" x1="558" x2="920" y1="348.5625" y2="348.5625"/><text fill="#000000" font-family="sans-serif" font-size="20" font-weight="bold" lengthAdjust="spacing" textLength="11" x="565" y="342.168">5</text><text fill="#000000" font-family="sans-serif" font-size="20" lengthAdjust="spacing" textLength="162" x="580" y="342.168">getOffer(property)</text><polygon fill="#181818" points="569,383.7188,559,387.7188,569,391.7188,565,387.7188" style="stroke:#181818;stroke-width:1.0;"/><line style="stroke:#181818;stroke-width:1.0;stroke-dasharray:2.0,2.0;" x1="563" x2="930" y1="387.7188" y2="387.7188"/><text fill="#000000" font-family="sans-serif" font-size="20" font-weight="bold" lengthAdjust="spacing" textLength="11" x="575" y="381.3242">6</text><text fill="#000000" font-family="sans-serif" font-size="20" lengthAdjust="spacing" textLength="46" x="590" y="381.3242">Offer</text><path d="M510,402.7188 L586,402.7188 L586,419.875 L576,429.875 L510,429.875 L510,402.7188 " fill="#EEEEEE" style="stroke:#000000;stroke-width:1.5;"/><rect fill="none" height="158.625" style="stroke:#000000;stroke-width:1.5;" width="673.5" x="510" y="402.7188"/><text fill="#000000" font-family="sans-serif" font-size="20" font-weight="bold" lengthAdjust="spacing" textLength="31" x="525" y="424.4805">opt</text><text fill="#000000" font-family="sans-serif" font-size="20" font-weight="bold" lengthAdjust="spacing" textLength="199" x="601" y="425.4805">[if offer not declined]</text><line style="stroke:#181818;stroke-width:1.0;stroke-dasharray:2.0,2.0;" x1="558" x2="600" y1="471.1875" y2="471.1875"/><line style="stroke:#181818;stroke-width:1.0;stroke-dasharray:2.0,2.0;" x1="600" x2="600" y1="471.1875" y2="484.1875"/><line style="stroke:#181818;stroke-width:1.0;stroke-dasharray:2.0,2.0;" x1="559" x2="600" y1="484.1875" y2="484.1875"/><polygon fill="#181818" points="569,480.1875,559,484.1875,569,488.1875,565,484.1875" style="stroke:#181818;stroke-width:1.0;"/><text fill="#000000" font-family="sans-serif" font-size="20" font-weight="bold" lengthAdjust="spacing" textLength="11" x="565" y="464.793">7</text><text fill="#000000" font-family="sans-serif" font-size="20" lengthAdjust="spacing" textLength="339" x="580" y="464.793">compare(offer1Amount, offer2Amount)</text><polygon fill="#181818" points="1080.5,519.3438,1090.5,523.3438,1080.5,527.3438,1084.5,523.3438" style="stroke:#181818;stroke-width:1.0;"/><line style="stroke:#181818;stroke-width:1.0;" x1="558" x2="1086.5" y1="523.3438" y2="523.3438"/><text fill="#000000" font-family="sans-serif" font-size="20" font-weight="bold" lengthAdjust="spacing" textLength="11" x="565" y="516.9492">8</text><text fill="#000000" font-family="sans-serif" font-size="20" lengthAdjust="spacing" textLength="88" x="580" y="516.9492">add(offer)</text><polygon fill="#181818" points="133.5,602.5,123.5,606.5,133.5,610.5,129.5,606.5" style="stroke:#181818;stroke-width:1.0;"/><line style="stroke:#181818;stroke-width:1.0;stroke-dasharray:2.0,2.0;" x1="127.5" x2="552" y1="606.5" y2="606.5"/><text fill="#000000" font-family="sans-serif" font-size="20" font-weight="bold" lengthAdjust="spacing" textLength="11" x="139.5" y="600.1055">9</text><text fill="#000000" font-family="sans-serif" font-size="20" lengthAdjust="spacing" textLength="77" x="154.5" y="600.1055">OfferList</text><!--SRC=[ZLCzJyCm4DtpAqvCRKKbw5YXIWZ4L0c9hYp6kRHM7LzaNq3br-CuDB7J19ebiUzzt3t7xgXC9QmeDSaZvf1Z8MhDBsHufxuHLdUPEqEW94FoOAb4O5jZLAc4F8ezxlYa4InA5cQlOu0xY9o-bDb38RJ3B1CrawdB3xIPHx2IgXA6uMRzMXHedr4gfyWy-JuiQOts1eG3sIq7f3Uio2acgz05f5DD0zuY1Te8zsukQN4zPOQsF2My0vQQhnGKjZhHqndUx_J4pkaquhDLZZsvUJrq6vkUhFtIHoXPVGh6E9R-4vQRP1nOmnvvqCzidi78qoadUOn2coUnMNhVg8ir32n7LNAyqZATBuGH3UQQd4PcwiJRCxjKjTXLGxP3G6kqF5iscCN26xT4xtZ1q4GL56J1JtQOyXt8RuQ_HZJQhB9KeUNJV58bdTB-dNXd6xajeqY3wIGpEg-hpIe6LVpg6sAl8RKoc4_7Cf5-apkL_jRWBApl7qkg3T-srLMxcb-h6Xsf5nPvteh-pqyJ6Frj_ekjlSTJQ3GJsOmM-f0kRzzshBbXCzaF]--></g></svg>