<?xml version="1.0" encoding="UTF-8" standalone="no"?><svg xmlns="http://www.w3.org/2000/svg" xmlns:xlink="http://www.w3.org/1999/xlink" contentStyleType="text/css" height="426px" preserveAspectRatio="none" style="width:472px;height:426px;background:#FFFFFF;" version="1.1" viewBox="0 0 472 426" width="472px" zoomAndPan="magnify"><defs/><g><text fill="#000000" font-family="sans-serif" font-size="14" font-weight="bold" lengthAdjust="spacing" textLength="363" x="53.5" y="28.5352">System Sequence Diagram (SSD) - Alternative One</text><rect fill="#FFFFFF" height="207.4844" style="stroke:#181818;stroke-width:1.0;" width="10" x="83" y="128.9766"/><rect fill="#FFFFFF" height="59.9316" style="stroke:#181818;stroke-width:1.0;" width="10" x="428" y="150.2871"/><rect fill="#FFFFFF" height="29.3105" style="stroke:#181818;stroke-width:1.0;" width="10" x="428" y="239.5293"/><rect fill="#FFFFFF" height="29.3105" style="stroke:#181818;stroke-width:1.0;" width="10" x="428" y="298.1504"/><line style="stroke:#181818;stroke-width:0.5;stroke-dasharray:5.0,5.0;" x1="88" x2="88" y1="118.9766" y2="345.4609"/><line style="stroke:#181818;stroke-width:0.5;stroke-dasharray:5.0,5.0;" x1="433" x2="433" y1="118.9766" y2="345.4609"/><text fill="#000000" font-family="sans-serif" font-size="14" lengthAdjust="spacing" textLength="160" x="5" y="116.0234">Organization Employee</text><ellipse cx="88" cy="50.9883" fill="#E3E3E3" rx="8" ry="8" style="stroke:#181818;stroke-width:0.5;"/><path d="M88,58.9883 L88,85.9883 M75,66.9883 L101,66.9883 M88,85.9883 L75,100.9883 M88,85.9883 L101,100.9883 " fill="none" style="stroke:#181818;stroke-width:0.5;"/><text fill="#000000" font-family="sans-serif" font-size="14" lengthAdjust="spacing" textLength="160" x="5" y="357.9961">Organization Employee</text><ellipse cx="88" cy="369.4492" fill="#E3E3E3" rx="8" ry="8" style="stroke:#181818;stroke-width:0.5;"/><path d="M88,377.4492 L88,404.4492 M75,385.4492 L101,385.4492 M88,404.4492 L75,419.4492 M88,404.4492 L101,419.4492 " fill="none" style="stroke:#181818;stroke-width:0.5;"/><rect fill="#E3E3E3" height="30.4883" rx="2.5" ry="2.5" style="stroke:#181818;stroke-width:0.5;" width="66" x="400" y="87.4883"/><text fill="#000000" font-family="sans-serif" font-size="14" lengthAdjust="spacing" textLength="52" x="407" y="108.0234">:System</text><rect fill="#E3E3E3" height="30.4883" rx="2.5" ry="2.5" style="stroke:#181818;stroke-width:0.5;" width="66" x="400" y="344.4609"/><text fill="#000000" font-family="sans-serif" font-size="14" lengthAdjust="spacing" textLength="52" x="407" y="364.9961">:System</text><rect fill="#FFFFFF" height="207.4844" style="stroke:#181818;stroke-width:1.0;" width="10" x="83" y="128.9766"/><rect fill="#FFFFFF" height="59.9316" style="stroke:#181818;stroke-width:1.0;" width="10" x="428" y="150.2871"/><rect fill="#FFFFFF" height="29.3105" style="stroke:#181818;stroke-width:1.0;" width="10" x="428" y="239.5293"/><rect fill="#FFFFFF" height="29.3105" style="stroke:#181818;stroke-width:1.0;" width="10" x="428" y="298.1504"/><polygon fill="#181818" points="416,146.2871,426,150.2871,416,154.2871,420,150.2871" style="stroke:#181818;stroke-width:1.0;"/><line style="stroke:#181818;stroke-width:1.0;" x1="93" x2="422" y1="150.2871" y2="150.2871"/><text fill="#000000" font-family="sans-serif" font-size="13" font-weight="bold" lengthAdjust="spacing" textLength="9" x="100" y="145.5449">1</text><text fill="#000000" font-family="sans-serif" font-size="13" lengthAdjust="spacing" textLength="161" x="113" y="145.5449">Asks to create a new task</text><polygon fill="#181818" points="104,206.2188,94,210.2188,104,214.2188,100,210.2188" style="stroke:#181818;stroke-width:1.0;"/><line style="stroke:#181818;stroke-width:1.0;stroke-dasharray:2.0,2.0;" x1="98" x2="432" y1="210.2188" y2="210.2188"/><text fill="#000000" font-family="sans-serif" font-size="13" font-weight="bold" lengthAdjust="spacing" textLength="9" x="110" y="190.166">2</text><text fill="#000000" font-family="sans-serif" font-size="13" lengthAdjust="spacing" textLength="245" x="123" y="174.8555">requested data (reference, designation,</text><text fill="#000000" font-family="sans-serif" font-size="13" lengthAdjust="spacing" textLength="272" x="123" y="190.166">informal description, technical description,</text><text fill="#000000" font-family="sans-serif" font-size="13" lengthAdjust="spacing" textLength="92" x="123" y="205.4766">duration, cost)</text><polygon fill="#181818" points="416,235.5293,426,239.5293,416,243.5293,420,239.5293" style="stroke:#181818;stroke-width:1.0;"/><line style="stroke:#181818;stroke-width:1.0;" x1="93" x2="422" y1="239.5293" y2="239.5293"/><text fill="#000000" font-family="sans-serif" font-size="13" font-weight="bold" lengthAdjust="spacing" textLength="9" x="100" y="234.7871">3</text><text fill="#000000" font-family="sans-serif" font-size="13" lengthAdjust="spacing" textLength="134" x="113" y="234.7871">Types requested data</text><polygon fill="#181818" points="104,264.8398,94,268.8398,104,272.8398,100,268.8398" style="stroke:#181818;stroke-width:1.0;"/><line style="stroke:#181818;stroke-width:1.0;stroke-dasharray:2.0,2.0;" x1="98" x2="432" y1="268.8398" y2="268.8398"/><text fill="#000000" font-family="sans-serif" font-size="13" font-weight="bold" lengthAdjust="spacing" textLength="9" x="110" y="264.0977">4</text><text fill="#000000" font-family="sans-serif" font-size="13" lengthAdjust="spacing" textLength="298" x="123" y="264.0977">shows task category list and asks to select one</text><polygon fill="#181818" points="416,294.1504,426,298.1504,416,302.1504,420,298.1504" style="stroke:#181818;stroke-width:1.0;"/><line style="stroke:#181818;stroke-width:1.0;" x1="93" x2="422" y1="298.1504" y2="298.1504"/><text fill="#000000" font-family="sans-serif" font-size="13" font-weight="bold" lengthAdjust="spacing" textLength="9" x="100" y="293.4082">5</text><text fill="#000000" font-family="sans-serif" font-size="13" lengthAdjust="spacing" textLength="144" x="113" y="293.4082">Selects a task category</text><polygon fill="#181818" points="104,323.4609,94,327.4609,104,331.4609,100,327.4609" style="stroke:#181818;stroke-width:1.0;"/><line style="stroke:#181818;stroke-width:1.0;stroke-dasharray:2.0,2.0;" x1="98" x2="432" y1="327.4609" y2="327.4609"/><text fill="#000000" font-family="sans-serif" font-size="13" font-weight="bold" lengthAdjust="spacing" textLength="9" x="110" y="322.7188">6</text><text fill="#000000" font-family="sans-serif" font-size="13" lengthAdjust="spacing" textLength="90" x="123" y="322.7188">shows all data</text><!--SRC=[bLAxZi903Epp5HOLIF0352SXSJL5hgJnRKoooiORR0UK-_hR93pkW8PKZdTcTcOIhJstADX04pcwIc93OD9HfhUJ5bsD9UNM1m8XPyXb-0lG2ejuzbp20ODIbfct1CrxDMeWfsD7x0Ys7ii1Fi_pxG9Mi0b6mcZ-HB3ZHCFE8dVDDqcQdKM1sKvAPF-JG97Xisb3x8bcW7fxoP87yywto0QpzNJfY9Z6KSgVqEXEoQuJh3wkDjUmqLh18ZYX0Ot0T0P3hUyALqb8puMtIX8tkNNg9wLD1mKKQ0XpeGF947y91QalUOooX3rxFaHfC0nx9xwTzaQkOkyUrdikEhamNLHRP0KzcNePwgjlIHzSlPD7gtZMiGLmYL56wI5uDK0kKibJOqeX_HOGqqTyzlNILZuoD9NyJ_fzPnZ2bEdvuby0]--></g></svg>