<?xml version="1.0" encoding="UTF-8" standalone="no"?><svg xmlns="http://www.w3.org/2000/svg" xmlns:xlink="http://www.w3.org/1999/xlink" contentStyleType="text/css" height="493px" preserveAspectRatio="none" style="width:1354px;height:493px;background:#FFFFFF;" version="1.1" viewBox="0 0 1354 493" width="1354px" zoomAndPan="magnify"><defs/><g><rect fill="#FFFFFF" height="302.4375" style="stroke:#181818;stroke-width:1.0;" width="10" x="591" y="106.6641"/><rect fill="#FFFFFF" height="37.5547" style="stroke:#181818;stroke-width:1.0;" width="10" x="791" y="176.7734"/><rect fill="#FFFFFF" height="37.5547" style="stroke:#181818;stroke-width:1.0;" width="10" x="945" y="251.8828"/><rect fill="#FFFFFF" height="37.5547" style="stroke:#181818;stroke-width:1.0;" width="10" x="1210" y="326.9922"/><rect fill="none" height="250.8828" style="stroke:#000000;stroke-width:1.5;" width="874.5" x="474" y="121.6641"/><line style="stroke:#181818;stroke-width:0.5;stroke-dasharray:5.0,5.0;" x1="596" x2="596" y1="67.1094" y2="427.1016"/><line style="stroke:#181818;stroke-width:0.5;stroke-dasharray:5.0,5.0;" x1="795.5" x2="795.5" y1="67.1094" y2="427.1016"/><line style="stroke:#181818;stroke-width:0.5;stroke-dasharray:5.0,5.0;" x1="949.5" x2="949.5" y1="67.1094" y2="427.1016"/><line style="stroke:#181818;stroke-width:0.5;stroke-dasharray:5.0,5.0;" x1="1214.5" x2="1214.5" y1="67.1094" y2="427.1016"/><rect fill="#E3E3E3" height="37.5547" rx="2.5" ry="2.5" style="stroke:#181818;stroke-width:0.5;" width="224" x="484" y="28.5547"/><text fill="#000000" font-family="sans-serif" font-size="20" lengthAdjust="spacing" textLength="210" x="491" y="54.8906">:CreateTaskController</text><rect fill="#E3E3E3" height="37.5547" rx="2.5" ry="2.5" style="stroke:#181818;stroke-width:0.5;" width="224" x="484" y="426.1016"/><text fill="#000000" font-family="sans-serif" font-size="20" lengthAdjust="spacing" textLength="210" x="491" y="452.4375">:CreateTaskController</text><rect fill="#E3E3E3" height="37.5547" rx="2.5" ry="2.5" style="stroke:#181818;stroke-width:0.5;" width="139" x="726.5" y="28.5547"/><text fill="#000000" font-family="sans-serif" font-size="20" lengthAdjust="spacing" textLength="125" x="733.5" y="54.8906">:Repositories</text><rect fill="#E3E3E3" height="37.5547" rx="2.5" ry="2.5" style="stroke:#181818;stroke-width:0.5;" width="139" x="726.5" y="426.1016"/><text fill="#000000" font-family="sans-serif" font-size="20" lengthAdjust="spacing" textLength="125" x="733.5" y="452.4375">:Repositories</text><rect fill="#E3E3E3" height="61.1094" rx="2.5" ry="2.5" style="stroke:#181818;stroke-width:0.5;" width="139" x="880.5" y="5"/><text fill="#000000" font-family="sans-serif" font-size="20" lengthAdjust="spacing" textLength="114" x="893" y="31.3359">repositories</text><text fill="#000000" font-family="sans-serif" font-size="20" lengthAdjust="spacing" textLength="125" x="887.5" y="54.8906">:Repositories</text><rect fill="#E3E3E3" height="61.1094" rx="2.5" ry="2.5" style="stroke:#181818;stroke-width:0.5;" width="139" x="880.5" y="426.1016"/><text fill="#000000" font-family="sans-serif" font-size="20" lengthAdjust="spacing" textLength="114" x="893" y="452.4375">repositories</text><text fill="#000000" font-family="sans-serif" font-size="20" lengthAdjust="spacing" textLength="125" x="887.5" y="475.9922">:Repositories</text><rect fill="#E3E3E3" height="61.1094" rx="2.5" ry="2.5" style="stroke:#181818;stroke-width:0.5;" width="247" x="1091.5" y="5"/><text fill="#000000" font-family="sans-serif" font-size="20" lengthAdjust="spacing" textLength="233" x="1098.5" y="31.3359">taskCategoryRepository:</text><text fill="#000000" font-family="sans-serif" font-size="20" lengthAdjust="spacing" textLength="233" x="1098.5" y="54.8906">TaskCategoryRepository</text><rect fill="#E3E3E3" height="61.1094" rx="2.5" ry="2.5" style="stroke:#181818;stroke-width:0.5;" width="247" x="1091.5" y="426.1016"/><text fill="#000000" font-family="sans-serif" font-size="20" lengthAdjust="spacing" textLength="233" x="1098.5" y="452.4375">taskCategoryRepository:</text><text fill="#000000" font-family="sans-serif" font-size="20" lengthAdjust="spacing" textLength="233" x="1098.5" y="475.9922">TaskCategoryRepository</text><rect fill="#FFFFFF" height="302.4375" style="stroke:#181818;stroke-width:1.0;" width="10" x="591" y="106.6641"/><rect fill="#FFFFFF" height="37.5547" style="stroke:#181818;stroke-width:1.0;" width="10" x="791" y="176.7734"/><rect fill="#FFFFFF" height="37.5547" style="stroke:#181818;stroke-width:1.0;" width="10" x="945" y="251.8828"/><rect fill="#FFFFFF" height="37.5547" style="stroke:#181818;stroke-width:1.0;" width="10" x="1210" y="326.9922"/><polygon fill="#181818" points="579,102.6641,589,106.6641,579,110.6641,583,106.6641" style="stroke:#181818;stroke-width:1.0;"/><line style="stroke:#181818;stroke-width:1.0;" x1="0" x2="585" y1="106.6641" y2="106.6641"/><text fill="#000000" font-family="sans-serif" font-size="20" font-weight="bold" lengthAdjust="spacing" textLength="26" x="7" y="100.4453">12</text><text fill="#000000" font-family="sans-serif" font-size="20" lengthAdjust="spacing" textLength="542" x="37" y="100.4453">getTaskCategoryByDescription(taskCategoryDescription)</text><path d="M474,121.6641 L711,121.6641 L711,137.2188 L701,147.2188 L474,147.2188 L474,121.6641 " fill="#EEEEEE" style="stroke:#000000;stroke-width:1.5;"/><rect fill="none" height="250.8828" style="stroke:#000000;stroke-width:1.5;" width="874.5" x="474" y="121.6641"/><text fill="#000000" font-family="sans-serif" font-size="20" font-weight="bold" lengthAdjust="spacing" textLength="192" x="489" y="142">Get Task Category</text><polygon fill="#181818" points="779,172.7734,789,176.7734,779,180.7734,783,176.7734" style="stroke:#181818;stroke-width:1.0;"/><line style="stroke:#181818;stroke-width:1.0;" x1="601" x2="785" y1="176.7734" y2="176.7734"/><text fill="#000000" font-family="sans-serif" font-size="20" font-weight="bold" lengthAdjust="spacing" textLength="44" x="608" y="170.5547">12.1</text><text fill="#000000" font-family="sans-serif" font-size="20" lengthAdjust="spacing" textLength="123" x="656" y="170.5547">getInstance()</text><polygon fill="#181818" points="612,210.3281,602,214.3281,612,218.3281,608,214.3281" style="stroke:#181818;stroke-width:1.0;"/><line style="stroke:#181818;stroke-width:1.0;stroke-dasharray:2.0,2.0;" x1="606" x2="795" y1="214.3281" y2="214.3281"/><text fill="#000000" font-family="sans-serif" font-size="20" font-weight="bold" lengthAdjust="spacing" textLength="44" x="618" y="208.1094">12.2</text><text fill="#000000" font-family="sans-serif" font-size="20" lengthAdjust="spacing" textLength="114" x="666" y="208.1094">repositories</text><polygon fill="#181818" points="933,247.8828,943,251.8828,933,255.8828,937,251.8828" style="stroke:#181818;stroke-width:1.0;"/><line style="stroke:#181818;stroke-width:1.0;" x1="601" x2="939" y1="251.8828" y2="251.8828"/><text fill="#000000" font-family="sans-serif" font-size="20" font-weight="bold" lengthAdjust="spacing" textLength="44" x="608" y="245.6641">12.3</text><text fill="#000000" font-family="sans-serif" font-size="20" lengthAdjust="spacing" textLength="277" x="656" y="245.6641">getTaskCategoryRepository()</text><polygon fill="#181818" points="612,285.4375,602,289.4375,612,293.4375,608,289.4375" style="stroke:#181818;stroke-width:1.0;"/><line style="stroke:#181818;stroke-width:1.0;" x1="606" x2="949" y1="289.4375" y2="289.4375"/><text fill="#000000" font-family="sans-serif" font-size="20" font-weight="bold" lengthAdjust="spacing" textLength="44" x="618" y="283.2188">12.4</text><text fill="#000000" font-family="sans-serif" font-size="20" lengthAdjust="spacing" textLength="227" x="666" y="283.2188">taskCategoryRepository</text><polygon fill="#181818" points="1198,322.9922,1208,326.9922,1198,330.9922,1202,326.9922" style="stroke:#181818;stroke-width:1.0;"/><line style="stroke:#181818;stroke-width:1.0;" x1="601" x2="1204" y1="326.9922" y2="326.9922"/><text fill="#000000" font-family="sans-serif" font-size="20" font-weight="bold" lengthAdjust="spacing" textLength="44" x="608" y="320.7734">12.5</text><text fill="#000000" font-family="sans-serif" font-size="20" lengthAdjust="spacing" textLength="542" x="656" y="320.7734">getTaskCategoryByDescription(taskCategoryDescription)</text><polygon fill="#181818" points="612,360.5469,602,364.5469,612,368.5469,608,364.5469" style="stroke:#181818;stroke-width:1.0;"/><line style="stroke:#181818;stroke-width:1.0;stroke-dasharray:2.0,2.0;" x1="606" x2="1214" y1="364.5469" y2="364.5469"/><text fill="#000000" font-family="sans-serif" font-size="20" font-weight="bold" lengthAdjust="spacing" textLength="44" x="618" y="358.3281">12.6</text><text fill="#000000" font-family="sans-serif" font-size="20" lengthAdjust="spacing" textLength="125" x="666" y="358.3281">taskCategory</text><polygon fill="#181818" points="11,405.1016,1,409.1016,11,413.1016,7,409.1016" style="stroke:#181818;stroke-width:1.0;"/><line style="stroke:#181818;stroke-width:1.0;stroke-dasharray:2.0,2.0;" x1="5" x2="595" y1="409.1016" y2="409.1016"/><text fill="#000000" font-family="sans-serif" font-size="20" font-weight="bold" lengthAdjust="spacing" textLength="26" x="17" y="402.8828">13</text><text fill="#000000" font-family="sans-serif" font-size="20" lengthAdjust="spacing" textLength="125" x="47" y="402.8828">taskCategory</text><!--SRC=[dP8zJyCm48Pt_ufJftO8ecMB418KWP0we3PZ5-CSgPN4ZkmBgFnw78UaRkiYX3VVntlFVTXIgeORNbTQb9X3Zk-yhUX9Azh8BuJ5DRD32DHQQR4pkaOWqsBWQRWeUO4RsbS81WLnLLHXWDtnN7zALS0xhomovimaXMou8fYaIuESCEEsNBhAHbSLcWbm2yjilJg9NMEZhIHj95eVCnhs6zcL9QsEKqoGiLNd0g-h- -muWpeIHrGuqODykbLPrE5LuYx6UEk0sleD3SmNBBdpFK4A1LAOyh1_H2kCR4XgDGq10lliHEvgxWo2v8SBxMS5xXL6jmqy8tac67IyhtiUm8541jTplIZhDYXmEXjpnYgnQOzHtOkf9Zzjfn3kOapByM_o0tYtiFC97b9Zt7x9Hw1UvR2F-CvZZCTI0rGSvT-BFclWqds5BLrWIE9TndhxhGgglB-j_XjUuestt2P9j0uB2lWhPTy0]--></g></svg>