<?xml version="1.0" encoding="UTF-8" standalone="no"?><svg xmlns="http://www.w3.org/2000/svg" xmlns:xlink="http://www.w3.org/1999/xlink" contentStyleType="text/css" height="390px" preserveAspectRatio="none" style="width:677px;height:390px;background:#FFFFFF;" version="1.1" viewBox="0 0 677 390" width="677px" zoomAndPan="magnify"><defs/><g><rect fill="#FFFFFF" height="236.4844" style="stroke:#181818;stroke-width:1.0;" width="10" x="157" y="84.2871"/><rect fill="#FFFFFF" height="29.3105" style="stroke:#181818;stroke-width:1.0;" width="10" x="301" y="137.9082"/><rect fill="#FFFFFF" height="29.3105" style="stroke:#181818;stroke-width:1.0;" width="10" x="414" y="196.5293"/><rect fill="#FFFFFF" height="29.3105" style="stroke:#181818;stroke-width:1.0;" width="10" x="566" y="255.1504"/><rect fill="none" height="193.1738" style="stroke:#000000;stroke-width:1.5;" width="602" x="69.5" y="99.2871"/><line style="stroke:#181818;stroke-width:0.5;stroke-dasharray:5.0,5.0;" x1="161.5" x2="161.5" y1="52.9766" y2="338.7715"/><line style="stroke:#181818;stroke-width:0.5;stroke-dasharray:5.0,5.0;" x1="305.5" x2="305.5" y1="52.9766" y2="338.7715"/><line style="stroke:#181818;stroke-width:0.5;stroke-dasharray:5.0,5.0;" x1="418.5" x2="418.5" y1="52.9766" y2="338.7715"/><line style="stroke:#181818;stroke-width:0.5;stroke-dasharray:5.0,5.0;" x1="570.5" x2="570.5" y1="52.9766" y2="338.7715"/><rect fill="#E3E3E3" height="30.4883" rx="2.5" ry="2.5" style="stroke:#181818;stroke-width:0.5;" width="165" x="79.5" y="21.4883"/><text fill="#000000" font-family="sans-serif" font-size="14" lengthAdjust="spacing" textLength="151" x="86.5" y="42.0234">:CreateTaskController</text><rect fill="#E3E3E3" height="30.4883" rx="2.5" ry="2.5" style="stroke:#181818;stroke-width:0.5;" width="165" x="79.5" y="337.7715"/><text fill="#000000" font-family="sans-serif" font-size="14" lengthAdjust="spacing" textLength="151" x="86.5" y="358.3066">:CreateTaskController</text><rect fill="#E3E3E3" height="30.4883" rx="2.5" ry="2.5" style="stroke:#181818;stroke-width:0.5;" width="103" x="254.5" y="21.4883"/><text fill="#000000" font-family="sans-serif" font-size="14" lengthAdjust="spacing" textLength="89" x="261.5" y="42.0234">:Repositories</text><rect fill="#E3E3E3" height="30.4883" rx="2.5" ry="2.5" style="stroke:#181818;stroke-width:0.5;" width="103" x="254.5" y="337.7715"/><text fill="#000000" font-family="sans-serif" font-size="14" lengthAdjust="spacing" textLength="89" x="261.5" y="358.3066">:Repositories</text><rect fill="#E3E3E3" height="46.9766" rx="2.5" ry="2.5" style="stroke:#181818;stroke-width:0.5;" width="103" x="367.5" y="5"/><text fill="#000000" font-family="sans-serif" font-size="14" lengthAdjust="spacing" textLength="82" x="378" y="25.5352">repositories</text><text fill="#000000" font-family="sans-serif" font-size="14" lengthAdjust="spacing" textLength="89" x="374.5" y="42.0234">:Repositories</text><rect fill="#E3E3E3" height="46.9766" rx="2.5" ry="2.5" style="stroke:#181818;stroke-width:0.5;" width="103" x="367.5" y="337.7715"/><text fill="#000000" font-family="sans-serif" font-size="14" lengthAdjust="spacing" textLength="82" x="378" y="358.3066">repositories</text><text fill="#000000" font-family="sans-serif" font-size="14" lengthAdjust="spacing" textLength="89" x="374.5" y="374.7949">:Repositories</text><rect fill="#E3E3E3" height="46.9766" rx="2.5" ry="2.5" style="stroke:#181818;stroke-width:0.5;" width="181" x="480.5" y="5"/><text fill="#000000" font-family="sans-serif" font-size="14" lengthAdjust="spacing" textLength="167" x="487.5" y="25.5352">taskCategoryRepository:</text><text fill="#000000" font-family="sans-serif" font-size="14" lengthAdjust="spacing" textLength="167" x="487.5" y="42.0234">TaskCategoryRepository</text><rect fill="#E3E3E3" height="46.9766" rx="2.5" ry="2.5" style="stroke:#181818;stroke-width:0.5;" width="181" x="480.5" y="337.7715"/><text fill="#000000" font-family="sans-serif" font-size="14" lengthAdjust="spacing" textLength="167" x="487.5" y="358.3066">taskCategoryRepository:</text><text fill="#000000" font-family="sans-serif" font-size="14" lengthAdjust="spacing" textLength="167" x="487.5" y="374.7949">TaskCategoryRepository</text><rect fill="#FFFFFF" height="236.4844" style="stroke:#181818;stroke-width:1.0;" width="10" x="157" y="84.2871"/><rect fill="#FFFFFF" height="29.3105" style="stroke:#181818;stroke-width:1.0;" width="10" x="301" y="137.9082"/><rect fill="#FFFFFF" height="29.3105" style="stroke:#181818;stroke-width:1.0;" width="10" x="414" y="196.5293"/><rect fill="#FFFFFF" height="29.3105" style="stroke:#181818;stroke-width:1.0;" width="10" x="566" y="255.1504"/><polygon fill="#181818" points="145,80.2871,155,84.2871,145,88.2871,149,84.2871" style="stroke:#181818;stroke-width:1.0;"/><line style="stroke:#181818;stroke-width:1.0;" x1="0" x2="151" y1="84.2871" y2="84.2871"/><text fill="#000000" font-family="sans-serif" font-size="13" font-weight="bold" lengthAdjust="spacing" textLength="9" x="7" y="79.5449">3</text><text fill="#000000" font-family="sans-serif" font-size="13" lengthAdjust="spacing" textLength="125" x="20" y="79.5449">getTaskCategories()</text><path d="M69.5,99.2871 L266.5,99.2871 L266.5,106.5977 L256.5,116.5977 L69.5,116.5977 L69.5,99.2871 " fill="#EEEEEE" style="stroke:#000000;stroke-width:1.5;"/><rect fill="none" height="193.1738" style="stroke:#000000;stroke-width:1.5;" width="602" x="69.5" y="99.2871"/><text fill="#000000" font-family="sans-serif" font-size="13" font-weight="bold" lengthAdjust="spacing" textLength="152" x="84.5" y="112.8555">Get Task Category List</text><polygon fill="#181818" points="289,133.9082,299,137.9082,289,141.9082,293,137.9082" style="stroke:#181818;stroke-width:1.0;"/><line style="stroke:#181818;stroke-width:1.0;" x1="167" x2="295" y1="137.9082" y2="137.9082"/><text fill="#000000" font-family="sans-serif" font-size="13" font-weight="bold" lengthAdjust="spacing" textLength="21" x="174" y="133.166">3.1</text><text fill="#000000" font-family="sans-serif" font-size="13" lengthAdjust="spacing" textLength="81" x="199" y="133.166">getInstance()</text><polygon fill="#181818" points="178,163.2188,168,167.2188,178,171.2188,174,167.2188" style="stroke:#181818;stroke-width:1.0;"/><line style="stroke:#181818;stroke-width:1.0;stroke-dasharray:2.0,2.0;" x1="172" x2="305" y1="167.2188" y2="167.2188"/><text fill="#000000" font-family="sans-serif" font-size="13" font-weight="bold" lengthAdjust="spacing" textLength="21" x="184" y="162.4766">3.2</text><text fill="#000000" font-family="sans-serif" font-size="13" lengthAdjust="spacing" textLength="75" x="209" y="162.4766">repositories</text><polygon fill="#181818" points="402,192.5293,412,196.5293,402,200.5293,406,196.5293" style="stroke:#181818;stroke-width:1.0;"/><line style="stroke:#181818;stroke-width:1.0;" x1="167" x2="408" y1="196.5293" y2="196.5293"/><text fill="#000000" font-family="sans-serif" font-size="13" font-weight="bold" lengthAdjust="spacing" textLength="21" x="174" y="191.7871">3.3</text><text fill="#000000" font-family="sans-serif" font-size="13" lengthAdjust="spacing" textLength="181" x="199" y="191.7871">getTaskCategoryRepository()</text><polygon fill="#181818" points="178,221.8398,168,225.8398,178,229.8398,174,225.8398" style="stroke:#181818;stroke-width:1.0;"/><line style="stroke:#181818;stroke-width:1.0;stroke-dasharray:2.0,2.0;" x1="172" x2="418" y1="225.8398" y2="225.8398"/><text fill="#000000" font-family="sans-serif" font-size="13" font-weight="bold" lengthAdjust="spacing" textLength="21" x="184" y="221.0977">3.4</text><text fill="#000000" font-family="sans-serif" font-size="13" lengthAdjust="spacing" textLength="150" x="209" y="221.0977">taskCategoryRepository</text><polygon fill="#181818" points="554,251.1504,564,255.1504,554,259.1504,558,255.1504" style="stroke:#181818;stroke-width:1.0;"/><line style="stroke:#181818;stroke-width:1.0;" x1="167" x2="560" y1="255.1504" y2="255.1504"/><text fill="#000000" font-family="sans-serif" font-size="13" font-weight="bold" lengthAdjust="spacing" textLength="21" x="174" y="250.4082">3.5</text><text fill="#000000" font-family="sans-serif" font-size="13" lengthAdjust="spacing" textLength="125" x="199" y="250.4082">getTaskCategories()</text><polygon fill="#181818" points="178,280.4609,168,284.4609,178,288.4609,174,284.4609" style="stroke:#181818;stroke-width:1.0;"/><line style="stroke:#181818;stroke-width:1.0;stroke-dasharray:2.0,2.0;" x1="172" x2="570" y1="284.4609" y2="284.4609"/><text fill="#000000" font-family="sans-serif" font-size="13" font-weight="bold" lengthAdjust="spacing" textLength="21" x="184" y="279.7188">3.6</text><text fill="#000000" font-family="sans-serif" font-size="13" lengthAdjust="spacing" textLength="106" x="209" y="279.7188">taskCategoryList</text><polygon fill="#181818" points="11,316.7715,1,320.7715,11,324.7715,7,320.7715" style="stroke:#181818;stroke-width:1.0;"/><line style="stroke:#181818;stroke-width:1.0;stroke-dasharray:2.0,2.0;" x1="5" x2="161" y1="320.7715" y2="320.7715"/><text fill="#000000" font-family="sans-serif" font-size="13" font-weight="bold" lengthAdjust="spacing" textLength="9" x="17" y="316.0293">4</text><text fill="#000000" font-family="sans-serif" font-size="13" lengthAdjust="spacing" textLength="106" x="30" y="316.0293">taskCategoryList</text><!--SRC=[ZLAzJiCm4DxlAKuim10a15E4a507XDG1jHcxkCarjPhOaNq1-lOuBccTnfRm4Ybtz_tTsODKdJ2YnLOhNUwDRWdPz0JsNEb4UH0rhVdO41egMQYw2HliNbJwMweQTwAn121wrgfljsG0RlUo8jnfpLlz0-0cM9Qo4uhn9byO4ao5i8U5Lcnqqv2vGM5nKQoMLxqhwhILh8qawtlEFuvhEIXodDCH4qnir1pWS_bMJ2TuKE8KrGxq0fzlL14jU9HuAGm1dm0mU_McCCUQE9XnOkxk9yqFZo1Abb-kVie1tQkDxZjy9_PyE1BYKbe6y2tZypIEBfBFYVr3MRV3aXnlE7ScZGKxwHnU33txCvbZ6FrajAB_qun6XZtDSWkoJldm-vq9zsWNfV6LfpJF8KUHSMc9TKVbfWxfsa22ARjSMEZ97qZ2JOhHzvEg_3SupMV_uoNBJaGnfW3Ttoxy0W00]--></g></svg>