<?xml version="1.0" encoding="UTF-8" standalone="no"?><svg xmlns="http://www.w3.org/2000/svg" xmlns:xlink="http://www.w3.org/1999/xlink" contentStyleType="text/css" height="474px" preserveAspectRatio="none" style="width:711px;height:474px;background:#FFFFFF;" version="1.1" viewBox="0 0 711 474" width="711px" zoomAndPan="magnify"><defs/><g><rect fill="#FFFFFF" height="289.7949" style="stroke:#181818;stroke-width:1.0;" width="10" x="309" y="114.9082"/><rect fill="#FFFFFF" height="124.9316" style="stroke:#181818;stroke-width:1.0;" width="10" x="314" y="236.4609"/><rect fill="#FFFFFF" height="40.3105" style="stroke:#181818;stroke-width:1.0;" width="10" x="319" y="278.7715"/><rect fill="none" height="246.4844" style="stroke:#000000;stroke-width:1.5;" width="455" x="250" y="129.9082"/><line style="stroke:#181818;stroke-width:0.5;stroke-dasharray:5.0,5.0;" x1="314" x2="314" y1="52.9766" y2="422.7031"/><line style="stroke:#181818;stroke-width:0.5;stroke-dasharray:5.0,5.0;" x1="670" x2="670" y1="187.1846" y2="422.7031"/><rect fill="#E3E3E3" height="46.9766" rx="2.5" ry="2.5" style="stroke:#181818;stroke-width:0.5;" width="108" x="260" y="5"/><text fill="#000000" font-family="sans-serif" font-size="14" lengthAdjust="spacing" textLength="88" x="270" y="25.5352">organization</text><text fill="#000000" font-family="sans-serif" font-size="14" lengthAdjust="spacing" textLength="94" x="267" y="42.0234">:Organization</text><rect fill="#E3E3E3" height="46.9766" rx="2.5" ry="2.5" style="stroke:#181818;stroke-width:0.5;" width="108" x="260" y="421.7031"/><text fill="#000000" font-family="sans-serif" font-size="14" lengthAdjust="spacing" textLength="88" x="270" y="442.2383">organization</text><text fill="#000000" font-family="sans-serif" font-size="14" lengthAdjust="spacing" textLength="94" x="267" y="458.7266">:Organization</text><rect fill="#E3E3E3" height="46.9766" rx="2.5" ry="2.5" style="stroke:#181818;stroke-width:0.5;" width="50" x="645" y="421.7031"/><text fill="#000000" font-family="sans-serif" font-size="14" lengthAdjust="spacing" textLength="28" x="656" y="442.2383">task</text><text fill="#000000" font-family="sans-serif" font-size="14" lengthAdjust="spacing" textLength="36" x="652" y="458.7266">:Task</text><rect fill="#FFFFFF" height="289.7949" style="stroke:#181818;stroke-width:1.0;" width="10" x="309" y="114.9082"/><rect fill="#FFFFFF" height="124.9316" style="stroke:#181818;stroke-width:1.0;" width="10" x="314" y="236.4609"/><rect fill="#FFFFFF" height="40.3105" style="stroke:#181818;stroke-width:1.0;" width="10" x="319" y="278.7715"/><polygon fill="#181818" points="297,110.9082,307,114.9082,297,118.9082,301,114.9082" style="stroke:#181818;stroke-width:1.0;"/><line style="stroke:#181818;stroke-width:1.0;" x1="0" x2="303" y1="114.9082" y2="114.9082"/><text fill="#000000" font-family="sans-serif" font-size="13" font-weight="bold" lengthAdjust="spacing" textLength="18" x="7" y="94.8555">16</text><text fill="#000000" font-family="sans-serif" font-size="13" lengthAdjust="spacing" textLength="216" x="29" y="79.5449">createTask(reference, designation,</text><text fill="#000000" font-family="sans-serif" font-size="13" lengthAdjust="spacing" textLength="268" x="29" y="94.8555">informalDescription, technicalDescription,</text><text fill="#000000" font-family="sans-serif" font-size="13" lengthAdjust="spacing" textLength="255" x="29" y="110.166">duration, cost, taskCategory, employee )</text><path d="M250,129.9082 L375,129.9082 L375,137.2188 L365,147.2188 L250,147.2188 L250,129.9082 " fill="#EEEEEE" style="stroke:#000000;stroke-width:1.5;"/><rect fill="none" height="246.4844" style="stroke:#000000;stroke-width:1.5;" width="455" x="250" y="129.9082"/><text fill="#000000" font-family="sans-serif" font-size="13" font-weight="bold" lengthAdjust="spacing" textLength="80" x="265" y="143.4766">Create Task</text><polygon fill="#181818" points="633,195.1504,643,199.1504,633,203.1504,637,199.1504" style="stroke:#181818;stroke-width:1.0;"/><line style="stroke:#181818;stroke-width:1.0;" x1="319" x2="639" y1="199.1504" y2="199.1504"/><text fill="#000000" font-family="sans-serif" font-size="13" font-weight="bold" lengthAdjust="spacing" textLength="30" x="326" y="179.0977">16.1</text><text fill="#000000" font-family="sans-serif" font-size="13" lengthAdjust="spacing" textLength="186" x="360" y="163.7871">create(reference, designation,</text><text fill="#000000" font-family="sans-serif" font-size="13" lengthAdjust="spacing" textLength="268" x="360" y="179.0977">informalDescription, technicalDescription,</text><text fill="#000000" font-family="sans-serif" font-size="13" lengthAdjust="spacing" textLength="251" x="360" y="194.4082">duration, cost, taskCategory, employee)</text><rect fill="#E3E3E3" height="46.9766" rx="2.5" ry="2.5" style="stroke:#181818;stroke-width:0.5;" width="50" x="645" y="149.1738"/><text fill="#000000" font-family="sans-serif" font-size="14" lengthAdjust="spacing" textLength="28" x="656" y="169.709">task</text><text fill="#000000" font-family="sans-serif" font-size="14" lengthAdjust="spacing" textLength="36" x="652" y="186.1973">:Task</text><line style="stroke:#181818;stroke-width:1.0;" x1="319" x2="366" y1="223.4609" y2="223.4609"/><line style="stroke:#181818;stroke-width:1.0;" x1="366" x2="366" y1="223.4609" y2="236.4609"/><line style="stroke:#181818;stroke-width:1.0;" x1="325" x2="366" y1="236.4609" y2="236.4609"/><polygon fill="#181818" points="335,232.4609,325,236.4609,335,240.4609,331,236.4609" style="stroke:#181818;stroke-width:1.0;"/><text fill="#000000" font-family="sans-serif" font-size="13" font-weight="bold" lengthAdjust="spacing" textLength="30" x="331" y="218.7188">16.2</text><text fill="#000000" font-family="sans-serif" font-size="13" lengthAdjust="spacing" textLength="92" x="365" y="218.7188">addTask (task)</text><line style="stroke:#181818;stroke-width:1.0;" x1="324" x2="371" y1="265.7715" y2="265.7715"/><line style="stroke:#181818;stroke-width:1.0;" x1="371" x2="371" y1="265.7715" y2="278.7715"/><line style="stroke:#181818;stroke-width:1.0;" x1="330" x2="371" y1="278.7715" y2="278.7715"/><polygon fill="#181818" points="340,274.7715,330,278.7715,340,282.7715,336,278.7715" style="stroke:#181818;stroke-width:1.0;"/><text fill="#000000" font-family="sans-serif" font-size="13" font-weight="bold" lengthAdjust="spacing" textLength="30" x="336" y="261.0293">16.3</text><text fill="#000000" font-family="sans-serif" font-size="13" lengthAdjust="spacing" textLength="114" x="370" y="261.0293">validateTask(task)</text><line style="stroke:#181818;stroke-width:1.0;stroke-dasharray:2.0,2.0;" x1="329" x2="371" y1="318.082" y2="318.082"/><line style="stroke:#181818;stroke-width:1.0;stroke-dasharray:2.0,2.0;" x1="371" x2="371" y1="318.082" y2="331.082"/><line style="stroke:#181818;stroke-width:1.0;stroke-dasharray:2.0,2.0;" x1="324" x2="371" y1="331.082" y2="331.082"/><polygon fill="#181818" points="334,327.082,324,331.082,334,335.082,330,331.082" style="stroke:#181818;stroke-width:1.0;"/><text fill="#000000" font-family="sans-serif" font-size="13" font-weight="bold" lengthAdjust="spacing" textLength="30" x="336" y="313.3398">16.4</text><text fill="#000000" font-family="sans-serif" font-size="13" lengthAdjust="spacing" textLength="4" x="370" y="313.3398"> </text><line style="stroke:#181818;stroke-width:1.0;stroke-dasharray:2.0,2.0;" x1="324" x2="366" y1="360.3926" y2="360.3926"/><line style="stroke:#181818;stroke-width:1.0;stroke-dasharray:2.0,2.0;" x1="366" x2="366" y1="360.3926" y2="373.3926"/><line style="stroke:#181818;stroke-width:1.0;stroke-dasharray:2.0,2.0;" x1="319" x2="366" y1="373.3926" y2="373.3926"/><polygon fill="#181818" points="329,369.3926,319,373.3926,329,377.3926,325,373.3926" style="stroke:#181818;stroke-width:1.0;"/><text fill="#000000" font-family="sans-serif" font-size="13" font-weight="bold" lengthAdjust="spacing" textLength="30" x="331" y="355.6504">16.5</text><text fill="#000000" font-family="sans-serif" font-size="13" lengthAdjust="spacing" textLength="4" x="365" y="355.6504"> </text><polygon fill="#181818" points="11,400.7031,1,404.7031,11,408.7031,7,404.7031" style="stroke:#181818;stroke-width:1.0;"/><line style="stroke:#181818;stroke-width:1.0;stroke-dasharray:2.0,2.0;" x1="5" x2="313" y1="404.7031" y2="404.7031"/><text fill="#000000" font-family="sans-serif" font-size="13" font-weight="bold" lengthAdjust="spacing" textLength="18" x="17" y="399.9609">17</text><text fill="#000000" font-family="sans-serif" font-size="13" lengthAdjust="spacing" textLength="27" x="39" y="399.9609">task</text><!--SRC=[lL5DQm8n5BpdLpmygMZ1ImjI2c8_ZeBrwEKrUMQ3kozBahNONzyaYtPtsz9RSmcPpCoRIVpHS8qEAwWiMrauMn44rv3mrviQvH4rlOPpIU181cHTTWc-G6NV3MiuOEb9Y0W78qsD761adKOs7nYCvJqlDvtZ2D33PllI5mJqnqZSnIqJTgljq_DA26o2vQPw8mUBMp5_ICebI4SOA977ZWxaY2NDG94tclEGsPuD7wohi7maBvsfCmg1PC56zj4zgyQrCf3MXqYBpkiuGLjtdW5LTMdFH30PvBbP29J1d28pDuAujBDD3UiS4592aU6q8WLYWxRQT7gfyPyL9iCm-JbHgPGKnaaq-GhyhTnFuXEMHbr-epNeKd_rkFgqHhqxHJsP-4ipu2U8MBMwxe_TPUH-Fiyko_n8OZZi4m00]--></g></svg>