<?xml version="1.0" encoding="UTF-8" standalone="no"?><svg xmlns="http://www.w3.org/2000/svg" xmlns:xlink="http://www.w3.org/1999/xlink" contentStyleType="text/css" height="581px" preserveAspectRatio="none" style="width:665px;height:581px;background:#FFFFFF;" version="1.1" viewBox="0 0 665 581" width="665px" zoomAndPan="magnify"><defs/><g><text fill="#000000" font-family="sans-serif" font-size="14" font-weight="bold" lengthAdjust="spacing" textLength="363" x="150.25" y="28.5352">System Sequence Diagram (SSD) - Alternative One</text><rect fill="#FFFFFF" height="348.5469" style="stroke:#181818;stroke-width:1.0;" width="10" x="114.5" y="136.043"/><rect fill="#FFFFFF" height="37.5547" style="stroke:#181818;stroke-width:1.0;" width="10" x="610.5" y="165.5977"/><rect fill="#FFFFFF" height="37.5547" style="stroke:#181818;stroke-width:1.0;" width="10" x="610.5" y="287.8164"/><rect fill="#FFFFFF" height="37.5547" style="stroke:#181818;stroke-width:1.0;" width="10" x="610.5" y="362.9258"/><rect fill="#FFFFFF" height="37.5547" style="stroke:#181818;stroke-width:1.0;" width="10" x="610.5" y="438.0352"/><line style="stroke:#181818;stroke-width:0.5;stroke-dasharray:5.0,5.0;" x1="119" x2="119" y1="126.043" y2="493.5898"/><line style="stroke:#181818;stroke-width:0.5;stroke-dasharray:5.0,5.0;" x1="615.5" x2="615.5" y1="126.043" y2="493.5898"/><text fill="#000000" font-family="sans-serif" font-size="20" lengthAdjust="spacing" textLength="223" x="5" y="121.8242">Organization Employee</text><ellipse cx="119.5" cy="50.9883" fill="#E3E3E3" rx="8" ry="8" style="stroke:#181818;stroke-width:0.5;"/><path d="M119.5,58.9883 L119.5,85.9883 M106.5,66.9883 L132.5,66.9883 M119.5,85.9883 L106.5,100.9883 M119.5,85.9883 L132.5,100.9883 " fill="none" style="stroke:#181818;stroke-width:0.5;"/><text fill="#000000" font-family="sans-serif" font-size="20" lengthAdjust="spacing" textLength="223" x="5" y="511.9258">Organization Employee</text><ellipse cx="119.5" cy="524.6445" fill="#E3E3E3" rx="8" ry="8" style="stroke:#181818;stroke-width:0.5;"/><path d="M119.5,532.6445 L119.5,559.6445 M106.5,540.6445 L132.5,540.6445 M119.5,559.6445 L106.5,574.6445 M119.5,559.6445 L132.5,574.6445 " fill="none" style="stroke:#181818;stroke-width:0.5;"/><rect fill="#E3E3E3" height="37.5547" rx="2.5" ry="2.5" style="stroke:#181818;stroke-width:0.5;" width="88" x="571.5" y="87.4883"/><text fill="#000000" font-family="sans-serif" font-size="20" lengthAdjust="spacing" textLength="74" x="578.5" y="113.8242">:System</text><rect fill="#E3E3E3" height="37.5547" rx="2.5" ry="2.5" style="stroke:#181818;stroke-width:0.5;" width="88" x="571.5" y="492.5898"/><text fill="#000000" font-family="sans-serif" font-size="20" lengthAdjust="spacing" textLength="74" x="578.5" y="518.9258">:System</text><rect fill="#FFFFFF" height="348.5469" style="stroke:#181818;stroke-width:1.0;" width="10" x="114.5" y="136.043"/><rect fill="#FFFFFF" height="37.5547" style="stroke:#181818;stroke-width:1.0;" width="10" x="610.5" y="165.5977"/><rect fill="#FFFFFF" height="37.5547" style="stroke:#181818;stroke-width:1.0;" width="10" x="610.5" y="287.8164"/><rect fill="#FFFFFF" height="37.5547" style="stroke:#181818;stroke-width:1.0;" width="10" x="610.5" y="362.9258"/><rect fill="#FFFFFF" height="37.5547" style="stroke:#181818;stroke-width:1.0;" width="10" x="610.5" y="438.0352"/><polygon fill="#181818" points="598.5,161.5977,608.5,165.5977,598.5,169.5977,602.5,165.5977" style="stroke:#181818;stroke-width:1.0;"/><line style="stroke:#181818;stroke-width:1.0;" x1="124.5" x2="604.5" y1="165.5977" y2="165.5977"/><text fill="#000000" font-family="sans-serif" font-size="20" font-weight="bold" lengthAdjust="spacing" textLength="13" x="131.5" y="159.3789">1</text><text fill="#000000" font-family="sans-serif" font-size="20" lengthAdjust="spacing" textLength="239" x="148.5" y="159.3789">asks to create a new task</text><polygon fill="#181818" points="135.5,199.1523,125.5,203.1523,135.5,207.1523,131.5,203.1523" style="stroke:#181818;stroke-width:1.0;"/><line style="stroke:#181818;stroke-width:1.0;stroke-dasharray:2.0,2.0;" x1="129.5" x2="614.5" y1="203.1523" y2="203.1523"/><text fill="#000000" font-family="sans-serif" font-size="20" font-weight="bold" lengthAdjust="spacing" textLength="13" x="141.5" y="196.9336">2</text><text fill="#000000" font-family="sans-serif" font-size="20" lengthAdjust="spacing" textLength="130" x="158.5" y="196.9336">requests data</text><polygon fill="#181818" points="598.5,283.8164,608.5,287.8164,598.5,291.8164,602.5,287.8164" style="stroke:#181818;stroke-width:1.0;"/><line style="stroke:#181818;stroke-width:1.0;" x1="124.5" x2="604.5" y1="287.8164" y2="287.8164"/><text fill="#000000" font-family="sans-serif" font-size="20" font-weight="bold" lengthAdjust="spacing" textLength="13" x="131.5" y="258.043">3</text><text fill="#000000" font-family="sans-serif" font-size="20" lengthAdjust="spacing" textLength="433" x="148.5" y="234.4883">types requested data (reference, designation,</text><text fill="#000000" font-family="sans-serif" font-size="20" lengthAdjust="spacing" textLength="412" x="148.5" y="258.043">informal description, technical description,</text><text fill="#000000" font-family="sans-serif" font-size="20" lengthAdjust="spacing" textLength="139" x="148.5" y="281.5977">duration, cost)</text><polygon fill="#181818" points="135.5,321.3711,125.5,325.3711,135.5,329.3711,131.5,325.3711" style="stroke:#181818;stroke-width:1.0;"/><line style="stroke:#181818;stroke-width:1.0;stroke-dasharray:2.0,2.0;" x1="129.5" x2="614.5" y1="325.3711" y2="325.3711"/><text fill="#000000" font-family="sans-serif" font-size="20" font-weight="bold" lengthAdjust="spacing" textLength="13" x="141.5" y="319.1523">4</text><text fill="#000000" font-family="sans-serif" font-size="20" lengthAdjust="spacing" textLength="445" x="158.5" y="319.1523">shows task category list and asks to select one</text><polygon fill="#181818" points="598.5,358.9258,608.5,362.9258,598.5,366.9258,602.5,362.9258" style="stroke:#181818;stroke-width:1.0;"/><line style="stroke:#181818;stroke-width:1.0;" x1="124.5" x2="604.5" y1="362.9258" y2="362.9258"/><text fill="#000000" font-family="sans-serif" font-size="20" font-weight="bold" lengthAdjust="spacing" textLength="13" x="131.5" y="356.707">5</text><text fill="#000000" font-family="sans-serif" font-size="20" lengthAdjust="spacing" textLength="215" x="148.5" y="356.707">selects a task category</text><polygon fill="#181818" points="135.5,396.4805,125.5,400.4805,135.5,404.4805,131.5,400.4805" style="stroke:#181818;stroke-width:1.0;"/><line style="stroke:#181818;stroke-width:1.0;stroke-dasharray:2.0,2.0;" x1="129.5" x2="614.5" y1="400.4805" y2="400.4805"/><text fill="#000000" font-family="sans-serif" font-size="20" font-weight="bold" lengthAdjust="spacing" textLength="13" x="141.5" y="394.2617">6</text><text fill="#000000" font-family="sans-serif" font-size="20" lengthAdjust="spacing" textLength="231" x="158.5" y="394.2617">shows selected category</text><polygon fill="#181818" points="598.5,434.0352,608.5,438.0352,598.5,442.0352,602.5,438.0352" style="stroke:#181818;stroke-width:1.0;"/><line style="stroke:#181818;stroke-width:1.0;" x1="124.5" x2="604.5" y1="438.0352" y2="438.0352"/><text fill="#000000" font-family="sans-serif" font-size="20" font-weight="bold" lengthAdjust="spacing" textLength="13" x="131.5" y="431.8164">7</text><text fill="#000000" font-family="sans-serif" font-size="20" lengthAdjust="spacing" textLength="125" x="148.5" y="431.8164">submits data</text><polygon fill="#181818" points="135.5,471.5898,125.5,475.5898,135.5,479.5898,131.5,475.5898" style="stroke:#181818;stroke-width:1.0;"/><line style="stroke:#181818;stroke-width:1.0;stroke-dasharray:2.0,2.0;" x1="129.5" x2="614.5" y1="475.5898" y2="475.5898"/><text fill="#000000" font-family="sans-serif" font-size="20" font-weight="bold" lengthAdjust="spacing" textLength="13" x="141.5" y="469.3711">8</text><text fill="#000000" font-family="sans-serif" font-size="20" lengthAdjust="spacing" textLength="256" x="158.5" y="469.3711">displays operation success</text><!--SRC=[dP8nRzj038Lt_Gh2KmB4GD7HGu42QTSCMhCm9recV2AL8nL3-VMb9CjrYdHmRhgZ-BvxzoWxilHOiCkQZjH0GtiSilzMyPhV2Rv_gsnjWKv5qw5eH-1beAilFQOZjbJxc0aA9KTfytM37R3H4qiBUyn6LUNiqLgFvjH1JQy3II9uP6odzhkwVho7BVpCJaNG-OtWIKA6WwiCtGkLs2VN0fkdqgBmUpIfmA-kppeIRG3jSgZ2WtFY7iLXirikdJkMxOpYDtJwAwaWrdg2xO_LwYvaHmDNI8Kc1OBG2Jogi-H2Mj5mNcVzDb0Nx2woYfUR6pJeEFSsz2dYKoi-zcGhOvfUGE2kq9xA5ET3m8nRcQDvW6TXsMlfC4_rLBXVwaxf89p-AJzBCvIpCgdv_LUUPmSzsHmEf52rMaR8R0uepIL8enn_36ZCzzO05gd543xSyNMh2p2Y_82woTBmql7rG6_qqR3r6KS3xMd9Fv0faTb_hFm1]--></g></svg>