<?xml version="1.0" encoding="UTF-8" standalone="no"?><svg xmlns="http://www.w3.org/2000/svg" xmlns:xlink="http://www.w3.org/1999/xlink" contentStyleType="text/css" height="841px" preserveAspectRatio="none" style="width:1912px;height:841px;background:#FFFFFF;" version="1.1" viewBox="0 0 1912 841" width="1912px" zoomAndPan="magnify"><defs/><g><rect fill="#FFFFFF" height="650.9844" style="stroke:#181818;stroke-width:1.0;" width="10" x="308" y="106.6641"/><rect fill="#FFFFFF" height="37.5547" style="stroke:#181818;stroke-width:1.0;" width="10" x="531" y="176.7734"/><rect fill="#FFFFFF" height="37.5547" style="stroke:#181818;stroke-width:1.0;" width="10" x="743" y="251.8828"/><rect fill="#FFFFFF" height="37.5547" style="stroke:#181818;stroke-width:1.0;" width="10" x="931" y="326.9922"/><rect fill="#FFFFFF" height="37.5547" style="stroke:#181818;stroke-width:1.0;" width="10" x="1236.5" y="402.1016"/><rect fill="#FFFFFF" height="160.7734" style="stroke:#181818;stroke-width:1.0;" width="10" x="1437" y="477.2109"/><rect fill="#FFFFFF" height="37.5547" style="stroke:#181818;stroke-width:1.0;" width="10" x="1809" y="555.875"/><rect fill="#FFFFFF" height="37.5547" style="stroke:#181818;stroke-width:1.0;" width="10" x="1809" y="675.5391"/><rect fill="none" height="599.4297" style="stroke:#000000;stroke-width:1.5;" width="1715" x="191" y="121.6641"/><rect fill="none" height="109.2188" style="stroke:#000000;stroke-width:1.5;" width="585" x="1311" y="492.2109"/><line style="stroke:#181818;stroke-width:0.5;stroke-dasharray:5.0,5.0;" x1="313" x2="313" y1="67.1094" y2="775.6484"/><line style="stroke:#181818;stroke-width:0.5;stroke-dasharray:5.0,5.0;" x1="536" x2="536" y1="67.1094" y2="775.6484"/><line style="stroke:#181818;stroke-width:0.5;stroke-dasharray:5.0,5.0;" x1="748" x2="748" y1="67.1094" y2="775.6484"/><line style="stroke:#181818;stroke-width:0.5;stroke-dasharray:5.0,5.0;" x1="936" x2="936" y1="67.1094" y2="775.6484"/><line style="stroke:#181818;stroke-width:0.5;stroke-dasharray:5.0,5.0;" x1="1092" x2="1092" y1="67.1094" y2="775.6484"/><line style="stroke:#181818;stroke-width:0.5;stroke-dasharray:5.0,5.0;" x1="1241" x2="1241" y1="67.1094" y2="775.6484"/><line style="stroke:#181818;stroke-width:0.5;stroke-dasharray:5.0,5.0;" x1="1442" x2="1442" y1="67.1094" y2="775.6484"/><line style="stroke:#181818;stroke-width:0.5;stroke-dasharray:5.0,5.0;" x1="1814" x2="1814" y1="67.1094" y2="775.6484"/><rect fill="#E3E3E3" height="37.5547" rx="2.5" ry="2.5" style="stroke:#181818;stroke-width:0.5;" width="224" x="201" y="28.5547"/><text fill="#000000" font-family="sans-serif" font-size="20" lengthAdjust="spacing" textLength="210" x="208" y="54.8906">:CreateTaskController</text><rect fill="#E3E3E3" height="37.5547" rx="2.5" ry="2.5" style="stroke:#181818;stroke-width:0.5;" width="224" x="201" y="774.6484"/><text fill="#000000" font-family="sans-serif" font-size="20" lengthAdjust="spacing" textLength="210" x="208" y="800.9844">:CreateTaskController</text><rect fill="#E3E3E3" height="37.5547" rx="2.5" ry="2.5" style="stroke:#181818;stroke-width:0.5;" width="202" x="435" y="28.5547"/><text fill="#000000" font-family="sans-serif" font-size="20" lengthAdjust="spacing" textLength="188" x="442" y="54.8906">:ApplicationSession</text><rect fill="#E3E3E3" height="37.5547" rx="2.5" ry="2.5" style="stroke:#181818;stroke-width:0.5;" width="202" x="435" y="774.6484"/><text fill="#000000" font-family="sans-serif" font-size="20" lengthAdjust="spacing" textLength="188" x="442" y="800.9844">:ApplicationSession</text><rect fill="#E3E3E3" height="61.1094" rx="2.5" ry="2.5" style="stroke:#181818;stroke-width:0.5;" width="202" x="647" y="5"/><text fill="#000000" font-family="sans-serif" font-size="20" lengthAdjust="spacing" textLength="109" x="693.5" y="31.3359">appSession</text><text fill="#000000" font-family="sans-serif" font-size="20" lengthAdjust="spacing" textLength="188" x="654" y="54.8906">:ApplicationSession</text><rect fill="#E3E3E3" height="61.1094" rx="2.5" ry="2.5" style="stroke:#181818;stroke-width:0.5;" width="202" x="647" y="774.6484"/><text fill="#000000" font-family="sans-serif" font-size="20" lengthAdjust="spacing" textLength="109" x="693.5" y="800.9844">appSession</text><text fill="#000000" font-family="sans-serif" font-size="20" lengthAdjust="spacing" textLength="188" x="654" y="824.5391">:ApplicationSession</text><rect fill="#E3E3E3" height="61.1094" rx="2.5" ry="2.5" style="stroke:#181818;stroke-width:0.5;" width="154" x="859" y="5"/><text fill="#000000" font-family="sans-serif" font-size="20" lengthAdjust="spacing" textLength="140" x="866" y="31.3359">currentSession</text><text fill="#000000" font-family="sans-serif" font-size="20" lengthAdjust="spacing" textLength="121" x="875.5" y="54.8906">:UserSession</text><rect fill="#E3E3E3" height="61.1094" rx="2.5" ry="2.5" style="stroke:#181818;stroke-width:0.5;" width="154" x="859" y="774.6484"/><text fill="#000000" font-family="sans-serif" font-size="20" lengthAdjust="spacing" textLength="140" x="866" y="800.9844">currentSession</text><text fill="#000000" font-family="sans-serif" font-size="20" lengthAdjust="spacing" textLength="121" x="875.5" y="824.5391">:UserSession</text><rect fill="#E3E3E3" height="37.5547" rx="2.5" ry="2.5" style="stroke:#181818;stroke-width:0.5;" width="139" x="1023" y="28.5547"/><text fill="#000000" font-family="sans-serif" font-size="20" lengthAdjust="spacing" textLength="125" x="1030" y="54.8906">:Repositories</text><rect fill="#E3E3E3" height="37.5547" rx="2.5" ry="2.5" style="stroke:#181818;stroke-width:0.5;" width="139" x="1023" y="774.6484"/><text fill="#000000" font-family="sans-serif" font-size="20" lengthAdjust="spacing" textLength="125" x="1030" y="800.9844">:Repositories</text><rect fill="#E3E3E3" height="61.1094" rx="2.5" ry="2.5" style="stroke:#181818;stroke-width:0.5;" width="139" x="1172" y="5"/><text fill="#000000" font-family="sans-serif" font-size="20" lengthAdjust="spacing" textLength="114" x="1184.5" y="31.3359">repositories</text><text fill="#000000" font-family="sans-serif" font-size="20" lengthAdjust="spacing" textLength="125" x="1179" y="54.8906">:Repositories</text><rect fill="#E3E3E3" height="61.1094" rx="2.5" ry="2.5" style="stroke:#181818;stroke-width:0.5;" width="139" x="1172" y="774.6484"/><text fill="#000000" font-family="sans-serif" font-size="20" lengthAdjust="spacing" textLength="114" x="1184.5" y="800.9844">repositories</text><text fill="#000000" font-family="sans-serif" font-size="20" lengthAdjust="spacing" textLength="125" x="1179" y="824.5391">:Repositories</text><rect fill="#E3E3E3" height="61.1094" rx="2.5" ry="2.5" style="stroke:#181818;stroke-width:0.5;" width="242" x="1321" y="5"/><text fill="#000000" font-family="sans-serif" font-size="20" lengthAdjust="spacing" textLength="228" x="1328" y="31.3359">organizationRepository:</text><text fill="#000000" font-family="sans-serif" font-size="20" lengthAdjust="spacing" textLength="226" x="1329" y="54.8906">OrganizationRepository</text><rect fill="#E3E3E3" height="61.1094" rx="2.5" ry="2.5" style="stroke:#181818;stroke-width:0.5;" width="242" x="1321" y="774.6484"/><text fill="#000000" font-family="sans-serif" font-size="20" lengthAdjust="spacing" textLength="228" x="1328" y="800.9844">organizationRepository:</text><text fill="#000000" font-family="sans-serif" font-size="20" lengthAdjust="spacing" textLength="226" x="1329" y="824.5391">OrganizationRepository</text><rect fill="#E3E3E3" height="61.1094" rx="2.5" ry="2.5" style="stroke:#181818;stroke-width:0.5;" width="144" x="1742" y="5"/><text fill="#000000" font-family="sans-serif" font-size="20" lengthAdjust="spacing" textLength="120" x="1754" y="31.3359">organization</text><text fill="#000000" font-family="sans-serif" font-size="20" lengthAdjust="spacing" textLength="130" x="1749" y="54.8906">:Organization</text><rect fill="#E3E3E3" height="61.1094" rx="2.5" ry="2.5" style="stroke:#181818;stroke-width:0.5;" width="144" x="1742" y="774.6484"/><text fill="#000000" font-family="sans-serif" font-size="20" lengthAdjust="spacing" textLength="120" x="1754" y="800.9844">organization</text><text fill="#000000" font-family="sans-serif" font-size="20" lengthAdjust="spacing" textLength="130" x="1749" y="824.5391">:Organization</text><rect fill="#FFFFFF" height="650.9844" style="stroke:#181818;stroke-width:1.0;" width="10" x="308" y="106.6641"/><rect fill="#FFFFFF" height="37.5547" style="stroke:#181818;stroke-width:1.0;" width="10" x="531" y="176.7734"/><rect fill="#FFFFFF" height="37.5547" style="stroke:#181818;stroke-width:1.0;" width="10" x="743" y="251.8828"/><rect fill="#FFFFFF" height="37.5547" style="stroke:#181818;stroke-width:1.0;" width="10" x="931" y="326.9922"/><rect fill="#FFFFFF" height="37.5547" style="stroke:#181818;stroke-width:1.0;" width="10" x="1236.5" y="402.1016"/><rect fill="#FFFFFF" height="160.7734" style="stroke:#181818;stroke-width:1.0;" width="10" x="1437" y="477.2109"/><rect fill="#FFFFFF" height="37.5547" style="stroke:#181818;stroke-width:1.0;" width="10" x="1809" y="555.875"/><rect fill="#FFFFFF" height="37.5547" style="stroke:#181818;stroke-width:1.0;" width="10" x="1809" y="675.5391"/><polygon fill="#181818" points="296,102.6641,306,106.6641,296,110.6641,300,106.6641" style="stroke:#181818;stroke-width:1.0;"/><line style="stroke:#181818;stroke-width:1.0;" x1="0" x2="302" y1="106.6641" y2="106.6641"/><text fill="#000000" font-family="sans-serif" font-size="20" font-weight="bold" lengthAdjust="spacing" textLength="26" x="7" y="100.4453">14</text><text fill="#000000" font-family="sans-serif" font-size="20" lengthAdjust="spacing" textLength="259" x="37" y="100.4453">getEmployeeFromSession()</text><path d="M191,121.6641 L378,121.6641 L378,137.2188 L368,147.2188 L191,147.2188 L191,121.6641 " fill="#EEEEEE" style="stroke:#000000;stroke-width:1.5;"/><rect fill="none" height="599.4297" style="stroke:#000000;stroke-width:1.5;" width="1715" x="191" y="121.6641"/><text fill="#000000" font-family="sans-serif" font-size="20" font-weight="bold" lengthAdjust="spacing" textLength="142" x="206" y="142">Get Employee</text><polygon fill="#181818" points="519,172.7734,529,176.7734,519,180.7734,523,176.7734" style="stroke:#181818;stroke-width:1.0;"/><line style="stroke:#181818;stroke-width:1.0;" x1="318" x2="525" y1="176.7734" y2="176.7734"/><text fill="#000000" font-family="sans-serif" font-size="20" font-weight="bold" lengthAdjust="spacing" textLength="44" x="325" y="170.5547">14.1</text><text fill="#000000" font-family="sans-serif" font-size="20" lengthAdjust="spacing" textLength="123" x="373" y="170.5547">getInstance()</text><polygon fill="#181818" points="329,210.3281,319,214.3281,329,218.3281,325,214.3281" style="stroke:#181818;stroke-width:1.0;"/><line style="stroke:#181818;stroke-width:1.0;" x1="323" x2="535" y1="214.3281" y2="214.3281"/><text fill="#000000" font-family="sans-serif" font-size="20" font-weight="bold" lengthAdjust="spacing" textLength="44" x="335" y="208.1094">14.2</text><text fill="#000000" font-family="sans-serif" font-size="20" lengthAdjust="spacing" textLength="109" x="383" y="208.1094">appSession</text><polygon fill="#181818" points="731,247.8828,741,251.8828,731,255.8828,735,251.8828" style="stroke:#181818;stroke-width:1.0;"/><line style="stroke:#181818;stroke-width:1.0;" x1="318" x2="737" y1="251.8828" y2="251.8828"/><text fill="#000000" font-family="sans-serif" font-size="20" font-weight="bold" lengthAdjust="spacing" textLength="44" x="325" y="245.6641">14.3</text><text fill="#000000" font-family="sans-serif" font-size="20" lengthAdjust="spacing" textLength="188" x="373" y="245.6641">getCurrentSession()</text><polygon fill="#181818" points="329,285.4375,319,289.4375,329,293.4375,325,289.4375" style="stroke:#181818;stroke-width:1.0;"/><line style="stroke:#181818;stroke-width:1.0;stroke-dasharray:2.0,2.0;" x1="323" x2="747" y1="289.4375" y2="289.4375"/><text fill="#000000" font-family="sans-serif" font-size="20" font-weight="bold" lengthAdjust="spacing" textLength="44" x="335" y="283.2188">14.4</text><text fill="#000000" font-family="sans-serif" font-size="20" lengthAdjust="spacing" textLength="140" x="383" y="283.2188">currentSession</text><polygon fill="#181818" points="919,322.9922,929,326.9922,919,330.9922,923,326.9922" style="stroke:#181818;stroke-width:1.0;"/><line style="stroke:#181818;stroke-width:1.0;" x1="318" x2="925" y1="326.9922" y2="326.9922"/><text fill="#000000" font-family="sans-serif" font-size="20" font-weight="bold" lengthAdjust="spacing" textLength="44" x="325" y="320.7734">14.5</text><text fill="#000000" font-family="sans-serif" font-size="20" lengthAdjust="spacing" textLength="221" x="373" y="320.7734">email = getUserEmail()</text><polygon fill="#181818" points="329,360.5469,319,364.5469,329,368.5469,325,364.5469" style="stroke:#181818;stroke-width:1.0;"/><line style="stroke:#181818;stroke-width:1.0;stroke-dasharray:2.0,2.0;" x1="323" x2="935" y1="364.5469" y2="364.5469"/><text fill="#000000" font-family="sans-serif" font-size="20" font-weight="bold" lengthAdjust="spacing" textLength="44" x="335" y="358.3281">14.6</text><text fill="#000000" font-family="sans-serif" font-size="20" lengthAdjust="spacing" textLength="53" x="383" y="358.3281">email</text><polygon fill="#181818" points="1224.5,398.1016,1234.5,402.1016,1224.5,406.1016,1228.5,402.1016" style="stroke:#181818;stroke-width:1.0;"/><line style="stroke:#181818;stroke-width:1.0;" x1="318" x2="1230.5" y1="402.1016" y2="402.1016"/><text fill="#000000" font-family="sans-serif" font-size="20" font-weight="bold" lengthAdjust="spacing" textLength="44" x="325" y="395.8828">14.7</text><text fill="#000000" font-family="sans-serif" font-size="20" lengthAdjust="spacing" textLength="323" x="373" y="395.8828">getOrganizationRepository(email)</text><polygon fill="#181818" points="329,435.6563,319,439.6563,329,443.6563,325,439.6563" style="stroke:#181818;stroke-width:1.0;"/><line style="stroke:#181818;stroke-width:1.0;stroke-dasharray:2.0,2.0;" x1="323" x2="1240.5" y1="439.6563" y2="439.6563"/><text fill="#000000" font-family="sans-serif" font-size="20" font-weight="bold" lengthAdjust="spacing" textLength="44" x="335" y="433.4375">14.8</text><text fill="#000000" font-family="sans-serif" font-size="20" lengthAdjust="spacing" textLength="222" x="383" y="433.4375">organizationRepository</text><polygon fill="#181818" points="1425,473.2109,1435,477.2109,1425,481.2109,1429,477.2109" style="stroke:#181818;stroke-width:1.0;"/><line style="stroke:#181818;stroke-width:1.0;" x1="318" x2="1431" y1="477.2109" y2="477.2109"/><text fill="#000000" font-family="sans-serif" font-size="20" font-weight="bold" lengthAdjust="spacing" textLength="44" x="325" y="470.9922">14.9</text><text fill="#000000" font-family="sans-serif" font-size="20" lengthAdjust="spacing" textLength="339" x="373" y="470.9922">getOrganizationByUserEmail(email)</text><path d="M1311,492.2109 L1402,492.2109 L1402,507.7656 L1392,517.7656 L1311,517.7656 L1311,492.2109 " fill="#EEEEEE" style="stroke:#000000;stroke-width:1.5;"/><rect fill="none" height="109.2188" style="stroke:#000000;stroke-width:1.5;" width="585" x="1311" y="492.2109"/><text fill="#000000" font-family="sans-serif" font-size="20" font-weight="bold" lengthAdjust="spacing" textLength="46" x="1326" y="512.5469">loop</text><text fill="#000000" font-family="sans-serif" font-size="20" font-weight="bold" lengthAdjust="spacing" textLength="245" x="1417" y="513.5469">[[for each organization]</text><polygon fill="#181818" points="1797,551.875,1807,555.875,1797,559.875,1801,555.875" style="stroke:#181818;stroke-width:1.0;"/><line style="stroke:#181818;stroke-width:1.0;" x1="1447" x2="1803" y1="555.875" y2="555.875"/><text fill="#000000" font-family="sans-serif" font-size="20" font-weight="bold" lengthAdjust="spacing" textLength="57" x="1454" y="549.6563">14.10</text><text fill="#000000" font-family="sans-serif" font-size="20" lengthAdjust="spacing" textLength="282" x="1515" y="549.6563">anyEmployeeHasEmail(email)</text><polygon fill="#181818" points="1458,589.4297,1448,593.4297,1458,597.4297,1454,593.4297" style="stroke:#181818;stroke-width:1.0;"/><line style="stroke:#181818;stroke-width:1.0;stroke-dasharray:2.0,2.0;" x1="1452" x2="1813" y1="593.4297" y2="593.4297"/><text fill="#000000" font-family="sans-serif" font-size="20" font-weight="bold" lengthAdjust="spacing" textLength="57" x="1464" y="587.2109">14.11</text><text fill="#000000" font-family="sans-serif" font-size="20" lengthAdjust="spacing" textLength="93" x="1525" y="587.2109">true/false</text><polygon fill="#181818" points="329,633.9844,319,637.9844,329,641.9844,325,637.9844" style="stroke:#181818;stroke-width:1.0;"/><line style="stroke:#181818;stroke-width:1.0;stroke-dasharray:2.0,2.0;" x1="323" x2="1441" y1="637.9844" y2="637.9844"/><text fill="#000000" font-family="sans-serif" font-size="20" font-weight="bold" lengthAdjust="spacing" textLength="57" x="335" y="631.7656">14.12</text><text fill="#000000" font-family="sans-serif" font-size="20" lengthAdjust="spacing" textLength="120" x="396" y="631.7656">organization</text><polygon fill="#181818" points="1797,671.5391,1807,675.5391,1797,679.5391,1801,675.5391" style="stroke:#181818;stroke-width:1.0;"/><line style="stroke:#181818;stroke-width:1.0;" x1="318" x2="1803" y1="675.5391" y2="675.5391"/><text fill="#000000" font-family="sans-serif" font-size="20" font-weight="bold" lengthAdjust="spacing" textLength="57" x="325" y="669.3203">14.13</text><text fill="#000000" font-family="sans-serif" font-size="20" lengthAdjust="spacing" textLength="265" x="386" y="669.3203">getEmployeeByEmail(email)</text><polygon fill="#181818" points="329,709.0938,319,713.0938,329,717.0938,325,713.0938" style="stroke:#181818;stroke-width:1.0;"/><line style="stroke:#181818;stroke-width:1.0;stroke-dasharray:2.0,2.0;" x1="323" x2="1813" y1="713.0938" y2="713.0938"/><text fill="#000000" font-family="sans-serif" font-size="20" font-weight="bold" lengthAdjust="spacing" textLength="57" x="335" y="706.875">14.14</text><text fill="#000000" font-family="sans-serif" font-size="20" lengthAdjust="spacing" textLength="93" x="396" y="706.875">employee</text><polygon fill="#181818" points="11,753.6484,1,757.6484,11,761.6484,7,757.6484" style="stroke:#181818;stroke-width:1.0;"/><line style="stroke:#181818;stroke-width:1.0;stroke-dasharray:2.0,2.0;" x1="5" x2="312" y1="757.6484" y2="757.6484"/><text fill="#000000" font-family="sans-serif" font-size="20" font-weight="bold" lengthAdjust="spacing" textLength="26" x="17" y="751.4297">15</text><text fill="#000000" font-family="sans-serif" font-size="20" lengthAdjust="spacing" textLength="93" x="47" y="751.4297">employee</text><!--SRC=[XLJ1Rjim3BtxAuXUrXtIhSDs2RO1QP1c0meqYBFJ2XIgpJX2P4cGv6tkrqzIOaUoPPIN81BVunFvJ7saN195QYQA8vPGufuqpDmBRdBwYl3fOwQx5AW55yL1YHh1g0Q36qcA8wamDor3K5WOmYiM9kW3ASLVoYlO4wOni_7kG4k4lH3cHVpBR9gX1PM46xYQBnKIWpkYZqkhH0d6K5q1qR3SRHy6kGif6Is8eOBdgBNzyPdFYyqcpYHIdXEU-1Hg12eQfT0semV-qgX2HBxAyyNZGDCMfT3K24LH-wp-eCsfQuqHF8Qe066hZ0Ws3ujTZ12g8fo- -YTSwETF_35vuLdILzEyLaa8EN5irrb66lk2fdv11RUVizbtFnYOGuLcLKicMiHxQvHpewxVnu2RsumKXlwnCpvDD0CRbHADX3KQw2ZyiGlFRgkueVeYFxcs7YlGCdSvFQEVF0JX3k2iSGuN6_H99SRWKTskx39oGwfu17VXQ_V5Opkb12Jhdqms1wm9PV3DIN4-NBc_AHLdKqP2JcU15a-MaZ14TogS1tqRqZQwzeG9DTwxaHPt4YX9MpabBQRgXANrZAJUjPUcJMcT-48YzKm82R_tGe4LTeZKHtakqdnUz7PjFnZ2syxjFuXEQXjhT5yWfC9npYOROikvlVtXj8A7sA3Bha1uXRoC2qwzwh88egQa9lbMe_lPRjVHMhbhtnZWi3bTJyx2SBXR4kzsx_MamTBwua- -pcOZee30BxF_]--></g></svg>