<?xml version="1.0" encoding="UTF-8" standalone="no"?><svg xmlns="http://www.w3.org/2000/svg" xmlns:xlink="http://www.w3.org/1999/xlink" contentStyleType="text/css" height="1410px" preserveAspectRatio="none" style="width:1989px;height:1410px;background:#FFFFFF;" version="1.1" viewBox="0 0 1989 1410" width="1989px" zoomAndPan="magnify"><defs/><g><rect fill="#FFFFFF" height="1205.4141" style="stroke:#181818;stroke-width:1.0;" width="10" x="114.5" y="98.5547"/><rect fill="#FFFFFF" height="246.8828" style="stroke:#181818;stroke-width:1.0;" width="10" x="610.5" y="128.1094"/><rect fill="#FFFFFF" height="37.5547" style="stroke:#181818;stroke-width:1.0;" width="10" x="610.5" y="412.5469"/><rect fill="#FFFFFF" height="37.5547" style="stroke:#181818;stroke-width:1.0;" width="10" x="610.5" y="534.7656"/><rect fill="#FFFFFF" height="694.0938" style="stroke:#181818;stroke-width:1.0;" width="10" x="610.5" y="609.875"/><rect fill="#FFFFFF" height="123.2188" style="stroke:#181818;stroke-width:1.0;" width="10" x="1256.5" y="214.2188"/><rect fill="#FFFFFF" height="595.4297" style="stroke:#181818;stroke-width:1.0;" width="10" x="1256.5" y="670.9844"/><rect fill="#FFFFFF" height="134.2188" style="stroke:#181818;stroke-width:1.0;" width="10" x="1261.5" y="716.5391"/><rect fill="#FFFFFF" height="134.2188" style="stroke:#181818;stroke-width:1.0;" width="10" x="1261.5" y="903.3125"/><rect fill="#FFFFFF" height="123.2188" style="stroke:#181818;stroke-width:1.0;" width="10" x="1903.5" y="1105.6406"/><line style="stroke:#181818;stroke-width:0.5;stroke-dasharray:5.0,5.0;" x1="119" x2="119" y1="88.5547" y2="1321.9688"/><line style="stroke:#181818;stroke-width:0.5;stroke-dasharray:5.0,5.0;" x1="615.5" x2="615.5" y1="88.5547" y2="1321.9688"/><line style="stroke:#181818;stroke-width:0.5;stroke-dasharray:5.0,5.0;" x1="1261.5" x2="1261.5" y1="170.3867" y2="1321.9688"/><line style="stroke:#181818;stroke-width:0.5;stroke-dasharray:5.0,5.0;" x1="1908.5" x2="1908.5" y1="88.5547" y2="1321.9688"/><text fill="#000000" font-family="sans-serif" font-size="20" lengthAdjust="spacing" textLength="223" x="5" y="84.3359">Organization Employee</text><ellipse cx="119.5" cy="13.5" fill="#E3E3E3" rx="8" ry="8" style="stroke:#181818;stroke-width:0.5;"/><path d="M119.5,21.5 L119.5,48.5 M106.5,29.5 L132.5,29.5 M119.5,48.5 L106.5,63.5 M119.5,48.5 L132.5,63.5 " fill="none" style="stroke:#181818;stroke-width:0.5;"/><text fill="#000000" font-family="sans-serif" font-size="20" lengthAdjust="spacing" textLength="223" x="5" y="1340.3047">Organization Employee</text><ellipse cx="119.5" cy="1353.0234" fill="#E3E3E3" rx="8" ry="8" style="stroke:#181818;stroke-width:0.5;"/><path d="M119.5,1361.0234 L119.5,1388.0234 M106.5,1369.0234 L132.5,1369.0234 M119.5,1388.0234 L106.5,1403.0234 M119.5,1388.0234 L132.5,1403.0234 " fill="none" style="stroke:#181818;stroke-width:0.5;"/><rect fill="#E3E3E3" height="37.5547" rx="2.5" ry="2.5" style="stroke:#181818;stroke-width:0.5;" width="148" x="541.5" y="50"/><text fill="#000000" font-family="sans-serif" font-size="20" lengthAdjust="spacing" textLength="134" x="548.5" y="76.3359">:CreateTaskUI</text><rect fill="#E3E3E3" height="37.5547" rx="2.5" ry="2.5" style="stroke:#181818;stroke-width:0.5;" width="148" x="541.5" y="1320.9688"/><text fill="#000000" font-family="sans-serif" font-size="20" lengthAdjust="spacing" textLength="134" x="548.5" y="1347.3047">:CreateTaskUI</text><rect fill="#E3E3E3" height="37.5547" rx="2.5" ry="2.5" style="stroke:#181818;stroke-width:0.5;" width="224" x="1149.5" y="1320.9688"/><text fill="#000000" font-family="sans-serif" font-size="20" lengthAdjust="spacing" textLength="210" x="1156.5" y="1347.3047">:CreateTaskController</text><rect fill="#E3E3E3" height="61.1094" rx="2.5" ry="2.5" style="stroke:#181818;stroke-width:0.5;" width="144" x="1836.5" y="26.4453"/><text fill="#000000" font-family="sans-serif" font-size="20" lengthAdjust="spacing" textLength="120" x="1848.5" y="52.7813">organization</text><text fill="#000000" font-family="sans-serif" font-size="20" lengthAdjust="spacing" textLength="130" x="1843.5" y="76.3359">:Organization</text><rect fill="#E3E3E3" height="61.1094" rx="2.5" ry="2.5" style="stroke:#181818;stroke-width:0.5;" width="144" x="1836.5" y="1320.9688"/><text fill="#000000" font-family="sans-serif" font-size="20" lengthAdjust="spacing" textLength="120" x="1848.5" y="1347.3047">organization</text><text fill="#000000" font-family="sans-serif" font-size="20" lengthAdjust="spacing" textLength="130" x="1843.5" y="1370.8594">:Organization</text><rect fill="#FFFFFF" height="1205.4141" style="stroke:#181818;stroke-width:1.0;" width="10" x="114.5" y="98.5547"/><rect fill="#FFFFFF" height="246.8828" style="stroke:#181818;stroke-width:1.0;" width="10" x="610.5" y="128.1094"/><rect fill="#FFFFFF" height="37.5547" style="stroke:#181818;stroke-width:1.0;" width="10" x="610.5" y="412.5469"/><rect fill="#FFFFFF" height="37.5547" style="stroke:#181818;stroke-width:1.0;" width="10" x="610.5" y="534.7656"/><rect fill="#FFFFFF" height="694.0938" style="stroke:#181818;stroke-width:1.0;" width="10" x="610.5" y="609.875"/><rect fill="#FFFFFF" height="123.2188" style="stroke:#181818;stroke-width:1.0;" width="10" x="1256.5" y="214.2188"/><rect fill="#FFFFFF" height="595.4297" style="stroke:#181818;stroke-width:1.0;" width="10" x="1256.5" y="670.9844"/><rect fill="#FFFFFF" height="134.2188" style="stroke:#181818;stroke-width:1.0;" width="10" x="1261.5" y="716.5391"/><rect fill="#FFFFFF" height="134.2188" style="stroke:#181818;stroke-width:1.0;" width="10" x="1261.5" y="903.3125"/><rect fill="#FFFFFF" height="123.2188" style="stroke:#181818;stroke-width:1.0;" width="10" x="1903.5" y="1105.6406"/><polygon fill="#181818" points="598.5,124.1094,608.5,128.1094,598.5,132.1094,602.5,128.1094" style="stroke:#181818;stroke-width:1.0;"/><line style="stroke:#181818;stroke-width:1.0;" x1="124.5" x2="604.5" y1="128.1094" y2="128.1094"/><text fill="#000000" font-family="sans-serif" font-size="20" font-weight="bold" lengthAdjust="spacing" textLength="13" x="131.5" y="121.8906">1</text><text fill="#000000" font-family="sans-serif" font-size="20" lengthAdjust="spacing" textLength="239" x="148.5" y="121.8906">asks to create a new task</text><polygon fill="#181818" points="1137.5,161.6641,1147.5,165.6641,1137.5,169.6641,1141.5,165.6641" style="stroke:#181818;stroke-width:1.0;"/><line style="stroke:#181818;stroke-width:1.0;" x1="620.5" x2="1143.5" y1="165.6641" y2="165.6641"/><text fill="#000000" font-family="sans-serif" font-size="20" font-weight="bold" lengthAdjust="spacing" textLength="13" x="627.5" y="159.4453">2</text><text fill="#000000" font-family="sans-serif" font-size="20" lengthAdjust="spacing" textLength="58" x="644.5" y="159.4453">create</text><rect fill="#E3E3E3" height="37.5547" rx="2.5" ry="2.5" style="stroke:#181818;stroke-width:0.5;" width="224" x="1149.5" y="136.1094"/><text fill="#000000" font-family="sans-serif" font-size="20" lengthAdjust="spacing" textLength="210" x="1156.5" y="162.4453">:CreateTaskController</text><polygon fill="#181818" points="1244.5,210.2188,1254.5,214.2188,1244.5,218.2188,1248.5,214.2188" style="stroke:#181818;stroke-width:1.0;"/><line style="stroke:#181818;stroke-width:1.0;" x1="620.5" x2="1250.5" y1="214.2188" y2="214.2188"/><text fill="#000000" font-family="sans-serif" font-size="20" font-weight="bold" lengthAdjust="spacing" textLength="13" x="627.5" y="208">3</text><text fill="#000000" font-family="sans-serif" font-size="20" lengthAdjust="spacing" textLength="192" x="644.5" y="208">getTaskCategories()</text><rect fill="none" height="80.6641" style="stroke:#000000;stroke-width:1.5;" width="230" x="1146.5" y="222.2188"/><path d="M1146.5,222.2188 L1220.5,222.2188 L1220.5,237.2188 L1210.5,247.2188 L1146.5,247.2188 L1146.5,222.2188 " fill="#EEEEEE" style="stroke:#000000;stroke-width:2.0;"/><text fill="#000000" font-family="sans-serif" font-size="20" font-weight="bold" lengthAdjust="spacing" textLength="29" x="1159.5" y="243.5547">ref</text><text fill="#000000" font-family="sans-serif" font-size="20" lengthAdjust="spacing" textLength="215" x="1154" y="270.5547">Get Task Category List</text><text fill="#000000" font-family="sans-serif" font-size="20" lengthAdjust="spacing" textLength="6" x="1258.5" y="294.1094"> </text><polygon fill="#181818" points="631.5,333.4375,621.5,337.4375,631.5,341.4375,627.5,337.4375" style="stroke:#181818;stroke-width:1.0;"/><line style="stroke:#181818;stroke-width:1.0;stroke-dasharray:2.0,2.0;" x1="625.5" x2="1260.5" y1="337.4375" y2="337.4375"/><text fill="#000000" font-family="sans-serif" font-size="20" font-weight="bold" lengthAdjust="spacing" textLength="13" x="637.5" y="331.2188">4</text><text fill="#000000" font-family="sans-serif" font-size="20" lengthAdjust="spacing" textLength="159" x="654.5" y="331.2188">taskCategoryList</text><polygon fill="#181818" points="135.5,370.9922,125.5,374.9922,135.5,378.9922,131.5,374.9922" style="stroke:#181818;stroke-width:1.0;"/><line style="stroke:#181818;stroke-width:1.0;stroke-dasharray:2.0,2.0;" x1="129.5" x2="614.5" y1="374.9922" y2="374.9922"/><text fill="#000000" font-family="sans-serif" font-size="20" font-weight="bold" lengthAdjust="spacing" textLength="13" x="141.5" y="368.7734">5</text><text fill="#000000" font-family="sans-serif" font-size="20" lengthAdjust="spacing" textLength="445" x="158.5" y="368.7734">shows task category list and asks to sleect one</text><polygon fill="#181818" points="598.5,408.5469,608.5,412.5469,598.5,416.5469,602.5,412.5469" style="stroke:#181818;stroke-width:1.0;"/><line style="stroke:#181818;stroke-width:1.0;" x1="124.5" x2="604.5" y1="412.5469" y2="412.5469"/><text fill="#000000" font-family="sans-serif" font-size="20" font-weight="bold" lengthAdjust="spacing" textLength="13" x="131.5" y="406.3281">6</text><text fill="#000000" font-family="sans-serif" font-size="20" lengthAdjust="spacing" textLength="215" x="148.5" y="406.3281">selects a task category</text><polygon fill="#181818" points="135.5,446.1016,125.5,450.1016,135.5,454.1016,131.5,450.1016" style="stroke:#181818;stroke-width:1.0;"/><line style="stroke:#181818;stroke-width:1.0;stroke-dasharray:2.0,2.0;" x1="129.5" x2="614.5" y1="450.1016" y2="450.1016"/><text fill="#000000" font-family="sans-serif" font-size="20" font-weight="bold" lengthAdjust="spacing" textLength="13" x="141.5" y="443.8828">7</text><text fill="#000000" font-family="sans-serif" font-size="20" lengthAdjust="spacing" textLength="130" x="158.5" y="443.8828">requests data</text><polygon fill="#181818" points="598.5,530.7656,608.5,534.7656,598.5,538.7656,602.5,534.7656" style="stroke:#181818;stroke-width:1.0;"/><line style="stroke:#181818;stroke-width:1.0;" x1="124.5" x2="604.5" y1="534.7656" y2="534.7656"/><text fill="#000000" font-family="sans-serif" font-size="20" font-weight="bold" lengthAdjust="spacing" textLength="13" x="131.5" y="504.9922">8</text><text fill="#000000" font-family="sans-serif" font-size="20" lengthAdjust="spacing" textLength="429" x="148.5" y="481.4375">types requested data (reference, description,</text><text fill="#000000" font-family="sans-serif" font-size="20" lengthAdjust="spacing" textLength="412" x="148.5" y="504.9922">informal description, technical description,</text><text fill="#000000" font-family="sans-serif" font-size="20" lengthAdjust="spacing" textLength="139" x="148.5" y="528.5469">duration, cost)</text><polygon fill="#181818" points="135.5,568.3203,125.5,572.3203,135.5,576.3203,131.5,572.3203" style="stroke:#181818;stroke-width:1.0;"/><line style="stroke:#181818;stroke-width:1.0;stroke-dasharray:2.0,2.0;" x1="129.5" x2="614.5" y1="572.3203" y2="572.3203"/><text fill="#000000" font-family="sans-serif" font-size="20" font-weight="bold" lengthAdjust="spacing" textLength="13" x="141.5" y="566.1016">9</text><text fill="#000000" font-family="sans-serif" font-size="20" lengthAdjust="spacing" textLength="423" x="158.5" y="566.1016">shows selected category and requested data</text><polygon fill="#181818" points="598.5,605.875,608.5,609.875,598.5,613.875,602.5,609.875" style="stroke:#181818;stroke-width:1.0;"/><line style="stroke:#181818;stroke-width:1.0;" x1="124.5" x2="604.5" y1="609.875" y2="609.875"/><text fill="#000000" font-family="sans-serif" font-size="20" font-weight="bold" lengthAdjust="spacing" textLength="26" x="131.5" y="603.6563">10</text><text fill="#000000" font-family="sans-serif" font-size="20" lengthAdjust="spacing" textLength="125" x="161.5" y="603.6563">submits data</text><polygon fill="#181818" points="1244.5,666.9844,1254.5,670.9844,1244.5,674.9844,1248.5,670.9844" style="stroke:#181818;stroke-width:1.0;"/><line style="stroke:#181818;stroke-width:1.0;" x1="620.5" x2="1250.5" y1="670.9844" y2="670.9844"/><text fill="#000000" font-family="sans-serif" font-size="20" font-weight="bold" lengthAdjust="spacing" textLength="26" x="627.5" y="652.9883">11</text><text fill="#000000" font-family="sans-serif" font-size="20" lengthAdjust="spacing" textLength="529" x="657.5" y="641.2109">createTask(reference, description, informalDescription,</text><text fill="#000000" font-family="sans-serif" font-size="20" lengthAdjust="spacing" textLength="587" x="657.5" y="664.7656">technicalDescription,duration, cost, taskCategoryDescription)</text><line style="stroke:#181818;stroke-width:1.0;" x1="1266.5" x2="1313.5" y1="703.5391" y2="703.5391"/><line style="stroke:#181818;stroke-width:1.0;" x1="1313.5" x2="1313.5" y1="703.5391" y2="716.5391"/><line style="stroke:#181818;stroke-width:1.0;" x1="1272.5" x2="1313.5" y1="716.5391" y2="716.5391"/><polygon fill="#181818" points="1282.5,712.5391,1272.5,716.5391,1282.5,720.5391,1278.5,716.5391" style="stroke:#181818;stroke-width:1.0;"/><text fill="#000000" font-family="sans-serif" font-size="20" font-weight="bold" lengthAdjust="spacing" textLength="26" x="1278.5" y="697.3203">12</text><text fill="#000000" font-family="sans-serif" font-size="20" lengthAdjust="spacing" textLength="542" x="1308.5" y="697.3203">getTaskCategoryByDescription(taskCategoryDescription)</text><rect fill="none" height="80.6641" style="stroke:#000000;stroke-width:1.5;" width="252" x="1146.5" y="729.5391"/><path d="M1146.5,729.5391 L1220.5,729.5391 L1220.5,744.5391 L1210.5,754.5391 L1146.5,754.5391 L1146.5,729.5391 " fill="#EEEEEE" style="stroke:#000000;stroke-width:2.0;"/><text fill="#000000" font-family="sans-serif" font-size="20" font-weight="bold" lengthAdjust="spacing" textLength="29" x="1159.5" y="750.875">ref</text><text fill="#000000" font-family="sans-serif" font-size="20" lengthAdjust="spacing" textLength="244" x="1150.5" y="777.875">Get Task Category Object</text><text fill="#000000" font-family="sans-serif" font-size="20" lengthAdjust="spacing" textLength="6" x="1269.5" y="801.4297"> </text><line style="stroke:#181818;stroke-width:1.0;stroke-dasharray:2.0,2.0;" x1="1271.5" x2="1313.5" y1="849.7578" y2="849.7578"/><line style="stroke:#181818;stroke-width:1.0;stroke-dasharray:2.0,2.0;" x1="1313.5" x2="1313.5" y1="849.7578" y2="862.7578"/><line style="stroke:#181818;stroke-width:1.0;stroke-dasharray:2.0,2.0;" x1="1266.5" x2="1313.5" y1="862.7578" y2="862.7578"/><polygon fill="#181818" points="1276.5,858.7578,1266.5,862.7578,1276.5,866.7578,1272.5,862.7578" style="stroke:#181818;stroke-width:1.0;"/><text fill="#000000" font-family="sans-serif" font-size="20" font-weight="bold" lengthAdjust="spacing" textLength="26" x="1278.5" y="843.5391">13</text><text fill="#000000" font-family="sans-serif" font-size="20" lengthAdjust="spacing" textLength="125" x="1308.5" y="843.5391">taskCategory</text><line style="stroke:#181818;stroke-width:1.0;" x1="1266.5" x2="1313.5" y1="890.3125" y2="890.3125"/><line style="stroke:#181818;stroke-width:1.0;" x1="1313.5" x2="1313.5" y1="890.3125" y2="903.3125"/><line style="stroke:#181818;stroke-width:1.0;" x1="1272.5" x2="1313.5" y1="903.3125" y2="903.3125"/><polygon fill="#181818" points="1282.5,899.3125,1272.5,903.3125,1282.5,907.3125,1278.5,903.3125" style="stroke:#181818;stroke-width:1.0;"/><text fill="#000000" font-family="sans-serif" font-size="20" font-weight="bold" lengthAdjust="spacing" textLength="26" x="1278.5" y="884.0938">14</text><text fill="#000000" font-family="sans-serif" font-size="20" lengthAdjust="spacing" textLength="259" x="1308.5" y="884.0938">getEmployeeFromSession()</text><rect fill="none" height="80.6641" style="stroke:#000000;stroke-width:1.5;" width="230" x="1146.5" y="916.3125"/><path d="M1146.5,916.3125 L1220.5,916.3125 L1220.5,931.3125 L1210.5,941.3125 L1146.5,941.3125 L1146.5,916.3125 " fill="#EEEEEE" style="stroke:#000000;stroke-width:2.0;"/><text fill="#000000" font-family="sans-serif" font-size="20" font-weight="bold" lengthAdjust="spacing" textLength="29" x="1159.5" y="937.6484">ref</text><text fill="#000000" font-family="sans-serif" font-size="20" lengthAdjust="spacing" textLength="131" x="1196" y="964.6484">Get Employee</text><text fill="#000000" font-family="sans-serif" font-size="20" lengthAdjust="spacing" textLength="6" x="1258.5" y="988.2031"> </text><line style="stroke:#181818;stroke-width:1.0;" x1="1271.5" x2="1313.5" y1="1036.5313" y2="1036.5313"/><line style="stroke:#181818;stroke-width:1.0;" x1="1313.5" x2="1313.5" y1="1036.5313" y2="1049.5313"/><line style="stroke:#181818;stroke-width:1.0;" x1="1266.5" x2="1313.5" y1="1049.5313" y2="1049.5313"/><polygon fill="#181818" points="1276.5,1045.5313,1266.5,1049.5313,1276.5,1053.5313,1272.5,1049.5313" style="stroke:#181818;stroke-width:1.0;"/><text fill="#000000" font-family="sans-serif" font-size="20" font-weight="bold" lengthAdjust="spacing" textLength="26" x="1278.5" y="1030.3125">15</text><text fill="#000000" font-family="sans-serif" font-size="20" lengthAdjust="spacing" textLength="93" x="1308.5" y="1030.3125">employee</text><polygon fill="#181818" points="1891.5,1101.6406,1901.5,1105.6406,1891.5,1109.6406,1895.5,1105.6406" style="stroke:#181818;stroke-width:1.0;"/><line style="stroke:#181818;stroke-width:1.0;" x1="1266.5" x2="1897.5" y1="1105.6406" y2="1105.6406"/><text fill="#000000" font-family="sans-serif" font-size="20" font-weight="bold" lengthAdjust="spacing" textLength="26" x="1273.5" y="1087.6445">16</text><text fill="#000000" font-family="sans-serif" font-size="20" lengthAdjust="spacing" textLength="529" x="1303.5" y="1075.8672">createTask(reference, description, informalDescription,</text><text fill="#000000" font-family="sans-serif" font-size="20" lengthAdjust="spacing" textLength="588" x="1303.5" y="1099.4219">technicalDescription, duration, cost, taskCategory, employee)</text><rect fill="none" height="80.6641" style="stroke:#000000;stroke-width:1.5;" width="150" x="1833.5" y="1113.6406"/><path d="M1833.5,1113.6406 L1907.5,1113.6406 L1907.5,1128.6406 L1897.5,1138.6406 L1833.5,1138.6406 L1833.5,1113.6406 " fill="#EEEEEE" style="stroke:#000000;stroke-width:2.0;"/><text fill="#000000" font-family="sans-serif" font-size="20" font-weight="bold" lengthAdjust="spacing" textLength="29" x="1846.5" y="1134.9766">ref</text><text fill="#000000" font-family="sans-serif" font-size="20" lengthAdjust="spacing" textLength="114" x="1851.5" y="1161.9766">Create Task</text><text fill="#000000" font-family="sans-serif" font-size="20" lengthAdjust="spacing" textLength="6" x="1905.5" y="1185.5313"> </text><polygon fill="#181818" points="1277.5,1224.8594,1267.5,1228.8594,1277.5,1232.8594,1273.5,1228.8594" style="stroke:#181818;stroke-width:1.0;"/><line style="stroke:#181818;stroke-width:1.0;stroke-dasharray:2.0,2.0;" x1="1271.5" x2="1907.5" y1="1228.8594" y2="1228.8594"/><text fill="#000000" font-family="sans-serif" font-size="20" font-weight="bold" lengthAdjust="spacing" textLength="26" x="1283.5" y="1222.6406">17</text><text fill="#000000" font-family="sans-serif" font-size="20" lengthAdjust="spacing" textLength="40" x="1313.5" y="1222.6406">task</text><polygon fill="#181818" points="631.5,1262.4141,621.5,1266.4141,631.5,1270.4141,627.5,1266.4141" style="stroke:#181818;stroke-width:1.0;"/><line style="stroke:#181818;stroke-width:1.0;stroke-dasharray:2.0,2.0;" x1="625.5" x2="1260.5" y1="1266.4141" y2="1266.4141"/><text fill="#000000" font-family="sans-serif" font-size="20" font-weight="bold" lengthAdjust="spacing" textLength="26" x="637.5" y="1260.1953">18</text><text fill="#000000" font-family="sans-serif" font-size="20" lengthAdjust="spacing" textLength="40" x="667.5" y="1260.1953">task</text><polygon fill="#181818" points="130.5,1299.9688,120.5,1303.9688,130.5,1307.9688,126.5,1303.9688" style="stroke:#181818;stroke-width:1.0;"/><line style="stroke:#181818;stroke-width:1.0;stroke-dasharray:2.0,2.0;" x1="124.5" x2="614.5" y1="1303.9688" y2="1303.9688"/><text fill="#000000" font-family="sans-serif" font-size="20" font-weight="bold" lengthAdjust="spacing" textLength="26" x="136.5" y="1297.75">19</text><text fill="#000000" font-family="sans-serif" font-size="20" lengthAdjust="spacing" textLength="256" x="166.5" y="1297.75">displays operation success</text><!--SRC=[jLN1Rjim3BtxAuXSbXGfCEoOmu0jNOi27G8qxIqNHMOSBRBaIN8pz-j7oRKZDtQI0PrF2VNu-FX4INOdLC4CowNcEqmXnGqhfRlLoYt5AyANpubj891hfVdMw1p1cHAZbOBn7SjmwIg9O90xfZ8P0-oMfNelL0OR9Yqc2IkTLcM-HfCadxOYHTXexTRwJyAuqmP62vCn9LwP4rh1ZxoGka8S0RFmxUPdGgnES54mvM0qcnja3f-OtJtV1yZp_I1YJgqPBIMQW9m_FJvqiJegl5ApM4V8M3pU9LwaU27682O1-kW7N7-boZ0ZrCw2qy13LM2WS0-EeZMqJIQP8U0_IgHqB-VgYYZgr9vLMilGXKu8a6aZq8udBT3W1lGBchenYBuxTE3Ju2slWWTXtK40gjHd7mAjp43LuGf2hfjstK5C5JWRM8e37BuTolQUpMWszDu64k2DD4aqm4XHOwMLI6C5MjMUHCoDYV46M9I4jkHyX_Qq-wqWWxzBj9IUCiSkAUUg0csJvayHvS6Op4I3YkEKyYqtel0pD5qfeJRQv4nsmk2GRvNWxy8hbPQ6rGYkhPjSs4DjQkq3AMgDPM6NOw4N-LckSn4RScQ4sm7s0pTa13G-t7JwRNs8mrqJffsHYt2JouTtu3HLtsE-yTawPsgTFfB3HtEn_aKRTynrT4YFJkHRLx7m3dZmJFPRqzoyjtJjBz5QRyf_wBufCznnVyEjL6m8_hbNkiy_UbhXrBXEMwq3FeO7Pj16lzhdOlt2XJ7gDV4uI4pl9sR8lID9qGDmElDerm-tr0nIOGl9AWkwmDemkcaufp7hkvIYl_xL_Gi0]--></g></svg>