<?xml version="1.0" encoding="us-ascii" standalone="no"?><svg xmlns="http://www.w3.org/2000/svg" xmlns:xlink="http://www.w3.org/1999/xlink" contentStyleType="text/css" height="1460px" preserveAspectRatio="none" style="width:744px;height:1460px;background:#FFFFFF;" version="1.1" viewBox="0 0 744 1460" width="744px" zoomAndPan="magnify"><defs/><g><text fill="#000000" font-family="sans-serif" font-size="14" font-weight="bold" lengthAdjust="spacing" textLength="169" x="280.75" y="23.5352">US010 - Domain Model</text><!--class Address--><g id="elem_Address"><rect codeLine="10" fill="#F1F1F1" height="67.4648" id="Address" rx="2.5" ry="2.5" style="stroke:#181818;stroke-width:0.5;" width="73" x="526.5" y="172.4883"/><text fill="#000000" font-family="sans-serif" font-size="14" lengthAdjust="spacing" textLength="56" x="535" y="191.0234">Address</text><line style="stroke:#181818;stroke-width:0.5;" x1="527.5" x2="598.5" y1="198.9766" y2="198.9766"/><text fill="#000000" font-family="sans-serif" font-size="14" lengthAdjust="spacing" textLength="40" x="532.5" y="216.5117">Street</text><text fill="#000000" font-family="sans-serif" font-size="14" lengthAdjust="spacing" textLength="61" x="532.5" y="233">Zip Code</text></g><!--class AvailableEquipment--><g id="elem_AvailableEquipment"><rect codeLine="15" fill="#F1F1F1" height="50.9766" id="AvailableEquipment" rx="2.5" ry="2.5" style="stroke:#181818;stroke-width:0.5;" width="142" x="168" y="1266.4883"/><text fill="#000000" font-family="sans-serif" font-size="14" lengthAdjust="spacing" textLength="136" x="171" y="1285.0234">AvailableEquipment</text><line style="stroke:#181818;stroke-width:0.5;" x1="169" x2="309" y1="1292.9766" y2="1292.9766"/><text fill="#000000" font-family="sans-serif" font-size="14" lengthAdjust="spacing" textLength="74" x="174" y="1310.5117">Equipment</text></g><!--class Business--><g id="elem_Business"><rect codeLine="20" fill="#F1F1F1" height="50.9766" id="Business" rx="2.5" ry="2.5" style="stroke:#181818;stroke-width:0.5;" width="85" x="62.5" y="899.4883"/><text fill="#000000" font-family="sans-serif" font-size="14" lengthAdjust="spacing" textLength="59" x="75.5" y="918.0234">Business</text><line style="stroke:#181818;stroke-width:0.5;" x1="63.5" x2="146.5" y1="925.9766" y2="925.9766"/><text fill="#000000" font-family="sans-serif" font-size="14" lengthAdjust="spacing" textLength="73" x="68.5" y="943.5117">Total price</text></g><!--class City--><g id="elem_City"><rect codeLine="25" fill="#F1F1F1" height="50.9766" id="City" rx="2.5" ry="2.5" style="stroke:#181818;stroke-width:0.5;" width="81" x="645.5" y="332.9883"/><text fill="#000000" font-family="sans-serif" font-size="14" lengthAdjust="spacing" textLength="26" x="673" y="351.5234">City</text><line style="stroke:#181818;stroke-width:0.5;" x1="646.5" x2="725.5" y1="359.4766" y2="359.4766"/><text fill="#000000" font-family="sans-serif" font-size="14" lengthAdjust="spacing" textLength="69" x="651.5" y="377.0117">City Name</text></g><!--class Comission--><g id="elem_Comission"><rect codeLine="29" fill="#F1F1F1" height="50.9766" id="Comission" rx="2.5" ry="2.5" style="stroke:#181818;stroke-width:0.5;" width="78" x="47" y="763.4883"/><text fill="#000000" font-family="sans-serif" font-size="14" lengthAdjust="spacing" textLength="72" x="50" y="782.0234">Comission</text><line style="stroke:#181818;stroke-width:0.5;" x1="48" x2="124" y1="789.9766" y2="789.9766"/><text fill="#000000" font-family="sans-serif" font-size="14" lengthAdjust="spacing" textLength="38" x="53" y="807.5117">Value</text></g><!--class ComissionPercentage--><g id="elem_ComissionPercentage"><rect codeLine="34" fill="#F1F1F1" height="50.9766" id="ComissionPercentage" rx="2.5" ry="2.5" style="stroke:#181818;stroke-width:0.5;" width="154" x="7" y="651.4883"/><text fill="#000000" font-family="sans-serif" font-size="14" lengthAdjust="spacing" textLength="148" x="10" y="670.0234">ComissionPercentage</text><line style="stroke:#181818;stroke-width:0.5;" x1="8" x2="160" y1="677.9766" y2="677.9766"/><text fill="#000000" font-family="sans-serif" font-size="14" lengthAdjust="spacing" textLength="118" x="13" y="695.5117">Percentage Value</text></g><!--class Contacts--><g id="elem_Contacts"><rect codeLine="39" fill="#F1F1F1" height="67.4648" id="Contacts" rx="2.5" ry="2.5" style="stroke:#181818;stroke-width:0.5;" width="114" x="341" y="172.4883"/><text fill="#000000" font-family="sans-serif" font-size="14" lengthAdjust="spacing" textLength="60" x="368" y="191.0234">Contacts</text><line style="stroke:#181818;stroke-width:0.5;" x1="342" x2="454" y1="198.9766" y2="198.9766"/><text fill="#000000" font-family="sans-serif" font-size="14" lengthAdjust="spacing" textLength="102" x="347" y="216.5117">Phone Number</text><text fill="#000000" font-family="sans-serif" font-size="14" lengthAdjust="spacing" textLength="97" x="347" y="233">Email Address</text></g><!--class District--><g id="elem_District"><rect codeLine="45" fill="#F1F1F1" height="50.9766" id="District" rx="2.5" ry="2.5" style="stroke:#181818;stroke-width:0.5;" width="103" x="634.5" y="180.4883"/><text fill="#000000" font-family="sans-serif" font-size="14" lengthAdjust="spacing" textLength="48" x="662" y="199.0234">District</text><line style="stroke:#181818;stroke-width:0.5;" x1="635.5" x2="736.5" y1="206.9766" y2="206.9766"/><text fill="#000000" font-family="sans-serif" font-size="14" lengthAdjust="spacing" textLength="91" x="640.5" y="224.5117">District Name</text></g><!--class House--><g id="elem_House"><rect codeLine="50" fill="#F1F1F1" height="67.4648" id="House" rx="2.5" ry="2.5" style="stroke:#181818;stroke-width:0.5;" width="119" x="345.5" y="1258.4883"/><text fill="#000000" font-family="sans-serif" font-size="14" lengthAdjust="spacing" textLength="43" x="383.5" y="1277.0234">House</text><line style="stroke:#181818;stroke-width:0.5;" x1="346.5" x2="463.5" y1="1284.9766" y2="1284.9766"/><text fill="#000000" font-family="sans-serif" font-size="14" lengthAdjust="spacing" textLength="66" x="351.5" y="1302.5117">Basement</text><text fill="#000000" font-family="sans-serif" font-size="14" lengthAdjust="spacing" textLength="107" x="351.5" y="1319">Inhabitable Loft</text></g><!--class Person--><g id="elem_Person"><rect codeLine="55" fill="#F1F1F1" height="83.9531" id="Person" rx="2.5" ry="2.5" style="stroke:#181818;stroke-width:0.5;" width="167" x="314.5" y="316.4883"/><text fill="#000000" font-family="sans-serif" font-size="14" lengthAdjust="spacing" textLength="47" x="374.5" y="335.0234">Person</text><line style="stroke:#181818;stroke-width:0.5;" x1="315.5" x2="480.5" y1="342.9766" y2="342.9766"/><text fill="#000000" font-family="sans-serif" font-size="14" lengthAdjust="spacing" textLength="39" x="320.5" y="360.5117">Name</text><text fill="#000000" font-family="sans-serif" font-size="14" lengthAdjust="spacing" textLength="155" x="320.5" y="377">Passport Card Number</text><text fill="#000000" font-family="sans-serif" font-size="14" lengthAdjust="spacing" textLength="85" x="320.5" y="393.4883">Tax Number</text></g><!--class Photos--><g id="elem_Photos"><rect codeLine="61" fill="#F1F1F1" height="50.9766" id="Photos" rx="2.5" ry="2.5" style="stroke:#181818;stroke-width:0.5;" width="53" x="442.5" y="1051.9883"/><text fill="#000000" font-family="sans-serif" font-size="14" lengthAdjust="spacing" textLength="47" x="445.5" y="1070.5234">Photos</text><line style="stroke:#181818;stroke-width:0.5;" x1="443.5" x2="494.5" y1="1078.4766" y2="1078.4766"/><text fill="#000000" font-family="sans-serif" font-size="14" lengthAdjust="spacing" textLength="23" x="448.5" y="1096.0117">URI</text></g><!--class Property--><g id="elem_Property"><rect codeLine="65" fill="#F1F1F1" height="67.4648" id="Property" rx="2.5" ry="2.5" style="stroke:#181818;stroke-width:0.5;" width="207" x="360.5" y="891.4883"/><text fill="#000000" font-family="sans-serif" font-size="14" lengthAdjust="spacing" textLength="58" x="435" y="910.0234">Property</text><line style="stroke:#181818;stroke-width:0.5;" x1="361.5" x2="566.5" y1="917.9766" y2="917.9766"/><text fill="#000000" font-family="sans-serif" font-size="14" lengthAdjust="spacing" textLength="32" x="366.5" y="935.5117">Area</text><text fill="#000000" font-family="sans-serif" font-size="14" lengthAdjust="spacing" textLength="195" x="366.5" y="952">Distance from the city center</text></g><!--class PublishedAnnouncement--><g id="elem_PublishedAnnouncement"><rect codeLine="70" fill="#F1F1F1" height="50.9766" id="PublishedAnnouncement" rx="2.5" ry="2.5" style="stroke:#181818;stroke-width:0.5;" width="178" x="196" y="651.4883"/><text fill="#000000" font-family="sans-serif" font-size="14" lengthAdjust="spacing" textLength="172" x="199" y="670.0234">PublishedAnnouncement</text><line style="stroke:#181818;stroke-width:0.5;" x1="197" x2="373" y1="677.9766" y2="677.9766"/><text fill="#000000" font-family="sans-serif" font-size="14" lengthAdjust="spacing" textLength="96" x="202" y="695.5117">Contract Type</text></g><!--class Rent--><g id="elem_Rent"><rect codeLine="76" fill="#F1F1F1" height="50.9766" id="Rent" rx="2.5" ry="2.5" style="stroke:#181818;stroke-width:0.5;" width="150" x="30" y="1051.9883"/><text fill="#000000" font-family="sans-serif" font-size="14" lengthAdjust="spacing" textLength="31" x="89.5" y="1070.5234">Rent</text><line style="stroke:#181818;stroke-width:0.5;" x1="31" x2="179" y1="1078.4766" y2="1078.4766"/><text fill="#000000" font-family="sans-serif" font-size="14" lengthAdjust="spacing" textLength="138" x="36" y="1096.0117">Duration of contract</text></g><!--class Residence--><g id="elem_Residence"><rect codeLine="81" fill="#F1F1F1" height="83.9531" id="Residence" rx="2.5" ry="2.5" style="stroke:#181818;stroke-width:0.5;" width="192" x="215" y="1035.4883"/><text fill="#000000" font-family="sans-serif" font-size="14" lengthAdjust="spacing" textLength="69" x="276.5" y="1054.0234">Residence</text><line style="stroke:#181818;stroke-width:0.5;" x1="216" x2="406" y1="1061.9766" y2="1061.9766"/><text fill="#000000" font-family="sans-serif" font-size="14" lengthAdjust="spacing" textLength="146" x="221" y="1079.5117">Number of Bedrooms</text><text fill="#000000" font-family="sans-serif" font-size="14" lengthAdjust="spacing" textLength="151" x="221" y="1096">Number of Bathrooms</text><text fill="#000000" font-family="sans-serif" font-size="14" lengthAdjust="spacing" textLength="180" x="221" y="1112.4883">Number of Parking Spaces</text></g><!--class State--><g id="elem_State"><rect codeLine="88" fill="#F1F1F1" height="50.9766" id="State" rx="2.5" ry="2.5" style="stroke:#181818;stroke-width:0.5;" width="89" x="579.5" y="44.4883"/><text fill="#000000" font-family="sans-serif" font-size="14" lengthAdjust="spacing" textLength="34" x="607" y="63.0234">State</text><line style="stroke:#181818;stroke-width:0.5;" x1="580.5" x2="667.5" y1="70.9766" y2="70.9766"/><text fill="#000000" font-family="sans-serif" font-size="14" lengthAdjust="spacing" textLength="77" x="585.5" y="88.5117">State Name</text></g><!--class SunExposure--><g id="elem_SunExposure"><rect codeLine="92" fill="#F1F1F1" height="50.9766" id="SunExposure" rx="2.5" ry="2.5" style="stroke:#181818;stroke-width:0.5;" width="97" x="356.5" y="1402.4883"/><text fill="#000000" font-family="sans-serif" font-size="14" lengthAdjust="spacing" textLength="91" x="359.5" y="1421.0234">SunExposure</text><line style="stroke:#181818;stroke-width:0.5;" x1="357.5" x2="452.5" y1="1428.9766" y2="1428.9766"/><text fill="#000000" font-family="sans-serif" font-size="14" lengthAdjust="spacing" textLength="62" x="362.5" y="1446.5117">Direction</text></g><!--class TypeOfProperty--><g id="elem_TypeOfProperty"><rect codeLine="96" fill="#F1F1F1" height="50.9766" id="TypeOfProperty" rx="2.5" ry="2.5" style="stroke:#181818;stroke-width:0.5;" width="113" x="409.5" y="651.4883"/><text fill="#000000" font-family="sans-serif" font-size="14" lengthAdjust="spacing" textLength="107" x="412.5" y="670.0234">TypeOfProperty</text><line style="stroke:#181818;stroke-width:0.5;" x1="410.5" x2="521.5" y1="677.9766" y2="677.9766"/><text fill="#000000" font-family="sans-serif" font-size="14" lengthAdjust="spacing" textLength="33" x="415.5" y="695.5117">Type</text></g><!--class User--><g id="elem_User"><rect codeLine="100" fill="#F1F1F1" height="50.9766" id="User" rx="2.5" ry="2.5" style="stroke:#181818;stroke-width:0.5;" width="77" x="269.5" y="461.4883"/><text fill="#000000" font-family="sans-serif" font-size="14" lengthAdjust="spacing" textLength="31" x="292.5" y="480.0234">User</text><line style="stroke:#181818;stroke-width:0.5;" x1="270.5" x2="345.5" y1="487.9766" y2="487.9766"/><text fill="#000000" font-family="sans-serif" font-size="14" lengthAdjust="spacing" textLength="65" x="275.5" y="505.5117">Password</text></g><!--link Address to Person--><g id="link_Address_Person"><path codeLine="104" d="M526.29,235.3083 C504.86,251.8483 482,269.4883 482,269.4883 C482,269.4883 459.33,293.2383 437.54,316.0683 " fill="none" id="Address-Person" style="stroke:#181818;stroke-width:1.0;"/><polygon fill="#000000" points="490.6981,274.7784,482.0302,278.6923,485.9862,283.0397,490.6981,274.7784" style="stroke:#000000;stroke-width:1.0;"/><text fill="#000000" font-family="sans-serif" font-size="13" lengthAdjust="spacing" textLength="55" x="496" y="283.0566">can have</text><text fill="#000000" font-family="sans-serif" font-size="13" lengthAdjust="spacing" textLength="8" x="510.5297" y="237.0214">1</text><text fill="#000000" font-family="sans-serif" font-size="13" lengthAdjust="spacing" textLength="8" x="435.2042" y="305.7091">1</text></g><!--reverse link Business to Rent--><g id="link_Business_Rent"><path codeLine="106" d="M105,972.0283 C105,998.2283 105,1030.0183 105,1051.5983 " fill="none" id="Business-backto-Rent" style="stroke:#181818;stroke-width:1.0;"/><polygon fill="none" points="98,972.3583,105,952.3583,112,972.3583,98,972.3583" style="stroke:#181818;stroke-width:1.0;"/></g><!--link Comission to Business--><g id="link_Comission_Business"><path codeLine="108" d="M89.53,814.8783 C92.94,838.9483 98.08,875.2083 101.49,899.2283 " fill="none" id="Comission-Business" style="stroke:#181818;stroke-width:1.0;"/><polygon fill="#000000" points="101.2981,848.1931,99.6581,857.5612,105.4777,856.736,101.2981,848.1931" style="stroke:#000000;stroke-width:1.0;"/><text fill="#000000" font-family="sans-serif" font-size="13" lengthAdjust="spacing" textLength="54" x="111" y="858.0566">contains</text><text fill="#000000" font-family="sans-serif" font-size="13" lengthAdjust="spacing" textLength="8" x="81.4213" y="835.2067">1</text><text fill="#000000" font-family="sans-serif" font-size="13" lengthAdjust="spacing" textLength="8" x="91.6594" y="888.7302">1</text></g><!--link ComissionPercentage to Comission--><g id="link_ComissionPercentage_Comission"><path codeLine="109" d="M84.45,702.9483 C84.66,714.4783 84.92,728.5583 85.16,741.9083 " fill="none" id="ComissionPercentage-to-Comission" style="stroke:#181818;stroke-width:1.0;"/><polygon fill="none" points="92.16,741.4883,85.52,761.6083,78.16,741.7483,92.16,741.4883" style="stroke:#181818;stroke-width:1.0;"/></g><!--link Contacts to Person--><g id="link_Contacts_Person"><path codeLine="110" d="M398,239.6483 C398,262.0383 398,291.9283 398,316.0083 " fill="none" id="Contacts-Person" style="stroke:#181818;stroke-width:1.0;"/><polygon fill="#000000" points="403,273.1436,400.0611,282.1886,405.9389,282.1886,403,273.1436" style="stroke:#000000;stroke-width:1.0;"/><text fill="#000000" font-family="sans-serif" font-size="13" lengthAdjust="spacing" textLength="22" x="412" y="283.0566">has</text><text fill="#000000" font-family="sans-serif" font-size="13" lengthAdjust="spacing" textLength="8" x="389.175" y="260.69">1</text><text fill="#000000" font-family="sans-serif" font-size="13" lengthAdjust="spacing" textLength="8" x="389.3625" y="305.6396">1</text></g><!--link District to City--><g id="link_District_City"><path codeLine="112" d="M686,231.8383 C686,259.7283 686,304.6983 686,332.5983 " fill="none" id="District-City" style="stroke:#181818;stroke-width:1.0;"/><polygon fill="#000000" points="691,283.1436,693.9389,274.0985,688.0611,274.0985,691,283.1436" style="stroke:#000000;stroke-width:1.0;"/><text fill="#000000" font-family="sans-serif" font-size="13" lengthAdjust="spacing" textLength="22" x="700" y="283.0566">has</text><text fill="#000000" font-family="sans-serif" font-size="13" lengthAdjust="spacing" textLength="8" x="677.075" y="252.1574">1</text><text fill="#000000" font-family="sans-serif" font-size="13" lengthAdjust="spacing" textLength="6" x="679.2688" y="322.0685">*</text></g><!--link House to SunExposure--><g id="link_House_SunExposure"><path codeLine="114" d="M405,1325.7683 C405,1349.3183 405,1380.5883 405,1402.1083 " fill="none" id="House-SunExposure" style="stroke:#181818;stroke-width:1.0;"/><polygon fill="#000000" points="410,1369.1436,412.9389,1360.0985,407.0611,1360.0985,410,1369.1436" style="stroke:#000000;stroke-width:1.0;"/><text fill="#000000" font-family="sans-serif" font-size="13" lengthAdjust="spacing" textLength="54" x="419" y="1369.0566">contains</text><text fill="#000000" font-family="sans-serif" font-size="13" lengthAdjust="spacing" textLength="8" x="396.2125" y="1346.4485">1</text><text fill="#000000" font-family="sans-serif" font-size="13" lengthAdjust="spacing" textLength="8" x="396.025" y="1391.581">1</text></g><!--reverse link Person to User--><g id="link_Person_User"><path codeLine="116" d="M356.19,418.2583 C345.45,433.3483 334.47,448.7883 325.71,461.0983 " fill="none" id="Person-backto-User" style="stroke:#181818;stroke-width:1.0;"/><polygon fill="none" points="350.36,414.3783,367.65,402.1383,361.76,422.4983,350.36,414.3783" style="stroke:#181818;stroke-width:1.0;"/></g><!--reverse link Property to Residence--><g id="link_Property_Residence"><path codeLine="117" d="M415.51,973.6883 C395.48,993.3883 372.49,1016.0083 353.17,1035.0083 " fill="none" id="Property-backto-Residence" style="stroke:#181818;stroke-width:1.0;"/><polygon fill="none" points="410.56,968.7383,429.72,959.7083,420.37,978.7183,410.56,968.7383" style="stroke:#181818;stroke-width:1.0;"/></g><!--link Property to Address--><g id="link_Property_Address"><path codeLine="118" d="M491.89,891.2083 C525.64,851.5383 578,789.9883 578,789.9883 C578,357.4883 578,357.4883 578,357.4883 C578,357.4883 570.67,283.9083 566.25,239.6483 " fill="none" id="Property-Address" style="stroke:#181818;stroke-width:1.0;"/><polygon fill="#000000" points="583.567,577.1758,579.6214,585.8293,585.4613,586.4958,583.567,577.1758" style="stroke:#000000;stroke-width:1.0;"/><text fill="#000000" font-family="sans-serif" font-size="13" lengthAdjust="spacing" textLength="22" x="592" y="587.0566">has</text><text fill="#000000" font-family="sans-serif" font-size="13" lengthAdjust="spacing" textLength="6" x="490.7902" y="880.6345">*</text><text fill="#000000" font-family="sans-serif" font-size="13" lengthAdjust="spacing" textLength="8" x="558.0953" y="260.69">1</text></g><!--link PublishedAnnouncement to Business--><g id="link_PublishedAnnouncement_Business"><path codeLine="119" d="M270.03,702.7383 C239.73,752.8283 174,861.4883 174,861.4883 C174,861.4883 151.56,881.8183 132.27,899.2883 " fill="none" id="PublishedAnnouncement-Business" style="stroke:#181818;stroke-width:1.0;"/><polygon fill="#000000" points="241.8698,785.0491,234.2717,790.7692,239.085,794.1428,241.8698,785.0491" style="stroke:#000000;stroke-width:1.0;"/><text fill="#000000" font-family="sans-serif" font-size="13" lengthAdjust="spacing" textLength="22" x="248" y="794.0566">has</text><text fill="#000000" font-family="sans-serif" font-size="13" lengthAdjust="spacing" textLength="8" x="257.6432" y="723.0343">1</text><text fill="#000000" font-family="sans-serif" font-size="13" lengthAdjust="spacing" textLength="8" x="129.9421" y="888.8048">1</text></g><!--link Property to Photos--><g id="link_Property_Photos"><path codeLine="120" d="M465.08,958.6483 C466.02,986.6583 467.34,1026.4083 468.18,1051.8183 " fill="none" id="Property-Photos" style="stroke:#181818;stroke-width:1.0;"/><polygon fill="#000000" points="472.1663,1002.1408,474.8028,993.003,468.9282,993.1984,472.1663,1002.1408" style="stroke:#000000;stroke-width:1.0;"/><text fill="#000000" font-family="sans-serif" font-size="13" lengthAdjust="spacing" textLength="22" x="481" y="1002.0566">has</text><text fill="#000000" font-family="sans-serif" font-size="13" lengthAdjust="spacing" textLength="8" x="456.4777" y="979.69">1</text><text fill="#000000" font-family="sans-serif" font-size="13" lengthAdjust="spacing" textLength="32" x="432.0801" y="1041.3422">1..30</text></g><!--link PublishedAnnouncement to Property--><g id="link_PublishedAnnouncement_Property"><path codeLine="121" d="M301.84,702.7083 C328.64,742.0383 378,814.4883 378,814.4883 C378,814.4883 412.87,858.8783 438.2,891.1383 " fill="none" id="PublishedAnnouncement-Property" style="stroke:#181818;stroke-width:1.0;"/><polygon fill="#000000" points="385.9313,793.1942,383.0094,784.1436,378.2476,787.5895,385.9313,793.1942" style="stroke:#000000;stroke-width:1.0;"/><text fill="#000000" font-family="sans-serif" font-size="13" lengthAdjust="spacing" textLength="64" x="392" y="794.0566">advertises</text><text fill="#000000" font-family="sans-serif" font-size="13" lengthAdjust="spacing" textLength="6" x="299.0405" y="722.9974">*</text><text fill="#000000" font-family="sans-serif" font-size="13" lengthAdjust="spacing" textLength="6" x="426.71" y="880.8096">*</text></g><!--link Residence to AvailableEquipment--><g id="link_Residence_AvailableEquipment"><path codeLine="123" d="M296.95,1119.9683 C282.21,1163.4483 259.55,1230.3383 247.39,1266.2183 " fill="none" id="Residence-AvailableEquipment" style="stroke:#181818;stroke-width:1.0;"/><polygon fill="#000000" points="280.3953,1193.879,286.0817,1186.2557,280.5148,1184.3692,280.3953,1193.879" style="stroke:#000000;stroke-width:1.0;"/><text fill="#000000" font-family="sans-serif" font-size="13" lengthAdjust="spacing" textLength="54" x="291" y="1194.0566">contains</text><text fill="#000000" font-family="sans-serif" font-size="13" lengthAdjust="spacing" textLength="8" x="286.2989" y="1139.9037">1</text><text fill="#000000" font-family="sans-serif" font-size="13" lengthAdjust="spacing" textLength="6" x="242.7038" y="1255.7178">*</text></g><!--reverse link Residence to House--><g id="link_Residence_House"><path codeLine="124" d="M337.97,1139.4483 C355.09,1178.1583 376.58,1226.7483 390.54,1258.3083 " fill="none" id="Residence-backto-House" style="stroke:#181818;stroke-width:1.0;"/><polygon fill="none" points="331.65,1142.4683,329.96,1121.3483,344.45,1136.8083,331.65,1142.4683" style="stroke:#181818;stroke-width:1.0;"/></g><!--link State to District--><g id="link_State_District"><path codeLine="126" d="M635.52,95.8783 C646.65,119.9483 663.43,156.2083 674.55,180.2283 " fill="none" id="State-District" style="stroke:#181818;stroke-width:1.0;"/><polygon fill="#000000" points="664.0997,138.6813,662.9685,129.2383,657.6341,131.7066,664.0997,138.6813" style="stroke:#000000;stroke-width:1.0;"/><text fill="#000000" font-family="sans-serif" font-size="13" lengthAdjust="spacing" textLength="22" x="671" y="139.0566">has</text><text fill="#000000" font-family="sans-serif" font-size="13" lengthAdjust="spacing" textLength="8" x="629.259" y="116.2067">1</text><text fill="#000000" font-family="sans-serif" font-size="13" lengthAdjust="spacing" textLength="6" x="665.0278" y="169.7302">*</text></g><!--link State to Address--><g id="link_State_Address"><path codeLine="127" d="M610.4,95.6883 C602.47,110.1083 594,125.4883 594,125.4883 C594,125.4883 584.33,150.2983 575.79,172.1983 " fill="none" id="State-Address" style="stroke:#181818;stroke-width:1.0;"/><polygon fill="#000000" points="596.9392,138.6991,603.3449,131.6693,597.9895,129.2467,596.9392,138.6991" style="stroke:#000000;stroke-width:1.0;"/><text fill="#000000" font-family="sans-serif" font-size="13" lengthAdjust="spacing" textLength="22" x="608" y="139.0566">has</text><text fill="#000000" font-family="sans-serif" font-size="13" lengthAdjust="spacing" textLength="8" x="598.33" y="115.9728">1</text><text fill="#000000" font-family="sans-serif" font-size="13" lengthAdjust="spacing" textLength="6" x="571.7174" y="161.6225">*</text></g><!--link TypeOfProperty to Property--><g id="link_TypeOfProperty_Property"><path codeLine="129" d="M465.8,702.9283 C465.43,747.6383 464.67,841.3883 464.27,891.2183 " fill="none" id="TypeOfProperty-Property" style="stroke:#181818;stroke-width:1.0;"/><polygon fill="#000000" points="470.9594,794.1434,473.9717,785.1225,468.094,785.0747,470.9594,794.1434" style="stroke:#000000;stroke-width:1.0;"/><text fill="#000000" font-family="sans-serif" font-size="13" lengthAdjust="spacing" textLength="46" x="480" y="794.0566">defines</text><text fill="#000000" font-family="sans-serif" font-size="13" lengthAdjust="spacing" textLength="8" x="456.8813" y="722.8482">1</text><text fill="#000000" font-family="sans-serif" font-size="13" lengthAdjust="spacing" textLength="8" x="455.5357" y="880.6464">1</text></g><!--link User to PublishedAnnouncement--><g id="link_User_PublishedAnnouncement"><path codeLine="131" d="M304.95,512.9483 C300.53,549.0083 292.43,615.2683 288.03,651.2183 " fill="none" id="User-PublishedAnnouncement" style="stroke:#181818;stroke-width:1.0;"/><polygon fill="#000000" points="302.3927,587.1065,306.4085,578.4854,300.5742,577.7714,302.3927,587.1065" style="stroke:#000000;stroke-width:1.0;"/><text fill="#000000" font-family="sans-serif" font-size="13" lengthAdjust="spacing" textLength="52" x="312" y="587.0566">displays</text><text fill="#000000" font-family="sans-serif" font-size="13" lengthAdjust="spacing" textLength="6" x="297.6266" y="532.8725">*</text><text fill="#000000" font-family="sans-serif" font-size="13" lengthAdjust="spacing" textLength="6" x="282.0373" y="640.7178">*</text></g><!--SRC=[XLHDRzim3BthLn2v32YGhjrkGL6WJGkimDO5JRl3RepDrC9aoPFaha6x_pvI_bBQ03l95X_9nyTdHnqDmSFwvFG4vd3bQjGMlhcIZ5BXbxODUgpXqRkskR4LUHtH5WIVic3jh2igxsg2w5lA8aPRYhk6e75c9o-gqYL1JR5oPUXU2kqBGqeL1aE0YxBqnEUBMaTF5DLFtS2IwQY_8-G9jS6DeUlVhMvgif7HuxFWUk1b6xXbAdRl8Xfel2ue0onrt74m7RTOPpsMhjOXQ6Sv_0DDAw4F7zz5L-GBxecFnBZivL0AHueeN5QLimItRRqXhwvPRpDCdL6xqY4oMnbjV1mezf0lhWtIzn83fSbvFxZX_R0qyDLjupGEKmjfbbHYnLUDyn6MwCk1o3q-3uzJMkMY4yeFTpVPhNSD-QJSXITC_98djcm1Y9MibAEYnLwnTcDqgAYyiDQrZEyt9yfubWRksIWgc- -kYr-r7gDimcsXwB5xgC0kalOyNU8lm4iglNDroAymLc_lLkZPgu-mRh2WNFvrn4Z9X7BkUsFTskldneNMKzgEfqBuJG0PvFisaobDDeOV0ZT_ILluutmfWS7rizCPpEVfw5UsW08jLFX4SARKwEYpLuQ9G4fDLisoH-0YQSRVDEUeGxxbZDVpoT5gDEeXBXLAcScH0-PerdrB7U9SgSwRMObSj8mJG_lYQIAHHet2zKFs-vtkfLrVTX1kQ7pOP1sFTyfqqqnb1xR7nvzFPeFv_rFvgA_Cvr1e0LW-yOCEb0QS73hoOFI1lzYUBbEMo33lldRL6pBJVTp5GFGTugr6weq_StN6omMKj1MX924vTc_KGs9mYWwDmPta_0C0]--></g></svg>