<?xml version="1.0" encoding="us-ascii" standalone="no"?><svg xmlns="http://www.w3.org/2000/svg" xmlns:xlink="http://www.w3.org/1999/xlink" contentStyleType="text/css" height="1160px" preserveAspectRatio="none" style="width:1173px;height:1160px;background:#FFFFFF;" version="1.1" viewBox="0 0 1173 1160" width="1173px" zoomAndPan="magnify"><defs/><g><text fill="#000000" font-family="sans-serif" font-size="14" font-weight="bold" lengthAdjust="spacing" textLength="169" x="495.25" y="23.5352">US010 - Domain Model</text><!--class Address--><g id="elem_Address"><rect codeLine="14" fill="#F1F1F1" height="67.4648" id="Address" rx="2.5" ry="2.5" style="stroke:#181818;stroke-width:0.5;" width="73" x="495" y="524.4883"/><text fill="#000000" font-family="sans-serif" font-size="14" lengthAdjust="spacing" textLength="56" x="503.5" y="543.0234">Address</text><line style="stroke:#181818;stroke-width:0.5;" x1="496" x2="567" y1="550.9766" y2="550.9766"/><text fill="#000000" font-family="sans-serif" font-size="14" lengthAdjust="spacing" textLength="40" x="501" y="568.5117">Street</text><text fill="#000000" font-family="sans-serif" font-size="14" lengthAdjust="spacing" textLength="61" x="501" y="585">Zip Code</text></g><!--class AvailableEquipment--><g id="elem_AvailableEquipment"><rect codeLine="19" fill="#F1F1F1" height="50.9766" id="AvailableEquipment" rx="2.5" ry="2.5" style="stroke:#181818;stroke-width:0.5;" width="142" x="309.5" y="966.4883"/><text fill="#000000" font-family="sans-serif" font-size="14" lengthAdjust="spacing" textLength="136" x="312.5" y="985.0234">AvailableEquipment</text><line style="stroke:#181818;stroke-width:0.5;" x1="310.5" x2="450.5" y1="992.9766" y2="992.9766"/><text fill="#000000" font-family="sans-serif" font-size="14" lengthAdjust="spacing" textLength="74" x="315.5" y="1010.5117">Equipment</text></g><!--class Business--><g id="elem_Business"><rect codeLine="24" fill="#F1F1F1" height="50.9766" id="Business" rx="2.5" ry="2.5" style="stroke:#181818;stroke-width:0.5;" width="85" x="293" y="284.4883"/><text fill="#000000" font-family="sans-serif" font-size="14" lengthAdjust="spacing" textLength="59" x="306" y="303.0234">Business</text><line style="stroke:#181818;stroke-width:0.5;" x1="294" x2="377" y1="310.9766" y2="310.9766"/><text fill="#000000" font-family="sans-serif" font-size="14" lengthAdjust="spacing" textLength="73" x="299" y="328.5117">Total price</text></g><!--class City--><g id="elem_City"><rect codeLine="29" fill="#F1F1F1" height="50.9766" id="City" rx="2.5" ry="2.5" style="stroke:#181818;stroke-width:0.5;" width="81" x="976" y="532.4883"/><text fill="#000000" font-family="sans-serif" font-size="14" lengthAdjust="spacing" textLength="26" x="1003.5" y="551.0234">City</text><line style="stroke:#181818;stroke-width:0.5;" x1="977" x2="1056" y1="558.9766" y2="558.9766"/><text fill="#000000" font-family="sans-serif" font-size="14" lengthAdjust="spacing" textLength="69" x="982" y="576.5117">City Name</text></g><!--class Comission--><g id="elem_Comission"><rect codeLine="33" fill="#F1F1F1" height="50.9766" id="Comission" rx="2.5" ry="2.5" style="stroke:#181818;stroke-width:0.5;" width="78" x="296.5" y="156.4883"/><text fill="#000000" font-family="sans-serif" font-size="14" lengthAdjust="spacing" textLength="72" x="299.5" y="175.0234">Comission</text><line style="stroke:#181818;stroke-width:0.5;" x1="297.5" x2="373.5" y1="182.9766" y2="182.9766"/><text fill="#000000" font-family="sans-serif" font-size="14" lengthAdjust="spacing" textLength="38" x="302.5" y="200.5117">Value</text></g><!--class ComissionPercentage--><g id="elem_ComissionPercentage"><rect codeLine="38" fill="#F1F1F1" height="50.9766" id="ComissionPercentage" rx="2.5" ry="2.5" style="stroke:#181818;stroke-width:0.5;" width="154" x="258.5" y="44.4883"/><text fill="#000000" font-family="sans-serif" font-size="14" lengthAdjust="spacing" textLength="148" x="261.5" y="63.0234">ComissionPercentage</text><line style="stroke:#181818;stroke-width:0.5;" x1="259.5" x2="411.5" y1="70.9766" y2="70.9766"/><text fill="#000000" font-family="sans-serif" font-size="14" lengthAdjust="spacing" textLength="118" x="264.5" y="88.5117">Percentage Value</text></g><!--class District--><g id="elem_District"><rect codeLine="43" fill="#F1F1F1" height="50.9766" id="District" rx="2.5" ry="2.5" style="stroke:#181818;stroke-width:0.5;" width="103" x="801" y="532.4883"/><text fill="#000000" font-family="sans-serif" font-size="14" lengthAdjust="spacing" textLength="48" x="828.5" y="551.0234">District</text><line style="stroke:#181818;stroke-width:0.5;" x1="802" x2="903" y1="558.9766" y2="558.9766"/><text fill="#000000" font-family="sans-serif" font-size="14" lengthAdjust="spacing" textLength="91" x="807" y="576.5117">District Name</text></g><!--class House--><g id="elem_House"><rect codeLine="48" fill="#F1F1F1" height="67.4648" id="House" rx="2.5" ry="2.5" style="stroke:#181818;stroke-width:0.5;" width="119" x="487" y="958.4883"/><text fill="#000000" font-family="sans-serif" font-size="14" lengthAdjust="spacing" textLength="43" x="525" y="977.0234">House</text><line style="stroke:#181818;stroke-width:0.5;" x1="488" x2="605" y1="984.9766" y2="984.9766"/><text fill="#000000" font-family="sans-serif" font-size="14" lengthAdjust="spacing" textLength="66" x="493" y="1002.5117">Basement</text><text fill="#000000" font-family="sans-serif" font-size="14" lengthAdjust="spacing" textLength="107" x="493" y="1019">Inhabitable Loft</text></g><!--class Person--><g id="elem_Person"><rect codeLine="53" fill="#F1F1F1" height="116.9297" id="Person" rx="2.5" ry="2.5" style="stroke:#181818;stroke-width:0.5;" width="130" x="768.5" y="668.4883"/><text fill="#000000" font-family="sans-serif" font-size="14" lengthAdjust="spacing" textLength="47" x="810" y="687.0234">Person</text><line style="stroke:#181818;stroke-width:0.5;" x1="769.5" x2="897.5" y1="694.9766" y2="694.9766"/><text fill="#000000" font-family="sans-serif" font-size="14" lengthAdjust="spacing" textLength="39" x="774.5" y="712.5117">Name</text><text fill="#000000" font-family="sans-serif" font-size="14" lengthAdjust="spacing" textLength="37" x="774.5" y="729">Email</text><text fill="#000000" font-family="sans-serif" font-size="14" lengthAdjust="spacing" textLength="102" x="774.5" y="745.4883">Phone Number</text><text fill="#000000" font-family="sans-serif" font-size="14" lengthAdjust="spacing" textLength="85" x="774.5" y="761.9766">Tax Number</text><text fill="#000000" font-family="sans-serif" font-size="14" lengthAdjust="spacing" textLength="118" x="774.5" y="778.4648">Passport Number</text></g><!--class Photos--><g id="elem_Photos"><rect codeLine="61" fill="#F1F1F1" height="50.9766" id="Photos" rx="2.5" ry="2.5" style="stroke:#181818;stroke-width:0.5;" width="53" x="268" y="701.4883"/><text fill="#000000" font-family="sans-serif" font-size="14" lengthAdjust="spacing" textLength="47" x="271" y="720.0234">Photos</text><line style="stroke:#181818;stroke-width:0.5;" x1="269" x2="320" y1="727.9766" y2="727.9766"/><text fill="#000000" font-family="sans-serif" font-size="14" lengthAdjust="spacing" textLength="23" x="274" y="745.5117">URI</text></g><!--class Property--><g id="elem_Property"><rect codeLine="65" fill="#F1F1F1" height="67.4648" id="Property" rx="2.5" ry="2.5" style="stroke:#181818;stroke-width:0.5;" width="207" x="216" y="524.4883"/><text fill="#000000" font-family="sans-serif" font-size="14" lengthAdjust="spacing" textLength="58" x="290.5" y="543.0234">Property</text><line style="stroke:#181818;stroke-width:0.5;" x1="217" x2="422" y1="550.9766" y2="550.9766"/><text fill="#000000" font-family="sans-serif" font-size="14" lengthAdjust="spacing" textLength="32" x="222" y="568.5117">Area</text><text fill="#000000" font-family="sans-serif" font-size="14" lengthAdjust="spacing" textLength="195" x="222" y="585">Distance from the city center</text></g><!--class PublishedAnnouncement--><g id="elem_PublishedAnnouncement"><rect codeLine="70" fill="#F1F1F1" height="50.9766" id="PublishedAnnouncement" rx="2.5" ry="2.5" style="stroke:#181818;stroke-width:0.5;" width="178" x="449.5" y="284.4883"/><text fill="#000000" font-family="sans-serif" font-size="14" lengthAdjust="spacing" textLength="172" x="452.5" y="303.0234">PublishedAnnouncement</text><line style="stroke:#181818;stroke-width:0.5;" x1="450.5" x2="626.5" y1="310.9766" y2="310.9766"/><text fill="#000000" font-family="sans-serif" font-size="14" lengthAdjust="spacing" textLength="96" x="455.5" y="328.5117">Contract Type</text></g><!--class Rent--><g id="elem_Rent"><rect codeLine="76" fill="#F1F1F1" height="50.9766" id="Rent" rx="2.5" ry="2.5" style="stroke:#181818;stroke-width:0.5;" width="150" x="260.5" y="396.4883"/><text fill="#000000" font-family="sans-serif" font-size="14" lengthAdjust="spacing" textLength="31" x="320" y="415.0234">Rent</text><line style="stroke:#181818;stroke-width:0.5;" x1="261.5" x2="409.5" y1="422.9766" y2="422.9766"/><text fill="#000000" font-family="sans-serif" font-size="14" lengthAdjust="spacing" textLength="138" x="266.5" y="440.5117">Duration of contract</text></g><!--class Residence--><g id="elem_Residence"><rect codeLine="81" fill="#F1F1F1" height="83.9531" id="Residence" rx="2.5" ry="2.5" style="stroke:#181818;stroke-width:0.5;" width="192" x="356.5" y="684.9883"/><text fill="#000000" font-family="sans-serif" font-size="14" lengthAdjust="spacing" textLength="69" x="418" y="703.5234">Residence</text><line style="stroke:#181818;stroke-width:0.5;" x1="357.5" x2="547.5" y1="711.4766" y2="711.4766"/><text fill="#000000" font-family="sans-serif" font-size="14" lengthAdjust="spacing" textLength="146" x="362.5" y="729.0117">Number of Bedrooms</text><text fill="#000000" font-family="sans-serif" font-size="14" lengthAdjust="spacing" textLength="151" x="362.5" y="745.5">Number of Bathrooms</text><text fill="#000000" font-family="sans-serif" font-size="14" lengthAdjust="spacing" textLength="180" x="362.5" y="761.9883">Number of Parking Spaces</text></g><!--class State--><g id="elem_State"><rect codeLine="88" fill="#F1F1F1" height="50.9766" id="State" rx="2.5" ry="2.5" style="stroke:#181818;stroke-width:0.5;" width="89" x="640" y="532.4883"/><text fill="#000000" font-family="sans-serif" font-size="14" lengthAdjust="spacing" textLength="34" x="667.5" y="551.0234">State</text><line style="stroke:#181818;stroke-width:0.5;" x1="641" x2="728" y1="558.9766" y2="558.9766"/><text fill="#000000" font-family="sans-serif" font-size="14" lengthAdjust="spacing" textLength="77" x="646" y="576.5117">State Name</text></g><!--class SunExposure--><g id="elem_SunExposure"><rect codeLine="92" fill="#F1F1F1" height="50.9766" id="SunExposure" rx="2.5" ry="2.5" style="stroke:#181818;stroke-width:0.5;" width="97" x="498" y="1102.4883"/><text fill="#000000" font-family="sans-serif" font-size="14" lengthAdjust="spacing" textLength="91" x="501" y="1121.0234">SunExposure</text><line style="stroke:#181818;stroke-width:0.5;" x1="499" x2="594" y1="1128.9766" y2="1128.9766"/><text fill="#000000" font-family="sans-serif" font-size="14" lengthAdjust="spacing" textLength="62" x="504" y="1146.5117">Direction</text></g><!--class TypeOfProperty--><g id="elem_TypeOfProperty"><rect codeLine="96" fill="#F1F1F1" height="50.9766" id="TypeOfProperty" rx="2.5" ry="2.5" style="stroke:#181818;stroke-width:0.5;" width="113" x="7" y="532.4883"/><text fill="#000000" font-family="sans-serif" font-size="14" lengthAdjust="spacing" textLength="107" x="10" y="551.0234">TypeOfProperty</text><line style="stroke:#181818;stroke-width:0.5;" x1="8" x2="119" y1="558.9766" y2="558.9766"/><text fill="#000000" font-family="sans-serif" font-size="14" lengthAdjust="spacing" textLength="33" x="13" y="576.5117">Type</text></g><!--class User--><g id="elem_User"><rect codeLine="100" fill="#F1F1F1" height="50.9766" id="User" rx="2.5" ry="2.5" style="stroke:#181818;stroke-width:0.5;" width="77" x="993" y="846.4883"/><text fill="#000000" font-family="sans-serif" font-size="14" lengthAdjust="spacing" textLength="31" x="1016" y="865.0234">User</text><line style="stroke:#181818;stroke-width:0.5;" x1="994" x2="1069" y1="872.9766" y2="872.9766"/><text fill="#000000" font-family="sans-serif" font-size="14" lengthAdjust="spacing" textLength="65" x="999" y="890.5117">Password</text></g><!--class Offer--><g id="elem_Offer"><rect codeLine="104" fill="#F1F1F1" height="50.9766" id="Offer" rx="2.5" ry="2.5" style="stroke:#181818;stroke-width:0.5;" width="89" x="970" y="156.4883"/><text fill="#000000" font-family="sans-serif" font-size="14" lengthAdjust="spacing" textLength="35" x="997" y="175.0234">Offer</text><line style="stroke:#181818;stroke-width:0.5;" x1="971" x2="1058" y1="182.9766" y2="182.9766"/><text fill="#000000" font-family="sans-serif" font-size="14" lengthAdjust="spacing" textLength="77" x="976" y="200.5117">Offer Value</text></g><!--link Address to Person--><g id="link_Address_Person"><path codeLine="108" d="M568.23,579.2983 C617.82,606.7283 707.02,656.0483 768.19,689.8683 " fill="none" id="Address-Person" style="stroke:#181818;stroke-width:1.0;"/><polygon fill="#000000" points="673.1244,627.724,679.6178,634.6729,682.4621,629.5291,673.1244,627.724" style="stroke:#000000;stroke-width:1.0;"/><text fill="#000000" font-family="sans-serif" font-size="13" lengthAdjust="spacing" textLength="55" x="686.5" y="635.0566">can have</text><text fill="#000000" font-family="sans-serif" font-size="13" lengthAdjust="spacing" textLength="8" x="575.9942" y="579.4845">1</text><text fill="#000000" font-family="sans-serif" font-size="13" lengthAdjust="spacing" textLength="8" x="752.6092" y="682.5772">1</text></g><!--reverse link Business to Rent--><g id="link_Business_Rent"><path codeLine="110" d="M335.5,357.1783 C335.5,370.5383 335.5,384.6083 335.5,396.1283 " fill="none" id="Business-backto-Rent" style="stroke:#181818;stroke-width:1.0;"/><polygon fill="none" points="328.5,357.4583,335.5,337.4583,342.5,357.4583,328.5,357.4583" style="stroke:#181818;stroke-width:1.0;"/></g><!--link Comission to Business--><g id="link_Comission_Business"><path codeLine="112" d="M335.5,207.8783 C335.5,229.9683 335.5,262.0683 335.5,284.1483 " fill="none" id="Comission-Business" style="stroke:#181818;stroke-width:1.0;"/><polygon fill="#000000" points="340.5,241.1436,337.5611,250.1886,343.4389,250.1886,340.5,241.1436" style="stroke:#000000;stroke-width:1.0;"/><text fill="#000000" font-family="sans-serif" font-size="13" lengthAdjust="spacing" textLength="54" x="349.5" y="251.0566">contains</text><text fill="#000000" font-family="sans-serif" font-size="13" lengthAdjust="spacing" textLength="8" x="326.575" y="228.2067">1</text><text fill="#000000" font-family="sans-serif" font-size="13" lengthAdjust="spacing" textLength="8" x="326.525" y="273.6307">1</text></g><!--link ComissionPercentage to Comission--><g id="link_ComissionPercentage_Comission"><path codeLine="113" d="M335.5,95.9483 C335.5,107.4783 335.5,121.5583 335.5,134.9083 " fill="none" id="ComissionPercentage-to-Comission" style="stroke:#181818;stroke-width:1.0;"/><polygon fill="none" points="342.5,134.6083,335.5,154.6083,328.5,134.6083,342.5,134.6083" style="stroke:#181818;stroke-width:1.0;"/></g><!--link District to City--><g id="link_District_City"><path codeLine="115" d="M904.39,557.9883 C927.38,557.9883 954.04,557.9883 975.59,557.9883 " fill="none" id="District-City" style="stroke:#181818;stroke-width:1.0;"/><polygon fill="#000000" points="931.5,546.6436,922.4549,543.7046,922.4549,549.5825,931.5,546.6436" style="stroke:#000000;stroke-width:1.0;"/><text fill="#000000" font-family="sans-serif" font-size="13" lengthAdjust="spacing" textLength="22" x="935.5" y="551.5566">has</text><text fill="#000000" font-family="sans-serif" font-size="13" lengthAdjust="spacing" textLength="8" x="911.9002" y="554.5713">1</text><text fill="#000000" font-family="sans-serif" font-size="13" lengthAdjust="spacing" textLength="6" x="962.043" y="554.2963">*</text></g><!--link House to SunExposure--><g id="link_House_SunExposure"><path codeLine="117" d="M546.5,1025.7683 C546.5,1049.3183 546.5,1080.5883 546.5,1102.1083 " fill="none" id="House-SunExposure" style="stroke:#181818;stroke-width:1.0;"/><polygon fill="#000000" points="551.5,1069.1436,554.4389,1060.0985,548.5611,1060.0985,551.5,1069.1436" style="stroke:#000000;stroke-width:1.0;"/><text fill="#000000" font-family="sans-serif" font-size="13" lengthAdjust="spacing" textLength="54" x="560.5" y="1069.0566">contains</text><text fill="#000000" font-family="sans-serif" font-size="13" lengthAdjust="spacing" textLength="8" x="537.7125" y="1046.4485">1</text><text fill="#000000" font-family="sans-serif" font-size="13" lengthAdjust="spacing" textLength="8" x="537.525" y="1091.581">1</text></g><!--link Offer to PublishedAnnouncement--><g id="link_Offer_PublishedAnnouncement"><path codeLine="119" d="M969.72,194.8383 C891.73,215.4883 729.59,258.4083 627.86,285.3383 " fill="none" id="Offer-PublishedAnnouncement" style="stroke:#181818;stroke-width:1.0;"/><polygon fill="#000000" points="814.3335,244.864,804.8375,244.3377,806.3417,250.0198,814.3335,244.864" style="stroke:#000000;stroke-width:1.0;"/><text fill="#000000" font-family="sans-serif" font-size="13" lengthAdjust="spacing" textLength="22" x="818.5" y="251.0566">has</text><text fill="#000000" font-family="sans-serif" font-size="13" lengthAdjust="spacing" textLength="6" x="956.1051" y="193.2859">*</text><text fill="#000000" font-family="sans-serif" font-size="13" lengthAdjust="spacing" textLength="8" x="635.5914" y="280.258">1</text></g><!--reverse link Person to User--><g id="link_Person_User"><path codeLine="121" d="M916.19,787.7083 C944.51,808.1583 974.66,829.9383 997.03,846.0883 " fill="none" id="Person-backto-User" style="stroke:#181818;stroke-width:1.0;"/><polygon fill="none" points="912.22,793.4783,900.11,776.0983,920.42,782.1283,912.22,793.4783" style="stroke:#181818;stroke-width:1.0;"/></g><!--reverse link Property to Residence--><g id="link_Property_Residence"><path codeLine="122" d="M359.08,608.6883 C378.39,632.9383 401.35,661.7683 419.68,684.7783 " fill="none" id="Property-backto-Residence" style="stroke:#181818;stroke-width:1.0;"/><polygon fill="none" points="353.7,613.1683,346.72,593.1683,364.65,604.4483,353.7,613.1683" style="stroke:#181818;stroke-width:1.0;"/></g><!--link Property to Address--><g id="link_Property_Address"><path codeLine="123" d="M423.33,557.9883 C448.92,557.9883 474.69,557.9883 494.65,557.9883 " fill="none" id="Property-Address" style="stroke:#181818;stroke-width:1.0;"/><polygon fill="#000000" points="450.5,546.6436,441.4549,543.7046,441.4549,549.5825,450.5,546.6436" style="stroke:#000000;stroke-width:1.0;"/><text fill="#000000" font-family="sans-serif" font-size="13" lengthAdjust="spacing" textLength="22" x="454.5" y="551.5566">has</text><text fill="#000000" font-family="sans-serif" font-size="13" lengthAdjust="spacing" textLength="6" x="430.8415" y="555.0239">*</text><text fill="#000000" font-family="sans-serif" font-size="13" lengthAdjust="spacing" textLength="8" x="479.1183" y="554.1596">1</text></g><!--link Property to Photos--><g id="link_Property_Photos"><path codeLine="124" d="M314.56,591.9783 C309.75,624.1083 302.55,672.2183 298.21,701.2083 " fill="none" id="Property-Photos" style="stroke:#181818;stroke-width:1.0;"/><polygon fill="#000000" points="314.7598,635.0885,319.0054,626.5781,313.1923,625.708,314.7598,635.0885" style="stroke:#000000;stroke-width:1.0;"/><text fill="#000000" font-family="sans-serif" font-size="13" lengthAdjust="spacing" textLength="22" x="324.5" y="635.0566">has</text><text fill="#000000" font-family="sans-serif" font-size="13" lengthAdjust="spacing" textLength="8" x="304.8558" y="612.441">1</text><text fill="#000000" font-family="sans-serif" font-size="13" lengthAdjust="spacing" textLength="32" x="263.2143" y="690.7053">1..30</text></g><!--link Business to PublishedAnnouncement--><g id="link_Business_PublishedAnnouncement"><path codeLine="125" d="M378.06,309.9883 C398.75,309.9883 424.45,309.9883 449.17,309.9883 " fill="none" id="Business-PublishedAnnouncement" style="stroke:#181818;stroke-width:1.0;"/><polygon fill="#000000" points="405.25,298.6436,396.2049,295.7046,396.2049,301.5825,405.25,298.6436" style="stroke:#000000;stroke-width:1.0;"/><text fill="#000000" font-family="sans-serif" font-size="13" lengthAdjust="spacing" textLength="22" x="409.25" y="303.5566">has</text><text fill="#000000" font-family="sans-serif" font-size="13" lengthAdjust="spacing" textLength="8" x="386.0625" y="306.2963">1</text><text fill="#000000" font-family="sans-serif" font-size="13" lengthAdjust="spacing" textLength="8" x="433.4411" y="306.9494">1</text></g><!--link PublishedAnnouncement to Property--><g id="link_PublishedAnnouncement_Property"><path codeLine="126" d="M518.4,335.7083 C486.41,375.0383 427.5,447.4883 427.5,447.4883 C427.5,447.4883 383.72,491.8783 351.9,524.1383 " fill="none" id="PublishedAnnouncement-Property" style="stroke:#181818;stroke-width:1.0;"/><polygon fill="#000000" points="470.1892,425.8904,478.3808,421.0583,473.9761,417.1663,470.1892,425.8904" style="stroke:#000000;stroke-width:1.0;"/><text fill="#000000" font-family="sans-serif" font-size="13" lengthAdjust="spacing" textLength="64" x="482.5" y="427.0566">advertises</text><text fill="#000000" font-family="sans-serif" font-size="13" lengthAdjust="spacing" textLength="6" x="507.0581" y="355.9974">*</text><text fill="#000000" font-family="sans-serif" font-size="13" lengthAdjust="spacing" textLength="6" x="351.5044" y="513.8096">*</text></g><!--link Residence to AvailableEquipment--><g id="link_Residence_AvailableEquipment"><path codeLine="128" d="M441.17,769.3683 C426.04,824.6283 399.72,920.7983 387.32,966.0683 " fill="none" id="Residence-AvailableEquipment" style="stroke:#181818;stroke-width:1.0;"/><polygon fill="#000000" points="424.1797,876.9661,429.4027,869.0181,423.7335,867.466,424.1797,876.9661" style="stroke:#000000;stroke-width:1.0;"/><text fill="#000000" font-family="sans-serif" font-size="13" lengthAdjust="spacing" textLength="54" x="434.5" y="877.0566">contains</text><text fill="#000000" font-family="sans-serif" font-size="13" lengthAdjust="spacing" textLength="8" x="430.8226" y="789.6019">1</text><text fill="#000000" font-family="sans-serif" font-size="13" lengthAdjust="spacing" textLength="6" x="382.2034" y="955.9469">*</text></g><!--reverse link Residence to House--><g id="link_Residence_House"><path codeLine="129" d="M475.76,789.2383 C486.75,818.1783 497.5,846.4883 497.5,846.4883 C497.5,846.4883 520.92,915.5683 535.38,958.1983 " fill="none" id="Residence-backto-House" style="stroke:#181818;stroke-width:1.0;"/><polygon fill="none" points="469.33,792.0283,468.78,770.8483,482.42,787.0583,469.33,792.0283" style="stroke:#181818;stroke-width:1.0;"/></g><!--link State to District--><g id="link_State_District"><path codeLine="131" d="M729.08,557.9883 C751.05,557.9883 777.67,557.9883 800.56,557.9883 " fill="none" id="State-District" style="stroke:#181818;stroke-width:1.0;"/><polygon fill="#000000" points="756.5,546.6436,747.4549,543.7046,747.4549,549.5825,756.5,546.6436" style="stroke:#000000;stroke-width:1.0;"/><text fill="#000000" font-family="sans-serif" font-size="13" lengthAdjust="spacing" textLength="22" x="760.5" y="551.5566">has</text><text fill="#000000" font-family="sans-serif" font-size="13" lengthAdjust="spacing" textLength="8" x="737.1261" y="554.3421">1</text><text fill="#000000" font-family="sans-serif" font-size="13" lengthAdjust="spacing" textLength="6" x="786.8341" y="554.5254">*</text></g><!--link Address to State--><g id="link_Address_State"><path codeLine="132" d="M568.15,557.9883 C589.63,557.9883 616.93,557.9883 639.69,557.9883 " fill="none" id="Address-State" style="stroke:#181818;stroke-width:1.0;"/><polygon fill="#000000" points="585.5,546.6436,594.5451,549.5825,594.5451,543.7046,585.5,546.6436" style="stroke:#000000;stroke-width:1.0;"/><text fill="#000000" font-family="sans-serif" font-size="13" lengthAdjust="spacing" textLength="22" x="599.5" y="551.5566">has</text><text fill="#000000" font-family="sans-serif" font-size="13" lengthAdjust="spacing" textLength="6" x="575.9561" y="554.0649">*</text><text fill="#000000" font-family="sans-serif" font-size="13" lengthAdjust="spacing" textLength="8" x="623.9109" y="554.3879">1</text></g><!--link TypeOfProperty to Property--><g id="link_TypeOfProperty_Property"><path codeLine="134" d="M120.31,557.9883 C148.38,557.9883 183.13,557.9883 215.71,557.9883 " fill="none" id="TypeOfProperty-Property" style="stroke:#181818;stroke-width:1.0;"/><polygon fill="#000000" points="147.5,546.6436,138.4549,543.7046,138.4549,549.5825,147.5,546.6436" style="stroke:#000000;stroke-width:1.0;"/><text fill="#000000" font-family="sans-serif" font-size="13" lengthAdjust="spacing" textLength="46" x="151.5" y="551.5566">defines</text><text fill="#000000" font-family="sans-serif" font-size="13" lengthAdjust="spacing" textLength="8" x="128.1013" y="554.6171">1</text><text fill="#000000" font-family="sans-serif" font-size="13" lengthAdjust="spacing" textLength="8" x="200.131" y="555.0239">1</text></g><!--link Offer to User--><g id="link_Offer_User"><path codeLine="136" d="M1033.47,207.8783 C1061.44,244.5983 1110.5,308.9883 1110.5,308.9883 C1110.5,308.9883 1110.5,308.9883 1110.5,727.9883 C1110.5,727.9883 1067.89,805.1083 1045.26,846.0783 " fill="none" id="Offer-User" style="stroke:#181818;stroke-width:1.0;"/><polygon fill="#000000" points="1115.4076,481.1444,1112.6363,490.2422,1118.5131,490.1337,1115.4076,481.1444" style="stroke:#000000;stroke-width:1.0;"/><text fill="#000000" font-family="sans-serif" font-size="13" lengthAdjust="spacing" textLength="41" x="1124.5" y="491.0566">makes</text><text fill="#000000" font-family="sans-serif" font-size="13" lengthAdjust="spacing" textLength="6" x="1031.1631" y="228.2067">*</text><text fill="#000000" font-family="sans-serif" font-size="13" lengthAdjust="spacing" textLength="8" x="1039.639" y="835.5437">1</text></g><!--SRC=[TLJBRjim4BppAmXV2WHmwhGt8mXWEm4Qe4sCAEcXjxMqiWXJf4fIIToa_zub9Kgquvv8QMSVCpkI4quYVyfc5pC-vTUw1g7u3rsWPCpkX6h0GCstHhVDhQhG20SgH_ub2TPQwRmokaRkJ8j9f85y1rlCt9vw6CmfTojJWAsWq2z2RNa9qgQHN8Ar2-UCsBGERtEjCl47-Io1IA7GxHlaZPPx_y0gKI3FXSbbVw_HLRgmZB5GZo-AmY2TRonp1j6nNwBXAsBB_WwGPn0IDX9lVhUYgL4vGWztZ-k1ozPIpr3iKJkGl34YnmIm4cvFmN3SGPtqMEbQM2kqel1FaAqFVVhy8Rf6arDFKf1moKDCYGdNmf9EkHzqkCQ6FUIRRgsliWIBWGSj4pQqJ2BAl-lIZSDH8nic2oLko12IhIkjaD-rzGODUuJNU5rJGgEDYyzZaKexxQLvUhXDtXhTe0cgB0n2c3ROgIJtS5VvvL7Kypmercwai1KM2wLqI_X-Aokjd04Y-qWkO0dRXov-tHfmNcLTyhp77g0iUSIt9wvXVWzSOc6qhctw2bnr_6uDPkTzcv77qIPLCmSEWy7yURZth5KthusshS6mA_z9q7mZm1EvBnEP0hCX_6If-LjG_KMROWpSbsM8TEVWZsZtoSM4JwVXwBSxvpaeNi4pyal61YjVlXFCgyVOwD4aUm3EWw3qhw0STigmbF5-DLgPZSuCvOpOLevgdaswpsHEirX-nLXdrAHbgbdIbQ0TMLzYIZyHrVCxwPMkF37jwGUUNaqsQDrJxoqnlW_ruxZK86eQ9nw1SURpyw-pIVm21jZ9kKAEnD9zaBURzpzPVgHffrviF-TGFDD5M0pYZERkvkhG9tvk1vgEMLwEQVVROBsNZnStR3HoJ60zfxEFUh4ZZnzKlHW9KKA1fPV39mNd7rNkzZ_dDUm2w1y0]--></g></svg>