<?xml version="1.0" encoding="us-ascii" standalone="no"?><svg xmlns="http://www.w3.org/2000/svg" xmlns:xlink="http://www.w3.org/1999/xlink" contentStyleType="text/css" height="750px" preserveAspectRatio="none" style="width:662px;height:750px;background:#FFFFFF;" version="1.1" viewBox="0 0 662 750" width="662px" zoomAndPan="magnify"><defs/><g><!--cluster System--><g id="cluster_System"><path d="M199.5,6 L252.5,6 A3.75,3.75 0 0 1 255,8.5 L262,28.4883 L652.5,28.4883 A2.5,2.5 0 0 1 655,30.9883 L655,740.5 A2.5,2.5 0 0 1 652.5,743 L199.5,743 A2.5,2.5 0 0 1 197,740.5 L197,8.5 A2.5,2.5 0 0 1 199.5,6 " fill="none" style="stroke:#000000;stroke-width:1.5;"/><line style="stroke:#000000;stroke-width:1.5;" x1="197" x2="262" y1="28.4883" y2="28.4883"/><text fill="#000000" font-family="sans-serif" font-size="14" font-weight="bold" lengthAdjust="spacing" textLength="52" x="201" y="21.5352">System</text></g><g id="elem_UC1"><ellipse cx="425.8755" cy="594.7751" fill="#F1F1F1" rx="121.8755" ry="26.7751" style="stroke:#181818;stroke-width:0.5;"/><text fill="#000000" font-family="sans-serif" font-size="14" lengthAdjust="spacing" textLength="211" x="320.3755" y="598.0661">UC01: Display listed properties</text></g><g id="elem_UC2"><ellipse cx="426.001" cy="367.2002" fill="#F1F1F1" rx="194.001" ry="41.2002" style="stroke:#181818;stroke-width:0.5;"/><text fill="#000000" font-family="sans-serif" font-size="14" lengthAdjust="spacing" textLength="361" x="245.501" y="370.4912">UC02: Publish any sale announcement on the system</text></g><g id="elem_UC3"><ellipse cx="426.1289" cy="184.0258" fill="#F1F1F1" rx="100.6289" ry="22.5258" style="stroke:#181818;stroke-width:0.5;"/><text fill="#000000" font-family="sans-serif" font-size="14" lengthAdjust="spacing" textLength="165" x="343.6289" y="187.3168">UC03: Add an employee</text></g><g id="elem_UC4"><ellipse cx="425.9901" cy="691.998" fill="#F1F1F1" rx="160.4901" ry="34.498" style="stroke:#181818;stroke-width:0.5;"/><text fill="#000000" font-family="sans-serif" font-size="14" lengthAdjust="spacing" textLength="292" x="279.9901" y="695.289">UC04: Sell or rent properties of a company</text></g><g id="elem_UC5"><ellipse cx="425.7773" cy="265.8555" fill="#F1F1F1" rx="109.7773" ry="24.3555" style="stroke:#181818;stroke-width:0.5;"/><text fill="#000000" font-family="sans-serif" font-size="14" lengthAdjust="spacing" textLength="185" x="333.2773" y="269.1465">UC05: Register a new store</text></g><g id="elem_UC6"><ellipse cx="425.875" cy="83.775" fill="#F1F1F1" rx="199.375" ry="42.275" style="stroke:#181818;stroke-width:0.5;"/><text fill="#000000" font-family="sans-serif" font-size="14" lengthAdjust="spacing" textLength="372" x="239.875" y="87.066">UC06: Specify states, districts, and states in the system</text></g><g id="elem_UC7"><ellipse cx="426.0837" cy="488.0167" fill="#F1F1F1" rx="213.0837" ry="45.0167" style="stroke:#181818;stroke-width:0.5;"/><text fill="#000000" font-family="sans-serif" font-size="14" lengthAdjust="spacing" textLength="400" x="226.0837" y="491.3077">UC07: Register in the system to buy, sell or rent properties</text></g><!--entity admin--><g id="elem_admin"><ellipse cx="79.5" cy="154.5" fill="#F1F1F1" rx="8" ry="8" style="stroke:#181818;stroke-width:0.5;"/><path d="M79.5,162.5 L79.5,189.5 M66.5,170.5 L92.5,170.5 M79.5,189.5 L66.5,204.5 M79.5,189.5 L92.5,204.5 " fill="none" style="stroke:#181818;stroke-width:0.5;"/><text fill="#000000" font-family="sans-serif" font-size="14" lengthAdjust="spacing" textLength="147" x="6" y="219.5352">System Administrator</text></g><!--entity agent--><g id="elem_agent"><ellipse cx="79.5" cy="337.5" fill="#F1F1F1" rx="8" ry="8" style="stroke:#181818;stroke-width:0.5;"/><path d="M79.5,345.5 L79.5,372.5 M66.5,353.5 L92.5,353.5 M79.5,372.5 L66.5,387.5 M79.5,372.5 L92.5,387.5 " fill="none" style="stroke:#181818;stroke-width:0.5;"/><text fill="#000000" font-family="sans-serif" font-size="14" lengthAdjust="spacing" textLength="41" x="59" y="402.5352">Agent</text></g><!--entity user--><g id="elem_user"><ellipse cx="79.5" cy="504.5" fill="#F1F1F1" rx="8" ry="8" style="stroke:#181818;stroke-width:0.5;"/><path d="M79.5,512.5 L79.5,539.5 M66.5,520.5 L92.5,520.5 M79.5,539.5 L66.5,554.5 M79.5,539.5 L92.5,554.5 " fill="none" style="stroke:#181818;stroke-width:0.5;"/><text fill="#000000" font-family="sans-serif" font-size="14" lengthAdjust="spacing" textLength="123" x="18" y="569.5352">Unregistered user</text></g><!--entity owner--><g id="elem_owner"><ellipse cx="79.5" cy="662.5" fill="#F1F1F1" rx="8" ry="8" style="stroke:#181818;stroke-width:0.5;"/><path d="M79.5,670.5 L79.5,697.5 M66.5,678.5 L92.5,678.5 M79.5,697.5 L66.5,712.5 M79.5,697.5 L92.5,712.5 " fill="none" style="stroke:#181818;stroke-width:0.5;"/><text fill="#000000" font-family="sans-serif" font-size="14" lengthAdjust="spacing" textLength="45" x="57" y="727.5352">Owner</text></g><!--link admin to UC5--><g id="link_admin_UC5"><path d="M153.47,212.9 C165.24,216.98 177.37,220.85 189,224 C233.03,235.93 282.62,245.35 324.93,252.21 " fill="none" id="admin-to-UC5" style="stroke:#181818;stroke-width:1.0;"/><polygon fill="#181818" points="329.63,252.96,321.3847,247.5734,324.6942,252.1611,320.1065,255.4707,329.63,252.96" style="stroke:#181818;stroke-width:1.0;"/></g><!--link admin to UC3--><g id="link_admin_UC3"><path d="M153.14,184 C201.13,184 264.84,184 318.53,184 " fill="none" id="admin-to-UC3" style="stroke:#181818;stroke-width:1.0;"/><polygon fill="#181818" points="323.51,184,314.51,180,318.51,184,314.51,188,323.51,184" style="stroke:#181818;stroke-width:1.0;"/></g><!--link admin to UC6--><g id="link_admin_UC6"><path d="M153.39,155.95 C165.22,151.74 177.4,147.6 189,144 C219.66,134.48 252.89,125.33 284.48,117.16 " fill="none" id="admin-to-UC6" style="stroke:#181818;stroke-width:1.0;"/><polygon fill="#181818" points="289.31,115.92,279.5982,114.2828,284.4669,117.1629,281.5868,122.0317,289.31,115.92" style="stroke:#181818;stroke-width:1.0;"/></g><!--link user to UC1--><g id="link_user_UC1"><path d="M141.3,544.77 C191.62,553.68 264.18,566.52 323.32,577 " fill="none" id="user-to-UC1" style="stroke:#181818;stroke-width:1.0;"/><polygon fill="#181818" points="328.24,577.87,320.0739,572.3641,323.3164,576.9994,318.681,580.2419,328.24,577.87" style="stroke:#181818;stroke-width:1.0;"/></g><!--link user to UC7--><g id="link_user_UC7"><path d="M141.3,525.88 C169.05,522.18 203.57,517.57 238.88,512.85 " fill="none" id="user-to-UC7" style="stroke:#181818;stroke-width:1.0;"/><polygon fill="#181818" points="243.51,512.23,234.0624,509.4474,238.5534,512.8871,235.1137,517.378,243.51,512.23" style="stroke:#181818;stroke-width:1.0;"/></g><!--link agent to UC2--><g id="link_agent_UC2"><path d="M100.26,367 C126.09,367 174.12,367 225.47,367 " fill="none" id="agent-to-UC2" style="stroke:#181818;stroke-width:1.0;"/><polygon fill="#181818" points="230.23,367,221.23,363,225.23,367,221.23,371,230.23,367" style="stroke:#181818;stroke-width:1.0;"/></g><!--link owner to UC4--><g id="link_owner_UC4"><path d="M102.31,692 C134.34,692 197.01,692 258.66,692 " fill="none" id="owner-to-UC4" style="stroke:#181818;stroke-width:1.0;"/><polygon fill="#181818" points="263.5,692,254.5,688,258.5,692,254.5,696,263.5,692" style="stroke:#181818;stroke-width:1.0;"/></g><!--SRC=[RLBBQWCn3BpxAuQS4sWsB_2X4D9xIqC-mDbL4bElRMmlOIdzzyfPboPBRXffPYJPCdHAI0v1doy9ZGvK9-si493xFYPgiMrQRNLCGIKN95I4oXacRCzaqv394MSEDj2PkHIeGHTfuEU0Y-zNMn8kHm9UrL-iH6dqBO3ChLKaJ0wxbxd4cuxUg1uccpRmmNaAILESP9_3RZxML18VtP7f5oZR8of375ZNsPfQ7XBE8bq8yTQpk5HZbuNajHiMWbflN4zKc8inSocn9sFW0aAs_vyGxWI5shMU1odovLY-alWiByPaIrT4VkM_RginVStTFDNwn9ibbIXE-SluQtITE5IsAMde9rkknswRk-OFWdmGnwwV8ZvVhHXk17x4S0sOpLw7WU_XuX6k-QhoBHGuVq0RBjxEgE2AyUrE2buA8Nu1]--></g></svg>