<?xml version="1.0" encoding="us-ascii" standalone="no"?><svg xmlns="http://www.w3.org/2000/svg" xmlns:xlink="http://www.w3.org/1999/xlink" contentStyleType="text/css" height="1452px" preserveAspectRatio="none" style="width:745px;height:1452px;background:#FFFFFF;" version="1.1" viewBox="0 0 745 1452" width="745px" zoomAndPan="magnify"><defs/><g><text fill="#000000" font-family="sans-serif" font-size="14" font-weight="bold" lengthAdjust="spacing" textLength="148" x="291.75" y="22.6738">US09 - Domain Model</text><!--class Address--><g id="elem_Address"><rect codeLine="14" fill="#F1F1F1" height="64.9219" id="Address" rx="2.5" ry="2.5" style="stroke:#181818;stroke-width:0.5;" width="69" x="337" y="981.6406"/><text fill="#000000" font-family="sans-serif" font-size="14" lengthAdjust="spacing" textLength="52" x="345.5" y="999.3145">Address</text><line style="stroke:#181818;stroke-width:0.5;" x1="338" x2="405" y1="1007.2813" y2="1007.2813"/><text fill="#000000" font-family="sans-serif" font-size="14" lengthAdjust="spacing" textLength="38" x="343" y="1023.9551">Street</text><text fill="#000000" font-family="sans-serif" font-size="14" lengthAdjust="spacing" textLength="57" x="343" y="1039.5957">Zip Code</text></g><!--class Person--><g id="elem_Person"><rect codeLine="19" fill="#F1F1F1" height="111.8438" id="Person" rx="2.5" ry="2.5" style="stroke:#181818;stroke-width:0.5;" width="121" x="127" y="43.6406"/><text fill="#000000" font-family="sans-serif" font-size="14" lengthAdjust="spacing" textLength="45" x="165" y="61.3145">Person</text><line style="stroke:#181818;stroke-width:0.5;" x1="128" x2="247" y1="69.2813" y2="69.2813"/><text fill="#000000" font-family="sans-serif" font-size="14" lengthAdjust="spacing" textLength="36" x="133" y="85.9551">Name</text><text fill="#000000" font-family="sans-serif" font-size="14" lengthAdjust="spacing" textLength="34" x="133" y="101.5957">Email</text><text fill="#000000" font-family="sans-serif" font-size="14" lengthAdjust="spacing" textLength="94" x="133" y="117.2363">Phone Number</text><text fill="#000000" font-family="sans-serif" font-size="14" lengthAdjust="spacing" textLength="76" x="133" y="132.877">Tax Number</text><text fill="#000000" font-family="sans-serif" font-size="14" lengthAdjust="spacing" textLength="109" x="133" y="148.5176">Passport Number</text></g><polygon fill="none" points="184.5979,155.4844,190.552,175.8203,176.5708,175.0947" style="stroke:#181818;stroke-width:1.0;"/><line style="stroke:#181818;stroke-width:1.0;" x1="183.5614" x2="183.5" y1="175.4575" y2="176.6406"/><!--class Employee--><g id="elem_Employee"><rect codeLine="27" fill="#F1F1F1" height="33.6406" id="Employee" rx="2.5" ry="2.5" style="stroke:#181818;stroke-width:0.5;" width="68" x="105.5" y="236.6406"/><text fill="#000000" font-family="sans-serif" font-size="14" lengthAdjust="spacing" textLength="62" x="108.5" y="254.3145">Employee</text><line style="stroke:#181818;stroke-width:0.5;" x1="106.5" x2="172.5" y1="262.2813" y2="262.2813"/></g><!--class City--><g id="elem_City"><rect codeLine="30" fill="#F1F1F1" height="49.2813" id="City" rx="2.5" ry="2.5" style="stroke:#181818;stroke-width:0.5;" width="75" x="334" y="1396.6406"/><text fill="#000000" font-family="sans-serif" font-size="14" lengthAdjust="spacing" textLength="24" x="359.5" y="1414.3145">City</text><line style="stroke:#181818;stroke-width:0.5;" x1="335" x2="408" y1="1422.2813" y2="1422.2813"/><text fill="#000000" font-family="sans-serif" font-size="14" lengthAdjust="spacing" textLength="63" x="340" y="1438.9551">City name</text></g><!--class District--><g id="elem_District"><rect codeLine="34" fill="#F1F1F1" height="49.2813" id="District" rx="2.5" ry="2.5" style="stroke:#181818;stroke-width:0.5;" width="94" x="324.5" y="1271.6406"/><text fill="#000000" font-family="sans-serif" font-size="14" lengthAdjust="spacing" textLength="43" x="350" y="1289.3145">District</text><line style="stroke:#181818;stroke-width:0.5;" x1="325.5" x2="417.5" y1="1297.2813" y2="1297.2813"/><text fill="#000000" font-family="sans-serif" font-size="14" lengthAdjust="spacing" textLength="82" x="330.5" y="1313.9551">District name</text></g><!--class State--><g id="elem_State"><rect codeLine="38" fill="#F1F1F1" height="49.2813" id="State" rx="2.5" ry="2.5" style="stroke:#181818;stroke-width:0.5;" width="84" x="329.5" y="1138.6406"/><text fill="#000000" font-family="sans-serif" font-size="14" lengthAdjust="spacing" textLength="33" x="355" y="1156.3145">State</text><line style="stroke:#181818;stroke-width:0.5;" x1="330.5" x2="412.5" y1="1164.2813" y2="1164.2813"/><text fill="#000000" font-family="sans-serif" font-size="14" lengthAdjust="spacing" textLength="72" x="335.5" y="1180.9551">State name</text></g><!--class Client--><g id="elem_Client"><rect codeLine="47" fill="#F1F1F1" height="33.6406" id="Client" rx="2.5" ry="2.5" style="stroke:#181818;stroke-width:0.5;" width="42" x="212.5" y="300.6406"/><text fill="#000000" font-family="sans-serif" font-size="14" lengthAdjust="spacing" textLength="36" x="215.5" y="318.3145">Client</text><line style="stroke:#181818;stroke-width:0.5;" x1="213.5" x2="253.5" y1="326.2813" y2="326.2813"/></g><!--class Residence--><g id="elem_Residence"><rect codeLine="52" fill="#F1F1F1" height="80.5625" id="Residence" rx="2.5" ry="2.5" style="stroke:#181818;stroke-width:0.5;" width="180" x="441.5" y="973.6406"/><text fill="#000000" font-family="sans-serif" font-size="14" lengthAdjust="spacing" textLength="67" x="498" y="991.3145">Residence</text><line style="stroke:#181818;stroke-width:0.5;" x1="442.5" x2="620.5" y1="999.2813" y2="999.2813"/><text fill="#000000" font-family="sans-serif" font-size="14" lengthAdjust="spacing" textLength="133" x="447.5" y="1015.9551">Number of Bedrooms</text><text fill="#000000" font-family="sans-serif" font-size="14" lengthAdjust="spacing" textLength="137" x="447.5" y="1031.5957">Number of Bathrooms</text><text fill="#000000" font-family="sans-serif" font-size="14" lengthAdjust="spacing" textLength="168" x="447.5" y="1047.2363">Number of Parking Spaces</text></g><!--class Property--><g id="elem_Property"><rect codeLine="58" fill="#F1F1F1" height="80.5625" id="Property" rx="2.5" ry="2.5" style="stroke:#181818;stroke-width:0.5;" width="192" x="326.5" y="816.6406"/><text fill="#000000" font-family="sans-serif" font-size="14" lengthAdjust="spacing" textLength="54" x="395.5" y="834.3145">Property</text><line style="stroke:#181818;stroke-width:0.5;" x1="327.5" x2="517.5" y1="842.2813" y2="842.2813"/><text fill="#000000" font-family="sans-serif" font-size="14" lengthAdjust="spacing" textLength="30" x="332.5" y="858.9551">Area</text><text fill="#000000" font-family="sans-serif" font-size="14" lengthAdjust="spacing" textLength="44" x="332.5" y="874.5957">Photos</text><text fill="#000000" font-family="sans-serif" font-size="14" lengthAdjust="spacing" textLength="180" x="332.5" y="890.2363">Distance from the city center</text></g><!--class TypeOfProperty--><g id="elem_TypeOfProperty"><rect codeLine="64" fill="#F1F1F1" height="49.2813" id="TypeOfProperty" rx="2.5" ry="2.5" style="stroke:#181818;stroke-width:0.5;" width="107" x="369" y="590.6406"/><text fill="#000000" font-family="sans-serif" font-size="14" lengthAdjust="spacing" textLength="101" x="372" y="608.3145">TypeOfProperty</text><line style="stroke:#181818;stroke-width:0.5;" x1="370" x2="475" y1="616.2813" y2="616.2813"/><text fill="#000000" font-family="sans-serif" font-size="14" lengthAdjust="spacing" textLength="32" x="375" y="632.9551">Type</text></g><!--class Photos--><g id="elem_Photos"><rect codeLine="68" fill="#F1F1F1" height="49.2813" id="Photos" rx="2.5" ry="2.5" style="stroke:#181818;stroke-width:0.5;" width="50" x="205.5" y="832.6406"/><text fill="#000000" font-family="sans-serif" font-size="14" lengthAdjust="spacing" textLength="44" x="208.5" y="850.3145">Photos</text><line style="stroke:#181818;stroke-width:0.5;" x1="206.5" x2="254.5" y1="858.2813" y2="858.2813"/><text fill="#000000" font-family="sans-serif" font-size="14" lengthAdjust="spacing" textLength="22" x="211.5" y="874.9551">URI</text></g><!--class House--><g id="elem_House"><rect codeLine="72" fill="#F1F1F1" height="64.9219" id="House" rx="2.5" ry="2.5" style="stroke:#181818;stroke-width:0.5;" width="104" x="622.5" y="1130.6406"/><text fill="#000000" font-family="sans-serif" font-size="14" lengthAdjust="spacing" textLength="40" x="654.5" y="1148.3145">House</text><line style="stroke:#181818;stroke-width:0.5;" x1="623.5" x2="725.5" y1="1156.2813" y2="1156.2813"/><text fill="#000000" font-family="sans-serif" font-size="14" lengthAdjust="spacing" textLength="63" x="628.5" y="1172.9551">Basement</text><text fill="#000000" font-family="sans-serif" font-size="14" lengthAdjust="spacing" textLength="92" x="628.5" y="1188.5957">Inhabitable loft</text></g><!--class SunExposure--><g id="elem_SunExposure"><rect codeLine="77" fill="#F1F1F1" height="49.2813" id="SunExposure" rx="2.5" ry="2.5" style="stroke:#181818;stroke-width:0.5;" width="90" x="629.5" y="1271.6406"/><text fill="#000000" font-family="sans-serif" font-size="14" lengthAdjust="spacing" textLength="84" x="632.5" y="1289.3145">SunExposure</text><line style="stroke:#181818;stroke-width:0.5;" x1="630.5" x2="718.5" y1="1297.2813" y2="1297.2813"/><text fill="#000000" font-family="sans-serif" font-size="14" lengthAdjust="spacing" textLength="56" x="635.5" y="1313.9551">Direction</text></g><!--class AvailableEquipment--><g id="elem_AvailableEquipment"><rect codeLine="81" fill="#F1F1F1" height="49.2813" id="AvailableEquipment" rx="2.5" ry="2.5" style="stroke:#181818;stroke-width:0.5;" width="130" x="457.5" y="1138.6406"/><text fill="#000000" font-family="sans-serif" font-size="14" lengthAdjust="spacing" textLength="124" x="460.5" y="1156.3145">AvailableEquipment</text><line style="stroke:#181818;stroke-width:0.5;" x1="458.5" x2="586.5" y1="1164.2813" y2="1164.2813"/><text fill="#000000" font-family="sans-serif" font-size="14" lengthAdjust="spacing" textLength="67" x="463.5" y="1180.9551">Equipment</text></g><!--class Rent--><g id="elem_Rent"><rect codeLine="94" fill="#F1F1F1" height="49.2813" id="Rent" rx="2.5" ry="2.5" style="stroke:#181818;stroke-width:0.5;" width="137" x="116" y="1396.6406"/><text fill="#000000" font-family="sans-serif" font-size="14" lengthAdjust="spacing" textLength="30" x="169.5" y="1414.3145">Rent</text><line style="stroke:#181818;stroke-width:0.5;" x1="117" x2="252" y1="1422.2813" y2="1422.2813"/><text fill="#000000" font-family="sans-serif" font-size="14" lengthAdjust="spacing" textLength="125" x="122" y="1438.9551">Duration of contract</text></g><!--class Business--><g id="elem_Business"><rect codeLine="98" fill="#F1F1F1" height="49.2813" id="Business" rx="2.5" ry="2.5" style="stroke:#181818;stroke-width:0.5;" width="116" x="126.5" y="1138.6406"/><text fill="#000000" font-family="sans-serif" font-size="14" lengthAdjust="spacing" textLength="57" x="156" y="1156.3145">Business</text><line style="stroke:#181818;stroke-width:0.5;" x1="127.5" x2="241.5" y1="1164.2813" y2="1164.2813"/><text fill="#000000" font-family="sans-serif" font-size="14" lengthAdjust="spacing" textLength="104" x="132.5" y="1180.9551">Requested price</text></g><!--class PublishedAnnouncement--><g id="elem_PublishedAnnouncement"><rect codeLine="102" fill="#F1F1F1" height="49.2813" id="PublishedAnnouncement" rx="2.5" ry="2.5" style="stroke:#181818;stroke-width:0.5;" width="163" x="7" y="832.6406"/><text fill="#000000" font-family="sans-serif" font-size="14" lengthAdjust="spacing" textLength="157" x="10" y="850.3145">PublishedAnnouncement</text><line style="stroke:#181818;stroke-width:0.5;" x1="8" x2="169" y1="858.2813" y2="858.2813"/><text fill="#000000" font-family="sans-serif" font-size="14" lengthAdjust="spacing" textLength="85" x="13" y="874.9551">Contract type</text></g><!--class Message--><g id="elem_Message"><rect codeLine="111" fill="#F1F1F1" height="127.4844" id="Message" rx="2.5" ry="2.5" style="stroke:#181818;stroke-width:0.5;" width="105" x="146" y="551.6406"/><text fill="#000000" font-family="sans-serif" font-size="14" lengthAdjust="spacing" textLength="57" x="170" y="569.3145">Message</text><line style="stroke:#181818;stroke-width:0.5;" x1="147" x2="250" y1="577.2813" y2="577.2813"/><text fill="#000000" font-family="sans-serif" font-size="14" lengthAdjust="spacing" textLength="36" x="152" y="593.9551">Name</text><text fill="#000000" font-family="sans-serif" font-size="14" lengthAdjust="spacing" textLength="93" x="152" y="609.5957">Phone number</text><text fill="#000000" font-family="sans-serif" font-size="14" lengthAdjust="spacing" textLength="30" x="152" y="625.2363">Date</text><text fill="#000000" font-family="sans-serif" font-size="14" lengthAdjust="spacing" textLength="62" x="152" y="640.877">Initial time</text><text fill="#000000" font-family="sans-serif" font-size="14" lengthAdjust="spacing" textLength="55" x="152" y="656.5176">End time</text><text fill="#000000" font-family="sans-serif" font-size="14" lengthAdjust="spacing" textLength="71" x="152" y="672.1582">Description</text></g><!--class Agent--><g id="elem_Agent"><rect codeLine="120" fill="#F1F1F1" height="33.6406" id="Agent" rx="2.5" ry="2.5" style="stroke:#181818;stroke-width:0.5;" width="43" x="89" y="364.6406"/><text fill="#000000" font-family="sans-serif" font-size="14" lengthAdjust="spacing" textLength="37" x="92" y="382.3145">Agent</text><line style="stroke:#181818;stroke-width:0.5;" x1="90" x2="131" y1="390.2813" y2="390.2813"/></g><!--link State to District--><g id="link_State_District"><path codeLine="42" d="M371.5,1187.8606 C371.5,1211.6006 371.5,1247.9106 371.5,1271.5906 " fill="none" id="State-District" style="stroke:#181818;stroke-width:1.0;"/><polygon fill="#000000" points="376.5,1238.9023,379.4389,1229.8573,373.5611,1229.8573,376.5,1238.9023" style="stroke:#000000;stroke-width:1.0;"/><text fill="#000000" font-family="sans-serif" font-size="13" lengthAdjust="spacing" textLength="21" x="385.5" y="1238.4092">has</text><text fill="#000000" font-family="sans-serif" font-size="13" lengthAdjust="spacing" textLength="7" x="363.6031" y="1207.7885">1</text><text fill="#000000" font-family="sans-serif" font-size="13" lengthAdjust="spacing" textLength="5" x="365.8281" y="1260.9127">*</text></g><!--link District to City--><g id="link_District_City"><path codeLine="43" d="M371.5,1320.8606 C371.5,1342.6406 371.5,1374.7406 371.5,1396.5006 " fill="none" id="District-City" style="stroke:#181818;stroke-width:1.0;"/><polygon fill="#000000" points="376.5,1363.9023,379.4389,1354.8573,373.5611,1354.8573,376.5,1363.9023" style="stroke:#000000;stroke-width:1.0;"/><text fill="#000000" font-family="sans-serif" font-size="13" lengthAdjust="spacing" textLength="21" x="385.5" y="1363.4092">has</text><text fill="#000000" font-family="sans-serif" font-size="13" lengthAdjust="spacing" textLength="7" x="363.6031" y="1340.7885">1</text><text fill="#000000" font-family="sans-serif" font-size="13" lengthAdjust="spacing" textLength="5" x="365.8281" y="1385.7985">*</text></g><!--link Address to State--><g id="link_Address_State"><path codeLine="44" d="M371.5,1046.6806 C371.5,1074.1806 371.5,1113.4706 371.5,1138.3906 " fill="none" id="Address-State" style="stroke:#181818;stroke-width:1.0;"/><polygon fill="#000000" points="376.5,1087.9023,373.5611,1096.9474,379.4389,1096.9474,376.5,1087.9023" style="stroke:#000000;stroke-width:1.0;"/><text fill="#000000" font-family="sans-serif" font-size="13" lengthAdjust="spacing" textLength="21" x="385.5" y="1097.4092">has</text><text fill="#000000" font-family="sans-serif" font-size="13" lengthAdjust="spacing" textLength="5" x="366.0078" y="1066.2928">*</text><text fill="#000000" font-family="sans-serif" font-size="13" lengthAdjust="spacing" textLength="7" x="363.6031" y="1128.0543">1</text></g><!--reverse link Residence to House--><g id="link_Residence_House"><path codeLine="85" d="M584.24,1069.3506 C604.15,1089.8306 626.17,1112.4506 643.46,1130.2406 " fill="none" id="Residence-backto-House" style="stroke:#181818;stroke-width:1.0;"/><polygon fill="none" points="579.13,1074.1406,570.2,1054.9206,589.16,1064.3806,579.13,1074.1406" style="stroke:#181818;stroke-width:1.0;"/></g><!--reverse link Property to Residence--><g id="link_Property_Residence"><path codeLine="86" d="M461.95,914.2306 C475.74,933.8406 490.92,955.4406 503.57,973.4306 " fill="none" id="Property-backto-Residence" style="stroke:#181818;stroke-width:1.0;"/><polygon fill="none" points="456.07,918.0406,450.29,897.6506,467.52,909.9906,456.07,918.0406" style="stroke:#181818;stroke-width:1.0;"/></g><!--link Photos to Property--><g id="link_Photos_Property"><path codeLine="87" d="M255.6,857.1406 C274,857.1406 300.25,857.1406 326.5,857.1406 " fill="none" id="Photos-Property" style="stroke:#181818;stroke-width:1.0;"/><polygon fill="#000000" points="273,846.4023,282.0451,849.3413,282.0451,843.4634,273,846.4023" style="stroke:#000000;stroke-width:1.0;"/><text fill="#000000" font-family="sans-serif" font-size="13" lengthAdjust="spacing" textLength="21" x="287" y="850.9092">has</text><text fill="#000000" font-family="sans-serif" font-size="13" lengthAdjust="spacing" textLength="29" x="263.3963" y="870.3111">1..30</text><text fill="#000000" font-family="sans-serif" font-size="13" lengthAdjust="spacing" textLength="7" x="311.5711" y="854.3897">1</text></g><!--link House to SunExposure--><g id="link_House_SunExposure"><path codeLine="88" d="M674.5,1195.8506 C674.5,1219.1706 674.5,1250.3706 674.5,1271.5206 " fill="none" id="House-SunExposure" style="stroke:#181818;stroke-width:1.0;"/><polygon fill="#000000" points="679.5,1238.9023,682.4389,1229.8573,676.5611,1229.8573,679.5,1238.9023" style="stroke:#000000;stroke-width:1.0;"/><text fill="#000000" font-family="sans-serif" font-size="13" lengthAdjust="spacing" textLength="49" x="688.5" y="1238.4092">contains</text><text fill="#000000" font-family="sans-serif" font-size="13" lengthAdjust="spacing" textLength="5" x="669.0234" y="1215.2462">*</text><text fill="#000000" font-family="sans-serif" font-size="13" lengthAdjust="spacing" textLength="7" x="666.5594" y="1260.8238">1</text></g><!--link Property to Address--><g id="link_Property_Address"><path codeLine="89" d="M404.05,897.7606 C399.93,907.4106 395.81,917.8006 392.5,927.6406 C386.61,945.1706 381.6,965.2306 377.95,981.5106 " fill="none" id="Property-Address" style="stroke:#181818;stroke-width:1.0;"/><polygon fill="#000000" points="396.0124,940.6759,401.5094,932.9149,395.8977,931.166,396.0124,940.6759" style="stroke:#000000;stroke-width:1.0;"/><text fill="#000000" font-family="sans-serif" font-size="13" lengthAdjust="spacing" textLength="21" x="406.5" y="940.4092">has</text><text fill="#000000" font-family="sans-serif" font-size="13" lengthAdjust="spacing" textLength="7" x="393.6889" y="916.8946">1</text><text fill="#000000" font-family="sans-serif" font-size="13" lengthAdjust="spacing" textLength="7" x="371.5953" y="970.6759">1</text></g><!--link Residence to AvailableEquipment--><g id="link_Residence_AvailableEquipment"><path codeLine="90" d="M529.06,1054.9206 C527.43,1081.6206 525.33,1115.9006 523.95,1138.4206 " fill="none" id="Residence-AvailableEquipment" style="stroke:#181818;stroke-width:1.0;"/><polygon fill="#000000" points="531.1946,1097.893,534.6805,1089.0443,528.8136,1088.6853,531.1946,1097.893" style="stroke:#000000;stroke-width:1.0;"/><text fill="#000000" font-family="sans-serif" font-size="13" lengthAdjust="spacing" textLength="49" x="540.5" y="1097.4092">contains</text><text fill="#000000" font-family="sans-serif" font-size="13" lengthAdjust="spacing" textLength="7" x="521.1504" y="1074.0791">1</text><text fill="#000000" font-family="sans-serif" font-size="13" lengthAdjust="spacing" textLength="5" x="518.6678" y="1127.697">*</text></g><!--link TypeOfProperty to Property--><g id="link_TypeOfProperty_Property"><path codeLine="91" d="M422.5,640.0306 C422.5,681.2906 422.5,766.3006 422.5,816.5306 " fill="none" id="TypeOfProperty-Property" style="stroke:#181818;stroke-width:1.0;"/><polygon fill="#000000" points="427.5,752.9023,430.4389,743.8573,424.5611,743.8573,427.5,752.9023" style="stroke:#000000;stroke-width:1.0;"/><text fill="#000000" font-family="sans-serif" font-size="13" lengthAdjust="spacing" textLength="41" x="436.5" y="752.4092">defines</text><text fill="#000000" font-family="sans-serif" font-size="13" lengthAdjust="spacing" textLength="7" x="414.6469" y="659.6019">1</text><text fill="#000000" font-family="sans-serif" font-size="13" lengthAdjust="spacing" textLength="7" x="414.8766" y="805.9042">1</text></g><!--link Property to Business--><g id="link_Property_Business"><path codeLine="107" d="M357.63,897.8206 C328.81,917.8406 296.14,944.1506 272.5,973.6406 C230.82,1025.6306 203.51,1100.5906 191.51,1138.4106 " fill="none" id="Property-Business" style="stroke:#181818;stroke-width:1.0;"/><polygon fill="#000000" points="280.3409,1010.2878,272.7832,1016.0612,277.6201,1019.4009,280.3409,1010.2878" style="stroke:#000000;stroke-width:1.0;"/><text fill="#000000" font-family="sans-serif" font-size="13" lengthAdjust="spacing" textLength="32" x="286.5" y="1018.9092">has a</text><text fill="#000000" font-family="sans-serif" font-size="13" lengthAdjust="spacing" textLength="7" x="340.1608" y="916.9638">1</text><text fill="#000000" font-family="sans-serif" font-size="13" lengthAdjust="spacing" textLength="7" x="185.4094" y="1128.0794">1</text></g><!--link PublishedAnnouncement to Business--><g id="link_PublishedAnnouncement_Business"><path codeLine="108" d="M95.95,881.7406 C113.84,938.3806 159.04,1081.5106 176.99,1138.3406 " fill="none" id="PublishedAnnouncement-Business" style="stroke:#181818;stroke-width:1.0;"/><polygon fill="#000000" points="152.9942,1009.6345,152.9157,1019.1447,158.5207,1017.3745,152.9942,1009.6345" style="stroke:#000000;stroke-width:1.0;"/><text fill="#000000" font-family="sans-serif" font-size="13" lengthAdjust="spacing" textLength="32" x="163.5" y="1018.9092">has a</text><text fill="#000000" font-family="sans-serif" font-size="13" lengthAdjust="spacing" textLength="7" x="89.9622" y="901.6377">1</text><text fill="#000000" font-family="sans-serif" font-size="13" lengthAdjust="spacing" textLength="7" x="167.1687" y="1127.9915">1</text></g><!--reverse link Business to Rent--><g id="link_Business_Rent"><path codeLine="109" d="M184.5,1208.0106 C184.5,1262.5806 184.5,1353.7506 184.5,1396.5706 " fill="none" id="Business-backto-Rent" style="stroke:#181818;stroke-width:1.0;"/><polygon fill="none" points="177.5,1207.7706,184.5,1187.7606,191.5,1207.7606,177.5,1207.7706" style="stroke:#181818;stroke-width:1.0;"/></g><!--link Message to PublishedAnnouncement--><g id="link_Message_PublishedAnnouncement"><path codeLine="125" d="M169.74,678.8806 C146.7,729.1606 115.63,796.9506 99.4,832.3606 " fill="none" id="Message-PublishedAnnouncement" style="stroke:#181818;stroke-width:1.0;"/><polygon fill="#000000" points="149.5832,743.357,143.143,750.3552,148.4864,752.8041,149.5832,743.357" style="stroke:#000000;stroke-width:1.0;"/><text fill="#000000" font-family="sans-serif" font-size="13" lengthAdjust="spacing" textLength="62" x="156.5" y="752.4092">can have a</text><text fill="#000000" font-family="sans-serif" font-size="13" lengthAdjust="spacing" textLength="5" x="161.1256" y="698.8308">*</text><text fill="#000000" font-family="sans-serif" font-size="13" lengthAdjust="spacing" textLength="7" x="94.2963" y="822.0166">1</text></g><!--link Client to Message--><g id="link_Client_Message"><path codeLine="126" d="M231.82,334.7806 C228.62,365.2506 221.37,433.3706 214.5,490.6406 C212.13,510.3906 209.4,531.8906 206.87,551.3406 " fill="none" id="Client-Message" style="stroke:#181818;stroke-width:1.0;"/><polygon fill="#000000" points="225.9277,441.8695,229.8826,433.2202,224.0434,432.5475,225.9277,441.8695" style="stroke:#000000;stroke-width:1.0;"/><text fill="#000000" font-family="sans-serif" font-size="13" lengthAdjust="spacing" textLength="47" x="235.5" y="441.4092">leaves a</text><text fill="#000000" font-family="sans-serif" font-size="13" lengthAdjust="spacing" textLength="7" x="223.2336" y="354.0772">1</text><text fill="#000000" font-family="sans-serif" font-size="13" lengthAdjust="spacing" textLength="20" x="186.6815" y="540.9252">1..*</text></g><!--link Agent to Message--><g id="link_Agent_Message"><path codeLine="127" d="M113.4,398.7006 C117.51,420.0806 125.84,458.8906 137.5,490.6406 C144.96,510.9606 154.77,532.3406 164.33,551.5006 " fill="none" id="Agent-Message" style="stroke:#181818;stroke-width:1.0;"/><polygon fill="#000000" points="144.081,487.6458,144.009,478.1355,138.4328,479.9941,144.081,487.6458" style="stroke:#000000;stroke-width:1.0;"/><text fill="#000000" font-family="sans-serif" font-size="13" lengthAdjust="spacing" textLength="58" x="151.5" y="487.4092">receives a</text><text fill="#000000" font-family="sans-serif" font-size="13" lengthAdjust="spacing" textLength="7" x="106.2163" y="417.9727">1</text><text fill="#000000" font-family="sans-serif" font-size="13" lengthAdjust="spacing" textLength="7" x="152.9744" y="541.1037">1</text></g><!--link Agent to PublishedAnnouncement--><g id="link_Agent_PublishedAnnouncement"><path codeLine="128" d="M88.75,394.5706 C62.69,410.6306 22.5,441.8606 22.5,481.6406 C22.5,481.6406 22.5,481.6406 22.5,748.6406 C22.5,781.2706 44.86,812.3306 63.55,832.6006 " fill="none" id="Agent-PublishedAnnouncement" style="stroke:#181818;stroke-width:1.0;"/><polygon fill="#000000" points="27.2128,620.3941,30.6664,611.5327,24.7983,611.1951,27.2128,620.3941" style="stroke:#000000;stroke-width:1.0;"/><text fill="#000000" font-family="sans-serif" font-size="13" lengthAdjust="spacing" textLength="73" x="36.5" y="619.9092">publishes an</text><text fill="#000000" font-family="sans-serif" font-size="13" lengthAdjust="spacing" textLength="7" x="74.0172" y="394.2904">1</text><text fill="#000000" font-family="sans-serif" font-size="13" lengthAdjust="spacing" textLength="5" x="51.1728" y="821.9253">*</text></g><!--reverse link Person to Employee--><g id="link_Person_Employee"><path codeLine="130" d="M183.5,176.6406 C183.5,176.6406 161.75,214.2106 148.83,236.5206 " fill="none" id="Person-backto-Employee" style="stroke:#181818;stroke-width:1.0;"/></g><!--reverse link Employee to Agent--><g id="link_Employee_Agent"><path codeLine="131" d="M134.6,275.9406 C128.84,300.9706 119.41,341.9306 114.22,364.4906 " fill="none" id="Employee-backto-Agent" style="stroke:#181818;stroke-width:1.0;"/><polygon fill="#181818" points="135.77,270.8506,129.842,278.7156,134.6415,275.7216,137.6355,280.5212,135.77,270.8506" style="stroke:#181818;stroke-width:1.0;"/></g><!--reverse link Person to Client--><g id="link_Person_Client"><path codeLine="132" d="M183.5,176.6406 C183.5,176.6406 214.63,263.8106 227.76,300.5806 " fill="none" id="Person-backto-Client" style="stroke:#181818;stroke-width:1.0;"/></g><!--SRC=[VLGzRzim4DtvAmvU0WImaRPJWw204njeXgH6d2pTQEaa4Q58XQJIk6d_UuyKISc6Ko-cZe_lljwTVHQguuQtK1lTTxUgGICSLmN2PsRpPQkLBXgZMmHdUfpSTBnuvZLktLuY62peRIsd0DlmKlyIgeQAIuliRBoIGg7RTmZQk4QpCucL0wV1YBfnK0fF9xIQa1MIMxjqpeXTx_2sq6ehVYDSi4QK28Km1VaEvnQ9ihICEU4eigVjnLUOmqgtN2YuqoLAnW8RBClI8Fs_Cw3VrXb45uu_HGStX6H_4tI3nchrpkvvYsnDL99j6gqGxljsXuOzyhTqt12-expIT-POjvtKUyJtqNGZt3ww3qVbwVFjIbZAjt0HaJyFKLl77UOS_3dT3r-pJpEOKoFK76Rdiyno2Gsty8rbrYESZoTXKg6yFK487VW7p1NBAKc1oeVi8uYs1xJK6I-j8SoXCg0hkCRIQDtQOpDtpIdxXfjdBwWjYG_jf3r6TsXoBPS6UJXGZvoskNf1tHM96LpZHKCF2WfssgH7KkMFAl4DTDusyHKuewUdXzlnvhlkRKhncbjiYJjyq73n7GtNZlGeTUKcpUlL-gtJjZUOkvp4dq7BLzARVxn-wKNN3kNrsFpjiMEHh_x49eM0M2vEjcVeU1UwxyTmxdkxM7ovcCLCamYceGPqtmrA2LukWKRIqOXvBMIzP1WTagiac1DP1NqbV0xoWFgmFnFH7ZifiQ8bumCVLPWBj-eDzpNsclBaXXUJfbptrZzDFNx0bnwjmn8w6fIf4lgT5BR1SgcKxYdIIMjk8YkuA9wZKiTuawkXA9mIF4tw_pSvOEhmV1uIJJ7UaPcsT9mxlnZYND3kKiE22WMXIOvI5Kvm2Kv4w5gLuySARM54ToJFclo5fSPOT3TqClNaL4RKLAueWLSC6SIjCQQvM113PBi4YGJqkT8kge_haL4qE2W-m9r_64SNpVHCURKCgpwKCgzibWvmHTP0VO0RmcV3xny0]--></g></svg>