<?xml version="1.0" encoding="UTF-8" standalone="no"?><svg xmlns="http://www.w3.org/2000/svg" xmlns:xlink="http://www.w3.org/1999/xlink" contentStyleType="text/css" height="2032px" preserveAspectRatio="none" style="width:883px;height:2032px;background:#FFFFFF;" version="1.1" viewBox="0 0 883 2032" width="883px" zoomAndPan="magnify"><defs/><g><text fill="#000000" font-family="sans-serif" font-size="14" font-weight="bold" lengthAdjust="spacing" textLength="148" x="360.5" y="24.5332">US09 - Domain Model</text><!--class Address--><g id="elem_Address"><rect codeLine="14" fill="#F1F1F1" height="93.4688" id="Address" rx="2.5" ry="2.5" style="stroke:#181818;stroke-width:0.5;" width="92" x="110.5" y="1429.6094"/><text fill="#000000" font-family="sans-serif" font-size="20" lengthAdjust="spacing" textLength="73" x="120" y="1455.3711">Address</text><line style="stroke:#181818;stroke-width:0.5;" x1="111.5" x2="201.5" y1="1464.7656" y2="1464.7656"/><text fill="#000000" font-family="sans-serif" font-size="20" lengthAdjust="spacing" textLength="54" x="116.5" y="1489.5273">Street</text><text fill="#000000" font-family="sans-serif" font-size="20" lengthAdjust="spacing" textLength="80" x="116.5" y="1514.6836">Zip Code</text></g><!--class Person--><g id="elem_Person"><rect codeLine="19" fill="#F1F1F1" height="168.9375" id="Person" rx="2.5" ry="2.5" style="stroke:#181818;stroke-width:0.5;" width="165" x="555" y="45.6094"/><text fill="#000000" font-family="sans-serif" font-size="20" lengthAdjust="spacing" textLength="62" x="606.5" y="71.3711">Person</text><line style="stroke:#181818;stroke-width:0.5;" x1="556" x2="719" y1="80.7656" y2="80.7656"/><text fill="#000000" font-family="sans-serif" font-size="20" lengthAdjust="spacing" textLength="51" x="561" y="105.5273">Name</text><text fill="#000000" font-family="sans-serif" font-size="20" lengthAdjust="spacing" textLength="48" x="561" y="130.6836">Email</text><text fill="#000000" font-family="sans-serif" font-size="20" lengthAdjust="spacing" textLength="129" x="561" y="155.8398">Phone Number</text><text fill="#000000" font-family="sans-serif" font-size="20" lengthAdjust="spacing" textLength="106" x="561" y="180.9961">Tax Number</text><text fill="#000000" font-family="sans-serif" font-size="20" lengthAdjust="spacing" textLength="153" x="561" y="206.1523">Passport Number</text></g><polygon fill="none" points="633.5168,214.5469,639.567,234.8544,625.5825,234.195" style="stroke:#181818;stroke-width:1.0;"/><line style="stroke:#181818;stroke-width:1.0;" x1="632.5747" x2="632.5" y1="234.5247" y2="236.1094"/><!--class Employee--><g id="elem_Employee"><rect codeLine="27" fill="#F1F1F1" height="43.1563" id="Employee" rx="2.5" ry="2.5" style="stroke:#181818;stroke-width:0.5;" width="93" x="533" y="295.6094"/><text fill="#000000" font-family="sans-serif" font-size="20" lengthAdjust="spacing" textLength="87" x="536" y="321.3711">Employee</text><line style="stroke:#181818;stroke-width:0.5;" x1="534" x2="625" y1="330.7656" y2="330.7656"/></g><!--class Comission--><g id="elem_Comission"><rect codeLine="29" fill="#F1F1F1" height="68.3125" id="Comission" rx="2.5" ry="2.5" style="stroke:#181818;stroke-width:0.5;" width="96" x="729.5" y="1081.6094"/><text fill="#000000" font-family="sans-serif" font-size="20" lengthAdjust="spacing" textLength="90" x="732.5" y="1107.3711">Comission</text><line style="stroke:#181818;stroke-width:0.5;" x1="730.5" x2="824.5" y1="1116.7656" y2="1116.7656"/><text fill="#000000" font-family="sans-serif" font-size="20" lengthAdjust="spacing" textLength="49" x="735.5" y="1141.5273">Value</text></g><!--class ComissionPercentage--><g id="elem_ComissionPercentage"><rect codeLine="34" fill="#F1F1F1" height="68.3125" id="ComissionPercentage" rx="2.5" ry="2.5" style="stroke:#181818;stroke-width:0.5;" width="197" x="679" y="952.6094"/><text fill="#000000" font-family="sans-serif" font-size="20" lengthAdjust="spacing" textLength="191" x="682" y="978.3711">ComissionPercentage</text><line style="stroke:#181818;stroke-width:0.5;" x1="680" x2="875" y1="987.7656" y2="987.7656"/><text fill="#000000" font-family="sans-serif" font-size="20" lengthAdjust="spacing" textLength="156" x="685" y="1012.5273">Percentage Value</text></g><!--class City--><g id="elem_City"><rect codeLine="38" fill="#F1F1F1" height="68.3125" id="City" rx="2.5" ry="2.5" style="stroke:#181818;stroke-width:0.5;" width="100" x="106.5" y="1957.6094"/><text fill="#000000" font-family="sans-serif" font-size="20" lengthAdjust="spacing" textLength="34" x="139.5" y="1983.3711">City</text><line style="stroke:#181818;stroke-width:0.5;" x1="107.5" x2="205.5" y1="1992.7656" y2="1992.7656"/><text fill="#000000" font-family="sans-serif" font-size="20" lengthAdjust="spacing" textLength="88" x="112.5" y="2017.5273">City name</text></g><!--class District--><g id="elem_District"><rect codeLine="42" fill="#F1F1F1" height="68.3125" id="District" rx="2.5" ry="2.5" style="stroke:#181818;stroke-width:0.5;" width="127" x="93" y="1802.6094"/><text fill="#000000" font-family="sans-serif" font-size="20" lengthAdjust="spacing" textLength="61" x="126" y="1828.3711">District</text><line style="stroke:#181818;stroke-width:0.5;" x1="94" x2="219" y1="1837.7656" y2="1837.7656"/><text fill="#000000" font-family="sans-serif" font-size="20" lengthAdjust="spacing" textLength="115" x="99" y="1862.5273">District name</text></g><!--class State--><g id="elem_State"><rect codeLine="46" fill="#F1F1F1" height="68.3125" id="State" rx="2.5" ry="2.5" style="stroke:#181818;stroke-width:0.5;" width="113" x="100" y="1635.1094"/><text fill="#000000" font-family="sans-serif" font-size="20" lengthAdjust="spacing" textLength="47" x="133" y="1660.8711">State</text><line style="stroke:#181818;stroke-width:0.5;" x1="101" x2="212" y1="1670.2656" y2="1670.2656"/><text fill="#000000" font-family="sans-serif" font-size="20" lengthAdjust="spacing" textLength="101" x="106" y="1695.0273">State name</text></g><!--class Client--><g id="elem_Client"><rect codeLine="55" fill="#F1F1F1" height="43.1563" id="Client" rx="2.5" ry="2.5" style="stroke:#181818;stroke-width:0.5;" width="55" x="664" y="368.6094"/><text fill="#000000" font-family="sans-serif" font-size="20" lengthAdjust="spacing" textLength="49" x="667" y="394.3711">Client</text><line style="stroke:#181818;stroke-width:0.5;" x1="665" x2="718" y1="403.7656" y2="403.7656"/></g><!--class Residence--><g id="elem_Residence"><rect codeLine="60" fill="#F1F1F1" height="118.625" id="Residence" rx="2.5" ry="2.5" style="stroke:#181818;stroke-width:0.5;" width="247" x="238" y="1416.6094"/><text fill="#000000" font-family="sans-serif" font-size="20" lengthAdjust="spacing" textLength="92" x="315.5" y="1442.3711">Residence</text><line style="stroke:#181818;stroke-width:0.5;" x1="239" x2="484" y1="1451.7656" y2="1451.7656"/><text fill="#000000" font-family="sans-serif" font-size="20" lengthAdjust="spacing" textLength="187" x="244" y="1476.5273">Number of Bedrooms</text><text fill="#000000" font-family="sans-serif" font-size="20" lengthAdjust="spacing" textLength="192" x="244" y="1501.6836">Number of Bathrooms</text><text fill="#000000" font-family="sans-serif" font-size="20" lengthAdjust="spacing" textLength="235" x="244" y="1526.8398">Number of Parking Spaces</text></g><!--class Property--><g id="elem_Property"><rect codeLine="66" fill="#F1F1F1" height="93.4688" id="Property" rx="2.5" ry="2.5" style="stroke:#181818;stroke-width:0.5;" width="264" x="161.5" y="1236.6094"/><text fill="#000000" font-family="sans-serif" font-size="20" lengthAdjust="spacing" textLength="76" x="255.5" y="1262.3711">Property</text><line style="stroke:#181818;stroke-width:0.5;" x1="162.5" x2="424.5" y1="1271.7656" y2="1271.7656"/><text fill="#000000" font-family="sans-serif" font-size="20" lengthAdjust="spacing" textLength="42" x="167.5" y="1296.5273">Area</text><text fill="#000000" font-family="sans-serif" font-size="20" lengthAdjust="spacing" textLength="252" x="167.5" y="1321.6836">Distance from the city center</text></g><!--class TypeOfProperty--><g id="elem_TypeOfProperty"><rect codeLine="71" fill="#F1F1F1" height="68.3125" id="TypeOfProperty" rx="2.5" ry="2.5" style="stroke:#181818;stroke-width:0.5;" width="148" x="213.5" y="952.6094"/><text fill="#000000" font-family="sans-serif" font-size="20" lengthAdjust="spacing" textLength="142" x="216.5" y="978.3711">TypeOfProperty</text><line style="stroke:#181818;stroke-width:0.5;" x1="214.5" x2="360.5" y1="987.7656" y2="987.7656"/><text fill="#000000" font-family="sans-serif" font-size="20" lengthAdjust="spacing" textLength="44" x="219.5" y="1012.5273">Type</text></g><!--class Photos--><g id="elem_Photos"><rect codeLine="75" fill="#F1F1F1" height="68.3125" id="Photos" rx="2.5" ry="2.5" style="stroke:#181818;stroke-width:0.5;" width="67" x="7" y="1249.1094"/><text fill="#000000" font-family="sans-serif" font-size="20" lengthAdjust="spacing" textLength="61" x="10" y="1274.8711">Photos</text><line style="stroke:#181818;stroke-width:0.5;" x1="8" x2="73" y1="1284.2656" y2="1284.2656"/><text fill="#000000" font-family="sans-serif" font-size="20" lengthAdjust="spacing" textLength="33" x="13" y="1309.0273">URI</text></g><!--class House--><g id="elem_House"><rect codeLine="79" fill="#F1F1F1" height="93.4688" id="House" rx="2.5" ry="2.5" style="stroke:#181818;stroke-width:0.5;" width="140" x="251.5" y="1622.6094"/><text fill="#000000" font-family="sans-serif" font-size="20" lengthAdjust="spacing" textLength="55" x="294" y="1648.3711">House</text><line style="stroke:#181818;stroke-width:0.5;" x1="252.5" x2="390.5" y1="1657.7656" y2="1657.7656"/><text fill="#000000" font-family="sans-serif" font-size="20" lengthAdjust="spacing" textLength="88" x="257.5" y="1682.5273">Basement</text><text fill="#000000" font-family="sans-serif" font-size="20" lengthAdjust="spacing" textLength="128" x="257.5" y="1707.6836">Inhabitable loft</text></g><!--class SunExposure--><g id="elem_SunExposure"><rect codeLine="84" fill="#F1F1F1" height="68.3125" id="SunExposure" rx="2.5" ry="2.5" style="stroke:#181818;stroke-width:0.5;" width="121" x="261" y="1802.6094"/><text fill="#000000" font-family="sans-serif" font-size="20" lengthAdjust="spacing" textLength="115" x="264" y="1828.3711">SunExposure</text><line style="stroke:#181818;stroke-width:0.5;" x1="262" x2="381" y1="1837.7656" y2="1837.7656"/><text fill="#000000" font-family="sans-serif" font-size="20" lengthAdjust="spacing" textLength="77" x="267" y="1862.5273">Direction</text></g><!--class AvailableEquipment--><g id="elem_AvailableEquipment"><rect codeLine="88" fill="#F1F1F1" height="68.3125" id="AvailableEquipment" rx="2.5" ry="2.5" style="stroke:#181818;stroke-width:0.5;" width="176" x="426.5" y="1635.1094"/><text fill="#000000" font-family="sans-serif" font-size="20" lengthAdjust="spacing" textLength="170" x="429.5" y="1660.8711">AvailableEquipment</text><line style="stroke:#181818;stroke-width:0.5;" x1="427.5" x2="601.5" y1="1670.2656" y2="1670.2656"/><text fill="#000000" font-family="sans-serif" font-size="20" lengthAdjust="spacing" textLength="92" x="432.5" y="1695.0273">Equipment</text></g><!--class Rent--><g id="elem_Rent"><rect codeLine="101" fill="#F1F1F1" height="68.3125" id="Rent" rx="2.5" ry="2.5" style="stroke:#181818;stroke-width:0.5;" width="185" x="639" y="1635.1094"/><text fill="#000000" font-family="sans-serif" font-size="20" lengthAdjust="spacing" textLength="41" x="711" y="1660.8711">Rent</text><line style="stroke:#181818;stroke-width:0.5;" x1="640" x2="823" y1="1670.2656" y2="1670.2656"/><text fill="#000000" font-family="sans-serif" font-size="20" lengthAdjust="spacing" textLength="173" x="645" y="1695.0273">Duration of contract</text></g><!--class Business--><g id="elem_Business"><rect codeLine="105" fill="#F1F1F1" height="68.3125" id="Business" rx="2.5" ry="2.5" style="stroke:#181818;stroke-width:0.5;" width="156" x="653.5" y="1249.1094"/><text fill="#000000" font-family="sans-serif" font-size="20" lengthAdjust="spacing" textLength="78" x="692.5" y="1274.8711">Business</text><line style="stroke:#181818;stroke-width:0.5;" x1="654.5" x2="808.5" y1="1284.2656" y2="1284.2656"/><text fill="#000000" font-family="sans-serif" font-size="20" lengthAdjust="spacing" textLength="144" x="659.5" y="1309.0273">Requested price</text></g><!--class PublishedAnnouncement--><g id="elem_PublishedAnnouncement"><rect codeLine="109" fill="#F1F1F1" height="68.3125" id="PublishedAnnouncement" rx="2.5" ry="2.5" style="stroke:#181818;stroke-width:0.5;" width="218" x="411.5" y="952.6094"/><text fill="#000000" font-family="sans-serif" font-size="20" lengthAdjust="spacing" textLength="212" x="414.5" y="978.3711">PublishedAnnouncement</text><line style="stroke:#181818;stroke-width:0.5;" x1="412.5" x2="628.5" y1="987.7656" y2="987.7656"/><text fill="#000000" font-family="sans-serif" font-size="20" lengthAdjust="spacing" textLength="119" x="417.5" y="1012.5273">Contract type</text></g><!--class Message--><g id="elem_Message"><rect codeLine="118" fill="#F1F1F1" height="143.7813" id="Message" rx="2.5" ry="2.5" style="stroke:#181818;stroke-width:0.5;" width="110" x="608.5" y="659.6094"/><text fill="#000000" font-family="sans-serif" font-size="20" lengthAdjust="spacing" textLength="81" x="623" y="685.3711">Message</text><line style="stroke:#181818;stroke-width:0.5;" x1="609.5" x2="717.5" y1="694.7656" y2="694.7656"/><text fill="#000000" font-family="sans-serif" font-size="20" lengthAdjust="spacing" textLength="42" x="614.5" y="719.5273">Date</text><text fill="#000000" font-family="sans-serif" font-size="20" lengthAdjust="spacing" textLength="88" x="614.5" y="744.6836">Initial time</text><text fill="#000000" font-family="sans-serif" font-size="20" lengthAdjust="spacing" textLength="77" x="614.5" y="769.8398">End time</text><text fill="#000000" font-family="sans-serif" font-size="20" lengthAdjust="spacing" textLength="98" x="614.5" y="794.9961">Description</text></g><!--class Agent--><g id="elem_Agent"><rect codeLine="125" fill="#F1F1F1" height="43.1563" id="Agent" rx="2.5" ry="2.5" style="stroke:#181818;stroke-width:0.5;" width="57" x="503" y="441.6094"/><text fill="#000000" font-family="sans-serif" font-size="20" lengthAdjust="spacing" textLength="51" x="506" y="467.3711">Agent</text><line style="stroke:#181818;stroke-width:0.5;" x1="504" x2="559" y1="476.7656" y2="476.7656"/></g><!--link State to District--><g id="link_State_District"><path codeLine="50" d="M156.5,1703.1994 C156.5,1732.0694 156.5,1773.7294 156.5,1802.5694 " fill="none" id="State-District" style="stroke:#181818;stroke-width:1.0;"/><polygon fill="#000000" points="164.5,1767.1875,169.2023,1752.7154,159.7977,1752.7154,164.5,1767.1875" style="stroke:#000000;stroke-width:1.0;"/><text fill="#000000" font-family="sans-serif" font-size="20" lengthAdjust="spacing" textLength="31" x="177.5" y="1767.3711">has</text><text fill="#000000" font-family="sans-serif" font-size="20" lengthAdjust="spacing" textLength="11" x="144.5203" y="1732.246">1</text><text fill="#000000" font-family="sans-serif" font-size="20" lengthAdjust="spacing" textLength="8" x="147.8125" y="1790.3186">*</text></g><!--link District to City--><g id="link_District_City"><path codeLine="51" d="M156.5,1870.8094 C156.5,1896.4694 156.5,1931.8294 156.5,1957.4794 " fill="none" id="District-City" style="stroke:#181818;stroke-width:1.0;"/><polygon fill="#000000" points="164.5,1922.1875,169.2023,1907.7154,159.7977,1907.7154,164.5,1922.1875" style="stroke:#000000;stroke-width:1.0;"/><text fill="#000000" font-family="sans-serif" font-size="20" lengthAdjust="spacing" textLength="31" x="177.5" y="1922.3711">has</text><text fill="#000000" font-family="sans-serif" font-size="20" lengthAdjust="spacing" textLength="11" x="144.5547" y="1899.5842">1</text><text fill="#000000" font-family="sans-serif" font-size="20" lengthAdjust="spacing" textLength="8" x="147.8125" y="1945.2131">*</text></g><!--link Address to State--><g id="link_Address_State"><path codeLine="52" d="M156.5,1522.8594 C156.5,1557.3994 156.5,1603.9894 156.5,1634.9894 " fill="none" id="Address-State" style="stroke:#181818;stroke-width:1.0;"/><polygon fill="#000000" points="164.5,1571.1875,159.7977,1585.6596,169.2023,1585.6596,164.5,1571.1875" style="stroke:#000000;stroke-width:1.0;"/><text fill="#000000" font-family="sans-serif" font-size="20" lengthAdjust="spacing" textLength="31" x="177.5" y="1587.3711">has</text><text fill="#000000" font-family="sans-serif" font-size="20" lengthAdjust="spacing" textLength="8" x="147.9375" y="1551.9312">*</text><text fill="#000000" font-family="sans-serif" font-size="20" lengthAdjust="spacing" textLength="11" x="144.5547" y="1622.7249">1</text></g><!--reverse link Residence to House--><g id="link_Residence_House"><path codeLine="92" d="M345.06,1555.6194 C340.3,1578.3194 335.27,1602.3594 331.08,1622.3494 " fill="none" id="Residence-backto-House" style="stroke:#181818;stroke-width:1.0;"/><polygon fill="none" points="338.28,1553.8494,349.23,1535.7094,351.98,1556.7194,338.28,1553.8494" style="stroke:#181818;stroke-width:1.0;"/></g><!--reverse link Property to Residence--><g id="link_Property_Residence"><path codeLine="93" d="M316.51,1348.7294 C324.3,1370.6194 332.96,1394.9294 340.58,1416.3394 " fill="none" id="Property-backto-Residence" style="stroke:#181818;stroke-width:1.0;"/><polygon fill="none" points="309.9,1351.0494,309.79,1329.8594,323.09,1346.3494,309.9,1351.0494" style="stroke:#181818;stroke-width:1.0;"/></g><!--link Photos to Property--><g id="link_Photos_Property"><path codeLine="94" d="M74.1,1283.1094 C97.01,1283.1094 129,1283.1094 161.47,1283.1094 " fill="none" id="Photos-Property" style="stroke:#181818;stroke-width:1.0;"/><polygon fill="#000000" points="91.25,1266.6875,105.7221,1271.3898,105.7221,1261.9852,91.25,1266.6875" style="stroke:#000000;stroke-width:1.0;"/><text fill="#000000" font-family="sans-serif" font-size="20" lengthAdjust="spacing" textLength="31" x="112.25" y="1274.8711">has</text><text fill="#000000" font-family="sans-serif" font-size="20" lengthAdjust="spacing" textLength="45" x="81.9891" y="1305.6179">1..30</text><text fill="#000000" font-family="sans-serif" font-size="20" lengthAdjust="spacing" textLength="11" x="142.519" y="1278.1394">1</text></g><!--link House to SunExposure--><g id="link_House_SunExposure"><path codeLine="95" d="M321.5,1715.7694 C321.5,1743.2294 321.5,1777.5594 321.5,1802.4294 " fill="none" id="House-SunExposure" style="stroke:#181818;stroke-width:1.0;"/><polygon fill="#000000" points="329.5,1767.1875,334.2023,1752.7154,324.7977,1752.7154,329.5,1767.1875" style="stroke:#000000;stroke-width:1.0;"/><text fill="#000000" font-family="sans-serif" font-size="20" lengthAdjust="spacing" textLength="72" x="342.5" y="1767.3711">contains</text><text fill="#000000" font-family="sans-serif" font-size="20" lengthAdjust="spacing" textLength="8" x="312.9375" y="1744.8285">*</text><text fill="#000000" font-family="sans-serif" font-size="20" lengthAdjust="spacing" textLength="11" x="309.5547" y="1790.1545">1</text></g><!--link Property to Address--><g id="link_Property_Address"><path codeLine="96" d="M260.69,1329.8594 C239.07,1359.9894 210.89,1399.2794 189.28,1429.3994 " fill="none" id="Property-Address" style="stroke:#181818;stroke-width:1.0;"/><polygon fill="#000000" points="240.8367,1379.6878,253.0935,1370.6697,245.4519,1365.1876,240.8367,1379.6878" style="stroke:#000000;stroke-width:1.0;"/><text fill="#000000" font-family="sans-serif" font-size="20" lengthAdjust="spacing" textLength="31" x="258.5" y="1381.3711">has</text><text fill="#000000" font-family="sans-serif" font-size="20" lengthAdjust="spacing" textLength="11" x="244.3027" y="1358.9312">1</text><text fill="#000000" font-family="sans-serif" font-size="20" lengthAdjust="spacing" textLength="11" x="181.9458" y="1417.1838">1</text></g><!--link Residence to AvailableEquipment--><g id="link_Residence_AvailableEquipment"><path codeLine="97" d="M408.44,1535.7094 C434.53,1568.2794 466.04,1607.6194 487.9,1634.9094 " fill="none" id="Residence-AvailableEquipment" style="stroke:#181818;stroke-width:1.0;"/><polygon fill="#000000" points="465.5014,1585.4314,460.1238,1571.1963,452.7837,1577.0758,465.5014,1585.4314" style="stroke:#000000;stroke-width:1.0;"/><text fill="#000000" font-family="sans-serif" font-size="20" lengthAdjust="spacing" textLength="72" x="473.5" y="1587.3711">contains</text><text fill="#000000" font-family="sans-serif" font-size="20" lengthAdjust="spacing" textLength="11" x="401.7135" y="1563.9338">1</text><text fill="#000000" font-family="sans-serif" font-size="20" lengthAdjust="spacing" textLength="8" x="474.6406" y="1622.6311">*</text></g><!--link TypeOfProperty to Property--><g id="link_TypeOfProperty_Property"><path codeLine="98" d="M288.18,1020.8194 C289.25,1073.6194 291.36,1176.8294 292.57,1236.5094 " fill="none" id="TypeOfProperty-Property" style="stroke:#181818;stroke-width:1.0;"/><polygon fill="#000000" points="299.6628,1123.6858,304.0696,1109.121,294.667,1109.3124,299.6628,1123.6858" style="stroke:#000000;stroke-width:1.0;"/><text fill="#000000" font-family="sans-serif" font-size="20" lengthAdjust="spacing" textLength="63" x="312.5" y="1123.8711">defines</text><text fill="#000000" font-family="sans-serif" font-size="20" lengthAdjust="spacing" textLength="11" x="276.3516" y="1049.5959">1</text><text fill="#000000" font-family="sans-serif" font-size="20" lengthAdjust="spacing" textLength="11" x="280.706" y="1224.3085">1</text></g><!--link PublishedAnnouncement to Property--><g id="link_PublishedAnnouncement_Property"><path codeLine="114" d="M494.9,1020.8194 C454.2,1073.6194 374.65,1176.8294 328.65,1236.5094 " fill="none" id="PublishedAnnouncement-Property" style="stroke:#181818;stroke-width:1.0;"/><polygon fill="#000000" points="451.6161,1122.0237,464.1755,1113.432,456.7268,1107.6907,451.6161,1122.0237" style="stroke:#000000;stroke-width:1.0;"/><text fill="#000000" font-family="sans-serif" font-size="20" lengthAdjust="spacing" textLength="90" x="469.5" y="1123.8711">advertises</text><text fill="#000000" font-family="sans-serif" font-size="20" lengthAdjust="spacing" textLength="8" x="481.8125" y="1049.5959">*</text><text fill="#000000" font-family="sans-serif" font-size="20" lengthAdjust="spacing" textLength="8" x="324.8358" y="1224.3085">*</text></g><!--link PublishedAnnouncement to Business--><g id="link_PublishedAnnouncement_Business"><path codeLine="115" d="M544.29,1020.8194 C584.93,1077.5294 667.22,1192.3894 707.79,1249.0194 " fill="none" id="PublishedAnnouncement-Business" style="stroke:#181818;stroke-width:1.0;"/><polygon fill="#000000" points="639.8407,1109.1844,644.447,1123.6873,652.0919,1118.2099,639.8407,1109.1844" style="stroke:#000000;stroke-width:1.0;"/><text fill="#000000" font-family="sans-serif" font-size="20" lengthAdjust="spacing" textLength="48" x="657.5" y="1123.8711">has a</text><text fill="#000000" font-family="sans-serif" font-size="20" lengthAdjust="spacing" textLength="11" x="536.4336" y="1049.5959">1</text><text fill="#000000" font-family="sans-serif" font-size="20" lengthAdjust="spacing" textLength="11" x="691.7695" y="1236.76">1</text></g><!--reverse link Business to Rent--><g id="link_Business_Rent"><path codeLine="116" d="M731.5,1337.2094 C731.5,1417.7294 731.5,1568.3694 731.5,1634.9794 " fill="none" id="Business-backto-Rent" style="stroke:#181818;stroke-width:1.0;"/><polygon fill="none" points="724.5,1337.1794,731.5,1317.1794,738.5,1337.1794,724.5,1337.1794" style="stroke:#181818;stroke-width:1.0;"/></g><!--link Message to PublishedAnnouncement--><g id="link_Message_PublishedAnnouncement"><path codeLine="130" d="M623.29,803.7594 C595.78,852.4294 560.57,914.7094 539.32,952.3194 " fill="none" id="Message-PublishedAnnouncement" style="stroke:#181818;stroke-width:1.0;"/><polygon fill="#000000" points="599.4365,871.223,588.2217,881.5081,596.4089,886.1357,599.4365,871.223" style="stroke:#000000;stroke-width:1.0;"/><text fill="#000000" font-family="sans-serif" font-size="20" lengthAdjust="spacing" textLength="95" x="608.5" y="886.3711">can have a</text><text fill="#000000" font-family="sans-serif" font-size="20" lengthAdjust="spacing" textLength="8" x="611.3525" y="832.0769">*</text><text fill="#000000" font-family="sans-serif" font-size="20" lengthAdjust="spacing" textLength="11" x="530.5261" y="940.3186">1</text></g><!--link Client to Message--><g id="link_Client_Message"><path codeLine="131" d="M689.82,411.7294 C686.78,449.0194 680.16,530.1694 674.5,598.6094 C672.87,618.3194 671.1,639.6794 669.46,659.3694 " fill="none" id="Client-Message" style="stroke:#181818;stroke-width:1.0;"/><polygon fill="#000000" points="687.8445,536.1606,693.7168,522.1224,684.3439,521.3518,687.8445,536.1606" style="stroke:#000000;stroke-width:1.0;"/><text fill="#000000" font-family="sans-serif" font-size="20" lengthAdjust="spacing" textLength="73" x="701.5" y="536.3711">leaves a</text><text fill="#000000" font-family="sans-serif" font-size="20" lengthAdjust="spacing" textLength="11" x="677.1596" y="440.3813">1</text><text fill="#000000" font-family="sans-serif" font-size="20" lengthAdjust="spacing" textLength="31" x="637.5805" y="647.3364">1..*</text></g><!--link Agent to Message--><g id="link_Agent_Message"><path codeLine="132" d="M532.62,484.6294 C534.77,511.8394 540.93,560.8094 558.5,598.6094 C570.96,625.4294 589.94,651.6294 608.34,673.5294 " fill="none" id="Agent-Message" style="stroke:#181818;stroke-width:1.0;"/><polygon fill="#000000" points="569.4765,592.6131,568.4566,577.4305,559.7272,580.9296,569.4765,592.6131" style="stroke:#000000;stroke-width:1.0;"/><text fill="#000000" font-family="sans-serif" font-size="20" lengthAdjust="spacing" textLength="90" x="579.5" y="593.3711">receives a</text><text fill="#000000" font-family="sans-serif" font-size="20" lengthAdjust="spacing" textLength="11" x="520.5524" y="513.6835">1</text><text fill="#000000" font-family="sans-serif" font-size="20" lengthAdjust="spacing" textLength="11" x="589.5679" y="660.2721">1</text></g><!--link Agent to PublishedAnnouncement--><g id="link_Agent_PublishedAnnouncement"><path codeLine="133" d="M503.66,484.6394 C477.88,506.2294 443.5,542.7694 443.5,584.1094 C443.5,584.1094 443.5,584.1094 443.5,879.1094 C443.5,907.3994 461.57,933.2694 480.2,952.4294 " fill="none" id="Agent-PublishedAnnouncement" style="stroke:#181818;stroke-width:1.0;"/><polygon fill="#000000" points="451.0993,739.6775,456.5206,725.459,447.1278,724.988,451.0993,739.6775" style="stroke:#000000;stroke-width:1.0;"/><text fill="#000000" font-family="sans-serif" font-size="20" lengthAdjust="spacing" textLength="108" x="464.5" y="739.8711">publishes an</text><text fill="#000000" font-family="sans-serif" font-size="20" lengthAdjust="spacing" textLength="11" x="484.5334" y="513.6959">1</text><text fill="#000000" font-family="sans-serif" font-size="20" lengthAdjust="spacing" textLength="8" x="464.5859" y="940.1545">*</text></g><!--reverse link Person to Employee--><g id="link_Person_Employee"><path codeLine="135" d="M632.5,236.1094 C632.5,236.1094 608.85,271.7994 593.15,295.5094 " fill="none" id="Person-backto-Employee" style="stroke:#181818;stroke-width:1.0;"/></g><!--link Employee to Agent--><g id="link_Employee_Agent"><path codeLine="136" d="M572.62,338.7394 C563.5,366.1194 547.48,414.1594 538.36,441.5194 " fill="none" id="Employee-Agent" style="stroke:#181818;stroke-width:1.0;"/></g><!--reverse link Person to Client--><g id="link_Person_Client"><path codeLine="137" d="M632.5,236.1094 C632.5,236.1094 667.44,326.7094 683.54,368.4794 " fill="none" id="Person-backto-Client" style="stroke:#181818;stroke-width:1.0;"/></g><!--link Comission to Business--><g id="link_Comission_Business"><path codeLine="140" d="M768.3,1149.6994 C760.28,1178.5694 748.7,1220.2294 740.68,1249.0694 " fill="none" id="Comission-Business" style="stroke:#181818;stroke-width:1.0;"/><polygon fill="#000000" points="769.6424,1185.4797,761.2362,1198.164,770.2973,1200.6825,769.6424,1185.4797" style="stroke:#000000;stroke-width:1.0;"/><text fill="#000000" font-family="sans-serif" font-size="20" lengthAdjust="spacing" textLength="72" x="780.5" y="1201.3711">contains</text><text fill="#000000" font-family="sans-serif" font-size="20" lengthAdjust="spacing" textLength="11" x="754.6816" y="1178.746">1</text><text fill="#000000" font-family="sans-serif" font-size="20" lengthAdjust="spacing" textLength="11" x="730.3125" y="1236.8186">1</text></g><!--link ComissionPercentage to Comission--><g id="link_ComissionPercentage_Comission"><path codeLine="141" d="M777.5,1020.6494 C777.5,1033.0394 777.5,1047.4694 777.5,1061.2394 " fill="none" id="ComissionPercentage-to-Comission" style="stroke:#181818;stroke-width:1.0;"/><polygon fill="none" points="784.5,1061.2994,777.5,1081.2994,770.5,1061.2994,784.5,1061.2994" style="stroke:#181818;stroke-width:1.0;"/></g><!--SRC=[TLN1Rjim3BthAuHS2XH8bswd5KM1jCcm7je5pRh3RehDn49aoPMehbcwVnybMx8JfBb48f-eH_9HTbkf6s55hKonXPANi1PUuJUZSId_0lyyOSmb3DzOuvjxNO6LA7H1xe6pDjeKbJKrSBGU1fv655knWINk570B1PtTg270LQ8qVwJUyBLG3jXPxr9I0-uQuCPYPTYPWZLoDDpAJOMyb26SD7eGh532kIcYbIkFS5yO7JEPi4gMm0jf2xexhckWaALZ32KIi-Vbv2iVyvcfXTJymPIW68lH-BGiBT3_dd7wBT42O5p-bWs_8oJxbw0BiCxeFNiKDR0vXL9iKHaD_D7NAx3iftXBomNX6yehxNECUTqeimFOawcrt9bQEaU94eLVGlbmuTadTkobomlGICKct62JZYIyn5sNIrpgm3LxPz9HyGhi47bxY5gYGCW52UlaRtUZon4VKrVrc8_EHpdA5Q-4upSiHpt21Ju9aweUx0b2w1Y_nLopd9AIb2ln2GmwsnCuQdFGQKkpBJCtQtuBfJMcTiTcWTKf-qBORL3dafGCRj1hQngmkPPJ2oANBCx7ciQ1OnLaHwZGZM6RVvAkVwnJa3P6i0qkg0oQ9Bldf_lUyzrub_Aw5GvgYXqtD9vYHUEv8aKhiyP1nxoUlpN6UGkvjMbyCcZwIeeDX-SlNZPrMzE0pVk0xIjx_Tvr9X9YkIBPdg6zBxOy3F8uDFJYuijar6MQEZ-a6j6-QUKHRxdYDDH8Gne4a4MIORH8LoMLdCWgYYhXCyc3q8Vz6IZr-19wDUcP2iHxwUN2pRmLeSP1I26u5SMWARVUXQEfnq_mui4XlSGDJSTG2NwbfAkWd6fjF34TjEQkYygn4myxZOufZzj2zkH5-KeBwIB_3mvUTWVfFn5kIokeJ3a5wlbu75DFh1_8JEzFLmWQsqwY4gLG76NT6kQwx3SpS8MLpP4iDnHr7tDZNT0-dT2BKxofcK8JpLU8FBidea_cue8YTD6kk082XepeuTaSPvrHD30WFy2TVyYZwSnqJ0ULj1-9MB3ysBEqe61jlWUmbZsbttyAseiFki8F17pgkq0dtc_wBmQBl_y0]--></g></svg>