<?xml version="1.0" encoding="UTF-8" standalone="no"?><svg xmlns="http://www.w3.org/2000/svg" xmlns:xlink="http://www.w3.org/1999/xlink" contentStyleType="text/css" height="2570px" preserveAspectRatio="none" style="width:3581px;height:2570px;background:#FFFFFF;" version="1.1" viewBox="0 0 3581 2570" width="3581px" zoomAndPan="magnify"><defs/><g><rect fill="#FFFFFF" height="2365.5" style="stroke:#181818;stroke-width:1.0;" width="10" x="114.5" y="98.5547"/><rect fill="#FFFFFF" height="410.1016" style="stroke:#181818;stroke-width:1.0;" width="10" x="608.5" y="128.1094"/><rect fill="#FFFFFF" height="37.5547" style="stroke:#181818;stroke-width:1.0;" width="10" x="608.5" y="575.7656"/><rect fill="#FFFFFF" height="37.5547" style="stroke:#181818;stroke-width:1.0;" width="10" x="608.5" y="697.9844"/><rect fill="#FFFFFF" height="1690.9609" style="stroke:#181818;stroke-width:1.0;" width="10" x="608.5" y="773.0938"/><rect fill="#FFFFFF" height="262.8828" style="stroke:#181818;stroke-width:1.0;" width="10" x="909.5" y="214.2188"/><rect fill="#FFFFFF" height="1498.0781" style="stroke:#181818;stroke-width:1.0;" width="10" x="909.5" y="928.4219"/><rect fill="#FFFFFF" height="273.8828" style="stroke:#181818;stroke-width:1.0;" width="10" x="914.5" y="973.9766"/><rect fill="#FFFFFF" height="622.4297" style="stroke:#181818;stroke-width:1.0;" width="10" x="914.5" y="1325.4141"/><rect fill="#FFFFFF" height="37.5547" style="stroke:#181818;stroke-width:1.0;" width="10" x="1505.5" y="251.7734"/><rect fill="#FFFFFF" height="37.5547" style="stroke:#181818;stroke-width:1.0;" width="10" x="1505.5" y="1016.5313"/><rect fill="#FFFFFF" height="37.5547" style="stroke:#181818;stroke-width:1.0;" width="10" x="1654.5" y="326.8828"/><rect fill="#FFFFFF" height="37.5547" style="stroke:#181818;stroke-width:1.0;" width="10" x="1654.5" y="1091.6406"/><rect fill="#FFFFFF" height="37.5547" style="stroke:#181818;stroke-width:1.0;" width="10" x="1654.5" y="1593.2969"/><rect fill="#FFFFFF" height="37.5547" style="stroke:#181818;stroke-width:1.0;" width="10" x="1857.5" y="401.9922"/><rect fill="#FFFFFF" height="37.5547" style="stroke:#181818;stroke-width:1.0;" width="10" x="1857.5" y="1166.75"/><rect fill="#FFFFFF" height="37.5547" style="stroke:#181818;stroke-width:1.0;" width="10" x="2092" y="1367.9688"/><rect fill="#FFFFFF" height="37.5547" style="stroke:#181818;stroke-width:1.0;" width="10" x="2304" y="1443.0781"/><rect fill="#FFFFFF" height="37.5547" style="stroke:#181818;stroke-width:1.0;" width="10" x="2492" y="1518.1875"/><rect fill="#FFFFFF" height="160.7734" style="stroke:#181818;stroke-width:1.0;" width="10" x="2700" y="1668.4063"/><rect fill="#FFFFFF" height="37.5547" style="stroke:#181818;stroke-width:1.0;" width="10" x="3041" y="1747.0703"/><rect fill="#FFFFFF" height="37.5547" style="stroke:#181818;stroke-width:1.0;" width="10" x="3041" y="1866.7344"/><rect fill="#FFFFFF" height="324.4375" style="stroke:#181818;stroke-width:1.0;" width="10" x="3041" y="2064.5078"/><rect fill="#FFFFFF" height="149.6641" style="stroke:#181818;stroke-width:1.0;" width="10" x="3046" y="2194.7266"/><rect fill="#FFFFFF" height="48.5547" style="stroke:#181818;stroke-width:1.0;" width="10" x="3051" y="2245.2813"/><rect fill="none" height="109.2188" style="stroke:#000000;stroke-width:1.5;" width="554" x="2574" y="1683.4063"/><line style="stroke:#181818;stroke-width:0.5;stroke-dasharray:5.0,5.0;" x1="119" x2="119" y1="88.5547" y2="2482.0547"/><line style="stroke:#181818;stroke-width:0.5;stroke-dasharray:5.0,5.0;" x1="613.5" x2="613.5" y1="88.5547" y2="2482.0547"/><line style="stroke:#181818;stroke-width:0.5;stroke-dasharray:5.0,5.0;" x1="914.5" x2="914.5" y1="170.3867" y2="2482.0547"/><line style="stroke:#181818;stroke-width:0.5;stroke-dasharray:5.0,5.0;" x1="1510" x2="1510" y1="88.5547" y2="2482.0547"/><line style="stroke:#181818;stroke-width:0.5;stroke-dasharray:5.0,5.0;" x1="1659" x2="1659" y1="88.5547" y2="2482.0547"/><line style="stroke:#181818;stroke-width:0.5;stroke-dasharray:5.0,5.0;" x1="1862" x2="1862" y1="88.5547" y2="2482.0547"/><line style="stroke:#181818;stroke-width:0.5;stroke-dasharray:5.0,5.0;" x1="2097" x2="2097" y1="88.5547" y2="2482.0547"/><line style="stroke:#181818;stroke-width:0.5;stroke-dasharray:5.0,5.0;" x1="2309" x2="2309" y1="88.5547" y2="2482.0547"/><line style="stroke:#181818;stroke-width:0.5;stroke-dasharray:5.0,5.0;" x1="2497" x2="2497" y1="88.5547" y2="2482.0547"/><line style="stroke:#181818;stroke-width:0.5;stroke-dasharray:5.0,5.0;" x1="2705" x2="2705" y1="88.5547" y2="2482.0547"/><line style="stroke:#181818;stroke-width:0.5;stroke-dasharray:5.0,5.0;" x1="3046" x2="3046" y1="88.5547" y2="2482.0547"/><line style="stroke:#181818;stroke-width:0.5;stroke-dasharray:5.0,5.0;" x1="3542" x2="3542" y1="2124.8398" y2="2482.0547"/><text fill="#000000" font-family="sans-serif" font-size="20" lengthAdjust="spacing" textLength="223" x="5" y="84.3359">Organization Employee</text><ellipse cx="119.5" cy="13.5" fill="#E3E3E3" rx="8" ry="8" style="stroke:#181818;stroke-width:0.5;"/><path d="M119.5,21.5 L119.5,48.5 M106.5,29.5 L132.5,29.5 M119.5,48.5 L106.5,63.5 M119.5,48.5 L132.5,63.5 " fill="none" style="stroke:#181818;stroke-width:0.5;"/><text fill="#000000" font-family="sans-serif" font-size="20" lengthAdjust="spacing" textLength="223" x="5" y="2500.3906">Organization Employee</text><ellipse cx="119.5" cy="2513.1094" fill="#E3E3E3" rx="8" ry="8" style="stroke:#181818;stroke-width:0.5;"/><path d="M119.5,2521.1094 L119.5,2548.1094 M106.5,2529.1094 L132.5,2529.1094 M119.5,2548.1094 L106.5,2563.1094 M119.5,2548.1094 L132.5,2563.1094 " fill="none" style="stroke:#181818;stroke-width:0.5;"/><rect fill="#E3E3E3" height="37.5547" rx="2.5" ry="2.5" style="stroke:#181818;stroke-width:0.5;" width="148" x="539.5" y="50"/><text fill="#000000" font-family="sans-serif" font-size="20" lengthAdjust="spacing" textLength="134" x="546.5" y="76.3359">:CreateTaskUI</text><rect fill="#E3E3E3" height="37.5547" rx="2.5" ry="2.5" style="stroke:#181818;stroke-width:0.5;" width="148" x="539.5" y="2481.0547"/><text fill="#000000" font-family="sans-serif" font-size="20" lengthAdjust="spacing" textLength="134" x="546.5" y="2507.3906">:CreateTaskUI</text><rect fill="#E3E3E3" height="37.5547" rx="2.5" ry="2.5" style="stroke:#181818;stroke-width:0.5;" width="224" x="802.5" y="2481.0547"/><text fill="#000000" font-family="sans-serif" font-size="20" lengthAdjust="spacing" textLength="210" x="809.5" y="2507.3906">:CreateTaskController</text><rect fill="#E3E3E3" height="37.5547" rx="2.5" ry="2.5" style="stroke:#181818;stroke-width:0.5;" width="139" x="1441" y="50"/><text fill="#000000" font-family="sans-serif" font-size="20" lengthAdjust="spacing" textLength="125" x="1448" y="76.3359">:Repositories</text><rect fill="#E3E3E3" height="37.5547" rx="2.5" ry="2.5" style="stroke:#181818;stroke-width:0.5;" width="139" x="1441" y="2481.0547"/><text fill="#000000" font-family="sans-serif" font-size="20" lengthAdjust="spacing" textLength="125" x="1448" y="2507.3906">:Repositories</text><rect fill="#E3E3E3" height="61.1094" rx="2.5" ry="2.5" style="stroke:#181818;stroke-width:0.5;" width="139" x="1590" y="26.4453"/><text fill="#000000" font-family="sans-serif" font-size="20" lengthAdjust="spacing" textLength="114" x="1602.5" y="52.7813">repositories</text><text fill="#000000" font-family="sans-serif" font-size="20" lengthAdjust="spacing" textLength="125" x="1597" y="76.3359">:Repositories</text><rect fill="#E3E3E3" height="61.1094" rx="2.5" ry="2.5" style="stroke:#181818;stroke-width:0.5;" width="139" x="1590" y="2481.0547"/><text fill="#000000" font-family="sans-serif" font-size="20" lengthAdjust="spacing" textLength="114" x="1602.5" y="2507.3906">repositories</text><text fill="#000000" font-family="sans-serif" font-size="20" lengthAdjust="spacing" textLength="125" x="1597" y="2530.9453">:Repositories</text><rect fill="#E3E3E3" height="61.1094" rx="2.5" ry="2.5" style="stroke:#181818;stroke-width:0.5;" width="247" x="1739" y="26.4453"/><text fill="#000000" font-family="sans-serif" font-size="20" lengthAdjust="spacing" textLength="233" x="1746" y="52.7813">taskCategoryRepository:</text><text fill="#000000" font-family="sans-serif" font-size="20" lengthAdjust="spacing" textLength="233" x="1746" y="76.3359">TaskCategoryRepository</text><rect fill="#E3E3E3" height="61.1094" rx="2.5" ry="2.5" style="stroke:#181818;stroke-width:0.5;" width="247" x="1739" y="2481.0547"/><text fill="#000000" font-family="sans-serif" font-size="20" lengthAdjust="spacing" textLength="233" x="1746" y="2507.3906">taskCategoryRepository:</text><text fill="#000000" font-family="sans-serif" font-size="20" lengthAdjust="spacing" textLength="233" x="1746" y="2530.9453">TaskCategoryRepository</text><rect fill="#E3E3E3" height="37.5547" rx="2.5" ry="2.5" style="stroke:#181818;stroke-width:0.5;" width="202" x="1996" y="50"/><text fill="#000000" font-family="sans-serif" font-size="20" lengthAdjust="spacing" textLength="188" x="2003" y="76.3359">:ApplicationSession</text><rect fill="#E3E3E3" height="37.5547" rx="2.5" ry="2.5" style="stroke:#181818;stroke-width:0.5;" width="202" x="1996" y="2481.0547"/><text fill="#000000" font-family="sans-serif" font-size="20" lengthAdjust="spacing" textLength="188" x="2003" y="2507.3906">:ApplicationSession</text><rect fill="#E3E3E3" height="61.1094" rx="2.5" ry="2.5" style="stroke:#181818;stroke-width:0.5;" width="202" x="2208" y="26.4453"/><text fill="#000000" font-family="sans-serif" font-size="20" lengthAdjust="spacing" textLength="109" x="2254.5" y="52.7813">appSession</text><text fill="#000000" font-family="sans-serif" font-size="20" lengthAdjust="spacing" textLength="188" x="2215" y="76.3359">:ApplicationSession</text><rect fill="#E3E3E3" height="61.1094" rx="2.5" ry="2.5" style="stroke:#181818;stroke-width:0.5;" width="202" x="2208" y="2481.0547"/><text fill="#000000" font-family="sans-serif" font-size="20" lengthAdjust="spacing" textLength="109" x="2254.5" y="2507.3906">appSession</text><text fill="#000000" font-family="sans-serif" font-size="20" lengthAdjust="spacing" textLength="188" x="2215" y="2530.9453">:ApplicationSession</text><rect fill="#E3E3E3" height="61.1094" rx="2.5" ry="2.5" style="stroke:#181818;stroke-width:0.5;" width="154" x="2420" y="26.4453"/><text fill="#000000" font-family="sans-serif" font-size="20" lengthAdjust="spacing" textLength="140" x="2427" y="52.7813">currentSession</text><text fill="#000000" font-family="sans-serif" font-size="20" lengthAdjust="spacing" textLength="121" x="2436.5" y="76.3359">:UserSession</text><rect fill="#E3E3E3" height="61.1094" rx="2.5" ry="2.5" style="stroke:#181818;stroke-width:0.5;" width="154" x="2420" y="2481.0547"/><text fill="#000000" font-family="sans-serif" font-size="20" lengthAdjust="spacing" textLength="140" x="2427" y="2507.3906">currentSession</text><text fill="#000000" font-family="sans-serif" font-size="20" lengthAdjust="spacing" textLength="121" x="2436.5" y="2530.9453">:UserSession</text><rect fill="#E3E3E3" height="61.1094" rx="2.5" ry="2.5" style="stroke:#181818;stroke-width:0.5;" width="242" x="2584" y="26.4453"/><text fill="#000000" font-family="sans-serif" font-size="20" lengthAdjust="spacing" textLength="228" x="2591" y="52.7813">organizationRepository:</text><text fill="#000000" font-family="sans-serif" font-size="20" lengthAdjust="spacing" textLength="226" x="2592" y="76.3359">OrganizationRepository</text><rect fill="#E3E3E3" height="61.1094" rx="2.5" ry="2.5" style="stroke:#181818;stroke-width:0.5;" width="242" x="2584" y="2481.0547"/><text fill="#000000" font-family="sans-serif" font-size="20" lengthAdjust="spacing" textLength="228" x="2591" y="2507.3906">organizationRepository:</text><text fill="#000000" font-family="sans-serif" font-size="20" lengthAdjust="spacing" textLength="226" x="2592" y="2530.9453">OrganizationRepository</text><rect fill="#E3E3E3" height="61.1094" rx="2.5" ry="2.5" style="stroke:#181818;stroke-width:0.5;" width="144" x="2974" y="26.4453"/><text fill="#000000" font-family="sans-serif" font-size="20" lengthAdjust="spacing" textLength="120" x="2986" y="52.7813">organization</text><text fill="#000000" font-family="sans-serif" font-size="20" lengthAdjust="spacing" textLength="130" x="2981" y="76.3359">:Organization</text><rect fill="#E3E3E3" height="61.1094" rx="2.5" ry="2.5" style="stroke:#181818;stroke-width:0.5;" width="144" x="2974" y="2481.0547"/><text fill="#000000" font-family="sans-serif" font-size="20" lengthAdjust="spacing" textLength="120" x="2986" y="2507.3906">organization</text><text fill="#000000" font-family="sans-serif" font-size="20" lengthAdjust="spacing" textLength="130" x="2981" y="2530.9453">:Organization</text><rect fill="#E3E3E3" height="61.1094" rx="2.5" ry="2.5" style="stroke:#181818;stroke-width:0.5;" width="66" x="3509" y="2481.0547"/><text fill="#000000" font-family="sans-serif" font-size="20" lengthAdjust="spacing" textLength="40" x="3522" y="2507.3906">task</text><text fill="#000000" font-family="sans-serif" font-size="20" lengthAdjust="spacing" textLength="52" x="3516" y="2530.9453">:Task</text><rect fill="#FFFFFF" height="2365.5" style="stroke:#181818;stroke-width:1.0;" width="10" x="114.5" y="98.5547"/><rect fill="#FFFFFF" height="410.1016" style="stroke:#181818;stroke-width:1.0;" width="10" x="608.5" y="128.1094"/><rect fill="#FFFFFF" height="37.5547" style="stroke:#181818;stroke-width:1.0;" width="10" x="608.5" y="575.7656"/><rect fill="#FFFFFF" height="37.5547" style="stroke:#181818;stroke-width:1.0;" width="10" x="608.5" y="697.9844"/><rect fill="#FFFFFF" height="1690.9609" style="stroke:#181818;stroke-width:1.0;" width="10" x="608.5" y="773.0938"/><rect fill="#FFFFFF" height="262.8828" style="stroke:#181818;stroke-width:1.0;" width="10" x="909.5" y="214.2188"/><rect fill="#FFFFFF" height="1498.0781" style="stroke:#181818;stroke-width:1.0;" width="10" x="909.5" y="928.4219"/><rect fill="#FFFFFF" height="273.8828" style="stroke:#181818;stroke-width:1.0;" width="10" x="914.5" y="973.9766"/><rect fill="#FFFFFF" height="622.4297" style="stroke:#181818;stroke-width:1.0;" width="10" x="914.5" y="1325.4141"/><rect fill="#FFFFFF" height="37.5547" style="stroke:#181818;stroke-width:1.0;" width="10" x="1505.5" y="251.7734"/><rect fill="#FFFFFF" height="37.5547" style="stroke:#181818;stroke-width:1.0;" width="10" x="1505.5" y="1016.5313"/><rect fill="#FFFFFF" height="37.5547" style="stroke:#181818;stroke-width:1.0;" width="10" x="1654.5" y="326.8828"/><rect fill="#FFFFFF" height="37.5547" style="stroke:#181818;stroke-width:1.0;" width="10" x="1654.5" y="1091.6406"/><rect fill="#FFFFFF" height="37.5547" style="stroke:#181818;stroke-width:1.0;" width="10" x="1654.5" y="1593.2969"/><rect fill="#FFFFFF" height="37.5547" style="stroke:#181818;stroke-width:1.0;" width="10" x="1857.5" y="401.9922"/><rect fill="#FFFFFF" height="37.5547" style="stroke:#181818;stroke-width:1.0;" width="10" x="1857.5" y="1166.75"/><rect fill="#FFFFFF" height="37.5547" style="stroke:#181818;stroke-width:1.0;" width="10" x="2092" y="1367.9688"/><rect fill="#FFFFFF" height="37.5547" style="stroke:#181818;stroke-width:1.0;" width="10" x="2304" y="1443.0781"/><rect fill="#FFFFFF" height="37.5547" style="stroke:#181818;stroke-width:1.0;" width="10" x="2492" y="1518.1875"/><rect fill="#FFFFFF" height="160.7734" style="stroke:#181818;stroke-width:1.0;" width="10" x="2700" y="1668.4063"/><rect fill="#FFFFFF" height="37.5547" style="stroke:#181818;stroke-width:1.0;" width="10" x="3041" y="1747.0703"/><rect fill="#FFFFFF" height="37.5547" style="stroke:#181818;stroke-width:1.0;" width="10" x="3041" y="1866.7344"/><rect fill="#FFFFFF" height="324.4375" style="stroke:#181818;stroke-width:1.0;" width="10" x="3041" y="2064.5078"/><rect fill="#FFFFFF" height="149.6641" style="stroke:#181818;stroke-width:1.0;" width="10" x="3046" y="2194.7266"/><rect fill="#FFFFFF" height="48.5547" style="stroke:#181818;stroke-width:1.0;" width="10" x="3051" y="2245.2813"/><polygon fill="#181818" points="596.5,124.1094,606.5,128.1094,596.5,132.1094,600.5,128.1094" style="stroke:#181818;stroke-width:1.0;"/><line style="stroke:#181818;stroke-width:1.0;" x1="124.5" x2="602.5" y1="128.1094" y2="128.1094"/><text fill="#000000" font-family="sans-serif" font-size="20" font-weight="bold" lengthAdjust="spacing" textLength="13" x="131.5" y="121.8906">1</text><text fill="#000000" font-family="sans-serif" font-size="20" lengthAdjust="spacing" textLength="239" x="148.5" y="121.8906">asks to create a new task</text><polygon fill="#181818" points="790.5,161.6641,800.5,165.6641,790.5,169.6641,794.5,165.6641" style="stroke:#181818;stroke-width:1.0;"/><line style="stroke:#181818;stroke-width:1.0;" x1="618.5" x2="796.5" y1="165.6641" y2="165.6641"/><text fill="#000000" font-family="sans-serif" font-size="20" font-weight="bold" lengthAdjust="spacing" textLength="13" x="625.5" y="159.4453">2</text><text fill="#000000" font-family="sans-serif" font-size="20" lengthAdjust="spacing" textLength="58" x="642.5" y="159.4453">create</text><rect fill="#E3E3E3" height="37.5547" rx="2.5" ry="2.5" style="stroke:#181818;stroke-width:0.5;" width="224" x="802.5" y="136.1094"/><text fill="#000000" font-family="sans-serif" font-size="20" lengthAdjust="spacing" textLength="210" x="809.5" y="162.4453">:CreateTaskController</text><polygon fill="#181818" points="897.5,210.2188,907.5,214.2188,897.5,218.2188,901.5,214.2188" style="stroke:#181818;stroke-width:1.0;"/><line style="stroke:#181818;stroke-width:1.0;" x1="618.5" x2="903.5" y1="214.2188" y2="214.2188"/><text fill="#000000" font-family="sans-serif" font-size="20" font-weight="bold" lengthAdjust="spacing" textLength="13" x="625.5" y="208">3</text><text fill="#000000" font-family="sans-serif" font-size="20" lengthAdjust="spacing" textLength="192" x="642.5" y="208">getTaskCategories()</text><polygon fill="#181818" points="1493.5,247.7734,1503.5,251.7734,1493.5,255.7734,1497.5,251.7734" style="stroke:#181818;stroke-width:1.0;"/><line style="stroke:#181818;stroke-width:1.0;" x1="919.5" x2="1499.5" y1="251.7734" y2="251.7734"/><text fill="#000000" font-family="sans-serif" font-size="20" font-weight="bold" lengthAdjust="spacing" textLength="13" x="926.5" y="245.5547">4</text><text fill="#000000" font-family="sans-serif" font-size="20" lengthAdjust="spacing" textLength="123" x="943.5" y="245.5547">getInstance()</text><polygon fill="#181818" points="930.5,285.3281,920.5,289.3281,930.5,293.3281,926.5,289.3281" style="stroke:#181818;stroke-width:1.0;"/><line style="stroke:#181818;stroke-width:1.0;stroke-dasharray:2.0,2.0;" x1="924.5" x2="1509.5" y1="289.3281" y2="289.3281"/><text fill="#000000" font-family="sans-serif" font-size="20" font-weight="bold" lengthAdjust="spacing" textLength="13" x="936.5" y="283.1094">5</text><text fill="#000000" font-family="sans-serif" font-size="20" lengthAdjust="spacing" textLength="114" x="953.5" y="283.1094">repositories</text><polygon fill="#181818" points="1642.5,322.8828,1652.5,326.8828,1642.5,330.8828,1646.5,326.8828" style="stroke:#181818;stroke-width:1.0;"/><line style="stroke:#181818;stroke-width:1.0;" x1="919.5" x2="1648.5" y1="326.8828" y2="326.8828"/><text fill="#000000" font-family="sans-serif" font-size="20" font-weight="bold" lengthAdjust="spacing" textLength="13" x="926.5" y="320.6641">6</text><text fill="#000000" font-family="sans-serif" font-size="20" lengthAdjust="spacing" textLength="277" x="943.5" y="320.6641">getTaskCategoryRepository()</text><polygon fill="#181818" points="930.5,360.4375,920.5,364.4375,930.5,368.4375,926.5,364.4375" style="stroke:#181818;stroke-width:1.0;"/><line style="stroke:#181818;stroke-width:1.0;stroke-dasharray:2.0,2.0;" x1="924.5" x2="1658.5" y1="364.4375" y2="364.4375"/><text fill="#000000" font-family="sans-serif" font-size="20" font-weight="bold" lengthAdjust="spacing" textLength="13" x="936.5" y="358.2188">7</text><text fill="#000000" font-family="sans-serif" font-size="20" lengthAdjust="spacing" textLength="227" x="953.5" y="358.2188">taskCategoryRepository</text><polygon fill="#181818" points="1845.5,397.9922,1855.5,401.9922,1845.5,405.9922,1849.5,401.9922" style="stroke:#181818;stroke-width:1.0;"/><line style="stroke:#181818;stroke-width:1.0;" x1="919.5" x2="1851.5" y1="401.9922" y2="401.9922"/><text fill="#000000" font-family="sans-serif" font-size="20" font-weight="bold" lengthAdjust="spacing" textLength="13" x="926.5" y="395.7734">8</text><text fill="#000000" font-family="sans-serif" font-size="20" lengthAdjust="spacing" textLength="192" x="943.5" y="395.7734">getTaskCategories()</text><polygon fill="#181818" points="930.5,435.5469,920.5,439.5469,930.5,443.5469,926.5,439.5469" style="stroke:#181818;stroke-width:1.0;"/><line style="stroke:#181818;stroke-width:1.0;stroke-dasharray:2.0,2.0;" x1="924.5" x2="1861.5" y1="439.5469" y2="439.5469"/><text fill="#000000" font-family="sans-serif" font-size="20" font-weight="bold" lengthAdjust="spacing" textLength="13" x="936.5" y="433.3281">9</text><text fill="#000000" font-family="sans-serif" font-size="20" lengthAdjust="spacing" textLength="159" x="953.5" y="433.3281">taskCategoryList</text><polygon fill="#181818" points="629.5,473.1016,619.5,477.1016,629.5,481.1016,625.5,477.1016" style="stroke:#181818;stroke-width:1.0;"/><line style="stroke:#181818;stroke-width:1.0;stroke-dasharray:2.0,2.0;" x1="623.5" x2="913.5" y1="477.1016" y2="477.1016"/><text fill="#000000" font-family="sans-serif" font-size="20" font-weight="bold" lengthAdjust="spacing" textLength="26" x="635.5" y="470.8828">10</text><text fill="#000000" font-family="sans-serif" font-size="20" lengthAdjust="spacing" textLength="159" x="665.5" y="470.8828">taskCategoryList</text><polygon fill="#181818" points="135.5,534.2109,125.5,538.2109,135.5,542.2109,131.5,538.2109" style="stroke:#181818;stroke-width:1.0;"/><line style="stroke:#181818;stroke-width:1.0;stroke-dasharray:2.0,2.0;" x1="129.5" x2="612.5" y1="538.2109" y2="538.2109"/><text fill="#000000" font-family="sans-serif" font-size="20" font-weight="bold" lengthAdjust="spacing" textLength="26" x="141.5" y="520.2148">11</text><text fill="#000000" font-family="sans-serif" font-size="20" lengthAdjust="spacing" textLength="227" x="171.5" y="508.4375">shows task category list</text><text fill="#000000" font-family="sans-serif" font-size="20" lengthAdjust="spacing" textLength="212" x="177.5" y="531.9922">and asks to sleect one</text><polygon fill="#181818" points="596.5,571.7656,606.5,575.7656,596.5,579.7656,600.5,575.7656" style="stroke:#181818;stroke-width:1.0;"/><line style="stroke:#181818;stroke-width:1.0;" x1="124.5" x2="602.5" y1="575.7656" y2="575.7656"/><text fill="#000000" font-family="sans-serif" font-size="20" font-weight="bold" lengthAdjust="spacing" textLength="26" x="131.5" y="569.5469">12</text><text fill="#000000" font-family="sans-serif" font-size="20" lengthAdjust="spacing" textLength="215" x="161.5" y="569.5469">selects a task category</text><polygon fill="#181818" points="135.5,609.3203,125.5,613.3203,135.5,617.3203,131.5,613.3203" style="stroke:#181818;stroke-width:1.0;"/><line style="stroke:#181818;stroke-width:1.0;stroke-dasharray:2.0,2.0;" x1="129.5" x2="612.5" y1="613.3203" y2="613.3203"/><text fill="#000000" font-family="sans-serif" font-size="20" font-weight="bold" lengthAdjust="spacing" textLength="26" x="141.5" y="607.1016">13</text><text fill="#000000" font-family="sans-serif" font-size="20" lengthAdjust="spacing" textLength="130" x="171.5" y="607.1016">requests data</text><polygon fill="#181818" points="596.5,693.9844,606.5,697.9844,596.5,701.9844,600.5,697.9844" style="stroke:#181818;stroke-width:1.0;"/><line style="stroke:#181818;stroke-width:1.0;" x1="124.5" x2="602.5" y1="697.9844" y2="697.9844"/><text fill="#000000" font-family="sans-serif" font-size="20" font-weight="bold" lengthAdjust="spacing" textLength="26" x="131.5" y="668.2109">14</text><text fill="#000000" font-family="sans-serif" font-size="20" lengthAdjust="spacing" textLength="429" x="161.5" y="644.6563">types requested data (reference, description,</text><text fill="#000000" font-family="sans-serif" font-size="20" lengthAdjust="spacing" textLength="412" x="161.5" y="668.2109">informal description, technical description,</text><text fill="#000000" font-family="sans-serif" font-size="20" lengthAdjust="spacing" textLength="139" x="161.5" y="691.7656">duration, cost)</text><polygon fill="#181818" points="135.5,731.5391,125.5,735.5391,135.5,739.5391,131.5,735.5391" style="stroke:#181818;stroke-width:1.0;"/><line style="stroke:#181818;stroke-width:1.0;stroke-dasharray:2.0,2.0;" x1="129.5" x2="612.5" y1="735.5391" y2="735.5391"/><text fill="#000000" font-family="sans-serif" font-size="20" font-weight="bold" lengthAdjust="spacing" textLength="26" x="141.5" y="729.3203">15</text><text fill="#000000" font-family="sans-serif" font-size="20" lengthAdjust="spacing" textLength="423" x="171.5" y="729.3203">shows selected category and requested data</text><polygon fill="#181818" points="596.5,769.0938,606.5,773.0938,596.5,777.0938,600.5,773.0938" style="stroke:#181818;stroke-width:1.0;"/><line style="stroke:#181818;stroke-width:1.0;" x1="124.5" x2="602.5" y1="773.0938" y2="773.0938"/><text fill="#000000" font-family="sans-serif" font-size="20" font-weight="bold" lengthAdjust="spacing" textLength="26" x="131.5" y="766.875">16</text><text fill="#000000" font-family="sans-serif" font-size="20" lengthAdjust="spacing" textLength="125" x="161.5" y="766.875">submits data</text><polygon fill="#181818" points="897.5,924.4219,907.5,928.4219,897.5,932.4219,901.5,928.4219" style="stroke:#181818;stroke-width:1.0;"/><line style="stroke:#181818;stroke-width:1.0;" x1="618.5" x2="903.5" y1="928.4219" y2="928.4219"/><text fill="#000000" font-family="sans-serif" font-size="20" font-weight="bold" lengthAdjust="spacing" textLength="26" x="625.5" y="863.3164">17</text><text fill="#000000" font-family="sans-serif" font-size="20" lengthAdjust="spacing" textLength="206" x="655.5" y="804.4297">createTask(reference,</text><text fill="#000000" font-family="sans-serif" font-size="20" lengthAdjust="spacing" textLength="114" x="655.5" y="827.9844">description,</text><text fill="#000000" font-family="sans-serif" font-size="20" lengthAdjust="spacing" textLength="197" x="655.5" y="851.5391">informalDescription,</text><text fill="#000000" font-family="sans-serif" font-size="20" lengthAdjust="spacing" textLength="201" x="655.5" y="875.0938">technicalDescription,</text><text fill="#000000" font-family="sans-serif" font-size="20" lengthAdjust="spacing" textLength="138" x="655.5" y="898.6484">duration, cost,</text><text fill="#000000" font-family="sans-serif" font-size="20" lengthAdjust="spacing" textLength="242" x="655.5" y="922.2031">taskCategoryDescription)</text><line style="stroke:#181818;stroke-width:1.0;" x1="919.5" x2="966.5" y1="960.9766" y2="960.9766"/><line style="stroke:#181818;stroke-width:1.0;" x1="966.5" x2="966.5" y1="960.9766" y2="973.9766"/><line style="stroke:#181818;stroke-width:1.0;" x1="925.5" x2="966.5" y1="973.9766" y2="973.9766"/><polygon fill="#181818" points="935.5,969.9766,925.5,973.9766,935.5,977.9766,931.5,973.9766" style="stroke:#181818;stroke-width:1.0;"/><text fill="#000000" font-family="sans-serif" font-size="20" font-weight="bold" lengthAdjust="spacing" textLength="26" x="931.5" y="954.7578">18</text><text fill="#000000" font-family="sans-serif" font-size="20" lengthAdjust="spacing" textLength="542" x="961.5" y="954.7578">getTaskCategoryByDescription(taskCategoryDescription)</text><polygon fill="#181818" points="1493.5,1012.5313,1503.5,1016.5313,1493.5,1020.5313,1497.5,1016.5313" style="stroke:#181818;stroke-width:1.0;"/><line style="stroke:#181818;stroke-width:1.0;" x1="924.5" x2="1499.5" y1="1016.5313" y2="1016.5313"/><text fill="#000000" font-family="sans-serif" font-size="20" font-weight="bold" lengthAdjust="spacing" textLength="26" x="931.5" y="1010.3125">19</text><text fill="#000000" font-family="sans-serif" font-size="20" lengthAdjust="spacing" textLength="123" x="961.5" y="1010.3125">getInstance()</text><polygon fill="#181818" points="935.5,1050.0859,925.5,1054.0859,935.5,1058.0859,931.5,1054.0859" style="stroke:#181818;stroke-width:1.0;"/><line style="stroke:#181818;stroke-width:1.0;stroke-dasharray:2.0,2.0;" x1="929.5" x2="1509.5" y1="1054.0859" y2="1054.0859"/><text fill="#000000" font-family="sans-serif" font-size="20" font-weight="bold" lengthAdjust="spacing" textLength="26" x="941.5" y="1047.8672">20</text><text fill="#000000" font-family="sans-serif" font-size="20" lengthAdjust="spacing" textLength="114" x="971.5" y="1047.8672">repositories</text><polygon fill="#181818" points="1642.5,1087.6406,1652.5,1091.6406,1642.5,1095.6406,1646.5,1091.6406" style="stroke:#181818;stroke-width:1.0;"/><line style="stroke:#181818;stroke-width:1.0;" x1="924.5" x2="1648.5" y1="1091.6406" y2="1091.6406"/><text fill="#000000" font-family="sans-serif" font-size="20" font-weight="bold" lengthAdjust="spacing" textLength="26" x="931.5" y="1085.4219">21</text><text fill="#000000" font-family="sans-serif" font-size="20" lengthAdjust="spacing" textLength="277" x="961.5" y="1085.4219">getTaskCategoryRepository()</text><polygon fill="#181818" points="935.5,1125.1953,925.5,1129.1953,935.5,1133.1953,931.5,1129.1953" style="stroke:#181818;stroke-width:1.0;"/><line style="stroke:#181818;stroke-width:1.0;" x1="929.5" x2="1658.5" y1="1129.1953" y2="1129.1953"/><text fill="#000000" font-family="sans-serif" font-size="20" font-weight="bold" lengthAdjust="spacing" textLength="26" x="941.5" y="1122.9766">22</text><text fill="#000000" font-family="sans-serif" font-size="20" lengthAdjust="spacing" textLength="227" x="971.5" y="1122.9766">taskCategoryRepository</text><polygon fill="#181818" points="1845.5,1162.75,1855.5,1166.75,1845.5,1170.75,1849.5,1166.75" style="stroke:#181818;stroke-width:1.0;"/><line style="stroke:#181818;stroke-width:1.0;" x1="924.5" x2="1851.5" y1="1166.75" y2="1166.75"/><text fill="#000000" font-family="sans-serif" font-size="20" font-weight="bold" lengthAdjust="spacing" textLength="26" x="931.5" y="1160.5313">23</text><text fill="#000000" font-family="sans-serif" font-size="20" lengthAdjust="spacing" textLength="542" x="961.5" y="1160.5313">getTaskCategoryByDescription(taskCategoryDescription)</text><polygon fill="#181818" points="935.5,1200.3047,925.5,1204.3047,935.5,1208.3047,931.5,1204.3047" style="stroke:#181818;stroke-width:1.0;"/><line style="stroke:#181818;stroke-width:1.0;stroke-dasharray:2.0,2.0;" x1="929.5" x2="1861.5" y1="1204.3047" y2="1204.3047"/><text fill="#000000" font-family="sans-serif" font-size="20" font-weight="bold" lengthAdjust="spacing" textLength="26" x="941.5" y="1198.0859">24</text><text fill="#000000" font-family="sans-serif" font-size="20" lengthAdjust="spacing" textLength="125" x="971.5" y="1198.0859">taskCategory</text><line style="stroke:#181818;stroke-width:1.0;stroke-dasharray:2.0,2.0;" x1="924.5" x2="966.5" y1="1246.8594" y2="1246.8594"/><line style="stroke:#181818;stroke-width:1.0;stroke-dasharray:2.0,2.0;" x1="966.5" x2="966.5" y1="1246.8594" y2="1259.8594"/><line style="stroke:#181818;stroke-width:1.0;stroke-dasharray:2.0,2.0;" x1="919.5" x2="966.5" y1="1259.8594" y2="1259.8594"/><polygon fill="#181818" points="929.5,1255.8594,919.5,1259.8594,929.5,1263.8594,925.5,1259.8594" style="stroke:#181818;stroke-width:1.0;"/><text fill="#000000" font-family="sans-serif" font-size="20" font-weight="bold" lengthAdjust="spacing" textLength="26" x="931.5" y="1240.6406">25</text><text fill="#000000" font-family="sans-serif" font-size="20" lengthAdjust="spacing" textLength="125" x="961.5" y="1240.6406">taskCategory</text><line style="stroke:#181818;stroke-width:1.0;" x1="919.5" x2="966.5" y1="1312.4141" y2="1312.4141"/><line style="stroke:#181818;stroke-width:1.0;" x1="966.5" x2="966.5" y1="1312.4141" y2="1325.4141"/><line style="stroke:#181818;stroke-width:1.0;" x1="925.5" x2="966.5" y1="1325.4141" y2="1325.4141"/><polygon fill="#181818" points="935.5,1321.4141,925.5,1325.4141,935.5,1329.4141,931.5,1325.4141" style="stroke:#181818;stroke-width:1.0;"/><text fill="#000000" font-family="sans-serif" font-size="20" font-weight="bold" lengthAdjust="spacing" textLength="26" x="931.5" y="1306.1953">26</text><text fill="#000000" font-family="sans-serif" font-size="20" lengthAdjust="spacing" textLength="259" x="961.5" y="1306.1953">getEmployeeFromSession()</text><polygon fill="#181818" points="2080,1363.9688,2090,1367.9688,2080,1371.9688,2084,1367.9688" style="stroke:#181818;stroke-width:1.0;"/><line style="stroke:#181818;stroke-width:1.0;" x1="924.5" x2="2086" y1="1367.9688" y2="1367.9688"/><text fill="#000000" font-family="sans-serif" font-size="20" font-weight="bold" lengthAdjust="spacing" textLength="26" x="931.5" y="1361.75">27</text><text fill="#000000" font-family="sans-serif" font-size="20" lengthAdjust="spacing" textLength="123" x="961.5" y="1361.75">getInstance()</text><polygon fill="#181818" points="935.5,1401.5234,925.5,1405.5234,935.5,1409.5234,931.5,1405.5234" style="stroke:#181818;stroke-width:1.0;"/><line style="stroke:#181818;stroke-width:1.0;" x1="929.5" x2="2096" y1="1405.5234" y2="1405.5234"/><text fill="#000000" font-family="sans-serif" font-size="20" font-weight="bold" lengthAdjust="spacing" textLength="26" x="941.5" y="1399.3047">28</text><text fill="#000000" font-family="sans-serif" font-size="20" lengthAdjust="spacing" textLength="109" x="971.5" y="1399.3047">appSession</text><polygon fill="#181818" points="2292,1439.0781,2302,1443.0781,2292,1447.0781,2296,1443.0781" style="stroke:#181818;stroke-width:1.0;"/><line style="stroke:#181818;stroke-width:1.0;" x1="924.5" x2="2298" y1="1443.0781" y2="1443.0781"/><text fill="#000000" font-family="sans-serif" font-size="20" font-weight="bold" lengthAdjust="spacing" textLength="26" x="931.5" y="1436.8594">29</text><text fill="#000000" font-family="sans-serif" font-size="20" lengthAdjust="spacing" textLength="188" x="961.5" y="1436.8594">getCurrentSession()</text><polygon fill="#181818" points="935.5,1476.6328,925.5,1480.6328,935.5,1484.6328,931.5,1480.6328" style="stroke:#181818;stroke-width:1.0;"/><line style="stroke:#181818;stroke-width:1.0;stroke-dasharray:2.0,2.0;" x1="929.5" x2="2308" y1="1480.6328" y2="1480.6328"/><text fill="#000000" font-family="sans-serif" font-size="20" font-weight="bold" lengthAdjust="spacing" textLength="26" x="941.5" y="1474.4141">30</text><text fill="#000000" font-family="sans-serif" font-size="20" lengthAdjust="spacing" textLength="140" x="971.5" y="1474.4141">currentSession</text><polygon fill="#181818" points="2480,1514.1875,2490,1518.1875,2480,1522.1875,2484,1518.1875" style="stroke:#181818;stroke-width:1.0;"/><line style="stroke:#181818;stroke-width:1.0;" x1="924.5" x2="2486" y1="1518.1875" y2="1518.1875"/><text fill="#000000" font-family="sans-serif" font-size="20" font-weight="bold" lengthAdjust="spacing" textLength="26" x="931.5" y="1511.9688">31</text><text fill="#000000" font-family="sans-serif" font-size="20" lengthAdjust="spacing" textLength="221" x="961.5" y="1511.9688">email = getUserEmail()</text><polygon fill="#181818" points="935.5,1551.7422,925.5,1555.7422,935.5,1559.7422,931.5,1555.7422" style="stroke:#181818;stroke-width:1.0;"/><line style="stroke:#181818;stroke-width:1.0;stroke-dasharray:2.0,2.0;" x1="929.5" x2="2496" y1="1555.7422" y2="1555.7422"/><text fill="#000000" font-family="sans-serif" font-size="20" font-weight="bold" lengthAdjust="spacing" textLength="26" x="941.5" y="1549.5234">32</text><text fill="#000000" font-family="sans-serif" font-size="20" lengthAdjust="spacing" textLength="53" x="971.5" y="1549.5234">email</text><polygon fill="#181818" points="1642.5,1589.2969,1652.5,1593.2969,1642.5,1597.2969,1646.5,1593.2969" style="stroke:#181818;stroke-width:1.0;"/><line style="stroke:#181818;stroke-width:1.0;" x1="924.5" x2="1648.5" y1="1593.2969" y2="1593.2969"/><text fill="#000000" font-family="sans-serif" font-size="20" font-weight="bold" lengthAdjust="spacing" textLength="26" x="931.5" y="1587.0781">33</text><text fill="#000000" font-family="sans-serif" font-size="20" lengthAdjust="spacing" textLength="323" x="961.5" y="1587.0781">getOrganizationRepository(email)</text><polygon fill="#181818" points="935.5,1626.8516,925.5,1630.8516,935.5,1634.8516,931.5,1630.8516" style="stroke:#181818;stroke-width:1.0;"/><line style="stroke:#181818;stroke-width:1.0;stroke-dasharray:2.0,2.0;" x1="929.5" x2="1658.5" y1="1630.8516" y2="1630.8516"/><text fill="#000000" font-family="sans-serif" font-size="20" font-weight="bold" lengthAdjust="spacing" textLength="26" x="941.5" y="1624.6328">34</text><text fill="#000000" font-family="sans-serif" font-size="20" lengthAdjust="spacing" textLength="222" x="971.5" y="1624.6328">organizationRepository</text><polygon fill="#181818" points="2688,1664.4063,2698,1668.4063,2688,1672.4063,2692,1668.4063" style="stroke:#181818;stroke-width:1.0;"/><line style="stroke:#181818;stroke-width:1.0;" x1="924.5" x2="2694" y1="1668.4063" y2="1668.4063"/><text fill="#000000" font-family="sans-serif" font-size="20" font-weight="bold" lengthAdjust="spacing" textLength="26" x="931.5" y="1662.1875">35</text><text fill="#000000" font-family="sans-serif" font-size="20" lengthAdjust="spacing" textLength="389" x="961.5" y="1662.1875">getOrganizationByEmployeeEmail(email)</text><path d="M2574,1683.4063 L2665,1683.4063 L2665,1698.9609 L2655,1708.9609 L2574,1708.9609 L2574,1683.4063 " fill="#EEEEEE" style="stroke:#000000;stroke-width:1.5;"/><rect fill="none" height="109.2188" style="stroke:#000000;stroke-width:1.5;" width="554" x="2574" y="1683.4063"/><text fill="#000000" font-family="sans-serif" font-size="20" font-weight="bold" lengthAdjust="spacing" textLength="46" x="2589" y="1703.7422">loop</text><text fill="#000000" font-family="sans-serif" font-size="20" font-weight="bold" lengthAdjust="spacing" textLength="245" x="2680" y="1704.7422">[[for each organization]</text><polygon fill="#181818" points="3029,1743.0703,3039,1747.0703,3029,1751.0703,3033,1747.0703" style="stroke:#181818;stroke-width:1.0;"/><line style="stroke:#181818;stroke-width:1.0;" x1="2710" x2="3035" y1="1747.0703" y2="1747.0703"/><text fill="#000000" font-family="sans-serif" font-size="20" font-weight="bold" lengthAdjust="spacing" textLength="26" x="2717" y="1740.8516">36</text><text fill="#000000" font-family="sans-serif" font-size="20" lengthAdjust="spacing" textLength="282" x="2747" y="1740.8516">anyEmployeeHasEmail(email)</text><polygon fill="#181818" points="2721,1780.625,2711,1784.625,2721,1788.625,2717,1784.625" style="stroke:#181818;stroke-width:1.0;"/><line style="stroke:#181818;stroke-width:1.0;stroke-dasharray:2.0,2.0;" x1="2715" x2="3045" y1="1784.625" y2="1784.625"/><text fill="#000000" font-family="sans-serif" font-size="20" font-weight="bold" lengthAdjust="spacing" textLength="26" x="2727" y="1778.4063">37</text><text fill="#000000" font-family="sans-serif" font-size="20" lengthAdjust="spacing" textLength="93" x="2757" y="1778.4063">true/false</text><polygon fill="#181818" points="935.5,1825.1797,925.5,1829.1797,935.5,1833.1797,931.5,1829.1797" style="stroke:#181818;stroke-width:1.0;"/><line style="stroke:#181818;stroke-width:1.0;stroke-dasharray:2.0,2.0;" x1="929.5" x2="2704" y1="1829.1797" y2="1829.1797"/><text fill="#000000" font-family="sans-serif" font-size="20" font-weight="bold" lengthAdjust="spacing" textLength="26" x="941.5" y="1822.9609">38</text><text fill="#000000" font-family="sans-serif" font-size="20" lengthAdjust="spacing" textLength="120" x="971.5" y="1822.9609">organization</text><polygon fill="#181818" points="3029,1862.7344,3039,1866.7344,3029,1870.7344,3033,1866.7344" style="stroke:#181818;stroke-width:1.0;"/><line style="stroke:#181818;stroke-width:1.0;" x1="924.5" x2="3035" y1="1866.7344" y2="1866.7344"/><text fill="#000000" font-family="sans-serif" font-size="20" font-weight="bold" lengthAdjust="spacing" textLength="26" x="931.5" y="1860.5156">39</text><text fill="#000000" font-family="sans-serif" font-size="20" lengthAdjust="spacing" textLength="265" x="961.5" y="1860.5156">getEmployeeByEmail(email)</text><polygon fill="#181818" points="935.5,1900.2891,925.5,1904.2891,935.5,1908.2891,931.5,1904.2891" style="stroke:#181818;stroke-width:1.0;"/><line style="stroke:#181818;stroke-width:1.0;stroke-dasharray:2.0,2.0;" x1="929.5" x2="3045" y1="1904.2891" y2="1904.2891"/><text fill="#000000" font-family="sans-serif" font-size="20" font-weight="bold" lengthAdjust="spacing" textLength="26" x="941.5" y="1898.0703">40</text><text fill="#000000" font-family="sans-serif" font-size="20" lengthAdjust="spacing" textLength="93" x="971.5" y="1898.0703">employee</text><line style="stroke:#181818;stroke-width:1.0;stroke-dasharray:2.0,2.0;" x1="924.5" x2="966.5" y1="1946.8438" y2="1946.8438"/><line style="stroke:#181818;stroke-width:1.0;stroke-dasharray:2.0,2.0;" x1="966.5" x2="966.5" y1="1946.8438" y2="1959.8438"/><line style="stroke:#181818;stroke-width:1.0;stroke-dasharray:2.0,2.0;" x1="919.5" x2="966.5" y1="1959.8438" y2="1959.8438"/><polygon fill="#181818" points="929.5,1955.8438,919.5,1959.8438,929.5,1963.8438,925.5,1959.8438" style="stroke:#181818;stroke-width:1.0;"/><text fill="#000000" font-family="sans-serif" font-size="20" font-weight="bold" lengthAdjust="spacing" textLength="26" x="931.5" y="1940.625">41</text><text fill="#000000" font-family="sans-serif" font-size="20" lengthAdjust="spacing" textLength="93" x="961.5" y="1940.625">employee</text><polygon fill="#181818" points="3029,2060.5078,3039,2064.5078,3029,2068.5078,3033,2064.5078" style="stroke:#181818;stroke-width:1.0;"/><line style="stroke:#181818;stroke-width:1.0;" x1="919.5" x2="3035" y1="2064.5078" y2="2064.5078"/><text fill="#000000" font-family="sans-serif" font-size="20" font-weight="bold" lengthAdjust="spacing" textLength="26" x="926.5" y="2034.7344">42</text><text fill="#000000" font-family="sans-serif" font-size="20" lengthAdjust="spacing" textLength="431" x="956.5" y="2011.1797">createTask(employee, reference, description,</text><text fill="#000000" font-family="sans-serif" font-size="20" lengthAdjust="spacing" textLength="404" x="956.5" y="2034.7344">informalDescription, technicalDescription,</text><text fill="#000000" font-family="sans-serif" font-size="20" lengthAdjust="spacing" textLength="393" x="956.5" y="2058.2891">duration, cost, , taskCategory, employee)</text><polygon fill="#181818" points="3497,2145.1719,3507,2149.1719,3497,2153.1719,3501,2149.1719" style="stroke:#181818;stroke-width:1.0;"/><line style="stroke:#181818;stroke-width:1.0;" x1="3051" x2="3503" y1="2149.1719" y2="2149.1719"/><text fill="#000000" font-family="sans-serif" font-size="20" font-weight="bold" lengthAdjust="spacing" textLength="26" x="3058" y="2119.3984">43</text><text fill="#000000" font-family="sans-serif" font-size="20" lengthAdjust="spacing" textLength="385" x="3088" y="2095.8438">create(employee, reference, description,</text><text fill="#000000" font-family="sans-serif" font-size="20" lengthAdjust="spacing" textLength="404" x="3088" y="2119.3984">informalDescription, technicalDescription,</text><text fill="#000000" font-family="sans-serif" font-size="20" lengthAdjust="spacing" textLength="381" x="3088" y="2142.9531">duration, cost, taskCategory, employee)</text><rect fill="#E3E3E3" height="61.1094" rx="2.5" ry="2.5" style="stroke:#181818;stroke-width:0.5;" width="66" x="3509" y="2085.0625"/><text fill="#000000" font-family="sans-serif" font-size="20" lengthAdjust="spacing" textLength="40" x="3522" y="2111.3984">task</text><text fill="#000000" font-family="sans-serif" font-size="20" lengthAdjust="spacing" textLength="52" x="3516" y="2134.9531">:Task</text><line style="stroke:#181818;stroke-width:1.0;" x1="3051" x2="3098" y1="2181.7266" y2="2181.7266"/><line style="stroke:#181818;stroke-width:1.0;" x1="3098" x2="3098" y1="2181.7266" y2="2194.7266"/><line style="stroke:#181818;stroke-width:1.0;" x1="3057" x2="3098" y1="2194.7266" y2="2194.7266"/><polygon fill="#181818" points="3067,2190.7266,3057,2194.7266,3067,2198.7266,3063,2194.7266" style="stroke:#181818;stroke-width:1.0;"/><text fill="#000000" font-family="sans-serif" font-size="20" font-weight="bold" lengthAdjust="spacing" textLength="26" x="3063" y="2175.5078">44</text><text fill="#000000" font-family="sans-serif" font-size="20" lengthAdjust="spacing" textLength="143" x="3093" y="2175.5078">addTask (task)</text><line style="stroke:#181818;stroke-width:1.0;" x1="3056" x2="3103" y1="2232.2813" y2="2232.2813"/><line style="stroke:#181818;stroke-width:1.0;" x1="3103" x2="3103" y1="2232.2813" y2="2245.2813"/><line style="stroke:#181818;stroke-width:1.0;" x1="3062" x2="3103" y1="2245.2813" y2="2245.2813"/><polygon fill="#181818" points="3072,2241.2813,3062,2245.2813,3072,2249.2813,3068,2245.2813" style="stroke:#181818;stroke-width:1.0;"/><text fill="#000000" font-family="sans-serif" font-size="20" font-weight="bold" lengthAdjust="spacing" textLength="26" x="3068" y="2226.0625">45</text><text fill="#000000" font-family="sans-serif" font-size="20" lengthAdjust="spacing" textLength="175" x="3098" y="2226.0625">validateTask(task)</text><line style="stroke:#181818;stroke-width:1.0;stroke-dasharray:2.0,2.0;" x1="3061" x2="3103" y1="2292.8359" y2="2292.8359"/><line style="stroke:#181818;stroke-width:1.0;stroke-dasharray:2.0,2.0;" x1="3103" x2="3103" y1="2292.8359" y2="2305.8359"/><line style="stroke:#181818;stroke-width:1.0;stroke-dasharray:2.0,2.0;" x1="3056" x2="3103" y1="2305.8359" y2="2305.8359"/><polygon fill="#181818" points="3066,2301.8359,3056,2305.8359,3066,2309.8359,3062,2305.8359" style="stroke:#181818;stroke-width:1.0;"/><text fill="#000000" font-family="sans-serif" font-size="20" font-weight="bold" lengthAdjust="spacing" textLength="26" x="3068" y="2286.6172">46</text><text fill="#000000" font-family="sans-serif" font-size="20" lengthAdjust="spacing" textLength="6" x="3098" y="2286.6172"> </text><line style="stroke:#181818;stroke-width:1.0;stroke-dasharray:2.0,2.0;" x1="3056" x2="3098" y1="2343.3906" y2="2343.3906"/><line style="stroke:#181818;stroke-width:1.0;stroke-dasharray:2.0,2.0;" x1="3098" x2="3098" y1="2343.3906" y2="2356.3906"/><line style="stroke:#181818;stroke-width:1.0;stroke-dasharray:2.0,2.0;" x1="3051" x2="3098" y1="2356.3906" y2="2356.3906"/><polygon fill="#181818" points="3061,2352.3906,3051,2356.3906,3061,2360.3906,3057,2356.3906" style="stroke:#181818;stroke-width:1.0;"/><text fill="#000000" font-family="sans-serif" font-size="20" font-weight="bold" lengthAdjust="spacing" textLength="26" x="3063" y="2337.1719">47</text><text fill="#000000" font-family="sans-serif" font-size="20" lengthAdjust="spacing" textLength="6" x="3093" y="2337.1719"> </text><polygon fill="#181818" points="930.5,2384.9453,920.5,2388.9453,930.5,2392.9453,926.5,2388.9453" style="stroke:#181818;stroke-width:1.0;"/><line style="stroke:#181818;stroke-width:1.0;stroke-dasharray:2.0,2.0;" x1="924.5" x2="3045" y1="2388.9453" y2="2388.9453"/><text fill="#000000" font-family="sans-serif" font-size="20" font-weight="bold" lengthAdjust="spacing" textLength="26" x="936.5" y="2382.7266">48</text><text fill="#000000" font-family="sans-serif" font-size="20" lengthAdjust="spacing" textLength="40" x="966.5" y="2382.7266">task</text><polygon fill="#181818" points="629.5,2422.5,619.5,2426.5,629.5,2430.5,625.5,2426.5" style="stroke:#181818;stroke-width:1.0;"/><line style="stroke:#181818;stroke-width:1.0;stroke-dasharray:2.0,2.0;" x1="623.5" x2="913.5" y1="2426.5" y2="2426.5"/><text fill="#000000" font-family="sans-serif" font-size="20" font-weight="bold" lengthAdjust="spacing" textLength="26" x="635.5" y="2420.2813">49</text><text fill="#000000" font-family="sans-serif" font-size="20" lengthAdjust="spacing" textLength="40" x="665.5" y="2420.2813">task</text><polygon fill="#181818" points="130.5,2460.0547,120.5,2464.0547,130.5,2468.0547,126.5,2464.0547" style="stroke:#181818;stroke-width:1.0;"/><line style="stroke:#181818;stroke-width:1.0;stroke-dasharray:2.0,2.0;" x1="124.5" x2="612.5" y1="2464.0547" y2="2464.0547"/><text fill="#000000" font-family="sans-serif" font-size="20" font-weight="bold" lengthAdjust="spacing" textLength="26" x="136.5" y="2457.8359">50</text><text fill="#000000" font-family="sans-serif" font-size="20" lengthAdjust="spacing" textLength="256" x="166.5" y="2457.8359">displays operation success</text><!--SRC=[xLXBRoCt3BxhLn2vv04RBNeqq03Ul1eWYmHsSgg1GfcHRS5ZQIh9ctgH7rzAyx3aqJmssDtJpYNnYFpuaI8fSVI6Yvmgkiraic4ff6n9TvcvbSBC-LS6V_nET2K2MobaibPooy2e7VDMSffiw8hDpJvZe5XYg5Xble1UqrI-SR629Sqq8uJkZ1IxxIjJX9okUSfWAQLvbVyHcXYfuEHHhQZWNwdXKi3DDi_adh4Je1gcrvy9eXgUy9mA0oUJAyMeOSzKRrxkdSZBVQl45RgcP9OnvIIldcSFHx8pbalDaGHdsidKB_PpRlr2vg6AyZGMeWdmz31z3ZMCPOACLWXwW9yin7DqmQ74bux8J_CyuucBsfnfZN-SxZ_JfwTGakPvAO2CMxGQIibEAOQfKIk-QAPyZVdDV3vz39MajvE1hu_H1OSJNsh7HIg-Ie4nksi67GLj78k0JcStjrDYCuv_mS2wp29GFlW3nfUOIZ11uOq68o5nQGGK17i32tSGhq4mzyWfU0yYZ178uasmEFxTCMqqfDHGE5DioJ2Y2HjXwUb4yTpI7m5miPHgIpDOY735i6GjSA-oy7MwKxJuBv7Qd1EVm6b9s-NwCRDBz_hY0haLOgH510LMp7X9YDbz5XggO-0i1KlsSIY85gcd0lnUQEmS2Jk23Q1ZnTYGja_CohZqnUx3eKORwYdxDdELOxRE6s7oQhNBBzSZeeuur0FpUEleyY4ENP6EKnsmsm7zbkOKTQZ5ulYGQBwF3roRBk-6MYxyhIgwquA7tipae9prMhvf1mP9YGOPmc7LKf7MVKDd30z5a8AHY0tRCOuxZcOPQcXiDG4uQRIQ_Yv31fWp-vpfIitU0pgxqqBKxMb0Rrg8M7FgTwA8RH48f5J7rmOsP3h4GxrxtN8_8gq4wYnCwak35mdq9l2jYiHryBQEn7L78AoSbuQUw3aPq5Ah0eusv_qd7- -irywlzlrZstUqjVt4zlsHVFX93Vu3pJrcjExlVIOwk_lx-tjFaLMpo2qEGkNLzsFN87id7rmtxW8VSzikG5qNXrjzLrGTM3knYjTLSDllOkVmOkmSkPfTE3vqCOm2LloA8MC2R4jv1dzQgdOEkR4_krYMmqcKQB7cSNNWNHGhjCvsuk8O7sREd8NlSIEC3rZzBQMLUPnmmvTF-weMYj3tETGor4LTpAJCuMyyMW5PhmCNe_BsYUCxXsPtTeeJDU6_gExatEIEmsIhL64TROnRWsSRajgntuhF7sqOtXPPWp4H9bBoBSuVUbTd37tB0xUfpfRPNT0ORLeCIeUsa5QHB7cp4fVqH8lqdGXHe0-T1ivbxtfO8O-WvSeSloV2i6iYZ8B3R5GxqdBiH8FXWdfPVlEukAZe_sZgGuXxz5nWQPhQg8AxfPn7-bHlaVXeNsZ6qsgZ2iJUIk-jyHQPlepim-ZJFwgCy0jK7u0t09UgNNKG7tada7ATPtIlGUQis6eShP84Z_JO5EOVwTUVoVy0]--></g></svg>