<?xml version="1.0" encoding="us-ascii" standalone="no"?><svg xmlns="http://www.w3.org/2000/svg" xmlns:xlink="http://www.w3.org/1999/xlink" contentStyleType="text/css" height="416px" preserveAspectRatio="none" style="width:589px;height:416px;background:#FFFFFF;" version="1.1" viewBox="0 0 589 416" width="589px" zoomAndPan="magnify"><defs/><g><text fill="#000000" font-family="sans-serif" font-size="14" font-weight="bold" lengthAdjust="spacing" textLength="387" x="102.5" y="27.6738">US019 - Sequence Diagram Partial (Get Offers List Deal)</text><rect fill="#FFFFFF" height="239.1875" style="stroke:#181818;stroke-width:1.0;" width="10" x="144" y="118.4453"/><rect fill="#FFFFFF" height="28.5234" style="stroke:#181818;stroke-width:1.0;" width="10" x="282.5" y="170.4922"/><rect fill="#FFFFFF" height="28.5234" style="stroke:#181818;stroke-width:1.0;" width="10" x="389.5" y="227.5391"/><rect fill="#FFFFFF" height="28.5234" style="stroke:#181818;stroke-width:1.0;" width="10" x="508" y="284.5859"/><rect fill="none" height="187.6641" style="stroke:#000000;stroke-width:1.5;" width="524" x="59" y="133.4453"/><line style="stroke:#181818;stroke-width:0.5;stroke-dasharray:5.0,5.0;" x1="149" x2="149" y1="87.9219" y2="366.6328"/><line style="stroke:#181818;stroke-width:0.5;stroke-dasharray:5.0,5.0;" x1="287" x2="287" y1="87.9219" y2="366.6328"/><line style="stroke:#181818;stroke-width:0.5;stroke-dasharray:5.0,5.0;" x1="394" x2="394" y1="87.9219" y2="366.6328"/><line style="stroke:#181818;stroke-width:0.5;stroke-dasharray:5.0,5.0;" x1="513" x2="513" y1="87.9219" y2="366.6328"/><rect fill="#E3E3E3" height="29.6406" rx="2.5" ry="2.5" style="stroke:#181818;stroke-width:0.5;" width="160" x="69" y="57.2813"/><text fill="#000000" font-family="sans-serif" font-size="14" lengthAdjust="spacing" textLength="146" x="76" y="76.9551">:DivideStoresController</text><rect fill="#E3E3E3" height="29.6406" rx="2.5" ry="2.5" style="stroke:#181818;stroke-width:0.5;" width="160" x="69" y="365.6328"/><text fill="#000000" font-family="sans-serif" font-size="14" lengthAdjust="spacing" textLength="146" x="76" y="385.3066">:DivideStoresController</text><rect fill="#E3E3E3" height="29.6406" rx="2.5" ry="2.5" style="stroke:#181818;stroke-width:0.5;" width="97" x="239" y="57.2813"/><text fill="#000000" font-family="sans-serif" font-size="14" lengthAdjust="spacing" textLength="83" x="246" y="76.9551">:Repositories</text><rect fill="#E3E3E3" height="29.6406" rx="2.5" ry="2.5" style="stroke:#181818;stroke-width:0.5;" width="97" x="239" y="365.6328"/><text fill="#000000" font-family="sans-serif" font-size="14" lengthAdjust="spacing" textLength="83" x="246" y="385.3066">:Repositories</text><rect fill="#E3E3E3" height="45.2813" rx="2.5" ry="2.5" style="stroke:#181818;stroke-width:0.5;" width="97" x="346" y="41.6406"/><text fill="#000000" font-family="sans-serif" font-size="14" lengthAdjust="spacing" textLength="74" x="357.5" y="61.3145">repositories</text><text fill="#000000" font-family="sans-serif" font-size="14" lengthAdjust="spacing" textLength="83" x="353" y="76.9551">:Repositories</text><rect fill="#E3E3E3" height="45.2813" rx="2.5" ry="2.5" style="stroke:#181818;stroke-width:0.5;" width="97" x="346" y="365.6328"/><text fill="#000000" font-family="sans-serif" font-size="14" lengthAdjust="spacing" textLength="74" x="357.5" y="385.3066">repositories</text><text fill="#000000" font-family="sans-serif" font-size="14" lengthAdjust="spacing" textLength="83" x="353" y="400.9473">:Repositories</text><rect fill="#E3E3E3" height="45.2813" rx="2.5" ry="2.5" style="stroke:#181818;stroke-width:0.5;" width="120" x="453" y="41.6406"/><text fill="#000000" font-family="sans-serif" font-size="14" lengthAdjust="spacing" textLength="100" x="463" y="61.3145">storeRepository</text><text fill="#000000" font-family="sans-serif" font-size="14" lengthAdjust="spacing" textLength="106" x="460" y="76.9551">:StoreRepository</text><rect fill="#E3E3E3" height="45.2813" rx="2.5" ry="2.5" style="stroke:#181818;stroke-width:0.5;" width="120" x="453" y="365.6328"/><text fill="#000000" font-family="sans-serif" font-size="14" lengthAdjust="spacing" textLength="100" x="463" y="385.3066">storeRepository</text><text fill="#000000" font-family="sans-serif" font-size="14" lengthAdjust="spacing" textLength="106" x="460" y="400.9473">:StoreRepository</text><rect fill="#FFFFFF" height="239.1875" style="stroke:#181818;stroke-width:1.0;" width="10" x="144" y="118.4453"/><rect fill="#FFFFFF" height="28.5234" style="stroke:#181818;stroke-width:1.0;" width="10" x="282.5" y="170.4922"/><rect fill="#FFFFFF" height="28.5234" style="stroke:#181818;stroke-width:1.0;" width="10" x="389.5" y="227.5391"/><rect fill="#FFFFFF" height="28.5234" style="stroke:#181818;stroke-width:1.0;" width="10" x="508" y="284.5859"/><polygon fill="#181818" points="132,114.4453,142,118.4453,132,122.4453,136,118.4453" style="stroke:#181818;stroke-width:1.0;"/><line style="stroke:#181818;stroke-width:1.0;" x1="0" x2="138" y1="118.4453" y2="118.4453"/><text fill="#000000" font-family="sans-serif" font-size="13" font-weight="bold" lengthAdjust="spacing" textLength="7" x="7" y="113.6904">3</text><text fill="#000000" font-family="sans-serif" font-size="13" lengthAdjust="spacing" textLength="114" x="18" y="113.6904">getOffersListDeals()</text><path d="M59,133.4453 L226,133.4453 L226,139.9688 L216,149.9688 L59,149.9688 L59,133.4453 " fill="#EEEEEE" style="stroke:#000000;stroke-width:1.5;"/><rect fill="none" height="187.6641" style="stroke:#000000;stroke-width:1.5;" width="524" x="59" y="133.4453"/><text fill="#000000" font-family="sans-serif" font-size="13" font-weight="bold" lengthAdjust="spacing" textLength="122" x="74" y="146.2139">Get Offers List Deal</text><polygon fill="#181818" points="270.5,166.4922,280.5,170.4922,270.5,174.4922,274.5,170.4922" style="stroke:#181818;stroke-width:1.0;"/><line style="stroke:#181818;stroke-width:1.0;" x1="154" x2="276.5" y1="170.4922" y2="170.4922"/><text fill="#000000" font-family="sans-serif" font-size="13" font-weight="bold" lengthAdjust="spacing" textLength="7" x="161" y="165.7373">4</text><text fill="#000000" font-family="sans-serif" font-size="13" lengthAdjust="spacing" textLength="75" x="172" y="165.7373">getInstance()</text><polygon fill="#181818" points="165,195.0156,155,199.0156,165,203.0156,161,199.0156" style="stroke:#181818;stroke-width:1.0;"/><line style="stroke:#181818;stroke-width:1.0;stroke-dasharray:2.0,2.0;" x1="159" x2="286.5" y1="199.0156" y2="199.0156"/><text fill="#000000" font-family="sans-serif" font-size="13" font-weight="bold" lengthAdjust="spacing" textLength="7" x="171" y="194.2607">5</text><text fill="#000000" font-family="sans-serif" font-size="13" lengthAdjust="spacing" textLength="67" x="182" y="194.2607">repositories</text><polygon fill="#181818" points="377.5,223.5391,387.5,227.5391,377.5,231.5391,381.5,227.5391" style="stroke:#181818;stroke-width:1.0;"/><line style="stroke:#181818;stroke-width:1.0;" x1="154" x2="383.5" y1="227.5391" y2="227.5391"/><text fill="#000000" font-family="sans-serif" font-size="13" font-weight="bold" lengthAdjust="spacing" textLength="7" x="161" y="222.7842">6</text><text fill="#000000" font-family="sans-serif" font-size="13" lengthAdjust="spacing" textLength="119" x="172" y="222.7842">getStoreRepository()</text><polygon fill="#181818" points="165,252.0625,155,256.0625,165,260.0625,161,256.0625" style="stroke:#181818;stroke-width:1.0;"/><line style="stroke:#181818;stroke-width:1.0;stroke-dasharray:2.0,2.0;" x1="159" x2="393.5" y1="256.0625" y2="256.0625"/><text fill="#000000" font-family="sans-serif" font-size="13" font-weight="bold" lengthAdjust="spacing" textLength="7" x="171" y="251.3076">7</text><text fill="#000000" font-family="sans-serif" font-size="13" lengthAdjust="spacing" textLength="91" x="182" y="251.3076">storeRepository</text><polygon fill="#181818" points="496,280.5859,506,284.5859,496,288.5859,500,284.5859" style="stroke:#181818;stroke-width:1.0;"/><line style="stroke:#181818;stroke-width:1.0;" x1="154" x2="502" y1="284.5859" y2="284.5859"/><text fill="#000000" font-family="sans-serif" font-size="13" font-weight="bold" lengthAdjust="spacing" textLength="7" x="161" y="279.8311">8</text><text fill="#000000" font-family="sans-serif" font-size="13" lengthAdjust="spacing" textLength="76" x="172" y="279.8311">findPartition()</text><polygon fill="#181818" points="165,309.1094,155,313.1094,165,317.1094,161,313.1094" style="stroke:#181818;stroke-width:1.0;"/><line style="stroke:#181818;stroke-width:1.0;stroke-dasharray:2.0,2.0;" x1="159" x2="512" y1="313.1094" y2="313.1094"/><text fill="#000000" font-family="sans-serif" font-size="13" font-weight="bold" lengthAdjust="spacing" textLength="7" x="171" y="308.3545">9</text><text fill="#000000" font-family="sans-serif" font-size="13" lengthAdjust="spacing" textLength="46" x="182" y="308.3545">partition</text><polygon fill="#181818" points="11,344.6328,1,348.6328,11,352.6328,7,348.6328" style="stroke:#181818;stroke-width:1.0;"/><line style="stroke:#181818;stroke-width:1.0;stroke-dasharray:2.0,2.0;" x1="5" x2="143" y1="348.6328" y2="348.6328"/><text fill="#000000" font-family="sans-serif" font-size="13" font-weight="bold" lengthAdjust="spacing" textLength="14" x="17" y="343.8779">10</text><text fill="#000000" font-family="sans-serif" font-size="13" lengthAdjust="spacing" textLength="46" x="35" y="343.8779">partition</text><!--SRC=[bLDDIyD04BtdLmoUsaD0yMGHGIo8KB0OlNaPaqawDDcDkvDA_xsxgTPyR0BEBRFlpRmtCx5xLZKQhA3IIgSxeoi2CGr5zlnIOxh7WX8vbWI6Ka5Lb5s0tM6clrWLa6DfAOg4nK7Vaikh6uWXeS-6L4gmPYmyVej664jOF9B0SvwJiR1XAx0cB9TH564ZMZNL1ncuTf-rnwTSenAuMAtvm9bJemtP1wt4wB8aSm5e8VmquBzGhIqx39DjMUV4CM7lpFNkKqo7yQx61RQR-zS-mte9VtKTAUbdMjuWvvp2JyHt4rvW1GN9QMP-P7vYTh4y4trWAdn0eQbnTC65qKqDeJtqO6rCA79Q0nCy2NrIrbrBIWE5FPMXyO_GFa9Tuib9hQ2xjb71ZFudODgyt_x9xM2VSwRRamcwRClDsHhSrfopS9TfAmC3pbNEAcj_Ls6jvWoDRZdaRLW_dhlp-hVjdCFPjgGodxYDuwakqEiJVGC0]--></g></svg>