<?xml version="1.0" encoding="UTF-8" standalone="no"?><svg xmlns="http://www.w3.org/2000/svg" xmlns:xlink="http://www.w3.org/1999/xlink" contentStyleType="text/css" height="552px" preserveAspectRatio="none" style="width:795px;height:552px;background:#FFFFFF;" version="1.1" viewBox="0 0 795 552" width="795px" zoomAndPan="magnify"><defs/><g><text fill="#000000" font-family="sans-serif" font-size="14" font-weight="bold" lengthAdjust="spacing" textLength="387" x="205.5" y="29.5332">US019 - Sequence Diagram Partial (Get Offers List Deal)</text><rect fill="#FFFFFF" height="324.25" style="stroke:#181818;stroke-width:1.0;" width="10" x="213" y="150.0781"/><rect fill="#FFFFFF" height="39.1563" style="stroke:#181818;stroke-width:1.0;" width="10" x="396" y="223.3906"/><rect fill="#FFFFFF" height="39.1563" style="stroke:#181818;stroke-width:1.0;" width="10" x="536" y="301.7031"/><rect fill="#FFFFFF" height="39.1563" style="stroke:#181818;stroke-width:1.0;" width="10" x="692.5" y="380.0156"/><rect fill="none" height="262.0938" style="stroke:#000000;stroke-width:1.5;" width="689" x="100" y="165.0781"/><line style="stroke:#181818;stroke-width:0.5;stroke-dasharray:5.0,5.0;" x1="218" x2="218" y1="108.9219" y2="483.3281"/><line style="stroke:#181818;stroke-width:0.5;stroke-dasharray:5.0,5.0;" x1="401" x2="401" y1="108.9219" y2="483.3281"/><line style="stroke:#181818;stroke-width:0.5;stroke-dasharray:5.0,5.0;" x1="541" x2="541" y1="108.9219" y2="483.3281"/><line style="stroke:#181818;stroke-width:0.5;stroke-dasharray:5.0,5.0;" x1="697" x2="697" y1="108.9219" y2="483.3281"/><rect fill="#E3E3E3" height="39.1563" rx="2.5" ry="2.5" style="stroke:#181818;stroke-width:0.5;" width="216" x="110" y="68.7656"/><text fill="#000000" font-family="sans-serif" font-size="20" lengthAdjust="spacing" textLength="202" x="117" y="96.5273">:DivideStoresController</text><rect fill="#E3E3E3" height="39.1563" rx="2.5" ry="2.5" style="stroke:#181818;stroke-width:0.5;" width="216" x="110" y="482.3281"/><text fill="#000000" font-family="sans-serif" font-size="20" lengthAdjust="spacing" textLength="202" x="117" y="510.0898">:DivideStoresController</text><rect fill="#E3E3E3" height="39.1563" rx="2.5" ry="2.5" style="stroke:#181818;stroke-width:0.5;" width="130" x="336" y="68.7656"/><text fill="#000000" font-family="sans-serif" font-size="20" lengthAdjust="spacing" textLength="116" x="343" y="96.5273">:Repositories</text><rect fill="#E3E3E3" height="39.1563" rx="2.5" ry="2.5" style="stroke:#181818;stroke-width:0.5;" width="130" x="336" y="482.3281"/><text fill="#000000" font-family="sans-serif" font-size="20" lengthAdjust="spacing" textLength="116" x="343" y="510.0898">:Repositories</text><rect fill="#E3E3E3" height="64.3125" rx="2.5" ry="2.5" style="stroke:#181818;stroke-width:0.5;" width="130" x="476" y="43.6094"/><text fill="#000000" font-family="sans-serif" font-size="20" lengthAdjust="spacing" textLength="103" x="489.5" y="71.3711">repositories</text><text fill="#000000" font-family="sans-serif" font-size="20" lengthAdjust="spacing" textLength="116" x="483" y="96.5273">:Repositories</text><rect fill="#E3E3E3" height="64.3125" rx="2.5" ry="2.5" style="stroke:#181818;stroke-width:0.5;" width="130" x="476" y="482.3281"/><text fill="#000000" font-family="sans-serif" font-size="20" lengthAdjust="spacing" textLength="103" x="489.5" y="510.0898">repositories</text><text fill="#000000" font-family="sans-serif" font-size="20" lengthAdjust="spacing" textLength="116" x="483" y="535.2461">:Repositories</text><rect fill="#E3E3E3" height="64.3125" rx="2.5" ry="2.5" style="stroke:#181818;stroke-width:0.5;" width="163" x="616" y="43.6094"/><text fill="#000000" font-family="sans-serif" font-size="20" lengthAdjust="spacing" textLength="140" x="627.5" y="71.3711">storeRepository</text><text fill="#000000" font-family="sans-serif" font-size="20" lengthAdjust="spacing" textLength="149" x="623" y="96.5273">:StoreRepository</text><rect fill="#E3E3E3" height="64.3125" rx="2.5" ry="2.5" style="stroke:#181818;stroke-width:0.5;" width="163" x="616" y="482.3281"/><text fill="#000000" font-family="sans-serif" font-size="20" lengthAdjust="spacing" textLength="140" x="627.5" y="510.0898">storeRepository</text><text fill="#000000" font-family="sans-serif" font-size="20" lengthAdjust="spacing" textLength="149" x="623" y="535.2461">:StoreRepository</text><rect fill="#FFFFFF" height="324.25" style="stroke:#181818;stroke-width:1.0;" width="10" x="213" y="150.0781"/><rect fill="#FFFFFF" height="39.1563" style="stroke:#181818;stroke-width:1.0;" width="10" x="396" y="223.3906"/><rect fill="#FFFFFF" height="39.1563" style="stroke:#181818;stroke-width:1.0;" width="10" x="536" y="301.7031"/><rect fill="#FFFFFF" height="39.1563" style="stroke:#181818;stroke-width:1.0;" width="10" x="692.5" y="380.0156"/><polygon fill="#181818" points="201,146.0781,211,150.0781,201,154.0781,205,150.0781" style="stroke:#181818;stroke-width:1.0;"/><line style="stroke:#181818;stroke-width:1.0;" x1="0" x2="207" y1="150.0781" y2="150.0781"/><text fill="#000000" font-family="sans-serif" font-size="20" font-weight="bold" lengthAdjust="spacing" textLength="11" x="7" y="143.6836">3</text><text fill="#000000" font-family="sans-serif" font-size="20" lengthAdjust="spacing" textLength="179" x="22" y="143.6836">getOffersListDeals()</text><path d="M100,165.0781 L333,165.0781 L333,182.2344 L323,192.2344 L100,192.2344 L100,165.0781 " fill="#EEEEEE" style="stroke:#000000;stroke-width:1.5;"/><rect fill="none" height="262.0938" style="stroke:#000000;stroke-width:1.5;" width="689" x="100" y="165.0781"/><text fill="#000000" font-family="sans-serif" font-size="20" font-weight="bold" lengthAdjust="spacing" textLength="188" x="115" y="186.8398">Get Offers List Deal</text><polygon fill="#181818" points="384,219.3906,394,223.3906,384,227.3906,388,223.3906" style="stroke:#181818;stroke-width:1.0;"/><line style="stroke:#181818;stroke-width:1.0;" x1="223" x2="390" y1="223.3906" y2="223.3906"/><text fill="#000000" font-family="sans-serif" font-size="20" font-weight="bold" lengthAdjust="spacing" textLength="11" x="230" y="216.9961">4</text><text fill="#000000" font-family="sans-serif" font-size="20" lengthAdjust="spacing" textLength="116" x="245" y="216.9961">getInstance()</text><polygon fill="#181818" points="234,258.5469,224,262.5469,234,266.5469,230,262.5469" style="stroke:#181818;stroke-width:1.0;"/><line style="stroke:#181818;stroke-width:1.0;stroke-dasharray:2.0,2.0;" x1="228" x2="400" y1="262.5469" y2="262.5469"/><text fill="#000000" font-family="sans-serif" font-size="20" font-weight="bold" lengthAdjust="spacing" textLength="11" x="240" y="256.1523">5</text><text fill="#000000" font-family="sans-serif" font-size="20" lengthAdjust="spacing" textLength="103" x="255" y="256.1523">repositories</text><polygon fill="#181818" points="524,297.7031,534,301.7031,524,305.7031,528,301.7031" style="stroke:#181818;stroke-width:1.0;"/><line style="stroke:#181818;stroke-width:1.0;" x1="223" x2="530" y1="301.7031" y2="301.7031"/><text fill="#000000" font-family="sans-serif" font-size="20" font-weight="bold" lengthAdjust="spacing" textLength="11" x="230" y="295.3086">6</text><text fill="#000000" font-family="sans-serif" font-size="20" lengthAdjust="spacing" textLength="185" x="245" y="295.3086">getStoreRepository()</text><polygon fill="#181818" points="234,336.8594,224,340.8594,234,344.8594,230,340.8594" style="stroke:#181818;stroke-width:1.0;"/><line style="stroke:#181818;stroke-width:1.0;stroke-dasharray:2.0,2.0;" x1="228" x2="540" y1="340.8594" y2="340.8594"/><text fill="#000000" font-family="sans-serif" font-size="20" font-weight="bold" lengthAdjust="spacing" textLength="11" x="240" y="334.4648">7</text><text fill="#000000" font-family="sans-serif" font-size="20" lengthAdjust="spacing" textLength="140" x="255" y="334.4648">storeRepository</text><polygon fill="#181818" points="680.5,376.0156,690.5,380.0156,680.5,384.0156,684.5,380.0156" style="stroke:#181818;stroke-width:1.0;"/><line style="stroke:#181818;stroke-width:1.0;" x1="223" x2="686.5" y1="380.0156" y2="380.0156"/><text fill="#000000" font-family="sans-serif" font-size="20" font-weight="bold" lengthAdjust="spacing" textLength="11" x="230" y="373.6211">8</text><text fill="#000000" font-family="sans-serif" font-size="20" lengthAdjust="spacing" textLength="117" x="245" y="373.6211">findPartition()</text><polygon fill="#181818" points="234,415.1719,224,419.1719,234,423.1719,230,419.1719" style="stroke:#181818;stroke-width:1.0;"/><line style="stroke:#181818;stroke-width:1.0;stroke-dasharray:2.0,2.0;" x1="228" x2="696.5" y1="419.1719" y2="419.1719"/><text fill="#000000" font-family="sans-serif" font-size="20" font-weight="bold" lengthAdjust="spacing" textLength="11" x="240" y="412.7773">9</text><text fill="#000000" font-family="sans-serif" font-size="20" lengthAdjust="spacing" textLength="70" x="255" y="412.7773">partition</text><polygon fill="#181818" points="11,461.3281,1,465.3281,11,469.3281,7,465.3281" style="stroke:#181818;stroke-width:1.0;"/><line style="stroke:#181818;stroke-width:1.0;stroke-dasharray:2.0,2.0;" x1="5" x2="212" y1="465.3281" y2="465.3281"/><text fill="#000000" font-family="sans-serif" font-size="20" font-weight="bold" lengthAdjust="spacing" textLength="22" x="17" y="458.9336">10</text><text fill="#000000" font-family="sans-serif" font-size="20" lengthAdjust="spacing" textLength="70" x="43" y="458.9336">partition</text><!--SRC=[bLDDJyCm3BttLrWxROTA0qvC20anWP0cCL6uSJ6fsrdBafAaG-FNatHiz5l2jphlsU_PhjsoAj3WJcgnfHHIoh2Kxa4hb_0tmUKyiYS8xBJIOcFqZi2Pacel1OejvfIuWoGm91ogNDO1TeEf_cALGuRIKXGvTXxwbimlhY66X3vBKe9WoPW7_1gDOvGmVIG7prb6niAAhOCbePn5KOIbqwhSVP21A_zP1BpW0fM3oMB9Uqwz6ct8tdihHaj9PW9eeV-fnN-XGbls62PRiSw9GyB1cU_Tf9WQurrr2wnNTwzDXWqI_kfwKjBCLBnMpZk5tuXl1xp00d9onvc5aOM9sUdiJ0o1ml4U7GsDemxEZIuBwDj30rR5W2AljMU2Hw5Folfh4THIs53PD_uEEaHVbtXmKWkehwrJCAN_2HWs7xP_TDlQvvZfwcHwNLRbncorRclCMN-NOIij0zvLnYgjVbV7MeqPwjnodxTs_NZipejJsp67esr9fI5n4yT3NQ3H9_e1]--></g></svg>