<?xml version="1.0" encoding="us-ascii" standalone="no"?><svg xmlns="http://www.w3.org/2000/svg" xmlns:xlink="http://www.w3.org/1999/xlink" contentStyleType="text/css" height="935.4px" preserveAspectRatio="none" style="width:973px;height:935px;background:#FFFFFF;" version="1.1" viewBox="0 0 973 935" width="973.8px" zoomAndPan="magnify"><defs/><g><!--class DivideStoreUI--><g id="elem_DivideStoreUI"><rect codeLine="2" fill="#F1F1F1" height="28.8" id="DivideStoreUI" rx="1.5" ry="1.5" style="stroke:#181818;stroke-width:0.3;" width="70.2" x="4.2" y="84"/><ellipse cx="13.2" cy="93.6" fill="#ADD1B2" rx="6.6" ry="6.6" style="stroke:#181818;stroke-width:0.6;"/><path d="M14.4,91.5 Q14.5219,91.2 14.6625,91.05 Q14.8031,90.9 14.9625,90.9 Q15.2437,90.9 15.4219,91.0688 Q15.6,91.2375 15.6,91.6313 L15.6,92.5688 Q15.6,92.9625 15.4312,93.1313 Q15.2625,93.3 15,93.3 Q14.7656,93.3 14.6156,93.1969 Q14.4656,93.0938 14.4,92.8219 Q14.3719,92.6344 14.2687,92.5313 Q14.0812,92.3344 13.7438,92.2219 Q13.4063,92.1 13.0688,92.1 Q12.6469,92.1 12.2906,92.2688 Q11.9438,92.4375 11.6719,92.8125 Q11.4,93.1875 11.4,93.7031 L11.4,94.2563 Q11.4,94.875 11.9063,95.2875 Q12.4125,95.7 13.3125,95.7 Q13.8469,95.7 14.2219,95.5781 Q14.4375,95.5125 14.6812,95.2969 Q14.8406,95.175 14.925,95.1375 Q15.0094,95.1 15.1125,95.1 Q15.3094,95.1 15.45,95.2594 Q15.6,95.4094 15.6,95.625 Q15.6,95.8313 15.3937,96.075 Q15.0938,96.4312 14.6156,96.6281 Q13.9875,96.9 13.2188,96.9 Q12.3188,96.9 11.5969,96.5438 Q11.0156,96.2625 10.6031,95.6531 Q10.2,95.0438 10.2,94.3219 L10.2,93.6656 Q10.2,92.9156 10.5563,92.2594 Q10.9219,91.6031 11.55,91.2563 Q12.1875,90.9 12.9,90.9 Q13.3312,90.9 13.7062,91.05 Q14.0812,91.2 14.4,91.5 Z " fill="#000000"/><text fill="#000000" font-family="sans-serif" font-size="8.4" lengthAdjust="spacing" textLength="51" x="21.6" y="96.5121">DivideStoreUI</text><line style="stroke:#181818;stroke-width:0.3;" x1="4.8" x2="73.8" y1="103.2" y2="103.2"/><line style="stroke:#181818;stroke-width:0.3;" x1="4.8" x2="73.8" y1="108" y2="108"/></g><!--class Repositories--><g id="elem_Repositories"><rect codeLine="6" fill="#F1F1F1" height="188.3344" id="Repositories" rx="1.5" ry="1.5" style="stroke:#181818;stroke-width:0.3;" width="168.6" x="320.4" y="4.2"/><ellipse cx="378.45" cy="13.8" fill="#ADD1B2" rx="6.6" ry="6.6" style="stroke:#181818;stroke-width:0.6;"/><path d="M379.65,11.7 Q379.7719,11.4 379.9125,11.25 Q380.0531,11.1 380.2125,11.1 Q380.4938,11.1 380.6719,11.2687 Q380.85,11.4375 380.85,11.8312 L380.85,12.7687 Q380.85,13.1625 380.6813,13.3312 Q380.5125,13.5 380.25,13.5 Q380.0156,13.5 379.8656,13.3969 Q379.7156,13.2938 379.65,13.0219 Q379.6219,12.8344 379.5188,12.7313 Q379.3313,12.5344 378.9938,12.4219 Q378.6563,12.3 378.3187,12.3 Q377.8969,12.3 377.5406,12.4688 Q377.1937,12.6375 376.9219,13.0125 Q376.65,13.3875 376.65,13.9031 L376.65,14.4562 Q376.65,15.075 377.1563,15.4875 Q377.6625,15.9 378.5625,15.9 Q379.0969,15.9 379.4719,15.7781 Q379.6875,15.7125 379.9313,15.4969 Q380.0906,15.375 380.175,15.3375 Q380.2594,15.3 380.3625,15.3 Q380.5594,15.3 380.7,15.4594 Q380.85,15.6094 380.85,15.825 Q380.85,16.0313 380.6438,16.275 Q380.3438,16.6312 379.8656,16.8281 Q379.2375,17.1 378.4688,17.1 Q377.5687,17.1 376.8469,16.7438 Q376.2656,16.4625 375.8531,15.8531 Q375.45,15.2437 375.45,14.5219 L375.45,13.8656 Q375.45,13.1156 375.8063,12.4594 Q376.1719,11.8031 376.8,11.4562 Q377.4375,11.1 378.15,11.1 Q378.5813,11.1 378.9563,11.25 Q379.3313,11.4 379.65,11.7 Z " fill="#000000"/><text fill="#000000" font-family="sans-serif" font-size="8.4" lengthAdjust="spacing" textLength="47.4" x="390.75" y="16.7121">Repositories</text><line style="stroke:#181818;stroke-width:0.3;" x1="321" x2="488.4" y1="23.4" y2="23.4"/><line style="stroke:#181818;stroke-width:0.3;" x1="321" x2="488.4" y1="28.2" y2="28.2"/><rect fill="#F24D5C" height="3.6" style="stroke:#C82930;stroke-width:0.6;" width="3.6" x="325.2" y="34.3922"/><text fill="#000000" font-family="sans-serif" font-size="8.4" lengthAdjust="spacing" textLength="53.4" x="332.4" y="38.2043">Repositories()</text><ellipse cx="327" cy="45.5766" fill="#84BE84" rx="1.8" ry="1.8" style="stroke:#038048;stroke-width:0.6;"/><text fill="#000000" font-family="sans-serif" font-size="8.4" lengthAdjust="spacing" textLength="99.6" x="332.4" y="47.5887">getInstance():Repositories</text><ellipse cx="327" cy="54.9609" fill="#84BE84" rx="1.8" ry="1.8" style="stroke:#038048;stroke-width:0.6;"/><text fill="#000000" font-family="sans-serif" font-size="8.4" lengthAdjust="spacing" textLength="96" x="332.4" y="56.973">getEmployeeRepository()</text><ellipse cx="327" cy="64.3453" fill="#84BE84" rx="1.8" ry="1.8" style="stroke:#038048;stroke-width:0.6;"/><text fill="#000000" font-family="sans-serif" font-size="8.4" lengthAdjust="spacing" textLength="97.8" x="332.4" y="66.3574">getComissionRepository()</text><ellipse cx="327" cy="73.7297" fill="#84BE84" rx="1.8" ry="1.8" style="stroke:#038048;stroke-width:0.6;"/><text fill="#000000" font-family="sans-serif" font-size="8.4" lengthAdjust="spacing" textLength="153" x="332.4" y="75.7418">getPublishedAnnouncementRepository()</text><ellipse cx="327" cy="83.1141" fill="#84BE84" rx="1.8" ry="1.8" style="stroke:#038048;stroke-width:0.6;"/><text fill="#000000" font-family="sans-serif" font-size="8.4" lengthAdjust="spacing" textLength="112.8" x="332.4" y="85.1262">getAuthenticationRepository()</text><ellipse cx="327" cy="92.4984" fill="#84BE84" rx="1.8" ry="1.8" style="stroke:#038048;stroke-width:0.6;"/><text fill="#000000" font-family="sans-serif" font-size="8.4" lengthAdjust="spacing" textLength="147.6" x="332.4" y="94.5105">getAnnouncementRequestRepository()</text><ellipse cx="327" cy="101.8828" fill="#84BE84" rx="1.8" ry="1.8" style="stroke:#038048;stroke-width:0.6;"/><text fill="#000000" font-family="sans-serif" font-size="8.4" lengthAdjust="spacing" textLength="79.2" x="332.4" y="103.8949">getStoreRepository()</text><ellipse cx="327" cy="111.2672" fill="#84BE84" rx="1.8" ry="1.8" style="stroke:#038048;stroke-width:0.6;"/><text fill="#000000" font-family="sans-serif" font-size="8.4" lengthAdjust="spacing" textLength="76.2" x="332.4" y="113.2793">getRoleRepository()</text><ellipse cx="327" cy="120.6516" fill="#84BE84" rx="1.8" ry="1.8" style="stroke:#038048;stroke-width:0.6;"/><text fill="#000000" font-family="sans-serif" font-size="8.4" lengthAdjust="spacing" textLength="78.6" x="332.4" y="122.6637">getStateRepository()</text><ellipse cx="327" cy="130.0359" fill="#84BE84" rx="1.8" ry="1.8" style="stroke:#038048;stroke-width:0.6;"/><text fill="#000000" font-family="sans-serif" font-size="8.4" lengthAdjust="spacing" textLength="80.4" x="332.4" y="132.048">getClientRepository()</text><ellipse cx="327" cy="139.4203" fill="#84BE84" rx="1.8" ry="1.8" style="stroke:#038048;stroke-width:0.6;"/><text fill="#000000" font-family="sans-serif" font-size="8.4" lengthAdjust="spacing" textLength="110.4" x="332.4" y="141.4324">getPropertyTypeRepository()</text><ellipse cx="327" cy="148.8047" fill="#84BE84" rx="1.8" ry="1.8" style="stroke:#038048;stroke-width:0.6;"/><text fill="#000000" font-family="sans-serif" font-size="8.4" lengthAdjust="spacing" textLength="121.2" x="332.4" y="150.8168">getTypeOfBusinessRepository()</text><ellipse cx="327" cy="158.1891" fill="#84BE84" rx="1.8" ry="1.8" style="stroke:#038048;stroke-width:0.6;"/><text fill="#000000" font-family="sans-serif" font-size="8.4" lengthAdjust="spacing" textLength="93" x="332.4" y="160.2012">getMessageRepository()</text><ellipse cx="327" cy="167.5734" fill="#84BE84" rx="1.8" ry="1.8" style="stroke:#038048;stroke-width:0.6;"/><text fill="#000000" font-family="sans-serif" font-size="8.4" lengthAdjust="spacing" textLength="78" x="332.4" y="169.5855">getOfferRepository()</text><ellipse cx="327" cy="176.9578" fill="#84BE84" rx="1.8" ry="1.8" style="stroke:#038048;stroke-width:0.6;"/><text fill="#000000" font-family="sans-serif" font-size="8.4" lengthAdjust="spacing" textLength="36.6" x="332.4" y="178.9699">serialize()</text><ellipse cx="327" cy="186.3422" fill="#84BE84" rx="1.8" ry="1.8" style="stroke:#038048;stroke-width:0.6;"/><text fill="#000000" font-family="sans-serif" font-size="8.4" lengthAdjust="spacing" textLength="46.2" x="332.4" y="188.3543">deserialize()</text></g><!--class DivideStoreController--><g id="elem_DivideStoreController"><rect codeLine="27" fill="#F1F1F1" height="56.9531" id="DivideStoreController" rx="1.5" ry="1.5" style="stroke:#181818;stroke-width:0.3;" width="162.6" x="95.4" y="69.9"/><ellipse cx="133.65" cy="79.5" fill="#ADD1B2" rx="6.6" ry="6.6" style="stroke:#181818;stroke-width:0.6;"/><path d="M134.85,77.4 Q134.9719,77.1 135.1125,76.95 Q135.2531,76.8 135.4125,76.8 Q135.6938,76.8 135.8719,76.9688 Q136.05,77.1375 136.05,77.5313 L136.05,78.4688 Q136.05,78.8625 135.8813,79.0313 Q135.7125,79.2 135.45,79.2 Q135.2156,79.2 135.0656,79.0969 Q134.9156,78.9937 134.85,78.7219 Q134.8219,78.5344 134.7188,78.4312 Q134.5313,78.2344 134.1938,78.1219 Q133.8563,78 133.5187,78 Q133.0969,78 132.7406,78.1688 Q132.3937,78.3375 132.1219,78.7125 Q131.85,79.0875 131.85,79.6031 L131.85,80.1563 Q131.85,80.775 132.3563,81.1875 Q132.8625,81.6 133.7625,81.6 Q134.2969,81.6 134.6719,81.4781 Q134.8875,81.4125 135.1313,81.1969 Q135.2906,81.075 135.375,81.0375 Q135.4594,81 135.5625,81 Q135.7594,81 135.9,81.1594 Q136.05,81.3094 136.05,81.525 Q136.05,81.7313 135.8438,81.975 Q135.5438,82.3313 135.0656,82.5281 Q134.4375,82.8 133.6688,82.8 Q132.7687,82.8 132.0469,82.4438 Q131.4656,82.1625 131.0531,81.5531 Q130.65,80.9438 130.65,80.2219 L130.65,79.5656 Q130.65,78.8156 131.0063,78.1594 Q131.3719,77.5031 132,77.1563 Q132.6375,76.8 133.35,76.8 Q133.7813,76.8 134.1563,76.95 Q134.5313,77.1 134.85,77.4 Z " fill="#000000"/><text fill="#000000" font-family="sans-serif" font-size="8.4" lengthAdjust="spacing" textLength="81" x="145.95" y="82.4121">DivideStoreController</text><line style="stroke:#181818;stroke-width:0.3;" x1="96" x2="257.4" y1="89.1" y2="89.1"/><line style="stroke:#181818;stroke-width:0.3;" x1="96" x2="257.4" y1="93.9" y2="93.9"/><ellipse cx="102" cy="101.8922" fill="#84BE84" rx="1.8" ry="1.8" style="stroke:#038048;stroke-width:0.6;"/><text fill="#000000" font-family="sans-serif" font-size="8.4" lengthAdjust="spacing" textLength="147" x="107.4" y="103.9043">DivideStoreController(storeRepository)</text><ellipse cx="102" cy="111.2766" fill="#84BE84" rx="1.8" ry="1.8" style="stroke:#038048;stroke-width:0.6;"/><text fill="#000000" font-family="sans-serif" font-size="8.4" lengthAdjust="spacing" textLength="51" x="107.4" y="113.2887">findPartition()</text><rect fill="#F24D5C" height="3.6" style="stroke:#C82930;stroke-width:0.6;" width="3.6" x="100.2" y="118.8609"/><text fill="#000000" font-family="sans-serif" font-size="8.4" lengthAdjust="spacing" textLength="79.2" x="107.4" y="122.673">getStoreRepository()</text></g><!--class Person--><g id="elem_Person"><rect codeLine="35" fill="#F1F1F1" height="150.7969" id="Person" rx="1.5" ry="1.5" style="stroke:#181818;stroke-width:0.3;" width="245.4" x="492" y="229.2"/><ellipse cx="598.65" cy="238.8" fill="#ADD1B2" rx="6.6" ry="6.6" style="stroke:#181818;stroke-width:0.6;"/><path d="M599.85,236.7 Q599.9719,236.4 600.1125,236.25 Q600.2531,236.1 600.4125,236.1 Q600.6938,236.1 600.8719,236.2687 Q601.05,236.4375 601.05,236.8312 L601.05,237.7687 Q601.05,238.1625 600.8813,238.3312 Q600.7125,238.5 600.45,238.5 Q600.2156,238.5 600.0656,238.3969 Q599.9156,238.2938 599.85,238.0219 Q599.8219,237.8344 599.7188,237.7313 Q599.5313,237.5344 599.1938,237.4219 Q598.8562,237.3 598.5188,237.3 Q598.0969,237.3 597.7406,237.4688 Q597.3938,237.6375 597.1219,238.0125 Q596.85,238.3875 596.85,238.9031 L596.85,239.4562 Q596.85,240.075 597.3562,240.4875 Q597.8625,240.9 598.7625,240.9 Q599.2969,240.9 599.6719,240.7781 Q599.8875,240.7125 600.1313,240.4969 Q600.2906,240.375 600.375,240.3375 Q600.4594,240.3 600.5625,240.3 Q600.7594,240.3 600.9,240.4594 Q601.05,240.6094 601.05,240.825 Q601.05,241.0313 600.8438,241.275 Q600.5437,241.6313 600.0656,241.8281 Q599.4375,242.1 598.6687,242.1 Q597.7688,242.1 597.0469,241.7437 Q596.4656,241.4625 596.0531,240.8531 Q595.65,240.2437 595.65,239.5219 L595.65,238.8656 Q595.65,238.1156 596.0063,237.4594 Q596.3719,236.8031 597,236.4562 Q597.6375,236.1 598.35,236.1 Q598.7813,236.1 599.1563,236.25 Q599.5313,236.4 599.85,236.7 Z " fill="#000000"/><text fill="#000000" font-family="sans-serif" font-size="8.4" lengthAdjust="spacing" textLength="27" x="610.95" y="241.7121">Person</text><line style="stroke:#181818;stroke-width:0.3;" x1="492.6" x2="736.8" y1="248.4" y2="248.4"/><rect fill="none" height="3.6" style="stroke:#C82930;stroke-width:0.6;" width="3.6" x="496.8" y="254.5922"/><text fill="#000000" font-family="sans-serif" font-size="8.4" lengthAdjust="spacing" textLength="44.4" x="504" y="258.4043">String email</text><rect fill="none" height="3.6" style="stroke:#C82930;stroke-width:0.6;" width="3.6" x="496.8" y="263.9766"/><text fill="#000000" font-family="sans-serif" font-size="8.4" lengthAdjust="spacing" textLength="73.8" x="504" y="267.7887">int passportNumber</text><rect fill="none" height="3.6" style="stroke:#C82930;stroke-width:0.6;" width="3.6" x="496.8" y="273.3609"/><text fill="#000000" font-family="sans-serif" font-size="8.4" lengthAdjust="spacing" textLength="51.6" x="504" y="277.173">int taxNumber</text><rect fill="none" height="3.6" style="stroke:#C82930;stroke-width:0.6;" width="3.6" x="496.8" y="282.7453"/><text fill="#000000" font-family="sans-serif" font-size="8.4" lengthAdjust="spacing" textLength="45.6" x="504" y="286.5574">String name</text><rect fill="none" height="3.6" style="stroke:#C82930;stroke-width:0.6;" width="3.6" x="496.8" y="292.1297"/><text fill="#000000" font-family="sans-serif" font-size="8.4" lengthAdjust="spacing" textLength="54.6" x="504" y="295.9418">Adress adress</text><rect fill="none" height="3.6" style="stroke:#C82930;stroke-width:0.6;" width="3.6" x="496.8" y="301.5141"/><text fill="#000000" font-family="sans-serif" font-size="8.4" lengthAdjust="spacing" textLength="64.8" x="504" y="305.3262">int phoneNumber</text><line style="stroke:#181818;stroke-width:0.3;" x1="492.6" x2="736.8" y1="309.5062" y2="309.5062"/><ellipse cx="498.6" cy="317.4984" fill="#84BE84" rx="1.8" ry="1.8" style="stroke:#038048;stroke-width:0.6;"/><text fill="#000000" font-family="sans-serif" font-size="8.4" lengthAdjust="spacing" textLength="229.8" x="504" y="319.5105">User(email,passportNumber,taxNumber,name,phoneNumber)</text><ellipse cx="498.6" cy="326.8828" fill="#84BE84" rx="1.8" ry="1.8" style="stroke:#038048;stroke-width:0.6;"/><text fill="#000000" font-family="sans-serif" font-size="8.4" lengthAdjust="spacing" textLength="81" x="504" y="328.8949">getPassportNumber()</text><ellipse cx="498.6" cy="336.2672" fill="#84BE84" rx="1.8" ry="1.8" style="stroke:#038048;stroke-width:0.6;"/><text fill="#000000" font-family="sans-serif" font-size="8.4" lengthAdjust="spacing" textLength="61.2" x="504" y="338.2793">getTaxNumber()</text><ellipse cx="498.6" cy="345.6516" fill="#84BE84" rx="1.8" ry="1.8" style="stroke:#038048;stroke-width:0.6;"/><text fill="#000000" font-family="sans-serif" font-size="8.4" lengthAdjust="spacing" textLength="38.4" x="504" y="347.6637">getEmail()</text><ellipse cx="498.6" cy="355.0359" fill="#84BE84" rx="1.8" ry="1.8" style="stroke:#038048;stroke-width:0.6;"/><text fill="#000000" font-family="sans-serif" font-size="8.4" lengthAdjust="spacing" textLength="44.4" x="504" y="357.048">getAdress()</text><ellipse cx="498.6" cy="364.4203" fill="#84BE84" rx="1.8" ry="1.8" style="stroke:#038048;stroke-width:0.6;"/><text fill="#000000" font-family="sans-serif" font-size="8.4" lengthAdjust="spacing" textLength="39.6" x="504" y="366.4324">getName()</text><ellipse cx="498.6" cy="373.8047" fill="#84BE84" rx="1.8" ry="1.8" style="stroke:#038048;stroke-width:0.6;"/><text fill="#000000" font-family="sans-serif" font-size="8.4" lengthAdjust="spacing" textLength="72" x="504" y="375.8168">getPhoneNumber()</text></g><!--class Adress--><g id="elem_Adress"><rect codeLine="53" fill="#F1F1F1" height="85.1063" id="Adress" rx="1.5" ry="1.5" style="stroke:#181818;stroke-width:0.3;" width="175.2" x="392.7" y="481.8"/><ellipse cx="464.55" cy="491.4" fill="#ADD1B2" rx="6.6" ry="6.6" style="stroke:#181818;stroke-width:0.6;"/><path d="M465.75,489.3 Q465.8719,489 466.0125,488.85 Q466.1531,488.7 466.3125,488.7 Q466.5938,488.7 466.7719,488.8688 Q466.95,489.0375 466.95,489.4313 L466.95,490.3688 Q466.95,490.7625 466.7813,490.9313 Q466.6125,491.1 466.35,491.1 Q466.1156,491.1 465.9656,490.9969 Q465.8156,490.8937 465.75,490.6219 Q465.7219,490.4344 465.6188,490.3312 Q465.4313,490.1344 465.0938,490.0219 Q464.7562,489.9 464.4188,489.9 Q463.9969,489.9 463.6406,490.0687 Q463.2938,490.2375 463.0219,490.6125 Q462.75,490.9875 462.75,491.5031 L462.75,492.0563 Q462.75,492.675 463.2562,493.0875 Q463.7625,493.5 464.6625,493.5 Q465.1969,493.5 465.5719,493.3781 Q465.7875,493.3125 466.0313,493.0969 Q466.1906,492.975 466.275,492.9375 Q466.3594,492.9 466.4625,492.9 Q466.6594,492.9 466.8,493.0594 Q466.95,493.2094 466.95,493.425 Q466.95,493.6312 466.7438,493.875 Q466.4437,494.2313 465.9656,494.4281 Q465.3375,494.7 464.5687,494.7 Q463.6688,494.7 462.9469,494.3438 Q462.3656,494.0625 461.9531,493.4531 Q461.55,492.8438 461.55,492.1219 L461.55,491.4656 Q461.55,490.7156 461.9063,490.0594 Q462.2719,489.4031 462.9,489.0563 Q463.5375,488.7 464.25,488.7 Q464.6813,488.7 465.0563,488.85 Q465.4313,489 465.75,489.3 Z " fill="#000000"/><text fill="#000000" font-family="sans-serif" font-size="8.4" lengthAdjust="spacing" textLength="26.4" x="476.85" y="494.3121">Adress</text><line style="stroke:#181818;stroke-width:0.3;" x1="393.3" x2="567.3" y1="501" y2="501"/><rect fill="none" height="3.6" style="stroke:#C82930;stroke-width:0.6;" width="3.6" x="397.5" y="507.1922"/><text fill="#000000" font-family="sans-serif" font-size="8.4" lengthAdjust="spacing" textLength="67.8" x="404.7" y="511.0043">String streetName</text><rect fill="none" height="3.6" style="stroke:#C82930;stroke-width:0.6;" width="3.6" x="397.5" y="516.5766"/><text fill="#000000" font-family="sans-serif" font-size="8.4" lengthAdjust="spacing" textLength="42" x="404.7" y="520.3887">int zipCode</text><line style="stroke:#181818;stroke-width:0.3;" x1="393.3" x2="567.3" y1="524.5688" y2="524.5688"/><ellipse cx="399.3" cy="532.5609" fill="#84BE84" rx="1.8" ry="1.8" style="stroke:#038048;stroke-width:0.6;"/><text fill="#000000" font-family="sans-serif" font-size="8.4" lengthAdjust="spacing" textLength="32.4" x="404.7" y="534.573">getCity()</text><ellipse cx="399.3" cy="541.9453" fill="#84BE84" rx="1.8" ry="1.8" style="stroke:#038048;stroke-width:0.6;"/><text fill="#000000" font-family="sans-serif" font-size="8.4" lengthAdjust="spacing" textLength="43.8" x="404.7" y="543.9574">getDistrict()</text><ellipse cx="399.3" cy="551.3297" fill="#84BE84" rx="1.8" ry="1.8" style="stroke:#038048;stroke-width:0.6;"/><text fill="#000000" font-family="sans-serif" font-size="8.4" lengthAdjust="spacing" textLength="37.8" x="404.7" y="553.3418">getState()</text><ellipse cx="399.3" cy="560.7141" fill="#84BE84" rx="1.8" ry="1.8" style="stroke:#038048;stroke-width:0.6;"/><text fill="#000000" font-family="sans-serif" font-size="8.4" lengthAdjust="spacing" textLength="159.6" x="404.7" y="562.7262">Adress(state, district, city, street, zipCode)</text></g><!--class State--><g id="elem_State"><rect codeLine="62" fill="#F1F1F1" height="66.3375" id="State" rx="1.5" ry="1.5" style="stroke:#181818;stroke-width:0.3;" width="80.4" x="612.3" y="491.1"/><ellipse cx="640.05" cy="500.7" fill="#ADD1B2" rx="6.6" ry="6.6" style="stroke:#181818;stroke-width:0.6;"/><path d="M641.25,498.6 Q641.3719,498.3 641.5125,498.15 Q641.6531,498 641.8125,498 Q642.0938,498 642.2719,498.1688 Q642.45,498.3375 642.45,498.7313 L642.45,499.6688 Q642.45,500.0625 642.2813,500.2313 Q642.1125,500.4 641.85,500.4 Q641.6156,500.4 641.4656,500.2969 Q641.3156,500.1937 641.25,499.9219 Q641.2219,499.7344 641.1188,499.6312 Q640.9313,499.4344 640.5938,499.3219 Q640.2563,499.2 639.9187,499.2 Q639.4969,499.2 639.1406,499.3688 Q638.7937,499.5375 638.5219,499.9125 Q638.25,500.2875 638.25,500.8031 L638.25,501.3563 Q638.25,501.975 638.7563,502.3875 Q639.2625,502.8 640.1625,502.8 Q640.6969,502.8 641.0719,502.6781 Q641.2875,502.6125 641.5313,502.3969 Q641.6906,502.275 641.775,502.2375 Q641.8594,502.2 641.9625,502.2 Q642.1594,502.2 642.3,502.3594 Q642.45,502.5094 642.45,502.725 Q642.45,502.9313 642.2438,503.175 Q641.9438,503.5313 641.4656,503.7281 Q640.8375,504 640.0688,504 Q639.1687,504 638.4469,503.6437 Q637.8656,503.3625 637.4531,502.7531 Q637.05,502.1437 637.05,501.4219 L637.05,500.7656 Q637.05,500.0156 637.4063,499.3594 Q637.7719,498.7031 638.4,498.3563 Q639.0375,498 639.75,498 Q640.1813,498 640.5563,498.15 Q640.9313,498.3 641.25,498.6 Z " fill="#000000"/><text fill="#000000" font-family="sans-serif" font-size="8.4" lengthAdjust="spacing" textLength="19.8" x="652.35" y="503.6121">State</text><line style="stroke:#181818;stroke-width:0.3;" x1="612.9" x2="692.1" y1="510.3" y2="510.3"/><rect fill="none" height="3.6" style="stroke:#C82930;stroke-width:0.6;" width="3.6" x="617.1" y="516.4922"/><text fill="#000000" font-family="sans-serif" font-size="8.4" lengthAdjust="spacing" textLength="64.8" x="624.3" y="520.3043">String stateName</text><line style="stroke:#181818;stroke-width:0.3;" x1="612.9" x2="692.1" y1="524.4844" y2="524.4844"/><ellipse cx="618.9" cy="532.4766" fill="#84BE84" rx="1.8" ry="1.8" style="stroke:#038048;stroke-width:0.6;"/><text fill="#000000" font-family="sans-serif" font-size="8.4" lengthAdjust="spacing" textLength="37.8" x="624.3" y="534.4887">getState()</text><ellipse cx="618.9" cy="541.8609" fill="#84BE84" rx="1.8" ry="1.8" style="stroke:#038048;stroke-width:0.6;"/><text fill="#000000" font-family="sans-serif" font-size="8.4" lengthAdjust="spacing" textLength="48" x="624.3" y="543.873">getDistricts()</text><ellipse cx="618.9" cy="551.2453" fill="#84BE84" rx="1.8" ry="1.8" style="stroke:#038048;stroke-width:0.6;"/><text fill="#000000" font-family="sans-serif" font-size="8.4" lengthAdjust="spacing" textLength="35.4" x="624.3" y="553.2574">toString()</text></g><!--class District--><g id="elem_District"><rect codeLine="71" fill="#F1F1F1" height="66.3375" id="District" rx="1.5" ry="1.5" style="stroke:#181818;stroke-width:0.3;" width="86.4" x="737.1" y="491.1"/><ellipse cx="764.85" cy="500.7" fill="#ADD1B2" rx="6.6" ry="6.6" style="stroke:#181818;stroke-width:0.6;"/><path d="M766.05,498.6 Q766.1719,498.3 766.3125,498.15 Q766.4531,498 766.6125,498 Q766.8938,498 767.0719,498.1688 Q767.25,498.3375 767.25,498.7313 L767.25,499.6688 Q767.25,500.0625 767.0813,500.2313 Q766.9125,500.4 766.65,500.4 Q766.4156,500.4 766.2656,500.2969 Q766.1156,500.1937 766.05,499.9219 Q766.0219,499.7344 765.9187,499.6312 Q765.7312,499.4344 765.3938,499.3219 Q765.0563,499.2 764.7188,499.2 Q764.2969,499.2 763.9406,499.3688 Q763.5938,499.5375 763.3219,499.9125 Q763.05,500.2875 763.05,500.8031 L763.05,501.3563 Q763.05,501.975 763.5563,502.3875 Q764.0625,502.8 764.9625,502.8 Q765.4969,502.8 765.8719,502.6781 Q766.0875,502.6125 766.3313,502.3969 Q766.4906,502.275 766.575,502.2375 Q766.6594,502.2 766.7625,502.2 Q766.9594,502.2 767.1,502.3594 Q767.25,502.5094 767.25,502.725 Q767.25,502.9313 767.0437,503.175 Q766.7438,503.5313 766.2656,503.7281 Q765.6375,504 764.8688,504 Q763.9688,504 763.2469,503.6437 Q762.6656,503.3625 762.2531,502.7531 Q761.85,502.1437 761.85,501.4219 L761.85,500.7656 Q761.85,500.0156 762.2063,499.3594 Q762.5719,498.7031 763.2,498.3563 Q763.8375,498 764.55,498 Q764.9812,498 765.3562,498.15 Q765.7312,498.3 766.05,498.6 Z " fill="#000000"/><text fill="#000000" font-family="sans-serif" font-size="8.4" lengthAdjust="spacing" textLength="25.8" x="777.15" y="503.6121">District</text><line style="stroke:#181818;stroke-width:0.3;" x1="737.7" x2="822.9" y1="510.3" y2="510.3"/><rect fill="none" height="3.6" style="stroke:#C82930;stroke-width:0.6;" width="3.6" x="741.9" y="516.4922"/><text fill="#000000" font-family="sans-serif" font-size="8.4" lengthAdjust="spacing" textLength="70.8" x="749.1" y="520.3043">String districtName</text><line style="stroke:#181818;stroke-width:0.3;" x1="737.7" x2="822.9" y1="524.4844" y2="524.4844"/><ellipse cx="743.7" cy="532.4766" fill="#84BE84" rx="1.8" ry="1.8" style="stroke:#038048;stroke-width:0.6;"/><text fill="#000000" font-family="sans-serif" font-size="8.4" lengthAdjust="spacing" textLength="65.4" x="749.1" y="534.4887">getDistrictName()</text><ellipse cx="743.7" cy="541.8609" fill="#84BE84" rx="1.8" ry="1.8" style="stroke:#038048;stroke-width:0.6;"/><text fill="#000000" font-family="sans-serif" font-size="8.4" lengthAdjust="spacing" textLength="39" x="749.1" y="543.873">getCities()</text><ellipse cx="743.7" cy="551.2453" fill="#84BE84" rx="1.8" ry="1.8" style="stroke:#038048;stroke-width:0.6;"/><text fill="#000000" font-family="sans-serif" font-size="8.4" lengthAdjust="spacing" textLength="35.4" x="749.1" y="553.2574">toString()</text></g><!--class City--><g id="elem_City"><rect codeLine="80" fill="#F1F1F1" height="47.5688" id="City" rx="1.5" ry="1.5" style="stroke:#181818;stroke-width:0.3;" width="69.6" x="867.9" y="500.7"/><ellipse cx="893.1" cy="510.3" fill="#ADD1B2" rx="6.6" ry="6.6" style="stroke:#181818;stroke-width:0.6;"/><path d="M894.3,508.2 Q894.4219,507.9 894.5625,507.75 Q894.7031,507.6 894.8625,507.6 Q895.1438,507.6 895.3219,507.7687 Q895.5,507.9375 895.5,508.3312 L895.5,509.2687 Q895.5,509.6625 895.3313,509.8312 Q895.1625,510 894.9,510 Q894.6656,510 894.5156,509.8969 Q894.3656,509.7938 894.3,509.5219 Q894.2719,509.3344 894.1687,509.2313 Q893.9812,509.0344 893.6438,508.9219 Q893.3063,508.8 892.9688,508.8 Q892.5469,508.8 892.1906,508.9688 Q891.8438,509.1375 891.5719,509.5125 Q891.3,509.8875 891.3,510.4031 L891.3,510.9562 Q891.3,511.575 891.8063,511.9875 Q892.3125,512.4 893.2125,512.4 Q893.7469,512.4 894.1219,512.2781 Q894.3375,512.2125 894.5813,511.9969 Q894.7406,511.875 894.825,511.8375 Q894.9094,511.8 895.0125,511.8 Q895.2094,511.8 895.35,511.9594 Q895.5,512.1094 895.5,512.325 Q895.5,512.5313 895.2937,512.775 Q894.9938,513.1313 894.5156,513.3281 Q893.8875,513.6 893.1188,513.6 Q892.2188,513.6 891.4969,513.2438 Q890.9156,512.9625 890.5031,512.3531 Q890.1,511.7438 890.1,511.0219 L890.1,510.3656 Q890.1,509.6156 890.4563,508.9594 Q890.8219,508.3031 891.45,507.9562 Q892.0875,507.6 892.8,507.6 Q893.2312,507.6 893.6062,507.75 Q893.9812,507.9 894.3,508.2 Z " fill="#000000"/><text fill="#000000" font-family="sans-serif" font-size="8.4" lengthAdjust="spacing" textLength="14.4" x="905.1" y="513.2121">City</text><line style="stroke:#181818;stroke-width:0.3;" x1="868.5" x2="936.9" y1="519.9" y2="519.9"/><rect fill="none" height="3.6" style="stroke:#C82930;stroke-width:0.6;" width="3.6" x="872.7" y="526.0922"/><text fill="#000000" font-family="sans-serif" font-size="8.4" lengthAdjust="spacing" textLength="37.2" x="879.9" y="529.9043">String city</text><line style="stroke:#181818;stroke-width:0.3;" x1="868.5" x2="936.9" y1="534.0844" y2="534.0844"/><ellipse cx="874.5" cy="542.0766" fill="#84BE84" rx="1.8" ry="1.8" style="stroke:#038048;stroke-width:0.6;"/><text fill="#000000" font-family="sans-serif" font-size="8.4" lengthAdjust="spacing" textLength="54" x="879.9" y="544.0887">getCityName()</text></g><!--class Store--><g id="elem_Store"><rect codeLine="86" fill="#F1F1F1" height="103.875" id="Store" rx="1.5" ry="1.5" style="stroke:#181818;stroke-width:0.3;" width="424.8" x="267.9" y="827.4"/><ellipse cx="467.55" cy="837" fill="#ADD1B2" rx="6.6" ry="6.6" style="stroke:#181818;stroke-width:0.6;"/><path d="M468.75,834.9 Q468.8719,834.6 469.0125,834.45 Q469.1531,834.3 469.3125,834.3 Q469.5938,834.3 469.7719,834.4688 Q469.95,834.6375 469.95,835.0313 L469.95,835.9688 Q469.95,836.3625 469.7813,836.5313 Q469.6125,836.7 469.35,836.7 Q469.1156,836.7 468.9656,836.5969 Q468.8156,836.4938 468.75,836.2219 Q468.7219,836.0344 468.6188,835.9313 Q468.4313,835.7344 468.0938,835.6219 Q467.7562,835.5 467.4188,835.5 Q466.9969,835.5 466.6406,835.6687 Q466.2938,835.8375 466.0219,836.2125 Q465.75,836.5875 465.75,837.1031 L465.75,837.6563 Q465.75,838.275 466.2562,838.6875 Q466.7625,839.1 467.6625,839.1 Q468.1969,839.1 468.5719,838.9781 Q468.7875,838.9125 469.0313,838.6969 Q469.1906,838.575 469.275,838.5375 Q469.3594,838.5 469.4625,838.5 Q469.6594,838.5 469.8,838.6594 Q469.95,838.8094 469.95,839.025 Q469.95,839.2312 469.7438,839.475 Q469.4437,839.8313 468.9656,840.0281 Q468.3375,840.3 467.5687,840.3 Q466.6688,840.3 465.9469,839.9438 Q465.3656,839.6625 464.9531,839.0531 Q464.55,838.4438 464.55,837.7219 L464.55,837.0656 Q464.55,836.3156 464.9063,835.6594 Q465.2719,835.0031 465.9,834.6563 Q466.5375,834.3 467.25,834.3 Q467.6813,834.3 468.0563,834.45 Q468.4313,834.6 468.75,834.9 Z " fill="#000000"/><text fill="#000000" font-family="sans-serif" font-size="8.4" lengthAdjust="spacing" textLength="20.4" x="479.85" y="839.9121">Store</text><line style="stroke:#181818;stroke-width:0.3;" x1="268.5" x2="692.1" y1="846.6" y2="846.6"/><rect fill="none" height="3.6" style="stroke:#C82930;stroke-width:0.6;" width="3.6" x="272.7" y="852.7922"/><text fill="#000000" font-family="sans-serif" font-size="8.4" lengthAdjust="spacing" textLength="45.6" x="279.9" y="856.6043">String name</text><rect fill="none" height="3.6" style="stroke:#C82930;stroke-width:0.6;" width="3.6" x="272.7" y="862.1766"/><text fill="#000000" font-family="sans-serif" font-size="8.4" lengthAdjust="spacing" textLength="44.4" x="279.9" y="865.9887">String email</text><rect fill="none" height="3.6" style="stroke:#C82930;stroke-width:0.6;" width="3.6" x="272.7" y="871.5609"/><text fill="#000000" font-family="sans-serif" font-size="8.4" lengthAdjust="spacing" textLength="78" x="279.9" y="875.373">String phoneNumber</text><rect fill="none" height="3.6" style="stroke:#C82930;stroke-width:0.6;" width="3.6" x="272.7" y="880.9453"/><text fill="#000000" font-family="sans-serif" font-size="8.4" lengthAdjust="spacing" textLength="54.6" x="279.9" y="884.7574">Adress adress</text><line style="stroke:#181818;stroke-width:0.3;" x1="268.5" x2="692.1" y1="888.9375" y2="888.9375"/><rect fill="#F24D5C" height="3.6" style="stroke:#C82930;stroke-width:0.6;" width="3.6" x="272.7" y="895.1297"/><text fill="#000000" font-family="sans-serif" font-size="8.4" lengthAdjust="spacing" textLength="94.2" x="279.9" y="898.9418">addEmployee(employee)</text><rect fill="#F24D5C" height="3.6" style="stroke:#C82930;stroke-width:0.6;" width="3.6" x="272.7" y="904.5141"/><text fill="#000000" font-family="sans-serif" font-size="8.4" lengthAdjust="spacing" textLength="109.2" x="279.9" y="908.3262">validateEmployee(employee)</text><ellipse cx="274.5" cy="915.6984" fill="#84BE84" rx="1.8" ry="1.8" style="stroke:#038048;stroke-width:0.6;"/><text fill="#000000" font-family="sans-serif" font-size="8.4" lengthAdjust="spacing" textLength="105.6" x="279.9" y="917.7105">Store(name,adress,contact)</text><ellipse cx="274.5" cy="925.0828" fill="#84BE84" rx="1.8" ry="1.8" style="stroke:#038048;stroke-width:0.6;"/><text fill="#000000" font-family="sans-serif" font-size="8.4" lengthAdjust="spacing" textLength="409.2" x="279.9" y="927.0949">createEmployee(name,citizen&#180;s card number,tax number ,adress,email adress,telephone number,store, role)</text></g><!--class StoreRepository--><g id="elem_StoreRepository"><rect codeLine="97" fill="#F1F1F1" height="75.7219" id="StoreRepository" rx="1.5" ry="1.5" style="stroke:#181818;stroke-width:0.3;" width="148.8" x="286.5" y="631.8"/><ellipse cx="327.75" cy="641.4" fill="#ADD1B2" rx="6.6" ry="6.6" style="stroke:#181818;stroke-width:0.6;"/><path d="M328.95,639.3 Q329.0719,639 329.2125,638.85 Q329.3531,638.7 329.5125,638.7 Q329.7938,638.7 329.9719,638.8688 Q330.15,639.0375 330.15,639.4313 L330.15,640.3688 Q330.15,640.7625 329.9813,640.9313 Q329.8125,641.1 329.55,641.1 Q329.3156,641.1 329.1656,640.9969 Q329.0156,640.8938 328.95,640.6219 Q328.9219,640.4344 328.8187,640.3313 Q328.6312,640.1344 328.2938,640.0219 Q327.9563,639.9 327.6188,639.9 Q327.1969,639.9 326.8406,640.0688 Q326.4938,640.2375 326.2219,640.6125 Q325.95,640.9875 325.95,641.5031 L325.95,642.0563 Q325.95,642.675 326.4563,643.0875 Q326.9625,643.5 327.8625,643.5 Q328.3969,643.5 328.7719,643.3781 Q328.9875,643.3125 329.2313,643.0969 Q329.3906,642.975 329.475,642.9375 Q329.5594,642.9 329.6625,642.9 Q329.8594,642.9 330,643.0594 Q330.15,643.2094 330.15,643.425 Q330.15,643.6313 329.9437,643.875 Q329.6438,644.2312 329.1656,644.4281 Q328.5375,644.7 327.7688,644.7 Q326.8688,644.7 326.1469,644.3438 Q325.5656,644.0625 325.1531,643.4531 Q324.75,642.8438 324.75,642.1219 L324.75,641.4656 Q324.75,640.7156 325.1063,640.0594 Q325.4719,639.4031 326.1,639.0563 Q326.7375,638.7 327.45,638.7 Q327.8812,638.7 328.2562,638.85 Q328.6312,639 328.95,639.3 Z " fill="#000000"/><text fill="#000000" font-family="sans-serif" font-size="8.4" lengthAdjust="spacing" textLength="61.2" x="340.05" y="644.3121">StoreRepository</text><line style="stroke:#181818;stroke-width:0.3;" x1="287.1" x2="434.7" y1="651" y2="651"/><line style="stroke:#181818;stroke-width:0.3;" x1="287.1" x2="434.7" y1="655.8" y2="655.8"/><ellipse cx="293.1" cy="663.7922" fill="#84BE84" rx="1.8" ry="1.8" style="stroke:#038048;stroke-width:0.6;"/><text fill="#000000" font-family="sans-serif" font-size="8.4" lengthAdjust="spacing" textLength="51" x="298.5" y="665.8043">findPartition()</text><ellipse cx="293.1" cy="673.1766" fill="#84BE84" rx="1.8" ry="1.8" style="stroke:#038048;stroke-width:0.6;"/><text fill="#000000" font-family="sans-serif" font-size="8.4" lengthAdjust="spacing" textLength="105.6" x="298.5" y="675.1887">createStoreByFileReading()</text><ellipse cx="293.1" cy="682.5609" fill="#84BE84" rx="1.8" ry="1.8" style="stroke:#038048;stroke-width:0.6;"/><text fill="#000000" font-family="sans-serif" font-size="8.4" lengthAdjust="spacing" textLength="90.6" x="298.5" y="684.573">getStoreByDescription()</text><ellipse cx="293.1" cy="691.9453" fill="#84BE84" rx="1.8" ry="1.8" style="stroke:#038048;stroke-width:0.6;"/><text fill="#000000" font-family="sans-serif" font-size="8.4" lengthAdjust="spacing" textLength="133.2" x="298.5" y="693.9574">getStoresByMostAvailableListings()</text><ellipse cx="293.1" cy="701.3297" fill="#84BE84" rx="1.8" ry="1.8" style="stroke:#038048;stroke-width:0.6;"/><text fill="#000000" font-family="sans-serif" font-size="8.4" lengthAdjust="spacing" textLength="75" x="298.5" y="703.3418">getStoresProperty()</text></g><!--class Employee--><g id="elem_Employee"><rect fill="#F1F1F1" height="28.8" id="Employee" rx="1.5" ry="1.5" style="stroke:#181818;stroke-width:0.3;" width="56.4" x="842.1" y="416.4"/><ellipse cx="851.1" cy="426" fill="#ADD1B2" rx="6.6" ry="6.6" style="stroke:#181818;stroke-width:0.6;"/><path d="M852.3,423.9 Q852.4219,423.6 852.5625,423.45 Q852.7031,423.3 852.8625,423.3 Q853.1438,423.3 853.3219,423.4688 Q853.5,423.6375 853.5,424.0313 L853.5,424.9688 Q853.5,425.3625 853.3313,425.5313 Q853.1625,425.7 852.9,425.7 Q852.6656,425.7 852.5156,425.5969 Q852.3656,425.4938 852.3,425.2219 Q852.2719,425.0344 852.1687,424.9313 Q851.9812,424.7344 851.6438,424.6219 Q851.3063,424.5 850.9688,424.5 Q850.5469,424.5 850.1906,424.6688 Q849.8438,424.8375 849.5719,425.2125 Q849.3,425.5875 849.3,426.1031 L849.3,426.6563 Q849.3,427.275 849.8063,427.6875 Q850.3125,428.1 851.2125,428.1 Q851.7469,428.1 852.1219,427.9781 Q852.3375,427.9125 852.5813,427.6969 Q852.7406,427.575 852.825,427.5375 Q852.9094,427.5 853.0125,427.5 Q853.2094,427.5 853.35,427.6594 Q853.5,427.8094 853.5,428.025 Q853.5,428.2313 853.2937,428.475 Q852.9938,428.8313 852.5156,429.0281 Q851.8875,429.3 851.1188,429.3 Q850.2188,429.3 849.4969,428.9437 Q848.9156,428.6625 848.5031,428.0531 Q848.1,427.4437 848.1,426.7219 L848.1,426.0656 Q848.1,425.3156 848.4563,424.6594 Q848.8219,424.0031 849.45,423.6563 Q850.0875,423.3 850.8,423.3 Q851.2312,423.3 851.6062,423.45 Q851.9812,423.6 852.3,423.9 Z " fill="#000000"/><text fill="#000000" font-family="sans-serif" font-size="8.4" lengthAdjust="spacing" textLength="37.2" x="859.5" y="428.9121">Employee</text><line style="stroke:#181818;stroke-width:0.3;" x1="842.7" x2="897.9" y1="435.6" y2="435.6"/><line style="stroke:#181818;stroke-width:0.3;" x1="842.7" x2="897.9" y1="440.4" y2="440.4"/></g><!--class NetworkManager--><g id="elem_NetworkManager"><rect fill="#F1F1F1" height="28.8" id="NetworkManager" rx="1.5" ry="1.5" style="stroke:#181818;stroke-width:0.3;" width="82.8" x="821.1" y="585"/><ellipse cx="830.1" cy="594.6" fill="#ADD1B2" rx="6.6" ry="6.6" style="stroke:#181818;stroke-width:0.6;"/><path d="M831.3,592.5 Q831.4219,592.2 831.5625,592.05 Q831.7031,591.9 831.8625,591.9 Q832.1438,591.9 832.3219,592.0688 Q832.5,592.2375 832.5,592.6313 L832.5,593.5688 Q832.5,593.9625 832.3313,594.1313 Q832.1625,594.3 831.9,594.3 Q831.6656,594.3 831.5156,594.1969 Q831.3656,594.0938 831.3,593.8219 Q831.2719,593.6344 831.1687,593.5313 Q830.9812,593.3344 830.6438,593.2219 Q830.3063,593.1 829.9688,593.1 Q829.5469,593.1 829.1906,593.2688 Q828.8438,593.4375 828.5719,593.8125 Q828.3,594.1875 828.3,594.7031 L828.3,595.2563 Q828.3,595.875 828.8063,596.2875 Q829.3125,596.7 830.2125,596.7 Q830.7469,596.7 831.1219,596.5781 Q831.3375,596.5125 831.5813,596.2969 Q831.7406,596.175 831.825,596.1375 Q831.9094,596.1 832.0125,596.1 Q832.2094,596.1 832.35,596.2594 Q832.5,596.4094 832.5,596.625 Q832.5,596.8313 832.2937,597.075 Q831.9938,597.4313 831.5156,597.6281 Q830.8875,597.9 830.1188,597.9 Q829.2188,597.9 828.4969,597.5437 Q827.9156,597.2625 827.5031,596.6531 Q827.1,596.0437 827.1,595.3219 L827.1,594.6656 Q827.1,593.9156 827.4563,593.2594 Q827.8219,592.6031 828.45,592.2563 Q829.0875,591.9 829.8,591.9 Q830.2312,591.9 830.6062,592.05 Q830.9812,592.2 831.3,592.5 Z " fill="#000000"/><text fill="#000000" font-family="sans-serif" font-size="8.4" lengthAdjust="spacing" textLength="63.6" x="838.5" y="597.5121">NetworkManager</text><line style="stroke:#181818;stroke-width:0.3;" x1="821.7" x2="903.3" y1="604.2" y2="604.2"/><line style="stroke:#181818;stroke-width:0.3;" x1="821.7" x2="903.3" y1="609" y2="609"/></g><!--link StoreRepository to Store--><g id="link_StoreRepository_Store"><path codeLine="105" d="M382.248,707.478 C400.914,740.076 428.262,787.83 449.334,824.628 " fill="none" id="StoreRepository-to-Store" style="stroke:#181818;stroke-width:0.6;"/><polygon fill="#181818" points="450.84,827.256,450.2405,821.3772,449.3497,824.6523,446.0746,823.7616,450.84,827.256" style="stroke:#181818;stroke-width:0.6;"/></g><!--link DivideStoreController to StoreRepository--><g id="link_DivideStoreController_StoreRepository"><path codeLine="108" d="M197.352,127.062 C223.248,165.102 264.3,236.1 264.3,303.9 C264.3,303.9 264.3,303.9 264.3,525 C264.3,565.26 290.664,602.76 315.846,629.388 " fill="none" id="DivideStoreController-to-StoreRepository" style="stroke:#181818;stroke-width:0.6;stroke-dasharray:7.0,7.0;"/><polygon fill="#181818" points="317.97,631.608,315.9832,626.0427,315.9008,629.4358,312.5077,629.3534,317.97,631.608" style="stroke:#181818;stroke-width:0.6;"/></g><!--link Repositories to StoreRepository--><g id="link_Repositories_StoreRepository"><path codeLine="110" d="M376.032,192.72 C367.752,227.322 360.9,267.066 360.9,303.9 C360.9,303.9 360.9,303.9 360.9,525 C360.9,559.974 360.9,599.73 360.9,628.596 " fill="none" id="Repositories-to-StoreRepository" style="stroke:#181818;stroke-width:0.6;"/><polygon fill="#181818" points="360.9,631.704,363.3,626.304,360.9,628.704,358.5,626.304,360.9,631.704" style="stroke:#181818;stroke-width:0.6;"/><text fill="#000000" font-family="sans-serif" font-size="7.8" lengthAdjust="spacing" textLength="54.6" x="361.5" y="433.6611">storeRepository</text></g><!--link DivideStoreUI to DivideStoreController--><g id="link_DivideStoreUI_DivideStoreController"><path codeLine="113" d="M74.454,98.4 C80.352,98.4 86.244,98.4 92.142,98.4 " fill="none" id="DivideStoreUI-to-DivideStoreController" style="stroke:#181818;stroke-width:0.6;stroke-dasharray:7.0,7.0;"/><polygon fill="#181818" points="95.226,98.4,89.826,96,92.226,98.4,89.826,100.8,95.226,98.4" style="stroke:#181818;stroke-width:0.6;"/></g><!--link DivideStoreController to Repositories--><g id="link_DivideStoreController_Repositories"><path codeLine="115" d="M258.048,98.4 C277.23,98.4 297.756,98.4 317.196,98.4 " fill="none" id="DivideStoreController-to-Repositories" style="stroke:#181818;stroke-width:0.6;stroke-dasharray:7.0,7.0;"/><polygon fill="#181818" points="320.304,98.4,314.904,96,317.304,98.4,314.904,100.8,320.304,98.4" style="stroke:#181818;stroke-width:0.6;"/><text fill="#000000" font-family="sans-serif" font-size="7.8" lengthAdjust="spacing" textLength="40.2" x="269.1" y="94.6611">repositories</text></g><!--reverse link Person to Employee--><g id="link_Person_Employee"><path codeLine="117" d="M748.434,370.554 C783.804,387.864 818.568,404.88 841.86,416.28 " fill="none" id="Person-backto-Employee" style="stroke:#181818;stroke-width:0.6;"/><polygon fill="none" points="746.376,374.226,737.448,365.178,750.072,366.678,746.376,374.226" style="stroke:#181818;stroke-width:0.6;"/></g><!--link Employee to NetworkManager--><g id="link_Employee_NetworkManager"><path codeLine="118" d="M898.542,441.456 C916.302,449.424 937.776,462.474 948.3,481.8 C966.408,515.058 969.93,535.92 948.3,567 C938.184,581.538 920.604,589.446 903.978,593.742 " fill="none" id="Employee-NetworkManager" style="stroke:#181818;stroke-width:0.6;"/></g><!--link Person to Adress--><g id="link_Person_Adress"><path codeLine="120" d="M568.728,379.908 C547.824,413.922 523.866,452.91 506.166,481.716 " fill="none" id="Person-Adress" style="stroke:#181818;stroke-width:0.6;"/><polygon fill="#000000" points="550.2707,428.4011,545.9269,432.1016,548.9317,433.9481,550.2707,428.4011" style="stroke:#000000;stroke-width:0.6;"/><text fill="#000000" font-family="sans-serif" font-size="7.8" lengthAdjust="spacing" textLength="12.6" x="554.1" y="433.6611">has</text><text fill="#000000" font-family="sans-serif" font-size="7.8" lengthAdjust="spacing" textLength="4.2" x="561.5986" y="391.8238">1</text><text fill="#000000" font-family="sans-serif" font-size="7.8" lengthAdjust="spacing" textLength="4.2" x="504.5654" y="475.2715">1</text></g><!--link State to District--><g id="link_State_District"><path codeLine="121" d="M692.76,524.4 C706.812,524.4 722.634,524.4 736.92,524.4 " fill="none" id="State-District" style="stroke:#181818;stroke-width:0.6;"/><polygon fill="#000000" points="703.2,517.957,708.6271,519.7204,708.6271,516.1937,703.2,517.957" style="stroke:#000000;stroke-width:0.6;"/><text fill="#000000" font-family="sans-serif" font-size="7.8" lengthAdjust="spacing" textLength="14.4" x="711.6" y="520.6611">is in</text><text fill="#000000" font-family="sans-serif" font-size="7.8" lengthAdjust="spacing" textLength="4.2" x="697.3931" y="522.6333">1</text><text fill="#000000" font-family="sans-serif" font-size="7.8" lengthAdjust="spacing" textLength="3" x="729.2918" y="522.6577">*</text></g><!--link District to City--><g id="link_District_City"><path codeLine="122" d="M823.626,524.4 C838.134,524.4 854.118,524.4 867.888,524.4 " fill="none" id="District-City" style="stroke:#181818;stroke-width:0.6;"/><polygon fill="#000000" points="834,517.957,839.4271,519.7204,839.4271,516.1937,834,517.957" style="stroke:#000000;stroke-width:0.6;"/><text fill="#000000" font-family="sans-serif" font-size="7.8" lengthAdjust="spacing" textLength="14.4" x="842.4" y="520.6611">is in</text><text fill="#000000" font-family="sans-serif" font-size="7.8" lengthAdjust="spacing" textLength="4.2" x="828.3106" y="522.6577">1</text><text fill="#000000" font-family="sans-serif" font-size="7.8" lengthAdjust="spacing" textLength="3" x="860.0086" y="522.5065">*</text></g><!--link Adress to State--><g id="link_Adress_State"><path codeLine="123" d="M567.912,524.4 C583.368,524.4 598.758,524.4 612.09,524.4 " fill="none" id="Adress-State" style="stroke:#181818;stroke-width:0.6;"/><polygon fill="#000000" points="578.4,517.957,583.8271,519.7204,583.8271,516.1937,578.4,517.957" style="stroke:#000000;stroke-width:0.6;"/><text fill="#000000" font-family="sans-serif" font-size="7.8" lengthAdjust="spacing" textLength="14.4" x="586.8" y="520.6611">is in</text><text fill="#000000" font-family="sans-serif" font-size="7.8" lengthAdjust="spacing" textLength="3" x="572.7853" y="522.8426">*</text><text fill="#000000" font-family="sans-serif" font-size="7.8" lengthAdjust="spacing" textLength="4.2" x="603.2405" y="522.6333">1</text></g><!--link Adress to Store--><g id="link_Adress_Store"><path codeLine="125" d="M480.3,567.06 C480.3,595.776 480.3,634.686 480.3,669 C480.3,669 480.3,669 480.3,790.8 C480.3,802.626 480.3,815.346 480.3,827.34 " fill="none" id="Adress-Store" style="stroke:#181818;stroke-width:0.6;"/><polygon fill="#000000" points="483.3,745.957,481.5366,751.3841,485.0634,751.3841,483.3,745.957" style="stroke:#000000;stroke-width:0.6;"/><text fill="#000000" font-family="sans-serif" font-size="7.8" lengthAdjust="spacing" textLength="12.6" x="488.7" y="751.6611">has</text><text fill="#000000" font-family="sans-serif" font-size="7.8" lengthAdjust="spacing" textLength="4.2" x="475.8933" y="578.754">1</text><text fill="#000000" font-family="sans-serif" font-size="7.8" lengthAdjust="spacing" textLength="4.2" x="475.913" y="821.01">1</text></g><!--link NetworkManager to Store--><g id="link_NetworkManager_Store"><path codeLine="127" d="M838.668,613.86 C807.354,634.056 756.3,674.76 756.3,725.4 C756.3,725.4 756.3,725.4 756.3,790.8 C756.3,810.822 729.6,826.89 692.808,839.532 " fill="none" id="NetworkManager-Store" style="stroke:#181818;stroke-width:0.6;"/><polygon fill="#000000" points="757.6715,751.4766,762.0984,747.8759,759.1365,745.9615,757.6715,751.4766" style="stroke:#000000;stroke-width:0.6;"/><text fill="#000000" font-family="sans-serif" font-size="7.8" lengthAdjust="spacing" textLength="51" x="764.7" y="751.6611">wants to divide</text><text fill="#000000" font-family="sans-serif" font-size="7.8" lengthAdjust="spacing" textLength="3" x="829.1767" y="625.743">*</text><text fill="#000000" font-family="sans-serif" font-size="7.8" lengthAdjust="spacing" textLength="3" x="697.8238" y="837.1654">*</text></g><!--SRC=[VLNRRjim37tNLmXzIXPxm5w3ea1w6L1WRODs-m3LPX9XZkI9IZktsr_j2_PbeswE71lpYqtoyEY8fEIg4OZyMhx86fwiDl3jzftzPenLFl08hKP9VWdupihSdCtPOWlsLg4LgeBPV9b7VUnctpQw0-W3NKowqdk9ABKQHTQ7vqRY3kgLKlf0l7jGTeHQ7UoE_B8ITefacFlZ03Ycy9iTUHzr0nDGOIVsqCWfQMkZMp2s-zgrunpdVDXS7b0gG1o5xyWfjkEqXyq6pD2BOAHev1iueuRSF7OlQ-kLLjRefW73tncdPp4TdU6mBlC8taXLhuMnqXLy5hmbdwnZ9c0D1hMYmU5FraYrvR0NiY5JAijRGhJQsFl3_XbCT5hnixTZZX9x86jL6oeF5_wLA7PQGSIpnJUgmiolK0ovYvwrS6H5bXQRDe2dPgMaQDyuvZHXNaKqxeapTV_8FEX4m5FboxWfj0P2PYYbsysRRAzq7Hn-mgJjOgcTUIqfILOsS_d9J7RKXCvNy3gY2ruHJH4NBD8YNbpGvacSDDvh8uUNDhrGfWMJp-gG7FkVvY-WiW58iWBzY2-MCgj0k6bEr-YNS3NAwDrUsQ20aJ7RBSqhPGo6QpYTqSg7gpoPFb7NwNAZYGiVSrQ-q1cigL8JiOLVUERdBx0K5PqwKLcALGRoB0-YhT1vLd__8A-4gRdgHpb-yiJZPKTfXOK6lFAKu0zqmUbumsaPZiSsN0gBYLCUjNdyPVTPkljHrA4B_N3us3LWPMIRfQOONdPt6ktgXNIAvmQ-KBU90KzXwUuC_JgLMD9p4OJJv4pVRHylJdV6MFvRyYJb2BJaU9h51lz4Hpovud-4vEikkSb_ZYnSZFpyLrdor7QMFaWalmVxgittEw7eXs3wXBDFPsuB_Xr6Sibt0lavyoSqn8tSxgm3VJZhZ-2IIwGhau39CyQwutB4nObtWIEAKln2HrYF2yfw49M39srik1jFwOazRCbVXRB8hQRRmTMINx1_]--></g></svg>