<?xml version="1.0" encoding="UTF-8" standalone="no"?><svg xmlns="http://www.w3.org/2000/svg" xmlns:xlink="http://www.w3.org/1999/xlink" contentStyleType="text/css" height="680px" preserveAspectRatio="none" style="width:1478px;height:680px;background:#FFFFFF;" version="1.1" viewBox="0 0 1478 680" width="1478px" zoomAndPan="magnify"><defs/><g><text fill="#000000" font-family="sans-serif" font-size="14" font-weight="bold" lengthAdjust="spacing" textLength="218" x="629.25" y="29.5332">US019 - Sequence Diagram Full</text><rect fill="#FFFFFF" height="442.7188" style="stroke:#181818;stroke-width:1.0;" width="10" x="81.5" y="138.7656"/><rect fill="#FFFFFF" height="402.5625" style="stroke:#181818;stroke-width:1.0;" width="10" x="683.5" y="169.9219"/><rect fill="#FFFFFF" height="322.25" style="stroke:#181818;stroke-width:1.0;" width="10" x="906.5" y="259.2344"/><rect fill="#FFFFFF" height="39.1563" style="stroke:#181818;stroke-width:1.0;" width="10" x="1089.5" y="298.3906"/><rect fill="#FFFFFF" height="39.1563" style="stroke:#181818;stroke-width:1.0;" width="10" x="1229.5" y="376.7031"/><rect fill="#FFFFFF" height="39.1563" style="stroke:#181818;stroke-width:1.0;" width="10" x="1386" y="455.0156"/><line style="stroke:#181818;stroke-width:0.5;stroke-dasharray:5.0,5.0;" x1="86" x2="86" y1="128.7656" y2="590.4844"/><line style="stroke:#181818;stroke-width:0.5;stroke-dasharray:5.0,5.0;" x1="688.5" x2="688.5" y1="128.7656" y2="590.4844"/><line style="stroke:#181818;stroke-width:0.5;stroke-dasharray:5.0,5.0;" x1="911.5" x2="911.5" y1="213" y2="590.4844"/><line style="stroke:#181818;stroke-width:0.5;stroke-dasharray:5.0,5.0;" x1="1094.5" x2="1094.5" y1="128.7656" y2="590.4844"/><line style="stroke:#181818;stroke-width:0.5;stroke-dasharray:5.0,5.0;" x1="1234.5" x2="1234.5" y1="128.7656" y2="590.4844"/><line style="stroke:#181818;stroke-width:0.5;stroke-dasharray:5.0,5.0;" x1="1390.5" x2="1390.5" y1="128.7656" y2="590.4844"/><text fill="#000000" font-family="sans-serif" font-size="20" lengthAdjust="spacing" textLength="157" x="5" y="124.3711">Network Manager</text><ellipse cx="86.5" cy="52.1094" fill="#E3E3E3" rx="8" ry="8" style="stroke:#181818;stroke-width:0.5;"/><path d="M86.5,60.1094 L86.5,87.1094 M73.5,68.1094 L99.5,68.1094 M86.5,87.1094 L73.5,102.1094 M86.5,87.1094 L99.5,102.1094 " fill="none" style="stroke:#181818;stroke-width:0.5;"/><text fill="#000000" font-family="sans-serif" font-size="20" lengthAdjust="spacing" textLength="157" x="5" y="610.2461">Network Manager</text><ellipse cx="86.5" cy="623.1406" fill="#E3E3E3" rx="8" ry="8" style="stroke:#181818;stroke-width:0.5;"/><path d="M86.5,631.1406 L86.5,658.1406 M73.5,639.1406 L99.5,639.1406 M86.5,658.1406 L73.5,673.1406 M86.5,658.1406 L99.5,673.1406 " fill="none" style="stroke:#181818;stroke-width:0.5;"/><rect fill="#E3E3E3" height="39.1563" rx="2.5" ry="2.5" style="stroke:#181818;stroke-width:0.5;" width="150" x="613.5" y="88.6094"/><text fill="#000000" font-family="sans-serif" font-size="20" lengthAdjust="spacing" textLength="136" x="620.5" y="116.3711">:DivideStoresUI</text><rect fill="#E3E3E3" height="39.1563" rx="2.5" ry="2.5" style="stroke:#181818;stroke-width:0.5;" width="150" x="613.5" y="589.4844"/><text fill="#000000" font-family="sans-serif" font-size="20" lengthAdjust="spacing" textLength="136" x="620.5" y="617.2461">:DivideStoresUI</text><rect fill="#E3E3E3" height="39.1563" rx="2.5" ry="2.5" style="stroke:#181818;stroke-width:0.5;" width="216" x="803.5" y="589.4844"/><text fill="#000000" font-family="sans-serif" font-size="20" lengthAdjust="spacing" textLength="202" x="810.5" y="617.2461">:DivideStoresController</text><rect fill="#E3E3E3" height="39.1563" rx="2.5" ry="2.5" style="stroke:#181818;stroke-width:0.5;" width="130" x="1029.5" y="88.6094"/><text fill="#000000" font-family="sans-serif" font-size="20" lengthAdjust="spacing" textLength="116" x="1036.5" y="116.3711">:Repositories</text><rect fill="#E3E3E3" height="39.1563" rx="2.5" ry="2.5" style="stroke:#181818;stroke-width:0.5;" width="130" x="1029.5" y="589.4844"/><text fill="#000000" font-family="sans-serif" font-size="20" lengthAdjust="spacing" textLength="116" x="1036.5" y="617.2461">:Repositories</text><rect fill="#E3E3E3" height="64.3125" rx="2.5" ry="2.5" style="stroke:#181818;stroke-width:0.5;" width="130" x="1169.5" y="63.4531"/><text fill="#000000" font-family="sans-serif" font-size="20" lengthAdjust="spacing" textLength="103" x="1183" y="91.2148">repositories</text><text fill="#000000" font-family="sans-serif" font-size="20" lengthAdjust="spacing" textLength="116" x="1176.5" y="116.3711">:Repositories</text><rect fill="#E3E3E3" height="64.3125" rx="2.5" ry="2.5" style="stroke:#181818;stroke-width:0.5;" width="130" x="1169.5" y="589.4844"/><text fill="#000000" font-family="sans-serif" font-size="20" lengthAdjust="spacing" textLength="103" x="1183" y="617.2461">repositories</text><text fill="#000000" font-family="sans-serif" font-size="20" lengthAdjust="spacing" textLength="116" x="1176.5" y="642.4023">:Repositories</text><rect fill="#E3E3E3" height="64.3125" rx="2.5" ry="2.5" style="stroke:#181818;stroke-width:0.5;" width="163" x="1309.5" y="63.4531"/><text fill="#000000" font-family="sans-serif" font-size="20" lengthAdjust="spacing" textLength="140" x="1321" y="91.2148">storeRepository</text><text fill="#000000" font-family="sans-serif" font-size="20" lengthAdjust="spacing" textLength="149" x="1316.5" y="116.3711">:StoreRepository</text><rect fill="#E3E3E3" height="64.3125" rx="2.5" ry="2.5" style="stroke:#181818;stroke-width:0.5;" width="163" x="1309.5" y="589.4844"/><text fill="#000000" font-family="sans-serif" font-size="20" lengthAdjust="spacing" textLength="140" x="1321" y="617.2461">storeRepository</text><text fill="#000000" font-family="sans-serif" font-size="20" lengthAdjust="spacing" textLength="149" x="1316.5" y="642.4023">:StoreRepository</text><rect fill="#FFFFFF" height="442.7188" style="stroke:#181818;stroke-width:1.0;" width="10" x="81.5" y="138.7656"/><rect fill="#FFFFFF" height="402.5625" style="stroke:#181818;stroke-width:1.0;" width="10" x="683.5" y="169.9219"/><rect fill="#FFFFFF" height="322.25" style="stroke:#181818;stroke-width:1.0;" width="10" x="906.5" y="259.2344"/><rect fill="#FFFFFF" height="39.1563" style="stroke:#181818;stroke-width:1.0;" width="10" x="1089.5" y="298.3906"/><rect fill="#FFFFFF" height="39.1563" style="stroke:#181818;stroke-width:1.0;" width="10" x="1229.5" y="376.7031"/><rect fill="#FFFFFF" height="39.1563" style="stroke:#181818;stroke-width:1.0;" width="10" x="1386" y="455.0156"/><polygon fill="#181818" points="671.5,165.9219,681.5,169.9219,671.5,173.9219,675.5,169.9219" style="stroke:#181818;stroke-width:1.0;"/><line style="stroke:#181818;stroke-width:1.0;" x1="91.5" x2="677.5" y1="169.9219" y2="169.9219"/><text fill="#000000" font-family="sans-serif" font-size="20" font-weight="bold" lengthAdjust="spacing" textLength="11" x="98.5" y="163.5273">1</text><text fill="#000000" font-family="sans-serif" font-size="20" lengthAdjust="spacing" textLength="403" x="113.5" y="163.5273">asks to divide a set of stores into two subsets</text><polygon fill="#181818" points="791.5,205.0781,801.5,209.0781,791.5,213.0781,795.5,209.0781" style="stroke:#181818;stroke-width:1.0;"/><line style="stroke:#181818;stroke-width:1.0;" x1="693.5" x2="797.5" y1="209.0781" y2="209.0781"/><text fill="#000000" font-family="sans-serif" font-size="20" font-weight="bold" lengthAdjust="spacing" textLength="11" x="700.5" y="202.6836">2</text><text fill="#000000" font-family="sans-serif" font-size="20" lengthAdjust="spacing" textLength="56" x="715.5" y="202.6836">create</text><rect fill="#E3E3E3" height="39.1563" rx="2.5" ry="2.5" style="stroke:#181818;stroke-width:0.5;" width="216" x="803.5" y="177.9219"/><text fill="#000000" font-family="sans-serif" font-size="20" lengthAdjust="spacing" textLength="202" x="810.5" y="205.6836">:DivideStoresController</text><polygon fill="#181818" points="894.5,255.2344,904.5,259.2344,894.5,263.2344,898.5,259.2344" style="stroke:#181818;stroke-width:1.0;"/><line style="stroke:#181818;stroke-width:1.0;" x1="693.5" x2="900.5" y1="259.2344" y2="259.2344"/><text fill="#000000" font-family="sans-serif" font-size="20" font-weight="bold" lengthAdjust="spacing" textLength="11" x="700.5" y="252.8398">3</text><text fill="#000000" font-family="sans-serif" font-size="20" lengthAdjust="spacing" textLength="179" x="715.5" y="252.8398">getOffersListDeals()</text><polygon fill="#181818" points="1077.5,294.3906,1087.5,298.3906,1077.5,302.3906,1081.5,298.3906" style="stroke:#181818;stroke-width:1.0;"/><line style="stroke:#181818;stroke-width:1.0;" x1="916.5" x2="1083.5" y1="298.3906" y2="298.3906"/><text fill="#000000" font-family="sans-serif" font-size="20" font-weight="bold" lengthAdjust="spacing" textLength="11" x="923.5" y="291.9961">4</text><text fill="#000000" font-family="sans-serif" font-size="20" lengthAdjust="spacing" textLength="116" x="938.5" y="291.9961">getInstance()</text><polygon fill="#181818" points="927.5,333.5469,917.5,337.5469,927.5,341.5469,923.5,337.5469" style="stroke:#181818;stroke-width:1.0;"/><line style="stroke:#181818;stroke-width:1.0;stroke-dasharray:2.0,2.0;" x1="921.5" x2="1093.5" y1="337.5469" y2="337.5469"/><text fill="#000000" font-family="sans-serif" font-size="20" font-weight="bold" lengthAdjust="spacing" textLength="11" x="933.5" y="331.1523">5</text><text fill="#000000" font-family="sans-serif" font-size="20" lengthAdjust="spacing" textLength="103" x="948.5" y="331.1523">repositories</text><polygon fill="#181818" points="1217.5,372.7031,1227.5,376.7031,1217.5,380.7031,1221.5,376.7031" style="stroke:#181818;stroke-width:1.0;"/><line style="stroke:#181818;stroke-width:1.0;" x1="916.5" x2="1223.5" y1="376.7031" y2="376.7031"/><text fill="#000000" font-family="sans-serif" font-size="20" font-weight="bold" lengthAdjust="spacing" textLength="11" x="923.5" y="370.3086">6</text><text fill="#000000" font-family="sans-serif" font-size="20" lengthAdjust="spacing" textLength="185" x="938.5" y="370.3086">getStoreRepository()</text><polygon fill="#181818" points="927.5,411.8594,917.5,415.8594,927.5,419.8594,923.5,415.8594" style="stroke:#181818;stroke-width:1.0;"/><line style="stroke:#181818;stroke-width:1.0;stroke-dasharray:2.0,2.0;" x1="921.5" x2="1233.5" y1="415.8594" y2="415.8594"/><text fill="#000000" font-family="sans-serif" font-size="20" font-weight="bold" lengthAdjust="spacing" textLength="11" x="933.5" y="409.4648">7</text><text fill="#000000" font-family="sans-serif" font-size="20" lengthAdjust="spacing" textLength="140" x="948.5" y="409.4648">storeRepository</text><polygon fill="#181818" points="1374,451.0156,1384,455.0156,1374,459.0156,1378,455.0156" style="stroke:#181818;stroke-width:1.0;"/><line style="stroke:#181818;stroke-width:1.0;" x1="916.5" x2="1380" y1="455.0156" y2="455.0156"/><text fill="#000000" font-family="sans-serif" font-size="20" font-weight="bold" lengthAdjust="spacing" textLength="11" x="923.5" y="448.6211">8</text><text fill="#000000" font-family="sans-serif" font-size="20" lengthAdjust="spacing" textLength="117" x="938.5" y="448.6211">findPartition()</text><polygon fill="#181818" points="927.5,490.1719,917.5,494.1719,927.5,498.1719,923.5,494.1719" style="stroke:#181818;stroke-width:1.0;"/><line style="stroke:#181818;stroke-width:1.0;stroke-dasharray:2.0,2.0;" x1="921.5" x2="1390" y1="494.1719" y2="494.1719"/><text fill="#000000" font-family="sans-serif" font-size="20" font-weight="bold" lengthAdjust="spacing" textLength="11" x="933.5" y="487.7773">9</text><text fill="#000000" font-family="sans-serif" font-size="20" lengthAdjust="spacing" textLength="70" x="948.5" y="487.7773">partition</text><polygon fill="#181818" points="704.5,529.3281,694.5,533.3281,704.5,537.3281,700.5,533.3281" style="stroke:#181818;stroke-width:1.0;"/><line style="stroke:#181818;stroke-width:1.0;stroke-dasharray:2.0,2.0;" x1="698.5" x2="905.5" y1="533.3281" y2="533.3281"/><text fill="#000000" font-family="sans-serif" font-size="20" font-weight="bold" lengthAdjust="spacing" textLength="22" x="710.5" y="526.9336">10</text><text fill="#000000" font-family="sans-serif" font-size="20" lengthAdjust="spacing" textLength="70" x="736.5" y="526.9336">partition</text><polygon fill="#181818" points="102.5,568.4844,92.5,572.4844,102.5,576.4844,98.5,572.4844" style="stroke:#181818;stroke-width:1.0;"/><line style="stroke:#181818;stroke-width:1.0;stroke-dasharray:2.0,2.0;" x1="96.5" x2="687.5" y1="572.4844" y2="572.4844"/><text fill="#000000" font-family="sans-serif" font-size="20" font-weight="bold" lengthAdjust="spacing" textLength="22" x="108.5" y="566.0898">11</text><text fill="#000000" font-family="sans-serif" font-size="20" lengthAdjust="spacing" textLength="542" x="134.5" y="566.0898">shows list of the two subsets and the minimum sum difference</text><!--SRC=[bLNVQzim47xNNt7agIi4khqj3uEnK2YqMvdNjxserjavB4kU93TqV_rEIjBOicCwGI3SZ- -xxtGd-uPC9vrijIqRLA2mahqEjzQ4WluYVBeH_XG2hJMst3dR8WJNuy3JoRAHDHRXLICuB8CqjHu6-9rKTa-cXafgZq842XpwLDny_0nhAF1FZwP4s9AiO_njhxKGGlR1chvzHiV_os0ThBvZs5lNm8CqpEXM83qSRKUJOCf09NNI15XjjlH2Yakp3ltJNOeVcnRYlt4VdDNwo3Flol9_OcSzSGoXJrblXjU2ObjOqZZ53J9-cod0u_tNN-CC7qiuut9ICRQalCmcKW_fHGRCEoQ0pzW6wozPds33e8s7O44b1qZm6C1MaEhnG8Pz30A-VsQFJx1ld5dNepCZo2ZFBRw-tfGE6KGSIZsTz-PpwJM67rM5pj-J3rlaARpwCCAQhNDmowFWd7n0nKNCtFYXWZlZUJLApAX7z7FZCecEPuvbVR456nYEsGHGuVyLS5bydDQ3scp-baId4PzLcU2MP6MxiAHidkMob4m0gwh8gCUuYO6iMH8qsRqvRJd-Ucc0knFjaiBfohzNxTowdod54IbVECxAdWs-a9tTUz2yPl5f23iSFWaWZKgsbWorFNyP-ASeRcRy08XCJ_Pc_0C0]--></g></svg>