<?xml version="1.0" encoding="us-ascii" standalone="no"?><svg xmlns="http://www.w3.org/2000/svg" xmlns:xlink="http://www.w3.org/1999/xlink" contentStyleType="text/css" height="434.4px" preserveAspectRatio="none" style="width:848px;height:434px;background:#FFFFFF;" version="1.1" viewBox="0 0 848 434" width="848.8px" zoomAndPan="magnify"><defs/><g><text fill="#000000" font-family="sans-serif" font-size="11.2" font-weight="bold" lengthAdjust="spacing" textLength="174.4" x="336.4" y="22.1391">US019 - Sequence Diagram Full</text><rect fill="#FFFFFF" height="261.5" style="stroke:#181818;stroke-width:0.8000000000000002;" width="8" x="46.4" y="101.825"/><rect fill="#FFFFFF" height="237.8813" style="stroke:#181818;stroke-width:0.8000000000000002;" width="8" x="376" y="118.2438"/><rect fill="#FFFFFF" height="189.75" style="stroke:#181818;stroke-width:0.8000000000000002;" width="8" x="500.8" y="173.575"/><rect fill="#FFFFFF" height="22.8188" style="stroke:#181818;stroke-width:0.8000000000000002;" width="8" x="611.6" y="196.3938"/><rect fill="#FFFFFF" height="22.8188" style="stroke:#181818;stroke-width:0.8000000000000002;" width="8" x="697.2" y="242.0313"/><rect fill="#FFFFFF" height="22.8188" style="stroke:#181818;stroke-width:0.8000000000000002;" width="8" x="792" y="287.6688"/><line style="stroke:#181818;stroke-width:0.4000000000000001;stroke-dasharray:5.0,5.0;" x1="50.4" x2="50.4" y1="93.825" y2="370.525"/><line style="stroke:#181818;stroke-width:0.4000000000000001;stroke-dasharray:5.0,5.0;" x1="380" x2="380" y1="93.825" y2="370.525"/><line style="stroke:#181818;stroke-width:0.4000000000000001;stroke-dasharray:5.0,5.0;" x1="504.8" x2="504.8" y1="148.9" y2="370.525"/><line style="stroke:#181818;stroke-width:0.4000000000000001;stroke-dasharray:5.0,5.0;" x1="615.2" x2="615.2" y1="93.825" y2="370.525"/><line style="stroke:#181818;stroke-width:0.4000000000000001;stroke-dasharray:5.0,5.0;" x1="700.8" x2="700.8" y1="93.825" y2="370.525"/><line style="stroke:#181818;stroke-width:0.4000000000000001;stroke-dasharray:5.0,5.0;" x1="796" x2="796" y1="93.825" y2="370.525"/><text fill="#000000" font-family="sans-serif" font-size="11.2" lengthAdjust="spacing" textLength="88" x="4" y="91.4516">Network Manager</text><ellipse cx="50.4" cy="40.1125" fill="#E3E3E3" rx="6.4" ry="6.4" style="stroke:#181818;stroke-width:0.4000000000000001;"/><path d="M50.4,46.5125 L50.4,68.1125 M40,52.9125 L60.8,52.9125 M50.4,68.1125 L40,80.1125 M50.4,68.1125 L60.8,80.1125 " fill="none" style="stroke:#181818;stroke-width:0.4000000000000001;"/><text fill="#000000" font-family="sans-serif" font-size="11.2" lengthAdjust="spacing" textLength="88" x="4" y="379.8641">Network Manager</text><ellipse cx="50.4" cy="389.0375" fill="#E3E3E3" rx="6.4" ry="6.4" style="stroke:#181818;stroke-width:0.4000000000000001;"/><path d="M50.4,395.4375 L50.4,417.0375 M40,401.8375 L60.8,401.8375 M50.4,417.0375 L40,429.0375 M50.4,417.0375 L60.8,429.0375 " fill="none" style="stroke:#181818;stroke-width:0.4000000000000001;"/><rect fill="#E3E3E3" height="23.7125" rx="2" ry="2" style="stroke:#181818;stroke-width:0.4000000000000001;" width="88" x="336" y="69.3125"/><text fill="#000000" font-family="sans-serif" font-size="11.2" lengthAdjust="spacing" textLength="76.8" x="341.6" y="85.0516">:DivideStoresUI</text><rect fill="#E3E3E3" height="23.7125" rx="2" ry="2" style="stroke:#181818;stroke-width:0.4000000000000001;" width="88" x="336" y="369.725"/><text fill="#000000" font-family="sans-serif" font-size="11.2" lengthAdjust="spacing" textLength="76.8" x="341.6" y="385.4641">:DivideStoresUI</text><rect fill="#E3E3E3" height="23.7125" rx="2" ry="2" style="stroke:#181818;stroke-width:0.4000000000000001;" width="128" x="440.8" y="369.725"/><text fill="#000000" font-family="sans-serif" font-size="11.2" lengthAdjust="spacing" textLength="116.8" x="446.4" y="385.4641">:DivideStoresController</text><rect fill="#E3E3E3" height="23.7125" rx="2" ry="2" style="stroke:#181818;stroke-width:0.4000000000000001;" width="77.6" x="576.8" y="69.3125"/><text fill="#000000" font-family="sans-serif" font-size="11.2" lengthAdjust="spacing" textLength="66.4" x="582.4" y="85.0516">:Repositories</text><rect fill="#E3E3E3" height="23.7125" rx="2" ry="2" style="stroke:#181818;stroke-width:0.4000000000000001;" width="77.6" x="576.8" y="369.725"/><text fill="#000000" font-family="sans-serif" font-size="11.2" lengthAdjust="spacing" textLength="66.4" x="582.4" y="385.4641">:Repositories</text><rect fill="#E3E3E3" height="36.225" rx="2" ry="2" style="stroke:#181818;stroke-width:0.4000000000000001;" width="77.6" x="662.4" y="56.8"/><text fill="#000000" font-family="sans-serif" font-size="11.2" lengthAdjust="spacing" textLength="59.2" x="671.6" y="72.5391">repositories</text><text fill="#000000" font-family="sans-serif" font-size="11.2" lengthAdjust="spacing" textLength="66.4" x="668" y="85.0516">:Repositories</text><rect fill="#E3E3E3" height="36.225" rx="2" ry="2" style="stroke:#181818;stroke-width:0.4000000000000001;" width="77.6" x="662.4" y="369.725"/><text fill="#000000" font-family="sans-serif" font-size="11.2" lengthAdjust="spacing" textLength="59.2" x="671.6" y="385.4641">repositories</text><text fill="#000000" font-family="sans-serif" font-size="11.2" lengthAdjust="spacing" textLength="66.4" x="668" y="397.9766">:Repositories</text><rect fill="#E3E3E3" height="36.225" rx="2" ry="2" style="stroke:#181818;stroke-width:0.4000000000000001;" width="96" x="748" y="56.8"/><text fill="#000000" font-family="sans-serif" font-size="11.2" lengthAdjust="spacing" textLength="80" x="756" y="72.5391">storeRepository</text><text fill="#000000" font-family="sans-serif" font-size="11.2" lengthAdjust="spacing" textLength="84.8" x="753.6" y="85.0516">:StoreRepository</text><rect fill="#E3E3E3" height="36.225" rx="2" ry="2" style="stroke:#181818;stroke-width:0.4000000000000001;" width="96" x="748" y="369.725"/><text fill="#000000" font-family="sans-serif" font-size="11.2" lengthAdjust="spacing" textLength="80" x="756" y="385.4641">storeRepository</text><text fill="#000000" font-family="sans-serif" font-size="11.2" lengthAdjust="spacing" textLength="84.8" x="753.6" y="397.9766">:StoreRepository</text><rect fill="#FFFFFF" height="261.5" style="stroke:#181818;stroke-width:0.8000000000000002;" width="8" x="46.4" y="101.825"/><rect fill="#FFFFFF" height="237.8813" style="stroke:#181818;stroke-width:0.8000000000000002;" width="8" x="376" y="118.2438"/><rect fill="#FFFFFF" height="189.75" style="stroke:#181818;stroke-width:0.8000000000000002;" width="8" x="500.8" y="173.575"/><rect fill="#FFFFFF" height="22.8188" style="stroke:#181818;stroke-width:0.8000000000000002;" width="8" x="611.6" y="196.3938"/><rect fill="#FFFFFF" height="22.8188" style="stroke:#181818;stroke-width:0.8000000000000002;" width="8" x="697.2" y="242.0313"/><rect fill="#FFFFFF" height="22.8188" style="stroke:#181818;stroke-width:0.8000000000000002;" width="8" x="792" y="287.6688"/><polygon fill="#181818" points="366.4,115.0438,374.4,118.2438,366.4,121.4438,369.6,118.2438" style="stroke:#181818;stroke-width:0.8000000000000002;"/><line style="stroke:#181818;stroke-width:0.8000000000000002;" x1="54.4" x2="371.2" y1="118.2438" y2="118.2438"/><text fill="#000000" font-family="sans-serif" font-size="10.4" font-weight="bold" lengthAdjust="spacing" textLength="5.6" x="60" y="114.4398">1</text><text fill="#000000" font-family="sans-serif" font-size="10.4" lengthAdjust="spacing" textLength="212" x="68.8" y="114.4398">asks to divide a set of stores into two subsets</text><polygon fill="#181818" points="431.2,137.8625,439.2,141.0625,431.2,144.2625,434.4,141.0625" style="stroke:#181818;stroke-width:0.8000000000000002;"/><line style="stroke:#181818;stroke-width:0.8000000000000002;" x1="384" x2="436" y1="141.0625" y2="141.0625"/><text fill="#000000" font-family="sans-serif" font-size="10.4" font-weight="bold" lengthAdjust="spacing" textLength="5.6" x="389.6" y="137.2586">2</text><text fill="#000000" font-family="sans-serif" font-size="10.4" lengthAdjust="spacing" textLength="28.8" x="398.4" y="137.2586">create</text><rect fill="#E3E3E3" height="23.7125" rx="2" ry="2" style="stroke:#181818;stroke-width:0.4000000000000001;" width="128" x="440.8" y="124.6438"/><text fill="#000000" font-family="sans-serif" font-size="11.2" lengthAdjust="spacing" textLength="116.8" x="446.4" y="140.3828">:DivideStoresController</text><polygon fill="#181818" points="491.2,170.375,499.2,173.575,491.2,176.775,494.4,173.575" style="stroke:#181818;stroke-width:0.8000000000000002;"/><line style="stroke:#181818;stroke-width:0.8000000000000002;" x1="384" x2="496" y1="173.575" y2="173.575"/><text fill="#000000" font-family="sans-serif" font-size="10.4" font-weight="bold" lengthAdjust="spacing" textLength="5.6" x="389.6" y="169.7711">3</text><text fill="#000000" font-family="sans-serif" font-size="10.4" lengthAdjust="spacing" textLength="91.2" x="398.4" y="169.7711">getOffersListDeals()</text><polygon fill="#181818" points="602,193.1938,610,196.3938,602,199.5938,605.2,196.3938" style="stroke:#181818;stroke-width:0.8000000000000002;"/><line style="stroke:#181818;stroke-width:0.8000000000000002;" x1="508.8" x2="606.8" y1="196.3938" y2="196.3938"/><text fill="#000000" font-family="sans-serif" font-size="10.4" font-weight="bold" lengthAdjust="spacing" textLength="5.6" x="514.4" y="192.5898">4</text><text fill="#000000" font-family="sans-serif" font-size="10.4" lengthAdjust="spacing" textLength="60" x="523.2" y="192.5898">getInstance()</text><polygon fill="#181818" points="517.6,216.0125,509.6,219.2125,517.6,222.4125,514.4,219.2125" style="stroke:#181818;stroke-width:0.8000000000000002;"/><line style="stroke:#181818;stroke-width:0.8000000000000002;stroke-dasharray:2.0,2.0;" x1="512.8" x2="614.8" y1="219.2125" y2="219.2125"/><text fill="#000000" font-family="sans-serif" font-size="10.4" font-weight="bold" lengthAdjust="spacing" textLength="5.6" x="522.4" y="215.4086">5</text><text fill="#000000" font-family="sans-serif" font-size="10.4" lengthAdjust="spacing" textLength="53.6" x="531.2" y="215.4086">repositories</text><polygon fill="#181818" points="687.6,238.8313,695.6,242.0313,687.6,245.2313,690.8,242.0313" style="stroke:#181818;stroke-width:0.8000000000000002;"/><line style="stroke:#181818;stroke-width:0.8000000000000002;" x1="508.8" x2="692.4" y1="242.0313" y2="242.0313"/><text fill="#000000" font-family="sans-serif" font-size="10.4" font-weight="bold" lengthAdjust="spacing" textLength="5.6" x="514.4" y="238.2273">6</text><text fill="#000000" font-family="sans-serif" font-size="10.4" lengthAdjust="spacing" textLength="95.2" x="523.2" y="238.2273">getStoreRepository()</text><polygon fill="#181818" points="517.6,261.65,509.6,264.85,517.6,268.05,514.4,264.85" style="stroke:#181818;stroke-width:0.8000000000000002;"/><line style="stroke:#181818;stroke-width:0.8000000000000002;stroke-dasharray:2.0,2.0;" x1="512.8" x2="700.4" y1="264.85" y2="264.85"/><text fill="#000000" font-family="sans-serif" font-size="10.4" font-weight="bold" lengthAdjust="spacing" textLength="5.6" x="522.4" y="261.0461">7</text><text fill="#000000" font-family="sans-serif" font-size="10.4" lengthAdjust="spacing" textLength="72.8" x="531.2" y="261.0461">storeRepository</text><polygon fill="#181818" points="782.4,284.4688,790.4,287.6688,782.4,290.8688,785.6,287.6688" style="stroke:#181818;stroke-width:0.8000000000000002;"/><line style="stroke:#181818;stroke-width:0.8000000000000002;" x1="508.8" x2="787.2" y1="287.6688" y2="287.6688"/><text fill="#000000" font-family="sans-serif" font-size="10.4" font-weight="bold" lengthAdjust="spacing" textLength="5.6" x="514.4" y="283.8648">8</text><text fill="#000000" font-family="sans-serif" font-size="10.4" lengthAdjust="spacing" textLength="60.8" x="523.2" y="283.8648">findPartition()</text><polygon fill="#181818" points="517.6,307.2875,509.6,310.4875,517.6,313.6875,514.4,310.4875" style="stroke:#181818;stroke-width:0.8000000000000002;"/><line style="stroke:#181818;stroke-width:0.8000000000000002;stroke-dasharray:2.0,2.0;" x1="512.8" x2="795.2" y1="310.4875" y2="310.4875"/><text fill="#000000" font-family="sans-serif" font-size="10.4" font-weight="bold" lengthAdjust="spacing" textLength="5.6" x="522.4" y="306.6836">9</text><text fill="#000000" font-family="sans-serif" font-size="10.4" lengthAdjust="spacing" textLength="36.8" x="531.2" y="306.6836">partition</text><polygon fill="#181818" points="392.8,330.1063,384.8,333.3063,392.8,336.5063,389.6,333.3063" style="stroke:#181818;stroke-width:0.8000000000000002;"/><line style="stroke:#181818;stroke-width:0.8000000000000002;stroke-dasharray:2.0,2.0;" x1="388" x2="500" y1="333.3063" y2="333.3063"/><text fill="#000000" font-family="sans-serif" font-size="10.4" font-weight="bold" lengthAdjust="spacing" textLength="11.2" x="397.6" y="329.5023">10</text><text fill="#000000" font-family="sans-serif" font-size="10.4" lengthAdjust="spacing" textLength="36.8" x="412" y="329.5023">partition</text><polygon fill="#181818" points="63.2,352.925,55.2,356.125,63.2,359.325,60,356.125" style="stroke:#181818;stroke-width:0.8000000000000002;"/><line style="stroke:#181818;stroke-width:0.8000000000000002;stroke-dasharray:2.0,2.0;" x1="58.4" x2="379.2" y1="356.125" y2="356.125"/><text fill="#000000" font-family="sans-serif" font-size="10.4" font-weight="bold" lengthAdjust="spacing" textLength="11.2" x="68" y="352.3211">11</text><text fill="#000000" font-family="sans-serif" font-size="10.4" lengthAdjust="spacing" textLength="288" x="82.4" y="352.3211">shows list of the two subsets and the minimum sum difference</text><!--SRC=[bLLDRzim3BthLn0vTGK2hCVbC61OCA10jnNpUjj5jMc7Y2rvejoW_twKaYQsh1YTW001FzxZeqYPzsHwxNG7dJMst3dR8NWteEApfzVbNZTO-DSMmM7fjMdQSG3lT6KFP1geTSkeb2SleK_5nxjFi8O2_mveIeGjwIR4VnlQLYcb1s_Dq3sZa_-bjmvMFz0VhDl3Tss4qQr0Cvni9vCIIaybzTfuM6ssz4ALb6OTyjDzZ9-Q5kA_MkETRTiJJzwLvF_2tZ993277hBFXjQ3G5f4qJN6ZZ3zc3l3uyENtD8D32HTSIIgcbfYNs5Ji8RreZsd75CYPsc3zEUaJR0Hqp-0jLD416XWzs1fYFGnan2SWmCEpU3Z2dZcJhWTdGf1GNbfyUxif7Gg8EfRwTjwRBwKtw7_MDJf-8FPRb2cy-J31ojOvkkL9S4e-ef8YCZT-hE3UiAn6YGdrX3utBhFeS78iwwijsC1up6Q05VvV0TV5XsazgatcRqbq7F6ioWYt92lPXILbUPRhKX81egecKps6JVHapPAWsUxbjANuwwK1xjzebnJEL_wzQdFhVg5K9wHquIGhUJRaGdRsmD3AceMdmUzm_2I0DbMqTMIe6-JB8B-AmcQ63u1Az2HlnZy0]--></g></svg>