<?xml version="1.0" encoding="UTF-8" standalone="no"?><svg xmlns="http://www.w3.org/2000/svg" xmlns:xlink="http://www.w3.org/1999/xlink" contentStyleType="text/css" height="466px" preserveAspectRatio="none" style="width:899px;height:466px;background:#FFFFFF;" version="1.1" viewBox="0 0 899 466" width="899px" zoomAndPan="magnify"><defs/><g><rect fill="none" height="27.6094" id="_title" style="stroke:none;stroke-width:1.0;" width="294" x="301.75" y="10"/><text fill="#000000" font-family="sans-serif" font-size="14" font-weight="bold" lengthAdjust="spacing" textLength="284" x="306.75" y="29.5332">US011 - System Sequence Diagram (SSD)</text><rect fill="#FFFFFF" height="234.8125" style="stroke:#181818;stroke-width:1.0;" width="10" x="21.5" y="131.2188"/><rect fill="#FFFFFF" height="30.3516" style="stroke:#181818;stroke-width:1.0;" width="10" x="856.5" y="153.5703"/><rect fill="#FFFFFF" height="30.3516" style="stroke:#181818;stroke-width:1.0;" width="10" x="856.5" y="214.2734"/><rect fill="#FFFFFF" height="30.3516" style="stroke:#181818;stroke-width:1.0;" width="10" x="856.5" y="274.9766"/><rect fill="#FFFFFF" height="30.3516" style="stroke:#181818;stroke-width:1.0;" width="10" x="856.5" y="335.6797"/><line style="stroke:#181818;stroke-width:0.5;stroke-dasharray:5.0,5.0;" x1="26" x2="26" y1="121.2188" y2="384.0313"/><line style="stroke:#181818;stroke-width:0.5;stroke-dasharray:5.0,5.0;" x1="861.5" x2="861.5" y1="121.2188" y2="384.0313"/><text fill="#000000" font-family="sans-serif" font-size="14" lengthAdjust="spacing" textLength="37" x="5" y="118.1426">Agent</text><ellipse cx="26.5" cy="52.1094" fill="#E3E3E3" rx="8" ry="8" style="stroke:#181818;stroke-width:0.5;"/><path d="M26.5,60.1094 L26.5,87.1094 M13.5,68.1094 L39.5,68.1094 M26.5,87.1094 L13.5,102.1094 M26.5,87.1094 L39.5,102.1094 " fill="none" style="stroke:#181818;stroke-width:0.5;"/><text fill="#000000" font-family="sans-serif" font-size="14" lengthAdjust="spacing" textLength="37" x="5" y="397.5645">Agent</text><ellipse cx="26.5" cy="409.1406" fill="#E3E3E3" rx="8" ry="8" style="stroke:#181818;stroke-width:0.5;"/><path d="M26.5,417.1406 L26.5,444.1406 M13.5,425.1406 L39.5,425.1406 M26.5,444.1406 L13.5,459.1406 M26.5,444.1406 L39.5,459.1406 " fill="none" style="stroke:#181818;stroke-width:0.5;"/><rect fill="#E3E3E3" height="31.6094" rx="2.5" ry="2.5" style="stroke:#181818;stroke-width:0.5;" width="64" x="829.5" y="88.6094"/><text fill="#000000" font-family="sans-serif" font-size="14" lengthAdjust="spacing" textLength="50" x="836.5" y="110.1426">:System</text><rect fill="#E3E3E3" height="31.6094" rx="2.5" ry="2.5" style="stroke:#181818;stroke-width:0.5;" width="64" x="829.5" y="383.0313"/><text fill="#000000" font-family="sans-serif" font-size="14" lengthAdjust="spacing" textLength="50" x="836.5" y="404.5645">:System</text><rect fill="#FFFFFF" height="234.8125" style="stroke:#181818;stroke-width:1.0;" width="10" x="21.5" y="131.2188"/><rect fill="#FFFFFF" height="30.3516" style="stroke:#181818;stroke-width:1.0;" width="10" x="856.5" y="153.5703"/><rect fill="#FFFFFF" height="30.3516" style="stroke:#181818;stroke-width:1.0;" width="10" x="856.5" y="214.2734"/><rect fill="#FFFFFF" height="30.3516" style="stroke:#181818;stroke-width:1.0;" width="10" x="856.5" y="274.9766"/><rect fill="#FFFFFF" height="30.3516" style="stroke:#181818;stroke-width:1.0;" width="10" x="856.5" y="335.6797"/><polygon fill="#181818" points="844.5,149.5703,854.5,153.5703,844.5,157.5703,848.5,153.5703" style="stroke:#181818;stroke-width:1.0;"/><line style="stroke:#181818;stroke-width:1.0;" x1="31.5" x2="850.5" y1="153.5703" y2="153.5703"/><text fill="#000000" font-family="sans-serif" font-size="13" font-weight="bold" lengthAdjust="spacing" textLength="7" x="38.5" y="148.7139">1</text><text fill="#000000" font-family="sans-serif" font-size="13" lengthAdjust="spacing" textLength="357" x="49.5" y="148.7139">asks for a list of real estate purchase orders for every property</text><polygon fill="#181818" points="42.5,179.9219,32.5,183.9219,42.5,187.9219,38.5,183.9219" style="stroke:#181818;stroke-width:1.0;"/><line style="stroke:#181818;stroke-width:1.0;stroke-dasharray:2.0,2.0;" x1="36.5" x2="860.5" y1="183.9219" y2="183.9219"/><text fill="#000000" font-family="sans-serif" font-size="13" font-weight="bold" lengthAdjust="spacing" textLength="7" x="48.5" y="179.0654">2</text><text fill="#000000" font-family="sans-serif" font-size="13" lengthAdjust="spacing" textLength="790" x="59.5" y="179.0654">shows the list of purchase orders (Property, client's email, offer ID and offer value) and asks what property does the agent want to choose</text><polygon fill="#181818" points="844.5,210.2734,854.5,214.2734,844.5,218.2734,848.5,214.2734" style="stroke:#181818;stroke-width:1.0;"/><line style="stroke:#181818;stroke-width:1.0;" x1="31.5" x2="850.5" y1="214.2734" y2="214.2734"/><text fill="#000000" font-family="sans-serif" font-size="13" font-weight="bold" lengthAdjust="spacing" textLength="7" x="38.5" y="209.417">3</text><text fill="#000000" font-family="sans-serif" font-size="13" lengthAdjust="spacing" textLength="122" x="49.5" y="209.417">chooses the property</text><polygon fill="#181818" points="42.5,240.625,32.5,244.625,42.5,248.625,38.5,244.625" style="stroke:#181818;stroke-width:1.0;"/><line style="stroke:#181818;stroke-width:1.0;stroke-dasharray:2.0,2.0;" x1="36.5" x2="860.5" y1="244.625" y2="244.625"/><text fill="#000000" font-family="sans-serif" font-size="13" font-weight="bold" lengthAdjust="spacing" textLength="7" x="48.5" y="239.7686">4</text><text fill="#000000" font-family="sans-serif" font-size="13" lengthAdjust="spacing" textLength="690" x="59.5" y="239.7686">shows property details and offers correspondent to the property and also asks what offer does the agent want to choose</text><polygon fill="#181818" points="844.5,270.9766,854.5,274.9766,844.5,278.9766,848.5,274.9766" style="stroke:#181818;stroke-width:1.0;"/><line style="stroke:#181818;stroke-width:1.0;" x1="31.5" x2="850.5" y1="274.9766" y2="274.9766"/><text fill="#000000" font-family="sans-serif" font-size="13" font-weight="bold" lengthAdjust="spacing" textLength="7" x="38.5" y="270.1201">5</text><text fill="#000000" font-family="sans-serif" font-size="13" lengthAdjust="spacing" textLength="99" x="49.5" y="270.1201">chooses the offer</text><polygon fill="#181818" points="42.5,301.3281,32.5,305.3281,42.5,309.3281,38.5,305.3281" style="stroke:#181818;stroke-width:1.0;"/><line style="stroke:#181818;stroke-width:1.0;stroke-dasharray:2.0,2.0;" x1="36.5" x2="860.5" y1="305.3281" y2="305.3281"/><text fill="#000000" font-family="sans-serif" font-size="13" font-weight="bold" lengthAdjust="spacing" textLength="7" x="48.5" y="300.4717">6</text><text fill="#000000" font-family="sans-serif" font-size="13" lengthAdjust="spacing" textLength="302" x="59.5" y="300.4717">asks if the agent wants to accept or decline the offer</text><polygon fill="#181818" points="844.5,331.6797,854.5,335.6797,844.5,339.6797,848.5,335.6797" style="stroke:#181818;stroke-width:1.0;"/><line style="stroke:#181818;stroke-width:1.0;" x1="31.5" x2="850.5" y1="335.6797" y2="335.6797"/><text fill="#000000" font-family="sans-serif" font-size="13" font-weight="bold" lengthAdjust="spacing" textLength="7" x="38.5" y="330.8232">7</text><text fill="#000000" font-family="sans-serif" font-size="13" lengthAdjust="spacing" textLength="163" x="49.5" y="330.8232">accepts or declines the offer</text><polygon fill="#181818" points="37.5,362.0313,27.5,366.0313,37.5,370.0313,33.5,366.0313" style="stroke:#181818;stroke-width:1.0;"/><line style="stroke:#181818;stroke-width:1.0;stroke-dasharray:2.0,2.0;" x1="31.5" x2="860.5" y1="366.0313" y2="366.0313"/><text fill="#000000" font-family="sans-serif" font-size="13" font-weight="bold" lengthAdjust="spacing" textLength="7" x="43.5" y="361.1748">8</text><text fill="#000000" font-family="sans-serif" font-size="13" lengthAdjust="spacing" textLength="158" x="54.5" y="361.1748">displays operation success</text><!--MD5=[325a57611f4555e3ecd7065e468a9bcb]
@startuml

skinparam monochrome true
skinparam packageStyle rectangle
skinparam shadowing false

title US011 - System Sequence Diagram (SSD)

autonumber

actor "Agent" as agent
participant ":System" as sys

activate agent


agent -> sys : asks for a list of real estate purchase orders for every property
activate sys
sys - -> agent : shows the list of purchase orders (Property, client's email, offer ID and offer value) and asks what property does the agent want to choose
deactivate sys

agent -> sys : chooses the property
activate sys
sys - -> agent : shows property details and offers correspondent to the property and also asks what offer does the agent want to choose
deactivate sys

agent -> sys : chooses the offer
activate sys
sys - -> agent : asks if the agent wants to accept or decline the offer
deactivate sys

agent -> sys : accepts or declines the offer
activate sys
sys - -> agent : displays operation success
deactivate sys

deactivate agent
@enduml

PlantUML version 1.2022.7(Mon Aug 22 18:01:30 WEST 2022)
(GPL source distribution)
Java Runtime: OpenJDK Runtime Environment
JVM: OpenJDK 64-Bit Server VM
Default Encoding: Cp1252
Language: pt
Country: PT
--></g></svg>