<?xml version="1.0" encoding="us-ascii" standalone="no"?><svg xmlns="http://www.w3.org/2000/svg" xmlns:xlink="http://www.w3.org/1999/xlink" contentStyleType="text/css" height="851.5px" preserveAspectRatio="none" style="width:1196px;height:851px;background:#FFFFFF;" version="1.1" viewBox="0 0 1196 851" width="1196px" zoomAndPan="magnify"><defs/><g><text fill="#000000" font-family="sans-serif" font-size="7" font-weight="bold" lengthAdjust="spacing" textLength="77.5" x="555.875" y="11.3369">US002 - Class Diagram</text><!--class PublishAnnouncementUI--><g id="elem_PublishAnnouncementUI"><rect codeLine="12" fill="#F1F1F1" height="24" id="PublishAnnouncementUI" rx="1.25" ry="1.25" style="stroke:#181818;stroke-width:0.25;" width="92.5" x="90" y="53.0703"/><ellipse cx="97.5" cy="61.0703" fill="#ADD1B2" rx="5.5" ry="5.5" style="stroke:#181818;stroke-width:0.5;"/><path d="M98.8828,59.0078 Q98.9609,58.8984 99.0547,58.8438 Q99.1484,58.7891 99.2578,58.7891 Q99.4453,58.7891 99.5625,58.9219 Q99.6797,59.0469 99.6797,59.3516 L99.6797,60.0781 Q99.6797,60.3828 99.5625,60.5156 Q99.4453,60.6484 99.2578,60.6484 Q99.0859,60.6484 98.9844,60.5469 Q98.8828,60.4531 98.8281,60.1953 Q98.8047,60.0156 98.7109,59.9219 Q98.5469,59.7344 98.2422,59.625 Q97.9375,59.5156 97.625,59.5156 Q97.2422,59.5156 96.9219,59.6797 Q96.6094,59.8438 96.3594,60.2188 Q96.1172,60.5938 96.1172,61.1094 L96.1172,61.6563 Q96.1172,62.2734 96.5625,62.6875 Q97.0078,63.0938 97.8047,63.0938 Q98.2734,63.0938 98.6016,62.9688 Q98.7969,62.8906 99.0078,62.6719 Q99.1406,62.5391 99.2109,62.5 Q99.2891,62.4609 99.3906,62.4609 Q99.5547,62.4609 99.6797,62.5938 Q99.8125,62.7188 99.8125,62.8906 Q99.8125,63.0625 99.6406,63.2656 Q99.3906,63.5547 98.9922,63.7188 Q98.4531,63.9453 97.8047,63.9453 Q97.0469,63.9453 96.4453,63.6328 Q95.9531,63.3828 95.6094,62.8516 Q95.2656,62.3125 95.2656,61.6719 L95.2656,61.0938 Q95.2656,60.4297 95.5703,59.8594 Q95.8828,59.2813 96.4297,58.9766 Q96.9766,58.6641 97.5938,58.6641 Q97.9609,58.6641 98.2813,58.75 Q98.6094,58.8281 98.8828,59.0078 Z " fill="#000000"/><text fill="#000000" font-family="sans-serif" font-size="7" lengthAdjust="spacing" textLength="76.5" x="104.5" y="63.4971">PublishAnnouncementUI</text><line style="stroke:#181818;stroke-width:0.25;" x1="90.5" x2="182" y1="69.0703" y2="69.0703"/><line style="stroke:#181818;stroke-width:0.25;" x1="90.5" x2="182" y1="73.0703" y2="73.0703"/></g><!--class PublishAnnouncementController--><g id="elem_PublishAnnouncementController"><rect codeLine="15" fill="#F1F1F1" height="55.2813" id="PublishAnnouncementController" rx="1.25" ry="1.25" style="stroke:#181818;stroke-width:0.25;" width="278.5" x="200" y="37.3203"/><ellipse cx="286.375" cy="45.3203" fill="#ADD1B2" rx="5.5" ry="5.5" style="stroke:#181818;stroke-width:0.5;"/><path d="M287.7578,43.2578 Q287.8359,43.1484 287.9297,43.0938 Q288.0234,43.0391 288.1328,43.0391 Q288.3203,43.0391 288.4375,43.1719 Q288.5547,43.2969 288.5547,43.6016 L288.5547,44.3281 Q288.5547,44.6328 288.4375,44.7656 Q288.3203,44.8984 288.1328,44.8984 Q287.9609,44.8984 287.8594,44.7969 Q287.7578,44.7031 287.7031,44.4453 Q287.6797,44.2656 287.5859,44.1719 Q287.4219,43.9844 287.1172,43.875 Q286.8125,43.7656 286.5,43.7656 Q286.1172,43.7656 285.7969,43.9297 Q285.4844,44.0938 285.2344,44.4688 Q284.9922,44.8438 284.9922,45.3594 L284.9922,45.9063 Q284.9922,46.5234 285.4375,46.9375 Q285.8828,47.3438 286.6797,47.3438 Q287.1484,47.3438 287.4766,47.2188 Q287.6719,47.1406 287.8828,46.9219 Q288.0156,46.7891 288.0859,46.75 Q288.1641,46.7109 288.2656,46.7109 Q288.4297,46.7109 288.5547,46.8438 Q288.6875,46.9688 288.6875,47.1406 Q288.6875,47.3125 288.5156,47.5156 Q288.2656,47.8047 287.8672,47.9688 Q287.3281,48.1953 286.6797,48.1953 Q285.9219,48.1953 285.3203,47.8828 Q284.8281,47.6328 284.4844,47.1016 Q284.1406,46.5625 284.1406,45.9219 L284.1406,45.3438 Q284.1406,44.6797 284.4453,44.1094 Q284.7578,43.5313 285.3047,43.2266 Q285.8516,42.9141 286.4688,42.9141 Q286.8359,42.9141 287.1563,43 Q287.4844,43.0781 287.7578,43.2578 Z " fill="#000000"/><text fill="#000000" font-family="sans-serif" font-size="7" lengthAdjust="spacing" textLength="101.5" x="296.625" y="47.7471">PublishAnnouncementController</text><line style="stroke:#181818;stroke-width:0.25;" x1="200.5" x2="478" y1="53.3203" y2="53.3203"/><line style="stroke:#181818;stroke-width:0.25;" x1="200.5" x2="478" y1="57.3203" y2="57.3203"/><ellipse cx="205.5" cy="63.9805" fill="#84BE84" rx="1.5" ry="1.5" style="stroke:#038048;stroke-width:0.5;"/><text fill="#000000" font-family="sans-serif" font-size="7" lengthAdjust="spacing" textLength="265.5" x="210" y="65.6572">publishAnnouncementController(propertyTypeRepository,announcementRepository)</text><ellipse cx="205.5" cy="71.8008" fill="#84BE84" rx="1.5" ry="1.5" style="stroke:#038048;stroke-width:0.5;"/><text fill="#000000" font-family="sans-serif" font-size="7" lengthAdjust="spacing" textLength="66" x="210" y="73.4775">getAnnouncements()</text><ellipse cx="205.5" cy="83.5313" fill="#84BE84" rx="1.5" ry="1.5" style="stroke:#038048;stroke-width:0.5;"/><text fill="#000000" font-family="sans-serif" font-size="7" lengthAdjust="spacing" textLength="237" x="210" y="81.2979">publishAnnouncement(propertyType, description, cost, informalDescription,</text><text fill="#000000" font-family="sans-serif" font-size="7" lengthAdjust="spacing" textLength="191.5" x="210" y="89.1182">technicalDescription, durationOfAnnouncement, designation)</text></g><!--class Repositories--><g id="elem_Repositories"><rect codeLine="175" fill="#F1F1F1" height="86.5625" id="Repositories" rx="1.25" ry="1.25" style="stroke:#181818;stroke-width:0.25;" width="109.5" x="530.5" y="21.8203"/><ellipse cx="563.375" cy="29.8203" fill="#ADD1B2" rx="5.5" ry="5.5" style="stroke:#181818;stroke-width:0.5;"/><path d="M564.7578,27.7578 Q564.8359,27.6484 564.9297,27.5938 Q565.0234,27.5391 565.1328,27.5391 Q565.3203,27.5391 565.4375,27.6719 Q565.5547,27.7969 565.5547,28.1016 L565.5547,28.8281 Q565.5547,29.1328 565.4375,29.2656 Q565.3203,29.3984 565.1328,29.3984 Q564.9609,29.3984 564.8594,29.2969 Q564.7578,29.2031 564.7031,28.9453 Q564.6797,28.7656 564.5859,28.6719 Q564.4219,28.4844 564.1172,28.375 Q563.8125,28.2656 563.5,28.2656 Q563.1172,28.2656 562.7969,28.4297 Q562.4844,28.5938 562.2344,28.9688 Q561.9922,29.3438 561.9922,29.8594 L561.9922,30.4063 Q561.9922,31.0234 562.4375,31.4375 Q562.8828,31.8438 563.6797,31.8438 Q564.1484,31.8438 564.4766,31.7188 Q564.6719,31.6406 564.8828,31.4219 Q565.0156,31.2891 565.0859,31.25 Q565.1641,31.2109 565.2656,31.2109 Q565.4297,31.2109 565.5547,31.3438 Q565.6875,31.4688 565.6875,31.6406 Q565.6875,31.8125 565.5156,32.0156 Q565.2656,32.3047 564.8672,32.4688 Q564.3281,32.6953 563.6797,32.6953 Q562.9219,32.6953 562.3203,32.3828 Q561.8281,32.1328 561.4844,31.6016 Q561.1406,31.0625 561.1406,30.4219 L561.1406,29.8438 Q561.1406,29.1797 561.4453,28.6094 Q561.7578,28.0313 562.3047,27.7266 Q562.8516,27.4141 563.4688,27.4141 Q563.8359,27.4141 564.1563,27.5 Q564.4844,27.5781 564.7578,27.7578 Z " fill="#000000"/><text fill="#000000" font-family="sans-serif" font-size="7" lengthAdjust="spacing" textLength="39.5" x="573.625" y="32.2471">Repositories</text><line style="stroke:#181818;stroke-width:0.25;" x1="531" x2="639.5" y1="37.8203" y2="37.8203"/><ellipse cx="536" cy="44.4805" fill="none" rx="1.5" ry="1.5" style="stroke:#038048;stroke-width:0.5;"/><text fill="#000000" font-family="sans-serif" font-size="7" lengthAdjust="spacing" textLength="81" x="540.5" y="46.1572">getUserIdentityRepository</text><ellipse cx="536" cy="52.3008" fill="none" rx="1.5" ry="1.5" style="stroke:#038048;stroke-width:0.5;"/><text fill="#000000" font-family="sans-serif" font-size="7" lengthAdjust="spacing" textLength="92.5" x="540.5" y="53.9775">getTypeComissionRepository</text><line style="stroke:#181818;stroke-width:0.25;" x1="531" x2="639.5" y1="57.4609" y2="57.4609"/><rect fill="#F24D5C" height="3" style="stroke:#C82930;stroke-width:0.5;" width="3" x="534.5" y="62.6211"/><text fill="#000000" font-family="sans-serif" font-size="7" lengthAdjust="spacing" textLength="44.5" x="540.5" y="65.7979">Repositories()</text><text fill="#000000" font-family="sans-serif" font-size="7" lengthAdjust="spacing" textLength="2" x="540.5" y="73.6182">&#160;</text><ellipse cx="536" cy="79.7617" fill="#84BE84" rx="1.5" ry="1.5" style="stroke:#038048;stroke-width:0.5;"/><text fill="#000000" font-family="sans-serif" font-size="7" lengthAdjust="spacing" textLength="83" x="540.5" y="81.4385">getInstance():Repositories</text><ellipse cx="536" cy="87.582" fill="#84BE84" rx="1.5" ry="1.5" style="stroke:#038048;stroke-width:0.5;"/><text fill="#000000" font-family="sans-serif" font-size="7" lengthAdjust="spacing" textLength="96.5" x="540.5" y="89.2588">getAnnouncementRepository()</text><ellipse cx="536" cy="95.4023" fill="#84BE84" rx="1.5" ry="1.5" style="stroke:#038048;stroke-width:0.5;"/><text fill="#000000" font-family="sans-serif" font-size="7" lengthAdjust="spacing" textLength="76" x="540.5" y="97.0791">getPropertyRepository()</text><ellipse cx="536" cy="103.2227" fill="#84BE84" rx="1.5" ry="1.5" style="stroke:#038048;stroke-width:0.5;"/><text fill="#000000" font-family="sans-serif" font-size="7" lengthAdjust="spacing" textLength="96.5" x="540.5" y="104.8994">getAnnouncementRepository()</text></g><!--class AnnouncementRepository--><g id="elem_AnnouncementRepository"><rect codeLine="34" fill="#F1F1F1" height="31.8203" id="AnnouncementRepository" rx="1.25" ry="1.25" style="stroke:#181818;stroke-width:0.25;" width="97.5" x="429" y="146.3203"/><ellipse cx="436.5" cy="154.3203" fill="#ADD1B2" rx="5.5" ry="5.5" style="stroke:#181818;stroke-width:0.5;"/><path d="M437.8828,152.2578 Q437.9609,152.1484 438.0547,152.0938 Q438.1484,152.0391 438.2578,152.0391 Q438.4453,152.0391 438.5625,152.1719 Q438.6797,152.2969 438.6797,152.6016 L438.6797,153.3281 Q438.6797,153.6328 438.5625,153.7656 Q438.4453,153.8984 438.2578,153.8984 Q438.0859,153.8984 437.9844,153.7969 Q437.8828,153.7031 437.8281,153.4453 Q437.8047,153.2656 437.7109,153.1719 Q437.5469,152.9844 437.2422,152.875 Q436.9375,152.7656 436.625,152.7656 Q436.2422,152.7656 435.9219,152.9297 Q435.6094,153.0938 435.3594,153.4688 Q435.1172,153.8438 435.1172,154.3594 L435.1172,154.9063 Q435.1172,155.5234 435.5625,155.9375 Q436.0078,156.3438 436.8047,156.3438 Q437.2734,156.3438 437.6016,156.2188 Q437.7969,156.1406 438.0078,155.9219 Q438.1406,155.7891 438.2109,155.75 Q438.2891,155.7109 438.3906,155.7109 Q438.5547,155.7109 438.6797,155.8438 Q438.8125,155.9688 438.8125,156.1406 Q438.8125,156.3125 438.6406,156.5156 Q438.3906,156.8047 437.9922,156.9688 Q437.4531,157.1953 436.8047,157.1953 Q436.0469,157.1953 435.4453,156.8828 Q434.9531,156.6328 434.6094,156.1016 Q434.2656,155.5625 434.2656,154.9219 L434.2656,154.3438 Q434.2656,153.6797 434.5703,153.1094 Q434.8828,152.5313 435.4297,152.2266 Q435.9766,151.9141 436.5938,151.9141 Q436.9609,151.9141 437.2813,152 Q437.6094,152.0781 437.8828,152.2578 Z " fill="#000000"/><text fill="#000000" font-family="sans-serif" font-size="7" lengthAdjust="spacing" textLength="81.5" x="443.5" y="156.7471">AnnouncementRepository</text><line style="stroke:#181818;stroke-width:0.25;" x1="429.5" x2="526" y1="162.3203" y2="162.3203"/><line style="stroke:#181818;stroke-width:0.25;" x1="429.5" x2="526" y1="166.3203" y2="166.3203"/><ellipse cx="434.5" cy="172.9805" fill="#84BE84" rx="1.5" ry="1.5" style="stroke:#038048;stroke-width:0.5;"/><text fill="#000000" font-family="sans-serif" font-size="7" lengthAdjust="spacing" textLength="66" x="439" y="174.6572">getAnnouncements()</text></g><!--class PropertyTypeRepository--><g id="elem_PropertyTypeRepository"><rect codeLine="38" fill="#F1F1F1" height="31.8203" id="PropertyTypeRepository" rx="1.25" ry="1.25" style="stroke:#181818;stroke-width:0.25;" width="93" x="503.25" y="193.3203"/><ellipse cx="510.75" cy="201.3203" fill="#ADD1B2" rx="5.5" ry="5.5" style="stroke:#181818;stroke-width:0.5;"/><path d="M512.1328,199.2578 Q512.2109,199.1484 512.3047,199.0938 Q512.3984,199.0391 512.5078,199.0391 Q512.6953,199.0391 512.8125,199.1719 Q512.9297,199.2969 512.9297,199.6016 L512.9297,200.3281 Q512.9297,200.6328 512.8125,200.7656 Q512.6953,200.8984 512.5078,200.8984 Q512.3359,200.8984 512.2344,200.7969 Q512.1328,200.7031 512.0781,200.4453 Q512.0547,200.2656 511.9609,200.1719 Q511.7969,199.9844 511.4922,199.875 Q511.1875,199.7656 510.875,199.7656 Q510.4922,199.7656 510.1719,199.9297 Q509.8594,200.0938 509.6094,200.4688 Q509.3672,200.8438 509.3672,201.3594 L509.3672,201.9063 Q509.3672,202.5234 509.8125,202.9375 Q510.2578,203.3438 511.0547,203.3438 Q511.5234,203.3438 511.8516,203.2188 Q512.0469,203.1406 512.2578,202.9219 Q512.3906,202.7891 512.4609,202.75 Q512.5391,202.7109 512.6406,202.7109 Q512.8047,202.7109 512.9297,202.8438 Q513.0625,202.9688 513.0625,203.1406 Q513.0625,203.3125 512.8906,203.5156 Q512.6406,203.8047 512.2422,203.9688 Q511.7031,204.1953 511.0547,204.1953 Q510.2969,204.1953 509.6953,203.8828 Q509.2031,203.6328 508.8594,203.1016 Q508.5156,202.5625 508.5156,201.9219 L508.5156,201.3438 Q508.5156,200.6797 508.8203,200.1094 Q509.1328,199.5313 509.6797,199.2266 Q510.2266,198.9141 510.8438,198.9141 Q511.2109,198.9141 511.5313,199 Q511.8594,199.0781 512.1328,199.2578 Z " fill="#000000"/><text fill="#000000" font-family="sans-serif" font-size="7" lengthAdjust="spacing" textLength="77" x="517.75" y="203.7471">PropertyTypeRepository</text><line style="stroke:#181818;stroke-width:0.25;" x1="503.75" x2="595.75" y1="209.3203" y2="209.3203"/><line style="stroke:#181818;stroke-width:0.25;" x1="503.75" x2="595.75" y1="213.3203" y2="213.3203"/><ellipse cx="508.75" cy="219.9805" fill="#84BE84" rx="1.5" ry="1.5" style="stroke:#038048;stroke-width:0.5;"/><text fill="#000000" font-family="sans-serif" font-size="7" lengthAdjust="spacing" textLength="58" x="513.25" y="221.6572">getPropertyType()</text></g><!--class UserIdentityRepository--><g id="elem_UserIdentityRepository"><rect codeLine="42" fill="#F1F1F1" height="31.8203" id="UserIdentityRepository" rx="1.25" ry="1.25" style="stroke:#181818;stroke-width:0.25;" width="87" x="579.75" y="146.3203"/><ellipse cx="587.25" cy="154.3203" fill="#ADD1B2" rx="5.5" ry="5.5" style="stroke:#181818;stroke-width:0.5;"/><path d="M588.6328,152.2578 Q588.7109,152.1484 588.8047,152.0938 Q588.8984,152.0391 589.0078,152.0391 Q589.1953,152.0391 589.3125,152.1719 Q589.4297,152.2969 589.4297,152.6016 L589.4297,153.3281 Q589.4297,153.6328 589.3125,153.7656 Q589.1953,153.8984 589.0078,153.8984 Q588.8359,153.8984 588.7344,153.7969 Q588.6328,153.7031 588.5781,153.4453 Q588.5547,153.2656 588.4609,153.1719 Q588.2969,152.9844 587.9922,152.875 Q587.6875,152.7656 587.375,152.7656 Q586.9922,152.7656 586.6719,152.9297 Q586.3594,153.0938 586.1094,153.4688 Q585.8672,153.8438 585.8672,154.3594 L585.8672,154.9063 Q585.8672,155.5234 586.3125,155.9375 Q586.7578,156.3438 587.5547,156.3438 Q588.0234,156.3438 588.3516,156.2188 Q588.5469,156.1406 588.7578,155.9219 Q588.8906,155.7891 588.9609,155.75 Q589.0391,155.7109 589.1406,155.7109 Q589.3047,155.7109 589.4297,155.8438 Q589.5625,155.9688 589.5625,156.1406 Q589.5625,156.3125 589.3906,156.5156 Q589.1406,156.8047 588.7422,156.9688 Q588.2031,157.1953 587.5547,157.1953 Q586.7969,157.1953 586.1953,156.8828 Q585.7031,156.6328 585.3594,156.1016 Q585.0156,155.5625 585.0156,154.9219 L585.0156,154.3438 Q585.0156,153.6797 585.3203,153.1094 Q585.6328,152.5313 586.1797,152.2266 Q586.7266,151.9141 587.3438,151.9141 Q587.7109,151.9141 588.0313,152 Q588.3594,152.0781 588.6328,152.2578 Z " fill="#000000"/><text fill="#000000" font-family="sans-serif" font-size="7" lengthAdjust="spacing" textLength="71" x="594.25" y="156.7471">UserIdentityRepository</text><line style="stroke:#181818;stroke-width:0.25;" x1="580.25" x2="666.25" y1="162.3203" y2="162.3203"/><line style="stroke:#181818;stroke-width:0.25;" x1="580.25" x2="666.25" y1="166.3203" y2="166.3203"/><ellipse cx="585.25" cy="172.9805" fill="#84BE84" rx="1.5" ry="1.5" style="stroke:#038048;stroke-width:0.5;"/><text fill="#000000" font-family="sans-serif" font-size="7" lengthAdjust="spacing" textLength="52" x="589.75" y="174.6572">getUserIdentity()</text></g><!--class TypeComissionRepository--><g id="elem_TypeComissionRepository"><rect codeLine="46" fill="#F1F1F1" height="31.8203" id="TypeComissionRepository" rx="1.25" ry="1.25" style="stroke:#181818;stroke-width:0.25;" width="98.5" x="933" y="193.3203"/><ellipse cx="940.5" cy="201.3203" fill="#ADD1B2" rx="5.5" ry="5.5" style="stroke:#181818;stroke-width:0.5;"/><path d="M941.8828,199.2578 Q941.9609,199.1484 942.0547,199.0938 Q942.1484,199.0391 942.2578,199.0391 Q942.4453,199.0391 942.5625,199.1719 Q942.6797,199.2969 942.6797,199.6016 L942.6797,200.3281 Q942.6797,200.6328 942.5625,200.7656 Q942.4453,200.8984 942.2578,200.8984 Q942.0859,200.8984 941.9844,200.7969 Q941.8828,200.7031 941.8281,200.4453 Q941.8047,200.2656 941.7109,200.1719 Q941.5469,199.9844 941.2422,199.875 Q940.9375,199.7656 940.625,199.7656 Q940.2422,199.7656 939.9219,199.9297 Q939.6094,200.0938 939.3594,200.4688 Q939.1172,200.8438 939.1172,201.3594 L939.1172,201.9063 Q939.1172,202.5234 939.5625,202.9375 Q940.0078,203.3438 940.8047,203.3438 Q941.2734,203.3438 941.6016,203.2188 Q941.7969,203.1406 942.0078,202.9219 Q942.1406,202.7891 942.2109,202.75 Q942.2891,202.7109 942.3906,202.7109 Q942.5547,202.7109 942.6797,202.8438 Q942.8125,202.9688 942.8125,203.1406 Q942.8125,203.3125 942.6406,203.5156 Q942.3906,203.8047 941.9922,203.9688 Q941.4531,204.1953 940.8047,204.1953 Q940.0469,204.1953 939.4453,203.8828 Q938.9531,203.6328 938.6094,203.1016 Q938.2656,202.5625 938.2656,201.9219 L938.2656,201.3438 Q938.2656,200.6797 938.5703,200.1094 Q938.8828,199.5313 939.4297,199.2266 Q939.9766,198.9141 940.5938,198.9141 Q940.9609,198.9141 941.2813,199 Q941.6094,199.0781 941.8828,199.2578 Z " fill="#000000"/><text fill="#000000" font-family="sans-serif" font-size="7" lengthAdjust="spacing" textLength="82.5" x="947.5" y="203.7471">TypeComissionRepository</text><line style="stroke:#181818;stroke-width:0.25;" x1="933.5" x2="1031" y1="209.3203" y2="209.3203"/><line style="stroke:#181818;stroke-width:0.25;" x1="933.5" x2="1031" y1="213.3203" y2="213.3203"/><ellipse cx="938.5" cy="219.9805" fill="#84BE84" rx="1.5" ry="1.5" style="stroke:#038048;stroke-width:0.5;"/><text fill="#000000" font-family="sans-serif" font-size="7" lengthAdjust="spacing" textLength="69" x="943" y="221.6572">getTypeCommission()</text></g><!--class Property--><g id="elem_Property"><rect codeLine="54" fill="#F1F1F1" height="47.4609" id="Property" rx="1.25" ry="1.25" style="stroke:#181818;stroke-width:0.25;" width="152.5" x="458" y="357.3203"/><ellipse cx="518.625" cy="365.3203" fill="#ADD1B2" rx="5.5" ry="5.5" style="stroke:#181818;stroke-width:0.5;"/><path d="M520.0078,363.2578 Q520.0859,363.1484 520.1797,363.0938 Q520.2734,363.0391 520.3828,363.0391 Q520.5703,363.0391 520.6875,363.1719 Q520.8047,363.2969 520.8047,363.6016 L520.8047,364.3281 Q520.8047,364.6328 520.6875,364.7656 Q520.5703,364.8984 520.3828,364.8984 Q520.2109,364.8984 520.1094,364.7969 Q520.0078,364.7031 519.9531,364.4453 Q519.9297,364.2656 519.8359,364.1719 Q519.6719,363.9844 519.3672,363.875 Q519.0625,363.7656 518.75,363.7656 Q518.3672,363.7656 518.0469,363.9297 Q517.7344,364.0938 517.4844,364.4688 Q517.2422,364.8438 517.2422,365.3594 L517.2422,365.9063 Q517.2422,366.5234 517.6875,366.9375 Q518.1328,367.3438 518.9297,367.3438 Q519.3984,367.3438 519.7266,367.2188 Q519.9219,367.1406 520.1328,366.9219 Q520.2656,366.7891 520.3359,366.75 Q520.4141,366.7109 520.5156,366.7109 Q520.6797,366.7109 520.8047,366.8438 Q520.9375,366.9688 520.9375,367.1406 Q520.9375,367.3125 520.7656,367.5156 Q520.5156,367.8047 520.1172,367.9688 Q519.5781,368.1953 518.9297,368.1953 Q518.1719,368.1953 517.5703,367.8828 Q517.0781,367.6328 516.7344,367.1016 Q516.3906,366.5625 516.3906,365.9219 L516.3906,365.3438 Q516.3906,364.6797 516.6953,364.1094 Q517.0078,363.5313 517.5547,363.2266 Q518.1016,362.9141 518.7188,362.9141 Q519.0859,362.9141 519.4063,363 Q519.7344,363.0781 520.0078,363.2578 Z " fill="#000000"/><text fill="#000000" font-family="sans-serif" font-size="7" lengthAdjust="spacing" textLength="27" x="528.875" y="367.7471">Property</text><line style="stroke:#181818;stroke-width:0.25;" x1="458.5" x2="610" y1="373.3203" y2="373.3203"/><rect fill="none" height="3" style="stroke:#C82930;stroke-width:0.5;" width="3" x="462" y="378.4805"/><text fill="#000000" font-family="sans-serif" font-size="7" lengthAdjust="spacing" textLength="38" x="468" y="381.6572">double area</text><rect fill="none" height="3" style="stroke:#C82930;stroke-width:0.5;" width="3" x="462" y="386.3008"/><text fill="#000000" font-family="sans-serif" font-size="7" lengthAdjust="spacing" textLength="98.5" x="468" y="389.4775">int distanceFromTheCityCenter</text><line style="stroke:#181818;stroke-width:0.25;" x1="458.5" x2="610" y1="392.9609" y2="392.9609"/><ellipse cx="463.5" cy="399.6211" fill="#84BE84" rx="1.5" ry="1.5" style="stroke:#038048;stroke-width:0.5;"/><text fill="#000000" font-family="sans-serif" font-size="7" lengthAdjust="spacing" textLength="139.5" x="468" y="401.2979">Property(area, distanceFromTheCityCenter)</text></g><!--class Photos--><g id="elem_Photos"><rect codeLine="61" fill="#F1F1F1" height="31.8203" id="Photos" rx="1.25" ry="1.25" style="stroke:#181818;stroke-width:0.25;" width="44.5" x="378" y="365.0703"/><ellipse cx="388.425" cy="373.0703" fill="#ADD1B2" rx="5.5" ry="5.5" style="stroke:#181818;stroke-width:0.5;"/><path d="M389.8078,371.0078 Q389.8859,370.8984 389.9797,370.8438 Q390.0734,370.7891 390.1828,370.7891 Q390.3703,370.7891 390.4875,370.9219 Q390.6047,371.0469 390.6047,371.3516 L390.6047,372.0781 Q390.6047,372.3828 390.4875,372.5156 Q390.3703,372.6484 390.1828,372.6484 Q390.0109,372.6484 389.9094,372.5469 Q389.8078,372.4531 389.7531,372.1953 Q389.7297,372.0156 389.6359,371.9219 Q389.4719,371.7344 389.1672,371.625 Q388.8625,371.5156 388.55,371.5156 Q388.1672,371.5156 387.8469,371.6797 Q387.5344,371.8438 387.2844,372.2188 Q387.0422,372.5938 387.0422,373.1094 L387.0422,373.6563 Q387.0422,374.2734 387.4875,374.6875 Q387.9328,375.0938 388.7297,375.0938 Q389.1984,375.0938 389.5266,374.9688 Q389.7219,374.8906 389.9328,374.6719 Q390.0656,374.5391 390.1359,374.5 Q390.2141,374.4609 390.3156,374.4609 Q390.4797,374.4609 390.6047,374.5938 Q390.7375,374.7188 390.7375,374.8906 Q390.7375,375.0625 390.5656,375.2656 Q390.3156,375.5547 389.9172,375.7188 Q389.3781,375.9453 388.7297,375.9453 Q387.9719,375.9453 387.3703,375.6328 Q386.8781,375.3828 386.5344,374.8516 Q386.1906,374.3125 386.1906,373.6719 L386.1906,373.0938 Q386.1906,372.4297 386.4953,371.8594 Q386.8078,371.2813 387.3547,370.9766 Q387.9016,370.6641 388.5188,370.6641 Q388.8859,370.6641 389.2063,370.75 Q389.5344,370.8281 389.8078,371.0078 Z " fill="#000000"/><text fill="#000000" font-family="sans-serif" font-size="7" lengthAdjust="spacing" textLength="22" x="396.075" y="375.4971">Photos</text><line style="stroke:#181818;stroke-width:0.25;" x1="378.5" x2="422" y1="381.0703" y2="381.0703"/><rect fill="none" height="3" style="stroke:#C82930;stroke-width:0.5;" width="3" x="382" y="386.2305"/><text fill="#000000" font-family="sans-serif" font-size="7" lengthAdjust="spacing" textLength="31.5" x="388" y="389.4072">String URI</text><line style="stroke:#181818;stroke-width:0.25;" x1="378.5" x2="422" y1="392.8906" y2="392.8906"/></g><!--class House--><g id="elem_House"><rect codeLine="65" fill="#F1F1F1" height="47.4609" id="House" rx="1.25" ry="1.25" style="stroke:#181818;stroke-width:0.25;" width="194" x="224.25" y="684.0703"/><ellipse cx="309.125" cy="692.0703" fill="#ADD1B2" rx="5.5" ry="5.5" style="stroke:#181818;stroke-width:0.5;"/><path d="M310.5078,690.0078 Q310.5859,689.8984 310.6797,689.8438 Q310.7734,689.7891 310.8828,689.7891 Q311.0703,689.7891 311.1875,689.9219 Q311.3047,690.0469 311.3047,690.3516 L311.3047,691.0781 Q311.3047,691.3828 311.1875,691.5156 Q311.0703,691.6484 310.8828,691.6484 Q310.7109,691.6484 310.6094,691.5469 Q310.5078,691.4531 310.4531,691.1953 Q310.4297,691.0156 310.3359,690.9219 Q310.1719,690.7344 309.8672,690.625 Q309.5625,690.5156 309.25,690.5156 Q308.8672,690.5156 308.5469,690.6797 Q308.2344,690.8438 307.9844,691.2188 Q307.7422,691.5938 307.7422,692.1094 L307.7422,692.6563 Q307.7422,693.2734 308.1875,693.6875 Q308.6328,694.0938 309.4297,694.0938 Q309.8984,694.0938 310.2266,693.9688 Q310.4219,693.8906 310.6328,693.6719 Q310.7656,693.5391 310.8359,693.5 Q310.9141,693.4609 311.0156,693.4609 Q311.1797,693.4609 311.3047,693.5938 Q311.4375,693.7188 311.4375,693.8906 Q311.4375,694.0625 311.2656,694.2656 Q311.0156,694.5547 310.6172,694.7188 Q310.0781,694.9453 309.4297,694.9453 Q308.6719,694.9453 308.0703,694.6328 Q307.5781,694.3828 307.2344,693.8516 Q306.8906,693.3125 306.8906,692.6719 L306.8906,692.0938 Q306.8906,691.4297 307.1953,690.8594 Q307.5078,690.2813 308.0547,689.9766 Q308.6016,689.6641 309.2188,689.6641 Q309.5859,689.6641 309.9063,689.75 Q310.2344,689.8281 310.5078,690.0078 Z " fill="#000000"/><text fill="#000000" font-family="sans-serif" font-size="7" lengthAdjust="spacing" textLength="20" x="319.375" y="694.4971">House</text><line style="stroke:#181818;stroke-width:0.25;" x1="224.75" x2="417.75" y1="700.0703" y2="700.0703"/><rect fill="none" height="3" style="stroke:#C82930;stroke-width:0.5;" width="3" x="228.25" y="705.2305"/><text fill="#000000" font-family="sans-serif" font-size="7" lengthAdjust="spacing" textLength="117.5" x="234.25" y="708.4072">Boolean existenceOfBasement : false</text><rect fill="none" height="3" style="stroke:#C82930;stroke-width:0.5;" width="3" x="228.25" y="713.0508"/><text fill="#000000" font-family="sans-serif" font-size="7" lengthAdjust="spacing" textLength="132.5" x="234.25" y="716.2275">Boolean existenceOfInhabitableLoft : false</text><line style="stroke:#181818;stroke-width:0.25;" x1="224.75" x2="417.75" y1="719.7109" y2="719.7109"/><ellipse cx="229.75" cy="726.3711" fill="#84BE84" rx="1.5" ry="1.5" style="stroke:#038048;stroke-width:0.5;"/><text fill="#000000" font-family="sans-serif" font-size="7" lengthAdjust="spacing" textLength="181" x="234.25" y="728.0479">House(existenceOfBasement, existenceOfInhabitableLoft)</text></g><!--class Residence--><g id="elem_Residence"><rect codeLine="72" fill="#F1F1F1" height="55.2813" id="Residence" rx="1.25" ry="1.25" style="stroke:#181818;stroke-width:0.25;" width="267.5" x="187.5" y="548.0703"/><ellipse cx="302.375" cy="556.0703" fill="#ADD1B2" rx="5.5" ry="5.5" style="stroke:#181818;stroke-width:0.5;"/><path d="M303.7578,554.0078 Q303.8359,553.8984 303.9297,553.8438 Q304.0234,553.7891 304.1328,553.7891 Q304.3203,553.7891 304.4375,553.9219 Q304.5547,554.0469 304.5547,554.3516 L304.5547,555.0781 Q304.5547,555.3828 304.4375,555.5156 Q304.3203,555.6484 304.1328,555.6484 Q303.9609,555.6484 303.8594,555.5469 Q303.7578,555.4531 303.7031,555.1953 Q303.6797,555.0156 303.5859,554.9219 Q303.4219,554.7344 303.1172,554.625 Q302.8125,554.5156 302.5,554.5156 Q302.1172,554.5156 301.7969,554.6797 Q301.4844,554.8438 301.2344,555.2188 Q300.9922,555.5938 300.9922,556.1094 L300.9922,556.6563 Q300.9922,557.2734 301.4375,557.6875 Q301.8828,558.0938 302.6797,558.0938 Q303.1484,558.0938 303.4766,557.9688 Q303.6719,557.8906 303.8828,557.6719 Q304.0156,557.5391 304.0859,557.5 Q304.1641,557.4609 304.2656,557.4609 Q304.4297,557.4609 304.5547,557.5938 Q304.6875,557.7188 304.6875,557.8906 Q304.6875,558.0625 304.5156,558.2656 Q304.2656,558.5547 303.8672,558.7188 Q303.3281,558.9453 302.6797,558.9453 Q301.9219,558.9453 301.3203,558.6328 Q300.8281,558.3828 300.4844,557.8516 Q300.1406,557.3125 300.1406,556.6719 L300.1406,556.0938 Q300.1406,555.4297 300.4453,554.8594 Q300.7578,554.2813 301.3047,553.9766 Q301.8516,553.6641 302.4688,553.6641 Q302.8359,553.6641 303.1563,553.75 Q303.4844,553.8281 303.7578,554.0078 Z " fill="#000000"/><text fill="#000000" font-family="sans-serif" font-size="7" lengthAdjust="spacing" textLength="33.5" x="312.625" y="558.4971">Residence</text><line style="stroke:#181818;stroke-width:0.25;" x1="188" x2="454.5" y1="564.0703" y2="564.0703"/><rect fill="none" height="3" style="stroke:#C82930;stroke-width:0.5;" width="3" x="191.5" y="569.2305"/><text fill="#000000" font-family="sans-serif" font-size="7" lengthAdjust="spacing" textLength="73" x="197.5" y="572.4072">int numberOfBedrooms</text><rect fill="none" height="3" style="stroke:#C82930;stroke-width:0.5;" width="3" x="191.5" y="577.0508"/><text fill="#000000" font-family="sans-serif" font-size="7" lengthAdjust="spacing" textLength="75" x="197.5" y="580.2275">int numberOfBathrooms</text><rect fill="none" height="3" style="stroke:#C82930;stroke-width:0.5;" width="3" x="191.5" y="584.8711"/><text fill="#000000" font-family="sans-serif" font-size="7" lengthAdjust="spacing" textLength="88.5" x="197.5" y="588.0479">int numberOfParkingSpaces</text><line style="stroke:#181818;stroke-width:0.25;" x1="188" x2="454.5" y1="591.5313" y2="591.5313"/><ellipse cx="193" cy="598.1914" fill="#84BE84" rx="1.5" ry="1.5" style="stroke:#038048;stroke-width:0.5;"/><text fill="#000000" font-family="sans-serif" font-size="7" lengthAdjust="spacing" textLength="254.5" x="197.5" y="599.8682">Residence(numberOfBedrooms, numberOfBathrooms, numberOfParkingSpaces)</text></g><!--class SunExposure--><g id="elem_SunExposure"><rect codeLine="80" fill="#F1F1F1" height="39.6406" id="SunExposure" rx="1.25" ry="1.25" style="stroke:#181818;stroke-width:0.25;" width="87" x="467.75" y="688.0703"/><ellipse cx="488.3" cy="696.0703" fill="#ADD1B2" rx="5.5" ry="5.5" style="stroke:#181818;stroke-width:0.5;"/><path d="M489.6828,694.0078 Q489.7609,693.8984 489.8547,693.8438 Q489.9484,693.7891 490.0578,693.7891 Q490.2453,693.7891 490.3625,693.9219 Q490.4797,694.0469 490.4797,694.3516 L490.4797,695.0781 Q490.4797,695.3828 490.3625,695.5156 Q490.2453,695.6484 490.0578,695.6484 Q489.8859,695.6484 489.7844,695.5469 Q489.6828,695.4531 489.6281,695.1953 Q489.6047,695.0156 489.5109,694.9219 Q489.3469,694.7344 489.0422,694.625 Q488.7375,694.5156 488.425,694.5156 Q488.0422,694.5156 487.7219,694.6797 Q487.4094,694.8438 487.1594,695.2188 Q486.9172,695.5938 486.9172,696.1094 L486.9172,696.6563 Q486.9172,697.2734 487.3625,697.6875 Q487.8078,698.0938 488.6047,698.0938 Q489.0734,698.0938 489.4016,697.9688 Q489.5969,697.8906 489.8078,697.6719 Q489.9406,697.5391 490.0109,697.5 Q490.0891,697.4609 490.1906,697.4609 Q490.3547,697.4609 490.4797,697.5938 Q490.6125,697.7188 490.6125,697.8906 Q490.6125,698.0625 490.4406,698.2656 Q490.1906,698.5547 489.7922,698.7188 Q489.2531,698.9453 488.6047,698.9453 Q487.8469,698.9453 487.2453,698.6328 Q486.7531,698.3828 486.4094,697.8516 Q486.0656,697.3125 486.0656,696.6719 L486.0656,696.0938 Q486.0656,695.4297 486.3703,694.8594 Q486.6828,694.2813 487.2297,693.9766 Q487.7766,693.6641 488.3938,693.6641 Q488.7609,693.6641 489.0813,693.75 Q489.4094,693.8281 489.6828,694.0078 Z " fill="#000000"/><text fill="#000000" font-family="sans-serif" font-size="7" lengthAdjust="spacing" textLength="42" x="498.2" y="698.4971">SunExposure</text><line style="stroke:#181818;stroke-width:0.25;" x1="468.25" x2="554.25" y1="704.0703" y2="704.0703"/><rect fill="none" height="3" style="stroke:#C82930;stroke-width:0.5;" width="3" x="471.75" y="709.2305"/><text fill="#000000" font-family="sans-serif" font-size="7" lengthAdjust="spacing" textLength="47.5" x="477.75" y="712.4072">String direction</text><line style="stroke:#181818;stroke-width:0.25;" x1="468.25" x2="554.25" y1="715.8906" y2="715.8906"/><ellipse cx="473.25" cy="722.5508" fill="#84BE84" rx="1.5" ry="1.5" style="stroke:#038048;stroke-width:0.5;"/><text fill="#000000" font-family="sans-serif" font-size="7" lengthAdjust="spacing" textLength="74" x="477.75" y="724.2275">SunExposure(direction)</text></g><!--class AvailableEquipment--><g id="elem_AvailableEquipment"><rect codeLine="86" fill="#F1F1F1" height="39.6406" id="AvailableEquipment" rx="1.25" ry="1.25" style="stroke:#181818;stroke-width:0.25;" width="134.5" x="3.5" y="556.0703"/><ellipse cx="37.625" cy="564.0703" fill="#ADD1B2" rx="5.5" ry="5.5" style="stroke:#181818;stroke-width:0.5;"/><path d="M39.0078,562.0078 Q39.0859,561.8984 39.1797,561.8438 Q39.2734,561.7891 39.3828,561.7891 Q39.5703,561.7891 39.6875,561.9219 Q39.8047,562.0469 39.8047,562.3516 L39.8047,563.0781 Q39.8047,563.3828 39.6875,563.5156 Q39.5703,563.6484 39.3828,563.6484 Q39.2109,563.6484 39.1094,563.5469 Q39.0078,563.4531 38.9531,563.1953 Q38.9297,563.0156 38.8359,562.9219 Q38.6719,562.7344 38.3672,562.625 Q38.0625,562.5156 37.75,562.5156 Q37.3672,562.5156 37.0469,562.6797 Q36.7344,562.8438 36.4844,563.2188 Q36.2422,563.5938 36.2422,564.1094 L36.2422,564.6563 Q36.2422,565.2734 36.6875,565.6875 Q37.1328,566.0938 37.9297,566.0938 Q38.3984,566.0938 38.7266,565.9688 Q38.9219,565.8906 39.1328,565.6719 Q39.2656,565.5391 39.3359,565.5 Q39.4141,565.4609 39.5156,565.4609 Q39.6797,565.4609 39.8047,565.5938 Q39.9375,565.7188 39.9375,565.8906 Q39.9375,566.0625 39.7656,566.2656 Q39.5156,566.5547 39.1172,566.7188 Q38.5781,566.9453 37.9297,566.9453 Q37.1719,566.9453 36.5703,566.6328 Q36.0781,566.3828 35.7344,565.8516 Q35.3906,565.3125 35.3906,564.6719 L35.3906,564.0938 Q35.3906,563.4297 35.6953,562.8594 Q36.0078,562.2813 36.5547,561.9766 Q37.1016,561.6641 37.7188,561.6641 Q38.0859,561.6641 38.4063,561.75 Q38.7344,561.8281 39.0078,562.0078 Z " fill="#000000"/><text fill="#000000" font-family="sans-serif" font-size="7" lengthAdjust="spacing" textLength="62" x="47.875" y="566.4971">AvailableEquipment</text><line style="stroke:#181818;stroke-width:0.25;" x1="4" x2="137.5" y1="572.0703" y2="572.0703"/><rect fill="none" height="3" style="stroke:#C82930;stroke-width:0.5;" width="3" x="7.5" y="577.2305"/><text fill="#000000" font-family="sans-serif" font-size="7" lengthAdjust="spacing" textLength="75" x="13.5" y="580.4072">String typeOfEquipment</text><line style="stroke:#181818;stroke-width:0.25;" x1="4" x2="137.5" y1="583.8906" y2="583.8906"/><ellipse cx="9" cy="590.5508" fill="#84BE84" rx="1.5" ry="1.5" style="stroke:#038048;stroke-width:0.5;"/><text fill="#000000" font-family="sans-serif" font-size="7" lengthAdjust="spacing" textLength="121.5" x="13.5" y="592.2275">AvailableEquipment(typeOfEquipment)</text></g><!--class User--><g id="elem_User"><rect codeLine="96" fill="#F1F1F1" height="86.5625" id="User" rx="1.25" ry="1.25" style="stroke:#181818;stroke-width:0.25;" width="73" x="586.75" y="240.3203"/><ellipse cx="613.875" cy="248.3203" fill="#ADD1B2" rx="5.5" ry="5.5" style="stroke:#181818;stroke-width:0.5;"/><path d="M615.2578,246.2578 Q615.3359,246.1484 615.4297,246.0938 Q615.5234,246.0391 615.6328,246.0391 Q615.8203,246.0391 615.9375,246.1719 Q616.0547,246.2969 616.0547,246.6016 L616.0547,247.3281 Q616.0547,247.6328 615.9375,247.7656 Q615.8203,247.8984 615.6328,247.8984 Q615.4609,247.8984 615.3594,247.7969 Q615.2578,247.7031 615.2031,247.4453 Q615.1797,247.2656 615.0859,247.1719 Q614.9219,246.9844 614.6172,246.875 Q614.3125,246.7656 614,246.7656 Q613.6172,246.7656 613.2969,246.9297 Q612.9844,247.0938 612.7344,247.4688 Q612.4922,247.8438 612.4922,248.3594 L612.4922,248.9063 Q612.4922,249.5234 612.9375,249.9375 Q613.3828,250.3438 614.1797,250.3438 Q614.6484,250.3438 614.9766,250.2188 Q615.1719,250.1406 615.3828,249.9219 Q615.5156,249.7891 615.5859,249.75 Q615.6641,249.7109 615.7656,249.7109 Q615.9297,249.7109 616.0547,249.8438 Q616.1875,249.9688 616.1875,250.1406 Q616.1875,250.3125 616.0156,250.5156 Q615.7656,250.8047 615.3672,250.9688 Q614.8281,251.1953 614.1797,251.1953 Q613.4219,251.1953 612.8203,250.8828 Q612.3281,250.6328 611.9844,250.1016 Q611.6406,249.5625 611.6406,248.9219 L611.6406,248.3438 Q611.6406,247.6797 611.9453,247.1094 Q612.2578,246.5313 612.8047,246.2266 Q613.3516,245.9141 613.9688,245.9141 Q614.3359,245.9141 614.6563,246 Q614.9844,246.0781 615.2578,246.2578 Z " fill="#000000"/><text fill="#000000" font-family="sans-serif" font-size="7" lengthAdjust="spacing" textLength="14.5" x="624.125" y="250.7471">User</text><line style="stroke:#181818;stroke-width:0.25;" x1="587.25" x2="659.25" y1="256.3203" y2="256.3203"/><ellipse cx="592.25" cy="262.9805" fill="none" rx="1.5" ry="1.5" style="stroke:#038048;stroke-width:0.5;"/><text fill="#000000" font-family="sans-serif" font-size="7" lengthAdjust="spacing" textLength="38" x="596.75" y="264.6572">String name</text><ellipse cx="592.25" cy="270.8008" fill="none" rx="1.5" ry="1.5" style="stroke:#038048;stroke-width:0.5;"/><text fill="#000000" font-family="sans-serif" font-size="7" lengthAdjust="spacing" textLength="44.5" x="596.75" y="272.4775">int tax number</text><ellipse cx="592.25" cy="278.6211" fill="none" rx="1.5" ry="1.5" style="stroke:#038048;stroke-width:0.5;"/><text fill="#000000" font-family="sans-serif" font-size="7" lengthAdjust="spacing" textLength="55.5" x="596.75" y="280.2979">int phone number</text><ellipse cx="592.25" cy="286.4414" fill="none" rx="1.5" ry="1.5" style="stroke:#038048;stroke-width:0.5;"/><text fill="#000000" font-family="sans-serif" font-size="7" lengthAdjust="spacing" textLength="37" x="596.75" y="288.1182">String email</text><line style="stroke:#181818;stroke-width:0.25;" x1="587.25" x2="659.25" y1="291.6016" y2="291.6016"/><rect fill="#F24D5C" height="3" style="stroke:#C82930;stroke-width:0.5;" width="3" x="590.75" y="296.7617"/><text fill="#000000" font-family="sans-serif" font-size="7" lengthAdjust="spacing" textLength="33" x="596.75" y="299.9385">getName()</text><rect fill="#F24D5C" height="3" style="stroke:#C82930;stroke-width:0.5;" width="3" x="590.75" y="304.582"/><text fill="#000000" font-family="sans-serif" font-size="7" lengthAdjust="spacing" textLength="32" x="596.75" y="307.7588">getEmail()</text><rect fill="#F24D5C" height="3" style="stroke:#C82930;stroke-width:0.5;" width="3" x="590.75" y="312.4023"/><text fill="#000000" font-family="sans-serif" font-size="7" lengthAdjust="spacing" textLength="60" x="596.75" y="315.5791">getPhoneNumber()</text><rect fill="#F24D5C" height="3" style="stroke:#C82930;stroke-width:0.5;" width="3" x="590.75" y="320.2227"/><text fill="#000000" font-family="sans-serif" font-size="7" lengthAdjust="spacing" textLength="51" x="596.75" y="323.3994">getTaxNumber()</text></g><!--class Address--><g id="elem_Address"><rect codeLine="108" fill="#F1F1F1" height="78.7422" id="Address" rx="1.25" ry="1.25" style="stroke:#181818;stroke-width:0.25;" width="150" x="575.25" y="435.3203"/><ellipse cx="635.125" cy="443.3203" fill="#ADD1B2" rx="5.5" ry="5.5" style="stroke:#181818;stroke-width:0.5;"/><path d="M636.5078,441.2578 Q636.5859,441.1484 636.6797,441.0938 Q636.7734,441.0391 636.8828,441.0391 Q637.0703,441.0391 637.1875,441.1719 Q637.3047,441.2969 637.3047,441.6016 L637.3047,442.3281 Q637.3047,442.6328 637.1875,442.7656 Q637.0703,442.8984 636.8828,442.8984 Q636.7109,442.8984 636.6094,442.7969 Q636.5078,442.7031 636.4531,442.4453 Q636.4297,442.2656 636.3359,442.1719 Q636.1719,441.9844 635.8672,441.875 Q635.5625,441.7656 635.25,441.7656 Q634.8672,441.7656 634.5469,441.9297 Q634.2344,442.0938 633.9844,442.4688 Q633.7422,442.8438 633.7422,443.3594 L633.7422,443.9063 Q633.7422,444.5234 634.1875,444.9375 Q634.6328,445.3438 635.4297,445.3438 Q635.8984,445.3438 636.2266,445.2188 Q636.4219,445.1406 636.6328,444.9219 Q636.7656,444.7891 636.8359,444.75 Q636.9141,444.7109 637.0156,444.7109 Q637.1797,444.7109 637.3047,444.8438 Q637.4375,444.9688 637.4375,445.1406 Q637.4375,445.3125 637.2656,445.5156 Q637.0156,445.8047 636.6172,445.9688 Q636.0781,446.1953 635.4297,446.1953 Q634.6719,446.1953 634.0703,445.8828 Q633.5781,445.6328 633.2344,445.1016 Q632.8906,444.5625 632.8906,443.9219 L632.8906,443.3438 Q632.8906,442.6797 633.1953,442.1094 Q633.5078,441.5313 634.0547,441.2266 Q634.6016,440.9141 635.2188,440.9141 Q635.5859,440.9141 635.9063,441 Q636.2344,441.0781 636.5078,441.2578 Z " fill="#000000"/><text fill="#000000" font-family="sans-serif" font-size="7" lengthAdjust="spacing" textLength="26" x="645.375" y="445.7471">Address</text><line style="stroke:#181818;stroke-width:0.25;" x1="575.75" x2="724.75" y1="451.3203" y2="451.3203"/><rect fill="none" height="3" style="stroke:#C82930;stroke-width:0.5;" width="3" x="579.25" y="456.4805"/><text fill="#000000" font-family="sans-serif" font-size="7" lengthAdjust="spacing" textLength="56.5" x="585.25" y="459.6572">String streetName</text><rect fill="none" height="3" style="stroke:#C82930;stroke-width:0.5;" width="3" x="579.25" y="464.3008"/><text fill="#000000" font-family="sans-serif" font-size="7" lengthAdjust="spacing" textLength="35" x="585.25" y="467.4775">int zipCode</text><line style="stroke:#181818;stroke-width:0.25;" x1="575.75" x2="724.75" y1="470.9609" y2="470.9609"/><ellipse cx="580.75" cy="477.6211" fill="#84BE84" rx="1.5" ry="1.5" style="stroke:#038048;stroke-width:0.5;"/><text fill="#000000" font-family="sans-serif" font-size="7" lengthAdjust="spacing" textLength="48.5" x="585.25" y="479.2979">verifyZipCode()</text><ellipse cx="580.75" cy="485.4414" fill="#84BE84" rx="1.5" ry="1.5" style="stroke:#038048;stroke-width:0.5;"/><text fill="#000000" font-family="sans-serif" font-size="7" lengthAdjust="spacing" textLength="27" x="585.25" y="487.1182">getCity()</text><ellipse cx="580.75" cy="493.2617" fill="#84BE84" rx="1.5" ry="1.5" style="stroke:#038048;stroke-width:0.5;"/><text fill="#000000" font-family="sans-serif" font-size="7" lengthAdjust="spacing" textLength="36.5" x="585.25" y="494.9385">getDistrict()</text><ellipse cx="580.75" cy="501.082" fill="#84BE84" rx="1.5" ry="1.5" style="stroke:#038048;stroke-width:0.5;"/><text fill="#000000" font-family="sans-serif" font-size="7" lengthAdjust="spacing" textLength="31.5" x="585.25" y="502.7588">getState()</text><ellipse cx="580.75" cy="508.9023" fill="#84BE84" rx="1.5" ry="1.5" style="stroke:#038048;stroke-width:0.5;"/><text fill="#000000" font-family="sans-serif" font-size="7" lengthAdjust="spacing" textLength="137" x="585.25" y="510.5791">Address(state, district, city, street, zipCode)</text></g><!--class City--><g id="elem_City"><rect codeLine="121" fill="#F1F1F1" height="39.6406" id="City" rx="1.25" ry="1.25" style="stroke:#181818;stroke-width:0.25;" width="62" x="987.25" y="454.8203"/><ellipse cx="1010.125" cy="462.8203" fill="#ADD1B2" rx="5.5" ry="5.5" style="stroke:#181818;stroke-width:0.5;"/><path d="M1011.5078,460.7578 Q1011.5859,460.6484 1011.6797,460.5938 Q1011.7734,460.5391 1011.8828,460.5391 Q1012.0703,460.5391 1012.1875,460.6719 Q1012.3047,460.7969 1012.3047,461.1016 L1012.3047,461.8281 Q1012.3047,462.1328 1012.1875,462.2656 Q1012.0703,462.3984 1011.8828,462.3984 Q1011.7109,462.3984 1011.6094,462.2969 Q1011.5078,462.2031 1011.4531,461.9453 Q1011.4297,461.7656 1011.3359,461.6719 Q1011.1719,461.4844 1010.8672,461.375 Q1010.5625,461.2656 1010.25,461.2656 Q1009.8672,461.2656 1009.5469,461.4297 Q1009.2344,461.5938 1008.9844,461.9688 Q1008.7422,462.3438 1008.7422,462.8594 L1008.7422,463.4063 Q1008.7422,464.0234 1009.1875,464.4375 Q1009.6328,464.8438 1010.4297,464.8438 Q1010.8984,464.8438 1011.2266,464.7188 Q1011.4219,464.6406 1011.6328,464.4219 Q1011.7656,464.2891 1011.8359,464.25 Q1011.9141,464.2109 1012.0156,464.2109 Q1012.1797,464.2109 1012.3047,464.3438 Q1012.4375,464.4688 1012.4375,464.6406 Q1012.4375,464.8125 1012.2656,465.0156 Q1012.0156,465.3047 1011.6172,465.4688 Q1011.0781,465.6953 1010.4297,465.6953 Q1009.6719,465.6953 1009.0703,465.3828 Q1008.5781,465.1328 1008.2344,464.6016 Q1007.8906,464.0625 1007.8906,463.4219 L1007.8906,462.8438 Q1007.8906,462.1797 1008.1953,461.6094 Q1008.5078,461.0313 1009.0547,460.7266 Q1009.6016,460.4141 1010.2188,460.4141 Q1010.5859,460.4141 1010.9063,460.5 Q1011.2344,460.5781 1011.5078,460.7578 Z " fill="#000000"/><text fill="#000000" font-family="sans-serif" font-size="7" lengthAdjust="spacing" textLength="12" x="1020.375" y="465.2471">City</text><line style="stroke:#181818;stroke-width:0.25;" x1="987.75" x2="1048.75" y1="470.8203" y2="470.8203"/><rect fill="none" height="3" style="stroke:#C82930;stroke-width:0.5;" width="3" x="991.25" y="475.9805"/><text fill="#000000" font-family="sans-serif" font-size="7" lengthAdjust="spacing" textLength="49" x="997.25" y="479.1572">String cityName</text><line style="stroke:#181818;stroke-width:0.25;" x1="987.75" x2="1048.75" y1="482.6406" y2="482.6406"/><rect fill="#F24D5C" height="3" style="stroke:#C82930;stroke-width:0.5;" width="3" x="991.25" y="487.8008"/><text fill="#000000" font-family="sans-serif" font-size="7" lengthAdjust="spacing" textLength="45" x="997.25" y="490.9775">getCityName()</text></g><!--class District--><g id="elem_District"><rect codeLine="127" fill="#F1F1F1" height="39.6406" id="District" rx="1.25" ry="1.25" style="stroke:#181818;stroke-width:0.25;" width="72" x="874.25" y="454.8203"/><ellipse cx="897.375" cy="462.8203" fill="#ADD1B2" rx="5.5" ry="5.5" style="stroke:#181818;stroke-width:0.5;"/><path d="M898.7578,460.7578 Q898.8359,460.6484 898.9297,460.5938 Q899.0234,460.5391 899.1328,460.5391 Q899.3203,460.5391 899.4375,460.6719 Q899.5547,460.7969 899.5547,461.1016 L899.5547,461.8281 Q899.5547,462.1328 899.4375,462.2656 Q899.3203,462.3984 899.1328,462.3984 Q898.9609,462.3984 898.8594,462.2969 Q898.7578,462.2031 898.7031,461.9453 Q898.6797,461.7656 898.5859,461.6719 Q898.4219,461.4844 898.1172,461.375 Q897.8125,461.2656 897.5,461.2656 Q897.1172,461.2656 896.7969,461.4297 Q896.4844,461.5938 896.2344,461.9688 Q895.9922,462.3438 895.9922,462.8594 L895.9922,463.4063 Q895.9922,464.0234 896.4375,464.4375 Q896.8828,464.8438 897.6797,464.8438 Q898.1484,464.8438 898.4766,464.7188 Q898.6719,464.6406 898.8828,464.4219 Q899.0156,464.2891 899.0859,464.25 Q899.1641,464.2109 899.2656,464.2109 Q899.4297,464.2109 899.5547,464.3438 Q899.6875,464.4688 899.6875,464.6406 Q899.6875,464.8125 899.5156,465.0156 Q899.2656,465.3047 898.8672,465.4688 Q898.3281,465.6953 897.6797,465.6953 Q896.9219,465.6953 896.3203,465.3828 Q895.8281,465.1328 895.4844,464.6016 Q895.1406,464.0625 895.1406,463.4219 L895.1406,462.8438 Q895.1406,462.1797 895.4453,461.6094 Q895.7578,461.0313 896.3047,460.7266 Q896.8516,460.4141 897.4688,460.4141 Q897.8359,460.4141 898.1563,460.5 Q898.4844,460.5781 898.7578,460.7578 Z " fill="#000000"/><text fill="#000000" font-family="sans-serif" font-size="7" lengthAdjust="spacing" textLength="21.5" x="907.625" y="465.2471">District</text><line style="stroke:#181818;stroke-width:0.25;" x1="874.75" x2="945.75" y1="470.8203" y2="470.8203"/><rect fill="none" height="3" style="stroke:#C82930;stroke-width:0.5;" width="3" x="878.25" y="475.9805"/><text fill="#000000" font-family="sans-serif" font-size="7" lengthAdjust="spacing" textLength="59" x="884.25" y="479.1572">String districtName</text><line style="stroke:#181818;stroke-width:0.25;" x1="874.75" x2="945.75" y1="482.6406" y2="482.6406"/><rect fill="#F24D5C" height="3" style="stroke:#C82930;stroke-width:0.5;" width="3" x="878.25" y="487.8008"/><text fill="#000000" font-family="sans-serif" font-size="7" lengthAdjust="spacing" textLength="54.5" x="884.25" y="490.9775">getDistrictName()</text></g><!--class State--><g id="elem_State"><rect codeLine="133" fill="#F1F1F1" height="39.6406" id="State" rx="1.25" ry="1.25" style="stroke:#181818;stroke-width:0.25;" width="67" x="766.25" y="454.8203"/><ellipse cx="789.375" cy="462.8203" fill="#ADD1B2" rx="5.5" ry="5.5" style="stroke:#181818;stroke-width:0.5;"/><path d="M790.7578,460.7578 Q790.8359,460.6484 790.9297,460.5938 Q791.0234,460.5391 791.1328,460.5391 Q791.3203,460.5391 791.4375,460.6719 Q791.5547,460.7969 791.5547,461.1016 L791.5547,461.8281 Q791.5547,462.1328 791.4375,462.2656 Q791.3203,462.3984 791.1328,462.3984 Q790.9609,462.3984 790.8594,462.2969 Q790.7578,462.2031 790.7031,461.9453 Q790.6797,461.7656 790.5859,461.6719 Q790.4219,461.4844 790.1172,461.375 Q789.8125,461.2656 789.5,461.2656 Q789.1172,461.2656 788.7969,461.4297 Q788.4844,461.5938 788.2344,461.9688 Q787.9922,462.3438 787.9922,462.8594 L787.9922,463.4063 Q787.9922,464.0234 788.4375,464.4375 Q788.8828,464.8438 789.6797,464.8438 Q790.1484,464.8438 790.4766,464.7188 Q790.6719,464.6406 790.8828,464.4219 Q791.0156,464.2891 791.0859,464.25 Q791.1641,464.2109 791.2656,464.2109 Q791.4297,464.2109 791.5547,464.3438 Q791.6875,464.4688 791.6875,464.6406 Q791.6875,464.8125 791.5156,465.0156 Q791.2656,465.3047 790.8672,465.4688 Q790.3281,465.6953 789.6797,465.6953 Q788.9219,465.6953 788.3203,465.3828 Q787.8281,465.1328 787.4844,464.6016 Q787.1406,464.0625 787.1406,463.4219 L787.1406,462.8438 Q787.1406,462.1797 787.4453,461.6094 Q787.7578,461.0313 788.3047,460.7266 Q788.8516,460.4141 789.4688,460.4141 Q789.8359,460.4141 790.1563,460.5 Q790.4844,460.5781 790.7578,460.7578 Z " fill="#000000"/><text fill="#000000" font-family="sans-serif" font-size="7" lengthAdjust="spacing" textLength="16.5" x="799.625" y="465.2471">State</text><line style="stroke:#181818;stroke-width:0.25;" x1="766.75" x2="832.75" y1="470.8203" y2="470.8203"/><rect fill="none" height="3" style="stroke:#C82930;stroke-width:0.5;" width="3" x="770.25" y="475.9805"/><text fill="#000000" font-family="sans-serif" font-size="7" lengthAdjust="spacing" textLength="54" x="776.25" y="479.1572">String stateName</text><line style="stroke:#181818;stroke-width:0.25;" x1="766.75" x2="832.75" y1="482.6406" y2="482.6406"/><rect fill="#F24D5C" height="3" style="stroke:#C82930;stroke-width:0.5;" width="3" x="770.25" y="487.8008"/><text fill="#000000" font-family="sans-serif" font-size="7" lengthAdjust="spacing" textLength="49.5" x="776.25" y="490.9775">getStateName()</text></g><!--class Comission--><g id="elem_Comission"><rect codeLine="142" fill="#F1F1F1" height="47.4609" id="Comission" rx="1.25" ry="1.25" style="stroke:#181818;stroke-width:0.25;" width="94" x="1098.75" y="357.3203"/><ellipse cx="1127.375" cy="365.3203" fill="#ADD1B2" rx="5.5" ry="5.5" style="stroke:#181818;stroke-width:0.5;"/><path d="M1128.7578,363.2578 Q1128.8359,363.1484 1128.9297,363.0938 Q1129.0234,363.0391 1129.1328,363.0391 Q1129.3203,363.0391 1129.4375,363.1719 Q1129.5547,363.2969 1129.5547,363.6016 L1129.5547,364.3281 Q1129.5547,364.6328 1129.4375,364.7656 Q1129.3203,364.8984 1129.1328,364.8984 Q1128.9609,364.8984 1128.8594,364.7969 Q1128.7578,364.7031 1128.7031,364.4453 Q1128.6797,364.2656 1128.5859,364.1719 Q1128.4219,363.9844 1128.1172,363.875 Q1127.8125,363.7656 1127.5,363.7656 Q1127.1172,363.7656 1126.7969,363.9297 Q1126.4844,364.0938 1126.2344,364.4688 Q1125.9922,364.8438 1125.9922,365.3594 L1125.9922,365.9063 Q1125.9922,366.5234 1126.4375,366.9375 Q1126.8828,367.3438 1127.6797,367.3438 Q1128.1484,367.3438 1128.4766,367.2188 Q1128.6719,367.1406 1128.8828,366.9219 Q1129.0156,366.7891 1129.0859,366.75 Q1129.1641,366.7109 1129.2656,366.7109 Q1129.4297,366.7109 1129.5547,366.8438 Q1129.6875,366.9688 1129.6875,367.1406 Q1129.6875,367.3125 1129.5156,367.5156 Q1129.2656,367.8047 1128.8672,367.9688 Q1128.3281,368.1953 1127.6797,368.1953 Q1126.9219,368.1953 1126.3203,367.8828 Q1125.8281,367.6328 1125.4844,367.1016 Q1125.1406,366.5625 1125.1406,365.9219 L1125.1406,365.3438 Q1125.1406,364.6797 1125.4453,364.1094 Q1125.7578,363.5313 1126.3047,363.2266 Q1126.8516,362.9141 1127.4688,362.9141 Q1127.8359,362.9141 1128.1563,363 Q1128.4844,363.0781 1128.7578,363.2578 Z " fill="#000000"/><text fill="#000000" font-family="sans-serif" font-size="7" lengthAdjust="spacing" textLength="32.5" x="1137.625" y="367.7471">Comission</text><line style="stroke:#181818;stroke-width:0.25;" x1="1099.25" x2="1192.25" y1="373.3203" y2="373.3203"/><rect fill="none" height="3" style="stroke:#C82930;stroke-width:0.5;" width="3" x="1102.75" y="378.4805"/><text fill="#000000" font-family="sans-serif" font-size="7" lengthAdjust="spacing" textLength="59.5" x="1108.75" y="381.6572">double percentage</text><rect fill="none" height="3" style="stroke:#C82930;stroke-width:0.5;" width="3" x="1102.75" y="386.3008"/><text fill="#000000" font-family="sans-serif" font-size="7" lengthAdjust="spacing" textLength="58" x="1108.75" y="389.4775">double staticValue</text><line style="stroke:#181818;stroke-width:0.25;" x1="1099.25" x2="1192.25" y1="392.9609" y2="392.9609"/><ellipse cx="1104.25" cy="399.6211" fill="#84BE84" rx="1.5" ry="1.5" style="stroke:#038048;stroke-width:0.5;"/><text fill="#000000" font-family="sans-serif" font-size="7" lengthAdjust="spacing" textLength="81" x="1108.75" y="401.2979">calculateFinalComission()</text></g><!--class Rent--><g id="elem_Rent"><rect codeLine="150" fill="#F1F1F1" height="47.4609" id="Rent" rx="1.25" ry="1.25" style="stroke:#181818;stroke-width:0.25;" width="83" x="779.75" y="800.8203"/><ellipse cx="811.625" cy="808.8203" fill="#ADD1B2" rx="5.5" ry="5.5" style="stroke:#181818;stroke-width:0.5;"/><path d="M813.0078,806.7578 Q813.0859,806.6484 813.1797,806.5938 Q813.2734,806.5391 813.3828,806.5391 Q813.5703,806.5391 813.6875,806.6719 Q813.8047,806.7969 813.8047,807.1016 L813.8047,807.8281 Q813.8047,808.1328 813.6875,808.2656 Q813.5703,808.3984 813.3828,808.3984 Q813.2109,808.3984 813.1094,808.2969 Q813.0078,808.2031 812.9531,807.9453 Q812.9297,807.7656 812.8359,807.6719 Q812.6719,807.4844 812.3672,807.375 Q812.0625,807.2656 811.75,807.2656 Q811.3672,807.2656 811.0469,807.4297 Q810.7344,807.5938 810.4844,807.9688 Q810.2422,808.3438 810.2422,808.8594 L810.2422,809.4063 Q810.2422,810.0234 810.6875,810.4375 Q811.1328,810.8438 811.9297,810.8438 Q812.3984,810.8438 812.7266,810.7188 Q812.9219,810.6406 813.1328,810.4219 Q813.2656,810.2891 813.3359,810.25 Q813.4141,810.2109 813.5156,810.2109 Q813.6797,810.2109 813.8047,810.3438 Q813.9375,810.4688 813.9375,810.6406 Q813.9375,810.8125 813.7656,811.0156 Q813.5156,811.3047 813.1172,811.4688 Q812.5781,811.6953 811.9297,811.6953 Q811.1719,811.6953 810.5703,811.3828 Q810.0781,811.1328 809.7344,810.6016 Q809.3906,810.0625 809.3906,809.4219 L809.3906,808.8438 Q809.3906,808.1797 809.6953,807.6094 Q810.0078,807.0313 810.5547,806.7266 Q811.1016,806.4141 811.7188,806.4141 Q812.0859,806.4141 812.4063,806.5 Q812.7344,806.5781 813.0078,806.7578 Z " fill="#000000"/><text fill="#000000" font-family="sans-serif" font-size="7" lengthAdjust="spacing" textLength="15" x="821.875" y="811.2471">Rent</text><line style="stroke:#181818;stroke-width:0.25;" x1="780.25" x2="862.25" y1="816.8203" y2="816.8203"/><rect fill="none" height="3" style="stroke:#C82930;stroke-width:0.5;" width="3" x="783.75" y="821.9805"/><text fill="#000000" font-family="sans-serif" font-size="7" lengthAdjust="spacing" textLength="70" x="789.75" y="825.1572">int durationOfContract</text><line style="stroke:#181818;stroke-width:0.25;" x1="780.25" x2="862.25" y1="828.6406" y2="828.6406"/><ellipse cx="785.25" cy="835.3008" fill="#84BE84" rx="1.5" ry="1.5" style="stroke:#038048;stroke-width:0.5;"/><text fill="#000000" font-family="sans-serif" font-size="7" lengthAdjust="spacing" textLength="63" x="789.75" y="836.9775">getFinalComission()</text><ellipse cx="785.25" cy="843.1211" fill="#84BE84" rx="1.5" ry="1.5" style="stroke:#038048;stroke-width:0.5;"/><text fill="#000000" font-family="sans-serif" font-size="7" lengthAdjust="spacing" textLength="65" x="789.75" y="844.7979">calculateTotalPrice()</text></g><!--class Announcement--><g id="elem_Announcement"><rect codeLine="157" fill="#F1F1F1" height="63.1016" id="Announcement" rx="1.25" ry="1.25" style="stroke:#181818;stroke-width:0.25;" width="237.5" x="702.5" y="544.3203"/><ellipse cx="795.375" cy="552.3203" fill="#ADD1B2" rx="5.5" ry="5.5" style="stroke:#181818;stroke-width:0.5;"/><path d="M796.7578,550.2578 Q796.8359,550.1484 796.9297,550.0938 Q797.0234,550.0391 797.1328,550.0391 Q797.3203,550.0391 797.4375,550.1719 Q797.5547,550.2969 797.5547,550.6016 L797.5547,551.3281 Q797.5547,551.6328 797.4375,551.7656 Q797.3203,551.8984 797.1328,551.8984 Q796.9609,551.8984 796.8594,551.7969 Q796.7578,551.7031 796.7031,551.4453 Q796.6797,551.2656 796.5859,551.1719 Q796.4219,550.9844 796.1172,550.875 Q795.8125,550.7656 795.5,550.7656 Q795.1172,550.7656 794.7969,550.9297 Q794.4844,551.0938 794.2344,551.4688 Q793.9922,551.8438 793.9922,552.3594 L793.9922,552.9063 Q793.9922,553.5234 794.4375,553.9375 Q794.8828,554.3438 795.6797,554.3438 Q796.1484,554.3438 796.4766,554.2188 Q796.6719,554.1406 796.8828,553.9219 Q797.0156,553.7891 797.0859,553.75 Q797.1641,553.7109 797.2656,553.7109 Q797.4297,553.7109 797.5547,553.8438 Q797.6875,553.9688 797.6875,554.1406 Q797.6875,554.3125 797.5156,554.5156 Q797.2656,554.8047 796.8672,554.9688 Q796.3281,555.1953 795.6797,555.1953 Q794.9219,555.1953 794.3203,554.8828 Q793.8281,554.6328 793.4844,554.1016 Q793.1406,553.5625 793.1406,552.9219 L793.1406,552.3438 Q793.1406,551.6797 793.4453,551.1094 Q793.7578,550.5313 794.3047,550.2266 Q794.8516,549.9141 795.4688,549.9141 Q795.8359,549.9141 796.1563,550 Q796.4844,550.0781 796.7578,550.2578 Z " fill="#000000"/><text fill="#000000" font-family="sans-serif" font-size="7" lengthAdjust="spacing" textLength="47.5" x="805.625" y="554.7471">Announcement</text><line style="stroke:#181818;stroke-width:0.25;" x1="703" x2="939.5" y1="560.3203" y2="560.3203"/><rect fill="none" height="3" style="stroke:#C82930;stroke-width:0.5;" width="3" x="706.5" y="565.4805"/><text fill="#000000" font-family="sans-serif" font-size="7" lengthAdjust="spacing" textLength="51.5" x="712.5" y="568.6572">String initialDate</text><rect fill="none" height="3" style="stroke:#C82930;stroke-width:0.5;" width="3" x="706.5" y="573.3008"/><text fill="#000000" font-family="sans-serif" font-size="7" lengthAdjust="spacing" textLength="48.5" x="712.5" y="576.4775">String finalDate</text><rect fill="none" height="3" style="stroke:#C82930;stroke-width:0.5;" width="3" x="706.5" y="581.1211"/><text fill="#000000" font-family="sans-serif" font-size="7" lengthAdjust="spacing" textLength="62" x="712.5" y="584.2979">String contractType</text><line style="stroke:#181818;stroke-width:0.25;" x1="703" x2="939.5" y1="587.7813" y2="587.7813"/><ellipse cx="708" cy="594.4414" fill="#84BE84" rx="1.5" ry="1.5" style="stroke:#038048;stroke-width:0.5;"/><text fill="#000000" font-family="sans-serif" font-size="7" lengthAdjust="spacing" textLength="29.5" x="712.5" y="596.1182">getUser()</text><ellipse cx="708" cy="602.2617" fill="#84BE84" rx="1.5" ry="1.5" style="stroke:#038048;stroke-width:0.5;"/><text fill="#000000" font-family="sans-serif" font-size="7" lengthAdjust="spacing" textLength="224.5" x="712.5" y="603.9385">PublishedAnnouncement(initialDate, finalDate, AnnouncementRequest)</text></g><!--class Business--><g id="elem_Business"><rect codeLine="166" fill="#F1F1F1" height="63.1016" id="Business" rx="1.25" ry="1.25" style="stroke:#181818;stroke-width:0.25;" width="108.5" x="767" y="676.3203"/><ellipse cx="804.875" cy="684.3203" fill="#ADD1B2" rx="5.5" ry="5.5" style="stroke:#181818;stroke-width:0.5;"/><path d="M806.2578,682.2578 Q806.3359,682.1484 806.4297,682.0938 Q806.5234,682.0391 806.6328,682.0391 Q806.8203,682.0391 806.9375,682.1719 Q807.0547,682.2969 807.0547,682.6016 L807.0547,683.3281 Q807.0547,683.6328 806.9375,683.7656 Q806.8203,683.8984 806.6328,683.8984 Q806.4609,683.8984 806.3594,683.7969 Q806.2578,683.7031 806.2031,683.4453 Q806.1797,683.2656 806.0859,683.1719 Q805.9219,682.9844 805.6172,682.875 Q805.3125,682.7656 805,682.7656 Q804.6172,682.7656 804.2969,682.9297 Q803.9844,683.0938 803.7344,683.4688 Q803.4922,683.8438 803.4922,684.3594 L803.4922,684.9063 Q803.4922,685.5234 803.9375,685.9375 Q804.3828,686.3438 805.1797,686.3438 Q805.6484,686.3438 805.9766,686.2188 Q806.1719,686.1406 806.3828,685.9219 Q806.5156,685.7891 806.5859,685.75 Q806.6641,685.7109 806.7656,685.7109 Q806.9297,685.7109 807.0547,685.8438 Q807.1875,685.9688 807.1875,686.1406 Q807.1875,686.3125 807.0156,686.5156 Q806.7656,686.8047 806.3672,686.9688 Q805.8281,687.1953 805.1797,687.1953 Q804.4219,687.1953 803.8203,686.8828 Q803.3281,686.6328 802.9844,686.1016 Q802.6406,685.5625 802.6406,684.9219 L802.6406,684.3438 Q802.6406,683.6797 802.9453,683.1094 Q803.2578,682.5313 803.8047,682.2266 Q804.3516,681.9141 804.9688,681.9141 Q805.3359,681.9141 805.6563,682 Q805.9844,682.0781 806.2578,682.2578 Z " fill="#000000"/><text fill="#000000" font-family="sans-serif" font-size="7" lengthAdjust="spacing" textLength="28.5" x="815.125" y="686.7471">Business</text><line style="stroke:#181818;stroke-width:0.25;" x1="767.5" x2="875" y1="692.3203" y2="692.3203"/><rect fill="none" height="3" style="stroke:#C82930;stroke-width:0.5;" width="3" x="771" y="697.4805"/><text fill="#000000" font-family="sans-serif" font-size="7" lengthAdjust="spacing" textLength="71.5" x="777" y="700.6572">double requestedPrice</text><rect fill="none" height="3" style="stroke:#C82930;stroke-width:0.5;" width="3" x="771" y="705.3008"/><text fill="#000000" font-family="sans-serif" font-size="7" lengthAdjust="spacing" textLength="70" x="777" y="708.4775">String typeOfBusiness</text><line style="stroke:#181818;stroke-width:0.25;" x1="767.5" x2="875" y1="711.9609" y2="711.9609"/><ellipse cx="772.5" cy="718.6211" fill="#84BE84" rx="1.5" ry="1.5" style="stroke:#038048;stroke-width:0.5;"/><text fill="#000000" font-family="sans-serif" font-size="7" lengthAdjust="spacing" textLength="63" x="777" y="720.2979">getFinalComission()</text><ellipse cx="772.5" cy="726.4414" fill="#84BE84" rx="1.5" ry="1.5" style="stroke:#038048;stroke-width:0.5;"/><text fill="#000000" font-family="sans-serif" font-size="7" lengthAdjust="spacing" textLength="95.5" x="777" y="728.1182">calculatePriceWithComission()</text><ellipse cx="772.5" cy="734.2617" fill="#84BE84" rx="1.5" ry="1.5" style="stroke:#038048;stroke-width:0.5;"/><text fill="#000000" font-family="sans-serif" font-size="7" lengthAdjust="spacing" textLength="67" x="777" y="735.9385">getTypeOfBusiness()</text></g><!--class Agent--><g id="elem_Agent"><rect fill="#F1F1F1" height="24" id="Agent" rx="1.25" ry="1.25" style="stroke:#181818;stroke-width:0.25;" width="34.5" x="1019" y="369.0703"/><ellipse cx="1026.5" cy="377.0703" fill="#ADD1B2" rx="5.5" ry="5.5" style="stroke:#181818;stroke-width:0.5;"/><path d="M1027.8828,375.0078 Q1027.9609,374.8984 1028.0547,374.8438 Q1028.1484,374.7891 1028.2578,374.7891 Q1028.4453,374.7891 1028.5625,374.9219 Q1028.6797,375.0469 1028.6797,375.3516 L1028.6797,376.0781 Q1028.6797,376.3828 1028.5625,376.5156 Q1028.4453,376.6484 1028.2578,376.6484 Q1028.0859,376.6484 1027.9844,376.5469 Q1027.8828,376.4531 1027.8281,376.1953 Q1027.8047,376.0156 1027.7109,375.9219 Q1027.5469,375.7344 1027.2422,375.625 Q1026.9375,375.5156 1026.625,375.5156 Q1026.2422,375.5156 1025.9219,375.6797 Q1025.6094,375.8438 1025.3594,376.2188 Q1025.1172,376.5938 1025.1172,377.1094 L1025.1172,377.6563 Q1025.1172,378.2734 1025.5625,378.6875 Q1026.0078,379.0938 1026.8047,379.0938 Q1027.2734,379.0938 1027.6016,378.9688 Q1027.7969,378.8906 1028.0078,378.6719 Q1028.1406,378.5391 1028.2109,378.5 Q1028.2891,378.4609 1028.3906,378.4609 Q1028.5547,378.4609 1028.6797,378.5938 Q1028.8125,378.7188 1028.8125,378.8906 Q1028.8125,379.0625 1028.6406,379.2656 Q1028.3906,379.5547 1027.9922,379.7188 Q1027.4531,379.9453 1026.8047,379.9453 Q1026.0469,379.9453 1025.4453,379.6328 Q1024.9531,379.3828 1024.6094,378.8516 Q1024.2656,378.3125 1024.2656,377.6719 L1024.2656,377.0938 Q1024.2656,376.4297 1024.5703,375.8594 Q1024.8828,375.2813 1025.4297,374.9766 Q1025.9766,374.6641 1026.5938,374.6641 Q1026.9609,374.6641 1027.2813,374.75 Q1027.6094,374.8281 1027.8828,375.0078 Z " fill="#000000"/><text fill="#000000" font-family="sans-serif" font-size="7" lengthAdjust="spacing" textLength="18.5" x="1033.5" y="379.4971">Agent</text><line style="stroke:#181818;stroke-width:0.25;" x1="1019.5" x2="1053" y1="385.0703" y2="385.0703"/><line style="stroke:#181818;stroke-width:0.25;" x1="1019.5" x2="1053" y1="389.0703" y2="389.0703"/></g><!--link PublishAnnouncementUI to PublishAnnouncementController--><g id="link_PublishAnnouncementUI_PublishAnnouncementController"><path codeLine="21" d="M182.505,65.0703 C188.28,65.0703 193.495,65.0703 197.335,65.0703 " fill="none" id="PublishAnnouncementUI-to-PublishAnnouncementController" style="stroke:#181818;stroke-width:0.5;stroke-dasharray:7.0,7.0;"/><polygon fill="#181818" points="199.985,65.0703,195.485,63.0703,197.485,65.0703,195.485,67.0703,199.985,65.0703" style="stroke:#181818;stroke-width:0.5;"/></g><!--link PublishAnnouncementController to Repositories--><g id="link_PublishAnnouncementController_Repositories"><path codeLine="182" d="M478.605,65.0703 C495.95,65.0703 512.855,65.0703 527.905,65.0703 " fill="none" id="PublishAnnouncementController-to-Repositories" style="stroke:#181818;stroke-width:0.5;stroke-dasharray:7.0,7.0;"/><polygon fill="#181818" points="530.495,65.0703,525.995,63.0703,527.995,65.0703,525.995,67.0703,530.495,65.0703" style="stroke:#181818;stroke-width:0.5;"/><text fill="#000000" font-family="sans-serif" font-size="6.5" lengthAdjust="spacing" textLength="33.5" x="487.75" y="61.9546">repositories</text></g><!--link Repositories to Repositories--><g id="link_Repositories_Repositories"><path codeLine="183" d="M640.07,54.0403 C650.295,55.4003 657.5,59.0753 657.5,65.0703 C657.5,70.5503 651.48,74.0903 642.635,75.6953 " fill="none" id="Repositories-to-Repositories" style="stroke:#181818;stroke-width:0.5;"/><polygon fill="#181818" points="640.07,76.1003,644.8246,77.3825,642.5401,75.7148,644.2078,73.4303,640.07,76.1003" style="stroke:#181818;stroke-width:0.5;"/><text fill="#000000" font-family="sans-serif" font-size="6.5" lengthAdjust="spacing" textLength="24.5" x="660.5" y="67.4546">instance</text></g><!--link Repositories to UserIdentityRepository--><g id="link_Repositories_UserIdentityRepository"><path codeLine="184" d="M602.14,108.3453 C607.055,120.8053 612.165,133.7453 616.125,143.7753 " fill="none" id="Repositories-to-UserIdentityRepository" style="stroke:#181818;stroke-width:0.5;stroke-dasharray:7.0,7.0;"/><polygon fill="#181818" points="617.055,146.1303,617.2669,141.2104,616.1389,143.8042,613.5451,142.6762,617.055,146.1303" style="stroke:#181818;stroke-width:0.5;"/><text fill="#000000" font-family="sans-serif" font-size="6.5" lengthAdjust="spacing" textLength="34.5" x="611.75" y="129.7046">UserIdentity</text></g><!--link Repositories to TypeComissionRepository--><g id="link_Repositories_TypeComissionRepository"><path codeLine="185" d="M640.035,85.3403 C719.05,113.8503 863.545,165.9903 936.915,192.4603 " fill="none" id="Repositories-to-TypeComissionRepository" style="stroke:#181818;stroke-width:0.5;stroke-dasharray:7.0,7.0;"/><polygon fill="#181818" points="939.28,193.3153,935.7286,189.9039,936.9291,192.465,934.368,193.6655,939.28,193.3153" style="stroke:#181818;stroke-width:0.5;"/><text fill="#000000" font-family="sans-serif" font-size="6.5" lengthAdjust="spacing" textLength="29.5" x="767.75" y="129.7046">comission</text></g><!--link Repositories to AnnouncementRepository--><g id="link_Repositories_AnnouncementRepository"><path codeLine="186" d="M530.37,98.2403 C508.425,111.3103 488.25,123.3203 488.25,123.3203 C488.25,123.3203 485.425,133.6753 482.71,143.6403 " fill="none" id="Repositories-to-AnnouncementRepository" style="stroke:#181818;stroke-width:0.5;stroke-dasharray:7.0,7.0;"/><polygon fill="#181818" points="482.02,146.1603,485.1316,142.3436,482.6766,143.7481,481.2721,141.293,482.02,146.1603" style="stroke:#181818;stroke-width:0.5;"/><text fill="#000000" font-family="sans-serif" font-size="6.5" lengthAdjust="spacing" textLength="42.5" x="488.75" y="129.7046">announcement</text></g><!--link Repositories to PropertyTypeRepository--><g id="link_Repositories_PropertyTypeRepository"><path codeLine="187" d="M571.515,108.4503 C568.79,116.9553 566.75,123.3203 566.75,123.3203 C566.75,123.3203 558.36,165.5053 553.37,190.6153 " fill="none" id="Repositories-to-PropertyTypeRepository" style="stroke:#181818;stroke-width:0.5;stroke-dasharray:7.0,7.0;"/><polygon fill="#181818" points="552.87,193.1403,555.7047,189.1136,553.3548,190.6878,551.7806,188.3379,552.87,193.1403" style="stroke:#181818;stroke-width:0.5;"/><text fill="#000000" font-family="sans-serif" font-size="6.5" lengthAdjust="spacing" textLength="37.5" x="567.25" y="129.7046">propertyType</text></g><!--link PropertyTypeRepository to Property--><g id="link_PropertyTypeRepository_Property"><path codeLine="191" d="M548.335,225.4253 C545.66,254.8503 539.855,318.8003 536.595,354.7303 " fill="none" id="PropertyTypeRepository-to-Property" style="stroke:#181818;stroke-width:0.5;"/><polygon fill="#181818" points="536.365,357.2703,538.7675,352.9717,536.5933,354.7808,534.7842,352.6065,536.365,357.2703" style="stroke:#181818;stroke-width:0.5;"/></g><!--reverse link Residence to House--><g id="link_Residence_House"><path codeLine="192" d="M321.25,613.7403 C321.25,636.3703 321.25,664.5153 321.25,683.9953 " fill="none" id="Residence-backto-House" style="stroke:#181818;stroke-width:0.5;"/><polygon fill="none" points="317.75,613.6203,321.25,603.6203,324.75,613.6203,317.75,613.6203" style="stroke:#181818;stroke-width:0.5;"/></g><!--reverse link Property to Residence--><g id="link_Property_Residence"><path codeLine="193" d="M490.975,410.6103 C483.065,415.9203 477.25,419.8203 477.25,419.8203 C477.25,419.8203 393.34,503.4603 348.6,548.0553 " fill="none" id="Property-backto-Residence" style="stroke:#181818;stroke-width:0.5;"/><polygon fill="none" points="489.195,407.5903,499.45,404.9203,493.1,413.4003,489.195,407.5903" style="stroke:#181818;stroke-width:0.5;"/></g><!--link Photos to Property--><g id="link_Photos_Property"><path codeLine="194" d="M422.53,381.0703 C432.535,381.0703 445,381.0703 457.93,381.0703 " fill="none" id="Photos-Property" style="stroke:#181818;stroke-width:0.5;"/><polygon fill="#000000" points="431.25,375.7012,435.7725,377.1706,435.7725,374.2317,431.25,375.7012" style="stroke:#000000;stroke-width:0.5;"/><text fill="#000000" font-family="sans-serif" font-size="6.5" lengthAdjust="spacing" textLength="10.5" x="438.25" y="377.9546">has</text><text fill="#000000" font-family="sans-serif" font-size="6.5" lengthAdjust="spacing" textLength="14.5" x="426.4981" y="387.4546">1..30</text><text fill="#000000" font-family="sans-serif" font-size="6.5" lengthAdjust="spacing" textLength="3.5" x="450.4045" y="379.7819">1</text></g><!--link SunExposure to House--><g id="link_SunExposure_House"><path codeLine="195" d="M467.595,707.8203 C452.79,707.8203 435.61,707.8203 418.335,707.8203 " fill="none" id="SunExposure-House" style="stroke:#181818;stroke-width:0.5;"/><polygon fill="#000000" points="432,702.4512,427.4775,700.9817,427.4775,703.9206,432,702.4512" style="stroke:#000000;stroke-width:0.5;"/><text fill="#000000" font-family="sans-serif" font-size="6.5" lengthAdjust="spacing" textLength="24.5" x="434" y="704.7046">contains</text><text fill="#000000" font-family="sans-serif" font-size="6.5" lengthAdjust="spacing" textLength="3.5" x="460.193" y="706.409">1</text><text fill="#000000" font-family="sans-serif" font-size="6.5" lengthAdjust="spacing" textLength="2.5" x="422.1762" y="706.5737">*</text></g><!--link AvailableEquipment to Residence--><g id="link_AvailableEquipment_Residence"><path codeLine="196" d="M138.045,575.8203 C153.405,575.8203 170.26,575.8203 187.33,575.8203 " fill="none" id="AvailableEquipment-Residence" style="stroke:#181818;stroke-width:0.5;"/><polygon fill="#000000" points="146.75,570.4512,151.2725,571.9206,151.2725,568.9817,146.75,570.4512" style="stroke:#000000;stroke-width:0.5;"/><text fill="#000000" font-family="sans-serif" font-size="6.5" lengthAdjust="spacing" textLength="24.5" x="153.75" y="572.7046">contains</text><text fill="#000000" font-family="sans-serif" font-size="6.5" lengthAdjust="spacing" textLength="2.5" x="142.0078" y="574.5057">*</text><text fill="#000000" font-family="sans-serif" font-size="6.5" lengthAdjust="spacing" textLength="3.5" x="179.8023" y="574.6078">1</text></g><!--link Address to State--><g id="link_Address_State"><path codeLine="201" d="M725.44,474.5703 C739.76,474.5703 754.065,474.5703 766.24,474.5703 " fill="none" id="Address-State" style="stroke:#181818;stroke-width:0.5;"/><polygon fill="#000000" points="739,469.2012,734.4775,467.7317,734.4775,470.6706,739,469.2012" style="stroke:#000000;stroke-width:0.5;"/><text fill="#000000" font-family="sans-serif" font-size="6.5" lengthAdjust="spacing" textLength="16" x="741" y="471.4546">has a</text><text fill="#000000" font-family="sans-serif" font-size="6.5" lengthAdjust="spacing" textLength="3.5" x="729.1668" y="473.2855">1</text><text fill="#000000" font-family="sans-serif" font-size="6.5" lengthAdjust="spacing" textLength="2.5" x="759.7209" y="473.0569">*</text></g><!--link District to City--><g id="link_District_City"><path codeLine="202" d="M946.365,474.5703 C959.61,474.5703 974.47,474.5703 987.23,474.5703 " fill="none" id="District-City" style="stroke:#181818;stroke-width:0.5;"/><polygon fill="#000000" points="960,469.2012,955.4775,467.7317,955.4775,470.6706,960,469.2012" style="stroke:#000000;stroke-width:0.5;"/><text fill="#000000" font-family="sans-serif" font-size="6.5" lengthAdjust="spacing" textLength="16" x="962" y="471.4546">has a</text><text fill="#000000" font-family="sans-serif" font-size="6.5" lengthAdjust="spacing" textLength="3.5" x="950.2698" y="473.0999">1</text><text fill="#000000" font-family="sans-serif" font-size="6.5" lengthAdjust="spacing" textLength="2.5" x="980.7971" y="473.0354">*</text></g><!--link State to District--><g id="link_State_District"><path codeLine="203" d="M833.355,474.5703 C846.245,474.5703 861,474.5703 874.115,474.5703 " fill="none" id="State-District" style="stroke:#181818;stroke-width:0.5;"/><polygon fill="#000000" points="847,469.2012,842.4775,467.7317,842.4775,470.6706,847,469.2012" style="stroke:#000000;stroke-width:0.5;"/><text fill="#000000" font-family="sans-serif" font-size="6.5" lengthAdjust="spacing" textLength="16" x="849" y="471.4546">has a</text><text fill="#000000" font-family="sans-serif" font-size="6.5" lengthAdjust="spacing" textLength="3.5" x="837.222" y="473.0784">1</text><text fill="#000000" font-family="sans-serif" font-size="6.5" lengthAdjust="spacing" textLength="2.5" x="867.7597" y="473.0999">*</text></g><!--link User to Address--><g id="link_User_Address"><path codeLine="204" d="M629.345,326.9453 C633.96,359.4553 640.26,403.7553 644.73,435.2253 " fill="none" id="User-Address" style="stroke:#181818;stroke-width:0.5;"/><polygon fill="#000000" points="643.6017,383.6763,644.4203,378.992,641.5106,379.4055,643.6017,383.6763" style="stroke:#000000;stroke-width:0.5;"/><text fill="#000000" font-family="sans-serif" font-size="6.5" lengthAdjust="spacing" textLength="10.5" x="647.75" y="383.4546">has</text><text fill="#000000" font-family="sans-serif" font-size="6.5" lengthAdjust="spacing" textLength="3.5" x="626.2048" y="336.7197">1</text><text fill="#000000" font-family="sans-serif" font-size="6.5" lengthAdjust="spacing" textLength="3.5" x="640.5144" y="429.893">1</text></g><!--link UserIdentityRepository to User--><g id="link_UserIdentityRepository_User"><path codeLine="205" d="M623.25,178.5403 C623.25,193.5603 623.25,216.9303 623.25,237.7653 " fill="none" id="UserIdentityRepository-to-User" style="stroke:#181818;stroke-width:0.5;stroke-dasharray:7.0,7.0;"/><polygon fill="#181818" points="623.25,240.2953,625.25,235.7953,623.25,237.7953,621.25,235.7953,623.25,240.2953" style="stroke:#181818;stroke-width:0.5;"/></g><!--link User to Property--><g id="link_User_Property"><path codeLine="206" d="M586.665,323.7403 C576.82,334.4103 566.445,345.6653 557.545,355.3153 " fill="none" id="User-to-Property" style="stroke:#181818;stroke-width:0.5;"/><polygon fill="#181818" points="555.785,357.2203,560.3059,355.2681,557.4798,355.3825,557.3654,352.5564,555.785,357.2203" style="stroke:#181818;stroke-width:0.5;"/></g><!--link TypeComissionRepository to Comission--><g id="link_TypeComissionRepository_Comission"><path codeLine="210" d="M997.195,225.4253 C1025.54,255.0303 1087.34,319.5703 1121.625,355.3753 " fill="none" id="TypeComissionRepository-to-Comission" style="stroke:#181818;stroke-width:0.5;"/><polygon fill="#181818" points="1123.44,357.2703,1121.7748,352.636,1121.7119,355.4637,1118.8842,355.4009,1123.44,357.2703" style="stroke:#181818;stroke-width:0.5;"/></g><!--link Agent to Comission--><g id="link_Agent_Comission"><path codeLine="211" d="M1053.6,381.0703 C1065.78,381.0703 1082.695,381.0703 1098.71,381.0703 " fill="none" id="Agent-Comission" style="stroke:#181818;stroke-width:0.5;"/><polygon fill="#000000" points="1067.125,375.7012,1062.6025,374.2317,1062.6025,377.1706,1067.125,375.7012" style="stroke:#000000;stroke-width:0.5;"/><text fill="#000000" font-family="sans-serif" font-size="6.5" lengthAdjust="spacing" textLength="20.5" x="1069.125" y="377.9546">defines</text><text fill="#000000" font-family="sans-serif" font-size="6.5" lengthAdjust="spacing" textLength="3.5" x="1057.5394" y="379.2597">1</text><text fill="#000000" font-family="sans-serif" font-size="6.5" lengthAdjust="spacing" textLength="3.5" x="1091.322" y="379.6877">1</text></g><!--link Comission to Business--><g id="link_Comission_Business"><path codeLine="212" d="M1145.75,404.9103 C1145.75,432.3153 1145.75,474.0703 1145.75,474.0703 C1145.75,474.0703 1145.75,474.0703 1145.75,642.3203 C1145.75,642.3203 967.94,677.9353 875.565,696.4403 " fill="none" id="Comission-Business" style="stroke:#181818;stroke-width:0.5;"/><polygon fill="#000000" points="1149.9494,574.1176,1145.7974,576.4357,1147.953,578.4335,1149.9494,574.1176" style="stroke:#000000;stroke-width:0.5;"/><text fill="#000000" font-family="sans-serif" font-size="6.5" lengthAdjust="spacing" textLength="24.5" x="1152.75" y="578.2046">contains</text><text fill="#000000" font-family="sans-serif" font-size="6.5" lengthAdjust="spacing" textLength="3.5" x="1142.0039" y="414.6604">1</text><text fill="#000000" font-family="sans-serif" font-size="6.5" lengthAdjust="spacing" textLength="3.5" x="879.5071" y="694.284">1</text></g><!--link Property to Business--><g id="link_Property_Business"><path codeLine="213" d="M523.145,404.9103 C510.11,432.3153 490.25,474.0703 490.25,474.0703 C490.25,474.0703 490.25,474.0703 490.25,642.3203 C490.25,642.3203 673.06,678.2203 766.965,696.6603 " fill="none" id="Property-Business" style="stroke:#181818;stroke-width:0.5;"/><polygon fill="#000000" points="491.1468,574.0329,492.9194,578.4454,495.1745,576.5608,491.1468,574.0329" style="stroke:#000000;stroke-width:0.5;"/><text fill="#000000" font-family="sans-serif" font-size="6.5" lengthAdjust="spacing" textLength="16" x="497.25" y="578.2046">has a</text><text fill="#000000" font-family="sans-serif" font-size="6.5" lengthAdjust="spacing" textLength="3.5" x="517.8373" y="414.6604">1</text><text fill="#000000" font-family="sans-serif" font-size="6.5" lengthAdjust="spacing" textLength="3.5" x="759.525" y="694.5194">1</text></g><!--link Announcement to Business--><g id="link_Announcement_Business"><path codeLine="214" d="M821.25,607.3653 C821.25,628.1703 821.25,655.4653 821.25,676.2703 " fill="none" id="Announcement-Business" style="stroke:#181818;stroke-width:0.5;"/><polygon fill="#000000" points="823.75,644.4512,825.2195,639.9286,822.2805,639.9286,823.75,644.4512" style="stroke:#000000;stroke-width:0.5;"/><text fill="#000000" font-family="sans-serif" font-size="6.5" lengthAdjust="spacing" textLength="10.5" x="828.25" y="644.2046">has</text><text fill="#000000" font-family="sans-serif" font-size="6.5" lengthAdjust="spacing" textLength="3.5" x="817.5477" y="617.3109">1</text><text fill="#000000" font-family="sans-serif" font-size="6.5" lengthAdjust="spacing" textLength="3.5" x="817.5367" y="670.8926">1</text></g><!--link Property to Announcement--><g id="link_Property_Announcement"><path codeLine="215" d="M535.75,404.9103 C538.19,442.8753 542.75,513.8203 542.75,513.8203 C542.75,513.8203 626.64,532.3453 702.335,549.0603 " fill="none" id="Property-Announcement" style="stroke:#181818;stroke-width:0.5;"/><polygon fill="#000000" points="543.3595,473.0653,545.8179,477.1358,547.741,474.9134,543.3595,473.0653" style="stroke:#000000;stroke-width:0.5;"/><text fill="#000000" font-family="sans-serif" font-size="6.5" lengthAdjust="spacing" textLength="16" x="549.75" y="476.9546">has a</text><text fill="#000000" font-family="sans-serif" font-size="6.5" lengthAdjust="spacing" textLength="3.5" x="532.2148" y="414.6604">1</text><text fill="#000000" font-family="sans-serif" font-size="6.5" lengthAdjust="spacing" textLength="3.5" x="694.8757" y="546.9543">1</text></g><!--link Agent to Announcement--><g id="link_Agent_Announcement"><path codeLine="216" d="M1040.97,393.1003 C1047.435,408.8953 1058.25,435.3203 1058.25,435.3203 C1058.25,435.3203 1058.25,513.8203 1058.25,513.8203 C1058.25,513.8203 999.23,529.1353 940.095,544.4803 " fill="none" id="Agent-Announcement" style="stroke:#181818;stroke-width:0.5;"/><polygon fill="#000000" points="1059.3637,476.7816,1063.0944,473.8329,1060.6487,472.2032,1059.3637,476.7816" style="stroke:#000000;stroke-width:0.5;"/><text fill="#000000" font-family="sans-serif" font-size="6.5" lengthAdjust="spacing" textLength="27.5" x="1065.25" y="476.9546">publishes</text><text fill="#000000" font-family="sans-serif" font-size="6.5" lengthAdjust="spacing" textLength="3.5" x="1038.2311" y="402.9977">1</text><text fill="#000000" font-family="sans-serif" font-size="6.5" lengthAdjust="spacing" textLength="2.5" x="944.0356" y="542.224">*</text></g><!--reverse link Business to Rent--><g id="link_Business_Rent"><path codeLine="217" d="M821.25,749.4353 C821.25,766.6303 821.25,785.9903 821.25,800.6803 " fill="none" id="Business-backto-Rent" style="stroke:#181818;stroke-width:0.5;"/><polygon fill="none" points="817.75,749.3403,821.25,739.3403,824.75,749.3403,817.75,749.3403" style="stroke:#181818;stroke-width:0.5;"/></g><!--SRC=[ZLTBR-Cs4BxpLn2vnDb8GThUZ4M0nCcY1egD4ISjKFJ2IBH5h4ngIMeRxxR_lSEdI4aEgfF4-UQR1uSprBdwmdX793dWW-2YQgGuKAnbJz4WwKZrXUpfLXzRYYMjDE7xDWMeXjJYRyRtU4TQbKfQnga-TXHteZsQ3tG-8nHIYrHGjKIfMwqbU-qrNLU2RzbtYg_HUKjt6ck19Tit6jVCUCC4HqWp3SwzRA-lVyObNXa2VC_87kWGGfOGR_hNbgdcbdFHyueUADSlw_UaAy6r56rB9Vw1C3oNk7iFjUYawAZKnsU8websGZ4jvB4W2NfOll2KUwfJEhMuE6qhir3WcgfAiiwaeC2LKBh0ZE-4F93sFX7znJMj6iwgV1dNlIJcxN6Nsh2qRC-jw0BzYz1iul3LpViv2ucD4JEg88zb-Wsneaj8m9ehgAgABYwMgTZARcUp1vf6kF7vc0XU59Nh6bHOAhGYaxkLE32b8C14Pa9rBi-RZ4KmisDHTJDR0ebc2aWLvnt-CGacrJaH2IZX8KulTde8ZHtrKPMu5h2R51D9YLzXt9mnjpEVe3CyDtG57gp04REzDgH0ip1wnMbucg96QA62sIqSS-WSBq_h0V6hw1MDZjq9qLB2CNq3SWhaZxixecpgyTAtd9F8DM_8AzC4GljDx0O5vxqrj9WXBjxXI49vWfDI6v1nrYMCzuTNAe69rbA8Wvgi4ztC2ZP4GWVSRw7TGkKx_oB_OanRJ0cBUQh4tMtF7zwWIdevPDVdF-cbrd82NKHPGdNxZR3MPEJXQyywknSZHjFQ7tTHx7cdUeiHS5IdflQXe3qf9mUABatQD7dpyRhlhX6SnXKFfmUmXb09f-4pQC8PCAyFPjM_RupQPwlbLvx9M_mUmgrhIPKACNfwfILrp6xP-F6TTIjHXmBxHYNR7VzqQw6pWv6LEydXynvgJR9A9qjRJNJKyEONoYowKsRWqFI1f_1-5C6spw3pt5ZoRWzxOzIisyvlxv1FKGmwU3Mj5RUUCzmdgocB3SHHH0ORHww-3KknKNd_Gt-BCVX61MsdWdA1cyb8OCXPzJjf-x0B62PVrRTWu1FZf8sKtbGuoqaDszONnwCTQgGADGpUJdYi89fv5fgq6yX6bebqQ8npoZZJ3EOpAEU2dR4qNQwyIwR93swPmnASySEPrja58h5J3Dp5QEHzxQbA-znTh-2oDjH_IBLqI5hRMBEpuKvrKFpVcRD4Vp3TJ21-eWsSYwmH9xU64tCwkoFO4dl_pWSNdEpkieHm4okPh2p7OEQlD3dk2aZd9ptGfuAfsebX3tfLM9qgdRZ9B75w9vsgpTzYG2szVzeCpWDDEe883KFoupyb_2ZmidGJFcedWWWUX6S_dU7ItFnBUBsw-kNwp5yXbhWX2j-WTAnPS6d_3m3-uSnPMjhpGc1Fy4SqCxeCC2e1G_GYKpIFwsQ0ZnwTXU7Wt24OaBRfvg3G7XDKxAyvqff8OAOiV5mpzcxGYNeAfURqins1vrGrkNsu6TekYc_EXxvpFkp1u19-5NRcB9gGSvZpD1pLB8tvnevmBchOfBHNfi7dq9ivODyvQ30KMCVW3pQSa5GNaF_fiY75hWVbQKlJt6B-0m00]--></g></svg>