<?xml version="1.0" encoding="us-ascii" standalone="no"?><svg xmlns="http://www.w3.org/2000/svg" xmlns:xlink="http://www.w3.org/1999/xlink" contentStyleType="text/css" height="1147.8px" preserveAspectRatio="none" style="width:1123px;height:1147px;background:#FFFFFF;" version="1.1" viewBox="0 0 1123 1147" width="1123.8px" zoomAndPan="magnify"><defs/><g><!--class Address--><g id="elem_Address"><rect codeLine="11" fill="#F1F1F1" height="94.4906" id="Address" rx="1.5" ry="1.5" style="stroke:#181818;stroke-width:0.3;" width="176.4" x="918.6" y="872.4"/><ellipse cx="988.65" cy="882" fill="#ADD1B2" rx="6.6" ry="6.6" style="stroke:#181818;stroke-width:0.6;"/><path d="M990.3094,879.525 Q990.4031,879.3938 990.5156,879.3281 Q990.6281,879.2625 990.7594,879.2625 Q990.9844,879.2625 991.125,879.4219 Q991.2656,879.5719 991.2656,879.9375 L991.2656,880.8094 Q991.2656,881.175 991.125,881.3344 Q990.9844,881.4938 990.7594,881.4938 Q990.5531,881.4938 990.4313,881.3719 Q990.3094,881.2594 990.2438,880.95 Q990.2156,880.7344 990.1031,880.6219 Q989.9063,880.3969 989.5406,880.2656 Q989.175,880.1344 988.8,880.1344 Q988.3406,880.1344 987.9563,880.3313 Q987.5813,880.5281 987.2813,880.9781 Q986.9906,881.4281 986.9906,882.0469 L986.9906,882.7031 Q986.9906,883.4438 987.525,883.9406 Q988.0594,884.4281 989.0156,884.4281 Q989.5781,884.4281 989.9719,884.2781 Q990.2063,884.1844 990.4594,883.9219 Q990.6188,883.7625 990.7031,883.7156 Q990.7969,883.6687 990.9187,883.6687 Q991.1156,883.6687 991.2656,883.8281 Q991.425,883.9781 991.425,884.1844 Q991.425,884.3906 991.2188,884.6344 Q990.9187,884.9812 990.4406,885.1781 Q989.7937,885.45 989.0156,885.45 Q988.1062,885.45 987.3844,885.075 Q986.7937,884.775 986.3812,884.1375 Q985.9688,883.4906 985.9688,882.7219 L985.9688,882.0281 Q985.9688,881.2312 986.3344,880.5469 Q986.7094,879.8531 987.3656,879.4875 Q988.0219,879.1125 988.7625,879.1125 Q989.2031,879.1125 989.5875,879.2156 Q989.9812,879.3094 990.3094,879.525 Z " fill="#000000"/><text fill="#000000" font-family="sans-serif" font-size="8.4" lengthAdjust="spacing" textLength="31.2" x="1000.95" y="884.9121">Address</text><line style="stroke:#181818;stroke-width:0.3;" x1="919.2" x2="1094.4" y1="891.6" y2="891.6"/><text fill="#000000" font-family="sans-serif" font-size="8.4" lengthAdjust="spacing" textLength="70.8" x="922.2" y="901.6043">-String streetName</text><text fill="#000000" font-family="sans-serif" font-size="8.4" lengthAdjust="spacing" textLength="57" x="922.2" y="910.9887">-int zipCode : 0</text><line style="stroke:#181818;stroke-width:0.3;" x1="919.2" x2="1094.4" y1="915.1687" y2="915.1687"/><text fill="#000000" font-family="sans-serif" font-size="8.4" lengthAdjust="spacing" textLength="63" x="922.2" y="925.173">+verifyZipCode()</text><text fill="#000000" font-family="sans-serif" font-size="8.4" lengthAdjust="spacing" textLength="37.2" x="922.2" y="934.5574">+getCity()</text><text fill="#000000" font-family="sans-serif" font-size="8.4" lengthAdjust="spacing" textLength="48.6" x="922.2" y="943.9418">+getDistrict()</text><text fill="#000000" font-family="sans-serif" font-size="8.4" lengthAdjust="spacing" textLength="42.6" x="922.2" y="953.3262">+getState()</text><text fill="#000000" font-family="sans-serif" font-size="8.4" lengthAdjust="spacing" textLength="169.2" x="922.2" y="962.7105">+Address(state, district, city, street, zipCode)</text></g><!--class City--><g id="elem_City"><rect codeLine="23" fill="#F1F1F1" height="38.1844" id="City" rx="1.5" ry="1.5" style="stroke:#181818;stroke-width:0.3;" width="69" x="1041.9" y="774.3"/><ellipse cx="1066.83" cy="783.9" fill="#ADD1B2" rx="6.6" ry="6.6" style="stroke:#181818;stroke-width:0.6;"/><path d="M1068.4894,781.425 Q1068.5831,781.2937 1068.6956,781.2281 Q1068.8081,781.1625 1068.9394,781.1625 Q1069.1644,781.1625 1069.305,781.3219 Q1069.4456,781.4719 1069.4456,781.8375 L1069.4456,782.7094 Q1069.4456,783.075 1069.305,783.2344 Q1069.1644,783.3938 1068.9394,783.3938 Q1068.7331,783.3938 1068.6113,783.2719 Q1068.4894,783.1594 1068.4238,782.85 Q1068.3956,782.6344 1068.2831,782.5219 Q1068.0862,782.2969 1067.7206,782.1656 Q1067.355,782.0344 1066.98,782.0344 Q1066.5206,782.0344 1066.1363,782.2312 Q1065.7613,782.4281 1065.4612,782.8781 Q1065.1706,783.3281 1065.1706,783.9469 L1065.1706,784.6031 Q1065.1706,785.3438 1065.705,785.8406 Q1066.2394,786.3281 1067.1956,786.3281 Q1067.7581,786.3281 1068.1519,786.1781 Q1068.3863,786.0844 1068.6394,785.8219 Q1068.7988,785.6625 1068.8831,785.6156 Q1068.9769,785.5688 1069.0987,785.5688 Q1069.2956,785.5688 1069.4456,785.7281 Q1069.605,785.8781 1069.605,786.0844 Q1069.605,786.2906 1069.3987,786.5344 Q1069.0987,786.8813 1068.6206,787.0781 Q1067.9737,787.35 1067.1956,787.35 Q1066.2862,787.35 1065.5644,786.975 Q1064.9737,786.675 1064.5613,786.0375 Q1064.1487,785.3906 1064.1487,784.6219 L1064.1487,783.9281 Q1064.1487,783.1313 1064.5144,782.4469 Q1064.8894,781.7531 1065.5456,781.3875 Q1066.2019,781.0125 1066.9425,781.0125 Q1067.3831,781.0125 1067.7675,781.1156 Q1068.1612,781.2094 1068.4894,781.425 Z " fill="#000000"/><text fill="#000000" font-family="sans-serif" font-size="8.4" lengthAdjust="spacing" textLength="14.4" x="1078.77" y="786.8121">City</text><line style="stroke:#181818;stroke-width:0.3;" x1="1042.5" x2="1110.3" y1="793.5" y2="793.5"/><text fill="#000000" font-family="sans-serif" font-size="8.4" lengthAdjust="spacing" textLength="61.8" x="1045.5" y="803.5043">-String cityName</text><line style="stroke:#181818;stroke-width:0.3;" x1="1042.5" x2="1110.3" y1="807.6844" y2="807.6844"/></g><!--class District--><g id="elem_District"><rect codeLine="27" fill="#F1F1F1" height="38.1844" id="District" rx="1.5" ry="1.5" style="stroke:#181818;stroke-width:0.3;" width="81" x="1038.9" y="662.1"/><ellipse cx="1064.1" cy="671.7" fill="#ADD1B2" rx="6.6" ry="6.6" style="stroke:#181818;stroke-width:0.6;"/><path d="M1065.7594,669.225 Q1065.8531,669.0938 1065.9656,669.0281 Q1066.0781,668.9625 1066.2094,668.9625 Q1066.4344,668.9625 1066.575,669.1219 Q1066.7156,669.2719 1066.7156,669.6375 L1066.7156,670.5094 Q1066.7156,670.875 1066.575,671.0344 Q1066.4344,671.1938 1066.2094,671.1938 Q1066.0031,671.1938 1065.8813,671.0719 Q1065.7594,670.9594 1065.6938,670.65 Q1065.6656,670.4344 1065.5531,670.3219 Q1065.3563,670.0969 1064.9906,669.9656 Q1064.625,669.8344 1064.25,669.8344 Q1063.7906,669.8344 1063.4063,670.0313 Q1063.0313,670.2281 1062.7313,670.6781 Q1062.4406,671.1281 1062.4406,671.7469 L1062.4406,672.4031 Q1062.4406,673.1438 1062.975,673.6406 Q1063.5094,674.1281 1064.4656,674.1281 Q1065.0281,674.1281 1065.4219,673.9781 Q1065.6563,673.8844 1065.9094,673.6219 Q1066.0688,673.4625 1066.1531,673.4156 Q1066.2469,673.3688 1066.3687,673.3688 Q1066.5656,673.3688 1066.7156,673.5281 Q1066.875,673.6781 1066.875,673.8844 Q1066.875,674.0906 1066.6688,674.3344 Q1066.3687,674.6813 1065.8906,674.8781 Q1065.2437,675.15 1064.4656,675.15 Q1063.5562,675.15 1062.8344,674.775 Q1062.2437,674.475 1061.8313,673.8375 Q1061.4188,673.1906 1061.4188,672.4219 L1061.4188,671.7281 Q1061.4188,670.9313 1061.7844,670.2469 Q1062.1594,669.5531 1062.8156,669.1875 Q1063.4719,668.8125 1064.2125,668.8125 Q1064.6531,668.8125 1065.0375,668.9156 Q1065.4312,669.0094 1065.7594,669.225 Z " fill="#000000"/><text fill="#000000" font-family="sans-serif" font-size="8.4" lengthAdjust="spacing" textLength="25.8" x="1076.1" y="674.6121">District</text><line style="stroke:#181818;stroke-width:0.3;" x1="1039.5" x2="1119.3" y1="681.3" y2="681.3"/><text fill="#000000" font-family="sans-serif" font-size="8.4" lengthAdjust="spacing" textLength="73.8" x="1042.5" y="691.3043">-String districtName</text><line style="stroke:#181818;stroke-width:0.3;" x1="1039.5" x2="1119.3" y1="695.4844" y2="695.4844"/></g><!--class State--><g id="elem_State"><rect codeLine="31" fill="#F1F1F1" height="38.1844" id="State" rx="1.5" ry="1.5" style="stroke:#181818;stroke-width:0.3;" width="75" x="1041.9" y="564"/><ellipse cx="1067.1" cy="573.6" fill="#ADD1B2" rx="6.6" ry="6.6" style="stroke:#181818;stroke-width:0.6;"/><path d="M1068.7594,571.125 Q1068.8531,570.9938 1068.9656,570.9281 Q1069.0781,570.8625 1069.2094,570.8625 Q1069.4344,570.8625 1069.575,571.0219 Q1069.7156,571.1719 1069.7156,571.5375 L1069.7156,572.4094 Q1069.7156,572.775 1069.575,572.9344 Q1069.4344,573.0938 1069.2094,573.0938 Q1069.0031,573.0938 1068.8813,572.9719 Q1068.7594,572.8594 1068.6938,572.55 Q1068.6656,572.3344 1068.5531,572.2219 Q1068.3563,571.9969 1067.9906,571.8656 Q1067.625,571.7344 1067.25,571.7344 Q1066.7906,571.7344 1066.4063,571.9313 Q1066.0313,572.1281 1065.7313,572.5781 Q1065.4406,573.0281 1065.4406,573.6469 L1065.4406,574.3031 Q1065.4406,575.0437 1065.975,575.5406 Q1066.5094,576.0281 1067.4656,576.0281 Q1068.0281,576.0281 1068.4219,575.8781 Q1068.6563,575.7844 1068.9094,575.5219 Q1069.0688,575.3625 1069.1531,575.3156 Q1069.2469,575.2688 1069.3687,575.2688 Q1069.5656,575.2688 1069.7156,575.4281 Q1069.875,575.5781 1069.875,575.7844 Q1069.875,575.9906 1069.6688,576.2344 Q1069.3687,576.5813 1068.8906,576.7781 Q1068.2437,577.05 1067.4656,577.05 Q1066.5562,577.05 1065.8344,576.675 Q1065.2437,576.375 1064.8313,575.7375 Q1064.4188,575.0906 1064.4188,574.3219 L1064.4188,573.6281 Q1064.4188,572.8313 1064.7844,572.1469 Q1065.1594,571.4531 1065.8156,571.0875 Q1066.4719,570.7125 1067.2125,570.7125 Q1067.6531,570.7125 1068.0375,570.8156 Q1068.4312,570.9094 1068.7594,571.125 Z " fill="#000000"/><text fill="#000000" font-family="sans-serif" font-size="8.4" lengthAdjust="spacing" textLength="19.8" x="1079.1" y="576.5121">State</text><line style="stroke:#181818;stroke-width:0.3;" x1="1042.5" x2="1116.3" y1="583.2" y2="583.2"/><text fill="#000000" font-family="sans-serif" font-size="8.4" lengthAdjust="spacing" textLength="67.8" x="1045.5" y="593.2043">-String stateName</text><line style="stroke:#181818;stroke-width:0.3;" x1="1042.5" x2="1116.3" y1="597.3844" y2="597.3844"/></g><!--class Contacts--><g id="elem_Contacts"><rect codeLine="38" fill="#F1F1F1" height="75.7219" id="Contacts" rx="1.5" ry="1.5" style="stroke:#181818;stroke-width:0.3;" width="92.4" x="592.8" y="162.6"/><ellipse cx="619.65" cy="172.2" fill="#ADD1B2" rx="6.6" ry="6.6" style="stroke:#181818;stroke-width:0.6;"/><path d="M621.3094,169.725 Q621.4031,169.5938 621.5156,169.5281 Q621.6281,169.4625 621.7594,169.4625 Q621.9844,169.4625 622.125,169.6219 Q622.2656,169.7719 622.2656,170.1375 L622.2656,171.0094 Q622.2656,171.375 622.125,171.5344 Q621.9844,171.6938 621.7594,171.6938 Q621.5531,171.6938 621.4313,171.5719 Q621.3094,171.4594 621.2438,171.15 Q621.2156,170.9344 621.1031,170.8219 Q620.9063,170.5969 620.5406,170.4656 Q620.175,170.3344 619.8,170.3344 Q619.3406,170.3344 618.9563,170.5313 Q618.5813,170.7281 618.2813,171.1781 Q617.9906,171.6281 617.9906,172.2469 L617.9906,172.9031 Q617.9906,173.6437 618.525,174.1406 Q619.0594,174.6281 620.0156,174.6281 Q620.5781,174.6281 620.9719,174.4781 Q621.2063,174.3844 621.4594,174.1219 Q621.6188,173.9625 621.7031,173.9156 Q621.7969,173.8688 621.9187,173.8688 Q622.1156,173.8688 622.2656,174.0281 Q622.425,174.1781 622.425,174.3844 Q622.425,174.5906 622.2188,174.8344 Q621.9187,175.1813 621.4406,175.3781 Q620.7937,175.65 620.0156,175.65 Q619.1062,175.65 618.3844,175.275 Q617.7937,174.975 617.3813,174.3375 Q616.9688,173.6906 616.9688,172.9219 L616.9688,172.2281 Q616.9688,171.4313 617.3344,170.7469 Q617.7094,170.0531 618.3656,169.6875 Q619.0219,169.3125 619.7625,169.3125 Q620.2031,169.3125 620.5875,169.4156 Q620.9812,169.5094 621.3094,169.725 Z " fill="#000000"/><text fill="#000000" font-family="sans-serif" font-size="8.4" lengthAdjust="spacing" textLength="33.6" x="631.95" y="175.1121">Contacts</text><line style="stroke:#181818;stroke-width:0.3;" x1="593.4" x2="684.6" y1="181.8" y2="181.8"/><text fill="#000000" font-family="sans-serif" font-size="8.4" lengthAdjust="spacing" textLength="79.8" x="596.4" y="191.8043">-int phoneNumber : 0</text><text fill="#000000" font-family="sans-serif" font-size="8.4" lengthAdjust="spacing" textLength="47.4" x="596.4" y="201.1887">-String email</text><line style="stroke:#181818;stroke-width:0.3;" x1="593.4" x2="684.6" y1="205.3688" y2="205.3688"/><text fill="#000000" font-family="sans-serif" font-size="8.4" lengthAdjust="spacing" textLength="85.2" x="596.4" y="215.373">+verifyPhoneNumber()</text><text fill="#000000" font-family="sans-serif" font-size="8.4" lengthAdjust="spacing" textLength="43.2" x="596.4" y="224.7574">+getStore()</text><text fill="#000000" font-family="sans-serif" font-size="8.4" lengthAdjust="spacing" textLength="47.4" x="596.4" y="234.1418">+getOwner()</text></g><!--class Business--><g id="elem_Business"><rect codeLine="47" fill="#F1F1F1" height="56.9531" id="Business" rx="1.5" ry="1.5" style="stroke:#181818;stroke-width:0.3;" width="126.6" x="254.7" y="891"/><ellipse cx="298.35" cy="900.6" fill="#ADD1B2" rx="6.6" ry="6.6" style="stroke:#181818;stroke-width:0.6;"/><path d="M300.0094,898.125 Q300.1031,897.9938 300.2156,897.9281 Q300.3281,897.8625 300.4594,897.8625 Q300.6844,897.8625 300.825,898.0219 Q300.9656,898.1719 300.9656,898.5375 L300.9656,899.4094 Q300.9656,899.775 300.825,899.9344 Q300.6844,900.0938 300.4594,900.0938 Q300.2531,900.0938 300.1312,899.9719 Q300.0094,899.8594 299.9437,899.55 Q299.9156,899.3344 299.8031,899.2219 Q299.6063,898.9969 299.2406,898.8656 Q298.875,898.7344 298.5,898.7344 Q298.0406,898.7344 297.6563,898.9313 Q297.2813,899.1281 296.9813,899.5781 Q296.6906,900.0281 296.6906,900.6469 L296.6906,901.3031 Q296.6906,902.0437 297.225,902.5406 Q297.7594,903.0281 298.7156,903.0281 Q299.2781,903.0281 299.6719,902.8781 Q299.9063,902.7844 300.1594,902.5219 Q300.3187,902.3625 300.4031,902.3156 Q300.4969,902.2688 300.6188,902.2688 Q300.8156,902.2688 300.9656,902.4281 Q301.125,902.5781 301.125,902.7844 Q301.125,902.9906 300.9188,903.2344 Q300.6188,903.5813 300.1406,903.7781 Q299.4938,904.05 298.7156,904.05 Q297.8063,904.05 297.0844,903.675 Q296.4938,903.375 296.0813,902.7375 Q295.6688,902.0906 295.6688,901.3219 L295.6688,900.6281 Q295.6688,899.8313 296.0344,899.1469 Q296.4094,898.4531 297.0656,898.0875 Q297.7219,897.7125 298.4625,897.7125 Q298.9031,897.7125 299.2875,897.8156 Q299.6813,897.9094 300.0094,898.125 Z " fill="#000000"/><text fill="#000000" font-family="sans-serif" font-size="8.4" lengthAdjust="spacing" textLength="34.2" x="310.65" y="903.5121">Business</text><line style="stroke:#181818;stroke-width:0.3;" x1="255.3" x2="380.7" y1="910.2" y2="910.2"/><text fill="#000000" font-family="sans-serif" font-size="8.4" lengthAdjust="spacing" textLength="100.8" x="258.3" y="920.2043">-double requestedPrice : 0</text><line style="stroke:#181818;stroke-width:0.3;" x1="255.3" x2="380.7" y1="924.3844" y2="924.3844"/><text fill="#000000" font-family="sans-serif" font-size="8.4" lengthAdjust="spacing" textLength="80.4" x="258.3" y="934.3887">+getFinalComission()</text><text fill="#000000" font-family="sans-serif" font-size="8.4" lengthAdjust="spacing" textLength="119.4" x="258.3" y="943.773">+calculatePriceWithComission()</text></g><!--class Store--><g id="elem_Store"><rect codeLine="54" fill="#F1F1F1" height="38.1844" id="Store" rx="1.5" ry="1.5" style="stroke:#181818;stroke-width:0.3;" width="78.6" x="471.9" y="181.2"/><ellipse cx="498.45" cy="190.8" fill="#ADD1B2" rx="6.6" ry="6.6" style="stroke:#181818;stroke-width:0.6;"/><path d="M500.1094,188.325 Q500.2031,188.1938 500.3156,188.1281 Q500.4281,188.0625 500.5594,188.0625 Q500.7844,188.0625 500.925,188.2219 Q501.0656,188.3719 501.0656,188.7375 L501.0656,189.6094 Q501.0656,189.975 500.925,190.1344 Q500.7844,190.2938 500.5594,190.2938 Q500.3531,190.2938 500.2313,190.1719 Q500.1094,190.0594 500.0438,189.75 Q500.0156,189.5344 499.9031,189.4219 Q499.7062,189.1969 499.3406,189.0656 Q498.975,188.9344 498.6,188.9344 Q498.1406,188.9344 497.7562,189.1313 Q497.3812,189.3281 497.0812,189.7781 Q496.7906,190.2281 496.7906,190.8469 L496.7906,191.5031 Q496.7906,192.2438 497.325,192.7406 Q497.8594,193.2281 498.8156,193.2281 Q499.3781,193.2281 499.7719,193.0781 Q500.0062,192.9844 500.2594,192.7219 Q500.4188,192.5625 500.5031,192.5156 Q500.5969,192.4688 500.7188,192.4688 Q500.9156,192.4688 501.0656,192.6281 Q501.225,192.7781 501.225,192.9844 Q501.225,193.1906 501.0187,193.4344 Q500.7188,193.7813 500.2406,193.9781 Q499.5938,194.25 498.8156,194.25 Q497.9063,194.25 497.1844,193.875 Q496.5938,193.575 496.1813,192.9375 Q495.7687,192.2906 495.7687,191.5219 L495.7687,190.8281 Q495.7687,190.0313 496.1344,189.3469 Q496.5094,188.6531 497.1656,188.2875 Q497.8219,187.9125 498.5625,187.9125 Q499.0031,187.9125 499.3875,188.0156 Q499.7813,188.1094 500.1094,188.325 Z " fill="#000000"/><text fill="#000000" font-family="sans-serif" font-size="8.4" lengthAdjust="spacing" textLength="20.4" x="510.75" y="193.7121">Store</text><line style="stroke:#181818;stroke-width:0.3;" x1="472.5" x2="549.9" y1="200.4" y2="200.4"/><text fill="#000000" font-family="sans-serif" font-size="8.4" lengthAdjust="spacing" textLength="71.4" x="475.5" y="210.4043">-String designation</text><line style="stroke:#181818;stroke-width:0.3;" x1="472.5" x2="549.9" y1="214.5844" y2="214.5844"/></g><!--class Owner--><g id="elem_Owner"><rect codeLine="58" fill="#F1F1F1" height="75.7219" id="Owner" rx="1.5" ry="1.5" style="stroke:#181818;stroke-width:0.3;" width="84" x="597" y="4.2"/><ellipse cx="624.15" cy="13.8" fill="#ADD1B2" rx="6.6" ry="6.6" style="stroke:#181818;stroke-width:0.6;"/><path d="M625.8094,11.325 Q625.9031,11.1938 626.0156,11.1281 Q626.1281,11.0625 626.2594,11.0625 Q626.4844,11.0625 626.625,11.2219 Q626.7656,11.3719 626.7656,11.7375 L626.7656,12.6094 Q626.7656,12.975 626.625,13.1344 Q626.4844,13.2938 626.2594,13.2938 Q626.0531,13.2938 625.9313,13.1719 Q625.8094,13.0594 625.7438,12.75 Q625.7156,12.5344 625.6031,12.4219 Q625.4063,12.1969 625.0406,12.0656 Q624.675,11.9344 624.3,11.9344 Q623.8406,11.9344 623.4563,12.1313 Q623.0813,12.3281 622.7813,12.7781 Q622.4906,13.2281 622.4906,13.8469 L622.4906,14.5031 Q622.4906,15.2437 623.025,15.7406 Q623.5594,16.2281 624.5156,16.2281 Q625.0781,16.2281 625.4719,16.0781 Q625.7063,15.9844 625.9594,15.7219 Q626.1188,15.5625 626.2031,15.5156 Q626.2969,15.4688 626.4187,15.4688 Q626.6156,15.4688 626.7656,15.6281 Q626.925,15.7781 626.925,15.9844 Q626.925,16.1906 626.7188,16.4344 Q626.4187,16.7813 625.9406,16.9781 Q625.2937,17.25 624.5156,17.25 Q623.6062,17.25 622.8844,16.875 Q622.2937,16.575 621.8813,15.9375 Q621.4688,15.2906 621.4688,14.5219 L621.4688,13.8281 Q621.4688,13.0313 621.8344,12.3469 Q622.2094,11.6531 622.8656,11.2875 Q623.5219,10.9125 624.2625,10.9125 Q624.7031,10.9125 625.0875,11.0156 Q625.4812,11.1094 625.8094,11.325 Z " fill="#000000"/><text fill="#000000" font-family="sans-serif" font-size="8.4" lengthAdjust="spacing" textLength="24.6" x="636.45" y="16.7121">Owner</text><line style="stroke:#181818;stroke-width:0.3;" x1="597.6" x2="680.4" y1="23.4" y2="23.4"/><text fill="#000000" font-family="sans-serif" font-size="8.4" lengthAdjust="spacing" textLength="48.6" x="600.6" y="33.4043">-String name</text><text fill="#000000" font-family="sans-serif" font-size="8.4" lengthAdjust="spacing" textLength="66.6" x="600.6" y="42.7887">-int taxNumber : 0</text><line style="stroke:#181818;stroke-width:0.3;" x1="597.6" x2="680.4" y1="46.9688" y2="46.9688"/><text fill="#000000" font-family="sans-serif" font-size="8.4" lengthAdjust="spacing" textLength="74.4" x="600.6" y="56.973">+verifyTaxNumber()</text><text fill="#000000" font-family="sans-serif" font-size="8.4" lengthAdjust="spacing" textLength="43.2" x="600.6" y="66.3574">+getEmail()</text><text fill="#000000" font-family="sans-serif" font-size="8.4" lengthAdjust="spacing" textLength="76.8" x="600.6" y="75.7418">+getPhoneNumber()</text></g><!--class Residence--><g id="elem_Residence"><rect codeLine="70" fill="#F1F1F1" height="66.3375" id="Residence" rx="1.5" ry="1.5" style="stroke:#181818;stroke-width:0.3;" width="317.4" x="593.7" y="760.2"/><ellipse cx="729.75" cy="769.8" fill="#ADD1B2" rx="6.6" ry="6.6" style="stroke:#181818;stroke-width:0.6;"/><path d="M731.4094,767.325 Q731.5031,767.1938 731.6156,767.1281 Q731.7281,767.0625 731.8594,767.0625 Q732.0844,767.0625 732.225,767.2219 Q732.3656,767.3719 732.3656,767.7375 L732.3656,768.6094 Q732.3656,768.975 732.225,769.1344 Q732.0844,769.2937 731.8594,769.2937 Q731.6531,769.2937 731.5313,769.1719 Q731.4094,769.0594 731.3438,768.75 Q731.3156,768.5344 731.2031,768.4219 Q731.0063,768.1969 730.6406,768.0656 Q730.275,767.9344 729.9,767.9344 Q729.4406,767.9344 729.0563,768.1313 Q728.6813,768.3281 728.3813,768.7781 Q728.0906,769.2281 728.0906,769.8469 L728.0906,770.5031 Q728.0906,771.2438 728.625,771.7406 Q729.1594,772.2281 730.1156,772.2281 Q730.6781,772.2281 731.0719,772.0781 Q731.3063,771.9844 731.5594,771.7219 Q731.7188,771.5625 731.8031,771.5156 Q731.8969,771.4688 732.0188,771.4688 Q732.2156,771.4688 732.3656,771.6281 Q732.525,771.7781 732.525,771.9844 Q732.525,772.1906 732.3188,772.4344 Q732.0188,772.7813 731.5406,772.9781 Q730.8938,773.25 730.1156,773.25 Q729.2063,773.25 728.4844,772.875 Q727.8938,772.575 727.4812,771.9375 Q727.0688,771.2906 727.0688,770.5219 L727.0688,769.8281 Q727.0688,769.0313 727.4344,768.3469 Q727.8094,767.6531 728.4656,767.2875 Q729.1219,766.9125 729.8625,766.9125 Q730.3031,766.9125 730.6875,767.0156 Q731.0813,767.1094 731.4094,767.325 Z " fill="#000000"/><text fill="#000000" font-family="sans-serif" font-size="8.4" lengthAdjust="spacing" textLength="40.2" x="742.05" y="772.7121">Residence</text><line style="stroke:#181818;stroke-width:0.3;" x1="594.3" x2="910.5" y1="779.4" y2="779.4"/><text fill="#000000" font-family="sans-serif" font-size="8.4" lengthAdjust="spacing" textLength="102.6" x="597.3" y="789.4043">-int numberOfBedrooms : 0</text><text fill="#000000" font-family="sans-serif" font-size="8.4" lengthAdjust="spacing" textLength="105" x="597.3" y="798.7887">-int numberOfBathrooms : 0</text><text fill="#000000" font-family="sans-serif" font-size="8.4" lengthAdjust="spacing" textLength="121.2" x="597.3" y="808.173">-int numberOfParkingSpaces : 0</text><line style="stroke:#181818;stroke-width:0.3;" x1="594.3" x2="910.5" y1="812.3531" y2="812.3531"/><text fill="#000000" font-family="sans-serif" font-size="8.4" lengthAdjust="spacing" textLength="310.2" x="597.3" y="822.3574">+Residence(numberOfBedrooms, numberOfBathrooms, numberOfParkingSpaces)</text></g><!--class Property--><g id="elem_Property"><rect codeLine="78" fill="#F1F1F1" height="56.9531" id="Property" rx="1.5" ry="1.5" style="stroke:#181818;stroke-width:0.3;" width="179.4" x="633.9" y="652.8"/><ellipse cx="704.85" cy="662.4" fill="#ADD1B2" rx="6.6" ry="6.6" style="stroke:#181818;stroke-width:0.6;"/><path d="M706.5094,659.925 Q706.6031,659.7937 706.7156,659.7281 Q706.8281,659.6625 706.9594,659.6625 Q707.1844,659.6625 707.325,659.8219 Q707.4656,659.9719 707.4656,660.3375 L707.4656,661.2094 Q707.4656,661.575 707.325,661.7344 Q707.1844,661.8938 706.9594,661.8938 Q706.7531,661.8938 706.6313,661.7719 Q706.5094,661.6594 706.4438,661.35 Q706.4156,661.1344 706.3031,661.0219 Q706.1062,660.7969 705.7406,660.6656 Q705.375,660.5344 705,660.5344 Q704.5406,660.5344 704.1563,660.7312 Q703.7813,660.9281 703.4812,661.3781 Q703.1906,661.8281 703.1906,662.4469 L703.1906,663.1031 Q703.1906,663.8438 703.725,664.3406 Q704.2594,664.8281 705.2156,664.8281 Q705.7781,664.8281 706.1719,664.6781 Q706.4063,664.5844 706.6594,664.3219 Q706.8188,664.1625 706.9031,664.1156 Q706.9969,664.0688 707.1188,664.0688 Q707.3156,664.0688 707.4656,664.2281 Q707.625,664.3781 707.625,664.5844 Q707.625,664.7906 707.4187,665.0344 Q707.1188,665.3813 706.6406,665.5781 Q705.9938,665.85 705.2156,665.85 Q704.3063,665.85 703.5844,665.475 Q702.9938,665.175 702.5813,664.5375 Q702.1687,663.8906 702.1687,663.1219 L702.1687,662.4281 Q702.1687,661.6313 702.5344,660.9469 Q702.9094,660.2531 703.5656,659.8875 Q704.2219,659.5125 704.9625,659.5125 Q705.4031,659.5125 705.7875,659.6156 Q706.1813,659.7094 706.5094,659.925 Z " fill="#000000"/><text fill="#000000" font-family="sans-serif" font-size="8.4" lengthAdjust="spacing" textLength="32.4" x="717.15" y="665.3121">Property</text><line style="stroke:#181818;stroke-width:0.3;" x1="634.5" x2="812.7" y1="672" y2="672"/><text fill="#000000" font-family="sans-serif" font-size="8.4" lengthAdjust="spacing" textLength="60.6" x="637.5" y="682.0043">-double area : 0</text><text fill="#000000" font-family="sans-serif" font-size="8.4" lengthAdjust="spacing" textLength="133.2" x="637.5" y="691.3887">-int distanceFromTheCityCenter : 0</text><line style="stroke:#181818;stroke-width:0.3;" x1="634.5" x2="812.7" y1="695.5688" y2="695.5688"/><text fill="#000000" font-family="sans-serif" font-size="8.4" lengthAdjust="spacing" textLength="172.2" x="637.5" y="705.573">+Property(area, distanceFromTheCityCenter)</text></g><!--class Photos--><g id="elem_Photos"><rect codeLine="85" fill="#F1F1F1" height="38.1844" id="Photos" rx="1.5" ry="1.5" style="stroke:#181818;stroke-width:0.3;" width="48" x="543.6" y="662.1"/><ellipse cx="553.68" cy="671.7" fill="#ADD1B2" rx="6.6" ry="6.6" style="stroke:#181818;stroke-width:0.6;"/><path d="M555.3394,669.225 Q555.4331,669.0938 555.5456,669.0281 Q555.6581,668.9625 555.7894,668.9625 Q556.0144,668.9625 556.155,669.1219 Q556.2956,669.2719 556.2956,669.6375 L556.2956,670.5094 Q556.2956,670.875 556.155,671.0344 Q556.0144,671.1938 555.7894,671.1938 Q555.5831,671.1938 555.4613,671.0719 Q555.3394,670.9594 555.2738,670.65 Q555.2456,670.4344 555.1331,670.3219 Q554.9363,670.0969 554.5706,669.9656 Q554.205,669.8344 553.83,669.8344 Q553.3706,669.8344 552.9862,670.0313 Q552.6112,670.2281 552.3113,670.6781 Q552.0206,671.1281 552.0206,671.7469 L552.0206,672.4031 Q552.0206,673.1438 552.555,673.6406 Q553.0894,674.1281 554.0456,674.1281 Q554.6081,674.1281 555.0019,673.9781 Q555.2362,673.8844 555.4894,673.6219 Q555.6488,673.4625 555.7331,673.4156 Q555.8269,673.3688 555.9487,673.3688 Q556.1456,673.3688 556.2956,673.5281 Q556.455,673.6781 556.455,673.8844 Q556.455,674.0906 556.2488,674.3344 Q555.9487,674.6813 555.4706,674.8781 Q554.8237,675.15 554.0456,675.15 Q553.1362,675.15 552.4144,674.775 Q551.8237,674.475 551.4113,673.8375 Q550.9988,673.1906 550.9988,672.4219 L550.9988,671.7281 Q550.9988,670.9313 551.3644,670.2469 Q551.7394,669.5531 552.3956,669.1875 Q553.0519,668.8125 553.7925,668.8125 Q554.2331,668.8125 554.6175,668.9156 Q555.0112,669.0094 555.3394,669.225 Z " fill="#000000"/><text fill="#000000" font-family="sans-serif" font-size="8.4" lengthAdjust="spacing" textLength="26.4" x="562.32" y="674.6121">Photos</text><line style="stroke:#181818;stroke-width:0.3;" x1="544.2" x2="591" y1="681.3" y2="681.3"/><text fill="#000000" font-family="sans-serif" font-size="8.4" lengthAdjust="spacing" textLength="40.8" x="547.2" y="691.3043">-String URI</text><line style="stroke:#181818;stroke-width:0.3;" x1="544.2" x2="591" y1="695.4844" y2="695.4844"/></g><!--class House--><g id="elem_House"><rect codeLine="89" fill="#F1F1F1" height="56.9531" id="House" rx="1.5" ry="1.5" style="stroke:#181818;stroke-width:0.3;" width="229.2" x="514.2" y="891"/><ellipse cx="614.25" cy="900.6" fill="#ADD1B2" rx="6.6" ry="6.6" style="stroke:#181818;stroke-width:0.6;"/><path d="M615.9094,898.125 Q616.0031,897.9938 616.1156,897.9281 Q616.2281,897.8625 616.3594,897.8625 Q616.5844,897.8625 616.725,898.0219 Q616.8656,898.1719 616.8656,898.5375 L616.8656,899.4094 Q616.8656,899.775 616.725,899.9344 Q616.5844,900.0938 616.3594,900.0938 Q616.1531,900.0938 616.0313,899.9719 Q615.9094,899.8594 615.8438,899.55 Q615.8156,899.3344 615.7031,899.2219 Q615.5063,898.9969 615.1406,898.8656 Q614.775,898.7344 614.4,898.7344 Q613.9406,898.7344 613.5563,898.9313 Q613.1813,899.1281 612.8813,899.5781 Q612.5906,900.0281 612.5906,900.6469 L612.5906,901.3031 Q612.5906,902.0437 613.125,902.5406 Q613.6594,903.0281 614.6156,903.0281 Q615.1781,903.0281 615.5719,902.8781 Q615.8063,902.7844 616.0594,902.5219 Q616.2188,902.3625 616.3031,902.3156 Q616.3969,902.2688 616.5188,902.2688 Q616.7156,902.2688 616.8656,902.4281 Q617.025,902.5781 617.025,902.7844 Q617.025,902.9906 616.8188,903.2344 Q616.5188,903.5813 616.0406,903.7781 Q615.3938,904.05 614.6156,904.05 Q613.7063,904.05 612.9844,903.675 Q612.3938,903.375 611.9812,902.7375 Q611.5688,902.0906 611.5688,901.3219 L611.5688,900.6281 Q611.5688,899.8313 611.9344,899.1469 Q612.3094,898.4531 612.9656,898.0875 Q613.6219,897.7125 614.3625,897.7125 Q614.8031,897.7125 615.1875,897.8156 Q615.5813,897.9094 615.9094,898.125 Z " fill="#000000"/><text fill="#000000" font-family="sans-serif" font-size="8.4" lengthAdjust="spacing" textLength="24" x="626.55" y="903.5121">House</text><line style="stroke:#181818;stroke-width:0.3;" x1="514.8" x2="742.8" y1="910.2" y2="910.2"/><text fill="#000000" font-family="sans-serif" font-size="8.4" lengthAdjust="spacing" textLength="144" x="517.8" y="920.2043">-Boolean existenceOfBasement : false</text><text fill="#000000" font-family="sans-serif" font-size="8.4" lengthAdjust="spacing" textLength="162" x="517.8" y="929.5887">-Boolean existenceOfInhabitableLoft : false</text><line style="stroke:#181818;stroke-width:0.3;" x1="514.8" x2="742.8" y1="933.7688" y2="933.7688"/><text fill="#000000" font-family="sans-serif" font-size="8.4" lengthAdjust="spacing" textLength="222" x="517.8" y="943.773">+House(existenceOfBasement, existenceOfInhabitableLoft)</text></g><!--class SunExposure--><g id="elem_SunExposure"><rect codeLine="96" fill="#F1F1F1" height="47.5688" id="SunExposure" rx="1.5" ry="1.5" style="stroke:#181818;stroke-width:0.3;" width="100.8" x="578.4" y="1092"/><ellipse cx="601.44" cy="1101.6" fill="#ADD1B2" rx="6.6" ry="6.6" style="stroke:#181818;stroke-width:0.6;"/><path d="M603.0994,1099.125 Q603.1931,1098.9937 603.3056,1098.9281 Q603.4181,1098.8625 603.5494,1098.8625 Q603.7744,1098.8625 603.915,1099.0219 Q604.0556,1099.1719 604.0556,1099.5375 L604.0556,1100.4094 Q604.0556,1100.775 603.915,1100.9344 Q603.7744,1101.0938 603.5494,1101.0938 Q603.3431,1101.0938 603.2212,1100.9719 Q603.0994,1100.8594 603.0337,1100.55 Q603.0056,1100.3344 602.8931,1100.2219 Q602.6963,1099.9969 602.3306,1099.8656 Q601.965,1099.7344 601.59,1099.7344 Q601.1306,1099.7344 600.7462,1099.9312 Q600.3712,1100.1281 600.0713,1100.5781 Q599.7806,1101.0281 599.7806,1101.6469 L599.7806,1102.3031 Q599.7806,1103.0438 600.315,1103.5406 Q600.8494,1104.0281 601.8056,1104.0281 Q602.3681,1104.0281 602.7619,1103.8781 Q602.9962,1103.7844 603.2494,1103.5219 Q603.4087,1103.3625 603.4931,1103.3156 Q603.5869,1103.2688 603.7088,1103.2688 Q603.9056,1103.2688 604.0556,1103.4281 Q604.215,1103.5781 604.215,1103.7844 Q604.215,1103.9906 604.0088,1104.2344 Q603.7088,1104.5813 603.2306,1104.7781 Q602.5838,1105.05 601.8056,1105.05 Q600.8963,1105.05 600.1744,1104.675 Q599.5838,1104.375 599.1713,1103.7375 Q598.7588,1103.0906 598.7588,1102.3219 L598.7588,1101.6281 Q598.7588,1100.8313 599.1244,1100.1469 Q599.4994,1099.4531 600.1556,1099.0875 Q600.8119,1098.7125 601.5525,1098.7125 Q601.9931,1098.7125 602.3775,1098.8156 Q602.7713,1098.9094 603.0994,1099.125 Z " fill="#000000"/><text fill="#000000" font-family="sans-serif" font-size="8.4" lengthAdjust="spacing" textLength="50.4" x="612.96" y="1104.5121">SunExposure</text><line style="stroke:#181818;stroke-width:0.3;" x1="579" x2="678.6" y1="1111.2" y2="1111.2"/><text fill="#000000" font-family="sans-serif" font-size="8.4" lengthAdjust="spacing" textLength="60" x="582" y="1121.2043">-String direction</text><line style="stroke:#181818;stroke-width:0.3;" x1="579" x2="678.6" y1="1125.3844" y2="1125.3844"/><text fill="#000000" font-family="sans-serif" font-size="8.4" lengthAdjust="spacing" textLength="93.6" x="582" y="1135.3887">+SunExposure(direction)</text></g><!--class AvailableEquipment--><g id="elem_AvailableEquipment"><rect codeLine="102" fill="#F1F1F1" height="47.5688" id="AvailableEquipment" rx="1.5" ry="1.5" style="stroke:#181818;stroke-width:0.3;" width="157.8" x="706.5" y="1003.2"/><ellipse cx="745.65" cy="1012.8" fill="#ADD1B2" rx="6.6" ry="6.6" style="stroke:#181818;stroke-width:0.6;"/><path d="M747.3094,1010.325 Q747.4031,1010.1937 747.5156,1010.1281 Q747.6281,1010.0625 747.7594,1010.0625 Q747.9844,1010.0625 748.125,1010.2219 Q748.2656,1010.3719 748.2656,1010.7375 L748.2656,1011.6094 Q748.2656,1011.975 748.125,1012.1344 Q747.9844,1012.2937 747.7594,1012.2937 Q747.5531,1012.2937 747.4313,1012.1719 Q747.3094,1012.0594 747.2438,1011.75 Q747.2156,1011.5344 747.1031,1011.4219 Q746.9063,1011.1969 746.5406,1011.0656 Q746.175,1010.9344 745.8,1010.9344 Q745.3406,1010.9344 744.9563,1011.1312 Q744.5813,1011.3281 744.2813,1011.7781 Q743.9906,1012.2281 743.9906,1012.8469 L743.9906,1013.5031 Q743.9906,1014.2438 744.525,1014.7406 Q745.0594,1015.2281 746.0156,1015.2281 Q746.5781,1015.2281 746.9719,1015.0781 Q747.2063,1014.9844 747.4594,1014.7219 Q747.6188,1014.5625 747.7031,1014.5156 Q747.7969,1014.4688 747.9187,1014.4688 Q748.1156,1014.4688 748.2656,1014.6281 Q748.425,1014.7781 748.425,1014.9844 Q748.425,1015.1906 748.2188,1015.4344 Q747.9187,1015.7813 747.4406,1015.9781 Q746.7937,1016.25 746.0156,1016.25 Q745.1062,1016.25 744.3844,1015.875 Q743.7937,1015.575 743.3813,1014.9375 Q742.9688,1014.2906 742.9688,1013.5219 L742.9688,1012.8281 Q742.9688,1012.0313 743.3344,1011.3469 Q743.7094,1010.6531 744.3656,1010.2875 Q745.0219,1009.9125 745.7625,1009.9125 Q746.2031,1009.9125 746.5875,1010.0156 Q746.9812,1010.1094 747.3094,1010.325 Z " fill="#000000"/><text fill="#000000" font-family="sans-serif" font-size="8.4" lengthAdjust="spacing" textLength="74.4" x="757.95" y="1015.7121">AvailableEquipment</text><line style="stroke:#181818;stroke-width:0.3;" x1="707.1" x2="863.7" y1="1022.4" y2="1022.4"/><text fill="#000000" font-family="sans-serif" font-size="8.4" lengthAdjust="spacing" textLength="93" x="710.1" y="1032.4043">-String typeOfEquipment</text><line style="stroke:#181818;stroke-width:0.3;" x1="707.1" x2="863.7" y1="1036.5844" y2="1036.5844"/><text fill="#000000" font-family="sans-serif" font-size="8.4" lengthAdjust="spacing" textLength="150.6" x="710.1" y="1046.5887">+AvailableEquipment(typeOfEquipment)</text></g><!--class Comission--><g id="elem_Comission"><rect codeLine="110" fill="#F1F1F1" height="56.9531" id="Comission" rx="1.5" ry="1.5" style="stroke:#181818;stroke-width:0.3;" width="109.2" x="4.2" y="321"/><ellipse cx="36.75" cy="330.6" fill="#ADD1B2" rx="6.6" ry="6.6" style="stroke:#181818;stroke-width:0.6;"/><path d="M38.4094,328.125 Q38.5031,327.9938 38.6156,327.9281 Q38.7281,327.8625 38.8594,327.8625 Q39.0844,327.8625 39.225,328.0219 Q39.3656,328.1719 39.3656,328.5375 L39.3656,329.4094 Q39.3656,329.775 39.225,329.9344 Q39.0844,330.0938 38.8594,330.0938 Q38.6531,330.0938 38.5313,329.9719 Q38.4094,329.8594 38.3438,329.55 Q38.3156,329.3344 38.2031,329.2219 Q38.0063,328.9969 37.6406,328.8656 Q37.275,328.7344 36.9,328.7344 Q36.4406,328.7344 36.0563,328.9313 Q35.6813,329.1281 35.3813,329.5781 Q35.0906,330.0281 35.0906,330.6469 L35.0906,331.3031 Q35.0906,332.0438 35.625,332.5406 Q36.1594,333.0281 37.1156,333.0281 Q37.6781,333.0281 38.0719,332.8781 Q38.3063,332.7844 38.5594,332.5219 Q38.7188,332.3625 38.8031,332.3156 Q38.8969,332.2688 39.0188,332.2688 Q39.2156,332.2688 39.3656,332.4281 Q39.525,332.5781 39.525,332.7844 Q39.525,332.9906 39.3188,333.2344 Q39.0188,333.5813 38.5406,333.7781 Q37.8938,334.05 37.1156,334.05 Q36.2063,334.05 35.4844,333.675 Q34.8938,333.375 34.4812,332.7375 Q34.0688,332.0906 34.0688,331.3219 L34.0688,330.6281 Q34.0688,329.8313 34.4344,329.1469 Q34.8094,328.4531 35.4656,328.0875 Q36.1219,327.7125 36.8625,327.7125 Q37.3031,327.7125 37.6875,327.8156 Q38.0813,327.9094 38.4094,328.125 Z " fill="#000000"/><text fill="#000000" font-family="sans-serif" font-size="8.4" lengthAdjust="spacing" textLength="39" x="49.05" y="333.5121">Comission</text><line style="stroke:#181818;stroke-width:0.3;" x1="4.8" x2="112.8" y1="340.2" y2="340.2"/><text fill="#000000" font-family="sans-serif" font-size="8.4" lengthAdjust="spacing" textLength="86.4" x="7.8" y="350.2043">-double percentage : 0</text><text fill="#000000" font-family="sans-serif" font-size="8.4" lengthAdjust="spacing" textLength="84.6" x="7.8" y="359.5887">-double staticValue : 0</text><line style="stroke:#181818;stroke-width:0.3;" x1="4.8" x2="112.8" y1="363.7688" y2="363.7688"/><text fill="#000000" font-family="sans-serif" font-size="8.4" lengthAdjust="spacing" textLength="102" x="7.8" y="373.773">+calculateFinalComission()</text></g><!--class Rent--><g id="elem_Rent"><rect codeLine="118" fill="#F1F1F1" height="56.9531" id="Rent" rx="1.5" ry="1.5" style="stroke:#181818;stroke-width:0.3;" width="103.8" x="266.1" y="1087.2"/><ellipse cx="306.45" cy="1096.8" fill="#ADD1B2" rx="6.6" ry="6.6" style="stroke:#181818;stroke-width:0.6;"/><path d="M308.1094,1094.325 Q308.2031,1094.1938 308.3156,1094.1281 Q308.4281,1094.0625 308.5594,1094.0625 Q308.7844,1094.0625 308.925,1094.2219 Q309.0656,1094.3719 309.0656,1094.7375 L309.0656,1095.6094 Q309.0656,1095.975 308.925,1096.1344 Q308.7844,1096.2938 308.5594,1096.2938 Q308.3531,1096.2938 308.2313,1096.1719 Q308.1094,1096.0594 308.0438,1095.75 Q308.0156,1095.5344 307.9031,1095.4219 Q307.7063,1095.1969 307.3406,1095.0656 Q306.975,1094.9344 306.6,1094.9344 Q306.1406,1094.9344 305.7562,1095.1313 Q305.3812,1095.3281 305.0813,1095.7781 Q304.7906,1096.2281 304.7906,1096.8469 L304.7906,1097.5031 Q304.7906,1098.2437 305.325,1098.7406 Q305.8594,1099.2281 306.8156,1099.2281 Q307.3781,1099.2281 307.7719,1099.0781 Q308.0062,1098.9844 308.2594,1098.7219 Q308.4188,1098.5625 308.5031,1098.5156 Q308.5969,1098.4688 308.7188,1098.4688 Q308.9156,1098.4688 309.0656,1098.6281 Q309.225,1098.7781 309.225,1098.9844 Q309.225,1099.1906 309.0188,1099.4344 Q308.7188,1099.7813 308.2406,1099.9781 Q307.5938,1100.25 306.8156,1100.25 Q305.9063,1100.25 305.1844,1099.875 Q304.5938,1099.575 304.1813,1098.9375 Q303.7688,1098.2906 303.7688,1097.5219 L303.7688,1096.8281 Q303.7688,1096.0313 304.1344,1095.3469 Q304.5094,1094.6531 305.1656,1094.2875 Q305.8219,1093.9125 306.5625,1093.9125 Q307.0031,1093.9125 307.3875,1094.0156 Q307.7813,1094.1094 308.1094,1094.325 Z " fill="#000000"/><text fill="#000000" font-family="sans-serif" font-size="8.4" lengthAdjust="spacing" textLength="18" x="318.75" y="1099.7121">Rent</text><line style="stroke:#181818;stroke-width:0.3;" x1="266.7" x2="369.3" y1="1106.4" y2="1106.4"/><text fill="#000000" font-family="sans-serif" font-size="8.4" lengthAdjust="spacing" textLength="96.6" x="269.7" y="1116.4043">-int durationOfContract: 0</text><line style="stroke:#181818;stroke-width:0.3;" x1="266.7" x2="369.3" y1="1120.5844" y2="1120.5844"/><text fill="#000000" font-family="sans-serif" font-size="8.4" lengthAdjust="spacing" textLength="80.4" x="269.7" y="1130.5887">+getFinalComission()</text><text fill="#000000" font-family="sans-serif" font-size="8.4" lengthAdjust="spacing" textLength="82.8" x="269.7" y="1139.973">+calculateTotalPrice()</text></g><!--class AnnouncementRequest--><g id="elem_AnnouncementRequest"><rect codeLine="125" fill="#F1F1F1" height="66.3375" id="AnnouncementRequest" rx="1.5" ry="1.5" style="stroke:#181818;stroke-width:0.3;" width="195.6" x="403.2" y="460.8"/><ellipse cx="454.05" cy="470.4" fill="#ADD1B2" rx="6.6" ry="6.6" style="stroke:#181818;stroke-width:0.6;"/><path d="M455.7094,467.925 Q455.8031,467.7938 455.9156,467.7281 Q456.0281,467.6625 456.1594,467.6625 Q456.3844,467.6625 456.525,467.8219 Q456.6656,467.9719 456.6656,468.3375 L456.6656,469.2094 Q456.6656,469.575 456.525,469.7344 Q456.3844,469.8937 456.1594,469.8937 Q455.9531,469.8937 455.8313,469.7719 Q455.7094,469.6594 455.6438,469.35 Q455.6156,469.1344 455.5031,469.0219 Q455.3063,468.7969 454.9406,468.6656 Q454.575,468.5344 454.2,468.5344 Q453.7406,468.5344 453.3563,468.7313 Q452.9813,468.9281 452.6813,469.3781 Q452.3906,469.8281 452.3906,470.4469 L452.3906,471.1031 Q452.3906,471.8438 452.925,472.3406 Q453.4594,472.8281 454.4156,472.8281 Q454.9781,472.8281 455.3719,472.6781 Q455.6063,472.5844 455.8594,472.3219 Q456.0188,472.1625 456.1031,472.1156 Q456.1969,472.0687 456.3187,472.0687 Q456.5156,472.0687 456.6656,472.2281 Q456.825,472.3781 456.825,472.5844 Q456.825,472.7906 456.6188,473.0344 Q456.3187,473.3812 455.8406,473.5781 Q455.1937,473.85 454.4156,473.85 Q453.5062,473.85 452.7844,473.475 Q452.1937,473.175 451.7813,472.5375 Q451.3688,471.8906 451.3688,471.1219 L451.3688,470.4281 Q451.3688,469.6312 451.7344,468.9469 Q452.1094,468.2531 452.7656,467.8875 Q453.4219,467.5125 454.1625,467.5125 Q454.6031,467.5125 454.9875,467.6156 Q455.3812,467.7094 455.7094,467.925 Z " fill="#000000"/><text fill="#000000" font-family="sans-serif" font-size="8.4" lengthAdjust="spacing" textLength="88.8" x="466.35" y="473.3121">AnnouncementRequest</text><line style="stroke:#181818;stroke-width:0.3;" x1="403.8" x2="598.2" y1="480" y2="480"/><text fill="#000000" font-family="sans-serif" font-size="8.4" lengthAdjust="spacing" textLength="77.4" x="406.8" y="490.0043">-String contractType</text><line style="stroke:#181818;stroke-width:0.3;" x1="403.8" x2="598.2" y1="494.1844" y2="494.1844"/><text fill="#000000" font-family="sans-serif" font-size="8.4" lengthAdjust="spacing" textLength="57" x="406.8" y="504.1887">+getBusiness()</text><text fill="#000000" font-family="sans-serif" font-size="8.4" lengthAdjust="spacing" textLength="47.4" x="406.8" y="513.573">+getOwner()</text><text fill="#000000" font-family="sans-serif" font-size="8.4" lengthAdjust="spacing" textLength="188.4" x="406.8" y="522.9574">+AnnouncementRequest(contractType, Business)</text></g><!--class PublishedAnnouncement--><g id="elem_PublishedAnnouncement"><rect codeLine="133" fill="#F1F1F1" height="66.3375" id="PublishedAnnouncement" rx="1.5" ry="1.5" style="stroke:#181818;stroke-width:0.3;" width="281.4" x="177.3" y="648"/><ellipse cx="268.35" cy="657.6" fill="#ADD1B2" rx="6.6" ry="6.6" style="stroke:#181818;stroke-width:0.6;"/><path d="M270.0094,655.125 Q270.1031,654.9938 270.2156,654.9281 Q270.3281,654.8625 270.4594,654.8625 Q270.6844,654.8625 270.825,655.0219 Q270.9656,655.1719 270.9656,655.5375 L270.9656,656.4094 Q270.9656,656.775 270.825,656.9344 Q270.6844,657.0938 270.4594,657.0938 Q270.2531,657.0938 270.1312,656.9719 Q270.0094,656.8594 269.9437,656.55 Q269.9156,656.3344 269.8031,656.2219 Q269.6063,655.9969 269.2406,655.8656 Q268.875,655.7344 268.5,655.7344 Q268.0406,655.7344 267.6563,655.9313 Q267.2813,656.1281 266.9813,656.5781 Q266.6906,657.0281 266.6906,657.6469 L266.6906,658.3031 Q266.6906,659.0437 267.225,659.5406 Q267.7594,660.0281 268.7156,660.0281 Q269.2781,660.0281 269.6719,659.8781 Q269.9063,659.7844 270.1594,659.5219 Q270.3187,659.3625 270.4031,659.3156 Q270.4969,659.2688 270.6188,659.2688 Q270.8156,659.2688 270.9656,659.4281 Q271.125,659.5781 271.125,659.7844 Q271.125,659.9906 270.9188,660.2344 Q270.6188,660.5813 270.1406,660.7781 Q269.4938,661.05 268.7156,661.05 Q267.8063,661.05 267.0844,660.675 Q266.4938,660.375 266.0813,659.7375 Q265.6688,659.0906 265.6688,658.3219 L265.6688,657.6281 Q265.6688,656.8313 266.0344,656.1469 Q266.4094,655.4531 267.0656,655.0875 Q267.7219,654.7125 268.4625,654.7125 Q268.9031,654.7125 269.2875,654.8156 Q269.6813,654.9094 270.0094,655.125 Z " fill="#000000"/><text fill="#000000" font-family="sans-serif" font-size="8.4" lengthAdjust="spacing" textLength="94.2" x="280.65" y="660.5121">PublishedAnnouncement</text><line style="stroke:#181818;stroke-width:0.3;" x1="177.9" x2="458.1" y1="667.2" y2="667.2"/><text fill="#000000" font-family="sans-serif" font-size="8.4" lengthAdjust="spacing" textLength="64.8" x="180.9" y="677.2043">-String initialDate</text><text fill="#000000" font-family="sans-serif" font-size="8.4" lengthAdjust="spacing" textLength="61.2" x="180.9" y="686.5887">-String finalDate</text><line style="stroke:#181818;stroke-width:0.3;" x1="177.9" x2="458.1" y1="690.7688" y2="690.7688"/><text fill="#000000" font-family="sans-serif" font-size="8.4" lengthAdjust="spacing" textLength="111.6" x="180.9" y="700.773">+getAnnouncementRequest()</text><text fill="#000000" font-family="sans-serif" font-size="8.4" lengthAdjust="spacing" textLength="274.2" x="180.9" y="710.1574">+PublishedAnnouncement(initialDate, finalDate, AnnouncementRequest)</text></g><!--class Agent--><g id="elem_Agent"><rect fill="#F1F1F1" height="28.8" id="Agent" rx="1.5" ry="1.5" style="stroke:#181818;stroke-width:0.3;" width="41.4" x="480.3" y="335.1"/><ellipse cx="489.3" cy="344.7" fill="#ADD1B2" rx="6.6" ry="6.6" style="stroke:#181818;stroke-width:0.6;"/><path d="M490.9594,342.225 Q491.0531,342.0938 491.1656,342.0281 Q491.2781,341.9625 491.4094,341.9625 Q491.6344,341.9625 491.775,342.1219 Q491.9156,342.2719 491.9156,342.6375 L491.9156,343.5094 Q491.9156,343.875 491.775,344.0344 Q491.6344,344.1937 491.4094,344.1937 Q491.2031,344.1937 491.0812,344.0719 Q490.9594,343.9594 490.8937,343.65 Q490.8656,343.4344 490.7531,343.3219 Q490.5563,343.0969 490.1906,342.9656 Q489.825,342.8344 489.45,342.8344 Q488.9906,342.8344 488.6063,343.0313 Q488.2313,343.2281 487.9313,343.6781 Q487.6406,344.1281 487.6406,344.7469 L487.6406,345.4031 Q487.6406,346.1438 488.175,346.6406 Q488.7094,347.1281 489.6656,347.1281 Q490.2281,347.1281 490.6219,346.9781 Q490.8563,346.8844 491.1094,346.6219 Q491.2687,346.4625 491.3531,346.4156 Q491.4469,346.3688 491.5687,346.3688 Q491.7656,346.3688 491.9156,346.5281 Q492.075,346.6781 492.075,346.8844 Q492.075,347.0906 491.8688,347.3344 Q491.5687,347.6813 491.0906,347.8781 Q490.4437,348.15 489.6656,348.15 Q488.7562,348.15 488.0344,347.775 Q487.4437,347.475 487.0313,346.8375 Q486.6188,346.1906 486.6188,345.4219 L486.6188,344.7281 Q486.6188,343.9313 486.9844,343.2469 Q487.3594,342.5531 488.0156,342.1875 Q488.6719,341.8125 489.4125,341.8125 Q489.8531,341.8125 490.2375,341.9156 Q490.6312,342.0094 490.9594,342.225 Z " fill="#000000"/><text fill="#000000" font-family="sans-serif" font-size="8.4" lengthAdjust="spacing" textLength="22.2" x="497.7" y="347.6121">Agent</text><line style="stroke:#181818;stroke-width:0.3;" x1="480.9" x2="521.1" y1="354.3" y2="354.3"/><line style="stroke:#181818;stroke-width:0.3;" x1="480.9" x2="521.1" y1="359.1" y2="359.1"/></g><!--link City to Address--><g id="link_City_Address"><path codeLine="141" d="M1065.978,812.784 C1057.218,828.492 1044.318,851.628 1032.792,872.286 " fill="none" id="City-Address" style="stroke:#181818;stroke-width:0.6;"/><polygon fill="#000000" points="1052.6613,847.137,1048.4778,851.0178,1051.5578,852.7356,1052.6613,847.137" style="stroke:#000000;stroke-width:0.6;"/><text fill="#000000" font-family="sans-serif" font-size="7.8" lengthAdjust="spacing" textLength="14.4" x="1056.6" y="852.4611">is in</text><text fill="#000000" font-family="sans-serif" font-size="7.8" lengthAdjust="spacing" textLength="4.2" x="1059.391" y="824.3723">1</text><text fill="#000000" font-family="sans-serif" font-size="7.8" lengthAdjust="spacing" textLength="3" x="1032.2029" y="865.8872">*</text></g><!--link District to City--><g id="link_District_City"><path codeLine="142" d="M1078.89,700.728 C1078.338,721.206 1077.456,753.726 1076.904,774.162 " fill="none" id="District-City" style="stroke:#181818;stroke-width:0.6;"/><polygon fill="#000000" points="1081.2811,734.5581,1079.3717,739.9355,1082.8971,740.0309,1081.2811,734.5581" style="stroke:#000000;stroke-width:0.6;"/><text fill="#000000" font-family="sans-serif" font-size="7.8" lengthAdjust="spacing" textLength="14.4" x="1086.6" y="740.2611">is in</text><text fill="#000000" font-family="sans-serif" font-size="7.8" lengthAdjust="spacing" textLength="4.2" x="1074.2088" y="712.1944">1</text><text fill="#000000" font-family="sans-serif" font-size="7.8" lengthAdjust="spacing" textLength="3" x="1073.6861" y="767.7321">*</text></g><!--link State to District--><g id="link_State_District"><path codeLine="143" d="M1079.4,602.484 C1079.4,619.644 1079.4,644.934 1079.4,662.076 " fill="none" id="State-District" style="stroke:#181818;stroke-width:0.6;"/><polygon fill="#000000" points="1082.4,622.357,1080.6366,627.7841,1084.1634,627.7841,1082.4,622.357" style="stroke:#000000;stroke-width:0.6;"/><text fill="#000000" font-family="sans-serif" font-size="7.8" lengthAdjust="spacing" textLength="14.4" x="1087.8" y="628.0611">is in</text><text fill="#000000" font-family="sans-serif" font-size="7.8" lengthAdjust="spacing" textLength="4.2" x="1074.7997" y="614.0723">1</text><text fill="#000000" font-family="sans-serif" font-size="7.8" lengthAdjust="spacing" textLength="3" x="1076.0719" y="655.6711">*</text></g><!--link Owner to Contacts--><g id="link_Owner_Contacts"><path codeLine="146" d="M639,79.854 C639,104.82 639,137.574 639,162.54 " fill="none" id="Owner-Contacts" style="stroke:#181818;stroke-width:0.6;"/><polygon fill="#000000" points="642,124.357,643.7634,118.93,640.2366,118.93,642,124.357" style="stroke:#000000;stroke-width:0.6;"/><text fill="#000000" font-family="sans-serif" font-size="7.8" lengthAdjust="spacing" textLength="12.6" x="647.4" y="124.0611">has</text><text fill="#000000" font-family="sans-serif" font-size="7.8" lengthAdjust="spacing" textLength="4.2" x="634.5572" y="91.7887">1</text><text fill="#000000" font-family="sans-serif" font-size="7.8" lengthAdjust="spacing" textLength="4.2" x="634.5441" y="156.0868">1</text></g><!--link Store to Contacts--><g id="link_Store_Contacts"><path codeLine="147" d="M550.59,200.4 C563.934,200.4 578.964,200.4 592.794,200.4 " fill="none" id="Store-Contacts" style="stroke:#181818;stroke-width:0.6;"/><polygon fill="#000000" points="566.85,193.957,561.4229,192.1937,561.4229,195.7204,566.85,193.957" style="stroke:#000000;stroke-width:0.6;"/><text fill="#000000" font-family="sans-serif" font-size="7.8" lengthAdjust="spacing" textLength="12.6" x="569.25" y="196.6611">has</text><text fill="#000000" font-family="sans-serif" font-size="7.8" lengthAdjust="spacing" textLength="4.2" x="555.3873" y="198.6061">1</text><text fill="#000000" font-family="sans-serif" font-size="7.8" lengthAdjust="spacing" textLength="4.2" x="583.8389" y="198.6572">1</text></g><!--link Owner to Address--><g id="link_Owner_Address"><path codeLine="148" d="M681.012,51.51 C777.516,71.976 1006.8,120.6 1006.8,120.6 C1006.8,120.6 1006.8,120.6 1006.8,794.1 C1006.8,794.1 1006.8,836.802 1006.8,872.25 " fill="none" id="Owner-Address" style="stroke:#181818;stroke-width:0.6;"/><polygon fill="#000000" points="1010.9068,422.3454,1010.5435,416.6506,1007.2656,417.9518,1010.9068,422.3454" style="stroke:#000000;stroke-width:0.6;"/><text fill="#000000" font-family="sans-serif" font-size="7.8" lengthAdjust="spacing" textLength="12.6" x="1015.2" y="422.2611">has</text><text fill="#000000" font-family="sans-serif" font-size="7.8" lengthAdjust="spacing" textLength="4.2" x="685.8367" y="50.7624">1</text><text fill="#000000" font-family="sans-serif" font-size="7.8" lengthAdjust="spacing" textLength="4.2" x="1002.3998" y="866.0084">1</text></g><!--link Owner to Store--><g id="link_Owner_Store"><path codeLine="149" d="M608.712,79.854 C582.804,111.72 546.588,156.27 526.38,181.134 " fill="none" id="Owner-Store" style="stroke:#181818;stroke-width:0.6;"/><polygon fill="#000000" points="578.9076,123.6849,583.6992,120.586,580.9627,118.3614,578.9076,123.6849" style="stroke:#000000;stroke-width:0.6;"/><text fill="#000000" font-family="sans-serif" font-size="7.8" lengthAdjust="spacing" textLength="30" x="586.2" y="124.0611">contacts</text><text fill="#000000" font-family="sans-serif" font-size="7.8" lengthAdjust="spacing" textLength="4.2" x="600.7671" y="91.7887">1</text><text fill="#000000" font-family="sans-serif" font-size="7.8" lengthAdjust="spacing" textLength="4.2" x="525.0412" y="174.7199">1</text></g><!--link Store to Agent--><g id="link_Store_Agent"><path codeLine="150" d="M509.91,219.732 C507.834,249.816 503.808,308.214 501.96,334.944 " fill="none" id="Store-Agent" style="stroke:#181818;stroke-width:0.6;"/><polygon fill="#000000" points="509.1935,282.7499,511.3262,277.4571,507.8079,277.2143,509.1935,282.7499" style="stroke:#000000;stroke-width:0.6;"/><text fill="#000000" font-family="sans-serif" font-size="7.8" lengthAdjust="spacing" textLength="12.6" x="514.8" y="282.4611">has</text><text fill="#000000" font-family="sans-serif" font-size="7.8" lengthAdjust="spacing" textLength="4.2" x="505.085" y="231.1807">1</text><text fill="#000000" font-family="sans-serif" font-size="7.8" lengthAdjust="spacing" textLength="3" x="498.8149" y="328.6067">*</text></g><!--reverse link Residence to House--><g id="link_Residence_House"><path codeLine="153" d="M711.318,835.578 C693.294,853.782 672.606,874.668 656.454,890.982 " fill="none" id="Residence-backto-House" style="stroke:#181818;stroke-width:0.6;"/><polygon fill="none" points="708.498,832.458,719.928,826.89,714.468,838.374,708.498,832.458" style="stroke:#181818;stroke-width:0.6;"/></g><!--reverse link Property to Residence--><g id="link_Property_Residence"><path codeLine="154" d="M733.896,721.572 C737.178,734.226 740.766,748.068 743.91,760.17 " fill="none" id="Property-backto-Residence" style="stroke:#181818;stroke-width:0.6;"/><polygon fill="none" points="729.816,722.58,730.866,709.908,737.946,720.468,729.816,722.58" style="stroke:#181818;stroke-width:0.6;"/></g><!--link Photos to Property--><g id="link_Photos_Property"><path codeLine="155" d="M591.636,681.3 C603.342,681.3 618.234,681.3 633.768,681.3 " fill="none" id="Photos-Property" style="stroke:#181818;stroke-width:0.6;"/><polygon fill="#000000" points="601.95,674.857,607.3771,676.6204,607.3771,673.0937,601.95,674.857" style="stroke:#000000;stroke-width:0.6;"/><text fill="#000000" font-family="sans-serif" font-size="7.8" lengthAdjust="spacing" textLength="12.6" x="610.35" y="677.5611">has</text><text fill="#000000" font-family="sans-serif" font-size="7.8" lengthAdjust="spacing" textLength="14.4" x="596.419" y="689.0448">1...*</text><text fill="#000000" font-family="sans-serif" font-size="7.8" lengthAdjust="spacing" textLength="4.2" x="624.8278" y="679.7539">1</text></g><!--link House to SunExposure--><g id="link_House_SunExposure"><path codeLine="156" d="M628.8,948.036 C628.8,986.688 628.8,1055.766 628.8,1091.79 " fill="none" id="House-SunExposure" style="stroke:#181818;stroke-width:0.6;"/><polygon fill="#000000" points="631.8,1030.057,633.5634,1024.63,630.0366,1024.63,631.8,1030.057" style="stroke:#000000;stroke-width:0.6;"/><text fill="#000000" font-family="sans-serif" font-size="7.8" lengthAdjust="spacing" textLength="29.4" x="637.2" y="1029.7611">contains</text><text fill="#000000" font-family="sans-serif" font-size="7.8" lengthAdjust="spacing" textLength="3" x="625.5891" y="959.726">*</text><text fill="#000000" font-family="sans-serif" font-size="7.8" lengthAdjust="spacing" textLength="4.2" x="624.2391" y="1085.6322">1</text></g><!--link Property to Address--><g id="link_Property_Address"><path codeLine="157" d="M794.244,709.836 C851.106,732.324 921.6,760.2 921.6,760.2 C921.6,760.2 956.67,825.528 981.81,872.358 " fill="none" id="Property-Address" style="stroke:#181818;stroke-width:0.6;"/><polygon fill="#000000" points="962.8673,795.6216,959.9205,790.735,957.611,793.4004,962.8673,795.6216" style="stroke:#000000;stroke-width:0.6;"/><text fill="#000000" font-family="sans-serif" font-size="7.8" lengthAdjust="spacing" textLength="12.6" x="966" y="796.3611">has</text><text fill="#000000" font-family="sans-serif" font-size="7.8" lengthAdjust="spacing" textLength="4.2" x="799.683" y="721.526">1</text><text fill="#000000" font-family="sans-serif" font-size="7.8" lengthAdjust="spacing" textLength="4.2" x="974.9433" y="865.9663">1</text></g><!--link Owner to Property--><g id="link_Owner_Property"><path codeLine="158" d="M677.55,79.998 C698.184,100.02 719.4,120.6 719.4,120.6 C719.4,120.6 719.4,120.6 719.4,583.8 C719.4,583.8 721.146,624.054 722.388,652.674 " fill="none" id="Owner-Property" style="stroke:#181818;stroke-width:0.6;"/><polygon fill="#000000" points="722.6342,352.6479,723.9685,347.0997,720.4526,347.375,722.6342,352.6479" style="stroke:#000000;stroke-width:0.6;"/><text fill="#000000" font-family="sans-serif" font-size="7.8" lengthAdjust="spacing" textLength="12.6" x="727.8" y="352.3611">has</text><text fill="#000000" font-family="sans-serif" font-size="7.8" lengthAdjust="spacing" textLength="4.2" x="677.3367" y="91.685">1</text><text fill="#000000" font-family="sans-serif" font-size="7.8" lengthAdjust="spacing" textLength="3" x="718.9727" y="646.3363">*</text></g><!--link Residence to AvailableEquipment--><g id="link_Residence_AvailableEquipment"><path codeLine="159" d="M757.056,826.878 C763.83,874.506 776.214,961.68 782.112,1003.17 " fill="none" id="Residence-AvailableEquipment" style="stroke:#181818;stroke-width:0.6;"/><polygon fill="#000000" points="780.4221,922.6272,781.4043,917.006,777.9127,917.5023,780.4221,922.6272" style="stroke:#000000;stroke-width:0.6;"/><text fill="#000000" font-family="sans-serif" font-size="7.8" lengthAdjust="spacing" textLength="29.4" x="785.4" y="922.3611">contains</text><text fill="#000000" font-family="sans-serif" font-size="7.8" lengthAdjust="spacing" textLength="4.2" x="753.1515" y="838.3174">1</text><text fill="#000000" font-family="sans-serif" font-size="7.8" lengthAdjust="spacing" textLength="3" x="778.2292" y="996.6949">*</text></g><!--link Comission to Agent--><g id="link_Comission_Agent"><path codeLine="162" d="M113.466,349.5 C211.902,349.5 414.816,349.5 480.204,349.5 " fill="none" id="Comission-Agent" style="stroke:#181818;stroke-width:0.6;"/><polygon fill="#000000" points="280.05,343.057,285.4771,344.8204,285.4771,341.2937,280.05,343.057" style="stroke:#000000;stroke-width:0.6;"/><text fill="#000000" font-family="sans-serif" font-size="7.8" lengthAdjust="spacing" textLength="24.6" x="288.45" y="345.7611">defines</text><text fill="#000000" font-family="sans-serif" font-size="7.8" lengthAdjust="spacing" textLength="4.2" x="118.1669" y="347.8283">1</text><text fill="#000000" font-family="sans-serif" font-size="7.8" lengthAdjust="spacing" textLength="4.2" x="471.2817" y="347.3273">1</text></g><!--link Comission to Business--><g id="link_Comission_Business"><path codeLine="163" d="M62.214,378.042 C64.542,397.062 67.2,418.8 67.2,418.8 C67.2,418.8 67.2,418.8 67.2,794.1 C67.2,794.1 129.6,854.4 129.6,854.4 C129.6,854.4 199.782,878.43 254.478,897.156 " fill="none" id="Comission-Business" style="stroke:#181818;stroke-width:0.6;"/><polygon fill="#000000" points="69.1581,580.5438,69.3894,586.2454,72.6965,585.0206,69.1581,580.5438" style="stroke:#000000;stroke-width:0.6;"/><text fill="#000000" font-family="sans-serif" font-size="7.8" lengthAdjust="spacing" textLength="29.4" x="75.6" y="586.0611">contains</text><text fill="#000000" font-family="sans-serif" font-size="7.8" lengthAdjust="spacing" textLength="4.2" x="58.1988" y="389.7329">1</text><text fill="#000000" font-family="sans-serif" font-size="7.8" lengthAdjust="spacing" textLength="4.2" x="245.664" y="893.9634">1</text></g><!--link Owner to Business--><g id="link_Owner_Business"><path codeLine="164" d="M596.898,49.248 C477.486,68.112 145.2,120.6 145.2,120.6 C145.2,120.6 145.2,120.6 145.2,794.1 C145.2,794.1 228.276,854.1 279.222,890.892 " fill="none" id="Owner-Business" style="stroke:#181818;stroke-width:0.6;"/><polygon fill="#000000" points="147.1406,422.3638,150.7068,417.909,147.4073,416.6637,147.1406,422.3638" style="stroke:#000000;stroke-width:0.6;"/><text fill="#000000" font-family="sans-serif" font-size="7.8" lengthAdjust="spacing" textLength="30" x="153.6" y="422.2611">requests</text><text fill="#000000" font-family="sans-serif" font-size="7.8" lengthAdjust="spacing" textLength="4.2" x="587.8634" y="48.253">1</text><text fill="#000000" font-family="sans-serif" font-size="7.8" lengthAdjust="spacing" textLength="4.2" x="268.7626" y="884.557">1</text></g><!--link Property to Business--><g id="link_Property_Business"><path codeLine="165" d="M663.444,709.836 C615.024,732.324 555,760.2 555,760.2 C555,760.2 507,854.4 507,854.4 C507,854.4 436.368,878.508 381.462,897.246 " fill="none" id="Property-Business" style="stroke:#181818;stroke-width:0.6;"/><polygon fill="#000000" points="560.4985,791.9965,555.0026,793.5319,556.9547,796.469,560.4985,791.9965" style="stroke:#000000;stroke-width:0.6;"/><text fill="#000000" font-family="sans-serif" font-size="7.8" lengthAdjust="spacing" textLength="19.2" x="563.4" y="796.3611">has a</text><text fill="#000000" font-family="sans-serif" font-size="7.8" lengthAdjust="spacing" textLength="4.2" x="650.4893" y="721.526">1</text><text fill="#000000" font-family="sans-serif" font-size="7.8" lengthAdjust="spacing" textLength="4.2" x="386.0718" y="894.0598">1</text></g><!--link AnnouncementRequest to Business--><g id="link_AnnouncementRequest_Business"><path codeLine="166" d="M496.242,527.622 C487.368,588.966 469.2,714.6 469.2,714.6 C469.2,714.6 380.118,834.966 338.706,890.922 " fill="none" id="AnnouncementRequest-Business" style="stroke:#181818;stroke-width:0.6;"/><polygon fill="#000000" points="481.2065,684.2094,484.9834,679.9318,481.7478,678.5288,481.2065,684.2094" style="stroke:#000000;stroke-width:0.6;"/><text fill="#000000" font-family="sans-serif" font-size="7.8" lengthAdjust="spacing" textLength="12.6" x="487.8" y="684.1611">has</text><text fill="#000000" font-family="sans-serif" font-size="7.8" lengthAdjust="spacing" textLength="4.2" x="491.249" y="539.0781">1</text><text fill="#000000" font-family="sans-serif" font-size="7.8" lengthAdjust="spacing" textLength="4.2" x="337.355" y="884.5916">1</text></g><!--link Agent to AnnouncementRequest--><g id="link_Agent_AnnouncementRequest"><path codeLine="167" d="M501,364.11 C501,386.31 501,430.17 501,460.632 " fill="none" id="Agent-AnnouncementRequest" style="stroke:#181818;stroke-width:0.6;"/><polygon fill="#000000" points="504,422.557,505.7634,417.13,502.2366,417.13,504,422.557" style="stroke:#000000;stroke-width:0.6;"/><text fill="#000000" font-family="sans-serif" font-size="7.8" lengthAdjust="spacing" textLength="25.2" x="509.4" y="422.2611">reviews</text><text fill="#000000" font-family="sans-serif" font-size="7.8" lengthAdjust="spacing" textLength="4.2" x="496.2881" y="375.7943">1</text><text fill="#000000" font-family="sans-serif" font-size="7.8" lengthAdjust="spacing" textLength="4.2" x="496.5178" y="454.2702">1</text></g><!--link AnnouncementRequest to Property--><g id="link_AnnouncementRequest_Property"><path codeLine="168" d="M540.282,527.526 C582.846,563.088 650.028,619.224 690.156,652.758 " fill="none" id="AnnouncementRequest-Property" style="stroke:#181818;stroke-width:0.6;"/><polygon fill="#000000" points="632.9021,585.2806,629.8682,580.4477,627.6069,583.154,632.9021,585.2806" style="stroke:#000000;stroke-width:0.6;"/><text fill="#000000" font-family="sans-serif" font-size="7.8" lengthAdjust="spacing" textLength="19.2" x="636" y="586.0611">has a</text><text fill="#000000" font-family="sans-serif" font-size="7.8" lengthAdjust="spacing" textLength="4.2" x="540.3812" y="538.971">1</text><text fill="#000000" font-family="sans-serif" font-size="7.8" lengthAdjust="spacing" textLength="4.2" x="680.5133" y="646.4331">1</text></g><!--reverse link AnnouncementRequest to PublishedAnnouncement--><g id="link_AnnouncementRequest_PublishedAnnouncement"><path codeLine="169" d="M460.146,536.22 C426.99,569.922 380.886,616.782 350.28,647.892 " fill="none" id="AnnouncementRequest-backto-PublishedAnnouncement" style="stroke:#181818;stroke-width:0.6;"/><polygon fill="none" points="457.296,533.136,468.702,527.526,463.284,539.022,457.296,533.136" style="stroke:#181818;stroke-width:0.6;"/></g><!--link PublishedAnnouncement to Agent--><g id="link_PublishedAnnouncement_Agent"><path codeLine="170" d="M321.654,647.892 C324.792,619.782 328.8,583.8 328.8,583.8 C328.8,418.8 328.8,418.8 328.8,418.8 C328.8,418.8 434.43,376.656 480.228,358.386 " fill="none" id="PublishedAnnouncement-Agent" style="stroke:#181818;stroke-width:0.6;"/><polygon fill="#000000" points="330.3588,496.8882,334.5125,492.9755,331.4194,491.2813,330.3588,496.8882" style="stroke:#000000;stroke-width:0.6;"/><text fill="#000000" font-family="sans-serif" font-size="7.8" lengthAdjust="spacing" textLength="33" x="337.2" y="496.9611">publishes</text><text fill="#000000" font-family="sans-serif" font-size="7.8" lengthAdjust="spacing" textLength="3" x="318.9434" y="641.5383">*</text><text fill="#000000" font-family="sans-serif" font-size="7.8" lengthAdjust="spacing" textLength="4.2" x="471.3106" y="358.046">1</text></g><!--link PublishedAnnouncement to Business--><g id="link_PublishedAnnouncement_Business"><path codeLine="171" d="M318,714.606 C318,761.46 318,846.894 318,890.958 " fill="none" id="PublishedAnnouncement-Business" style="stroke:#181818;stroke-width:0.6;"/><polygon fill="#000000" points="321,790.657,319.2366,796.0841,322.7634,796.0841,321,790.657" style="stroke:#000000;stroke-width:0.6;"/><text fill="#000000" font-family="sans-serif" font-size="7.8" lengthAdjust="spacing" textLength="19.2" x="326.4" y="796.3611">has a</text><text fill="#000000" font-family="sans-serif" font-size="7.8" lengthAdjust="spacing" textLength="4.2" x="313.5441" y="726.2733">1</text><text fill="#000000" font-family="sans-serif" font-size="7.8" lengthAdjust="spacing" textLength="4.2" x="313.4784" y="884.6331">1</text></g><!--reverse link Business to Rent--><g id="link_Business_Rent"><path codeLine="172" d="M318,960.12 C318,997.956 318,1053.75 318,1087.056 " fill="none" id="Business-backto-Rent" style="stroke:#181818;stroke-width:0.6;"/><polygon fill="none" points="313.8,960.036,318,948.036,322.2,960.036,313.8,960.036" style="stroke:#181818;stroke-width:0.6;"/></g><!--SRC=[bLPDRzms4BtpLn2-M4cqHdjT60Linq4C1B7XTL8WDreQhOX8f49IjZTj_dk6f4XH7-kYkJXBlddpvd4urAd-paN756jfAuKiQYLRe4RrGCQTZXNVsHvsvj00LL0O9lPD2j0rA-Kp5tjQiKQdEmqNO0uTq4us1_k3dAviIcKaIQAAXcbzOOpYZxs1cqAA7Vy9z0z2JXke33MIAhwl3IsvbSEb8CJ5q8koL81__o4K_srsI86gj540vZDhmIzpOUXFtbt94kZMqjhLTq-WU7NuvjUpDtvn3-QAcqFoypr7EbwOP6bdc8aHWuHCsyKS9NfuJWlaoGSjUSZ_Xf1VGRnD59JJGReDSi8ZAkIV8qEYATf9cqETj80ZCRqKXXKccaUjJLqj1NpksqTGpge93xICDnFtxaRun1-fKaTlduNRZoelUuszC9uRBMN_w9hjHm_QG7c7bQLdXIGVk63DbMovrjW0WRrWJT4tM9wB-9kREeKajg2YXOEW-LumrqyHwRJEaIAsaZF9i9V4ejIFXx2JL7zjNKj-JprBJ-GU1PKW2fWSYN3Gs-eIIYLbgvDpcMmpKx-sVySKNhZz3cytw4HuJ9hD4-LBxdoTBd7wJiaELDBOmz4o1Mocp7OmmyGVS0Wzr62lmnK8Cx4rq6KsFZyUaYgefP5wTe9Vxcz6n4VPwz7ZIoaRO8B22v9R8soz6bhaHI5-mXr5teYQFNB3iCHFiXe3l7gNA5iXpb_XIDks5zSldTJzIlEEez2bIg1Pt4keBfwm2ssAwnyzxrnnCqOxcc-hk3tmBkEo6N3euJ1KXjldoSVpnrCi48plIko2STCEA5vyPKsVNdeQB_VYxlzAxanIYUkgNhahVLlP0QTmmlsVCV8W3MlSB4d7nuKGiiUpikNU-ncr6Dn3iWSqPymM1jtACFJkBecpb2cFep9jSFICwnhAD7gkXmjkE6lUOqtJZSeQu9QZf3KLWy3LN5b2de-4-PfFJhTxwKx-FDbiwCdRa_1gRodNg9EUa_Z6ZHWRCWByipRkXe0HGOYVt8YX6_mw4HQ9_m-lt9RMJDE_Y7y97CfzKno1XGyB1xGV8GFE9V6WyoCPNOQjQmZtl2BPtXwGrRtfkodA4n4oZlxpVpsPdr8apjEu7g7ZtbJbsTaPfl9ZC9QTJ1A7za8Gvz8CShcmQYQrHy4XsIl5lvsZiFJbs9dw4AkPIC2M2LTqULREpYq-tvMz6OYUOGTOk3aJuaJr0ZPyVLZPKsSNI5iRiqwjp8NZ4R4H4iGQWrNonE7PHVn7XgdVx4Y4RHuCM9ySP7sUk6EQEjuDG6laaQ1NxOgVVLxElNjbVWC0]--></g></svg>