<?xml version="1.0" encoding="us-ascii" standalone="no"?><svg xmlns="http://www.w3.org/2000/svg" xmlns:xlink="http://www.w3.org/1999/xlink" contentStyleType="text/css" height="190px" preserveAspectRatio="none" style="width:401px;height:190px;background:#FFFFFF;" version="1.1" viewBox="0 0 401 190" width="401px" zoomAndPan="magnify"><defs/><g><rect fill="#FFFFFF" height="115.0938" style="stroke:#181818;stroke-width:0.5;" width="5" x="70" y="40.9023"/><rect fill="#FFFFFF" height="14.2617" style="stroke:#181818;stroke-width:0.5;" width="5" x="131" y="66.9258"/><rect fill="#FFFFFF" height="14.2617" style="stroke:#181818;stroke-width:0.5;" width="5" x="184.5" y="95.4492"/><rect fill="#FFFFFF" height="14.2617" style="stroke:#181818;stroke-width:0.5;" width="5" x="348.75" y="123.9727"/><rect fill="none" height="93.832" style="stroke:#000000;stroke-width:0.75;" width="362.25" x="36" y="48.4023"/><line style="stroke:#181818;stroke-width:0.25;stroke-dasharray:5.0,5.0;" x1="72.5" x2="72.5" y1="25.6406" y2="164.9961"/><line style="stroke:#181818;stroke-width:0.25;stroke-dasharray:5.0,5.0;" x1="133.25" x2="133.25" y1="25.6406" y2="164.9961"/><line style="stroke:#181818;stroke-width:0.25;stroke-dasharray:5.0,5.0;" x1="186.75" x2="186.75" y1="25.6406" y2="164.9961"/><line style="stroke:#181818;stroke-width:0.25;stroke-dasharray:5.0,5.0;" x1="260.25" x2="260.25" y1="25.6406" y2="164.9961"/><line style="stroke:#181818;stroke-width:0.25;stroke-dasharray:5.0,5.0;" x1="351.25" x2="351.25" y1="25.6406" y2="164.9961"/><rect fill="#E3E3E3" height="14.8203" rx="1.25" ry="1.25" style="stroke:#181818;stroke-width:0.25;" width="63" x="41" y="10.3203"/><text fill="#000000" font-family="sans-serif" font-size="7" lengthAdjust="spacing" textLength="56" x="44.5" y="20.1572">:PublishController</text><rect fill="#E3E3E3" height="14.8203" rx="1.25" ry="1.25" style="stroke:#181818;stroke-width:0.25;" width="63" x="41" y="164.4961"/><text fill="#000000" font-family="sans-serif" font-size="7" lengthAdjust="spacing" textLength="56" x="44.5" y="174.333">:PublishController</text><rect fill="#E3E3E3" height="14.8203" rx="1.25" ry="1.25" style="stroke:#181818;stroke-width:0.25;" width="48.5" x="109.25" y="10.3203"/><text fill="#000000" font-family="sans-serif" font-size="7" lengthAdjust="spacing" textLength="41.5" x="112.75" y="20.1572">:Repositories</text><rect fill="#E3E3E3" height="14.8203" rx="1.25" ry="1.25" style="stroke:#181818;stroke-width:0.25;" width="48.5" x="109.25" y="164.4961"/><text fill="#000000" font-family="sans-serif" font-size="7" lengthAdjust="spacing" textLength="41.5" x="112.75" y="174.333">:Repositories</text><rect fill="#E3E3E3" height="22.6406" rx="1.25" ry="1.25" style="stroke:#181818;stroke-width:0.25;" width="48.5" x="162.75" y="2.5"/><text fill="#000000" font-family="sans-serif" font-size="7" lengthAdjust="spacing" textLength="37" x="168.5" y="12.3369">repositories</text><text fill="#000000" font-family="sans-serif" font-size="7" lengthAdjust="spacing" textLength="41.5" x="166.25" y="20.1572">:Repositories</text><rect fill="#E3E3E3" height="22.6406" rx="1.25" ry="1.25" style="stroke:#181818;stroke-width:0.25;" width="48.5" x="162.75" y="164.4961"/><text fill="#000000" font-family="sans-serif" font-size="7" lengthAdjust="spacing" textLength="37" x="168.5" y="174.333">repositories</text><text fill="#000000" font-family="sans-serif" font-size="7" lengthAdjust="spacing" textLength="41.5" x="166.25" y="182.1533">:Repositories</text><rect fill="#E3E3E3" height="22.6406" rx="1.25" ry="1.25" style="stroke:#181818;stroke-width:0.25;" width="88" x="216.25" y="2.5"/><text fill="#000000" font-family="sans-serif" font-size="7" lengthAdjust="spacing" textLength="76.5" x="222" y="12.3369">typePropretyRepository:</text><text fill="#000000" font-family="sans-serif" font-size="7" lengthAdjust="spacing" textLength="81" x="219.75" y="20.1572">Type Property Repository</text><rect fill="#E3E3E3" height="22.6406" rx="1.25" ry="1.25" style="stroke:#181818;stroke-width:0.25;" width="88" x="216.25" y="164.4961"/><text fill="#000000" font-family="sans-serif" font-size="7" lengthAdjust="spacing" textLength="76.5" x="222" y="174.333">typePropretyRepository:</text><text fill="#000000" font-family="sans-serif" font-size="7" lengthAdjust="spacing" textLength="81" x="219.75" y="182.1533">Type Property Repository</text><rect fill="#E3E3E3" height="14.8203" rx="1.25" ry="1.25" style="stroke:#181818;stroke-width:0.25;" width="84" x="309.25" y="10.3203"/><text fill="#000000" font-family="sans-serif" font-size="7" lengthAdjust="spacing" textLength="77" x="312.75" y="20.1572">PropertyTypeRepository</text><rect fill="#E3E3E3" height="14.8203" rx="1.25" ry="1.25" style="stroke:#181818;stroke-width:0.25;" width="84" x="309.25" y="164.4961"/><text fill="#000000" font-family="sans-serif" font-size="7" lengthAdjust="spacing" textLength="77" x="312.75" y="174.333">PropertyTypeRepository</text><rect fill="#FFFFFF" height="115.0938" style="stroke:#181818;stroke-width:0.5;" width="5" x="70" y="40.9023"/><rect fill="#FFFFFF" height="14.2617" style="stroke:#181818;stroke-width:0.5;" width="5" x="131" y="66.9258"/><rect fill="#FFFFFF" height="14.2617" style="stroke:#181818;stroke-width:0.5;" width="5" x="184.5" y="95.4492"/><rect fill="#FFFFFF" height="14.2617" style="stroke:#181818;stroke-width:0.5;" width="5" x="348.75" y="123.9727"/><polygon fill="#181818" points="64,38.9023,69,40.9023,64,42.9023,66,40.9023" style="stroke:#181818;stroke-width:0.5;"/><line style="stroke:#181818;stroke-width:0.5;" x1="0" x2="67" y1="40.9023" y2="40.9023"/><text fill="#000000" font-family="sans-serif" font-size="6.5" font-weight="bold" lengthAdjust="spacing" textLength="7" x="3.5" y="38.5249">15</text><text fill="#000000" font-family="sans-serif" font-size="6.5" lengthAdjust="spacing" textLength="51.5" x="12.5" y="38.5249">getPropertyType()</text><path d="M36,48.4023 L125,48.4023 L125,51.6641 L120,56.6641 L36,56.6641 L36,48.4023 " fill="#EEEEEE" style="stroke:#000000;stroke-width:0.75;"/><rect fill="none" height="93.832" style="stroke:#000000;stroke-width:0.75;" width="362.25" x="36" y="48.4023"/><text fill="#000000" font-family="sans-serif" font-size="6.5" font-weight="bold" lengthAdjust="spacing" textLength="66.5" x="43.5" y="54.7866">Get Type Of Property</text><polygon fill="#181818" points="125,64.9258,130,66.9258,125,68.9258,127,66.9258" style="stroke:#181818;stroke-width:0.5;"/><line style="stroke:#181818;stroke-width:0.5;" x1="75" x2="128" y1="66.9258" y2="66.9258"/><text fill="#000000" font-family="sans-serif" font-size="6.5" font-weight="bold" lengthAdjust="spacing" textLength="7" x="78.5" y="64.5483">16</text><text fill="#000000" font-family="sans-serif" font-size="6.5" lengthAdjust="spacing" textLength="37.5" x="87.5" y="64.5483">getInstance()</text><polygon fill="#181818" points="80.5,79.1875,75.5,81.1875,80.5,83.1875,78.5,81.1875" style="stroke:#181818;stroke-width:0.5;"/><line style="stroke:#181818;stroke-width:0.5;stroke-dasharray:2.0,2.0;" x1="77.5" x2="133" y1="81.1875" y2="81.1875"/><text fill="#000000" font-family="sans-serif" font-size="6.5" font-weight="bold" lengthAdjust="spacing" textLength="7" x="83.5" y="78.8101">17</text><text fill="#000000" font-family="sans-serif" font-size="6.5" lengthAdjust="spacing" textLength="33.5" x="92.5" y="78.8101">repositories</text><polygon fill="#181818" points="178.5,93.4492,183.5,95.4492,178.5,97.4492,180.5,95.4492" style="stroke:#181818;stroke-width:0.5;"/><line style="stroke:#181818;stroke-width:0.5;" x1="75" x2="181.5" y1="95.4492" y2="95.4492"/><text fill="#000000" font-family="sans-serif" font-size="6.5" font-weight="bold" lengthAdjust="spacing" textLength="7" x="78.5" y="93.0718">18</text><text fill="#000000" font-family="sans-serif" font-size="6.5" lengthAdjust="spacing" textLength="82.5" x="87.5" y="93.0718">getPropertyTypeRepository()</text><polygon fill="#181818" points="80.5,107.7109,75.5,109.7109,80.5,111.7109,78.5,109.7109" style="stroke:#181818;stroke-width:0.5;"/><line style="stroke:#181818;stroke-width:0.5;stroke-dasharray:2.0,2.0;" x1="77.5" x2="186.5" y1="109.7109" y2="109.7109"/><text fill="#000000" font-family="sans-serif" font-size="6.5" font-weight="bold" lengthAdjust="spacing" textLength="7" x="83.5" y="107.3335">19</text><text fill="#000000" font-family="sans-serif" font-size="6.5" lengthAdjust="spacing" textLength="68.5" x="92.5" y="107.3335">propertyTypeRepository</text><polygon fill="#181818" points="342.75,121.9727,347.75,123.9727,342.75,125.9727,344.75,123.9727" style="stroke:#181818;stroke-width:0.5;"/><line style="stroke:#181818;stroke-width:0.5;" x1="75" x2="345.75" y1="123.9727" y2="123.9727"/><text fill="#000000" font-family="sans-serif" font-size="6.5" font-weight="bold" lengthAdjust="spacing" textLength="7" x="78.5" y="121.5952">20</text><text fill="#000000" font-family="sans-serif" font-size="6.5" lengthAdjust="spacing" textLength="51.5" x="87.5" y="121.5952">getPropertyType()</text><polygon fill="#181818" points="80.5,136.2344,75.5,138.2344,80.5,140.2344,78.5,138.2344" style="stroke:#181818;stroke-width:0.5;"/><line style="stroke:#181818;stroke-width:0.5;stroke-dasharray:2.0,2.0;" x1="77.5" x2="350.75" y1="138.2344" y2="138.2344"/><text fill="#000000" font-family="sans-serif" font-size="6.5" font-weight="bold" lengthAdjust="spacing" textLength="7" x="83.5" y="135.8569">21</text><text fill="#000000" font-family="sans-serif" font-size="6.5" lengthAdjust="spacing" textLength="40.5" x="92.5" y="135.8569">Property Type</text><polygon fill="#181818" points="5.5,153.9961,0.5,155.9961,5.5,157.9961,3.5,155.9961" style="stroke:#181818;stroke-width:0.5;"/><line style="stroke:#181818;stroke-width:0.5;stroke-dasharray:2.0,2.0;" x1="2.5" x2="72" y1="155.9961" y2="155.9961"/><text fill="#000000" font-family="sans-serif" font-size="6.5" font-weight="bold" lengthAdjust="spacing" textLength="7" x="8.5" y="153.6187">22</text><text fill="#000000" font-family="sans-serif" font-size="6.5" lengthAdjust="spacing" textLength="40.5" x="17.5" y="153.6187">Property Type</text><!--SRC=[XLHBRnen4BxxLunoWWDHS4EghAAgAacZKb0GRDDBBcPtMApisfOzfkBVrspAhWDaw-FCzng_tAjKHbXHGQMLpZPMLmXaFJBNT8p8NaM1IzgL21Op4geeOu3RY5p_aQg0jIWTCXRA93DfX2AuIEP-LKgt6Mj5LfSbsWiG3iRfOde4NA3HJfAs4bsDQGgxzqWR0LzK5u-_9zBEuDngOv5sBIXvKMbemBw3bdOHlvPB_x7slIWI4vwqyjKABGn7ZB71btegIA10EX3sv5wVmM69ZEHM4BvjG5ilhFO67f5gEtXQDt5QKAqUNDeGRru_b0k7aiK-ZKqS-D2C-8CsTBoh3JJ7JgNJHFnq_BRP7P2VIyZZYEQiQdVOeDhkyb7iyocx3_0u_tcDKyyFlABfclktXvpme-4wBL7bH-PtWy7_BIBvzcP-3MA-AXcRb-7z_9fDOOlMIQrWUCcl-ATBtbjw1Tzn1Vm6hcuJFagkFyFlXnJsxJxhFSwduBIt6K8k7LcvyXJuVJOHMm4BhqXMcC2JGJMv_taem8FQIgjLXOhOv7dM0cwk1zyamH9jI0BFCtQFQ-5B2enCv-4FIc1iXdp4sJHyKpxyM-7M41lh81nUEipJlm00]--></g></svg>