<?xml version="1.0" encoding="UTF-8" standalone="no"?><svg xmlns="http://www.w3.org/2000/svg" xmlns:xlink="http://www.w3.org/1999/xlink" contentStyleType="text/css" height="1265px" preserveAspectRatio="none" style="width:1053px;height:1265px;background:#FFFFFF;" version="1.1" viewBox="0 0 1053 1265" width="1053px" zoomAndPan="magnify"><defs/><g><text fill="#000000" font-family="sans-serif" font-size="14" font-weight="bold" lengthAdjust="spacing" textLength="228" x="414.25" y="29.5332">System Sequence Diagram (SSD)</text><rect fill="#FFFFFF" height="1027.8438" style="stroke:#181818;stroke-width:1.0;" width="10" x="53.5" y="138.7656"/><rect fill="#FFFFFF" height="39.1563" style="stroke:#181818;stroke-width:1.0;" width="10" x="979.5" y="169.9219"/><rect fill="#FFFFFF" height="270.4063" style="stroke:#181818;stroke-width:1.0;" width="10" x="979.5" y="248.2344"/><rect fill="#FFFFFF" height="46.1563" style="stroke:#181818;stroke-width:1.0;" width="10" x="979.5" y="602.1094"/><rect fill="#FFFFFF" height="112.4688" style="stroke:#181818;stroke-width:1.0;" width="10" x="979.5" y="731.7344"/><rect fill="#FFFFFF" height="151.625" style="stroke:#181818;stroke-width:1.0;" width="10" x="979.5" y="927.6719"/><rect fill="#FFFFFF" height="39.1563" style="stroke:#181818;stroke-width:1.0;" width="10" x="979.5" y="1118.4531"/><rect fill="none" height="217.25" style="stroke:#000000;stroke-width:1.5;" width="1037.5" x="10" y="263.2344"/><rect fill="none" height="101.625" style="stroke:#000000;stroke-width:1.5;" width="1017.5" x="20" y="371.8594"/><rect fill="none" height="76.4688" style="stroke:#000000;stroke-width:1.5;" width="1017.5" x="20" y="533.6406"/><rect fill="none" height="142.7813" style="stroke:#000000;stroke-width:1.5;" width="1017.5" x="20" y="663.2656"/><rect fill="none" height="142.7813" style="stroke:#000000;stroke-width:1.5;" width="1017.5" x="20" y="859.2031"/><line style="stroke:#181818;stroke-width:0.5;stroke-dasharray:5.0,5.0;" x1="58" x2="58" y1="128.7656" y2="1175.6094"/><line style="stroke:#181818;stroke-width:0.5;stroke-dasharray:5.0,5.0;" x1="984.5" x2="984.5" y1="128.7656" y2="1175.6094"/><text fill="#000000" font-family="sans-serif" font-size="20" lengthAdjust="spacing" textLength="51" x="30" y="124.3711">Agent</text><ellipse cx="58.5" cy="52.1094" fill="#E3E3E3" rx="8" ry="8" style="stroke:#181818;stroke-width:0.5;"/><path d="M58.5,60.1094 L58.5,87.1094 M45.5,68.1094 L71.5,68.1094 M58.5,87.1094 L45.5,102.1094 M58.5,87.1094 L71.5,102.1094 " fill="none" style="stroke:#181818;stroke-width:0.5;"/><text fill="#000000" font-family="sans-serif" font-size="20" lengthAdjust="spacing" textLength="51" x="30" y="1195.3711">Agent</text><ellipse cx="58.5" cy="1208.2656" fill="#E3E3E3" rx="8" ry="8" style="stroke:#181818;stroke-width:0.5;"/><path d="M58.5,1216.2656 L58.5,1243.2656 M45.5,1224.2656 L71.5,1224.2656 M58.5,1243.2656 L45.5,1258.2656 M58.5,1243.2656 L71.5,1258.2656 " fill="none" style="stroke:#181818;stroke-width:0.5;"/><rect fill="#E3E3E3" height="39.1563" rx="2.5" ry="2.5" style="stroke:#181818;stroke-width:0.5;" width="86" x="941.5" y="88.6094"/><text fill="#000000" font-family="sans-serif" font-size="20" lengthAdjust="spacing" textLength="72" x="948.5" y="116.3711">:System</text><rect fill="#E3E3E3" height="39.1563" rx="2.5" ry="2.5" style="stroke:#181818;stroke-width:0.5;" width="86" x="941.5" y="1174.6094"/><text fill="#000000" font-family="sans-serif" font-size="20" lengthAdjust="spacing" textLength="72" x="948.5" y="1202.3711">:System</text><rect fill="#FFFFFF" height="1027.8438" style="stroke:#181818;stroke-width:1.0;" width="10" x="53.5" y="138.7656"/><rect fill="#FFFFFF" height="39.1563" style="stroke:#181818;stroke-width:1.0;" width="10" x="979.5" y="169.9219"/><rect fill="#FFFFFF" height="270.4063" style="stroke:#181818;stroke-width:1.0;" width="10" x="979.5" y="248.2344"/><rect fill="#FFFFFF" height="46.1563" style="stroke:#181818;stroke-width:1.0;" width="10" x="979.5" y="602.1094"/><rect fill="#FFFFFF" height="112.4688" style="stroke:#181818;stroke-width:1.0;" width="10" x="979.5" y="731.7344"/><rect fill="#FFFFFF" height="151.625" style="stroke:#181818;stroke-width:1.0;" width="10" x="979.5" y="927.6719"/><rect fill="#FFFFFF" height="39.1563" style="stroke:#181818;stroke-width:1.0;" width="10" x="979.5" y="1118.4531"/><polygon fill="#181818" points="967.5,165.9219,977.5,169.9219,967.5,173.9219,971.5,169.9219" style="stroke:#181818;stroke-width:1.0;"/><line style="stroke:#181818;stroke-width:1.0;" x1="63.5" x2="973.5" y1="169.9219" y2="169.9219"/><text fill="#000000" font-family="sans-serif" font-size="20" font-weight="bold" lengthAdjust="spacing" textLength="11" x="70.5" y="163.5273">1</text><text fill="#000000" font-family="sans-serif" font-size="20" lengthAdjust="spacing" textLength="364" x="85.5" y="163.5273">asks to create an annoucement to publish</text><polygon fill="#181818" points="74.5,205.0781,64.5,209.0781,74.5,213.0781,70.5,209.0781" style="stroke:#181818;stroke-width:1.0;"/><line style="stroke:#181818;stroke-width:1.0;stroke-dasharray:2.0,2.0;" x1="68.5" x2="983.5" y1="209.0781" y2="209.0781"/><text fill="#000000" font-family="sans-serif" font-size="20" font-weight="bold" lengthAdjust="spacing" textLength="11" x="80.5" y="202.6836">2</text><text fill="#000000" font-family="sans-serif" font-size="20" lengthAdjust="spacing" textLength="121" x="95.5" y="202.6836">requests data</text><polygon fill="#181818" points="967.5,244.2344,977.5,248.2344,967.5,252.2344,971.5,248.2344" style="stroke:#181818;stroke-width:1.0;"/><line style="stroke:#181818;stroke-width:1.0;" x1="63.5" x2="973.5" y1="248.2344" y2="248.2344"/><text fill="#000000" font-family="sans-serif" font-size="20" font-weight="bold" lengthAdjust="spacing" textLength="11" x="70.5" y="241.8398">3</text><text fill="#000000" font-family="sans-serif" font-size="20" lengthAdjust="spacing" textLength="882" x="85.5" y="241.8398">types requested data [area in m^2, state, district, city, street, zip code and distance from city center]</text><path d="M10,263.2344 L86,263.2344 L86,280.3906 L76,290.3906 L10,290.3906 L10,263.2344 " fill="#EEEEEE" style="stroke:#000000;stroke-width:1.5;"/><rect fill="none" height="217.25" style="stroke:#000000;stroke-width:1.5;" width="1037.5" x="10" y="263.2344"/><text fill="#000000" font-family="sans-serif" font-size="20" font-weight="bold" lengthAdjust="spacing" textLength="31" x="25" y="284.9961">opt</text><text fill="#000000" font-family="sans-serif" font-size="20" font-weight="bold" lengthAdjust="spacing" textLength="180" x="101" y="285.9961">[house, apartment]</text><polygon fill="#181818" points="967.5,352.8594,977.5,356.8594,967.5,360.8594,971.5,356.8594" style="stroke:#181818;stroke-width:1.0;"/><line style="stroke:#181818;stroke-width:1.0;" x1="63.5" x2="973.5" y1="356.8594" y2="356.8594"/><text fill="#000000" font-family="sans-serif" font-size="20" font-weight="bold" lengthAdjust="spacing" textLength="11" x="70.5" y="337.8867">4</text><text fill="#000000" font-family="sans-serif" font-size="20" lengthAdjust="spacing" textLength="825" x="85.5" y="325.3086">types requested data [number of bedrooms, number of bathrooms, number of parking spaces,</text><text fill="#000000" font-family="sans-serif" font-size="20" lengthAdjust="spacing" textLength="518" x="85.5" y="350.4648">available equipment (central heating and/or airconditioning)]</text><path d="M20,371.8594 L96,371.8594 L96,389.0156 L86,399.0156 L20,399.0156 L20,371.8594 " fill="#EEEEEE" style="stroke:#000000;stroke-width:1.5;"/><rect fill="none" height="101.625" style="stroke:#000000;stroke-width:1.5;" width="1017.5" x="20" y="371.8594"/><text fill="#000000" font-family="sans-serif" font-size="20" font-weight="bold" lengthAdjust="spacing" textLength="31" x="35" y="393.6211">opt</text><text fill="#000000" font-family="sans-serif" font-size="20" font-weight="bold" lengthAdjust="spacing" textLength="72" x="111" y="394.6211">[house]</text><polygon fill="#181818" points="967.5,461.4844,977.5,465.4844,967.5,469.4844,971.5,465.4844" style="stroke:#181818;stroke-width:1.0;"/><line style="stroke:#181818;stroke-width:1.0;" x1="63.5" x2="973.5" y1="465.4844" y2="465.4844"/><text fill="#000000" font-family="sans-serif" font-size="20" font-weight="bold" lengthAdjust="spacing" textLength="11" x="70.5" y="446.5117">5</text><text fill="#000000" font-family="sans-serif" font-size="20" lengthAdjust="spacing" textLength="768" x="85.5" y="433.9336">types requested data [the existence of a basement and/or inhabitable loft, sun exposure</text><text fill="#000000" font-family="sans-serif" font-size="20" lengthAdjust="spacing" textLength="239" x="85.5" y="459.0898">(North, South, East, West)]</text><polygon fill="#181818" points="74.5,514.6406,64.5,518.6406,74.5,522.6406,70.5,518.6406" style="stroke:#181818;stroke-width:1.0;"/><line style="stroke:#181818;stroke-width:1.0;stroke-dasharray:2.0,2.0;" x1="68.5" x2="983.5" y1="518.6406" y2="518.6406"/><text fill="#000000" font-family="sans-serif" font-size="20" font-weight="bold" lengthAdjust="spacing" textLength="11" x="80.5" y="512.2461">6</text><text fill="#000000" font-family="sans-serif" font-size="20" lengthAdjust="spacing" textLength="437" x="95.5" y="512.2461">saves all data and asks for photos of the property</text><path d="M20,533.6406 L106,533.6406 L106,550.7969 L96,560.7969 L20,560.7969 L20,533.6406 " fill="#EEEEEE" style="stroke:#000000;stroke-width:1.5;"/><rect fill="none" height="76.4688" style="stroke:#000000;stroke-width:1.5;" width="1017.5" x="20" y="533.6406"/><text fill="#000000" font-family="sans-serif" font-size="20" font-weight="bold" lengthAdjust="spacing" textLength="41" x="35" y="555.4023">loop</text><text fill="#000000" font-family="sans-serif" font-size="20" font-weight="bold" lengthAdjust="spacing" textLength="392" x="121" y="556.4023">[Sends photos (from 1 up to 30 pictures)]</text><polygon fill="#181818" points="967.5,598.1094,977.5,602.1094,967.5,606.1094,971.5,602.1094" style="stroke:#181818;stroke-width:1.0;"/><line style="stroke:#181818;stroke-width:1.0;" x1="63.5" x2="973.5" y1="602.1094" y2="602.1094"/><text fill="#000000" font-family="sans-serif" font-size="20" font-weight="bold" lengthAdjust="spacing" textLength="11" x="70.5" y="595.7148">7</text><text fill="#000000" font-family="sans-serif" font-size="20" lengthAdjust="spacing" textLength="253" x="85.5" y="595.7148">sends photos of the property</text><polygon fill="#181818" points="74.5,644.2656,64.5,648.2656,74.5,652.2656,70.5,648.2656" style="stroke:#181818;stroke-width:1.0;"/><line style="stroke:#181818;stroke-width:1.0;stroke-dasharray:2.0,2.0;" x1="68.5" x2="983.5" y1="648.2656" y2="648.2656"/><text fill="#000000" font-family="sans-serif" font-size="20" font-weight="bold" lengthAdjust="spacing" textLength="11" x="80.5" y="641.8711">8</text><text fill="#000000" font-family="sans-serif" font-size="20" lengthAdjust="spacing" textLength="611" x="95.5" y="641.8711">saves the photos and asks for the type of business and neeeded data</text><path d="M20,663.2656 L88,663.2656 L88,680.4219 L78,690.4219 L20,690.4219 L20,663.2656 " fill="#EEEEEE" style="stroke:#000000;stroke-width:1.5;"/><rect fill="none" height="142.7813" style="stroke:#000000;stroke-width:1.5;" width="1017.5" x="20" y="663.2656"/><text fill="#000000" font-family="sans-serif" font-size="20" font-weight="bold" lengthAdjust="spacing" textLength="23" x="35" y="685.0273">alt</text><text fill="#000000" font-family="sans-serif" font-size="20" font-weight="bold" lengthAdjust="spacing" textLength="52" x="103" y="686.0273">[sale]</text><polygon fill="#181818" points="967.5,727.7344,977.5,731.7344,967.5,735.7344,971.5,731.7344" style="stroke:#181818;stroke-width:1.0;"/><line style="stroke:#181818;stroke-width:1.0;" x1="63.5" x2="973.5" y1="731.7344" y2="731.7344"/><text fill="#000000" font-family="sans-serif" font-size="20" font-weight="bold" lengthAdjust="spacing" textLength="11" x="70.5" y="725.3398">7</text><text fill="#000000" font-family="sans-serif" font-size="20" lengthAdjust="spacing" textLength="382" x="85.5" y="725.3398">types the requested data [Requested price]</text><line style="stroke:#000000;stroke-width:1.0;stroke-dasharray:2.0,2.0;" x1="20" x2="1037.5" y1="740.7344" y2="740.7344"/><text fill="#000000" font-family="sans-serif" font-size="20" font-weight="bold" lengthAdjust="spacing" textLength="63" x="25" y="761.4961">[lease]</text><polygon fill="#181818" points="967.5,794.0469,977.5,798.0469,967.5,802.0469,971.5,798.0469" style="stroke:#181818;stroke-width:1.0;"/><line style="stroke:#181818;stroke-width:1.0;" x1="63.5" x2="973.5" y1="798.0469" y2="798.0469"/><text fill="#000000" font-family="sans-serif" font-size="20" font-weight="bold" lengthAdjust="spacing" textLength="11" x="70.5" y="791.6523">8</text><text fill="#000000" font-family="sans-serif" font-size="20" lengthAdjust="spacing" textLength="558" x="85.5" y="791.6523">types the requested data [Requested fee and contract duration]</text><polygon fill="#181818" points="74.5,840.2031,64.5,844.2031,74.5,848.2031,70.5,844.2031" style="stroke:#181818;stroke-width:1.0;"/><line style="stroke:#181818;stroke-width:1.0;stroke-dasharray:2.0,2.0;" x1="68.5" x2="983.5" y1="844.2031" y2="844.2031"/><text fill="#000000" font-family="sans-serif" font-size="20" font-weight="bold" lengthAdjust="spacing" textLength="11" x="80.5" y="837.8086">9</text><text fill="#000000" font-family="sans-serif" font-size="20" lengthAdjust="spacing" textLength="554" x="95.5" y="837.8086">save all data and requests the comission type and needed data</text><path d="M20,859.2031 L88,859.2031 L88,876.3594 L78,886.3594 L20,886.3594 L20,859.2031 " fill="#EEEEEE" style="stroke:#000000;stroke-width:1.5;"/><rect fill="none" height="142.7813" style="stroke:#000000;stroke-width:1.5;" width="1017.5" x="20" y="859.2031"/><text fill="#000000" font-family="sans-serif" font-size="20" font-weight="bold" lengthAdjust="spacing" textLength="23" x="35" y="880.9648">alt</text><text fill="#000000" font-family="sans-serif" font-size="20" font-weight="bold" lengthAdjust="spacing" textLength="120" x="103" y="881.9648">[percentage]</text><polygon fill="#181818" points="967.5,923.6719,977.5,927.6719,967.5,931.6719,971.5,927.6719" style="stroke:#181818;stroke-width:1.0;"/><line style="stroke:#181818;stroke-width:1.0;" x1="63.5" x2="973.5" y1="927.6719" y2="927.6719"/><text fill="#000000" font-family="sans-serif" font-size="20" font-weight="bold" lengthAdjust="spacing" textLength="22" x="70.5" y="921.2773">10</text><text fill="#000000" font-family="sans-serif" font-size="20" lengthAdjust="spacing" textLength="288" x="96.5" y="921.2773">inserts the percentage comission</text><line style="stroke:#000000;stroke-width:1.0;stroke-dasharray:2.0,2.0;" x1="20" x2="1037.5" y1="936.6719" y2="936.6719"/><text fill="#000000" font-family="sans-serif" font-size="20" font-weight="bold" lengthAdjust="spacing" textLength="64" x="25" y="957.4336">[value]</text><polygon fill="#181818" points="967.5,989.9844,977.5,993.9844,967.5,997.9844,971.5,993.9844" style="stroke:#181818;stroke-width:1.0;"/><line style="stroke:#181818;stroke-width:1.0;" x1="63.5" x2="973.5" y1="993.9844" y2="993.9844"/><text fill="#000000" font-family="sans-serif" font-size="20" font-weight="bold" lengthAdjust="spacing" textLength="22" x="70.5" y="987.5898">11</text><text fill="#000000" font-family="sans-serif" font-size="20" lengthAdjust="spacing" textLength="234" x="96.5" y="987.5898">inserts the comission value</text><polygon fill="#181818" points="74.5,1036.1406,64.5,1040.1406,74.5,1044.1406,70.5,1040.1406" style="stroke:#181818;stroke-width:1.0;"/><line style="stroke:#181818;stroke-width:1.0;stroke-dasharray:2.0,2.0;" x1="68.5" x2="978.5" y1="1040.1406" y2="1040.1406"/><text fill="#000000" font-family="sans-serif" font-size="20" font-weight="bold" lengthAdjust="spacing" textLength="22" x="80.5" y="1033.7461">12</text><text fill="#000000" font-family="sans-serif" font-size="20" lengthAdjust="spacing" textLength="154" x="106.5" y="1033.7461">requests the date</text><polygon fill="#181818" points="74.5,1075.2969,64.5,1079.2969,74.5,1083.2969,70.5,1079.2969" style="stroke:#181818;stroke-width:1.0;"/><line style="stroke:#181818;stroke-width:1.0;stroke-dasharray:2.0,2.0;" x1="68.5" x2="983.5" y1="1079.2969" y2="1079.2969"/><text fill="#000000" font-family="sans-serif" font-size="20" font-weight="bold" lengthAdjust="spacing" textLength="22" x="80.5" y="1072.9023">13</text><text fill="#000000" font-family="sans-serif" font-size="20" lengthAdjust="spacing" textLength="236" x="106.5" y="1072.9023">publishes the annoucement</text><polygon fill="#181818" points="967.5,1114.4531,977.5,1118.4531,967.5,1122.4531,971.5,1118.4531" style="stroke:#181818;stroke-width:1.0;"/><line style="stroke:#181818;stroke-width:1.0;" x1="63.5" x2="973.5" y1="1118.4531" y2="1118.4531"/><text fill="#000000" font-family="sans-serif" font-size="20" font-weight="bold" lengthAdjust="spacing" textLength="22" x="70.5" y="1112.0586">14</text><text fill="#000000" font-family="sans-serif" font-size="20" lengthAdjust="spacing" textLength="112" x="96.5" y="1112.0586">submits data</text><polygon fill="#181818" points="74.5,1153.6094,64.5,1157.6094,74.5,1161.6094,70.5,1157.6094" style="stroke:#181818;stroke-width:1.0;"/><line style="stroke:#181818;stroke-width:1.0;stroke-dasharray:2.0,2.0;" x1="68.5" x2="983.5" y1="1157.6094" y2="1157.6094"/><text fill="#000000" font-family="sans-serif" font-size="20" font-weight="bold" lengthAdjust="spacing" textLength="22" x="80.5" y="1151.2148">15</text><text fill="#000000" font-family="sans-serif" font-size="20" lengthAdjust="spacing" textLength="236" x="106.5" y="1151.2148">displays operation success</text><!--SRC=[xLX9Rzj65BxFhtZmnH8WBrBYfDMXQ1kx1HoxCQ8qERGkC2AVn8796NOM9SglxpSaHScsDlSime38cRU_xosmUr2wb5OMkKaUEAMK9pBa_ZUZ_KXzPngSY-FC-z8DpyxAN6eVYlmqCSMPuty3wuHFKYMdu1Tk8OaAeqsIMLCmUHjuvQQKoOESyiZFSoRBYPTwcgyIk4ocvglIKvh8tB4GNdcGZkRESq6ZHYTTrZgfCnfTTeKW6RpHeHYp5JBnnjBHBrFM_eYae-fDGBnNYIhX0HqDQtdLTVqg8f-QISyDlI0yrIkT_BJGFmJ3WoDlAB4SQQN6dpOXuI9Iug8Curovh6AFJojseISUDk9E8BbMCKGmu9hpZbBfPSkTybh-vtRvUSbk8IIc4LBeBmahIMag_Xdqo7c8wL6gdBSgyJrAb9_7OykCh- -gfCIaqQUq8f8nq1DaiIAa12hPtcztp9IUCXCSzCWOyHYL9KUR97hT7kxhIiDe9ZJcr1fJk1wjd4cVFJk40GyHIGweOzpyhULCgboE0IX8LsMLiqvqpCgSCcGqaiF_Co18AfiOdIglZCPnzrwqDhTUjYTFtBjuTB6lYpw3NTyG-GhYS432BrSZgp5AwKoEbQzSoCq4QND1WwaqBbY6Xvq_ZFLPZqOcn9yhwK3p1LgwoyonJiNYzp4SL_3ev0mcoZolZOkWgB0_WHLbPhnnqS9eScbDoTRFTu4sDwP41UlKBGHqAdJrAPInSbwTKmbSmW_N5LlmuLP5RB9X7K9N_O_FTjShiRMIHyx7yvY_2dR1ASskfj3Cd3R9t1KBcNkeGUTRLnnlnSxgY4OyXS_7zhj4VVFzrbWiWu4kIpbBjsBB_zSyuRf_e79GKucdD5WPAwYfdXZwOt6yeGV6m3-6NDiLerhpLICwoBCp6lMgDD9HLD9hYUlZtQXh_DdF8IqBT30llpNTf1UHeBdzuW9zP4T7hUnVDDNxfONx3eGTmS08Lix1zngC3G1VWZy4ChO-ZEDDGqLfXw9gIg6bNghUFWigPCra7dWRdbTrB7rQONlUfTOCpSWDlrbi96tcSfFmbQ7zybdhmhXGJoVrlca5MB16pT6v4D4Al92NO3wvhORyZ31WynBBLMdpldPOn0wBs64HEonYXqNii8XjMyGEcyTXytZ1vd4N__lpv-qDpR21H-x-wU1yyEgqtncXzLrZ0Wz-fFvWUF73yE8DVRdwHF6wApg_tzsGCm5PR6RUE4JjNN6DCK0VW_Qgu25zA5bVNxvV7D2LdYbhT1Mfwy-tIu8thqz-LHuTpC8I-dmhBkiT21oOcnWHGtfNzWSN0t63hIO0E4Y25-yC1DlvaEu-_GS0]--></g></svg>