<?xml version="1.0" encoding="us-ascii" standalone="no"?><svg xmlns="http://www.w3.org/2000/svg" xmlns:xlink="http://www.w3.org/1999/xlink" contentStyleType="text/css" height="369px" preserveAspectRatio="none" style="width:543px;height:369px;background:#FFFFFF;" version="1.1" viewBox="0 0 543 369" width="543px" zoomAndPan="magnify"><defs/><g><text fill="#000000" font-family="sans-serif" font-size="14" font-weight="bold" lengthAdjust="spacing" textLength="276" x="132.5" y="27.6738">System Sequence Diagram (SSD) - US09</text><rect fill="#FFFFFF" height="243.7109" style="stroke:#181818;stroke-width:1.0;" width="10" x="25" y="82.2813"/><rect fill="#FFFFFF" height="28.5234" style="stroke:#181818;stroke-width:1.0;" width="10" x="502" y="102.8047"/><rect fill="#FFFFFF" height="43.0469" style="stroke:#181818;stroke-width:1.0;" width="10" x="502" y="159.8516"/><rect fill="#FFFFFF" height="28.5234" style="stroke:#181818;stroke-width:1.0;" width="10" x="502" y="231.4219"/><rect fill="#FFFFFF" height="28.5234" style="stroke:#181818;stroke-width:1.0;" width="10" x="502" y="288.4688"/><line style="stroke:#181818;stroke-width:0.5;stroke-dasharray:5.0,5.0;" x1="30" x2="30" y1="72.2813" y2="334.9922"/><line style="stroke:#181818;stroke-width:0.5;stroke-dasharray:5.0,5.0;" x1="507" x2="507" y1="72.2813" y2="334.9922"/><rect fill="#E3E3E3" height="29.6406" rx="2.5" ry="2.5" style="stroke:#181818;stroke-width:0.5;" width="50" x="5" y="41.6406"/><text fill="#000000" font-family="sans-serif" font-size="14" lengthAdjust="spacing" textLength="36" x="12" y="61.3145">Client</text><rect fill="#E3E3E3" height="29.6406" rx="2.5" ry="2.5" style="stroke:#181818;stroke-width:0.5;" width="50" x="5" y="333.9922"/><text fill="#000000" font-family="sans-serif" font-size="14" lengthAdjust="spacing" textLength="36" x="12" y="353.666">Client</text><rect fill="#E3E3E3" height="29.6406" rx="2.5" ry="2.5" style="stroke:#181818;stroke-width:0.5;" width="60" x="477" y="41.6406"/><text fill="#000000" font-family="sans-serif" font-size="14" lengthAdjust="spacing" textLength="46" x="484" y="61.3145">System</text><rect fill="#E3E3E3" height="29.6406" rx="2.5" ry="2.5" style="stroke:#181818;stroke-width:0.5;" width="60" x="477" y="333.9922"/><text fill="#000000" font-family="sans-serif" font-size="14" lengthAdjust="spacing" textLength="46" x="484" y="353.666">System</text><rect fill="#FFFFFF" height="243.7109" style="stroke:#181818;stroke-width:1.0;" width="10" x="25" y="82.2813"/><rect fill="#FFFFFF" height="28.5234" style="stroke:#181818;stroke-width:1.0;" width="10" x="502" y="102.8047"/><rect fill="#FFFFFF" height="43.0469" style="stroke:#181818;stroke-width:1.0;" width="10" x="502" y="159.8516"/><rect fill="#FFFFFF" height="28.5234" style="stroke:#181818;stroke-width:1.0;" width="10" x="502" y="231.4219"/><rect fill="#FFFFFF" height="28.5234" style="stroke:#181818;stroke-width:1.0;" width="10" x="502" y="288.4688"/><polygon fill="#181818" points="490,98.8047,500,102.8047,490,106.8047,494,102.8047" style="stroke:#181818;stroke-width:1.0;"/><line style="stroke:#181818;stroke-width:1.0;" x1="35" x2="496" y1="102.8047" y2="102.8047"/><text fill="#000000" font-family="sans-serif" font-size="13" font-weight="bold" lengthAdjust="spacing" textLength="7" x="42" y="98.0498">1</text><text fill="#000000" font-family="sans-serif" font-size="13" lengthAdjust="spacing" textLength="136" x="53" y="98.0498">asks to schedule a visit</text><polygon fill="#181818" points="46,127.3281,36,131.3281,46,135.3281,42,131.3281" style="stroke:#181818;stroke-width:1.0;"/><line style="stroke:#181818;stroke-width:1.0;stroke-dasharray:2.0,2.0;" x1="40" x2="506" y1="131.3281" y2="131.3281"/><text fill="#000000" font-family="sans-serif" font-size="13" font-weight="bold" lengthAdjust="spacing" textLength="7" x="52" y="126.5732">2</text><text fill="#000000" font-family="sans-serif" font-size="13" lengthAdjust="spacing" textLength="427" x="63" y="126.5732">shows a list of properties sorted from the most recent entries to the oldest</text><polygon fill="#181818" points="490,155.8516,500,159.8516,490,163.8516,494,159.8516" style="stroke:#181818;stroke-width:1.0;"/><line style="stroke:#181818;stroke-width:1.0;" x1="35" x2="496" y1="159.8516" y2="159.8516"/><text fill="#000000" font-family="sans-serif" font-size="13" font-weight="bold" lengthAdjust="spacing" textLength="7" x="42" y="155.0967">3</text><text fill="#000000" font-family="sans-serif" font-size="13" lengthAdjust="spacing" textLength="186" x="53" y="155.0967">selects a property of his interest</text><polygon fill="#181818" points="46,198.8984,36,202.8984,46,206.8984,42,202.8984" style="stroke:#181818;stroke-width:1.0;"/><line style="stroke:#181818;stroke-width:1.0;stroke-dasharray:2.0,2.0;" x1="40" x2="506" y1="202.8984" y2="202.8984"/><text fill="#000000" font-family="sans-serif" font-size="13" font-weight="bold" lengthAdjust="spacing" textLength="7" x="52" y="190.8818">4</text><text fill="#000000" font-family="sans-serif" font-size="13" lengthAdjust="spacing" textLength="203" x="63" y="183.6201">Requests the name, phone number</text><text fill="#000000" font-family="sans-serif" font-size="13" lengthAdjust="spacing" textLength="432" x="63" y="198.1436">and preferred date and time slot (from x hour to y hour) for the property visit</text><polygon fill="#181818" points="490,227.4219,500,231.4219,490,235.4219,494,231.4219" style="stroke:#181818;stroke-width:1.0;"/><line style="stroke:#181818;stroke-width:1.0;" x1="35" x2="496" y1="231.4219" y2="231.4219"/><text fill="#000000" font-family="sans-serif" font-size="13" font-weight="bold" lengthAdjust="spacing" textLength="7" x="42" y="226.667">5</text><text fill="#000000" font-family="sans-serif" font-size="13" lengthAdjust="spacing" textLength="158" x="53" y="226.667">submits the requested data</text><polygon fill="#181818" points="46,255.9453,36,259.9453,46,263.9453,42,259.9453" style="stroke:#181818;stroke-width:1.0;"/><line style="stroke:#181818;stroke-width:1.0;stroke-dasharray:2.0,2.0;" x1="40" x2="506" y1="259.9453" y2="259.9453"/><text fill="#000000" font-family="sans-serif" font-size="13" font-weight="bold" lengthAdjust="spacing" textLength="7" x="52" y="255.1904">6</text><text fill="#000000" font-family="sans-serif" font-size="13" lengthAdjust="spacing" textLength="201" x="63" y="255.1904">asks to confirm the submitted data</text><polygon fill="#181818" points="490,284.4688,500,288.4688,490,292.4688,494,288.4688" style="stroke:#181818;stroke-width:1.0;"/><line style="stroke:#181818;stroke-width:1.0;" x1="35" x2="496" y1="288.4688" y2="288.4688"/><text fill="#000000" font-family="sans-serif" font-size="13" font-weight="bold" lengthAdjust="spacing" textLength="7" x="42" y="283.7139">7</text><text fill="#000000" font-family="sans-serif" font-size="13" lengthAdjust="spacing" textLength="161" x="53" y="283.7139">confirms the submitted data</text><polygon fill="#181818" points="46,312.9922,36,316.9922,46,320.9922,42,316.9922" style="stroke:#181818;stroke-width:1.0;"/><line style="stroke:#181818;stroke-width:1.0;stroke-dasharray:2.0,2.0;" x1="40" x2="506" y1="316.9922" y2="316.9922"/><text fill="#000000" font-family="sans-serif" font-size="13" font-weight="bold" lengthAdjust="spacing" textLength="7" x="52" y="312.2373">8</text><text fill="#000000" font-family="sans-serif" font-size="13" lengthAdjust="spacing" textLength="326" x="63" y="312.2373">registers the information and shows a success message</text><!--SRC=[ZLEnSjim3Dtv5TYKtDLrrtheadn1TTsoC1GayKmIAW4cyTyN4kKqFddG80ad0kyzF83DA3BnwNYSWarIOlZkA1uP_nPC3W-TjqEsqV3Pfybg194IkJ5JH91SyCl9PDtP3jZA9I1aT6BJ4Bucy6WxUlTfWDu6HcF4YwQs5nQCqAwSy5mvuQ5jdn_X07_Q7p-DiKKebVYAMMCd_iqAmbFmcCIO-eN3hnNi19RF34B0RiIkA8k5DyzU_jVMJ6DM-eCMLvYJ2gLtrehWMO1wc39DcCKZ0rCMxA1N0q16L3iqHPkTwVN9SuxIpaSKEcGn7Muejt8PWnesSwvSbvbtz0m-2UOPPuFIt55-RTjHwdsk4ZyHAmbsfjbgQaopLVLKKNY1kLP3PyMQPe-Fl-UHijJwP2D-WscafF4oI7X9DdMg3tlCkIBheFINU5ql3YJmi3Zz0IELF3TsMQ97w2dVDbUdky_iyXhzgYfNYTUszdHrp-CA-GcpIuQxSVSMO8-EZ8Fk9-OAu9DQ4gruIek5rntcuXmoGzINtiuxqlu1]--></g></svg>