<?xml version="1.0" encoding="us-ascii" standalone="no"?><svg xmlns="http://www.w3.org/2000/svg" xmlns:xlink="http://www.w3.org/1999/xlink" contentStyleType="text/css" height="1116px" preserveAspectRatio="none" style="width:745px;height:1116px;background:#FFFFFF;" version="1.1" viewBox="0 0 745 1116" width="745px" zoomAndPan="magnify"><defs/><g><text fill="#000000" font-family="sans-serif" font-size="14" font-weight="bold" lengthAdjust="spacing" textLength="148" x="291.75" y="22.6738">US09 - Domain Model</text><!--class Address--><g id="elem_Address"><rect codeLine="14" fill="#F1F1F1" height="64.9219" id="Address" rx="2.5" ry="2.5" style="stroke:#181818;stroke-width:0.5;" width="69" x="337" y="645.6406"/><text fill="#000000" font-family="sans-serif" font-size="14" lengthAdjust="spacing" textLength="52" x="345.5" y="663.3145">Address</text><line style="stroke:#181818;stroke-width:0.5;" x1="338" x2="405" y1="671.2813" y2="671.2813"/><text fill="#000000" font-family="sans-serif" font-size="14" lengthAdjust="spacing" textLength="38" x="343" y="687.9551">Street</text><text fill="#000000" font-family="sans-serif" font-size="14" lengthAdjust="spacing" textLength="57" x="343" y="703.5957">Zip Code</text></g><!--class City--><g id="elem_City"><rect codeLine="19" fill="#F1F1F1" height="49.2813" id="City" rx="2.5" ry="2.5" style="stroke:#181818;stroke-width:0.5;" width="75" x="334" y="1060.6406"/><text fill="#000000" font-family="sans-serif" font-size="14" lengthAdjust="spacing" textLength="24" x="359.5" y="1078.3145">City</text><line style="stroke:#181818;stroke-width:0.5;" x1="335" x2="408" y1="1086.2813" y2="1086.2813"/><text fill="#000000" font-family="sans-serif" font-size="14" lengthAdjust="spacing" textLength="63" x="340" y="1102.9551">City name</text></g><!--class District--><g id="elem_District"><rect codeLine="23" fill="#F1F1F1" height="49.2813" id="District" rx="2.5" ry="2.5" style="stroke:#181818;stroke-width:0.5;" width="94" x="324.5" y="935.6406"/><text fill="#000000" font-family="sans-serif" font-size="14" lengthAdjust="spacing" textLength="43" x="350" y="953.3145">District</text><line style="stroke:#181818;stroke-width:0.5;" x1="325.5" x2="417.5" y1="961.2813" y2="961.2813"/><text fill="#000000" font-family="sans-serif" font-size="14" lengthAdjust="spacing" textLength="82" x="330.5" y="977.9551">District name</text></g><!--class State--><g id="elem_State"><rect codeLine="27" fill="#F1F1F1" height="49.2813" id="State" rx="2.5" ry="2.5" style="stroke:#181818;stroke-width:0.5;" width="84" x="329.5" y="802.6406"/><text fill="#000000" font-family="sans-serif" font-size="14" lengthAdjust="spacing" textLength="33" x="355" y="820.3145">State</text><line style="stroke:#181818;stroke-width:0.5;" x1="330.5" x2="412.5" y1="828.2813" y2="828.2813"/><text fill="#000000" font-family="sans-serif" font-size="14" lengthAdjust="spacing" textLength="72" x="335.5" y="844.9551">State name</text></g><!--class Client--><g id="elem_Client"><rect codeLine="36" fill="#F1F1F1" height="33.6406" id="Client" rx="2.5" ry="2.5" style="stroke:#181818;stroke-width:0.5;" width="42" x="232.5" y="43.6406"/><text fill="#000000" font-family="sans-serif" font-size="14" lengthAdjust="spacing" textLength="36" x="235.5" y="61.3145">Client</text><line style="stroke:#181818;stroke-width:0.5;" x1="233.5" x2="273.5" y1="69.2813" y2="69.2813"/></g><!--class Residence--><g id="elem_Residence"><rect codeLine="41" fill="#F1F1F1" height="80.5625" id="Residence" rx="2.5" ry="2.5" style="stroke:#181818;stroke-width:0.5;" width="180" x="441.5" y="637.6406"/><text fill="#000000" font-family="sans-serif" font-size="14" lengthAdjust="spacing" textLength="67" x="498" y="655.3145">Residence</text><line style="stroke:#181818;stroke-width:0.5;" x1="442.5" x2="620.5" y1="663.2813" y2="663.2813"/><text fill="#000000" font-family="sans-serif" font-size="14" lengthAdjust="spacing" textLength="133" x="447.5" y="679.9551">Number of Bedrooms</text><text fill="#000000" font-family="sans-serif" font-size="14" lengthAdjust="spacing" textLength="137" x="447.5" y="695.5957">Number of Bathrooms</text><text fill="#000000" font-family="sans-serif" font-size="14" lengthAdjust="spacing" textLength="168" x="447.5" y="711.2363">Number of Parking Spaces</text></g><!--class Property--><g id="elem_Property"><rect codeLine="47" fill="#F1F1F1" height="80.5625" id="Property" rx="2.5" ry="2.5" style="stroke:#181818;stroke-width:0.5;" width="192" x="326.5" y="480.6406"/><text fill="#000000" font-family="sans-serif" font-size="14" lengthAdjust="spacing" textLength="54" x="395.5" y="498.3145">Property</text><line style="stroke:#181818;stroke-width:0.5;" x1="327.5" x2="517.5" y1="506.2813" y2="506.2813"/><text fill="#000000" font-family="sans-serif" font-size="14" lengthAdjust="spacing" textLength="30" x="332.5" y="522.9551">Area</text><text fill="#000000" font-family="sans-serif" font-size="14" lengthAdjust="spacing" textLength="44" x="332.5" y="538.5957">Photos</text><text fill="#000000" font-family="sans-serif" font-size="14" lengthAdjust="spacing" textLength="180" x="332.5" y="554.2363">Distance from the city center</text></g><!--class TypeOfProperty--><g id="elem_TypeOfProperty"><rect codeLine="53" fill="#F1F1F1" height="49.2813" id="TypeOfProperty" rx="2.5" ry="2.5" style="stroke:#181818;stroke-width:0.5;" width="107" x="369" y="254.6406"/><text fill="#000000" font-family="sans-serif" font-size="14" lengthAdjust="spacing" textLength="101" x="372" y="272.3145">TypeOfProperty</text><line style="stroke:#181818;stroke-width:0.5;" x1="370" x2="475" y1="280.2813" y2="280.2813"/><text fill="#000000" font-family="sans-serif" font-size="14" lengthAdjust="spacing" textLength="32" x="375" y="296.9551">Type</text></g><!--class Photos--><g id="elem_Photos"><rect codeLine="57" fill="#F1F1F1" height="49.2813" id="Photos" rx="2.5" ry="2.5" style="stroke:#181818;stroke-width:0.5;" width="50" x="205.5" y="496.6406"/><text fill="#000000" font-family="sans-serif" font-size="14" lengthAdjust="spacing" textLength="44" x="208.5" y="514.3145">Photos</text><line style="stroke:#181818;stroke-width:0.5;" x1="206.5" x2="254.5" y1="522.2813" y2="522.2813"/><text fill="#000000" font-family="sans-serif" font-size="14" lengthAdjust="spacing" textLength="22" x="211.5" y="538.9551">URI</text></g><!--class House--><g id="elem_House"><rect codeLine="61" fill="#F1F1F1" height="64.9219" id="House" rx="2.5" ry="2.5" style="stroke:#181818;stroke-width:0.5;" width="104" x="622.5" y="794.6406"/><text fill="#000000" font-family="sans-serif" font-size="14" lengthAdjust="spacing" textLength="40" x="654.5" y="812.3145">House</text><line style="stroke:#181818;stroke-width:0.5;" x1="623.5" x2="725.5" y1="820.2813" y2="820.2813"/><text fill="#000000" font-family="sans-serif" font-size="14" lengthAdjust="spacing" textLength="63" x="628.5" y="836.9551">Basement</text><text fill="#000000" font-family="sans-serif" font-size="14" lengthAdjust="spacing" textLength="92" x="628.5" y="852.5957">Inhabitable loft</text></g><!--class SunExposure--><g id="elem_SunExposure"><rect codeLine="66" fill="#F1F1F1" height="49.2813" id="SunExposure" rx="2.5" ry="2.5" style="stroke:#181818;stroke-width:0.5;" width="90" x="629.5" y="935.6406"/><text fill="#000000" font-family="sans-serif" font-size="14" lengthAdjust="spacing" textLength="84" x="632.5" y="953.3145">SunExposure</text><line style="stroke:#181818;stroke-width:0.5;" x1="630.5" x2="718.5" y1="961.2813" y2="961.2813"/><text fill="#000000" font-family="sans-serif" font-size="14" lengthAdjust="spacing" textLength="56" x="635.5" y="977.9551">Direction</text></g><!--class AvailableEquipment--><g id="elem_AvailableEquipment"><rect codeLine="70" fill="#F1F1F1" height="49.2813" id="AvailableEquipment" rx="2.5" ry="2.5" style="stroke:#181818;stroke-width:0.5;" width="130" x="457.5" y="802.6406"/><text fill="#000000" font-family="sans-serif" font-size="14" lengthAdjust="spacing" textLength="124" x="460.5" y="820.3145">AvailableEquipment</text><line style="stroke:#181818;stroke-width:0.5;" x1="458.5" x2="586.5" y1="828.2813" y2="828.2813"/><text fill="#000000" font-family="sans-serif" font-size="14" lengthAdjust="spacing" textLength="67" x="463.5" y="844.9551">Equipment</text></g><!--class Rent--><g id="elem_Rent"><rect codeLine="83" fill="#F1F1F1" height="49.2813" id="Rent" rx="2.5" ry="2.5" style="stroke:#181818;stroke-width:0.5;" width="137" x="116" y="1060.6406"/><text fill="#000000" font-family="sans-serif" font-size="14" lengthAdjust="spacing" textLength="30" x="169.5" y="1078.3145">Rent</text><line style="stroke:#181818;stroke-width:0.5;" x1="117" x2="252" y1="1086.2813" y2="1086.2813"/><text fill="#000000" font-family="sans-serif" font-size="14" lengthAdjust="spacing" textLength="125" x="122" y="1102.9551">Duration of contract</text></g><!--class Business--><g id="elem_Business"><rect codeLine="87" fill="#F1F1F1" height="49.2813" id="Business" rx="2.5" ry="2.5" style="stroke:#181818;stroke-width:0.5;" width="116" x="126.5" y="802.6406"/><text fill="#000000" font-family="sans-serif" font-size="14" lengthAdjust="spacing" textLength="57" x="156" y="820.3145">Business</text><line style="stroke:#181818;stroke-width:0.5;" x1="127.5" x2="241.5" y1="828.2813" y2="828.2813"/><text fill="#000000" font-family="sans-serif" font-size="14" lengthAdjust="spacing" textLength="104" x="132.5" y="844.9551">Requested price</text></g><!--class PublishedAnnouncement--><g id="elem_PublishedAnnouncement"><rect codeLine="91" fill="#F1F1F1" height="49.2813" id="PublishedAnnouncement" rx="2.5" ry="2.5" style="stroke:#181818;stroke-width:0.5;" width="163" x="7" y="496.6406"/><text fill="#000000" font-family="sans-serif" font-size="14" lengthAdjust="spacing" textLength="157" x="10" y="514.3145">PublishedAnnouncement</text><line style="stroke:#181818;stroke-width:0.5;" x1="8" x2="169" y1="522.2813" y2="522.2813"/><text fill="#000000" font-family="sans-serif" font-size="14" lengthAdjust="spacing" textLength="85" x="13" y="538.9551">Contract type</text></g><!--class Message--><g id="elem_Message"><rect codeLine="100" fill="#F1F1F1" height="127.4844" id="Message" rx="2.5" ry="2.5" style="stroke:#181818;stroke-width:0.5;" width="105" x="146" y="215.6406"/><text fill="#000000" font-family="sans-serif" font-size="14" lengthAdjust="spacing" textLength="57" x="170" y="233.3145">Message</text><line style="stroke:#181818;stroke-width:0.5;" x1="147" x2="250" y1="241.2813" y2="241.2813"/><text fill="#000000" font-family="sans-serif" font-size="14" lengthAdjust="spacing" textLength="36" x="152" y="257.9551">Name</text><text fill="#000000" font-family="sans-serif" font-size="14" lengthAdjust="spacing" textLength="93" x="152" y="273.5957">Phone number</text><text fill="#000000" font-family="sans-serif" font-size="14" lengthAdjust="spacing" textLength="30" x="152" y="289.2363">Date</text><text fill="#000000" font-family="sans-serif" font-size="14" lengthAdjust="spacing" textLength="62" x="152" y="304.877">Initial time</text><text fill="#000000" font-family="sans-serif" font-size="14" lengthAdjust="spacing" textLength="55" x="152" y="320.5176">End time</text><text fill="#000000" font-family="sans-serif" font-size="14" lengthAdjust="spacing" textLength="71" x="152" y="336.1582">Description</text></g><!--class Agent--><g id="elem_Agent"><rect codeLine="109" fill="#F1F1F1" height="33.6406" id="Agent" rx="2.5" ry="2.5" style="stroke:#181818;stroke-width:0.5;" width="43" x="45" y="43.6406"/><text fill="#000000" font-family="sans-serif" font-size="14" lengthAdjust="spacing" textLength="37" x="48" y="61.3145">Agent</text><line style="stroke:#181818;stroke-width:0.5;" x1="46" x2="87" y1="69.2813" y2="69.2813"/></g><!--link State to District--><g id="link_State_District"><path codeLine="31" d="M371.5,851.8606 C371.5,875.6006 371.5,911.9106 371.5,935.5906 " fill="none" id="State-District" style="stroke:#181818;stroke-width:1.0;"/><polygon fill="#000000" points="376.5,902.9023,379.4389,893.8573,373.5611,893.8573,376.5,902.9023" style="stroke:#000000;stroke-width:1.0;"/><text fill="#000000" font-family="sans-serif" font-size="13" lengthAdjust="spacing" textLength="21" x="385.5" y="902.4092">has</text><text fill="#000000" font-family="sans-serif" font-size="13" lengthAdjust="spacing" textLength="7" x="363.6031" y="871.7885">1</text><text fill="#000000" font-family="sans-serif" font-size="13" lengthAdjust="spacing" textLength="5" x="365.8281" y="924.9127">*</text></g><!--link District to City--><g id="link_District_City"><path codeLine="32" d="M371.5,984.8606 C371.5,1006.6406 371.5,1038.7406 371.5,1060.5006 " fill="none" id="District-City" style="stroke:#181818;stroke-width:1.0;"/><polygon fill="#000000" points="376.5,1027.9023,379.4389,1018.8573,373.5611,1018.8573,376.5,1027.9023" style="stroke:#000000;stroke-width:1.0;"/><text fill="#000000" font-family="sans-serif" font-size="13" lengthAdjust="spacing" textLength="21" x="385.5" y="1027.4092">has</text><text fill="#000000" font-family="sans-serif" font-size="13" lengthAdjust="spacing" textLength="7" x="363.6031" y="1004.7885">1</text><text fill="#000000" font-family="sans-serif" font-size="13" lengthAdjust="spacing" textLength="5" x="365.8281" y="1049.7985">*</text></g><!--link Address to State--><g id="link_Address_State"><path codeLine="33" d="M371.5,710.6806 C371.5,738.1806 371.5,777.4706 371.5,802.3906 " fill="none" id="Address-State" style="stroke:#181818;stroke-width:1.0;"/><polygon fill="#000000" points="376.5,751.9023,373.5611,760.9474,379.4389,760.9474,376.5,751.9023" style="stroke:#000000;stroke-width:1.0;"/><text fill="#000000" font-family="sans-serif" font-size="13" lengthAdjust="spacing" textLength="21" x="385.5" y="761.4092">has</text><text fill="#000000" font-family="sans-serif" font-size="13" lengthAdjust="spacing" textLength="5" x="366.0078" y="730.2928">*</text><text fill="#000000" font-family="sans-serif" font-size="13" lengthAdjust="spacing" textLength="7" x="363.6031" y="792.0543">1</text></g><!--reverse link Residence to House--><g id="link_Residence_House"><path codeLine="74" d="M584.24,733.3506 C604.15,753.8306 626.17,776.4506 643.46,794.2406 " fill="none" id="Residence-backto-House" style="stroke:#181818;stroke-width:1.0;"/><polygon fill="none" points="579.13,738.1406,570.2,718.9206,589.16,728.3806,579.13,738.1406" style="stroke:#181818;stroke-width:1.0;"/></g><!--reverse link Property to Residence--><g id="link_Property_Residence"><path codeLine="75" d="M461.95,578.2306 C475.74,597.8406 490.92,619.4406 503.57,637.4306 " fill="none" id="Property-backto-Residence" style="stroke:#181818;stroke-width:1.0;"/><polygon fill="none" points="456.07,582.0406,450.29,561.6506,467.52,573.9906,456.07,582.0406" style="stroke:#181818;stroke-width:1.0;"/></g><!--link Photos to Property--><g id="link_Photos_Property"><path codeLine="76" d="M255.6,521.1406 C274,521.1406 300.25,521.1406 326.5,521.1406 " fill="none" id="Photos-Property" style="stroke:#181818;stroke-width:1.0;"/><polygon fill="#000000" points="273,510.4023,282.0451,513.3413,282.0451,507.4634,273,510.4023" style="stroke:#000000;stroke-width:1.0;"/><text fill="#000000" font-family="sans-serif" font-size="13" lengthAdjust="spacing" textLength="21" x="287" y="514.9092">has</text><text fill="#000000" font-family="sans-serif" font-size="13" lengthAdjust="spacing" textLength="29" x="263.3963" y="534.3111">1..30</text><text fill="#000000" font-family="sans-serif" font-size="13" lengthAdjust="spacing" textLength="7" x="311.5711" y="518.3897">1</text></g><!--link House to SunExposure--><g id="link_House_SunExposure"><path codeLine="77" d="M674.5,859.8506 C674.5,883.1706 674.5,914.3706 674.5,935.5206 " fill="none" id="House-SunExposure" style="stroke:#181818;stroke-width:1.0;"/><polygon fill="#000000" points="679.5,902.9023,682.4389,893.8573,676.5611,893.8573,679.5,902.9023" style="stroke:#000000;stroke-width:1.0;"/><text fill="#000000" font-family="sans-serif" font-size="13" lengthAdjust="spacing" textLength="49" x="688.5" y="902.4092">contains</text><text fill="#000000" font-family="sans-serif" font-size="13" lengthAdjust="spacing" textLength="5" x="669.0234" y="879.2462">*</text><text fill="#000000" font-family="sans-serif" font-size="13" lengthAdjust="spacing" textLength="7" x="666.5594" y="924.8238">1</text></g><!--link Property to Address--><g id="link_Property_Address"><path codeLine="78" d="M404.05,561.7606 C399.93,571.4106 395.81,581.8006 392.5,591.6406 C386.61,609.1706 381.6,629.2306 377.95,645.5106 " fill="none" id="Property-Address" style="stroke:#181818;stroke-width:1.0;"/><polygon fill="#000000" points="396.0124,604.6759,401.5094,596.9149,395.8977,595.166,396.0124,604.6759" style="stroke:#000000;stroke-width:1.0;"/><text fill="#000000" font-family="sans-serif" font-size="13" lengthAdjust="spacing" textLength="21" x="406.5" y="604.4092">has</text><text fill="#000000" font-family="sans-serif" font-size="13" lengthAdjust="spacing" textLength="7" x="393.6889" y="580.8946">1</text><text fill="#000000" font-family="sans-serif" font-size="13" lengthAdjust="spacing" textLength="7" x="371.5953" y="634.6759">1</text></g><!--link Residence to AvailableEquipment--><g id="link_Residence_AvailableEquipment"><path codeLine="79" d="M529.06,718.9206 C527.43,745.6206 525.33,779.9006 523.95,802.4206 " fill="none" id="Residence-AvailableEquipment" style="stroke:#181818;stroke-width:1.0;"/><polygon fill="#000000" points="531.1946,761.893,534.6805,753.0443,528.8136,752.6853,531.1946,761.893" style="stroke:#000000;stroke-width:1.0;"/><text fill="#000000" font-family="sans-serif" font-size="13" lengthAdjust="spacing" textLength="49" x="540.5" y="761.4092">contains</text><text fill="#000000" font-family="sans-serif" font-size="13" lengthAdjust="spacing" textLength="7" x="521.1504" y="738.0791">1</text><text fill="#000000" font-family="sans-serif" font-size="13" lengthAdjust="spacing" textLength="5" x="518.6678" y="791.697">*</text></g><!--link TypeOfProperty to Property--><g id="link_TypeOfProperty_Property"><path codeLine="80" d="M422.5,304.0306 C422.5,345.2906 422.5,430.3006 422.5,480.5306 " fill="none" id="TypeOfProperty-Property" style="stroke:#181818;stroke-width:1.0;"/><polygon fill="#000000" points="427.5,416.9023,430.4389,407.8573,424.5611,407.8573,427.5,416.9023" style="stroke:#000000;stroke-width:1.0;"/><text fill="#000000" font-family="sans-serif" font-size="13" lengthAdjust="spacing" textLength="41" x="436.5" y="416.4092">defines</text><text fill="#000000" font-family="sans-serif" font-size="13" lengthAdjust="spacing" textLength="7" x="414.6469" y="323.6019">1</text><text fill="#000000" font-family="sans-serif" font-size="13" lengthAdjust="spacing" textLength="7" x="414.8766" y="469.9042">1</text></g><!--link Property to Business--><g id="link_Property_Business"><path codeLine="96" d="M357.63,561.8206 C328.81,581.8406 296.14,608.1506 272.5,637.6406 C230.82,689.6306 203.51,764.5906 191.51,802.4106 " fill="none" id="Property-Business" style="stroke:#181818;stroke-width:1.0;"/><polygon fill="#000000" points="280.3409,674.2878,272.7832,680.0612,277.6201,683.4009,280.3409,674.2878" style="stroke:#000000;stroke-width:1.0;"/><text fill="#000000" font-family="sans-serif" font-size="13" lengthAdjust="spacing" textLength="32" x="286.5" y="682.9092">has a</text><text fill="#000000" font-family="sans-serif" font-size="13" lengthAdjust="spacing" textLength="7" x="340.1608" y="580.9638">1</text><text fill="#000000" font-family="sans-serif" font-size="13" lengthAdjust="spacing" textLength="7" x="185.4094" y="792.0794">1</text></g><!--link PublishedAnnouncement to Business--><g id="link_PublishedAnnouncement_Business"><path codeLine="97" d="M95.95,545.7406 C113.84,602.3806 159.04,745.5106 176.99,802.3406 " fill="none" id="PublishedAnnouncement-Business" style="stroke:#181818;stroke-width:1.0;"/><polygon fill="#000000" points="152.9942,673.6345,152.9157,683.1447,158.5207,681.3745,152.9942,673.6345" style="stroke:#000000;stroke-width:1.0;"/><text fill="#000000" font-family="sans-serif" font-size="13" lengthAdjust="spacing" textLength="32" x="163.5" y="682.9092">has a</text><text fill="#000000" font-family="sans-serif" font-size="13" lengthAdjust="spacing" textLength="7" x="89.9622" y="565.6377">1</text><text fill="#000000" font-family="sans-serif" font-size="13" lengthAdjust="spacing" textLength="7" x="167.1687" y="791.9915">1</text></g><!--reverse link Business to Rent--><g id="link_Business_Rent"><path codeLine="98" d="M184.5,872.0106 C184.5,926.5806 184.5,1017.7506 184.5,1060.5706 " fill="none" id="Business-backto-Rent" style="stroke:#181818;stroke-width:1.0;"/><polygon fill="none" points="177.5,871.7706,184.5,851.7606,191.5,871.7606,177.5,871.7706" style="stroke:#181818;stroke-width:1.0;"/></g><!--link Message to PublishedAnnouncement--><g id="link_Message_PublishedAnnouncement"><path codeLine="114" d="M169.74,342.8806 C146.7,393.1606 115.63,460.9506 99.4,496.3606 " fill="none" id="Message-PublishedAnnouncement" style="stroke:#181818;stroke-width:1.0;"/><polygon fill="#000000" points="149.5832,407.357,143.143,414.3552,148.4864,416.8041,149.5832,407.357" style="stroke:#000000;stroke-width:1.0;"/><text fill="#000000" font-family="sans-serif" font-size="13" lengthAdjust="spacing" textLength="62" x="156.5" y="416.4092">can have a</text><text fill="#000000" font-family="sans-serif" font-size="13" lengthAdjust="spacing" textLength="5" x="161.1256" y="362.8308">*</text><text fill="#000000" font-family="sans-serif" font-size="13" lengthAdjust="spacing" textLength="7" x="94.2963" y="486.0166">1</text></g><!--link Client to Message--><g id="link_Client_Message"><path codeLine="115" d="M249.37,77.9106 C242.05,106.7306 226.45,168.1306 214.44,215.3906 " fill="none" id="Client-Message" style="stroke:#181818;stroke-width:1.0;"/><polygon fill="#000000" points="238.2688,151.7484,243.3445,143.7055,237.6477,142.2581,238.2688,151.7484" style="stroke:#000000;stroke-width:1.0;"/><text fill="#000000" font-family="sans-serif" font-size="13" lengthAdjust="spacing" textLength="47" x="248.5" y="151.4092">leaves a</text><text fill="#000000" font-family="sans-serif" font-size="13" lengthAdjust="spacing" textLength="7" x="240.1287" y="96.9382">1</text><text fill="#000000" font-family="sans-serif" font-size="13" lengthAdjust="spacing" textLength="20" x="195.1268" y="204.981">1..*</text></g><!--link Agent to Message--><g id="link_Agent_Message"><path codeLine="116" d="M76.42,77.9106 C93.99,106.7306 131.43,168.1306 160.24,215.3906 " fill="none" id="Agent-Message" style="stroke:#181818;stroke-width:1.0;"/><polygon fill="#000000" points="131.1028,151.1715,128.9036,141.9187,123.8849,144.9785,131.1028,151.1715" style="stroke:#000000;stroke-width:1.0;"/><text fill="#000000" font-family="sans-serif" font-size="13" lengthAdjust="spacing" textLength="58" x="137.5" y="151.4092">receives a</text><text fill="#000000" font-family="sans-serif" font-size="13" lengthAdjust="spacing" textLength="7" x="71.3059" y="96.9382">1</text><text fill="#000000" font-family="sans-serif" font-size="13" lengthAdjust="spacing" textLength="7" x="148.4115" y="204.981">1</text></g><!--link Agent to PublishedAnnouncement--><g id="link_Agent_PublishedAnnouncement"><path codeLine="117" d="M52.09,77.7106 C39.26,93.7306 22.5,119.6306 22.5,145.6406 C22.5,145.6406 22.5,145.6406 22.5,412.6406 C22.5,445.2706 44.86,476.3306 63.55,496.6006 " fill="none" id="Agent-PublishedAnnouncement" style="stroke:#181818;stroke-width:1.0;"/><polygon fill="#000000" points="27.6367,284.4005,30.3272,275.2784,24.4515,275.4391,27.6367,284.4005" style="stroke:#000000;stroke-width:1.0;"/><text fill="#000000" font-family="sans-serif" font-size="13" lengthAdjust="spacing" textLength="73" x="36.5" y="283.9092">publishes an</text><text fill="#000000" font-family="sans-serif" font-size="13" lengthAdjust="spacing" textLength="7" x="39.6051" y="96.9858">1</text><text fill="#000000" font-family="sans-serif" font-size="13" lengthAdjust="spacing" textLength="5" x="51.1728" y="485.9253">*</text></g><!--SRC=[VLHDJzmm4BtxLupsWeIqAzgUYb2bXKKg1rh4jfVUlCbiOf7OmHxJKjh_th5ZEs6rD9VOu-StNs_i7fGUf9KzDDRuuKQtQ1L9NI6y5wuSzaQRghMcHo3hSNOooEf1DhYbvmx1OiLtcsuESAsipK-b6zZBpg4ucOuwfP6U1mHZgJNYfCCz0Hcmgca9QXNebD4piggJpgs9hDfvmflAwAtwZN0cMbKZLCfMx3kkUsJAsWb1YZYoxzkpZx24ZUcbqd1hQko4Y6omhckB_7yHmD-MB2B5vGyrm1KZnTyClLBqd71ngMK_Ezqenu5Lb11b-ngr9KbOd8LrFXztYtSBM7B5z18Mful2SWwjTF195DO3N8WdOt96mPuXZ8xy8-P2b9GwXJg47298jdjqNCAWWJ7CBxxVeGMpXqkihJ6zEpHBQe_PxwHz29tViahGJJMuisP0MsgvjYZZugurP5ofNfJXdbK7r8RkyeMAWqKxCNrZ-NpTPxwHBjXclY9dylJz_cOw-MoyoobUIeSzSySDJu7SyHJiM3YTsTEiULvV_ngCynPBbxDA2sZz95KNBby_UZNqOta3jkm3TYhonP_Kf1YGACKfzWATpcBtmxmiGszNgmzdYvHf5i4yr8ZsmwYKwEKSU7Q8Po5eeUYbm7YHNMN17CagwYlZIv2lg5_tPoRQGoSrxlar285FAYo5stWhGus3fWAvbTMiAPVUXQkvn_VuwD4HrZ3meCoLu7UTSYtMQwsDvqXdhRbAh419F0UbJl5cLsDH92TudFJ_Tqh0tE7bCYQQOxnbCp-dQUx2mv3cGlCx4UTgB0XFSfAg8YKx89MWrxgUDXjqbLN3WJmRzlSISnJ9tTZ9t9DZ6N5JfUO4dZ1ca5wDAStLYXaIspbqoC2GAxz5pM4z2ee71zKRkDCtunYIcQ_fg9Rm_GC0]--></g></svg>