<?xml version="1.0" encoding="us-ascii" standalone="no"?><svg xmlns="http://www.w3.org/2000/svg" xmlns:xlink="http://www.w3.org/1999/xlink" contentStyleType="text/css" height="884px" preserveAspectRatio="none" style="width:740px;height:884px;background:#FFFFFF;" version="1.1" viewBox="0 0 740 884" width="740px" zoomAndPan="magnify"><defs/><g><text fill="#000000" font-family="sans-serif" font-size="14" font-weight="bold" lengthAdjust="spacing" textLength="228" x="257.75" y="27.6738">System Sequence Diagram (SSD)</text><rect fill="#FFFFFF" height="667.6172" style="stroke:#181818;stroke-width:1.0;" width="10" x="46.5" y="127.2813"/><rect fill="#FFFFFF" height="28.5234" style="stroke:#181818;stroke-width:1.0;" width="10" x="677.5" y="147.8047"/><rect fill="#FFFFFF" height="175.6641" style="stroke:#181818;stroke-width:1.0;" width="10" x="677.5" y="204.8516"/><rect fill="#FFFFFF" height="35.5234" style="stroke:#181818;stroke-width:1.0;" width="10" x="677.5" y="432.5625"/><rect fill="#FFFFFF" height="78.3359" style="stroke:#181818;stroke-width:1.0;" width="10" x="677.5" y="520.1328"/><rect fill="#FFFFFF" height="78.3359" style="stroke:#181818;stroke-width:1.0;" width="10" x="677.5" y="650.5156"/><rect fill="#FFFFFF" height="28.5234" style="stroke:#181818;stroke-width:1.0;" width="10" x="677.5" y="757.375"/><rect fill="none" height="133.1406" style="stroke:#000000;stroke-width:1.5;" width="724.5" x="10" y="219.8516"/><rect fill="none" height="59.5703" style="stroke:#000000;stroke-width:1.5;" width="704.5" x="20" y="286.4219"/><rect fill="none" height="45.0469" style="stroke:#000000;stroke-width:1.5;" width="704.5" x="20" y="395.5156"/><rect fill="none" height="87.8594" style="stroke:#000000;stroke-width:1.5;" width="704.5" x="20" y="483.0859"/><rect fill="none" height="87.8594" style="stroke:#000000;stroke-width:1.5;" width="704.5" x="20" y="613.4688"/><line style="stroke:#181818;stroke-width:0.5;stroke-dasharray:5.0,5.0;" x1="51" x2="51" y1="117.2813" y2="803.8984"/><line style="stroke:#181818;stroke-width:0.5;stroke-dasharray:5.0,5.0;" x1="682.5" x2="682.5" y1="117.2813" y2="803.8984"/><text fill="#000000" font-family="sans-serif" font-size="14" lengthAdjust="spacing" textLength="37" x="30" y="114.3145">Agent</text><ellipse cx="51.5" cy="50.1406" fill="#E3E3E3" rx="8" ry="8" style="stroke:#181818;stroke-width:0.5;"/><path d="M51.5,58.1406 L51.5,85.1406 M38.5,66.1406 L64.5,66.1406 M51.5,85.1406 L38.5,100.1406 M51.5,85.1406 L64.5,100.1406 " fill="none" style="stroke:#181818;stroke-width:0.5;"/><text fill="#000000" font-family="sans-serif" font-size="14" lengthAdjust="spacing" textLength="37" x="30" y="815.5723">Agent</text><ellipse cx="51.5" cy="827.0391" fill="#E3E3E3" rx="8" ry="8" style="stroke:#181818;stroke-width:0.5;"/><path d="M51.5,835.0391 L51.5,862.0391 M38.5,843.0391 L64.5,843.0391 M51.5,862.0391 L38.5,877.0391 M51.5,862.0391 L64.5,877.0391 " fill="none" style="stroke:#181818;stroke-width:0.5;"/><rect fill="#E3E3E3" height="29.6406" rx="2.5" ry="2.5" style="stroke:#181818;stroke-width:0.5;" width="64" x="650.5" y="86.6406"/><text fill="#000000" font-family="sans-serif" font-size="14" lengthAdjust="spacing" textLength="50" x="657.5" y="106.3145">:System</text><rect fill="#E3E3E3" height="29.6406" rx="2.5" ry="2.5" style="stroke:#181818;stroke-width:0.5;" width="64" x="650.5" y="802.8984"/><text fill="#000000" font-family="sans-serif" font-size="14" lengthAdjust="spacing" textLength="50" x="657.5" y="822.5723">:System</text><rect fill="#FFFFFF" height="667.6172" style="stroke:#181818;stroke-width:1.0;" width="10" x="46.5" y="127.2813"/><rect fill="#FFFFFF" height="28.5234" style="stroke:#181818;stroke-width:1.0;" width="10" x="677.5" y="147.8047"/><rect fill="#FFFFFF" height="175.6641" style="stroke:#181818;stroke-width:1.0;" width="10" x="677.5" y="204.8516"/><rect fill="#FFFFFF" height="35.5234" style="stroke:#181818;stroke-width:1.0;" width="10" x="677.5" y="432.5625"/><rect fill="#FFFFFF" height="78.3359" style="stroke:#181818;stroke-width:1.0;" width="10" x="677.5" y="520.1328"/><rect fill="#FFFFFF" height="78.3359" style="stroke:#181818;stroke-width:1.0;" width="10" x="677.5" y="650.5156"/><rect fill="#FFFFFF" height="28.5234" style="stroke:#181818;stroke-width:1.0;" width="10" x="677.5" y="757.375"/><polygon fill="#181818" points="665.5,143.8047,675.5,147.8047,665.5,151.8047,669.5,147.8047" style="stroke:#181818;stroke-width:1.0;"/><line style="stroke:#181818;stroke-width:1.0;" x1="56.5" x2="671.5" y1="147.8047" y2="147.8047"/><text fill="#000000" font-family="sans-serif" font-size="13" font-weight="bold" lengthAdjust="spacing" textLength="7" x="63.5" y="143.0498">1</text><text fill="#000000" font-family="sans-serif" font-size="13" lengthAdjust="spacing" textLength="243" x="74.5" y="143.0498">asks to create an annoucement to publish</text><polygon fill="#181818" points="67.5,172.3281,57.5,176.3281,67.5,180.3281,63.5,176.3281" style="stroke:#181818;stroke-width:1.0;"/><line style="stroke:#181818;stroke-width:1.0;stroke-dasharray:2.0,2.0;" x1="61.5" x2="681.5" y1="176.3281" y2="176.3281"/><text fill="#000000" font-family="sans-serif" font-size="13" font-weight="bold" lengthAdjust="spacing" textLength="7" x="73.5" y="171.5732">2</text><text fill="#000000" font-family="sans-serif" font-size="13" lengthAdjust="spacing" textLength="79" x="84.5" y="171.5732">requests data</text><polygon fill="#181818" points="665.5,200.8516,675.5,204.8516,665.5,208.8516,669.5,204.8516" style="stroke:#181818;stroke-width:1.0;"/><line style="stroke:#181818;stroke-width:1.0;" x1="56.5" x2="671.5" y1="204.8516" y2="204.8516"/><text fill="#000000" font-family="sans-serif" font-size="13" font-weight="bold" lengthAdjust="spacing" textLength="7" x="63.5" y="200.0967">3</text><text fill="#000000" font-family="sans-serif" font-size="13" lengthAdjust="spacing" textLength="591" x="74.5" y="200.0967">types requested data [area in m^2, location, photos, distance from city center and the requested price]</text><path d="M10,219.8516 L75,219.8516 L75,226.375 L65,236.375 L10,236.375 L10,219.8516 " fill="#EEEEEE" style="stroke:#000000;stroke-width:1.5;"/><rect fill="none" height="133.1406" style="stroke:#000000;stroke-width:1.5;" width="724.5" x="10" y="219.8516"/><text fill="#000000" font-family="sans-serif" font-size="13" font-weight="bold" lengthAdjust="spacing" textLength="20" x="25" y="232.6201">opt</text><text fill="#000000" font-family="sans-serif" font-size="11" font-weight="bold" lengthAdjust="spacing" textLength="106" x="90" y="231.8096">[house, apartment]</text><polygon fill="#181818" points="665.5,267.4219,675.5,271.4219,665.5,275.4219,669.5,271.4219" style="stroke:#181818;stroke-width:1.0;"/><line style="stroke:#181818;stroke-width:1.0;" x1="56.5" x2="671.5" y1="271.4219" y2="271.4219"/><text fill="#000000" font-family="sans-serif" font-size="13" font-weight="bold" lengthAdjust="spacing" textLength="7" x="63.5" y="259.4053">4</text><text fill="#000000" font-family="sans-serif" font-size="13" lengthAdjust="spacing" textLength="539" x="74.5" y="252.1436">types requested data [number of bedrooms, number of bathrooms, number of parking spaces,</text><text fill="#000000" font-family="sans-serif" font-size="13" lengthAdjust="spacing" textLength="341" x="74.5" y="266.667">available equipment (central heating and/or airconditioning)]</text><path d="M20,286.4219 L85,286.4219 L85,292.9453 L75,302.9453 L20,302.9453 L20,286.4219 " fill="#EEEEEE" style="stroke:#000000;stroke-width:1.5;"/><rect fill="none" height="59.5703" style="stroke:#000000;stroke-width:1.5;" width="704.5" x="20" y="286.4219"/><text fill="#000000" font-family="sans-serif" font-size="13" font-weight="bold" lengthAdjust="spacing" textLength="20" x="35" y="299.1904">opt</text><text fill="#000000" font-family="sans-serif" font-size="11" font-weight="bold" lengthAdjust="spacing" textLength="43" x="100" y="298.3799">[house]</text><polygon fill="#181818" points="665.5,333.9922,675.5,337.9922,665.5,341.9922,669.5,337.9922" style="stroke:#181818;stroke-width:1.0;"/><line style="stroke:#181818;stroke-width:1.0;" x1="56.5" x2="671.5" y1="337.9922" y2="337.9922"/><text fill="#000000" font-family="sans-serif" font-size="13" font-weight="bold" lengthAdjust="spacing" textLength="7" x="63.5" y="325.9756">5</text><text fill="#000000" font-family="sans-serif" font-size="13" lengthAdjust="spacing" textLength="507" x="74.5" y="318.7139">types requested data [the existence of a basement and/or inhabitable loft, sun exposure</text><text fill="#000000" font-family="sans-serif" font-size="13" lengthAdjust="spacing" textLength="159" x="74.5" y="333.2373">(North, South, East, West)]</text><polygon fill="#181818" points="67.5,376.5156,57.5,380.5156,67.5,384.5156,63.5,380.5156" style="stroke:#181818;stroke-width:1.0;"/><line style="stroke:#181818;stroke-width:1.0;stroke-dasharray:2.0,2.0;" x1="61.5" x2="681.5" y1="380.5156" y2="380.5156"/><text fill="#000000" font-family="sans-serif" font-size="13" font-weight="bold" lengthAdjust="spacing" textLength="7" x="73.5" y="375.7607">6</text><text fill="#000000" font-family="sans-serif" font-size="13" lengthAdjust="spacing" textLength="284" x="84.5" y="375.7607">saves all data and asks for photos of the property</text><path d="M20,395.5156 L93,395.5156 L93,402.0391 L83,412.0391 L20,412.0391 L20,395.5156 " fill="#EEEEEE" style="stroke:#000000;stroke-width:1.5;"/><rect fill="none" height="45.0469" style="stroke:#000000;stroke-width:1.5;" width="704.5" x="20" y="395.5156"/><text fill="#000000" font-family="sans-serif" font-size="13" font-weight="bold" lengthAdjust="spacing" textLength="28" x="35" y="408.2842">loop</text><text fill="#000000" font-family="sans-serif" font-size="11" font-weight="bold" lengthAdjust="spacing" textLength="227" x="108" y="407.4736">[Sends photos (from 1 up to 30 pictures)]</text><polygon fill="#181818" points="665.5,428.5625,675.5,432.5625,665.5,436.5625,669.5,432.5625" style="stroke:#181818;stroke-width:1.0;"/><line style="stroke:#181818;stroke-width:1.0;" x1="56.5" x2="671.5" y1="432.5625" y2="432.5625"/><text fill="#000000" font-family="sans-serif" font-size="13" font-weight="bold" lengthAdjust="spacing" textLength="7" x="63.5" y="427.8076">7</text><text fill="#000000" font-family="sans-serif" font-size="13" lengthAdjust="spacing" textLength="165" x="74.5" y="427.8076">sends photos of the property</text><polygon fill="#181818" points="67.5,464.0859,57.5,468.0859,67.5,472.0859,63.5,468.0859" style="stroke:#181818;stroke-width:1.0;"/><line style="stroke:#181818;stroke-width:1.0;stroke-dasharray:2.0,2.0;" x1="61.5" x2="681.5" y1="468.0859" y2="468.0859"/><text fill="#000000" font-family="sans-serif" font-size="13" font-weight="bold" lengthAdjust="spacing" textLength="7" x="73.5" y="463.3311">8</text><text fill="#000000" font-family="sans-serif" font-size="13" lengthAdjust="spacing" textLength="401" x="84.5" y="463.3311">saves the photos and asks for the type of business and neeeded data</text><path d="M20,483.0859 L81,483.0859 L81,489.6094 L71,499.6094 L20,499.6094 L20,483.0859 " fill="#EEEEEE" style="stroke:#000000;stroke-width:1.5;"/><rect fill="none" height="87.8594" style="stroke:#000000;stroke-width:1.5;" width="704.5" x="20" y="483.0859"/><text fill="#000000" font-family="sans-serif" font-size="13" font-weight="bold" lengthAdjust="spacing" textLength="16" x="35" y="495.8545">alt</text><text fill="#000000" font-family="sans-serif" font-size="11" font-weight="bold" lengthAdjust="spacing" textLength="31" x="96" y="495.0439">[sale]</text><polygon fill="#181818" points="665.5,516.1328,675.5,520.1328,665.5,524.1328,669.5,520.1328" style="stroke:#181818;stroke-width:1.0;"/><line style="stroke:#181818;stroke-width:1.0;" x1="56.5" x2="671.5" y1="520.1328" y2="520.1328"/><text fill="#000000" font-family="sans-serif" font-size="13" font-weight="bold" lengthAdjust="spacing" textLength="7" x="63.5" y="515.3779">7</text><text fill="#000000" font-family="sans-serif" font-size="13" lengthAdjust="spacing" textLength="250" x="74.5" y="515.3779">types the requested data [Requested price]</text><line style="stroke:#000000;stroke-width:1.0;stroke-dasharray:2.0,2.0;" x1="20" x2="724.5" y1="529.1328" y2="529.1328"/><text fill="#000000" font-family="sans-serif" font-size="11" font-weight="bold" lengthAdjust="spacing" textLength="38" x="25" y="539.0908">[lease]</text><polygon fill="#181818" points="665.5,558.9453,675.5,562.9453,665.5,566.9453,669.5,562.9453" style="stroke:#181818;stroke-width:1.0;"/><line style="stroke:#181818;stroke-width:1.0;" x1="56.5" x2="671.5" y1="562.9453" y2="562.9453"/><text fill="#000000" font-family="sans-serif" font-size="13" font-weight="bold" lengthAdjust="spacing" textLength="7" x="63.5" y="558.1904">8</text><text fill="#000000" font-family="sans-serif" font-size="13" lengthAdjust="spacing" textLength="365" x="74.5" y="558.1904">types the requested data [Requested fee and contract duration]</text><polygon fill="#181818" points="67.5,594.4688,57.5,598.4688,67.5,602.4688,63.5,598.4688" style="stroke:#181818;stroke-width:1.0;"/><line style="stroke:#181818;stroke-width:1.0;stroke-dasharray:2.0,2.0;" x1="61.5" x2="681.5" y1="598.4688" y2="598.4688"/><text fill="#000000" font-family="sans-serif" font-size="13" font-weight="bold" lengthAdjust="spacing" textLength="7" x="73.5" y="593.7139">9</text><text fill="#000000" font-family="sans-serif" font-size="13" lengthAdjust="spacing" textLength="365" x="84.5" y="593.7139">save all data and requests the comission type and needed data</text><path d="M20,613.4688 L81,613.4688 L81,619.9922 L71,629.9922 L20,629.9922 L20,613.4688 " fill="#EEEEEE" style="stroke:#000000;stroke-width:1.5;"/><rect fill="none" height="87.8594" style="stroke:#000000;stroke-width:1.5;" width="704.5" x="20" y="613.4688"/><text fill="#000000" font-family="sans-serif" font-size="13" font-weight="bold" lengthAdjust="spacing" textLength="16" x="35" y="626.2373">alt</text><text fill="#000000" font-family="sans-serif" font-size="11" font-weight="bold" lengthAdjust="spacing" textLength="71" x="96" y="625.4268">[percentage]</text><polygon fill="#181818" points="665.5,646.5156,675.5,650.5156,665.5,654.5156,669.5,650.5156" style="stroke:#181818;stroke-width:1.0;"/><line style="stroke:#181818;stroke-width:1.0;" x1="56.5" x2="671.5" y1="650.5156" y2="650.5156"/><text fill="#000000" font-family="sans-serif" font-size="13" font-weight="bold" lengthAdjust="spacing" textLength="14" x="63.5" y="645.7607">10</text><text fill="#000000" font-family="sans-serif" font-size="13" lengthAdjust="spacing" textLength="192" x="81.5" y="645.7607">inserts the percentage comission</text><line style="stroke:#000000;stroke-width:1.0;stroke-dasharray:2.0,2.0;" x1="20" x2="724.5" y1="659.5156" y2="659.5156"/><text fill="#000000" font-family="sans-serif" font-size="11" font-weight="bold" lengthAdjust="spacing" textLength="37" x="25" y="669.4736">[value]</text><polygon fill="#181818" points="665.5,689.3281,675.5,693.3281,665.5,697.3281,669.5,693.3281" style="stroke:#181818;stroke-width:1.0;"/><line style="stroke:#181818;stroke-width:1.0;" x1="56.5" x2="671.5" y1="693.3281" y2="693.3281"/><text fill="#000000" font-family="sans-serif" font-size="13" font-weight="bold" lengthAdjust="spacing" textLength="14" x="63.5" y="688.5732">11</text><text fill="#000000" font-family="sans-serif" font-size="13" lengthAdjust="spacing" textLength="157" x="81.5" y="688.5732">inserts the comission value</text><polygon fill="#181818" points="67.5,724.8516,57.5,728.8516,67.5,732.8516,63.5,728.8516" style="stroke:#181818;stroke-width:1.0;"/><line style="stroke:#181818;stroke-width:1.0;stroke-dasharray:2.0,2.0;" x1="61.5" x2="681.5" y1="728.8516" y2="728.8516"/><text fill="#000000" font-family="sans-serif" font-size="13" font-weight="bold" lengthAdjust="spacing" textLength="14" x="73.5" y="724.0967">12</text><text fill="#000000" font-family="sans-serif" font-size="13" lengthAdjust="spacing" textLength="159" x="91.5" y="724.0967">publishes the annoucement</text><polygon fill="#181818" points="665.5,753.375,675.5,757.375,665.5,761.375,669.5,757.375" style="stroke:#181818;stroke-width:1.0;"/><line style="stroke:#181818;stroke-width:1.0;" x1="56.5" x2="671.5" y1="757.375" y2="757.375"/><text fill="#000000" font-family="sans-serif" font-size="13" font-weight="bold" lengthAdjust="spacing" textLength="14" x="63.5" y="752.6201">13</text><text fill="#000000" font-family="sans-serif" font-size="13" lengthAdjust="spacing" textLength="75" x="81.5" y="752.6201">submits data</text><polygon fill="#181818" points="67.5,781.8984,57.5,785.8984,67.5,789.8984,63.5,785.8984" style="stroke:#181818;stroke-width:1.0;"/><line style="stroke:#181818;stroke-width:1.0;stroke-dasharray:2.0,2.0;" x1="61.5" x2="681.5" y1="785.8984" y2="785.8984"/><text fill="#000000" font-family="sans-serif" font-size="13" font-weight="bold" lengthAdjust="spacing" textLength="14" x="73.5" y="781.1436">14</text><text fill="#000000" font-family="sans-serif" font-size="13" lengthAdjust="spacing" textLength="158" x="91.5" y="781.1436">displays operation success</text><!--SRC=[xLZTRnit37_NNq7afJRWVBb9Y_bXMDja0x9a2-f-FAmT8Ejedv0xIPCeR_xlH-dEvtEJE6cVVJ1m1uaY-ID_f0Y_A8bSc1mVkqeQYdLrf6nz7F2VY4RXOQ7bmijQX3jjdEGlgAsnglIsHY0ViRVZfBgJ2vpIgaBmg4YQHTKN2AKixB_QB60kgu12a2OMdQu2OGtJrYPSD3PXC9rU38K06ScQMC_G2wd8UZXuiq131o03v2_1waahxHW174mQVNcx-HJfd5vAmbPU03_v4mv_NjkVy86x06H1UKooql3FsAYmJfAyuUAiqg7CnzFJgLtRIOkjkaFMt9YOS30OMg00XIJPdIxmmVFt_QALmx1MWaNM0dz9zXAqWVhlyGWggoHfQqRWIaisZA3GWHF0uPnpha1fMe5YnUWPL05KOa-XyrhXrzsmh2CeRGmu0fdYdMAoET6b2CwwnUS2QG_QESomyDRMx7rlJL9vRv4Tk4iy2imvv9qlHYwbhkICwSJQjSiP6oJ0NbPGSZwJE2C_Plv8xPKrXKu1u-NXLz7vtA7iLhw1TxwryLo8ATpu7sSa4vm1ICOL6bwrJcbJofcc3A6oSnf1Y8OFEHkYHqOu-CDwAaSmjJ6zBcLWcSziPRZ979f2hD_RPEonCSWbkoYhgd4kqI4pVyvUDEn97YQNdRSEFQsUecnbhUFwDKLOAnXarfr2TAbkNfw0queOHnYA7Vm8VHMF-V0GG_luqxCRUbRR6Da2dzPJ_ZBjOj06GoDX4B5ea_bKB6H5R8RxtaF5yLeyMHtRbTdGv_rZbVfejUPWS8-52cNe-VBZbkU8EHPSELnJYg28FhUSjdhkKsuxxDk4wpfYCietZWw1LJNHRoF-FG5dXgHQvzldiHwgJM0MjRdlf3UcTpU_7Cgbh2BkIc3VnWPJxzYk6BLtIvk7tiNp_VT5YBDQVtlRFFUkudk3Hu4Lrn-7AIUOzIdkic6d8xymDfuUn7vIs4yA-qbXFodi9uNzfB2V5FQJmev9uJRzu_3nvXgMw3F-qwFnoVZbqNWmvNxsAyvW_0fEVfgCpoTdh-7pvGT8sqCn-Ets6eADd9fyTtazYydwK5nnRuVtqP2kSG9_EZHN5x-l5-3IBBMt9aVgwjFDHk3LsU5RJToMF7i2dsx41SvbPB9S6cKBxliJUETEn-TZSSs3IcGsS198lBEisAycSFlXVm00]--></g></svg>