<?xml version="1.0" encoding="UTF-8" standalone="no"?><svg xmlns="http://www.w3.org/2000/svg" xmlns:xlink="http://www.w3.org/1999/xlink" contentStyleType="text/css" height="724px" preserveAspectRatio="none" style="width:913px;height:724px;background:#FFFFFF;" version="1.1" viewBox="0 0 913 724" width="913px" zoomAndPan="magnify"><defs/><g><rect fill="none" height="27.6094" id="_title" style="stroke:none;stroke-width:1.0;" width="157" x="371.25" y="5"/><text fill="#000000" font-family="sans-serif" font-size="14" font-weight="bold" lengthAdjust="spacing" textLength="147" x="376.25" y="24.5332">US13 - Class Diagram</text><!--MD5=[35ae6afabc28cfceb76ccc01ee55d1fe]
class Repositories--><g id="elem_Repositories"><rect codeLine="12" fill="#F1F1F1" height="118.4375" id="Repositories" rx="2.5" ry="2.5" style="stroke:#181818;stroke-width:0.5;" width="192" x="294" y="438.6094"/><ellipse cx="346.25" cy="454.6094" fill="#ADD1B2" rx="11" ry="11" style="stroke:#181818;stroke-width:1.0;"/><path d="M349.0156,450.4844 Q349.1719,450.2656 349.3594,450.1563 Q349.5469,450.0469 349.7656,450.0469 Q350.1406,450.0469 350.375,450.3125 Q350.6094,450.5625 350.6094,451.1719 L350.6094,452.625 Q350.6094,453.2344 350.375,453.5 Q350.1406,453.7656 349.7656,453.7656 Q349.4219,453.7656 349.2188,453.5625 Q349.0156,453.375 348.9063,452.8594 Q348.8594,452.5 348.6719,452.3125 Q348.3438,451.9375 347.7344,451.7188 Q347.125,451.5 346.5,451.5 Q345.7344,451.5 345.0938,451.8281 Q344.4688,452.1563 343.9688,452.9063 Q343.4844,453.6563 343.4844,454.6875 L343.4844,455.7813 Q343.4844,457.0156 344.375,457.8438 Q345.2656,458.6563 346.8594,458.6563 Q347.7969,458.6563 348.4531,458.4063 Q348.8438,458.25 349.2656,457.8125 Q349.5313,457.5469 349.6719,457.4688 Q349.8281,457.3906 350.0313,457.3906 Q350.3594,457.3906 350.6094,457.6563 Q350.875,457.9063 350.875,458.25 Q350.875,458.5938 350.5313,459 Q350.0313,459.5781 349.2344,459.9063 Q348.1563,460.3594 346.8594,460.3594 Q345.3438,460.3594 344.1406,459.7344 Q343.1563,459.2344 342.4688,458.1719 Q341.7813,457.0938 341.7813,455.8125 L341.7813,454.6563 Q341.7813,453.3281 342.3906,452.1875 Q343.0156,451.0313 344.1094,450.4219 Q345.2031,449.7969 346.4375,449.7969 Q347.1719,449.7969 347.8125,449.9688 Q348.4688,450.125 349.0156,450.4844 Z " fill="#000000"/><text fill="#000000" font-family="sans-serif" font-size="14" lengthAdjust="spacing" textLength="79" x="366.75" y="460.3379">Repositories</text><line style="stroke:#181818;stroke-width:0.5;" x1="295" x2="485" y1="470.6094" y2="470.6094"/><line style="stroke:#181818;stroke-width:0.5;" x1="295" x2="485" y1="478.6094" y2="478.6094"/><rect fill="#F24D5C" height="6" style="stroke:#C82930;stroke-width:1.0;" width="6" x="302" y="489.9141"/><text fill="#000000" font-family="sans-serif" font-size="14" lengthAdjust="spacing" textLength="89" x="314" y="497.1426">Repositories()</text><ellipse cx="305" cy="510.5234" fill="#84BE84" rx="3" ry="3" style="stroke:#038048;stroke-width:1.0;"/><text fill="#000000" font-family="sans-serif" font-size="14" lengthAdjust="spacing" textLength="166" x="314" y="514.752">getInstance():Repositories</text><ellipse cx="305" cy="528.1328" fill="#84BE84" rx="3" ry="3" style="stroke:#038048;stroke-width:1.0;"/><text fill="#000000" font-family="sans-serif" font-size="14" lengthAdjust="spacing" textLength="132" x="314" y="532.3613">getStoreRepository()</text><ellipse cx="305" cy="545.7422" fill="#84BE84" rx="3" ry="3" style="stroke:#038048;stroke-width:1.0;"/><text fill="#000000" font-family="sans-serif" font-size="14" lengthAdjust="spacing" textLength="160" x="314" y="549.9707">getEmployeeRepository()</text></g><!--MD5=[b4d3d50c0abf08df45181fececb9f04d]
class Store--><g id="elem_Store"><rect codeLine="19" fill="#F1F1F1" height="83.2188" id="Store" rx="2.5" ry="2.5" style="stroke:#181818;stroke-width:0.5;" width="140" x="119" y="456.1094"/><ellipse cx="167.75" cy="472.1094" fill="#ADD1B2" rx="11" ry="11" style="stroke:#181818;stroke-width:1.0;"/><path d="M170.5156,467.9844 Q170.6719,467.7656 170.8594,467.6563 Q171.0469,467.5469 171.2656,467.5469 Q171.6406,467.5469 171.875,467.8125 Q172.1094,468.0625 172.1094,468.6719 L172.1094,470.125 Q172.1094,470.7344 171.875,471 Q171.6406,471.2656 171.2656,471.2656 Q170.9219,471.2656 170.7188,471.0625 Q170.5156,470.875 170.4063,470.3594 Q170.3594,470 170.1719,469.8125 Q169.8438,469.4375 169.2344,469.2188 Q168.625,469 168,469 Q167.2344,469 166.5938,469.3281 Q165.9688,469.6563 165.4688,470.4063 Q164.9844,471.1563 164.9844,472.1875 L164.9844,473.2813 Q164.9844,474.5156 165.875,475.3438 Q166.7656,476.1563 168.3594,476.1563 Q169.2969,476.1563 169.9531,475.9063 Q170.3438,475.75 170.7656,475.3125 Q171.0313,475.0469 171.1719,474.9688 Q171.3281,474.8906 171.5313,474.8906 Q171.8594,474.8906 172.1094,475.1563 Q172.375,475.4063 172.375,475.75 Q172.375,476.0938 172.0313,476.5 Q171.5313,477.0781 170.7344,477.4063 Q169.6563,477.8594 168.3594,477.8594 Q166.8438,477.8594 165.6406,477.2344 Q164.6563,476.7344 163.9688,475.6719 Q163.2813,474.5938 163.2813,473.3125 L163.2813,472.1563 Q163.2813,470.8281 163.8906,469.6875 Q164.5156,468.5313 165.6094,467.9219 Q166.7031,467.2969 167.9375,467.2969 Q168.6719,467.2969 169.3125,467.4688 Q169.9688,467.625 170.5156,467.9844 Z " fill="#000000"/><text fill="#000000" font-family="sans-serif" font-size="14" lengthAdjust="spacing" textLength="34" x="188.25" y="477.8379">Store</text><line style="stroke:#181818;stroke-width:0.5;" x1="120" x2="258" y1="488.1094" y2="488.1094"/><rect fill="none" height="6" style="stroke:#C82930;stroke-width:1.0;" width="6" x="127" y="499.4141"/><text fill="#000000" font-family="sans-serif" font-size="14" lengthAdjust="spacing" textLength="30" x="139" y="506.6426">int id</text><rect fill="none" height="6" style="stroke:#C82930;stroke-width:1.0;" width="6" x="127" y="517.0234"/><text fill="#000000" font-family="sans-serif" font-size="14" lengthAdjust="spacing" textLength="114" x="139" y="524.252">String designation</text><line style="stroke:#181818;stroke-width:0.5;" x1="120" x2="258" y1="531.3281" y2="531.3281"/></g><!--MD5=[bccd67ed9047a16ea7d65766c2e06f0c]
class DisplayStoreController--><g id="elem_DisplayStoreController"><rect codeLine="24" fill="#F1F1F1" height="118.4375" id="DisplayStoreController" rx="2.5" ry="2.5" style="stroke:#181818;stroke-width:0.5;" width="186" x="297" y="242.6094"/><ellipse cx="317.4" cy="258.6094" fill="#ADD1B2" rx="11" ry="11" style="stroke:#181818;stroke-width:1.0;"/><path d="M320.1656,254.4844 Q320.3219,254.2656 320.5094,254.1563 Q320.6969,254.0469 320.9156,254.0469 Q321.2906,254.0469 321.525,254.3125 Q321.7594,254.5625 321.7594,255.1719 L321.7594,256.625 Q321.7594,257.2344 321.525,257.5 Q321.2906,257.7656 320.9156,257.7656 Q320.5719,257.7656 320.3688,257.5625 Q320.1656,257.375 320.0563,256.8594 Q320.0094,256.5 319.8219,256.3125 Q319.4938,255.9375 318.8844,255.7188 Q318.275,255.5 317.65,255.5 Q316.8844,255.5 316.2438,255.8281 Q315.6188,256.1563 315.1188,256.9063 Q314.6344,257.6563 314.6344,258.6875 L314.6344,259.7813 Q314.6344,261.0156 315.525,261.8438 Q316.4156,262.6563 318.0094,262.6563 Q318.9469,262.6563 319.6031,262.4063 Q319.9938,262.25 320.4156,261.8125 Q320.6813,261.5469 320.8219,261.4688 Q320.9781,261.3906 321.1813,261.3906 Q321.5094,261.3906 321.7594,261.6563 Q322.025,261.9063 322.025,262.25 Q322.025,262.5938 321.6813,263 Q321.1813,263.5781 320.3844,263.9063 Q319.3063,264.3594 318.0094,264.3594 Q316.4938,264.3594 315.2906,263.7344 Q314.3063,263.2344 313.6188,262.1719 Q312.9313,261.0938 312.9313,259.8125 L312.9313,258.6563 Q312.9313,257.3281 313.5406,256.1875 Q314.1656,255.0313 315.2594,254.4219 Q316.3531,253.7969 317.5875,253.7969 Q318.3219,253.7969 318.9625,253.9688 Q319.6188,254.125 320.1656,254.4844 Z " fill="#000000"/><text fill="#000000" font-family="sans-serif" font-size="14" lengthAdjust="spacing" textLength="142" x="332.6" y="264.3379">DisplayStoreController</text><line style="stroke:#181818;stroke-width:0.5;" x1="298" x2="482" y1="274.6094" y2="274.6094"/><line style="stroke:#181818;stroke-width:0.5;" x1="298" x2="482" y1="282.6094" y2="282.6094"/><ellipse cx="308" cy="296.9141" fill="#84BE84" rx="3" ry="3" style="stroke:#038048;stroke-width:1.0;"/><text fill="#000000" font-family="sans-serif" font-size="14" lengthAdjust="spacing" textLength="132" x="317" y="301.1426">getStoreRepository()</text><ellipse cx="308" cy="314.5234" fill="#84BE84" rx="3" ry="3" style="stroke:#038048;stroke-width:1.0;"/><text fill="#000000" font-family="sans-serif" font-size="14" lengthAdjust="spacing" textLength="93" x="317" y="318.752">getStoresList()</text><ellipse cx="308" cy="332.1328" fill="#84BE84" rx="3" ry="3" style="stroke:#038048;stroke-width:1.0;"/><text fill="#000000" font-family="sans-serif" font-size="14" lengthAdjust="spacing" textLength="160" x="317" y="336.3613">getEmployeeRepository()</text><ellipse cx="308" cy="349.7422" fill="#84BE84" rx="3" ry="3" style="stroke:#038048;stroke-width:1.0;"/><text fill="#000000" font-family="sans-serif" font-size="14" lengthAdjust="spacing" textLength="121" x="317" y="353.9707">getEmployeesList()</text></g><!--MD5=[167ae95e1b2e11f1d45a5604a466e373]
class StoreRepository--><g id="elem_StoreRepository"><rect codeLine="31" fill="#F1F1F1" height="83.2188" id="StoreRepository" rx="2.5" ry="2.5" style="stroke:#181818;stroke-width:0.5;" width="179" x="121.5" y="634.6094"/><ellipse cx="156.75" cy="650.6094" fill="#ADD1B2" rx="11" ry="11" style="stroke:#181818;stroke-width:1.0;"/><path d="M159.5156,646.4844 Q159.6719,646.2656 159.8594,646.1563 Q160.0469,646.0469 160.2656,646.0469 Q160.6406,646.0469 160.875,646.3125 Q161.1094,646.5625 161.1094,647.1719 L161.1094,648.625 Q161.1094,649.2344 160.875,649.5 Q160.6406,649.7656 160.2656,649.7656 Q159.9219,649.7656 159.7188,649.5625 Q159.5156,649.375 159.4063,648.8594 Q159.3594,648.5 159.1719,648.3125 Q158.8438,647.9375 158.2344,647.7188 Q157.625,647.5 157,647.5 Q156.2344,647.5 155.5938,647.8281 Q154.9688,648.1563 154.4688,648.9063 Q153.9844,649.6563 153.9844,650.6875 L153.9844,651.7813 Q153.9844,653.0156 154.875,653.8438 Q155.7656,654.6563 157.3594,654.6563 Q158.2969,654.6563 158.9531,654.4063 Q159.3438,654.25 159.7656,653.8125 Q160.0313,653.5469 160.1719,653.4688 Q160.3281,653.3906 160.5313,653.3906 Q160.8594,653.3906 161.1094,653.6563 Q161.375,653.9063 161.375,654.25 Q161.375,654.5938 161.0313,655 Q160.5313,655.5781 159.7344,655.9063 Q158.6563,656.3594 157.3594,656.3594 Q155.8438,656.3594 154.6406,655.7344 Q153.6563,655.2344 152.9688,654.1719 Q152.2813,653.0938 152.2813,651.8125 L152.2813,650.6563 Q152.2813,649.3281 152.8906,648.1875 Q153.5156,647.0313 154.6094,646.4219 Q155.7031,645.7969 156.9375,645.7969 Q157.6719,645.7969 158.3125,645.9688 Q158.9688,646.125 159.5156,646.4844 Z " fill="#000000"/><text fill="#000000" font-family="sans-serif" font-size="14" lengthAdjust="spacing" textLength="102" x="175.25" y="656.3379">StoreRepository</text><line style="stroke:#181818;stroke-width:0.5;" x1="122.5" x2="299.5" y1="666.6094" y2="666.6094"/><line style="stroke:#181818;stroke-width:0.5;" x1="122.5" x2="299.5" y1="674.6094" y2="674.6094"/><ellipse cx="132.5" cy="688.9141" fill="#84BE84" rx="3" ry="3" style="stroke:#038048;stroke-width:1.0;"/><text fill="#000000" font-family="sans-serif" font-size="14" lengthAdjust="spacing" textLength="67" x="141.5" y="693.1426">getStore(i)</text><ellipse cx="132.5" cy="706.5234" fill="#84BE84" rx="3" ry="3" style="stroke:#038048;stroke-width:1.0;"/><text fill="#000000" font-family="sans-serif" font-size="14" lengthAdjust="spacing" textLength="153" x="141.5" y="710.752">compare(store1, store2)</text></g><!--MD5=[115c5bc9211d8cbe43c7d19dc50c6850]
class EmployeeRepository--><g id="elem_EmployeeRepository"><rect codeLine="36" fill="#F1F1F1" height="83.2188" id="EmployeeRepository" rx="2.5" ry="2.5" style="stroke:#181818;stroke-width:0.5;" width="237" x="414.5" y="634.6094"/><ellipse cx="463.75" cy="650.6094" fill="#ADD1B2" rx="11" ry="11" style="stroke:#181818;stroke-width:1.0;"/><path d="M466.5156,646.4844 Q466.6719,646.2656 466.8594,646.1563 Q467.0469,646.0469 467.2656,646.0469 Q467.6406,646.0469 467.875,646.3125 Q468.1094,646.5625 468.1094,647.1719 L468.1094,648.625 Q468.1094,649.2344 467.875,649.5 Q467.6406,649.7656 467.2656,649.7656 Q466.9219,649.7656 466.7188,649.5625 Q466.5156,649.375 466.4063,648.8594 Q466.3594,648.5 466.1719,648.3125 Q465.8438,647.9375 465.2344,647.7188 Q464.625,647.5 464,647.5 Q463.2344,647.5 462.5938,647.8281 Q461.9688,648.1563 461.4688,648.9063 Q460.9844,649.6563 460.9844,650.6875 L460.9844,651.7813 Q460.9844,653.0156 461.875,653.8438 Q462.7656,654.6563 464.3594,654.6563 Q465.2969,654.6563 465.9531,654.4063 Q466.3438,654.25 466.7656,653.8125 Q467.0313,653.5469 467.1719,653.4688 Q467.3281,653.3906 467.5313,653.3906 Q467.8594,653.3906 468.1094,653.6563 Q468.375,653.9063 468.375,654.25 Q468.375,654.5938 468.0313,655 Q467.5313,655.5781 466.7344,655.9063 Q465.6563,656.3594 464.3594,656.3594 Q462.8438,656.3594 461.6406,655.7344 Q460.6563,655.2344 459.9688,654.1719 Q459.2813,653.0938 459.2813,651.8125 L459.2813,650.6563 Q459.2813,649.3281 459.8906,648.1875 Q460.5156,647.0313 461.6094,646.4219 Q462.7031,645.7969 463.9375,645.7969 Q464.6719,645.7969 465.3125,645.9688 Q465.9688,646.125 466.5156,646.4844 Z " fill="#000000"/><text fill="#000000" font-family="sans-serif" font-size="14" lengthAdjust="spacing" textLength="130" x="484.25" y="656.3379">EmployeeRepository</text><line style="stroke:#181818;stroke-width:0.5;" x1="415.5" x2="650.5" y1="666.6094" y2="666.6094"/><line style="stroke:#181818;stroke-width:0.5;" x1="415.5" x2="650.5" y1="674.6094" y2="674.6094"/><ellipse cx="425.5" cy="688.9141" fill="#84BE84" rx="3" ry="3" style="stroke:#038048;stroke-width:1.0;"/><text fill="#000000" font-family="sans-serif" font-size="14" lengthAdjust="spacing" textLength="95" x="434.5" y="693.1426">getEmployee(i)</text><ellipse cx="425.5" cy="706.5234" fill="#84BE84" rx="3" ry="3" style="stroke:#038048;stroke-width:1.0;"/><text fill="#000000" font-family="sans-serif" font-size="14" lengthAdjust="spacing" textLength="211" x="434.5" y="710.752">compare(employee1, employee2)</text></g><!--MD5=[3fd616f346a44cd59a91eb10b19e157c]
class User--><g id="elem_User"><rect codeLine="41" fill="#F1F1F1" height="65.6094" id="User" rx="2.5" ry="2.5" style="stroke:#181818;stroke-width:0.5;" width="87" x="795.5" y="268.6094"/><ellipse cx="822.2" cy="284.6094" fill="#ADD1B2" rx="11" ry="11" style="stroke:#181818;stroke-width:1.0;"/><path d="M824.9656,280.4844 Q825.1219,280.2656 825.3094,280.1563 Q825.4969,280.0469 825.7156,280.0469 Q826.0906,280.0469 826.325,280.3125 Q826.5594,280.5625 826.5594,281.1719 L826.5594,282.625 Q826.5594,283.2344 826.325,283.5 Q826.0906,283.7656 825.7156,283.7656 Q825.3719,283.7656 825.1688,283.5625 Q824.9656,283.375 824.8563,282.8594 Q824.8094,282.5 824.6219,282.3125 Q824.2938,281.9375 823.6844,281.7188 Q823.075,281.5 822.45,281.5 Q821.6844,281.5 821.0438,281.8281 Q820.4188,282.1563 819.9188,282.9063 Q819.4344,283.6563 819.4344,284.6875 L819.4344,285.7813 Q819.4344,287.0156 820.325,287.8438 Q821.2156,288.6563 822.8094,288.6563 Q823.7469,288.6563 824.4031,288.4063 Q824.7938,288.25 825.2156,287.8125 Q825.4813,287.5469 825.6219,287.4688 Q825.7781,287.3906 825.9813,287.3906 Q826.3094,287.3906 826.5594,287.6563 Q826.825,287.9063 826.825,288.25 Q826.825,288.5938 826.4813,289 Q825.9813,289.5781 825.1844,289.9063 Q824.1063,290.3594 822.8094,290.3594 Q821.2938,290.3594 820.0906,289.7344 Q819.1063,289.2344 818.4188,288.1719 Q817.7313,287.0938 817.7313,285.8125 L817.7313,284.6563 Q817.7313,283.3281 818.3406,282.1875 Q818.9656,281.0313 820.0594,280.4219 Q821.1531,279.7969 822.3875,279.7969 Q823.1219,279.7969 823.7625,279.9688 Q824.4188,280.125 824.9656,280.4844 Z " fill="#000000"/><text fill="#000000" font-family="sans-serif" font-size="14" lengthAdjust="spacing" textLength="29" x="838.8" y="290.3379">User</text><line style="stroke:#181818;stroke-width:0.5;" x1="796.5" x2="881.5" y1="300.6094" y2="300.6094"/><rect fill="none" height="6" style="stroke:#C82930;stroke-width:1.0;" width="6" x="803.5" y="311.9141"/><text fill="#000000" font-family="sans-serif" font-size="14" lengthAdjust="spacing" textLength="61" x="815.5" y="319.1426">Password</text><line style="stroke:#181818;stroke-width:0.5;" x1="796.5" x2="881.5" y1="326.2188" y2="326.2188"/></g><!--MD5=[09ce52be0ee7de43c61b6e2d59bf108b]
class Person--><g id="elem_Person"><rect codeLine="45" fill="#F1F1F1" height="136.0469" id="Person" rx="2.5" ry="2.5" style="stroke:#181818;stroke-width:0.5;" width="135" x="771.5" y="45.6094"/><ellipse cx="812.6" cy="61.6094" fill="#ADD1B2" rx="11" ry="11" style="stroke:#181818;stroke-width:1.0;"/><path d="M815.3656,57.4844 Q815.5219,57.2656 815.7094,57.1563 Q815.8969,57.0469 816.1156,57.0469 Q816.4906,57.0469 816.725,57.3125 Q816.9594,57.5625 816.9594,58.1719 L816.9594,59.625 Q816.9594,60.2344 816.725,60.5 Q816.4906,60.7656 816.1156,60.7656 Q815.7719,60.7656 815.5688,60.5625 Q815.3656,60.375 815.2563,59.8594 Q815.2094,59.5 815.0219,59.3125 Q814.6938,58.9375 814.0844,58.7188 Q813.475,58.5 812.85,58.5 Q812.0844,58.5 811.4438,58.8281 Q810.8188,59.1563 810.3188,59.9063 Q809.8344,60.6563 809.8344,61.6875 L809.8344,62.7813 Q809.8344,64.0156 810.725,64.8438 Q811.6156,65.6563 813.2094,65.6563 Q814.1469,65.6563 814.8031,65.4063 Q815.1938,65.25 815.6156,64.8125 Q815.8813,64.5469 816.0219,64.4688 Q816.1781,64.3906 816.3813,64.3906 Q816.7094,64.3906 816.9594,64.6563 Q817.225,64.9063 817.225,65.25 Q817.225,65.5938 816.8813,66 Q816.3813,66.5781 815.5844,66.9063 Q814.5063,67.3594 813.2094,67.3594 Q811.6938,67.3594 810.4906,66.7344 Q809.5063,66.2344 808.8188,65.1719 Q808.1313,64.0938 808.1313,62.8125 L808.1313,61.6563 Q808.1313,60.3281 808.7406,59.1875 Q809.3656,58.0313 810.4594,57.4219 Q811.5531,56.7969 812.7875,56.7969 Q813.5219,56.7969 814.1625,56.9688 Q814.8188,57.125 815.3656,57.4844 Z " fill="#000000"/><text fill="#000000" font-family="sans-serif" font-size="14" lengthAdjust="spacing" textLength="45" x="832.4" y="67.3379">Person</text><line style="stroke:#181818;stroke-width:0.5;" x1="772.5" x2="905.5" y1="77.6094" y2="77.6094"/><rect fill="none" height="6" style="stroke:#C82930;stroke-width:1.0;" width="6" x="779.5" y="88.9141"/><text fill="#000000" font-family="sans-serif" font-size="14" lengthAdjust="spacing" textLength="36" x="791.5" y="96.1426">Name</text><rect fill="none" height="6" style="stroke:#C82930;stroke-width:1.0;" width="6" x="779.5" y="106.5234"/><text fill="#000000" font-family="sans-serif" font-size="14" lengthAdjust="spacing" textLength="34" x="791.5" y="113.752">Email</text><rect fill="none" height="6" style="stroke:#C82930;stroke-width:1.0;" width="6" x="779.5" y="124.1328"/><text fill="#000000" font-family="sans-serif" font-size="14" lengthAdjust="spacing" textLength="94" x="791.5" y="131.3613">Phone Number</text><rect fill="none" height="6" style="stroke:#C82930;stroke-width:1.0;" width="6" x="779.5" y="141.7422"/><text fill="#000000" font-family="sans-serif" font-size="14" lengthAdjust="spacing" textLength="76" x="791.5" y="148.9707">Tax Number</text><rect fill="none" height="6" style="stroke:#C82930;stroke-width:1.0;" width="6" x="779.5" y="159.3516"/><text fill="#000000" font-family="sans-serif" font-size="14" lengthAdjust="spacing" textLength="109" x="791.5" y="166.5801">Passport Number</text><line style="stroke:#181818;stroke-width:0.5;" x1="772.5" x2="905.5" y1="173.6563" y2="173.6563"/></g><!--MD5=[acacb71836a16c8aba555200ebe5399a]
class DisplayStoreUI--><g id="elem_DisplayStoreUI"><rect codeLine="53" fill="#F1F1F1" height="48" id="DisplayStoreUI" rx="2.5" ry="2.5" style="stroke:#181818;stroke-width:0.5;" width="124" x="328" y="89.6094"/><ellipse cx="343" cy="105.6094" fill="#ADD1B2" rx="11" ry="11" style="stroke:#181818;stroke-width:1.0;"/><path d="M345.7656,101.4844 Q345.9219,101.2656 346.1094,101.1563 Q346.2969,101.0469 346.5156,101.0469 Q346.8906,101.0469 347.125,101.3125 Q347.3594,101.5625 347.3594,102.1719 L347.3594,103.625 Q347.3594,104.2344 347.125,104.5 Q346.8906,104.7656 346.5156,104.7656 Q346.1719,104.7656 345.9688,104.5625 Q345.7656,104.375 345.6563,103.8594 Q345.6094,103.5 345.4219,103.3125 Q345.0938,102.9375 344.4844,102.7188 Q343.875,102.5 343.25,102.5 Q342.4844,102.5 341.8438,102.8281 Q341.2188,103.1563 340.7188,103.9063 Q340.2344,104.6563 340.2344,105.6875 L340.2344,106.7813 Q340.2344,108.0156 341.125,108.8438 Q342.0156,109.6563 343.6094,109.6563 Q344.5469,109.6563 345.2031,109.4063 Q345.5938,109.25 346.0156,108.8125 Q346.2813,108.5469 346.4219,108.4688 Q346.5781,108.3906 346.7813,108.3906 Q347.1094,108.3906 347.3594,108.6563 Q347.625,108.9063 347.625,109.25 Q347.625,109.5938 347.2813,110 Q346.7813,110.5781 345.9844,110.9063 Q344.9063,111.3594 343.6094,111.3594 Q342.0938,111.3594 340.8906,110.7344 Q339.9063,110.2344 339.2188,109.1719 Q338.5313,108.0938 338.5313,106.8125 L338.5313,105.6563 Q338.5313,104.3281 339.1406,103.1875 Q339.7656,102.0313 340.8594,101.4219 Q341.9531,100.7969 343.1875,100.7969 Q343.9219,100.7969 344.5625,100.9688 Q345.2188,101.125 345.7656,101.4844 Z " fill="#000000"/><text fill="#000000" font-family="sans-serif" font-size="14" lengthAdjust="spacing" textLength="92" x="357" y="111.3379">DisplayStoreUI</text><line style="stroke:#181818;stroke-width:0.5;" x1="329" x2="451" y1="121.6094" y2="121.6094"/><line style="stroke:#181818;stroke-width:0.5;" x1="329" x2="451" y1="129.6094" y2="129.6094"/></g><!--MD5=[7421f545a0d8420c5bec41e74b387d9c]
class Employee--><g id="elem_Employee"><rect fill="#F1F1F1" height="48" id="Employee" rx="2.5" ry="2.5" style="stroke:#181818;stroke-width:0.5;" width="94" x="792" y="473.6094"/><ellipse cx="807" cy="489.6094" fill="#ADD1B2" rx="11" ry="11" style="stroke:#181818;stroke-width:1.0;"/><path d="M809.7656,485.4844 Q809.9219,485.2656 810.1094,485.1563 Q810.2969,485.0469 810.5156,485.0469 Q810.8906,485.0469 811.125,485.3125 Q811.3594,485.5625 811.3594,486.1719 L811.3594,487.625 Q811.3594,488.2344 811.125,488.5 Q810.8906,488.7656 810.5156,488.7656 Q810.1719,488.7656 809.9688,488.5625 Q809.7656,488.375 809.6563,487.8594 Q809.6094,487.5 809.4219,487.3125 Q809.0938,486.9375 808.4844,486.7188 Q807.875,486.5 807.25,486.5 Q806.4844,486.5 805.8438,486.8281 Q805.2188,487.1563 804.7188,487.9063 Q804.2344,488.6563 804.2344,489.6875 L804.2344,490.7813 Q804.2344,492.0156 805.125,492.8438 Q806.0156,493.6563 807.6094,493.6563 Q808.5469,493.6563 809.2031,493.4063 Q809.5938,493.25 810.0156,492.8125 Q810.2813,492.5469 810.4219,492.4688 Q810.5781,492.3906 810.7813,492.3906 Q811.1094,492.3906 811.3594,492.6563 Q811.625,492.9063 811.625,493.25 Q811.625,493.5938 811.2813,494 Q810.7813,494.5781 809.9844,494.9063 Q808.9063,495.3594 807.6094,495.3594 Q806.0938,495.3594 804.8906,494.7344 Q803.9063,494.2344 803.2188,493.1719 Q802.5313,492.0938 802.5313,490.8125 L802.5313,489.6563 Q802.5313,488.3281 803.1406,487.1875 Q803.7656,486.0313 804.8594,485.4219 Q805.9531,484.7969 807.1875,484.7969 Q807.9219,484.7969 808.5625,484.9688 Q809.2188,485.125 809.7656,485.4844 Z " fill="#000000"/><text fill="#000000" font-family="sans-serif" font-size="14" lengthAdjust="spacing" textLength="62" x="821" y="495.3379">Employee</text><line style="stroke:#181818;stroke-width:0.5;" x1="793" x2="885" y1="505.6094" y2="505.6094"/><line style="stroke:#181818;stroke-width:0.5;" x1="793" x2="885" y1="513.6094" y2="513.6094"/></g><!--MD5=[fff48e9c385a875a0ec7f6b68c295159]
link Repositories to Repositories--><g id="link_Repositories_Repositories"><path codeLine="57" d="M486.25,479.8494 C506.45,481.6894 521,487.6094 521,497.6094 C521,506.7494 508.84,512.4794 491.33,514.7994 " fill="none" id="Repositories-to-Repositories" style="stroke:#181818;stroke-width:1.0;"/><polygon fill="#181818" points="486.25,515.3694,495.6395,518.3421,491.2189,514.8125,494.7485,510.3919,486.25,515.3694" style="stroke:#181818;stroke-width:1.0;"/><text fill="#000000" font-family="sans-serif" font-size="13" lengthAdjust="spacing" textLength="49" x="527" y="503.1045">instance</text></g><!--MD5=[83a916c1023c7b8a5c4a5590a5880de8]
link Repositories to StoreRepository--><g id="link_Repositories_StoreRepository"><path codeLine="58" d="M330.89,556.8894 C306.44,581.0094 278.55,608.5094 255.82,630.9094 " fill="none" id="Repositories-to-StoreRepository" style="stroke:#181818;stroke-width:1.0;"/><polygon fill="#181818" points="252.22,634.4594,261.4336,630.9796,255.7769,630.9453,255.8112,625.2886,252.22,634.4594" style="stroke:#181818;stroke-width:1.0;"/><text fill="#000000" font-family="sans-serif" font-size="13" lengthAdjust="spacing" textLength="93" x="302" y="601.1045">StoreRepository</text></g><!--MD5=[8d24fe9c69bd7963426d4c642c9bd288]
link Repositories to EmployeeRepository--><g id="link_Repositories_EmployeeRepository"><path codeLine="59" d="M437.22,556.8894 C456.6,580.8094 478.67,608.0494 496.74,630.3594 " fill="none" id="Repositories-to-EmployeeRepository" style="stroke:#181818;stroke-width:1.0;"/><polygon fill="#181818" points="500.07,634.4594,497.5202,624.9463,496.9257,630.5718,491.3001,629.9773,500.07,634.4594" style="stroke:#181818;stroke-width:1.0;"/><text fill="#000000" font-family="sans-serif" font-size="13" lengthAdjust="spacing" textLength="120" x="475" y="601.1045">EmployeeRepository</text></g><!--MD5=[322b43eacf0406807f2bfb4eea663063]
link DisplayStoreController to Repositories--><g id="link_DisplayStoreController_Repositories"><path codeLine="60" d="M390,360.8194 C390,383.6394 390,409.8994 390,433.2094 " fill="none" id="DisplayStoreController-to-Repositories" style="stroke:#181818;stroke-width:1.0;stroke-dasharray:7.0,7.0;"/><polygon fill="#181818" points="390,438.4394,394,429.4394,390,433.4394,386,429.4394,390,438.4394" style="stroke:#181818;stroke-width:1.0;"/><text fill="#000000" font-family="sans-serif" font-size="13" lengthAdjust="spacing" textLength="67" x="391" y="405.1045">repositories</text></g><!--MD5=[3402c36cde2979d559747fb642267618]
link DisplayStoreController to StoreRepository--><g id="link_DisplayStoreController_StoreRepository"><path codeLine="61" d="M296.55,335.7094 C182.89,375.9594 6,438.6094 6,438.6094 C6,438.6094 6,556.6094 6,556.6094 C6,556.6094 77.61,598.0094 136.19,631.8594 " fill="none" id="DisplayStoreController-to-StoreRepository" style="stroke:#181818;stroke-width:1.0;stroke-dasharray:7.0,7.0;"/><polygon fill="#181818" points="140.74,634.4894,134.947,626.5244,136.4103,631.9887,130.9459,633.452,140.74,634.4894" style="stroke:#181818;stroke-width:1.0;"/><text fill="#000000" font-family="sans-serif" font-size="13" lengthAdjust="spacing" textLength="93" x="7" y="503.1045">StoreRepository</text></g><!--MD5=[8fd36457c27cdbd2a9bbfa3ca16588b6]
link DisplayStoreController to EmployeeRepository--><g id="link_DisplayStoreController_EmployeeRepository"><path codeLine="62" d="M472.41,360.6794 C524.87,397.6494 583,438.6094 583,438.6094 C583,438.6094 604,586.6094 604,586.6094 C604,586.6094 604,604.6094 604,604.6094 C604,604.6094 591.82,616.6994 577.56,630.8694 " fill="none" id="DisplayStoreController-to-EmployeeRepository" style="stroke:#181818;stroke-width:1.0;stroke-dasharray:7.0,7.0;"/><polygon fill="#181818" points="573.89,634.5094,583.0966,631.0109,577.4398,630.9881,577.4626,625.3313,573.89,634.5094" style="stroke:#181818;stroke-width:1.0;"/><text fill="#000000" font-family="sans-serif" font-size="13" lengthAdjust="spacing" textLength="120" x="600" y="503.1045">EmployeeRepository</text></g><!--MD5=[2b6b56db68c309ba8e9ca90533f32e08]
link DisplayStoreController to Store--><g id="link_DisplayStoreController_Store"><path codeLine="63" d="M329.69,360.8194 C299.26,390.1894 262.94,425.2494 234.82,452.3794 " fill="none" id="DisplayStoreController-to-Store" style="stroke:#181818;stroke-width:1.0;stroke-dasharray:7.0,7.0;"/><polygon fill="#181818" points="231.09,455.9894,240.3384,452.6031,234.6823,452.5116,234.7739,446.8554,231.09,455.9894" style="stroke:#181818;stroke-width:1.0;"/><text fill="#000000" font-family="sans-serif" font-size="13" lengthAdjust="spacing" textLength="31" x="297" y="405.1045">Store</text></g><!--MD5=[df3e112b3527bbdb024fcf14704d124c]
link DisplayStoreController to Employee--><g id="link_DisplayStoreController_Employee"><path codeLine="64" d="M483.26,332.8894 C561.65,358.3494 661,390.6094 661,390.6094 C661,390.6094 765,438.6094 765,438.6094 C765,438.6094 785.52,454.6894 804.95,469.9194 " fill="none" id="DisplayStoreController-to-Employee" style="stroke:#181818;stroke-width:1.0;stroke-dasharray:7.0,7.0;"/><polygon fill="#181818" points="809.33,473.3494,804.7077,464.6526,805.3925,470.2678,799.7772,470.9526,809.33,473.3494" style="stroke:#181818;stroke-width:1.0;"/><text fill="#000000" font-family="sans-serif" font-size="13" lengthAdjust="spacing" textLength="58" x="698" y="405.1045">Employee</text></g><!--MD5=[2bd91c10b08953349dacb3596668b076]
link DisplayStoreUI to DisplayStoreController--><g id="link_DisplayStoreUI_DisplayStoreController"><path codeLine="65" d="M390,137.7894 C390,162.5694 390,202.9394 390,237.2894 " fill="none" id="DisplayStoreUI-to-DisplayStoreController" style="stroke:#181818;stroke-width:1.0;stroke-dasharray:7.0,7.0;"/><polygon fill="#181818" points="390,242.3094,394,233.3094,390,237.3094,386,233.3094,390,242.3094" style="stroke:#181818;stroke-width:1.0;"/></g><!--MD5=[ee4a564aec4e24619198a7021b9a17c1]
reverse link Person to User--><g id="link_Person_User"><path codeLine="66" d="M839,201.9194 C839,225.6894 839,249.9494 839,268.4794 " fill="none" id="Person-backto-User" style="stroke:#181818;stroke-width:1.0;"/><polygon fill="none" points="832,201.7594,839,181.7594,846,201.7594,832,201.7594" style="stroke:#181818;stroke-width:1.0;"/></g><!--MD5=[1e9705534ea2f5f3045e58998aa20e5a]
reverse link User to Employee--><g id="link_User_Employee"><path codeLine="67" d="M839,354.6494 C839,393.3094 839,444.1994 839,473.3694 " fill="none" id="User-backto-Employee" style="stroke:#181818;stroke-width:1.0;"/><polygon fill="none" points="832,354.6494,839,334.6494,846,354.6494,832,354.6494" style="stroke:#181818;stroke-width:1.0;"/></g><!--MD5=[e530739eb39f3b323ca6dabfb5fc4a2e]
@startuml

'skinparam monochrome true
skinparam packageStyle rectangle
skinparam shadowing false
skinparam linetype polyline
'skinparam linetype orto
'skinparam classAttributeIconSize 0
'left to right direction

title US13 - Class Diagram

class Repositories {
    -Repositories()
    +getInstance():Repositories
    +getStoreRepository()
    +getEmployeeRepository()
}

class Store {
    -int id
    -String designation
}

class DisplayStoreController {
    +getStoreRepository()
    +getStoresList()
    +getEmployeeRepository()
    +getEmployeesList()
}

class StoreRepository {
    +getStore(i)
    +compare(store1, store2)
}

class EmployeeRepository {
    +getEmployee(i)
    +compare(employee1, employee2)
}

class User {
    -Password
}

class Person {
    -Name
    -Email
    -Phone Number
    -Tax Number
    -Passport Number
}

class DisplayStoreUI {

}

Repositories -> Repositories:instance
Repositories - -> StoreRepository: StoreRepository
Repositories - -> EmployeeRepository: EmployeeRepository
DisplayStoreController ..> Repositories : repositories
DisplayStoreController ..> StoreRepository : StoreRepository
DisplayStoreController ..> EmployeeRepository : EmployeeRepository
DisplayStoreController ..> Store : Store
DisplayStoreController ..> Employee : Employee
DisplayStoreUI ..> DisplayStoreController
Person <|- - User
User <|- - Employee

@enduml

@startuml

skinparam packageStyle rectangle
skinparam shadowing false
skinparam linetype polyline

title US13 - Class Diagram

class Repositories {
    -Repositories()
    +getInstance():Repositories
    +getStoreRepository()
    +getEmployeeRepository()
}

class Store {
    -int id
    -String designation
}

class DisplayStoreController {
    +getStoreRepository()
    +getStoresList()
    +getEmployeeRepository()
    +getEmployeesList()
}

class StoreRepository {
    +getStore(i)
    +compare(store1, store2)
}

class EmployeeRepository {
    +getEmployee(i)
    +compare(employee1, employee2)
}

class User {
    -Password
}

class Person {
    -Name
    -Email
    -Phone Number
    -Tax Number
    -Passport Number
}

class DisplayStoreUI {

}

Repositories -> Repositories:instance
Repositories - -> StoreRepository: StoreRepository
Repositories - -> EmployeeRepository: EmployeeRepository
DisplayStoreController ..> Repositories : repositories
DisplayStoreController ..> StoreRepository : StoreRepository
DisplayStoreController ..> EmployeeRepository : EmployeeRepository
DisplayStoreController ..> Store : Store
DisplayStoreController ..> Employee : Employee
DisplayStoreUI ..> DisplayStoreController
Person <|- - User
User <|- - Employee

@enduml

PlantUML version 1.2022.7(Mon Aug 22 18:01:30 WEST 2022)
(GPL source distribution)
Java Runtime: OpenJDK Runtime Environment
JVM: OpenJDK 64-Bit Server VM
Default Encoding: Cp1252
Language: pt
Country: PT
--></g></svg>