<?xml version="1.0" encoding="us-ascii" standalone="no"?><svg xmlns="http://www.w3.org/2000/svg" xmlns:xlink="http://www.w3.org/1999/xlink" contentStyleType="text/css" height="718px" preserveAspectRatio="none" style="width:528px;height:718px;background:#FFFFFF;" version="1.1" viewBox="0 0 528 718" width="528px" zoomAndPan="magnify"><defs/><g><text fill="#000000" font-family="sans-serif" font-size="14" font-weight="bold" lengthAdjust="spacing" textLength="228" x="151.75" y="27.6738">System Sequence Diagram (SSD)</text><rect fill="#FFFFFF" height="502.4219" style="stroke:#181818;stroke-width:1.0;" width="10" x="84.5" y="127.2813"/><rect fill="#FFFFFF" height="52.0469" style="stroke:#181818;stroke-width:1.0;" width="10" x="475.5" y="147.8047"/><rect fill="#FFFFFF" height="35.5234" style="stroke:#181818;stroke-width:1.0;" width="10" x="475.5" y="228.375"/><rect fill="#FFFFFF" height="28.5234" style="stroke:#181818;stroke-width:1.0;" width="10" x="475.5" y="292.4219"/><rect fill="#FFFFFF" height="28.5234" style="stroke:#181818;stroke-width:1.0;" width="10" x="475.5" y="349.4688"/><rect fill="#FFFFFF" height="28.5234" style="stroke:#181818;stroke-width:1.0;" width="10" x="475.5" y="406.5156"/><rect fill="#FFFFFF" height="43.0469" style="stroke:#181818;stroke-width:1.0;" width="10" x="475.5" y="463.5625"/><rect fill="#FFFFFF" height="28.5234" style="stroke:#181818;stroke-width:1.0;" width="10" x="475.5" y="535.1328"/><rect fill="#FFFFFF" height="28.5234" style="stroke:#181818;stroke-width:1.0;" width="10" x="475.5" y="592.1797"/><rect fill="none" height="73.5703" style="stroke:#000000;stroke-width:1.5;" width="512.5" x="10" y="162.8047"/><line style="stroke:#181818;stroke-width:0.5;stroke-dasharray:5.0,5.0;" x1="89" x2="89" y1="117.2813" y2="638.7031"/><line style="stroke:#181818;stroke-width:0.5;stroke-dasharray:5.0,5.0;" x1="480.5" x2="480.5" y1="117.2813" y2="638.7031"/><text fill="#000000" font-family="sans-serif" font-size="14" lengthAdjust="spacing" textLength="133" x="20" y="114.3145">System Administrator</text><ellipse cx="89.5" cy="50.1406" fill="#E3E3E3" rx="8" ry="8" style="stroke:#181818;stroke-width:0.5;"/><path d="M89.5,58.1406 L89.5,85.1406 M76.5,66.1406 L102.5,66.1406 M89.5,85.1406 L76.5,100.1406 M89.5,85.1406 L102.5,100.1406 " fill="none" style="stroke:#181818;stroke-width:0.5;"/><text fill="#000000" font-family="sans-serif" font-size="14" lengthAdjust="spacing" textLength="133" x="20" y="650.377">System Administrator</text><ellipse cx="89.5" cy="661.8438" fill="#E3E3E3" rx="8" ry="8" style="stroke:#181818;stroke-width:0.5;"/><path d="M89.5,669.8438 L89.5,696.8438 M76.5,677.8438 L102.5,677.8438 M89.5,696.8438 L76.5,711.8438 M89.5,696.8438 L102.5,711.8438 " fill="none" style="stroke:#181818;stroke-width:0.5;"/><rect fill="#E3E3E3" height="29.6406" rx="2.5" ry="2.5" style="stroke:#181818;stroke-width:0.5;" width="64" x="448.5" y="86.6406"/><text fill="#000000" font-family="sans-serif" font-size="14" lengthAdjust="spacing" textLength="50" x="455.5" y="106.3145">:System</text><rect fill="#E3E3E3" height="29.6406" rx="2.5" ry="2.5" style="stroke:#181818;stroke-width:0.5;" width="64" x="448.5" y="637.7031"/><text fill="#000000" font-family="sans-serif" font-size="14" lengthAdjust="spacing" textLength="50" x="455.5" y="657.377">:System</text><rect fill="#FFFFFF" height="502.4219" style="stroke:#181818;stroke-width:1.0;" width="10" x="84.5" y="127.2813"/><rect fill="#FFFFFF" height="52.0469" style="stroke:#181818;stroke-width:1.0;" width="10" x="475.5" y="147.8047"/><rect fill="#FFFFFF" height="35.5234" style="stroke:#181818;stroke-width:1.0;" width="10" x="475.5" y="228.375"/><rect fill="#FFFFFF" height="28.5234" style="stroke:#181818;stroke-width:1.0;" width="10" x="475.5" y="292.4219"/><rect fill="#FFFFFF" height="28.5234" style="stroke:#181818;stroke-width:1.0;" width="10" x="475.5" y="349.4688"/><rect fill="#FFFFFF" height="28.5234" style="stroke:#181818;stroke-width:1.0;" width="10" x="475.5" y="406.5156"/><rect fill="#FFFFFF" height="43.0469" style="stroke:#181818;stroke-width:1.0;" width="10" x="475.5" y="463.5625"/><rect fill="#FFFFFF" height="28.5234" style="stroke:#181818;stroke-width:1.0;" width="10" x="475.5" y="535.1328"/><rect fill="#FFFFFF" height="28.5234" style="stroke:#181818;stroke-width:1.0;" width="10" x="475.5" y="592.1797"/><polygon fill="#181818" points="463.5,143.8047,473.5,147.8047,463.5,151.8047,467.5,147.8047" style="stroke:#181818;stroke-width:1.0;"/><line style="stroke:#181818;stroke-width:1.0;" x1="94.5" x2="469.5" y1="147.8047" y2="147.8047"/><text fill="#000000" font-family="sans-serif" font-size="13" font-weight="bold" lengthAdjust="spacing" textLength="7" x="101.5" y="143.0498">1</text><text fill="#000000" font-family="sans-serif" font-size="13" lengthAdjust="spacing" textLength="168" x="112.5" y="143.0498">asks to register an employee</text><path d="M10,162.8047 L83,162.8047 L83,169.3281 L73,179.3281 L10,179.3281 L10,162.8047 " fill="#EEEEEE" style="stroke:#000000;stroke-width:1.5;"/><rect fill="none" height="73.5703" style="stroke:#000000;stroke-width:1.5;" width="512.5" x="10" y="162.8047"/><text fill="#000000" font-family="sans-serif" font-size="13" font-weight="bold" lengthAdjust="spacing" textLength="28" x="25" y="175.5732">loop</text><text fill="#000000" font-family="sans-serif" font-size="11" font-weight="bold" lengthAdjust="spacing" textLength="81" x="98" y="174.7627">[selects roles]</text><polygon fill="#181818" points="105.5,195.8516,95.5,199.8516,105.5,203.8516,101.5,199.8516" style="stroke:#181818;stroke-width:1.0;"/><line style="stroke:#181818;stroke-width:1.0;stroke-dasharray:2.0,2.0;" x1="99.5" x2="479.5" y1="199.8516" y2="199.8516"/><text fill="#000000" font-family="sans-serif" font-size="13" font-weight="bold" lengthAdjust="spacing" textLength="7" x="111.5" y="195.0967">2</text><text fill="#000000" font-family="sans-serif" font-size="13" lengthAdjust="spacing" textLength="215" x="122.5" y="195.0967">shows list of roles and asks to select</text><polygon fill="#181818" points="463.5,224.375,473.5,228.375,463.5,232.375,467.5,228.375" style="stroke:#181818;stroke-width:1.0;"/><line style="stroke:#181818;stroke-width:1.0;" x1="94.5" x2="469.5" y1="228.375" y2="228.375"/><text fill="#000000" font-family="sans-serif" font-size="13" font-weight="bold" lengthAdjust="spacing" textLength="7" x="101.5" y="223.6201">3</text><text fill="#000000" font-family="sans-serif" font-size="13" lengthAdjust="spacing" textLength="166" x="112.5" y="223.6201">selects roles of an employee</text><polygon fill="#181818" points="105.5,259.8984,95.5,263.8984,105.5,267.8984,101.5,263.8984" style="stroke:#181818;stroke-width:1.0;"/><line style="stroke:#181818;stroke-width:1.0;stroke-dasharray:2.0,2.0;" x1="99.5" x2="479.5" y1="263.8984" y2="263.8984"/><text fill="#000000" font-family="sans-serif" font-size="13" font-weight="bold" lengthAdjust="spacing" textLength="7" x="111.5" y="259.1436">4</text><text fill="#000000" font-family="sans-serif" font-size="13" lengthAdjust="spacing" textLength="248" x="122.5" y="259.1436">shows list of stores and asks to select one</text><polygon fill="#181818" points="463.5,288.4219,473.5,292.4219,463.5,296.4219,467.5,292.4219" style="stroke:#181818;stroke-width:1.0;"/><line style="stroke:#181818;stroke-width:1.0;" x1="94.5" x2="469.5" y1="292.4219" y2="292.4219"/><text fill="#000000" font-family="sans-serif" font-size="13" font-weight="bold" lengthAdjust="spacing" textLength="7" x="101.5" y="287.667">5</text><text fill="#000000" font-family="sans-serif" font-size="13" lengthAdjust="spacing" textLength="86" x="112.5" y="287.667">selects a store</text><polygon fill="#181818" points="468.5,316.9453,478.5,320.9453,468.5,324.9453,472.5,320.9453" style="stroke:#181818;stroke-width:1.0;"/><line style="stroke:#181818;stroke-width:1.0;stroke-dasharray:2.0,2.0;" x1="94.5" x2="474.5" y1="320.9453" y2="320.9453"/><text fill="#000000" font-family="sans-serif" font-size="13" font-weight="bold" lengthAdjust="spacing" textLength="7" x="101.5" y="316.1904">6</text><text fill="#000000" font-family="sans-serif" font-size="13" lengthAdjust="spacing" textLength="241" x="112.5" y="316.1904">show list of states and asks to select one</text><polygon fill="#181818" points="463.5,345.4688,473.5,349.4688,463.5,353.4688,467.5,349.4688" style="stroke:#181818;stroke-width:1.0;"/><line style="stroke:#181818;stroke-width:1.0;" x1="94.5" x2="469.5" y1="349.4688" y2="349.4688"/><text fill="#000000" font-family="sans-serif" font-size="13" font-weight="bold" lengthAdjust="spacing" textLength="7" x="101.5" y="344.7139">7</text><text fill="#000000" font-family="sans-serif" font-size="13" lengthAdjust="spacing" textLength="68" x="112.5" y="344.7139">select state</text><polygon fill="#181818" points="105.5,373.9922,95.5,377.9922,105.5,381.9922,101.5,377.9922" style="stroke:#181818;stroke-width:1.0;"/><line style="stroke:#181818;stroke-width:1.0;stroke-dasharray:2.0,2.0;" x1="99.5" x2="479.5" y1="377.9922" y2="377.9922"/><text fill="#000000" font-family="sans-serif" font-size="13" font-weight="bold" lengthAdjust="spacing" textLength="7" x="111.5" y="373.2373">8</text><text fill="#000000" font-family="sans-serif" font-size="13" lengthAdjust="spacing" textLength="251" x="122.5" y="373.2373">show list of districts and asks to select one</text><polygon fill="#181818" points="463.5,402.5156,473.5,406.5156,463.5,410.5156,467.5,406.5156" style="stroke:#181818;stroke-width:1.0;"/><line style="stroke:#181818;stroke-width:1.0;" x1="94.5" x2="469.5" y1="406.5156" y2="406.5156"/><text fill="#000000" font-family="sans-serif" font-size="13" font-weight="bold" lengthAdjust="spacing" textLength="7" x="101.5" y="401.7607">9</text><text fill="#000000" font-family="sans-serif" font-size="13" lengthAdjust="spacing" textLength="78" x="112.5" y="401.7607">select district</text><polygon fill="#181818" points="105.5,431.0391,95.5,435.0391,105.5,439.0391,101.5,435.0391" style="stroke:#181818;stroke-width:1.0;"/><line style="stroke:#181818;stroke-width:1.0;stroke-dasharray:2.0,2.0;" x1="99.5" x2="479.5" y1="435.0391" y2="435.0391"/><text fill="#000000" font-family="sans-serif" font-size="13" font-weight="bold" lengthAdjust="spacing" textLength="14" x="111.5" y="430.2842">10</text><text fill="#000000" font-family="sans-serif" font-size="13" lengthAdjust="spacing" textLength="236" x="129.5" y="430.2842">show list of cities and asks to select one</text><polygon fill="#181818" points="463.5,459.5625,473.5,463.5625,463.5,467.5625,467.5,463.5625" style="stroke:#181818;stroke-width:1.0;"/><line style="stroke:#181818;stroke-width:1.0;" x1="94.5" x2="469.5" y1="463.5625" y2="463.5625"/><text fill="#000000" font-family="sans-serif" font-size="13" font-weight="bold" lengthAdjust="spacing" textLength="14" x="101.5" y="458.8076">11</text><text fill="#000000" font-family="sans-serif" font-size="13" lengthAdjust="spacing" textLength="60" x="119.5" y="458.8076">select city</text><polygon fill="#181818" points="105.5,502.6094,95.5,506.6094,105.5,510.6094,101.5,506.6094" style="stroke:#181818;stroke-width:1.0;"/><line style="stroke:#181818;stroke-width:1.0;stroke-dasharray:2.0,2.0;" x1="99.5" x2="479.5" y1="506.6094" y2="506.6094"/><text fill="#000000" font-family="sans-serif" font-size="13" font-weight="bold" lengthAdjust="spacing" textLength="14" x="111.5" y="494.5928">12</text><text fill="#000000" font-family="sans-serif" font-size="13" lengthAdjust="spacing" textLength="245" x="129.5" y="487.3311">requested data(name,passport,tax number</text><text fill="#000000" font-family="sans-serif" font-size="13" lengthAdjust="spacing" textLength="339" x="129.5" y="501.8545">,street,zipCode,email,telephone number,passport number).</text><polygon fill="#181818" points="463.5,531.1328,473.5,535.1328,463.5,539.1328,467.5,535.1328" style="stroke:#181818;stroke-width:1.0;"/><line style="stroke:#181818;stroke-width:1.0;" x1="94.5" x2="469.5" y1="535.1328" y2="535.1328"/><text fill="#000000" font-family="sans-serif" font-size="13" font-weight="bold" lengthAdjust="spacing" textLength="14" x="101.5" y="530.3779">13</text><text fill="#000000" font-family="sans-serif" font-size="13" lengthAdjust="spacing" textLength="122" x="119.5" y="530.3779">types requested data</text><polygon fill="#181818" points="105.5,559.6563,95.5,563.6563,105.5,567.6563,101.5,563.6563" style="stroke:#181818;stroke-width:1.0;"/><line style="stroke:#181818;stroke-width:1.0;stroke-dasharray:2.0,2.0;" x1="99.5" x2="479.5" y1="563.6563" y2="563.6563"/><text fill="#000000" font-family="sans-serif" font-size="13" font-weight="bold" lengthAdjust="spacing" textLength="14" x="111.5" y="558.9014">14</text><text fill="#000000" font-family="sans-serif" font-size="13" lengthAdjust="spacing" textLength="218" x="129.5" y="558.9014">shows the information of an employee</text><polygon fill="#181818" points="463.5,588.1797,473.5,592.1797,463.5,596.1797,467.5,592.1797" style="stroke:#181818;stroke-width:1.0;"/><line style="stroke:#181818;stroke-width:1.0;" x1="94.5" x2="469.5" y1="592.1797" y2="592.1797"/><text fill="#000000" font-family="sans-serif" font-size="13" font-weight="bold" lengthAdjust="spacing" textLength="14" x="101.5" y="587.4248">15</text><text fill="#000000" font-family="sans-serif" font-size="13" lengthAdjust="spacing" textLength="75" x="119.5" y="587.4248">submits data</text><polygon fill="#181818" points="105.5,616.7031,95.5,620.7031,105.5,624.7031,101.5,620.7031" style="stroke:#181818;stroke-width:1.0;"/><line style="stroke:#181818;stroke-width:1.0;stroke-dasharray:2.0,2.0;" x1="99.5" x2="479.5" y1="620.7031" y2="620.7031"/><text fill="#000000" font-family="sans-serif" font-size="13" font-weight="bold" lengthAdjust="spacing" textLength="14" x="111.5" y="615.9482">16</text><text fill="#000000" font-family="sans-serif" font-size="13" lengthAdjust="spacing" textLength="158" x="129.5" y="615.9482">displays operation success</text><!--SRC=[hPHBRkCm38RtEWMHLGiuSu1WKA1eR-3jR5YRSOJeDH8zhNlweItRoCjEWLOhXIR__wCYCHsr2nZHWlNELuVeBG77bbIQlmIiZjXGoPqXY5GnkiQS9gG3rlvTkmRsQ18fnPebjUmIauMI_hRaAe9NZKsV_b2MhuzAOSlUjVQDekmhzX4sOyLpRRNJYIDAT0EOSaI96-jA1tGCcrrE7ZxdxI2Z_o7JcAz0rh25xTE4ivE2OmBsqaeZ9XG17P0DndT4GyaiC-dsGUDzW4H6-ayGlQ4qX2VPhJXagvsSXtzFO4GS_3xdYaSz6sULN2whffk6qxfku8oYjxXiO5gNkdsCNAtKYSDT_YH_miq6mBjpkpkDh3U3sUYgObbobFYztMRPNSzzWYr5zx7Nc9TWixRwEkBbuSwGTN_BzT3-pt7Ec9FwJv1MclNtZdE9KfGxjGPu0qtUhWmL2TTG8-E3Gqj5m9I2ZrmmVa2UBF375N86H5nywl3YQoh8eZO5YtSu2FgOE1UFlnz_gRL-hcy6Tq6EvnnhUPWilpe-46Ytzz4YQ-_MNlUNsLBxPhNSiJjCjx7a4WM3dSoPG34pfRQgAENvTmtn7m00]--></g></svg>