<?xml version="1.0" encoding="us-ascii" standalone="no"?><svg xmlns="http://www.w3.org/2000/svg" xmlns:xlink="http://www.w3.org/1999/xlink" contentStyleType="text/css" height="688px" preserveAspectRatio="none" style="width:503px;height:688px;background:#FFFFFF;" version="1.1" viewBox="0 0 503 688" width="503px" zoomAndPan="magnify"><defs/><g><text fill="#000000" font-family="sans-serif" font-size="14" font-weight="bold" lengthAdjust="spacing" textLength="228" x="136.75" y="27.6738">System Sequence Diagram (SSD)</text><rect fill="#FFFFFF" height="471.8984" style="stroke:#181818;stroke-width:1.0;" width="10" x="69.5" y="127.2813"/><rect fill="#FFFFFF" height="28.5234" style="stroke:#181818;stroke-width:1.0;" width="10" x="460.5" y="147.8047"/><rect fill="#FFFFFF" height="28.5234" style="stroke:#181818;stroke-width:1.0;" width="10" x="460.5" y="204.8516"/><rect fill="#FFFFFF" height="28.5234" style="stroke:#181818;stroke-width:1.0;" width="10" x="460.5" y="261.8984"/><rect fill="#FFFFFF" height="28.5234" style="stroke:#181818;stroke-width:1.0;" width="10" x="460.5" y="318.9453"/><rect fill="#FFFFFF" height="28.5234" style="stroke:#181818;stroke-width:1.0;" width="10" x="460.5" y="375.9922"/><rect fill="#FFFFFF" height="43.0469" style="stroke:#181818;stroke-width:1.0;" width="10" x="460.5" y="433.0391"/><rect fill="#FFFFFF" height="28.5234" style="stroke:#181818;stroke-width:1.0;" width="10" x="460.5" y="504.6094"/><rect fill="#FFFFFF" height="28.5234" style="stroke:#181818;stroke-width:1.0;" width="10" x="460.5" y="561.6563"/><line style="stroke:#181818;stroke-width:0.5;stroke-dasharray:5.0,5.0;" x1="74" x2="74" y1="117.2813" y2="608.1797"/><line style="stroke:#181818;stroke-width:0.5;stroke-dasharray:5.0,5.0;" x1="465.5" x2="465.5" y1="117.2813" y2="608.1797"/><text fill="#000000" font-family="sans-serif" font-size="14" lengthAdjust="spacing" textLength="133" x="5" y="114.3145">System Administrator</text><ellipse cx="74.5" cy="50.1406" fill="#E3E3E3" rx="8" ry="8" style="stroke:#181818;stroke-width:0.5;"/><path d="M74.5,58.1406 L74.5,85.1406 M61.5,66.1406 L87.5,66.1406 M74.5,85.1406 L61.5,100.1406 M74.5,85.1406 L87.5,100.1406 " fill="none" style="stroke:#181818;stroke-width:0.5;"/><text fill="#000000" font-family="sans-serif" font-size="14" lengthAdjust="spacing" textLength="133" x="5" y="619.8535">System Administrator</text><ellipse cx="74.5" cy="631.3203" fill="#E3E3E3" rx="8" ry="8" style="stroke:#181818;stroke-width:0.5;"/><path d="M74.5,639.3203 L74.5,666.3203 M61.5,647.3203 L87.5,647.3203 M74.5,666.3203 L61.5,681.3203 M74.5,666.3203 L87.5,681.3203 " fill="none" style="stroke:#181818;stroke-width:0.5;"/><rect fill="#E3E3E3" height="29.6406" rx="2.5" ry="2.5" style="stroke:#181818;stroke-width:0.5;" width="64" x="433.5" y="86.6406"/><text fill="#000000" font-family="sans-serif" font-size="14" lengthAdjust="spacing" textLength="50" x="440.5" y="106.3145">:System</text><rect fill="#E3E3E3" height="29.6406" rx="2.5" ry="2.5" style="stroke:#181818;stroke-width:0.5;" width="64" x="433.5" y="607.1797"/><text fill="#000000" font-family="sans-serif" font-size="14" lengthAdjust="spacing" textLength="50" x="440.5" y="626.8535">:System</text><rect fill="#FFFFFF" height="471.8984" style="stroke:#181818;stroke-width:1.0;" width="10" x="69.5" y="127.2813"/><rect fill="#FFFFFF" height="28.5234" style="stroke:#181818;stroke-width:1.0;" width="10" x="460.5" y="147.8047"/><rect fill="#FFFFFF" height="28.5234" style="stroke:#181818;stroke-width:1.0;" width="10" x="460.5" y="204.8516"/><rect fill="#FFFFFF" height="28.5234" style="stroke:#181818;stroke-width:1.0;" width="10" x="460.5" y="261.8984"/><rect fill="#FFFFFF" height="28.5234" style="stroke:#181818;stroke-width:1.0;" width="10" x="460.5" y="318.9453"/><rect fill="#FFFFFF" height="28.5234" style="stroke:#181818;stroke-width:1.0;" width="10" x="460.5" y="375.9922"/><rect fill="#FFFFFF" height="43.0469" style="stroke:#181818;stroke-width:1.0;" width="10" x="460.5" y="433.0391"/><rect fill="#FFFFFF" height="28.5234" style="stroke:#181818;stroke-width:1.0;" width="10" x="460.5" y="504.6094"/><rect fill="#FFFFFF" height="28.5234" style="stroke:#181818;stroke-width:1.0;" width="10" x="460.5" y="561.6563"/><polygon fill="#181818" points="448.5,143.8047,458.5,147.8047,448.5,151.8047,452.5,147.8047" style="stroke:#181818;stroke-width:1.0;"/><line style="stroke:#181818;stroke-width:1.0;" x1="79.5" x2="454.5" y1="147.8047" y2="147.8047"/><text fill="#000000" font-family="sans-serif" font-size="13" font-weight="bold" lengthAdjust="spacing" textLength="7" x="86.5" y="143.0498">1</text><text fill="#000000" font-family="sans-serif" font-size="13" lengthAdjust="spacing" textLength="168" x="97.5" y="143.0498">asks to register an employee</text><polygon fill="#181818" points="90.5,172.3281,80.5,176.3281,90.5,180.3281,86.5,176.3281" style="stroke:#181818;stroke-width:1.0;"/><line style="stroke:#181818;stroke-width:1.0;stroke-dasharray:2.0,2.0;" x1="84.5" x2="464.5" y1="176.3281" y2="176.3281"/><text fill="#000000" font-family="sans-serif" font-size="13" font-weight="bold" lengthAdjust="spacing" textLength="7" x="96.5" y="171.5732">2</text><text fill="#000000" font-family="sans-serif" font-size="13" lengthAdjust="spacing" textLength="240" x="107.5" y="171.5732">shows list of roles and asks to select one</text><polygon fill="#181818" points="448.5,200.8516,458.5,204.8516,448.5,208.8516,452.5,204.8516" style="stroke:#181818;stroke-width:1.0;"/><line style="stroke:#181818;stroke-width:1.0;" x1="79.5" x2="454.5" y1="204.8516" y2="204.8516"/><text fill="#000000" font-family="sans-serif" font-size="13" font-weight="bold" lengthAdjust="spacing" textLength="7" x="86.5" y="200.0967">3</text><text fill="#000000" font-family="sans-serif" font-size="13" lengthAdjust="spacing" textLength="107" x="97.5" y="200.0967">selects a user role</text><polygon fill="#181818" points="90.5,229.375,80.5,233.375,90.5,237.375,86.5,233.375" style="stroke:#181818;stroke-width:1.0;"/><line style="stroke:#181818;stroke-width:1.0;stroke-dasharray:2.0,2.0;" x1="84.5" x2="464.5" y1="233.375" y2="233.375"/><text fill="#000000" font-family="sans-serif" font-size="13" font-weight="bold" lengthAdjust="spacing" textLength="7" x="96.5" y="228.6201">4</text><text fill="#000000" font-family="sans-serif" font-size="13" lengthAdjust="spacing" textLength="248" x="107.5" y="228.6201">shows list of stores and asks to select one</text><polygon fill="#181818" points="448.5,257.8984,458.5,261.8984,448.5,265.8984,452.5,261.8984" style="stroke:#181818;stroke-width:1.0;"/><line style="stroke:#181818;stroke-width:1.0;" x1="79.5" x2="454.5" y1="261.8984" y2="261.8984"/><text fill="#000000" font-family="sans-serif" font-size="13" font-weight="bold" lengthAdjust="spacing" textLength="7" x="86.5" y="257.1436">5</text><text fill="#000000" font-family="sans-serif" font-size="13" lengthAdjust="spacing" textLength="86" x="97.5" y="257.1436">selects a store</text><polygon fill="#181818" points="453.5,286.4219,463.5,290.4219,453.5,294.4219,457.5,290.4219" style="stroke:#181818;stroke-width:1.0;"/><line style="stroke:#181818;stroke-width:1.0;stroke-dasharray:2.0,2.0;" x1="79.5" x2="459.5" y1="290.4219" y2="290.4219"/><text fill="#000000" font-family="sans-serif" font-size="13" font-weight="bold" lengthAdjust="spacing" textLength="7" x="86.5" y="285.667">6</text><text fill="#000000" font-family="sans-serif" font-size="13" lengthAdjust="spacing" textLength="241" x="97.5" y="285.667">show list of states and asks to select one</text><polygon fill="#181818" points="448.5,314.9453,458.5,318.9453,448.5,322.9453,452.5,318.9453" style="stroke:#181818;stroke-width:1.0;"/><line style="stroke:#181818;stroke-width:1.0;" x1="79.5" x2="454.5" y1="318.9453" y2="318.9453"/><text fill="#000000" font-family="sans-serif" font-size="13" font-weight="bold" lengthAdjust="spacing" textLength="7" x="86.5" y="314.1904">7</text><text fill="#000000" font-family="sans-serif" font-size="13" lengthAdjust="spacing" textLength="68" x="97.5" y="314.1904">select state</text><polygon fill="#181818" points="90.5,343.4688,80.5,347.4688,90.5,351.4688,86.5,347.4688" style="stroke:#181818;stroke-width:1.0;"/><line style="stroke:#181818;stroke-width:1.0;stroke-dasharray:2.0,2.0;" x1="84.5" x2="464.5" y1="347.4688" y2="347.4688"/><text fill="#000000" font-family="sans-serif" font-size="13" font-weight="bold" lengthAdjust="spacing" textLength="7" x="96.5" y="342.7139">8</text><text fill="#000000" font-family="sans-serif" font-size="13" lengthAdjust="spacing" textLength="251" x="107.5" y="342.7139">show list of districts and asks to select one</text><polygon fill="#181818" points="448.5,371.9922,458.5,375.9922,448.5,379.9922,452.5,375.9922" style="stroke:#181818;stroke-width:1.0;"/><line style="stroke:#181818;stroke-width:1.0;" x1="79.5" x2="454.5" y1="375.9922" y2="375.9922"/><text fill="#000000" font-family="sans-serif" font-size="13" font-weight="bold" lengthAdjust="spacing" textLength="7" x="86.5" y="371.2373">9</text><text fill="#000000" font-family="sans-serif" font-size="13" lengthAdjust="spacing" textLength="78" x="97.5" y="371.2373">select district</text><polygon fill="#181818" points="90.5,400.5156,80.5,404.5156,90.5,408.5156,86.5,404.5156" style="stroke:#181818;stroke-width:1.0;"/><line style="stroke:#181818;stroke-width:1.0;stroke-dasharray:2.0,2.0;" x1="84.5" x2="464.5" y1="404.5156" y2="404.5156"/><text fill="#000000" font-family="sans-serif" font-size="13" font-weight="bold" lengthAdjust="spacing" textLength="14" x="96.5" y="399.7607">10</text><text fill="#000000" font-family="sans-serif" font-size="13" lengthAdjust="spacing" textLength="236" x="114.5" y="399.7607">show list of cities and asks to select one</text><polygon fill="#181818" points="448.5,429.0391,458.5,433.0391,448.5,437.0391,452.5,433.0391" style="stroke:#181818;stroke-width:1.0;"/><line style="stroke:#181818;stroke-width:1.0;" x1="79.5" x2="454.5" y1="433.0391" y2="433.0391"/><text fill="#000000" font-family="sans-serif" font-size="13" font-weight="bold" lengthAdjust="spacing" textLength="14" x="86.5" y="428.2842">11</text><text fill="#000000" font-family="sans-serif" font-size="13" lengthAdjust="spacing" textLength="60" x="104.5" y="428.2842">select city</text><polygon fill="#181818" points="90.5,472.0859,80.5,476.0859,90.5,480.0859,86.5,476.0859" style="stroke:#181818;stroke-width:1.0;"/><line style="stroke:#181818;stroke-width:1.0;stroke-dasharray:2.0,2.0;" x1="84.5" x2="464.5" y1="476.0859" y2="476.0859"/><text fill="#000000" font-family="sans-serif" font-size="13" font-weight="bold" lengthAdjust="spacing" textLength="14" x="96.5" y="464.0693">12</text><text fill="#000000" font-family="sans-serif" font-size="13" lengthAdjust="spacing" textLength="245" x="114.5" y="456.8076">requested data(name,passport,tax number</text><text fill="#000000" font-family="sans-serif" font-size="13" lengthAdjust="spacing" textLength="339" x="114.5" y="471.3311">,street,zipCode,email,telephone number,passport number).</text><polygon fill="#181818" points="448.5,500.6094,458.5,504.6094,448.5,508.6094,452.5,504.6094" style="stroke:#181818;stroke-width:1.0;"/><line style="stroke:#181818;stroke-width:1.0;" x1="79.5" x2="454.5" y1="504.6094" y2="504.6094"/><text fill="#000000" font-family="sans-serif" font-size="13" font-weight="bold" lengthAdjust="spacing" textLength="14" x="86.5" y="499.8545">13</text><text fill="#000000" font-family="sans-serif" font-size="13" lengthAdjust="spacing" textLength="122" x="104.5" y="499.8545">types requested data</text><polygon fill="#181818" points="90.5,529.1328,80.5,533.1328,90.5,537.1328,86.5,533.1328" style="stroke:#181818;stroke-width:1.0;"/><line style="stroke:#181818;stroke-width:1.0;stroke-dasharray:2.0,2.0;" x1="84.5" x2="464.5" y1="533.1328" y2="533.1328"/><text fill="#000000" font-family="sans-serif" font-size="13" font-weight="bold" lengthAdjust="spacing" textLength="14" x="96.5" y="528.3779">14</text><text fill="#000000" font-family="sans-serif" font-size="13" lengthAdjust="spacing" textLength="218" x="114.5" y="528.3779">shows the information of an employee</text><polygon fill="#181818" points="448.5,557.6563,458.5,561.6563,448.5,565.6563,452.5,561.6563" style="stroke:#181818;stroke-width:1.0;"/><line style="stroke:#181818;stroke-width:1.0;" x1="79.5" x2="454.5" y1="561.6563" y2="561.6563"/><text fill="#000000" font-family="sans-serif" font-size="13" font-weight="bold" lengthAdjust="spacing" textLength="14" x="86.5" y="556.9014">15</text><text fill="#000000" font-family="sans-serif" font-size="13" lengthAdjust="spacing" textLength="75" x="104.5" y="556.9014">submits data</text><polygon fill="#181818" points="90.5,586.1797,80.5,590.1797,90.5,594.1797,86.5,590.1797" style="stroke:#181818;stroke-width:1.0;"/><line style="stroke:#181818;stroke-width:1.0;stroke-dasharray:2.0,2.0;" x1="84.5" x2="464.5" y1="590.1797" y2="590.1797"/><text fill="#000000" font-family="sans-serif" font-size="13" font-weight="bold" lengthAdjust="spacing" textLength="14" x="96.5" y="585.4248">16</text><text fill="#000000" font-family="sans-serif" font-size="13" lengthAdjust="spacing" textLength="158" x="114.5" y="585.4248">displays operation success</text><!--SRC=[hPHBRjmm38RtFWKngmJmz023843HtC3RRXYPun76UbIacxgd3srvZAJnesZZbKoHFpyI5FbgVSI43bpmmLnIS0IIEYfulebehjXG9NrBaCW8-gPzwy0NhCEBzGsSiMKg2h6YhbNFGWug-j6HDmHF5fl1_QwgdkwB0Zi9ldFFbFHi92GuJ15VQsUzPKcerWCWPqkXsSGQ6z4B74xPURpEnr76_aIXoRy0_SOZ71zlE2SDk398q58QJK89q0Evs8QUQ0oPPMwwWt4AFwfIbZnftU65eLKH26T8eILMhNfEmDHgjo3uB5lJel0oP8vLFUXO4GVnsNjLPX-IjQFRbBTlW_PlgCT47o9soH-Enonx6hZVO6lGFlOMynfirYxWdvixGzR3oDgn_C_Zd35lwfz1QgpO_sld6gKgzvjpke2c3r4tX9fhg57mpgEZCY9p34bAmL-GrmHyzwNsW4ZAtpP-2pMLvD2sfMZkU57qoN4EdlxllnHRzNoS3EcZjkSzrlfcM7zrSY6m_XoIGx713wt_SzViz7fXQhjdPtN6TfYMiNI8OeizGuYKCXDtnX3poePw1G00]--></g></svg>