<?xml version="1.0" encoding="us-ascii" standalone="no"?><svg xmlns="http://www.w3.org/2000/svg" xmlns:xlink="http://www.w3.org/1999/xlink" contentStyleType="text/css" height="1017px" preserveAspectRatio="none" style="width:633px;height:1017px;background:#FFFFFF;" version="1.1" viewBox="0 0 633 1017" width="633px" zoomAndPan="magnify"><defs/><g><text fill="#000000" font-family="sans-serif" font-size="14" font-weight="bold" lengthAdjust="spacing" textLength="231" x="202.75" y="28.5352">System Sequence Diagram (SSD)</text><rect fill="#FFFFFF" height="798.3164" style="stroke:#181818;stroke-width:1.0;" width="10" x="89.5" y="128.9766"/><rect fill="#FFFFFF" height="44.6211" style="stroke:#181818;stroke-width:1.0;" width="10" x="569.5" y="174.5977"/><rect fill="#FFFFFF" height="53.6211" style="stroke:#181818;stroke-width:1.0;" width="10" x="569.5" y="248.5293"/><rect fill="#FFFFFF" height="29.3105" style="stroke:#181818;stroke-width:1.0;" width="10" x="569.5" y="830.3613"/><rect fill="#FFFFFF" height="29.3105" style="stroke:#181818;stroke-width:1.0;" width="10" x="569.5" y="888.9824"/><rect fill="none" height="636.7637" style="stroke:#000000;stroke-width:1.5;" width="617.5" x="10" y="135.9766"/><rect fill="none" height="46.6211" style="stroke:#000000;stroke-width:1.5;" width="597.5" x="20" y="263.5293"/><rect fill="none" height="61.9316" style="stroke:#000000;stroke-width:1.5;" width="597.5" x="20" y="324.1504"/><rect fill="none" height="61.9316" style="stroke:#000000;stroke-width:1.5;" width="597.5" x="20" y="400.082"/><rect fill="none" height="61.9316" style="stroke:#000000;stroke-width:1.5;" width="597.5" x="20" y="476.0137"/><rect fill="none" height="61.9316" style="stroke:#000000;stroke-width:1.5;" width="597.5" x="20" y="551.9453"/><rect fill="none" height="61.9316" style="stroke:#000000;stroke-width:1.5;" width="597.5" x="20" y="627.877"/><rect fill="none" height="61.9316" style="stroke:#000000;stroke-width:1.5;" width="597.5" x="20" y="703.8086"/><line style="stroke:#181818;stroke-width:0.5;stroke-dasharray:5.0,5.0;" x1="94" x2="94" y1="118.9766" y2="936.293"/><line style="stroke:#181818;stroke-width:0.5;stroke-dasharray:5.0,5.0;" x1="574.5" x2="574.5" y1="118.9766" y2="936.293"/><text fill="#000000" font-family="sans-serif" font-size="14" lengthAdjust="spacing" textLength="123" x="30" y="116.0234">Unregistered user</text><ellipse cx="94.5" cy="50.9883" fill="#E3E3E3" rx="8" ry="8" style="stroke:#181818;stroke-width:0.5;"/><path d="M94.5,58.9883 L94.5,85.9883 M81.5,66.9883 L107.5,66.9883 M94.5,85.9883 L81.5,100.9883 M94.5,85.9883 L107.5,100.9883 " fill="none" style="stroke:#181818;stroke-width:0.5;"/><text fill="#000000" font-family="sans-serif" font-size="14" lengthAdjust="spacing" textLength="123" x="30" y="948.8281">Unregistered user</text><ellipse cx="94.5" cy="960.2813" fill="#E3E3E3" rx="8" ry="8" style="stroke:#181818;stroke-width:0.5;"/><path d="M94.5,968.2813 L94.5,995.2813 M81.5,976.2813 L107.5,976.2813 M94.5,995.2813 L81.5,1010.2813 M94.5,995.2813 L107.5,1010.2813 " fill="none" style="stroke:#181818;stroke-width:0.5;"/><rect fill="#E3E3E3" height="30.4883" rx="2.5" ry="2.5" style="stroke:#181818;stroke-width:0.5;" width="66" x="541.5" y="87.4883"/><text fill="#000000" font-family="sans-serif" font-size="14" lengthAdjust="spacing" textLength="52" x="548.5" y="108.0234">:System</text><rect fill="#E3E3E3" height="30.4883" rx="2.5" ry="2.5" style="stroke:#181818;stroke-width:0.5;" width="66" x="541.5" y="935.293"/><text fill="#000000" font-family="sans-serif" font-size="14" lengthAdjust="spacing" textLength="52" x="548.5" y="955.8281">:System</text><rect fill="#FFFFFF" height="798.3164" style="stroke:#181818;stroke-width:1.0;" width="10" x="89.5" y="128.9766"/><rect fill="#FFFFFF" height="44.6211" style="stroke:#181818;stroke-width:1.0;" width="10" x="569.5" y="174.5977"/><rect fill="#FFFFFF" height="53.6211" style="stroke:#181818;stroke-width:1.0;" width="10" x="569.5" y="248.5293"/><rect fill="#FFFFFF" height="29.3105" style="stroke:#181818;stroke-width:1.0;" width="10" x="569.5" y="830.3613"/><rect fill="#FFFFFF" height="29.3105" style="stroke:#181818;stroke-width:1.0;" width="10" x="569.5" y="888.9824"/><path d="M10,135.9766 L77,135.9766 L77,143.2871 L67,153.2871 L10,153.2871 L10,135.9766 " fill="#EEEEEE" style="stroke:#000000;stroke-width:1.5;"/><rect fill="none" height="636.7637" style="stroke:#000000;stroke-width:1.5;" width="617.5" x="10" y="135.9766"/><text fill="#000000" font-family="sans-serif" font-size="13" font-weight="bold" lengthAdjust="spacing" textLength="22" x="25" y="149.5449">opt</text><text fill="#000000" font-family="sans-serif" font-size="11" font-weight="bold" lengthAdjust="spacing" textLength="83" x="92" y="148.6113">[Optimal Case]</text><polygon fill="#181818" points="557.5,170.5977,567.5,174.5977,557.5,178.5977,561.5,174.5977" style="stroke:#181818;stroke-width:1.0;"/><line style="stroke:#181818;stroke-width:1.0;" x1="99.5" x2="563.5" y1="174.5977" y2="174.5977"/><text fill="#000000" font-family="sans-serif" font-size="13" font-weight="bold" lengthAdjust="spacing" textLength="9" x="106.5" y="169.8555">1</text><text fill="#000000" font-family="sans-serif" font-size="13" lengthAdjust="spacing" textLength="337" x="119.5" y="169.8555">asks to display a list of properties to filter the results</text><polygon fill="#181818" points="110.5,215.2188,100.5,219.2188,110.5,223.2188,106.5,219.2188" style="stroke:#181818;stroke-width:1.0;"/><line style="stroke:#181818;stroke-width:1.0;" x1="104.5" x2="573.5" y1="219.2188" y2="219.2188"/><text fill="#000000" font-family="sans-serif" font-size="13" font-weight="bold" lengthAdjust="spacing" textLength="9" x="116.5" y="206.8213">2</text><text fill="#000000" font-family="sans-serif" font-size="13" lengthAdjust="spacing" textLength="254" x="129.5" y="199.166">request data [business (buying, renting),</text><text fill="#000000" font-family="sans-serif" font-size="13" lengthAdjust="spacing" textLength="331" x="129.5" y="214.4766">property (house, apartment, land), number of rooms]</text><polygon fill="#181818" points="557.5,244.5293,567.5,248.5293,557.5,252.5293,561.5,248.5293" style="stroke:#181818;stroke-width:1.0;"/><line style="stroke:#181818;stroke-width:1.0;" x1="99.5" x2="563.5" y1="248.5293" y2="248.5293"/><text fill="#000000" font-family="sans-serif" font-size="13" font-weight="bold" lengthAdjust="spacing" textLength="9" x="106.5" y="243.7871">3</text><text fill="#000000" font-family="sans-serif" font-size="13" lengthAdjust="spacing" textLength="131" x="119.5" y="243.7871">types requested data</text><path d="M20,263.5293 L82,263.5293 L82,270.8398 L72,280.8398 L20,280.8398 L20,263.5293 " fill="#EEEEEE" style="stroke:#000000;stroke-width:1.5;"/><rect fill="none" height="46.6211" style="stroke:#000000;stroke-width:1.5;" width="597.5" x="20" y="263.5293"/><text fill="#000000" font-family="sans-serif" font-size="13" font-weight="bold" lengthAdjust="spacing" textLength="17" x="35" y="277.0977">alt</text><text fill="#000000" font-family="sans-serif" font-size="11" font-weight="bold" lengthAdjust="spacing" textLength="89" x="97" y="276.1641">[No Parameters]</text><polygon fill="#181818" points="110.5,298.1504,100.5,302.1504,110.5,306.1504,106.5,302.1504" style="stroke:#181818;stroke-width:1.0;"/><line style="stroke:#181818;stroke-width:1.0;" x1="104.5" x2="573.5" y1="302.1504" y2="302.1504"/><text fill="#000000" font-family="sans-serif" font-size="13" font-weight="bold" lengthAdjust="spacing" textLength="9" x="116.5" y="297.4082">4</text><text fill="#000000" font-family="sans-serif" font-size="13" lengthAdjust="spacing" textLength="215" x="129.5" y="297.4082">display all the properties available</text><path d="M20,324.1504 L82,324.1504 L82,331.4609 L72,341.4609 L20,341.4609 L20,324.1504 " fill="#EEEEEE" style="stroke:#000000;stroke-width:1.5;"/><rect fill="none" height="61.9316" style="stroke:#000000;stroke-width:1.5;" width="597.5" x="20" y="324.1504"/><text fill="#000000" font-family="sans-serif" font-size="13" font-weight="bold" lengthAdjust="spacing" textLength="17" x="35" y="337.7188">alt</text><text fill="#000000" font-family="sans-serif" font-size="11" font-weight="bold" lengthAdjust="spacing" textLength="172" x="97" y="336.7852">[Only selects type of business]</text><polygon fill="#181818" points="110.5,374.082,100.5,378.082,110.5,382.082,106.5,378.082" style="stroke:#181818;stroke-width:1.0;"/><line style="stroke:#181818;stroke-width:1.0;" x1="104.5" x2="573.5" y1="378.082" y2="378.082"/><text fill="#000000" font-family="sans-serif" font-size="13" font-weight="bold" lengthAdjust="spacing" textLength="9" x="116.5" y="365.6846">5</text><text fill="#000000" font-family="sans-serif" font-size="13" lengthAdjust="spacing" textLength="376" x="129.5" y="358.0293">shows all the types of properties with any number of rooms</text><text fill="#000000" font-family="sans-serif" font-size="13" lengthAdjust="spacing" textLength="267" x="129.5" y="373.3398">according to the type of business selected</text><path d="M20,400.082 L82,400.082 L82,407.3926 L72,417.3926 L20,417.3926 L20,400.082 " fill="#EEEEEE" style="stroke:#000000;stroke-width:1.5;"/><rect fill="none" height="61.9316" style="stroke:#000000;stroke-width:1.5;" width="597.5" x="20" y="400.082"/><text fill="#000000" font-family="sans-serif" font-size="13" font-weight="bold" lengthAdjust="spacing" textLength="17" x="35" y="413.6504">alt</text><text fill="#000000" font-family="sans-serif" font-size="11" font-weight="bold" lengthAdjust="spacing" textLength="290" x="97" y="412.7168">[Only selects type of business and type of property]</text><polygon fill="#181818" points="110.5,450.0137,100.5,454.0137,110.5,458.0137,106.5,454.0137" style="stroke:#181818;stroke-width:1.0;"/><line style="stroke:#181818;stroke-width:1.0;" x1="104.5" x2="573.5" y1="454.0137" y2="454.0137"/><text fill="#000000" font-family="sans-serif" font-size="13" font-weight="bold" lengthAdjust="spacing" textLength="9" x="116.5" y="441.6162">6</text><text fill="#000000" font-family="sans-serif" font-size="13" lengthAdjust="spacing" textLength="343" x="129.5" y="433.9609">Shows the type of business and property selected with</text><text fill="#000000" font-family="sans-serif" font-size="13" lengthAdjust="spacing" textLength="135" x="129.5" y="449.2715">any number of rooms</text><path d="M20,476.0137 L82,476.0137 L82,483.3242 L72,493.3242 L20,493.3242 L20,476.0137 " fill="#EEEEEE" style="stroke:#000000;stroke-width:1.5;"/><rect fill="none" height="61.9316" style="stroke:#000000;stroke-width:1.5;" width="597.5" x="20" y="476.0137"/><text fill="#000000" font-family="sans-serif" font-size="13" font-weight="bold" lengthAdjust="spacing" textLength="17" x="35" y="489.582">alt</text><text fill="#000000" font-family="sans-serif" font-size="11" font-weight="bold" lengthAdjust="spacing" textLength="299" x="97" y="488.6484">[Only selects type of business and number of rooms]</text><polygon fill="#181818" points="110.5,525.9453,100.5,529.9453,110.5,533.9453,106.5,529.9453" style="stroke:#181818;stroke-width:1.0;"/><line style="stroke:#181818;stroke-width:1.0;" x1="104.5" x2="573.5" y1="529.9453" y2="529.9453"/><text fill="#000000" font-family="sans-serif" font-size="13" font-weight="bold" lengthAdjust="spacing" textLength="9" x="116.5" y="517.5479">7</text><text fill="#000000" font-family="sans-serif" font-size="13" lengthAdjust="spacing" textLength="399" x="129.5" y="509.8926">Shows the type of business and number of rooms selected with</text><text fill="#000000" font-family="sans-serif" font-size="13" lengthAdjust="spacing" textLength="127" x="129.5" y="525.2031">any type of property</text><path d="M20,551.9453 L82,551.9453 L82,559.2559 L72,569.2559 L20,569.2559 L20,551.9453 " fill="#EEEEEE" style="stroke:#000000;stroke-width:1.5;"/><rect fill="none" height="61.9316" style="stroke:#000000;stroke-width:1.5;" width="597.5" x="20" y="551.9453"/><text fill="#000000" font-family="sans-serif" font-size="13" font-weight="bold" lengthAdjust="spacing" textLength="17" x="35" y="565.5137">alt</text><text fill="#000000" font-family="sans-serif" font-size="11" font-weight="bold" lengthAdjust="spacing" textLength="170" x="97" y="564.5801">[Only selects type of property]</text><polygon fill="#181818" points="110.5,601.877,100.5,605.877,110.5,609.877,106.5,605.877" style="stroke:#181818;stroke-width:1.0;"/><line style="stroke:#181818;stroke-width:1.0;" x1="104.5" x2="573.5" y1="605.877" y2="605.877"/><text fill="#000000" font-family="sans-serif" font-size="13" font-weight="bold" lengthAdjust="spacing" textLength="9" x="116.5" y="593.4795">8</text><text fill="#000000" font-family="sans-serif" font-size="13" lengthAdjust="spacing" textLength="368" x="129.5" y="585.8242">shows all the types of business with any number of rooms</text><text fill="#000000" font-family="sans-serif" font-size="13" lengthAdjust="spacing" textLength="264" x="129.5" y="601.1348">according to the type of property selected</text><path d="M20,627.877 L82,627.877 L82,635.1875 L72,645.1875 L20,645.1875 L20,627.877 " fill="#EEEEEE" style="stroke:#000000;stroke-width:1.5;"/><rect fill="none" height="61.9316" style="stroke:#000000;stroke-width:1.5;" width="597.5" x="20" y="627.877"/><text fill="#000000" font-family="sans-serif" font-size="13" font-weight="bold" lengthAdjust="spacing" textLength="17" x="35" y="641.4453">alt</text><text fill="#000000" font-family="sans-serif" font-size="11" font-weight="bold" lengthAdjust="spacing" textLength="297" x="97" y="640.5117">[Only selects type of property and number of rooms]</text><polygon fill="#181818" points="110.5,677.8086,100.5,681.8086,110.5,685.8086,106.5,681.8086" style="stroke:#181818;stroke-width:1.0;"/><line style="stroke:#181818;stroke-width:1.0;" x1="104.5" x2="573.5" y1="681.8086" y2="681.8086"/><text fill="#000000" font-family="sans-serif" font-size="13" font-weight="bold" lengthAdjust="spacing" textLength="9" x="116.5" y="669.4111">9</text><text fill="#000000" font-family="sans-serif" font-size="13" lengthAdjust="spacing" textLength="396" x="129.5" y="661.7559">Shows the type of property and number of rooms selected with</text><text fill="#000000" font-family="sans-serif" font-size="13" lengthAdjust="spacing" textLength="130" x="129.5" y="677.0664">any type of business</text><path d="M20,703.8086 L82,703.8086 L82,711.1191 L72,721.1191 L20,721.1191 L20,703.8086 " fill="#EEEEEE" style="stroke:#000000;stroke-width:1.5;"/><rect fill="none" height="61.9316" style="stroke:#000000;stroke-width:1.5;" width="597.5" x="20" y="703.8086"/><text fill="#000000" font-family="sans-serif" font-size="13" font-weight="bold" lengthAdjust="spacing" textLength="17" x="35" y="717.377">alt</text><text fill="#000000" font-family="sans-serif" font-size="11" font-weight="bold" lengthAdjust="spacing" textLength="179" x="97" y="716.4434">[Only selects number of rooms]</text><polygon fill="#181818" points="110.5,753.7402,100.5,757.7402,110.5,761.7402,106.5,757.7402" style="stroke:#181818;stroke-width:1.0;"/><line style="stroke:#181818;stroke-width:1.0;" x1="104.5" x2="573.5" y1="757.7402" y2="757.7402"/><text fill="#000000" font-family="sans-serif" font-size="13" font-weight="bold" lengthAdjust="spacing" textLength="18" x="116.5" y="745.3428">10</text><text fill="#000000" font-family="sans-serif" font-size="13" lengthAdjust="spacing" textLength="376" x="138.5" y="737.6875">shows all the types of properties and business according to</text><text fill="#000000" font-family="sans-serif" font-size="13" lengthAdjust="spacing" textLength="184" x="138.5" y="752.998">the type of business selected</text><polygon fill="#181818" points="110.5,797.0508,100.5,801.0508,110.5,805.0508,106.5,801.0508" style="stroke:#181818;stroke-width:1.0;"/><line style="stroke:#181818;stroke-width:1.0;stroke-dasharray:2.0,2.0;" x1="104.5" x2="573.5" y1="801.0508" y2="801.0508"/><text fill="#000000" font-family="sans-serif" font-size="13" font-weight="bold" lengthAdjust="spacing" textLength="18" x="116.5" y="796.3086">11</text><text fill="#000000" font-family="sans-serif" font-size="13" lengthAdjust="spacing" textLength="429" x="138.5" y="796.3086">shows listed properties and asks to sort it by price and/or by parish</text><polygon fill="#181818" points="557.5,826.3613,567.5,830.3613,557.5,834.3613,561.5,830.3613" style="stroke:#181818;stroke-width:1.0;"/><line style="stroke:#181818;stroke-width:1.0;" x1="99.5" x2="563.5" y1="830.3613" y2="830.3613"/><text fill="#000000" font-family="sans-serif" font-size="13" font-weight="bold" lengthAdjust="spacing" textLength="18" x="106.5" y="825.6191">12</text><text fill="#000000" font-family="sans-serif" font-size="13" lengthAdjust="spacing" textLength="141" x="128.5" y="825.6191">selects sorting criteria</text><polygon fill="#181818" points="110.5,855.6719,100.5,859.6719,110.5,863.6719,106.5,859.6719" style="stroke:#181818;stroke-width:1.0;"/><line style="stroke:#181818;stroke-width:1.0;stroke-dasharray:2.0,2.0;" x1="104.5" x2="573.5" y1="859.6719" y2="859.6719"/><text fill="#000000" font-family="sans-serif" font-size="13" font-weight="bold" lengthAdjust="spacing" textLength="18" x="116.5" y="854.9297">13</text><text fill="#000000" font-family="sans-serif" font-size="13" lengthAdjust="spacing" textLength="287" x="138.5" y="854.9297">shows selected properties by selected criteria</text><polygon fill="#181818" points="557.5,884.9824,567.5,888.9824,557.5,892.9824,561.5,888.9824" style="stroke:#181818;stroke-width:1.0;"/><line style="stroke:#181818;stroke-width:1.0;" x1="99.5" x2="563.5" y1="888.9824" y2="888.9824"/><text fill="#000000" font-family="sans-serif" font-size="13" font-weight="bold" lengthAdjust="spacing" textLength="18" x="106.5" y="884.2402">14</text><text fill="#000000" font-family="sans-serif" font-size="13" lengthAdjust="spacing" textLength="82" x="128.5" y="884.2402">submits data</text><polygon fill="#181818" points="110.5,914.293,100.5,918.293,110.5,922.293,106.5,918.293" style="stroke:#181818;stroke-width:1.0;"/><line style="stroke:#181818;stroke-width:1.0;stroke-dasharray:2.0,2.0;" x1="104.5" x2="573.5" y1="918.293" y2="918.293"/><text fill="#000000" font-family="sans-serif" font-size="13" font-weight="bold" lengthAdjust="spacing" textLength="18" x="116.5" y="913.5508">15</text><text fill="#000000" font-family="sans-serif" font-size="13" lengthAdjust="spacing" textLength="170" x="138.5" y="913.5508">displays operation success</text><!--SRC=[jLLDRzim3BtxLn0vfK26tNFOPJsl0uoUrXreYx65o98dqGtyxqVPiUlQ-MYtn8T0CQN7znvfCUorhT5Z1PMpBY-zgmZODvI4CL9ZliU2KcuDWQUSqHPckY6KgDn1sm9sQ08b2MkMhMaRc2f8wKz3DYTur5Z4xUiqVNn84cpOsQRAoCiwP-TXzMmz5LfEULBG1F8hm03FiaWa4-jSrsWPLjiUkelsooHnDSDJpRf20zyniX1G_OfCFK02yiGLVFasKDiAm3u0Er0wr0PRG32I7zmEQkzgafpKnNVQ22lWCZeG6iEXmnjJ32pYooEufEdIRUM4E22e2XdXLzO4RIa4M6TDAwPj96vP5WyRUB77j2siIoSER02ZyafsRC2WLRAfDorozCvLuNUNLD59BWl1tDQYwCX8N8wSpalf0eRbzuU3dx7O93Q4j-19lQEPndIEJQp4LzG6CscVAS8Pyl4XgsPKdgnf8P2HHWoTdEZ4OEeLPg5qXp3owhruN-k3vXBGjdENfJIOvywhsERI4CFvQV8ZAr9t4YUyrFXoQ9GhYjDEyKcs4Mriju5wRu28NLfmJrNpLFybQbwwKzeMDjvMt0UhSwOVHpN_qesBajv9satgTWdiOjt63_usuZwdu_er4kMyzUIqL2_sTbV7A6fWEASOXncfER5Xw0Nd6JH3rieEBHDQWbzb3iV_w7KeFpLP1YiZQjIQUospGkFrGJbdFTPzmZkRN57la3zChyagBVGk3xmbfUCmam8B5MJjh43b-T1wo_H_0G00]--></g></svg>