<?xml version="1.0" encoding="us-ascii" standalone="no"?><svg xmlns="http://www.w3.org/2000/svg" xmlns:xlink="http://www.w3.org/1999/xlink" contentStyleType="text/css" height="494px" preserveAspectRatio="none" style="width:599px;height:494px;background:#FFFFFF;" version="1.1" viewBox="0 0 599 494" width="599px" zoomAndPan="magnify"><defs/><g><text fill="#000000" font-family="sans-serif" font-size="14" font-weight="bold" lengthAdjust="spacing" textLength="231" x="190.75" y="28.5352">System Sequence Diagram (SSD)</text><rect fill="#FFFFFF" height="275.1055" style="stroke:#181818;stroke-width:1.0;" width="10" x="79.5" y="128.9766"/><rect fill="#FFFFFF" height="44.6211" style="stroke:#181818;stroke-width:1.0;" width="10" x="555.5" y="174.5977"/><rect fill="#FFFFFF" height="29.3105" style="stroke:#181818;stroke-width:1.0;" width="10" x="555.5" y="248.5293"/><rect fill="#FFFFFF" height="29.3105" style="stroke:#181818;stroke-width:1.0;" width="10" x="555.5" y="307.1504"/><rect fill="#FFFFFF" height="29.3105" style="stroke:#181818;stroke-width:1.0;" width="10" x="555.5" y="365.7715"/><line style="stroke:#181818;stroke-width:0.5;stroke-dasharray:5.0,5.0;" x1="84" x2="84" y1="118.9766" y2="413.082"/><line style="stroke:#181818;stroke-width:0.5;stroke-dasharray:5.0,5.0;" x1="560.5" x2="560.5" y1="118.9766" y2="413.082"/><text fill="#000000" font-family="sans-serif" font-size="14" lengthAdjust="spacing" textLength="123" x="20" y="116.0234">Unregistered user</text><ellipse cx="84.5" cy="50.9883" fill="#E3E3E3" rx="8" ry="8" style="stroke:#181818;stroke-width:0.5;"/><path d="M84.5,58.9883 L84.5,85.9883 M71.5,66.9883 L97.5,66.9883 M84.5,85.9883 L71.5,100.9883 M84.5,85.9883 L97.5,100.9883 " fill="none" style="stroke:#181818;stroke-width:0.5;"/><text fill="#000000" font-family="sans-serif" font-size="14" lengthAdjust="spacing" textLength="123" x="20" y="425.6172">Unregistered user</text><ellipse cx="84.5" cy="437.0703" fill="#E3E3E3" rx="8" ry="8" style="stroke:#181818;stroke-width:0.5;"/><path d="M84.5,445.0703 L84.5,472.0703 M71.5,453.0703 L97.5,453.0703 M84.5,472.0703 L71.5,487.0703 M84.5,472.0703 L97.5,487.0703 " fill="none" style="stroke:#181818;stroke-width:0.5;"/><rect fill="#E3E3E3" height="30.4883" rx="2.5" ry="2.5" style="stroke:#181818;stroke-width:0.5;" width="66" x="527.5" y="87.4883"/><text fill="#000000" font-family="sans-serif" font-size="14" lengthAdjust="spacing" textLength="52" x="534.5" y="108.0234">:System</text><rect fill="#E3E3E3" height="30.4883" rx="2.5" ry="2.5" style="stroke:#181818;stroke-width:0.5;" width="66" x="527.5" y="412.082"/><text fill="#000000" font-family="sans-serif" font-size="14" lengthAdjust="spacing" textLength="52" x="534.5" y="432.6172">:System</text><rect fill="#FFFFFF" height="275.1055" style="stroke:#181818;stroke-width:1.0;" width="10" x="79.5" y="128.9766"/><rect fill="#FFFFFF" height="44.6211" style="stroke:#181818;stroke-width:1.0;" width="10" x="555.5" y="174.5977"/><rect fill="#FFFFFF" height="29.3105" style="stroke:#181818;stroke-width:1.0;" width="10" x="555.5" y="248.5293"/><rect fill="#FFFFFF" height="29.3105" style="stroke:#181818;stroke-width:1.0;" width="10" x="555.5" y="307.1504"/><rect fill="#FFFFFF" height="29.3105" style="stroke:#181818;stroke-width:1.0;" width="10" x="555.5" y="365.7715"/><polygon fill="#181818" points="543.5,170.5977,553.5,174.5977,543.5,178.5977,547.5,174.5977" style="stroke:#181818;stroke-width:1.0;"/><line style="stroke:#181818;stroke-width:1.0;" x1="89.5" x2="549.5" y1="174.5977" y2="174.5977"/><text fill="#000000" font-family="sans-serif" font-size="13" font-weight="bold" lengthAdjust="spacing" textLength="9" x="96.5" y="169.8555">1</text><text fill="#000000" font-family="sans-serif" font-size="13" lengthAdjust="spacing" textLength="337" x="109.5" y="169.8555">asks to display a list of properties to filter the results</text><polygon fill="#181818" points="100.5,215.2188,90.5,219.2188,100.5,223.2188,96.5,219.2188" style="stroke:#181818;stroke-width:1.0;"/><line style="stroke:#181818;stroke-width:1.0;stroke-dasharray:2.0,2.0;" x1="94.5" x2="559.5" y1="219.2188" y2="219.2188"/><text fill="#000000" font-family="sans-serif" font-size="13" font-weight="bold" lengthAdjust="spacing" textLength="9" x="106.5" y="206.8213">2</text><text fill="#000000" font-family="sans-serif" font-size="13" lengthAdjust="spacing" textLength="254" x="119.5" y="199.166">request data [business (buying, renting),</text><text fill="#000000" font-family="sans-serif" font-size="13" lengthAdjust="spacing" textLength="331" x="119.5" y="214.4766">property (house, apartment, land), number of rooms]</text><polygon fill="#181818" points="543.5,244.5293,553.5,248.5293,543.5,252.5293,547.5,248.5293" style="stroke:#181818;stroke-width:1.0;"/><line style="stroke:#181818;stroke-width:1.0;" x1="89.5" x2="549.5" y1="248.5293" y2="248.5293"/><text fill="#000000" font-family="sans-serif" font-size="13" font-weight="bold" lengthAdjust="spacing" textLength="9" x="96.5" y="243.7871">3</text><text fill="#000000" font-family="sans-serif" font-size="13" lengthAdjust="spacing" textLength="131" x="109.5" y="243.7871">types requested data</text><polygon fill="#181818" points="100.5,273.8398,90.5,277.8398,100.5,281.8398,96.5,277.8398" style="stroke:#181818;stroke-width:1.0;"/><line style="stroke:#181818;stroke-width:1.0;stroke-dasharray:2.0,2.0;" x1="94.5" x2="559.5" y1="277.8398" y2="277.8398"/><text fill="#000000" font-family="sans-serif" font-size="13" font-weight="bold" lengthAdjust="spacing" textLength="9" x="106.5" y="273.0977">4</text><text fill="#000000" font-family="sans-serif" font-size="13" lengthAdjust="spacing" textLength="429" x="119.5" y="273.0977">shows listed properties and asks to sort it by price and/or by parish</text><polygon fill="#181818" points="543.5,303.1504,553.5,307.1504,543.5,311.1504,547.5,307.1504" style="stroke:#181818;stroke-width:1.0;"/><line style="stroke:#181818;stroke-width:1.0;" x1="89.5" x2="549.5" y1="307.1504" y2="307.1504"/><text fill="#000000" font-family="sans-serif" font-size="13" font-weight="bold" lengthAdjust="spacing" textLength="9" x="96.5" y="302.4082">5</text><text fill="#000000" font-family="sans-serif" font-size="13" lengthAdjust="spacing" textLength="141" x="109.5" y="302.4082">selects sorting criteria</text><polygon fill="#181818" points="100.5,332.4609,90.5,336.4609,100.5,340.4609,96.5,336.4609" style="stroke:#181818;stroke-width:1.0;"/><line style="stroke:#181818;stroke-width:1.0;stroke-dasharray:2.0,2.0;" x1="94.5" x2="559.5" y1="336.4609" y2="336.4609"/><text fill="#000000" font-family="sans-serif" font-size="13" font-weight="bold" lengthAdjust="spacing" textLength="9" x="106.5" y="331.7188">6</text><text fill="#000000" font-family="sans-serif" font-size="13" lengthAdjust="spacing" textLength="287" x="119.5" y="331.7188">shows selected properties by selected criteria</text><polygon fill="#181818" points="543.5,361.7715,553.5,365.7715,543.5,369.7715,547.5,365.7715" style="stroke:#181818;stroke-width:1.0;"/><line style="stroke:#181818;stroke-width:1.0;" x1="89.5" x2="549.5" y1="365.7715" y2="365.7715"/><text fill="#000000" font-family="sans-serif" font-size="13" font-weight="bold" lengthAdjust="spacing" textLength="9" x="96.5" y="361.0293">7</text><text fill="#000000" font-family="sans-serif" font-size="13" lengthAdjust="spacing" textLength="82" x="109.5" y="361.0293">submits data</text><polygon fill="#181818" points="100.5,391.082,90.5,395.082,100.5,399.082,96.5,395.082" style="stroke:#181818;stroke-width:1.0;"/><line style="stroke:#181818;stroke-width:1.0;stroke-dasharray:2.0,2.0;" x1="94.5" x2="559.5" y1="395.082" y2="395.082"/><text fill="#000000" font-family="sans-serif" font-size="13" font-weight="bold" lengthAdjust="spacing" textLength="9" x="106.5" y="390.3398">8</text><text fill="#000000" font-family="sans-serif" font-size="13" lengthAdjust="spacing" textLength="170" x="119.5" y="390.3398">displays operation success</text><!--SRC=[dP8nRzmm38Lt_GhYfWjmGVSRkZHx1YDJqe6MUJPnigI8L0F_-rBsvP2WBT2B9rgatllq93bpp5XmXZd5vAUIPW8jbPnSEndz6KVgT0a4XRnY7CF70PbmI6ySHpXX479EMMsqMqHfXevUAqLFyC0ujl5zrptSEOTLKwnpJyLghwd0xYaM6jbs5HgW2fKTeC2J5SwSb3rdZ0gxuoQzThVIkPGL7hFoZ05-OACmKVw5Ifk00_jQ1VVVtz6E9d0Mq0G3Imwu048mVqWdo2LbCazQ-oSEHWKwjGIa1fLLxshnJj4MB-BtvhFw7MsBHM2o0oh2Sr-58ud0lg-BfNQmVbGhxWxm4Y- -2-odP14S0DlHPviuGC0usD2MMeCiAStoStKTwAymVvnObsn7kX1Pp8tfbhF8bDvaJSasVmZ9qAvfIYeAhD0lDi5szTRyPXVS_h6mJ3SH2mLxTBAgjaVc2zjTy1UeDwNFtCPqNVwa_DzujP_Py6uDylBa11eAAgTeKjxRm_Y7_My0]--></g></svg>