<?xml version="1.0" encoding="UTF-8" standalone="no"?><svg xmlns="http://www.w3.org/2000/svg" xmlns:xlink="http://www.w3.org/1999/xlink" contentStyleType="text/css" height="488px" preserveAspectRatio="none" style="width:897px;height:488px;background:#FFFFFF;" version="1.1" viewBox="0 0 897 488" width="897px" zoomAndPan="magnify"><defs/><g><rect fill="#FFFFFF" height="298.9375" style="stroke:#181818;stroke-width:1.0;" width="10" x="359" y="111.4688"/><rect fill="#FFFFFF" height="133.3125" style="stroke:#181818;stroke-width:1.0;" width="10" x="364" y="268.0938"/><rect fill="#FFFFFF" height="28" style="stroke:#181818;stroke-width:1.0;" width="10" x="369" y="320.25"/><rect fill="none" height="236.7813" style="stroke:#000000;stroke-width:1.5;" width="661.5" x="229.5" y="126.4688"/><line style="stroke:#181818;stroke-width:0.5;stroke-dasharray:5.0,5.0;" x1="363.5" x2="363.5" y1="70.3125" y2="419.4063"/><line style="stroke:#181818;stroke-width:0.5;stroke-dasharray:5.0,5.0;" x1="807" x2="807" y1="201.2813" y2="419.4063"/><rect fill="#E3E3E3" height="64.3125" rx="2.5" ry="2.5" style="stroke:#181818;stroke-width:0.5;" width="249" x="239.5" y="5"/><text fill="#000000" font-family="sans-serif" font-size="20" lengthAdjust="spacing" textLength="221" x="253.5" y="32.7617">announcementRepository</text><text fill="#000000" font-family="sans-serif" font-size="20" lengthAdjust="spacing" textLength="235" x="246.5" y="57.918">:Announcement Repository</text><rect fill="#E3E3E3" height="64.3125" rx="2.5" ry="2.5" style="stroke:#181818;stroke-width:0.5;" width="249" x="239.5" y="418.4063"/><text fill="#000000" font-family="sans-serif" font-size="20" lengthAdjust="spacing" textLength="221" x="253.5" y="446.168">announcementRepository</text><text fill="#000000" font-family="sans-serif" font-size="20" lengthAdjust="spacing" textLength="235" x="246.5" y="471.3242">:Announcement Repository</text><rect fill="#E3E3E3" height="64.3125" rx="2.5" ry="2.5" style="stroke:#181818;stroke-width:0.5;" width="148" x="733" y="418.4063"/><text fill="#000000" font-family="sans-serif" font-size="20" lengthAdjust="spacing" textLength="126" x="744" y="446.168">announcement</text><text fill="#000000" font-family="sans-serif" font-size="20" lengthAdjust="spacing" textLength="134" x="740" y="471.3242">:Announcement</text><rect fill="#FFFFFF" height="298.9375" style="stroke:#181818;stroke-width:1.0;" width="10" x="359" y="111.4688"/><rect fill="#FFFFFF" height="133.3125" style="stroke:#181818;stroke-width:1.0;" width="10" x="364" y="268.0938"/><rect fill="#FFFFFF" height="28" style="stroke:#181818;stroke-width:1.0;" width="10" x="369" y="320.25"/><polygon fill="#181818" points="347,107.4688,357,111.4688,347,115.4688,351,111.4688" style="stroke:#181818;stroke-width:1.0;"/><line style="stroke:#181818;stroke-width:1.0;" x1="0" x2="353" y1="111.4688" y2="111.4688"/><text fill="#000000" font-family="sans-serif" font-size="20" font-weight="bold" lengthAdjust="spacing" textLength="22" x="7" y="105.0742">72</text><text fill="#000000" font-family="sans-serif" font-size="20" lengthAdjust="spacing" textLength="314" x="33" y="105.0742">createAnnouncement(propertyData)</text><path d="M229.5,126.4688 L484.5,126.4688 L484.5,143.625 L474.5,153.625 L229.5,153.625 L229.5,126.4688 " fill="#EEEEEE" style="stroke:#000000;stroke-width:1.5;"/><rect fill="none" height="236.7813" style="stroke:#000000;stroke-width:1.5;" width="661.5" x="229.5" y="126.4688"/><text fill="#000000" font-family="sans-serif" font-size="20" font-weight="bold" lengthAdjust="spacing" textLength="210" x="244.5" y="148.2305">Create Announcement</text><polygon fill="#181818" points="721,180.7813,731,184.7813,721,188.7813,725,184.7813" style="stroke:#181818;stroke-width:1.0;"/><line style="stroke:#181818;stroke-width:1.0;" x1="369" x2="727" y1="184.7813" y2="184.7813"/><text fill="#000000" font-family="sans-serif" font-size="20" font-weight="bold" lengthAdjust="spacing" textLength="22" x="376" y="178.3867">73</text><text fill="#000000" font-family="sans-serif" font-size="20" lengthAdjust="spacing" textLength="314" x="402" y="178.3867">createAnnouncement(propertyData)</text><rect fill="#E3E3E3" height="64.3125" rx="2.5" ry="2.5" style="stroke:#181818;stroke-width:0.5;" width="148" x="733" y="153.625"/><text fill="#000000" font-family="sans-serif" font-size="20" lengthAdjust="spacing" textLength="126" x="744" y="181.3867">announcement</text><text fill="#000000" font-family="sans-serif" font-size="20" lengthAdjust="spacing" textLength="134" x="740" y="206.543">:Announcement</text><line style="stroke:#181818;stroke-width:1.0;" x1="369" x2="416" y1="255.0938" y2="255.0938"/><line style="stroke:#181818;stroke-width:1.0;" x1="416" x2="416" y1="255.0938" y2="268.0938"/><line style="stroke:#181818;stroke-width:1.0;" x1="375" x2="416" y1="268.0938" y2="268.0938"/><polygon fill="#181818" points="385,264.0938,375,268.0938,385,272.0938,381,268.0938" style="stroke:#181818;stroke-width:1.0;"/><text fill="#000000" font-family="sans-serif" font-size="20" font-weight="bold" lengthAdjust="spacing" textLength="22" x="381" y="248.6992">74</text><text fill="#000000" font-family="sans-serif" font-size="20" lengthAdjust="spacing" textLength="307" x="407" y="248.6992">addAnnouncement (announcement)</text><line style="stroke:#181818;stroke-width:1.0;" x1="379" x2="421" y1="312.25" y2="312.25"/><line style="stroke:#181818;stroke-width:1.0;" x1="421" x2="421" y1="312.25" y2="325.25"/><line style="stroke:#181818;stroke-width:1.0;" x1="380" x2="421" y1="325.25" y2="325.25"/><polygon fill="#181818" points="390,321.25,380,325.25,390,329.25,386,325.25" style="stroke:#181818;stroke-width:1.0;"/><text fill="#000000" font-family="sans-serif" font-size="20" font-weight="bold" lengthAdjust="spacing" textLength="22" x="386" y="305.8555">75</text><text fill="#000000" font-family="sans-serif" font-size="20" lengthAdjust="spacing" textLength="335" x="412" y="305.8555">validateAnnouncement(announcement)</text><polygon fill="#181818" points="11,397.4063,1,401.4063,11,405.4063,7,401.4063" style="stroke:#181818;stroke-width:1.0;"/><line style="stroke:#181818;stroke-width:1.0;stroke-dasharray:2.0,2.0;" x1="5" x2="358" y1="401.4063" y2="401.4063"/><text fill="#000000" font-family="sans-serif" font-size="20" font-weight="bold" lengthAdjust="spacing" textLength="22" x="17" y="395.0117">76</text><text fill="#000000" font-family="sans-serif" font-size="20" lengthAdjust="spacing" textLength="126" x="43" y="395.0117">announcement</text><!--SRC=[dP71QiCm44Jl-eebfoGGABaKJ2cKXdv0S-rbAsqSONabf5MA-_KrQKjb4sFJFUxCZjwWr5WE6B5rNZTamD09ivCNptAqdmJxEvL-BT1wzleSVKiWCLEX1DGDrdIKpX54qe9SkzAGpcZyX-KQJkWIATMlnMeRa0LMoEmpQsg9vPM2JrPyxDwuUYe4-5DMW0bk7qq7Z-Ak6UL2ASpYERVl5E5-htQF4qzKe2EXK7cy3j47Yj8TK72Z-YmjzjARfZ2Xdphw7E3v6ZP2WP-vVGqzM-dVRXSmpKTErKLZ1X-nBesR0dP1v_zJND1PCwuu91ayC0CpC1jQmavirFVTmsutrQ0Q26e-MNq1]--></g></svg>