<?xml version="1.0" encoding="us-ascii" standalone="no"?><svg xmlns="http://www.w3.org/2000/svg" xmlns:xlink="http://www.w3.org/1999/xlink" contentStyleType="text/css" height="190px" preserveAspectRatio="none" style="width:335px;height:190px;background:#FFFFFF;" version="1.1" viewBox="0 0 335 190" width="335.5px" zoomAndPan="magnify"><defs/><g><rect fill="#FFFFFF" height="115.0938" style="stroke:#181818;stroke-width:0.5;" width="5" x="79" y="40.9023"/><rect fill="#FFFFFF" height="14.2617" style="stroke:#181818;stroke-width:0.5;" width="5" x="140" y="66.9258"/><rect fill="#FFFFFF" height="14.2617" style="stroke:#181818;stroke-width:0.5;" width="5" x="193.5" y="95.4492"/><rect fill="#FFFFFF" height="14.2617" style="stroke:#181818;stroke-width:0.5;" width="5" x="274" y="123.9727"/><rect fill="none" height="93.832" style="stroke:#000000;stroke-width:0.75;" width="287.75" x="45" y="48.4023"/><line style="stroke:#181818;stroke-width:0.25;stroke-dasharray:5.0,5.0;" x1="81.5" x2="81.5" y1="25.6406" y2="164.9961"/><line style="stroke:#181818;stroke-width:0.25;stroke-dasharray:5.0,5.0;" x1="142.25" x2="142.25" y1="25.6406" y2="164.9961"/><line style="stroke:#181818;stroke-width:0.25;stroke-dasharray:5.0,5.0;" x1="195.75" x2="195.75" y1="25.6406" y2="164.9961"/><line style="stroke:#181818;stroke-width:0.25;stroke-dasharray:5.0,5.0;" x1="276.25" x2="276.25" y1="25.6406" y2="164.9961"/><rect fill="#E3E3E3" height="14.8203" rx="1.25" ry="1.25" style="stroke:#181818;stroke-width:0.25;" width="63" x="50" y="10.3203"/><text fill="#000000" font-family="sans-serif" font-size="7" lengthAdjust="spacing" textLength="56" x="53.5" y="20.1572">:PublishController</text><rect fill="#E3E3E3" height="14.8203" rx="1.25" ry="1.25" style="stroke:#181818;stroke-width:0.25;" width="63" x="50" y="164.4961"/><text fill="#000000" font-family="sans-serif" font-size="7" lengthAdjust="spacing" textLength="56" x="53.5" y="174.333">:PublishController</text><rect fill="#E3E3E3" height="14.8203" rx="1.25" ry="1.25" style="stroke:#181818;stroke-width:0.25;" width="48.5" x="118.25" y="10.3203"/><text fill="#000000" font-family="sans-serif" font-size="7" lengthAdjust="spacing" textLength="41.5" x="121.75" y="20.1572">:Repositories</text><rect fill="#E3E3E3" height="14.8203" rx="1.25" ry="1.25" style="stroke:#181818;stroke-width:0.25;" width="48.5" x="118.25" y="164.4961"/><text fill="#000000" font-family="sans-serif" font-size="7" lengthAdjust="spacing" textLength="41.5" x="121.75" y="174.333">:Repositories</text><rect fill="#E3E3E3" height="22.6406" rx="1.25" ry="1.25" style="stroke:#181818;stroke-width:0.25;" width="48.5" x="171.75" y="2.5"/><text fill="#000000" font-family="sans-serif" font-size="7" lengthAdjust="spacing" textLength="37" x="177.5" y="12.3369">repositories</text><text fill="#000000" font-family="sans-serif" font-size="7" lengthAdjust="spacing" textLength="41.5" x="175.25" y="20.1572">:Repositories</text><rect fill="#E3E3E3" height="22.6406" rx="1.25" ry="1.25" style="stroke:#181818;stroke-width:0.25;" width="48.5" x="171.75" y="164.4961"/><text fill="#000000" font-family="sans-serif" font-size="7" lengthAdjust="spacing" textLength="37" x="177.5" y="174.333">repositories</text><text fill="#000000" font-family="sans-serif" font-size="7" lengthAdjust="spacing" textLength="41.5" x="175.25" y="182.1533">:Repositories</text><rect fill="#E3E3E3" height="22.6406" rx="1.25" ry="1.25" style="stroke:#181818;stroke-width:0.25;" width="102.5" x="225.25" y="2.5"/><text fill="#000000" font-family="sans-serif" font-size="7" lengthAdjust="spacing" textLength="89" x="231" y="12.3369">typesOfBusinessRepository:</text><text fill="#000000" font-family="sans-serif" font-size="7" lengthAdjust="spacing" textLength="95.5" x="228.75" y="20.1572">Types Of Business Repository</text><rect fill="#E3E3E3" height="22.6406" rx="1.25" ry="1.25" style="stroke:#181818;stroke-width:0.25;" width="102.5" x="225.25" y="164.4961"/><text fill="#000000" font-family="sans-serif" font-size="7" lengthAdjust="spacing" textLength="89" x="231" y="174.333">typesOfBusinessRepository:</text><text fill="#000000" font-family="sans-serif" font-size="7" lengthAdjust="spacing" textLength="95.5" x="228.75" y="182.1533">Types Of Business Repository</text><rect fill="#FFFFFF" height="115.0938" style="stroke:#181818;stroke-width:0.5;" width="5" x="79" y="40.9023"/><rect fill="#FFFFFF" height="14.2617" style="stroke:#181818;stroke-width:0.5;" width="5" x="140" y="66.9258"/><rect fill="#FFFFFF" height="14.2617" style="stroke:#181818;stroke-width:0.5;" width="5" x="193.5" y="95.4492"/><rect fill="#FFFFFF" height="14.2617" style="stroke:#181818;stroke-width:0.5;" width="5" x="274" y="123.9727"/><polygon fill="#181818" points="73,38.9023,78,40.9023,73,42.9023,75,40.9023" style="stroke:#181818;stroke-width:0.5;"/><line style="stroke:#181818;stroke-width:0.5;stroke-dasharray:2.0,2.0;" x1="0" x2="76" y1="40.9023" y2="40.9023"/><text fill="#000000" font-family="sans-serif" font-size="6.5" font-weight="bold" lengthAdjust="spacing" textLength="7" x="3.5" y="38.5249">52</text><text fill="#000000" font-family="sans-serif" font-size="6.5" lengthAdjust="spacing" textLength="60.5" x="12.5" y="38.5249">getTypeOfBusiness()</text><path d="M45,48.4023 L134.5,48.4023 L134.5,51.6641 L129.5,56.6641 L45,56.6641 L45,48.4023 " fill="#EEEEEE" style="stroke:#000000;stroke-width:0.75;"/><rect fill="none" height="93.832" style="stroke:#000000;stroke-width:0.75;" width="287.75" x="45" y="48.4023"/><text fill="#000000" font-family="sans-serif" font-size="6.5" font-weight="bold" lengthAdjust="spacing" textLength="67" x="52.5" y="54.7866">Get Type Of Business</text><polygon fill="#181818" points="134,64.9258,139,66.9258,134,68.9258,136,66.9258" style="stroke:#181818;stroke-width:0.5;"/><line style="stroke:#181818;stroke-width:0.5;" x1="84" x2="137" y1="66.9258" y2="66.9258"/><text fill="#000000" font-family="sans-serif" font-size="6.5" font-weight="bold" lengthAdjust="spacing" textLength="7" x="87.5" y="64.5483">53</text><text fill="#000000" font-family="sans-serif" font-size="6.5" lengthAdjust="spacing" textLength="37.5" x="96.5" y="64.5483">getInstance()</text><polygon fill="#181818" points="89.5,79.1875,84.5,81.1875,89.5,83.1875,87.5,81.1875" style="stroke:#181818;stroke-width:0.5;"/><line style="stroke:#181818;stroke-width:0.5;stroke-dasharray:2.0,2.0;" x1="86.5" x2="142" y1="81.1875" y2="81.1875"/><text fill="#000000" font-family="sans-serif" font-size="6.5" font-weight="bold" lengthAdjust="spacing" textLength="7" x="92.5" y="78.8101">54</text><text fill="#000000" font-family="sans-serif" font-size="6.5" lengthAdjust="spacing" textLength="33.5" x="101.5" y="78.8101">repositories</text><polygon fill="#181818" points="187.5,93.4492,192.5,95.4492,187.5,97.4492,189.5,95.4492" style="stroke:#181818;stroke-width:0.5;"/><line style="stroke:#181818;stroke-width:0.5;" x1="84" x2="190.5" y1="95.4492" y2="95.4492"/><text fill="#000000" font-family="sans-serif" font-size="6.5" font-weight="bold" lengthAdjust="spacing" textLength="7" x="87.5" y="93.0718">55</text><text fill="#000000" font-family="sans-serif" font-size="6.5" lengthAdjust="spacing" textLength="85" x="96.5" y="93.0718">getTypeBusinessRepository()</text><polygon fill="#181818" points="89.5,107.7109,84.5,109.7109,89.5,111.7109,87.5,109.7109" style="stroke:#181818;stroke-width:0.5;"/><line style="stroke:#181818;stroke-width:0.5;stroke-dasharray:2.0,2.0;" x1="86.5" x2="195.5" y1="109.7109" y2="109.7109"/><text fill="#000000" font-family="sans-serif" font-size="6.5" font-weight="bold" lengthAdjust="spacing" textLength="7" x="92.5" y="107.3335">56</text><text fill="#000000" font-family="sans-serif" font-size="6.5" lengthAdjust="spacing" textLength="77" x="101.5" y="107.3335">typeOfBusinessRepository</text><polygon fill="#181818" points="268,121.9727,273,123.9727,268,125.9727,270,123.9727" style="stroke:#181818;stroke-width:0.5;"/><line style="stroke:#181818;stroke-width:0.5;stroke-dasharray:2.0,2.0;" x1="84" x2="271" y1="123.9727" y2="123.9727"/><text fill="#000000" font-family="sans-serif" font-size="6.5" font-weight="bold" lengthAdjust="spacing" textLength="7" x="87.5" y="121.5952">57</text><text fill="#000000" font-family="sans-serif" font-size="6.5" lengthAdjust="spacing" textLength="60.5" x="96.5" y="121.5952">getTypeOfBusiness()</text><polygon fill="#181818" points="89.5,136.2344,84.5,138.2344,89.5,140.2344,87.5,138.2344" style="stroke:#181818;stroke-width:0.5;"/><line style="stroke:#181818;stroke-width:0.5;stroke-dasharray:2.0,2.0;" x1="86.5" x2="276" y1="138.2344" y2="138.2344"/><text fill="#000000" font-family="sans-serif" font-size="6.5" font-weight="bold" lengthAdjust="spacing" textLength="7" x="92.5" y="135.8569">58</text><text fill="#000000" font-family="sans-serif" font-size="6.5" lengthAdjust="spacing" textLength="50" x="101.5" y="135.8569">Type of Business</text><polygon fill="#181818" points="5.5,153.9961,0.5,155.9961,5.5,157.9961,3.5,155.9961" style="stroke:#181818;stroke-width:0.5;"/><line style="stroke:#181818;stroke-width:0.5;stroke-dasharray:2.0,2.0;" x1="2.5" x2="81" y1="155.9961" y2="155.9961"/><text fill="#000000" font-family="sans-serif" font-size="6.5" font-weight="bold" lengthAdjust="spacing" textLength="7" x="8.5" y="153.6187">59</text><text fill="#000000" font-family="sans-serif" font-size="6.5" lengthAdjust="spacing" textLength="50" x="17.5" y="153.6187">Type of Business</text><!--SRC=[dL8zJyCm4DtzAqvTW254YiGI8GOw82IaejAnY-jS4wkERUmpgF-U91N4JPIe9LFaUn_txkwc8h8-JrEhkAPGgtjXwjJZPq0jC2aaBnslcJz8RNdp1xNHHbJEr0Za0aOLoyM1b_X1HuNWK13NfOe1lkA5-PQwX3rN7XbhdaaAQHjdMEJlOQUahvP6apDAeLi0zx3ShDy6m3LQuoKP9z5tcB-7updIHS2jdkDbvqGwMlIh_NFmKgFtFIw7hTwqHLZjuRSSwNIoasp6U22ZGxr31myPIvAdBX_aK2ArkZthzex1uEE2v1SdFCraL2wT2HPUaA1LYXiSOplNnhtlxTJ3g_RDsWJEkSTvXg18BmeNxs54AV0YvN77MJ-syQWl2v3D9SZY27IsdAZHY-9aKtaQWybhkVOgPivko9dsZ29tLsIYAvg9UeKtwcBy28z9yX_Vbl83]--></g></svg>