<?xml version="1.0" encoding="UTF-8" standalone="no"?><svg xmlns="http://www.w3.org/2000/svg" xmlns:xlink="http://www.w3.org/1999/xlink" contentStyleType="text/css" height="2145px" preserveAspectRatio="none" style="width:3123px;height:2145px;background:#FFFFFF;" version="1.1" viewBox="0 0 3123 2145" width="3123px" zoomAndPan="magnify"><defs/><g><text fill="#000000" font-family="sans-serif" font-size="14" font-weight="bold" lengthAdjust="spacing" textLength="155" x="1477" y="24.5332">US002 - Class Diagram</text><!--class PublishAnnouncementUI--><g id="elem_PublishAnnouncementUI"><rect codeLine="12" fill="#F1F1F1" height="51.1563" id="PublishAnnouncementUI" rx="2.5" ry="2.5" style="stroke:#181818;stroke-width:0.5;" width="243" x="222" y="146.1094"/><ellipse cx="238" cy="163.6875" fill="#ADD1B2" rx="12" ry="12" style="stroke:#181818;stroke-width:1.0;"/><path d="M240.1406,158.6094 Q240.3281,158.3594 240.5469,158.2344 Q240.7656,158.0938 241.0156,158.0938 Q241.4531,158.0938 241.7344,158.4063 Q242.0156,158.7031 242.0156,159.4219 L242.0156,161.125 Q242.0156,161.8438 241.7344,162.1563 Q241.4531,162.4688 241.0156,162.4688 Q240.625,162.4688 240.375,162.2344 Q240.125,162.0156 240.0156,161.4063 Q239.9531,160.9844 239.7344,160.7656 Q239.3438,160.3281 238.625,160.0625 Q237.9063,159.7969 237.1875,159.7969 Q236.2813,159.7969 235.5313,160.1875 Q234.7813,160.5781 234.2031,161.4688 Q233.625,162.3438 233.625,163.5469 L233.625,164.8438 Q233.625,166.2969 234.6719,167.2656 Q235.7344,168.2344 237.5938,168.2344 Q238.7031,168.2344 239.4844,167.9219 Q239.9219,167.75 240.4375,167.2344 Q240.75,166.9219 240.9219,166.8281 Q241.0938,166.7344 241.3281,166.7344 Q241.7188,166.7344 242.0156,167.0469 Q242.3281,167.3438 242.3281,167.75 Q242.3281,168.1563 241.9219,168.625 Q241.3281,169.3125 240.3906,169.7031 Q239.125,170.2344 237.6094,170.2344 Q235.8281,170.2344 234.4063,169.5 Q233.25,168.9063 232.4375,167.6406 Q231.625,166.375 231.625,164.8906 L231.625,163.5313 Q231.625,161.9688 232.3438,160.625 Q233.0781,159.2656 234.3594,158.5313 Q235.6563,157.7969 237.1094,157.7969 Q237.9688,157.7969 238.7188,158 Q239.4844,158.2031 240.1406,158.6094 Z " fill="#000000"/><text fill="#000000" font-family="sans-serif" font-size="20" lengthAdjust="spacing" textLength="209" x="253" y="171.8711">PublishAnnouncementUI</text><line style="stroke:#181818;stroke-width:0.5;" x1="223" x2="464" y1="181.2656" y2="181.2656"/><line style="stroke:#181818;stroke-width:0.5;" x1="223" x2="464" y1="189.2656" y2="189.2656"/></g><!--class PublishAnnouncementController--><g id="elem_PublishAnnouncementController"><rect codeLine="15" fill="#F1F1F1" height="151.7813" id="PublishAnnouncementController" rx="2.5" ry="2.5" style="stroke:#181818;stroke-width:0.5;" width="754" x="500.5" y="95.6094"/><ellipse cx="735.5" cy="113.1875" fill="#ADD1B2" rx="12" ry="12" style="stroke:#181818;stroke-width:1.0;"/><path d="M737.6406,108.1094 Q737.8281,107.8594 738.0469,107.7344 Q738.2656,107.5938 738.5156,107.5938 Q738.9531,107.5938 739.2344,107.9063 Q739.5156,108.2031 739.5156,108.9219 L739.5156,110.625 Q739.5156,111.3438 739.2344,111.6563 Q738.9531,111.9688 738.5156,111.9688 Q738.125,111.9688 737.875,111.7344 Q737.625,111.5156 737.5156,110.9063 Q737.4531,110.4844 737.2344,110.2656 Q736.8438,109.8281 736.125,109.5625 Q735.4063,109.2969 734.6875,109.2969 Q733.7813,109.2969 733.0313,109.6875 Q732.2813,110.0781 731.7031,110.9688 Q731.125,111.8438 731.125,113.0469 L731.125,114.3438 Q731.125,115.7969 732.1719,116.7656 Q733.2344,117.7344 735.0938,117.7344 Q736.2031,117.7344 736.9844,117.4219 Q737.4219,117.25 737.9375,116.7344 Q738.25,116.4219 738.4219,116.3281 Q738.5938,116.2344 738.8281,116.2344 Q739.2188,116.2344 739.5156,116.5469 Q739.8281,116.8438 739.8281,117.25 Q739.8281,117.6563 739.4219,118.125 Q738.8281,118.8125 737.8906,119.2031 Q736.625,119.7344 735.1094,119.7344 Q733.3281,119.7344 731.9063,119 Q730.75,118.4063 729.9375,117.1406 Q729.125,115.875 729.125,114.3906 L729.125,113.0313 Q729.125,111.4688 729.8438,110.125 Q730.5781,108.7656 731.8594,108.0313 Q733.1563,107.2969 734.6094,107.2969 Q735.4688,107.2969 736.2188,107.5 Q736.9844,107.7031 737.6406,108.1094 Z " fill="#000000"/><text fill="#000000" font-family="sans-serif" font-size="20" lengthAdjust="spacing" textLength="275" x="757.5" y="121.3711">PublishAnnouncementController</text><line style="stroke:#181818;stroke-width:0.5;" x1="501.5" x2="1253.5" y1="130.7656" y2="130.7656"/><line style="stroke:#181818;stroke-width:0.5;" x1="501.5" x2="1253.5" y1="138.7656" y2="138.7656"/><ellipse cx="511.5" cy="156.8438" fill="#84BE84" rx="3" ry="3" style="stroke:#038048;stroke-width:1.0;"/><text fill="#000000" font-family="sans-serif" font-size="20" lengthAdjust="spacing" textLength="727" x="521.5" y="163.5273">publishAnnouncementController(propertyTypeRepository,announcementRepository)</text><ellipse cx="511.5" cy="182" fill="#84BE84" rx="3" ry="3" style="stroke:#038048;stroke-width:1.0;"/><text fill="#000000" font-family="sans-serif" font-size="20" lengthAdjust="spacing" textLength="180" x="521.5" y="188.6836">getAnnouncements()</text><ellipse cx="511.5" cy="219.7344" fill="#84BE84" rx="3" ry="3" style="stroke:#038048;stroke-width:1.0;"/><text fill="#000000" font-family="sans-serif" font-size="20" lengthAdjust="spacing" textLength="654" x="521.5" y="213.8398">publishAnnouncement(propertyType, description, cost, informalDescription,</text><text fill="#000000" font-family="sans-serif" font-size="20" lengthAdjust="spacing" textLength="524" x="521.5" y="238.9961">technicalDescription, durationOfAnnouncement, designation)</text></g><!--class Repositories--><g id="elem_Repositories"><rect codeLine="175" fill="#F1F1F1" height="252.4063" id="Repositories" rx="2.5" ry="2.5" style="stroke:#181818;stroke-width:0.5;" width="292" x="1394.5" y="45.6094"/><ellipse cx="1481" cy="63.1875" fill="#ADD1B2" rx="12" ry="12" style="stroke:#181818;stroke-width:1.0;"/><path d="M1483.1406,58.1094 Q1483.3281,57.8594 1483.5469,57.7344 Q1483.7656,57.5938 1484.0156,57.5938 Q1484.4531,57.5938 1484.7344,57.9063 Q1485.0156,58.2031 1485.0156,58.9219 L1485.0156,60.625 Q1485.0156,61.3438 1484.7344,61.6563 Q1484.4531,61.9688 1484.0156,61.9688 Q1483.625,61.9688 1483.375,61.7344 Q1483.125,61.5156 1483.0156,60.9063 Q1482.9531,60.4844 1482.7344,60.2656 Q1482.3438,59.8281 1481.625,59.5625 Q1480.9063,59.2969 1480.1875,59.2969 Q1479.2813,59.2969 1478.5313,59.6875 Q1477.7813,60.0781 1477.2031,60.9688 Q1476.625,61.8438 1476.625,63.0469 L1476.625,64.3438 Q1476.625,65.7969 1477.6719,66.7656 Q1478.7344,67.7344 1480.5938,67.7344 Q1481.7031,67.7344 1482.4844,67.4219 Q1482.9219,67.25 1483.4375,66.7344 Q1483.75,66.4219 1483.9219,66.3281 Q1484.0938,66.2344 1484.3281,66.2344 Q1484.7188,66.2344 1485.0156,66.5469 Q1485.3281,66.8438 1485.3281,67.25 Q1485.3281,67.6563 1484.9219,68.125 Q1484.3281,68.8125 1483.3906,69.2031 Q1482.125,69.7344 1480.6094,69.7344 Q1478.8281,69.7344 1477.4063,69 Q1476.25,68.4063 1475.4375,67.1406 Q1474.625,65.875 1474.625,64.3906 L1474.625,63.0313 Q1474.625,61.4688 1475.3438,60.125 Q1476.0781,58.7656 1477.3594,58.0313 Q1478.6563,57.2969 1480.1094,57.2969 Q1480.9688,57.2969 1481.7188,57.5 Q1482.4844,57.7031 1483.1406,58.1094 Z " fill="#000000"/><text fill="#000000" font-family="sans-serif" font-size="20" lengthAdjust="spacing" textLength="110" x="1503" y="71.3711">Repositories</text><line style="stroke:#181818;stroke-width:0.5;" x1="1395.5" x2="1685.5" y1="80.7656" y2="80.7656"/><ellipse cx="1405.5" cy="98.8438" fill="none" rx="3" ry="3" style="stroke:#038048;stroke-width:1.0;"/><text fill="#000000" font-family="sans-serif" font-size="20" lengthAdjust="spacing" textLength="228" x="1415.5" y="105.5273">getUserIdentityRepository</text><ellipse cx="1405.5" cy="124" fill="none" rx="3" ry="3" style="stroke:#038048;stroke-width:1.0;"/><text fill="#000000" font-family="sans-serif" font-size="20" lengthAdjust="spacing" textLength="257" x="1415.5" y="130.6836">getTypeComissionRepository</text><line style="stroke:#181818;stroke-width:0.5;" x1="1395.5" x2="1685.5" y1="139.0781" y2="139.0781"/><rect fill="#F24D5C" height="6" style="stroke:#C82930;stroke-width:1.0;" width="6" x="1402.5" y="154.1563"/><text fill="#000000" font-family="sans-serif" font-size="20" lengthAdjust="spacing" textLength="124" x="1415.5" y="163.8398">Repositories()</text><text fill="#000000" font-family="sans-serif" font-size="20" lengthAdjust="spacing" textLength="6" x="1415.5" y="188.9961"> </text><ellipse cx="1405.5" cy="207.4688" fill="#84BE84" rx="3" ry="3" style="stroke:#038048;stroke-width:1.0;"/><text fill="#000000" font-family="sans-serif" font-size="20" lengthAdjust="spacing" textLength="232" x="1415.5" y="214.1523">getInstance():Repositories</text><ellipse cx="1405.5" cy="232.625" fill="#84BE84" rx="3" ry="3" style="stroke:#038048;stroke-width:1.0;"/><text fill="#000000" font-family="sans-serif" font-size="20" lengthAdjust="spacing" textLength="265" x="1415.5" y="239.3086">getAnnouncementRepository()</text><ellipse cx="1405.5" cy="257.7813" fill="#84BE84" rx="3" ry="3" style="stroke:#038048;stroke-width:1.0;"/><text fill="#000000" font-family="sans-serif" font-size="20" lengthAdjust="spacing" textLength="213" x="1415.5" y="264.4648">getPropertyRepository()</text><ellipse cx="1405.5" cy="282.9375" fill="#84BE84" rx="3" ry="3" style="stroke:#038048;stroke-width:1.0;"/><text fill="#000000" font-family="sans-serif" font-size="20" lengthAdjust="spacing" textLength="265" x="1415.5" y="289.6211">getAnnouncementRepository()</text></g><!--class AnnouncementRepository--><g id="elem_AnnouncementRepository"><rect codeLine="34" fill="#F1F1F1" height="76.3125" id="AnnouncementRepository" rx="2.5" ry="2.5" style="stroke:#181818;stroke-width:0.5;" width="257" x="1148" y="384.6094"/><ellipse cx="1164" cy="402.1875" fill="#ADD1B2" rx="12" ry="12" style="stroke:#181818;stroke-width:1.0;"/><path d="M1166.1406,397.1094 Q1166.3281,396.8594 1166.5469,396.7344 Q1166.7656,396.5938 1167.0156,396.5938 Q1167.4531,396.5938 1167.7344,396.9063 Q1168.0156,397.2031 1168.0156,397.9219 L1168.0156,399.625 Q1168.0156,400.3438 1167.7344,400.6563 Q1167.4531,400.9688 1167.0156,400.9688 Q1166.625,400.9688 1166.375,400.7344 Q1166.125,400.5156 1166.0156,399.9063 Q1165.9531,399.4844 1165.7344,399.2656 Q1165.3438,398.8281 1164.625,398.5625 Q1163.9063,398.2969 1163.1875,398.2969 Q1162.2813,398.2969 1161.5313,398.6875 Q1160.7813,399.0781 1160.2031,399.9688 Q1159.625,400.8438 1159.625,402.0469 L1159.625,403.3438 Q1159.625,404.7969 1160.6719,405.7656 Q1161.7344,406.7344 1163.5938,406.7344 Q1164.7031,406.7344 1165.4844,406.4219 Q1165.9219,406.25 1166.4375,405.7344 Q1166.75,405.4219 1166.9219,405.3281 Q1167.0938,405.2344 1167.3281,405.2344 Q1167.7188,405.2344 1168.0156,405.5469 Q1168.3281,405.8438 1168.3281,406.25 Q1168.3281,406.6563 1167.9219,407.125 Q1167.3281,407.8125 1166.3906,408.2031 Q1165.125,408.7344 1163.6094,408.7344 Q1161.8281,408.7344 1160.4063,408 Q1159.25,407.4063 1158.4375,406.1406 Q1157.625,404.875 1157.625,403.3906 L1157.625,402.0313 Q1157.625,400.4688 1158.3438,399.125 Q1159.0781,397.7656 1160.3594,397.0313 Q1161.6563,396.2969 1163.1094,396.2969 Q1163.9688,396.2969 1164.7188,396.5 Q1165.4844,396.7031 1166.1406,397.1094 Z " fill="#000000"/><text fill="#000000" font-family="sans-serif" font-size="20" lengthAdjust="spacing" textLength="223" x="1179" y="410.3711">AnnouncementRepository</text><line style="stroke:#181818;stroke-width:0.5;" x1="1149" x2="1404" y1="419.7656" y2="419.7656"/><line style="stroke:#181818;stroke-width:0.5;" x1="1149" x2="1404" y1="427.7656" y2="427.7656"/><ellipse cx="1159" cy="445.8438" fill="#84BE84" rx="3" ry="3" style="stroke:#038048;stroke-width:1.0;"/><text fill="#000000" font-family="sans-serif" font-size="20" lengthAdjust="spacing" textLength="180" x="1169" y="452.5273">getAnnouncements()</text></g><!--class PropertyTypeRepository--><g id="elem_PropertyTypeRepository"><rect codeLine="38" fill="#F1F1F1" height="76.3125" id="PropertyTypeRepository" rx="2.5" ry="2.5" style="stroke:#181818;stroke-width:0.5;" width="249" x="1317" y="490.6094"/><ellipse cx="1333" cy="508.1875" fill="#ADD1B2" rx="12" ry="12" style="stroke:#181818;stroke-width:1.0;"/><path d="M1335.1406,503.1094 Q1335.3281,502.8594 1335.5469,502.7344 Q1335.7656,502.5938 1336.0156,502.5938 Q1336.4531,502.5938 1336.7344,502.9063 Q1337.0156,503.2031 1337.0156,503.9219 L1337.0156,505.625 Q1337.0156,506.3438 1336.7344,506.6563 Q1336.4531,506.9688 1336.0156,506.9688 Q1335.625,506.9688 1335.375,506.7344 Q1335.125,506.5156 1335.0156,505.9063 Q1334.9531,505.4844 1334.7344,505.2656 Q1334.3438,504.8281 1333.625,504.5625 Q1332.9063,504.2969 1332.1875,504.2969 Q1331.2813,504.2969 1330.5313,504.6875 Q1329.7813,505.0781 1329.2031,505.9688 Q1328.625,506.8438 1328.625,508.0469 L1328.625,509.3438 Q1328.625,510.7969 1329.6719,511.7656 Q1330.7344,512.7344 1332.5938,512.7344 Q1333.7031,512.7344 1334.4844,512.4219 Q1334.9219,512.25 1335.4375,511.7344 Q1335.75,511.4219 1335.9219,511.3281 Q1336.0938,511.2344 1336.3281,511.2344 Q1336.7188,511.2344 1337.0156,511.5469 Q1337.3281,511.8438 1337.3281,512.25 Q1337.3281,512.6563 1336.9219,513.125 Q1336.3281,513.8125 1335.3906,514.2031 Q1334.125,514.7344 1332.6094,514.7344 Q1330.8281,514.7344 1329.4063,514 Q1328.25,513.4063 1327.4375,512.1406 Q1326.625,510.875 1326.625,509.3906 L1326.625,508.0313 Q1326.625,506.4688 1327.3438,505.125 Q1328.0781,503.7656 1329.3594,503.0313 Q1330.6563,502.2969 1332.1094,502.2969 Q1332.9688,502.2969 1333.7188,502.5 Q1334.4844,502.7031 1335.1406,503.1094 Z " fill="#000000"/><text fill="#000000" font-family="sans-serif" font-size="20" lengthAdjust="spacing" textLength="215" x="1348" y="516.3711">PropertyTypeRepository</text><line style="stroke:#181818;stroke-width:0.5;" x1="1318" x2="1565" y1="525.7656" y2="525.7656"/><line style="stroke:#181818;stroke-width:0.5;" x1="1318" x2="1565" y1="533.7656" y2="533.7656"/><ellipse cx="1328" cy="551.8438" fill="#84BE84" rx="3" ry="3" style="stroke:#038048;stroke-width:1.0;"/><text fill="#000000" font-family="sans-serif" font-size="20" lengthAdjust="spacing" textLength="162" x="1338" y="558.5273">getPropertyType()</text></g><!--class UserIdentityRepository--><g id="elem_UserIdentityRepository"><rect codeLine="42" fill="#F1F1F1" height="76.3125" id="UserIdentityRepository" rx="2.5" ry="2.5" style="stroke:#181818;stroke-width:0.5;" width="234" x="1511.5" y="384.6094"/><ellipse cx="1527.5" cy="402.1875" fill="#ADD1B2" rx="12" ry="12" style="stroke:#181818;stroke-width:1.0;"/><path d="M1529.6406,397.1094 Q1529.8281,396.8594 1530.0469,396.7344 Q1530.2656,396.5938 1530.5156,396.5938 Q1530.9531,396.5938 1531.2344,396.9063 Q1531.5156,397.2031 1531.5156,397.9219 L1531.5156,399.625 Q1531.5156,400.3438 1531.2344,400.6563 Q1530.9531,400.9688 1530.5156,400.9688 Q1530.125,400.9688 1529.875,400.7344 Q1529.625,400.5156 1529.5156,399.9063 Q1529.4531,399.4844 1529.2344,399.2656 Q1528.8438,398.8281 1528.125,398.5625 Q1527.4063,398.2969 1526.6875,398.2969 Q1525.7813,398.2969 1525.0313,398.6875 Q1524.2813,399.0781 1523.7031,399.9688 Q1523.125,400.8438 1523.125,402.0469 L1523.125,403.3438 Q1523.125,404.7969 1524.1719,405.7656 Q1525.2344,406.7344 1527.0938,406.7344 Q1528.2031,406.7344 1528.9844,406.4219 Q1529.4219,406.25 1529.9375,405.7344 Q1530.25,405.4219 1530.4219,405.3281 Q1530.5938,405.2344 1530.8281,405.2344 Q1531.2188,405.2344 1531.5156,405.5469 Q1531.8281,405.8438 1531.8281,406.25 Q1531.8281,406.6563 1531.4219,407.125 Q1530.8281,407.8125 1529.8906,408.2031 Q1528.625,408.7344 1527.1094,408.7344 Q1525.3281,408.7344 1523.9063,408 Q1522.75,407.4063 1521.9375,406.1406 Q1521.125,404.875 1521.125,403.3906 L1521.125,402.0313 Q1521.125,400.4688 1521.8438,399.125 Q1522.5781,397.7656 1523.8594,397.0313 Q1525.1563,396.2969 1526.6094,396.2969 Q1527.4688,396.2969 1528.2188,396.5 Q1528.9844,396.7031 1529.6406,397.1094 Z " fill="#000000"/><text fill="#000000" font-family="sans-serif" font-size="20" lengthAdjust="spacing" textLength="200" x="1542.5" y="410.3711">UserIdentityRepository</text><line style="stroke:#181818;stroke-width:0.5;" x1="1512.5" x2="1744.5" y1="419.7656" y2="419.7656"/><line style="stroke:#181818;stroke-width:0.5;" x1="1512.5" x2="1744.5" y1="427.7656" y2="427.7656"/><ellipse cx="1522.5" cy="445.8438" fill="#84BE84" rx="3" ry="3" style="stroke:#038048;stroke-width:1.0;"/><text fill="#000000" font-family="sans-serif" font-size="20" lengthAdjust="spacing" textLength="147" x="1532.5" y="452.5273">getUserIdentity()</text></g><!--class TypeComissionRepository--><g id="elem_TypeComissionRepository"><rect codeLine="46" fill="#F1F1F1" height="76.3125" id="TypeComissionRepository" rx="2.5" ry="2.5" style="stroke:#181818;stroke-width:0.5;" width="263" x="2578" y="490.6094"/><ellipse cx="2594" cy="508.1875" fill="#ADD1B2" rx="12" ry="12" style="stroke:#181818;stroke-width:1.0;"/><path d="M2596.1406,503.1094 Q2596.3281,502.8594 2596.5469,502.7344 Q2596.7656,502.5938 2597.0156,502.5938 Q2597.4531,502.5938 2597.7344,502.9063 Q2598.0156,503.2031 2598.0156,503.9219 L2598.0156,505.625 Q2598.0156,506.3438 2597.7344,506.6563 Q2597.4531,506.9688 2597.0156,506.9688 Q2596.625,506.9688 2596.375,506.7344 Q2596.125,506.5156 2596.0156,505.9063 Q2595.9531,505.4844 2595.7344,505.2656 Q2595.3438,504.8281 2594.625,504.5625 Q2593.9063,504.2969 2593.1875,504.2969 Q2592.2813,504.2969 2591.5313,504.6875 Q2590.7813,505.0781 2590.2031,505.9688 Q2589.625,506.8438 2589.625,508.0469 L2589.625,509.3438 Q2589.625,510.7969 2590.6719,511.7656 Q2591.7344,512.7344 2593.5938,512.7344 Q2594.7031,512.7344 2595.4844,512.4219 Q2595.9219,512.25 2596.4375,511.7344 Q2596.75,511.4219 2596.9219,511.3281 Q2597.0938,511.2344 2597.3281,511.2344 Q2597.7188,511.2344 2598.0156,511.5469 Q2598.3281,511.8438 2598.3281,512.25 Q2598.3281,512.6563 2597.9219,513.125 Q2597.3281,513.8125 2596.3906,514.2031 Q2595.125,514.7344 2593.6094,514.7344 Q2591.8281,514.7344 2590.4063,514 Q2589.25,513.4063 2588.4375,512.1406 Q2587.625,510.875 2587.625,509.3906 L2587.625,508.0313 Q2587.625,506.4688 2588.3438,505.125 Q2589.0781,503.7656 2590.3594,503.0313 Q2591.6563,502.2969 2593.1094,502.2969 Q2593.9688,502.2969 2594.7188,502.5 Q2595.4844,502.7031 2596.1406,503.1094 Z " fill="#000000"/><text fill="#000000" font-family="sans-serif" font-size="20" lengthAdjust="spacing" textLength="229" x="2609" y="516.3711">TypeComissionRepository</text><line style="stroke:#181818;stroke-width:0.5;" x1="2579" x2="2840" y1="525.7656" y2="525.7656"/><line style="stroke:#181818;stroke-width:0.5;" x1="2579" x2="2840" y1="533.7656" y2="533.7656"/><ellipse cx="2589" cy="551.8438" fill="#84BE84" rx="3" ry="3" style="stroke:#038048;stroke-width:1.0;"/><text fill="#000000" font-family="sans-serif" font-size="20" lengthAdjust="spacing" textLength="192" x="2599" y="558.5273">getTypeCommission()</text></g><!--class Property--><g id="elem_Property"><rect codeLine="54" fill="#F1F1F1" height="126.625" id="Property" rx="2.5" ry="2.5" style="stroke:#181818;stroke-width:0.5;" width="414" x="1185.5" y="909.6094"/><ellipse cx="1350" cy="927.1875" fill="#ADD1B2" rx="12" ry="12" style="stroke:#181818;stroke-width:1.0;"/><path d="M1352.1406,922.1094 Q1352.3281,921.8594 1352.5469,921.7344 Q1352.7656,921.5938 1353.0156,921.5938 Q1353.4531,921.5938 1353.7344,921.9063 Q1354.0156,922.2031 1354.0156,922.9219 L1354.0156,924.625 Q1354.0156,925.3438 1353.7344,925.6563 Q1353.4531,925.9688 1353.0156,925.9688 Q1352.625,925.9688 1352.375,925.7344 Q1352.125,925.5156 1352.0156,924.9063 Q1351.9531,924.4844 1351.7344,924.2656 Q1351.3438,923.8281 1350.625,923.5625 Q1349.9063,923.2969 1349.1875,923.2969 Q1348.2813,923.2969 1347.5313,923.6875 Q1346.7813,924.0781 1346.2031,924.9688 Q1345.625,925.8438 1345.625,927.0469 L1345.625,928.3438 Q1345.625,929.7969 1346.6719,930.7656 Q1347.7344,931.7344 1349.5938,931.7344 Q1350.7031,931.7344 1351.4844,931.4219 Q1351.9219,931.25 1352.4375,930.7344 Q1352.75,930.4219 1352.9219,930.3281 Q1353.0938,930.2344 1353.3281,930.2344 Q1353.7188,930.2344 1354.0156,930.5469 Q1354.3281,930.8438 1354.3281,931.25 Q1354.3281,931.6563 1353.9219,932.125 Q1353.3281,932.8125 1352.3906,933.2031 Q1351.125,933.7344 1349.6094,933.7344 Q1347.8281,933.7344 1346.4063,933 Q1345.25,932.4063 1344.4375,931.1406 Q1343.625,929.875 1343.625,928.3906 L1343.625,927.0313 Q1343.625,925.4688 1344.3438,924.125 Q1345.0781,922.7656 1346.3594,922.0313 Q1347.6563,921.2969 1349.1094,921.2969 Q1349.9688,921.2969 1350.7188,921.5 Q1351.4844,921.7031 1352.1406,922.1094 Z " fill="#000000"/><text fill="#000000" font-family="sans-serif" font-size="20" lengthAdjust="spacing" textLength="76" x="1372" y="935.3711">Property</text><line style="stroke:#181818;stroke-width:0.5;" x1="1186.5" x2="1598.5" y1="944.7656" y2="944.7656"/><rect fill="none" height="6" style="stroke:#C82930;stroke-width:1.0;" width="6" x="1193.5" y="959.8438"/><text fill="#000000" font-family="sans-serif" font-size="20" lengthAdjust="spacing" textLength="104" x="1206.5" y="969.5273">double area</text><rect fill="none" height="6" style="stroke:#C82930;stroke-width:1.0;" width="6" x="1193.5" y="985"/><text fill="#000000" font-family="sans-serif" font-size="20" lengthAdjust="spacing" textLength="271" x="1206.5" y="994.6836">int distanceFromTheCityCenter</text><line style="stroke:#181818;stroke-width:0.5;" x1="1186.5" x2="1598.5" y1="1003.0781" y2="1003.0781"/><ellipse cx="1196.5" cy="1021.1563" fill="#84BE84" rx="3" ry="3" style="stroke:#038048;stroke-width:1.0;"/><text fill="#000000" font-family="sans-serif" font-size="20" lengthAdjust="spacing" textLength="387" x="1206.5" y="1027.8398">Property(area, distanceFromTheCityCenter)</text></g><!--class Photos--><g id="elem_Photos"><rect codeLine="61" fill="#F1F1F1" height="76.3125" id="Photos" rx="2.5" ry="2.5" style="stroke:#181818;stroke-width:0.5;" width="117" x="981" y="935.1094"/><ellipse cx="1006.9" cy="952.6875" fill="#ADD1B2" rx="12" ry="12" style="stroke:#181818;stroke-width:1.0;"/><path d="M1009.0406,947.6094 Q1009.2281,947.3594 1009.4469,947.2344 Q1009.6656,947.0938 1009.9156,947.0938 Q1010.3531,947.0938 1010.6344,947.4063 Q1010.9156,947.7031 1010.9156,948.4219 L1010.9156,950.125 Q1010.9156,950.8438 1010.6344,951.1563 Q1010.3531,951.4688 1009.9156,951.4688 Q1009.525,951.4688 1009.275,951.2344 Q1009.025,951.0156 1008.9156,950.4063 Q1008.8531,949.9844 1008.6344,949.7656 Q1008.2438,949.3281 1007.525,949.0625 Q1006.8063,948.7969 1006.0875,948.7969 Q1005.1813,948.7969 1004.4313,949.1875 Q1003.6813,949.5781 1003.1031,950.4688 Q1002.525,951.3438 1002.525,952.5469 L1002.525,953.8438 Q1002.525,955.2969 1003.5719,956.2656 Q1004.6344,957.2344 1006.4938,957.2344 Q1007.6031,957.2344 1008.3844,956.9219 Q1008.8219,956.75 1009.3375,956.2344 Q1009.65,955.9219 1009.8219,955.8281 Q1009.9938,955.7344 1010.2281,955.7344 Q1010.6188,955.7344 1010.9156,956.0469 Q1011.2281,956.3438 1011.2281,956.75 Q1011.2281,957.1563 1010.8219,957.625 Q1010.2281,958.3125 1009.2906,958.7031 Q1008.025,959.2344 1006.5094,959.2344 Q1004.7281,959.2344 1003.3063,958.5 Q1002.15,957.9063 1001.3375,956.6406 Q1000.525,955.375 1000.525,953.8906 L1000.525,952.5313 Q1000.525,950.9688 1001.2438,949.625 Q1001.9781,948.2656 1003.2594,947.5313 Q1004.5563,946.7969 1006.0094,946.7969 Q1006.8688,946.7969 1007.6188,947 Q1008.3844,947.2031 1009.0406,947.6094 Z " fill="#000000"/><text fill="#000000" font-family="sans-serif" font-size="20" lengthAdjust="spacing" textLength="61" x="1024.1" y="960.8711">Photos</text><line style="stroke:#181818;stroke-width:0.5;" x1="982" x2="1097" y1="970.2656" y2="970.2656"/><rect fill="none" height="6" style="stroke:#C82930;stroke-width:1.0;" width="6" x="989" y="985.3438"/><text fill="#000000" font-family="sans-serif" font-size="20" lengthAdjust="spacing" textLength="90" x="1002" y="995.0273">String URI</text><line style="stroke:#181818;stroke-width:0.5;" x1="982" x2="1097" y1="1003.4219" y2="1003.4219"/></g><!--class House--><g id="elem_House"><rect codeLine="65" fill="#F1F1F1" height="126.625" id="House" rx="2.5" ry="2.5" style="stroke:#181818;stroke-width:0.5;" width="533" x="600" y="1736.6094"/><ellipse cx="834.5" cy="1754.1875" fill="#ADD1B2" rx="12" ry="12" style="stroke:#181818;stroke-width:1.0;"/><path d="M836.6406,1749.1094 Q836.8281,1748.8594 837.0469,1748.7344 Q837.2656,1748.5938 837.5156,1748.5938 Q837.9531,1748.5938 838.2344,1748.9063 Q838.5156,1749.2031 838.5156,1749.9219 L838.5156,1751.625 Q838.5156,1752.3438 838.2344,1752.6563 Q837.9531,1752.9688 837.5156,1752.9688 Q837.125,1752.9688 836.875,1752.7344 Q836.625,1752.5156 836.5156,1751.9063 Q836.4531,1751.4844 836.2344,1751.2656 Q835.8438,1750.8281 835.125,1750.5625 Q834.4063,1750.2969 833.6875,1750.2969 Q832.7813,1750.2969 832.0313,1750.6875 Q831.2813,1751.0781 830.7031,1751.9688 Q830.125,1752.8438 830.125,1754.0469 L830.125,1755.3438 Q830.125,1756.7969 831.1719,1757.7656 Q832.2344,1758.7344 834.0938,1758.7344 Q835.2031,1758.7344 835.9844,1758.4219 Q836.4219,1758.25 836.9375,1757.7344 Q837.25,1757.4219 837.4219,1757.3281 Q837.5938,1757.2344 837.8281,1757.2344 Q838.2188,1757.2344 838.5156,1757.5469 Q838.8281,1757.8438 838.8281,1758.25 Q838.8281,1758.6563 838.4219,1759.125 Q837.8281,1759.8125 836.8906,1760.2031 Q835.625,1760.7344 834.1094,1760.7344 Q832.3281,1760.7344 830.9063,1760 Q829.75,1759.4063 828.9375,1758.1406 Q828.125,1756.875 828.125,1755.3906 L828.125,1754.0313 Q828.125,1752.4688 828.8438,1751.125 Q829.5781,1749.7656 830.8594,1749.0313 Q832.1563,1748.2969 833.6094,1748.2969 Q834.4688,1748.2969 835.2188,1748.5 Q835.9844,1748.7031 836.6406,1749.1094 Z " fill="#000000"/><text fill="#000000" font-family="sans-serif" font-size="20" lengthAdjust="spacing" textLength="55" x="856.5" y="1762.3711">House</text><line style="stroke:#181818;stroke-width:0.5;" x1="601" x2="1132" y1="1771.7656" y2="1771.7656"/><rect fill="none" height="6" style="stroke:#C82930;stroke-width:1.0;" width="6" x="608" y="1786.8438"/><text fill="#000000" font-family="sans-serif" font-size="20" lengthAdjust="spacing" textLength="329" x="621" y="1796.5273">Boolean existenceOfBasement : false</text><rect fill="none" height="6" style="stroke:#C82930;stroke-width:1.0;" width="6" x="608" y="1812"/><text fill="#000000" font-family="sans-serif" font-size="20" lengthAdjust="spacing" textLength="370" x="621" y="1821.6836">Boolean existenceOfInhabitableLoft : false</text><line style="stroke:#181818;stroke-width:0.5;" x1="601" x2="1132" y1="1830.0781" y2="1830.0781"/><ellipse cx="611" cy="1848.1563" fill="#84BE84" rx="3" ry="3" style="stroke:#038048;stroke-width:1.0;"/><text fill="#000000" font-family="sans-serif" font-size="20" lengthAdjust="spacing" textLength="506" x="621" y="1854.8398">House(existenceOfBasement, existenceOfInhabitableLoft)</text></g><!--class Residence--><g id="elem_Residence"><rect codeLine="72" fill="#F1F1F1" height="151.7813" id="Residence" rx="2.5" ry="2.5" style="stroke:#181818;stroke-width:0.5;" width="735" x="499" y="1398.1094"/><ellipse cx="816" cy="1415.6875" fill="#ADD1B2" rx="12" ry="12" style="stroke:#181818;stroke-width:1.0;"/><path d="M818.1406,1410.6094 Q818.3281,1410.3594 818.5469,1410.2344 Q818.7656,1410.0938 819.0156,1410.0938 Q819.4531,1410.0938 819.7344,1410.4063 Q820.0156,1410.7031 820.0156,1411.4219 L820.0156,1413.125 Q820.0156,1413.8438 819.7344,1414.1563 Q819.4531,1414.4688 819.0156,1414.4688 Q818.625,1414.4688 818.375,1414.2344 Q818.125,1414.0156 818.0156,1413.4063 Q817.9531,1412.9844 817.7344,1412.7656 Q817.3438,1412.3281 816.625,1412.0625 Q815.9063,1411.7969 815.1875,1411.7969 Q814.2813,1411.7969 813.5313,1412.1875 Q812.7813,1412.5781 812.2031,1413.4688 Q811.625,1414.3438 811.625,1415.5469 L811.625,1416.8438 Q811.625,1418.2969 812.6719,1419.2656 Q813.7344,1420.2344 815.5938,1420.2344 Q816.7031,1420.2344 817.4844,1419.9219 Q817.9219,1419.75 818.4375,1419.2344 Q818.75,1418.9219 818.9219,1418.8281 Q819.0938,1418.7344 819.3281,1418.7344 Q819.7188,1418.7344 820.0156,1419.0469 Q820.3281,1419.3438 820.3281,1419.75 Q820.3281,1420.1563 819.9219,1420.625 Q819.3281,1421.3125 818.3906,1421.7031 Q817.125,1422.2344 815.6094,1422.2344 Q813.8281,1422.2344 812.4063,1421.5 Q811.25,1420.9063 810.4375,1419.6406 Q809.625,1418.375 809.625,1416.8906 L809.625,1415.5313 Q809.625,1413.9688 810.3438,1412.625 Q811.0781,1411.2656 812.3594,1410.5313 Q813.6563,1409.7969 815.1094,1409.7969 Q815.9688,1409.7969 816.7188,1410 Q817.4844,1410.2031 818.1406,1410.6094 Z " fill="#000000"/><text fill="#000000" font-family="sans-serif" font-size="20" lengthAdjust="spacing" textLength="92" x="838" y="1423.8711">Residence</text><line style="stroke:#181818;stroke-width:0.5;" x1="500" x2="1233" y1="1433.2656" y2="1433.2656"/><rect fill="none" height="6" style="stroke:#C82930;stroke-width:1.0;" width="6" x="507" y="1448.3438"/><text fill="#000000" font-family="sans-serif" font-size="20" lengthAdjust="spacing" textLength="203" x="520" y="1458.0273">int numberOfBedrooms</text><rect fill="none" height="6" style="stroke:#C82930;stroke-width:1.0;" width="6" x="507" y="1473.5"/><text fill="#000000" font-family="sans-serif" font-size="20" lengthAdjust="spacing" textLength="208" x="520" y="1483.1836">int numberOfBathrooms</text><rect fill="none" height="6" style="stroke:#C82930;stroke-width:1.0;" width="6" x="507" y="1498.6563"/><text fill="#000000" font-family="sans-serif" font-size="20" lengthAdjust="spacing" textLength="245" x="520" y="1508.3398">int numberOfParkingSpaces</text><line style="stroke:#181818;stroke-width:0.5;" x1="500" x2="1233" y1="1516.7344" y2="1516.7344"/><ellipse cx="510" cy="1534.8125" fill="#84BE84" rx="3" ry="3" style="stroke:#038048;stroke-width:1.0;"/><text fill="#000000" font-family="sans-serif" font-size="20" lengthAdjust="spacing" textLength="708" x="520" y="1541.4961">Residence(numberOfBedrooms, numberOfBathrooms, numberOfParkingSpaces)</text></g><!--class SunExposure--><g id="elem_SunExposure"><rect codeLine="80" fill="#F1F1F1" height="101.4688" id="SunExposure" rx="2.5" ry="2.5" style="stroke:#181818;stroke-width:0.5;" width="230" x="1261.5" y="1749.6094"/><ellipse cx="1314.5" cy="1767.1875" fill="#ADD1B2" rx="12" ry="12" style="stroke:#181818;stroke-width:1.0;"/><path d="M1316.6406,1762.1094 Q1316.8281,1761.8594 1317.0469,1761.7344 Q1317.2656,1761.5938 1317.5156,1761.5938 Q1317.9531,1761.5938 1318.2344,1761.9063 Q1318.5156,1762.2031 1318.5156,1762.9219 L1318.5156,1764.625 Q1318.5156,1765.3438 1318.2344,1765.6563 Q1317.9531,1765.9688 1317.5156,1765.9688 Q1317.125,1765.9688 1316.875,1765.7344 Q1316.625,1765.5156 1316.5156,1764.9063 Q1316.4531,1764.4844 1316.2344,1764.2656 Q1315.8438,1763.8281 1315.125,1763.5625 Q1314.4063,1763.2969 1313.6875,1763.2969 Q1312.7813,1763.2969 1312.0313,1763.6875 Q1311.2813,1764.0781 1310.7031,1764.9688 Q1310.125,1765.8438 1310.125,1767.0469 L1310.125,1768.3438 Q1310.125,1769.7969 1311.1719,1770.7656 Q1312.2344,1771.7344 1314.0938,1771.7344 Q1315.2031,1771.7344 1315.9844,1771.4219 Q1316.4219,1771.25 1316.9375,1770.7344 Q1317.25,1770.4219 1317.4219,1770.3281 Q1317.5938,1770.2344 1317.8281,1770.2344 Q1318.2188,1770.2344 1318.5156,1770.5469 Q1318.8281,1770.8438 1318.8281,1771.25 Q1318.8281,1771.6563 1318.4219,1772.125 Q1317.8281,1772.8125 1316.8906,1773.2031 Q1315.625,1773.7344 1314.1094,1773.7344 Q1312.3281,1773.7344 1310.9063,1773 Q1309.75,1772.4063 1308.9375,1771.1406 Q1308.125,1769.875 1308.125,1768.3906 L1308.125,1767.0313 Q1308.125,1765.4688 1308.8438,1764.125 Q1309.5781,1762.7656 1310.8594,1762.0313 Q1312.1563,1761.2969 1313.6094,1761.2969 Q1314.4688,1761.2969 1315.2188,1761.5 Q1315.9844,1761.7031 1316.6406,1762.1094 Z " fill="#000000"/><text fill="#000000" font-family="sans-serif" font-size="20" lengthAdjust="spacing" textLength="115" x="1336.5" y="1775.3711">SunExposure</text><line style="stroke:#181818;stroke-width:0.5;" x1="1262.5" x2="1490.5" y1="1784.7656" y2="1784.7656"/><rect fill="none" height="6" style="stroke:#C82930;stroke-width:1.0;" width="6" x="1269.5" y="1799.8438"/><text fill="#000000" font-family="sans-serif" font-size="20" lengthAdjust="spacing" textLength="131" x="1282.5" y="1809.5273">String direction</text><line style="stroke:#181818;stroke-width:0.5;" x1="1262.5" x2="1490.5" y1="1817.9219" y2="1817.9219"/><ellipse cx="1272.5" cy="1836" fill="#84BE84" rx="3" ry="3" style="stroke:#038048;stroke-width:1.0;"/><text fill="#000000" font-family="sans-serif" font-size="20" lengthAdjust="spacing" textLength="203" x="1282.5" y="1842.6836">SunExposure(direction)</text></g><!--class AvailableEquipment--><g id="elem_AvailableEquipment"><rect codeLine="86" fill="#F1F1F1" height="101.4688" id="AvailableEquipment" rx="2.5" ry="2.5" style="stroke:#181818;stroke-width:0.5;" width="363" x="7" y="1423.6094"/><ellipse cx="99" cy="1441.1875" fill="#ADD1B2" rx="12" ry="12" style="stroke:#181818;stroke-width:1.0;"/><path d="M101.1406,1436.1094 Q101.3281,1435.8594 101.5469,1435.7344 Q101.7656,1435.5938 102.0156,1435.5938 Q102.4531,1435.5938 102.7344,1435.9063 Q103.0156,1436.2031 103.0156,1436.9219 L103.0156,1438.625 Q103.0156,1439.3438 102.7344,1439.6563 Q102.4531,1439.9688 102.0156,1439.9688 Q101.625,1439.9688 101.375,1439.7344 Q101.125,1439.5156 101.0156,1438.9063 Q100.9531,1438.4844 100.7344,1438.2656 Q100.3438,1437.8281 99.625,1437.5625 Q98.9063,1437.2969 98.1875,1437.2969 Q97.2813,1437.2969 96.5313,1437.6875 Q95.7813,1438.0781 95.2031,1438.9688 Q94.625,1439.8438 94.625,1441.0469 L94.625,1442.3438 Q94.625,1443.7969 95.6719,1444.7656 Q96.7344,1445.7344 98.5938,1445.7344 Q99.7031,1445.7344 100.4844,1445.4219 Q100.9219,1445.25 101.4375,1444.7344 Q101.75,1444.4219 101.9219,1444.3281 Q102.0938,1444.2344 102.3281,1444.2344 Q102.7188,1444.2344 103.0156,1444.5469 Q103.3281,1444.8438 103.3281,1445.25 Q103.3281,1445.6563 102.9219,1446.125 Q102.3281,1446.8125 101.3906,1447.2031 Q100.125,1447.7344 98.6094,1447.7344 Q96.8281,1447.7344 95.4063,1447 Q94.25,1446.4063 93.4375,1445.1406 Q92.625,1443.875 92.625,1442.3906 L92.625,1441.0313 Q92.625,1439.4688 93.3438,1438.125 Q94.0781,1436.7656 95.3594,1436.0313 Q96.6563,1435.2969 98.1094,1435.2969 Q98.9688,1435.2969 99.7188,1435.5 Q100.4844,1435.7031 101.1406,1436.1094 Z " fill="#000000"/><text fill="#000000" font-family="sans-serif" font-size="20" lengthAdjust="spacing" textLength="170" x="121" y="1449.3711">AvailableEquipment</text><line style="stroke:#181818;stroke-width:0.5;" x1="8" x2="369" y1="1458.7656" y2="1458.7656"/><rect fill="none" height="6" style="stroke:#C82930;stroke-width:1.0;" width="6" x="15" y="1473.8438"/><text fill="#000000" font-family="sans-serif" font-size="20" lengthAdjust="spacing" textLength="209" x="28" y="1483.5273">String typeOfEquipment</text><line style="stroke:#181818;stroke-width:0.5;" x1="8" x2="369" y1="1491.9219" y2="1491.9219"/><ellipse cx="18" cy="1510" fill="#84BE84" rx="3" ry="3" style="stroke:#038048;stroke-width:1.0;"/><text fill="#000000" font-family="sans-serif" font-size="20" lengthAdjust="spacing" textLength="336" x="28" y="1516.6836">AvailableEquipment(typeOfEquipment)</text></g><!--class User--><g id="elem_User"><rect codeLine="96" fill="#F1F1F1" height="252.4063" id="User" rx="2.5" ry="2.5" style="stroke:#181818;stroke-width:0.5;" width="192" x="1532.5" y="596.6094"/><ellipse cx="1603.5" cy="614.1875" fill="#ADD1B2" rx="12" ry="12" style="stroke:#181818;stroke-width:1.0;"/><path d="M1605.6406,609.1094 Q1605.8281,608.8594 1606.0469,608.7344 Q1606.2656,608.5938 1606.5156,608.5938 Q1606.9531,608.5938 1607.2344,608.9063 Q1607.5156,609.2031 1607.5156,609.9219 L1607.5156,611.625 Q1607.5156,612.3438 1607.2344,612.6563 Q1606.9531,612.9688 1606.5156,612.9688 Q1606.125,612.9688 1605.875,612.7344 Q1605.625,612.5156 1605.5156,611.9063 Q1605.4531,611.4844 1605.2344,611.2656 Q1604.8438,610.8281 1604.125,610.5625 Q1603.4063,610.2969 1602.6875,610.2969 Q1601.7813,610.2969 1601.0313,610.6875 Q1600.2813,611.0781 1599.7031,611.9688 Q1599.125,612.8438 1599.125,614.0469 L1599.125,615.3438 Q1599.125,616.7969 1600.1719,617.7656 Q1601.2344,618.7344 1603.0938,618.7344 Q1604.2031,618.7344 1604.9844,618.4219 Q1605.4219,618.25 1605.9375,617.7344 Q1606.25,617.4219 1606.4219,617.3281 Q1606.5938,617.2344 1606.8281,617.2344 Q1607.2188,617.2344 1607.5156,617.5469 Q1607.8281,617.8438 1607.8281,618.25 Q1607.8281,618.6563 1607.4219,619.125 Q1606.8281,619.8125 1605.8906,620.2031 Q1604.625,620.7344 1603.1094,620.7344 Q1601.3281,620.7344 1599.9063,620 Q1598.75,619.4063 1597.9375,618.1406 Q1597.125,616.875 1597.125,615.3906 L1597.125,614.0313 Q1597.125,612.4688 1597.8438,611.125 Q1598.5781,609.7656 1599.8594,609.0313 Q1601.1563,608.2969 1602.6094,608.2969 Q1603.4688,608.2969 1604.2188,608.5 Q1604.9844,608.7031 1605.6406,609.1094 Z " fill="#000000"/><text fill="#000000" font-family="sans-serif" font-size="20" lengthAdjust="spacing" textLength="41" x="1625.5" y="622.3711">User</text><line style="stroke:#181818;stroke-width:0.5;" x1="1533.5" x2="1723.5" y1="631.7656" y2="631.7656"/><ellipse cx="1543.5" cy="649.8438" fill="none" rx="3" ry="3" style="stroke:#038048;stroke-width:1.0;"/><text fill="#000000" font-family="sans-serif" font-size="20" lengthAdjust="spacing" textLength="105" x="1553.5" y="656.5273">String name</text><ellipse cx="1543.5" cy="675" fill="none" rx="3" ry="3" style="stroke:#038048;stroke-width:1.0;"/><text fill="#000000" font-family="sans-serif" font-size="20" lengthAdjust="spacing" textLength="123" x="1553.5" y="681.6836">int tax number</text><ellipse cx="1543.5" cy="700.1563" fill="none" rx="3" ry="3" style="stroke:#038048;stroke-width:1.0;"/><text fill="#000000" font-family="sans-serif" font-size="20" lengthAdjust="spacing" textLength="150" x="1553.5" y="706.8398">int phone number</text><ellipse cx="1543.5" cy="725.3125" fill="none" rx="3" ry="3" style="stroke:#038048;stroke-width:1.0;"/><text fill="#000000" font-family="sans-serif" font-size="20" lengthAdjust="spacing" textLength="103" x="1553.5" y="731.9961">String email</text><line style="stroke:#181818;stroke-width:0.5;" x1="1533.5" x2="1723.5" y1="740.3906" y2="740.3906"/><rect fill="#F24D5C" height="6" style="stroke:#C82930;stroke-width:1.0;" width="6" x="1540.5" y="755.4688"/><text fill="#000000" font-family="sans-serif" font-size="20" lengthAdjust="spacing" textLength="93" x="1553.5" y="765.1523">getName()</text><rect fill="#F24D5C" height="6" style="stroke:#C82930;stroke-width:1.0;" width="6" x="1540.5" y="780.625"/><text fill="#000000" font-family="sans-serif" font-size="20" lengthAdjust="spacing" textLength="90" x="1553.5" y="790.3086">getEmail()</text><rect fill="#F24D5C" height="6" style="stroke:#C82930;stroke-width:1.0;" width="6" x="1540.5" y="805.7813"/><text fill="#000000" font-family="sans-serif" font-size="20" lengthAdjust="spacing" textLength="165" x="1553.5" y="815.4648">getPhoneNumber()</text><rect fill="#F24D5C" height="6" style="stroke:#C82930;stroke-width:1.0;" width="6" x="1540.5" y="830.9375"/><text fill="#000000" font-family="sans-serif" font-size="20" lengthAdjust="spacing" textLength="142" x="1553.5" y="840.6211">getTaxNumber()</text></g><!--class Address--><g id="elem_Address"><rect codeLine="108" fill="#F1F1F1" height="227.25" id="Address" rx="2.5" ry="2.5" style="stroke:#181818;stroke-width:0.5;" width="416" x="1497.5" y="1097.6094"/><ellipse cx="1664.5" cy="1115.1875" fill="#ADD1B2" rx="12" ry="12" style="stroke:#181818;stroke-width:1.0;"/><path d="M1666.6406,1110.1094 Q1666.8281,1109.8594 1667.0469,1109.7344 Q1667.2656,1109.5938 1667.5156,1109.5938 Q1667.9531,1109.5938 1668.2344,1109.9063 Q1668.5156,1110.2031 1668.5156,1110.9219 L1668.5156,1112.625 Q1668.5156,1113.3438 1668.2344,1113.6563 Q1667.9531,1113.9688 1667.5156,1113.9688 Q1667.125,1113.9688 1666.875,1113.7344 Q1666.625,1113.5156 1666.5156,1112.9063 Q1666.4531,1112.4844 1666.2344,1112.2656 Q1665.8438,1111.8281 1665.125,1111.5625 Q1664.4063,1111.2969 1663.6875,1111.2969 Q1662.7813,1111.2969 1662.0313,1111.6875 Q1661.2813,1112.0781 1660.7031,1112.9688 Q1660.125,1113.8438 1660.125,1115.0469 L1660.125,1116.3438 Q1660.125,1117.7969 1661.1719,1118.7656 Q1662.2344,1119.7344 1664.0938,1119.7344 Q1665.2031,1119.7344 1665.9844,1119.4219 Q1666.4219,1119.25 1666.9375,1118.7344 Q1667.25,1118.4219 1667.4219,1118.3281 Q1667.5938,1118.2344 1667.8281,1118.2344 Q1668.2188,1118.2344 1668.5156,1118.5469 Q1668.8281,1118.8438 1668.8281,1119.25 Q1668.8281,1119.6563 1668.4219,1120.125 Q1667.8281,1120.8125 1666.8906,1121.2031 Q1665.625,1121.7344 1664.1094,1121.7344 Q1662.3281,1121.7344 1660.9063,1121 Q1659.75,1120.4063 1658.9375,1119.1406 Q1658.125,1117.875 1658.125,1116.3906 L1658.125,1115.0313 Q1658.125,1113.4688 1658.8438,1112.125 Q1659.5781,1110.7656 1660.8594,1110.0313 Q1662.1563,1109.2969 1663.6094,1109.2969 Q1664.4688,1109.2969 1665.2188,1109.5 Q1665.9844,1109.7031 1666.6406,1110.1094 Z " fill="#000000"/><text fill="#000000" font-family="sans-serif" font-size="20" lengthAdjust="spacing" textLength="73" x="1686.5" y="1123.3711">Address</text><line style="stroke:#181818;stroke-width:0.5;" x1="1498.5" x2="1912.5" y1="1132.7656" y2="1132.7656"/><rect fill="none" height="6" style="stroke:#C82930;stroke-width:1.0;" width="6" x="1505.5" y="1147.8438"/><text fill="#000000" font-family="sans-serif" font-size="20" lengthAdjust="spacing" textLength="159" x="1518.5" y="1157.5273">String streetName</text><rect fill="none" height="6" style="stroke:#C82930;stroke-width:1.0;" width="6" x="1505.5" y="1173"/><text fill="#000000" font-family="sans-serif" font-size="20" lengthAdjust="spacing" textLength="97" x="1518.5" y="1182.6836">int zipCode</text><line style="stroke:#181818;stroke-width:0.5;" x1="1498.5" x2="1912.5" y1="1191.0781" y2="1191.0781"/><ellipse cx="1508.5" cy="1209.1563" fill="#84BE84" rx="3" ry="3" style="stroke:#038048;stroke-width:1.0;"/><text fill="#000000" font-family="sans-serif" font-size="20" lengthAdjust="spacing" textLength="135" x="1518.5" y="1215.8398">verifyZipCode()</text><ellipse cx="1508.5" cy="1234.3125" fill="#84BE84" rx="3" ry="3" style="stroke:#038048;stroke-width:1.0;"/><text fill="#000000" font-family="sans-serif" font-size="20" lengthAdjust="spacing" textLength="76" x="1518.5" y="1240.9961">getCity()</text><ellipse cx="1508.5" cy="1259.4688" fill="#84BE84" rx="3" ry="3" style="stroke:#038048;stroke-width:1.0;"/><text fill="#000000" font-family="sans-serif" font-size="20" lengthAdjust="spacing" textLength="103" x="1518.5" y="1266.1523">getDistrict()</text><ellipse cx="1508.5" cy="1284.625" fill="#84BE84" rx="3" ry="3" style="stroke:#038048;stroke-width:1.0;"/><text fill="#000000" font-family="sans-serif" font-size="20" lengthAdjust="spacing" textLength="89" x="1518.5" y="1291.3086">getState()</text><ellipse cx="1508.5" cy="1309.7813" fill="#84BE84" rx="3" ry="3" style="stroke:#038048;stroke-width:1.0;"/><text fill="#000000" font-family="sans-serif" font-size="20" lengthAdjust="spacing" textLength="389" x="1518.5" y="1316.4648">Address(state, district, city, street, zipCode)</text></g><!--class City--><g id="elem_City"><rect codeLine="121" fill="#F1F1F1" height="101.4688" id="City" rx="2.5" ry="2.5" style="stroke:#181818;stroke-width:0.5;" width="165" x="2600" y="1160.6094"/><ellipse cx="2661" cy="1178.1875" fill="#ADD1B2" rx="12" ry="12" style="stroke:#181818;stroke-width:1.0;"/><path d="M2663.1406,1173.1094 Q2663.3281,1172.8594 2663.5469,1172.7344 Q2663.7656,1172.5938 2664.0156,1172.5938 Q2664.4531,1172.5938 2664.7344,1172.9063 Q2665.0156,1173.2031 2665.0156,1173.9219 L2665.0156,1175.625 Q2665.0156,1176.3438 2664.7344,1176.6563 Q2664.4531,1176.9688 2664.0156,1176.9688 Q2663.625,1176.9688 2663.375,1176.7344 Q2663.125,1176.5156 2663.0156,1175.9063 Q2662.9531,1175.4844 2662.7344,1175.2656 Q2662.3438,1174.8281 2661.625,1174.5625 Q2660.9063,1174.2969 2660.1875,1174.2969 Q2659.2813,1174.2969 2658.5313,1174.6875 Q2657.7813,1175.0781 2657.2031,1175.9688 Q2656.625,1176.8438 2656.625,1178.0469 L2656.625,1179.3438 Q2656.625,1180.7969 2657.6719,1181.7656 Q2658.7344,1182.7344 2660.5938,1182.7344 Q2661.7031,1182.7344 2662.4844,1182.4219 Q2662.9219,1182.25 2663.4375,1181.7344 Q2663.75,1181.4219 2663.9219,1181.3281 Q2664.0938,1181.2344 2664.3281,1181.2344 Q2664.7188,1181.2344 2665.0156,1181.5469 Q2665.3281,1181.8438 2665.3281,1182.25 Q2665.3281,1182.6563 2664.9219,1183.125 Q2664.3281,1183.8125 2663.3906,1184.2031 Q2662.125,1184.7344 2660.6094,1184.7344 Q2658.8281,1184.7344 2657.4063,1184 Q2656.25,1183.4063 2655.4375,1182.1406 Q2654.625,1180.875 2654.625,1179.3906 L2654.625,1178.0313 Q2654.625,1176.4688 2655.3438,1175.125 Q2656.0781,1173.7656 2657.3594,1173.0313 Q2658.6563,1172.2969 2660.1094,1172.2969 Q2660.9688,1172.2969 2661.7188,1172.5 Q2662.4844,1172.7031 2663.1406,1173.1094 Z " fill="#000000"/><text fill="#000000" font-family="sans-serif" font-size="20" lengthAdjust="spacing" textLength="34" x="2683" y="1186.3711">City</text><line style="stroke:#181818;stroke-width:0.5;" x1="2601" x2="2764" y1="1195.7656" y2="1195.7656"/><rect fill="none" height="6" style="stroke:#C82930;stroke-width:1.0;" width="6" x="2608" y="1210.8438"/><text fill="#000000" font-family="sans-serif" font-size="20" lengthAdjust="spacing" textLength="138" x="2621" y="1220.5273">String cityName</text><line style="stroke:#181818;stroke-width:0.5;" x1="2601" x2="2764" y1="1228.9219" y2="1228.9219"/><rect fill="#F24D5C" height="6" style="stroke:#C82930;stroke-width:1.0;" width="6" x="2608" y="1244"/><text fill="#000000" font-family="sans-serif" font-size="20" lengthAdjust="spacing" textLength="127" x="2621" y="1253.6836">getCityName()</text></g><!--class District--><g id="elem_District"><rect codeLine="127" fill="#F1F1F1" height="101.4688" id="District" rx="2.5" ry="2.5" style="stroke:#181818;stroke-width:0.5;" width="193" x="2302" y="1160.6094"/><ellipse cx="2363.5" cy="1178.1875" fill="#ADD1B2" rx="12" ry="12" style="stroke:#181818;stroke-width:1.0;"/><path d="M2365.6406,1173.1094 Q2365.8281,1172.8594 2366.0469,1172.7344 Q2366.2656,1172.5938 2366.5156,1172.5938 Q2366.9531,1172.5938 2367.2344,1172.9063 Q2367.5156,1173.2031 2367.5156,1173.9219 L2367.5156,1175.625 Q2367.5156,1176.3438 2367.2344,1176.6563 Q2366.9531,1176.9688 2366.5156,1176.9688 Q2366.125,1176.9688 2365.875,1176.7344 Q2365.625,1176.5156 2365.5156,1175.9063 Q2365.4531,1175.4844 2365.2344,1175.2656 Q2364.8438,1174.8281 2364.125,1174.5625 Q2363.4063,1174.2969 2362.6875,1174.2969 Q2361.7813,1174.2969 2361.0313,1174.6875 Q2360.2813,1175.0781 2359.7031,1175.9688 Q2359.125,1176.8438 2359.125,1178.0469 L2359.125,1179.3438 Q2359.125,1180.7969 2360.1719,1181.7656 Q2361.2344,1182.7344 2363.0938,1182.7344 Q2364.2031,1182.7344 2364.9844,1182.4219 Q2365.4219,1182.25 2365.9375,1181.7344 Q2366.25,1181.4219 2366.4219,1181.3281 Q2366.5938,1181.2344 2366.8281,1181.2344 Q2367.2188,1181.2344 2367.5156,1181.5469 Q2367.8281,1181.8438 2367.8281,1182.25 Q2367.8281,1182.6563 2367.4219,1183.125 Q2366.8281,1183.8125 2365.8906,1184.2031 Q2364.625,1184.7344 2363.1094,1184.7344 Q2361.3281,1184.7344 2359.9063,1184 Q2358.75,1183.4063 2357.9375,1182.1406 Q2357.125,1180.875 2357.125,1179.3906 L2357.125,1178.0313 Q2357.125,1176.4688 2357.8438,1175.125 Q2358.5781,1173.7656 2359.8594,1173.0313 Q2361.1563,1172.2969 2362.6094,1172.2969 Q2363.4688,1172.2969 2364.2188,1172.5 Q2364.9844,1172.7031 2365.6406,1173.1094 Z " fill="#000000"/><text fill="#000000" font-family="sans-serif" font-size="20" lengthAdjust="spacing" textLength="61" x="2385.5" y="1186.3711">District</text><line style="stroke:#181818;stroke-width:0.5;" x1="2303" x2="2494" y1="1195.7656" y2="1195.7656"/><rect fill="none" height="6" style="stroke:#C82930;stroke-width:1.0;" width="6" x="2310" y="1210.8438"/><text fill="#000000" font-family="sans-serif" font-size="20" lengthAdjust="spacing" textLength="166" x="2323" y="1220.5273">String districtName</text><line style="stroke:#181818;stroke-width:0.5;" x1="2303" x2="2494" y1="1228.9219" y2="1228.9219"/><rect fill="#F24D5C" height="6" style="stroke:#C82930;stroke-width:1.0;" width="6" x="2310" y="1244"/><text fill="#000000" font-family="sans-serif" font-size="20" lengthAdjust="spacing" textLength="154" x="2323" y="1253.6836">getDistrictName()</text></g><!--class State--><g id="elem_State"><rect codeLine="133" fill="#F1F1F1" height="101.4688" id="State" rx="2.5" ry="2.5" style="stroke:#181818;stroke-width:0.5;" width="179" x="2018" y="1160.6094"/><ellipse cx="2079.5" cy="1178.1875" fill="#ADD1B2" rx="12" ry="12" style="stroke:#181818;stroke-width:1.0;"/><path d="M2081.6406,1173.1094 Q2081.8281,1172.8594 2082.0469,1172.7344 Q2082.2656,1172.5938 2082.5156,1172.5938 Q2082.9531,1172.5938 2083.2344,1172.9063 Q2083.5156,1173.2031 2083.5156,1173.9219 L2083.5156,1175.625 Q2083.5156,1176.3438 2083.2344,1176.6563 Q2082.9531,1176.9688 2082.5156,1176.9688 Q2082.125,1176.9688 2081.875,1176.7344 Q2081.625,1176.5156 2081.5156,1175.9063 Q2081.4531,1175.4844 2081.2344,1175.2656 Q2080.8438,1174.8281 2080.125,1174.5625 Q2079.4063,1174.2969 2078.6875,1174.2969 Q2077.7813,1174.2969 2077.0313,1174.6875 Q2076.2813,1175.0781 2075.7031,1175.9688 Q2075.125,1176.8438 2075.125,1178.0469 L2075.125,1179.3438 Q2075.125,1180.7969 2076.1719,1181.7656 Q2077.2344,1182.7344 2079.0938,1182.7344 Q2080.2031,1182.7344 2080.9844,1182.4219 Q2081.4219,1182.25 2081.9375,1181.7344 Q2082.25,1181.4219 2082.4219,1181.3281 Q2082.5938,1181.2344 2082.8281,1181.2344 Q2083.2188,1181.2344 2083.5156,1181.5469 Q2083.8281,1181.8438 2083.8281,1182.25 Q2083.8281,1182.6563 2083.4219,1183.125 Q2082.8281,1183.8125 2081.8906,1184.2031 Q2080.625,1184.7344 2079.1094,1184.7344 Q2077.3281,1184.7344 2075.9063,1184 Q2074.75,1183.4063 2073.9375,1182.1406 Q2073.125,1180.875 2073.125,1179.3906 L2073.125,1178.0313 Q2073.125,1176.4688 2073.8438,1175.125 Q2074.5781,1173.7656 2075.8594,1173.0313 Q2077.1563,1172.2969 2078.6094,1172.2969 Q2079.4688,1172.2969 2080.2188,1172.5 Q2080.9844,1172.7031 2081.6406,1173.1094 Z " fill="#000000"/><text fill="#000000" font-family="sans-serif" font-size="20" lengthAdjust="spacing" textLength="47" x="2101.5" y="1186.3711">State</text><line style="stroke:#181818;stroke-width:0.5;" x1="2019" x2="2196" y1="1195.7656" y2="1195.7656"/><rect fill="none" height="6" style="stroke:#C82930;stroke-width:1.0;" width="6" x="2026" y="1210.8438"/><text fill="#000000" font-family="sans-serif" font-size="20" lengthAdjust="spacing" textLength="152" x="2039" y="1220.5273">String stateName</text><line style="stroke:#181818;stroke-width:0.5;" x1="2019" x2="2196" y1="1228.9219" y2="1228.9219"/><rect fill="#F24D5C" height="6" style="stroke:#C82930;stroke-width:1.0;" width="6" x="2026" y="1244"/><text fill="#000000" font-family="sans-serif" font-size="20" lengthAdjust="spacing" textLength="140" x="2039" y="1253.6836">getStateName()</text></g><!--class Comission--><g id="elem_Comission"><rect codeLine="142" fill="#F1F1F1" height="126.625" id="Comission" rx="2.5" ry="2.5" style="stroke:#181818;stroke-width:0.5;" width="249" x="2867" y="909.6094"/><ellipse cx="2942" cy="927.1875" fill="#ADD1B2" rx="12" ry="12" style="stroke:#181818;stroke-width:1.0;"/><path d="M2944.1406,922.1094 Q2944.3281,921.8594 2944.5469,921.7344 Q2944.7656,921.5938 2945.0156,921.5938 Q2945.4531,921.5938 2945.7344,921.9063 Q2946.0156,922.2031 2946.0156,922.9219 L2946.0156,924.625 Q2946.0156,925.3438 2945.7344,925.6563 Q2945.4531,925.9688 2945.0156,925.9688 Q2944.625,925.9688 2944.375,925.7344 Q2944.125,925.5156 2944.0156,924.9063 Q2943.9531,924.4844 2943.7344,924.2656 Q2943.3438,923.8281 2942.625,923.5625 Q2941.9063,923.2969 2941.1875,923.2969 Q2940.2813,923.2969 2939.5313,923.6875 Q2938.7813,924.0781 2938.2031,924.9688 Q2937.625,925.8438 2937.625,927.0469 L2937.625,928.3438 Q2937.625,929.7969 2938.6719,930.7656 Q2939.7344,931.7344 2941.5938,931.7344 Q2942.7031,931.7344 2943.4844,931.4219 Q2943.9219,931.25 2944.4375,930.7344 Q2944.75,930.4219 2944.9219,930.3281 Q2945.0938,930.2344 2945.3281,930.2344 Q2945.7188,930.2344 2946.0156,930.5469 Q2946.3281,930.8438 2946.3281,931.25 Q2946.3281,931.6563 2945.9219,932.125 Q2945.3281,932.8125 2944.3906,933.2031 Q2943.125,933.7344 2941.6094,933.7344 Q2939.8281,933.7344 2938.4063,933 Q2937.25,932.4063 2936.4375,931.1406 Q2935.625,929.875 2935.625,928.3906 L2935.625,927.0313 Q2935.625,925.4688 2936.3438,924.125 Q2937.0781,922.7656 2938.3594,922.0313 Q2939.6563,921.2969 2941.1094,921.2969 Q2941.9688,921.2969 2942.7188,921.5 Q2943.4844,921.7031 2944.1406,922.1094 Z " fill="#000000"/><text fill="#000000" font-family="sans-serif" font-size="20" lengthAdjust="spacing" textLength="90" x="2964" y="935.3711">Comission</text><line style="stroke:#181818;stroke-width:0.5;" x1="2868" x2="3115" y1="944.7656" y2="944.7656"/><rect fill="none" height="6" style="stroke:#C82930;stroke-width:1.0;" width="6" x="2875" y="959.8438"/><text fill="#000000" font-family="sans-serif" font-size="20" lengthAdjust="spacing" textLength="163" x="2888" y="969.5273">double percentage</text><rect fill="none" height="6" style="stroke:#C82930;stroke-width:1.0;" width="6" x="2875" y="985"/><text fill="#000000" font-family="sans-serif" font-size="20" lengthAdjust="spacing" textLength="160" x="2888" y="994.6836">double staticValue</text><line style="stroke:#181818;stroke-width:0.5;" x1="2868" x2="3115" y1="1003.0781" y2="1003.0781"/><ellipse cx="2878" cy="1021.1563" fill="#84BE84" rx="3" ry="3" style="stroke:#038048;stroke-width:1.0;"/><text fill="#000000" font-family="sans-serif" font-size="20" lengthAdjust="spacing" textLength="222" x="2888" y="1027.8398">calculateFinalComission()</text></g><!--class Rent--><g id="elem_Rent"><rect codeLine="150" fill="#F1F1F1" height="126.625" id="Rent" rx="2.5" ry="2.5" style="stroke:#181818;stroke-width:0.5;" width="220" x="2055.5" y="2011.6094"/><ellipse cx="2140.5" cy="2029.1875" fill="#ADD1B2" rx="12" ry="12" style="stroke:#181818;stroke-width:1.0;"/><path d="M2142.6406,2024.1094 Q2142.8281,2023.8594 2143.0469,2023.7344 Q2143.2656,2023.5938 2143.5156,2023.5938 Q2143.9531,2023.5938 2144.2344,2023.9063 Q2144.5156,2024.2031 2144.5156,2024.9219 L2144.5156,2026.625 Q2144.5156,2027.3438 2144.2344,2027.6563 Q2143.9531,2027.9688 2143.5156,2027.9688 Q2143.125,2027.9688 2142.875,2027.7344 Q2142.625,2027.5156 2142.5156,2026.9063 Q2142.4531,2026.4844 2142.2344,2026.2656 Q2141.8438,2025.8281 2141.125,2025.5625 Q2140.4063,2025.2969 2139.6875,2025.2969 Q2138.7813,2025.2969 2138.0313,2025.6875 Q2137.2813,2026.0781 2136.7031,2026.9688 Q2136.125,2027.8438 2136.125,2029.0469 L2136.125,2030.3438 Q2136.125,2031.7969 2137.1719,2032.7656 Q2138.2344,2033.7344 2140.0938,2033.7344 Q2141.2031,2033.7344 2141.9844,2033.4219 Q2142.4219,2033.25 2142.9375,2032.7344 Q2143.25,2032.4219 2143.4219,2032.3281 Q2143.5938,2032.2344 2143.8281,2032.2344 Q2144.2188,2032.2344 2144.5156,2032.5469 Q2144.8281,2032.8438 2144.8281,2033.25 Q2144.8281,2033.6563 2144.4219,2034.125 Q2143.8281,2034.8125 2142.8906,2035.2031 Q2141.625,2035.7344 2140.1094,2035.7344 Q2138.3281,2035.7344 2136.9063,2035 Q2135.75,2034.4063 2134.9375,2033.1406 Q2134.125,2031.875 2134.125,2030.3906 L2134.125,2029.0313 Q2134.125,2027.4688 2134.8438,2026.125 Q2135.5781,2024.7656 2136.8594,2024.0313 Q2138.1563,2023.2969 2139.6094,2023.2969 Q2140.4688,2023.2969 2141.2188,2023.5 Q2141.9844,2023.7031 2142.6406,2024.1094 Z " fill="#000000"/><text fill="#000000" font-family="sans-serif" font-size="20" lengthAdjust="spacing" textLength="41" x="2162.5" y="2037.3711">Rent</text><line style="stroke:#181818;stroke-width:0.5;" x1="2056.5" x2="2274.5" y1="2046.7656" y2="2046.7656"/><rect fill="none" height="6" style="stroke:#C82930;stroke-width:1.0;" width="6" x="2063.5" y="2061.8438"/><text fill="#000000" font-family="sans-serif" font-size="20" lengthAdjust="spacing" textLength="193" x="2076.5" y="2071.5273">int durationOfContract</text><line style="stroke:#181818;stroke-width:0.5;" x1="2056.5" x2="2274.5" y1="2079.9219" y2="2079.9219"/><ellipse cx="2066.5" cy="2098" fill="#84BE84" rx="3" ry="3" style="stroke:#038048;stroke-width:1.0;"/><text fill="#000000" font-family="sans-serif" font-size="20" lengthAdjust="spacing" textLength="173" x="2076.5" y="2104.6836">getFinalComission()</text><ellipse cx="2066.5" cy="2123.1563" fill="#84BE84" rx="3" ry="3" style="stroke:#038048;stroke-width:1.0;"/><text fill="#000000" font-family="sans-serif" font-size="20" lengthAdjust="spacing" textLength="180" x="2076.5" y="2129.8398">calculateTotalPrice()</text></g><!--class Announcement--><g id="elem_Announcement"><rect codeLine="157" fill="#F1F1F1" height="176.9375" id="Announcement" rx="2.5" ry="2.5" style="stroke:#181818;stroke-width:0.5;" width="640" x="1845.5" y="1385.6094"/><ellipse cx="2097" cy="1403.1875" fill="#ADD1B2" rx="12" ry="12" style="stroke:#181818;stroke-width:1.0;"/><path d="M2099.1406,1398.1094 Q2099.3281,1397.8594 2099.5469,1397.7344 Q2099.7656,1397.5938 2100.0156,1397.5938 Q2100.4531,1397.5938 2100.7344,1397.9063 Q2101.0156,1398.2031 2101.0156,1398.9219 L2101.0156,1400.625 Q2101.0156,1401.3438 2100.7344,1401.6563 Q2100.4531,1401.9688 2100.0156,1401.9688 Q2099.625,1401.9688 2099.375,1401.7344 Q2099.125,1401.5156 2099.0156,1400.9063 Q2098.9531,1400.4844 2098.7344,1400.2656 Q2098.3438,1399.8281 2097.625,1399.5625 Q2096.9063,1399.2969 2096.1875,1399.2969 Q2095.2813,1399.2969 2094.5313,1399.6875 Q2093.7813,1400.0781 2093.2031,1400.9688 Q2092.625,1401.8438 2092.625,1403.0469 L2092.625,1404.3438 Q2092.625,1405.7969 2093.6719,1406.7656 Q2094.7344,1407.7344 2096.5938,1407.7344 Q2097.7031,1407.7344 2098.4844,1407.4219 Q2098.9219,1407.25 2099.4375,1406.7344 Q2099.75,1406.4219 2099.9219,1406.3281 Q2100.0938,1406.2344 2100.3281,1406.2344 Q2100.7188,1406.2344 2101.0156,1406.5469 Q2101.3281,1406.8438 2101.3281,1407.25 Q2101.3281,1407.6563 2100.9219,1408.125 Q2100.3281,1408.8125 2099.3906,1409.2031 Q2098.125,1409.7344 2096.6094,1409.7344 Q2094.8281,1409.7344 2093.4063,1409 Q2092.25,1408.4063 2091.4375,1407.1406 Q2090.625,1405.875 2090.625,1404.3906 L2090.625,1403.0313 Q2090.625,1401.4688 2091.3438,1400.125 Q2092.0781,1398.7656 2093.3594,1398.0313 Q2094.6563,1397.2969 2096.1094,1397.2969 Q2096.9688,1397.2969 2097.7188,1397.5 Q2098.4844,1397.7031 2099.1406,1398.1094 Z " fill="#000000"/><text fill="#000000" font-family="sans-serif" font-size="20" lengthAdjust="spacing" textLength="128" x="2119" y="1411.3711">Announcement</text><line style="stroke:#181818;stroke-width:0.5;" x1="1846.5" x2="2484.5" y1="1420.7656" y2="1420.7656"/><rect fill="none" height="6" style="stroke:#C82930;stroke-width:1.0;" width="6" x="1853.5" y="1435.8438"/><text fill="#000000" font-family="sans-serif" font-size="20" lengthAdjust="spacing" textLength="142" x="1866.5" y="1445.5273">String initialDate</text><rect fill="none" height="6" style="stroke:#C82930;stroke-width:1.0;" width="6" x="1853.5" y="1461"/><text fill="#000000" font-family="sans-serif" font-size="20" lengthAdjust="spacing" textLength="134" x="1866.5" y="1470.6836">String finalDate</text><rect fill="none" height="6" style="stroke:#C82930;stroke-width:1.0;" width="6" x="1853.5" y="1486.1563"/><text fill="#000000" font-family="sans-serif" font-size="20" lengthAdjust="spacing" textLength="172" x="1866.5" y="1495.8398">String contractType</text><line style="stroke:#181818;stroke-width:0.5;" x1="1846.5" x2="2484.5" y1="1504.2344" y2="1504.2344"/><ellipse cx="1856.5" cy="1522.3125" fill="#84BE84" rx="3" ry="3" style="stroke:#038048;stroke-width:1.0;"/><text fill="#000000" font-family="sans-serif" font-size="20" lengthAdjust="spacing" textLength="83" x="1866.5" y="1528.9961">getUser()</text><ellipse cx="1856.5" cy="1547.4688" fill="#84BE84" rx="3" ry="3" style="stroke:#038048;stroke-width:1.0;"/><text fill="#000000" font-family="sans-serif" font-size="20" lengthAdjust="spacing" textLength="613" x="1866.5" y="1554.1523">PublishedAnnouncement(initialDate, finalDate, AnnouncementRequest)</text></g><!--class Business--><g id="elem_Business"><rect codeLine="166" fill="#F1F1F1" height="176.9375" id="Business" rx="2.5" ry="2.5" style="stroke:#181818;stroke-width:0.5;" width="292" x="2019.5" y="1711.6094"/><ellipse cx="2122" cy="1729.1875" fill="#ADD1B2" rx="12" ry="12" style="stroke:#181818;stroke-width:1.0;"/><path d="M2124.1406,1724.1094 Q2124.3281,1723.8594 2124.5469,1723.7344 Q2124.7656,1723.5938 2125.0156,1723.5938 Q2125.4531,1723.5938 2125.7344,1723.9063 Q2126.0156,1724.2031 2126.0156,1724.9219 L2126.0156,1726.625 Q2126.0156,1727.3438 2125.7344,1727.6563 Q2125.4531,1727.9688 2125.0156,1727.9688 Q2124.625,1727.9688 2124.375,1727.7344 Q2124.125,1727.5156 2124.0156,1726.9063 Q2123.9531,1726.4844 2123.7344,1726.2656 Q2123.3438,1725.8281 2122.625,1725.5625 Q2121.9063,1725.2969 2121.1875,1725.2969 Q2120.2813,1725.2969 2119.5313,1725.6875 Q2118.7813,1726.0781 2118.2031,1726.9688 Q2117.625,1727.8438 2117.625,1729.0469 L2117.625,1730.3438 Q2117.625,1731.7969 2118.6719,1732.7656 Q2119.7344,1733.7344 2121.5938,1733.7344 Q2122.7031,1733.7344 2123.4844,1733.4219 Q2123.9219,1733.25 2124.4375,1732.7344 Q2124.75,1732.4219 2124.9219,1732.3281 Q2125.0938,1732.2344 2125.3281,1732.2344 Q2125.7188,1732.2344 2126.0156,1732.5469 Q2126.3281,1732.8438 2126.3281,1733.25 Q2126.3281,1733.6563 2125.9219,1734.125 Q2125.3281,1734.8125 2124.3906,1735.2031 Q2123.125,1735.7344 2121.6094,1735.7344 Q2119.8281,1735.7344 2118.4063,1735 Q2117.25,1734.4063 2116.4375,1733.1406 Q2115.625,1731.875 2115.625,1730.3906 L2115.625,1729.0313 Q2115.625,1727.4688 2116.3438,1726.125 Q2117.0781,1724.7656 2118.3594,1724.0313 Q2119.6563,1723.2969 2121.1094,1723.2969 Q2121.9688,1723.2969 2122.7188,1723.5 Q2123.4844,1723.7031 2124.1406,1724.1094 Z " fill="#000000"/><text fill="#000000" font-family="sans-serif" font-size="20" lengthAdjust="spacing" textLength="78" x="2144" y="1737.3711">Business</text><line style="stroke:#181818;stroke-width:0.5;" x1="2020.5" x2="2310.5" y1="1746.7656" y2="1746.7656"/><rect fill="none" height="6" style="stroke:#C82930;stroke-width:1.0;" width="6" x="2027.5" y="1761.8438"/><text fill="#000000" font-family="sans-serif" font-size="20" lengthAdjust="spacing" textLength="197" x="2040.5" y="1771.5273">double requestedPrice</text><rect fill="none" height="6" style="stroke:#C82930;stroke-width:1.0;" width="6" x="2027.5" y="1787"/><text fill="#000000" font-family="sans-serif" font-size="20" lengthAdjust="spacing" textLength="195" x="2040.5" y="1796.6836">String typeOfBusiness</text><line style="stroke:#181818;stroke-width:0.5;" x1="2020.5" x2="2310.5" y1="1805.0781" y2="1805.0781"/><ellipse cx="2030.5" cy="1823.1563" fill="#84BE84" rx="3" ry="3" style="stroke:#038048;stroke-width:1.0;"/><text fill="#000000" font-family="sans-serif" font-size="20" lengthAdjust="spacing" textLength="173" x="2040.5" y="1829.8398">getFinalComission()</text><ellipse cx="2030.5" cy="1848.3125" fill="#84BE84" rx="3" ry="3" style="stroke:#038048;stroke-width:1.0;"/><text fill="#000000" font-family="sans-serif" font-size="20" lengthAdjust="spacing" textLength="265" x="2040.5" y="1854.9961">calculatePriceWithComission()</text><ellipse cx="2030.5" cy="1873.4688" fill="#84BE84" rx="3" ry="3" style="stroke:#038048;stroke-width:1.0;"/><text fill="#000000" font-family="sans-serif" font-size="20" lengthAdjust="spacing" textLength="186" x="2040.5" y="1880.1523">getTypeOfBusiness()</text></g><!--class Agent--><g id="elem_Agent"><rect fill="#F1F1F1" height="51.1563" id="Agent" rx="2.5" ry="2.5" style="stroke:#181818;stroke-width:0.5;" width="85" x="2662" y="947.6094"/><ellipse cx="2678" cy="965.1875" fill="#ADD1B2" rx="12" ry="12" style="stroke:#181818;stroke-width:1.0;"/><path d="M2680.1406,960.1094 Q2680.3281,959.8594 2680.5469,959.7344 Q2680.7656,959.5938 2681.0156,959.5938 Q2681.4531,959.5938 2681.7344,959.9063 Q2682.0156,960.2031 2682.0156,960.9219 L2682.0156,962.625 Q2682.0156,963.3438 2681.7344,963.6563 Q2681.4531,963.9688 2681.0156,963.9688 Q2680.625,963.9688 2680.375,963.7344 Q2680.125,963.5156 2680.0156,962.9063 Q2679.9531,962.4844 2679.7344,962.2656 Q2679.3438,961.8281 2678.625,961.5625 Q2677.9063,961.2969 2677.1875,961.2969 Q2676.2813,961.2969 2675.5313,961.6875 Q2674.7813,962.0781 2674.2031,962.9688 Q2673.625,963.8438 2673.625,965.0469 L2673.625,966.3438 Q2673.625,967.7969 2674.6719,968.7656 Q2675.7344,969.7344 2677.5938,969.7344 Q2678.7031,969.7344 2679.4844,969.4219 Q2679.9219,969.25 2680.4375,968.7344 Q2680.75,968.4219 2680.9219,968.3281 Q2681.0938,968.2344 2681.3281,968.2344 Q2681.7188,968.2344 2682.0156,968.5469 Q2682.3281,968.8438 2682.3281,969.25 Q2682.3281,969.6563 2681.9219,970.125 Q2681.3281,970.8125 2680.3906,971.2031 Q2679.125,971.7344 2677.6094,971.7344 Q2675.8281,971.7344 2674.4063,971 Q2673.25,970.4063 2672.4375,969.1406 Q2671.625,967.875 2671.625,966.3906 L2671.625,965.0313 Q2671.625,963.4688 2672.3438,962.125 Q2673.0781,960.7656 2674.3594,960.0313 Q2675.6563,959.2969 2677.1094,959.2969 Q2677.9688,959.2969 2678.7188,959.5 Q2679.4844,959.7031 2680.1406,960.1094 Z " fill="#000000"/><text fill="#000000" font-family="sans-serif" font-size="20" lengthAdjust="spacing" textLength="51" x="2693" y="973.3711">Agent</text><line style="stroke:#181818;stroke-width:0.5;" x1="2663" x2="2746" y1="982.7656" y2="982.7656"/><line style="stroke:#181818;stroke-width:0.5;" x1="2663" x2="2746" y1="990.7656" y2="990.7656"/></g><!--link PublishAnnouncementUI to PublishAnnouncementController--><g id="link_PublishAnnouncementUI_PublishAnnouncementController"><path codeLine="21" d="M465.18,171.6094 C476.21,171.6094 486.47,171.6094 495.12,171.6094 " fill="none" id="PublishAnnouncementUI-to-PublishAnnouncementController" style="stroke:#181818;stroke-width:1.0;stroke-dasharray:7.0,7.0;"/><polygon fill="#181818" points="500.29,171.6094,491.29,167.6094,495.29,171.6094,491.29,175.6094,500.29,171.6094" style="stroke:#181818;stroke-width:1.0;"/></g><!--link PublishAnnouncementController to Repositories--><g id="link_PublishAnnouncementController_Repositories"><path codeLine="182" d="M1254.52,171.6094 C1301.81,171.6094 1347.84,171.6094 1388.67,171.6094 " fill="none" id="PublishAnnouncementController-to-Repositories" style="stroke:#181818;stroke-width:1.0;stroke-dasharray:7.0,7.0;"/><polygon fill="#181818" points="1394.13,171.6094,1385.13,167.6094,1389.13,171.6094,1385.13,175.6094,1394.13,171.6094" style="stroke:#181818;stroke-width:1.0;"/><text fill="#000000" font-family="sans-serif" font-size="20" lengthAdjust="spacing" textLength="103" x="1273" y="163.3711">repositories</text></g><!--link Repositories to Repositories--><g id="link_Repositories_Repositories"><path codeLine="183" d="M1686.8,143.3394 C1707.56,147.9094 1721.5,157.3394 1721.5,171.6094 C1721.5,184.6594 1709.86,193.6494 1691.99,198.5894 " fill="none" id="Repositories-to-Repositories" style="stroke:#181818;stroke-width:1.0;"/><polygon fill="#181818" points="1686.8,199.8794,1696.4967,201.604,1691.6541,198.6801,1694.5779,193.8375,1686.8,199.8794" style="stroke:#181818;stroke-width:1.0;"/><text fill="#000000" font-family="sans-serif" font-size="20" lengthAdjust="spacing" textLength="72" x="1727.5" y="179.8711">instance</text></g><!--link Repositories to UserIdentityRepository--><g id="link_Repositories_UserIdentityRepository"><path codeLine="184" d="M1584.76,297.8394 C1595.23,327.4594 1605.68,357.0294 1613.74,379.8294 " fill="none" id="Repositories-to-UserIdentityRepository" style="stroke:#181818;stroke-width:1.0;stroke-dasharray:7.0,7.0;"/><polygon fill="#181818" points="1615.42,384.5894,1616.209,374.7722,1613.7619,379.8723,1608.6617,377.4252,1615.42,384.5894" style="stroke:#181818;stroke-width:1.0;"/><text fill="#000000" font-family="sans-serif" font-size="20" lengthAdjust="spacing" textLength="105" x="1603.5" y="349.3711">UserIdentity</text></g><!--link Repositories to TypeComissionRepository--><g id="link_Repositories_TypeComissionRepository"><path codeLine="185" d="M1686.78,217.0294 C1918.03,287.2594 2364.17,422.7394 2582.67,489.0894 " fill="none" id="Repositories-to-TypeComissionRepository" style="stroke:#181818;stroke-width:1.0;stroke-dasharray:7.0,7.0;"/><polygon fill="#181818" points="2587.47,490.5494,2580.0253,484.1013,2582.6868,489.093,2577.6951,491.7545,2587.47,490.5494" style="stroke:#181818;stroke-width:1.0;"/><text fill="#000000" font-family="sans-serif" font-size="20" lengthAdjust="spacing" textLength="86" x="2126.5" y="349.3711">comission</text></g><!--link Repositories to AnnouncementRepository--><g id="link_Repositories_AnnouncementRepository"><path codeLine="186" d="M1394.43,262.0994 C1338.33,296.4694 1287.5,327.6094 1287.5,327.6094 C1287.5,327.6094 1284.36,354.4794 1281.43,379.4894 " fill="none" id="Repositories-to-AnnouncementRepository" style="stroke:#181818;stroke-width:1.0;stroke-dasharray:7.0,7.0;"/><polygon fill="#181818" points="1280.85,384.4594,1285.8756,375.9892,1281.435,379.4937,1277.9305,375.0532,1280.85,384.4594" style="stroke:#181818;stroke-width:1.0;"/><text fill="#000000" font-family="sans-serif" font-size="20" lengthAdjust="spacing" textLength="126" x="1288.5" y="349.3711">announcement</text></g><!--link Repositories to PropertyTypeRepository--><g id="link_Repositories_PropertyTypeRepository"><path codeLine="187" d="M1484,297.7194 C1476.04,315.3494 1470.5,327.6094 1470.5,327.6094 C1470.5,327.6094 1456.15,426.5594 1447.64,485.2594 " fill="none" id="Repositories-to-PropertyTypeRepository" style="stroke:#181818;stroke-width:1.0;stroke-dasharray:7.0,7.0;"/><polygon fill="#181818" points="1446.89,490.4594,1452.1327,482.1219,1447.6031,485.5105,1444.2145,480.9809,1446.89,490.4594" style="stroke:#181818;stroke-width:1.0;"/><text fill="#000000" font-family="sans-serif" font-size="20" lengthAdjust="spacing" textLength="118" x="1471.5" y="349.3711">propertyType</text></g><!--link PropertyTypeRepository to Property--><g id="link_PropertyTypeRepository_Property"><path codeLine="191" d="M1437.36,566.9594 C1429.1,641.5694 1410.45,809.9994 1399.98,904.5194 " fill="none" id="PropertyTypeRepository-to-Property" style="stroke:#181818;stroke-width:1.0;"/><polygon fill="#181818" points="1399.43,909.5194,1404.3833,901.0068,1399.9728,904.5489,1396.4306,900.1384,1399.43,909.5194" style="stroke:#181818;stroke-width:1.0;"/></g><!--reverse link Residence to House--><g id="link_Residence_House"><path codeLine="192" d="M866.5,1570.4994 C866.5,1624.0194 866.5,1689.2794 866.5,1736.3494 " fill="none" id="Residence-backto-House" style="stroke:#181818;stroke-width:1.0;"/><polygon fill="none" points="859.5,1570.2594,866.5,1550.2594,873.5,1570.2594,859.5,1570.2594" style="stroke:#181818;stroke-width:1.0;"/></g><!--reverse link Property to Residence--><g id="link_Property_Residence"><path codeLine="193" d="M1299.66,1049.4394 C1287.14,1059.5994 1278.5,1066.6094 1278.5,1066.6094 C1278.5,1066.6094 1061.59,1280.6194 942.55,1398.0794 " fill="none" id="Property-backto-Residence" style="stroke:#181818;stroke-width:1.0;"/><polygon fill="none" points="1295.26,1043.9994,1315.2,1036.8294,1304.08,1054.8694,1295.26,1043.9994" style="stroke:#181818;stroke-width:1.0;"/></g><!--link Photos to Property--><g id="link_Photos_Property"><path codeLine="194" d="M1098.19,973.1094 C1122.99,973.1094 1153.5,973.1094 1185.39,973.1094 " fill="none" id="Photos-Property" style="stroke:#181818;stroke-width:1.0;"/><polygon fill="#000000" points="1115.25,956.6875,1129.7221,961.3898,1129.7221,951.9852,1115.25,956.6875" style="stroke:#000000;stroke-width:1.0;"/><text fill="#000000" font-family="sans-serif" font-size="20" lengthAdjust="spacing" textLength="31" x="1136.25" y="964.8711">has</text><text fill="#000000" font-family="sans-serif" font-size="20" lengthAdjust="spacing" textLength="45" x="1105.9284" y="995.0551">1..30</text><text fill="#000000" font-family="sans-serif" font-size="20" lengthAdjust="spacing" textLength="11" x="1166.7493" y="968.4314">1</text></g><!--link SunExposure to House--><g id="link_SunExposure_House"><path codeLine="195" d="M1261.31,1800.1094 C1222.82,1800.1094 1178.19,1800.1094 1133.08,1800.1094 " fill="none" id="SunExposure-House" style="stroke:#181818;stroke-width:1.0;"/><polygon fill="#000000" points="1166.25,1783.6875,1151.7779,1778.9852,1151.7779,1788.3898,1166.25,1783.6875" style="stroke:#000000;stroke-width:1.0;"/><text fill="#000000" font-family="sans-serif" font-size="20" lengthAdjust="spacing" textLength="72" x="1171.25" y="1791.8711">contains</text><text fill="#000000" font-family="sans-serif" font-size="20" lengthAdjust="spacing" textLength="11" x="1242.5783" y="1795.0603">1</text><text fill="#000000" font-family="sans-serif" font-size="20" lengthAdjust="spacing" textLength="8" x="1141.1128" y="1795.5079">*</text></g><!--link AvailableEquipment to Residence--><g id="link_AvailableEquipment_Residence"><path codeLine="196" d="M370.19,1474.1094 C410.3,1474.1094 454.18,1474.1094 498.73,1474.1094 " fill="none" id="AvailableEquipment-Residence" style="stroke:#181818;stroke-width:1.0;"/><polygon fill="#000000" points="387.5,1457.6875,401.9721,1462.3898,401.9721,1452.9852,387.5,1457.6875" style="stroke:#000000;stroke-width:1.0;"/><text fill="#000000" font-family="sans-serif" font-size="20" lengthAdjust="spacing" textLength="72" x="408.5" y="1465.8711">contains</text><text fill="#000000" font-family="sans-serif" font-size="20" lengthAdjust="spacing" textLength="8" x="378.0238" y="1469.3372">*</text><text fill="#000000" font-family="sans-serif" font-size="20" lengthAdjust="spacing" textLength="11" x="480.148" y="1469.621">1</text></g><!--link Address to State--><g id="link_Address_State"><path codeLine="201" d="M1913.57,1211.1094 C1950.16,1211.1094 1986.44,1211.1094 2017.55,1211.1094 " fill="none" id="Address-State" style="stroke:#181818;stroke-width:1.0;"/><polygon fill="#000000" points="1946.75,1194.6875,1932.2779,1189.9852,1932.2779,1199.3898,1946.75,1194.6875" style="stroke:#000000;stroke-width:1.0;"/><text fill="#000000" font-family="sans-serif" font-size="20" lengthAdjust="spacing" textLength="48" x="1951.75" y="1202.8711">has a</text><text fill="#000000" font-family="sans-serif" font-size="20" lengthAdjust="spacing" textLength="11" x="1921.2452" y="1206.4202">1</text><text fill="#000000" font-family="sans-serif" font-size="20" lengthAdjust="spacing" textLength="8" x="2002.0634" y="1205.8625">*</text></g><!--link District to City--><g id="link_District_City"><path codeLine="202" d="M2495.05,1211.1094 C2529.14,1211.1094 2567.13,1211.1094 2599.96,1211.1094 " fill="none" id="District-City" style="stroke:#181818;stroke-width:1.0;"/><polygon fill="#000000" points="2528.5,1194.6875,2514.0279,1189.9852,2514.0279,1199.3898,2528.5,1194.6875" style="stroke:#000000;stroke-width:1.0;"/><text fill="#000000" font-family="sans-serif" font-size="20" lengthAdjust="spacing" textLength="48" x="2533.5" y="1202.8711">has a</text><text fill="#000000" font-family="sans-serif" font-size="20" lengthAdjust="spacing" textLength="11" x="2502.8632" y="1205.9021">1</text><text fill="#000000" font-family="sans-serif" font-size="20" lengthAdjust="spacing" textLength="8" x="2583.9821" y="1205.7043">*</text></g><!--link State to District--><g id="link_State_District"><path codeLine="203" d="M2197.18,1211.1094 C2230.33,1211.1094 2268.04,1211.1094 2301.78,1211.1094 " fill="none" id="State-District" style="stroke:#181818;stroke-width:1.0;"/><polygon fill="#000000" points="2230.5,1194.6875,2216.0279,1189.9852,2216.0279,1199.3898,2230.5,1194.6875" style="stroke:#000000;stroke-width:1.0;"/><text fill="#000000" font-family="sans-serif" font-size="20" lengthAdjust="spacing" textLength="48" x="2235.5" y="1202.8711">has a</text><text fill="#000000" font-family="sans-serif" font-size="20" lengthAdjust="spacing" textLength="11" x="2205.0621" y="1205.823">1</text><text fill="#000000" font-family="sans-serif" font-size="20" lengthAdjust="spacing" textLength="8" x="2286.0686" y="1205.9021">*</text></g><!--link User to Address--><g id="link_User_Address"><path codeLine="204" d="M1648.33,848.8994 C1660.47,925.6094 1675.88,1022.9894 1687.65,1097.2994 " fill="none" id="User-Address" style="stroke:#181818;stroke-width:1.0;"/><polygon fill="#000000" points="1687.7508,981.0891,1690.1326,966.0598,1680.8436,967.5301,1687.7508,981.0891" style="stroke:#000000;stroke-width:1.0;"/><text fill="#000000" font-family="sans-serif" font-size="20" lengthAdjust="spacing" textLength="31" x="1699.5" y="981.3711">has</text><text fill="#000000" font-family="sans-serif" font-size="20" lengthAdjust="spacing" textLength="11" x="1638.1585" y="877.6777">1</text><text fill="#000000" font-family="sans-serif" font-size="20" lengthAdjust="spacing" textLength="11" x="1675.2271" y="1085.3612">1</text></g><!--link UserIdentityRepository to User--><g id="link_UserIdentityRepository_User"><path codeLine="205" d="M1628.5,460.7494 C1628.5,493.6394 1628.5,543.6694 1628.5,591.1494 " fill="none" id="UserIdentityRepository-to-User" style="stroke:#181818;stroke-width:1.0;stroke-dasharray:7.0,7.0;"/><polygon fill="#181818" points="1628.5,596.3294,1632.5,587.3294,1628.5,591.3294,1624.5,587.3294,1628.5,596.3294" style="stroke:#181818;stroke-width:1.0;"/></g><!--link User to Property--><g id="link_User_Property"><path codeLine="206" d="M1532.17,825.0394 C1506.29,852.2894 1478.98,881.0494 1455.43,905.8394 " fill="none" id="User-to-Property" style="stroke:#181818;stroke-width:1.0;"/><polygon fill="#181818" points="1451.99,909.4694,1461.0864,905.6937,1455.4315,905.8422,1455.283,900.1873,1451.99,909.4694" style="stroke:#181818;stroke-width:1.0;"/></g><!--link TypeComissionRepository to Comission--><g id="link_TypeComissionRepository_Comission"><path codeLine="210" d="M2733.3,566.9594 C2780.94,641.7194 2888.62,810.6694 2948.78,905.0794 " fill="none" id="TypeComissionRepository-to-Comission" style="stroke:#181818;stroke-width:1.0;"/><polygon fill="#181818" points="2951.61,909.5194,2950.1464,899.7799,2948.9228,905.3028,2943.3999,904.0793,2951.61,909.5194" style="stroke:#181818;stroke-width:1.0;"/></g><!--link Agent to Comission--><g id="link_Agent_Comission"><path codeLine="211" d="M2747.16,973.1094 C2778.93,973.1094 2824.05,973.1094 2866.88,973.1094 " fill="none" id="Agent-Comission" style="stroke:#181818;stroke-width:1.0;"/><polygon fill="#000000" points="2780.5,956.6875,2766.0279,951.9852,2766.0279,961.3898,2780.5,956.6875" style="stroke:#000000;stroke-width:1.0;"/><text fill="#000000" font-family="sans-serif" font-size="20" lengthAdjust="spacing" textLength="63" x="2785.5" y="964.8711">defines</text><text fill="#000000" font-family="sans-serif" font-size="20" lengthAdjust="spacing" textLength="11" x="2755.1365" y="966.8008">1</text><text fill="#000000" font-family="sans-serif" font-size="20" lengthAdjust="spacing" textLength="11" x="2847.9508" y="968.1256">1</text></g><!--link Comission to Business--><g id="link_Comission_Business"><path codeLine="212" d="M2991.5,1036.7294 C2991.5,1106.6494 2991.5,1210.1094 2991.5,1210.1094 C2991.5,1210.1094 2991.5,1210.1094 2991.5,1638.1094 C2991.5,1638.1094 2548.99,1724.3594 2311.75,1770.5994 " fill="none" id="Comission-Business" style="stroke:#181818;stroke-width:1.0;"/><polygon fill="#000000" points="3004.9363,1468.3184,2991.6522,1475.7403,2998.5517,1482.1311,3004.9363,1468.3184" style="stroke:#000000;stroke-width:1.0;"/><text fill="#000000" font-family="sans-serif" font-size="20" lengthAdjust="spacing" textLength="72" x="3012.5" y="1482.3711">contains</text><text fill="#000000" font-family="sans-serif" font-size="20" lengthAdjust="spacing" textLength="11" x="2979.9586" y="1065.0103">1</text><text fill="#000000" font-family="sans-serif" font-size="20" lengthAdjust="spacing" textLength="11" x="2319.5746" y="1764.2006">1</text></g><!--link Property to Business--><g id="link_Property_Business"><path codeLine="213" d="M1369.15,1036.7294 C1343.08,1106.6494 1304.5,1210.1094 1304.5,1210.1094 C1304.5,1210.1094 1304.5,1210.1094 1304.5,1638.1094 C1304.5,1638.1094 1773.8,1725.8594 2019.44,1771.7994 " fill="none" id="Property-Business" style="stroke:#181818;stroke-width:1.0;"/><polygon fill="#000000" points="1307.1992,1468.1957,1313.2665,1482.1507,1320.3103,1475.9193,1307.1992,1468.1957" style="stroke:#000000;stroke-width:1.0;"/><text fill="#000000" font-family="sans-serif" font-size="20" lengthAdjust="spacing" textLength="48" x="1325.5" y="1482.3711">has a</text><text fill="#000000" font-family="sans-serif" font-size="20" lengthAdjust="spacing" textLength="11" x="1355.3101" y="1065.0103">1</text><text fill="#000000" font-family="sans-serif" font-size="20" lengthAdjust="spacing" textLength="11" x="2000.6252" y="1765.4625">1</text></g><!--link Announcement to Business--><g id="link_Announcement_Business"><path codeLine="214" d="M2165.5,1562.7894 C2165.5,1608.8894 2165.5,1665.2494 2165.5,1711.3594 " fill="none" id="Announcement-Business" style="stroke:#181818;stroke-width:1.0;"/><polygon fill="#000000" points="2173.5,1645.1875,2178.2023,1630.7154,2168.7977,1630.7154,2173.5,1645.1875" style="stroke:#000000;stroke-width:1.0;"/><text fill="#000000" font-family="sans-serif" font-size="20" lengthAdjust="spacing" textLength="31" x="2186.5" y="1645.3711">has</text><text fill="#000000" font-family="sans-serif" font-size="20" lengthAdjust="spacing" textLength="11" x="2154.0789" y="1591.3061">1</text><text fill="#000000" font-family="sans-serif" font-size="20" lengthAdjust="spacing" textLength="11" x="2154.0617" y="1699.0615">1</text></g><!--link Property to Announcement--><g id="link_Property_Announcement"><path codeLine="215" d="M1395.54,1036.7694 C1400.43,1137.5894 1409.5,1324.6094 1409.5,1324.6094 C1409.5,1324.6094 1639.25,1369.7394 1845.44,1410.2394 " fill="none" id="Property-Announcement" style="stroke:#181818;stroke-width:1.0;"/><polygon fill="#000000" points="1411.3445,1206.0777,1419.4764,1218.9395,1425.4834,1211.7033,1411.3445,1206.0777" style="stroke:#000000;stroke-width:1.0;"/><text fill="#000000" font-family="sans-serif" font-size="20" lengthAdjust="spacing" textLength="48" x="1430.5" y="1219.3711">has a</text><text fill="#000000" font-family="sans-serif" font-size="20" lengthAdjust="spacing" textLength="11" x="1384.2978" y="1065.0542">1</text><text fill="#000000" font-family="sans-serif" font-size="20" lengthAdjust="spacing" textLength="11" x="1826.8097" y="1404.2137">1</text></g><!--link Agent to Announcement--><g id="link_Agent_Announcement"><path codeLine="216" d="M2720.1,998.8094 C2742.86,1034.8494 2782.5,1097.6094 2782.5,1097.6094 C2782.5,1097.6094 2782.5,1324.6094 2782.5,1324.6094 C2782.5,1324.6094 2635.98,1359.8694 2485.75,1396.0294 " fill="none" id="Agent-Announcement" style="stroke:#181818;stroke-width:1.0;"/><polygon fill="#000000" points="2786.4349,1218.0777,2797.8387,1208.0026,2789.7387,1203.2238,2786.4349,1218.0777" style="stroke:#000000;stroke-width:1.0;"/><text fill="#000000" font-family="sans-serif" font-size="20" lengthAdjust="spacing" textLength="81" x="2803.5" y="1219.3711">publishes</text><text fill="#000000" font-family="sans-serif" font-size="20" lengthAdjust="spacing" textLength="11" x="2711.1831" y="1027.4498">1</text><text fill="#000000" font-family="sans-serif" font-size="20" lengthAdjust="spacing" textLength="8" x="2493.3496" y="1389.6707">*</text></g><!--reverse link Business to Rent--><g id="link_Business_Rent"><path codeLine="217" d="M2165.5,1908.7094 C2165.5,1943.4894 2165.5,1980.8894 2165.5,2011.3094 " fill="none" id="Business-backto-Rent" style="stroke:#181818;stroke-width:1.0;"/><polygon fill="none" points="2158.5,1908.6194,2165.5,1888.6194,2172.5,1908.6194,2158.5,1908.6194" style="stroke:#181818;stroke-width:1.0;"/></g><!--SRC=[ZLTBR-Cs4BxpLn2vrDb8GRgz6Oi0YPEW1egDiKvQeEY5aMYBY4ngIMeRxxR_lSEdI4aEgfF4-UQR1uSpb7fbl2EI75fHlT8QrtH7-bO_2Awtx3l57w_GJofWy45mKJLI72ZMigTea7IaUYLxkjN7bc99Aqtulaq1gY6r-9lnFTwHLgMIbd6gZnt5dMYFvYEr68L2Qf4AgfOeTQErP2-zfkjASEilkDlIdSPQOCdsZSOrCzummH7IJ8Dppzkhgu-un2j3WEyOsGCTGiWIuat_qZBLt70kUbxH0-NwUVsUT0MPag9jgSG_48Rd0dVleHQT51sL-lW4KNsXdL1C2taiI88UbiyzvPxgb4ujpa_RoYmKiAEgagmpAIXm9PGkCECx8G-alKj4Vt5DguQpAb_6TI-9UNlSfJOiBTjpApf7_o8qcpXyUVr-pa9YOyICAiXZcNv3hEW24h3c2gggeelpPIgsiflPx86c4MvyFYQ2PqNbkWOLbWgjoEHk9GvCAGWmaPbGdSlp9cCHpEnOLDtCba2YcG9InNc7Vqo2INLEH09AU8ZJYvqUGcD7VLGbhWNi9iL4Kk9N63TdpEtC0tI6fuQkm8CLE6AsruOKQ1P6hpWDJrFK22rKCBk5OmwTu_dBUa3yAdf5esEtGhIKS4pVW9m2-UFkbYYRUhpqBUSaSiqRyi8qWT1-4xj1mNbl3IrcY8jtE99Gli19gGt8EEiInll32vN0H6ifn45DrebkPWKR8g43xhVGRg7odN-HVp6cBQQ4nJnLukwsv_TlK2Mz7BBhyv_qKcivWIwYBA6w-KPOQp9o_xLddTsB4QDfxO-xAFQyKxt523YgKrFxKD2Ub9C3HHScRPgy-NZTTzS8JkEAXzC3M4EeXDFm6JJX39ZNUxFgtpT6xRFLyYjFv2r-3-7MjQHAXHWzlTAIEcQtRFpuphgLg4E1VQEIxOv_khNGsS78oftay7a7jIPPfPEbhIOwQdZp2sKMtIapS6Zwm5DuFufWssVGUMuiURU7lJ5grctdjtV8foW67RoQrefRpndkajMKnGRYA2A3ZIDNtuQbsAYy_w6_nHXyeuAsKq6vmCra933ahFgTj7tO1GoJh-fRCF30E6aZfJSLpd9ImxRrnV5eXngfGWs3jnCUAuXcdeGcxGQoaMKY7HhZd3BED8Fv3CgvO6SiJPShxv9fyeDRvh04P_nmfdLsWKZi50DtCHfvNtkgqZvtsokuh0tr7r8j7PBMDjRiRBXJ7HJ_T-OiqHzCDnE8dsW3vo9hnCcjuSISpku8jiJUl_F11IUxkomXtCHA9YlBCPZvAqsEkmJI-KaFzAbWgdPYs8DU5LQdIYTkCakStacdQlEt651BxvysW_D0auuWGiEG_FHF2JyAl2pTX8_QYI221-7PpsUuD3V_4bulBt-vElDNY2LkYCBNA1rh5bpQ_mE0VpXpbfRsl13O4_m9pOmk0unAm12zo1JDuxePuAD7Ps4uE7S81gHjkZaejCS45VjhZhGc4fWf2n_NZBrhTAAUGgav_Mn7u3bLJMuVheUsY-ARyw7ld0zxCBWq_vJcB9gGSvZpD1pLB8tvnevmBchOfBHNfi7dqEivODyvQ30KMCVW3pQSa5GNaF_fiY75hWVbQKlJt6B-0m00]--></g></svg>