<?xml version="1.0" encoding="UTF-8" standalone="no"?><svg xmlns="http://www.w3.org/2000/svg" xmlns:xlink="http://www.w3.org/1999/xlink" contentStyleType="text/css" height="514px" preserveAspectRatio="none" style="width:1023px;height:514px;background:#FFFFFF;" version="1.1" viewBox="0 0 1023 514" width="1023px" zoomAndPan="magnify"><defs/><g><rect fill="#FFFFFF" height="315.25" style="stroke:#181818;stroke-width:1.0;" width="10" x="215" y="111.4688"/><rect fill="#FFFFFF" height="39.1563" style="stroke:#181818;stroke-width:1.0;" width="10" x="375" y="184.7813"/><rect fill="#FFFFFF" height="39.1563" style="stroke:#181818;stroke-width:1.0;" width="10" x="535" y="263.0938"/><rect fill="#FFFFFF" height="39.1563" style="stroke:#181818;stroke-width:1.0;" width="10" x="927" y="341.4063"/><rect fill="none" height="262.0938" style="stroke:#000000;stroke-width:1.5;" width="890.5" x="126.5" y="126.4688"/><line style="stroke:#181818;stroke-width:0.5;stroke-dasharray:5.0,5.0;" x1="219.5" x2="219.5" y1="70.3125" y2="444.7188"/><line style="stroke:#181818;stroke-width:0.5;stroke-dasharray:5.0,5.0;" x1="380" x2="380" y1="70.3125" y2="444.7188"/><line style="stroke:#181818;stroke-width:0.5;stroke-dasharray:5.0,5.0;" x1="540" x2="540" y1="70.3125" y2="444.7188"/><line style="stroke:#181818;stroke-width:0.5;stroke-dasharray:5.0,5.0;" x1="731" x2="731" y1="70.3125" y2="444.7188"/><line style="stroke:#181818;stroke-width:0.5;stroke-dasharray:5.0,5.0;" x1="932" x2="932" y1="70.3125" y2="444.7188"/><rect fill="#E3E3E3" height="39.1563" rx="2.5" ry="2.5" style="stroke:#181818;stroke-width:0.5;" width="167" x="136.5" y="30.1563"/><text fill="#000000" font-family="sans-serif" font-size="20" lengthAdjust="spacing" textLength="153" x="143.5" y="57.918">:PublishController</text><rect fill="#E3E3E3" height="39.1563" rx="2.5" ry="2.5" style="stroke:#181818;stroke-width:0.5;" width="167" x="136.5" y="443.7188"/><text fill="#000000" font-family="sans-serif" font-size="20" lengthAdjust="spacing" textLength="153" x="143.5" y="471.4805">:PublishController</text><rect fill="#E3E3E3" height="39.1563" rx="2.5" ry="2.5" style="stroke:#181818;stroke-width:0.5;" width="130" x="315" y="30.1563"/><text fill="#000000" font-family="sans-serif" font-size="20" lengthAdjust="spacing" textLength="116" x="322" y="57.918">:Repositories</text><rect fill="#E3E3E3" height="39.1563" rx="2.5" ry="2.5" style="stroke:#181818;stroke-width:0.5;" width="130" x="315" y="443.7188"/><text fill="#000000" font-family="sans-serif" font-size="20" lengthAdjust="spacing" textLength="116" x="322" y="471.4805">:Repositories</text><rect fill="#E3E3E3" height="64.3125" rx="2.5" ry="2.5" style="stroke:#181818;stroke-width:0.5;" width="130" x="475" y="5"/><text fill="#000000" font-family="sans-serif" font-size="20" lengthAdjust="spacing" textLength="103" x="488.5" y="32.7617">repositories</text><text fill="#000000" font-family="sans-serif" font-size="20" lengthAdjust="spacing" textLength="116" x="482" y="57.918">:Repositories</text><rect fill="#E3E3E3" height="64.3125" rx="2.5" ry="2.5" style="stroke:#181818;stroke-width:0.5;" width="130" x="475" y="443.7188"/><text fill="#000000" font-family="sans-serif" font-size="20" lengthAdjust="spacing" textLength="103" x="488.5" y="471.4805">repositories</text><text fill="#000000" font-family="sans-serif" font-size="20" lengthAdjust="spacing" textLength="116" x="482" y="496.6367">:Repositories</text><rect fill="#E3E3E3" height="64.3125" rx="2.5" ry="2.5" style="stroke:#181818;stroke-width:0.5;" width="232" x="615" y="5"/><text fill="#000000" font-family="sans-serif" font-size="20" lengthAdjust="spacing" textLength="203" x="629.5" y="32.7617">userIdentityRepository:</text><text fill="#000000" font-family="sans-serif" font-size="20" lengthAdjust="spacing" textLength="212" x="628" y="57.918">User Identity Repository</text><rect fill="#E3E3E3" height="64.3125" rx="2.5" ry="2.5" style="stroke:#181818;stroke-width:0.5;" width="232" x="615" y="443.7188"/><text fill="#000000" font-family="sans-serif" font-size="20" lengthAdjust="spacing" textLength="203" x="629.5" y="471.4805">userIdentityRepository:</text><text fill="#000000" font-family="sans-serif" font-size="20" lengthAdjust="spacing" textLength="212" x="628" y="496.6367">User Identity Repository</text><rect fill="#E3E3E3" height="39.1563" rx="2.5" ry="2.5" style="stroke:#181818;stroke-width:0.5;" width="150" x="857" y="30.1563"/><text fill="#000000" font-family="sans-serif" font-size="20" lengthAdjust="spacing" textLength="136" x="864" y="57.918">UserRepository</text><rect fill="#E3E3E3" height="39.1563" rx="2.5" ry="2.5" style="stroke:#181818;stroke-width:0.5;" width="150" x="857" y="443.7188"/><text fill="#000000" font-family="sans-serif" font-size="20" lengthAdjust="spacing" textLength="136" x="864" y="471.4805">UserRepository</text><rect fill="#FFFFFF" height="315.25" style="stroke:#181818;stroke-width:1.0;" width="10" x="215" y="111.4688"/><rect fill="#FFFFFF" height="39.1563" style="stroke:#181818;stroke-width:1.0;" width="10" x="375" y="184.7813"/><rect fill="#FFFFFF" height="39.1563" style="stroke:#181818;stroke-width:1.0;" width="10" x="535" y="263.0938"/><rect fill="#FFFFFF" height="39.1563" style="stroke:#181818;stroke-width:1.0;" width="10" x="927" y="341.4063"/><polygon fill="#181818" points="203,107.4688,213,111.4688,203,115.4688,207,111.4688" style="stroke:#181818;stroke-width:1.0;"/><line style="stroke:#181818;stroke-width:1.0;" x1="0" x2="209" y1="111.4688" y2="111.4688"/><text fill="#000000" font-family="sans-serif" font-size="20" font-weight="bold" lengthAdjust="spacing" textLength="11" x="7" y="105.0742">5</text><text fill="#000000" font-family="sans-serif" font-size="20" lengthAdjust="spacing" textLength="181" x="22" y="105.0742">getUserInformation()</text><path d="M126.5,126.4688 L369.5,126.4688 L369.5,143.625 L359.5,153.625 L126.5,153.625 L126.5,126.4688 " fill="#EEEEEE" style="stroke:#000000;stroke-width:1.5;"/><rect fill="none" height="262.0938" style="stroke:#000000;stroke-width:1.5;" width="890.5" x="126.5" y="126.4688"/><text fill="#000000" font-family="sans-serif" font-size="20" font-weight="bold" lengthAdjust="spacing" textLength="198" x="141.5" y="148.2305">Get User Information</text><polygon fill="#181818" points="363,180.7813,373,184.7813,363,188.7813,367,184.7813" style="stroke:#181818;stroke-width:1.0;"/><line style="stroke:#181818;stroke-width:1.0;" x1="225" x2="369" y1="184.7813" y2="184.7813"/><text fill="#000000" font-family="sans-serif" font-size="20" font-weight="bold" lengthAdjust="spacing" textLength="11" x="232" y="178.3867">6</text><text fill="#000000" font-family="sans-serif" font-size="20" lengthAdjust="spacing" textLength="116" x="247" y="178.3867">getInstance()</text><polygon fill="#181818" points="236,219.9375,226,223.9375,236,227.9375,232,223.9375" style="stroke:#181818;stroke-width:1.0;"/><line style="stroke:#181818;stroke-width:1.0;stroke-dasharray:2.0,2.0;" x1="230" x2="379" y1="223.9375" y2="223.9375"/><text fill="#000000" font-family="sans-serif" font-size="20" font-weight="bold" lengthAdjust="spacing" textLength="11" x="242" y="217.543">7</text><text fill="#000000" font-family="sans-serif" font-size="20" lengthAdjust="spacing" textLength="103" x="257" y="217.543">repositories</text><polygon fill="#181818" points="523,259.0938,533,263.0938,523,267.0938,527,263.0938" style="stroke:#181818;stroke-width:1.0;"/><line style="stroke:#181818;stroke-width:1.0;" x1="225" x2="529" y1="263.0938" y2="263.0938"/><text fill="#000000" font-family="sans-serif" font-size="20" font-weight="bold" lengthAdjust="spacing" textLength="11" x="232" y="256.6992">8</text><text fill="#000000" font-family="sans-serif" font-size="20" lengthAdjust="spacing" textLength="276" x="247" y="256.6992">getUserInformationRepository()</text><polygon fill="#181818" points="236,298.25,226,302.25,236,306.25,232,302.25" style="stroke:#181818;stroke-width:1.0;"/><line style="stroke:#181818;stroke-width:1.0;stroke-dasharray:2.0,2.0;" x1="230" x2="539" y1="302.25" y2="302.25"/><text fill="#000000" font-family="sans-serif" font-size="20" font-weight="bold" lengthAdjust="spacing" textLength="11" x="242" y="295.8555">9</text><text fill="#000000" font-family="sans-serif" font-size="20" lengthAdjust="spacing" textLength="234" x="257" y="295.8555">UserInformationRepository</text><polygon fill="#181818" points="915,337.4063,925,341.4063,915,345.4063,919,341.4063" style="stroke:#181818;stroke-width:1.0;"/><line style="stroke:#181818;stroke-width:1.0;" x1="225" x2="921" y1="341.4063" y2="341.4063"/><text fill="#000000" font-family="sans-serif" font-size="20" font-weight="bold" lengthAdjust="spacing" textLength="22" x="232" y="335.0117">10</text><text fill="#000000" font-family="sans-serif" font-size="20" lengthAdjust="spacing" textLength="181" x="258" y="335.0117">getUserInformation()</text><polygon fill="#181818" points="236,376.5625,226,380.5625,236,384.5625,232,380.5625" style="stroke:#181818;stroke-width:1.0;"/><line style="stroke:#181818;stroke-width:1.0;stroke-dasharray:2.0,2.0;" x1="230" x2="931" y1="380.5625" y2="380.5625"/><text fill="#000000" font-family="sans-serif" font-size="20" font-weight="bold" lengthAdjust="spacing" textLength="22" x="242" y="374.168">11</text><text fill="#000000" font-family="sans-serif" font-size="20" lengthAdjust="spacing" textLength="145" x="268" y="374.168">User Information</text><polygon fill="#181818" points="11,422.7188,1,426.7188,11,430.7188,7,426.7188" style="stroke:#181818;stroke-width:1.0;"/><line style="stroke:#181818;stroke-width:1.0;stroke-dasharray:2.0,2.0;" x1="5" x2="219" y1="426.7188" y2="426.7188"/><text fill="#000000" font-family="sans-serif" font-size="20" font-weight="bold" lengthAdjust="spacing" textLength="22" x="17" y="420.3242">12</text><text fill="#000000" font-family="sans-serif" font-size="20" lengthAdjust="spacing" textLength="145" x="43" y="420.3242">User Information</text><!--SRC=[VP8nJyCm48Lt_ufJ5s28X2AnL8Yb4gWI0shfriLrBebLnnVP5w3yUapQ9axQncFkU-_UtSNljQsbavKXjSSCCinbO_YLBA_rBqBwAFmPWOeigT9HXS2kmQXIIxMN1QxvO10SAfQsC37WIvdHjxO5vD9u5E7TbJf3o8buHpz218wrqhMq3BFvHxCpsfUBaCEHCUXc83qiFbVl8t25DNdDv3Jwbka-78QaYy2jdTAbGs7ZqIqpjApvq4FphOLDgC2v51cqVfj85gQL3PDjgbrGF8dafHq5vb0Wjw3DoLMIDTdx1o4WFAbOVqd6uz1mUeMZfeOtv5FpNYSwfhKEBVf0nqPBwyDT58OEPxHh4csjAqRwf4ySxx53CvnqkaoKNfszhqzdJA-5JEEKDusd8wUNcV-TnfkySR91sg6k1qP-eypNBnfb7TkYpSHpajpqYAJjZoJ-0000]--></g></svg>