<?xml version="1.0" encoding="us-ascii" standalone="no"?><svg xmlns="http://www.w3.org/2000/svg" xmlns:xlink="http://www.w3.org/1999/xlink" contentStyleType="text/css" height="1602px" preserveAspectRatio="none" style="width:4476px;height:1602px;background:#FFFFFF;" version="1.1" viewBox="0 0 4476 1602" width="4476px" zoomAndPan="magnify"><defs/><g><text fill="#000000" font-family="sans-serif" font-size="14" font-weight="bold" lengthAdjust="spacing" textLength="409" x="2032.5" y="27.6738">PublishAnnouncementRequestUI Sequence Diagram (SSD)</text><rect fill="#FFFFFF" height="1386.375" style="stroke:#181818;stroke-width:1.0;" width="10" x="36.5" y="127.2813"/><rect fill="#FFFFFF" height="348.8438" style="stroke:#181818;stroke-width:1.0;" width="10" x="588.5" y="147.8047"/><rect fill="#FFFFFF" height="178.8359" style="stroke:#181818;stroke-width:1.0;" width="10" x="588.5" y="525.1719"/><rect fill="#FFFFFF" height="123.0938" style="stroke:#181818;stroke-width:1.0;" width="10" x="588.5" y="732.5313"/><rect fill="#FFFFFF" height="620.5078" style="stroke:#181818;stroke-width:1.0;" width="10" x="588.5" y="884.1484"/><rect fill="#FFFFFF" height="251.1563" style="stroke:#181818;stroke-width:1.0;" width="10" x="1202.5" y="216.9688"/><rect fill="#FFFFFF" height="98.2656" style="stroke:#181818;stroke-width:1.0;" width="10" x="1202.5" y="577.2188"/><rect fill="#FFFFFF" height="577.4609" style="stroke:#181818;stroke-width:1.0;" width="10" x="1202.5" y="936.1953"/><rect fill="#FFFFFF" height="540.9375" style="stroke:#181818;stroke-width:1.0;" width="10" x="1207.5" y="972.7188"/><rect fill="#FFFFFF" height="388.1484" style="stroke:#181818;stroke-width:1.0;" width="10" x="1212.5" y="1125.5078"/><rect fill="#FFFFFF" height="98.2656" style="stroke:#181818;stroke-width:1.0;" width="10" x="4089" y="1270.2969"/><rect fill="none" height="200.3594" style="stroke:#000000;stroke-width:1.5;" width="1344.5" x="10" y="540.1719"/><rect fill="none" height="73.5703" style="stroke:#000000;stroke-width:1.5;" width="705.5" x="10" y="754.5313"/><rect fill="none" height="505.9375" style="stroke:#000000;stroke-width:1.5;" width="3780.5" x="471.5" y="899.1484"/><rect fill="none" height="58.0469" style="stroke:#000000;stroke-width:1.5;" width="301" x="471.5" y="1419.0859"/><line style="stroke:#181818;stroke-width:0.5;stroke-dasharray:5.0,5.0;" x1="41" x2="41" y1="117.2813" y2="1522.6563"/><line style="stroke:#181818;stroke-width:0.5;stroke-dasharray:5.0,5.0;" x1="593.5" x2="593.5" y1="117.2813" y2="1522.6563"/><line style="stroke:#181818;stroke-width:0.5;stroke-dasharray:5.0,5.0;" x1="1207.5" x2="1207.5" y1="186.125" y2="1522.6563"/><line style="stroke:#181818;stroke-width:0.5;stroke-dasharray:5.0,5.0;" x1="1709" x2="1709" y1="117.2813" y2="1522.6563"/><line style="stroke:#181818;stroke-width:0.5;stroke-dasharray:5.0,5.0;" x1="1816" x2="1816" y1="117.2813" y2="1522.6563"/><line style="stroke:#181818;stroke-width:0.5;stroke-dasharray:5.0,5.0;" x1="1943" x2="1943" y1="117.2813" y2="1522.6563"/><line style="stroke:#181818;stroke-width:0.5;stroke-dasharray:5.0,5.0;" x1="2090" x2="2090" y1="117.2813" y2="1522.6563"/><line style="stroke:#181818;stroke-width:0.5;stroke-dasharray:5.0,5.0;" x1="2223" x2="2223" y1="117.2813" y2="1522.6563"/><line style="stroke:#181818;stroke-width:0.5;stroke-dasharray:5.0,5.0;" x1="2405" x2="2405" y1="117.2813" y2="1522.6563"/><line style="stroke:#181818;stroke-width:0.5;stroke-dasharray:5.0,5.0;" x1="2607" x2="2607" y1="117.2813" y2="1522.6563"/><line style="stroke:#181818;stroke-width:0.5;stroke-dasharray:5.0,5.0;" x1="2730" x2="2730" y1="117.2813" y2="1522.6563"/><line style="stroke:#181818;stroke-width:0.5;stroke-dasharray:5.0,5.0;" x1="2983" x2="2983" y1="117.2813" y2="1522.6563"/><line style="stroke:#181818;stroke-width:0.5;stroke-dasharray:5.0,5.0;" x1="3384" x2="3384" y1="117.2813" y2="1522.6563"/><line style="stroke:#181818;stroke-width:0.5;stroke-dasharray:5.0,5.0;" x1="3757" x2="3757" y1="117.2813" y2="1522.6563"/><line style="stroke:#181818;stroke-width:0.5;stroke-dasharray:5.0,5.0;" x1="4094" x2="4094" y1="117.2813" y2="1522.6563"/><line style="stroke:#181818;stroke-width:0.5;stroke-dasharray:5.0,5.0;" x1="4326" x2="4326" y1="117.2813" y2="1522.6563"/><line style="stroke:#181818;stroke-width:0.5;stroke-dasharray:5.0,5.0;" x1="4440" x2="4440" y1="117.2813" y2="1522.6563"/><text fill="#000000" font-family="sans-serif" font-size="14" lengthAdjust="spacing" textLength="37" x="20" y="114.3145">Agent</text><ellipse cx="41.5" cy="50.1406" fill="#E3E3E3" rx="8" ry="8" style="stroke:#181818;stroke-width:0.5;"/><path d="M41.5,58.1406 L41.5,85.1406 M28.5,66.1406 L54.5,66.1406 M41.5,85.1406 L28.5,100.1406 M41.5,85.1406 L54.5,100.1406 " fill="none" style="stroke:#181818;stroke-width:0.5;"/><text fill="#000000" font-family="sans-serif" font-size="14" lengthAdjust="spacing" textLength="37" x="20" y="1534.3301">Agent</text><ellipse cx="41.5" cy="1545.7969" fill="#E3E3E3" rx="8" ry="8" style="stroke:#181818;stroke-width:0.5;"/><path d="M41.5,1553.7969 L41.5,1580.7969 M28.5,1561.7969 L54.5,1561.7969 M41.5,1580.7969 L28.5,1595.7969 M41.5,1580.7969 L54.5,1595.7969 " fill="none" style="stroke:#181818;stroke-width:0.5;"/><rect fill="#E3E3E3" height="29.6406" rx="2.5" ry="2.5" style="stroke:#181818;stroke-width:0.5;" width="224" x="481.5" y="86.6406"/><text fill="#000000" font-family="sans-serif" font-size="14" lengthAdjust="spacing" textLength="210" x="488.5" y="106.3145">:PublishAnnouncementRequestUI</text><rect fill="#E3E3E3" height="29.6406" rx="2.5" ry="2.5" style="stroke:#181818;stroke-width:0.5;" width="224" x="481.5" y="1521.6563"/><text fill="#000000" font-family="sans-serif" font-size="14" lengthAdjust="spacing" textLength="210" x="488.5" y="1541.3301">:PublishAnnouncementRequestUI</text><rect fill="#E3E3E3" height="29.6406" rx="2.5" ry="2.5" style="stroke:#181818;stroke-width:0.5;" width="274" x="1070.5" y="1521.6563"/><text fill="#000000" font-family="sans-serif" font-size="14" lengthAdjust="spacing" textLength="260" x="1077.5" y="1541.3301">:PublishAnnouncementRequestController</text><rect fill="#E3E3E3" height="29.6406" rx="2.5" ry="2.5" style="stroke:#181818;stroke-width:0.5;" width="97" x="1661" y="86.6406"/><text fill="#000000" font-family="sans-serif" font-size="14" lengthAdjust="spacing" textLength="83" x="1668" y="106.3145">:Repositories</text><rect fill="#E3E3E3" height="29.6406" rx="2.5" ry="2.5" style="stroke:#181818;stroke-width:0.5;" width="97" x="1661" y="1521.6563"/><text fill="#000000" font-family="sans-serif" font-size="14" lengthAdjust="spacing" textLength="83" x="1668" y="1541.3301">:Repositories</text><rect fill="#E3E3E3" height="45.2813" rx="2.5" ry="2.5" style="stroke:#181818;stroke-width:0.5;" width="97" x="1768" y="71"/><text fill="#000000" font-family="sans-serif" font-size="14" lengthAdjust="spacing" textLength="74" x="1779.5" y="90.6738">repositories</text><text fill="#000000" font-family="sans-serif" font-size="14" lengthAdjust="spacing" textLength="83" x="1775" y="106.3145">:Repositories</text><rect fill="#E3E3E3" height="45.2813" rx="2.5" ry="2.5" style="stroke:#181818;stroke-width:0.5;" width="97" x="1768" y="1521.6563"/><text fill="#000000" font-family="sans-serif" font-size="14" lengthAdjust="spacing" textLength="74" x="1779.5" y="1541.3301">repositories</text><text fill="#000000" font-family="sans-serif" font-size="14" lengthAdjust="spacing" textLength="83" x="1775" y="1556.9707">:Repositories</text><rect fill="#E3E3E3" height="29.6406" rx="2.5" ry="2.5" style="stroke:#181818;stroke-width:0.5;" width="137" x="1875" y="86.6406"/><text fill="#000000" font-family="sans-serif" font-size="14" lengthAdjust="spacing" textLength="123" x="1882" y="106.3145">:ApplicationSession</text><rect fill="#E3E3E3" height="29.6406" rx="2.5" ry="2.5" style="stroke:#181818;stroke-width:0.5;" width="137" x="1875" y="1521.6563"/><text fill="#000000" font-family="sans-serif" font-size="14" lengthAdjust="spacing" textLength="123" x="1882" y="1541.3301">:ApplicationSession</text><rect fill="#E3E3E3" height="45.2813" rx="2.5" ry="2.5" style="stroke:#181818;stroke-width:0.5;" width="137" x="2022" y="71"/><text fill="#000000" font-family="sans-serif" font-size="14" lengthAdjust="spacing" textLength="74" x="2053.5" y="90.6738">appSession</text><text fill="#000000" font-family="sans-serif" font-size="14" lengthAdjust="spacing" textLength="123" x="2029" y="106.3145">:ApplicationSession</text><rect fill="#E3E3E3" height="45.2813" rx="2.5" ry="2.5" style="stroke:#181818;stroke-width:0.5;" width="137" x="2022" y="1521.6563"/><text fill="#000000" font-family="sans-serif" font-size="14" lengthAdjust="spacing" textLength="74" x="2053.5" y="1541.3301">appSession</text><text fill="#000000" font-family="sans-serif" font-size="14" lengthAdjust="spacing" textLength="123" x="2029" y="1556.9707">:ApplicationSession</text><rect fill="#E3E3E3" height="45.2813" rx="2.5" ry="2.5" style="stroke:#181818;stroke-width:0.5;" width="109" x="2169" y="71"/><text fill="#000000" font-family="sans-serif" font-size="14" lengthAdjust="spacing" textLength="95" x="2176" y="90.6738">currentSession</text><text fill="#000000" font-family="sans-serif" font-size="14" lengthAdjust="spacing" textLength="83" x="2182" y="106.3145">:UserSession</text><rect fill="#E3E3E3" height="45.2813" rx="2.5" ry="2.5" style="stroke:#181818;stroke-width:0.5;" width="109" x="2169" y="1521.6563"/><text fill="#000000" font-family="sans-serif" font-size="14" lengthAdjust="spacing" textLength="95" x="2176" y="1541.3301">currentSession</text><text fill="#000000" font-family="sans-serif" font-size="14" lengthAdjust="spacing" textLength="83" x="2182" y="1556.9707">:UserSession</text><rect fill="#E3E3E3" height="45.2813" rx="2.5" ry="2.5" style="stroke:#181818;stroke-width:0.5;" width="234" x="2288" y="71"/><text fill="#000000" font-family="sans-serif" font-size="14" lengthAdjust="spacing" textLength="215" x="2297.5" y="90.6738">announcementRequestRepository</text><text fill="#000000" font-family="sans-serif" font-size="14" lengthAdjust="spacing" textLength="220" x="2295" y="106.3145">:AnnouncementRequestRepository</text><rect fill="#E3E3E3" height="45.2813" rx="2.5" ry="2.5" style="stroke:#181818;stroke-width:0.5;" width="234" x="2288" y="1521.6563"/><text fill="#000000" font-family="sans-serif" font-size="14" lengthAdjust="spacing" textLength="215" x="2297.5" y="1541.3301">announcementRequestRepository</text><text fill="#000000" font-family="sans-serif" font-size="14" lengthAdjust="spacing" textLength="220" x="2295" y="1556.9707">:AnnouncementRequestRepository</text><rect fill="#E3E3E3" height="45.2813" rx="2.5" ry="2.5" style="stroke:#181818;stroke-width:0.5;" width="151" x="2532" y="71"/><text fill="#000000" font-family="sans-serif" font-size="14" lengthAdjust="spacing" textLength="130" x="2542.5" y="90.6738">comissionRepository</text><text fill="#000000" font-family="sans-serif" font-size="14" lengthAdjust="spacing" textLength="137" x="2539" y="106.3145">:ComissionRepository</text><rect fill="#E3E3E3" height="45.2813" rx="2.5" ry="2.5" style="stroke:#181818;stroke-width:0.5;" width="151" x="2532" y="1521.6563"/><text fill="#000000" font-family="sans-serif" font-size="14" lengthAdjust="spacing" textLength="130" x="2542.5" y="1541.3301">comissionRepository</text><text fill="#000000" font-family="sans-serif" font-size="14" lengthAdjust="spacing" textLength="137" x="2539" y="1556.9707">:ComissionRepository</text><rect fill="#E3E3E3" height="29.6406" rx="2.5" ry="2.5" style="stroke:#181818;stroke-width:0.5;" width="74" x="2693" y="86.6406"/><text fill="#000000" font-family="sans-serif" font-size="14" lengthAdjust="spacing" textLength="60" x="2700" y="106.3145">:XMapper</text><rect fill="#E3E3E3" height="29.6406" rx="2.5" ry="2.5" style="stroke:#181818;stroke-width:0.5;" width="74" x="2693" y="1521.6563"/><text fill="#000000" font-family="sans-serif" font-size="14" lengthAdjust="spacing" textLength="60" x="2700" y="1541.3301">:XMapper</text><rect fill="#E3E3E3" height="29.6406" rx="2.5" ry="2.5" style="stroke:#181818;stroke-width:0.5;" width="413" x="2777" y="86.6406"/><text fill="#000000" font-family="sans-serif" font-size="14" lengthAdjust="spacing" textLength="399" x="2784" y="106.3145">listAnnouncementRequestDto:List&lt;AnnouncementRequestDto&gt;</text><rect fill="#E3E3E3" height="29.6406" rx="2.5" ry="2.5" style="stroke:#181818;stroke-width:0.5;" width="413" x="2777" y="1521.6563"/><text fill="#000000" font-family="sans-serif" font-size="14" lengthAdjust="spacing" textLength="399" x="2784" y="1541.3301">listAnnouncementRequestDto:List&lt;AnnouncementRequestDto&gt;</text><rect fill="#E3E3E3" height="29.6406" rx="2.5" ry="2.5" style="stroke:#181818;stroke-width:0.5;" width="369" x="3200" y="86.6406"/><text fill="#000000" font-family="sans-serif" font-size="14" lengthAdjust="spacing" textLength="355" x="3207" y="106.3145">listAnnouncementRequest:List&lt;AnnouncementRequest&gt;</text><rect fill="#E3E3E3" height="29.6406" rx="2.5" ry="2.5" style="stroke:#181818;stroke-width:0.5;" width="369" x="3200" y="1521.6563"/><text fill="#000000" font-family="sans-serif" font-size="14" lengthAdjust="spacing" textLength="355" x="3207" y="1541.3301">listAnnouncementRequest:List&lt;AnnouncementRequest&gt;</text><rect fill="#E3E3E3" height="29.6406" rx="2.5" ry="2.5" style="stroke:#181818;stroke-width:0.5;" width="357" x="3579" y="86.6406"/><text fill="#000000" font-family="sans-serif" font-size="14" lengthAdjust="spacing" textLength="343" x="3586" y="106.3145">announcementRequestDto:AnnouncementRequestDto</text><rect fill="#E3E3E3" height="29.6406" rx="2.5" ry="2.5" style="stroke:#181818;stroke-width:0.5;" width="357" x="3579" y="1521.6563"/><text fill="#000000" font-family="sans-serif" font-size="14" lengthAdjust="spacing" textLength="343" x="3586" y="1541.3301">announcementRequestDto:AnnouncementRequestDto</text><rect fill="#E3E3E3" height="45.2813" rx="2.5" ry="2.5" style="stroke:#181818;stroke-width:0.5;" width="296" x="3946" y="71"/><text fill="#000000" font-family="sans-serif" font-size="14" lengthAdjust="spacing" textLength="277" x="3955.5" y="90.6738">publishedAnnouncementRequestRepository</text><text fill="#000000" font-family="sans-serif" font-size="14" lengthAdjust="spacing" textLength="282" x="3953" y="106.3145">:PublishedAnnouncementRequestRepository</text><rect fill="#E3E3E3" height="45.2813" rx="2.5" ry="2.5" style="stroke:#181818;stroke-width:0.5;" width="296" x="3946" y="1521.6563"/><text fill="#000000" font-family="sans-serif" font-size="14" lengthAdjust="spacing" textLength="277" x="3955.5" y="1541.3301">publishedAnnouncementRequestRepository</text><text fill="#000000" font-family="sans-serif" font-size="14" lengthAdjust="spacing" textLength="282" x="3953" y="1556.9707">:PublishedAnnouncementRequestRepository</text><rect fill="#E3E3E3" height="45.2813" rx="2.5" ry="2.5" style="stroke:#181818;stroke-width:0.5;" width="148" x="4252" y="71"/><text fill="#000000" font-family="sans-serif" font-size="14" lengthAdjust="spacing" textLength="129" x="4261.5" y="90.6738">employeeRepository</text><text fill="#000000" font-family="sans-serif" font-size="14" lengthAdjust="spacing" textLength="134" x="4259" y="106.3145">:EmployeeRepository</text><rect fill="#E3E3E3" height="45.2813" rx="2.5" ry="2.5" style="stroke:#181818;stroke-width:0.5;" width="148" x="4252" y="1521.6563"/><text fill="#000000" font-family="sans-serif" font-size="14" lengthAdjust="spacing" textLength="129" x="4261.5" y="1541.3301">employeeRepository</text><text fill="#000000" font-family="sans-serif" font-size="14" lengthAdjust="spacing" textLength="134" x="4259" y="1556.9707">:EmployeeRepository</text><rect fill="#E3E3E3" height="29.6406" rx="2.5" ry="2.5" style="stroke:#181818;stroke-width:0.5;" width="60" x="4410" y="86.6406"/><text fill="#000000" font-family="sans-serif" font-size="14" lengthAdjust="spacing" textLength="46" x="4417" y="106.3145">System</text><rect fill="#E3E3E3" height="29.6406" rx="2.5" ry="2.5" style="stroke:#181818;stroke-width:0.5;" width="60" x="4410" y="1521.6563"/><text fill="#000000" font-family="sans-serif" font-size="14" lengthAdjust="spacing" textLength="46" x="4417" y="1541.3301">System</text><rect fill="#FFFFFF" height="1386.375" style="stroke:#181818;stroke-width:1.0;" width="10" x="36.5" y="127.2813"/><rect fill="#FFFFFF" height="348.8438" style="stroke:#181818;stroke-width:1.0;" width="10" x="588.5" y="147.8047"/><rect fill="#FFFFFF" height="178.8359" style="stroke:#181818;stroke-width:1.0;" width="10" x="588.5" y="525.1719"/><rect fill="#FFFFFF" height="123.0938" style="stroke:#181818;stroke-width:1.0;" width="10" x="588.5" y="732.5313"/><rect fill="#FFFFFF" height="620.5078" style="stroke:#181818;stroke-width:1.0;" width="10" x="588.5" y="884.1484"/><rect fill="#FFFFFF" height="251.1563" style="stroke:#181818;stroke-width:1.0;" width="10" x="1202.5" y="216.9688"/><rect fill="#FFFFFF" height="98.2656" style="stroke:#181818;stroke-width:1.0;" width="10" x="1202.5" y="577.2188"/><rect fill="#FFFFFF" height="577.4609" style="stroke:#181818;stroke-width:1.0;" width="10" x="1202.5" y="936.1953"/><rect fill="#FFFFFF" height="540.9375" style="stroke:#181818;stroke-width:1.0;" width="10" x="1207.5" y="972.7188"/><rect fill="#FFFFFF" height="388.1484" style="stroke:#181818;stroke-width:1.0;" width="10" x="1212.5" y="1125.5078"/><rect fill="#FFFFFF" height="98.2656" style="stroke:#181818;stroke-width:1.0;" width="10" x="4089" y="1270.2969"/><polygon fill="#181818" points="576.5,143.8047,586.5,147.8047,576.5,151.8047,580.5,147.8047" style="stroke:#181818;stroke-width:1.0;"/><line style="stroke:#181818;stroke-width:1.0;" x1="46.5" x2="582.5" y1="147.8047" y2="147.8047"/><text fill="#000000" font-family="sans-serif" font-size="13" font-weight="bold" lengthAdjust="spacing" textLength="7" x="53.5" y="143.0498">1</text><text fill="#000000" font-family="sans-serif" font-size="13" lengthAdjust="spacing" textLength="312" x="64.5" y="143.0498">asks to see the list of property announcement request</text><polygon fill="#181818" points="1058.5,172.3281,1068.5,176.3281,1058.5,180.3281,1062.5,176.3281" style="stroke:#181818;stroke-width:1.0;"/><line style="stroke:#181818;stroke-width:1.0;" x1="598.5" x2="1064.5" y1="176.3281" y2="176.3281"/><text fill="#000000" font-family="sans-serif" font-size="13" font-weight="bold" lengthAdjust="spacing" textLength="7" x="605.5" y="171.5732">2</text><text fill="#000000" font-family="sans-serif" font-size="13" lengthAdjust="spacing" textLength="36" x="616.5" y="171.5732">create</text><rect fill="#E3E3E3" height="29.6406" rx="2.5" ry="2.5" style="stroke:#181818;stroke-width:0.5;" width="274" x="1070.5" y="155.8047"/><text fill="#000000" font-family="sans-serif" font-size="14" lengthAdjust="spacing" textLength="260" x="1077.5" y="175.4785">:PublishAnnouncementRequestController</text><polygon fill="#181818" points="1190.5,212.9688,1200.5,216.9688,1190.5,220.9688,1194.5,216.9688" style="stroke:#181818;stroke-width:1.0;"/><line style="stroke:#181818;stroke-width:1.0;" x1="598.5" x2="1196.5" y1="216.9688" y2="216.9688"/><text fill="#000000" font-family="sans-serif" font-size="13" font-weight="bold" lengthAdjust="spacing" textLength="7" x="605.5" y="212.2139">3</text><text fill="#000000" font-family="sans-serif" font-size="13" lengthAdjust="spacing" textLength="182" x="616.5" y="212.2139">getAnnouncementRequestList()</text><rect fill="none" height="64.7422" style="stroke:#000000;stroke-width:1.5;" width="280" x="1067.5" y="224.9688"/><path d="M1067.5,224.9688 L1129.5,224.9688 L1129.5,230.9688 L1119.5,240.9688 L1067.5,240.9688 L1067.5,224.9688 " fill="#EEEEEE" style="stroke:#000000;stroke-width:2.0;"/><text fill="#000000" font-family="sans-serif" font-size="13" font-weight="bold" lengthAdjust="spacing" textLength="17" x="1080.5" y="238.7373">ref</text><text fill="#000000" font-family="sans-serif" font-size="12" lengthAdjust="spacing" textLength="3" x="1206" y="255.832">&#160;</text><text fill="#000000" font-family="sans-serif" font-size="12" lengthAdjust="spacing" textLength="128" x="1143.5" y="269.2383">Get Employee By Email</text><text fill="#000000" font-family="sans-serif" font-size="12" lengthAdjust="spacing" textLength="3" x="1206" y="282.6445">&#160;</text><rect fill="none" height="78.1484" style="stroke:#000000;stroke-width:1.5;" width="413" x="1067.5" y="294.7109"/><path d="M1067.5,294.7109 L1129.5,294.7109 L1129.5,300.7109 L1119.5,310.7109 L1067.5,310.7109 L1067.5,294.7109 " fill="#EEEEEE" style="stroke:#000000;stroke-width:2.0;"/><text fill="#000000" font-family="sans-serif" font-size="13" font-weight="bold" lengthAdjust="spacing" textLength="17" x="1080.5" y="308.4795">ref</text><text fill="#000000" font-family="sans-serif" font-size="12" lengthAdjust="spacing" textLength="3" x="1272.5" y="325.5742">&#160;</text><text fill="#000000" font-family="sans-serif" font-size="12" lengthAdjust="spacing" textLength="405" x="1071.5" y="338.9805">Get Announcement Request List By Most Recent responsible for the Agent</text><text fill="#000000" font-family="sans-serif" font-size="12" lengthAdjust="spacing" textLength="3" x="1272.5" y="352.3867">&#160;</text><text fill="#000000" font-family="sans-serif" font-size="12" lengthAdjust="spacing" textLength="3" x="1272.5" y="365.793">&#160;</text><rect fill="none" height="64.7422" style="stroke:#000000;stroke-width:1.5;" width="280" x="1067.5" y="377.8594"/><path d="M1067.5,377.8594 L1129.5,377.8594 L1129.5,383.8594 L1119.5,393.8594 L1067.5,393.8594 L1067.5,377.8594 " fill="#EEEEEE" style="stroke:#000000;stroke-width:2.0;"/><text fill="#000000" font-family="sans-serif" font-size="13" font-weight="bold" lengthAdjust="spacing" textLength="17" x="1080.5" y="391.6279">ref</text><text fill="#000000" font-family="sans-serif" font-size="12" lengthAdjust="spacing" textLength="3" x="1206" y="408.7227">&#160;</text><text fill="#000000" font-family="sans-serif" font-size="12" lengthAdjust="spacing" textLength="239" x="1088" y="422.1289">Get AnnouncementRequest List Using DTO</text><text fill="#000000" font-family="sans-serif" font-size="12" lengthAdjust="spacing" textLength="3" x="1206" y="435.5352">&#160;</text><polygon fill="#181818" points="609.5,464.125,599.5,468.125,609.5,472.125,605.5,468.125" style="stroke:#181818;stroke-width:1.0;"/><line style="stroke:#181818;stroke-width:1.0;stroke-dasharray:2.0,2.0;" x1="603.5" x2="1206.5" y1="468.125" y2="468.125"/><text fill="#000000" font-family="sans-serif" font-size="13" font-weight="bold" lengthAdjust="spacing" textLength="14" x="615.5" y="463.3701">39</text><text fill="#000000" font-family="sans-serif" font-size="13" lengthAdjust="spacing" textLength="172" x="633.5" y="463.3701">listAnnouncementRequestDto</text><polygon fill="#181818" points="57.5,492.6484,47.5,496.6484,57.5,500.6484,53.5,496.6484" style="stroke:#181818;stroke-width:1.0;"/><line style="stroke:#181818;stroke-width:1.0;stroke-dasharray:2.0,2.0;" x1="51.5" x2="592.5" y1="496.6484" y2="496.6484"/><text fill="#000000" font-family="sans-serif" font-size="13" font-weight="bold" lengthAdjust="spacing" textLength="14" x="63.5" y="491.8936">40</text><text fill="#000000" font-family="sans-serif" font-size="13" lengthAdjust="spacing" textLength="494" x="81.5" y="491.8936">shows list of announcement request responsible for that agent and asks to select one</text><polygon fill="#181818" points="576.5,521.1719,586.5,525.1719,576.5,529.1719,580.5,525.1719" style="stroke:#181818;stroke-width:1.0;"/><line style="stroke:#181818;stroke-width:1.0;" x1="46.5" x2="582.5" y1="525.1719" y2="525.1719"/><text fill="#000000" font-family="sans-serif" font-size="13" font-weight="bold" lengthAdjust="spacing" textLength="14" x="53.5" y="520.417">41</text><text fill="#000000" font-family="sans-serif" font-size="13" lengthAdjust="spacing" textLength="203" x="71.5" y="520.417">selects one announcement request</text><path d="M10,540.1719 L71,540.1719 L71,546.6953 L61,556.6953 L10,556.6953 L10,540.1719 " fill="#EEEEEE" style="stroke:#000000;stroke-width:1.5;"/><rect fill="none" height="200.3594" style="stroke:#000000;stroke-width:1.5;" width="1344.5" x="10" y="540.1719"/><text fill="#000000" font-family="sans-serif" font-size="13" font-weight="bold" lengthAdjust="spacing" textLength="16" x="25" y="552.9404">alt</text><text fill="#000000" font-family="sans-serif" font-size="11" font-weight="bold" lengthAdjust="spacing" textLength="190" x="86" y="552.1299">[Accepts Announcement Request]</text><polygon fill="#181818" points="1190.5,573.2188,1200.5,577.2188,1190.5,581.2188,1194.5,577.2188" style="stroke:#181818;stroke-width:1.0;"/><line style="stroke:#181818;stroke-width:1.0;stroke-dasharray:2.0,2.0;" x1="598.5" x2="1196.5" y1="577.2188" y2="577.2188"/><text fill="#000000" font-family="sans-serif" font-size="13" font-weight="bold" lengthAdjust="spacing" textLength="14" x="605.5" y="572.4639">42</text><text fill="#000000" font-family="sans-serif" font-size="13" lengthAdjust="spacing" textLength="115" x="623.5" y="572.4639">getTypeComission()</text><rect fill="none" height="64.7422" style="stroke:#000000;stroke-width:1.5;" width="280" x="1067.5" y="585.2188"/><path d="M1067.5,585.2188 L1129.5,585.2188 L1129.5,591.2188 L1119.5,601.2188 L1067.5,601.2188 L1067.5,585.2188 " fill="#EEEEEE" style="stroke:#000000;stroke-width:2.0;"/><text fill="#000000" font-family="sans-serif" font-size="13" font-weight="bold" lengthAdjust="spacing" textLength="17" x="1080.5" y="598.9873">ref</text><text fill="#000000" font-family="sans-serif" font-size="12" lengthAdjust="spacing" textLength="3" x="1206" y="616.082">&#160;</text><text fill="#000000" font-family="sans-serif" font-size="12" lengthAdjust="spacing" textLength="106" x="1154.5" y="629.4883">Get Comission List</text><text fill="#000000" font-family="sans-serif" font-size="12" lengthAdjust="spacing" textLength="3" x="1206" y="642.8945">&#160;</text><polygon fill="#181818" points="609.5,671.4844,599.5,675.4844,609.5,679.4844,605.5,675.4844" style="stroke:#181818;stroke-width:1.0;"/><line style="stroke:#181818;stroke-width:1.0;stroke-dasharray:2.0,2.0;" x1="603.5" x2="1206.5" y1="675.4844" y2="675.4844"/><text fill="#000000" font-family="sans-serif" font-size="13" font-weight="bold" lengthAdjust="spacing" textLength="14" x="615.5" y="670.7295">49</text><text fill="#000000" font-family="sans-serif" font-size="13" lengthAdjust="spacing" textLength="93" x="633.5" y="670.7295">Type Comission</text><polygon fill="#181818" points="57.5,700.0078,47.5,704.0078,57.5,708.0078,53.5,704.0078" style="stroke:#181818;stroke-width:1.0;"/><line style="stroke:#181818;stroke-width:1.0;stroke-dasharray:2.0,2.0;" x1="51.5" x2="592.5" y1="704.0078" y2="704.0078"/><text fill="#000000" font-family="sans-serif" font-size="13" font-weight="bold" lengthAdjust="spacing" textLength="14" x="63.5" y="699.2529">50</text><text fill="#000000" font-family="sans-serif" font-size="13" lengthAdjust="spacing" textLength="164" x="81.5" y="699.2529">shows the list of comissions</text><polygon fill="#181818" points="576.5,728.5313,586.5,732.5313,576.5,736.5313,580.5,732.5313" style="stroke:#181818;stroke-width:1.0;"/><line style="stroke:#181818;stroke-width:1.0;" x1="46.5" x2="582.5" y1="732.5313" y2="732.5313"/><text fill="#000000" font-family="sans-serif" font-size="13" font-weight="bold" lengthAdjust="spacing" textLength="14" x="53.5" y="727.7764">51</text><text fill="#000000" font-family="sans-serif" font-size="13" lengthAdjust="spacing" textLength="186" x="71.5" y="727.7764">selects the respective comssion</text><path d="M10,754.5313 L71,754.5313 L71,761.0547 L61,771.0547 L10,771.0547 L10,754.5313 " fill="#EEEEEE" style="stroke:#000000;stroke-width:1.5;"/><rect fill="none" height="73.5703" style="stroke:#000000;stroke-width:1.5;" width="705.5" x="10" y="754.5313"/><text fill="#000000" font-family="sans-serif" font-size="13" font-weight="bold" lengthAdjust="spacing" textLength="16" x="25" y="767.2998">alt</text><text fill="#000000" font-family="sans-serif" font-size="11" font-weight="bold" lengthAdjust="spacing" textLength="177" x="86" y="766.4893">[reject Announcement Request]</text><polygon fill="#181818" points="57.5,787.5781,47.5,791.5781,57.5,795.5781,53.5,791.5781" style="stroke:#181818;stroke-width:1.0;"/><line style="stroke:#181818;stroke-width:1.0;stroke-dasharray:2.0,2.0;" x1="51.5" x2="587.5" y1="791.5781" y2="791.5781"/><text fill="#000000" font-family="sans-serif" font-size="13" font-weight="bold" lengthAdjust="spacing" textLength="14" x="63.5" y="786.8232">52</text><text fill="#000000" font-family="sans-serif" font-size="13" lengthAdjust="spacing" textLength="208" x="81.5" y="786.8232">requests data(messageJustification)</text><polygon fill="#181818" points="576.5,816.1016,586.5,820.1016,576.5,824.1016,580.5,820.1016" style="stroke:#181818;stroke-width:1.0;"/><line style="stroke:#181818;stroke-width:1.0;" x1="46.5" x2="582.5" y1="820.1016" y2="820.1016"/><text fill="#000000" font-family="sans-serif" font-size="13" font-weight="bold" lengthAdjust="spacing" textLength="14" x="53.5" y="815.3467">53</text><text fill="#000000" font-family="sans-serif" font-size="13" lengthAdjust="spacing" textLength="108" x="71.5" y="815.3467">types request data</text><polygon fill="#181818" points="57.5,851.625,47.5,855.625,57.5,859.625,53.5,855.625" style="stroke:#181818;stroke-width:1.0;"/><line style="stroke:#181818;stroke-width:1.0;stroke-dasharray:2.0,2.0;" x1="51.5" x2="592.5" y1="855.625" y2="855.625"/><text fill="#000000" font-family="sans-serif" font-size="13" font-weight="bold" lengthAdjust="spacing" textLength="14" x="63.5" y="850.8701">54</text><text fill="#000000" font-family="sans-serif" font-size="13" lengthAdjust="spacing" textLength="500" x="81.5" y="850.8701">shows the information of the announcement request selected and asks for confirmation</text><polygon fill="#181818" points="576.5,880.1484,586.5,884.1484,576.5,888.1484,580.5,884.1484" style="stroke:#181818;stroke-width:1.0;"/><line style="stroke:#181818;stroke-width:1.0;" x1="46.5" x2="582.5" y1="884.1484" y2="884.1484"/><text fill="#000000" font-family="sans-serif" font-size="13" font-weight="bold" lengthAdjust="spacing" textLength="14" x="53.5" y="879.3936">55</text><text fill="#000000" font-family="sans-serif" font-size="13" lengthAdjust="spacing" textLength="75" x="71.5" y="879.3936">submits data</text><path d="M471.5,899.1484 L532.5,899.1484 L532.5,905.6719 L522.5,915.6719 L471.5,915.6719 L471.5,899.1484 " fill="#EEEEEE" style="stroke:#000000;stroke-width:1.5;"/><rect fill="none" height="505.9375" style="stroke:#000000;stroke-width:1.5;" width="3780.5" x="471.5" y="899.1484"/><text fill="#000000" font-family="sans-serif" font-size="13" font-weight="bold" lengthAdjust="spacing" textLength="16" x="486.5" y="911.917">alt</text><text fill="#000000" font-family="sans-serif" font-size="11" font-weight="bold" lengthAdjust="spacing" textLength="190" x="547.5" y="911.1064">[Accepts Announcement Request]</text><polygon fill="#181818" points="1190.5,932.1953,1200.5,936.1953,1190.5,940.1953,1194.5,936.1953" style="stroke:#181818;stroke-width:1.0;"/><line style="stroke:#181818;stroke-width:1.0;" x1="598.5" x2="1196.5" y1="936.1953" y2="936.1953"/><text fill="#000000" font-family="sans-serif" font-size="13" font-weight="bold" lengthAdjust="spacing" textLength="14" x="605.5" y="931.4404">56</text><text fill="#000000" font-family="sans-serif" font-size="13" lengthAdjust="spacing" textLength="567" x="623.5" y="931.4404">publishAnnouncementRequest(publishedAnnouncementRequestDescription,comissionDescription)</text><line style="stroke:#181818;stroke-width:1.0;" x1="1212.5" x2="1259.5" y1="959.7188" y2="959.7188"/><line style="stroke:#181818;stroke-width:1.0;" x1="1259.5" x2="1259.5" y1="959.7188" y2="972.7188"/><line style="stroke:#181818;stroke-width:1.0;" x1="1218.5" x2="1259.5" y1="972.7188" y2="972.7188"/><polygon fill="#181818" points="1228.5,968.7188,1218.5,972.7188,1228.5,976.7188,1224.5,972.7188" style="stroke:#181818;stroke-width:1.0;"/><text fill="#000000" font-family="sans-serif" font-size="13" font-weight="bold" lengthAdjust="spacing" textLength="14" x="1224.5" y="954.9639">57</text><text fill="#000000" font-family="sans-serif" font-size="13" lengthAdjust="spacing" textLength="460" x="1242.5" y="954.9639">getAnnouncementRequestDtoByDescription(announcementRequestDescription)</text><rect fill="none" height="64.7422" style="stroke:#000000;stroke-width:1.5;" width="280" x="1067.5" y="985.7188"/><path d="M1067.5,985.7188 L1129.5,985.7188 L1129.5,991.7188 L1119.5,1001.7188 L1067.5,1001.7188 L1067.5,985.7188 " fill="#EEEEEE" style="stroke:#000000;stroke-width:2.0;"/><text fill="#000000" font-family="sans-serif" font-size="13" font-weight="bold" lengthAdjust="spacing" textLength="17" x="1080.5" y="999.4873">ref</text><text fill="#000000" font-family="sans-serif" font-size="12" lengthAdjust="spacing" textLength="3" x="1206" y="1016.582">&#160;</text><text fill="#000000" font-family="sans-serif" font-size="12" lengthAdjust="spacing" textLength="259" x="1078" y="1029.9883">Get Announcement Request Dto By Description</text><text fill="#000000" font-family="sans-serif" font-size="12" lengthAdjust="spacing" textLength="3" x="1206" y="1043.3945">&#160;</text><line style="stroke:#181818;stroke-width:1.0;stroke-dasharray:2.0,2.0;" x1="1217.5" x2="1259.5" y1="1075.9844" y2="1075.9844"/><line style="stroke:#181818;stroke-width:1.0;stroke-dasharray:2.0,2.0;" x1="1259.5" x2="1259.5" y1="1075.9844" y2="1088.9844"/><line style="stroke:#181818;stroke-width:1.0;stroke-dasharray:2.0,2.0;" x1="1218.5" x2="1259.5" y1="1088.9844" y2="1088.9844"/><polygon fill="#181818" points="1228.5,1084.9844,1218.5,1088.9844,1228.5,1092.9844,1224.5,1088.9844" style="stroke:#181818;stroke-width:1.0;"/><text fill="#000000" font-family="sans-serif" font-size="13" font-weight="bold" lengthAdjust="spacing" textLength="14" x="1224.5" y="1071.2295">60</text><text fill="#000000" font-family="sans-serif" font-size="13" lengthAdjust="spacing" textLength="133" x="1242.5" y="1071.2295">announcementRequest</text><line style="stroke:#181818;stroke-width:1.0;" x1="1217.5" x2="1264.5" y1="1112.5078" y2="1112.5078"/><line style="stroke:#181818;stroke-width:1.0;" x1="1264.5" x2="1264.5" y1="1112.5078" y2="1125.5078"/><line style="stroke:#181818;stroke-width:1.0;" x1="1223.5" x2="1264.5" y1="1125.5078" y2="1125.5078"/><polygon fill="#181818" points="1233.5,1121.5078,1223.5,1125.5078,1233.5,1129.5078,1229.5,1125.5078" style="stroke:#181818;stroke-width:1.0;"/><text fill="#000000" font-family="sans-serif" font-size="13" font-weight="bold" lengthAdjust="spacing" textLength="14" x="1229.5" y="1107.7529">61</text><text fill="#000000" font-family="sans-serif" font-size="13" lengthAdjust="spacing" textLength="292" x="1247.5" y="1107.7529">getComissionByDescription(comissionDescription)</text><rect fill="none" height="64.7422" style="stroke:#000000;stroke-width:1.5;" width="280" x="1067.5" y="1138.5078"/><path d="M1067.5,1138.5078 L1129.5,1138.5078 L1129.5,1144.5078 L1119.5,1154.5078 L1067.5,1154.5078 L1067.5,1138.5078 " fill="#EEEEEE" style="stroke:#000000;stroke-width:2.0;"/><text fill="#000000" font-family="sans-serif" font-size="13" font-weight="bold" lengthAdjust="spacing" textLength="17" x="1080.5" y="1152.2764">ref</text><text fill="#000000" font-family="sans-serif" font-size="12" lengthAdjust="spacing" textLength="3" x="1206" y="1169.3711">&#160;</text><text fill="#000000" font-family="sans-serif" font-size="12" lengthAdjust="spacing" textLength="165" x="1125" y="1182.7773">Get Comission By Description</text><text fill="#000000" font-family="sans-serif" font-size="12" lengthAdjust="spacing" textLength="3" x="1206" y="1196.1836">&#160;</text><line style="stroke:#181818;stroke-width:1.0;stroke-dasharray:2.0,2.0;" x1="1222.5" x2="1264.5" y1="1228.7734" y2="1228.7734"/><line style="stroke:#181818;stroke-width:1.0;stroke-dasharray:2.0,2.0;" x1="1264.5" x2="1264.5" y1="1228.7734" y2="1241.7734"/><line style="stroke:#181818;stroke-width:1.0;stroke-dasharray:2.0,2.0;" x1="1223.5" x2="1264.5" y1="1241.7734" y2="1241.7734"/><polygon fill="#181818" points="1233.5,1237.7734,1223.5,1241.7734,1233.5,1245.7734,1229.5,1241.7734" style="stroke:#181818;stroke-width:1.0;"/><text fill="#000000" font-family="sans-serif" font-size="13" font-weight="bold" lengthAdjust="spacing" textLength="14" x="1229.5" y="1224.0186">64</text><text fill="#000000" font-family="sans-serif" font-size="13" lengthAdjust="spacing" textLength="59" x="1247.5" y="1224.0186">comission</text><polygon fill="#181818" points="4077,1266.2969,4087,1270.2969,4077,1274.2969,4081,1270.2969" style="stroke:#181818;stroke-width:1.0;"/><line style="stroke:#181818;stroke-width:1.0;" x1="1222.5" x2="4083" y1="1270.2969" y2="1270.2969"/><text fill="#000000" font-family="sans-serif" font-size="13" font-weight="bold" lengthAdjust="spacing" textLength="14" x="1229.5" y="1265.542">65</text><text fill="#000000" font-family="sans-serif" font-size="13" lengthAdjust="spacing" textLength="384" x="1247.5" y="1265.542">createPublishedAnnouncement(announcementRequest,comission)</text><rect fill="none" height="64.7422" style="stroke:#000000;stroke-width:1.5;" width="302" x="3943" y="1278.2969"/><path d="M3943,1278.2969 L4005,1278.2969 L4005,1284.2969 L3995,1294.2969 L3943,1294.2969 L3943,1278.2969 " fill="#EEEEEE" style="stroke:#000000;stroke-width:2.0;"/><text fill="#000000" font-family="sans-serif" font-size="13" font-weight="bold" lengthAdjust="spacing" textLength="17" x="3956" y="1292.0654">ref</text><text fill="#000000" font-family="sans-serif" font-size="12" lengthAdjust="spacing" textLength="3" x="4092.5" y="1309.1602">&#160;</text><text fill="#000000" font-family="sans-serif" font-size="12" lengthAdjust="spacing" textLength="182" x="4003" y="1322.5664">Create Published Announcement</text><text fill="#000000" font-family="sans-serif" font-size="12" lengthAdjust="spacing" textLength="3" x="4092.5" y="1335.9727">&#160;</text><polygon fill="#181818" points="1233.5,1364.5625,1223.5,1368.5625,1233.5,1372.5625,1229.5,1368.5625" style="stroke:#181818;stroke-width:1.0;"/><line style="stroke:#181818;stroke-width:1.0;stroke-dasharray:2.0,2.0;" x1="1227.5" x2="4093" y1="1368.5625" y2="1368.5625"/><text fill="#000000" font-family="sans-serif" font-size="13" font-weight="bold" lengthAdjust="spacing" textLength="14" x="1239.5" y="1363.8076">71</text><text fill="#000000" font-family="sans-serif" font-size="13" lengthAdjust="spacing" textLength="142" x="1257.5" y="1363.8076">publishedAnnouncement</text><polygon fill="#181818" points="609.5,1393.0859,599.5,1397.0859,609.5,1401.0859,605.5,1397.0859" style="stroke:#181818;stroke-width:1.0;"/><line style="stroke:#181818;stroke-width:1.0;stroke-dasharray:2.0,2.0;" x1="603.5" x2="1211.5" y1="1397.0859" y2="1397.0859"/><text fill="#000000" font-family="sans-serif" font-size="13" font-weight="bold" lengthAdjust="spacing" textLength="14" x="615.5" y="1392.3311">72</text><text fill="#000000" font-family="sans-serif" font-size="13" lengthAdjust="spacing" textLength="142" x="633.5" y="1392.3311">publishedAnnouncement</text><path d="M471.5,1419.0859 L532.5,1419.0859 L532.5,1425.6094 L522.5,1435.6094 L471.5,1435.6094 L471.5,1419.0859 " fill="#EEEEEE" style="stroke:#000000;stroke-width:1.5;"/><rect fill="none" height="58.0469" style="stroke:#000000;stroke-width:1.5;" width="301" x="471.5" y="1419.0859"/><text fill="#000000" font-family="sans-serif" font-size="13" font-weight="bold" lengthAdjust="spacing" textLength="16" x="486.5" y="1431.8545">alt</text><text fill="#000000" font-family="sans-serif" font-size="11" font-weight="bold" lengthAdjust="spacing" textLength="177" x="547.5" y="1431.0439">[reject Announcement Request]</text><line style="stroke:#181818;stroke-width:1.0;" x1="598.5" x2="640.5" y1="1456.1328" y2="1456.1328"/><line style="stroke:#181818;stroke-width:1.0;" x1="640.5" x2="640.5" y1="1456.1328" y2="1469.1328"/><line style="stroke:#181818;stroke-width:1.0;" x1="599.5" x2="640.5" y1="1469.1328" y2="1469.1328"/><polygon fill="#181818" points="609.5,1465.1328,599.5,1469.1328,609.5,1473.1328,605.5,1469.1328" style="stroke:#181818;stroke-width:1.0;"/><text fill="#000000" font-family="sans-serif" font-size="13" font-weight="bold" lengthAdjust="spacing" textLength="14" x="605.5" y="1451.3779">73</text><text fill="#000000" font-family="sans-serif" font-size="13" lengthAdjust="spacing" textLength="137" x="623.5" y="1451.3779">sendEmailJustification()</text><polygon fill="#181818" points="57.5,1500.6563,47.5,1504.6563,57.5,1508.6563,53.5,1504.6563" style="stroke:#181818;stroke-width:1.0;"/><line style="stroke:#181818;stroke-width:1.0;stroke-dasharray:2.0,2.0;" x1="51.5" x2="592.5" y1="1504.6563" y2="1504.6563"/><text fill="#000000" font-family="sans-serif" font-size="13" font-weight="bold" lengthAdjust="spacing" textLength="14" x="63.5" y="1499.9014">74</text><text fill="#000000" font-family="sans-serif" font-size="13" lengthAdjust="spacing" textLength="158" x="81.5" y="1499.9014">displays operation success</text><!--SRC=[jLTVRzCm47_tfx3sr24cWK0W8eGqLeH0813T91vuyT9hPvROndOsvTjpThB4QTt4OIKlTUtp_V_TdSqj5uffLj9I2fdVQ5a2jRe2OheJnV9RjeMLhGkW6dBBnBO82SmDMyjxBhPqmme3X5XkaVHxTLrmStCkXAn43YK8-mF-L63irIUwSYlSfKlEjex9OhLQdXB2AYj5LLw3ndLkfQOdvrkyUKAPeNv5KAZbELTCM7gIZKdnbyO8adbTI66rB0hG4pnxmXtUFq19mz4W3iRpM77dHhHsIAW3kbzY_rfulYFYNAc2vynoALPW3FuqNjlT7LvZIhNxAEu02pRE8g-qHXVqRAuCwF1-y7z7-Bu7Eujhfy_OUMFT6CMEchBaNeU1Y8lzNSyuih_ZxvzVqNTjHhJh8GNcY8tejxGo-u97R-Ddxpp3mtUJP1mKCCfzCZXEzRXMXuAnfx1gi0FhyudOVqyYF8p7UDIWL8Mi0GQYFknjUhRxsyHN9Nx7BBJLY53y_9AUlHklUHdol3NKIce0g-mD-31GkQ5AIqmUMzFGvGZr9YXEGYTrj9oHKVcZ-lM5wycJZEOQKDXn-A7TMuXbcqlHnIb9C2segaJ3XiexP9j6JeFl8zWkflHzZMl62q90hD7NcqUp3ibfIq-TaKxMLsdSPju4rYWf3B_6Bhd15kTIeSqcGl-7DWDbhenhrSlBRu6mlktI5sz8KbJF9j8z6wbWQvWPT6_LU3AYEWqCCnn8vBtfm1N3L2G4p5BcxpFqIG_K0WSUAWLq_atItM4n34XgWMZa6IVmS2ru-1Br8Ap0RCXpKDP4SvHCUpOTvvUrWgvr8hhdwHjFw4SWOOY9JZ6FX05b1xjGuHuLBz-41qS12FhBEQjNAfGm6o5JjVe17ba3Zh3xT7EH8Sd9dPJGsKCwEsaESU2OWnFO69mc34FJ9B66tmwDqHnEjBx5aQ5hPjcYn9aKGV-vCfPlsWdtD7J2gZOMobHpBORJT2N6II2xdBmjyqF51HQfqkld8kQsecMjSJYi-oBcYbiknOQtrzD3d5wqgkkIjowTCwnCrgLZJ1-PEaYq61j5bs1opPLpsTCE8C7cxBabhMOa6XKVgB2rlgy37HTirAxP9f2Z5UBeg8Jgkqafq31UeOEo_EfPabzJMrWMSHWvVkYwYZ-Crb7Ix3_qohanUNcC0JBmMEUNHqRYuH6NDQ-RwFio1faU_rFHw9-9us7ewUB-l_0Aqax30LwY0GZy__ev6HMQxlXeVPni8Brnntb7nBL86WheltSG58pTLApz6t4m8E1GsqYVdWPttYLhRbJ1QXplyRNVD7DJOGCqXinwMP2_]--></g></svg>