<?xml version="1.0" encoding="us-ascii" standalone="no"?><svg xmlns="http://www.w3.org/2000/svg" xmlns:xlink="http://www.w3.org/1999/xlink" contentStyleType="text/css" height="1089px" preserveAspectRatio="none" style="width:2471px;height:1089px;background:#FFFFFF;" version="1.1" viewBox="0 0 2471 1089" width="2471px" zoomAndPan="magnify"><defs/><g><rect fill="#FFFFFF" height="1000.4141" style="stroke:#181818;stroke-width:1.0;" width="10" x="110" y="45.6406"/><rect fill="#FFFFFF" height="938.3672" style="stroke:#181818;stroke-width:1.0;" width="10" x="550" y="107.6875"/><rect fill="#FFFFFF" height="28.5234" style="stroke:#181818;stroke-width:1.0;" width="10" x="934" y="136.2109"/><rect fill="#FFFFFF" height="30" style="stroke:#181818;stroke-width:1.0;" width="10" x="934" y="1007.0547"/><rect fill="#FFFFFF" height="728.2266" style="stroke:#181818;stroke-width:1.0;" width="10" x="1248" y="193.2578"/><rect fill="#FFFFFF" height="28" style="stroke:#181818;stroke-width:1.0;" width="10" x="1253" y="751.7969"/><rect fill="#FFFFFF" height="28.5234" style="stroke:#181818;stroke-width:1.0;" width="10" x="1248" y="950.0078"/><rect fill="#FFFFFF" height="30" style="stroke:#181818;stroke-width:1.0;" width="10" x="1967" y="855.9609"/><rect fill="#FFFFFF" height="28.5234" style="stroke:#181818;stroke-width:1.0;" width="10" x="2167" y="285.9453"/><rect fill="#FFFFFF" height="28.5234" style="stroke:#181818;stroke-width:1.0;" width="10" x="2167" y="342.9922"/><rect fill="#FFFFFF" height="28.5234" style="stroke:#181818;stroke-width:1.0;" width="10" x="2167" y="400.0391"/><rect fill="#FFFFFF" height="28.5234" style="stroke:#181818;stroke-width:1.0;" width="10" x="2167" y="457.0859"/><rect fill="#FFFFFF" height="28.5234" style="stroke:#181818;stroke-width:1.0;" width="10" x="2167" y="514.1328"/><rect fill="#FFFFFF" height="28.5234" style="stroke:#181818;stroke-width:1.0;" width="10" x="2167" y="571.1797"/><rect fill="#FFFFFF" height="30" style="stroke:#181818;stroke-width:1.0;" width="10" x="2167" y="628.2266"/><rect fill="#FFFFFF" height="28.5234" style="stroke:#181818;stroke-width:1.0;" width="10" x="2167" y="686.75"/><rect fill="none" height="645.0625" style="stroke:#000000;stroke-width:1.5;" width="1323.5" x="1142" y="248.8984"/><line style="stroke:#181818;stroke-width:0.5;stroke-dasharray:5.0,5.0;" x1="115" x2="115" y1="35.6406" y2="1055.0547"/><line style="stroke:#181818;stroke-width:0.5;stroke-dasharray:5.0,5.0;" x1="555" x2="555" y1="35.6406" y2="1055.0547"/><line style="stroke:#181818;stroke-width:0.5;stroke-dasharray:5.0,5.0;" x1="939" x2="939" y1="35.6406" y2="1055.0547"/><line style="stroke:#181818;stroke-width:0.5;stroke-dasharray:5.0,5.0;" x1="1253" x2="1253" y1="35.6406" y2="1055.0547"/><line style="stroke:#181818;stroke-width:0.5;stroke-dasharray:5.0,5.0;" x1="1971.5" x2="1971.5" y1="231.5781" y2="1055.0547"/><line style="stroke:#181818;stroke-width:0.5;stroke-dasharray:5.0,5.0;" x1="2171.5" x2="2171.5" y1="35.6406" y2="1055.0547"/><line style="stroke:#181818;stroke-width:0.5;stroke-dasharray:5.0,5.0;" x1="2363.5" x2="2363.5" y1="825.1172" y2="1055.0547"/><rect fill="#E2E2F0" height="29.6406" rx="2.5" ry="2.5" style="stroke:#181818;stroke-width:0.5;" width="220" x="5" y="5"/><text fill="#000000" font-family="sans-serif" font-size="14" lengthAdjust="spacing" textLength="206" x="12" y="24.6738">PublishAnnouncementRequestUI</text><rect fill="#E2E2F0" height="29.6406" rx="2.5" ry="2.5" style="stroke:#181818;stroke-width:0.5;" width="220" x="5" y="1054.0547"/><text fill="#000000" font-family="sans-serif" font-size="14" lengthAdjust="spacing" textLength="206" x="12" y="1073.7285">PublishAnnouncementRequestUI</text><rect fill="#E2E2F0" height="29.6406" rx="2.5" ry="2.5" style="stroke:#181818;stroke-width:0.5;" width="270" x="420" y="5"/><text fill="#000000" font-family="sans-serif" font-size="14" lengthAdjust="spacing" textLength="256" x="427" y="24.6738">PublishAnnouncementRequestController</text><rect fill="#E2E2F0" height="29.6406" rx="2.5" ry="2.5" style="stroke:#181818;stroke-width:0.5;" width="270" x="420" y="1054.0547"/><text fill="#000000" font-family="sans-serif" font-size="14" lengthAdjust="spacing" textLength="256" x="427" y="1073.7285">PublishAnnouncementRequestController</text><rect fill="#E2E2F0" height="29.6406" rx="2.5" ry="2.5" style="stroke:#181818;stroke-width:0.5;" width="230" x="824" y="5"/><text fill="#000000" font-family="sans-serif" font-size="14" lengthAdjust="spacing" textLength="216" x="831" y="24.6738">AnnouncementRequestRepository</text><rect fill="#E2E2F0" height="29.6406" rx="2.5" ry="2.5" style="stroke:#181818;stroke-width:0.5;" width="230" x="824" y="1054.0547"/><text fill="#000000" font-family="sans-serif" font-size="14" lengthAdjust="spacing" textLength="216" x="831" y="1073.7285">AnnouncementRequestRepository</text><rect fill="#E2E2F0" height="29.6406" rx="2.5" ry="2.5" style="stroke:#181818;stroke-width:0.5;" width="202" x="1152" y="5"/><text fill="#000000" font-family="sans-serif" font-size="14" lengthAdjust="spacing" textLength="188" x="1159" y="24.6738">AnnoucementRequestMapper</text><rect fill="#E2E2F0" height="29.6406" rx="2.5" ry="2.5" style="stroke:#181818;stroke-width:0.5;" width="202" x="1152" y="1054.0547"/><text fill="#000000" font-family="sans-serif" font-size="14" lengthAdjust="spacing" textLength="188" x="1159" y="1073.7285">AnnoucementRequestMapper</text><rect fill="#E2E2F0" height="29.6406" rx="2.5" ry="2.5" style="stroke:#181818;stroke-width:0.5;" width="201" x="1871.5" y="1054.0547"/><text fill="#000000" font-family="sans-serif" font-size="14" lengthAdjust="spacing" textLength="187" x="1878.5" y="1073.7285">listAnnouncementRequestDto</text><rect fill="#E2E2F0" height="29.6406" rx="2.5" ry="2.5" style="stroke:#181818;stroke-width:0.5;" width="179" x="2082.5" y="5"/><text fill="#000000" font-family="sans-serif" font-size="14" lengthAdjust="spacing" textLength="165" x="2089.5" y="24.6738">listAnnouncementRequest</text><rect fill="#E2E2F0" height="29.6406" rx="2.5" ry="2.5" style="stroke:#181818;stroke-width:0.5;" width="179" x="2082.5" y="1054.0547"/><text fill="#000000" font-family="sans-serif" font-size="14" lengthAdjust="spacing" textLength="165" x="2089.5" y="1073.7285">listAnnouncementRequest</text><rect fill="#E2E2F0" height="29.6406" rx="2.5" ry="2.5" style="stroke:#181818;stroke-width:0.5;" width="184" x="2271.5" y="1054.0547"/><text fill="#000000" font-family="sans-serif" font-size="14" lengthAdjust="spacing" textLength="170" x="2278.5" y="1073.7285">AnnouncementRequestDto</text><rect fill="#FFFFFF" height="1000.4141" style="stroke:#181818;stroke-width:1.0;" width="10" x="110" y="45.6406"/><rect fill="#FFFFFF" height="938.3672" style="stroke:#181818;stroke-width:1.0;" width="10" x="550" y="107.6875"/><rect fill="#FFFFFF" height="28.5234" style="stroke:#181818;stroke-width:1.0;" width="10" x="934" y="136.2109"/><rect fill="#FFFFFF" height="30" style="stroke:#181818;stroke-width:1.0;" width="10" x="934" y="1007.0547"/><rect fill="#FFFFFF" height="728.2266" style="stroke:#181818;stroke-width:1.0;" width="10" x="1248" y="193.2578"/><rect fill="#FFFFFF" height="28" style="stroke:#181818;stroke-width:1.0;" width="10" x="1253" y="751.7969"/><rect fill="#FFFFFF" height="28.5234" style="stroke:#181818;stroke-width:1.0;" width="10" x="1248" y="950.0078"/><rect fill="#FFFFFF" height="30" style="stroke:#181818;stroke-width:1.0;" width="10" x="1967" y="855.9609"/><rect fill="#FFFFFF" height="28.5234" style="stroke:#181818;stroke-width:1.0;" width="10" x="2167" y="285.9453"/><rect fill="#FFFFFF" height="28.5234" style="stroke:#181818;stroke-width:1.0;" width="10" x="2167" y="342.9922"/><rect fill="#FFFFFF" height="28.5234" style="stroke:#181818;stroke-width:1.0;" width="10" x="2167" y="400.0391"/><rect fill="#FFFFFF" height="28.5234" style="stroke:#181818;stroke-width:1.0;" width="10" x="2167" y="457.0859"/><rect fill="#FFFFFF" height="28.5234" style="stroke:#181818;stroke-width:1.0;" width="10" x="2167" y="514.1328"/><rect fill="#FFFFFF" height="28.5234" style="stroke:#181818;stroke-width:1.0;" width="10" x="2167" y="571.1797"/><rect fill="#FFFFFF" height="30" style="stroke:#181818;stroke-width:1.0;" width="10" x="2167" y="628.2266"/><rect fill="#FFFFFF" height="28.5234" style="stroke:#181818;stroke-width:1.0;" width="10" x="2167" y="686.75"/><line style="stroke:#181818;stroke-width:1.0;" x1="120" x2="162" y1="66.1641" y2="66.1641"/><line style="stroke:#181818;stroke-width:1.0;" x1="162" x2="162" y1="66.1641" y2="79.1641"/><line style="stroke:#181818;stroke-width:1.0;" x1="121" x2="162" y1="79.1641" y2="79.1641"/><polygon fill="#181818" points="131,75.1641,121,79.1641,131,83.1641,127,79.1641" style="stroke:#181818;stroke-width:1.0;"/><text fill="#000000" font-family="sans-serif" font-size="13" font-weight="bold" lengthAdjust="spacing" textLength="14" x="127" y="61.4092">79</text><text fill="#000000" font-family="sans-serif" font-size="13" lengthAdjust="spacing" textLength="137" x="145" y="61.4092">sendEmailJustification()</text><polygon fill="#181818" points="538,103.6875,548,107.6875,538,111.6875,542,107.6875" style="stroke:#181818;stroke-width:1.0;"/><line style="stroke:#181818;stroke-width:1.0;" x1="120" x2="544" y1="107.6875" y2="107.6875"/><text fill="#000000" font-family="sans-serif" font-size="13" font-weight="bold" lengthAdjust="spacing" textLength="14" x="127" y="102.9326">80</text><text fill="#000000" font-family="sans-serif" font-size="13" lengthAdjust="spacing" textLength="393" x="145" y="102.9326">rejectAnnouncementRequest(announcementRequestDtoDescription)</text><polygon fill="#181818" points="922,132.2109,932,136.2109,922,140.2109,926,136.2109" style="stroke:#181818;stroke-width:1.0;"/><line style="stroke:#181818;stroke-width:1.0;" x1="560" x2="928" y1="136.2109" y2="136.2109"/><text fill="#000000" font-family="sans-serif" font-size="13" font-weight="bold" lengthAdjust="spacing" textLength="14" x="567" y="131.4561">81</text><text fill="#000000" font-family="sans-serif" font-size="13" lengthAdjust="spacing" textLength="337" x="585" y="131.4561">getAnnouncementRequestListByAgent(employeeByEmail)</text><polygon fill="#181818" points="571,160.7344,561,164.7344,571,168.7344,567,164.7344" style="stroke:#181818;stroke-width:1.0;"/><line style="stroke:#181818;stroke-width:1.0;stroke-dasharray:2.0,2.0;" x1="565" x2="938" y1="164.7344" y2="164.7344"/><text fill="#000000" font-family="sans-serif" font-size="13" font-weight="bold" lengthAdjust="spacing" textLength="14" x="577" y="159.9795">82</text><text fill="#000000" font-family="sans-serif" font-size="13" lengthAdjust="spacing" textLength="211" x="595" y="159.9795">announcementsRequestListByAgent</text><polygon fill="#181818" points="1236,189.2578,1246,193.2578,1236,197.2578,1240,193.2578" style="stroke:#181818;stroke-width:1.0;"/><line style="stroke:#181818;stroke-width:1.0;" x1="560" x2="1242" y1="193.2578" y2="193.2578"/><text fill="#000000" font-family="sans-serif" font-size="13" font-weight="bold" lengthAdjust="spacing" textLength="14" x="567" y="188.5029">83</text><text fill="#000000" font-family="sans-serif" font-size="13" lengthAdjust="spacing" textLength="250" x="585" y="188.5029">toDto(announcementsRequestListByAgent)</text><polygon fill="#181818" points="1859.5,217.7813,1869.5,221.7813,1859.5,225.7813,1863.5,221.7813" style="stroke:#181818;stroke-width:1.0;"/><line style="stroke:#181818;stroke-width:1.0;stroke-dasharray:2.0,2.0;" x1="1258" x2="1865.5" y1="221.7813" y2="221.7813"/><text fill="#000000" font-family="sans-serif" font-size="13" font-weight="bold" lengthAdjust="spacing" textLength="14" x="1265" y="217.0264">84</text><text fill="#000000" font-family="sans-serif" font-size="13" lengthAdjust="spacing" textLength="44" x="1283" y="217.0264">create()</text><rect fill="#E2E2F0" height="29.6406" rx="2.5" ry="2.5" style="stroke:#181818;stroke-width:0.5;" width="201" x="1871.5" y="201.2578"/><text fill="#000000" font-family="sans-serif" font-size="14" lengthAdjust="spacing" textLength="187" x="1878.5" y="220.9316">listAnnouncementRequestDto</text><path d="M1142,248.8984 L1215,248.8984 L1215,255.4219 L1205,265.4219 L1142,265.4219 L1142,248.8984 " fill="#EEEEEE" style="stroke:#000000;stroke-width:1.5;"/><rect fill="none" height="645.0625" style="stroke:#000000;stroke-width:1.5;" width="1323.5" x="1142" y="248.8984"/><text fill="#000000" font-family="sans-serif" font-size="13" font-weight="bold" lengthAdjust="spacing" textLength="28" x="1157" y="261.667">loop</text><polygon fill="#181818" points="2155,281.9453,2165,285.9453,2155,289.9453,2159,285.9453" style="stroke:#181818;stroke-width:1.0;"/><line style="stroke:#181818;stroke-width:1.0;" x1="1258" x2="2161" y1="285.9453" y2="285.9453"/><text fill="#000000" font-family="sans-serif" font-size="13" font-weight="bold" lengthAdjust="spacing" textLength="14" x="1265" y="281.1904">85</text><text fill="#000000" font-family="sans-serif" font-size="13" lengthAdjust="spacing" textLength="108" x="1283" y="281.1904">agent = getAgent()</text><polygon fill="#181818" points="2155,338.9922,2165,342.9922,2155,346.9922,2159,342.9922" style="stroke:#181818;stroke-width:1.0;"/><line style="stroke:#181818;stroke-width:1.0;" x1="1258" x2="2161" y1="342.9922" y2="342.9922"/><text fill="#000000" font-family="sans-serif" font-size="13" font-weight="bold" lengthAdjust="spacing" textLength="14" x="1265" y="338.2373">87</text><text fill="#000000" font-family="sans-serif" font-size="13" lengthAdjust="spacing" textLength="138" x="1283" y="338.2373">property = getProperty()</text><polygon fill="#181818" points="2155,396.0391,2165,400.0391,2155,404.0391,2159,400.0391" style="stroke:#181818;stroke-width:1.0;"/><line style="stroke:#181818;stroke-width:1.0;" x1="1258" x2="2161" y1="400.0391" y2="400.0391"/><text fill="#000000" font-family="sans-serif" font-size="13" font-weight="bold" lengthAdjust="spacing" textLength="14" x="1265" y="395.2842">89</text><text fill="#000000" font-family="sans-serif" font-size="13" lengthAdjust="spacing" textLength="229" x="1283" y="395.2842">typeOfBusiness = getTypeOfBusiness()</text><polygon fill="#181818" points="2155,453.0859,2165,457.0859,2155,461.0859,2159,457.0859" style="stroke:#181818;stroke-width:1.0;"/><line style="stroke:#181818;stroke-width:1.0;" x1="1258" x2="2161" y1="457.0859" y2="457.0859"/><text fill="#000000" font-family="sans-serif" font-size="13" font-weight="bold" lengthAdjust="spacing" textLength="14" x="1265" y="452.3311">91</text><text fill="#000000" font-family="sans-serif" font-size="13" lengthAdjust="spacing" textLength="194" x="1283" y="452.3311">propertyType = getPropertyType()</text><polygon fill="#181818" points="2155,510.1328,2165,514.1328,2155,518.1328,2159,514.1328" style="stroke:#181818;stroke-width:1.0;"/><line style="stroke:#181818;stroke-width:1.0;" x1="1258" x2="2161" y1="514.1328" y2="514.1328"/><text fill="#000000" font-family="sans-serif" font-size="13" font-weight="bold" lengthAdjust="spacing" textLength="14" x="1265" y="509.3779">93</text><text fill="#000000" font-family="sans-serif" font-size="13" lengthAdjust="spacing" textLength="148" x="1283" y="509.3779">business = getBusiness()</text><polygon fill="#181818" points="2155,567.1797,2165,571.1797,2155,575.1797,2159,571.1797" style="stroke:#181818;stroke-width:1.0;"/><line style="stroke:#181818;stroke-width:1.0;" x1="1258" x2="2161" y1="571.1797" y2="571.1797"/><text fill="#000000" font-family="sans-serif" font-size="13" font-weight="bold" lengthAdjust="spacing" textLength="14" x="1265" y="566.4248">95</text><text fill="#000000" font-family="sans-serif" font-size="13" lengthAdjust="spacing" textLength="90" x="1283" y="566.4248">date = geDate()</text><polygon fill="#181818" points="2155,624.2266,2165,628.2266,2155,632.2266,2159,628.2266" style="stroke:#181818;stroke-width:1.0;"/><line style="stroke:#181818;stroke-width:1.0;" x1="1258" x2="2161" y1="628.2266" y2="628.2266"/><text fill="#000000" font-family="sans-serif" font-size="13" font-weight="bold" lengthAdjust="spacing" textLength="14" x="1265" y="623.4717">97</text><text fill="#000000" font-family="sans-serif" font-size="13" lengthAdjust="spacing" textLength="173" x="1283" y="623.4717">durationOfContract = geDate()</text><polygon fill="#181818" points="2155,682.75,2165,686.75,2155,690.75,2159,686.75" style="stroke:#181818;stroke-width:1.0;"/><line style="stroke:#181818;stroke-width:1.0;" x1="1258" x2="2161" y1="686.75" y2="686.75"/><text fill="#000000" font-family="sans-serif" font-size="13" font-weight="bold" lengthAdjust="spacing" textLength="14" x="1265" y="681.9951">98</text><text fill="#000000" font-family="sans-serif" font-size="13" lengthAdjust="spacing" textLength="116" x="1283" y="681.9951">status = getStatus()</text><line style="stroke:#181818;stroke-width:1.0;" x1="1263" x2="1305" y1="743.7969" y2="743.7969"/><line style="stroke:#181818;stroke-width:1.0;" x1="1305" x2="1305" y1="743.7969" y2="756.7969"/><line style="stroke:#181818;stroke-width:1.0;" x1="1264" x2="1305" y1="756.7969" y2="756.7969"/><polygon fill="#181818" points="1274,752.7969,1264,756.7969,1274,760.7969,1270,756.7969" style="stroke:#181818;stroke-width:1.0;"/><text fill="#000000" font-family="sans-serif" font-size="13" font-weight="bold" lengthAdjust="spacing" textLength="21" x="1270" y="739.042">100</text><text fill="#000000" font-family="sans-serif" font-size="13" lengthAdjust="spacing" textLength="670" x="1295" y="739.042">announcementsRequestDto = toDto(agent,property,typeOfBusiness,propertyType,business,date,durationOfContract)</text><polygon fill="#181818" points="2259.5,811.3203,2269.5,815.3203,2259.5,819.3203,2263.5,815.3203" style="stroke:#181818;stroke-width:1.0;"/><line style="stroke:#181818;stroke-width:1.0;stroke-dasharray:2.0,2.0;" x1="1258" x2="2265.5" y1="815.3203" y2="815.3203"/><text fill="#000000" font-family="sans-serif" font-size="13" font-weight="bold" lengthAdjust="spacing" textLength="21" x="1265" y="810.5654">101</text><text fill="#000000" font-family="sans-serif" font-size="13" lengthAdjust="spacing" textLength="56" x="1290" y="810.5654">create(...)</text><rect fill="#E2E2F0" height="29.6406" rx="2.5" ry="2.5" style="stroke:#181818;stroke-width:0.5;" width="184" x="2271.5" y="794.7969"/><text fill="#000000" font-family="sans-serif" font-size="14" lengthAdjust="spacing" textLength="170" x="2278.5" y="814.4707">AnnouncementRequestDto</text><polygon fill="#181818" points="1955,851.9609,1965,855.9609,1955,859.9609,1959,855.9609" style="stroke:#181818;stroke-width:1.0;"/><line style="stroke:#181818;stroke-width:1.0;" x1="1258" x2="1961" y1="855.9609" y2="855.9609"/><text fill="#000000" font-family="sans-serif" font-size="13" font-weight="bold" lengthAdjust="spacing" textLength="21" x="1265" y="851.2061">102</text><text fill="#000000" font-family="sans-serif" font-size="13" lengthAdjust="spacing" textLength="182" x="1290" y="851.2061">add(announcementRequestDto)</text><polygon fill="#181818" points="571,917.4844,561,921.4844,571,925.4844,567,921.4844" style="stroke:#181818;stroke-width:1.0;"/><line style="stroke:#181818;stroke-width:1.0;stroke-dasharray:2.0,2.0;" x1="565" x2="1252" y1="921.4844" y2="921.4844"/><text fill="#000000" font-family="sans-serif" font-size="13" font-weight="bold" lengthAdjust="spacing" textLength="21" x="577" y="916.7295">103</text><text fill="#000000" font-family="sans-serif" font-size="13" lengthAdjust="spacing" textLength="172" x="602" y="916.7295">listAnnouncementRequestDto</text><polygon fill="#181818" points="1236,946.0078,1246,950.0078,1236,954.0078,1240,950.0078" style="stroke:#181818;stroke-width:1.0;"/><line style="stroke:#181818;stroke-width:1.0;" x1="560" x2="1242" y1="950.0078" y2="950.0078"/><text fill="#000000" font-family="sans-serif" font-size="13" font-weight="bold" lengthAdjust="spacing" textLength="21" x="567" y="945.2529">104</text><text fill="#000000" font-family="sans-serif" font-size="13" lengthAdjust="spacing" textLength="644" x="592" y="945.2529">getAnnouncementRequestDtoByDescription(announcementRequestDtos,announcementRequestDtoDescription)</text><polygon fill="#181818" points="571,974.5313,561,978.5313,571,982.5313,567,978.5313" style="stroke:#181818;stroke-width:1.0;"/><line style="stroke:#181818;stroke-width:1.0;stroke-dasharray:2.0,2.0;" x1="565" x2="1252" y1="978.5313" y2="978.5313"/><text fill="#000000" font-family="sans-serif" font-size="13" font-weight="bold" lengthAdjust="spacing" textLength="21" x="577" y="973.7764">105</text><text fill="#000000" font-family="sans-serif" font-size="13" lengthAdjust="spacing" textLength="254" x="602" y="973.7764">getAnnouncementRequestDtoByDescription</text><polygon fill="#181818" points="922,1003.0547,932,1007.0547,922,1011.0547,926,1007.0547" style="stroke:#181818;stroke-width:1.0;"/><line style="stroke:#181818;stroke-width:1.0;" x1="560" x2="928" y1="1007.0547" y2="1007.0547"/><text fill="#000000" font-family="sans-serif" font-size="13" font-weight="bold" lengthAdjust="spacing" textLength="21" x="567" y="1002.2998">106</text><text fill="#000000" font-family="sans-serif" font-size="13" lengthAdjust="spacing" textLength="328" x="592" y="1002.2998">rejectAnnouncementRequest(announcementRequestDto)</text><!--SRC=[rLV1Rjim3BtxAtHRKZZ9iPY13MYM7bgqQD5jfs47nMOI5RQaIjG0__qe9qNjndRa54MRcorHv7kFj4X_sI1gcyncEkSINP5FKrNCB3mva2bCCi7NXXTHn1qgwOeb67R-bLvJ5Fyu0hjtorpOpOMKoj610YG- -CCMVrz5KTykctplFPqm2pAxBBZ8hvr5iH8fHw7aQ1oznV4F9T6eF0UJ67Y455jiHdn_RO5g0JOrGdiGun05NaBr0Nwnyi1R31v0AojGcJ9PGnlS6s5nNbwiQMK4XSvL2J0lA-LgE7izHr7lDfk4QbfNpkxZYp881JH8iSR-BTUQe33A6AhH0KIl5Mhnj1EdPQVIXL2sPOLYdvqbB3L0ldtHvahfFbUTdbZ2FLBsZVdyLsckeUuur1VfpqPa6SY_dH7hQJh2VwVVX6cZo0JBBPdxtTlfyi5ImzrgxgoGOEsMrQ_6skddolDfvikld2wlPIDRfv-dpBlqN1RRc-RZQHp9mvcgmz-jgXkUmWnZzMu2M-JeTkNoith-zCNIkPUmjeP8pOhexHgcxp3nyySVDs-uk7ufnCzVKknBCDxFNr1pVJqI3E_01xllT3eT7vLxSaE2PLd7H7Yu2iWef32z6Ksx1tW6JM1z8OAaVlFWrJwbKlnvMHkXEoIryP3X-yY22HCoZCSxYDev_m_zOmaU_uF7yly0]--></g></svg>