<?xml version="1.0" encoding="us-ascii" standalone="no"?><svg xmlns="http://www.w3.org/2000/svg" xmlns:xlink="http://www.w3.org/1999/xlink" contentStyleType="text/css" height="279px" preserveAspectRatio="none" style="width:807px;height:279px;background:#FFFFFF;" version="1.1" viewBox="0 0 807 279" width="807px" zoomAndPan="magnify"><defs/><g><rect fill="#FFFFFF" height="158.6172" style="stroke:#181818;stroke-width:1.0;" width="10" x="152" y="61.2813"/><rect fill="#FFFFFF" height="130.0938" style="stroke:#181818;stroke-width:1.0;" width="10" x="162" y="89.8047"/><rect fill="#FFFFFF" height="130.0938" style="stroke:#181818;stroke-width:1.0;" width="10" x="162" y="89.8047"/><rect fill="#FFFFFF" height="28.5234" style="stroke:#181818;stroke-width:1.0;" width="10" x="669" y="146.8516"/><rect fill="none" height="73.5703" style="stroke:#000000;stroke-width:1.5;" width="791" x="10" y="109.8047"/><line style="stroke:#181818;stroke-width:0.5;stroke-dasharray:5.0,5.0;" x1="157" x2="157" y1="51.2813" y2="228.8984"/><line style="stroke:#181818;stroke-width:0.5;stroke-dasharray:5.0,5.0;" x1="674" x2="674" y1="51.2813" y2="228.8984"/><rect fill="#E2E2F0" height="29.6406" rx="2.5" ry="2.5" style="stroke:#181818;stroke-width:0.5;" width="274" x="20" y="20.6406"/><text fill="#000000" font-family="sans-serif" font-size="14" lengthAdjust="spacing" textLength="260" x="27" y="40.3145">:PublishAnnouncementRequestController</text><rect fill="#E2E2F0" height="29.6406" rx="2.5" ry="2.5" style="stroke:#181818;stroke-width:0.5;" width="274" x="20" y="227.8984"/><text fill="#000000" font-family="sans-serif" font-size="14" lengthAdjust="spacing" textLength="260" x="27" y="247.5723">:PublishAnnouncementRequestController</text><rect fill="#E2E2F0" height="45.2813" rx="2.5" ry="2.5" style="stroke:#181818;stroke-width:0.5;" width="234" x="557" y="5"/><text fill="#000000" font-family="sans-serif" font-size="14" lengthAdjust="spacing" textLength="215" x="566.5" y="24.6738">announcementRequestRepository</text><text fill="#000000" font-family="sans-serif" font-size="14" lengthAdjust="spacing" textLength="220" x="564" y="40.3145">:AnnouncementRequestRepository</text><rect fill="#E2E2F0" height="45.2813" rx="2.5" ry="2.5" style="stroke:#181818;stroke-width:0.5;" width="234" x="557" y="227.8984"/><text fill="#000000" font-family="sans-serif" font-size="14" lengthAdjust="spacing" textLength="215" x="566.5" y="247.5723">announcementRequestRepository</text><text fill="#000000" font-family="sans-serif" font-size="14" lengthAdjust="spacing" textLength="220" x="564" y="263.2129">:AnnouncementRequestRepository</text><rect fill="#FFFFFF" height="158.6172" style="stroke:#181818;stroke-width:1.0;" width="10" x="152" y="61.2813"/><rect fill="#FFFFFF" height="130.0938" style="stroke:#181818;stroke-width:1.0;" width="10" x="162" y="89.8047"/><rect fill="#FFFFFF" height="130.0938" style="stroke:#181818;stroke-width:1.0;" width="10" x="162" y="89.8047"/><rect fill="#FFFFFF" height="28.5234" style="stroke:#181818;stroke-width:1.0;" width="10" x="669" y="146.8516"/><line style="stroke:#181818;stroke-width:1.0;" x1="162" x2="209" y1="76.8047" y2="76.8047"/><line style="stroke:#181818;stroke-width:1.0;" x1="209" x2="209" y1="76.8047" y2="89.8047"/><line style="stroke:#181818;stroke-width:1.0;" x1="168" x2="209" y1="89.8047" y2="89.8047"/><polygon fill="#181818" points="178,85.8047,168,89.8047,178,93.8047,174,89.8047" style="stroke:#181818;stroke-width:1.0;"/><text fill="#000000" font-family="sans-serif" font-size="13" font-weight="bold" lengthAdjust="spacing" textLength="14" x="174" y="72.0498">56</text><text fill="#000000" font-family="sans-serif" font-size="13" lengthAdjust="spacing" textLength="460" x="192" y="72.0498">getAnnouncementRequestDtoByDescription(announcementRequestDescription)</text><path d="M10,109.8047 L327,109.8047 L327,116.3281 L317,126.3281 L10,126.3281 L10,109.8047 " fill="#EEEEEE" style="stroke:#000000;stroke-width:1.5;"/><rect fill="none" height="73.5703" style="stroke:#000000;stroke-width:1.5;" width="791" x="10" y="109.8047"/><text fill="#000000" font-family="sans-serif" font-size="13" font-weight="bold" lengthAdjust="spacing" textLength="272" x="25" y="122.5732">Get Announcement Request By Description</text><polygon fill="#181818" points="657,142.8516,667,146.8516,657,150.8516,661,146.8516" style="stroke:#181818;stroke-width:1.0;"/><line style="stroke:#181818;stroke-width:1.0;" x1="172" x2="663" y1="146.8516" y2="146.8516"/><text fill="#000000" font-family="sans-serif" font-size="13" font-weight="bold" lengthAdjust="spacing" textLength="14" x="179" y="142.0967">57</text><text fill="#000000" font-family="sans-serif" font-size="13" lengthAdjust="spacing" textLength="460" x="197" y="142.0967">getAnnouncementRequestDtoByDescription(announcementRequestDescription)</text><polygon fill="#181818" points="183,171.375,173,175.375,183,179.375,179,175.375" style="stroke:#181818;stroke-width:1.0;"/><line style="stroke:#181818;stroke-width:1.0;stroke-dasharray:2.0,2.0;" x1="177" x2="673" y1="175.375" y2="175.375"/><text fill="#000000" font-family="sans-serif" font-size="13" font-weight="bold" lengthAdjust="spacing" textLength="14" x="189" y="170.6201">58</text><text fill="#000000" font-family="sans-serif" font-size="13" lengthAdjust="spacing" textLength="133" x="207" y="170.6201">announcementRequest</text><polygon fill="#181818" points="183,206.8984,173,210.8984,183,214.8984,179,210.8984" style="stroke:#181818;stroke-width:1.0;"/><line style="stroke:#181818;stroke-width:1.0;stroke-dasharray:2.0,2.0;" x1="177" x2="673" y1="210.8984" y2="210.8984"/><text fill="#000000" font-family="sans-serif" font-size="13" font-weight="bold" lengthAdjust="spacing" textLength="14" x="189" y="206.1436">59</text><text fill="#000000" font-family="sans-serif" font-size="13" lengthAdjust="spacing" textLength="133" x="207" y="206.1436">announcementRequest</text><!--SRC=[pP8nRm8n38Nt_0gBfNGuReBXXafG95R4t2NaB8YKs6dYLBf_tmCnW3WTgLGaHijVdf-VytOK2Qcfw-0qIVPkPjZN2Rypai6gjVeGjLTA1Ht56Xjw2YRDDk-TJSSb4UUUyqYoExr9yiaaaPt3E06Te0IyrTRtw0u39oiSkozgbcFzyynHGYcTXIdxFKQOB_hIYFtHWcLMLGa5rKUHMdD06G3MmgjkZSb46yGoJGSYkMg__tM5JUGSO8DoanHSI5XrSAN-j816hmJ_7is3Jp7kfYezw80TrMAX2QJs9Opy0W00]--></g></svg>