<?xml version="1.0" encoding="us-ascii" standalone="no"?><svg xmlns="http://www.w3.org/2000/svg" xmlns:xlink="http://www.w3.org/1999/xlink" contentStyleType="text/css" height="2365px" preserveAspectRatio="none" style="width:2329px;height:2365px;background:#FFFFFF;" version="1.1" viewBox="0 0 2329 2365" width="2329px" zoomAndPan="magnify"><defs/><g><!--class PublishAnnouncementRequestUI--><g id="elem_PublishAnnouncementRequestUI"><rect codeLine="169" fill="#F1F1F1" height="48" id="PublishAnnouncementRequestUI" rx="2.5" ry="2.5" style="stroke:#181818;stroke-width:0.5;" width="238" x="7" y="116.5"/><ellipse cx="22" cy="132.5" fill="#ADD1B2" rx="11" ry="11" style="stroke:#181818;stroke-width:1.0;"/><path d="M24,129 Q24.2031,128.5 24.4375,128.25 Q24.6719,128 24.9375,128 Q25.4063,128 25.7031,128.2813 Q26,128.5625 26,129.2188 L26,130.7813 Q26,131.4375 25.7188,131.7188 Q25.4375,132 25,132 Q24.6094,132 24.3594,131.8281 Q24.1094,131.6563 24,131.2031 Q23.9531,130.8906 23.7813,130.7188 Q23.4688,130.3906 22.9063,130.2031 Q22.3438,130 21.7813,130 Q21.0781,130 20.4844,130.2813 Q19.9063,130.5625 19.4531,131.1875 Q19,131.8125 19,132.6719 L19,133.5938 Q19,134.625 19.8438,135.3125 Q20.6875,136 22.1875,136 Q23.0781,136 23.7031,135.7969 Q24.0625,135.6875 24.4688,135.3281 Q24.7344,135.125 24.875,135.0625 Q25.0156,135 25.1875,135 Q25.5156,135 25.75,135.2656 Q26,135.5156 26,135.875 Q26,136.2188 25.6563,136.625 Q25.1563,137.2188 24.3594,137.5469 Q23.3125,138 22.0313,138 Q20.5313,138 19.3281,137.4063 Q18.3594,136.9375 17.6719,135.9219 Q17,134.9063 17,133.7031 L17,132.6094 Q17,131.3594 17.5938,130.2656 Q18.2031,129.1719 19.25,128.5938 Q20.3125,128 21.5,128 Q22.2188,128 22.8438,128.25 Q23.4688,128.5 24,129 Z " fill="#000000"/><text fill="#000000" font-family="sans-serif" font-size="14" lengthAdjust="spacing" textLength="206" x="36" y="137.3535">PublishAnnouncementRequestUI</text><line style="stroke:#181818;stroke-width:0.5;" x1="8" x2="244" y1="148.5" y2="148.5"/><line style="stroke:#181818;stroke-width:0.5;" x1="8" x2="244" y1="156.5" y2="156.5"/></g><!--class Adress--><g id="elem_Adress"><rect codeLine="117" fill="#F1F1F1" height="157.4844" id="Adress" rx="2.5" ry="2.5" style="stroke:#181818;stroke-width:0.5;" width="300" x="1050" y="1689"/><ellipse cx="1173.75" cy="1705" fill="#ADD1B2" rx="11" ry="11" style="stroke:#181818;stroke-width:1.0;"/><path d="M1175.75,1701.5 Q1175.9531,1701 1176.1875,1700.75 Q1176.4219,1700.5 1176.6875,1700.5 Q1177.1563,1700.5 1177.4531,1700.7813 Q1177.75,1701.0625 1177.75,1701.7188 L1177.75,1703.2813 Q1177.75,1703.9375 1177.4688,1704.2188 Q1177.1875,1704.5 1176.75,1704.5 Q1176.3594,1704.5 1176.1094,1704.3281 Q1175.8594,1704.1563 1175.75,1703.7031 Q1175.7031,1703.3906 1175.5313,1703.2188 Q1175.2188,1702.8906 1174.6563,1702.7031 Q1174.0938,1702.5 1173.5313,1702.5 Q1172.8281,1702.5 1172.2344,1702.7813 Q1171.6563,1703.0625 1171.2031,1703.6875 Q1170.75,1704.3125 1170.75,1705.1719 L1170.75,1706.0938 Q1170.75,1707.125 1171.5938,1707.8125 Q1172.4375,1708.5 1173.9375,1708.5 Q1174.8281,1708.5 1175.4531,1708.2969 Q1175.8125,1708.1875 1176.2188,1707.8281 Q1176.4844,1707.625 1176.625,1707.5625 Q1176.7656,1707.5 1176.9375,1707.5 Q1177.2656,1707.5 1177.5,1707.7656 Q1177.75,1708.0156 1177.75,1708.375 Q1177.75,1708.7188 1177.4063,1709.125 Q1176.9063,1709.7188 1176.1094,1710.0469 Q1175.0625,1710.5 1173.7813,1710.5 Q1172.2813,1710.5 1171.0781,1709.9063 Q1170.1094,1709.4375 1169.4219,1708.4219 Q1168.75,1707.4063 1168.75,1706.2031 L1168.75,1705.1094 Q1168.75,1703.8594 1169.3438,1702.7656 Q1169.9531,1701.6719 1171,1701.0938 Q1172.0625,1700.5 1173.25,1700.5 Q1173.9688,1700.5 1174.5938,1700.75 Q1175.2188,1701 1175.75,1701.5 Z " fill="#000000"/><text fill="#000000" font-family="sans-serif" font-size="14" lengthAdjust="spacing" textLength="44" x="1194.25" y="1709.8535">Adress</text><line style="stroke:#181818;stroke-width:0.5;" x1="1051" x2="1349" y1="1721" y2="1721"/><rect fill="none" height="6" style="stroke:#C82930;stroke-width:1.0;" width="6" x="1058" y="1731.3203"/><text fill="#000000" font-family="sans-serif" font-size="14" lengthAdjust="spacing" textLength="113" x="1070" y="1737.6738">String streetName</text><rect fill="none" height="6" style="stroke:#C82930;stroke-width:1.0;" width="6" x="1058" y="1746.9609"/><text fill="#000000" font-family="sans-serif" font-size="14" lengthAdjust="spacing" textLength="70" x="1070" y="1753.3145">int zipCode</text><line style="stroke:#181818;stroke-width:0.5;" x1="1051" x2="1349" y1="1760.2813" y2="1760.2813"/><ellipse cx="1061" cy="1773.6016" fill="#84BE84" rx="3" ry="3" style="stroke:#038048;stroke-width:1.0;"/><text fill="#000000" font-family="sans-serif" font-size="14" lengthAdjust="spacing" textLength="97" x="1070" y="1776.9551">verifyZipCode()</text><ellipse cx="1061" cy="1789.2422" fill="#84BE84" rx="3" ry="3" style="stroke:#038048;stroke-width:1.0;"/><text fill="#000000" font-family="sans-serif" font-size="14" lengthAdjust="spacing" textLength="54" x="1070" y="1792.5957">getCity()</text><ellipse cx="1061" cy="1804.8828" fill="#84BE84" rx="3" ry="3" style="stroke:#038048;stroke-width:1.0;"/><text fill="#000000" font-family="sans-serif" font-size="14" lengthAdjust="spacing" textLength="73" x="1070" y="1808.2363">getDistrict()</text><ellipse cx="1061" cy="1820.5234" fill="#84BE84" rx="3" ry="3" style="stroke:#038048;stroke-width:1.0;"/><text fill="#000000" font-family="sans-serif" font-size="14" lengthAdjust="spacing" textLength="63" x="1070" y="1823.877">getState()</text><ellipse cx="1061" cy="1836.1641" fill="#84BE84" rx="3" ry="3" style="stroke:#038048;stroke-width:1.0;"/><text fill="#000000" font-family="sans-serif" font-size="14" lengthAdjust="spacing" textLength="274" x="1070" y="1839.5176">Address(state, district, city, street, zipCode)</text></g><!--class PublishAnnouncementRequestController--><g id="elem_PublishAnnouncementRequestController"><rect codeLine="183" fill="#F1F1F1" height="266.9688" id="PublishAnnouncementRequestController" rx="2.5" ry="2.5" style="stroke:#181818;stroke-width:0.5;" width="1042" x="280" y="7"/><ellipse cx="668.75" cy="23" fill="#ADD1B2" rx="11" ry="11" style="stroke:#181818;stroke-width:1.0;"/><path d="M670.75,19.5 Q670.9531,19 671.1875,18.75 Q671.4219,18.5 671.6875,18.5 Q672.1563,18.5 672.4531,18.7813 Q672.75,19.0625 672.75,19.7188 L672.75,21.2813 Q672.75,21.9375 672.4688,22.2188 Q672.1875,22.5 671.75,22.5 Q671.3594,22.5 671.1094,22.3281 Q670.8594,22.1563 670.75,21.7031 Q670.7031,21.3906 670.5313,21.2188 Q670.2188,20.8906 669.6563,20.7031 Q669.0938,20.5 668.5313,20.5 Q667.8281,20.5 667.2344,20.7813 Q666.6563,21.0625 666.2031,21.6875 Q665.75,22.3125 665.75,23.1719 L665.75,24.0938 Q665.75,25.125 666.5938,25.8125 Q667.4375,26.5 668.9375,26.5 Q669.8281,26.5 670.4531,26.2969 Q670.8125,26.1875 671.2188,25.8281 Q671.4844,25.625 671.625,25.5625 Q671.7656,25.5 671.9375,25.5 Q672.2656,25.5 672.5,25.7656 Q672.75,26.0156 672.75,26.375 Q672.75,26.7188 672.4063,27.125 Q671.9063,27.7188 671.1094,28.0469 Q670.0625,28.5 668.7813,28.5 Q667.2813,28.5 666.0781,27.9063 Q665.1094,27.4375 664.4219,26.4219 Q663.75,25.4063 663.75,24.2031 L663.75,23.1094 Q663.75,21.8594 664.3438,20.7656 Q664.9531,19.6719 666,19.0938 Q667.0625,18.5 668.25,18.5 Q668.9688,18.5 669.5938,18.75 Q670.2188,19 670.75,19.5 Z " fill="#000000"/><text fill="#000000" font-family="sans-serif" font-size="14" lengthAdjust="spacing" textLength="256" x="689.25" y="27.8535">PublishAnnouncementRequestController</text><line style="stroke:#181818;stroke-width:0.5;" x1="281" x2="1321" y1="39" y2="39"/><line style="stroke:#181818;stroke-width:0.5;" x1="281" x2="1321" y1="47" y2="47"/><ellipse cx="291" cy="60.3203" fill="#84BE84" rx="3" ry="3" style="stroke:#038048;stroke-width:1.0;"/><text fill="#000000" font-family="sans-serif" font-size="14" lengthAdjust="spacing" textLength="1016" x="300" y="63.6738">createPublishAnnouncementRequestController(employeeRepository,announcementRequestRepository,publishedAnnouncementRepository,comissionRepository)</text><ellipse cx="291" cy="75.9609" fill="#84BE84" rx="3" ry="3" style="stroke:#038048;stroke-width:1.0;"/><text fill="#000000" font-family="sans-serif" font-size="14" lengthAdjust="spacing" textLength="99" x="300" y="79.3145">getEmployees()</text><ellipse cx="291" cy="91.6016" fill="#84BE84" rx="3" ry="3" style="stroke:#038048;stroke-width:1.0;"/><text fill="#000000" font-family="sans-serif" font-size="14" lengthAdjust="spacing" textLength="269" x="300" y="94.9551">getAnnouncementRequestByMostRecent()</text><ellipse cx="291" cy="107.2422" fill="#84BE84" rx="3" ry="3" style="stroke:#038048;stroke-width:1.0;"/><text fill="#000000" font-family="sans-serif" font-size="14" lengthAdjust="spacing" textLength="102" x="300" y="110.5957">getComissions()</text><ellipse cx="291" cy="122.8828" fill="#84BE84" rx="3" ry="3" style="stroke:#038048;stroke-width:1.0;"/><text fill="#000000" font-family="sans-serif" font-size="14" lengthAdjust="spacing" textLength="162" x="300" y="126.2363">getCurrentSessionEmail()</text><ellipse cx="291" cy="138.5234" fill="#84BE84" rx="3" ry="3" style="stroke:#038048;stroke-width:1.0;"/><text fill="#000000" font-family="sans-serif" font-size="14" lengthAdjust="spacing" textLength="535" x="300" y="141.877">createPublishedAnnouncementRequestController(announcementRequest,comission)</text><ellipse cx="291" cy="154.1641" fill="#84BE84" rx="3" ry="3" style="stroke:#038048;stroke-width:1.0;"/><text fill="#000000" font-family="sans-serif" font-size="14" lengthAdjust="spacing" textLength="356" x="300" y="157.5176">getComissionByDescription(String comissionDescription)</text><ellipse cx="291" cy="169.8047" fill="#84BE84" rx="3" ry="3" style="stroke:#038048;stroke-width:1.0;"/><text fill="#000000" font-family="sans-serif" font-size="14" lengthAdjust="spacing" textLength="502" x="300" y="173.1582">getAnnouncementRequestByDescription(int announcementRequestDescription)</text><ellipse cx="291" cy="185.4453" fill="#84BE84" rx="3" ry="3" style="stroke:#038048;stroke-width:1.0;"/><text fill="#000000" font-family="sans-serif" font-size="14" lengthAdjust="spacing" textLength="183" x="300" y="188.7988">getEmployeeeByEmail(email)</text><rect fill="#F24D5C" height="6" style="stroke:#C82930;stroke-width:1.0;" width="6" x="288" y="198.0859"/><text fill="#000000" font-family="sans-serif" font-size="14" lengthAdjust="spacing" textLength="188" x="300" y="204.4395">getAuthenticationRepository()</text><rect fill="#F24D5C" height="6" style="stroke:#C82930;stroke-width:1.0;" width="6" x="288" y="213.7266"/><text fill="#000000" font-family="sans-serif" font-size="14" lengthAdjust="spacing" textLength="255" x="300" y="220.0801">getPublishedAnnouncementRepository()</text><rect fill="#F24D5C" height="6" style="stroke:#C82930;stroke-width:1.0;" width="6" x="288" y="229.3672"/><text fill="#000000" font-family="sans-serif" font-size="14" lengthAdjust="spacing" textLength="308" x="300" y="235.7207">getPublishedAnnouncementRequestRepository()</text><rect fill="#F24D5C" height="6" style="stroke:#C82930;stroke-width:1.0;" width="6" x="288" y="245.0078"/><text fill="#000000" font-family="sans-serif" font-size="14" lengthAdjust="spacing" textLength="163" x="300" y="251.3613">getComissionRepository()</text><rect fill="#F24D5C" height="6" style="stroke:#C82930;stroke-width:1.0;" width="6" x="288" y="260.6484"/><text fill="#000000" font-family="sans-serif" font-size="14" lengthAdjust="spacing" textLength="160" x="300" y="267.002">getEmployeeRepository()</text></g><!--class Person--><g id="elem_Person"><rect codeLine="30" fill="#F1F1F1" height="251.3281" id="Person" rx="2.5" ry="2.5" style="stroke:#181818;stroke-width:0.5;" width="409" x="736.5" y="910"/><ellipse cx="914.25" cy="926" fill="#ADD1B2" rx="11" ry="11" style="stroke:#181818;stroke-width:1.0;"/><path d="M916.25,922.5 Q916.4531,922 916.6875,921.75 Q916.9219,921.5 917.1875,921.5 Q917.6563,921.5 917.9531,921.7813 Q918.25,922.0625 918.25,922.7188 L918.25,924.2813 Q918.25,924.9375 917.9688,925.2188 Q917.6875,925.5 917.25,925.5 Q916.8594,925.5 916.6094,925.3281 Q916.3594,925.1563 916.25,924.7031 Q916.2031,924.3906 916.0313,924.2188 Q915.7188,923.8906 915.1563,923.7031 Q914.5938,923.5 914.0313,923.5 Q913.3281,923.5 912.7344,923.7813 Q912.1563,924.0625 911.7031,924.6875 Q911.25,925.3125 911.25,926.1719 L911.25,927.0938 Q911.25,928.125 912.0938,928.8125 Q912.9375,929.5 914.4375,929.5 Q915.3281,929.5 915.9531,929.2969 Q916.3125,929.1875 916.7188,928.8281 Q916.9844,928.625 917.125,928.5625 Q917.2656,928.5 917.4375,928.5 Q917.7656,928.5 918,928.7656 Q918.25,929.0156 918.25,929.375 Q918.25,929.7188 917.9063,930.125 Q917.4063,930.7188 916.6094,931.0469 Q915.5625,931.5 914.2813,931.5 Q912.7813,931.5 911.5781,930.9063 Q910.6094,930.4375 909.9219,929.4219 Q909.25,928.4063 909.25,927.2031 L909.25,926.1094 Q909.25,924.8594 909.8438,923.7656 Q910.4531,922.6719 911.5,922.0938 Q912.5625,921.5 913.75,921.5 Q914.4688,921.5 915.0938,921.75 Q915.7188,922 916.25,922.5 Z " fill="#000000"/><text fill="#000000" font-family="sans-serif" font-size="14" lengthAdjust="spacing" textLength="45" x="934.75" y="930.8535">Person</text><line style="stroke:#181818;stroke-width:0.5;" x1="737.5" x2="1144.5" y1="942" y2="942"/><rect fill="none" height="6" style="stroke:#C82930;stroke-width:1.0;" width="6" x="744.5" y="952.3203"/><text fill="#000000" font-family="sans-serif" font-size="14" lengthAdjust="spacing" textLength="74" x="756.5" y="958.6738">String email</text><rect fill="none" height="6" style="stroke:#C82930;stroke-width:1.0;" width="6" x="744.5" y="967.9609"/><text fill="#000000" font-family="sans-serif" font-size="14" lengthAdjust="spacing" textLength="123" x="756.5" y="974.3145">int passportNumber</text><rect fill="none" height="6" style="stroke:#C82930;stroke-width:1.0;" width="6" x="744.5" y="983.6016"/><text fill="#000000" font-family="sans-serif" font-size="14" lengthAdjust="spacing" textLength="86" x="756.5" y="989.9551">int taxNumber</text><rect fill="none" height="6" style="stroke:#C82930;stroke-width:1.0;" width="6" x="744.5" y="999.2422"/><text fill="#000000" font-family="sans-serif" font-size="14" lengthAdjust="spacing" textLength="76" x="756.5" y="1005.5957">String name</text><rect fill="none" height="6" style="stroke:#C82930;stroke-width:1.0;" width="6" x="744.5" y="1014.8828"/><text fill="#000000" font-family="sans-serif" font-size="14" lengthAdjust="spacing" textLength="91" x="756.5" y="1021.2363">Adress adress</text><rect fill="none" height="6" style="stroke:#C82930;stroke-width:1.0;" width="6" x="744.5" y="1030.5234"/><text fill="#000000" font-family="sans-serif" font-size="14" lengthAdjust="spacing" textLength="108" x="756.5" y="1036.877">int phoneNumber</text><line style="stroke:#181818;stroke-width:0.5;" x1="737.5" x2="1144.5" y1="1043.8438" y2="1043.8438"/><ellipse cx="747.5" cy="1057.1641" fill="#84BE84" rx="3" ry="3" style="stroke:#038048;stroke-width:1.0;"/><text fill="#000000" font-family="sans-serif" font-size="14" lengthAdjust="spacing" textLength="383" x="756.5" y="1060.5176">User(email,passportNumber,taxNumber,name,phoneNumber)</text><ellipse cx="747.5" cy="1072.8047" fill="#84BE84" rx="3" ry="3" style="stroke:#038048;stroke-width:1.0;"/><text fill="#000000" font-family="sans-serif" font-size="14" lengthAdjust="spacing" textLength="135" x="756.5" y="1076.1582">getPassportNumber()</text><ellipse cx="747.5" cy="1088.4453" fill="#84BE84" rx="3" ry="3" style="stroke:#038048;stroke-width:1.0;"/><text fill="#000000" font-family="sans-serif" font-size="14" lengthAdjust="spacing" textLength="102" x="756.5" y="1091.7988">getTaxNumber()</text><ellipse cx="747.5" cy="1104.0859" fill="#84BE84" rx="3" ry="3" style="stroke:#038048;stroke-width:1.0;"/><text fill="#000000" font-family="sans-serif" font-size="14" lengthAdjust="spacing" textLength="64" x="756.5" y="1107.4395">getEmail()</text><ellipse cx="747.5" cy="1119.7266" fill="#84BE84" rx="3" ry="3" style="stroke:#038048;stroke-width:1.0;"/><text fill="#000000" font-family="sans-serif" font-size="14" lengthAdjust="spacing" textLength="74" x="756.5" y="1123.0801">getAdress()</text><ellipse cx="747.5" cy="1135.3672" fill="#84BE84" rx="3" ry="3" style="stroke:#038048;stroke-width:1.0;"/><text fill="#000000" font-family="sans-serif" font-size="14" lengthAdjust="spacing" textLength="66" x="756.5" y="1138.7207">getName()</text><ellipse cx="747.5" cy="1151.0078" fill="#84BE84" rx="3" ry="3" style="stroke:#038048;stroke-width:1.0;"/><text fill="#000000" font-family="sans-serif" font-size="14" lengthAdjust="spacing" textLength="120" x="756.5" y="1154.3613">getPhoneNumber()</text></g><!--class Repositories--><g id="elem_Repositories"><rect codeLine="201" fill="#F1F1F1" height="157.4844" id="Repositories" rx="2.5" ry="2.5" style="stroke:#181818;stroke-width:0.5;" width="281" x="1425.5" y="62"/><ellipse cx="1522.25" cy="78" fill="#ADD1B2" rx="11" ry="11" style="stroke:#181818;stroke-width:1.0;"/><path d="M1524.25,74.5 Q1524.4531,74 1524.6875,73.75 Q1524.9219,73.5 1525.1875,73.5 Q1525.6563,73.5 1525.9531,73.7813 Q1526.25,74.0625 1526.25,74.7188 L1526.25,76.2813 Q1526.25,76.9375 1525.9688,77.2188 Q1525.6875,77.5 1525.25,77.5 Q1524.8594,77.5 1524.6094,77.3281 Q1524.3594,77.1563 1524.25,76.7031 Q1524.2031,76.3906 1524.0313,76.2188 Q1523.7188,75.8906 1523.1563,75.7031 Q1522.5938,75.5 1522.0313,75.5 Q1521.3281,75.5 1520.7344,75.7813 Q1520.1563,76.0625 1519.7031,76.6875 Q1519.25,77.3125 1519.25,78.1719 L1519.25,79.0938 Q1519.25,80.125 1520.0938,80.8125 Q1520.9375,81.5 1522.4375,81.5 Q1523.3281,81.5 1523.9531,81.2969 Q1524.3125,81.1875 1524.7188,80.8281 Q1524.9844,80.625 1525.125,80.5625 Q1525.2656,80.5 1525.4375,80.5 Q1525.7656,80.5 1526,80.7656 Q1526.25,81.0156 1526.25,81.375 Q1526.25,81.7188 1525.9063,82.125 Q1525.4063,82.7188 1524.6094,83.0469 Q1523.5625,83.5 1522.2813,83.5 Q1520.7813,83.5 1519.5781,82.9063 Q1518.6094,82.4375 1517.9219,81.4219 Q1517.25,80.4063 1517.25,79.2031 L1517.25,78.1094 Q1517.25,76.8594 1517.8438,75.7656 Q1518.4531,74.6719 1519.5,74.0938 Q1520.5625,73.5 1521.75,73.5 Q1522.4688,73.5 1523.0938,73.75 Q1523.7188,74 1524.25,74.5 Z " fill="#000000"/><text fill="#000000" font-family="sans-serif" font-size="14" lengthAdjust="spacing" textLength="79" x="1542.75" y="82.8535">Repositories</text><line style="stroke:#181818;stroke-width:0.5;" x1="1426.5" x2="1705.5" y1="94" y2="94"/><line style="stroke:#181818;stroke-width:0.5;" x1="1426.5" x2="1705.5" y1="102" y2="102"/><rect fill="#F24D5C" height="6" style="stroke:#C82930;stroke-width:1.0;" width="6" x="1433.5" y="112.3203"/><text fill="#000000" font-family="sans-serif" font-size="14" lengthAdjust="spacing" textLength="89" x="1445.5" y="118.6738">Repositories()</text><ellipse cx="1436.5" cy="130.9609" fill="#84BE84" rx="3" ry="3" style="stroke:#038048;stroke-width:1.0;"/><text fill="#000000" font-family="sans-serif" font-size="14" lengthAdjust="spacing" textLength="166" x="1445.5" y="134.3145">getInstance():Repositories</text><ellipse cx="1436.5" cy="146.6016" fill="#84BE84" rx="3" ry="3" style="stroke:#038048;stroke-width:1.0;"/><text fill="#000000" font-family="sans-serif" font-size="14" lengthAdjust="spacing" textLength="160" x="1445.5" y="149.9551">getEmployeeRepository()</text><ellipse cx="1436.5" cy="162.2422" fill="#84BE84" rx="3" ry="3" style="stroke:#038048;stroke-width:1.0;"/><text fill="#000000" font-family="sans-serif" font-size="14" lengthAdjust="spacing" textLength="163" x="1445.5" y="165.5957">getComissionRepository()</text><ellipse cx="1436.5" cy="177.8828" fill="#84BE84" rx="3" ry="3" style="stroke:#038048;stroke-width:1.0;"/><text fill="#000000" font-family="sans-serif" font-size="14" lengthAdjust="spacing" textLength="255" x="1445.5" y="181.2363">getPublishedAnnouncementRepository()</text><ellipse cx="1436.5" cy="193.5234" fill="#84BE84" rx="3" ry="3" style="stroke:#038048;stroke-width:1.0;"/><text fill="#000000" font-family="sans-serif" font-size="14" lengthAdjust="spacing" textLength="188" x="1445.5" y="196.877">getAuthenticationRepository()</text><ellipse cx="1436.5" cy="209.1641" fill="#84BE84" rx="3" ry="3" style="stroke:#038048;stroke-width:1.0;"/><text fill="#000000" font-family="sans-serif" font-size="14" lengthAdjust="spacing" textLength="246" x="1445.5" y="212.5176">getAnnouncementRequestRepository()</text></g><!--class Employee--><g id="elem_Employee"><rect codeLine="136" fill="#F1F1F1" height="126.2031" id="Employee" rx="2.5" ry="2.5" style="stroke:#181818;stroke-width:0.5;" width="553" x="903.5" y="1362"/><ellipse cx="1144.75" cy="1378" fill="#ADD1B2" rx="11" ry="11" style="stroke:#181818;stroke-width:1.0;"/><path d="M1146.75,1374.5 Q1146.9531,1374 1147.1875,1373.75 Q1147.4219,1373.5 1147.6875,1373.5 Q1148.1563,1373.5 1148.4531,1373.7813 Q1148.75,1374.0625 1148.75,1374.7188 L1148.75,1376.2813 Q1148.75,1376.9375 1148.4688,1377.2188 Q1148.1875,1377.5 1147.75,1377.5 Q1147.3594,1377.5 1147.1094,1377.3281 Q1146.8594,1377.1563 1146.75,1376.7031 Q1146.7031,1376.3906 1146.5313,1376.2188 Q1146.2188,1375.8906 1145.6563,1375.7031 Q1145.0938,1375.5 1144.5313,1375.5 Q1143.8281,1375.5 1143.2344,1375.7813 Q1142.6563,1376.0625 1142.2031,1376.6875 Q1141.75,1377.3125 1141.75,1378.1719 L1141.75,1379.0938 Q1141.75,1380.125 1142.5938,1380.8125 Q1143.4375,1381.5 1144.9375,1381.5 Q1145.8281,1381.5 1146.4531,1381.2969 Q1146.8125,1381.1875 1147.2188,1380.8281 Q1147.4844,1380.625 1147.625,1380.5625 Q1147.7656,1380.5 1147.9375,1380.5 Q1148.2656,1380.5 1148.5,1380.7656 Q1148.75,1381.0156 1148.75,1381.375 Q1148.75,1381.7188 1148.4063,1382.125 Q1147.9063,1382.7188 1147.1094,1383.0469 Q1146.0625,1383.5 1144.7813,1383.5 Q1143.2813,1383.5 1142.0781,1382.9063 Q1141.1094,1382.4375 1140.4219,1381.4219 Q1139.75,1380.4063 1139.75,1379.2031 L1139.75,1378.1094 Q1139.75,1376.8594 1140.3438,1375.7656 Q1140.9531,1374.6719 1142,1374.0938 Q1143.0625,1373.5 1144.25,1373.5 Q1144.9688,1373.5 1145.5938,1373.75 Q1146.2188,1374 1146.75,1374.5 Z " fill="#000000"/><text fill="#000000" font-family="sans-serif" font-size="14" lengthAdjust="spacing" textLength="62" x="1165.25" y="1382.8535">Employee</text><line style="stroke:#181818;stroke-width:0.5;" x1="904.5" x2="1455.5" y1="1394" y2="1394"/><rect fill="none" height="6" style="stroke:#C82930;stroke-width:1.0;" width="6" x="911.5" y="1404.3203"/><text fill="#000000" font-family="sans-serif" font-size="14" lengthAdjust="spacing" textLength="70" x="923.5" y="1410.6738">Store store</text><rect fill="none" height="6" style="stroke:#C82930;stroke-width:1.0;" width="6" x="911.5" y="1419.9609"/><text fill="#000000" font-family="sans-serif" font-size="14" lengthAdjust="spacing" textLength="57" x="923.5" y="1426.3145">Role role</text><line style="stroke:#181818;stroke-width:0.5;" x1="904.5" x2="1455.5" y1="1433.2813" y2="1433.2813"/><ellipse cx="914.5" cy="1446.6016" fill="#84BE84" rx="3" ry="3" style="stroke:#038048;stroke-width:1.0;"/><text fill="#000000" font-family="sans-serif" font-size="14" lengthAdjust="spacing" textLength="527" x="923.5" y="1449.9551">Employee(email,name,store,phoneNumber,role,adress,taxNumber,passportNumber)</text><ellipse cx="914.5" cy="1462.2422" fill="#84BE84" rx="3" ry="3" style="stroke:#038048;stroke-width:1.0;"/><text fill="#000000" font-family="sans-serif" font-size="14" lengthAdjust="spacing" textLength="64" x="923.5" y="1465.5957">getStore()</text><ellipse cx="914.5" cy="1477.8828" fill="#84BE84" rx="3" ry="3" style="stroke:#038048;stroke-width:1.0;"/><text fill="#000000" font-family="sans-serif" font-size="14" lengthAdjust="spacing" textLength="59" x="923.5" y="1481.2363">getRole()</text></g><!--class Role--><g id="elem_Role"><rect codeLine="128" fill="#F1F1F1" height="79.2813" id="Role" rx="2.5" ry="2.5" style="stroke:#181818;stroke-width:0.5;" width="91" x="754.5" y="1385.5"/><ellipse cx="783" cy="1401.5" fill="#ADD1B2" rx="11" ry="11" style="stroke:#181818;stroke-width:1.0;"/><path d="M785,1398 Q785.2031,1397.5 785.4375,1397.25 Q785.6719,1397 785.9375,1397 Q786.4063,1397 786.7031,1397.2813 Q787,1397.5625 787,1398.2188 L787,1399.7813 Q787,1400.4375 786.7188,1400.7188 Q786.4375,1401 786,1401 Q785.6094,1401 785.3594,1400.8281 Q785.1094,1400.6563 785,1400.2031 Q784.9531,1399.8906 784.7813,1399.7188 Q784.4688,1399.3906 783.9063,1399.2031 Q783.3438,1399 782.7813,1399 Q782.0781,1399 781.4844,1399.2813 Q780.9063,1399.5625 780.4531,1400.1875 Q780,1400.8125 780,1401.6719 L780,1402.5938 Q780,1403.625 780.8438,1404.3125 Q781.6875,1405 783.1875,1405 Q784.0781,1405 784.7031,1404.7969 Q785.0625,1404.6875 785.4688,1404.3281 Q785.7344,1404.125 785.875,1404.0625 Q786.0156,1404 786.1875,1404 Q786.5156,1404 786.75,1404.2656 Q787,1404.5156 787,1404.875 Q787,1405.2188 786.6563,1405.625 Q786.1563,1406.2188 785.3594,1406.5469 Q784.3125,1407 783.0313,1407 Q781.5313,1407 780.3281,1406.4063 Q779.3594,1405.9375 778.6719,1404.9219 Q778,1403.9063 778,1402.7031 L778,1401.6094 Q778,1400.3594 778.5938,1399.2656 Q779.2031,1398.1719 780.25,1397.5938 Q781.3125,1397 782.5,1397 Q783.2188,1397 783.8438,1397.25 Q784.4688,1397.5 785,1398 Z " fill="#000000"/><text fill="#000000" font-family="sans-serif" font-size="14" lengthAdjust="spacing" textLength="29" x="800" y="1406.3535">Role</text><line style="stroke:#181818;stroke-width:0.5;" x1="755.5" x2="844.5" y1="1417.5" y2="1417.5"/><rect fill="none" height="6" style="stroke:#C82930;stroke-width:1.0;" width="6" x="762.5" y="1427.8203"/><text fill="#000000" font-family="sans-serif" font-size="14" lengthAdjust="spacing" textLength="65" x="774.5" y="1434.1738">String role</text><line style="stroke:#181818;stroke-width:0.5;" x1="755.5" x2="844.5" y1="1441.1406" y2="1441.1406"/><ellipse cx="765.5" cy="1454.4609" fill="#84BE84" rx="3" ry="3" style="stroke:#038048;stroke-width:1.0;"/><text fill="#000000" font-family="sans-serif" font-size="14" lengthAdjust="spacing" textLength="63" x="774.5" y="1457.8145">Role(role)</text></g><!--class AuthenticationRepository--><g id="elem_AuthenticationRepository"><rect codeLine="54" fill="#F1F1F1" height="173.125" id="AuthenticationRepository" rx="2.5" ry="2.5" style="stroke:#181818;stroke-width:0.5;" width="266" x="668" y="489"/><ellipse cx="717.75" cy="505" fill="#ADD1B2" rx="11" ry="11" style="stroke:#181818;stroke-width:1.0;"/><path d="M719.75,501.5 Q719.9531,501 720.1875,500.75 Q720.4219,500.5 720.6875,500.5 Q721.1563,500.5 721.4531,500.7813 Q721.75,501.0625 721.75,501.7188 L721.75,503.2813 Q721.75,503.9375 721.4688,504.2188 Q721.1875,504.5 720.75,504.5 Q720.3594,504.5 720.1094,504.3281 Q719.8594,504.1563 719.75,503.7031 Q719.7031,503.3906 719.5313,503.2188 Q719.2188,502.8906 718.6563,502.7031 Q718.0938,502.5 717.5313,502.5 Q716.8281,502.5 716.2344,502.7813 Q715.6563,503.0625 715.2031,503.6875 Q714.75,504.3125 714.75,505.1719 L714.75,506.0938 Q714.75,507.125 715.5938,507.8125 Q716.4375,508.5 717.9375,508.5 Q718.8281,508.5 719.4531,508.2969 Q719.8125,508.1875 720.2188,507.8281 Q720.4844,507.625 720.625,507.5625 Q720.7656,507.5 720.9375,507.5 Q721.2656,507.5 721.5,507.7656 Q721.75,508.0156 721.75,508.375 Q721.75,508.7188 721.4063,509.125 Q720.9063,509.7188 720.1094,510.0469 Q719.0625,510.5 717.7813,510.5 Q716.2813,510.5 715.0781,509.9063 Q714.1094,509.4375 713.4219,508.4219 Q712.75,507.4063 712.75,506.2031 L712.75,505.1094 Q712.75,503.8594 713.3438,502.7656 Q713.9531,501.6719 715,501.0938 Q716.0625,500.5 717.25,500.5 Q717.9688,500.5 718.5938,500.75 Q719.2188,501 719.75,501.5 Z " fill="#000000"/><text fill="#000000" font-family="sans-serif" font-size="14" lengthAdjust="spacing" textLength="158" x="738.25" y="509.8535">AuthenticationRepository</text><line style="stroke:#181818;stroke-width:0.5;" x1="669" x2="933" y1="521" y2="521"/><line style="stroke:#181818;stroke-width:0.5;" x1="669" x2="933" y1="529" y2="529"/><ellipse cx="679" cy="542.3203" fill="#84BE84" rx="3" ry="3" style="stroke:#038048;stroke-width:1.0;"/><text fill="#000000" font-family="sans-serif" font-size="14" lengthAdjust="spacing" textLength="123" x="688" y="545.6738">doLogin(email,pwd)</text><ellipse cx="679" cy="557.9609" fill="#84BE84" rx="3" ry="3" style="stroke:#038048;stroke-width:1.0;"/><text fill="#000000" font-family="sans-serif" font-size="14" lengthAdjust="spacing" textLength="70" x="688" y="561.3145">doLogout()</text><ellipse cx="679" cy="573.6016" fill="#84BE84" rx="3" ry="3" style="stroke:#038048;stroke-width:1.0;"/><text fill="#000000" font-family="sans-serif" font-size="14" lengthAdjust="spacing" textLength="128" x="688" y="576.9551">getCurrentSession()</text><ellipse cx="679" cy="589.2422" fill="#84BE84" rx="3" ry="3" style="stroke:#038048;stroke-width:1.0;"/><text fill="#000000" font-family="sans-serif" font-size="14" lengthAdjust="spacing" textLength="92" x="688" y="592.5957">addUserRole()</text><ellipse cx="679" cy="604.8828" fill="#84BE84" rx="3" ry="3" style="stroke:#038048;stroke-width:1.0;"/><text fill="#000000" font-family="sans-serif" font-size="14" lengthAdjust="spacing" textLength="120" x="688" y="608.2363">addUserWithRole()</text><ellipse cx="679" cy="620.5234" fill="#84BE84" rx="3" ry="3" style="stroke:#038048;stroke-width:1.0;"/><text fill="#000000" font-family="sans-serif" font-size="14" lengthAdjust="spacing" textLength="135" x="688" y="623.877">passwordGenerator()</text><rect fill="#F24D5C" height="6" style="stroke:#C82930;stroke-width:1.0;" width="6" x="676" y="633.1641"/><text fill="#000000" font-family="sans-serif" font-size="14" lengthAdjust="spacing" textLength="172" x="688" y="639.5176">shuffleString(input,random)</text><rect fill="#F24D5C" height="6" style="stroke:#C82930;stroke-width:1.0;" width="6" x="676" y="648.8047"/><text fill="#000000" font-family="sans-serif" font-size="14" lengthAdjust="spacing" textLength="240" x="688" y="655.1582">randomCharacter(characters,random)</text></g><!--class User--><g id="elem_User"><rect codeLine="211" fill="#F1F1F1" height="79.2813" id="User" rx="2.5" ry="2.5" style="stroke:#181818;stroke-width:0.5;" width="192" x="900" y="1222"/><ellipse cx="977.25" cy="1238" fill="#ADD1B2" rx="11" ry="11" style="stroke:#181818;stroke-width:1.0;"/><path d="M979.25,1234.5 Q979.4531,1234 979.6875,1233.75 Q979.9219,1233.5 980.1875,1233.5 Q980.6563,1233.5 980.9531,1233.7813 Q981.25,1234.0625 981.25,1234.7188 L981.25,1236.2813 Q981.25,1236.9375 980.9688,1237.2188 Q980.6875,1237.5 980.25,1237.5 Q979.8594,1237.5 979.6094,1237.3281 Q979.3594,1237.1563 979.25,1236.7031 Q979.2031,1236.3906 979.0313,1236.2188 Q978.7188,1235.8906 978.1563,1235.7031 Q977.5938,1235.5 977.0313,1235.5 Q976.3281,1235.5 975.7344,1235.7813 Q975.1563,1236.0625 974.7031,1236.6875 Q974.25,1237.3125 974.25,1238.1719 L974.25,1239.0938 Q974.25,1240.125 975.0938,1240.8125 Q975.9375,1241.5 977.4375,1241.5 Q978.3281,1241.5 978.9531,1241.2969 Q979.3125,1241.1875 979.7188,1240.8281 Q979.9844,1240.625 980.125,1240.5625 Q980.2656,1240.5 980.4375,1240.5 Q980.7656,1240.5 981,1240.7656 Q981.25,1241.0156 981.25,1241.375 Q981.25,1241.7188 980.9063,1242.125 Q980.4063,1242.7188 979.6094,1243.0469 Q978.5625,1243.5 977.2813,1243.5 Q975.7813,1243.5 974.5781,1242.9063 Q973.6094,1242.4375 972.9219,1241.4219 Q972.25,1240.4063 972.25,1239.2031 L972.25,1238.1094 Q972.25,1236.8594 972.8438,1235.7656 Q973.4531,1234.6719 974.5,1234.0938 Q975.5625,1233.5 976.75,1233.5 Q977.4688,1233.5 978.0938,1233.75 Q978.7188,1234 979.25,1234.5 Z " fill="#000000"/><text fill="#000000" font-family="sans-serif" font-size="14" lengthAdjust="spacing" textLength="29" x="997.75" y="1242.8535">User</text><line style="stroke:#181818;stroke-width:0.5;" x1="901" x2="1091" y1="1254" y2="1254"/><rect fill="none" height="6" style="stroke:#C82930;stroke-width:1.0;" width="6" x="908" y="1264.3203"/><text fill="#000000" font-family="sans-serif" font-size="14" lengthAdjust="spacing" textLength="166" x="920" y="1270.6738">String passwordGenerator</text><line style="stroke:#181818;stroke-width:0.5;" x1="901" x2="1091" y1="1277.6406" y2="1277.6406"/><ellipse cx="911" cy="1290.9609" fill="#84BE84" rx="3" ry="3" style="stroke:#038048;stroke-width:1.0;"/><text fill="#000000" font-family="sans-serif" font-size="14" lengthAdjust="spacing" textLength="91" x="920" y="1294.3145">getPassword()</text></g><!--class EmployeeRepository--><g id="elem_EmployeeRepository"><rect codeLine="48" fill="#F1F1F1" height="94.9219" id="EmployeeRepository" rx="2.5" ry="2.5" style="stroke:#181818;stroke-width:0.5;" width="209" x="1071.5" y="738.5"/><ellipse cx="1107.65" cy="754.5" fill="#ADD1B2" rx="11" ry="11" style="stroke:#181818;stroke-width:1.0;"/><path d="M1109.65,751 Q1109.8531,750.5 1110.0875,750.25 Q1110.3219,750 1110.5875,750 Q1111.0563,750 1111.3531,750.2813 Q1111.65,750.5625 1111.65,751.2188 L1111.65,752.7813 Q1111.65,753.4375 1111.3688,753.7188 Q1111.0875,754 1110.65,754 Q1110.2594,754 1110.0094,753.8281 Q1109.7594,753.6563 1109.65,753.2031 Q1109.6031,752.8906 1109.4313,752.7188 Q1109.1188,752.3906 1108.5563,752.2031 Q1107.9938,752 1107.4313,752 Q1106.7281,752 1106.1344,752.2813 Q1105.5563,752.5625 1105.1031,753.1875 Q1104.65,753.8125 1104.65,754.6719 L1104.65,755.5938 Q1104.65,756.625 1105.4938,757.3125 Q1106.3375,758 1107.8375,758 Q1108.7281,758 1109.3531,757.7969 Q1109.7125,757.6875 1110.1188,757.3281 Q1110.3844,757.125 1110.525,757.0625 Q1110.6656,757 1110.8375,757 Q1111.1656,757 1111.4,757.2656 Q1111.65,757.5156 1111.65,757.875 Q1111.65,758.2188 1111.3063,758.625 Q1110.8063,759.2188 1110.0094,759.5469 Q1108.9625,760 1107.6813,760 Q1106.1813,760 1104.9781,759.4063 Q1104.0094,758.9375 1103.3219,757.9219 Q1102.65,756.9063 1102.65,755.7031 L1102.65,754.6094 Q1102.65,753.3594 1103.2438,752.2656 Q1103.8531,751.1719 1104.9,750.5938 Q1105.9625,750 1107.15,750 Q1107.8688,750 1108.4938,750.25 Q1109.1188,750.5 1109.65,751 Z " fill="#000000"/><text fill="#000000" font-family="sans-serif" font-size="14" lengthAdjust="spacing" textLength="130" x="1126.35" y="759.3535">EmployeeRepository</text><line style="stroke:#181818;stroke-width:0.5;" x1="1072.5" x2="1279.5" y1="770.5" y2="770.5"/><line style="stroke:#181818;stroke-width:0.5;" x1="1072.5" x2="1279.5" y1="778.5" y2="778.5"/><ellipse cx="1082.5" cy="791.8203" fill="#84BE84" rx="3" ry="3" style="stroke:#038048;stroke-width:1.0;"/><text fill="#000000" font-family="sans-serif" font-size="14" lengthAdjust="spacing" textLength="95" x="1091.5" y="795.1738">add(employee)</text><ellipse cx="1082.5" cy="807.4609" fill="#84BE84" rx="3" ry="3" style="stroke:#038048;stroke-width:1.0;"/><text fill="#000000" font-family="sans-serif" font-size="14" lengthAdjust="spacing" textLength="99" x="1091.5" y="810.8145">getEmployees()</text><ellipse cx="1082.5" cy="823.1016" fill="#84BE84" rx="3" ry="3" style="stroke:#038048;stroke-width:1.0;"/><text fill="#000000" font-family="sans-serif" font-size="14" lengthAdjust="spacing" textLength="183" x="1091.5" y="826.4551">getEmployeeeByEmail(email)</text></g><!--class Agent--><g id="elem_Agent"><rect codeLine="133" fill="#F1F1F1" height="48" id="Agent" rx="2.5" ry="2.5" style="stroke:#181818;stroke-width:0.5;" width="69" x="1145.5" y="1557"/><ellipse cx="1160.5" cy="1573" fill="#ADD1B2" rx="11" ry="11" style="stroke:#181818;stroke-width:1.0;"/><path d="M1162.5,1569.5 Q1162.7031,1569 1162.9375,1568.75 Q1163.1719,1568.5 1163.4375,1568.5 Q1163.9063,1568.5 1164.2031,1568.7813 Q1164.5,1569.0625 1164.5,1569.7188 L1164.5,1571.2813 Q1164.5,1571.9375 1164.2188,1572.2188 Q1163.9375,1572.5 1163.5,1572.5 Q1163.1094,1572.5 1162.8594,1572.3281 Q1162.6094,1572.1563 1162.5,1571.7031 Q1162.4531,1571.3906 1162.2813,1571.2188 Q1161.9688,1570.8906 1161.4063,1570.7031 Q1160.8438,1570.5 1160.2813,1570.5 Q1159.5781,1570.5 1158.9844,1570.7813 Q1158.4063,1571.0625 1157.9531,1571.6875 Q1157.5,1572.3125 1157.5,1573.1719 L1157.5,1574.0938 Q1157.5,1575.125 1158.3438,1575.8125 Q1159.1875,1576.5 1160.6875,1576.5 Q1161.5781,1576.5 1162.2031,1576.2969 Q1162.5625,1576.1875 1162.9688,1575.8281 Q1163.2344,1575.625 1163.375,1575.5625 Q1163.5156,1575.5 1163.6875,1575.5 Q1164.0156,1575.5 1164.25,1575.7656 Q1164.5,1576.0156 1164.5,1576.375 Q1164.5,1576.7188 1164.1563,1577.125 Q1163.6563,1577.7188 1162.8594,1578.0469 Q1161.8125,1578.5 1160.5313,1578.5 Q1159.0313,1578.5 1157.8281,1577.9063 Q1156.8594,1577.4375 1156.1719,1576.4219 Q1155.5,1575.4063 1155.5,1574.2031 L1155.5,1573.1094 Q1155.5,1571.8594 1156.0938,1570.7656 Q1156.7031,1569.6719 1157.75,1569.0938 Q1158.8125,1568.5 1160,1568.5 Q1160.7188,1568.5 1161.3438,1568.75 Q1161.9688,1569 1162.5,1569.5 Z " fill="#000000"/><text fill="#000000" font-family="sans-serif" font-size="14" lengthAdjust="spacing" textLength="37" x="1174.5" y="1577.8535">Agent</text><line style="stroke:#181818;stroke-width:0.5;" x1="1146.5" x2="1213.5" y1="1589" y2="1589"/><line style="stroke:#181818;stroke-width:0.5;" x1="1146.5" x2="1213.5" y1="1597" y2="1597"/></g><!--class State--><g id="elem_State"><rect codeLine="81" fill="#F1F1F1" height="110.5625" id="State" rx="2.5" ry="2.5" style="stroke:#181818;stroke-width:0.5;" width="134" x="881" y="1712"/><ellipse cx="927.25" cy="1728" fill="#ADD1B2" rx="11" ry="11" style="stroke:#181818;stroke-width:1.0;"/><path d="M929.25,1724.5 Q929.4531,1724 929.6875,1723.75 Q929.9219,1723.5 930.1875,1723.5 Q930.6563,1723.5 930.9531,1723.7813 Q931.25,1724.0625 931.25,1724.7188 L931.25,1726.2813 Q931.25,1726.9375 930.9688,1727.2188 Q930.6875,1727.5 930.25,1727.5 Q929.8594,1727.5 929.6094,1727.3281 Q929.3594,1727.1563 929.25,1726.7031 Q929.2031,1726.3906 929.0313,1726.2188 Q928.7188,1725.8906 928.1563,1725.7031 Q927.5938,1725.5 927.0313,1725.5 Q926.3281,1725.5 925.7344,1725.7813 Q925.1563,1726.0625 924.7031,1726.6875 Q924.25,1727.3125 924.25,1728.1719 L924.25,1729.0938 Q924.25,1730.125 925.0938,1730.8125 Q925.9375,1731.5 927.4375,1731.5 Q928.3281,1731.5 928.9531,1731.2969 Q929.3125,1731.1875 929.7188,1730.8281 Q929.9844,1730.625 930.125,1730.5625 Q930.2656,1730.5 930.4375,1730.5 Q930.7656,1730.5 931,1730.7656 Q931.25,1731.0156 931.25,1731.375 Q931.25,1731.7188 930.9063,1732.125 Q930.4063,1732.7188 929.6094,1733.0469 Q928.5625,1733.5 927.2813,1733.5 Q925.7813,1733.5 924.5781,1732.9063 Q923.6094,1732.4375 922.9219,1731.4219 Q922.25,1730.4063 922.25,1729.2031 L922.25,1728.1094 Q922.25,1726.8594 922.8438,1725.7656 Q923.4531,1724.6719 924.5,1724.0938 Q925.5625,1723.5 926.75,1723.5 Q927.4688,1723.5 928.0938,1723.75 Q928.7188,1724 929.25,1724.5 Z " fill="#000000"/><text fill="#000000" font-family="sans-serif" font-size="14" lengthAdjust="spacing" textLength="33" x="947.75" y="1732.8535">State</text><line style="stroke:#181818;stroke-width:0.5;" x1="882" x2="1014" y1="1744" y2="1744"/><rect fill="none" height="6" style="stroke:#C82930;stroke-width:1.0;" width="6" x="889" y="1754.3203"/><text fill="#000000" font-family="sans-serif" font-size="14" lengthAdjust="spacing" textLength="108" x="901" y="1760.6738">String stateName</text><line style="stroke:#181818;stroke-width:0.5;" x1="882" x2="1014" y1="1767.6406" y2="1767.6406"/><ellipse cx="892" cy="1780.9609" fill="#84BE84" rx="3" ry="3" style="stroke:#038048;stroke-width:1.0;"/><text fill="#000000" font-family="sans-serif" font-size="14" lengthAdjust="spacing" textLength="63" x="901" y="1784.3145">getState()</text><ellipse cx="892" cy="1796.6016" fill="#84BE84" rx="3" ry="3" style="stroke:#038048;stroke-width:1.0;"/><text fill="#000000" font-family="sans-serif" font-size="14" lengthAdjust="spacing" textLength="80" x="901" y="1799.9551">getDistricts()</text><ellipse cx="892" cy="1812.2422" fill="#84BE84" rx="3" ry="3" style="stroke:#038048;stroke-width:1.0;"/><text fill="#000000" font-family="sans-serif" font-size="14" lengthAdjust="spacing" textLength="59" x="901" y="1815.5957">toString()</text></g><!--class City--><g id="elem_City"><rect codeLine="104" fill="#F1F1F1" height="79.2813" id="City" rx="2.5" ry="2.5" style="stroke:#181818;stroke-width:0.5;" width="116" x="551" y="1728"/><ellipse cx="593" cy="1744" fill="#ADD1B2" rx="11" ry="11" style="stroke:#181818;stroke-width:1.0;"/><path d="M595,1740.5 Q595.2031,1740 595.4375,1739.75 Q595.6719,1739.5 595.9375,1739.5 Q596.4063,1739.5 596.7031,1739.7813 Q597,1740.0625 597,1740.7188 L597,1742.2813 Q597,1742.9375 596.7188,1743.2188 Q596.4375,1743.5 596,1743.5 Q595.6094,1743.5 595.3594,1743.3281 Q595.1094,1743.1563 595,1742.7031 Q594.9531,1742.3906 594.7813,1742.2188 Q594.4688,1741.8906 593.9063,1741.7031 Q593.3438,1741.5 592.7813,1741.5 Q592.0781,1741.5 591.4844,1741.7813 Q590.9063,1742.0625 590.4531,1742.6875 Q590,1743.3125 590,1744.1719 L590,1745.0938 Q590,1746.125 590.8438,1746.8125 Q591.6875,1747.5 593.1875,1747.5 Q594.0781,1747.5 594.7031,1747.2969 Q595.0625,1747.1875 595.4688,1746.8281 Q595.7344,1746.625 595.875,1746.5625 Q596.0156,1746.5 596.1875,1746.5 Q596.5156,1746.5 596.75,1746.7656 Q597,1747.0156 597,1747.375 Q597,1747.7188 596.6563,1748.125 Q596.1563,1748.7188 595.3594,1749.0469 Q594.3125,1749.5 593.0313,1749.5 Q591.5313,1749.5 590.3281,1748.9063 Q589.3594,1748.4375 588.6719,1747.4219 Q588,1746.4063 588,1745.2031 L588,1744.1094 Q588,1742.8594 588.5938,1741.7656 Q589.2031,1740.6719 590.25,1740.0938 Q591.3125,1739.5 592.5,1739.5 Q593.2188,1739.5 593.8438,1739.75 Q594.4688,1740 595,1740.5 Z " fill="#000000"/><text fill="#000000" font-family="sans-serif" font-size="14" lengthAdjust="spacing" textLength="24" x="613" y="1748.8535">City</text><line style="stroke:#181818;stroke-width:0.5;" x1="552" x2="666" y1="1760" y2="1760"/><rect fill="none" height="6" style="stroke:#C82930;stroke-width:1.0;" width="6" x="559" y="1770.3203"/><text fill="#000000" font-family="sans-serif" font-size="14" lengthAdjust="spacing" textLength="62" x="571" y="1776.6738">String city</text><line style="stroke:#181818;stroke-width:0.5;" x1="552" x2="666" y1="1783.6406" y2="1783.6406"/><ellipse cx="562" cy="1796.9609" fill="#84BE84" rx="3" ry="3" style="stroke:#038048;stroke-width:1.0;"/><text fill="#000000" font-family="sans-serif" font-size="14" lengthAdjust="spacing" textLength="90" x="571" y="1800.3145">getCityName()</text></g><!--class District--><g id="elem_District"><rect codeLine="95" fill="#F1F1F1" height="110.5625" id="District" rx="2.5" ry="2.5" style="stroke:#181818;stroke-width:0.5;" width="144" x="702" y="1712"/><ellipse cx="748.25" cy="1728" fill="#ADD1B2" rx="11" ry="11" style="stroke:#181818;stroke-width:1.0;"/><path d="M750.25,1724.5 Q750.4531,1724 750.6875,1723.75 Q750.9219,1723.5 751.1875,1723.5 Q751.6563,1723.5 751.9531,1723.7813 Q752.25,1724.0625 752.25,1724.7188 L752.25,1726.2813 Q752.25,1726.9375 751.9688,1727.2188 Q751.6875,1727.5 751.25,1727.5 Q750.8594,1727.5 750.6094,1727.3281 Q750.3594,1727.1563 750.25,1726.7031 Q750.2031,1726.3906 750.0313,1726.2188 Q749.7188,1725.8906 749.1563,1725.7031 Q748.5938,1725.5 748.0313,1725.5 Q747.3281,1725.5 746.7344,1725.7813 Q746.1563,1726.0625 745.7031,1726.6875 Q745.25,1727.3125 745.25,1728.1719 L745.25,1729.0938 Q745.25,1730.125 746.0938,1730.8125 Q746.9375,1731.5 748.4375,1731.5 Q749.3281,1731.5 749.9531,1731.2969 Q750.3125,1731.1875 750.7188,1730.8281 Q750.9844,1730.625 751.125,1730.5625 Q751.2656,1730.5 751.4375,1730.5 Q751.7656,1730.5 752,1730.7656 Q752.25,1731.0156 752.25,1731.375 Q752.25,1731.7188 751.9063,1732.125 Q751.4063,1732.7188 750.6094,1733.0469 Q749.5625,1733.5 748.2813,1733.5 Q746.7813,1733.5 745.5781,1732.9063 Q744.6094,1732.4375 743.9219,1731.4219 Q743.25,1730.4063 743.25,1729.2031 L743.25,1728.1094 Q743.25,1726.8594 743.8438,1725.7656 Q744.4531,1724.6719 745.5,1724.0938 Q746.5625,1723.5 747.75,1723.5 Q748.4688,1723.5 749.0938,1723.75 Q749.7188,1724 750.25,1724.5 Z " fill="#000000"/><text fill="#000000" font-family="sans-serif" font-size="14" lengthAdjust="spacing" textLength="43" x="768.75" y="1732.8535">District</text><line style="stroke:#181818;stroke-width:0.5;" x1="703" x2="845" y1="1744" y2="1744"/><rect fill="none" height="6" style="stroke:#C82930;stroke-width:1.0;" width="6" x="710" y="1754.3203"/><text fill="#000000" font-family="sans-serif" font-size="14" lengthAdjust="spacing" textLength="118" x="722" y="1760.6738">String districtName</text><line style="stroke:#181818;stroke-width:0.5;" x1="703" x2="845" y1="1767.6406" y2="1767.6406"/><ellipse cx="713" cy="1780.9609" fill="#84BE84" rx="3" ry="3" style="stroke:#038048;stroke-width:1.0;"/><text fill="#000000" font-family="sans-serif" font-size="14" lengthAdjust="spacing" textLength="109" x="722" y="1784.3145">getDistrictName()</text><ellipse cx="713" cy="1796.6016" fill="#84BE84" rx="3" ry="3" style="stroke:#038048;stroke-width:1.0;"/><text fill="#000000" font-family="sans-serif" font-size="14" lengthAdjust="spacing" textLength="65" x="722" y="1799.9551">getCities()</text><ellipse cx="713" cy="1812.2422" fill="#84BE84" rx="3" ry="3" style="stroke:#038048;stroke-width:1.0;"/><text fill="#000000" font-family="sans-serif" font-size="14" lengthAdjust="spacing" textLength="59" x="722" y="1815.5957">toString()</text></g><!--class ComissionRepository--><g id="elem_ComissionRepository"><rect codeLine="65" fill="#F1F1F1" height="94.9219" id="ComissionRepository" rx="2.5" ry="2.5" style="stroke:#181818;stroke-width:0.5;" width="341" x="512.5" y="738.5"/><ellipse cx="612.25" cy="754.5" fill="#ADD1B2" rx="11" ry="11" style="stroke:#181818;stroke-width:1.0;"/><path d="M614.25,751 Q614.4531,750.5 614.6875,750.25 Q614.9219,750 615.1875,750 Q615.6563,750 615.9531,750.2813 Q616.25,750.5625 616.25,751.2188 L616.25,752.7813 Q616.25,753.4375 615.9688,753.7188 Q615.6875,754 615.25,754 Q614.8594,754 614.6094,753.8281 Q614.3594,753.6563 614.25,753.2031 Q614.2031,752.8906 614.0313,752.7188 Q613.7188,752.3906 613.1563,752.2031 Q612.5938,752 612.0313,752 Q611.3281,752 610.7344,752.2813 Q610.1563,752.5625 609.7031,753.1875 Q609.25,753.8125 609.25,754.6719 L609.25,755.5938 Q609.25,756.625 610.0938,757.3125 Q610.9375,758 612.4375,758 Q613.3281,758 613.9531,757.7969 Q614.3125,757.6875 614.7188,757.3281 Q614.9844,757.125 615.125,757.0625 Q615.2656,757 615.4375,757 Q615.7656,757 616,757.2656 Q616.25,757.5156 616.25,757.875 Q616.25,758.2188 615.9063,758.625 Q615.4063,759.2188 614.6094,759.5469 Q613.5625,760 612.2813,760 Q610.7813,760 609.5781,759.4063 Q608.6094,758.9375 607.9219,757.9219 Q607.25,756.9063 607.25,755.7031 L607.25,754.6094 Q607.25,753.3594 607.8438,752.2656 Q608.4531,751.1719 609.5,750.5938 Q610.5625,750 611.75,750 Q612.4688,750 613.0938,750.25 Q613.7188,750.5 614.25,751 Z " fill="#000000"/><text fill="#000000" font-family="sans-serif" font-size="14" lengthAdjust="spacing" textLength="133" x="632.75" y="759.3535">ComissionRepository</text><line style="stroke:#181818;stroke-width:0.5;" x1="513.5" x2="852.5" y1="770.5" y2="770.5"/><line style="stroke:#181818;stroke-width:0.5;" x1="513.5" x2="852.5" y1="778.5" y2="778.5"/><ellipse cx="523.5" cy="791.8203" fill="#84BE84" rx="3" ry="3" style="stroke:#038048;stroke-width:1.0;"/><text fill="#000000" font-family="sans-serif" font-size="14" lengthAdjust="spacing" textLength="315" x="532.5" y="795.1738">getComissionByDescription(comissionDescription)</text><ellipse cx="523.5" cy="807.4609" fill="#84BE84" rx="3" ry="3" style="stroke:#038048;stroke-width:1.0;"/><text fill="#000000" font-family="sans-serif" font-size="14" lengthAdjust="spacing" textLength="95" x="532.5" y="810.8145">getComission()</text><ellipse cx="523.5" cy="823.1016" fill="#84BE84" rx="3" ry="3" style="stroke:#038048;stroke-width:1.0;"/><text fill="#000000" font-family="sans-serif" font-size="14" lengthAdjust="spacing" textLength="96" x="532.5" y="826.4551">add(comission)</text></g><!--class PublishedAnnouncementRepository--><g id="elem_PublishedAnnouncementRepository"><rect codeLine="72" fill="#F1F1F1" height="126.2031" id="PublishedAnnouncementRepository" rx="2.5" ry="2.5" style="stroke:#181818;stroke-width:0.5;" width="720" x="1586" y="723"/><ellipse cx="1829.25" cy="739" fill="#ADD1B2" rx="11" ry="11" style="stroke:#181818;stroke-width:1.0;"/><path d="M1831.25,735.5 Q1831.4531,735 1831.6875,734.75 Q1831.9219,734.5 1832.1875,734.5 Q1832.6563,734.5 1832.9531,734.7813 Q1833.25,735.0625 1833.25,735.7188 L1833.25,737.2813 Q1833.25,737.9375 1832.9688,738.2188 Q1832.6875,738.5 1832.25,738.5 Q1831.8594,738.5 1831.6094,738.3281 Q1831.3594,738.1563 1831.25,737.7031 Q1831.2031,737.3906 1831.0313,737.2188 Q1830.7188,736.8906 1830.1563,736.7031 Q1829.5938,736.5 1829.0313,736.5 Q1828.3281,736.5 1827.7344,736.7813 Q1827.1563,737.0625 1826.7031,737.6875 Q1826.25,738.3125 1826.25,739.1719 L1826.25,740.0938 Q1826.25,741.125 1827.0938,741.8125 Q1827.9375,742.5 1829.4375,742.5 Q1830.3281,742.5 1830.9531,742.2969 Q1831.3125,742.1875 1831.7188,741.8281 Q1831.9844,741.625 1832.125,741.5625 Q1832.2656,741.5 1832.4375,741.5 Q1832.7656,741.5 1833,741.7656 Q1833.25,742.0156 1833.25,742.375 Q1833.25,742.7188 1832.9063,743.125 Q1832.4063,743.7188 1831.6094,744.0469 Q1830.5625,744.5 1829.2813,744.5 Q1827.7813,744.5 1826.5781,743.9063 Q1825.6094,743.4375 1824.9219,742.4219 Q1824.25,741.4063 1824.25,740.2031 L1824.25,739.1094 Q1824.25,737.8594 1824.8438,736.7656 Q1825.4531,735.6719 1826.5,735.0938 Q1827.5625,734.5 1828.75,734.5 Q1829.4688,734.5 1830.0938,734.75 Q1830.7188,735 1831.25,735.5 Z " fill="#000000"/><text fill="#000000" font-family="sans-serif" font-size="14" lengthAdjust="spacing" textLength="225" x="1849.75" y="743.8535">PublishedAnnouncementRepository</text><line style="stroke:#181818;stroke-width:0.5;" x1="1587" x2="2305" y1="755" y2="755"/><line style="stroke:#181818;stroke-width:0.5;" x1="1587" x2="2305" y1="763" y2="763"/><ellipse cx="1597" cy="776.3203" fill="#84BE84" rx="3" ry="3" style="stroke:#038048;stroke-width:1.0;"/><text fill="#000000" font-family="sans-serif" font-size="14" lengthAdjust="spacing" textLength="190" x="1606" y="779.6738">add(publishedAnnouncement)</text><ellipse cx="1597" cy="791.9609" fill="#84BE84" rx="3" ry="3" style="stroke:#038048;stroke-width:1.0;"/><text fill="#000000" font-family="sans-serif" font-size="14" lengthAdjust="spacing" textLength="694" x="1606" y="795.3145">publishedAnnouncement(date,typeOfBusiness,property,propertyType,comission,business,durationOfContract)</text><ellipse cx="1597" cy="807.6016" fill="#84BE84" rx="3" ry="3" style="stroke:#038048;stroke-width:1.0;"/><text fill="#000000" font-family="sans-serif" font-size="14" lengthAdjust="spacing" textLength="432" x="1606" y="810.9551">publishedAnnouncementRequest(comission,announcementRequest)</text><ellipse cx="1597" cy="823.2422" fill="#84BE84" rx="3" ry="3" style="stroke:#038048;stroke-width:1.0;"/><text fill="#000000" font-family="sans-serif" font-size="14" lengthAdjust="spacing" textLength="347" x="1606" y="826.5957">addPublishedAnnouncement(publishedAnnouncement)</text><ellipse cx="1597" cy="838.8828" fill="#84BE84" rx="3" ry="3" style="stroke:#038048;stroke-width:1.0;"/><text fill="#000000" font-family="sans-serif" font-size="14" lengthAdjust="spacing" textLength="190" x="1606" y="842.2363">getPublishedAnnouncemens()</text></g><!--class Comission--><g id="elem_Comission"><rect codeLine="90" fill="#F1F1F1" height="63.6406" id="Comission" rx="2.5" ry="2.5" style="stroke:#181818;stroke-width:0.5;" width="111" x="794.5" y="1549"/><ellipse cx="815.8" cy="1565" fill="#ADD1B2" rx="11" ry="11" style="stroke:#181818;stroke-width:1.0;"/><path d="M817.8,1561.5 Q818.0031,1561 818.2375,1560.75 Q818.4719,1560.5 818.7375,1560.5 Q819.2063,1560.5 819.5031,1560.7813 Q819.8,1561.0625 819.8,1561.7188 L819.8,1563.2813 Q819.8,1563.9375 819.5188,1564.2188 Q819.2375,1564.5 818.8,1564.5 Q818.4094,1564.5 818.1594,1564.3281 Q817.9094,1564.1563 817.8,1563.7031 Q817.7531,1563.3906 817.5813,1563.2188 Q817.2688,1562.8906 816.7063,1562.7031 Q816.1438,1562.5 815.5813,1562.5 Q814.8781,1562.5 814.2844,1562.7813 Q813.7063,1563.0625 813.2531,1563.6875 Q812.8,1564.3125 812.8,1565.1719 L812.8,1566.0938 Q812.8,1567.125 813.6438,1567.8125 Q814.4875,1568.5 815.9875,1568.5 Q816.8781,1568.5 817.5031,1568.2969 Q817.8625,1568.1875 818.2688,1567.8281 Q818.5344,1567.625 818.675,1567.5625 Q818.8156,1567.5 818.9875,1567.5 Q819.3156,1567.5 819.55,1567.7656 Q819.8,1568.0156 819.8,1568.375 Q819.8,1568.7188 819.4563,1569.125 Q818.9563,1569.7188 818.1594,1570.0469 Q817.1125,1570.5 815.8313,1570.5 Q814.3313,1570.5 813.1281,1569.9063 Q812.1594,1569.4375 811.4719,1568.4219 Q810.8,1567.4063 810.8,1566.2031 L810.8,1565.1094 Q810.8,1563.8594 811.3938,1562.7656 Q812.0031,1561.6719 813.05,1561.0938 Q814.1125,1560.5 815.3,1560.5 Q816.0188,1560.5 816.6438,1560.75 Q817.2688,1561 817.8,1561.5 Z " fill="#000000"/><text fill="#000000" font-family="sans-serif" font-size="14" lengthAdjust="spacing" textLength="65" x="831.2" y="1569.8535">Comission</text><line style="stroke:#181818;stroke-width:0.5;" x1="795.5" x2="904.5" y1="1581" y2="1581"/><rect fill="none" height="6" style="stroke:#C82930;stroke-width:1.0;" width="6" x="802.5" y="1591.3203"/><text fill="#000000" font-family="sans-serif" font-size="14" lengthAdjust="spacing" textLength="85" x="814.5" y="1597.6738">Double Value</text><line style="stroke:#181818;stroke-width:0.5;" x1="795.5" x2="904.5" y1="1604.6406" y2="1604.6406"/></g><!--class Property--><g id="elem_Property"><rect codeLine="111" fill="#F1F1F1" height="94.9219" id="Property" rx="2.5" ry="2.5" style="stroke:#181818;stroke-width:0.5;" width="225" x="1420.5" y="1720"/><ellipse cx="1501.75" cy="1736" fill="#ADD1B2" rx="11" ry="11" style="stroke:#181818;stroke-width:1.0;"/><path d="M1503.75,1732.5 Q1503.9531,1732 1504.1875,1731.75 Q1504.4219,1731.5 1504.6875,1731.5 Q1505.1563,1731.5 1505.4531,1731.7813 Q1505.75,1732.0625 1505.75,1732.7188 L1505.75,1734.2813 Q1505.75,1734.9375 1505.4688,1735.2188 Q1505.1875,1735.5 1504.75,1735.5 Q1504.3594,1735.5 1504.1094,1735.3281 Q1503.8594,1735.1563 1503.75,1734.7031 Q1503.7031,1734.3906 1503.5313,1734.2188 Q1503.2188,1733.8906 1502.6563,1733.7031 Q1502.0938,1733.5 1501.5313,1733.5 Q1500.8281,1733.5 1500.2344,1733.7813 Q1499.6563,1734.0625 1499.2031,1734.6875 Q1498.75,1735.3125 1498.75,1736.1719 L1498.75,1737.0938 Q1498.75,1738.125 1499.5938,1738.8125 Q1500.4375,1739.5 1501.9375,1739.5 Q1502.8281,1739.5 1503.4531,1739.2969 Q1503.8125,1739.1875 1504.2188,1738.8281 Q1504.4844,1738.625 1504.625,1738.5625 Q1504.7656,1738.5 1504.9375,1738.5 Q1505.2656,1738.5 1505.5,1738.7656 Q1505.75,1739.0156 1505.75,1739.375 Q1505.75,1739.7188 1505.4063,1740.125 Q1504.9063,1740.7188 1504.1094,1741.0469 Q1503.0625,1741.5 1501.7813,1741.5 Q1500.2813,1741.5 1499.0781,1740.9063 Q1498.1094,1740.4375 1497.4219,1739.4219 Q1496.75,1738.4063 1496.75,1737.2031 L1496.75,1736.1094 Q1496.75,1734.8594 1497.3438,1733.7656 Q1497.9531,1732.6719 1499,1732.0938 Q1500.0625,1731.5 1501.25,1731.5 Q1501.9688,1731.5 1502.5938,1731.75 Q1503.2188,1732 1503.75,1732.5 Z " fill="#000000"/><text fill="#000000" font-family="sans-serif" font-size="14" lengthAdjust="spacing" textLength="54" x="1522.25" y="1740.8535">Property</text><line style="stroke:#181818;stroke-width:0.5;" x1="1421.5" x2="1644.5" y1="1752" y2="1752"/><rect fill="none" height="6" style="stroke:#C82930;stroke-width:1.0;" width="6" x="1428.5" y="1762.3203"/><text fill="#000000" font-family="sans-serif" font-size="14" lengthAdjust="spacing" textLength="49" x="1440.5" y="1768.6738">int Area</text><rect fill="none" height="6" style="stroke:#C82930;stroke-width:1.0;" width="6" x="1428.5" y="1777.9609"/><text fill="#000000" font-family="sans-serif" font-size="14" lengthAdjust="spacing" textLength="92" x="1440.5" y="1784.3145">Photos Photos</text><rect fill="none" height="6" style="stroke:#C82930;stroke-width:1.0;" width="6" x="1428.5" y="1793.6016"/><text fill="#000000" font-family="sans-serif" font-size="14" lengthAdjust="spacing" textLength="199" x="1440.5" y="1799.9551">int Distance from the city center</text><line style="stroke:#181818;stroke-width:0.5;" x1="1421.5" x2="1644.5" y1="1806.9219" y2="1806.9219"/></g><!--class Residence--><g id="elem_Residence"><rect codeLine="145" fill="#F1F1F1" height="94.9219" id="Residence" rx="2.5" ry="2.5" style="stroke:#181818;stroke-width:0.5;" width="213" x="1426.5" y="1907"/><ellipse cx="1495.25" cy="1923" fill="#ADD1B2" rx="11" ry="11" style="stroke:#181818;stroke-width:1.0;"/><path d="M1497.25,1919.5 Q1497.4531,1919 1497.6875,1918.75 Q1497.9219,1918.5 1498.1875,1918.5 Q1498.6563,1918.5 1498.9531,1918.7813 Q1499.25,1919.0625 1499.25,1919.7188 L1499.25,1921.2813 Q1499.25,1921.9375 1498.9688,1922.2188 Q1498.6875,1922.5 1498.25,1922.5 Q1497.8594,1922.5 1497.6094,1922.3281 Q1497.3594,1922.1563 1497.25,1921.7031 Q1497.2031,1921.3906 1497.0313,1921.2188 Q1496.7188,1920.8906 1496.1563,1920.7031 Q1495.5938,1920.5 1495.0313,1920.5 Q1494.3281,1920.5 1493.7344,1920.7813 Q1493.1563,1921.0625 1492.7031,1921.6875 Q1492.25,1922.3125 1492.25,1923.1719 L1492.25,1924.0938 Q1492.25,1925.125 1493.0938,1925.8125 Q1493.9375,1926.5 1495.4375,1926.5 Q1496.3281,1926.5 1496.9531,1926.2969 Q1497.3125,1926.1875 1497.7188,1925.8281 Q1497.9844,1925.625 1498.125,1925.5625 Q1498.2656,1925.5 1498.4375,1925.5 Q1498.7656,1925.5 1499,1925.7656 Q1499.25,1926.0156 1499.25,1926.375 Q1499.25,1926.7188 1498.9063,1927.125 Q1498.4063,1927.7188 1497.6094,1928.0469 Q1496.5625,1928.5 1495.2813,1928.5 Q1493.7813,1928.5 1492.5781,1927.9063 Q1491.6094,1927.4375 1490.9219,1926.4219 Q1490.25,1925.4063 1490.25,1924.2031 L1490.25,1923.1094 Q1490.25,1921.8594 1490.8438,1920.7656 Q1491.4531,1919.6719 1492.5,1919.0938 Q1493.5625,1918.5 1494.75,1918.5 Q1495.4688,1918.5 1496.0938,1918.75 Q1496.7188,1919 1497.25,1919.5 Z " fill="#000000"/><text fill="#000000" font-family="sans-serif" font-size="14" lengthAdjust="spacing" textLength="67" x="1515.75" y="1927.8535">Residence</text><line style="stroke:#181818;stroke-width:0.5;" x1="1427.5" x2="1638.5" y1="1939" y2="1939"/><rect fill="none" height="6" style="stroke:#C82930;stroke-width:1.0;" width="6" x="1434.5" y="1949.3203"/><text fill="#000000" font-family="sans-serif" font-size="14" lengthAdjust="spacing" textLength="152" x="1446.5" y="1955.6738">int Number of Bedrooms</text><rect fill="none" height="6" style="stroke:#C82930;stroke-width:1.0;" width="6" x="1434.5" y="1964.9609"/><text fill="#000000" font-family="sans-serif" font-size="14" lengthAdjust="spacing" textLength="156" x="1446.5" y="1971.3145">int Number of Bathrooms</text><rect fill="none" height="6" style="stroke:#C82930;stroke-width:1.0;" width="6" x="1434.5" y="1980.6016"/><text fill="#000000" font-family="sans-serif" font-size="14" lengthAdjust="spacing" textLength="187" x="1446.5" y="1986.9551">int Number of Parking Spaces</text><line style="stroke:#181818;stroke-width:0.5;" x1="1427.5" x2="1638.5" y1="1993.9219" y2="1993.9219"/></g><!--class House--><g id="elem_House"><rect codeLine="151" fill="#F1F1F1" height="79.2813" id="House" rx="2.5" ry="2.5" style="stroke:#181818;stroke-width:0.5;" width="104" x="1398" y="2078"/><ellipse cx="1427.4" cy="2094" fill="#ADD1B2" rx="11" ry="11" style="stroke:#181818;stroke-width:1.0;"/><path d="M1429.4,2090.5 Q1429.6031,2090 1429.8375,2089.75 Q1430.0719,2089.5 1430.3375,2089.5 Q1430.8063,2089.5 1431.1031,2089.7813 Q1431.4,2090.0625 1431.4,2090.7188 L1431.4,2092.2813 Q1431.4,2092.9375 1431.1188,2093.2188 Q1430.8375,2093.5 1430.4,2093.5 Q1430.0094,2093.5 1429.7594,2093.3281 Q1429.5094,2093.1563 1429.4,2092.7031 Q1429.3531,2092.3906 1429.1813,2092.2188 Q1428.8688,2091.8906 1428.3063,2091.7031 Q1427.7438,2091.5 1427.1813,2091.5 Q1426.4781,2091.5 1425.8844,2091.7813 Q1425.3063,2092.0625 1424.8531,2092.6875 Q1424.4,2093.3125 1424.4,2094.1719 L1424.4,2095.0938 Q1424.4,2096.125 1425.2438,2096.8125 Q1426.0875,2097.5 1427.5875,2097.5 Q1428.4781,2097.5 1429.1031,2097.2969 Q1429.4625,2097.1875 1429.8688,2096.8281 Q1430.1344,2096.625 1430.275,2096.5625 Q1430.4156,2096.5 1430.5875,2096.5 Q1430.9156,2096.5 1431.15,2096.7656 Q1431.4,2097.0156 1431.4,2097.375 Q1431.4,2097.7188 1431.0563,2098.125 Q1430.5563,2098.7188 1429.7594,2099.0469 Q1428.7125,2099.5 1427.4313,2099.5 Q1425.9313,2099.5 1424.7281,2098.9063 Q1423.7594,2098.4375 1423.0719,2097.4219 Q1422.4,2096.4063 1422.4,2095.2031 L1422.4,2094.1094 Q1422.4,2092.8594 1422.9938,2091.7656 Q1423.6031,2090.6719 1424.65,2090.0938 Q1425.7125,2089.5 1426.9,2089.5 Q1427.6188,2089.5 1428.2438,2089.75 Q1428.8688,2090 1429.4,2090.5 Z " fill="#000000"/><text fill="#000000" font-family="sans-serif" font-size="14" lengthAdjust="spacing" textLength="40" x="1444.6" y="2098.8535">House</text><line style="stroke:#181818;stroke-width:0.5;" x1="1399" x2="1501" y1="2110" y2="2110"/><text fill="#000000" font-family="sans-serif" font-size="14" lengthAdjust="spacing" textLength="63" x="1404" y="2126.6738">Basement</text><text fill="#000000" font-family="sans-serif" font-size="14" lengthAdjust="spacing" textLength="92" x="1404" y="2142.3145">Inhabitable loft</text><line style="stroke:#181818;stroke-width:0.5;" x1="1399" x2="1501" y1="2149.2813" y2="2149.2813"/></g><!--class SunExposure--><g id="elem_SunExposure"><rect codeLine="156" fill="#F1F1F1" height="63.6406" id="SunExposure" rx="2.5" ry="2.5" style="stroke:#181818;stroke-width:0.5;" width="116" x="1392" y="2295"/><ellipse cx="1407" cy="2311" fill="#ADD1B2" rx="11" ry="11" style="stroke:#181818;stroke-width:1.0;"/><path d="M1409,2307.5 Q1409.2031,2307 1409.4375,2306.75 Q1409.6719,2306.5 1409.9375,2306.5 Q1410.4063,2306.5 1410.7031,2306.7813 Q1411,2307.0625 1411,2307.7188 L1411,2309.2813 Q1411,2309.9375 1410.7188,2310.2188 Q1410.4375,2310.5 1410,2310.5 Q1409.6094,2310.5 1409.3594,2310.3281 Q1409.1094,2310.1563 1409,2309.7031 Q1408.9531,2309.3906 1408.7813,2309.2188 Q1408.4688,2308.8906 1407.9063,2308.7031 Q1407.3438,2308.5 1406.7813,2308.5 Q1406.0781,2308.5 1405.4844,2308.7813 Q1404.9063,2309.0625 1404.4531,2309.6875 Q1404,2310.3125 1404,2311.1719 L1404,2312.0938 Q1404,2313.125 1404.8438,2313.8125 Q1405.6875,2314.5 1407.1875,2314.5 Q1408.0781,2314.5 1408.7031,2314.2969 Q1409.0625,2314.1875 1409.4688,2313.8281 Q1409.7344,2313.625 1409.875,2313.5625 Q1410.0156,2313.5 1410.1875,2313.5 Q1410.5156,2313.5 1410.75,2313.7656 Q1411,2314.0156 1411,2314.375 Q1411,2314.7188 1410.6563,2315.125 Q1410.1563,2315.7188 1409.3594,2316.0469 Q1408.3125,2316.5 1407.0313,2316.5 Q1405.5313,2316.5 1404.3281,2315.9063 Q1403.3594,2315.4375 1402.6719,2314.4219 Q1402,2313.4063 1402,2312.2031 L1402,2311.1094 Q1402,2309.8594 1402.5938,2308.7656 Q1403.2031,2307.6719 1404.25,2307.0938 Q1405.3125,2306.5 1406.5,2306.5 Q1407.2188,2306.5 1407.8438,2306.75 Q1408.4688,2307 1409,2307.5 Z " fill="#000000"/><text fill="#000000" font-family="sans-serif" font-size="14" lengthAdjust="spacing" textLength="84" x="1421" y="2315.8535">SunExposure</text><line style="stroke:#181818;stroke-width:0.5;" x1="1393" x2="1507" y1="2327" y2="2327"/><text fill="#000000" font-family="sans-serif" font-size="14" lengthAdjust="spacing" textLength="56" x="1398" y="2343.6738">Direction</text><line style="stroke:#181818;stroke-width:0.5;" x1="1393" x2="1507" y1="2350.6406" y2="2350.6406"/></g><!--class AvailableEquipment--><g id="elem_AvailableEquipment"><rect codeLine="160" fill="#F1F1F1" height="63.6406" id="AvailableEquipment" rx="2.5" ry="2.5" style="stroke:#181818;stroke-width:0.5;" width="156" x="1537" y="2085.5"/><ellipse cx="1552" cy="2101.5" fill="#ADD1B2" rx="11" ry="11" style="stroke:#181818;stroke-width:1.0;"/><path d="M1554,2098 Q1554.2031,2097.5 1554.4375,2097.25 Q1554.6719,2097 1554.9375,2097 Q1555.4063,2097 1555.7031,2097.2813 Q1556,2097.5625 1556,2098.2188 L1556,2099.7813 Q1556,2100.4375 1555.7188,2100.7188 Q1555.4375,2101 1555,2101 Q1554.6094,2101 1554.3594,2100.8281 Q1554.1094,2100.6563 1554,2100.2031 Q1553.9531,2099.8906 1553.7813,2099.7188 Q1553.4688,2099.3906 1552.9063,2099.2031 Q1552.3438,2099 1551.7813,2099 Q1551.0781,2099 1550.4844,2099.2813 Q1549.9063,2099.5625 1549.4531,2100.1875 Q1549,2100.8125 1549,2101.6719 L1549,2102.5938 Q1549,2103.625 1549.8438,2104.3125 Q1550.6875,2105 1552.1875,2105 Q1553.0781,2105 1553.7031,2104.7969 Q1554.0625,2104.6875 1554.4688,2104.3281 Q1554.7344,2104.125 1554.875,2104.0625 Q1555.0156,2104 1555.1875,2104 Q1555.5156,2104 1555.75,2104.2656 Q1556,2104.5156 1556,2104.875 Q1556,2105.2188 1555.6563,2105.625 Q1555.1563,2106.2188 1554.3594,2106.5469 Q1553.3125,2107 1552.0313,2107 Q1550.5313,2107 1549.3281,2106.4063 Q1548.3594,2105.9375 1547.6719,2104.9219 Q1547,2103.9063 1547,2102.7031 L1547,2101.6094 Q1547,2100.3594 1547.5938,2099.2656 Q1548.2031,2098.1719 1549.25,2097.5938 Q1550.3125,2097 1551.5,2097 Q1552.2188,2097 1552.8438,2097.25 Q1553.4688,2097.5 1554,2098 Z " fill="#000000"/><text fill="#000000" font-family="sans-serif" font-size="14" lengthAdjust="spacing" textLength="124" x="1566" y="2106.3535">AvailableEquipment</text><line style="stroke:#181818;stroke-width:0.5;" x1="1538" x2="1692" y1="2117.5" y2="2117.5"/><text fill="#000000" font-family="sans-serif" font-size="14" lengthAdjust="spacing" textLength="67" x="1543" y="2134.1738">Equipment</text><line style="stroke:#181818;stroke-width:0.5;" x1="1538" x2="1692" y1="2141.1406" y2="2141.1406"/></g><!--class AnnouncementRequest--><g id="elem_AnnouncementRequest"><rect codeLine="164" fill="#F1F1F1" height="63.6406" id="AnnouncementRequest" rx="2.5" ry="2.5" style="stroke:#181818;stroke-width:0.5;" width="180" x="1443" y="1549"/><ellipse cx="1458" cy="1565" fill="#ADD1B2" rx="11" ry="11" style="stroke:#181818;stroke-width:1.0;"/><path d="M1460,1561.5 Q1460.2031,1561 1460.4375,1560.75 Q1460.6719,1560.5 1460.9375,1560.5 Q1461.4063,1560.5 1461.7031,1560.7813 Q1462,1561.0625 1462,1561.7188 L1462,1563.2813 Q1462,1563.9375 1461.7188,1564.2188 Q1461.4375,1564.5 1461,1564.5 Q1460.6094,1564.5 1460.3594,1564.3281 Q1460.1094,1564.1563 1460,1563.7031 Q1459.9531,1563.3906 1459.7813,1563.2188 Q1459.4688,1562.8906 1458.9063,1562.7031 Q1458.3438,1562.5 1457.7813,1562.5 Q1457.0781,1562.5 1456.4844,1562.7813 Q1455.9063,1563.0625 1455.4531,1563.6875 Q1455,1564.3125 1455,1565.1719 L1455,1566.0938 Q1455,1567.125 1455.8438,1567.8125 Q1456.6875,1568.5 1458.1875,1568.5 Q1459.0781,1568.5 1459.7031,1568.2969 Q1460.0625,1568.1875 1460.4688,1567.8281 Q1460.7344,1567.625 1460.875,1567.5625 Q1461.0156,1567.5 1461.1875,1567.5 Q1461.5156,1567.5 1461.75,1567.7656 Q1462,1568.0156 1462,1568.375 Q1462,1568.7188 1461.6563,1569.125 Q1461.1563,1569.7188 1460.3594,1570.0469 Q1459.3125,1570.5 1458.0313,1570.5 Q1456.5313,1570.5 1455.3281,1569.9063 Q1454.3594,1569.4375 1453.6719,1568.4219 Q1453,1567.4063 1453,1566.2031 L1453,1565.1094 Q1453,1563.8594 1453.5938,1562.7656 Q1454.2031,1561.6719 1455.25,1561.0938 Q1456.3125,1560.5 1457.5,1560.5 Q1458.2188,1560.5 1458.8438,1560.75 Q1459.4688,1561 1460,1561.5 Z " fill="#000000"/><text fill="#000000" font-family="sans-serif" font-size="14" lengthAdjust="spacing" textLength="148" x="1472" y="1569.8535">AnnouncementRequest</text><line style="stroke:#181818;stroke-width:0.5;" x1="1444" x2="1622" y1="1581" y2="1581"/><text fill="#000000" font-family="sans-serif" font-size="14" lengthAdjust="spacing" textLength="28" x="1449" y="1597.6738">date</text><line style="stroke:#181818;stroke-width:0.5;" x1="1444" x2="1622" y1="1604.6406" y2="1604.6406"/></g><!--class AnnouncementRequestRepository--><g id="elem_AnnouncementRequestRepository"><rect codeLine="172" fill="#F1F1F1" height="141.8438" id="AnnouncementRequestRepository" rx="2.5" ry="2.5" style="stroke:#181818;stroke-width:0.5;" width="645" x="1229.5" y="504.5"/><ellipse cx="1439.75" cy="520.5" fill="#ADD1B2" rx="11" ry="11" style="stroke:#181818;stroke-width:1.0;"/><path d="M1441.75,517 Q1441.9531,516.5 1442.1875,516.25 Q1442.4219,516 1442.6875,516 Q1443.1563,516 1443.4531,516.2813 Q1443.75,516.5625 1443.75,517.2188 L1443.75,518.7813 Q1443.75,519.4375 1443.4688,519.7188 Q1443.1875,520 1442.75,520 Q1442.3594,520 1442.1094,519.8281 Q1441.8594,519.6563 1441.75,519.2031 Q1441.7031,518.8906 1441.5313,518.7188 Q1441.2188,518.3906 1440.6563,518.2031 Q1440.0938,518 1439.5313,518 Q1438.8281,518 1438.2344,518.2813 Q1437.6563,518.5625 1437.2031,519.1875 Q1436.75,519.8125 1436.75,520.6719 L1436.75,521.5938 Q1436.75,522.625 1437.5938,523.3125 Q1438.4375,524 1439.9375,524 Q1440.8281,524 1441.4531,523.7969 Q1441.8125,523.6875 1442.2188,523.3281 Q1442.4844,523.125 1442.625,523.0625 Q1442.7656,523 1442.9375,523 Q1443.2656,523 1443.5,523.2656 Q1443.75,523.5156 1443.75,523.875 Q1443.75,524.2188 1443.4063,524.625 Q1442.9063,525.2188 1442.1094,525.5469 Q1441.0625,526 1439.7813,526 Q1438.2813,526 1437.0781,525.4063 Q1436.1094,524.9375 1435.4219,523.9219 Q1434.75,522.9063 1434.75,521.7031 L1434.75,520.6094 Q1434.75,519.3594 1435.3438,518.2656 Q1435.9531,517.1719 1437,516.5938 Q1438.0625,516 1439.25,516 Q1439.9688,516 1440.5938,516.25 Q1441.2188,516.5 1441.75,517 Z " fill="#000000"/><text fill="#000000" font-family="sans-serif" font-size="14" lengthAdjust="spacing" textLength="216" x="1460.25" y="525.3535">AnnouncementRequestRepository</text><line style="stroke:#181818;stroke-width:0.5;" x1="1230.5" x2="1873.5" y1="536.5" y2="536.5"/><line style="stroke:#181818;stroke-width:0.5;" x1="1230.5" x2="1873.5" y1="544.5" y2="544.5"/><ellipse cx="1240.5" cy="557.8203" fill="#84BE84" rx="3" ry="3" style="stroke:#038048;stroke-width:1.0;"/><text fill="#000000" font-family="sans-serif" font-size="14" lengthAdjust="spacing" textLength="181" x="1249.5" y="561.1738">add(announcementRequest)</text><ellipse cx="1240.5" cy="573.4609" fill="#84BE84" rx="3" ry="3" style="stroke:#038048;stroke-width:1.0;"/><text fill="#000000" font-family="sans-serif" font-size="14" lengthAdjust="spacing" textLength="619" x="1249.5" y="576.8145">announcementRequest(date,typeOfBusiness,property,propertyType,business,durationOfContract)</text><ellipse cx="1240.5" cy="589.1016" fill="#84BE84" rx="3" ry="3" style="stroke:#038048;stroke-width:1.0;"/><text fill="#000000" font-family="sans-serif" font-size="14" lengthAdjust="spacing" textLength="329" x="1249.5" y="592.4551">addAnnouncementRequest(announcementRequest)</text><ellipse cx="1240.5" cy="604.7422" fill="#84BE84" rx="3" ry="3" style="stroke:#038048;stroke-width:1.0;"/><text fill="#000000" font-family="sans-serif" font-size="14" lengthAdjust="spacing" textLength="483" x="1249.5" y="608.0957">getAnnouncementRequestByDescription(announcementRequestDescription)</text><ellipse cx="1240.5" cy="620.3828" fill="#84BE84" rx="3" ry="3" style="stroke:#038048;stroke-width:1.0;"/><text fill="#000000" font-family="sans-serif" font-size="14" lengthAdjust="spacing" textLength="269" x="1249.5" y="623.7363">getAnnouncementRequestByMostRecent()</text><ellipse cx="1240.5" cy="636.0234" fill="#84BE84" rx="3" ry="3" style="stroke:#038048;stroke-width:1.0;"/><text fill="#000000" font-family="sans-serif" font-size="14" lengthAdjust="spacing" textLength="178" x="1249.5" y="639.377">getAnnouncementRequest()</text></g><!--class PublishedAnnouncement--><g id="elem_PublishedAnnouncement"><rect fill="#F1F1F1" height="48" id="PublishedAnnouncement" rx="2.5" ry="2.5" style="stroke:#181818;stroke-width:0.5;" width="189" x="1787.5" y="1557"/><ellipse cx="1802.5" cy="1573" fill="#ADD1B2" rx="11" ry="11" style="stroke:#181818;stroke-width:1.0;"/><path d="M1804.5,1569.5 Q1804.7031,1569 1804.9375,1568.75 Q1805.1719,1568.5 1805.4375,1568.5 Q1805.9063,1568.5 1806.2031,1568.7813 Q1806.5,1569.0625 1806.5,1569.7188 L1806.5,1571.2813 Q1806.5,1571.9375 1806.2188,1572.2188 Q1805.9375,1572.5 1805.5,1572.5 Q1805.1094,1572.5 1804.8594,1572.3281 Q1804.6094,1572.1563 1804.5,1571.7031 Q1804.4531,1571.3906 1804.2813,1571.2188 Q1803.9688,1570.8906 1803.4063,1570.7031 Q1802.8438,1570.5 1802.2813,1570.5 Q1801.5781,1570.5 1800.9844,1570.7813 Q1800.4063,1571.0625 1799.9531,1571.6875 Q1799.5,1572.3125 1799.5,1573.1719 L1799.5,1574.0938 Q1799.5,1575.125 1800.3438,1575.8125 Q1801.1875,1576.5 1802.6875,1576.5 Q1803.5781,1576.5 1804.2031,1576.2969 Q1804.5625,1576.1875 1804.9688,1575.8281 Q1805.2344,1575.625 1805.375,1575.5625 Q1805.5156,1575.5 1805.6875,1575.5 Q1806.0156,1575.5 1806.25,1575.7656 Q1806.5,1576.0156 1806.5,1576.375 Q1806.5,1576.7188 1806.1563,1577.125 Q1805.6563,1577.7188 1804.8594,1578.0469 Q1803.8125,1578.5 1802.5313,1578.5 Q1801.0313,1578.5 1799.8281,1577.9063 Q1798.8594,1577.4375 1798.1719,1576.4219 Q1797.5,1575.4063 1797.5,1574.2031 L1797.5,1573.1094 Q1797.5,1571.8594 1798.0938,1570.7656 Q1798.7031,1569.6719 1799.75,1569.0938 Q1800.8125,1568.5 1802,1568.5 Q1802.7188,1568.5 1803.3438,1568.75 Q1803.9688,1569 1804.5,1569.5 Z " fill="#000000"/><text fill="#000000" font-family="sans-serif" font-size="14" lengthAdjust="spacing" textLength="157" x="1816.5" y="1577.8535">PublishedAnnouncement</text><line style="stroke:#181818;stroke-width:0.5;" x1="1788.5" x2="1975.5" y1="1589" y2="1589"/><line style="stroke:#181818;stroke-width:0.5;" x1="1788.5" x2="1975.5" y1="1597" y2="1597"/></g><!--link PublishAnnouncementRequestUI to PublishAnnouncementRequestController--><g id="link_PublishAnnouncementRequestUI_PublishAnnouncementRequestController"><path codeLine="216" d="M245.31,140.5 C255.09,140.5 264.87,140.5 274.66,140.5 " fill="none" id="PublishAnnouncementRequestUI-to-PublishAnnouncementRequestController" style="stroke:#181818;stroke-width:1.0;stroke-dasharray:7.0,7.0;"/><polygon fill="#181818" points="279.77,140.5,270.77,136.5,274.77,140.5,270.77,144.5,279.77,140.5" style="stroke:#181818;stroke-width:1.0;"/></g><!--link PublishAnnouncementRequestController to AnnouncementRequestRepository--><g id="link_PublishAnnouncementRequestController_AnnouncementRequestRepository"><path codeLine="218" d="M1136.72,274.08 C1195.02,301.67 1253.91,332.62 1307,366 C1368.51,404.68 1430.77,457.89 1477.14,500.87 " fill="none" id="PublishAnnouncementRequestController-to-AnnouncementRequestRepository" style="stroke:#181818;stroke-width:1.0;stroke-dasharray:7.0,7.0;"/><polygon fill="#181818" points="1481.01,504.47,1477.1421,495.4124,1477.3481,501.0656,1471.695,501.2715,1481.01,504.47" style="stroke:#181818;stroke-width:1.0;"/><text fill="#000000" font-family="sans-serif" font-size="13" lengthAdjust="spacing" textLength="195" x="1331" y="378.7686">announcementRequestRepository</text></g><!--link PublishAnnouncementRequestController to ComissionRepository--><g id="link_PublishAnnouncementRequestController_ComissionRepository"><path codeLine="220" d="M437.33,274.1 C427.56,291.9 422,312.1 422,335 C422,335 422,335 422,576.5 C422,650.41 486.68,702.4 551.65,735.99 " fill="none" id="PublishAnnouncementRequestController-to-ComissionRepository" style="stroke:#181818;stroke-width:1.0;stroke-dasharray:7.0,7.0;"/><polygon fill="#181818" points="556.32,738.37,550.1174,730.7196,551.8651,736.0997,546.485,737.8474,556.32,738.37" style="stroke:#181818;stroke-width:1.0;"/><text fill="#000000" font-family="sans-serif" font-size="13" lengthAdjust="spacing" textLength="121" x="423" y="424.7686">comissionRepository</text></g><!--link PublishAnnouncementRequestController to EmployeeRepository--><g id="link_PublishAnnouncementRequestController_EmployeeRepository"><path codeLine="222" d="M631.51,274.04 C621.27,292.72 615,313.1 615,335 C615,335 615,335 615,576.5 C615,617.56 618.75,635.36 650,662 C665.97,675.61 916.78,730.33 1066.21,762.01 " fill="none" id="PublishAnnouncementRequestController-to-EmployeeRepository" style="stroke:#181818;stroke-width:1.0;stroke-dasharray:7.0,7.0;"/><polygon fill="#181818" points="1071.48,763.12,1063.5133,757.3294,1066.5902,762.0763,1061.8433,765.1531,1071.48,763.12" style="stroke:#181818;stroke-width:1.0;"/><text fill="#000000" font-family="sans-serif" font-size="13" lengthAdjust="spacing" textLength="118" x="616" y="424.7686">employeeRepository</text></g><!--link PublishAnnouncementRequestController to AuthenticationRepository--><g id="link_PublishAnnouncementRequestController_AuthenticationRepository"><path codeLine="224" d="M801,274.06 C801,342.02 801,423.04 801,483.81 " fill="none" id="PublishAnnouncementRequestController-to-AuthenticationRepository" style="stroke:#181818;stroke-width:1.0;stroke-dasharray:7.0,7.0;"/><polygon fill="#181818" points="801,488.88,805,479.88,801,483.88,797,479.88,801,488.88" style="stroke:#181818;stroke-width:1.0;"/><text fill="#000000" font-family="sans-serif" font-size="13" lengthAdjust="spacing" textLength="143" x="802" y="378.7686">authenticationRepository</text></g><!--link PublishAnnouncementRequestController to PublishedAnnouncementRepository--><g id="link_PublishAnnouncementRequestController_PublishedAnnouncementRepository"><path codeLine="226" d="M1299.8,274.04 C1567.22,349.7 1850.42,439.15 1892,489 C1945.4,553.02 1953.21,652.25 1951.51,717.92 " fill="none" id="PublishAnnouncementRequestController-to-PublishedAnnouncementRepository" style="stroke:#181818;stroke-width:1.0;stroke-dasharray:7.0,7.0;"/><polygon fill="#181818" points="1951.36,722.98,1955.6154,714.0979,1951.5028,717.982,1947.6187,713.8694,1951.36,722.98" style="stroke:#181818;stroke-width:1.0;"/><text fill="#000000" font-family="sans-serif" font-size="13" lengthAdjust="spacing" textLength="204" x="1779" y="424.7686">publishedAnnouncementRepository</text></g><!--link Repositories to Repositories--><g id="link_Repositories_Repositories"><path codeLine="228" d="M1706.8,112.68 C1727.52,117.05 1741.5,126.33 1741.5,140.5 C1741.5,153.46 1729.82,162.32 1711.99,167.09 " fill="none" id="Repositories-to-Repositories" style="stroke:#181818;stroke-width:1.0;"/><polygon fill="#181818" points="1706.8,168.32,1716.482,170.1254,1711.6639,167.1613,1714.628,162.3432,1706.8,168.32" style="stroke:#181818;stroke-width:1.0;"/><text fill="#000000" font-family="sans-serif" font-size="13" lengthAdjust="spacing" textLength="49" x="1747.5" y="145.2686">instance</text></g><!--link Repositories to PublishedAnnouncementRepository--><g id="link_Repositories_PublishedAnnouncementRepository"><path codeLine="230" d="M1706.57,162.52 C1869.52,190.94 2116,248.26 2116,335 C2116,335 2116,335 2116,576.5 C2116,633.06 2077.96,682.76 2037.87,719.44 " fill="none" id="Repositories-to-PublishedAnnouncementRepository" style="stroke:#181818;stroke-width:1.0;"/><polygon fill="#181818" points="2033.99,722.95,2043.3555,719.9025,2037.7065,719.6052,2038.0038,713.9561,2033.99,722.95" style="stroke:#181818;stroke-width:1.0;"/><text fill="#000000" font-family="sans-serif" font-size="13" lengthAdjust="spacing" textLength="204" x="2117" y="424.7686">publishedAnnouncementRepository</text></g><!--link Repositories to AnnouncementRequestRepository--><g id="link_Repositories_AnnouncementRequestRepository"><path codeLine="232" d="M1706.69,205.49 C1803.5,259.01 1905.57,340.49 1851,428 C1832.2,458.15 1805.18,482.27 1774.98,501.52 " fill="none" id="Repositories-to-AnnouncementRequestRepository" style="stroke:#181818;stroke-width:1.0;"/><polygon fill="#181818" points="1770.5,504.32,1780.2486,502.9184,1774.7336,501.6597,1775.9922,496.1447,1770.5,504.32" style="stroke:#181818;stroke-width:1.0;"/><text fill="#000000" font-family="sans-serif" font-size="13" lengthAdjust="spacing" textLength="195" x="1867" y="378.7686">announcementRequestRepository</text></g><!--link Repositories to ComissionRepository--><g id="link_Repositories_ComissionRepository"><path codeLine="234" d="M1442.94,219.02 C1410.12,238.2 1374.25,257.86 1340,274 C1304.9,290.55 1294.13,289.83 1258,304 C1224.8,317.02 1215.77,318.81 1184,335 C1160.37,347.05 1151.78,347.27 1133,366 C1023.82,474.89 1067.38,559.69 952,662 C916.87,693.15 872.53,717.73 830.03,736.47 " fill="none" id="Repositories-to-ComissionRepository" style="stroke:#181818;stroke-width:1.0;"/><polygon fill="#181818" points="825.4,738.5,835.2486,738.5685,829.9831,736.5012,832.0505,731.2356,825.4,738.5" style="stroke:#181818;stroke-width:1.0;"/><text fill="#000000" font-family="sans-serif" font-size="13" lengthAdjust="spacing" textLength="121" x="1094" y="424.7686">comissionRepository</text></g><!--link Repositories to EmployeeRepository--><g id="link_Repositories_EmployeeRepository"><path codeLine="236" d="M1575.87,219.12 C1578.08,270.79 1571.96,337.18 1535,382 C1510.95,411.17 1235.95,459.74 1212,489 C1155.47,558.06 1158.75,668.35 1166.92,733.02 " fill="none" id="Repositories-to-EmployeeRepository" style="stroke:#181818;stroke-width:1.0;"/><polygon fill="#181818" points="1167.62,738.36,1170.4026,728.9124,1166.9629,733.4034,1162.472,729.9637,1167.62,738.36" style="stroke:#181818;stroke-width:1.0;"/><text fill="#000000" font-family="sans-serif" font-size="13" lengthAdjust="spacing" textLength="118" x="1460" y="424.7686">employeeRepository</text></g><!--link Repositories to AuthenticationRepository--><g id="link_Repositories_AuthenticationRepository"><path codeLine="238" d="M1437.23,219.12 C1405.67,237.55 1371.82,256.83 1340,274 C1258.84,317.79 1221.73,303.4 1154,366 C1130.43,387.78 1140.84,406.52 1117,428 C1066.21,473.77 998.63,507.69 939.02,531.3 " fill="none" id="Repositories-to-AuthenticationRepository" style="stroke:#181818;stroke-width:1.0;"/><polygon fill="#181818" points="934.01,533.26,943.8497,533.6837,938.6622,531.4278,940.9181,526.2402,934.01,533.26" style="stroke:#181818;stroke-width:1.0;"/><text fill="#000000" font-family="sans-serif" font-size="13" lengthAdjust="spacing" textLength="143" x="1155" y="378.7686">authenticationRepository</text></g><!--link PublishAnnouncementRequestController to Repositories--><g id="link_PublishAnnouncementRequestController_Repositories"><path codeLine="240" d="M1322.11,140.5 C1357.09,140.5 1390.28,140.5 1420.27,140.5 " fill="none" id="PublishAnnouncementRequestController-to-Repositories" style="stroke:#181818;stroke-width:1.0;stroke-dasharray:7.0,7.0;"/><polygon fill="#181818" points="1425.45,140.5,1416.45,136.5,1420.45,140.5,1416.45,144.5,1425.45,140.5" style="stroke:#181818;stroke-width:1.0;"/><text fill="#000000" font-family="sans-serif" font-size="13" lengthAdjust="spacing" textLength="67" x="1340.25" y="134.2686">repositories</text></g><!--link ComissionRepository to Comission--><g id="link_ComissionRepository_Comission"><path codeLine="242" d="M683,833.53 C683,883.27 683,964.46 683,1034.5 C683,1034.5 683,1034.5 683,1426 C683,1485.98 741.95,1529.05 789.8,1554.13 " fill="none" id="ComissionRepository-to-Comission" style="stroke:#181818;stroke-width:1.0;"/><polygon fill="#181818" points="794.39,1556.5,788.2169,1548.8258,789.9439,1554.2126,784.5571,1555.9396,794.39,1556.5" style="stroke:#181818;stroke-width:1.0;"/><text fill="#000000" font-family="sans-serif" font-size="13" lengthAdjust="spacing" textLength="5" x="781.5815" y="1550.0951">*</text></g><!--link AnnouncementRequestRepository to AnnouncementRequest--><g id="link_AnnouncementRequestRepository_AnnouncementRequest"><path codeLine="244" d="M1542.39,646.81 C1537.68,687.16 1533,738.84 1533,785 C1533,785 1533,785 1533,1426 C1533,1466.19 1533,1512.27 1533,1543.47 " fill="none" id="AnnouncementRequestRepository-to-AnnouncementRequest" style="stroke:#181818;stroke-width:1.0;"/><polygon fill="#181818" points="1533,1548.74,1537,1539.74,1533,1543.74,1529,1539.74,1533,1548.74" style="stroke:#181818;stroke-width:1.0;"/><text fill="#000000" font-family="sans-serif" font-size="13" lengthAdjust="spacing" textLength="5" x="1527.4531" y="1538.017">*</text></g><!--link AnnouncementRequest to PublishedAnnouncement--><g id="link_AnnouncementRequest_PublishedAnnouncement"><path codeLine="246" d="M1623.33,1581 C1673.72,1581 1736.43,1581 1787.48,1581 " fill="none" id="AnnouncementRequest-PublishedAnnouncement" style="stroke:#181818;stroke-width:1.0;"/><polygon fill="#000000" points="1672.25,1570.2617,1681.2951,1573.2006,1681.2951,1567.3228,1672.25,1570.2617" style="stroke:#000000;stroke-width:1.0;"/><text fill="#000000" font-family="sans-serif" font-size="13" lengthAdjust="spacing" textLength="51" x="1686.25" y="1574.7686">can have</text><text fill="#000000" font-family="sans-serif" font-size="13" lengthAdjust="spacing" textLength="7" x="1631.1003" y="1578.2254">1</text><text fill="#000000" font-family="sans-serif" font-size="13" lengthAdjust="spacing" textLength="7" x="1772.3627" y="1578.2105">1</text></g><!--reverse link Employee to Agent--><g id="link_Employee_Agent"><path codeLine="248" d="M1180,1508.3 C1180,1526.15 1180,1543.62 1180,1556.84 " fill="none" id="Employee-backto-Agent" style="stroke:#181818;stroke-width:1.0;"/><polygon fill="none" points="1173,1508.19,1180,1488.19,1187,1508.19,1173,1508.19" style="stroke:#181818;stroke-width:1.0;"/></g><!--reverse link Role to Employee--><g id="link_Role_Employee"><path codeLine="250" d="M850.9,1425 C866.15,1425 884.03,1425 903.45,1425 " fill="none" id="Role-backto-Employee" style="stroke:#181818;stroke-width:1.0;"/><polygon fill="#181818" points="845.84,1425,854.84,1429,850.84,1425,854.84,1421,845.84,1425" style="stroke:#181818;stroke-width:1.0;"/><text fill="#000000" font-family="sans-serif" font-size="13" lengthAdjust="spacing" textLength="21" x="864" y="1418.7686">role</text><text fill="#000000" font-family="sans-serif" font-size="13" lengthAdjust="spacing" textLength="5" x="853.5442" y="1421.6722">*</text><text fill="#000000" font-family="sans-serif" font-size="13" lengthAdjust="spacing" textLength="7" x="888.136" y="1422.5655">1</text></g><!--link State to Adress--><g id="link_State_Adress"><path codeLine="252" d="M1015.43,1767.5 C1026.85,1767.5 1038.26,1767.5 1049.68,1767.5 " fill="none" id="State-Adress" style="stroke:#181818;stroke-width:1.0;"/><text fill="#000000" font-family="sans-serif" font-size="13" lengthAdjust="spacing" textLength="7" x="1023.188" y="1764.5555">1</text><text fill="#000000" font-family="sans-serif" font-size="13" lengthAdjust="spacing" textLength="7" x="1035.2293" y="1764.9304">1</text></g><!--link District to State--><g id="link_District_State"><path codeLine="254" d="M846.05,1767.5 C857.6,1767.5 869.15,1767.5 880.7,1767.5 " fill="none" id="District-State" style="stroke:#181818;stroke-width:1.0;"/><text fill="#000000" font-family="sans-serif" font-size="13" lengthAdjust="spacing" textLength="5" x="854.2039" y="1764.5555">*</text><text fill="#000000" font-family="sans-serif" font-size="13" lengthAdjust="spacing" textLength="7" x="865.9563" y="1764.5555">1</text></g><!--link City to District--><g id="link_City_District"><path codeLine="256" d="M667.01,1767.5 C678.57,1767.5 690.13,1767.5 701.7,1767.5 " fill="none" id="City-District" style="stroke:#181818;stroke-width:1.0;"/><text fill="#000000" font-family="sans-serif" font-size="13" lengthAdjust="spacing" textLength="5" x="675.141" y="1764.3442">*</text><text fill="#000000" font-family="sans-serif" font-size="13" lengthAdjust="spacing" textLength="7" x="686.8831" y="1764.5962">1</text></g><!--reverse link User to Employee--><g id="link_User_Employee"><path codeLine="258" d="M1055.31,1314.56 C1072.53,1329.67 1091.5,1346.32 1109.34,1361.98 " fill="none" id="User-backto-Employee" style="stroke:#181818;stroke-width:1.0;"/><polygon fill="none" points="1050.49,1319.64,1040.07,1301.18,1059.72,1309.12,1050.49,1319.64" style="stroke:#181818;stroke-width:1.0;"/></g><!--reverse link Person to User--><g id="link_Person_User"><path codeLine="260" d="M976.48,1181.01 C980.1,1195.74 983.51,1209.64 986.44,1221.58 " fill="none" id="Person-backto-User" style="stroke:#181818;stroke-width:1.0;"/><polygon fill="none" points="969.61,1182.36,971.64,1161.27,983.2,1179.03,969.61,1182.36" style="stroke:#181818;stroke-width:1.0;"/></g><!--link EmployeeRepository to Employee--><g id="link_EmployeeRepository_Employee"><path codeLine="262" d="M1176.29,833.58 C1176.99,944.9 1178.76,1226.72 1179.58,1356.58 " fill="none" id="EmployeeRepository-to-Employee" style="stroke:#181818;stroke-width:1.0;"/><polygon fill="#181818" points="1179.61,1361.9,1183.5327,1352.866,1179.5671,1356.9002,1175.533,1352.9346,1179.61,1361.9" style="stroke:#181818;stroke-width:1.0;"/><text fill="#000000" font-family="sans-serif" font-size="13" lengthAdjust="spacing" textLength="5" x="1174.2578" y="1351.1446">*</text></g><!--link Comission to Agent--><g id="link_Comission_Agent"><path codeLine="264" d="M905.61,1581 C974.12,1581 1088.44,1581 1145.46,1581 " fill="none" id="Comission-Agent" style="stroke:#181818;stroke-width:1.0;"/><polygon fill="#000000" points="997.5,1570.2617,1006.5451,1573.2006,1006.5451,1567.3228,997.5,1570.2617" style="stroke:#000000;stroke-width:1.0;"/><text fill="#000000" font-family="sans-serif" font-size="13" lengthAdjust="spacing" textLength="41" x="1011.5" y="1574.7686">defines</text><text fill="#000000" font-family="sans-serif" font-size="13" lengthAdjust="spacing" textLength="7" x="913.5529" y="1577.8872">1</text><text fill="#000000" font-family="sans-serif" font-size="13" lengthAdjust="spacing" textLength="7" x="1130.6143" y="1577.3788">1</text></g><!--link Agent to AnnouncementRequest--><g id="link_Agent_AnnouncementRequest"><path codeLine="266" d="M1214.81,1581 C1267.34,1581 1368.61,1581 1442.84,1581 " fill="none" id="Agent-AnnouncementRequest" style="stroke:#181818;stroke-width:1.0;"/><polygon fill="#000000" points="1290.25,1570.2617,1281.2049,1567.3228,1281.2049,1573.2006,1290.25,1570.2617" style="stroke:#000000;stroke-width:1.0;"/><text fill="#000000" font-family="sans-serif" font-size="13" lengthAdjust="spacing" textLength="82" x="1294.25" y="1574.7686">intends to see</text><text fill="#000000" font-family="sans-serif" font-size="13" lengthAdjust="spacing" textLength="7" x="1222.7114" y="1577.3788">1</text><text fill="#000000" font-family="sans-serif" font-size="13" lengthAdjust="spacing" textLength="5" x="1429.877" y="1578.2049">*</text></g><!--link Adress to Property--><g id="link_Adress_Property"><path codeLine="268" d="M1350.43,1767.5 C1373.87,1767.5 1397.74,1767.5 1420.15,1767.5 " fill="none" id="Adress-Property" style="stroke:#181818;stroke-width:1.0;"/><polygon fill="#000000" points="1367.25,1756.7617,1376.2951,1759.7006,1376.2951,1753.8228,1367.25,1756.7617" style="stroke:#000000;stroke-width:1.0;"/><text fill="#000000" font-family="sans-serif" font-size="13" lengthAdjust="spacing" textLength="21" x="1381.25" y="1761.2686">has</text><text fill="#000000" font-family="sans-serif" font-size="13" lengthAdjust="spacing" textLength="7" x="1357.886" y="1764.9304">1</text><text fill="#000000" font-family="sans-serif" font-size="13" lengthAdjust="spacing" textLength="7" x="1405.3327" y="1764.8185">1</text></g><!--link AnnouncementRequest to Property--><g id="link_AnnouncementRequest_Property"><path codeLine="272" d="M1533,1613.3 C1533,1642.5 1533,1686.44 1533,1719.79 " fill="none" id="AnnouncementRequest-Property" style="stroke:#181818;stroke-width:1.0;"/><polygon fill="#000000" points="1538,1656.2617,1540.9389,1647.2166,1535.0611,1647.2166,1538,1656.2617" style="stroke:#000000;stroke-width:1.0;"/><text fill="#000000" font-family="sans-serif" font-size="13" lengthAdjust="spacing" textLength="21" x="1547" y="1655.7686">has</text><text fill="#000000" font-family="sans-serif" font-size="13" lengthAdjust="spacing" textLength="7" x="1525.3547" y="1632.3959">1</text></g><!--reverse link Property to Residence--><g id="link_Property_Residence"><path codeLine="273" d="M1533,1835.23 C1533,1858.96 1533,1885.14 1533,1906.83 " fill="none" id="Property-backto-Residence" style="stroke:#181818;stroke-width:1.0;"/><polygon fill="none" points="1526,1835.18,1533,1815.18,1540,1835.18,1526,1835.18" style="stroke:#181818;stroke-width:1.0;"/></g><!--reverse link Residence to House--><g id="link_Residence_House"><path codeLine="274" d="M1499.77,2019.95 C1489.65,2039.59 1478.84,2060.55 1469.89,2077.91 " fill="none" id="Residence-backto-House" style="stroke:#181818;stroke-width:1.0;"/><polygon fill="none" points="1493.61,2016.64,1508.99,2002.07,1506.05,2023.05,1493.61,2016.64" style="stroke:#181818;stroke-width:1.0;"/></g><!--link Residence to AvailableEquipment--><g id="link_Residence_AvailableEquipment"><path codeLine="276" d="M1556.72,2002.07 C1570.34,2028.81 1587.08,2061.68 1599.12,2085.31 " fill="none" id="Residence-AvailableEquipment" style="stroke:#181818;stroke-width:1.0;"/><text fill="#000000" font-family="sans-serif" font-size="13" lengthAdjust="spacing" textLength="49" x="1579" y="2044.7686">contains</text></g><!--link House to SunExposure--><g id="link_House_SunExposure"><path codeLine="277" d="M1450,2157.04 C1450,2196.77 1450,2257.96 1450,2294.77 " fill="none" id="House-SunExposure" style="stroke:#181818;stroke-width:1.0;"/><text fill="#000000" font-family="sans-serif" font-size="13" lengthAdjust="spacing" textLength="49" x="1451" y="2230.7686">contains</text></g><!--link PublishedAnnouncementRepository to PublishedAnnouncement--><g id="link_PublishedAnnouncementRepository_PublishedAnnouncement"><path codeLine="279" d="M1933.49,849.01 C1924.52,898.9 1914,970.92 1914,1034.5 C1914,1034.5 1914,1034.5 1914,1426 C1914,1470.66 1900.94,1521.11 1891.51,1551.72 " fill="none" id="PublishedAnnouncementRepository-to-PublishedAnnouncement" style="stroke:#181818;stroke-width:1.0;"/><polygon fill="#181818" points="1889.91,1556.83,1896.4048,1549.4261,1891.3965,1552.0561,1888.7665,1547.0477,1889.91,1556.83" style="stroke:#181818;stroke-width:1.0;"/><text fill="#000000" font-family="sans-serif" font-size="13" lengthAdjust="spacing" textLength="5" x="1886.3639" y="1546.292">*</text></g><!--SRC=[hLZTRzis47_dNq7aoPdb0diL2WEE4sm1jZP8sWtO6oFHCJ6PL4aghUVbVz_nKrH4AIwwF3ZayUvu7-JlZgeQeXI-wnuRflORpaN7AtgWND_JBnrL-lCjGfNbsTIIAXLcqn9RmRKKJKDbvALI2HvczxGLYcaX6OtQRWvj8uwKHXxHnF6cqtlGpYgYcU1H-XZMFwj-fw1dpBLv0XrXyg29ZlgtJ4UkQwQqP9KUMdv2An2HZ3zXUY2iWIdZ6hV0qGgfFtI7Hp314JNv5kTUXfC3XPcB7oOkZ5x5Nd3g-T7IUBAmEnH3tKNKMXXbHI9sYPPFLDyDs1UE-2a8-VcDqUp7pXW_-G0w_V2krmmKz38Ts1DQahe6Szr2sCBDr68ufrT7jxlrxhBNEvLSq5wBtyGJuo4WN-jBJnETzkgtdPGW_G2kWBGXWaacYkRy9DC_cTu7aediLo7hNoYdai1UG5ofVRVRDTGbRC5us-b24bwB0oowmNPF9AaqnAKA8nLveZzRSM3Mc84hnjImS7MyfggIh3KEBwf0JeYNGm7lHy-QviLVGreFB-Ah9BKvBXEB77rHm-KezB6b7tTNdM8SebkqKhHKwcCSV8Br8ffKF0R6kfCsbHzt5WSWJbFxUBZe_Ih8UDNvdlLoqYjpZ3DBvan2t588E24SRwao17CJ4CBmPxHO7f0Ayu0EAj2qy2ScJKbC73vPhjMr06ie_eCq7Kqi2DeITAazoPansjVVqq06u68qPyjB2cs9-ieYNI9-z1fxe-vyUeFj5gKsaX8t1NZG0hZiluJ3M4WWp7WdnG73bRPxuGeI0iZsCYmX9kenw98w_77AZAv_MBiLTKZ3CvLiT_pBqORE7pEfIKY3x6rg1tWsoqKCT67jBBmTHTWx2Q613GYXjrUQkhIqK6A6AP2P-d8Q0wQL5PB25l2BLaRMgmai7k4iibkk5DyBmrkuef6KWM5zS8VUxkEHqQDTdzXxgbXDJOfEVQYTD1OxV4LhASH1PTU8tayktX7vjudCGqiggEVH_rz5fy9ULqJPksadjtnF7facvaeqOgTxaOUEttm3vEfa4BncabO6JP8uFqEiZF3DbuwrHgldZVE4Tumd9sJGBJtmCvtFQLRL26Kdu2i3UUSZx3okmguvHCqROgh-U65OZZAIeyAKLVAxC04nztqnoUNFutSqa13O2h17qtEOOolI9oPNKPBLThvuzkMjf-NRdFD24Wk3ohOliJqRk9ojcOdJ6G-Bf5EOQJr2KPZiGDuyBGO9pZanKrtWocmoqG0ktF8R_SqyrwjyU-PCY-PNnatkeB2d3nU0zNJg4thBNHbSN9Q3LyvoIlboqfxbMSulvoCuaSK1pqlwZkehtQXDZkyCGtLoSzY9twtFV2EUmuNVWRfPJqeyUzU_OvjCFagSWOApLOBESV9nYMdciNg-ogcqWs8o-M8-N_qRPw_4Ru0dGkaDmAlruFgKpD-Krspcx__Vt2hziUEJCpDpKd2PFIavwV6Po1-9d2iJ2VxnrA_n84zmcEJWSqtEPU_FnKyNVKGGcWsta_526SwiEBxu-GBU6-OtUq3WbXAEz-IPulS8XV3Yz_-kLk7pJoHQLGtTQMU2xSfBrvSZ_w4cihWj_JSZ-s-m1kBzPwCmUitXFZ8PY7Nsz1-yt2ScHtMViZ9WqGUh5xGkzVlOKOn_YMkwCvqZNWyufm8E5r9JNYki1LOGd_Km398zxVNAnzxtfoM4Mfb8poHhzOfxZU83qpeSNoMeVv_O1VjyG0dLv73S-XjWvfe0cY3tu80ufU-8CYwZDp05Xm1d-S37_m00]--></g></svg>