<?xml version="1.0" encoding="us-ascii" standalone="no"?><svg xmlns="http://www.w3.org/2000/svg" xmlns:xlink="http://www.w3.org/1999/xlink" contentStyleType="text/css" height="292px" preserveAspectRatio="none" style="width:582px;height:292px;background:#FFFFFF;" version="1.1" viewBox="0 0 582 292" width="582px" zoomAndPan="magnify"><defs/><g><rect fill="#FFFFFF" height="171.6172" style="stroke:#181818;stroke-width:1.0;" width="10" x="152" y="61.2813"/><rect fill="#FFFFFF" height="143.0938" style="stroke:#181818;stroke-width:1.0;" width="10" x="162" y="89.8047"/><rect fill="#FFFFFF" height="143.0938" style="stroke:#181818;stroke-width:1.0;" width="10" x="162" y="89.8047"/><rect fill="#FFFFFF" height="28.5234" style="stroke:#181818;stroke-width:1.0;" width="10" x="486" y="146.8516"/><rect fill="none" height="73.5703" style="stroke:#000000;stroke-width:1.5;" width="566.5" x="10" y="109.8047"/><line style="stroke:#181818;stroke-width:0.5;stroke-dasharray:5.0,5.0;" x1="157" x2="157" y1="51.2813" y2="241.8984"/><line style="stroke:#181818;stroke-width:0.5;stroke-dasharray:5.0,5.0;" x1="490.5" x2="490.5" y1="51.2813" y2="241.8984"/><rect fill="#E2E2F0" height="29.6406" rx="2.5" ry="2.5" style="stroke:#181818;stroke-width:0.5;" width="274" x="20" y="20.6406"/><text fill="#000000" font-family="sans-serif" font-size="14" lengthAdjust="spacing" textLength="260" x="27" y="40.3145">:PublishAnnouncementRequestController</text><rect fill="#E2E2F0" height="29.6406" rx="2.5" ry="2.5" style="stroke:#181818;stroke-width:0.5;" width="274" x="20" y="240.8984"/><text fill="#000000" font-family="sans-serif" font-size="14" lengthAdjust="spacing" textLength="260" x="27" y="260.5723">:PublishAnnouncementRequestController</text><rect fill="#E2E2F0" height="45.2813" rx="2.5" ry="2.5" style="stroke:#181818;stroke-width:0.5;" width="151" x="415.5" y="5"/><text fill="#000000" font-family="sans-serif" font-size="14" lengthAdjust="spacing" textLength="130" x="426" y="24.6738">comissionRepository</text><text fill="#000000" font-family="sans-serif" font-size="14" lengthAdjust="spacing" textLength="137" x="422.5" y="40.3145">:ComissionRepository</text><rect fill="#E2E2F0" height="45.2813" rx="2.5" ry="2.5" style="stroke:#181818;stroke-width:0.5;" width="151" x="415.5" y="240.8984"/><text fill="#000000" font-family="sans-serif" font-size="14" lengthAdjust="spacing" textLength="130" x="426" y="260.5723">comissionRepository</text><text fill="#000000" font-family="sans-serif" font-size="14" lengthAdjust="spacing" textLength="137" x="422.5" y="276.2129">:ComissionRepository</text><rect fill="#FFFFFF" height="171.6172" style="stroke:#181818;stroke-width:1.0;" width="10" x="152" y="61.2813"/><rect fill="#FFFFFF" height="143.0938" style="stroke:#181818;stroke-width:1.0;" width="10" x="162" y="89.8047"/><rect fill="#FFFFFF" height="143.0938" style="stroke:#181818;stroke-width:1.0;" width="10" x="162" y="89.8047"/><rect fill="#FFFFFF" height="28.5234" style="stroke:#181818;stroke-width:1.0;" width="10" x="486" y="146.8516"/><line style="stroke:#181818;stroke-width:1.0;" x1="162" x2="209" y1="76.8047" y2="76.8047"/><line style="stroke:#181818;stroke-width:1.0;" x1="209" x2="209" y1="76.8047" y2="89.8047"/><line style="stroke:#181818;stroke-width:1.0;" x1="168" x2="209" y1="89.8047" y2="89.8047"/><polygon fill="#181818" points="178,85.8047,168,89.8047,178,93.8047,174,89.8047" style="stroke:#181818;stroke-width:1.0;"/><text fill="#000000" font-family="sans-serif" font-size="13" font-weight="bold" lengthAdjust="spacing" textLength="14" x="174" y="72.0498">56</text><text fill="#000000" font-family="sans-serif" font-size="13" lengthAdjust="spacing" textLength="292" x="192" y="72.0498">getComissionByDescription(comissionDescription)</text><path d="M10,109.8047 L241,109.8047 L241,116.3281 L231,126.3281 L10,126.3281 L10,109.8047 " fill="#EEEEEE" style="stroke:#000000;stroke-width:1.5;"/><rect fill="none" height="73.5703" style="stroke:#000000;stroke-width:1.5;" width="566.5" x="10" y="109.8047"/><text fill="#000000" font-family="sans-serif" font-size="13" font-weight="bold" lengthAdjust="spacing" textLength="186" x="25" y="122.5732">Get Comission By Description</text><polygon fill="#181818" points="474,142.8516,484,146.8516,474,150.8516,478,146.8516" style="stroke:#181818;stroke-width:1.0;"/><line style="stroke:#181818;stroke-width:1.0;" x1="172" x2="480" y1="146.8516" y2="146.8516"/><text fill="#000000" font-family="sans-serif" font-size="13" font-weight="bold" lengthAdjust="spacing" textLength="14" x="179" y="142.0967">57</text><text fill="#000000" font-family="sans-serif" font-size="13" lengthAdjust="spacing" textLength="168" x="197" y="142.0967">getComissionByDescription()</text><polygon fill="#181818" points="183,171.375,173,175.375,183,179.375,179,175.375" style="stroke:#181818;stroke-width:1.0;"/><line style="stroke:#181818;stroke-width:1.0;stroke-dasharray:2.0,2.0;" x1="177" x2="490" y1="175.375" y2="175.375"/><text fill="#000000" font-family="sans-serif" font-size="13" font-weight="bold" lengthAdjust="spacing" textLength="14" x="189" y="170.6201">58</text><text fill="#000000" font-family="sans-serif" font-size="13" lengthAdjust="spacing" textLength="59" x="207" y="170.6201">comission</text><line style="stroke:#181818;stroke-width:1.0;stroke-dasharray:2.0,2.0;" x1="172" x2="214" y1="210.8984" y2="210.8984"/><line style="stroke:#181818;stroke-width:1.0;stroke-dasharray:2.0,2.0;" x1="214" x2="214" y1="210.8984" y2="223.8984"/><line style="stroke:#181818;stroke-width:1.0;stroke-dasharray:2.0,2.0;" x1="173" x2="214" y1="223.8984" y2="223.8984"/><polygon fill="#181818" points="183,219.8984,173,223.8984,183,227.8984,179,223.8984" style="stroke:#181818;stroke-width:1.0;"/><text fill="#000000" font-family="sans-serif" font-size="13" font-weight="bold" lengthAdjust="spacing" textLength="14" x="179" y="206.1436">59</text><text fill="#000000" font-family="sans-serif" font-size="13" lengthAdjust="spacing" textLength="59" x="197" y="206.1436">comisison</text><!--SRC=[bL4zRm8n3DtpAo8Mod3S1CEfgbIen5eniuIS1POI9uqTfFlt3Gm7LKyeZ7vwVX_s_2mIkMlRw0n9zcvfWsyPVZAGXQP7Sqh6AnLD4hGO2qdFkkzyTCZdJwAG2yq3oVwwmh8D92au1scc3UiQub_jOe_C66WFCJ1AICE1kkr_zAO_WIjbiWJA_WX9hzPbj88N8r0NfeQacuygiUu4CYRS35_0Dc6KChoDDH_0XL9gbqAEUWTohwOtWtvWlLheLNhj0IPE_wJluXvZycTLhkzDCsax7bFryDm6gAyiMFlYcpToyVu5]--></g></svg>