<?xml version="1.0" encoding="us-ascii" standalone="no"?><svg xmlns="http://www.w3.org/2000/svg" xmlns:xlink="http://www.w3.org/1999/xlink" contentStyleType="text/css" height="380px" preserveAspectRatio="none" style="width:685px;height:380px;background:#FFFFFF;" version="1.1" viewBox="0 0 685 380" width="685px" zoomAndPan="magnify"><defs/><g><rect fill="#FFFFFF" height="239.1875" style="stroke:#181818;stroke-width:1.0;" width="10" x="152" y="81.8047"/><rect fill="#FFFFFF" height="28.5234" style="stroke:#181818;stroke-width:1.0;" width="10" x="347.5" y="133.8516"/><rect fill="#FFFFFF" height="28.5234" style="stroke:#181818;stroke-width:1.0;" width="10" x="454.5" y="190.8984"/><rect fill="#FFFFFF" height="28.5234" style="stroke:#181818;stroke-width:1.0;" width="10" x="588.5" y="247.9453"/><rect fill="none" height="187.6641" style="stroke:#000000;stroke-width:1.5;" width="669" x="10" y="96.8047"/><line style="stroke:#181818;stroke-width:0.5;stroke-dasharray:5.0,5.0;" x1="157" x2="157" y1="51.2813" y2="329.9922"/><line style="stroke:#181818;stroke-width:0.5;stroke-dasharray:5.0,5.0;" x1="352" x2="352" y1="51.2813" y2="329.9922"/><line style="stroke:#181818;stroke-width:0.5;stroke-dasharray:5.0,5.0;" x1="459" x2="459" y1="51.2813" y2="329.9922"/><line style="stroke:#181818;stroke-width:0.5;stroke-dasharray:5.0,5.0;" x1="593" x2="593" y1="51.2813" y2="329.9922"/><rect fill="#E2E2F0" height="29.6406" rx="2.5" ry="2.5" style="stroke:#181818;stroke-width:0.5;" width="274" x="20" y="20.6406"/><text fill="#000000" font-family="sans-serif" font-size="14" lengthAdjust="spacing" textLength="260" x="27" y="40.3145">:PublishAnnouncementRequestController</text><rect fill="#E2E2F0" height="29.6406" rx="2.5" ry="2.5" style="stroke:#181818;stroke-width:0.5;" width="274" x="20" y="328.9922"/><text fill="#000000" font-family="sans-serif" font-size="14" lengthAdjust="spacing" textLength="260" x="27" y="348.666">:PublishAnnouncementRequestController</text><rect fill="#E2E2F0" height="29.6406" rx="2.5" ry="2.5" style="stroke:#181818;stroke-width:0.5;" width="97" x="304" y="20.6406"/><text fill="#000000" font-family="sans-serif" font-size="14" lengthAdjust="spacing" textLength="83" x="311" y="40.3145">:Repositories</text><rect fill="#E2E2F0" height="29.6406" rx="2.5" ry="2.5" style="stroke:#181818;stroke-width:0.5;" width="97" x="304" y="328.9922"/><text fill="#000000" font-family="sans-serif" font-size="14" lengthAdjust="spacing" textLength="83" x="311" y="348.666">:Repositories</text><rect fill="#E2E2F0" height="45.2813" rx="2.5" ry="2.5" style="stroke:#181818;stroke-width:0.5;" width="97" x="411" y="5"/><text fill="#000000" font-family="sans-serif" font-size="14" lengthAdjust="spacing" textLength="74" x="422.5" y="24.6738">repositories</text><text fill="#000000" font-family="sans-serif" font-size="14" lengthAdjust="spacing" textLength="83" x="418" y="40.3145">:Repositories</text><rect fill="#E2E2F0" height="45.2813" rx="2.5" ry="2.5" style="stroke:#181818;stroke-width:0.5;" width="97" x="411" y="328.9922"/><text fill="#000000" font-family="sans-serif" font-size="14" lengthAdjust="spacing" textLength="74" x="422.5" y="348.666">repositories</text><text fill="#000000" font-family="sans-serif" font-size="14" lengthAdjust="spacing" textLength="83" x="418" y="364.3066">:Repositories</text><rect fill="#E2E2F0" height="45.2813" rx="2.5" ry="2.5" style="stroke:#181818;stroke-width:0.5;" width="151" x="518" y="5"/><text fill="#000000" font-family="sans-serif" font-size="14" lengthAdjust="spacing" textLength="130" x="528.5" y="24.6738">comissionRepository</text><text fill="#000000" font-family="sans-serif" font-size="14" lengthAdjust="spacing" textLength="137" x="525" y="40.3145">:ComissionRepository</text><rect fill="#E2E2F0" height="45.2813" rx="2.5" ry="2.5" style="stroke:#181818;stroke-width:0.5;" width="151" x="518" y="328.9922"/><text fill="#000000" font-family="sans-serif" font-size="14" lengthAdjust="spacing" textLength="130" x="528.5" y="348.666">comissionRepository</text><text fill="#000000" font-family="sans-serif" font-size="14" lengthAdjust="spacing" textLength="137" x="525" y="364.3066">:ComissionRepository</text><rect fill="#FFFFFF" height="239.1875" style="stroke:#181818;stroke-width:1.0;" width="10" x="152" y="81.8047"/><rect fill="#FFFFFF" height="28.5234" style="stroke:#181818;stroke-width:1.0;" width="10" x="347.5" y="133.8516"/><rect fill="#FFFFFF" height="28.5234" style="stroke:#181818;stroke-width:1.0;" width="10" x="454.5" y="190.8984"/><rect fill="#FFFFFF" height="28.5234" style="stroke:#181818;stroke-width:1.0;" width="10" x="588.5" y="247.9453"/><polygon fill="#181818" points="140,77.8047,150,81.8047,140,85.8047,144,81.8047" style="stroke:#181818;stroke-width:1.0;"/><line style="stroke:#181818;stroke-width:1.0;" x1="0" x2="146" y1="81.8047" y2="81.8047"/><text fill="#000000" font-family="sans-serif" font-size="13" font-weight="bold" lengthAdjust="spacing" textLength="14" x="7" y="77.0498">42</text><text fill="#000000" font-family="sans-serif" font-size="13" lengthAdjust="spacing" textLength="115" x="25" y="77.0498">getTypeComission()</text><path d="M10,96.8047 L172,96.8047 L172,103.3281 L162,113.3281 L10,113.3281 L10,96.8047 " fill="#EEEEEE" style="stroke:#000000;stroke-width:1.5;"/><rect fill="none" height="187.6641" style="stroke:#000000;stroke-width:1.5;" width="669" x="10" y="96.8047"/><text fill="#000000" font-family="sans-serif" font-size="13" font-weight="bold" lengthAdjust="spacing" textLength="117" x="25" y="109.5732">Get Comission List</text><polygon fill="#181818" points="335.5,129.8516,345.5,133.8516,335.5,137.8516,339.5,133.8516" style="stroke:#181818;stroke-width:1.0;"/><line style="stroke:#181818;stroke-width:1.0;" x1="162" x2="341.5" y1="133.8516" y2="133.8516"/><text fill="#000000" font-family="sans-serif" font-size="13" font-weight="bold" lengthAdjust="spacing" textLength="14" x="169" y="129.0967">43</text><text fill="#000000" font-family="sans-serif" font-size="13" lengthAdjust="spacing" textLength="75" x="187" y="129.0967">getInstance()</text><polygon fill="#181818" points="173,158.375,163,162.375,173,166.375,169,162.375" style="stroke:#181818;stroke-width:1.0;"/><line style="stroke:#181818;stroke-width:1.0;stroke-dasharray:2.0,2.0;" x1="167" x2="351.5" y1="162.375" y2="162.375"/><text fill="#000000" font-family="sans-serif" font-size="13" font-weight="bold" lengthAdjust="spacing" textLength="14" x="179" y="157.6201">44</text><text fill="#000000" font-family="sans-serif" font-size="13" lengthAdjust="spacing" textLength="67" x="197" y="157.6201">repositories</text><polygon fill="#181818" points="442.5,186.8984,452.5,190.8984,442.5,194.8984,446.5,190.8984" style="stroke:#181818;stroke-width:1.0;"/><line style="stroke:#181818;stroke-width:1.0;" x1="162" x2="448.5" y1="190.8984" y2="190.8984"/><text fill="#000000" font-family="sans-serif" font-size="13" font-weight="bold" lengthAdjust="spacing" textLength="14" x="169" y="186.1436">45</text><text fill="#000000" font-family="sans-serif" font-size="13" lengthAdjust="spacing" textLength="177" x="187" y="186.1436">getTypeComissionRepository()</text><polygon fill="#181818" points="173,215.4219,163,219.4219,173,223.4219,169,219.4219" style="stroke:#181818;stroke-width:1.0;"/><line style="stroke:#181818;stroke-width:1.0;stroke-dasharray:2.0,2.0;" x1="167" x2="458.5" y1="219.4219" y2="219.4219"/><text fill="#000000" font-family="sans-serif" font-size="13" font-weight="bold" lengthAdjust="spacing" textLength="14" x="179" y="214.667">46</text><text fill="#000000" font-family="sans-serif" font-size="13" lengthAdjust="spacing" textLength="148" x="197" y="214.667">typeComissionRepository</text><polygon fill="#181818" points="576.5,243.9453,586.5,247.9453,576.5,251.9453,580.5,247.9453" style="stroke:#181818;stroke-width:1.0;"/><line style="stroke:#181818;stroke-width:1.0;" x1="162" x2="582.5" y1="247.9453" y2="247.9453"/><text fill="#000000" font-family="sans-serif" font-size="13" font-weight="bold" lengthAdjust="spacing" textLength="14" x="169" y="243.1904">47</text><text fill="#000000" font-family="sans-serif" font-size="13" lengthAdjust="spacing" textLength="115" x="187" y="243.1904">getTypeComission()</text><polygon fill="#181818" points="173,272.4688,163,276.4688,173,280.4688,169,276.4688" style="stroke:#181818;stroke-width:1.0;"/><line style="stroke:#181818;stroke-width:1.0;stroke-dasharray:2.0,2.0;" x1="167" x2="592.5" y1="276.4688" y2="276.4688"/><text fill="#000000" font-family="sans-serif" font-size="13" font-weight="bold" lengthAdjust="spacing" textLength="14" x="179" y="271.7139">48</text><text fill="#000000" font-family="sans-serif" font-size="13" lengthAdjust="spacing" textLength="93" x="197" y="271.7139">Type Comission</text><polygon fill="#181818" points="11,307.9922,1,311.9922,11,315.9922,7,311.9922" style="stroke:#181818;stroke-width:1.0;"/><line style="stroke:#181818;stroke-width:1.0;stroke-dasharray:2.0,2.0;" x1="5" x2="151" y1="311.9922" y2="311.9922"/><text fill="#000000" font-family="sans-serif" font-size="13" font-weight="bold" lengthAdjust="spacing" textLength="14" x="17" y="307.2373">49</text><text fill="#000000" font-family="sans-serif" font-size="13" lengthAdjust="spacing" textLength="93" x="35" y="307.2373">Type Comission</text><!--SRC=[bLDDIyGm4BtdLuIzg8TQ44z51Dd38dYGrQENR3jq0saIaucm_zviXIPfKqnxAKtVlAzfRyw8sZPrhGMJw0PntwgXjl3jGBPGTPprXWs4Q6QGjrnx4Dqrx-uak3s_IAcSXmqWyNWTiRXN4eqI0ioECajBW3Fk8sXbEIh3mOuS7rps0b3956WYt9TSZiNlqqcVa5lBbPncBfvWlpmTUJBdX13cl24tdC3GnmV_J6ZrN9IMDhG7_Bnec8Xlx_nuk0v6EUrlW46Rld6B2Ogro7yOGbd5yMIHIvzcwltFygkqo3pUkytP25kANmUEghoVP7CHMGV_g9KcYmKo-mYBNicQ68mH2V66n9YNNmc_Ah-bWunS_jESyOSMiZ_679sJsL3CrKpWMB17fMJTWEn6IqzLLQQubFm5]--></g></svg>