<?xml version="1.0" encoding="us-ascii" standalone="no"?><svg xmlns="http://www.w3.org/2000/svg" xmlns:xlink="http://www.w3.org/1999/xlink" contentStyleType="text/css" height="819px" preserveAspectRatio="none" style="width:2129px;height:819px;background:#FFFFFF;" version="1.1" viewBox="0 0 2129 819" width="2129px" zoomAndPan="magnify"><defs/><g><rect fill="#FFFFFF" height="729.75" style="stroke:#181818;stroke-width:1.0;" width="10" x="137" y="45.6406"/><rect fill="#FFFFFF" height="709.2266" style="stroke:#181818;stroke-width:1.0;" width="10" x="434" y="66.1641"/><rect fill="#FFFFFF" height="28" style="stroke:#181818;stroke-width:1.0;" width="10" x="439" y="589.7031"/><rect fill="#FFFFFF" height="30" style="stroke:#181818;stroke-width:1.0;" width="10" x="1146" y="693.8672"/><rect fill="#FFFFFF" height="28.5234" style="stroke:#181818;stroke-width:1.0;" width="10" x="1547" y="182.375"/><rect fill="#FFFFFF" height="28.5234" style="stroke:#181818;stroke-width:1.0;" width="10" x="1547" y="239.4219"/><rect fill="#FFFFFF" height="28.5234" style="stroke:#181818;stroke-width:1.0;" width="10" x="1547" y="296.4688"/><rect fill="#FFFFFF" height="28.5234" style="stroke:#181818;stroke-width:1.0;" width="10" x="1547" y="353.5156"/><rect fill="#FFFFFF" height="28.5234" style="stroke:#181818;stroke-width:1.0;" width="10" x="1547" y="410.5625"/><rect fill="#FFFFFF" height="28.5234" style="stroke:#181818;stroke-width:1.0;" width="10" x="1547" y="467.6094"/><rect fill="#FFFFFF" height="28.5234" style="stroke:#181818;stroke-width:1.0;" width="10" x="1547" y="524.6563"/><rect fill="none" height="657.7031" style="stroke:#000000;stroke-width:1.5;" width="1741.5" x="382" y="81.1641"/><rect fill="none" height="586.5391" style="stroke:#000000;stroke-width:1.5;" width="1721.5" x="392" y="145.3281"/><line style="stroke:#181818;stroke-width:0.5;stroke-dasharray:5.0,5.0;" x1="142" x2="142" y1="35.6406" y2="784.3906"/><line style="stroke:#181818;stroke-width:0.5;stroke-dasharray:5.0,5.0;" x1="439" x2="439" y1="35.6406" y2="784.3906"/><line style="stroke:#181818;stroke-width:0.5;stroke-dasharray:5.0,5.0;" x1="1150.5" x2="1150.5" y1="128.0078" y2="784.3906"/><line style="stroke:#181818;stroke-width:0.5;stroke-dasharray:5.0,5.0;" x1="1551.5" x2="1551.5" y1="35.6406" y2="784.3906"/><line style="stroke:#181818;stroke-width:0.5;stroke-dasharray:5.0,5.0;" x1="1924.5" x2="1924.5" y1="663.0234" y2="784.3906"/><rect fill="#E2E2F0" height="29.6406" rx="2.5" ry="2.5" style="stroke:#181818;stroke-width:0.5;" width="274" x="5" y="5"/><text fill="#000000" font-family="sans-serif" font-size="14" lengthAdjust="spacing" textLength="260" x="12" y="24.6738">:PublishAnnouncementRequestController</text><rect fill="#E2E2F0" height="29.6406" rx="2.5" ry="2.5" style="stroke:#181818;stroke-width:0.5;" width="274" x="5" y="783.3906"/><text fill="#000000" font-family="sans-serif" font-size="14" lengthAdjust="spacing" textLength="260" x="12" y="803.0645">:PublishAnnouncementRequestController</text><rect fill="#E2E2F0" height="29.6406" rx="2.5" ry="2.5" style="stroke:#181818;stroke-width:0.5;" width="74" x="402" y="5"/><text fill="#000000" font-family="sans-serif" font-size="14" lengthAdjust="spacing" textLength="60" x="409" y="24.6738">:XMapper</text><rect fill="#E2E2F0" height="29.6406" rx="2.5" ry="2.5" style="stroke:#181818;stroke-width:0.5;" width="74" x="402" y="783.3906"/><text fill="#000000" font-family="sans-serif" font-size="14" lengthAdjust="spacing" textLength="60" x="409" y="803.0645">:XMapper</text><rect fill="#E2E2F0" height="29.6406" rx="2.5" ry="2.5" style="stroke:#181818;stroke-width:0.5;" width="413" x="944.5" y="783.3906"/><text fill="#000000" font-family="sans-serif" font-size="14" lengthAdjust="spacing" textLength="399" x="951.5" y="803.0645">listAnnouncementRequestDto:List&lt;AnnouncementRequestDto&gt;</text><rect fill="#E2E2F0" height="29.6406" rx="2.5" ry="2.5" style="stroke:#181818;stroke-width:0.5;" width="369" x="1367.5" y="5"/><text fill="#000000" font-family="sans-serif" font-size="14" lengthAdjust="spacing" textLength="355" x="1374.5" y="24.6738">listAnnouncementRequest:List&lt;AnnouncementRequest&gt;</text><rect fill="#E2E2F0" height="29.6406" rx="2.5" ry="2.5" style="stroke:#181818;stroke-width:0.5;" width="369" x="1367.5" y="783.3906"/><text fill="#000000" font-family="sans-serif" font-size="14" lengthAdjust="spacing" textLength="355" x="1374.5" y="803.0645">listAnnouncementRequest:List&lt;AnnouncementRequest&gt;</text><rect fill="#E2E2F0" height="29.6406" rx="2.5" ry="2.5" style="stroke:#181818;stroke-width:0.5;" width="357" x="1746.5" y="783.3906"/><text fill="#000000" font-family="sans-serif" font-size="14" lengthAdjust="spacing" textLength="343" x="1753.5" y="803.0645">announcementRequestDto:AnnouncementRequestDto</text><rect fill="#FFFFFF" height="729.75" style="stroke:#181818;stroke-width:1.0;" width="10" x="137" y="45.6406"/><rect fill="#FFFFFF" height="709.2266" style="stroke:#181818;stroke-width:1.0;" width="10" x="434" y="66.1641"/><rect fill="#FFFFFF" height="28" style="stroke:#181818;stroke-width:1.0;" width="10" x="439" y="589.7031"/><rect fill="#FFFFFF" height="30" style="stroke:#181818;stroke-width:1.0;" width="10" x="1146" y="693.8672"/><rect fill="#FFFFFF" height="28.5234" style="stroke:#181818;stroke-width:1.0;" width="10" x="1547" y="182.375"/><rect fill="#FFFFFF" height="28.5234" style="stroke:#181818;stroke-width:1.0;" width="10" x="1547" y="239.4219"/><rect fill="#FFFFFF" height="28.5234" style="stroke:#181818;stroke-width:1.0;" width="10" x="1547" y="296.4688"/><rect fill="#FFFFFF" height="28.5234" style="stroke:#181818;stroke-width:1.0;" width="10" x="1547" y="353.5156"/><rect fill="#FFFFFF" height="28.5234" style="stroke:#181818;stroke-width:1.0;" width="10" x="1547" y="410.5625"/><rect fill="#FFFFFF" height="28.5234" style="stroke:#181818;stroke-width:1.0;" width="10" x="1547" y="467.6094"/><rect fill="#FFFFFF" height="28.5234" style="stroke:#181818;stroke-width:1.0;" width="10" x="1547" y="524.6563"/><polygon fill="#181818" points="422,62.1641,432,66.1641,422,70.1641,426,66.1641" style="stroke:#181818;stroke-width:1.0;"/><line style="stroke:#181818;stroke-width:1.0;" x1="147" x2="428" y1="66.1641" y2="66.1641"/><text fill="#000000" font-family="sans-serif" font-size="13" font-weight="bold" lengthAdjust="spacing" textLength="14" x="154" y="61.4092">19</text><text fill="#000000" font-family="sans-serif" font-size="13" lengthAdjust="spacing" textLength="250" x="172" y="61.4092">toDto(announcementsRequestListByAgent)</text><path d="M382,81.1641 L696,81.1641 L696,87.6875 L686,97.6875 L382,97.6875 L382,81.1641 " fill="#EEEEEE" style="stroke:#000000;stroke-width:1.5;"/><rect fill="none" height="657.7031" style="stroke:#000000;stroke-width:1.5;" width="1741.5" x="382" y="81.1641"/><text fill="#000000" font-family="sans-serif" font-size="13" font-weight="bold" lengthAdjust="spacing" textLength="269" x="397" y="93.9326">Get AnnouncementRequest List Using DTO</text><polygon fill="#181818" points="932.5,114.2109,942.5,118.2109,932.5,122.2109,936.5,118.2109" style="stroke:#181818;stroke-width:1.0;"/><line style="stroke:#181818;stroke-width:1.0;stroke-dasharray:2.0,2.0;" x1="444" x2="938.5" y1="118.2109" y2="118.2109"/><text fill="#000000" font-family="sans-serif" font-size="13" font-weight="bold" lengthAdjust="spacing" textLength="14" x="451" y="113.4561">20</text><text fill="#000000" font-family="sans-serif" font-size="13" lengthAdjust="spacing" textLength="44" x="469" y="113.4561">create()</text><rect fill="#E2E2F0" height="29.6406" rx="2.5" ry="2.5" style="stroke:#181818;stroke-width:0.5;" width="413" x="944.5" y="97.6875"/><text fill="#000000" font-family="sans-serif" font-size="14" lengthAdjust="spacing" textLength="399" x="951.5" y="117.3613">listAnnouncementRequestDto:List&lt;AnnouncementRequestDto&gt;</text><path d="M392,145.3281 L465,145.3281 L465,151.8516 L455,161.8516 L392,161.8516 L392,145.3281 " fill="#EEEEEE" style="stroke:#000000;stroke-width:1.5;"/><rect fill="none" height="586.5391" style="stroke:#000000;stroke-width:1.5;" width="1721.5" x="392" y="145.3281"/><text fill="#000000" font-family="sans-serif" font-size="13" font-weight="bold" lengthAdjust="spacing" textLength="28" x="407" y="158.0967">loop</text><polygon fill="#181818" points="1535,178.375,1545,182.375,1535,186.375,1539,182.375" style="stroke:#181818;stroke-width:1.0;"/><line style="stroke:#181818;stroke-width:1.0;" x1="444" x2="1541" y1="182.375" y2="182.375"/><text fill="#000000" font-family="sans-serif" font-size="13" font-weight="bold" lengthAdjust="spacing" textLength="14" x="451" y="177.6201">21</text><text fill="#000000" font-family="sans-serif" font-size="13" lengthAdjust="spacing" textLength="108" x="469" y="177.6201">agent = getAgent()</text><polygon fill="#181818" points="1535,235.4219,1545,239.4219,1535,243.4219,1539,239.4219" style="stroke:#181818;stroke-width:1.0;"/><line style="stroke:#181818;stroke-width:1.0;" x1="444" x2="1541" y1="239.4219" y2="239.4219"/><text fill="#000000" font-family="sans-serif" font-size="13" font-weight="bold" lengthAdjust="spacing" textLength="14" x="451" y="234.667">23</text><text fill="#000000" font-family="sans-serif" font-size="13" lengthAdjust="spacing" textLength="138" x="469" y="234.667">property = getProperty()</text><polygon fill="#181818" points="1535,292.4688,1545,296.4688,1535,300.4688,1539,296.4688" style="stroke:#181818;stroke-width:1.0;"/><line style="stroke:#181818;stroke-width:1.0;" x1="444" x2="1541" y1="296.4688" y2="296.4688"/><text fill="#000000" font-family="sans-serif" font-size="13" font-weight="bold" lengthAdjust="spacing" textLength="14" x="451" y="291.7139">25</text><text fill="#000000" font-family="sans-serif" font-size="13" lengthAdjust="spacing" textLength="229" x="469" y="291.7139">typeOfBusiness = getTypeOfBusiness()</text><polygon fill="#181818" points="1535,349.5156,1545,353.5156,1535,357.5156,1539,353.5156" style="stroke:#181818;stroke-width:1.0;"/><line style="stroke:#181818;stroke-width:1.0;" x1="444" x2="1541" y1="353.5156" y2="353.5156"/><text fill="#000000" font-family="sans-serif" font-size="13" font-weight="bold" lengthAdjust="spacing" textLength="14" x="451" y="348.7607">27</text><text fill="#000000" font-family="sans-serif" font-size="13" lengthAdjust="spacing" textLength="194" x="469" y="348.7607">propertyType = getPropertyType()</text><polygon fill="#181818" points="1535,406.5625,1545,410.5625,1535,414.5625,1539,410.5625" style="stroke:#181818;stroke-width:1.0;"/><line style="stroke:#181818;stroke-width:1.0;" x1="444" x2="1541" y1="410.5625" y2="410.5625"/><text fill="#000000" font-family="sans-serif" font-size="13" font-weight="bold" lengthAdjust="spacing" textLength="14" x="451" y="405.8076">29</text><text fill="#000000" font-family="sans-serif" font-size="13" lengthAdjust="spacing" textLength="148" x="469" y="405.8076">business = getBusiness()</text><polygon fill="#181818" points="1535,463.6094,1545,467.6094,1535,471.6094,1539,467.6094" style="stroke:#181818;stroke-width:1.0;"/><line style="stroke:#181818;stroke-width:1.0;" x1="444" x2="1541" y1="467.6094" y2="467.6094"/><text fill="#000000" font-family="sans-serif" font-size="13" font-weight="bold" lengthAdjust="spacing" textLength="14" x="451" y="462.8545">31</text><text fill="#000000" font-family="sans-serif" font-size="13" lengthAdjust="spacing" textLength="90" x="469" y="462.8545">date = geDate()</text><polygon fill="#181818" points="1535,520.6563,1545,524.6563,1535,528.6563,1539,524.6563" style="stroke:#181818;stroke-width:1.0;"/><line style="stroke:#181818;stroke-width:1.0;" x1="444" x2="1541" y1="524.6563" y2="524.6563"/><text fill="#000000" font-family="sans-serif" font-size="13" font-weight="bold" lengthAdjust="spacing" textLength="14" x="451" y="519.9014">33</text><text fill="#000000" font-family="sans-serif" font-size="13" lengthAdjust="spacing" textLength="173" x="469" y="519.9014">durationOfContract = geDate()</text><line style="stroke:#181818;stroke-width:1.0;" x1="449" x2="491" y1="581.7031" y2="581.7031"/><line style="stroke:#181818;stroke-width:1.0;" x1="491" x2="491" y1="581.7031" y2="594.7031"/><line style="stroke:#181818;stroke-width:1.0;" x1="450" x2="491" y1="594.7031" y2="594.7031"/><polygon fill="#181818" points="460,590.7031,450,594.7031,460,598.7031,456,594.7031" style="stroke:#181818;stroke-width:1.0;"/><text fill="#000000" font-family="sans-serif" font-size="13" font-weight="bold" lengthAdjust="spacing" textLength="14" x="456" y="576.9482">35</text><text fill="#000000" font-family="sans-serif" font-size="13" lengthAdjust="spacing" textLength="670" x="474" y="576.9482">announcementsRequestDto = toDto(agent,property,typeOfBusiness,propertyType,business,date,durationOfContract)</text><polygon fill="#181818" points="1734.5,649.2266,1744.5,653.2266,1734.5,657.2266,1738.5,653.2266" style="stroke:#181818;stroke-width:1.0;"/><line style="stroke:#181818;stroke-width:1.0;stroke-dasharray:2.0,2.0;" x1="444" x2="1740.5" y1="653.2266" y2="653.2266"/><text fill="#000000" font-family="sans-serif" font-size="13" font-weight="bold" lengthAdjust="spacing" textLength="14" x="451" y="648.4717">36</text><text fill="#000000" font-family="sans-serif" font-size="13" lengthAdjust="spacing" textLength="56" x="469" y="648.4717">create(...)</text><rect fill="#E2E2F0" height="29.6406" rx="2.5" ry="2.5" style="stroke:#181818;stroke-width:0.5;" width="357" x="1746.5" y="632.7031"/><text fill="#000000" font-family="sans-serif" font-size="14" lengthAdjust="spacing" textLength="343" x="1753.5" y="652.377">announcementRequestDto:AnnouncementRequestDto</text><polygon fill="#181818" points="1134,689.8672,1144,693.8672,1134,697.8672,1138,693.8672" style="stroke:#181818;stroke-width:1.0;"/><line style="stroke:#181818;stroke-width:1.0;" x1="444" x2="1140" y1="693.8672" y2="693.8672"/><text fill="#000000" font-family="sans-serif" font-size="13" font-weight="bold" lengthAdjust="spacing" textLength="14" x="451" y="689.1123">37</text><text fill="#000000" font-family="sans-serif" font-size="13" lengthAdjust="spacing" textLength="182" x="469" y="689.1123">add(announcementRequestDto)</text><polygon fill="#181818" points="158,762.3906,148,766.3906,158,770.3906,154,766.3906" style="stroke:#181818;stroke-width:1.0;"/><line style="stroke:#181818;stroke-width:1.0;stroke-dasharray:2.0,2.0;" x1="152" x2="433" y1="766.3906" y2="766.3906"/><text fill="#000000" font-family="sans-serif" font-size="13" font-weight="bold" lengthAdjust="spacing" textLength="14" x="164" y="761.6357">38</text><text fill="#000000" font-family="sans-serif" font-size="13" lengthAdjust="spacing" textLength="172" x="182" y="761.6357">listAnnouncementRequestDto</text><!--SRC=[pPLHJy8m4CVV-oakl0XaG7oqKHAGX1SDn61YOdmeMu4bMrlRgmdVtdPiika6yqLvMDArT__xzQwzNkqGbQ6ZaKgOG9icmr2c8yFVBHSX7qGnssgM4gAOnZYCbJE23btQTHARtKG8QPrPoWK-UHU3zrAWbad2TGUOWJQ6txHV7fbIkNi-hbeuGQmHdA6a3sxfjdvjd0as-xQAqHZWf7fLcjMZrrDbiWt0X5cKmgPhhk7wnls667ymvEsIJjfOmM1Sr802IXUrMyOtkOFFodG_sRgftX6ZA1wPQsaLp3dMxGIyCpoRM6nXjbeGahl1mCLkBbU_Jo7KtCNfzWX9f5GbpqP7eCn3mXriEMQytH9mK_cEmg-xE8guU6iCG2B-2xb66GfAIsU2-mFgCl-xL5hSAxxOJAsh8ZVcmBogp5rwdZrjDTT-vbAfrvLCNtgE8w_WIMU7w_hdaEqehMOOIx7OPFtFgVuhSmcv65AeQxwk6JhGl3dxbXOKPpgeNikWVDQ3uWW5lZh1pytNDV8IzzTSkLsVRTN3uR3NfXh-GGGMHTtwn_9yERBtyNoQlHaNKVQLDzBcRQIdH3y1]--></g></svg>