<?xml version="1.0" encoding="us-ascii" standalone="no"?><svg xmlns="http://www.w3.org/2000/svg" xmlns:xlink="http://www.w3.org/1999/xlink" contentStyleType="text/css" height="528px" preserveAspectRatio="none" style="width:659px;height:528px;background:#FFFFFF;" version="1.1" viewBox="0 0 659 528" width="659px" zoomAndPan="magnify"><defs/><g><text fill="#000000" font-family="sans-serif" font-size="14" font-weight="bold" lengthAdjust="spacing" textLength="499" x="79.25" y="28.5352">System Sequence Diagram (SSD) - Doesn't select an ordering method</text><rect fill="#FFFFFF" height="309.416" style="stroke:#181818;stroke-width:1.0;" width="10" x="64.5" y="128.9766"/><rect fill="#FFFFFF" height="29.3105" style="stroke:#181818;stroke-width:1.0;" width="10" x="615.5" y="150.2871"/><rect fill="#FFFFFF" height="44.6211" style="stroke:#181818;stroke-width:1.0;" width="10" x="615.5" y="208.9082"/><rect fill="#FFFFFF" height="29.3105" style="stroke:#181818;stroke-width:1.0;" width="10" x="615.5" y="282.8398"/><rect fill="#FFFFFF" height="29.3105" style="stroke:#181818;stroke-width:1.0;" width="10" x="615.5" y="341.4609"/><rect fill="#FFFFFF" height="29.3105" style="stroke:#181818;stroke-width:1.0;" width="10" x="615.5" y="400.082"/><line style="stroke:#181818;stroke-width:0.5;stroke-dasharray:5.0,5.0;" x1="69" x2="69" y1="118.9766" y2="447.3926"/><line style="stroke:#181818;stroke-width:0.5;stroke-dasharray:5.0,5.0;" x1="620.5" x2="620.5" y1="118.9766" y2="447.3926"/><text fill="#000000" font-family="sans-serif" font-size="14" lengthAdjust="spacing" textLength="123" x="5" y="116.0234">Unregistered user</text><ellipse cx="69.5" cy="50.9883" fill="#E3E3E3" rx="8" ry="8" style="stroke:#181818;stroke-width:0.5;"/><path d="M69.5,58.9883 L69.5,85.9883 M56.5,66.9883 L82.5,66.9883 M69.5,85.9883 L56.5,100.9883 M69.5,85.9883 L82.5,100.9883 " fill="none" style="stroke:#181818;stroke-width:0.5;"/><text fill="#000000" font-family="sans-serif" font-size="14" lengthAdjust="spacing" textLength="123" x="5" y="459.9277">Unregistered user</text><ellipse cx="69.5" cy="471.3809" fill="#E3E3E3" rx="8" ry="8" style="stroke:#181818;stroke-width:0.5;"/><path d="M69.5,479.3809 L69.5,506.3809 M56.5,487.3809 L82.5,487.3809 M69.5,506.3809 L56.5,521.3809 M69.5,506.3809 L82.5,521.3809 " fill="none" style="stroke:#181818;stroke-width:0.5;"/><rect fill="#E3E3E3" height="30.4883" rx="2.5" ry="2.5" style="stroke:#181818;stroke-width:0.5;" width="66" x="587.5" y="87.4883"/><text fill="#000000" font-family="sans-serif" font-size="14" lengthAdjust="spacing" textLength="52" x="594.5" y="108.0234">:System</text><rect fill="#E3E3E3" height="30.4883" rx="2.5" ry="2.5" style="stroke:#181818;stroke-width:0.5;" width="66" x="587.5" y="446.3926"/><text fill="#000000" font-family="sans-serif" font-size="14" lengthAdjust="spacing" textLength="52" x="594.5" y="466.9277">:System</text><rect fill="#FFFFFF" height="309.416" style="stroke:#181818;stroke-width:1.0;" width="10" x="64.5" y="128.9766"/><rect fill="#FFFFFF" height="29.3105" style="stroke:#181818;stroke-width:1.0;" width="10" x="615.5" y="150.2871"/><rect fill="#FFFFFF" height="44.6211" style="stroke:#181818;stroke-width:1.0;" width="10" x="615.5" y="208.9082"/><rect fill="#FFFFFF" height="29.3105" style="stroke:#181818;stroke-width:1.0;" width="10" x="615.5" y="282.8398"/><rect fill="#FFFFFF" height="29.3105" style="stroke:#181818;stroke-width:1.0;" width="10" x="615.5" y="341.4609"/><rect fill="#FFFFFF" height="29.3105" style="stroke:#181818;stroke-width:1.0;" width="10" x="615.5" y="400.082"/><polygon fill="#181818" points="603.5,146.2871,613.5,150.2871,603.5,154.2871,607.5,150.2871" style="stroke:#181818;stroke-width:1.0;"/><line style="stroke:#181818;stroke-width:1.0;" x1="74.5" x2="609.5" y1="150.2871" y2="150.2871"/><text fill="#000000" font-family="sans-serif" font-size="13" font-weight="bold" lengthAdjust="spacing" textLength="9" x="81.5" y="145.5449">1</text><text fill="#000000" font-family="sans-serif" font-size="13" lengthAdjust="spacing" textLength="215" x="94.5" y="145.5449">asks to display a list of properties</text><polygon fill="#181818" points="85.5,175.5977,75.5,179.5977,85.5,183.5977,81.5,179.5977" style="stroke:#181818;stroke-width:1.0;"/><line style="stroke:#181818;stroke-width:1.0;stroke-dasharray:2.0,2.0;" x1="79.5" x2="619.5" y1="179.5977" y2="179.5977"/><text fill="#000000" font-family="sans-serif" font-size="13" font-weight="bold" lengthAdjust="spacing" textLength="9" x="91.5" y="174.8555">2</text><text fill="#000000" font-family="sans-serif" font-size="13" lengthAdjust="spacing" textLength="455" x="104.5" y="174.8555">displays a list of properties from the most recent uploaded to the oldest</text><polygon fill="#181818" points="603.5,204.9082,613.5,208.9082,603.5,212.9082,607.5,208.9082" style="stroke:#181818;stroke-width:1.0;"/><line style="stroke:#181818;stroke-width:1.0;" x1="74.5" x2="609.5" y1="208.9082" y2="208.9082"/><text fill="#000000" font-family="sans-serif" font-size="13" font-weight="bold" lengthAdjust="spacing" textLength="9" x="81.5" y="204.166">3</text><text fill="#000000" font-family="sans-serif" font-size="13" lengthAdjust="spacing" textLength="213" x="94.5" y="204.166">asks to filter the list of properties</text><polygon fill="#181818" points="85.5,249.5293,75.5,253.5293,85.5,257.5293,81.5,253.5293" style="stroke:#181818;stroke-width:1.0;"/><line style="stroke:#181818;stroke-width:1.0;stroke-dasharray:2.0,2.0;" x1="79.5" x2="619.5" y1="253.5293" y2="253.5293"/><text fill="#000000" font-family="sans-serif" font-size="13" font-weight="bold" lengthAdjust="spacing" textLength="9" x="91.5" y="241.1318">4</text><text fill="#000000" font-family="sans-serif" font-size="13" lengthAdjust="spacing" textLength="416" x="104.5" y="233.4766">displays the options to filter [type of business (buying or renting),</text><text fill="#000000" font-family="sans-serif" font-size="13" lengthAdjust="spacing" textLength="439" x="104.5" y="248.7871">type of property (house, apartment or land) and the number of rooms]</text><polygon fill="#181818" points="603.5,278.8398,613.5,282.8398,603.5,286.8398,607.5,282.8398" style="stroke:#181818;stroke-width:1.0;"/><line style="stroke:#181818;stroke-width:1.0;" x1="74.5" x2="609.5" y1="282.8398" y2="282.8398"/><text fill="#000000" font-family="sans-serif" font-size="13" font-weight="bold" lengthAdjust="spacing" textLength="9" x="81.5" y="278.0977">5</text><text fill="#000000" font-family="sans-serif" font-size="13" lengthAdjust="spacing" textLength="304" x="94.5" y="278.0977">selects the options to filter the list of properties</text><polygon fill="#181818" points="85.5,308.1504,75.5,312.1504,85.5,316.1504,81.5,312.1504" style="stroke:#181818;stroke-width:1.0;"/><line style="stroke:#181818;stroke-width:1.0;stroke-dasharray:2.0,2.0;" x1="79.5" x2="619.5" y1="312.1504" y2="312.1504"/><text fill="#000000" font-family="sans-serif" font-size="13" font-weight="bold" lengthAdjust="spacing" textLength="9" x="91.5" y="307.4082">6</text><text fill="#000000" font-family="sans-serif" font-size="13" lengthAdjust="spacing" textLength="234" x="104.5" y="307.4082">displays the filtered list of properties</text><polygon fill="#181818" points="603.5,337.4609,613.5,341.4609,603.5,345.4609,607.5,341.4609" style="stroke:#181818;stroke-width:1.0;"/><line style="stroke:#181818;stroke-width:1.0;" x1="74.5" x2="609.5" y1="341.4609" y2="341.4609"/><text fill="#000000" font-family="sans-serif" font-size="13" font-weight="bold" lengthAdjust="spacing" textLength="9" x="81.5" y="336.7188">7</text><text fill="#000000" font-family="sans-serif" font-size="13" lengthAdjust="spacing" textLength="265" x="94.5" y="336.7188">asks to order the filtered list of properties</text><polygon fill="#181818" points="85.5,366.7715,75.5,370.7715,85.5,374.7715,81.5,370.7715" style="stroke:#181818;stroke-width:1.0;"/><line style="stroke:#181818;stroke-width:1.0;stroke-dasharray:2.0,2.0;" x1="79.5" x2="619.5" y1="370.7715" y2="370.7715"/><text fill="#000000" font-family="sans-serif" font-size="13" font-weight="bold" lengthAdjust="spacing" textLength="9" x="91.5" y="366.0293">8</text><text fill="#000000" font-family="sans-serif" font-size="13" lengthAdjust="spacing" textLength="504" x="104.5" y="366.0293">displays the options to order (price, city or state) and (ascending or descending)</text><polygon fill="#181818" points="603.5,396.082,613.5,400.082,603.5,404.082,607.5,400.082" style="stroke:#181818;stroke-width:1.0;"/><line style="stroke:#181818;stroke-width:1.0;" x1="74.5" x2="609.5" y1="400.082" y2="400.082"/><text fill="#000000" font-family="sans-serif" font-size="13" font-weight="bold" lengthAdjust="spacing" textLength="9" x="81.5" y="395.3398">9</text><text fill="#000000" font-family="sans-serif" font-size="13" lengthAdjust="spacing" textLength="399" x="94.5" y="395.3398">doesn't select the options to order the filtered list of properties</text><polygon fill="#181818" points="85.5,425.3926,75.5,429.3926,85.5,433.3926,81.5,429.3926" style="stroke:#181818;stroke-width:1.0;"/><line style="stroke:#181818;stroke-width:1.0;stroke-dasharray:2.0,2.0;" x1="79.5" x2="619.5" y1="429.3926" y2="429.3926"/><text fill="#000000" font-family="sans-serif" font-size="13" font-weight="bold" lengthAdjust="spacing" textLength="18" x="91.5" y="424.6504">10</text><text fill="#000000" font-family="sans-serif" font-size="13" lengthAdjust="spacing" textLength="443" x="113.5" y="424.6504">display the filtered list of properties with no ordering method selected</text><!--SRC=[jLJ1Rjim3BtxAuXSvW3D3-ImK_x0w6dRWR4OMuWiQYAzmdy_odQ2jaYx1MrzeatglKS-MdBsCM760GQEtFQP1mBD8rLopIHipzXHerCWoDGgnYuyBv0U7J_vsC49Wr1LgLShRIPH6g2XtoF5bk3WiIlbTTCSjh230vF4Rmf2mK018t1sb0lEGDgpgoeSbUCu72bRt2fds3p6J9qtv4mEHg6y0HHujA0oDUfRdp0gRFOB_PnTmXd2_q6bfRm2Uqe4k-yNiNihFmieW_EI0aw048mD-0GfSo9Z89bFbkSAU64e7rUedQ7EwFiBbjm4WvCD7RGdiy1oDc0o_MCAZCvQD2abny6Hw9NOqKtgDxiv-M0Jcv4-iPrPM5BFyJd93vqI5ORZA3wI2DJ7SIgscd_PchDm-m0_uwLkLJ91tRCv-W1Od1pA6En4mEYsjXrkfbksePpAp8FykdiYoxQzfVqB1hGWcvFluDvhv_oZ_3Vw1srToEgKVMlUjDwCCbj43N7nfKQndNMhmxQdwzlsxlxSoolXff2lwVfViF3ajOV8h- -eLIgvzthz2m00]--></g></svg>