<?xml version="1.0" encoding="us-ascii" standalone="no"?><svg xmlns="http://www.w3.org/2000/svg" xmlns:xlink="http://www.w3.org/1999/xlink" contentStyleType="text/css" height="755px" preserveAspectRatio="none" style="width:705px;height:755px;background:#FFFFFF;" version="1.1" viewBox="0 0 705 755" width="705px" zoomAndPan="magnify"><defs/><g><text fill="#000000" font-family="sans-serif" font-size="14" font-weight="bold" lengthAdjust="spacing" textLength="277" x="215.25" y="28.5352">System Sequence Diagram (SSD) - Full</text><rect fill="#FFFFFF" height="536.1445" style="stroke:#181818;stroke-width:1.0;" width="10" x="89.5" y="128.9766"/><rect fill="#FFFFFF" height="53.6211" style="stroke:#181818;stroke-width:1.0;" width="10" x="640.5" y="150.2871"/><rect fill="#FFFFFF" height="44.6211" style="stroke:#181818;stroke-width:1.0;" width="10" x="640.5" y="233.2188"/><rect fill="#FFFFFF" height="80.5762" style="stroke:#181818;stroke-width:1.0;" width="10" x="640.5" y="331.4609"/><rect fill="#FFFFFF" height="29.3105" style="stroke:#181818;stroke-width:1.0;" width="10" x="640.5" y="441.3477"/><rect fill="#FFFFFF" height="80.5762" style="stroke:#181818;stroke-width:1.0;" width="10" x="640.5" y="524.2793"/><rect fill="none" height="491.834" style="stroke:#000000;stroke-width:1.5;" width="688.5" x="10" y="165.2871"/><rect fill="none" height="90.8867" style="stroke:#000000;stroke-width:1.5;" width="668.5" x="20" y="292.8398"/><rect fill="none" height="90.8867" style="stroke:#000000;stroke-width:1.5;" width="668.5" x="20" y="485.6582"/><line style="stroke:#181818;stroke-width:0.5;stroke-dasharray:5.0,5.0;" x1="94" x2="94" y1="118.9766" y2="674.1211"/><line style="stroke:#181818;stroke-width:0.5;stroke-dasharray:5.0,5.0;" x1="645.5" x2="645.5" y1="118.9766" y2="674.1211"/><text fill="#000000" font-family="sans-serif" font-size="14" lengthAdjust="spacing" textLength="123" x="30" y="116.0234">Unregistered user</text><ellipse cx="94.5" cy="50.9883" fill="#E3E3E3" rx="8" ry="8" style="stroke:#181818;stroke-width:0.5;"/><path d="M94.5,58.9883 L94.5,85.9883 M81.5,66.9883 L107.5,66.9883 M94.5,85.9883 L81.5,100.9883 M94.5,85.9883 L107.5,100.9883 " fill="none" style="stroke:#181818;stroke-width:0.5;"/><text fill="#000000" font-family="sans-serif" font-size="14" lengthAdjust="spacing" textLength="123" x="30" y="686.6563">Unregistered user</text><ellipse cx="94.5" cy="698.1094" fill="#E3E3E3" rx="8" ry="8" style="stroke:#181818;stroke-width:0.5;"/><path d="M94.5,706.1094 L94.5,733.1094 M81.5,714.1094 L107.5,714.1094 M94.5,733.1094 L81.5,748.1094 M94.5,733.1094 L107.5,748.1094 " fill="none" style="stroke:#181818;stroke-width:0.5;"/><rect fill="#E3E3E3" height="30.4883" rx="2.5" ry="2.5" style="stroke:#181818;stroke-width:0.5;" width="66" x="612.5" y="87.4883"/><text fill="#000000" font-family="sans-serif" font-size="14" lengthAdjust="spacing" textLength="52" x="619.5" y="108.0234">:System</text><rect fill="#E3E3E3" height="30.4883" rx="2.5" ry="2.5" style="stroke:#181818;stroke-width:0.5;" width="66" x="612.5" y="673.1211"/><text fill="#000000" font-family="sans-serif" font-size="14" lengthAdjust="spacing" textLength="52" x="619.5" y="693.6563">:System</text><rect fill="#FFFFFF" height="536.1445" style="stroke:#181818;stroke-width:1.0;" width="10" x="89.5" y="128.9766"/><rect fill="#FFFFFF" height="53.6211" style="stroke:#181818;stroke-width:1.0;" width="10" x="640.5" y="150.2871"/><rect fill="#FFFFFF" height="44.6211" style="stroke:#181818;stroke-width:1.0;" width="10" x="640.5" y="233.2188"/><rect fill="#FFFFFF" height="80.5762" style="stroke:#181818;stroke-width:1.0;" width="10" x="640.5" y="331.4609"/><rect fill="#FFFFFF" height="29.3105" style="stroke:#181818;stroke-width:1.0;" width="10" x="640.5" y="441.3477"/><rect fill="#FFFFFF" height="80.5762" style="stroke:#181818;stroke-width:1.0;" width="10" x="640.5" y="524.2793"/><polygon fill="#181818" points="628.5,146.2871,638.5,150.2871,628.5,154.2871,632.5,150.2871" style="stroke:#181818;stroke-width:1.0;"/><line style="stroke:#181818;stroke-width:1.0;" x1="99.5" x2="634.5" y1="150.2871" y2="150.2871"/><text fill="#000000" font-family="sans-serif" font-size="13" font-weight="bold" lengthAdjust="spacing" textLength="9" x="106.5" y="145.5449">1</text><text fill="#000000" font-family="sans-serif" font-size="13" lengthAdjust="spacing" textLength="215" x="119.5" y="145.5449">asks to display a list of properties</text><path d="M10,165.2871 L72,165.2871 L72,172.5977 L62,182.5977 L10,182.5977 L10,165.2871 " fill="#EEEEEE" style="stroke:#000000;stroke-width:1.5;"/><rect fill="none" height="491.834" style="stroke:#000000;stroke-width:1.5;" width="688.5" x="10" y="165.2871"/><text fill="#000000" font-family="sans-serif" font-size="13" font-weight="bold" lengthAdjust="spacing" textLength="17" x="25" y="178.8555">alt</text><text fill="#000000" font-family="sans-serif" font-size="11" font-weight="bold" lengthAdjust="spacing" textLength="117" x="87" y="177.9219">[List with Properties]</text><polygon fill="#181818" points="110.5,199.9082,100.5,203.9082,110.5,207.9082,106.5,203.9082" style="stroke:#181818;stroke-width:1.0;"/><line style="stroke:#181818;stroke-width:1.0;stroke-dasharray:2.0,2.0;" x1="104.5" x2="644.5" y1="203.9082" y2="203.9082"/><text fill="#000000" font-family="sans-serif" font-size="13" font-weight="bold" lengthAdjust="spacing" textLength="9" x="116.5" y="199.166">2</text><text fill="#000000" font-family="sans-serif" font-size="13" lengthAdjust="spacing" textLength="455" x="129.5" y="199.166">displays a list of properties from the most recent uploaded to the oldest</text><polygon fill="#181818" points="628.5,229.2188,638.5,233.2188,628.5,237.2188,632.5,233.2188" style="stroke:#181818;stroke-width:1.0;"/><line style="stroke:#181818;stroke-width:1.0;" x1="99.5" x2="634.5" y1="233.2188" y2="233.2188"/><text fill="#000000" font-family="sans-serif" font-size="13" font-weight="bold" lengthAdjust="spacing" textLength="9" x="106.5" y="228.4766">3</text><text fill="#000000" font-family="sans-serif" font-size="13" lengthAdjust="spacing" textLength="213" x="119.5" y="228.4766">asks to filter the list of properties</text><polygon fill="#181818" points="110.5,273.8398,100.5,277.8398,110.5,281.8398,106.5,277.8398" style="stroke:#181818;stroke-width:1.0;"/><line style="stroke:#181818;stroke-width:1.0;stroke-dasharray:2.0,2.0;" x1="104.5" x2="644.5" y1="277.8398" y2="277.8398"/><text fill="#000000" font-family="sans-serif" font-size="13" font-weight="bold" lengthAdjust="spacing" textLength="9" x="116.5" y="265.4424">4</text><text fill="#000000" font-family="sans-serif" font-size="13" lengthAdjust="spacing" textLength="416" x="129.5" y="257.7871">displays the options to filter [type of business (buying or renting),</text><text fill="#000000" font-family="sans-serif" font-size="13" lengthAdjust="spacing" textLength="439" x="129.5" y="273.0977">type of property (house, apartment or land) and the number of rooms]</text><path d="M20,292.8398 L82,292.8398 L82,300.1504 L72,310.1504 L20,310.1504 L20,292.8398 " fill="#EEEEEE" style="stroke:#000000;stroke-width:1.5;"/><rect fill="none" height="90.8867" style="stroke:#000000;stroke-width:1.5;" width="668.5" x="20" y="292.8398"/><text fill="#000000" font-family="sans-serif" font-size="13" font-weight="bold" lengthAdjust="spacing" textLength="17" x="35" y="306.4082">alt</text><text fill="#000000" font-family="sans-serif" font-size="11" font-weight="bold" lengthAdjust="spacing" textLength="139" x="97" y="305.4746">[Selects options to filter]</text><polygon fill="#181818" points="628.5,327.4609,638.5,331.4609,628.5,335.4609,632.5,331.4609" style="stroke:#181818;stroke-width:1.0;"/><line style="stroke:#181818;stroke-width:1.0;" x1="99.5" x2="634.5" y1="331.4609" y2="331.4609"/><text fill="#000000" font-family="sans-serif" font-size="13" font-weight="bold" lengthAdjust="spacing" textLength="9" x="106.5" y="326.7188">5</text><text fill="#000000" font-family="sans-serif" font-size="13" lengthAdjust="spacing" textLength="304" x="119.5" y="326.7188">selects the options to filter the list of properties</text><line style="stroke:#000000;stroke-width:1.0;stroke-dasharray:2.0,2.0;" x1="20" x2="688.5" y1="340.4609" y2="340.4609"/><text fill="#000000" font-family="sans-serif" font-size="11" font-weight="bold" lengthAdjust="spacing" textLength="179" x="25" y="351.0957">[Doesn't select options to filter]</text><polygon fill="#181818" points="628.5,371.7266,638.5,375.7266,628.5,379.7266,632.5,375.7266" style="stroke:#181818;stroke-width:1.0;"/><line style="stroke:#181818;stroke-width:1.0;" x1="99.5" x2="634.5" y1="375.7266" y2="375.7266"/><text fill="#000000" font-family="sans-serif" font-size="13" font-weight="bold" lengthAdjust="spacing" textLength="9" x="106.5" y="370.9844">6</text><text fill="#000000" font-family="sans-serif" font-size="13" lengthAdjust="spacing" textLength="342" x="119.5" y="370.9844">doesn't select any option to filter the list of properties</text><polygon fill="#181818" points="110.5,408.0371,100.5,412.0371,110.5,416.0371,106.5,412.0371" style="stroke:#181818;stroke-width:1.0;"/><line style="stroke:#181818;stroke-width:1.0;stroke-dasharray:2.0,2.0;" x1="104.5" x2="644.5" y1="412.0371" y2="412.0371"/><text fill="#000000" font-family="sans-serif" font-size="13" font-weight="bold" lengthAdjust="spacing" textLength="9" x="116.5" y="407.2949">7</text><text fill="#000000" font-family="sans-serif" font-size="13" lengthAdjust="spacing" textLength="185" x="129.5" y="407.2949">displays the list of properties</text><polygon fill="#181818" points="628.5,437.3477,638.5,441.3477,628.5,445.3477,632.5,441.3477" style="stroke:#181818;stroke-width:1.0;"/><line style="stroke:#181818;stroke-width:1.0;" x1="99.5" x2="634.5" y1="441.3477" y2="441.3477"/><text fill="#000000" font-family="sans-serif" font-size="13" font-weight="bold" lengthAdjust="spacing" textLength="9" x="106.5" y="436.6055">8</text><text fill="#000000" font-family="sans-serif" font-size="13" lengthAdjust="spacing" textLength="265" x="119.5" y="436.6055">asks to order the filtered list of properties</text><polygon fill="#181818" points="110.5,466.6582,100.5,470.6582,110.5,474.6582,106.5,470.6582" style="stroke:#181818;stroke-width:1.0;"/><line style="stroke:#181818;stroke-width:1.0;stroke-dasharray:2.0,2.0;" x1="104.5" x2="644.5" y1="470.6582" y2="470.6582"/><text fill="#000000" font-family="sans-serif" font-size="13" font-weight="bold" lengthAdjust="spacing" textLength="9" x="116.5" y="465.916">9</text><text fill="#000000" font-family="sans-serif" font-size="13" lengthAdjust="spacing" textLength="504" x="129.5" y="465.916">displays the options to order (price, city or state) and (ascending or descending)</text><path d="M20,485.6582 L82,485.6582 L82,492.9688 L72,502.9688 L20,502.9688 L20,485.6582 " fill="#EEEEEE" style="stroke:#000000;stroke-width:1.5;"/><rect fill="none" height="90.8867" style="stroke:#000000;stroke-width:1.5;" width="668.5" x="20" y="485.6582"/><text fill="#000000" font-family="sans-serif" font-size="13" font-weight="bold" lengthAdjust="spacing" textLength="17" x="35" y="499.2266">alt</text><text fill="#000000" font-family="sans-serif" font-size="11" font-weight="bold" lengthAdjust="spacing" textLength="138" x="97" y="498.293">[Select ordering method]</text><polygon fill="#181818" points="628.5,520.2793,638.5,524.2793,628.5,528.2793,632.5,524.2793" style="stroke:#181818;stroke-width:1.0;"/><line style="stroke:#181818;stroke-width:1.0;" x1="99.5" x2="634.5" y1="524.2793" y2="524.2793"/><text fill="#000000" font-family="sans-serif" font-size="13" font-weight="bold" lengthAdjust="spacing" textLength="18" x="106.5" y="519.5371">10</text><text fill="#000000" font-family="sans-serif" font-size="13" lengthAdjust="spacing" textLength="356" x="128.5" y="519.5371">selects the options to order the filtered list of properties</text><line style="stroke:#000000;stroke-width:1.0;stroke-dasharray:2.0,2.0;" x1="20" x2="688.5" y1="533.2793" y2="533.2793"/><text fill="#000000" font-family="sans-serif" font-size="11" font-weight="bold" lengthAdjust="spacing" textLength="194" x="25" y="543.9141">[Doesn't select a ordering method]</text><polygon fill="#181818" points="628.5,564.5449,638.5,568.5449,628.5,572.5449,632.5,568.5449" style="stroke:#181818;stroke-width:1.0;"/><line style="stroke:#181818;stroke-width:1.0;" x1="99.5" x2="634.5" y1="568.5449" y2="568.5449"/><text fill="#000000" font-family="sans-serif" font-size="13" font-weight="bold" lengthAdjust="spacing" textLength="18" x="106.5" y="563.8027">11</text><text fill="#000000" font-family="sans-serif" font-size="13" lengthAdjust="spacing" textLength="458" x="128.5" y="563.8027">doesn't select any ordering method to order the filtered list of properties</text><polygon fill="#181818" points="110.5,600.8555,100.5,604.8555,110.5,608.8555,106.5,604.8555" style="stroke:#181818;stroke-width:1.0;"/><line style="stroke:#181818;stroke-width:1.0;stroke-dasharray:2.0,2.0;" x1="104.5" x2="644.5" y1="604.8555" y2="604.8555"/><text fill="#000000" font-family="sans-serif" font-size="13" font-weight="bold" lengthAdjust="spacing" textLength="18" x="116.5" y="600.1133">12</text><text fill="#000000" font-family="sans-serif" font-size="13" lengthAdjust="spacing" textLength="447" x="138.5" y="600.1133">display the filtered list of properties with the ordering method selected</text><line style="stroke:#000000;stroke-width:1.0;stroke-dasharray:2.0,2.0;" x1="10" x2="698.5" y1="613.8555" y2="613.8555"/><text fill="#000000" font-family="sans-serif" font-size="11" font-weight="bold" lengthAdjust="spacing" textLength="135" x="15" y="624.4902">[List without Properties]</text><polygon fill="#181818" points="110.5,645.1211,100.5,649.1211,110.5,653.1211,106.5,649.1211" style="stroke:#181818;stroke-width:1.0;"/><line style="stroke:#181818;stroke-width:1.0;stroke-dasharray:2.0,2.0;" x1="104.5" x2="644.5" y1="649.1211" y2="649.1211"/><text fill="#000000" font-family="sans-serif" font-size="13" font-weight="bold" lengthAdjust="spacing" textLength="18" x="116.5" y="644.3789">13</text><text fill="#000000" font-family="sans-serif" font-size="13" lengthAdjust="spacing" textLength="215" x="138.5" y="644.3789">displays a empty list of properties</text><!--SRC=[fLMnZjim3Dtz5KIMSu3B3sJe57JgKC2ugUsWM8mjH9PKaRw3_xwqRESkkUGSfneCnIBv7X-VOZeQ5rHK3JJU-RAEla7Ws696fvEWogEgiE3E8aGiMRdAVWoWMcd_Pbm51sK9iumDIsZH4MC31VvjqPK8EwEgFZmlYjqQDl2zjJRBLClUjSqUe-nBzX5MBovYPIGveeQMCAv04Rp89XD0DgK9oZ6ijWD2EXssgOHvLOn3U0Qo-XrilaryjX9-960Fsb2mgWC5Lj307o147r0Ga5Bcj4v59vJqqZBywFFU3DVmypqpdOvW6y5D-Di9ZQx2mK6K1wvHvY1deZ9AXssmNcaHGSZsPzvg93wZfl4gkPiz7umLNLErHvh-egr4CB3nxYFGB-u2zYZxben38iZtRTTxHIOTfKdPhf_XjvlYHZOTvBMNsJ-3wcVUz798XbLEhq4U2MxmJPyLlM_epnd_MzAyDoW3BD2AeUapyOlOJthIc7Yzwpla_LhdqqAvKB3pIEw9Hz3bPFLvldBTM6EUyWKRf-_omLplIrthenuf3cpbIin1_ATz1yGyH5EA1qiZXXJx4Kl5mN-v8hcZUdIotClnr_fH4mwGVRq6kVRwGGS-8DN3HbHBELypudc5-rjOwiovWiF_U5BpWjB05lLTaqqwdRuBlkLbdmPiWbXjPcAte4M3Vm00]--></g></svg>