<?xml version="1.0" encoding="us-ascii" standalone="no"?><svg xmlns="http://www.w3.org/2000/svg" xmlns:xlink="http://www.w3.org/1999/xlink" contentStyleType="text/css" height="1170px" preserveAspectRatio="none" style="width:859px;height:1170px;background:#FFFFFF;" version="1.1" viewBox="0 0 859 1170" width="859px" zoomAndPan="magnify"><defs/><g><!--class Employee--><g id="elem_Employee"><rect codeLine="10" fill="#F1F1F1" height="33.6406" id="Employee" rx="2.5" ry="2.5" style="stroke:#181818;stroke-width:0.5;" width="68" x="247.5" y="290"/><text fill="#000000" font-family="sans-serif" font-size="14" lengthAdjust="spacing" textLength="62" x="250.5" y="307.6738">Employee</text><line style="stroke:#181818;stroke-width:0.5;" x1="248.5" x2="314.5" y1="315.6406" y2="315.6406"/></g><!--class Person--><g id="elem_Person"><rect codeLine="13" fill="#F1F1F1" height="111.8438" id="Person" rx="2.5" ry="2.5" style="stroke:#181818;stroke-width:0.5;" width="121" x="221" y="7"/><text fill="#000000" font-family="sans-serif" font-size="14" lengthAdjust="spacing" textLength="45" x="259" y="24.6738">Person</text><line style="stroke:#181818;stroke-width:0.5;" x1="222" x2="341" y1="32.6406" y2="32.6406"/><text fill="#000000" font-family="sans-serif" font-size="14" lengthAdjust="spacing" textLength="36" x="227" y="49.3145">Name</text><text fill="#000000" font-family="sans-serif" font-size="14" lengthAdjust="spacing" textLength="34" x="227" y="64.9551">Email</text><text fill="#000000" font-family="sans-serif" font-size="14" lengthAdjust="spacing" textLength="94" x="227" y="80.5957">Phone Number</text><text fill="#000000" font-family="sans-serif" font-size="14" lengthAdjust="spacing" textLength="76" x="227" y="96.2363">Tax Number</text><text fill="#000000" font-family="sans-serif" font-size="14" lengthAdjust="spacing" textLength="109" x="227" y="111.877">Passport Number</text></g><!--class User--><g id="elem_User"><rect codeLine="22" fill="#F1F1F1" height="49.2813" id="User" rx="2.5" ry="2.5" style="stroke:#181818;stroke-width:0.5;" width="73" x="245" y="180"/><text fill="#000000" font-family="sans-serif" font-size="14" lengthAdjust="spacing" textLength="29" x="267" y="197.6738">User</text><line style="stroke:#181818;stroke-width:0.5;" x1="246" x2="317" y1="205.6406" y2="205.6406"/><text fill="#000000" font-family="sans-serif" font-size="14" lengthAdjust="spacing" textLength="61" x="251" y="222.3145">Password</text></g><!--class Agent--><g id="elem_Agent"><rect codeLine="26" fill="#F1F1F1" height="33.6406" id="Agent" rx="2.5" ry="2.5" style="stroke:#181818;stroke-width:0.5;" width="43" x="260" y="392.5"/><text fill="#000000" font-family="sans-serif" font-size="14" lengthAdjust="spacing" textLength="37" x="263" y="410.1738">Agent</text><line style="stroke:#181818;stroke-width:0.5;" x1="261" x2="302" y1="418.1406" y2="418.1406"/></g><!--class AnnouncementRequest--><g id="elem_AnnouncementRequest"><rect codeLine="29" fill="#F1F1F1" height="49.2813" id="AnnouncementRequest" rx="2.5" ry="2.5" style="stroke:#181818;stroke-width:0.5;" width="154" x="434.5" y="385"/><text fill="#000000" font-family="sans-serif" font-size="14" lengthAdjust="spacing" textLength="148" x="437.5" y="402.6738">AnnouncementRequest</text><line style="stroke:#181818;stroke-width:0.5;" x1="435.5" x2="587.5" y1="410.6406" y2="410.6406"/><text fill="#000000" font-family="sans-serif" font-size="14" lengthAdjust="spacing" textLength="28" x="440.5" y="427.3145">date</text></g><!--class Residence--><g id="elem_Residence"><rect codeLine="34" fill="#F1F1F1" height="80.5625" id="Residence" rx="2.5" ry="2.5" style="stroke:#181818;stroke-width:0.5;" width="180" x="617.5" y="754"/><text fill="#000000" font-family="sans-serif" font-size="14" lengthAdjust="spacing" textLength="67" x="674" y="771.6738">Residence</text><line style="stroke:#181818;stroke-width:0.5;" x1="618.5" x2="796.5" y1="779.6406" y2="779.6406"/><text fill="#000000" font-family="sans-serif" font-size="14" lengthAdjust="spacing" textLength="133" x="623.5" y="796.3145">Number of Bedrooms</text><text fill="#000000" font-family="sans-serif" font-size="14" lengthAdjust="spacing" textLength="137" x="623.5" y="811.9551">Number of Bathrooms</text><text fill="#000000" font-family="sans-serif" font-size="14" lengthAdjust="spacing" textLength="168" x="623.5" y="827.5957">Number of Parking Spaces</text></g><!--class Property--><g id="elem_Property"><rect codeLine="40" fill="#F1F1F1" height="80.5625" id="Property" rx="2.5" ry="2.5" style="stroke:#181818;stroke-width:0.5;" width="192" x="611.5" y="612"/><text fill="#000000" font-family="sans-serif" font-size="14" lengthAdjust="spacing" textLength="54" x="680.5" y="629.6738">Property</text><line style="stroke:#181818;stroke-width:0.5;" x1="612.5" x2="802.5" y1="637.6406" y2="637.6406"/><text fill="#000000" font-family="sans-serif" font-size="14" lengthAdjust="spacing" textLength="30" x="617.5" y="654.3145">Area</text><text fill="#000000" font-family="sans-serif" font-size="14" lengthAdjust="spacing" textLength="44" x="617.5" y="669.9551">Photos</text><text fill="#000000" font-family="sans-serif" font-size="14" lengthAdjust="spacing" textLength="180" x="617.5" y="685.5957">Distance from the city center</text></g><!--class TypeOfProperty--><g id="elem_TypeOfProperty"><rect codeLine="46" fill="#F1F1F1" height="49.2813" id="TypeOfProperty" rx="2.5" ry="2.5" style="stroke:#181818;stroke-width:0.5;" width="107" x="745" y="385"/><text fill="#000000" font-family="sans-serif" font-size="14" lengthAdjust="spacing" textLength="101" x="748" y="402.6738">TypeOfProperty</text><line style="stroke:#181818;stroke-width:0.5;" x1="746" x2="851" y1="410.6406" y2="410.6406"/><text fill="#000000" font-family="sans-serif" font-size="14" lengthAdjust="spacing" textLength="32" x="751" y="427.3145">Type</text></g><!--class Photos--><g id="elem_Photos"><rect codeLine="50" fill="#F1F1F1" height="49.2813" id="Photos" rx="2.5" ry="2.5" style="stroke:#181818;stroke-width:0.5;" width="50" x="659.5" y="385"/><text fill="#000000" font-family="sans-serif" font-size="14" lengthAdjust="spacing" textLength="44" x="662.5" y="402.6738">Photos</text><line style="stroke:#181818;stroke-width:0.5;" x1="660.5" x2="708.5" y1="410.6406" y2="410.6406"/><text fill="#000000" font-family="sans-serif" font-size="14" lengthAdjust="spacing" textLength="22" x="665.5" y="427.3145">URI</text></g><!--class House--><g id="elem_House"><rect codeLine="54" fill="#F1F1F1" height="64.9219" id="House" rx="2.5" ry="2.5" style="stroke:#181818;stroke-width:0.5;" width="104" x="579.5" y="911"/><text fill="#000000" font-family="sans-serif" font-size="14" lengthAdjust="spacing" textLength="40" x="611.5" y="928.6738">House</text><line style="stroke:#181818;stroke-width:0.5;" x1="580.5" x2="682.5" y1="936.6406" y2="936.6406"/><text fill="#000000" font-family="sans-serif" font-size="14" lengthAdjust="spacing" textLength="63" x="585.5" y="953.3145">Basement</text><text fill="#000000" font-family="sans-serif" font-size="14" lengthAdjust="spacing" textLength="92" x="585.5" y="968.9551">Inhabitable loft</text></g><!--class SunExposure--><g id="elem_SunExposure"><rect codeLine="59" fill="#F1F1F1" height="49.2813" id="SunExposure" rx="2.5" ry="2.5" style="stroke:#181818;stroke-width:0.5;" width="90" x="586.5" y="1114"/><text fill="#000000" font-family="sans-serif" font-size="14" lengthAdjust="spacing" textLength="84" x="589.5" y="1131.6738">SunExposure</text><line style="stroke:#181818;stroke-width:0.5;" x1="587.5" x2="675.5" y1="1139.6406" y2="1139.6406"/><text fill="#000000" font-family="sans-serif" font-size="14" lengthAdjust="spacing" textLength="56" x="592.5" y="1156.3145">Direction</text></g><!--class AvailableEquipment--><g id="elem_AvailableEquipment"><rect codeLine="63" fill="#F1F1F1" height="49.2813" id="AvailableEquipment" rx="2.5" ry="2.5" style="stroke:#181818;stroke-width:0.5;" width="130" x="718.5" y="919"/><text fill="#000000" font-family="sans-serif" font-size="14" lengthAdjust="spacing" textLength="124" x="721.5" y="936.6738">AvailableEquipment</text><line style="stroke:#181818;stroke-width:0.5;" x1="719.5" x2="847.5" y1="944.6406" y2="944.6406"/><text fill="#000000" font-family="sans-serif" font-size="14" lengthAdjust="spacing" textLength="67" x="724.5" y="961.3145">Equipment</text></g><!--class City--><g id="elem_City"><rect codeLine="67" fill="#F1F1F1" height="49.2813" id="City" rx="2.5" ry="2.5" style="stroke:#181818;stroke-width:0.5;" width="75" x="7" y="628"/><text fill="#000000" font-family="sans-serif" font-size="14" lengthAdjust="spacing" textLength="24" x="32.5" y="645.6738">City</text><line style="stroke:#181818;stroke-width:0.5;" x1="8" x2="81" y1="653.6406" y2="653.6406"/><text fill="#000000" font-family="sans-serif" font-size="14" lengthAdjust="spacing" textLength="63" x="13" y="670.3145">City name</text></g><!--class District--><g id="elem_District"><rect codeLine="71" fill="#F1F1F1" height="49.2813" id="District" rx="2.5" ry="2.5" style="stroke:#181818;stroke-width:0.5;" width="94" x="152.5" y="628"/><text fill="#000000" font-family="sans-serif" font-size="14" lengthAdjust="spacing" textLength="43" x="178" y="645.6738">District</text><line style="stroke:#181818;stroke-width:0.5;" x1="153.5" x2="245.5" y1="653.6406" y2="653.6406"/><text fill="#000000" font-family="sans-serif" font-size="14" lengthAdjust="spacing" textLength="82" x="158.5" y="670.3145">District name</text></g><!--class State--><g id="elem_State"><rect codeLine="75" fill="#F1F1F1" height="49.2813" id="State" rx="2.5" ry="2.5" style="stroke:#181818;stroke-width:0.5;" width="84" x="317.5" y="628"/><text fill="#000000" font-family="sans-serif" font-size="14" lengthAdjust="spacing" textLength="33" x="343" y="645.6738">State</text><line style="stroke:#181818;stroke-width:0.5;" x1="318.5" x2="400.5" y1="653.6406" y2="653.6406"/><text fill="#000000" font-family="sans-serif" font-size="14" lengthAdjust="spacing" textLength="72" x="323.5" y="670.3145">State name</text></g><!--class Address--><g id="elem_Address"><rect codeLine="79" fill="#F1F1F1" height="64.9219" id="Address" rx="2.5" ry="2.5" style="stroke:#181818;stroke-width:0.5;" width="69" x="472" y="620"/><text fill="#000000" font-family="sans-serif" font-size="14" lengthAdjust="spacing" textLength="52" x="480.5" y="637.6738">Address</text><line style="stroke:#181818;stroke-width:0.5;" x1="473" x2="540" y1="645.6406" y2="645.6406"/><text fill="#000000" font-family="sans-serif" font-size="14" lengthAdjust="spacing" textLength="38" x="478" y="662.3145">Street</text><text fill="#000000" font-family="sans-serif" font-size="14" lengthAdjust="spacing" textLength="57" x="478" y="677.9551">Zip Code</text></g><!--class Business--><g id="elem_Business"><rect codeLine="84" fill="#F1F1F1" height="49.2813" id="Business" rx="2.5" ry="2.5" style="stroke:#181818;stroke-width:0.5;" width="80" x="471.5" y="180"/><text fill="#000000" font-family="sans-serif" font-size="14" lengthAdjust="spacing" textLength="57" x="483" y="197.6738">Business</text><line style="stroke:#181818;stroke-width:0.5;" x1="472.5" x2="550.5" y1="205.6406" y2="205.6406"/><text fill="#000000" font-family="sans-serif" font-size="14" lengthAdjust="spacing" textLength="68" x="477.5" y="222.3145">Total Price</text></g><!--class Comission--><g id="elem_Comission"><rect codeLine="88" fill="#F1F1F1" height="49.2813" id="Comission" rx="2.5" ry="2.5" style="stroke:#181818;stroke-width:0.5;" width="71" x="98" y="385"/><text fill="#000000" font-family="sans-serif" font-size="14" lengthAdjust="spacing" textLength="65" x="101" y="402.6738">Comission</text><line style="stroke:#181818;stroke-width:0.5;" x1="99" x2="168" y1="410.6406" y2="410.6406"/><text fill="#000000" font-family="sans-serif" font-size="14" lengthAdjust="spacing" textLength="36" x="104" y="427.3145">Value</text></g><!--reverse link Person to User--><g id="link_Person_User"><path codeLine="94" d="M281.5,139.14 C281.5,153.84 281.5,168.22 281.5,179.65 " fill="none" id="Person-backto-User" style="stroke:#181818;stroke-width:1.0;"/><polygon fill="none" points="274.5,139.13,281.5,119.13,288.5,139.13,274.5,139.13" style="stroke:#181818;stroke-width:1.0;"/></g><!--reverse link User to Employee--><g id="link_User_Employee"><path codeLine="95" d="M281.5,249.12 C281.5,263.57 281.5,278.75 281.5,289.8 " fill="none" id="User-backto-Employee" style="stroke:#181818;stroke-width:1.0;"/><polygon fill="none" points="274.5,249.06,281.5,229.06,288.5,249.06,274.5,249.06" style="stroke:#181818;stroke-width:1.0;"/></g><!--reverse link Employee to Agent--><g id="link_Employee_Agent"><path codeLine="96" d="M281.5,344.23 C281.5,360.74 281.5,379.44 281.5,392.39 " fill="none" id="Employee-backto-Agent" style="stroke:#181818;stroke-width:1.0;"/><polygon fill="none" points="274.5,344.15,281.5,324.15,288.5,344.15,274.5,344.15" style="stroke:#181818;stroke-width:1.0;"/></g><!--link Agent to AnnouncementRequest--><g id="link_Agent_AnnouncementRequest"><path codeLine="98" d="M303.14,409.5 C332.94,409.5 388.17,409.5 434.28,409.5 " fill="none" id="Agent-AnnouncementRequest" style="stroke:#181818;stroke-width:1.0;"/><polygon fill="#000000" points="330.25,398.7617,321.2049,395.8228,321.2049,401.7006,330.25,398.7617" style="stroke:#000000;stroke-width:1.0;"/><text fill="#000000" font-family="sans-serif" font-size="13" lengthAdjust="spacing" textLength="82" x="334.25" y="403.2686">intends to see</text><text fill="#000000" font-family="sans-serif" font-size="13" lengthAdjust="spacing" textLength="7" x="311.1534" y="405.178">1</text><text fill="#000000" font-family="sans-serif" font-size="13" lengthAdjust="spacing" textLength="5" x="421.4326" y="406.5914">*</text></g><!--link AnnouncementRequest to Property--><g id="link_AnnouncementRequest_Property"><path codeLine="100" d="M530.65,434.05 C564.27,475.38 634.23,561.4 675.36,611.98 " fill="none" id="AnnouncementRequest-Property" style="stroke:#181818;stroke-width:1.0;"/><polygon fill="#000000" points="657.6548,527.1408,654.2277,518.2691,649.6676,521.9779,657.6548,527.1408" style="stroke:#000000;stroke-width:1.0;"/><text fill="#000000" font-family="sans-serif" font-size="13" lengthAdjust="spacing" textLength="21" x="663.5" y="527.7686">has</text><text fill="#000000" font-family="sans-serif" font-size="13" lengthAdjust="spacing" textLength="7" x="527.6603" y="453.9343">1</text></g><!--link TypeOfProperty to Property--><g id="link_TypeOfProperty_Property"><path codeLine="101" d="M789.61,434.05 C774,475.38 741.52,561.4 722.42,611.98 " fill="none" id="TypeOfProperty-Property" style="stroke:#181818;stroke-width:1.0;"/><text fill="#000000" font-family="sans-serif" font-size="13" lengthAdjust="spacing" textLength="41" x="777.5" y="476.7686">defines</text><text fill="#000000" font-family="sans-serif" font-size="13" lengthAdjust="spacing" textLength="4" x="796" y="491.292">&#160;</text><text fill="#000000" font-family="sans-serif" font-size="13" lengthAdjust="spacing" textLength="4" x="796" y="505.8154">&#160;</text><text fill="#000000" font-family="sans-serif" font-size="13" lengthAdjust="spacing" textLength="4" x="796" y="520.3389">&#160;</text><text fill="#000000" font-family="sans-serif" font-size="13" lengthAdjust="spacing" textLength="4" x="796" y="534.8623">&#160;</text><text fill="#000000" font-family="sans-serif" font-size="13" lengthAdjust="spacing" textLength="4" x="796" y="549.3857">&#160;</text><text fill="#000000" font-family="sans-serif" font-size="13" lengthAdjust="spacing" textLength="4" x="796" y="563.9092">&#160;</text><text fill="#000000" font-family="sans-serif" font-size="13" lengthAdjust="spacing" textLength="4" x="796" y="578.4326">&#160;</text><text fill="#000000" font-family="sans-serif" font-size="13" lengthAdjust="spacing" textLength="7" x="779.4351" y="453.9343">1</text></g><!--reverse link Property to Residence--><g id="link_Property_Residence"><path codeLine="102" d="M707.5,713.27 C707.5,726.91 707.5,741.09 707.5,753.66 " fill="none" id="Property-backto-Residence" style="stroke:#181818;stroke-width:1.0;"/><polygon fill="none" points="700.5,713.24,707.5,693.24,714.5,713.24,700.5,713.24" style="stroke:#181818;stroke-width:1.0;"/></g><!--reverse link Residence to House--><g id="link_Residence_House"><path codeLine="103" d="M677.61,853.31 C667.53,872.81 656.65,893.85 647.99,910.6 " fill="none" id="Residence-backto-House" style="stroke:#181818;stroke-width:1.0;"/><polygon fill="none" points="671.53,849.83,686.93,835.28,683.97,856.26,671.53,849.83" style="stroke:#181818;stroke-width:1.0;"/></g><!--link AnnouncementRequest to Photos--><g id="link_AnnouncementRequest_Photos"><path codeLine="104" d="M588.64,409.5 C611.67,409.5 635.59,409.5 653.78,409.5 " fill="none" id="AnnouncementRequest-to-Photos" style="stroke:#181818;stroke-width:1.0;"/><polygon fill="#181818" points="659.23,409.5,650.23,405.5,654.23,409.5,650.23,413.5,659.23,409.5" style="stroke:#181818;stroke-width:1.0;"/><polygon fill="#000000" points="616,398.7617,606.9549,395.8228,606.9549,401.7006,616,398.7617" style="stroke:#000000;stroke-width:1.0;"/><text fill="#000000" font-family="sans-serif" font-size="13" lengthAdjust="spacing" textLength="21" x="620" y="403.2686">has</text><text fill="#000000" font-family="sans-serif" font-size="13" lengthAdjust="spacing" textLength="5" x="596.4796" y="406.5914">*</text><text fill="#000000" font-family="sans-serif" font-size="13" lengthAdjust="spacing" textLength="29" x="622.4003" y="422.6705">1..30</text></g><!--link Residence to AvailableEquipment--><g id="link_Residence_AvailableEquipment"><path codeLine="105" d="M728.07,835.28 C741.87,861.98 759.59,896.26 771.23,918.78 " fill="none" id="Residence-AvailableEquipment" style="stroke:#181818;stroke-width:1.0;"/><text fill="#000000" font-family="sans-serif" font-size="13" lengthAdjust="spacing" textLength="49" x="750.5" y="877.7686">contains</text></g><!--link House to SunExposure--><g id="link_House_SunExposure"><path codeLine="106" d="M631.5,976.37 C631.5,1015.02 631.5,1079.27 631.5,1113.81 " fill="none" id="House-SunExposure" style="stroke:#181818;stroke-width:1.0;"/><text fill="#000000" font-family="sans-serif" font-size="13" lengthAdjust="spacing" textLength="49" x="632.5" y="1049.7686">contains</text></g><!--link Address to Property--><g id="link_Address_Property"><path codeLine="108" d="M541.05,652.5 C560.58,652.5 586.06,652.5 611.19,652.5 " fill="none" id="Address-Property" style="stroke:#181818;stroke-width:1.0;"/><polygon fill="#000000" points="558.25,641.7617,567.2951,644.7006,567.2951,638.8228,558.25,641.7617" style="stroke:#000000;stroke-width:1.0;"/><text fill="#000000" font-family="sans-serif" font-size="13" lengthAdjust="spacing" textLength="21" x="572.25" y="646.2686">has</text><text fill="#000000" font-family="sans-serif" font-size="13" lengthAdjust="spacing" textLength="7" x="548.8978" y="648.8868">1</text><text fill="#000000" font-family="sans-serif" font-size="13" lengthAdjust="spacing" textLength="7" x="596.5483" y="649.7694">1</text></g><!--link District to State--><g id="link_District_State"><path codeLine="109" d="M246.64,652.5 C269.04,652.5 295.6,652.5 317.32,652.5 " fill="none" id="District-State" style="stroke:#181818;stroke-width:1.0;"/><polygon fill="#000000" points="264,641.7617,273.0451,644.7006,273.0451,638.8228,264,641.7617" style="stroke:#000000;stroke-width:1.0;"/><text fill="#000000" font-family="sans-serif" font-size="13" lengthAdjust="spacing" textLength="21" x="278" y="646.2686">has</text><text fill="#000000" font-family="sans-serif" font-size="13" lengthAdjust="spacing" textLength="5" x="254.5514" y="649.1722">*</text><text fill="#000000" font-family="sans-serif" font-size="13" lengthAdjust="spacing" textLength="7" x="302.4688" y="649.0862">1</text></g><!--link City to District--><g id="link_City_District"><path codeLine="110" d="M82.02,652.5 C103.17,652.5 129.78,652.5 152.32,652.5 " fill="none" id="City-District" style="stroke:#181818;stroke-width:1.0;"/><polygon fill="#000000" points="99.25,641.7617,108.2951,644.7006,108.2951,638.8228,99.25,641.7617" style="stroke:#000000;stroke-width:1.0;"/><text fill="#000000" font-family="sans-serif" font-size="13" lengthAdjust="spacing" textLength="21" x="113.25" y="646.2686">has</text><text fill="#000000" font-family="sans-serif" font-size="13" lengthAdjust="spacing" textLength="5" x="89.8989" y="648.9143">*</text><text fill="#000000" font-family="sans-serif" font-size="13" lengthAdjust="spacing" textLength="7" x="137.5596" y="649.2152">1</text></g><!--link State to Address--><g id="link_State_Address"><path codeLine="111" d="M401.62,652.5 C423.85,652.5 450.79,652.5 471.8,652.5 " fill="none" id="State-Address" style="stroke:#181818;stroke-width:1.0;"/><polygon fill="#000000" points="428.75,641.7617,419.7049,638.8228,419.7049,644.7006,428.75,641.7617" style="stroke:#000000;stroke-width:1.0;"/><text fill="#000000" font-family="sans-serif" font-size="13" lengthAdjust="spacing" textLength="21" x="432.75" y="646.2686">has</text><text fill="#000000" font-family="sans-serif" font-size="13" lengthAdjust="spacing" textLength="7" x="409.4609" y="649.0862">1</text><text fill="#000000" font-family="sans-serif" font-size="13" lengthAdjust="spacing" textLength="5" x="459.1275" y="648.8868">*</text></g><!--link Business to AnnouncementRequest--><g id="link_Business_AnnouncementRequest"><path codeLine="113" d="M511.5,229.18 C511.5,268.3 511.5,345.95 511.5,384.97 " fill="none" id="Business-AnnouncementRequest" style="stroke:#181818;stroke-width:1.0;"/><polygon fill="#000000" points="516.5,302.2617,513.5611,311.3068,519.4389,311.3068,516.5,302.2617" style="stroke:#000000;stroke-width:1.0;"/><text fill="#000000" font-family="sans-serif" font-size="13" lengthAdjust="spacing" textLength="21" x="525.5" y="311.7686">has</text><text fill="#000000" font-family="sans-serif" font-size="13" lengthAdjust="spacing" textLength="7" x="503.6031" y="249.0976">1</text><text fill="#000000" font-family="sans-serif" font-size="13" lengthAdjust="spacing" textLength="7" x="503.5594" y="374.2974">1</text></g><!--link Comission to Agent--><g id="link_Comission_Agent"><path codeLine="115" d="M169.33,409.5 C197.56,409.5 236,409.5 259.76,409.5 " fill="none" id="Comission-Agent" style="stroke:#181818;stroke-width:1.0;"/><polygon fill="#000000" points="186.5,398.7617,195.5451,401.7006,195.5451,395.8228,186.5,398.7617" style="stroke:#000000;stroke-width:1.0;"/><text fill="#000000" font-family="sans-serif" font-size="13" lengthAdjust="spacing" textLength="41" x="200.5" y="403.2686">defines</text><text fill="#000000" font-family="sans-serif" font-size="13" lengthAdjust="spacing" textLength="7" x="177.0731" y="405.9143">1</text><text fill="#000000" font-family="sans-serif" font-size="13" lengthAdjust="spacing" textLength="7" x="245.0303" y="405.26">1</text></g><!--SRC=[RLHDRnen4BtxLrWS8n4bxGr5aI11AfSK0UcXwiNiph9MTksDnzk4qlxtZksrroI016FFcpTVRnTVfEg44Iq_6DrtArM3aLQe0lWNXidPQgMBskWMk3KzP9vE52_Y05jxR80RA2ZsqEG0h4MftwGwy4eqc7kAHY3EhJLotrjO5LfjvH_WDwoM9V12ceA8lDs2hNM9ZFaGlcoxHXy1JknVl5g3GQrEx4cqm9Qja0rRrre1V-hRFHYs4-_HN1E-qyR6Ct4C9Cy8vkJzRzgK8_dy0CfcoUPAwPv6rDBr1bvxGFAMmaB6jG6aojqSJupJ9oJZkk8BA8tMBNwy5hQ-TByMviLDRqkJ1imwDhe3Ouy3_zo0y0QrRNKWUPGOLbdHvhYjtL0feA2oGz-1QNViu7iL-GATkyjoUSuXq_DcDNg-wHvZYmk1VYJ-G4eIUrBIdcJHwCgE8TjUBTyxZRs9WO_I2KTgbOtuDwtG1IzVUzavrW6RpYFsGQOfU5Cv3IIl6uAHXKsvXkCvQcjfVGCasEV-ULaQG4m80n3w_2ax_g3B3BheKQeHkzDMDBGjMMIO1zrAHEfu0FqGJH_KmuAI-TtVwTGBahcVS8owPz7mrrwTZFa_FhcTy2cVN4qkYNGcQV6gH6urHug-fwZFgC0nJGARyLeWOSzbyWbLGkNQ_gNoBqjmtq1wADZuU7Y7bz7bOgYLwJrbkxx-UZCPb1XB6bc8uu9aPfnUAbP8XIm8TKguJ7-pv6PnmRuj8m-r9QWxd8_XZWLrU5W3bKTHYL5MiR8aiuz0fz08IZclCWpXVOgOZoKzXOa7oANjne1C2OxKMqbmCpuiYlB_1m00]--></g></svg>