<?xml version="1.0" encoding="us-ascii" standalone="no"?><svg xmlns="http://www.w3.org/2000/svg" xmlns:xlink="http://www.w3.org/1999/xlink" contentStyleType="text/css" height="655px" preserveAspectRatio="none" style="width:690px;height:655px;background:#FFFFFF;" version="1.1" viewBox="0 0 690 655" width="690px" zoomAndPan="magnify"><defs/><g><text fill="#000000" font-family="sans-serif" font-size="14" font-weight="bold" lengthAdjust="spacing" textLength="156" x="260.25" y="22.6738">US003 - Domain Model</text><!--class SystemAdministrator--><g id="elem_SystemAdministrator"><rect codeLine="73" fill="#F1F1F1" height="25.6406" id="SystemAdministrator" rx="2.5" ry="2.5" style="stroke:#181818;stroke-width:0.5;" width="135" x="7" y="623.6406"/><text fill="#000000" font-family="sans-serif" font-size="14" lengthAdjust="spacing" textLength="129" x="10" y="641.3145">SystemAdministrator</text></g><!--class User--><g id="elem_User"><rect codeLine="43" fill="#F1F1F1" height="49.2813" id="User" rx="2.5" ry="2.5" style="stroke:#181818;stroke-width:0.5;" width="73" x="228" y="356.6406"/><text fill="#000000" font-family="sans-serif" font-size="14" lengthAdjust="spacing" textLength="29" x="250" y="374.3145">User</text><line style="stroke:#181818;stroke-width:0.5;" x1="229" x2="300" y1="382.2813" y2="382.2813"/><text fill="#000000" font-family="sans-serif" font-size="14" lengthAdjust="spacing" textLength="61" x="234" y="398.9551">Password</text></g><!--class Employee--><g id="elem_Employee"><rect codeLine="76" fill="#F1F1F1" height="25.6406" id="Employee" rx="2.5" ry="2.5" style="stroke:#181818;stroke-width:0.5;" width="68" x="230.5" y="501.6406"/><text fill="#000000" font-family="sans-serif" font-size="14" lengthAdjust="spacing" textLength="62" x="233.5" y="519.3145">Employee</text></g><polygon fill="none" points="263.7498,527.2813,269.5696,547.656,255.5935,546.8382" style="stroke:#181818;stroke-width:1.0;"/><line style="stroke:#181818;stroke-width:1.0;" x1="262.5815" x2="262.5" y1="547.2471" y2="548.6406"/><line style="stroke:#181818;stroke-width:1.0;" x1="264.5" x2="264.5" y1="501.6406" y2="481.4406"/><line style="stroke:#181818;stroke-width:1.0;" x1="298.5" x2="318.56" y1="514.5739" y2="514.6406"/><line style="stroke:#181818;stroke-width:1.0;" x1="230.5" x2="210.29" y1="514.5736" y2="514.6406"/><!--class Role--><g id="elem_Role"><rect codeLine="47" fill="#F1F1F1" height="49.2813" id="Role" rx="2.5" ry="2.5" style="stroke:#181818;stroke-width:0.5;" width="41" x="99" y="490.1406"/><text fill="#000000" font-family="sans-serif" font-size="14" lengthAdjust="spacing" textLength="29" x="105" y="507.8145">Role</text><line style="stroke:#181818;stroke-width:0.5;" x1="100" x2="139" y1="515.7813" y2="515.7813"/><text fill="#000000" font-family="sans-serif" font-size="14" lengthAdjust="spacing" textLength="29" x="105" y="532.4551">Role</text></g><!--class Agent--><g id="elem_Agent"><rect codeLine="22" fill="#F1F1F1" height="25.6406" id="Agent" rx="2.5" ry="2.5" style="stroke:#181818;stroke-width:0.5;" width="43" x="177" y="623.6406"/><text fill="#000000" font-family="sans-serif" font-size="14" lengthAdjust="spacing" textLength="37" x="180" y="641.3145">Agent</text></g><!--class StoreManager--><g id="elem_StoreManager"><rect codeLine="24" fill="#F1F1F1" height="25.6406" id="StoreManager" rx="2.5" ry="2.5" style="stroke:#181818;stroke-width:0.5;" width="96" x="255.5" y="623.6406"/><text fill="#000000" font-family="sans-serif" font-size="14" lengthAdjust="spacing" textLength="90" x="258.5" y="641.3145">StoreManager</text></g><!--class StoreNetworkManager--><g id="elem_StoreNetworkManager"><rect codeLine="26" fill="#F1F1F1" height="25.6406" id="StoreNetworkManager" rx="2.5" ry="2.5" style="stroke:#181818;stroke-width:0.5;" width="146" x="386.5" y="623.6406"/><text fill="#000000" font-family="sans-serif" font-size="14" lengthAdjust="spacing" textLength="140" x="389.5" y="641.3145">StoreNetworkManager</text></g><!--class Store--><g id="elem_Store"><rect codeLine="51" fill="#F1F1F1" height="49.2813" id="Store" rx="2.5" ry="2.5" style="stroke:#181818;stroke-width:0.5;" width="87" x="416" y="490.1406"/><text fill="#000000" font-family="sans-serif" font-size="14" lengthAdjust="spacing" textLength="34" x="442.5" y="507.8145">Store</text><line style="stroke:#181818;stroke-width:0.5;" x1="417" x2="502" y1="515.7813" y2="515.7813"/><text fill="#000000" font-family="sans-serif" font-size="14" lengthAdjust="spacing" textLength="75" x="422" y="532.4551">Designation</text></g><!--class Address--><g id="elem_Address"><rect codeLine="56" fill="#F1F1F1" height="64.9219" id="Address" rx="2.5" ry="2.5" style="stroke:#181818;stroke-width:0.5;" width="69" x="610" y="482.1406"/><text fill="#000000" font-family="sans-serif" font-size="14" lengthAdjust="spacing" textLength="52" x="618.5" y="499.8145">Address</text><line style="stroke:#181818;stroke-width:0.5;" x1="611" x2="678" y1="507.7813" y2="507.7813"/><text fill="#000000" font-family="sans-serif" font-size="14" lengthAdjust="spacing" textLength="38" x="616" y="524.4551">Street</text><text fill="#000000" font-family="sans-serif" font-size="14" lengthAdjust="spacing" textLength="57" x="616" y="540.0957">Zip Code</text></g><!--class Person--><g id="elem_Person"><rect codeLine="34" fill="#F1F1F1" height="111.8438" id="Person" rx="2.5" ry="2.5" style="stroke:#181818;stroke-width:0.5;" width="121" x="204" y="168.6406"/><text fill="#000000" font-family="sans-serif" font-size="14" lengthAdjust="spacing" textLength="45" x="242" y="186.3145">Person</text><line style="stroke:#181818;stroke-width:0.5;" x1="205" x2="324" y1="194.2813" y2="194.2813"/><text fill="#000000" font-family="sans-serif" font-size="14" lengthAdjust="spacing" textLength="36" x="210" y="210.9551">Name</text><text fill="#000000" font-family="sans-serif" font-size="14" lengthAdjust="spacing" textLength="34" x="210" y="226.5957">Email</text><text fill="#000000" font-family="sans-serif" font-size="14" lengthAdjust="spacing" textLength="94" x="210" y="242.2363">Phone Number</text><text fill="#000000" font-family="sans-serif" font-size="14" lengthAdjust="spacing" textLength="76" x="210" y="257.877">Tax Number</text><text fill="#000000" font-family="sans-serif" font-size="14" lengthAdjust="spacing" textLength="109" x="210" y="273.5176">Passport Number</text></g><!--class District--><g id="elem_District"><rect codeLine="61" fill="#F1F1F1" height="49.2813" id="District" rx="2.5" ry="2.5" style="stroke:#181818;stroke-width:0.5;" width="49" x="620" y="200.1406"/><text fill="#000000" font-family="sans-serif" font-size="14" lengthAdjust="spacing" textLength="43" x="623" y="217.8145">District</text><line style="stroke:#181818;stroke-width:0.5;" x1="621" x2="668" y1="225.7813" y2="225.7813"/><text fill="#000000" font-family="sans-serif" font-size="14" lengthAdjust="spacing" textLength="36" x="626" y="242.4551">Name</text></g><!--class City--><g id="elem_City"><rect codeLine="65" fill="#F1F1F1" height="49.2813" id="City" rx="2.5" ry="2.5" style="stroke:#181818;stroke-width:0.5;" width="48" x="620.5" y="43.6406"/><text fill="#000000" font-family="sans-serif" font-size="14" lengthAdjust="spacing" textLength="24" x="632.5" y="61.3145">City</text><line style="stroke:#181818;stroke-width:0.5;" x1="621.5" x2="667.5" y1="69.2813" y2="69.2813"/><text fill="#000000" font-family="sans-serif" font-size="14" lengthAdjust="spacing" textLength="36" x="626.5" y="85.9551">Name</text></g><!--class State--><g id="elem_State"><rect codeLine="69" fill="#F1F1F1" height="49.2813" id="State" rx="2.5" ry="2.5" style="stroke:#181818;stroke-width:0.5;" width="45" x="622" y="356.6406"/><text fill="#000000" font-family="sans-serif" font-size="14" lengthAdjust="spacing" textLength="33" x="628" y="374.3145">State</text><line style="stroke:#181818;stroke-width:0.5;" x1="623" x2="666" y1="382.2813" y2="382.2813"/><text fill="#000000" font-family="sans-serif" font-size="14" lengthAdjust="spacing" textLength="33" x="628" y="398.9551">State</text></g><!--reverse link Person to User--><g id="link_Person_User"><path codeLine="82" d="M264.5,301.2506 C264.5,321.3606 264.5,341.6206 264.5,356.5806 " fill="none" id="Person-backto-User" style="stroke:#181818;stroke-width:1.0;"/><polygon fill="none" points="257.5,300.9806,264.5,280.9806,271.5,300.9806,257.5,300.9806" style="stroke:#181818;stroke-width:1.0;"/></g><!--reverse link User to Employee--><g id="link_User_Employee"><path codeLine="85" d="M264.5,425.7706 C264.5,443.9506 264.5,464.6806 264.5,481.4406 " fill="none" id="User-backto-Employee" style="stroke:#181818;stroke-width:1.0;"/><polygon fill="none" points="257.5,425.6506,264.5,405.6506,271.5,425.6506,257.5,425.6506" style="stroke:#181818;stroke-width:1.0;"/></g><!--reverse link Employee to Agent--><g id="link_Employee_Agent"><path codeLine="87" d="M262.5,548.6406 C262.5,548.6406 224.98,599.6406 207.4,623.5406 " fill="none" id="Employee-backto-Agent" style="stroke:#181818;stroke-width:1.0;"/></g><!--reverse link Employee to StoreNetworkManager--><g id="link_Employee_StoreNetworkManager"><path codeLine="88" d="M262.5,548.6406 C262.5,548.6406 377.98,599.6406 432.11,623.5406 " fill="none" id="Employee-backto-StoreNetworkManager" style="stroke:#181818;stroke-width:1.0;"/></g><!--reverse link Employee to StoreManager--><g id="link_Employee_StoreManager"><path codeLine="89" d="M262.5,548.6406 C262.5,548.6406 286.53,599.6406 297.8,623.5406 " fill="none" id="Employee-backto-StoreManager" style="stroke:#181818;stroke-width:1.0;"/></g><!--reverse link Employee to SystemAdministrator--><g id="link_Employee_SystemAdministrator"><path codeLine="90" d="M262.5,548.6406 C262.5,548.6406 152.3,599.6406 100.64,623.5406 " fill="none" id="Employee-backto-SystemAdministrator" style="stroke:#181818;stroke-width:1.0;"/></g><!--link Store to Address--><g id="link_Store_Address"><path codeLine="93" d="M503.34,514.6406 C535.93,514.6406 579.79,514.6406 609.92,514.6406 " fill="none" id="Store-Address" style="stroke:#181818;stroke-width:1.0;"/><polygon fill="#000000" points="530.5,503.9023,521.4549,500.9634,521.4549,506.8413,530.5,503.9023" style="stroke:#000000;stroke-width:1.0;"/><text fill="#000000" font-family="sans-serif" font-size="13" lengthAdjust="spacing" textLength="57" x="534.5" y="508.4092">located at</text><text fill="#000000" font-family="sans-serif" font-size="13" lengthAdjust="spacing" textLength="5" x="511.0151" y="511.2699">*</text><text fill="#000000" font-family="sans-serif" font-size="13" lengthAdjust="spacing" textLength="7" x="595.066" y="511.0275">1</text></g><!--link Employee to Store--><g id="link_Employee_Store"><path codeLine="94" d="M318.56,514.6406 C349.22,514.6406 387.08,514.6406 415.84,514.6406 " fill="none" id="Employee-Store" style="stroke:#181818;stroke-width:1.0;"/><polygon fill="#000000" points="345.75,503.9023,336.7049,500.9634,336.7049,506.8413,345.75,503.9023" style="stroke:#000000;stroke-width:1.0;"/><text fill="#000000" font-family="sans-serif" font-size="13" lengthAdjust="spacing" textLength="48" x="349.75" y="508.4092">works in</text><text fill="#000000" font-family="sans-serif" font-size="13" lengthAdjust="spacing" textLength="7" x="326.6544" y="511.4869">1</text><text fill="#000000" font-family="sans-serif" font-size="13" lengthAdjust="spacing" textLength="5" x="402.9062" y="511.2269">*</text></g><!--link Role to Employee--><g id="link_Role_Employee"><path codeLine="96" d="M140.27,514.6406 C158.52,514.6406 185.89,514.6406 210.29,514.6406 " fill="none" id="Role-Employee" style="stroke:#181818;stroke-width:1.0;"/><polygon fill="#000000" points="157.25,503.9023,166.2951,506.8413,166.2951,500.9634,157.25,503.9023" style="stroke:#000000;stroke-width:1.0;"/><text fill="#000000" font-family="sans-serif" font-size="13" lengthAdjust="spacing" textLength="21" x="171.25" y="508.4092">has</text><text fill="#000000" font-family="sans-serif" font-size="13" lengthAdjust="spacing" textLength="7" x="148.0061" y="510.2165">1</text><text fill="#000000" font-family="sans-serif" font-size="13" lengthAdjust="spacing" textLength="7" x="195.5352" y="511.5279">1</text></g><!--link Store to StoreNetworkManager--><g id="link_Store_StoreNetworkManager"><path codeLine="98" d="M459.5,539.3506 C459.5,564.6206 459.5,603.6506 459.5,623.3606 " fill="none" id="Store-StoreNetworkManager" style="stroke:#181818;stroke-width:1.0;"/><polygon fill="#000000" points="464.5,580.9023,461.5611,589.9474,467.4389,589.9474,464.5,580.9023" style="stroke:#000000;stroke-width:1.0;"/><text fill="#000000" font-family="sans-serif" font-size="13" lengthAdjust="spacing" textLength="53" x="473.5" y="590.4092">manages</text><text fill="#000000" font-family="sans-serif" font-size="13" lengthAdjust="spacing" textLength="7" x="451.6031" y="559.2759">1</text><text fill="#000000" font-family="sans-serif" font-size="13" lengthAdjust="spacing" textLength="5" x="453.4688" y="612.9458">*</text></g><!--link State to Address--><g id="link_State_Address"><path codeLine="100" d="M644.5,405.6506 C644.5,426.9306 644.5,458.4306 644.5,481.9306 " fill="none" id="State-Address" style="stroke:#181818;stroke-width:1.0;"/><polygon fill="#000000" points="649.5,448.9023,652.4389,439.8573,646.5611,439.8573,649.5,448.9023" style="stroke:#000000;stroke-width:1.0;"/><text fill="#000000" font-family="sans-serif" font-size="13" lengthAdjust="spacing" textLength="24" x="658.5" y="448.4092">is in</text><text fill="#000000" font-family="sans-serif" font-size="13" lengthAdjust="spacing" textLength="7" x="636.6031" y="425.5246">1</text><text fill="#000000" font-family="sans-serif" font-size="13" lengthAdjust="spacing" textLength="5" x="638.9844" y="471.571">*</text></g><!--link District to State--><g id="link_District_State"><path codeLine="102" d="M644.5,249.4406 C644.5,278.5606 644.5,327.5506 644.5,356.5606 " fill="none" id="District-State" style="stroke:#181818;stroke-width:1.0;"/><polygon fill="#000000" points="649.5,323.9023,652.4389,314.8573,646.5611,314.8573,649.5,323.9023" style="stroke:#000000;stroke-width:1.0;"/><text fill="#000000" font-family="sans-serif" font-size="13" lengthAdjust="spacing" textLength="24" x="658.5" y="323.4092">is in</text><text fill="#000000" font-family="sans-serif" font-size="13" lengthAdjust="spacing" textLength="5" x="638.8594" y="269.389">*</text><text fill="#000000" font-family="sans-serif" font-size="13" lengthAdjust="spacing" textLength="7" x="636.5594" y="345.8746">1</text></g><!--link City to District--><g id="link_City_District"><path codeLine="104" d="M644.5,92.9406 C644.5,122.0606 644.5,171.0506 644.5,200.0606 " fill="none" id="City-District" style="stroke:#181818;stroke-width:1.0;"/><polygon fill="#000000" points="649.5,135.9023,652.4389,126.8573,646.5611,126.8573,649.5,135.9023" style="stroke:#000000;stroke-width:1.0;"/><text fill="#000000" font-family="sans-serif" font-size="13" lengthAdjust="spacing" textLength="24" x="658.5" y="135.4092">is in</text><text fill="#000000" font-family="sans-serif" font-size="13" lengthAdjust="spacing" textLength="5" x="638.8594" y="112.889">*</text><text fill="#000000" font-family="sans-serif" font-size="13" lengthAdjust="spacing" textLength="7" x="636.5594" y="189.3746">1</text></g><!--SRC=[ZLDDRzim3BthLn2v31ZWfKLlHb6WQ7hOeK5GhvVTD9krXUZ3a1XqHfR_FigAlz8Cs4dIu-CJ7obzQOZQaA_NhPQM3aP_AvrPbrg6a5LArbuQ8KYHHdWhRcxk88EDCr9PU74LQY72NjbMCWsCiwvil3C8v0yuYxIotCiQ2-fOncD9qjPwJWYDhDo7iZMyInrGDAf2GDDI1mRDB_HXHgwzExJVRODUiL29S9VufV8bgug-U2YwG6WUAwEi2kGbEJ-4tWAE-sVJQjVXcFRg_alYiKPB8uy3-28jM_GBR8lquVp-McWKgYgF8Gp77LjrTdawYgqqA9wvwrhi6cSHjeVO5F53_XwsE-QtpjDmFecvssCVvrgg69YSmb7qXa-BsXZTO52rbQHYCQUBOZbUa4SayLEryCJlOA9iOgTKIUUYH_n9KNU95IG9enOlC_Hpr_d2q-N06EjDYjGakF-JPUV9YhWaO1hlcDVZQNvBxDh8hZ3-4RhsLaHgv-hhYh_DwdOrDZ07xKfsNO4aU9Ya8YVh-IapXrXC0Fvk3-A2fl6T-bq_o1mQ6IBfV6Lap9IMjfXj-bs0Uv7wFy-OgbJ3rSDOavTa9kNDI776SyAOb8-Klm00]--></g></svg>