<?xml version="1.0" encoding="UTF-8" standalone="no"?><svg xmlns="http://www.w3.org/2000/svg" xmlns:xlink="http://www.w3.org/1999/xlink" contentStyleType="text/css" height="4431px" preserveAspectRatio="none" style="width:1392px;height:4431px;background:#FFFFFF;" version="1.1" viewBox="0 0 1392 4431" width="1392px" zoomAndPan="magnify"><defs/><g><!--cluster System--><g id="cluster_System"><path d="M240.5,6.8945 L311.5,6.8945 A3.75,3.75 0 0 1 314,9.3945 L321,38.0508 L1382.5,38.0508 A2.5,2.5 0 0 1 1385,40.5508 L1385,4422.3945 A2.5,2.5 0 0 1 1382.5,4424.8945 L240.5,4424.8945 A2.5,2.5 0 0 1 238,4422.3945 L238,9.3945 A2.5,2.5 0 0 1 240.5,6.8945 " fill="none" style="stroke:#000000;stroke-width:1.5;"/><line style="stroke:#000000;stroke-width:1.5;" x1="238" x2="321" y1="38.0508" y2="38.0508"/><text fill="#000000" font-family="sans-serif" font-size="20" font-weight="bold" lengthAdjust="spacing" textLength="70" x="242" y="29.6563">System</text></g><g id="elem_UC1"><ellipse cx="811.6183" cy="2393.8182" fill="#F1F1F1" rx="305.1183" ry="63.4237" style="stroke:#181818;stroke-width:0.5;"/><text fill="#000000" font-family="sans-serif" font-size="20" lengthAdjust="spacing" textLength="579" x="522.1183" y="2400.0018">UC01: As an unregistered user, I want to display listed properties.</text></g><g id="elem_UC2"><ellipse cx="811.3555" cy="1979.8656" fill="#F1F1F1" rx="517.8555" ry="105.9711" style="stroke:#181818;stroke-width:0.5;"/><text fill="#000000" font-family="sans-serif" font-size="20" lengthAdjust="spacing" textLength="1010" x="306.3555" y="1986.0492">UC02: As an agent, I can publish any sale announcement on the system, for example received through a phone call.</text></g><g id="elem_UC3"><ellipse cx="811.3151" cy="316.6575" fill="#F1F1F1" rx="319.3151" ry="66.263" style="stroke:#181818;stroke-width:0.5;"/><text fill="#000000" font-family="sans-serif" font-size="20" lengthAdjust="spacing" textLength="608" x="507.3151" y="322.8411">UC03: As a system administrator, I want to register a new employee.</text></g><g id="elem_UC4"><ellipse cx="811.3972" cy="2597.774" fill="#F1F1F1" rx="512.3972" ry="104.8794" style="stroke:#181818;stroke-width:0.5;"/><text fill="#000000" font-family="sans-serif" font-size="20" lengthAdjust="spacing" textLength="999" x="311.8972" y="2603.9576">UC04: As an owner, I intend to submit a request for listing a property sale or rent, choosing the responsible agent.</text></g><g id="elem_UC5"><ellipse cx="811.2539" cy="476.6453" fill="#F1F1F1" rx="279.2539" ry="58.2508" style="stroke:#181818;stroke-width:0.5;"/><text fill="#000000" font-family="sans-serif" font-size="20" lengthAdjust="spacing" textLength="526" x="548.2539" y="482.8289">UC05: As a system administrator, I want to register a store.</text></g><g id="elem_UC6"><ellipse cx="811.3186" cy="655.9583" fill="#F1F1F1" rx="415.8186" ry="85.5637" style="stroke:#181818;stroke-width:0.5;"/><text fill="#000000" font-family="sans-serif" font-size="20" lengthAdjust="spacing" textLength="804" x="409.3186" y="662.1419">UC06: As a system administrator, I want to specify states, districts and cities in the system.</text></g><g id="elem_UC7"><ellipse cx="811.727" cy="2208.0399" fill="#F1F1F1" rx="423.727" ry="87.1454" style="stroke:#181818;stroke-width:0.5;"/><text fill="#000000" font-family="sans-serif" font-size="20" lengthAdjust="spacing" textLength="820" x="401.727" y="2214.2235">UC07: As an unregistered user, I want to register in the system to buy, sell or rent properties.</text></g><g id="elem_UC8"><ellipse cx="811.5934" cy="1510.7132" fill="#F1F1F1" rx="372.0934" ry="76.8187" style="stroke:#181818;stroke-width:0.5;"/><text fill="#000000" font-family="sans-serif" font-size="20" lengthAdjust="spacing" textLength="682" x="470.5934" y="1504.3187">US08: As an agent, I intend to see the list of property announcement requests</text><text fill="#000000" font-family="sans-serif" font-size="20" lengthAdjust="spacing" textLength="465" x="579.0934" y="1529.4749">made to myself, so that I can post the announcement</text></g><g id="elem_UC9"><ellipse cx="811.2518" cy="2834.8449" fill="#F1F1F1" rx="470.2518" ry="96.4504" style="stroke:#181818;stroke-width:0.5;"/><text fill="#000000" font-family="sans-serif" font-size="20" lengthAdjust="spacing" textLength="914" x="354.2518" y="2841.0285">US09: As a client, I want to leave a message to the agent to schedule a visit to a property of my interest</text></g><g id="elem_UC10"><ellipse cx="811.4629" cy="3050.0871" fill="#F1F1F1" rx="403.9629" ry="83.1926" style="stroke:#181818;stroke-width:0.5;"/><text fill="#000000" font-family="sans-serif" font-size="20" lengthAdjust="spacing" textLength="780" x="421.4629" y="3056.2707">US10: As a client, I place an order to purchase the property, submitting the order amount</text></g><g id="elem_UC11"><ellipse cx="811.3843" cy="1730.7714" fill="#F1F1F1" rx="524.8843" ry="107.3769" style="stroke:#181818;stroke-width:0.5;"/><text fill="#000000" font-family="sans-serif" font-size="20" lengthAdjust="spacing" textLength="1001" x="310.8843" y="1724.3769">US11: As an agent, I want to list real estate purchase orders to accept or decline a purchase order for a property.</text><text fill="#000000" font-family="sans-serif" font-size="20" lengthAdjust="spacing" textLength="698" x="462.3843" y="1749.5331">After accepting or declining, an email notification should be sent to the customer</text></g><g id="elem_UC12"><ellipse cx="811.5845" cy="132.8114" fill="#F1F1F1" rx="397.5845" ry="81.9169" style="stroke:#181818;stroke-width:0.5;"/><text fill="#000000" font-family="sans-serif" font-size="20" lengthAdjust="spacing" textLength="736" x="443.5845" y="126.4169">US12: As a system administrator, I want to import information from a legacy system</text><text fill="#000000" font-family="sans-serif" font-size="20" lengthAdjust="spacing" textLength="349" x="637.0845" y="151.5731">that has been in use in several agencies</text></g><g id="elem_UC13"><ellipse cx="811.6442" cy="3839.0234" fill="#F1F1F1" rx="431.1442" ry="88.6288" style="stroke:#181818;stroke-width:0.5;"/><text fill="#000000" font-family="sans-serif" font-size="20" lengthAdjust="spacing" textLength="835" x="394.1442" y="3845.207">US13: As a network manager, I want to list all employees working in every store of the network</text></g><g id="elem_UC14"><ellipse cx="811.5486" cy="3258.8043" fill="#F1F1F1" rx="440.0486" ry="90.4097" style="stroke:#181818;stroke-width:0.5;"/><text fill="#000000" font-family="sans-serif" font-size="20" lengthAdjust="spacing" textLength="853" x="385.0486" y="3264.9878">US14: As a client, I want to read the response for the appointment requests, to accept or reject it</text></g><g id="elem_UC15"><ellipse cx="811.5963" cy="1085.0138" fill="#F1F1F1" rx="393.5963" ry="81.1193" style="stroke:#181818;stroke-width:0.5;"/><text fill="#000000" font-family="sans-serif" font-size="20" lengthAdjust="spacing" textLength="753" x="432.0963" y="1091.1974">US15: As an agent, I intend to list all booking requests for properties managed by me.</text></g><g id="elem_UC16"><ellipse cx="811.6671" cy="1299.7279" fill="#F1F1F1" rx="479.6671" ry="98.3334" style="stroke:#181818;stroke-width:0.5;"/><text fill="#000000" font-family="sans-serif" font-size="20" lengthAdjust="spacing" textLength="933" x="345.1671" y="1305.9115">US16: As an agent, when viewing a booking request, I want to respond to the user that scheduled the visit.</text></g><g id="elem_UC17"><ellipse cx="811.374" cy="3657.7693" fill="#F1F1F1" rx="274.874" ry="57.3748" style="stroke:#181818;stroke-width:0.5;"/><text fill="#000000" font-family="sans-serif" font-size="20" lengthAdjust="spacing" textLength="517" x="552.874" y="3663.9529">US17: As a network manager, I want to list all deals made.</text></g><g id="elem_UC18"><ellipse cx="811.3642" cy="4294.7674" fill="#F1F1F1" rx="557.3642" ry="113.8728" style="stroke:#181818;stroke-width:0.5;"/><text fill="#000000" font-family="sans-serif" font-size="20" lengthAdjust="spacing" textLength="884" x="369.3642" y="4263.2166">US18: As a store manager, I intend to analyse the deals (only sale of houses and apartments) made.</text><text fill="#000000" font-family="sans-serif" font-size="20" lengthAdjust="spacing" textLength="687" x="464.8642" y="4288.3728">In particular, I intend to compare property sale values with the forecast values.</text><text fill="#000000" font-family="sans-serif" font-size="20" lengthAdjust="spacing" textLength="497" x="562.8642" y="4313.5291">The prediction of the value of the business/property must</text><text fill="#000000" font-family="sans-serif" font-size="20" lengthAdjust="spacing" textLength="976" x="323.3642" y="4338.6853">be estimated based on the characteristics of the property and using linear and multilinear regression algorithms.</text></g><g id="elem_UC19"><ellipse cx="811.7017" cy="4054.1349" fill="#F1F1F1" rx="446.7017" ry="91.7403" style="stroke:#181818;stroke-width:0.5;"/><text fill="#000000" font-family="sans-serif" font-size="20" lengthAdjust="spacing" textLength="833" x="392.2017" y="4047.7403">US19: As a network manager, I want to divide the set of all stores into two subsets, so that the</text><text fill="#000000" font-family="sans-serif" font-size="20" lengthAdjust="spacing" textLength="775" x="424.2017" y="4072.8966">total number of properties of the stores between the two subsets is the closest possible.</text></g><g id="elem_UC20"><ellipse cx="811.5695" cy="3474.9084" fill="#F1F1F1" rx="438.0695" ry="90.0139" style="stroke:#181818;stroke-width:0.5;"/><text fill="#000000" font-family="sans-serif" font-size="20" lengthAdjust="spacing" textLength="849" x="387.0695" y="3481.092">US20: As a client, I want to read the response for the appointment request, to accept or reject it.</text></g><g id="elem_UC21"><ellipse cx="811.2793" cy="872.7504" fill="#F1F1F1" rx="467.2793" ry="95.8559" style="stroke:#181818;stroke-width:0.5;"/><text fill="#000000" font-family="sans-serif" font-size="20" lengthAdjust="spacing" textLength="908" x="357.2793" y="878.934">US21: As an agent, at the end of the visit, I want to register the visit and the opinion about the business.</text></g><!--entity admin--><g id="elem_admin"><ellipse cx="100" cy="362.8945" fill="#F1F1F1" rx="8" ry="8" style="stroke:#181818;stroke-width:0.5;"/><path d="M100,370.8945 L100,397.8945 M87,378.8945 L113,378.8945 M100,397.8945 L87,412.8945 M100,397.8945 L113,412.8945 " fill="none" style="stroke:#181818;stroke-width:0.5;"/><text fill="#000000" font-family="sans-serif" font-size="20" lengthAdjust="spacing" textLength="188" x="6" y="435.1563">System Administrator</text></g><!--entity agent--><g id="elem_agent"><ellipse cx="100" cy="1371.8945" fill="#F1F1F1" rx="8" ry="8" style="stroke:#181818;stroke-width:0.5;"/><path d="M100,1379.8945 L100,1406.8945 M87,1387.8945 L113,1387.8945 M100,1406.8945 L87,1421.8945 M100,1406.8945 L113,1421.8945 " fill="none" style="stroke:#181818;stroke-width:0.5;"/><text fill="#000000" font-family="sans-serif" font-size="20" lengthAdjust="spacing" textLength="51" x="74.5" y="1444.1563">Agent</text></g><!--entity user--><g id="elem_user"><ellipse cx="100" cy="2266.8945" fill="#F1F1F1" rx="8" ry="8" style="stroke:#181818;stroke-width:0.5;"/><path d="M100,2274.8945 L100,2301.8945 M87,2282.8945 L113,2282.8945 M100,2301.8945 L87,2316.8945 M100,2301.8945 L113,2316.8945 " fill="none" style="stroke:#181818;stroke-width:0.5;"/><text fill="#000000" font-family="sans-serif" font-size="20" lengthAdjust="spacing" textLength="156" x="22" y="2339.1563">Unregistered user</text></g><!--entity owner--><g id="elem_owner"><ellipse cx="100" cy="2563.8945" fill="#F1F1F1" rx="8" ry="8" style="stroke:#181818;stroke-width:0.5;"/><path d="M100,2571.8945 L100,2598.8945 M87,2579.8945 L113,2579.8945 M100,2598.8945 L87,2613.8945 M100,2598.8945 L113,2613.8945 " fill="none" style="stroke:#181818;stroke-width:0.5;"/><text fill="#000000" font-family="sans-serif" font-size="20" lengthAdjust="spacing" textLength="59" x="70.5" y="2636.1563">Owner</text></g><!--entity client--><g id="elem_client"><ellipse cx="100" cy="3120.8945" fill="#F1F1F1" rx="8" ry="8" style="stroke:#181818;stroke-width:0.5;"/><path d="M100,3128.8945 L100,3155.8945 M87,3136.8945 L113,3136.8945 M100,3155.8945 L87,3170.8945 M100,3155.8945 L113,3170.8945 " fill="none" style="stroke:#181818;stroke-width:0.5;"/><text fill="#000000" font-family="sans-serif" font-size="20" lengthAdjust="spacing" textLength="49" x="75.5" y="3193.1563">Client</text></g><!--entity manager--><g id="elem_manager"><ellipse cx="100" cy="3804.8945" fill="#F1F1F1" rx="8" ry="8" style="stroke:#181818;stroke-width:0.5;"/><path d="M100,3812.8945 L100,3839.8945 M87,3820.8945 L113,3820.8945 M100,3839.8945 L87,3854.8945 M100,3839.8945 L113,3854.8945 " fill="none" style="stroke:#181818;stroke-width:0.5;"/><text fill="#000000" font-family="sans-serif" font-size="20" lengthAdjust="spacing" textLength="154" x="23" y="3877.1563">network Manager</text></g><!--entity smanager--><g id="elem_smanager"><ellipse cx="100" cy="4260.8945" fill="#F1F1F1" rx="8" ry="8" style="stroke:#181818;stroke-width:0.5;"/><path d="M100,4268.8945 L100,4295.8945 M87,4276.8945 L113,4276.8945 M100,4295.8945 L87,4310.8945 M100,4295.8945 L113,4310.8945 " fill="none" style="stroke:#181818;stroke-width:0.5;"/><text fill="#000000" font-family="sans-serif" font-size="20" lengthAdjust="spacing" textLength="129" x="35.5" y="4333.1563">store Manager</text></g><!--link admin to UC3--><g id="link_admin_UC3"><path d="M194.12,386.3945 C278.4,376.8945 407.03,362.3845 525.03,349.0845 " fill="none" id="admin-to-UC3" style="stroke:#181818;stroke-width:1.0;"/><polygon fill="#181818" points="530.28,348.4945,520.8905,345.5218,525.3111,349.0514,521.7815,353.472,530.28,348.4945" style="stroke:#181818;stroke-width:1.0;"/></g><!--link admin to UC5--><g id="link_admin_UC5"><path d="M194.12,407.3945 C286.73,417.8345 432.91,434.3145 559.67,448.6145 " fill="none" id="admin-to-UC5" style="stroke:#181818;stroke-width:1.0;"/><polygon fill="#181818" points="564.93,449.2045,556.4456,444.203,559.9627,448.6336,555.5321,452.1507,564.93,449.2045" style="stroke:#181818;stroke-width:1.0;"/></g><!--link admin to UC6--><g id="link_admin_UC6"><path d="M124.5,439.5345 C146.78,475.7145 183.7,525.9045 230,552.8945 C286.67,585.9245 351.34,608.8745 416.45,624.7145 " fill="none" id="admin-to-UC6" style="stroke:#181818;stroke-width:1.0;"/><polygon fill="#181818" points="421.54,625.9345,413.7247,619.9412,416.6786,624.7655,411.8542,627.7194,421.54,625.9345" style="stroke:#181818;stroke-width:1.0;"/></g><!--link admin to UC12--><g id="link_admin_UC12"><path d="M122.66,354.2445 C144.41,316.0445 181.61,261.7345 230,232.8945 C289.41,197.4845 357.94,173.8145 426.63,158.1345 " fill="none" id="admin-to-UC12" style="stroke:#181818;stroke-width:1.0;"/><polygon fill="#181818" points="431.57,157.0245,421.91,155.1051,426.6928,158.1258,423.6721,162.9086,431.57,157.0245" style="stroke:#181818;stroke-width:1.0;"/></g><!--link user to UC1--><g id="link_user_UC1"><path d="M178.28,2311.0245 C266.75,2322.6245 416.43,2342.2445 547.95,2359.4845 " fill="none" id="user-to-UC1" style="stroke:#181818;stroke-width:1.0;"/><polygon fill="#181818" points="553.02,2360.1445,544.6237,2354.9965,548.0634,2359.4875,543.5724,2362.9271,553.02,2360.1445" style="stroke:#181818;stroke-width:1.0;"/></g><!--link user to UC7--><g id="link_user_UC7"><path d="M178.28,2290.7645 C245.03,2282.0145 346.63,2268.6945 448.99,2255.2845 " fill="none" id="user-to-UC7" style="stroke:#181818;stroke-width:1.0;"/><polygon fill="#181818" points="454.17,2254.6045,444.7303,2251.7952,449.2115,2255.2476,445.7592,2259.7288,454.17,2254.6045" style="stroke:#181818;stroke-width:1.0;"/></g><!--link agent to UC2--><g id="link_agent_UC2"><path d="M107.54,1448.5345 C123.92,1549.6245 169.7,1799.6045 230,1855.8945 C263.43,1887.1045 302.72,1911.2245 344.83,1929.7645 " fill="none" id="agent-to-UC2" style="stroke:#181818;stroke-width:1.0;"/><polygon fill="#181818" points="349.45,1931.7745,342.7995,1924.5101,344.8669,1929.7757,339.6014,1931.8431,349.45,1931.7745" style="stroke:#181818;stroke-width:1.0;"/></g><!--link agent to UC8--><g id="link_agent_UC8"><path d="M125.84,1409.5745 C187.04,1418.6245 351.22,1442.9245 503.46,1465.4545 " fill="none" id="agent-to-UC8" style="stroke:#181818;stroke-width:1.0;"/><polygon fill="#181818" points="508.42,1466.1845,500.1144,1460.8914,503.4755,1465.4414,498.9255,1468.8025,508.42,1466.1845" style="stroke:#181818;stroke-width:1.0;"/></g><!--link agent to UC11--><g id="link_agent_UC11"><path d="M116.95,1448.3945 C136.45,1494.3345 173.94,1566.1545 230,1604.8945 C270.29,1632.7445 315.62,1654.5945 362.72,1671.7145 " fill="none" id="agent-to-UC11" style="stroke:#181818;stroke-width:1.0;"/><polygon fill="#181818" points="367.58,1673.4545,360.4588,1666.6509,362.8736,1671.7665,357.758,1674.1812,367.58,1673.4545" style="stroke:#181818;stroke-width:1.0;"/></g><!--link agent to UC15--><g id="link_agent_UC15"><path d="M113.51,1363.0945 C130.86,1311.8045 167.38,1227.3545 230,1183.8945 C286.6,1144.6145 353.62,1119.1645 421.65,1102.9645 " fill="none" id="agent-to-UC15" style="stroke:#181818;stroke-width:1.0;"/><polygon fill="#181818" points="426.55,1101.8145,416.8743,1099.9759,421.6822,1102.9565,418.7015,1107.7644,426.55,1101.8145" style="stroke:#181818;stroke-width:1.0;"/></g><!--link agent to UC16--><g id="link_agent_UC16"><path d="M125.84,1402.1845 C175.67,1394.7345 293.78,1377.0945 418.12,1358.5145 " fill="none" id="agent-to-UC16" style="stroke:#181818;stroke-width:1.0;"/><polygon fill="#181818" points="423.29,1357.7445,413.7955,1355.1265,418.3455,1358.4876,414.9844,1363.0377,423.29,1357.7445" style="stroke:#181818;stroke-width:1.0;"/></g><!--link agent to UC21--><g id="link_agent_UC21"><path d="M100.63,1363.3145 C102.36,1277.9745 119.13,1085.6245 230,985.8945 C269.1,950.7245 315.8,925.1045 365.48,906.6245 " fill="none" id="agent-to-UC21" style="stroke:#181818;stroke-width:1.0;"/><polygon fill="#181818" points="370.3,904.8545,360.4736,904.1903,365.6044,906.5724,363.2222,911.7033,370.3,904.8545" style="stroke:#181818;stroke-width:1.0;"/></g><!--link owner to UC4--><g id="link_owner_UC4"><path d="M129.69,2597.8945 C163.11,2597.8945 222.86,2597.8945 293.56,2597.8945 " fill="none" id="owner-to-UC4" style="stroke:#181818;stroke-width:1.0;"/><polygon fill="#181818" points="298.66,2597.8945,289.66,2593.8945,293.66,2597.8945,289.66,2601.8945,298.66,2597.8945" style="stroke:#181818;stroke-width:1.0;"/></g><!--link client to UC9--><g id="link_client_UC9"><path d="M115.88,3111.9945 C134.74,3064.3345 171.94,2988.8345 230,2948.8945 C275.28,2917.7445 326.99,2894.6345 380.47,2877.5645 " fill="none" id="client-to-UC9" style="stroke:#181818;stroke-width:1.0;"/><polygon fill="#181818" points="385.31,2876.0345,375.5247,2874.9178,380.5401,2877.534,377.9239,2882.5495,385.31,2876.0345" style="stroke:#181818;stroke-width:1.0;"/></g><!--link client to UC10--><g id="link_client_UC10"><path d="M124.61,3151.4045 C181.46,3142.9845 332.08,3120.6945 477.74,3099.1445 " fill="none" id="client-to-UC10" style="stroke:#181818;stroke-width:1.0;"/><polygon fill="#181818" points="482.92,3098.3745,473.4329,3095.7297,477.9734,3099.1036,474.5995,3103.6442,482.92,3098.3745" style="stroke:#181818;stroke-width:1.0;"/></g><!--link client to UC14--><g id="link_client_UC14"><path d="M124.61,3158.3545 C177.49,3166.1045 311.49,3185.7445 447.16,3205.6345 " fill="none" id="client-to-UC14" style="stroke:#181818;stroke-width:1.0;"/><polygon fill="#181818" points="452.4,3206.4045,444.0646,3201.1584,447.4514,3205.6894,442.9204,3209.0762,452.4,3206.4045" style="stroke:#181818;stroke-width:1.0;"/></g><!--link client to UC20--><g id="link_client_UC20"><path d="M114.97,3197.8145 C133.27,3246.8645 170.25,3325.6645 230,3366.8945 C279.44,3401.0145 336.67,3425.1745 395.52,3442.1445 " fill="none" id="client-to-UC20" style="stroke:#181818;stroke-width:1.0;"/><polygon fill="#181818" points="400.49,3443.5545,392.9302,3437.2419,395.6813,3442.1847,390.7385,3444.9358,400.49,3443.5545" style="stroke:#181818;stroke-width:1.0;"/></g><!--link manager to UC13--><g id="link_manager_UC13"><path d="M177.27,3838.8945 C227.96,3838.8945 299.07,3838.8945 375.41,3838.8945 " fill="none" id="manager-to-UC13" style="stroke:#181818;stroke-width:1.0;"/><polygon fill="#181818" points="380.45,3838.8945,371.45,3834.8945,375.45,3838.8945,371.45,3842.8945,380.45,3838.8945" style="stroke:#181818;stroke-width:1.0;"/></g><!--link manager to UC17--><g id="link_manager_UC17"><path d="M140.8,3796.1345 C164.45,3773.5045 196.34,3747.4445 230,3732.8945 C323.79,3692.3345 433.46,3672.0645 532.06,3662.4045 " fill="none" id="manager-to-UC17" style="stroke:#181818;stroke-width:1.0;"/><polygon fill="#181818" points="537.05,3661.9245,527.7046,3658.816,532.0736,3662.4093,528.4803,3666.7783,537.05,3661.9245" style="stroke:#181818;stroke-width:1.0;"/></g><!--link manager to UC19--><g id="link_manager_UC19"><path d="M141.69,3881.4545 C165.39,3903.7345 197.04,3929.5045 230,3944.8945 C288.3,3972.1045 352.89,3992.5245 417.18,4007.8545 " fill="none" id="manager-to-UC19" style="stroke:#181818;stroke-width:1.0;"/><polygon fill="#181818" points="422.21,4009.0345,414.3615,4003.0846,417.3422,4007.8925,412.5343,4010.8732,422.21,4009.0345" style="stroke:#181818;stroke-width:1.0;"/></g><!--link smanager to UC18--><g id="link_smanager_UC18"><path d="M164.59,4294.8945 C187.91,4294.8945 216.58,4294.8945 248.74,4294.8945 " fill="none" id="smanager-to-UC18" style="stroke:#181818;stroke-width:1.0;"/><polygon fill="#181818" points="253.93,4294.8945,244.93,4290.8945,248.93,4294.8945,244.93,4298.8945,253.93,4294.8945" style="stroke:#181818;stroke-width:1.0;"/></g><!--SRC=[hLTDZo8t4BtpAwmz9H8x0GQOZqEaqKYHzX3bCDdRN8ox06UwxOxjXf0e_pslx7P3czraLie9k-n-zVMgolWtRLhfP5DRzKQLg6WhkphyP4ruqN-IMCmcavgsGGGhdDxjWwYq8nMqDPE9U7mv-K2DUAeQRRGFJWRh7eNqGh845vvsP4AIy0gIpyRH3dV9GLtdATtd1Gv_EPfUO7a5oNEjCuAAIyWCXQDrR-9dQO2QxZTfZLCF6sXqveV3Lgeth4HlzryJ8LYrafx4Xy_Fi_cZU8AfHdIbbLFnIHobYO6ej6zhUH8rNwX4wsnBBcZoDnzOtUVdUOcxoBWn2eobi6cx3I3sa9-4bpLXOMnd53Mu9AmHOK_2HrEdOckTe3zaq-8UCa3w0DLXxsot0u9ezzOGKEiw6x4eZRXDHlI8AKKvQPVkPSznrT1H45JQ4r76lIrnbzcvc3D6qYQGgHZBTvj61o0v-hqZ7w8R73TjTcnr2btlFevS38_QM-lv1WV0aM-jyNh30UBmPKEMfI6hRtSmaYK3hah0zJi1VKjAR-55a87yb0aId5Q1er89fPaR2Cf5FhFATQdoxbqC73mOWVB9fZjDXQUwpj7y0ZtlnafVPlTNzBp8855KmKaJTdjEsOYiVNhzgsbaHVnTSu8LMzXYyRaCcV8MA0nt-NLlrdrfraCV_bJub_xN90_040rvp_KSR09bywFHQazLnuGH1-rrb5sm3Muqf-WZo9NLFnJgvxChzQXwHP7fhaBm0TfsJktv0rQVyQSzxKEcSBek6tYSjSrdfRhvLH86RpdqZcGjA3Bih3K2- -YTKjG6Jdf5CDYmw-DhiVJEGRXvDK_RM0JnIpPr-1YRALj2ZTIrC3RehLQIcxxmUzlLbTY0StsisK7LeP0QSjcvUUdSufsLf9lMke3KmDWcQTmwYm-GyfrKfnxWrKHEmJbOGeRB0DhunzE172B5GLJWVBPeKLgKks4U9lsCk8exEkhG0htWgnmgQ695fzH0c50SXXuhwxmjTIw_IcXajxhiTXIp5JdTjXPC7LNPT9nnHxzX90izS6jPAbxzIu4FNcwiZRvbBT64S_Ve8uJSdr1tDo8hMvNAreMounuPEcWwffvVg1b7WPslCgkuwwNcaUivnIYMz31hrwN-ks_8R8MgOi-gOGZCo-uuly_SZQc-G3l74BBwr7U11FcTDNKUQrk1el6Kfe74Sojcqt-VzBwQJ-YB46hLrR80LhR14HM3yY3hZicempwgHABOtD0Vt8XNysliHrJf-5RB18tdURFfC6FHG7yOm1kKyQj1RICl6kN7oKOKglmMGJTnKg5fy01NFWDTZ0GULPnSxa3IHK63zwJkzvXRoB5dYsIzimuEDETNKpa0vW__dSbA7tIL0kyf3YXEQqmLZrncqZ4-Gt3gpzE8xwE9s81MORfc0wATPnkJlNUj1zh00EupBBh04zgdkDJMy-C6qos-KmQFofcocFq_7U1h3M1u-vNJPL5Ebpu6JBFC3QwgBpuoXjEOppZGMhHlJkB6Tc54fi42Z82_9wdHYuyVVqmFnyljQhnTZxTes9FK0FhzQ7U7mpJiqtuntjwFjpoEHljLiLyNQ7F0nyTiBrXYdpBM2nwAFK_piM1P2FYFLEPlldDx9RcxaZnC9huGtKyc_m00]--></g></svg>