<?xml version="1.0" encoding="UTF-8" standalone="no"?><svg xmlns="http://www.w3.org/2000/svg" xmlns:xlink="http://www.w3.org/1999/xlink" contentStyleType="text/css" height="711px" preserveAspectRatio="none" style="width:751px;height:711px;background:#FFFFFF;" version="1.1" viewBox="0 0 751 711" width="751px" zoomAndPan="magnify"><defs><filter height="300%" id="f1acd1mwywj7te" width="300%" x="-1" y="-1"><feGaussianBlur result="blurOut" stdDeviation="2.0"/><feColorMatrix in="blurOut" result="blurOut2" type="matrix" values="0 0 0 0 0 0 0 0 0 0 0 0 0 0 0 0 0 0 .4 0"/><feOffset dx="4.0" dy="4.0" in="blurOut2" result="blurOut3"/><feBlend in="SourceGraphic" in2="blurOut3" mode="normal"/></filter></defs><g><text fill="#000000" font-family="sans-serif" font-size="14" font-weight="bold" lengthAdjust="spacing" textLength="578" x="84" y="29.5332">US016 - System Sequence Diagram - Alternative Two - Denies the Booking Request</text><rect fill="#FFFFFF" filter="url(#f1acd1mwywj7te)" height="470.875" style="stroke:#181818;stroke-width:1.0;" width="10" x="28.5" y="141.7656"/><rect fill="#FFFFFF" filter="url(#f1acd1mwywj7te)" height="39.1563" style="stroke:#181818;stroke-width:1.0;" width="10" x="692.5" y="172.9219"/><rect fill="#FFFFFF" filter="url(#f1acd1mwywj7te)" height="39.1563" style="stroke:#181818;stroke-width:1.0;" width="10" x="692.5" y="251.2344"/><rect fill="#FFFFFF" filter="url(#f1acd1mwywj7te)" height="39.1563" style="stroke:#181818;stroke-width:1.0;" width="10" x="692.5" y="329.5469"/><rect fill="#FFFFFF" filter="url(#f1acd1mwywj7te)" height="39.1563" style="stroke:#181818;stroke-width:1.0;" width="10" x="692.5" y="407.8594"/><rect fill="#FFFFFF" filter="url(#f1acd1mwywj7te)" height="39.1563" style="stroke:#181818;stroke-width:1.0;" width="10" x="692.5" y="486.1719"/><rect fill="#FFFFFF" filter="url(#f1acd1mwywj7te)" height="39.1563" style="stroke:#181818;stroke-width:1.0;" width="10" x="692.5" y="564.4844"/><line style="stroke:#181818;stroke-width:0.5;stroke-dasharray:5.0,5.0;" x1="33" x2="33" y1="131.7656" y2="621.6406"/><line style="stroke:#181818;stroke-width:0.5;stroke-dasharray:5.0,5.0;" x1="697" x2="697" y1="131.7656" y2="621.6406"/><text fill="#000000" font-family="sans-serif" font-size="20" lengthAdjust="spacing" textLength="51" x="5" y="127.3711">Agent</text><ellipse cx="33.5" cy="52.1094" fill="#E3E3E3" filter="url(#f1acd1mwywj7te)" rx="8" ry="8" style="stroke:#181818;stroke-width:0.5;"/><path d="M33.5,60.1094 L33.5,87.1094 M20.5,68.1094 L46.5,68.1094 M33.5,87.1094 L20.5,102.1094 M33.5,87.1094 L46.5,102.1094 " fill="none" filter="url(#f1acd1mwywj7te)" style="stroke:#181818;stroke-width:0.5;"/><text fill="#000000" font-family="sans-serif" font-size="20" lengthAdjust="spacing" textLength="51" x="5" y="641.4023">Agent</text><ellipse cx="33.5" cy="654.2969" fill="#E3E3E3" filter="url(#f1acd1mwywj7te)" rx="8" ry="8" style="stroke:#181818;stroke-width:0.5;"/><path d="M33.5,662.2969 L33.5,689.2969 M20.5,670.2969 L46.5,670.2969 M33.5,689.2969 L20.5,704.2969 M33.5,689.2969 L46.5,704.2969 " fill="none" filter="url(#f1acd1mwywj7te)" style="stroke:#181818;stroke-width:0.5;"/><rect fill="#E3E3E3" filter="url(#f1acd1mwywj7te)" height="39.1563" rx="2.5" ry="2.5" style="stroke:#181818;stroke-width:0.5;" width="86" x="653" y="88.6094"/><text fill="#000000" font-family="sans-serif" font-size="20" lengthAdjust="spacing" textLength="72" x="660" y="116.3711">:System</text><rect fill="#E3E3E3" filter="url(#f1acd1mwywj7te)" height="39.1563" rx="2.5" ry="2.5" style="stroke:#181818;stroke-width:0.5;" width="86" x="653" y="620.6406"/><text fill="#000000" font-family="sans-serif" font-size="20" lengthAdjust="spacing" textLength="72" x="660" y="648.4023">:System</text><rect fill="#FFFFFF" filter="url(#f1acd1mwywj7te)" height="470.875" style="stroke:#181818;stroke-width:1.0;" width="10" x="28.5" y="141.7656"/><rect fill="#FFFFFF" filter="url(#f1acd1mwywj7te)" height="39.1563" style="stroke:#181818;stroke-width:1.0;" width="10" x="692.5" y="172.9219"/><rect fill="#FFFFFF" filter="url(#f1acd1mwywj7te)" height="39.1563" style="stroke:#181818;stroke-width:1.0;" width="10" x="692.5" y="251.2344"/><rect fill="#FFFFFF" filter="url(#f1acd1mwywj7te)" height="39.1563" style="stroke:#181818;stroke-width:1.0;" width="10" x="692.5" y="329.5469"/><rect fill="#FFFFFF" filter="url(#f1acd1mwywj7te)" height="39.1563" style="stroke:#181818;stroke-width:1.0;" width="10" x="692.5" y="407.8594"/><rect fill="#FFFFFF" filter="url(#f1acd1mwywj7te)" height="39.1563" style="stroke:#181818;stroke-width:1.0;" width="10" x="692.5" y="486.1719"/><rect fill="#FFFFFF" filter="url(#f1acd1mwywj7te)" height="39.1563" style="stroke:#181818;stroke-width:1.0;" width="10" x="692.5" y="564.4844"/><polygon fill="#181818" points="680.5,168.9219,690.5,172.9219,680.5,176.9219,684.5,172.9219" style="stroke:#181818;stroke-width:1.0;"/><line style="stroke:#181818;stroke-width:1.0;" x1="38.5" x2="686.5" y1="172.9219" y2="172.9219"/><text fill="#000000" font-family="sans-serif" font-size="20" font-weight="bold" lengthAdjust="spacing" textLength="11" x="45.5" y="166.5273">1</text><text fill="#000000" font-family="sans-serif" font-size="20" lengthAdjust="spacing" textLength="291" x="60.5" y="166.5273">asks to see the booking requests</text><polygon fill="#181818" points="49.5,208.0781,39.5,212.0781,49.5,216.0781,45.5,212.0781" style="stroke:#181818;stroke-width:1.0;"/><line style="stroke:#181818;stroke-width:1.0;stroke-dasharray:2.0,2.0;" x1="43.5" x2="696.5" y1="212.0781" y2="212.0781"/><text fill="#000000" font-family="sans-serif" font-size="20" font-weight="bold" lengthAdjust="spacing" textLength="11" x="55.5" y="205.6836">2</text><text fill="#000000" font-family="sans-serif" font-size="20" lengthAdjust="spacing" textLength="245" x="70.5" y="205.6836">shows the booking requests</text><polygon fill="#181818" points="680.5,247.2344,690.5,251.2344,680.5,255.2344,684.5,251.2344" style="stroke:#181818;stroke-width:1.0;"/><line style="stroke:#181818;stroke-width:1.0;" x1="38.5" x2="686.5" y1="251.2344" y2="251.2344"/><text fill="#000000" font-family="sans-serif" font-size="20" font-weight="bold" lengthAdjust="spacing" textLength="11" x="45.5" y="244.8398">3</text><text fill="#000000" font-family="sans-serif" font-size="20" lengthAdjust="spacing" textLength="325" x="60.5" y="244.8398">selects a booking request to respond</text><polygon fill="#181818" points="49.5,286.3906,39.5,290.3906,49.5,294.3906,45.5,290.3906" style="stroke:#181818;stroke-width:1.0;"/><line style="stroke:#181818;stroke-width:1.0;stroke-dasharray:2.0,2.0;" x1="43.5" x2="696.5" y1="290.3906" y2="290.3906"/><text fill="#000000" font-family="sans-serif" font-size="20" font-weight="bold" lengthAdjust="spacing" textLength="11" x="55.5" y="283.9961">4</text><text fill="#000000" font-family="sans-serif" font-size="20" lengthAdjust="spacing" textLength="615" x="70.5" y="283.9961">shows the desired booking request and asks to enter the client's email</text><polygon fill="#181818" points="680.5,325.5469,690.5,329.5469,680.5,333.5469,684.5,329.5469" style="stroke:#181818;stroke-width:1.0;"/><line style="stroke:#181818;stroke-width:1.0;" x1="38.5" x2="686.5" y1="329.5469" y2="329.5469"/><text fill="#000000" font-family="sans-serif" font-size="20" font-weight="bold" lengthAdjust="spacing" textLength="11" x="45.5" y="323.1523">5</text><text fill="#000000" font-family="sans-serif" font-size="20" lengthAdjust="spacing" textLength="208" x="60.5" y="323.1523">inserts the client's email</text><polygon fill="#181818" points="49.5,364.7031,39.5,368.7031,49.5,372.7031,45.5,368.7031" style="stroke:#181818;stroke-width:1.0;"/><line style="stroke:#181818;stroke-width:1.0;stroke-dasharray:2.0,2.0;" x1="43.5" x2="696.5" y1="368.7031" y2="368.7031"/><text fill="#000000" font-family="sans-serif" font-size="20" font-weight="bold" lengthAdjust="spacing" textLength="11" x="55.5" y="362.3086">6</text><text fill="#000000" font-family="sans-serif" font-size="20" lengthAdjust="spacing" textLength="399" x="70.5" y="362.3086">asks to accept or decline the booking request</text><polygon fill="#181818" points="680.5,403.8594,690.5,407.8594,680.5,411.8594,684.5,407.8594" style="stroke:#181818;stroke-width:1.0;"/><line style="stroke:#181818;stroke-width:1.0;" x1="38.5" x2="686.5" y1="407.8594" y2="407.8594"/><text fill="#000000" font-family="sans-serif" font-size="20" font-weight="bold" lengthAdjust="spacing" textLength="11" x="45.5" y="401.4648">7</text><text fill="#000000" font-family="sans-serif" font-size="20" lengthAdjust="spacing" textLength="236" x="60.5" y="401.4648">denies the booking request</text><polygon fill="#181818" points="49.5,443.0156,39.5,447.0156,49.5,451.0156,45.5,447.0156" style="stroke:#181818;stroke-width:1.0;"/><line style="stroke:#181818;stroke-width:1.0;stroke-dasharray:2.0,2.0;" x1="43.5" x2="696.5" y1="447.0156" y2="447.0156"/><text fill="#000000" font-family="sans-serif" font-size="20" font-weight="bold" lengthAdjust="spacing" textLength="11" x="55.5" y="440.6211">8</text><text fill="#000000" font-family="sans-serif" font-size="20" lengthAdjust="spacing" textLength="511" x="70.5" y="440.6211">asks the agent for a reason to decline the booking request</text><polygon fill="#181818" points="680.5,482.1719,690.5,486.1719,680.5,490.1719,684.5,486.1719" style="stroke:#181818;stroke-width:1.0;"/><line style="stroke:#181818;stroke-width:1.0;" x1="38.5" x2="686.5" y1="486.1719" y2="486.1719"/><text fill="#000000" font-family="sans-serif" font-size="20" font-weight="bold" lengthAdjust="spacing" textLength="11" x="45.5" y="479.7773">9</text><text fill="#000000" font-family="sans-serif" font-size="20" lengthAdjust="spacing" textLength="487" x="60.5" y="479.7773">writes the reasoon for the booking request to be denied</text><polygon fill="#181818" points="49.5,521.3281,39.5,525.3281,49.5,529.3281,45.5,525.3281" style="stroke:#181818;stroke-width:1.0;"/><line style="stroke:#181818;stroke-width:1.0;stroke-dasharray:2.0,2.0;" x1="43.5" x2="696.5" y1="525.3281" y2="525.3281"/><text fill="#000000" font-family="sans-serif" font-size="20" font-weight="bold" lengthAdjust="spacing" textLength="22" x="55.5" y="518.9336">10</text><text fill="#000000" font-family="sans-serif" font-size="20" lengthAdjust="spacing" textLength="410" x="81.5" y="518.9336">receives the agent's response and sends email</text><polygon fill="#181818" points="680.5,560.4844,690.5,564.4844,680.5,568.4844,684.5,564.4844" style="stroke:#181818;stroke-width:1.0;"/><line style="stroke:#181818;stroke-width:1.0;" x1="38.5" x2="686.5" y1="564.4844" y2="564.4844"/><text fill="#000000" font-family="sans-serif" font-size="20" font-weight="bold" lengthAdjust="spacing" textLength="22" x="45.5" y="558.0898">11</text><text fill="#000000" font-family="sans-serif" font-size="20" lengthAdjust="spacing" textLength="112" x="71.5" y="558.0898">submits data</text><polygon fill="#181818" points="49.5,599.6406,39.5,603.6406,49.5,607.6406,45.5,603.6406" style="stroke:#181818;stroke-width:1.0;"/><line style="stroke:#181818;stroke-width:1.0;stroke-dasharray:2.0,2.0;" x1="43.5" x2="696.5" y1="603.6406" y2="603.6406"/><text fill="#000000" font-family="sans-serif" font-size="20" font-weight="bold" lengthAdjust="spacing" textLength="22" x="55.5" y="597.2461">12</text><text fill="#000000" font-family="sans-serif" font-size="20" lengthAdjust="spacing" textLength="226" x="81.5" y="597.2461">display operation success</text><!--SRC=[fPD1Rjim44NtEiN0cwuC95bquKM1544E4BK769C_CY69L3YZ6ExfEwBind2qKD2LA7B-dqT-KjeG1yxSTycryEJnocEdpobg7Vw07kwgIYurrAUOt26d7gHvnDNAmAxb1hMUEb26KuvDTrqW1_Rf668pAoiDQfM_wxlxxxIb-YIAdcgyZOWEz1IucLHRUkmKERA6Tz2lOxAP9yG08Js0VgRKJfOlaqwqgdZK5CT-ZsnZfodJvh51r0snK1bLXgF1XO6ZqcOtDoxByx3emZihplLL-T3snmLoPyMjzKyaGC7Odp7oZ24V5XVFitHhBhFTpWua7MLPxl79u3E4eBDZ5k9R_KIM8KEA_eiW7XAoNO9RGux-tvvDWrogNHVivviGUWxTEkWG1LbbIRy6zGB1pc5GidWzp2Oknh2Eo7_SfblzUY8JSvbuDIGs0vOK9z3_nZlce6UyucgsKuy5lwdT7lD-rWLlpnJshAxuBOpvvWXAw8BelvIlZFi-MBwUbLSn-213noTA0x8zSjkUZ1QkB3s2lm00]--></g></svg>