<?xml version="1.0" encoding="UTF-8" standalone="no"?><svg xmlns="http://www.w3.org/2000/svg" xmlns:xlink="http://www.w3.org/1999/xlink" contentStyleType="text/css" height="828px" preserveAspectRatio="none" style="width:779px;height:828px;background:#FFFFFF;" version="1.1" viewBox="0 0 779 828" width="779px" zoomAndPan="magnify"><defs><filter height="300%" id="f1uucdk17fqorb" width="300%" x="-1" y="-1"><feGaussianBlur result="blurOut" stdDeviation="2.0"/><feColorMatrix in="blurOut" result="blurOut2" type="matrix" values="0 0 0 0 0 0 0 0 0 0 0 0 0 0 0 0 0 0 .4 0"/><feOffset dx="4.0" dy="4.0" in="blurOut2" result="blurOut3"/><feBlend in="SourceGraphic" in2="blurOut3" mode="normal"/></filter></defs><g><text fill="#000000" font-family="sans-serif" font-size="14" font-weight="bold" lengthAdjust="spacing" textLength="281" x="247.5" y="29.5332">US016 - System Sequence Diagram - Full</text><rect fill="#FFFFFF" filter="url(#f1uucdk17fqorb)" height="588.5" style="stroke:#181818;stroke-width:1.0;" width="10" x="43.5" y="141.7656"/><rect fill="#FFFFFF" filter="url(#f1uucdk17fqorb)" height="39.1563" style="stroke:#181818;stroke-width:1.0;" width="10" x="707.5" y="172.9219"/><rect fill="#FFFFFF" filter="url(#f1uucdk17fqorb)" height="39.1563" style="stroke:#181818;stroke-width:1.0;" width="10" x="707.5" y="251.2344"/><rect fill="#FFFFFF" filter="url(#f1uucdk17fqorb)" height="39.1563" style="stroke:#181818;stroke-width:1.0;" width="10" x="707.5" y="329.5469"/><rect fill="#FFFFFF" filter="url(#f1uucdk17fqorb)" height="190.7813" style="stroke:#181818;stroke-width:1.0;" width="10" x="707.5" y="452.1719"/><rect fill="#FFFFFF" filter="url(#f1uucdk17fqorb)" height="39.1563" style="stroke:#181818;stroke-width:1.0;" width="10" x="707.5" y="682.1094"/><rect fill="none" filter="url(#f1uucdk17fqorb)" height="221.0938" style="stroke:#000000;stroke-width:1.5;" width="757" x="10" y="383.7031"/><line style="stroke:#181818;stroke-width:0.5;stroke-dasharray:5.0,5.0;" x1="48" x2="48" y1="131.7656" y2="739.2656"/><line style="stroke:#181818;stroke-width:0.5;stroke-dasharray:5.0,5.0;" x1="712" x2="712" y1="131.7656" y2="739.2656"/><text fill="#000000" font-family="sans-serif" font-size="20" lengthAdjust="spacing" textLength="51" x="20" y="127.3711">Agent</text><ellipse cx="48.5" cy="52.1094" fill="#E3E3E3" filter="url(#f1uucdk17fqorb)" rx="8" ry="8" style="stroke:#181818;stroke-width:0.5;"/><path d="M48.5,60.1094 L48.5,87.1094 M35.5,68.1094 L61.5,68.1094 M48.5,87.1094 L35.5,102.1094 M48.5,87.1094 L61.5,102.1094 " fill="none" filter="url(#f1uucdk17fqorb)" style="stroke:#181818;stroke-width:0.5;"/><text fill="#000000" font-family="sans-serif" font-size="20" lengthAdjust="spacing" textLength="51" x="20" y="759.0273">Agent</text><ellipse cx="48.5" cy="771.9219" fill="#E3E3E3" filter="url(#f1uucdk17fqorb)" rx="8" ry="8" style="stroke:#181818;stroke-width:0.5;"/><path d="M48.5,779.9219 L48.5,806.9219 M35.5,787.9219 L61.5,787.9219 M48.5,806.9219 L35.5,821.9219 M48.5,806.9219 L61.5,821.9219 " fill="none" filter="url(#f1uucdk17fqorb)" style="stroke:#181818;stroke-width:0.5;"/><rect fill="#E3E3E3" filter="url(#f1uucdk17fqorb)" height="39.1563" rx="2.5" ry="2.5" style="stroke:#181818;stroke-width:0.5;" width="86" x="668" y="88.6094"/><text fill="#000000" font-family="sans-serif" font-size="20" lengthAdjust="spacing" textLength="72" x="675" y="116.3711">:System</text><rect fill="#E3E3E3" filter="url(#f1uucdk17fqorb)" height="39.1563" rx="2.5" ry="2.5" style="stroke:#181818;stroke-width:0.5;" width="86" x="668" y="738.2656"/><text fill="#000000" font-family="sans-serif" font-size="20" lengthAdjust="spacing" textLength="72" x="675" y="766.0273">:System</text><rect fill="#FFFFFF" filter="url(#f1uucdk17fqorb)" height="588.5" style="stroke:#181818;stroke-width:1.0;" width="10" x="43.5" y="141.7656"/><rect fill="#FFFFFF" filter="url(#f1uucdk17fqorb)" height="39.1563" style="stroke:#181818;stroke-width:1.0;" width="10" x="707.5" y="172.9219"/><rect fill="#FFFFFF" filter="url(#f1uucdk17fqorb)" height="39.1563" style="stroke:#181818;stroke-width:1.0;" width="10" x="707.5" y="251.2344"/><rect fill="#FFFFFF" filter="url(#f1uucdk17fqorb)" height="39.1563" style="stroke:#181818;stroke-width:1.0;" width="10" x="707.5" y="329.5469"/><rect fill="#FFFFFF" filter="url(#f1uucdk17fqorb)" height="190.7813" style="stroke:#181818;stroke-width:1.0;" width="10" x="707.5" y="452.1719"/><rect fill="#FFFFFF" filter="url(#f1uucdk17fqorb)" height="39.1563" style="stroke:#181818;stroke-width:1.0;" width="10" x="707.5" y="682.1094"/><polygon fill="#181818" points="695.5,168.9219,705.5,172.9219,695.5,176.9219,699.5,172.9219" style="stroke:#181818;stroke-width:1.0;"/><line style="stroke:#181818;stroke-width:1.0;" x1="53.5" x2="701.5" y1="172.9219" y2="172.9219"/><text fill="#000000" font-family="sans-serif" font-size="20" font-weight="bold" lengthAdjust="spacing" textLength="11" x="60.5" y="166.5273">1</text><text fill="#000000" font-family="sans-serif" font-size="20" lengthAdjust="spacing" textLength="291" x="75.5" y="166.5273">asks to see the booking requests</text><polygon fill="#181818" points="64.5,208.0781,54.5,212.0781,64.5,216.0781,60.5,212.0781" style="stroke:#181818;stroke-width:1.0;"/><line style="stroke:#181818;stroke-width:1.0;stroke-dasharray:2.0,2.0;" x1="58.5" x2="711.5" y1="212.0781" y2="212.0781"/><text fill="#000000" font-family="sans-serif" font-size="20" font-weight="bold" lengthAdjust="spacing" textLength="11" x="70.5" y="205.6836">2</text><text fill="#000000" font-family="sans-serif" font-size="20" lengthAdjust="spacing" textLength="245" x="85.5" y="205.6836">shows the booking requests</text><polygon fill="#181818" points="695.5,247.2344,705.5,251.2344,695.5,255.2344,699.5,251.2344" style="stroke:#181818;stroke-width:1.0;"/><line style="stroke:#181818;stroke-width:1.0;" x1="53.5" x2="701.5" y1="251.2344" y2="251.2344"/><text fill="#000000" font-family="sans-serif" font-size="20" font-weight="bold" lengthAdjust="spacing" textLength="11" x="60.5" y="244.8398">3</text><text fill="#000000" font-family="sans-serif" font-size="20" lengthAdjust="spacing" textLength="325" x="75.5" y="244.8398">selects a booking request to respond</text><polygon fill="#181818" points="64.5,286.3906,54.5,290.3906,64.5,294.3906,60.5,290.3906" style="stroke:#181818;stroke-width:1.0;"/><line style="stroke:#181818;stroke-width:1.0;stroke-dasharray:2.0,2.0;" x1="58.5" x2="711.5" y1="290.3906" y2="290.3906"/><text fill="#000000" font-family="sans-serif" font-size="20" font-weight="bold" lengthAdjust="spacing" textLength="11" x="70.5" y="283.9961">4</text><text fill="#000000" font-family="sans-serif" font-size="20" lengthAdjust="spacing" textLength="615" x="85.5" y="283.9961">shows the desired booking request and asks to enter the client's email</text><polygon fill="#181818" points="695.5,325.5469,705.5,329.5469,695.5,333.5469,699.5,329.5469" style="stroke:#181818;stroke-width:1.0;"/><line style="stroke:#181818;stroke-width:1.0;" x1="53.5" x2="701.5" y1="329.5469" y2="329.5469"/><text fill="#000000" font-family="sans-serif" font-size="20" font-weight="bold" lengthAdjust="spacing" textLength="11" x="60.5" y="323.1523">5</text><text fill="#000000" font-family="sans-serif" font-size="20" lengthAdjust="spacing" textLength="208" x="75.5" y="323.1523">inserts the client's email</text><polygon fill="#181818" points="64.5,364.7031,54.5,368.7031,64.5,372.7031,60.5,368.7031" style="stroke:#181818;stroke-width:1.0;"/><line style="stroke:#181818;stroke-width:1.0;stroke-dasharray:2.0,2.0;" x1="58.5" x2="711.5" y1="368.7031" y2="368.7031"/><text fill="#000000" font-family="sans-serif" font-size="20" font-weight="bold" lengthAdjust="spacing" textLength="11" x="70.5" y="362.3086">6</text><text fill="#000000" font-family="sans-serif" font-size="20" lengthAdjust="spacing" textLength="399" x="85.5" y="362.3086">asks to accept or decline the booking request</text><path d="M10,383.7031 L78,383.7031 L78,400.8594 L68,410.8594 L10,410.8594 L10,383.7031 " fill="#EEEEEE" style="stroke:#000000;stroke-width:1.5;"/><rect fill="none" height="221.0938" style="stroke:#000000;stroke-width:1.5;" width="757" x="10" y="383.7031"/><text fill="#000000" font-family="sans-serif" font-size="20" font-weight="bold" lengthAdjust="spacing" textLength="23" x="25" y="405.4648">alt</text><text fill="#000000" font-family="sans-serif" font-size="20" font-weight="bold" lengthAdjust="spacing" textLength="286" x="93" y="406.4648">[Accepts the booking request]</text><polygon fill="#181818" points="695.5,448.1719,705.5,452.1719,695.5,456.1719,699.5,452.1719" style="stroke:#181818;stroke-width:1.0;"/><line style="stroke:#181818;stroke-width:1.0;" x1="53.5" x2="701.5" y1="452.1719" y2="452.1719"/><text fill="#000000" font-family="sans-serif" font-size="20" font-weight="bold" lengthAdjust="spacing" textLength="11" x="60.5" y="445.7773">7</text><text fill="#000000" font-family="sans-serif" font-size="20" lengthAdjust="spacing" textLength="412" x="75.5" y="445.7773">accepts the booking request and responds to it</text><line style="stroke:#000000;stroke-width:1.0;stroke-dasharray:2.0,2.0;" x1="10" x2="767" y1="461.1719" y2="461.1719"/><text fill="#000000" font-family="sans-serif" font-size="20" font-weight="bold" lengthAdjust="spacing" textLength="274" x="15" y="481.9336">[Denies the booking request]</text><polygon fill="#181818" points="695.5,514.4844,705.5,518.4844,695.5,522.4844,699.5,518.4844" style="stroke:#181818;stroke-width:1.0;"/><line style="stroke:#181818;stroke-width:1.0;" x1="53.5" x2="701.5" y1="518.4844" y2="518.4844"/><text fill="#000000" font-family="sans-serif" font-size="20" font-weight="bold" lengthAdjust="spacing" textLength="11" x="60.5" y="512.0898">8</text><text fill="#000000" font-family="sans-serif" font-size="20" lengthAdjust="spacing" textLength="236" x="75.5" y="512.0898">denies the booking request</text><polygon fill="#181818" points="64.5,553.6406,54.5,557.6406,64.5,561.6406,60.5,557.6406" style="stroke:#181818;stroke-width:1.0;"/><line style="stroke:#181818;stroke-width:1.0;stroke-dasharray:2.0,2.0;" x1="58.5" x2="706.5" y1="557.6406" y2="557.6406"/><text fill="#000000" font-family="sans-serif" font-size="20" font-weight="bold" lengthAdjust="spacing" textLength="11" x="70.5" y="551.2461">9</text><text fill="#000000" font-family="sans-serif" font-size="20" lengthAdjust="spacing" textLength="511" x="85.5" y="551.2461">asks the agent for a reason to decline the booking request</text><polygon fill="#181818" points="695.5,592.7969,705.5,596.7969,695.5,600.7969,699.5,596.7969" style="stroke:#181818;stroke-width:1.0;"/><line style="stroke:#181818;stroke-width:1.0;" x1="53.5" x2="701.5" y1="596.7969" y2="596.7969"/><text fill="#000000" font-family="sans-serif" font-size="20" font-weight="bold" lengthAdjust="spacing" textLength="22" x="60.5" y="590.4023">10</text><text fill="#000000" font-family="sans-serif" font-size="20" lengthAdjust="spacing" textLength="487" x="86.5" y="590.4023">writes the reasoon for the booking request to be denied</text><polygon fill="#181818" points="64.5,638.9531,54.5,642.9531,64.5,646.9531,60.5,642.9531" style="stroke:#181818;stroke-width:1.0;"/><line style="stroke:#181818;stroke-width:1.0;stroke-dasharray:2.0,2.0;" x1="58.5" x2="711.5" y1="642.9531" y2="642.9531"/><text fill="#000000" font-family="sans-serif" font-size="20" font-weight="bold" lengthAdjust="spacing" textLength="22" x="70.5" y="636.5586">11</text><text fill="#000000" font-family="sans-serif" font-size="20" lengthAdjust="spacing" textLength="410" x="96.5" y="636.5586">receives the agent's response and sends email</text><polygon fill="#181818" points="695.5,678.1094,705.5,682.1094,695.5,686.1094,699.5,682.1094" style="stroke:#181818;stroke-width:1.0;"/><line style="stroke:#181818;stroke-width:1.0;" x1="53.5" x2="701.5" y1="682.1094" y2="682.1094"/><text fill="#000000" font-family="sans-serif" font-size="20" font-weight="bold" lengthAdjust="spacing" textLength="22" x="60.5" y="675.7148">12</text><text fill="#000000" font-family="sans-serif" font-size="20" lengthAdjust="spacing" textLength="112" x="86.5" y="675.7148">submits data</text><polygon fill="#181818" points="64.5,717.2656,54.5,721.2656,64.5,725.2656,60.5,721.2656" style="stroke:#181818;stroke-width:1.0;"/><line style="stroke:#181818;stroke-width:1.0;stroke-dasharray:2.0,2.0;" x1="58.5" x2="711.5" y1="721.2656" y2="721.2656"/><text fill="#000000" font-family="sans-serif" font-size="20" font-weight="bold" lengthAdjust="spacing" textLength="22" x="70.5" y="714.8711">13</text><text fill="#000000" font-family="sans-serif" font-size="20" lengthAdjust="spacing" textLength="226" x="96.5" y="714.8711">display operation success</text><!--SRC=[bLD1RkCm3Bpx5KGkFGLezx2770e4AFe1On_0I8n3M9Qy8jqWVNrfETaD6hL8JvQjcU5mI4lFSSICGqYk9m-UzZW5VKrHMtud-FNOD7B1m91YSeUS1WBD4rtTZEXwxAZLKo38v1HZ5wu1Sa2VZXoxXTaego7_j8zFls4DxKcK1cZfxqJH4RmmTZDh3QzJ24s3awOu3JlATdQQCgos7KLT0GgKKsDbb1sF61LMcqMmN2_7mkCtL3hZc_A0zVEb-CR0lO0c4BB-3WIxbFhPSPvjYSf_YOlccResbKLkOuscezJfdcu4Raq81OjF03_pPsUPP4pH_z289-5im_qiYD7_wzaub0lQ1RQN1m4QaCDzfZaAPPKQ_nwh5nFe78qADbvF9XEhOwWvmg2mBUHgzDLXVmqlmPoZBhvORzkW8BQd59dkBkc_GN-PYe6nVDXRB6W4b1HdKzz5L2b-pApduaN3H6R5MliclgF5hRT6RTzgzkml9twZAuisyoKrIsQEK6ZExmTh9DDkO9k9HyMx5iUpZ05Fa4RAg6mzoMHpbTg_zW40]--></g></svg>