<?xml version="1.0" encoding="us-ascii" standalone="no"?><svg xmlns="http://www.w3.org/2000/svg" xmlns:xlink="http://www.w3.org/1999/xlink" contentStyleType="text/css" height="650px" preserveAspectRatio="none" style="width:592px;height:650px;background:#FFFFFF;" version="1.1" viewBox="0 0 592 650" width="592px" zoomAndPan="magnify"><defs><filter height="300%" id="f1m56rhdi91rr3" width="300%" x="-1" y="-1"><feGaussianBlur result="blurOut" stdDeviation="2.0"/><feColorMatrix in="blurOut" result="blurOut2" type="matrix" values="0 0 0 0 0 0 0 0 0 0 0 0 0 0 0 0 0 0 .4 0"/><feOffset dx="4.0" dy="4.0" in="blurOut2" result="blurOut3"/><feBlend in="SourceGraphic" in2="blurOut3" mode="normal"/></filter></defs><g><text fill="#000000" font-family="sans-serif" font-size="14" font-weight="bold" lengthAdjust="spacing" textLength="299" x="145" y="28.5352">US016 - System Sequence Diagram - Full</text><rect fill="#FFFFFF" filter="url(#f1m56rhdi91rr3)" height="428.3027" style="stroke:#181818;stroke-width:1.0;" width="10" x="38.5" y="131.9766"/><rect fill="#FFFFFF" filter="url(#f1m56rhdi91rr3)" height="29.3105" style="stroke:#181818;stroke-width:1.0;" width="10" x="530.5" y="153.2871"/><rect fill="#FFFFFF" filter="url(#f1m56rhdi91rr3)" height="29.3105" style="stroke:#181818;stroke-width:1.0;" width="10" x="530.5" y="211.9082"/><rect fill="#FFFFFF" filter="url(#f1m56rhdi91rr3)" height="29.3105" style="stroke:#181818;stroke-width:1.0;" width="10" x="530.5" y="270.5293"/><rect fill="#FFFFFF" filter="url(#f1m56rhdi91rr3)" height="139.1973" style="stroke:#181818;stroke-width:1.0;" width="10" x="530.5" y="353.4609"/><rect fill="#FFFFFF" filter="url(#f1m56rhdi91rr3)" height="29.3105" style="stroke:#181818;stroke-width:1.0;" width="10" x="530.5" y="521.9688"/><rect fill="none" filter="url(#f1m56rhdi91rr3)" height="149.5078" style="stroke:#000000;stroke-width:1.5;" width="570" x="10" y="314.8398"/><line style="stroke:#181818;stroke-width:0.5;stroke-dasharray:5.0,5.0;" x1="43" x2="43" y1="121.9766" y2="569.2793"/><line style="stroke:#181818;stroke-width:0.5;stroke-dasharray:5.0,5.0;" x1="535" x2="535" y1="121.9766" y2="569.2793"/><text fill="#000000" font-family="sans-serif" font-size="14" lengthAdjust="spacing" textLength="41" x="20" y="119.0234">Agent</text><ellipse cx="43.5" cy="50.9883" fill="#E3E3E3" filter="url(#f1m56rhdi91rr3)" rx="8" ry="8" style="stroke:#181818;stroke-width:0.5;"/><path d="M43.5,58.9883 L43.5,85.9883 M30.5,66.9883 L56.5,66.9883 M43.5,85.9883 L30.5,100.9883 M43.5,85.9883 L56.5,100.9883 " fill="none" filter="url(#f1m56rhdi91rr3)" style="stroke:#181818;stroke-width:0.5;"/><text fill="#000000" font-family="sans-serif" font-size="14" lengthAdjust="spacing" textLength="41" x="20" y="581.8145">Agent</text><ellipse cx="43.5" cy="593.2676" fill="#E3E3E3" filter="url(#f1m56rhdi91rr3)" rx="8" ry="8" style="stroke:#181818;stroke-width:0.5;"/><path d="M43.5,601.2676 L43.5,628.2676 M30.5,609.2676 L56.5,609.2676 M43.5,628.2676 L30.5,643.2676 M43.5,628.2676 L56.5,643.2676 " fill="none" filter="url(#f1m56rhdi91rr3)" style="stroke:#181818;stroke-width:0.5;"/><rect fill="#E3E3E3" filter="url(#f1m56rhdi91rr3)" height="30.4883" rx="2.5" ry="2.5" style="stroke:#181818;stroke-width:0.5;" width="66" x="501" y="87.4883"/><text fill="#000000" font-family="sans-serif" font-size="14" lengthAdjust="spacing" textLength="52" x="508" y="108.0234">:System</text><rect fill="#E3E3E3" filter="url(#f1m56rhdi91rr3)" height="30.4883" rx="2.5" ry="2.5" style="stroke:#181818;stroke-width:0.5;" width="66" x="501" y="568.2793"/><text fill="#000000" font-family="sans-serif" font-size="14" lengthAdjust="spacing" textLength="52" x="508" y="588.8145">:System</text><rect fill="#FFFFFF" filter="url(#f1m56rhdi91rr3)" height="428.3027" style="stroke:#181818;stroke-width:1.0;" width="10" x="38.5" y="131.9766"/><rect fill="#FFFFFF" filter="url(#f1m56rhdi91rr3)" height="29.3105" style="stroke:#181818;stroke-width:1.0;" width="10" x="530.5" y="153.2871"/><rect fill="#FFFFFF" filter="url(#f1m56rhdi91rr3)" height="29.3105" style="stroke:#181818;stroke-width:1.0;" width="10" x="530.5" y="211.9082"/><rect fill="#FFFFFF" filter="url(#f1m56rhdi91rr3)" height="29.3105" style="stroke:#181818;stroke-width:1.0;" width="10" x="530.5" y="270.5293"/><rect fill="#FFFFFF" filter="url(#f1m56rhdi91rr3)" height="139.1973" style="stroke:#181818;stroke-width:1.0;" width="10" x="530.5" y="353.4609"/><rect fill="#FFFFFF" filter="url(#f1m56rhdi91rr3)" height="29.3105" style="stroke:#181818;stroke-width:1.0;" width="10" x="530.5" y="521.9688"/><polygon fill="#181818" points="518.5,149.2871,528.5,153.2871,518.5,157.2871,522.5,153.2871" style="stroke:#181818;stroke-width:1.0;"/><line style="stroke:#181818;stroke-width:1.0;" x1="48.5" x2="524.5" y1="153.2871" y2="153.2871"/><text fill="#000000" font-family="sans-serif" font-size="13" font-weight="bold" lengthAdjust="spacing" textLength="9" x="55.5" y="148.5449">1</text><text fill="#000000" font-family="sans-serif" font-size="13" lengthAdjust="spacing" textLength="209" x="68.5" y="148.5449">asks to see the booking requests</text><polygon fill="#181818" points="59.5,178.5977,49.5,182.5977,59.5,186.5977,55.5,182.5977" style="stroke:#181818;stroke-width:1.0;"/><line style="stroke:#181818;stroke-width:1.0;stroke-dasharray:2.0,2.0;" x1="53.5" x2="534.5" y1="182.5977" y2="182.5977"/><text fill="#000000" font-family="sans-serif" font-size="13" font-weight="bold" lengthAdjust="spacing" textLength="9" x="65.5" y="177.8555">2</text><text fill="#000000" font-family="sans-serif" font-size="13" lengthAdjust="spacing" textLength="178" x="78.5" y="177.8555">shows the booking requests</text><polygon fill="#181818" points="518.5,207.9082,528.5,211.9082,518.5,215.9082,522.5,211.9082" style="stroke:#181818;stroke-width:1.0;"/><line style="stroke:#181818;stroke-width:1.0;" x1="48.5" x2="524.5" y1="211.9082" y2="211.9082"/><text fill="#000000" font-family="sans-serif" font-size="13" font-weight="bold" lengthAdjust="spacing" textLength="9" x="55.5" y="207.166">3</text><text fill="#000000" font-family="sans-serif" font-size="13" lengthAdjust="spacing" textLength="234" x="68.5" y="207.166">selects a booking request to respond</text><polygon fill="#181818" points="59.5,237.2188,49.5,241.2188,59.5,245.2188,55.5,241.2188" style="stroke:#181818;stroke-width:1.0;"/><line style="stroke:#181818;stroke-width:1.0;stroke-dasharray:2.0,2.0;" x1="53.5" x2="534.5" y1="241.2188" y2="241.2188"/><text fill="#000000" font-family="sans-serif" font-size="13" font-weight="bold" lengthAdjust="spacing" textLength="9" x="65.5" y="236.4766">4</text><text fill="#000000" font-family="sans-serif" font-size="13" lengthAdjust="spacing" textLength="445" x="78.5" y="236.4766">shows the desired booking request and asks to enter the client's email</text><polygon fill="#181818" points="518.5,266.5293,528.5,270.5293,518.5,274.5293,522.5,270.5293" style="stroke:#181818;stroke-width:1.0;"/><line style="stroke:#181818;stroke-width:1.0;" x1="48.5" x2="524.5" y1="270.5293" y2="270.5293"/><text fill="#000000" font-family="sans-serif" font-size="13" font-weight="bold" lengthAdjust="spacing" textLength="9" x="55.5" y="265.7871">5</text><text fill="#000000" font-family="sans-serif" font-size="13" lengthAdjust="spacing" textLength="154" x="68.5" y="265.7871">inserts the client's email</text><polygon fill="#181818" points="59.5,295.8398,49.5,299.8398,59.5,303.8398,55.5,299.8398" style="stroke:#181818;stroke-width:1.0;"/><line style="stroke:#181818;stroke-width:1.0;stroke-dasharray:2.0,2.0;" x1="53.5" x2="534.5" y1="299.8398" y2="299.8398"/><text fill="#000000" font-family="sans-serif" font-size="13" font-weight="bold" lengthAdjust="spacing" textLength="9" x="65.5" y="295.0977">6</text><text fill="#000000" font-family="sans-serif" font-size="13" lengthAdjust="spacing" textLength="288" x="78.5" y="295.0977">asks to accept or decline the booking request</text><path d="M10,314.8398 L72,314.8398 L72,322.1504 L62,332.1504 L10,332.1504 L10,314.8398 " fill="#EEEEEE" style="stroke:#000000;stroke-width:1.5;"/><rect fill="none" height="149.5078" style="stroke:#000000;stroke-width:1.5;" width="570" x="10" y="314.8398"/><text fill="#000000" font-family="sans-serif" font-size="13" font-weight="bold" lengthAdjust="spacing" textLength="17" x="25" y="328.4082">alt</text><text fill="#000000" font-family="sans-serif" font-size="11" font-weight="bold" lengthAdjust="spacing" textLength="167" x="87" y="327.4746">[Accepts the booking request]</text><polygon fill="#181818" points="518.5,349.4609,528.5,353.4609,518.5,357.4609,522.5,353.4609" style="stroke:#181818;stroke-width:1.0;"/><line style="stroke:#181818;stroke-width:1.0;" x1="48.5" x2="524.5" y1="353.4609" y2="353.4609"/><text fill="#000000" font-family="sans-serif" font-size="13" font-weight="bold" lengthAdjust="spacing" textLength="9" x="55.5" y="348.7188">7</text><text fill="#000000" font-family="sans-serif" font-size="13" lengthAdjust="spacing" textLength="298" x="68.5" y="348.7188">accepts the booking request and responds to it</text><line style="stroke:#000000;stroke-width:1.0;stroke-dasharray:2.0,2.0;" x1="10" x2="580" y1="362.4609" y2="362.4609"/><text fill="#000000" font-family="sans-serif" font-size="11" font-weight="bold" lengthAdjust="spacing" textLength="162" x="15" y="373.0957">[Denies the booking request]</text><polygon fill="#181818" points="518.5,393.7266,528.5,397.7266,518.5,401.7266,522.5,397.7266" style="stroke:#181818;stroke-width:1.0;"/><line style="stroke:#181818;stroke-width:1.0;" x1="48.5" x2="524.5" y1="397.7266" y2="397.7266"/><text fill="#000000" font-family="sans-serif" font-size="13" font-weight="bold" lengthAdjust="spacing" textLength="9" x="55.5" y="392.9844">8</text><text fill="#000000" font-family="sans-serif" font-size="13" lengthAdjust="spacing" textLength="172" x="68.5" y="392.9844">denies the booking request</text><polygon fill="#181818" points="59.5,423.0371,49.5,427.0371,59.5,431.0371,55.5,427.0371" style="stroke:#181818;stroke-width:1.0;"/><line style="stroke:#181818;stroke-width:1.0;stroke-dasharray:2.0,2.0;" x1="53.5" x2="529.5" y1="427.0371" y2="427.0371"/><text fill="#000000" font-family="sans-serif" font-size="13" font-weight="bold" lengthAdjust="spacing" textLength="9" x="65.5" y="422.2949">9</text><text fill="#000000" font-family="sans-serif" font-size="13" lengthAdjust="spacing" textLength="368" x="78.5" y="422.2949">asks the agent for a reason to decline the booking request</text><polygon fill="#181818" points="518.5,452.3477,528.5,456.3477,518.5,460.3477,522.5,456.3477" style="stroke:#181818;stroke-width:1.0;"/><line style="stroke:#181818;stroke-width:1.0;" x1="48.5" x2="524.5" y1="456.3477" y2="456.3477"/><text fill="#000000" font-family="sans-serif" font-size="13" font-weight="bold" lengthAdjust="spacing" textLength="18" x="55.5" y="451.6055">10</text><text fill="#000000" font-family="sans-serif" font-size="13" lengthAdjust="spacing" textLength="351" x="77.5" y="451.6055">writes the reasoon for the booking request to be denied</text><polygon fill="#181818" points="59.5,488.6582,49.5,492.6582,59.5,496.6582,55.5,492.6582" style="stroke:#181818;stroke-width:1.0;"/><line style="stroke:#181818;stroke-width:1.0;stroke-dasharray:2.0,2.0;" x1="53.5" x2="534.5" y1="492.6582" y2="492.6582"/><text fill="#000000" font-family="sans-serif" font-size="13" font-weight="bold" lengthAdjust="spacing" textLength="18" x="65.5" y="487.916">11</text><text fill="#000000" font-family="sans-serif" font-size="13" lengthAdjust="spacing" textLength="291" x="87.5" y="487.916">receives the agent's response and sends email</text><polygon fill="#181818" points="518.5,517.9688,528.5,521.9688,518.5,525.9688,522.5,521.9688" style="stroke:#181818;stroke-width:1.0;"/><line style="stroke:#181818;stroke-width:1.0;" x1="48.5" x2="524.5" y1="521.9688" y2="521.9688"/><text fill="#000000" font-family="sans-serif" font-size="13" font-weight="bold" lengthAdjust="spacing" textLength="18" x="55.5" y="517.2266">12</text><text fill="#000000" font-family="sans-serif" font-size="13" lengthAdjust="spacing" textLength="82" x="77.5" y="517.2266">submits data</text><polygon fill="#181818" points="59.5,547.2793,49.5,551.2793,59.5,555.2793,55.5,551.2793" style="stroke:#181818;stroke-width:1.0;"/><line style="stroke:#181818;stroke-width:1.0;stroke-dasharray:2.0,2.0;" x1="53.5" x2="534.5" y1="551.2793" y2="551.2793"/><text fill="#000000" font-family="sans-serif" font-size="13" font-weight="bold" lengthAdjust="spacing" textLength="18" x="65.5" y="546.5371">13</text><text fill="#000000" font-family="sans-serif" font-size="13" lengthAdjust="spacing" textLength="163" x="87.5" y="546.5371">display operation success</text><!--SRC=[bLF1Ri8m3BttAomkEo5jbnquJ4AQzWDe7s0IhrYaIHUx8Fv-RWeCZO3OgMdptlFpiojRZZrcxA1BCRbDJXs1ve4QET_qwBROqaeFWI2JKunjk0J81dtQSsmdPgEiXlnSFR-ymXnM1r7gO4NV0qL7yCxOZgmvV0mXD0qEckBGhIdRsMdAC5ks57K6A51EZPLHTjnZL9Wj9i5oFHqBZtUeTCGtvG7pjrFnXO6t0ff0oFhR4AnJsewEysXBL7ubJff7wjnK9hc5DPhsKgTxkXAuDY4KB3u1_CiVdMMIFaN_JoEUX3FvAq6C_jopSIWNj0jiBqy2r267nqnp5CegDVuZLaycq3dg5MoydamcLiTGSuH1OLd8rUYhmxuDBy4Seow-MA_Re22sfnIP7Yxfxw1lfc9WB1- -B1Oq0agAewbx4LMAxpFhiNZHC95HiTQ-YQzfSkkjKTktcZtxoubtT67HPZwbPicC4GgD-VrZZMHOTsmpyQZuqE9ubZxW0L9F6PMj9nbihbBxrtu0]--></g></svg>