<?xml version="1.0" encoding="UTF-8" standalone="no"?><svg xmlns="http://www.w3.org/2000/svg" xmlns:xlink="http://www.w3.org/1999/xlink" contentStyleType="text/css" height="1151px" preserveAspectRatio="none" style="width:1288px;height:1151px;background:#FFFFFF;" version="1.1" viewBox="0 0 1288 1151" width="1288px" zoomAndPan="magnify"><defs/><g><!--class ApplicationSession--><g id="elem_ApplicationSession"><rect codeLine="11" fill="#F1F1F1" height="80.9766" id="ApplicationSession" rx="2.5" ry="2.5" style="stroke:#181818;stroke-width:0.5;" width="162" x="79.5" y="293.2422"/><ellipse cx="94.5" cy="309.2422" fill="#ADD1B2" rx="11" ry="11" style="stroke:#181818;stroke-width:1.0;"/><path d="M96.9731,315.3853 Q96.3921,315.6841 95.7529,315.8335 Q95.1138,315.9829 94.4082,315.9829 Q91.9014,315.9829 90.5815,314.3311 Q89.2617,312.6792 89.2617,309.5581 Q89.2617,306.4287 90.5815,304.7769 Q91.9014,303.125 94.4082,303.125 Q95.1138,303.125 95.7612,303.2744 Q96.4087,303.4238 96.9731,303.7227 L96.9731,306.4453 Q96.3423,305.8643 95.7488,305.5945 Q95.1553,305.3247 94.5244,305.3247 Q93.1797,305.3247 92.4949,306.3914 Q91.8101,307.458 91.8101,309.5581 Q91.8101,311.6499 92.4949,312.7166 Q93.1797,313.7832 94.5244,313.7832 Q95.1553,313.7832 95.7488,313.5134 Q96.3423,313.2437 96.9731,312.6626 Z " fill="#000000"/><text fill="#000000" font-family="sans-serif" font-size="14" lengthAdjust="spacing" textLength="130" x="108.5" y="314.5332">ApplicationSession</text><line style="stroke:#181818;stroke-width:0.5;" x1="80.5" x2="240.5" y1="325.2422" y2="325.2422"/><line style="stroke:#181818;stroke-width:0.5;" x1="80.5" x2="240.5" y1="333.2422" y2="333.2422"/><text fill="#000000" font-family="sans-serif" font-size="14" lengthAdjust="spacing" textLength="140" x="85.5" y="350.7773">+static getInstance()</text><text fill="#000000" font-family="sans-serif" font-size="14" lengthAdjust="spacing" textLength="148" x="85.5" y="367.2656">+getCurrentSession()</text></g><!--class UserSession--><g id="elem_UserSession"><rect codeLine="17" fill="#F1F1F1" height="64.4883" id="UserSession" rx="2.5" ry="2.5" style="stroke:#181818;stroke-width:0.5;" width="123" x="13" y="533.7422"/><ellipse cx="31.6" cy="549.7422" fill="#ADD1B2" rx="11" ry="11" style="stroke:#181818;stroke-width:1.0;"/><path d="M34.0731,555.8853 Q33.4921,556.1841 32.8529,556.3335 Q32.2138,556.4829 31.5082,556.4829 Q29.0014,556.4829 27.6815,554.8311 Q26.3617,553.1792 26.3617,550.0581 Q26.3617,546.9287 27.6815,545.2769 Q29.0014,543.625 31.5082,543.625 Q32.2138,543.625 32.8612,543.7744 Q33.5087,543.9238 34.0731,544.2227 L34.0731,546.9453 Q33.4423,546.3643 32.8488,546.0945 Q32.2553,545.8247 31.6244,545.8247 Q30.2797,545.8247 29.5949,546.8914 Q28.9101,547.958 28.9101,550.0581 Q28.9101,552.1499 29.5949,553.2166 Q30.2797,554.2832 31.6244,554.2832 Q32.2553,554.2832 32.8488,554.0134 Q33.4423,553.7437 34.0731,553.1626 Z " fill="#000000"/><text fill="#000000" font-family="sans-serif" font-size="14" lengthAdjust="spacing" textLength="83" x="46.4" y="555.0332">UserSession</text><line style="stroke:#181818;stroke-width:0.5;" x1="14" x2="135" y1="565.7422" y2="565.7422"/><line style="stroke:#181818;stroke-width:0.5;" x1="14" x2="135" y1="573.7422" y2="573.7422"/><text fill="#000000" font-family="sans-serif" font-size="14" lengthAdjust="spacing" textLength="111" x="19" y="591.2773">+getUserEmail()</text></g><!--class Employee--><g id="elem_Employee"><rect codeLine="22" fill="#F1F1F1" height="113.9531" id="Employee" rx="2.5" ry="2.5" style="stroke:#181818;stroke-width:0.5;" width="98" x="865.5" y="1030.2422"/><ellipse cx="880.5" cy="1046.2422" fill="#ADD1B2" rx="11" ry="11" style="stroke:#181818;stroke-width:1.0;"/><path d="M882.9731,1052.3853 Q882.3921,1052.6841 881.7529,1052.8335 Q881.1138,1052.9829 880.4082,1052.9829 Q877.9014,1052.9829 876.5815,1051.3311 Q875.2617,1049.6792 875.2617,1046.5581 Q875.2617,1043.4287 876.5815,1041.7769 Q877.9014,1040.125 880.4082,1040.125 Q881.1138,1040.125 881.7612,1040.2744 Q882.4087,1040.4238 882.9731,1040.7227 L882.9731,1043.4453 Q882.3423,1042.8643 881.7488,1042.5945 Q881.1553,1042.3247 880.5244,1042.3247 Q879.1797,1042.3247 878.4949,1043.3914 Q877.8101,1044.458 877.8101,1046.5581 Q877.8101,1048.6499 878.4949,1049.7166 Q879.1797,1050.7832 880.5244,1050.7832 Q881.1553,1050.7832 881.7488,1050.5134 Q882.3423,1050.2437 882.9731,1049.6626 Z " fill="#000000"/><text fill="#000000" font-family="sans-serif" font-size="14" lengthAdjust="spacing" textLength="66" x="894.5" y="1051.5332">Employee</text><line style="stroke:#181818;stroke-width:0.5;" x1="866.5" x2="962.5" y1="1062.2422" y2="1062.2422"/><text fill="#000000" font-family="sans-serif" font-size="14" lengthAdjust="spacing" textLength="46" x="871.5" y="1079.7773">-name</text><text fill="#000000" font-family="sans-serif" font-size="14" lengthAdjust="spacing" textLength="45" x="871.5" y="1096.2656">-email</text><text fill="#000000" font-family="sans-serif" font-size="14" lengthAdjust="spacing" textLength="64" x="871.5" y="1112.7539">-position</text><text fill="#000000" font-family="sans-serif" font-size="14" lengthAdjust="spacing" textLength="52" x="871.5" y="1129.2422">-phone</text><line style="stroke:#181818;stroke-width:0.5;" x1="866.5" x2="962.5" y1="1136.1953" y2="1136.1953"/></g><!--class Task--><g id="elem_Task"><rect codeLine="29" fill="#F1F1F1" height="196.3945" id="Task" rx="2.5" ry="2.5" style="stroke:#181818;stroke-width:0.5;" width="299" x="622" y="757.2422"/><ellipse cx="751.25" cy="773.2422" fill="#ADD1B2" rx="11" ry="11" style="stroke:#181818;stroke-width:1.0;"/><path d="M753.7231,779.3853 Q753.1421,779.6841 752.5029,779.8335 Q751.8638,779.9829 751.1582,779.9829 Q748.6514,779.9829 747.3315,778.3311 Q746.0117,776.6792 746.0117,773.5581 Q746.0117,770.4287 747.3315,768.7769 Q748.6514,767.125 751.1582,767.125 Q751.8638,767.125 752.5112,767.2744 Q753.1587,767.4238 753.7231,767.7227 L753.7231,770.4453 Q753.0923,769.8643 752.4988,769.5945 Q751.9053,769.3247 751.2744,769.3247 Q749.9297,769.3247 749.2449,770.3914 Q748.5601,771.458 748.5601,773.5581 Q748.5601,775.6499 749.2449,776.7166 Q749.9297,777.7832 751.2744,777.7832 Q751.9053,777.7832 752.4988,777.5134 Q753.0923,777.2437 753.7231,776.6626 Z " fill="#000000"/><text fill="#000000" font-family="sans-serif" font-size="14" lengthAdjust="spacing" textLength="32" x="771.75" y="778.5332">Task</text><line style="stroke:#181818;stroke-width:0.5;" x1="623" x2="920" y1="789.2422" y2="789.2422"/><text fill="#000000" font-family="sans-serif" font-size="14" lengthAdjust="spacing" textLength="118" x="628" y="806.7773">-String reference</text><text fill="#000000" font-family="sans-serif" font-size="14" lengthAdjust="spacing" textLength="134" x="628" y="823.2656">-String designation</text><text fill="#000000" font-family="sans-serif" font-size="14" lengthAdjust="spacing" textLength="189" x="628" y="839.7539">-String informalDescription</text><text fill="#000000" font-family="sans-serif" font-size="14" lengthAdjust="spacing" textLength="192" x="628" y="856.2422">-String technicalDescription</text><text fill="#000000" font-family="sans-serif" font-size="14" lengthAdjust="spacing" textLength="120" x="628" y="872.7305">-Integer duration</text><text fill="#000000" font-family="sans-serif" font-size="14" lengthAdjust="spacing" textLength="89" x="628" y="889.2188">-Double cost</text><line style="stroke:#181818;stroke-width:0.5;" x1="623" x2="920" y1="896.1719" y2="896.1719"/><text fill="#000000" font-family="sans-serif" font-size="14" lengthAdjust="spacing" textLength="206" x="628" y="913.707">+Task(reference, designation,</text><text fill="#000000" font-family="sans-serif" font-size="14" lengthAdjust="spacing" textLength="287" x="628" y="930.1953">informalDescription, technicalDescription,</text><text fill="#000000" font-family="sans-serif" font-size="14" lengthAdjust="spacing" textLength="272" x="628" y="946.6836">duration, cost, createdBy, taskCategory)</text></g><!--class TaskCategory--><g id="elem_TaskCategory"><rect codeLine="40" fill="#F1F1F1" height="80.9766" id="TaskCategory" rx="2.5" ry="2.5" style="stroke:#181818;stroke-width:0.5;" width="204" x="358.5" y="1046.7422"/><ellipse cx="409.25" cy="1062.7422" fill="#ADD1B2" rx="11" ry="11" style="stroke:#181818;stroke-width:1.0;"/><path d="M411.7231,1068.8853 Q411.1421,1069.1841 410.5029,1069.3335 Q409.8638,1069.4829 409.1582,1069.4829 Q406.6514,1069.4829 405.3315,1067.8311 Q404.0117,1066.1792 404.0117,1063.0581 Q404.0117,1059.9287 405.3315,1058.2769 Q406.6514,1056.625 409.1582,1056.625 Q409.8638,1056.625 410.5112,1056.7744 Q411.1587,1056.9238 411.7231,1057.2227 L411.7231,1059.9453 Q411.0923,1059.3643 410.4988,1059.0945 Q409.9053,1058.8247 409.2744,1058.8247 Q407.9297,1058.8247 407.2449,1059.8914 Q406.5601,1060.958 406.5601,1063.0581 Q406.5601,1065.1499 407.2449,1066.2166 Q407.9297,1067.2832 409.2744,1067.2832 Q409.9053,1067.2832 410.4988,1067.0134 Q411.0923,1066.7437 411.7231,1066.1626 Z " fill="#000000"/><text fill="#000000" font-family="sans-serif" font-size="14" lengthAdjust="spacing" textLength="94" x="429.75" y="1068.0332">TaskCategory</text><line style="stroke:#181818;stroke-width:0.5;" x1="359.5" x2="561.5" y1="1078.7422" y2="1078.7422"/><text fill="#000000" font-family="sans-serif" font-size="14" lengthAdjust="spacing" textLength="130" x="364.5" y="1096.2773">-String description</text><line style="stroke:#181818;stroke-width:0.5;" x1="359.5" x2="561.5" y1="1103.2305" y2="1103.2305"/><text fill="#000000" font-family="sans-serif" font-size="14" lengthAdjust="spacing" textLength="192" x="364.5" y="1120.7656">+TaskCategory(description)</text></g><!--class Organization--><g id="elem_Organization"><rect codeLine="46" fill="#F1F1F1" height="229.3711" id="Organization" rx="2.5" ry="2.5" style="stroke:#181818;stroke-width:0.5;" width="577" x="703" y="451.2422"/><ellipse cx="942.25" cy="467.2422" fill="#ADD1B2" rx="11" ry="11" style="stroke:#181818;stroke-width:1.0;"/><path d="M944.7231,473.3853 Q944.1421,473.6841 943.5029,473.8335 Q942.8638,473.9829 942.1582,473.9829 Q939.6514,473.9829 938.3315,472.3311 Q937.0117,470.6792 937.0117,467.5581 Q937.0117,464.4287 938.3315,462.7769 Q939.6514,461.125 942.1582,461.125 Q942.8638,461.125 943.5112,461.2744 Q944.1587,461.4238 944.7231,461.7227 L944.7231,464.4453 Q944.0923,463.8643 943.4988,463.5945 Q942.9053,463.3247 942.2744,463.3247 Q940.9297,463.3247 940.2449,464.3914 Q939.5601,465.458 939.5601,467.5581 Q939.5601,469.6499 940.2449,470.7166 Q940.9297,471.7832 942.2744,471.7832 Q942.9053,471.7832 943.4988,471.5134 Q944.0923,471.2437 944.7231,470.6626 Z " fill="#000000"/><text fill="#000000" font-family="sans-serif" font-size="14" lengthAdjust="spacing" textLength="90" x="962.75" y="472.5332">Organization</text><line style="stroke:#181818;stroke-width:0.5;" x1="704" x2="1279" y1="483.2422" y2="483.2422"/><text fill="#000000" font-family="sans-serif" font-size="14" lengthAdjust="spacing" textLength="91" x="709" y="500.7773">-String name</text><text fill="#000000" font-family="sans-serif" font-size="14" lengthAdjust="spacing" textLength="128" x="709" y="517.2656">-String vatNumber</text><text fill="#000000" font-family="sans-serif" font-size="14" lengthAdjust="spacing" textLength="105" x="709" y="533.7539">-String website</text><text fill="#000000" font-family="sans-serif" font-size="14" lengthAdjust="spacing" textLength="97" x="709" y="550.2422">-String phone</text><text fill="#000000" font-family="sans-serif" font-size="14" lengthAdjust="spacing" textLength="90" x="709" y="566.7305">-String email</text><line style="stroke:#181818;stroke-width:0.5;" x1="704" x2="1279" y1="573.6836" y2="573.6836"/><text fill="#000000" font-family="sans-serif" font-size="14" lengthAdjust="spacing" textLength="104" x="709" y="591.2188">-addTask(task)</text><text fill="#000000" font-family="sans-serif" font-size="14" lengthAdjust="spacing" textLength="131" x="709" y="607.707">-validateTask(task)</text><text fill="#000000" font-family="sans-serif" font-size="14" lengthAdjust="spacing" textLength="565" x="709" y="624.1953">+Organization(name, vatNumber, webSite, phone, email, postalAddress, manager)</text><text fill="#000000" font-family="sans-serif" font-size="14" lengthAdjust="spacing" textLength="399" x="709" y="640.6836">+createTask(reference, designation, informalDesccription,</text><text fill="#000000" font-family="sans-serif" font-size="14" lengthAdjust="spacing" textLength="423" x="709" y="657.1719">technicalDescription, duration, cost, taskCategoryDescription)</text><text fill="#000000" font-family="sans-serif" font-size="14" lengthAdjust="spacing" textLength="195" x="709" y="673.6602">-getEmployeeByEmail(email)</text></g><!--class TaskCategoryRepository--><g id="elem_TaskCategoryRepository"><rect codeLine="61" fill="#F1F1F1" height="64.4883" id="TaskCategoryRepository" rx="2.5" ry="2.5" style="stroke:#181818;stroke-width:0.5;" width="319" x="431" y="301.7422"/><ellipse cx="502.75" cy="317.7422" fill="#ADD1B2" rx="11" ry="11" style="stroke:#181818;stroke-width:1.0;"/><path d="M505.2231,323.8853 Q504.6421,324.1841 504.0029,324.3335 Q503.3638,324.4829 502.6582,324.4829 Q500.1514,324.4829 498.8315,322.8311 Q497.5117,321.1792 497.5117,318.0581 Q497.5117,314.9287 498.8315,313.2769 Q500.1514,311.625 502.6582,311.625 Q503.3638,311.625 504.0112,311.7744 Q504.6587,311.9238 505.2231,312.2227 L505.2231,314.9453 Q504.5923,314.3643 503.9988,314.0945 Q503.4053,313.8247 502.7744,313.8247 Q501.4297,313.8247 500.7449,314.8914 Q500.0601,315.958 500.0601,318.0581 Q500.0601,320.1499 500.7449,321.2166 Q501.4297,322.2832 502.7744,322.2832 Q503.4053,322.2832 503.9988,322.0134 Q504.5923,321.7437 505.2231,321.1626 Z " fill="#000000"/><text fill="#000000" font-family="sans-serif" font-size="14" lengthAdjust="spacing" textLength="167" x="523.25" y="323.0332">TaskCategoryRepository</text><line style="stroke:#181818;stroke-width:0.5;" x1="432" x2="749" y1="333.7422" y2="333.7422"/><line style="stroke:#181818;stroke-width:0.5;" x1="432" x2="749" y1="341.7422" y2="341.7422"/><text fill="#000000" font-family="sans-serif" font-size="14" lengthAdjust="spacing" textLength="307" x="437" y="359.2773">+getTaskCategoryByDescription(description)</text></g><!--class OrganizationRepository--><g id="elem_OrganizationRepository"><rect codeLine="65" fill="#F1F1F1" height="64.4883" id="OrganizationRepository" rx="2.5" ry="2.5" style="stroke:#181818;stroke-width:0.5;" width="265" x="937" y="301.7422"/><ellipse cx="983.75" cy="317.7422" fill="#ADD1B2" rx="11" ry="11" style="stroke:#181818;stroke-width:1.0;"/><path d="M986.2231,323.8853 Q985.6421,324.1841 985.0029,324.3335 Q984.3638,324.4829 983.6582,324.4829 Q981.1514,324.4829 979.8315,322.8311 Q978.5117,321.1792 978.5117,318.0581 Q978.5117,314.9287 979.8315,313.2769 Q981.1514,311.625 983.6582,311.625 Q984.3638,311.625 985.0112,311.7744 Q985.6587,311.9238 986.2231,312.2227 L986.2231,314.9453 Q985.5923,314.3643 984.9988,314.0945 Q984.4053,313.8247 983.7744,313.8247 Q982.4297,313.8247 981.7449,314.8914 Q981.0601,315.958 981.0601,318.0581 Q981.0601,320.1499 981.7449,321.2166 Q982.4297,322.2832 983.7744,322.2832 Q984.4053,322.2832 984.9988,322.0134 Q985.5923,321.7437 986.2231,321.1626 Z " fill="#000000"/><text fill="#000000" font-family="sans-serif" font-size="14" lengthAdjust="spacing" textLength="163" x="1004.25" y="323.0332">OrganizationRepository</text><line style="stroke:#181818;stroke-width:0.5;" x1="938" x2="1201" y1="333.7422" y2="333.7422"/><line style="stroke:#181818;stroke-width:0.5;" x1="938" x2="1201" y1="341.7422" y2="341.7422"/><text fill="#000000" font-family="sans-serif" font-size="14" lengthAdjust="spacing" textLength="253" x="943" y="359.2773">+getOrganizationByUserEmail(email)</text></g><!--class Repositories--><g id="elem_Repositories"><rect codeLine="69" fill="#F1F1F1" height="113.9531" id="Repositories" rx="2.5" ry="2.5" style="stroke:#181818;stroke-width:0.5;" width="222" x="959.5" y="77.7422"/><ellipse cx="1023.75" cy="93.7422" fill="#ADD1B2" rx="11" ry="11" style="stroke:#181818;stroke-width:1.0;"/><path d="M1026.2231,99.8853 Q1025.6421,100.1841 1025.0029,100.3335 Q1024.3638,100.4829 1023.6582,100.4829 Q1021.1514,100.4829 1019.8315,98.8311 Q1018.5117,97.1792 1018.5117,94.0581 Q1018.5117,90.9287 1019.8315,89.2769 Q1021.1514,87.625 1023.6582,87.625 Q1024.3638,87.625 1025.0112,87.7744 Q1025.6587,87.9238 1026.2231,88.2227 L1026.2231,90.9453 Q1025.5923,90.3643 1024.9988,90.0945 Q1024.4053,89.8247 1023.7744,89.8247 Q1022.4297,89.8247 1021.7449,90.8914 Q1021.0601,91.958 1021.0601,94.0581 Q1021.0601,96.1499 1021.7449,97.2166 Q1022.4297,98.2832 1023.7744,98.2832 Q1024.4053,98.2832 1024.9988,98.0134 Q1025.5923,97.7437 1026.2231,97.1626 Z " fill="#000000"/><text fill="#000000" font-family="sans-serif" font-size="14" lengthAdjust="spacing" textLength="85" x="1044.25" y="99.0332">Repositories</text><line style="stroke:#181818;stroke-width:0.5;" x1="960.5" x2="1180.5" y1="109.7422" y2="109.7422"/><line style="stroke:#181818;stroke-width:0.5;" x1="960.5" x2="1180.5" y1="117.7422" y2="117.7422"/><text fill="#000000" font-family="sans-serif" font-size="14" lengthAdjust="spacing" textLength="103" x="965.5" y="135.2773">-Repositories()</text><text fill="#000000" font-family="sans-serif" font-size="14" lengthAdjust="spacing" textLength="197" x="965.5" y="151.7656">+getInstance() : Repositories</text><text fill="#000000" font-family="sans-serif" font-size="14" lengthAdjust="spacing" textLength="210" x="965.5" y="168.2539">+getTaskCategoryRepository()</text><text fill="#000000" font-family="sans-serif" font-size="14" lengthAdjust="spacing" textLength="206" x="965.5" y="184.7422">+getOrganizationRepository()</text></g><!--class CreateTaskController--><g id="elem_CreateTaskController"><rect codeLine="76" fill="#F1F1F1" height="163.418" id="CreateTaskController" rx="2.5" ry="2.5" style="stroke:#181818;stroke-width:0.5;" width="512" x="165.5" y="53.2422"/><ellipse cx="343.75" cy="69.2422" fill="#ADD1B2" rx="11" ry="11" style="stroke:#181818;stroke-width:1.0;"/><path d="M346.2231,75.3853 Q345.6421,75.6841 345.0029,75.8335 Q344.3638,75.9829 343.6582,75.9829 Q341.1514,75.9829 339.8315,74.3311 Q338.5117,72.6792 338.5117,69.5581 Q338.5117,66.4287 339.8315,64.7769 Q341.1514,63.125 343.6582,63.125 Q344.3638,63.125 345.0112,63.2744 Q345.6587,63.4238 346.2231,63.7227 L346.2231,66.4453 Q345.5923,65.8643 344.9988,65.5945 Q344.4053,65.3247 343.7744,65.3247 Q342.4297,65.3247 341.7449,66.3914 Q341.0601,67.458 341.0601,69.5581 Q341.0601,71.6499 341.7449,72.7166 Q342.4297,73.7832 343.7744,73.7832 Q344.4053,73.7832 344.9988,73.5134 Q345.5923,73.2437 346.2231,72.6626 Z " fill="#000000"/><text fill="#000000" font-family="sans-serif" font-size="14" lengthAdjust="spacing" textLength="147" x="364.25" y="74.5332">CreateTaskController</text><line style="stroke:#181818;stroke-width:0.5;" x1="166.5" x2="676.5" y1="85.2422" y2="85.2422"/><line style="stroke:#181818;stroke-width:0.5;" x1="166.5" x2="676.5" y1="93.2422" y2="93.2422"/><text fill="#000000" font-family="sans-serif" font-size="14" lengthAdjust="spacing" textLength="500" x="171.5" y="110.7773">+CreateTaskController(organizationRepository, taskCategoryRepository)</text><text fill="#000000" font-family="sans-serif" font-size="14" lengthAdjust="spacing" textLength="149" x="171.5" y="127.2656">+getTaskCategories()</text><text fill="#000000" font-family="sans-serif" font-size="14" lengthAdjust="spacing" textLength="323" x="171.5" y="143.7539">+createTask(userEmail, reference, designation,</text><text fill="#000000" font-family="sans-serif" font-size="14" lengthAdjust="spacing" textLength="287" x="171.5" y="160.2422">informalDescription, technicalDescription,</text><text fill="#000000" font-family="sans-serif" font-size="14" lengthAdjust="spacing" textLength="245" x="171.5" y="176.7305">duration, cost, categoryDescription)</text><text fill="#000000" font-family="sans-serif" font-size="14" lengthAdjust="spacing" textLength="395" x="171.5" y="193.2188">-getTaskCategoryByDescription(taskCategoryDescription)</text><text fill="#000000" font-family="sans-serif" font-size="14" lengthAdjust="spacing" textLength="194" x="171.5" y="209.707">-getEmployeeFromSession()</text></g><g id="elem_GMN12"><path d="M712.5,99.2422 L712.5,170.4844 L924.5,170.4844 L924.5,109.2422 L914.5,99.2422 L712.5,99.2422 " fill="#FEFFDD" style="stroke:#181818;stroke-width:0.5;"/><path d="M914.5,99.2422 L914.5,109.2422 L924.5,109.2422 L914.5,99.2422 " fill="#FEFFDD" style="stroke:#181818;stroke-width:1.0;"/><text fill="#000000" font-family="sans-serif" font-size="13" lengthAdjust="spacing" textLength="147" x="718.5" y="116.8105">- userEmail is obtained</text><text fill="#000000" font-family="sans-serif" font-size="13" lengthAdjust="spacing" textLength="137" x="718.5" y="132.1211">from the user session</text><text fill="#000000" font-family="sans-serif" font-size="13" lengthAdjust="spacing" textLength="139" x="718.5" y="147.4316">- categoryDescription</text><text fill="#000000" font-family="sans-serif" font-size="13" lengthAdjust="spacing" textLength="191" x="718.5" y="162.7422">is retrieved from selected data</text></g><g id="elem_GMN15"><path d="M513.5,545.2422 L513.5,585.8633 A0,0 0 0 0 513.5,585.8633 L667.5,585.8633 A0,0 0 0 0 667.5,585.8633 L667.5,555.2422 L657.5,545.2422 L594.5,545.2422 L590.5,366.2422 L586.5,545.2422 L513.5,545.2422 A0,0 0 0 0 513.5,545.2422 " fill="#FEFFDD" style="stroke:#181818;stroke-width:0.5;"/><path d="M657.5,545.2422 L657.5,555.2422 L667.5,555.2422 L657.5,545.2422 " fill="#FEFFDD" style="stroke:#181818;stroke-width:0.5;"/><text fill="#000000" font-family="sans-serif" font-size="13" lengthAdjust="spacing" textLength="133" x="519.5" y="562.8105">- used for displaying</text><text fill="#000000" font-family="sans-serif" font-size="13" lengthAdjust="spacing" textLength="102" x="519.5" y="578.1211">the category list</text></g><!--class CreateTaskUI--><g id="elem_CreateTaskUI"><rect codeLine="96" fill="#F1F1F1" height="48" id="CreateTaskUI" rx="2.5" ry="2.5" style="stroke:#181818;stroke-width:0.5;" width="123" x="7" y="110.7422"/><ellipse cx="22" cy="126.7422" fill="#ADD1B2" rx="11" ry="11" style="stroke:#181818;stroke-width:1.0;"/><path d="M24.4731,132.8853 Q23.8921,133.1841 23.2529,133.3335 Q22.6138,133.4829 21.9082,133.4829 Q19.4014,133.4829 18.0815,131.8311 Q16.7617,130.1792 16.7617,127.0581 Q16.7617,123.9287 18.0815,122.2769 Q19.4014,120.625 21.9082,120.625 Q22.6138,120.625 23.2612,120.7744 Q23.9087,120.9238 24.4731,121.2227 L24.4731,123.9453 Q23.8423,123.3643 23.2488,123.0945 Q22.6553,122.8247 22.0244,122.8247 Q20.6797,122.8247 19.9949,123.8914 Q19.3101,124.958 19.3101,127.0581 Q19.3101,129.1499 19.9949,130.2166 Q20.6797,131.2832 22.0244,131.2832 Q22.6553,131.2832 23.2488,131.0134 Q23.8423,130.7437 24.4731,130.1626 Z " fill="#000000"/><text fill="#000000" font-family="sans-serif" font-size="14" lengthAdjust="spacing" textLength="91" x="36" y="132.0332">CreateTaskUI</text><line style="stroke:#181818;stroke-width:0.5;" x1="8" x2="129" y1="142.7422" y2="142.7422"/><line style="stroke:#181818;stroke-width:0.5;" x1="8" x2="129" y1="150.7422" y2="150.7422"/></g><!--link CreateTaskController to GMN12--><g id="link_CreateTaskController_GMN12"><path d="M677.89,134.7422 C683.1,134.7422 686.17,134.7422 686.17,134.7422 C686.17,134.7422 696.93,134.7422 712.31,134.7422 " fill="none" id="CreateTaskController-GMN12" style="stroke:#181818;stroke-width:1.0;stroke-dasharray:7.0,7.0;"/></g><!--link Repositories to Repositories--><g id="link_Repositories_Repositories"><path codeLine="99" d="M1181.9,113.4822 C1202.24,116.1722 1216.5,123.2622 1216.5,134.7422 C1216.5,145.0622 1204.99,151.8322 1187.9,155.0522 " fill="none" id="Repositories-to-Repositories" style="stroke:#181818;stroke-width:1.0;"/><polygon fill="#181818" points="1183.39,155.7722,1192.9064,158.3097,1188.328,154.9872,1191.6504,150.4089,1183.39,155.7722" style="stroke:#181818;stroke-width:1.0;"/><text fill="#000000" font-family="sans-serif" font-size="13" lengthAdjust="spacing" textLength="53" x="1222.5" y="139.8105">instance</text></g><!--link ApplicationSession to ApplicationSession--><g id="link_ApplicationSession_ApplicationSession"><path codeLine="100" d="M241.81,319.1622 C261.7,320.2422 276.5,325.1022 276.5,333.7422 C276.5,341.4422 264.76,346.1322 248.14,347.8322 " fill="none" id="ApplicationSession-to-ApplicationSession" style="stroke:#181818;stroke-width:1.0;"/><polygon fill="#181818" points="243.32,348.2022,252.6017,351.4961,248.3051,347.8165,251.9847,343.5199,243.32,348.2022" style="stroke:#181818;stroke-width:1.0;"/><text fill="#000000" font-family="sans-serif" font-size="13" lengthAdjust="spacing" textLength="53" x="282.5" y="338.8105">instance</text></g><!--link CreateTaskUI to CreateTaskController--><g id="link_CreateTaskUI_CreateTaskController"><path codeLine="102" d="M130.43,134.7422 C140.41,134.7422 150.26,134.7422 158.84,134.7422 " fill="none" id="CreateTaskUI-to-CreateTaskController" style="stroke:#181818;stroke-width:1.0;stroke-dasharray:7.0,7.0;"/><polygon fill="#181818" points="163.62,134.7422,154.62,130.7422,158.62,134.7422,154.62,138.7422,163.62,134.7422" style="stroke:#181818;stroke-width:1.0;"/></g><!--link CreateTaskController to Repositories--><g id="link_CreateTaskController_Repositories"><path codeLine="104" d="M677.75,57.1922 C735.44,39.7222 780,26.2422 780,26.2422 C780,26.2422 857,26.2422 857,26.2422 C857,26.2422 942.5,53.2422 942.5,53.2422 C942.5,53.2422 956.31,62.0322 974.86,73.8522 " fill="none" id="CreateTaskController-to-Repositories" style="stroke:#181818;stroke-width:1.0;stroke-dasharray:7.0,7.0;"/><polygon fill="#181818" points="978.94,76.4422,973.4999,68.2321,974.7235,73.755,969.2005,74.9785,978.94,76.4422" style="stroke:#181818;stroke-width:1.0;"/><text fill="#000000" font-family="sans-serif" font-size="13" lengthAdjust="spacing" textLength="75" x="781" y="19.8105">repositories</text></g><!--link Repositories to TaskCategoryRepository--><g id="link_Repositories_TaskCategoryRepository"><path codeLine="106" d="M1051.51,192.0322 C1040,226.1922 1027.5,263.2422 1027.5,263.2422 C1027.5,263.2422 777.5,293.2422 777.5,293.2422 C777.5,293.2422 764.49,295.9922 745.34,300.0322 " fill="none" id="Repositories-to-TaskCategoryRepository" style="stroke:#181818;stroke-width:1.0;"/><polygon fill="#181818" points="740.69,301.0222,750.321,303.0823,745.5827,299.9921,748.6729,295.2539,740.69,301.0222" style="stroke:#181818;stroke-width:1.0;"/><text fill="#000000" font-family="sans-serif" font-size="13" lengthAdjust="spacing" textLength="8" x="757.8909" y="291.5258">1</text></g><!--link CreateTaskController to TaskCategory--><g id="link_CreateTaskController_TaskCategory"><path codeLine="108" d="M403.41,216.7222 C391.28,271.0622 377.5,332.7422 377.5,332.7422 C377.5,332.7422 377.5,332.7422 377.5,856.2422 C377.5,856.2422 419.79,973.4322 444,1040.5122 " fill="none" id="CreateTaskController-to-TaskCategory" style="stroke:#181818;stroke-width:1.0;stroke-dasharray:7.0,7.0;"/><polygon fill="#181818" points="445.62,1045.0222,446.3203,1035.1983,443.9193,1040.3203,438.7973,1037.9193,445.62,1045.0222" style="stroke:#181818;stroke-width:1.0;"/></g><!--link CreateTaskController to OrganizationRepository--><g id="link_CreateTaskController_OrganizationRepository"><path codeLine="109" d="M677.83,211.3322 C688.33,214.4222 694.5,216.2422 694.5,216.2422 C694.5,216.2422 839.5,246.2422 839.5,246.2422 C839.5,246.2422 915.4,274.7922 980,299.0822 " fill="none" id="CreateTaskController-to-OrganizationRepository" style="stroke:#181818;stroke-width:1.0;stroke-dasharray:7.0,7.0;"/><polygon fill="#181818" points="984.4,300.7322,977.3845,293.8197,979.7201,298.9719,974.568,301.3075,984.4,300.7322" style="stroke:#181818;stroke-width:1.0;"/><text fill="#000000" font-family="sans-serif" font-size="13" lengthAdjust="spacing" textLength="146" x="884.5" y="259.8105">organizationRepository</text></g><!--link CreateTaskController to TaskCategoryRepository--><g id="link_CreateTaskController_TaskCategoryRepository"><path codeLine="110" d="M490.97,216.7222 C514.94,244.6622 540.57,274.5422 559.82,296.9822 " fill="none" id="CreateTaskController-to-TaskCategoryRepository" style="stroke:#181818;stroke-width:1.0;stroke-dasharray:7.0,7.0;"/><polygon fill="#181818" points="562.85,300.5122,560.0299,291.0757,559.596,296.7159,553.9559,296.282,562.85,300.5122" style="stroke:#181818;stroke-width:1.0;"/><text fill="#000000" font-family="sans-serif" font-size="13" lengthAdjust="spacing" textLength="153" x="527.5" y="259.8105">TaskCategoryRepository</text></g><!--link Repositories to OrganizationRepository--><g id="link_Repositories_OrganizationRepository"><path codeLine="112" d="M1070.21,192.1922 C1070.05,225.1722 1069.84,265.8922 1069.69,295.0022 " fill="none" id="Repositories-to-OrganizationRepository" style="stroke:#181818;stroke-width:1.0;"/><polygon fill="#181818" points="1069.67,299.8822,1073.7214,290.9052,1069.6986,294.8823,1065.7215,290.8595,1069.67,299.8822" style="stroke:#181818;stroke-width:1.0;"/><text fill="#000000" font-family="sans-serif" font-size="13" lengthAdjust="spacing" textLength="8" x="1060.904" y="291.1096">1</text></g><!--link OrganizationRepository to Organization--><g id="link_OrganizationRepository_Organization"><path codeLine="114" d="M1058.82,366.2422 C1051.76,387.0622 1042.01,415.8022 1032.12,444.9522 " fill="none" id="OrganizationRepository-to-Organization" style="stroke:#181818;stroke-width:1.0;"/><polygon fill="#181818" points="1030.63,449.3522,1037.3166,442.121,1032.241,444.6188,1029.7432,439.5433,1030.63,449.3522" style="stroke:#181818;stroke-width:1.0;"/><text fill="#000000" font-family="sans-serif" font-size="13" lengthAdjust="spacing" textLength="6" x="1026.4338" y="440.5035">*</text></g><!--link ApplicationSession to UserSession--><g id="link_ApplicationSession_UserSession"><path codeLine="115" d="M145.62,374.5422 C129.53,417.5522 104.11,485.5622 88.41,527.5422 " fill="none" id="ApplicationSession-to-UserSession" style="stroke:#181818;stroke-width:1.0;"/><polygon fill="#181818" points="86.7,532.1222,93.6054,525.0997,88.4556,527.4405,86.1148,522.2907,86.7,532.1222" style="stroke:#181818;stroke-width:1.0;"/><text fill="#000000" font-family="sans-serif" font-size="13" lengthAdjust="spacing" textLength="75" x="134.5" y="417.8105">userSession</text><text fill="#000000" font-family="sans-serif" font-size="13" lengthAdjust="spacing" textLength="8" x="79.7519" y="522.892">1</text></g><!--link CreateTaskController to Organization--><g id="link_CreateTaskController_Organization"><path codeLine="117" d="M617.68,216.6322 C658.55,233.4822 689.5,246.2422 689.5,246.2422 C689.5,246.2422 767.5,293.2422 767.5,293.2422 C767.5,293.2422 833.26,372.9422 893.52,445.9822 " fill="none" id="CreateTaskController-to-Organization" style="stroke:#181818;stroke-width:1.0;stroke-dasharray:7.0,7.0;"/><polygon fill="#181818" points="896.51,449.6122,893.8628,440.1258,893.326,445.7571,887.6946,445.2202,896.51,449.6122" style="stroke:#181818;stroke-width:1.0;"/><text fill="#000000" font-family="sans-serif" font-size="13" lengthAdjust="spacing" textLength="79" x="833.5" y="338.8105">organization</text><text fill="#000000" font-family="sans-serif" font-size="13" lengthAdjust="spacing" textLength="8" x="883.2006" y="440.5035">1</text></g><!--link CreateTaskController to ApplicationSession--><g id="link_CreateTaskController_ApplicationSession"><path codeLine="118" d="M314.21,216.7222 C281.39,241.5022 246.54,267.8022 218.33,289.0922 " fill="none" id="CreateTaskController-to-ApplicationSession" style="stroke:#181818;stroke-width:1.0;stroke-dasharray:7.0,7.0;"/><polygon fill="#181818" points="214.35,292.0922,223.945,289.8703,218.3431,289.0831,219.1304,283.4813,214.35,292.0922" style="stroke:#181818;stroke-width:1.0;"/></g><!--link CreateTaskController to UserSession--><g id="link_CreateTaskController_UserSession"><path codeLine="119" d="M236.49,216.6822 C148.19,255.3122 61.5,293.2422 61.5,293.2422 C61.5,293.2422 61.5,374.2422 61.5,374.2422 C61.5,374.2422 68.14,471.5322 71.93,527.0622 " fill="none" id="CreateTaskController-to-UserSession" style="stroke:#181818;stroke-width:1.0;stroke-dasharray:7.0,7.0;"/><polygon fill="#181818" points="72.25,531.7722,75.6512,522.5293,71.9221,526.7829,67.6685,523.0538,72.25,531.7722" style="stroke:#181818;stroke-width:1.0;"/></g><!--link Task to TaskCategory--><g id="link_Task_TaskCategory"><path codeLine="120" d="M640.06,953.4522 C598.03,984.5322 553.6,1017.3922 519.44,1042.6522 " fill="none" id="Task-to-TaskCategory" style="stroke:#181818;stroke-width:1.0;"/><polygon fill="#181818" points="515.7,1045.4222,525.3137,1043.2826,519.7188,1042.4474,520.554,1036.8526,515.7,1045.4222" style="stroke:#181818;stroke-width:1.0;"/><text fill="#000000" font-family="sans-serif" font-size="13" lengthAdjust="spacing" textLength="83" x="598.5" y="996.8105">taskCategory</text><text fill="#000000" font-family="sans-serif" font-size="13" lengthAdjust="spacing" textLength="6" x="623.7669" y="974.1108">*</text><text fill="#000000" font-family="sans-serif" font-size="13" lengthAdjust="spacing" textLength="8" x="514.7579" y="1035.8986">1</text></g><!--link TaskCategoryRepository to TaskCategory--><g id="link_TaskCategoryRepository_TaskCategory"><path codeLine="121" d="M565.04,365.9622 C536.9,400.4722 495.5,451.2422 495.5,451.2422 C495.5,451.2422 471.08,894.2322 463.04,1040.2122 " fill="none" id="TaskCategoryRepository-to-TaskCategory" style="stroke:#181818;stroke-width:1.0;"/><polygon fill="#181818" points="462.77,1045.0122,467.252,1036.2422,463.041,1040.0195,459.2637,1035.8086,462.77,1045.0122" style="stroke:#181818;stroke-width:1.0;"/><text fill="#000000" font-family="sans-serif" font-size="13" lengthAdjust="spacing" textLength="83" x="482.5" y="723.8105">taskCategory</text><text fill="#000000" font-family="sans-serif" font-size="13" lengthAdjust="spacing" textLength="8" x="550.9639" y="386.7045">1</text><text fill="#000000" font-family="sans-serif" font-size="13" lengthAdjust="spacing" textLength="6" x="456.5558" y="1036.1318">*</text></g><!--link Organization to Task--><g id="link_Organization_Task"><path codeLine="122" d="M904.55,680.3722 C886.5,703.9622 867.58,728.6822 849.86,751.8422 " fill="none" id="Organization-to-Task" style="stroke:#181818;stroke-width:1.0;"/><polygon fill="#181818" points="847.01,755.5622,855.6482,750.8312,850.0419,751.5863,849.2868,745.9801,847.01,755.5622" style="stroke:#181818;stroke-width:1.0;"/><text fill="#000000" font-family="sans-serif" font-size="13" lengthAdjust="spacing" textLength="34" x="882.5" y="723.8105">tasks</text><text fill="#000000" font-family="sans-serif" font-size="13" lengthAdjust="spacing" textLength="8" x="890.4393" y="701.1441">1</text><text fill="#000000" font-family="sans-serif" font-size="13" lengthAdjust="spacing" textLength="6" x="845.3474" y="746.5446">*</text></g><!--link Task to Employee--><g id="link_Task_Employee"><path codeLine="123" d="M831.94,953.4522 C846.91,977.5222 862.54,1002.6622 876.12,1024.5122 " fill="none" id="Task-to-Employee" style="stroke:#181818;stroke-width:1.0;"/><polygon fill="#181818" points="878.73,1028.7022,877.3668,1018.9481,876.0864,1024.4582,870.5764,1023.1778,878.73,1028.7022" style="stroke:#181818;stroke-width:1.0;"/><text fill="#000000" font-family="sans-serif" font-size="13" lengthAdjust="spacing" textLength="60" x="861.5" y="996.8105">createdBy</text></g><!--link Organization to Employee--><g id="link_Organization_Employee"><path codeLine="125" d="M975.88,680.6122 C960.25,794.6222 938.5,953.2422 938.5,953.2422 C938.5,953.2422 930.5,1000.2422 930.5,1000.2422 C930.5,1000.2422 928.63,1010.3122 926.16,1023.5522 " fill="none" id="Organization-to-Employee" style="stroke:#181818;stroke-width:1.0;"/><polygon fill="#181818" points="925.27,1028.3522,930.8445,1020.2327,926.182,1023.4361,922.9787,1018.7736,925.27,1028.3522" style="stroke:#181818;stroke-width:1.0;"/><text fill="#000000" font-family="sans-serif" font-size="13" lengthAdjust="spacing" textLength="53" x="965.5" y="860.3105">employs</text><text fill="#000000" font-family="sans-serif" font-size="13" lengthAdjust="spacing" textLength="6" x="919.9028" y="1019.5226">*</text></g><!--SRC=[jLOxRzim4DxvAuWiiHkbQDSC1V9eWImjK3TR5rewoqGeKY3f56hH_zwZH4b7cGgoD4DWtUExxnuyyj8zIzqAAnhU66tAepKDS6zFm6PDAyfdKSFETmguXT8BNIjgu8wYCh-ahlb1A4SrIchmNGkyDQeB7-moepJM6qQyIYMSk_NUolt9msDfz4x-1lw1iKi51y-zuLRMHyyh6UX8endhVVXjsofPYY3QWND1yuTn_BlYpgEuv3NuHus_TGcRRLIXxFvaBMWVdL3pTuHySc2NMEWGn9yR8HMr_ToqodG0V32yvbeq47z2C8w_M-DaJpj-7WrMPaBv8TppXB33Ac1XBHm02PQGYYjmijQ2O4M5r0TZ6w4Um9LMjkS67igZnb9bB1wrXneihqwM8Z-Oqnu7e3JEirY7m7GpKIiedUAdpd0eid7HTenLzFZutuBmKDrrw851xl6ZDhRRfbKQnSjgLIGdGdKqtn0zGVncQw7bxvx74f4qCafUXFzwQlPWK_4ls6Dl5xP3WnFHC0vH9gggBsL8THjbBqB92Wal55S9pKtWLSnSYX1_X_6B8MOnn2d2n7cXRglAuYWNl14QJxGT8OTglzRDPA18txBjvCjkqXO-qDeFgU9n6a_ENJSSgfxsbbqYEoTUQ16o0_0T-YCrZq9_Hgd57GtyXW788rABksxU0P7kX3HvIt3JA54XtJtpFk8tYL4-avaP1SbpfylfVcholT7U6gNmZ8-vvPGRayLCspdBjrcwD5SoPgUnT0N_F_lZrMbR7uotJ-eNl2gJwq8R3_5UCeTiGIF8b3kNZfkz5tWFLhtkW9ZS7w4tuIxUEeDN9gDUWnWMSAV02rG3W0E5jo9-uVeG37J50xL8S6-yHnjac9-fcIEY6Rm4f6kLw71bzPf0RcI25pXU1JF-SioU7d6yi339ORZ-b1wE6zmim_YpyyixM6Uan8SbuTv_ojUTPMV__HaLIm_V6U-BZnThHLi9W16emxhLokQvuVaZ-BPm2T0QyJJ9c6MU3cChD7ktTwbRjfiHdZofaDc9FB3M4rlIMjHctJ7p95orfM-z_XKMihhEj1wZqqt1LieUtCRYlEQU9BPqYiPkO1GqqpFpPdudfSsP08Wfz3yT-mS0]--></g></svg>