<?xml version="1.0" encoding="UTF-8" standalone="no"?><svg xmlns="http://www.w3.org/2000/svg" xmlns:xlink="http://www.w3.org/1999/xlink" contentStyleType="text/css" height="485px" preserveAspectRatio="none" style="width:472px;height:485px;background:#FFFFFF;" version="1.1" viewBox="0 0 472 485" width="472px" zoomAndPan="magnify"><defs/><g><text fill="#000000" font-family="sans-serif" font-size="14" font-weight="bold" lengthAdjust="spacing" textLength="363" x="53.5" y="28.5352">System Sequence Diagram (SSD) - Alternative One</text><rect fill="#FFFFFF" height="266.1055" style="stroke:#181818;stroke-width:1.0;" width="10" x="83" y="128.9766"/><rect fill="#FFFFFF" height="29.3105" style="stroke:#181818;stroke-width:1.0;" width="10" x="428" y="150.2871"/><rect fill="#FFFFFF" height="29.3105" style="stroke:#181818;stroke-width:1.0;" width="10" x="428" y="239.5293"/><rect fill="#FFFFFF" height="29.3105" style="stroke:#181818;stroke-width:1.0;" width="10" x="428" y="298.1504"/><rect fill="#FFFFFF" height="29.3105" style="stroke:#181818;stroke-width:1.0;" width="10" x="428" y="356.7715"/><line style="stroke:#181818;stroke-width:0.5;stroke-dasharray:5.0,5.0;" x1="88" x2="88" y1="118.9766" y2="404.082"/><line style="stroke:#181818;stroke-width:0.5;stroke-dasharray:5.0,5.0;" x1="433" x2="433" y1="118.9766" y2="404.082"/><text fill="#000000" font-family="sans-serif" font-size="14" lengthAdjust="spacing" textLength="160" x="5" y="116.0234">Organization Employee</text><ellipse cx="88" cy="50.9883" fill="#E3E3E3" rx="8" ry="8" style="stroke:#181818;stroke-width:0.5;"/><path d="M88,58.9883 L88,85.9883 M75,66.9883 L101,66.9883 M88,85.9883 L75,100.9883 M88,85.9883 L101,100.9883 " fill="none" style="stroke:#181818;stroke-width:0.5;"/><text fill="#000000" font-family="sans-serif" font-size="14" lengthAdjust="spacing" textLength="160" x="5" y="416.6172">Organization Employee</text><ellipse cx="88" cy="428.0703" fill="#E3E3E3" rx="8" ry="8" style="stroke:#181818;stroke-width:0.5;"/><path d="M88,436.0703 L88,463.0703 M75,444.0703 L101,444.0703 M88,463.0703 L75,478.0703 M88,463.0703 L101,478.0703 " fill="none" style="stroke:#181818;stroke-width:0.5;"/><rect fill="#E3E3E3" height="30.4883" rx="2.5" ry="2.5" style="stroke:#181818;stroke-width:0.5;" width="66" x="400" y="87.4883"/><text fill="#000000" font-family="sans-serif" font-size="14" lengthAdjust="spacing" textLength="52" x="407" y="108.0234">:System</text><rect fill="#E3E3E3" height="30.4883" rx="2.5" ry="2.5" style="stroke:#181818;stroke-width:0.5;" width="66" x="400" y="403.082"/><text fill="#000000" font-family="sans-serif" font-size="14" lengthAdjust="spacing" textLength="52" x="407" y="423.6172">:System</text><rect fill="#FFFFFF" height="266.1055" style="stroke:#181818;stroke-width:1.0;" width="10" x="83" y="128.9766"/><rect fill="#FFFFFF" height="29.3105" style="stroke:#181818;stroke-width:1.0;" width="10" x="428" y="150.2871"/><rect fill="#FFFFFF" height="29.3105" style="stroke:#181818;stroke-width:1.0;" width="10" x="428" y="239.5293"/><rect fill="#FFFFFF" height="29.3105" style="stroke:#181818;stroke-width:1.0;" width="10" x="428" y="298.1504"/><rect fill="#FFFFFF" height="29.3105" style="stroke:#181818;stroke-width:1.0;" width="10" x="428" y="356.7715"/><polygon fill="#181818" points="416,146.2871,426,150.2871,416,154.2871,420,150.2871" style="stroke:#181818;stroke-width:1.0;"/><line style="stroke:#181818;stroke-width:1.0;" x1="93" x2="422" y1="150.2871" y2="150.2871"/><text fill="#000000" font-family="sans-serif" font-size="13" font-weight="bold" lengthAdjust="spacing" textLength="9" x="100" y="145.5449">1</text><text fill="#000000" font-family="sans-serif" font-size="13" lengthAdjust="spacing" textLength="159" x="113" y="145.5449">asks to create a new task</text><polygon fill="#181818" points="104,175.5977,94,179.5977,104,183.5977,100,179.5977" style="stroke:#181818;stroke-width:1.0;"/><line style="stroke:#181818;stroke-width:1.0;stroke-dasharray:2.0,2.0;" x1="98" x2="432" y1="179.5977" y2="179.5977"/><text fill="#000000" font-family="sans-serif" font-size="13" font-weight="bold" lengthAdjust="spacing" textLength="9" x="110" y="174.8555">2</text><text fill="#000000" font-family="sans-serif" font-size="13" lengthAdjust="spacing" textLength="85" x="123" y="174.8555">requests data</text><polygon fill="#181818" points="416,235.5293,426,239.5293,416,243.5293,420,239.5293" style="stroke:#181818;stroke-width:1.0;"/><line style="stroke:#181818;stroke-width:1.0;" x1="93" x2="422" y1="239.5293" y2="239.5293"/><text fill="#000000" font-family="sans-serif" font-size="13" font-weight="bold" lengthAdjust="spacing" textLength="9" x="100" y="219.4766">3</text><text fill="#000000" font-family="sans-serif" font-size="13" lengthAdjust="spacing" textLength="283" x="113" y="204.166">types requested data (reference, designation,</text><text fill="#000000" font-family="sans-serif" font-size="13" lengthAdjust="spacing" textLength="272" x="113" y="219.4766">informal description, technical description,</text><text fill="#000000" font-family="sans-serif" font-size="13" lengthAdjust="spacing" textLength="92" x="113" y="234.7871">duration, cost)</text><polygon fill="#181818" points="104,264.8398,94,268.8398,104,272.8398,100,268.8398" style="stroke:#181818;stroke-width:1.0;"/><line style="stroke:#181818;stroke-width:1.0;stroke-dasharray:2.0,2.0;" x1="98" x2="432" y1="268.8398" y2="268.8398"/><text fill="#000000" font-family="sans-serif" font-size="13" font-weight="bold" lengthAdjust="spacing" textLength="9" x="110" y="264.0977">4</text><text fill="#000000" font-family="sans-serif" font-size="13" lengthAdjust="spacing" textLength="298" x="123" y="264.0977">shows task category list and asks to select one</text><polygon fill="#181818" points="416,294.1504,426,298.1504,416,302.1504,420,298.1504" style="stroke:#181818;stroke-width:1.0;"/><line style="stroke:#181818;stroke-width:1.0;" x1="93" x2="422" y1="298.1504" y2="298.1504"/><text fill="#000000" font-family="sans-serif" font-size="13" font-weight="bold" lengthAdjust="spacing" textLength="9" x="100" y="293.4082">5</text><text fill="#000000" font-family="sans-serif" font-size="13" lengthAdjust="spacing" textLength="144" x="113" y="293.4082">selects a task category</text><polygon fill="#181818" points="104,323.4609,94,327.4609,104,331.4609,100,327.4609" style="stroke:#181818;stroke-width:1.0;"/><line style="stroke:#181818;stroke-width:1.0;stroke-dasharray:2.0,2.0;" x1="98" x2="432" y1="327.4609" y2="327.4609"/><text fill="#000000" font-family="sans-serif" font-size="13" font-weight="bold" lengthAdjust="spacing" textLength="9" x="110" y="322.7188">6</text><text fill="#000000" font-family="sans-serif" font-size="13" lengthAdjust="spacing" textLength="154" x="123" y="322.7188">shows selected category</text><polygon fill="#181818" points="416,352.7715,426,356.7715,416,360.7715,420,356.7715" style="stroke:#181818;stroke-width:1.0;"/><line style="stroke:#181818;stroke-width:1.0;" x1="93" x2="422" y1="356.7715" y2="356.7715"/><text fill="#000000" font-family="sans-serif" font-size="13" font-weight="bold" lengthAdjust="spacing" textLength="9" x="100" y="352.0293">7</text><text fill="#000000" font-family="sans-serif" font-size="13" lengthAdjust="spacing" textLength="82" x="113" y="352.0293">submits data</text><polygon fill="#181818" points="104,382.082,94,386.082,104,390.082,100,386.082" style="stroke:#181818;stroke-width:1.0;"/><line style="stroke:#181818;stroke-width:1.0;stroke-dasharray:2.0,2.0;" x1="98" x2="432" y1="386.082" y2="386.082"/><text fill="#000000" font-family="sans-serif" font-size="13" font-weight="bold" lengthAdjust="spacing" textLength="9" x="110" y="381.3398">8</text><text fill="#000000" font-family="sans-serif" font-size="13" lengthAdjust="spacing" textLength="170" x="123" y="381.3398">displays operation success</text><!--SRC=[dPB1Ri8m38RlVGgB4qZm0XmcJM9d3htkObBJHgHE5xkWxkddjhI3YHqWfyJr_-NFxyh9SuC9QwWZHrUbM1DeQYcJ-Kk3xeGbvTe5WaHEaSjmso0L5l7YkOGZ1g4iKw_McdUYL4DENosn8zXvBFlsPPxlLh21zw2K6DMV2VPiCcmrSbiVADdUQKomsASIsNzRKsJug9iGEw85eCo7p3oeTxv1LbXinqk7Zd4xeFmPbNub6TYQJh1vcwnkJNOIq0WkKQz0OBg0MdMGpAG93TTrrMyCDMEtbfMzN5IWGCMXjw27Y8TMj6j89WOL0mIMYOwK-ZZN1XDVyX3D6ZxPyp6c6aDVTyatOrt9LUpTd_8d5sswAbqKNRtoFAdYHOPmm9cgZAc3u4K1kPY350hsnq2q-JuRm2WL6yBT7QzR7O4MvHtgAKljeVQt0ttIH-6b2TW9n8R6_0tf78dyO-K7]--></g></svg>