<?xml version="1.0" encoding="UTF-8" standalone="no"?><svg xmlns="http://www.w3.org/2000/svg" xmlns:xlink="http://www.w3.org/1999/xlink" contentStyleType="text/css" height="1193px" preserveAspectRatio="none" style="width:1733px;height:1193px;background:#FFFFFF;" version="1.1" viewBox="0 0 1733 1193" width="1733px" zoomAndPan="magnify"><defs/><g><rect fill="#FFFFFF" height="1003.0039" style="stroke:#181818;stroke-width:1.0;" width="10" x="83" y="91.4883"/><rect fill="#FFFFFF" height="187.9961" style="stroke:#181818;stroke-width:1.0;" width="10" x="784" y="112.7988"/><rect fill="#FFFFFF" height="29.3105" style="stroke:#181818;stroke-width:1.0;" width="10" x="784" y="355.1055"/><rect fill="#FFFFFF" height="29.3105" style="stroke:#181818;stroke-width:1.0;" width="10" x="784" y="438.7266"/><rect fill="#FFFFFF" height="572.1445" style="stroke:#181818;stroke-width:1.0;" width="10" x="784" y="522.3477"/><rect fill="#FFFFFF" height="87.8867" style="stroke:#181818;stroke-width:1.0;" width="10" x="1225" y="183.5977"/><rect fill="#FFFFFF" height="498.2129" style="stroke:#181818;stroke-width:1.0;" width="10" x="1225" y="566.9688"/><rect fill="#FFFFFF" height="98.8867" style="stroke:#181818;stroke-width:1.0;" width="10" x="1230" y="604.2793"/><rect fill="#FFFFFF" height="98.8867" style="stroke:#181818;stroke-width:1.0;" width="10" x="1230" y="772.4766"/><rect fill="#FFFFFF" height="87.8867" style="stroke:#181818;stroke-width:1.0;" width="10" x="1665" y="947.9844"/><line style="stroke:#181818;stroke-width:0.5;stroke-dasharray:5.0,5.0;" x1="88" x2="88" y1="81.4883" y2="1112.4922"/><line style="stroke:#181818;stroke-width:0.5;stroke-dasharray:5.0,5.0;" x1="788.5" x2="788.5" y1="81.4883" y2="1112.4922"/><line style="stroke:#181818;stroke-width:0.5;stroke-dasharray:5.0,5.0;" x1="1229.5" x2="1229.5" y1="151.543" y2="1112.4922"/><line style="stroke:#181818;stroke-width:0.5;stroke-dasharray:5.0,5.0;" x1="1670" x2="1670" y1="81.4883" y2="1112.4922"/><text fill="#000000" font-family="sans-serif" font-size="14" lengthAdjust="spacing" textLength="160" x="5" y="78.5352">Organization Employee</text><ellipse cx="88" cy="13.5" fill="#E3E3E3" rx="8" ry="8" style="stroke:#181818;stroke-width:0.5;"/><path d="M88,21.5 L88,48.5 M75,29.5 L101,29.5 M88,48.5 L75,63.5 M88,48.5 L101,63.5 " fill="none" style="stroke:#181818;stroke-width:0.5;"/><text fill="#000000" font-family="sans-serif" font-size="14" lengthAdjust="spacing" textLength="160" x="5" y="1125.0273">Organization Employee</text><ellipse cx="88" cy="1136.4805" fill="#E3E3E3" rx="8" ry="8" style="stroke:#181818;stroke-width:0.5;"/><path d="M88,1144.4805 L88,1171.4805 M75,1152.4805 L101,1152.4805 M88,1171.4805 L75,1186.4805 M88,1171.4805 L101,1186.4805 " fill="none" style="stroke:#181818;stroke-width:0.5;"/><rect fill="#E3E3E3" height="30.4883" rx="2.5" ry="2.5" style="stroke:#181818;stroke-width:0.5;" width="109" x="734.5" y="50"/><text fill="#000000" font-family="sans-serif" font-size="14" lengthAdjust="spacing" textLength="95" x="741.5" y="70.5352">:CreateTaskUI</text><rect fill="#E3E3E3" height="30.4883" rx="2.5" ry="2.5" style="stroke:#181818;stroke-width:0.5;" width="109" x="734.5" y="1111.4922"/><text fill="#000000" font-family="sans-serif" font-size="14" lengthAdjust="spacing" textLength="95" x="741.5" y="1132.0273">:CreateTaskUI</text><rect fill="#E3E3E3" height="30.4883" rx="2.5" ry="2.5" style="stroke:#181818;stroke-width:0.5;" width="165" x="1147.5" y="1111.4922"/><text fill="#000000" font-family="sans-serif" font-size="14" lengthAdjust="spacing" textLength="151" x="1154.5" y="1132.0273">:CreateTaskController</text><rect fill="#E3E3E3" height="46.9766" rx="2.5" ry="2.5" style="stroke:#181818;stroke-width:0.5;" width="108" x="1616" y="33.5117"/><text fill="#000000" font-family="sans-serif" font-size="14" lengthAdjust="spacing" textLength="88" x="1626" y="54.0469">organization</text><text fill="#000000" font-family="sans-serif" font-size="14" lengthAdjust="spacing" textLength="94" x="1623" y="70.5352">:Organization</text><rect fill="#E3E3E3" height="46.9766" rx="2.5" ry="2.5" style="stroke:#181818;stroke-width:0.5;" width="108" x="1616" y="1111.4922"/><text fill="#000000" font-family="sans-serif" font-size="14" lengthAdjust="spacing" textLength="88" x="1626" y="1132.0273">organization</text><text fill="#000000" font-family="sans-serif" font-size="14" lengthAdjust="spacing" textLength="94" x="1623" y="1148.5156">:Organization</text><rect fill="#FFFFFF" height="1003.0039" style="stroke:#181818;stroke-width:1.0;" width="10" x="83" y="91.4883"/><rect fill="#FFFFFF" height="187.9961" style="stroke:#181818;stroke-width:1.0;" width="10" x="784" y="112.7988"/><rect fill="#FFFFFF" height="29.3105" style="stroke:#181818;stroke-width:1.0;" width="10" x="784" y="355.1055"/><rect fill="#FFFFFF" height="29.3105" style="stroke:#181818;stroke-width:1.0;" width="10" x="784" y="438.7266"/><rect fill="#FFFFFF" height="572.1445" style="stroke:#181818;stroke-width:1.0;" width="10" x="784" y="522.3477"/><rect fill="#FFFFFF" height="87.8867" style="stroke:#181818;stroke-width:1.0;" width="10" x="1225" y="183.5977"/><rect fill="#FFFFFF" height="498.2129" style="stroke:#181818;stroke-width:1.0;" width="10" x="1225" y="566.9688"/><rect fill="#FFFFFF" height="98.8867" style="stroke:#181818;stroke-width:1.0;" width="10" x="1230" y="604.2793"/><rect fill="#FFFFFF" height="98.8867" style="stroke:#181818;stroke-width:1.0;" width="10" x="1230" y="772.4766"/><rect fill="#FFFFFF" height="87.8867" style="stroke:#181818;stroke-width:1.0;" width="10" x="1665" y="947.9844"/><polygon fill="#181818" points="772,108.7988,782,112.7988,772,116.7988,776,112.7988" style="stroke:#181818;stroke-width:1.0;"/><line style="stroke:#181818;stroke-width:1.0;" x1="93" x2="778" y1="112.7988" y2="112.7988"/><text fill="#000000" font-family="sans-serif" font-size="13" font-weight="bold" lengthAdjust="spacing" textLength="9" x="100" y="108.0566">1</text><text fill="#000000" font-family="sans-serif" font-size="13" lengthAdjust="spacing" textLength="159" x="113" y="108.0566">asks to create a new task</text><polygon fill="#181818" points="1135.5,138.1094,1145.5,142.1094,1135.5,146.1094,1139.5,142.1094" style="stroke:#181818;stroke-width:1.0;"/><line style="stroke:#181818;stroke-width:1.0;" x1="794" x2="1141.5" y1="142.1094" y2="142.1094"/><text fill="#000000" font-family="sans-serif" font-size="13" font-weight="bold" lengthAdjust="spacing" textLength="9" x="801" y="137.3672">2</text><text fill="#000000" font-family="sans-serif" font-size="13" lengthAdjust="spacing" textLength="38" x="814" y="137.3672">create</text><rect fill="#E3E3E3" height="30.4883" rx="2.5" ry="2.5" style="stroke:#181818;stroke-width:0.5;" width="165" x="1147.5" y="120.7988"/><text fill="#000000" font-family="sans-serif" font-size="14" lengthAdjust="spacing" textLength="151" x="1154.5" y="141.334">:CreateTaskController</text><polygon fill="#181818" points="1213,179.5977,1223,183.5977,1213,187.5977,1217,183.5977" style="stroke:#181818;stroke-width:1.0;"/><line style="stroke:#181818;stroke-width:1.0;" x1="794" x2="1219" y1="183.5977" y2="183.5977"/><text fill="#000000" font-family="sans-serif" font-size="13" font-weight="bold" lengthAdjust="spacing" textLength="9" x="801" y="178.8555">3</text><text fill="#000000" font-family="sans-serif" font-size="13" lengthAdjust="spacing" textLength="125" x="814" y="178.8555">getTaskCategories()</text><rect fill="none" height="53.5762" style="stroke:#000000;stroke-width:1.5;" width="171" x="1144.5" y="191.5977"/><path d="M1144.5,191.5977 L1208.5,191.5977 L1208.5,198.5977 L1198.5,208.5977 L1144.5,208.5977 L1144.5,191.5977 " fill="#EEEEEE" style="stroke:#000000;stroke-width:2.0;"/><text fill="#000000" font-family="sans-serif" font-size="13" font-weight="bold" lengthAdjust="spacing" textLength="19" x="1157.5" y="206.166">ref</text><text fill="#000000" font-family="sans-serif" font-size="12" lengthAdjust="spacing" textLength="130" x="1165" y="224.1992">Get Task Category List</text><text fill="#000000" font-family="sans-serif" font-size="12" lengthAdjust="spacing" textLength="4" x="1228" y="238.332"> </text><polygon fill="#181818" points="805,267.4844,795,271.4844,805,275.4844,801,271.4844" style="stroke:#181818;stroke-width:1.0;"/><line style="stroke:#181818;stroke-width:1.0;stroke-dasharray:2.0,2.0;" x1="799" x2="1229" y1="271.4844" y2="271.4844"/><text fill="#000000" font-family="sans-serif" font-size="13" font-weight="bold" lengthAdjust="spacing" textLength="9" x="811" y="266.7422">4</text><text fill="#000000" font-family="sans-serif" font-size="13" lengthAdjust="spacing" textLength="106" x="824" y="266.7422">taskCategoryList</text><polygon fill="#181818" points="104,296.7949,94,300.7949,104,304.7949,100,300.7949" style="stroke:#181818;stroke-width:1.0;"/><line style="stroke:#181818;stroke-width:1.0;stroke-dasharray:2.0,2.0;" x1="98" x2="788" y1="300.7949" y2="300.7949"/><text fill="#000000" font-family="sans-serif" font-size="13" font-weight="bold" lengthAdjust="spacing" textLength="9" x="110" y="296.0527">5</text><text fill="#000000" font-family="sans-serif" font-size="13" lengthAdjust="spacing" textLength="298" x="123" y="296.0527">shows task category list and asks to sleect one</text><polygon fill="#181818" points="772,351.1055,782,355.1055,772,359.1055,776,355.1055" style="stroke:#181818;stroke-width:1.0;"/><line style="stroke:#181818;stroke-width:1.0;" x1="93" x2="778" y1="355.1055" y2="355.1055"/><text fill="#000000" font-family="sans-serif" font-size="13" font-weight="bold" lengthAdjust="spacing" textLength="9" x="100" y="350.3633">6</text><text fill="#000000" font-family="sans-serif" font-size="13" lengthAdjust="spacing" textLength="144" x="113" y="350.3633">selects a task category</text><polygon fill="#181818" points="104,380.416,94,384.416,104,388.416,100,384.416" style="stroke:#181818;stroke-width:1.0;"/><line style="stroke:#181818;stroke-width:1.0;stroke-dasharray:2.0,2.0;" x1="98" x2="788" y1="384.416" y2="384.416"/><text fill="#000000" font-family="sans-serif" font-size="13" font-weight="bold" lengthAdjust="spacing" textLength="9" x="110" y="379.6738">7</text><text fill="#000000" font-family="sans-serif" font-size="13" lengthAdjust="spacing" textLength="85" x="123" y="379.6738">requests data</text><polygon fill="#181818" points="772,434.7266,782,438.7266,772,442.7266,776,438.7266" style="stroke:#181818;stroke-width:1.0;"/><line style="stroke:#181818;stroke-width:1.0;" x1="93" x2="778" y1="438.7266" y2="438.7266"/><text fill="#000000" font-family="sans-serif" font-size="13" font-weight="bold" lengthAdjust="spacing" textLength="9" x="100" y="433.9844">8</text><text fill="#000000" font-family="sans-serif" font-size="13" lengthAdjust="spacing" textLength="659" x="113" y="433.9844">types requested data (reference, designation,  informal description, technical description, duration, cost)</text><polygon fill="#181818" points="104,464.0371,94,468.0371,104,472.0371,100,468.0371" style="stroke:#181818;stroke-width:1.0;"/><line style="stroke:#181818;stroke-width:1.0;stroke-dasharray:2.0,2.0;" x1="98" x2="788" y1="468.0371" y2="468.0371"/><text fill="#000000" font-family="sans-serif" font-size="13" font-weight="bold" lengthAdjust="spacing" textLength="9" x="110" y="463.2949">9</text><text fill="#000000" font-family="sans-serif" font-size="13" lengthAdjust="spacing" textLength="278" x="123" y="463.2949">shows selected category and requested data</text><polygon fill="#181818" points="772,518.3477,782,522.3477,772,526.3477,776,522.3477" style="stroke:#181818;stroke-width:1.0;"/><line style="stroke:#181818;stroke-width:1.0;" x1="93" x2="778" y1="522.3477" y2="522.3477"/><text fill="#000000" font-family="sans-serif" font-size="13" font-weight="bold" lengthAdjust="spacing" textLength="18" x="100" y="517.6055">10</text><text fill="#000000" font-family="sans-serif" font-size="13" lengthAdjust="spacing" textLength="82" x="122" y="517.6055">submits data</text><polygon fill="#181818" points="1213,562.9688,1223,566.9688,1213,570.9688,1217,566.9688" style="stroke:#181818;stroke-width:1.0;"/><line style="stroke:#181818;stroke-width:1.0;" x1="794" x2="1219" y1="566.9688" y2="566.9688"/><text fill="#000000" font-family="sans-serif" font-size="13" font-weight="bold" lengthAdjust="spacing" textLength="18" x="801" y="554.5713">11</text><text fill="#000000" font-family="sans-serif" font-size="13" lengthAdjust="spacing" textLength="350" x="823" y="546.916">createTask(reference, designation, informalDescription,</text><text fill="#000000" font-family="sans-serif" font-size="13" lengthAdjust="spacing" textLength="390" x="823" y="562.2266">technicalDescription,duration, cost, taskCategoryDescription)</text><line style="stroke:#181818;stroke-width:1.0;" x1="1235" x2="1282" y1="591.2793" y2="591.2793"/><line style="stroke:#181818;stroke-width:1.0;" x1="1282" x2="1282" y1="591.2793" y2="604.2793"/><line style="stroke:#181818;stroke-width:1.0;" x1="1241" x2="1282" y1="604.2793" y2="604.2793"/><polygon fill="#181818" points="1251,600.2793,1241,604.2793,1251,608.2793,1247,604.2793" style="stroke:#181818;stroke-width:1.0;"/><text fill="#000000" font-family="sans-serif" font-size="13" font-weight="bold" lengthAdjust="spacing" textLength="18" x="1247" y="586.5371">12</text><text fill="#000000" font-family="sans-serif" font-size="13" lengthAdjust="spacing" textLength="357" x="1269" y="586.5371">getTaskCategoryByDescription(taskCategoryDescription)</text><rect fill="none" height="53.5762" style="stroke:#000000;stroke-width:1.5;" width="171" x="1144.5" y="617.2793"/><path d="M1144.5,617.2793 L1208.5,617.2793 L1208.5,624.2793 L1198.5,634.2793 L1144.5,634.2793 L1144.5,617.2793 " fill="#EEEEEE" style="stroke:#000000;stroke-width:2.0;"/><text fill="#000000" font-family="sans-serif" font-size="13" font-weight="bold" lengthAdjust="spacing" textLength="19" x="1157.5" y="631.8477">ref</text><text fill="#000000" font-family="sans-serif" font-size="12" lengthAdjust="spacing" textLength="149" x="1155.5" y="649.8809">Get Task Category Object</text><text fill="#000000" font-family="sans-serif" font-size="12" lengthAdjust="spacing" textLength="4" x="1228" y="664.0137"> </text><line style="stroke:#181818;stroke-width:1.0;stroke-dasharray:2.0,2.0;" x1="1240" x2="1282" y1="702.166" y2="702.166"/><line style="stroke:#181818;stroke-width:1.0;stroke-dasharray:2.0,2.0;" x1="1282" x2="1282" y1="702.166" y2="715.166"/><line style="stroke:#181818;stroke-width:1.0;stroke-dasharray:2.0,2.0;" x1="1235" x2="1282" y1="715.166" y2="715.166"/><polygon fill="#181818" points="1245,711.166,1235,715.166,1245,719.166,1241,715.166" style="stroke:#181818;stroke-width:1.0;"/><text fill="#000000" font-family="sans-serif" font-size="13" font-weight="bold" lengthAdjust="spacing" textLength="18" x="1247" y="697.4238">13</text><text fill="#000000" font-family="sans-serif" font-size="13" lengthAdjust="spacing" textLength="83" x="1269" y="697.4238">taskCategory</text><line style="stroke:#181818;stroke-width:1.0;" x1="1235" x2="1282" y1="759.4766" y2="759.4766"/><line style="stroke:#181818;stroke-width:1.0;" x1="1282" x2="1282" y1="759.4766" y2="772.4766"/><line style="stroke:#181818;stroke-width:1.0;" x1="1241" x2="1282" y1="772.4766" y2="772.4766"/><polygon fill="#181818" points="1251,768.4766,1241,772.4766,1251,776.4766,1247,772.4766" style="stroke:#181818;stroke-width:1.0;"/><text fill="#000000" font-family="sans-serif" font-size="13" font-weight="bold" lengthAdjust="spacing" textLength="18" x="1247" y="754.7344">14</text><text fill="#000000" font-family="sans-serif" font-size="13" lengthAdjust="spacing" textLength="168" x="1269" y="754.7344">getEmployeeFromSession()</text><rect fill="none" height="53.5762" style="stroke:#000000;stroke-width:1.5;" width="171" x="1144.5" y="785.4766"/><path d="M1144.5,785.4766 L1208.5,785.4766 L1208.5,792.4766 L1198.5,802.4766 L1144.5,802.4766 L1144.5,785.4766 " fill="#EEEEEE" style="stroke:#000000;stroke-width:2.0;"/><text fill="#000000" font-family="sans-serif" font-size="13" font-weight="bold" lengthAdjust="spacing" textLength="19" x="1157.5" y="800.0449">ref</text><text fill="#000000" font-family="sans-serif" font-size="12" lengthAdjust="spacing" textLength="80" x="1190" y="818.0781">Get Employee</text><text fill="#000000" font-family="sans-serif" font-size="12" lengthAdjust="spacing" textLength="4" x="1228" y="832.2109"> </text><line style="stroke:#181818;stroke-width:1.0;" x1="1240" x2="1282" y1="870.3633" y2="870.3633"/><line style="stroke:#181818;stroke-width:1.0;" x1="1282" x2="1282" y1="870.3633" y2="883.3633"/><line style="stroke:#181818;stroke-width:1.0;" x1="1235" x2="1282" y1="883.3633" y2="883.3633"/><polygon fill="#181818" points="1245,879.3633,1235,883.3633,1245,887.3633,1241,883.3633" style="stroke:#181818;stroke-width:1.0;"/><text fill="#000000" font-family="sans-serif" font-size="13" font-weight="bold" lengthAdjust="spacing" textLength="18" x="1247" y="865.6211">15</text><text fill="#000000" font-family="sans-serif" font-size="13" lengthAdjust="spacing" textLength="60" x="1269" y="865.6211">employee</text><polygon fill="#181818" points="1653,943.9844,1663,947.9844,1653,951.9844,1657,947.9844" style="stroke:#181818;stroke-width:1.0;"/><line style="stroke:#181818;stroke-width:1.0;" x1="1235" x2="1659" y1="947.9844" y2="947.9844"/><text fill="#000000" font-family="sans-serif" font-size="13" font-weight="bold" lengthAdjust="spacing" textLength="18" x="1242" y="935.5869">16</text><text fill="#000000" font-family="sans-serif" font-size="13" lengthAdjust="spacing" textLength="350" x="1264" y="927.9316">createTask(reference, designation, informalDescription,</text><text fill="#000000" font-family="sans-serif" font-size="13" lengthAdjust="spacing" textLength="389" x="1264" y="943.2422">technicalDescription, duration, cost, employee, taskCategory)</text><rect fill="none" height="53.5762" style="stroke:#000000;stroke-width:1.5;" width="114" x="1613" y="955.9844"/><path d="M1613,955.9844 L1677,955.9844 L1677,962.9844 L1667,972.9844 L1613,972.9844 L1613,955.9844 " fill="#EEEEEE" style="stroke:#000000;stroke-width:2.0;"/><text fill="#000000" font-family="sans-serif" font-size="13" font-weight="bold" lengthAdjust="spacing" textLength="19" x="1626" y="970.5527">ref</text><text fill="#000000" font-family="sans-serif" font-size="12" lengthAdjust="spacing" textLength="70" x="1635" y="988.5859">Create Task</text><text fill="#000000" font-family="sans-serif" font-size="12" lengthAdjust="spacing" textLength="4" x="1668" y="1002.7188"> </text><polygon fill="#181818" points="1246,1031.8711,1236,1035.8711,1246,1039.8711,1242,1035.8711" style="stroke:#181818;stroke-width:1.0;"/><line style="stroke:#181818;stroke-width:1.0;stroke-dasharray:2.0,2.0;" x1="1240" x2="1669" y1="1035.8711" y2="1035.8711"/><text fill="#000000" font-family="sans-serif" font-size="13" font-weight="bold" lengthAdjust="spacing" textLength="18" x="1252" y="1031.1289">17</text><text fill="#000000" font-family="sans-serif" font-size="13" lengthAdjust="spacing" textLength="27" x="1274" y="1031.1289">task</text><polygon fill="#181818" points="805,1061.1816,795,1065.1816,805,1069.1816,801,1065.1816" style="stroke:#181818;stroke-width:1.0;"/><line style="stroke:#181818;stroke-width:1.0;stroke-dasharray:2.0,2.0;" x1="799" x2="1229" y1="1065.1816" y2="1065.1816"/><text fill="#000000" font-family="sans-serif" font-size="13" font-weight="bold" lengthAdjust="spacing" textLength="18" x="811" y="1060.4395">18</text><text fill="#000000" font-family="sans-serif" font-size="13" lengthAdjust="spacing" textLength="27" x="833" y="1060.4395">task</text><polygon fill="#181818" points="99,1090.4922,89,1094.4922,99,1098.4922,95,1094.4922" style="stroke:#181818;stroke-width:1.0;"/><line style="stroke:#181818;stroke-width:1.0;stroke-dasharray:2.0,2.0;" x1="93" x2="788" y1="1094.4922" y2="1094.4922"/><text fill="#000000" font-family="sans-serif" font-size="13" font-weight="bold" lengthAdjust="spacing" textLength="18" x="105" y="1089.75">19</text><text fill="#000000" font-family="sans-serif" font-size="13" lengthAdjust="spacing" textLength="170" x="127" y="1089.75">displays operation success</text><!--SRC=[jLLDRzim3BthLn2vB2dIFv33W2tjYW8T0lJZreiYCuuQM_8akPc7_FZHSkp8YPLbsEfJGfEFZq-Fbjr8LN33SyYrqc9jT8xWJ8dCTcyABZOynITNPGW6XUCgpS84k-Q9tagLmefd5XdZfTEgp9Te6FkqbWd2Icktr3yP5quR62rCofNynPtK2cxp8jCLuWYuXIyttncXEYbamPM3qMnka3jyvdRpSkzJNkwZ6NEjdD5PXiPdpfyV7_gvEcZygcOX3r-nUBnZDKdvJeYU3EmV-WtNdwavp2XnOy5f4BunS52u1KTHrgLt6CIs2zOF0H1CpUpgYg0QY4W6lK_H-S4eATL6eXrFUia6Lw3VqJIpmj5pXmxgSjZNL_0WhUiJGfNKAFrWHz_3dk1wSjUj7Ev0iFBuOMg2Px3gKGcbrdP6Dj9Rwy50j7GpWWDE35l9RORaGD3ge5dGuI3sRhTZnyTcCQDQI-VLQyAYvzMZP_17YPRA4-uuYpGUQkkg0crRZeclXp59ZWQLm2dXM9agRy8fW5GhRNAUrM5XPD647Ograk8ud9HcNoUqTPCBHscKRkGWGftQt5iXvFatSzfocSjGdoYHpjsYszoe7gqSDy7OhwgJ8mptnPZsV1daJTW5BcyS7bd3wck8D_vZdmiswlmU3-_oOlb61tYADRZHlRNTJnKIltnfsxEFIzL-qR_HTVA4rjOYVO0QRPku0iC2T5In1VZdsUdU-DzkXcCxjspxnexewY-ogAprso5LcvlKssnGrDCW8HqxAgRc2QNW5ZbVUUA2mzTi1ecqHSOh2xh0HZ3w4Wb1jXlwU0L_wzlzDm00]--></g></svg>