<?xml version="1.0" encoding="UTF-8" standalone="no"?><svg xmlns="http://www.w3.org/2000/svg" xmlns:xlink="http://www.w3.org/1999/xlink" contentStyleType="text/css" height="1340px" preserveAspectRatio="none" style="width:695px;height:1340px;background:#FFFFFF;" version="1.1" viewBox="0 0 695 1340" width="695px" zoomAndPan="magnify"><defs/><g><rect fill="none" height="27.6094" id="_title" style="stroke:none;stroke-width:1.0;" width="238" x="230.25" y="10"/><text fill="#000000" font-family="sans-serif" font-size="14" font-weight="bold" lengthAdjust="spacing" textLength="228" x="235.25" y="29.5332">System Sequence Diagram (SSD)</text><rect fill="#FFFFFF" height="1109.0078" style="stroke:#181818;stroke-width:1.0;" width="10" x="42.5" y="131.2188"/><rect fill="#FFFFFF" height="30.3516" style="stroke:#181818;stroke-width:1.0;" width="10" x="632.5" y="153.5703"/><rect fill="#FFFFFF" height="30.3516" style="stroke:#181818;stroke-width:1.0;" width="10" x="632.5" y="214.2734"/><rect fill="#FFFFFF" height="30.3516" style="stroke:#181818;stroke-width:1.0;" width="10" x="632.5" y="274.9766"/><rect fill="#FFFFFF" height="30.3516" style="stroke:#181818;stroke-width:1.0;" width="10" x="632.5" y="335.6797"/><rect fill="#FFFFFF" height="30.3516" style="stroke:#181818;stroke-width:1.0;" width="10" x="632.5" y="396.3828"/><rect fill="#FFFFFF" height="30.3516" style="stroke:#181818;stroke-width:1.0;" width="10" x="632.5" y="457.0859"/><rect fill="#FFFFFF" height="55.7031" style="stroke:#181818;stroke-width:1.0;" width="10" x="632.5" y="517.7891"/><rect fill="#FFFFFF" height="55.7031" style="stroke:#181818;stroke-width:1.0;" width="10" x="632.5" y="620.1953"/><rect fill="#FFFFFF" height="30.3516" style="stroke:#181818;stroke-width:1.0;" width="10" x="632.5" y="706.25"/><rect fill="#FFFFFF" height="30.3516" style="stroke:#181818;stroke-width:1.0;" width="10" x="632.5" y="766.9531"/><rect fill="#FFFFFF" height="44.3516" style="stroke:#181818;stroke-width:1.0;" width="10" x="632.5" y="827.6563"/><rect fill="#FFFFFF" height="37.3516" style="stroke:#181818;stroke-width:1.0;" width="10" x="632.5" y="927.7109"/><rect fill="#FFFFFF" height="30.3516" style="stroke:#181818;stroke-width:1.0;" width="10" x="632.5" y="995.4141"/><rect fill="#FFFFFF" height="55.7031" style="stroke:#181818;stroke-width:1.0;" width="10" x="632.5" y="1056.1172"/><rect fill="#FFFFFF" height="37.3516" style="stroke:#181818;stroke-width:1.0;" width="10" x="632.5" y="1142.1719"/><rect fill="#FFFFFF" height="30.3516" style="stroke:#181818;stroke-width:1.0;" width="10" x="632.5" y="1209.875"/><rect fill="none" height="309.8672" style="stroke:#000000;stroke-width:1.5;" width="679.5" x="10" y="532.7891"/><rect fill="none" height="200.4609" style="stroke:#000000;stroke-width:1.5;" width="659.5" x="20" y="635.1953"/><rect fill="none" height="48.7031" style="stroke:#000000;stroke-width:1.5;" width="659.5" x="20" y="887.0078"/><rect fill="none" height="79.0547" style="stroke:#000000;stroke-width:1.5;" width="659.5" x="20" y="1071.1172"/><line style="stroke:#181818;stroke-width:0.5;stroke-dasharray:5.0,5.0;" x1="47" x2="47" y1="121.2188" y2="1258.2266"/><line style="stroke:#181818;stroke-width:0.5;stroke-dasharray:5.0,5.0;" x1="637.5" x2="637.5" y1="121.2188" y2="1258.2266"/><text fill="#000000" font-family="sans-serif" font-size="14" lengthAdjust="spacing" textLength="29" x="30" y="118.1426">User</text><ellipse cx="47.5" cy="52.1094" fill="#E3E3E3" rx="8" ry="8" style="stroke:#181818;stroke-width:0.5;"/><path d="M47.5,60.1094 L47.5,87.1094 M34.5,68.1094 L60.5,68.1094 M47.5,87.1094 L34.5,102.1094 M47.5,87.1094 L60.5,102.1094 " fill="none" style="stroke:#181818;stroke-width:0.5;"/><text fill="#000000" font-family="sans-serif" font-size="14" lengthAdjust="spacing" textLength="29" x="30" y="1271.7598">User</text><ellipse cx="47.5" cy="1283.3359" fill="#E3E3E3" rx="8" ry="8" style="stroke:#181818;stroke-width:0.5;"/><path d="M47.5,1291.3359 L47.5,1318.3359 M34.5,1299.3359 L60.5,1299.3359 M47.5,1318.3359 L34.5,1333.3359 M47.5,1318.3359 L60.5,1333.3359 " fill="none" style="stroke:#181818;stroke-width:0.5;"/><rect fill="#E3E3E3" height="31.6094" rx="2.5" ry="2.5" style="stroke:#181818;stroke-width:0.5;" width="64" x="605.5" y="88.6094"/><text fill="#000000" font-family="sans-serif" font-size="14" lengthAdjust="spacing" textLength="50" x="612.5" y="110.1426">:System</text><rect fill="#E3E3E3" height="31.6094" rx="2.5" ry="2.5" style="stroke:#181818;stroke-width:0.5;" width="64" x="605.5" y="1257.2266"/><text fill="#000000" font-family="sans-serif" font-size="14" lengthAdjust="spacing" textLength="50" x="612.5" y="1278.7598">:System</text><rect fill="#FFFFFF" height="1109.0078" style="stroke:#181818;stroke-width:1.0;" width="10" x="42.5" y="131.2188"/><rect fill="#FFFFFF" height="30.3516" style="stroke:#181818;stroke-width:1.0;" width="10" x="632.5" y="153.5703"/><rect fill="#FFFFFF" height="30.3516" style="stroke:#181818;stroke-width:1.0;" width="10" x="632.5" y="214.2734"/><rect fill="#FFFFFF" height="30.3516" style="stroke:#181818;stroke-width:1.0;" width="10" x="632.5" y="274.9766"/><rect fill="#FFFFFF" height="30.3516" style="stroke:#181818;stroke-width:1.0;" width="10" x="632.5" y="335.6797"/><rect fill="#FFFFFF" height="30.3516" style="stroke:#181818;stroke-width:1.0;" width="10" x="632.5" y="396.3828"/><rect fill="#FFFFFF" height="30.3516" style="stroke:#181818;stroke-width:1.0;" width="10" x="632.5" y="457.0859"/><rect fill="#FFFFFF" height="55.7031" style="stroke:#181818;stroke-width:1.0;" width="10" x="632.5" y="517.7891"/><rect fill="#FFFFFF" height="55.7031" style="stroke:#181818;stroke-width:1.0;" width="10" x="632.5" y="620.1953"/><rect fill="#FFFFFF" height="30.3516" style="stroke:#181818;stroke-width:1.0;" width="10" x="632.5" y="706.25"/><rect fill="#FFFFFF" height="30.3516" style="stroke:#181818;stroke-width:1.0;" width="10" x="632.5" y="766.9531"/><rect fill="#FFFFFF" height="44.3516" style="stroke:#181818;stroke-width:1.0;" width="10" x="632.5" y="827.6563"/><rect fill="#FFFFFF" height="37.3516" style="stroke:#181818;stroke-width:1.0;" width="10" x="632.5" y="927.7109"/><rect fill="#FFFFFF" height="30.3516" style="stroke:#181818;stroke-width:1.0;" width="10" x="632.5" y="995.4141"/><rect fill="#FFFFFF" height="55.7031" style="stroke:#181818;stroke-width:1.0;" width="10" x="632.5" y="1056.1172"/><rect fill="#FFFFFF" height="37.3516" style="stroke:#181818;stroke-width:1.0;" width="10" x="632.5" y="1142.1719"/><rect fill="#FFFFFF" height="30.3516" style="stroke:#181818;stroke-width:1.0;" width="10" x="632.5" y="1209.875"/><polygon fill="#181818" points="620.5,149.5703,630.5,153.5703,620.5,157.5703,624.5,153.5703" style="stroke:#181818;stroke-width:1.0;"/><line style="stroke:#181818;stroke-width:1.0;" x1="52.5" x2="626.5" y1="153.5703" y2="153.5703"/><text fill="#000000" font-family="sans-serif" font-size="13" font-weight="bold" lengthAdjust="spacing" textLength="7" x="59.5" y="148.7139">1</text><text fill="#000000" font-family="sans-serif" font-size="13" lengthAdjust="spacing" textLength="296" x="70.5" y="148.7139">asks to create a new request for an owned property</text><polygon fill="#181818" points="63.5,179.9219,53.5,183.9219,63.5,187.9219,59.5,183.9219" style="stroke:#181818;stroke-width:1.0;"/><line style="stroke:#181818;stroke-width:1.0;stroke-dasharray:2.0,2.0;" x1="57.5" x2="636.5" y1="183.9219" y2="183.9219"/><text fill="#000000" font-family="sans-serif" font-size="13" font-weight="bold" lengthAdjust="spacing" textLength="7" x="69.5" y="179.0654">2</text><text fill="#000000" font-family="sans-serif" font-size="13" lengthAdjust="spacing" textLength="303" x="80.5" y="179.0654">gives a list of possible agents and asks for the agent</text><polygon fill="#181818" points="620.5,210.2734,630.5,214.2734,620.5,218.2734,624.5,214.2734" style="stroke:#181818;stroke-width:1.0;"/><line style="stroke:#181818;stroke-width:1.0;" x1="52.5" x2="626.5" y1="214.2734" y2="214.2734"/><text fill="#000000" font-family="sans-serif" font-size="13" font-weight="bold" lengthAdjust="spacing" textLength="7" x="59.5" y="209.417">3</text><text fill="#000000" font-family="sans-serif" font-size="13" lengthAdjust="spacing" textLength="177" x="70.5" y="209.417">chooses the responsible agent</text><polygon fill="#181818" points="63.5,240.625,53.5,244.625,63.5,248.625,59.5,244.625" style="stroke:#181818;stroke-width:1.0;"/><line style="stroke:#181818;stroke-width:1.0;stroke-dasharray:2.0,2.0;" x1="57.5" x2="636.5" y1="244.625" y2="244.625"/><text fill="#000000" font-family="sans-serif" font-size="13" font-weight="bold" lengthAdjust="spacing" textLength="7" x="69.5" y="239.7686">4</text><text fill="#000000" font-family="sans-serif" font-size="13" lengthAdjust="spacing" textLength="346" x="80.5" y="239.7686">shows list of types of property and asks the type of property</text><polygon fill="#181818" points="620.5,270.9766,630.5,274.9766,620.5,278.9766,624.5,274.9766" style="stroke:#181818;stroke-width:1.0;"/><line style="stroke:#181818;stroke-width:1.0;" x1="52.5" x2="626.5" y1="274.9766" y2="274.9766"/><text fill="#000000" font-family="sans-serif" font-size="13" font-weight="bold" lengthAdjust="spacing" textLength="7" x="59.5" y="270.1201">5</text><text fill="#000000" font-family="sans-serif" font-size="13" lengthAdjust="spacing" textLength="158" x="70.5" y="270.1201">selects the type of property</text><polygon fill="#181818" points="63.5,301.3281,53.5,305.3281,63.5,309.3281,59.5,305.3281" style="stroke:#181818;stroke-width:1.0;"/><line style="stroke:#181818;stroke-width:1.0;stroke-dasharray:2.0,2.0;" x1="57.5" x2="636.5" y1="305.3281" y2="305.3281"/><text fill="#000000" font-family="sans-serif" font-size="13" font-weight="bold" lengthAdjust="spacing" textLength="7" x="69.5" y="300.4717">6</text><text fill="#000000" font-family="sans-serif" font-size="13" lengthAdjust="spacing" textLength="126" x="80.5" y="300.4717">asks for property data</text><polygon fill="#181818" points="620.5,331.6797,630.5,335.6797,620.5,339.6797,624.5,335.6797" style="stroke:#181818;stroke-width:1.0;"/><line style="stroke:#181818;stroke-width:1.0;" x1="52.5" x2="626.5" y1="335.6797" y2="335.6797"/><text fill="#000000" font-family="sans-serif" font-size="13" font-weight="bold" lengthAdjust="spacing" textLength="7" x="59.5" y="330.8232">7</text><text fill="#000000" font-family="sans-serif" font-size="13" lengthAdjust="spacing" textLength="492" x="70.5" y="330.8232">types the requested data [area in m^2, street, zip code and distance from city center]</text><polygon fill="#181818" points="63.5,362.0313,53.5,366.0313,63.5,370.0313,59.5,366.0313" style="stroke:#181818;stroke-width:1.0;"/><line style="stroke:#181818;stroke-width:1.0;stroke-dasharray:2.0,2.0;" x1="57.5" x2="636.5" y1="366.0313" y2="366.0313"/><text fill="#000000" font-family="sans-serif" font-size="13" font-weight="bold" lengthAdjust="spacing" textLength="7" x="69.5" y="361.1748">8</text><text fill="#000000" font-family="sans-serif" font-size="13" lengthAdjust="spacing" textLength="248" x="80.5" y="361.1748">shows list of states and asks to select one</text><polygon fill="#181818" points="620.5,392.3828,630.5,396.3828,620.5,400.3828,624.5,396.3828" style="stroke:#181818;stroke-width:1.0;"/><line style="stroke:#181818;stroke-width:1.0;" x1="52.5" x2="626.5" y1="396.3828" y2="396.3828"/><text fill="#000000" font-family="sans-serif" font-size="13" font-weight="bold" lengthAdjust="spacing" textLength="7" x="59.5" y="391.5264">9</text><text fill="#000000" font-family="sans-serif" font-size="13" lengthAdjust="spacing" textLength="75" x="70.5" y="391.5264">selects state</text><polygon fill="#181818" points="63.5,422.7344,53.5,426.7344,63.5,430.7344,59.5,426.7344" style="stroke:#181818;stroke-width:1.0;"/><line style="stroke:#181818;stroke-width:1.0;stroke-dasharray:2.0,2.0;" x1="57.5" x2="636.5" y1="426.7344" y2="426.7344"/><text fill="#000000" font-family="sans-serif" font-size="13" font-weight="bold" lengthAdjust="spacing" textLength="14" x="69.5" y="421.8779">10</text><text fill="#000000" font-family="sans-serif" font-size="13" lengthAdjust="spacing" textLength="258" x="87.5" y="421.8779">shows list of districts and asks to select one</text><polygon fill="#181818" points="620.5,453.0859,630.5,457.0859,620.5,461.0859,624.5,457.0859" style="stroke:#181818;stroke-width:1.0;"/><line style="stroke:#181818;stroke-width:1.0;" x1="52.5" x2="626.5" y1="457.0859" y2="457.0859"/><text fill="#000000" font-family="sans-serif" font-size="13" font-weight="bold" lengthAdjust="spacing" textLength="14" x="59.5" y="452.2295">11</text><text fill="#000000" font-family="sans-serif" font-size="13" lengthAdjust="spacing" textLength="85" x="77.5" y="452.2295">selects district</text><polygon fill="#181818" points="63.5,483.4375,53.5,487.4375,63.5,491.4375,59.5,487.4375" style="stroke:#181818;stroke-width:1.0;"/><line style="stroke:#181818;stroke-width:1.0;stroke-dasharray:2.0,2.0;" x1="57.5" x2="636.5" y1="487.4375" y2="487.4375"/><text fill="#000000" font-family="sans-serif" font-size="13" font-weight="bold" lengthAdjust="spacing" textLength="14" x="69.5" y="482.5811">12</text><text fill="#000000" font-family="sans-serif" font-size="13" lengthAdjust="spacing" textLength="243" x="87.5" y="482.5811">shows list of cities and asks to select one</text><polygon fill="#181818" points="620.5,513.7891,630.5,517.7891,620.5,521.7891,624.5,517.7891" style="stroke:#181818;stroke-width:1.0;"/><line style="stroke:#181818;stroke-width:1.0;" x1="52.5" x2="626.5" y1="517.7891" y2="517.7891"/><text fill="#000000" font-family="sans-serif" font-size="13" font-weight="bold" lengthAdjust="spacing" textLength="14" x="59.5" y="512.9326">13</text><text fill="#000000" font-family="sans-serif" font-size="13" lengthAdjust="spacing" textLength="67" x="77.5" y="512.9326">selects city</text><path d="M10,532.7891 L75,532.7891 L75,541.1406 L65,551.1406 L10,551.1406 L10,532.7891 " fill="#EEEEEE" style="stroke:#000000;stroke-width:1.5;"/><rect fill="none" height="309.8672" style="stroke:#000000;stroke-width:1.5;" width="679.5" x="10" y="532.7891"/><text fill="#000000" font-family="sans-serif" font-size="13" font-weight="bold" lengthAdjust="spacing" textLength="20" x="25" y="547.2842">opt</text><text fill="#000000" font-family="sans-serif" font-size="11" font-weight="bold" lengthAdjust="spacing" textLength="106" x="90" y="546.208">[house, apartment]</text><polygon fill="#181818" points="63.5,569.4922,53.5,573.4922,63.5,577.4922,59.5,573.4922" style="stroke:#181818;stroke-width:1.0;"/><line style="stroke:#181818;stroke-width:1.0;stroke-dasharray:2.0,2.0;" x1="57.5" x2="636.5" y1="573.4922" y2="573.4922"/><text fill="#000000" font-family="sans-serif" font-size="13" font-weight="bold" lengthAdjust="spacing" textLength="14" x="69.5" y="568.6357">14</text><text fill="#000000" font-family="sans-serif" font-size="13" lengthAdjust="spacing" textLength="176" x="87.5" y="568.6357">asks for house/apartment data</text><polygon fill="#181818" points="620.5,616.1953,630.5,620.1953,620.5,624.1953,624.5,620.1953" style="stroke:#181818;stroke-width:1.0;"/><line style="stroke:#181818;stroke-width:1.0;" x1="52.5" x2="626.5" y1="620.1953" y2="620.1953"/><text fill="#000000" font-family="sans-serif" font-size="13" font-weight="bold" lengthAdjust="spacing" textLength="14" x="59.5" y="607.1631">15</text><text fill="#000000" font-family="sans-serif" font-size="13" lengthAdjust="spacing" textLength="539" x="77.5" y="598.9873">types requested data [number of bedrooms, number of bathrooms, number of parking spaces,</text><text fill="#000000" font-family="sans-serif" font-size="13" lengthAdjust="spacing" textLength="352" x="77.5" y="615.3389">available eqsyspment (central heating and/or airconditioning)]</text><path d="M20,635.1953 L85,635.1953 L85,643.5469 L75,653.5469 L20,653.5469 L20,635.1953 " fill="#EEEEEE" style="stroke:#000000;stroke-width:1.5;"/><rect fill="none" height="200.4609" style="stroke:#000000;stroke-width:1.5;" width="659.5" x="20" y="635.1953"/><text fill="#000000" font-family="sans-serif" font-size="13" font-weight="bold" lengthAdjust="spacing" textLength="20" x="35" y="649.6904">opt</text><text fill="#000000" font-family="sans-serif" font-size="11" font-weight="bold" lengthAdjust="spacing" textLength="43" x="100" y="648.6143">[house]</text><polygon fill="#181818" points="63.5,671.8984,53.5,675.8984,63.5,679.8984,59.5,675.8984" style="stroke:#181818;stroke-width:1.0;"/><line style="stroke:#181818;stroke-width:1.0;stroke-dasharray:2.0,2.0;" x1="57.5" x2="636.5" y1="675.8984" y2="675.8984"/><text fill="#000000" font-family="sans-serif" font-size="13" font-weight="bold" lengthAdjust="spacing" textLength="14" x="69.5" y="671.042">16</text><text fill="#000000" font-family="sans-serif" font-size="13" lengthAdjust="spacing" textLength="214" x="87.5" y="671.042">asks for the existence of a basement</text><polygon fill="#181818" points="620.5,702.25,630.5,706.25,620.5,710.25,624.5,706.25" style="stroke:#181818;stroke-width:1.0;"/><line style="stroke:#181818;stroke-width:1.0;" x1="52.5" x2="626.5" y1="706.25" y2="706.25"/><text fill="#000000" font-family="sans-serif" font-size="13" font-weight="bold" lengthAdjust="spacing" textLength="14" x="59.5" y="701.3936">17</text><text fill="#000000" font-family="sans-serif" font-size="13" lengthAdjust="spacing" textLength="286" x="77.5" y="701.3936">selects yes or no for the existence of a basement</text><polygon fill="#181818" points="63.5,732.6016,53.5,736.6016,63.5,740.6016,59.5,736.6016" style="stroke:#181818;stroke-width:1.0;"/><line style="stroke:#181818;stroke-width:1.0;stroke-dasharray:2.0,2.0;" x1="57.5" x2="636.5" y1="736.6016" y2="736.6016"/><text fill="#000000" font-family="sans-serif" font-size="13" font-weight="bold" lengthAdjust="spacing" textLength="14" x="69.5" y="731.7451">18</text><text fill="#000000" font-family="sans-serif" font-size="13" lengthAdjust="spacing" textLength="174" x="87.5" y="731.7451">asks for the existence of a loft</text><polygon fill="#181818" points="620.5,762.9531,630.5,766.9531,620.5,770.9531,624.5,766.9531" style="stroke:#181818;stroke-width:1.0;"/><line style="stroke:#181818;stroke-width:1.0;" x1="52.5" x2="626.5" y1="766.9531" y2="766.9531"/><text fill="#000000" font-family="sans-serif" font-size="13" font-weight="bold" lengthAdjust="spacing" textLength="14" x="59.5" y="762.0967">19</text><text fill="#000000" font-family="sans-serif" font-size="13" lengthAdjust="spacing" textLength="246" x="77.5" y="762.0967">selects yes or no for the existence of a loft</text><polygon fill="#181818" points="63.5,793.3047,53.5,797.3047,63.5,801.3047,59.5,797.3047" style="stroke:#181818;stroke-width:1.0;"/><line style="stroke:#181818;stroke-width:1.0;stroke-dasharray:2.0,2.0;" x1="57.5" x2="636.5" y1="797.3047" y2="797.3047"/><text fill="#000000" font-family="sans-serif" font-size="13" font-weight="bold" lengthAdjust="spacing" textLength="14" x="69.5" y="792.4482">20</text><text fill="#000000" font-family="sans-serif" font-size="13" lengthAdjust="spacing" textLength="239" x="87.5" y="792.4482">asks for the direction of the sun exposure</text><polygon fill="#181818" points="620.5,823.6563,630.5,827.6563,620.5,831.6563,624.5,827.6563" style="stroke:#181818;stroke-width:1.0;"/><line style="stroke:#181818;stroke-width:1.0;" x1="52.5" x2="626.5" y1="827.6563" y2="827.6563"/><text fill="#000000" font-family="sans-serif" font-size="13" font-weight="bold" lengthAdjust="spacing" textLength="14" x="59.5" y="822.7998">21</text><text fill="#000000" font-family="sans-serif" font-size="13" lengthAdjust="spacing" textLength="384" x="77.5" y="822.7998">selects the direction of the sun exposure [north, south, east, west]</text><polygon fill="#181818" points="63.5,868.0078,53.5,872.0078,63.5,876.0078,59.5,872.0078" style="stroke:#181818;stroke-width:1.0;"/><line style="stroke:#181818;stroke-width:1.0;stroke-dasharray:2.0,2.0;" x1="57.5" x2="636.5" y1="872.0078" y2="872.0078"/><text fill="#000000" font-family="sans-serif" font-size="13" font-weight="bold" lengthAdjust="spacing" textLength="14" x="69.5" y="867.1514">22</text><text fill="#000000" font-family="sans-serif" font-size="13" lengthAdjust="spacing" textLength="176" x="87.5" y="867.1514">asks for photos of the property</text><path d="M20,887.0078 L93,887.0078 L93,895.3594 L83,905.3594 L20,905.3594 L20,887.0078 " fill="#EEEEEE" style="stroke:#000000;stroke-width:1.5;"/><rect fill="none" height="48.7031" style="stroke:#000000;stroke-width:1.5;" width="659.5" x="20" y="887.0078"/><text fill="#000000" font-family="sans-serif" font-size="13" font-weight="bold" lengthAdjust="spacing" textLength="28" x="35" y="901.5029">loop</text><text fill="#000000" font-family="sans-serif" font-size="11" font-weight="bold" lengthAdjust="spacing" textLength="279" x="108" y="900.4268">[Sends URI's one by one (from 1 up to 30 pictures)]</text><polygon fill="#181818" points="620.5,923.7109,630.5,927.7109,620.5,931.7109,624.5,927.7109" style="stroke:#181818;stroke-width:1.0;"/><line style="stroke:#181818;stroke-width:1.0;" x1="52.5" x2="626.5" y1="927.7109" y2="927.7109"/><text fill="#000000" font-family="sans-serif" font-size="13" font-weight="bold" lengthAdjust="spacing" textLength="14" x="59.5" y="922.8545">23</text><text fill="#000000" font-family="sans-serif" font-size="13" lengthAdjust="spacing" textLength="147" x="77.5" y="922.8545">sends URI of the property</text><polygon fill="#181818" points="63.5,961.0625,53.5,965.0625,63.5,969.0625,59.5,965.0625" style="stroke:#181818;stroke-width:1.0;"/><line style="stroke:#181818;stroke-width:1.0;stroke-dasharray:2.0,2.0;" x1="57.5" x2="636.5" y1="965.0625" y2="965.0625"/><text fill="#000000" font-family="sans-serif" font-size="13" font-weight="bold" lengthAdjust="spacing" textLength="14" x="69.5" y="960.2061">24</text><text fill="#000000" font-family="sans-serif" font-size="13" lengthAdjust="spacing" textLength="167" x="87.5" y="960.2061">asks for the type of business</text><polygon fill="#181818" points="620.5,991.4141,630.5,995.4141,620.5,999.4141,624.5,995.4141" style="stroke:#181818;stroke-width:1.0;"/><line style="stroke:#181818;stroke-width:1.0;" x1="52.5" x2="626.5" y1="995.4141" y2="995.4141"/><text fill="#000000" font-family="sans-serif" font-size="13" font-weight="bold" lengthAdjust="spacing" textLength="14" x="59.5" y="990.5576">25</text><text fill="#000000" font-family="sans-serif" font-size="13" lengthAdjust="spacing" textLength="163" x="77.5" y="990.5576">selects the type of business</text><polygon fill="#181818" points="63.5,1021.7656,53.5,1025.7656,63.5,1029.7656,59.5,1025.7656" style="stroke:#181818;stroke-width:1.0;"/><line style="stroke:#181818;stroke-width:1.0;stroke-dasharray:2.0,2.0;" x1="57.5" x2="636.5" y1="1025.7656" y2="1025.7656"/><text fill="#000000" font-family="sans-serif" font-size="13" font-weight="bold" lengthAdjust="spacing" textLength="14" x="69.5" y="1020.9092">26</text><text fill="#000000" font-family="sans-serif" font-size="13" lengthAdjust="spacing" textLength="121" x="87.5" y="1020.9092">asks for needed data</text><polygon fill="#181818" points="620.5,1052.1172,630.5,1056.1172,620.5,1060.1172,624.5,1056.1172" style="stroke:#181818;stroke-width:1.0;"/><line style="stroke:#181818;stroke-width:1.0;" x1="52.5" x2="626.5" y1="1056.1172" y2="1056.1172"/><text fill="#000000" font-family="sans-serif" font-size="13" font-weight="bold" lengthAdjust="spacing" textLength="14" x="59.5" y="1051.2607">27</text><text fill="#000000" font-family="sans-serif" font-size="13" lengthAdjust="spacing" textLength="250" x="77.5" y="1051.2607">types the requested data [Requested price]</text><path d="M20,1071.1172 L85,1071.1172 L85,1079.4688 L75,1089.4688 L20,1089.4688 L20,1071.1172 " fill="#EEEEEE" style="stroke:#000000;stroke-width:1.5;"/><rect fill="none" height="79.0547" style="stroke:#000000;stroke-width:1.5;" width="659.5" x="20" y="1071.1172"/><text fill="#000000" font-family="sans-serif" font-size="13" font-weight="bold" lengthAdjust="spacing" textLength="20" x="35" y="1085.6123">opt</text><text fill="#000000" font-family="sans-serif" font-size="11" font-weight="bold" lengthAdjust="spacing" textLength="31" x="100" y="1084.5361">[rent]</text><polygon fill="#181818" points="63.5,1107.8203,53.5,1111.8203,63.5,1115.8203,59.5,1111.8203" style="stroke:#181818;stroke-width:1.0;"/><line style="stroke:#181818;stroke-width:1.0;stroke-dasharray:2.0,2.0;" x1="57.5" x2="636.5" y1="1111.8203" y2="1111.8203"/><text fill="#000000" font-family="sans-serif" font-size="13" font-weight="bold" lengthAdjust="spacing" textLength="14" x="69.5" y="1106.9639">28</text><text fill="#000000" font-family="sans-serif" font-size="13" lengthAdjust="spacing" textLength="101" x="87.5" y="1106.9639">asks for rent data</text><polygon fill="#181818" points="620.5,1138.1719,630.5,1142.1719,620.5,1146.1719,624.5,1142.1719" style="stroke:#181818;stroke-width:1.0;"/><line style="stroke:#181818;stroke-width:1.0;" x1="52.5" x2="626.5" y1="1142.1719" y2="1142.1719"/><text fill="#000000" font-family="sans-serif" font-size="13" font-weight="bold" lengthAdjust="spacing" textLength="14" x="59.5" y="1137.3154">29</text><text fill="#000000" font-family="sans-serif" font-size="13" lengthAdjust="spacing" textLength="253" x="77.5" y="1137.3154">types the requested data [contract duration]</text><polygon fill="#181818" points="63.5,1175.5234,53.5,1179.5234,63.5,1183.5234,59.5,1179.5234" style="stroke:#181818;stroke-width:1.0;"/><line style="stroke:#181818;stroke-width:1.0;stroke-dasharray:2.0,2.0;" x1="57.5" x2="636.5" y1="1179.5234" y2="1179.5234"/><text fill="#000000" font-family="sans-serif" font-size="13" font-weight="bold" lengthAdjust="spacing" textLength="14" x="69.5" y="1174.667">30</text><text fill="#000000" font-family="sans-serif" font-size="13" lengthAdjust="spacing" textLength="168" x="87.5" y="1174.667">asks to confirm the operation</text><polygon fill="#181818" points="620.5,1205.875,630.5,1209.875,620.5,1213.875,624.5,1209.875" style="stroke:#181818;stroke-width:1.0;"/><line style="stroke:#181818;stroke-width:1.0;" x1="52.5" x2="626.5" y1="1209.875" y2="1209.875"/><text fill="#000000" font-family="sans-serif" font-size="13" font-weight="bold" lengthAdjust="spacing" textLength="14" x="59.5" y="1205.0186">31</text><text fill="#000000" font-family="sans-serif" font-size="13" lengthAdjust="spacing" textLength="128" x="77.5" y="1205.0186">confirms the operation</text><polygon fill="#181818" points="58.5,1236.2266,48.5,1240.2266,58.5,1244.2266,54.5,1240.2266" style="stroke:#181818;stroke-width:1.0;"/><line style="stroke:#181818;stroke-width:1.0;stroke-dasharray:2.0,2.0;" x1="52.5" x2="636.5" y1="1240.2266" y2="1240.2266"/><text fill="#000000" font-family="sans-serif" font-size="13" font-weight="bold" lengthAdjust="spacing" textLength="14" x="64.5" y="1235.3701">32</text><text fill="#000000" font-family="sans-serif" font-size="13" lengthAdjust="spacing" textLength="158" x="82.5" y="1235.3701">displays operation success</text><!--MD5=[daaea6f0103237c86c044b9b1bb47e17]
@startuml
skinparam monochrome true
skinparam packageStyle rectangle
skinparam shadowing false

title System Sequence Diagram (SSD)

autonumber

actor "User" as user
participant ":System" as sys

activate user


    user -> sys : asks to create a new request for an owned property
    activate sys

    sys - -> user : gives a list of possible agents and asks for the agent
    deactivate sys

    user -> sys : chooses the responsible agent
    activate sys

    sys - -> user : shows list of types of property and asks the type of property
    deactivate sys

    user -> sys : selects the type of property
    activate sys

    sys - -> user : asks for property data
    deactivate sys

    user -> sys : types the requested data [area in m^2, street, zip code and distance from city center]
    activate sys

    sys - -> user: shows list of states and asks to select one
                deactivate sys

                user -> sys : selects state
                activate sys

    sys - -> user: shows list of districts and asks to select one
                deactivate sys

                user -> sys : selects district
                activate sys

   sys - -> user: shows list of cities and asks to select one
                deactivate sys

                user -> sys : selects city
                activate sys

    opt house, apartment
            sys - -> user : asks for house/apartment data
            deactivate sys

            user -> sys : types requested data [number of bedrooms, number of bathrooms, number of parking spaces, \navailable eqsyspment (central heating and/or airconditioning)]
            activate sys

            opt house
                sys - -> user : asks for the existence of a basement
                deactivate sys

                user -> sys: selects yes or no for the existence of a basement
                activate sys

                sys - -> user : asks for the existence of a loft
                deactivate sys

                user -> sys: selects yes or no for the existence of a loft
                activate sys

                sys - -> user: asks for the direction of the sun exposure
                deactivate sys

                user -> sys : selects the direction of the sun exposure [north, south, east, west]
                activate sys
           end
    end
     sys - -> user : asks for photos of the property
    deactivate sys

    loop Sends URI's one by one (from 1 up to 30 pictures)

        user -> sys : sends URI of the property
        activate sys
 
    end

    sys - - -> user : asks for the type of business
    deactivate sys

    user -> sys : selects the type of business
    activate sys

    sys - -> user : asks for needed data
    deactivate sys

    user -> sys : types the requested data [Requested price]
    activate sys

    opt rent
        sys - -> user : asks for rent data
        deactivate sys
        user -> sys : types the requested data [contract duration]
        activate sys
    end

    sys - -> user : asks to confirm the operation
    deactivate sys

    user -> sys : confirms the operation
    activate sys

    sys - -> user : displays operation success
    deactivate sys
    deactivate user

    
    @enduml

PlantUML version 1.2022.7(Mon Aug 22 18:01:30 WEST 2022)
(GPL source distribution)
Java Runtime: OpenJDK Runtime Environment
JVM: OpenJDK 64-Bit Server VM
Default Encoding: Cp1252
Language: pt
Country: PT
--></g></svg>