<?xml version="1.0" encoding="UTF-8" standalone="no"?><svg xmlns="http://www.w3.org/2000/svg" xmlns:xlink="http://www.w3.org/1999/xlink" contentStyleType="text/css" height="1022px" preserveAspectRatio="none" style="width:750px;height:1022px;background:#FFFFFF;" version="1.1" viewBox="0 0 750 1022" width="750px" zoomAndPan="magnify"><defs/><g><rect fill="none" height="27.6094" id="_title" style="stroke:none;stroke-width:1.0;" width="238" x="257.75" y="10"/><text fill="#000000" font-family="sans-serif" font-size="14" font-weight="bold" lengthAdjust="spacing" textLength="228" x="262.75" y="29.5332">System Sequence Diagram (SSD)</text><rect fill="#FFFFFF" height="791.4922" style="stroke:#181818;stroke-width:1.0;" width="10" x="42.5" y="131.2188"/><rect fill="#FFFFFF" height="30.3516" style="stroke:#181818;stroke-width:1.0;" width="10" x="687.5" y="153.5703"/><rect fill="#FFFFFF" height="30.3516" style="stroke:#181818;stroke-width:1.0;" width="10" x="687.5" y="214.2734"/><rect fill="#FFFFFF" height="30.3516" style="stroke:#181818;stroke-width:1.0;" width="10" x="687.5" y="274.9766"/><rect fill="#FFFFFF" height="30.3516" style="stroke:#181818;stroke-width:1.0;" width="10" x="687.5" y="335.6797"/><rect fill="#FFFFFF" height="188.4609" style="stroke:#181818;stroke-width:1.0;" width="10" x="687.5" y="396.3828"/><rect fill="#FFFFFF" height="37.3516" style="stroke:#181818;stroke-width:1.0;" width="10" x="687.5" y="640.5469"/><rect fill="#FFFFFF" height="30.3516" style="stroke:#181818;stroke-width:1.0;" width="10" x="687.5" y="708.25"/><rect fill="#FFFFFF" height="93.0547" style="stroke:#181818;stroke-width:1.0;" width="10" x="687.5" y="768.9531"/><rect fill="#FFFFFF" height="30.3516" style="stroke:#181818;stroke-width:1.0;" width="10" x="687.5" y="892.3594"/><rect fill="none" height="144.1094" style="stroke:#000000;stroke-width:1.5;" width="734.5" x="10" y="411.3828"/><rect fill="none" height="65.0547" style="stroke:#000000;stroke-width:1.5;" width="714.5" x="20" y="483.4375"/><rect fill="none" height="48.7031" style="stroke:#000000;stroke-width:1.5;" width="714.5" x="20" y="599.8438"/><rect fill="none" height="48.7031" style="stroke:#000000;stroke-width:1.5;" width="714.5" x="20" y="783.9531"/><line style="stroke:#181818;stroke-width:0.5;stroke-dasharray:5.0,5.0;" x1="47" x2="47" y1="121.2188" y2="940.7109"/><line style="stroke:#181818;stroke-width:0.5;stroke-dasharray:5.0,5.0;" x1="692.5" x2="692.5" y1="121.2188" y2="940.7109"/><text fill="#000000" font-family="sans-serif" font-size="14" lengthAdjust="spacing" textLength="29" x="30" y="118.1426">User</text><ellipse cx="47.5" cy="52.1094" fill="#E3E3E3" rx="8" ry="8" style="stroke:#181818;stroke-width:0.5;"/><path d="M47.5,60.1094 L47.5,87.1094 M34.5,68.1094 L60.5,68.1094 M47.5,87.1094 L34.5,102.1094 M47.5,87.1094 L60.5,102.1094 " fill="none" style="stroke:#181818;stroke-width:0.5;"/><text fill="#000000" font-family="sans-serif" font-size="14" lengthAdjust="spacing" textLength="29" x="30" y="954.2441">User</text><ellipse cx="47.5" cy="965.8203" fill="#E3E3E3" rx="8" ry="8" style="stroke:#181818;stroke-width:0.5;"/><path d="M47.5,973.8203 L47.5,1000.8203 M34.5,981.8203 L60.5,981.8203 M47.5,1000.8203 L34.5,1015.8203 M47.5,1000.8203 L60.5,1015.8203 " fill="none" style="stroke:#181818;stroke-width:0.5;"/><rect fill="#E3E3E3" height="31.6094" rx="2.5" ry="2.5" style="stroke:#181818;stroke-width:0.5;" width="64" x="660.5" y="88.6094"/><text fill="#000000" font-family="sans-serif" font-size="14" lengthAdjust="spacing" textLength="50" x="667.5" y="110.1426">:System</text><rect fill="#E3E3E3" height="31.6094" rx="2.5" ry="2.5" style="stroke:#181818;stroke-width:0.5;" width="64" x="660.5" y="939.7109"/><text fill="#000000" font-family="sans-serif" font-size="14" lengthAdjust="spacing" textLength="50" x="667.5" y="961.2441">:System</text><rect fill="#FFFFFF" height="791.4922" style="stroke:#181818;stroke-width:1.0;" width="10" x="42.5" y="131.2188"/><rect fill="#FFFFFF" height="30.3516" style="stroke:#181818;stroke-width:1.0;" width="10" x="687.5" y="153.5703"/><rect fill="#FFFFFF" height="30.3516" style="stroke:#181818;stroke-width:1.0;" width="10" x="687.5" y="214.2734"/><rect fill="#FFFFFF" height="30.3516" style="stroke:#181818;stroke-width:1.0;" width="10" x="687.5" y="274.9766"/><rect fill="#FFFFFF" height="30.3516" style="stroke:#181818;stroke-width:1.0;" width="10" x="687.5" y="335.6797"/><rect fill="#FFFFFF" height="188.4609" style="stroke:#181818;stroke-width:1.0;" width="10" x="687.5" y="396.3828"/><rect fill="#FFFFFF" height="37.3516" style="stroke:#181818;stroke-width:1.0;" width="10" x="687.5" y="640.5469"/><rect fill="#FFFFFF" height="30.3516" style="stroke:#181818;stroke-width:1.0;" width="10" x="687.5" y="708.25"/><rect fill="#FFFFFF" height="93.0547" style="stroke:#181818;stroke-width:1.0;" width="10" x="687.5" y="768.9531"/><rect fill="#FFFFFF" height="30.3516" style="stroke:#181818;stroke-width:1.0;" width="10" x="687.5" y="892.3594"/><polygon fill="#181818" points="675.5,149.5703,685.5,153.5703,675.5,157.5703,679.5,153.5703" style="stroke:#181818;stroke-width:1.0;"/><line style="stroke:#181818;stroke-width:1.0;" x1="52.5" x2="681.5" y1="153.5703" y2="153.5703"/><text fill="#000000" font-family="sans-serif" font-size="13" font-weight="bold" lengthAdjust="spacing" textLength="7" x="59.5" y="148.7139">1</text><text fill="#000000" font-family="sans-serif" font-size="13" lengthAdjust="spacing" textLength="296" x="70.5" y="148.7139">asks to create a new request for an owned property</text><polygon fill="#181818" points="63.5,179.9219,53.5,183.9219,63.5,187.9219,59.5,183.9219" style="stroke:#181818;stroke-width:1.0;"/><line style="stroke:#181818;stroke-width:1.0;stroke-dasharray:2.0,2.0;" x1="57.5" x2="691.5" y1="183.9219" y2="183.9219"/><text fill="#000000" font-family="sans-serif" font-size="13" font-weight="bold" lengthAdjust="spacing" textLength="7" x="69.5" y="179.0654">2</text><text fill="#000000" font-family="sans-serif" font-size="13" lengthAdjust="spacing" textLength="327" x="80.5" y="179.0654">accepts the request and gives a list of possible agencies</text><polygon fill="#181818" points="675.5,210.2734,685.5,214.2734,675.5,218.2734,679.5,214.2734" style="stroke:#181818;stroke-width:1.0;"/><line style="stroke:#181818;stroke-width:1.0;" x1="52.5" x2="681.5" y1="214.2734" y2="214.2734"/><text fill="#000000" font-family="sans-serif" font-size="13" font-weight="bold" lengthAdjust="spacing" textLength="7" x="59.5" y="209.417">3</text><text fill="#000000" font-family="sans-serif" font-size="13" lengthAdjust="spacing" textLength="117" x="70.5" y="209.417">chooses the agency</text><polygon fill="#181818" points="63.5,240.625,53.5,244.625,63.5,248.625,59.5,244.625" style="stroke:#181818;stroke-width:1.0;"/><line style="stroke:#181818;stroke-width:1.0;stroke-dasharray:2.0,2.0;" x1="57.5" x2="691.5" y1="244.625" y2="244.625"/><text fill="#000000" font-family="sans-serif" font-size="13" font-weight="bold" lengthAdjust="spacing" textLength="7" x="69.5" y="239.7686">4</text><text fill="#000000" font-family="sans-serif" font-size="13" lengthAdjust="spacing" textLength="475" x="80.5" y="239.7686">gives the chosen agency to the user and provides a list of agents from that agency</text><polygon fill="#181818" points="675.5,270.9766,685.5,274.9766,675.5,278.9766,679.5,274.9766" style="stroke:#181818;stroke-width:1.0;"/><line style="stroke:#181818;stroke-width:1.0;" x1="52.5" x2="681.5" y1="274.9766" y2="274.9766"/><text fill="#000000" font-family="sans-serif" font-size="13" font-weight="bold" lengthAdjust="spacing" textLength="7" x="59.5" y="270.1201">5</text><text fill="#000000" font-family="sans-serif" font-size="13" lengthAdjust="spacing" textLength="177" x="70.5" y="270.1201">chooses the responsible agent</text><polygon fill="#181818" points="63.5,301.3281,53.5,305.3281,63.5,309.3281,59.5,305.3281" style="stroke:#181818;stroke-width:1.0;"/><line style="stroke:#181818;stroke-width:1.0;stroke-dasharray:2.0,2.0;" x1="57.5" x2="691.5" y1="305.3281" y2="305.3281"/><text fill="#000000" font-family="sans-serif" font-size="13" font-weight="bold" lengthAdjust="spacing" textLength="7" x="69.5" y="300.4717">6</text><text fill="#000000" font-family="sans-serif" font-size="13" lengthAdjust="spacing" textLength="372" x="80.5" y="300.4717">gives the chosen agent to the user and asks the type of property</text><polygon fill="#181818" points="675.5,331.6797,685.5,335.6797,675.5,339.6797,679.5,335.6797" style="stroke:#181818;stroke-width:1.0;"/><line style="stroke:#181818;stroke-width:1.0;" x1="52.5" x2="681.5" y1="335.6797" y2="335.6797"/><text fill="#000000" font-family="sans-serif" font-size="13" font-weight="bold" lengthAdjust="spacing" textLength="7" x="59.5" y="330.8232">7</text><text fill="#000000" font-family="sans-serif" font-size="13" lengthAdjust="spacing" textLength="170" x="70.5" y="330.8232">chooses the type of business</text><polygon fill="#181818" points="63.5,362.0313,53.5,366.0313,63.5,370.0313,59.5,366.0313" style="stroke:#181818;stroke-width:1.0;"/><line style="stroke:#181818;stroke-width:1.0;stroke-dasharray:2.0,2.0;" x1="57.5" x2="691.5" y1="366.0313" y2="366.0313"/><text fill="#000000" font-family="sans-serif" font-size="13" font-weight="bold" lengthAdjust="spacing" textLength="7" x="69.5" y="361.1748">8</text><text fill="#000000" font-family="sans-serif" font-size="13" lengthAdjust="spacing" textLength="324" x="80.5" y="361.1748">retrieves the type of business and asks for property data</text><polygon fill="#181818" points="675.5,392.3828,685.5,396.3828,675.5,400.3828,679.5,396.3828" style="stroke:#181818;stroke-width:1.0;"/><line style="stroke:#181818;stroke-width:1.0;" x1="52.5" x2="681.5" y1="396.3828" y2="396.3828"/><text fill="#000000" font-family="sans-serif" font-size="13" font-weight="bold" lengthAdjust="spacing" textLength="7" x="59.5" y="391.5264">9</text><text fill="#000000" font-family="sans-serif" font-size="13" lengthAdjust="spacing" textLength="605" x="70.5" y="391.5264">types the requested data [area in m^2, state, district, city, street, zip code and distance from city center]</text><path d="M10,411.3828 L75,411.3828 L75,419.7344 L65,429.7344 L10,429.7344 L10,411.3828 " fill="#EEEEEE" style="stroke:#000000;stroke-width:1.5;"/><rect fill="none" height="144.1094" style="stroke:#000000;stroke-width:1.5;" width="734.5" x="10" y="411.3828"/><text fill="#000000" font-family="sans-serif" font-size="13" font-weight="bold" lengthAdjust="spacing" textLength="20" x="25" y="425.8779">opt</text><text fill="#000000" font-family="sans-serif" font-size="11" font-weight="bold" lengthAdjust="spacing" textLength="106" x="90" y="424.8018">[house, apartment]</text><polygon fill="#181818" points="675.5,464.4375,685.5,468.4375,675.5,472.4375,679.5,468.4375" style="stroke:#181818;stroke-width:1.0;"/><line style="stroke:#181818;stroke-width:1.0;" x1="52.5" x2="681.5" y1="468.4375" y2="468.4375"/><text fill="#000000" font-family="sans-serif" font-size="13" font-weight="bold" lengthAdjust="spacing" textLength="14" x="59.5" y="455.4053">10</text><text fill="#000000" font-family="sans-serif" font-size="13" lengthAdjust="spacing" textLength="539" x="77.5" y="447.2295">types requested data [number of bedrooms, number of bathrooms, number of parking spaces,</text><text fill="#000000" font-family="sans-serif" font-size="13" lengthAdjust="spacing" textLength="352" x="77.5" y="463.5811">available eqsyspment (central heating and/or airconditioning)]</text><path d="M20,483.4375 L85,483.4375 L85,491.7891 L75,501.7891 L20,501.7891 L20,483.4375 " fill="#EEEEEE" style="stroke:#000000;stroke-width:1.5;"/><rect fill="none" height="65.0547" style="stroke:#000000;stroke-width:1.5;" width="714.5" x="20" y="483.4375"/><text fill="#000000" font-family="sans-serif" font-size="13" font-weight="bold" lengthAdjust="spacing" textLength="20" x="35" y="497.9326">opt</text><text fill="#000000" font-family="sans-serif" font-size="11" font-weight="bold" lengthAdjust="spacing" textLength="43" x="100" y="496.8564">[house]</text><polygon fill="#181818" points="675.5,536.4922,685.5,540.4922,675.5,544.4922,679.5,540.4922" style="stroke:#181818;stroke-width:1.0;"/><line style="stroke:#181818;stroke-width:1.0;" x1="52.5" x2="681.5" y1="540.4922" y2="540.4922"/><text fill="#000000" font-family="sans-serif" font-size="13" font-weight="bold" lengthAdjust="spacing" textLength="14" x="59.5" y="527.46">11</text><text fill="#000000" font-family="sans-serif" font-size="13" lengthAdjust="spacing" textLength="507" x="77.5" y="519.2842">types requested data [the existence of a basement and/or inhabitable loft, sun exposure</text><text fill="#000000" font-family="sans-serif" font-size="13" lengthAdjust="spacing" textLength="159" x="77.5" y="535.6357">(North, South, East, West)]</text><polygon fill="#181818" points="63.5,580.8438,53.5,584.8438,63.5,588.8438,59.5,584.8438" style="stroke:#181818;stroke-width:1.0;"/><line style="stroke:#181818;stroke-width:1.0;stroke-dasharray:2.0,2.0;" x1="57.5" x2="691.5" y1="584.8438" y2="584.8438"/><text fill="#000000" font-family="sans-serif" font-size="13" font-weight="bold" lengthAdjust="spacing" textLength="14" x="69.5" y="579.9873">12</text><text fill="#000000" font-family="sans-serif" font-size="13" lengthAdjust="spacing" textLength="284" x="87.5" y="579.9873">saves all data and asks for photos of the property</text><path d="M20,599.8438 L93,599.8438 L93,608.1953 L83,618.1953 L20,618.1953 L20,599.8438 " fill="#EEEEEE" style="stroke:#000000;stroke-width:1.5;"/><rect fill="none" height="48.7031" style="stroke:#000000;stroke-width:1.5;" width="714.5" x="20" y="599.8438"/><text fill="#000000" font-family="sans-serif" font-size="13" font-weight="bold" lengthAdjust="spacing" textLength="28" x="35" y="614.3389">loop</text><text fill="#000000" font-family="sans-serif" font-size="11" font-weight="bold" lengthAdjust="spacing" textLength="291" x="108" y="613.2627">[Sends photos one by one (from 1 up to 30 pictures)]</text><polygon fill="#181818" points="675.5,636.5469,685.5,640.5469,675.5,644.5469,679.5,640.5469" style="stroke:#181818;stroke-width:1.0;"/><line style="stroke:#181818;stroke-width:1.0;" x1="52.5" x2="681.5" y1="640.5469" y2="640.5469"/><text fill="#000000" font-family="sans-serif" font-size="13" font-weight="bold" lengthAdjust="spacing" textLength="14" x="59.5" y="635.6904">13</text><text fill="#000000" font-family="sans-serif" font-size="13" lengthAdjust="spacing" textLength="165" x="77.5" y="635.6904">sends photos of the property</text><polygon fill="#181818" points="63.5,673.8984,53.5,677.8984,63.5,681.8984,59.5,677.8984" style="stroke:#181818;stroke-width:1.0;"/><line style="stroke:#181818;stroke-width:1.0;stroke-dasharray:2.0,2.0;" x1="57.5" x2="691.5" y1="677.8984" y2="677.8984"/><text fill="#000000" font-family="sans-serif" font-size="13" font-weight="bold" lengthAdjust="spacing" textLength="14" x="69.5" y="673.042">14</text><text fill="#000000" font-family="sans-serif" font-size="13" lengthAdjust="spacing" textLength="167" x="87.5" y="673.042">asks for the type of business</text><polygon fill="#181818" points="675.5,704.25,685.5,708.25,675.5,712.25,679.5,708.25" style="stroke:#181818;stroke-width:1.0;"/><line style="stroke:#181818;stroke-width:1.0;" x1="52.5" x2="681.5" y1="708.25" y2="708.25"/><text fill="#000000" font-family="sans-serif" font-size="13" font-weight="bold" lengthAdjust="spacing" textLength="14" x="59.5" y="703.3936">15</text><text fill="#000000" font-family="sans-serif" font-size="13" lengthAdjust="spacing" textLength="163" x="77.5" y="703.3936">selects the type of business</text><polygon fill="#181818" points="63.5,734.6016,53.5,738.6016,63.5,742.6016,59.5,738.6016" style="stroke:#181818;stroke-width:1.0;"/><line style="stroke:#181818;stroke-width:1.0;stroke-dasharray:2.0,2.0;" x1="57.5" x2="691.5" y1="738.6016" y2="738.6016"/><text fill="#000000" font-family="sans-serif" font-size="13" font-weight="bold" lengthAdjust="spacing" textLength="14" x="69.5" y="733.7451">16</text><text fill="#000000" font-family="sans-serif" font-size="13" lengthAdjust="spacing" textLength="304" x="87.5" y="733.7451">saves the type of business and asks for needed data</text><polygon fill="#181818" points="675.5,764.9531,685.5,768.9531,675.5,772.9531,679.5,768.9531" style="stroke:#181818;stroke-width:1.0;"/><line style="stroke:#181818;stroke-width:1.0;stroke-dasharray:2.0,2.0;" x1="52.5" x2="681.5" y1="768.9531" y2="768.9531"/><text fill="#000000" font-family="sans-serif" font-size="13" font-weight="bold" lengthAdjust="spacing" textLength="14" x="59.5" y="764.0967">17</text><text fill="#000000" font-family="sans-serif" font-size="13" lengthAdjust="spacing" textLength="250" x="77.5" y="764.0967">types the requested data [Requested price]</text><path d="M20,783.9531 L85,783.9531 L85,792.3047 L75,802.3047 L20,802.3047 L20,783.9531 " fill="#EEEEEE" style="stroke:#000000;stroke-width:1.5;"/><rect fill="none" height="48.7031" style="stroke:#000000;stroke-width:1.5;" width="714.5" x="20" y="783.9531"/><text fill="#000000" font-family="sans-serif" font-size="13" font-weight="bold" lengthAdjust="spacing" textLength="20" x="35" y="798.4482">opt</text><text fill="#000000" font-family="sans-serif" font-size="11" font-weight="bold" lengthAdjust="spacing" textLength="31" x="100" y="797.3721">[rent]</text><polygon fill="#181818" points="675.5,820.6563,685.5,824.6563,675.5,828.6563,679.5,824.6563" style="stroke:#181818;stroke-width:1.0;"/><line style="stroke:#181818;stroke-width:1.0;stroke-dasharray:2.0,2.0;" x1="52.5" x2="681.5" y1="824.6563" y2="824.6563"/><text fill="#000000" font-family="sans-serif" font-size="13" font-weight="bold" lengthAdjust="spacing" textLength="14" x="59.5" y="819.7998">18</text><text fill="#000000" font-family="sans-serif" font-size="13" lengthAdjust="spacing" textLength="253" x="77.5" y="819.7998">types the requested data [contract duration]</text><polygon fill="#181818" points="63.5,858.0078,53.5,862.0078,63.5,866.0078,59.5,862.0078" style="stroke:#181818;stroke-width:1.0;"/><line style="stroke:#181818;stroke-width:1.0;stroke-dasharray:2.0,2.0;" x1="57.5" x2="691.5" y1="862.0078" y2="862.0078"/><text fill="#000000" font-family="sans-serif" font-size="13" font-weight="bold" lengthAdjust="spacing" textLength="14" x="69.5" y="857.1514">19</text><text fill="#000000" font-family="sans-serif" font-size="13" lengthAdjust="spacing" textLength="347" x="87.5" y="857.1514">retrieves the received data and asks to confirm the operation</text><polygon fill="#181818" points="675.5,888.3594,685.5,892.3594,675.5,896.3594,679.5,892.3594" style="stroke:#181818;stroke-width:1.0;"/><line style="stroke:#181818;stroke-width:1.0;" x1="52.5" x2="681.5" y1="892.3594" y2="892.3594"/><text fill="#000000" font-family="sans-serif" font-size="13" font-weight="bold" lengthAdjust="spacing" textLength="14" x="59.5" y="887.5029">20</text><text fill="#000000" font-family="sans-serif" font-size="13" lengthAdjust="spacing" textLength="128" x="77.5" y="887.5029">confirms the operation</text><polygon fill="#181818" points="58.5,918.7109,48.5,922.7109,58.5,926.7109,54.5,922.7109" style="stroke:#181818;stroke-width:1.0;"/><line style="stroke:#181818;stroke-width:1.0;stroke-dasharray:2.0,2.0;" x1="52.5" x2="691.5" y1="922.7109" y2="922.7109"/><text fill="#000000" font-family="sans-serif" font-size="13" font-weight="bold" lengthAdjust="spacing" textLength="14" x="64.5" y="917.8545">21</text><text fill="#000000" font-family="sans-serif" font-size="13" lengthAdjust="spacing" textLength="158" x="82.5" y="917.8545">displays operation success</text><!--MD5=[13791d1a0fbc9fe8919ace27aeea54c9]
@startuml
skinparam monochrome true
skinparam packageStyle rectangle
skinparam shadowing false

title System Sequence Diagram (SSD)

autonumber

actor "User" as user
participant ":System" as sys

    activate user

    user -> sys: asks to create a new request for an owned property
    activate sys

    sys - -> user : accepts the request and gives a list of possible agencies
    deactivate sys

    user -> sys : chooses the agency
    activate sys

    sys - -> user : gives the chosen agency to the user and provides a list of agents from that agency
    deactivate sys

    user -> sys : chooses the responsible agent
    activate sys

    sys - -> user : gives the chosen agent to the user and asks the type of property
    deactivate sys

    user -> sys : chooses the type of business
    activate sys

    sys - -> user : retrieves the type of business and asks for property data
    deactivate sys

    user -> sys : types the requested data [area in m^2, state, district, city, street, zip code and distance from city center]
        activate sys
        opt house, apartment
            user -> sys : types requested data [number of bedrooms, number of bathrooms, number of parking spaces, \navailable eqsyspment (central heating and/or airconditioning)]
            opt house
                user -> sys : types requested data [the existence of a basement and/or inhabitable loft, sun exposure \n(North, South, East, West)]
            end
        end

    sys - - -> user : saves all data and asks for photos of the property
    deactivate sys

    loop Sends photos one by one (from 1 up to 30 pictures)

        user -> sys : sends photos of the property
        activate sys
    end

    sys - - -> user : asks for the type of business
    deactivate sys

    user -> sys : selects the type of business
    activate sys

    sys - -> user : saves the type of business and asks for needed data
    deactivate sys

    user - - -> sys : types the requested data [Requested price]
    activate sys

    opt rent
        user - - -> sys : types the requested data [contract duration]
    end

    sys - -> user : retrieves the received data and asks to confirm the operation
    deactivate sys

    user -> sys : confirms the operation
    activate sys

    sys - -> user : displays operation success
    deactivate sys
    deactivate user
    @enduml

PlantUML version 1.2022.7(Mon Aug 22 18:01:30 WEST 2022)
(GPL source distribution)
Java Runtime: OpenJDK Runtime Environment
JVM: OpenJDK 64-Bit Server VM
Default Encoding: Cp1252
Language: pt
Country: PT
--></g></svg>