<?xml version="1.0" encoding="UTF-8" standalone="no"?><svg xmlns="http://www.w3.org/2000/svg" xmlns:xlink="http://www.w3.org/1999/xlink" contentStyleType="text/css" height="1479px" preserveAspectRatio="none" style="width:1402px;height:1479px;background:#FFFFFF;" version="1.1" viewBox="0 0 1402 1479" width="1402px" zoomAndPan="magnify"><defs/><g><rect fill="#FFFFFF" height="1286.6172" style="stroke:#181818;stroke-width:1.0;" width="10" x="100" y="92.6094"/><rect fill="#FFFFFF" height="72.9609" style="stroke:#181818;stroke-width:1.0;" width="10" x="478" y="114.9609"/><rect fill="#FFFFFF" height="73.7031" style="stroke:#181818;stroke-width:1.0;" width="10" x="478" y="218.2734"/><rect fill="#FFFFFF" height="73.7031" style="stroke:#181818;stroke-width:1.0;" width="10" x="478" y="347.6797"/><rect fill="#FFFFFF" height="37.3516" style="stroke:#181818;stroke-width:1.0;" width="10" x="478" y="451.7344"/><rect fill="#FFFFFF" height="73.7031" style="stroke:#181818;stroke-width:1.0;" width="10" x="478" y="570.1406"/><rect fill="#FFFFFF" height="44.3516" style="stroke:#181818;stroke-width:1.0;" width="10" x="478" y="674.1953"/><rect fill="#FFFFFF" height="630.3281" style="stroke:#181818;stroke-width:1.0;" width="10" x="478" y="748.8984"/><rect fill="#FFFFFF" height="569.625" style="stroke:#181818;stroke-width:1.0;" width="10" x="767" y="779.25"/><rect fill="#FFFFFF" height="117.0547" style="stroke:#181818;stroke-width:1.0;" width="10" x="903" y="809.6016"/><rect fill="#FFFFFF" height="41.3516" style="stroke:#181818;stroke-width:1.0;" width="10" x="908" y="847.9531"/><rect fill="#FFFFFF" height="117.0547" style="stroke:#181818;stroke-width:1.0;" width="10" x="1061" y="982.3594"/><rect fill="#FFFFFF" height="41.3516" style="stroke:#181818;stroke-width:1.0;" width="10" x="1066" y="1020.7109"/><rect fill="#FFFFFF" height="117.0547" style="stroke:#181818;stroke-width:1.0;" width="10" x="1239" y="1187.4688"/><rect fill="#FFFFFF" height="41.3516" style="stroke:#181818;stroke-width:1.0;" width="10" x="1244" y="1225.8203"/><rect fill="none" height="152.7578" style="stroke:#000000;stroke-width:1.5;" width="653" x="20" y="306.9766"/><rect fill="none" height="185.1094" style="stroke:#000000;stroke-width:1.5;" width="647" x="10" y="504.0859"/><rect fill="none" height="152.7578" style="stroke:#000000;stroke-width:1.5;" width="627" x="20" y="529.4375"/><rect fill="none" height="165.7578" style="stroke:#000000;stroke-width:1.5;" width="561.5" x="682.5" y="941.6563"/><rect fill="none" height="198.1094" style="stroke:#000000;stroke-width:1.5;" width="723.5" x="672.5" y="1121.4141"/><rect fill="none" height="165.7578" style="stroke:#000000;stroke-width:1.5;" width="703.5" x="682.5" y="1146.7656"/><line style="stroke:#181818;stroke-width:0.5;stroke-dasharray:5.0,5.0;" x1="105" x2="105" y1="82.6094" y2="1397.2266"/><line style="stroke:#181818;stroke-width:0.5;stroke-dasharray:5.0,5.0;" x1="482.5" x2="482.5" y1="82.6094" y2="1397.2266"/><line style="stroke:#181818;stroke-width:0.5;stroke-dasharray:5.0,5.0;" x1="771.5" x2="771.5" y1="154.2656" y2="1397.2266"/><line style="stroke:#181818;stroke-width:0.5;stroke-dasharray:5.0,5.0;" x1="907.5" x2="907.5" y1="82.6094" y2="1397.2266"/><line style="stroke:#181818;stroke-width:0.5;stroke-dasharray:5.0,5.0;" x1="1065.5" x2="1065.5" y1="82.6094" y2="1397.2266"/><line style="stroke:#181818;stroke-width:0.5;stroke-dasharray:5.0,5.0;" x1="1244" x2="1244" y1="82.6094" y2="1397.2266"/><text fill="#000000" font-family="sans-serif" font-size="14" lengthAdjust="spacing" textLength="144" x="30" y="79.5332">System Admininistrator</text><ellipse cx="105" cy="13.5" fill="#E3E3E3" rx="8" ry="8" style="stroke:#181818;stroke-width:0.5;"/><path d="M105,21.5 L105,48.5 M92,29.5 L118,29.5 M105,48.5 L92,63.5 M105,48.5 L118,63.5 " fill="none" style="stroke:#181818;stroke-width:0.5;"/><text fill="#000000" font-family="sans-serif" font-size="14" lengthAdjust="spacing" textLength="144" x="30" y="1410.7598">System Admininistrator</text><ellipse cx="105" cy="1422.3359" fill="#E3E3E3" rx="8" ry="8" style="stroke:#181818;stroke-width:0.5;"/><path d="M105,1430.3359 L105,1457.3359 M92,1438.3359 L118,1438.3359 M105,1457.3359 L92,1472.3359 M105,1457.3359 L118,1472.3359 " fill="none" style="stroke:#181818;stroke-width:0.5;"/><rect fill="#E3E3E3" height="31.6094" rx="2.5" ry="2.5" style="stroke:#181818;stroke-width:0.5;" width="109" x="428.5" y="50"/><text fill="#000000" font-family="sans-serif" font-size="14" lengthAdjust="spacing" textLength="95" x="435.5" y="71.5332">:AddLocationUI</text><rect fill="#E3E3E3" height="31.6094" rx="2.5" ry="2.5" style="stroke:#181818;stroke-width:0.5;" width="109" x="428.5" y="1396.2266"/><text fill="#000000" font-family="sans-serif" font-size="14" lengthAdjust="spacing" textLength="95" x="435.5" y="1417.7598">:AddLocationUI</text><rect fill="#E3E3E3" height="31.6094" rx="2.5" ry="2.5" style="stroke:#181818;stroke-width:0.5;" width="159" x="692.5" y="1396.2266"/><text fill="#000000" font-family="sans-serif" font-size="14" lengthAdjust="spacing" textLength="145" x="699.5" y="1417.7598">:AddLocationController</text><rect fill="#E3E3E3" height="49.2188" rx="2.5" ry="2.5" style="stroke:#181818;stroke-width:0.5;" width="51" x="882.5" y="32.3906"/><text fill="#000000" font-family="sans-serif" font-size="14" lengthAdjust="spacing" textLength="33" x="891.5" y="53.9238">State</text><text fill="#000000" font-family="sans-serif" font-size="14" lengthAdjust="spacing" textLength="37" x="889.5" y="71.5332">:State</text><rect fill="#E3E3E3" height="49.2188" rx="2.5" ry="2.5" style="stroke:#181818;stroke-width:0.5;" width="51" x="882.5" y="1396.2266"/><text fill="#000000" font-family="sans-serif" font-size="14" lengthAdjust="spacing" textLength="33" x="891.5" y="1417.7598">State</text><text fill="#000000" font-family="sans-serif" font-size="14" lengthAdjust="spacing" textLength="37" x="889.5" y="1435.3691">:State</text><rect fill="#E3E3E3" height="49.2188" rx="2.5" ry="2.5" style="stroke:#181818;stroke-width:0.5;" width="61" x="1035.5" y="32.3906"/><text fill="#000000" font-family="sans-serif" font-size="14" lengthAdjust="spacing" textLength="43" x="1044.5" y="53.9238">District</text><text fill="#000000" font-family="sans-serif" font-size="14" lengthAdjust="spacing" textLength="47" x="1042.5" y="71.5332">:District</text><rect fill="#E3E3E3" height="49.2188" rx="2.5" ry="2.5" style="stroke:#181818;stroke-width:0.5;" width="61" x="1035.5" y="1396.2266"/><text fill="#000000" font-family="sans-serif" font-size="14" lengthAdjust="spacing" textLength="43" x="1044.5" y="1417.7598">District</text><text fill="#000000" font-family="sans-serif" font-size="14" lengthAdjust="spacing" textLength="47" x="1042.5" y="1435.3691">:District</text><rect fill="#E3E3E3" height="49.2188" rx="2.5" ry="2.5" style="stroke:#181818;stroke-width:0.5;" width="42" x="1223" y="32.3906"/><text fill="#000000" font-family="sans-serif" font-size="14" lengthAdjust="spacing" textLength="24" x="1232" y="53.9238">City</text><text fill="#000000" font-family="sans-serif" font-size="14" lengthAdjust="spacing" textLength="28" x="1230" y="71.5332">:City</text><rect fill="#E3E3E3" height="49.2188" rx="2.5" ry="2.5" style="stroke:#181818;stroke-width:0.5;" width="42" x="1223" y="1396.2266"/><text fill="#000000" font-family="sans-serif" font-size="14" lengthAdjust="spacing" textLength="24" x="1232" y="1417.7598">City</text><text fill="#000000" font-family="sans-serif" font-size="14" lengthAdjust="spacing" textLength="28" x="1230" y="1435.3691">:City</text><rect fill="#FFFFFF" height="1286.6172" style="stroke:#181818;stroke-width:1.0;" width="10" x="100" y="92.6094"/><rect fill="#FFFFFF" height="72.9609" style="stroke:#181818;stroke-width:1.0;" width="10" x="478" y="114.9609"/><rect fill="#FFFFFF" height="73.7031" style="stroke:#181818;stroke-width:1.0;" width="10" x="478" y="218.2734"/><rect fill="#FFFFFF" height="73.7031" style="stroke:#181818;stroke-width:1.0;" width="10" x="478" y="347.6797"/><rect fill="#FFFFFF" height="37.3516" style="stroke:#181818;stroke-width:1.0;" width="10" x="478" y="451.7344"/><rect fill="#FFFFFF" height="73.7031" style="stroke:#181818;stroke-width:1.0;" width="10" x="478" y="570.1406"/><rect fill="#FFFFFF" height="44.3516" style="stroke:#181818;stroke-width:1.0;" width="10" x="478" y="674.1953"/><rect fill="#FFFFFF" height="630.3281" style="stroke:#181818;stroke-width:1.0;" width="10" x="478" y="748.8984"/><rect fill="#FFFFFF" height="569.625" style="stroke:#181818;stroke-width:1.0;" width="10" x="767" y="779.25"/><rect fill="#FFFFFF" height="117.0547" style="stroke:#181818;stroke-width:1.0;" width="10" x="903" y="809.6016"/><rect fill="#FFFFFF" height="41.3516" style="stroke:#181818;stroke-width:1.0;" width="10" x="908" y="847.9531"/><rect fill="#FFFFFF" height="117.0547" style="stroke:#181818;stroke-width:1.0;" width="10" x="1061" y="982.3594"/><rect fill="#FFFFFF" height="41.3516" style="stroke:#181818;stroke-width:1.0;" width="10" x="1066" y="1020.7109"/><rect fill="#FFFFFF" height="117.0547" style="stroke:#181818;stroke-width:1.0;" width="10" x="1239" y="1187.4688"/><rect fill="#FFFFFF" height="41.3516" style="stroke:#181818;stroke-width:1.0;" width="10" x="1244" y="1225.8203"/><polygon fill="#181818" points="466,110.9609,476,114.9609,466,118.9609,470,114.9609" style="stroke:#181818;stroke-width:1.0;"/><line style="stroke:#181818;stroke-width:1.0;" x1="110" x2="472" y1="114.9609" y2="114.9609"/><text fill="#000000" font-family="sans-serif" font-size="13" font-weight="bold" lengthAdjust="spacing" textLength="7" x="117" y="110.1045">1</text><text fill="#000000" font-family="sans-serif" font-size="13" lengthAdjust="spacing" textLength="177" x="128" y="110.1045">asks to register a new location</text><polygon fill="#181818" points="680.5,141.3125,690.5,145.3125,680.5,149.3125,684.5,145.3125" style="stroke:#181818;stroke-width:1.0;"/><line style="stroke:#181818;stroke-width:1.0;" x1="488" x2="686.5" y1="145.3125" y2="145.3125"/><text fill="#000000" font-family="sans-serif" font-size="13" font-weight="bold" lengthAdjust="spacing" textLength="7" x="495" y="140.4561">2</text><text fill="#000000" font-family="sans-serif" font-size="13" lengthAdjust="spacing" textLength="36" x="506" y="140.4561">create</text><rect fill="#E3E3E3" height="31.6094" rx="2.5" ry="2.5" style="stroke:#181818;stroke-width:0.5;" width="159" x="692.5" y="122.9609"/><text fill="#000000" font-family="sans-serif" font-size="14" lengthAdjust="spacing" textLength="145" x="699.5" y="144.4941">:AddLocationController</text><polygon fill="#181818" points="121,183.9219,111,187.9219,121,191.9219,117,187.9219" style="stroke:#181818;stroke-width:1.0;"/><line style="stroke:#181818;stroke-width:1.0;" x1="115" x2="482" y1="187.9219" y2="187.9219"/><text fill="#000000" font-family="sans-serif" font-size="13" font-weight="bold" lengthAdjust="spacing" textLength="7" x="127" y="183.0654">3</text><text fill="#000000" font-family="sans-serif" font-size="13" lengthAdjust="spacing" textLength="79" x="138" y="183.0654">requests data</text><polygon fill="#181818" points="466,214.2734,476,218.2734,466,222.2734,470,218.2734" style="stroke:#181818;stroke-width:1.0;"/><line style="stroke:#181818;stroke-width:1.0;" x1="110" x2="472" y1="218.2734" y2="218.2734"/><text fill="#000000" font-family="sans-serif" font-size="13" font-weight="bold" lengthAdjust="spacing" textLength="7" x="117" y="213.417">4</text><text fill="#000000" font-family="sans-serif" font-size="13" lengthAdjust="spacing" textLength="163" x="128" y="213.417">types requested data (state)</text><line style="stroke:#181818;stroke-width:1.0;" x1="488" x2="530" y1="248.625" y2="248.625"/><line style="stroke:#181818;stroke-width:1.0;" x1="530" x2="530" y1="248.625" y2="261.625"/><line style="stroke:#181818;stroke-width:1.0;" x1="489" x2="530" y1="261.625" y2="261.625"/><polygon fill="#181818" points="499,257.625,489,261.625,499,265.625,495,261.625" style="stroke:#181818;stroke-width:1.0;"/><text fill="#000000" font-family="sans-serif" font-size="13" font-weight="bold" lengthAdjust="spacing" textLength="7" x="495" y="243.7686">5</text><text fill="#000000" font-family="sans-serif" font-size="13" lengthAdjust="spacing" textLength="96" x="506" y="243.7686">keepState(state)</text><polygon fill="#181818" points="121,287.9766,111,291.9766,121,295.9766,117,291.9766" style="stroke:#181818;stroke-width:1.0;"/><line style="stroke:#181818;stroke-width:1.0;stroke-dasharray:2.0,2.0;" x1="115" x2="482" y1="291.9766" y2="291.9766"/><text fill="#000000" font-family="sans-serif" font-size="13" font-weight="bold" lengthAdjust="spacing" textLength="7" x="127" y="287.1201">6</text><text fill="#000000" font-family="sans-serif" font-size="13" lengthAdjust="spacing" textLength="324" x="138" y="287.1201">requests data (districts associated to the state inserted)</text><path d="M20,306.9766 L93,306.9766 L93,315.3281 L83,325.3281 L20,325.3281 L20,306.9766 " fill="#EEEEEE" style="stroke:#000000;stroke-width:1.5;"/><rect fill="none" height="152.7578" style="stroke:#000000;stroke-width:1.5;" width="653" x="20" y="306.9766"/><text fill="#000000" font-family="sans-serif" font-size="13" font-weight="bold" lengthAdjust="spacing" textLength="28" x="35" y="321.4717">loop</text><text fill="#000000" font-family="sans-serif" font-size="11" font-weight="bold" lengthAdjust="spacing" textLength="62" x="108" y="320.3955">[until false]</text><polygon fill="#181818" points="466,343.6797,476,347.6797,466,351.6797,470,347.6797" style="stroke:#181818;stroke-width:1.0;"/><line style="stroke:#181818;stroke-width:1.0;" x1="110" x2="472" y1="347.6797" y2="347.6797"/><text fill="#000000" font-family="sans-serif" font-size="13" font-weight="bold" lengthAdjust="spacing" textLength="7" x="117" y="342.8232">7</text><text fill="#000000" font-family="sans-serif" font-size="13" lengthAdjust="spacing" textLength="173" x="128" y="342.8232">types requested data (district)</text><line style="stroke:#181818;stroke-width:1.0;" x1="488" x2="530" y1="378.0313" y2="378.0313"/><line style="stroke:#181818;stroke-width:1.0;" x1="530" x2="530" y1="378.0313" y2="391.0313"/><line style="stroke:#181818;stroke-width:1.0;" x1="489" x2="530" y1="391.0313" y2="391.0313"/><polygon fill="#181818" points="499,387.0313,489,391.0313,499,395.0313,495,391.0313" style="stroke:#181818;stroke-width:1.0;"/><text fill="#000000" font-family="sans-serif" font-size="13" font-weight="bold" lengthAdjust="spacing" textLength="7" x="495" y="373.1748">8</text><text fill="#000000" font-family="sans-serif" font-size="13" lengthAdjust="spacing" textLength="155" x="506" y="373.1748">keepDistrict(districtsList[i])</text><polygon fill="#181818" points="121,417.3828,111,421.3828,121,425.3828,117,421.3828" style="stroke:#181818;stroke-width:1.0;"/><line style="stroke:#181818;stroke-width:1.0;stroke-dasharray:2.0,2.0;" x1="115" x2="482" y1="421.3828" y2="421.3828"/><text fill="#000000" font-family="sans-serif" font-size="13" font-weight="bold" lengthAdjust="spacing" textLength="7" x="127" y="416.5264">9</text><text fill="#000000" font-family="sans-serif" font-size="13" lengthAdjust="spacing" textLength="273" x="138" y="416.5264">asks if there is another district to add to the list</text><polygon fill="#181818" points="466,447.7344,476,451.7344,466,455.7344,470,451.7344" style="stroke:#181818;stroke-width:1.0;"/><line style="stroke:#181818;stroke-width:1.0;" x1="110" x2="472" y1="451.7344" y2="451.7344"/><text fill="#000000" font-family="sans-serif" font-size="13" font-weight="bold" lengthAdjust="spacing" textLength="14" x="117" y="446.8779">10</text><text fill="#000000" font-family="sans-serif" font-size="13" lengthAdjust="spacing" textLength="187" x="135" y="446.8779">types requested data (true\false)</text><polygon fill="#181818" points="121,485.0859,111,489.0859,121,493.0859,117,489.0859" style="stroke:#181818;stroke-width:1.0;"/><line style="stroke:#181818;stroke-width:1.0;stroke-dasharray:2.0,2.0;" x1="115" x2="482" y1="489.0859" y2="489.0859"/><text fill="#000000" font-family="sans-serif" font-size="13" font-weight="bold" lengthAdjust="spacing" textLength="14" x="127" y="484.2295">11</text><text fill="#000000" font-family="sans-serif" font-size="13" lengthAdjust="spacing" textLength="326" x="145" y="484.2295">requests data (cities associated to the districts inserted)</text><path d="M10,504.0859 L83,504.0859 L83,512.4375 L73,522.4375 L10,522.4375 L10,504.0859 " fill="#EEEEEE" style="stroke:#000000;stroke-width:1.5;"/><rect fill="none" height="185.1094" style="stroke:#000000;stroke-width:1.5;" width="647" x="10" y="504.0859"/><text fill="#000000" font-family="sans-serif" font-size="13" font-weight="bold" lengthAdjust="spacing" textLength="28" x="25" y="518.5811">loop</text><text fill="#000000" font-family="sans-serif" font-size="11" font-weight="bold" lengthAdjust="spacing" textLength="95" x="98" y="517.5049">[for each district]</text><path d="M20,529.4375 L93,529.4375 L93,537.7891 L83,547.7891 L20,547.7891 L20,529.4375 " fill="#EEEEEE" style="stroke:#000000;stroke-width:1.5;"/><rect fill="none" height="152.7578" style="stroke:#000000;stroke-width:1.5;" width="627" x="20" y="529.4375"/><text fill="#000000" font-family="sans-serif" font-size="13" font-weight="bold" lengthAdjust="spacing" textLength="28" x="35" y="543.9326">loop</text><text fill="#000000" font-family="sans-serif" font-size="11" font-weight="bold" lengthAdjust="spacing" textLength="62" x="108" y="542.8564">[until false]</text><polygon fill="#181818" points="466,566.1406,476,570.1406,466,574.1406,470,570.1406" style="stroke:#181818;stroke-width:1.0;"/><line style="stroke:#181818;stroke-width:1.0;" x1="110" x2="472" y1="570.1406" y2="570.1406"/><text fill="#000000" font-family="sans-serif" font-size="13" font-weight="bold" lengthAdjust="spacing" textLength="14" x="117" y="565.2842">12</text><text fill="#000000" font-family="sans-serif" font-size="13" lengthAdjust="spacing" textLength="155" x="135" y="565.2842">types requested data (city)</text><line style="stroke:#181818;stroke-width:1.0;" x1="488" x2="530" y1="600.4922" y2="600.4922"/><line style="stroke:#181818;stroke-width:1.0;" x1="530" x2="530" y1="600.4922" y2="613.4922"/><line style="stroke:#181818;stroke-width:1.0;" x1="489" x2="530" y1="613.4922" y2="613.4922"/><polygon fill="#181818" points="499,609.4922,489,613.4922,499,617.4922,495,613.4922" style="stroke:#181818;stroke-width:1.0;"/><text fill="#000000" font-family="sans-serif" font-size="13" font-weight="bold" lengthAdjust="spacing" textLength="14" x="495" y="595.6357">13</text><text fill="#000000" font-family="sans-serif" font-size="13" lengthAdjust="spacing" textLength="122" x="513" y="595.6357">keepCity(citiesList[i])</text><polygon fill="#181818" points="121,639.8438,111,643.8438,121,647.8438,117,643.8438" style="stroke:#181818;stroke-width:1.0;"/><line style="stroke:#181818;stroke-width:1.0;stroke-dasharray:2.0,2.0;" x1="115" x2="482" y1="643.8438" y2="643.8438"/><text fill="#000000" font-family="sans-serif" font-size="13" font-weight="bold" lengthAdjust="spacing" textLength="14" x="127" y="638.9873">14</text><text fill="#000000" font-family="sans-serif" font-size="13" lengthAdjust="spacing" textLength="255" x="145" y="638.9873">asks if there is another city to add to the list</text><polygon fill="#181818" points="466,670.1953,476,674.1953,466,678.1953,470,674.1953" style="stroke:#181818;stroke-width:1.0;"/><line style="stroke:#181818;stroke-width:1.0;" x1="110" x2="472" y1="674.1953" y2="674.1953"/><text fill="#000000" font-family="sans-serif" font-size="13" font-weight="bold" lengthAdjust="spacing" textLength="14" x="117" y="669.3389">15</text><text fill="#000000" font-family="sans-serif" font-size="13" lengthAdjust="spacing" textLength="187" x="135" y="669.3389">types requested data (true\false)</text><polygon fill="#181818" points="121,714.5469,111,718.5469,121,722.5469,117,718.5469" style="stroke:#181818;stroke-width:1.0;"/><line style="stroke:#181818;stroke-width:1.0;stroke-dasharray:2.0,2.0;" x1="115" x2="482" y1="718.5469" y2="718.5469"/><text fill="#000000" font-family="sans-serif" font-size="13" font-weight="bold" lengthAdjust="spacing" textLength="14" x="127" y="713.6904">16</text><text fill="#000000" font-family="sans-serif" font-size="13" lengthAdjust="spacing" textLength="265" x="145" y="713.6904">shows inserted data and asks for confirmation</text><polygon fill="#181818" points="466,744.8984,476,748.8984,466,752.8984,470,748.8984" style="stroke:#181818;stroke-width:1.0;"/><line style="stroke:#181818;stroke-width:1.0;" x1="110" x2="472" y1="748.8984" y2="748.8984"/><text fill="#000000" font-family="sans-serif" font-size="13" font-weight="bold" lengthAdjust="spacing" textLength="14" x="117" y="744.042">17</text><text fill="#000000" font-family="sans-serif" font-size="13" lengthAdjust="spacing" textLength="78" x="135" y="744.042">confirms data</text><polygon fill="#181818" points="755,775.25,765,779.25,755,783.25,759,779.25" style="stroke:#181818;stroke-width:1.0;"/><line style="stroke:#181818;stroke-width:1.0;" x1="488" x2="761" y1="779.25" y2="779.25"/><text fill="#000000" font-family="sans-serif" font-size="13" font-weight="bold" lengthAdjust="spacing" textLength="14" x="495" y="774.3936">18</text><text fill="#000000" font-family="sans-serif" font-size="13" lengthAdjust="spacing" textLength="242" x="513" y="774.3936">addLocation(state, districtsList, citiesList)</text><polygon fill="#181818" points="891,805.6016,901,809.6016,891,813.6016,895,809.6016" style="stroke:#181818;stroke-width:1.0;"/><line style="stroke:#181818;stroke-width:1.0;" x1="777" x2="897" y1="809.6016" y2="809.6016"/><text fill="#000000" font-family="sans-serif" font-size="13" font-weight="bold" lengthAdjust="spacing" textLength="14" x="784" y="804.7451">19</text><text fill="#000000" font-family="sans-serif" font-size="13" lengthAdjust="spacing" textLength="89" x="802" y="804.7451">addState(state)</text><line style="stroke:#181818;stroke-width:1.0;" x1="913" x2="960" y1="834.9531" y2="834.9531"/><line style="stroke:#181818;stroke-width:1.0;" x1="960" x2="960" y1="834.9531" y2="847.9531"/><line style="stroke:#181818;stroke-width:1.0;" x1="919" x2="960" y1="847.9531" y2="847.9531"/><polygon fill="#181818" points="929,843.9531,919,847.9531,929,851.9531,925,847.9531" style="stroke:#181818;stroke-width:1.0;"/><text fill="#000000" font-family="sans-serif" font-size="13" font-weight="bold" lengthAdjust="spacing" textLength="14" x="925" y="830.0967">20</text><text fill="#000000" font-family="sans-serif" font-size="13" lengthAdjust="spacing" textLength="89" x="943" y="830.0967">addState(state)</text><line style="stroke:#181818;stroke-width:1.0;" x1="918" x2="960" y1="888.3047" y2="888.3047"/><line style="stroke:#181818;stroke-width:1.0;" x1="960" x2="960" y1="888.3047" y2="901.3047"/><line style="stroke:#181818;stroke-width:1.0;" x1="913" x2="960" y1="901.3047" y2="901.3047"/><polygon fill="#181818" points="923,897.3047,913,901.3047,923,905.3047,919,901.3047" style="stroke:#181818;stroke-width:1.0;"/><text fill="#000000" font-family="sans-serif" font-size="13" font-weight="bold" lengthAdjust="spacing" textLength="14" x="925" y="883.4482">21</text><text fill="#000000" font-family="sans-serif" font-size="13" lengthAdjust="spacing" textLength="111" x="943" y="883.4482">validateState(state)</text><polygon fill="#181818" points="788,922.6563,778,926.6563,788,930.6563,784,926.6563" style="stroke:#181818;stroke-width:1.0;"/><line style="stroke:#181818;stroke-width:1.0;" x1="782" x2="907" y1="926.6563" y2="926.6563"/><text fill="#000000" font-family="sans-serif" font-size="13" font-weight="bold" lengthAdjust="spacing" textLength="14" x="794" y="921.7998">22</text><text fill="#000000" font-family="sans-serif" font-size="13" lengthAdjust="spacing" textLength="31" x="812" y="921.7998">State</text><path d="M682.5,941.6563 L755.5,941.6563 L755.5,950.0078 L745.5,960.0078 L682.5,960.0078 L682.5,941.6563 " fill="#EEEEEE" style="stroke:#000000;stroke-width:1.5;"/><rect fill="none" height="165.7578" style="stroke:#000000;stroke-width:1.5;" width="561.5" x="682.5" y="941.6563"/><text fill="#000000" font-family="sans-serif" font-size="13" font-weight="bold" lengthAdjust="spacing" textLength="28" x="697.5" y="956.1514">loop</text><text fill="#000000" font-family="sans-serif" font-size="11" font-weight="bold" lengthAdjust="spacing" textLength="55" x="770.5" y="955.0752">[until null]</text><polygon fill="#181818" points="1049,978.3594,1059,982.3594,1049,986.3594,1053,982.3594" style="stroke:#181818;stroke-width:1.0;"/><line style="stroke:#181818;stroke-width:1.0;" x1="777" x2="1055" y1="982.3594" y2="982.3594"/><text fill="#000000" font-family="sans-serif" font-size="13" font-weight="bold" lengthAdjust="spacing" textLength="14" x="784" y="977.5029">23</text><text fill="#000000" font-family="sans-serif" font-size="13" lengthAdjust="spacing" textLength="109" x="802" y="977.5029">addDistrict(district)</text><line style="stroke:#181818;stroke-width:1.0;" x1="1071" x2="1118" y1="1007.7109" y2="1007.7109"/><line style="stroke:#181818;stroke-width:1.0;" x1="1118" x2="1118" y1="1007.7109" y2="1020.7109"/><line style="stroke:#181818;stroke-width:1.0;" x1="1077" x2="1118" y1="1020.7109" y2="1020.7109"/><polygon fill="#181818" points="1087,1016.7109,1077,1020.7109,1087,1024.7109,1083,1020.7109" style="stroke:#181818;stroke-width:1.0;"/><text fill="#000000" font-family="sans-serif" font-size="13" font-weight="bold" lengthAdjust="spacing" textLength="14" x="1083" y="1002.8545">24</text><text fill="#000000" font-family="sans-serif" font-size="13" lengthAdjust="spacing" textLength="109" x="1101" y="1002.8545">addDistrict(district)</text><line style="stroke:#181818;stroke-width:1.0;" x1="1076" x2="1118" y1="1061.0625" y2="1061.0625"/><line style="stroke:#181818;stroke-width:1.0;" x1="1118" x2="1118" y1="1061.0625" y2="1074.0625"/><line style="stroke:#181818;stroke-width:1.0;" x1="1071" x2="1118" y1="1074.0625" y2="1074.0625"/><polygon fill="#181818" points="1081,1070.0625,1071,1074.0625,1081,1078.0625,1077,1074.0625" style="stroke:#181818;stroke-width:1.0;"/><text fill="#000000" font-family="sans-serif" font-size="13" font-weight="bold" lengthAdjust="spacing" textLength="14" x="1083" y="1056.2061">25</text><text fill="#000000" font-family="sans-serif" font-size="13" lengthAdjust="spacing" textLength="131" x="1101" y="1056.2061">validateDistrict(district)</text><polygon fill="#181818" points="788,1095.4141,778,1099.4141,788,1103.4141,784,1099.4141" style="stroke:#181818;stroke-width:1.0;"/><line style="stroke:#181818;stroke-width:1.0;" x1="782" x2="1065" y1="1099.4141" y2="1099.4141"/><text fill="#000000" font-family="sans-serif" font-size="13" font-weight="bold" lengthAdjust="spacing" textLength="14" x="794" y="1094.5576">26</text><text fill="#000000" font-family="sans-serif" font-size="13" lengthAdjust="spacing" textLength="41" x="812" y="1094.5576">District</text><path d="M672.5,1121.4141 L745.5,1121.4141 L745.5,1129.7656 L735.5,1139.7656 L672.5,1139.7656 L672.5,1121.4141 " fill="#EEEEEE" style="stroke:#000000;stroke-width:1.5;"/><rect fill="none" height="198.1094" style="stroke:#000000;stroke-width:1.5;" width="723.5" x="672.5" y="1121.4141"/><text fill="#000000" font-family="sans-serif" font-size="13" font-weight="bold" lengthAdjust="spacing" textLength="28" x="687.5" y="1135.9092">loop</text><text fill="#000000" font-family="sans-serif" font-size="11" font-weight="bold" lengthAdjust="spacing" textLength="95" x="760.5" y="1134.833">[for each district]</text><path d="M682.5,1146.7656 L755.5,1146.7656 L755.5,1155.1172 L745.5,1165.1172 L682.5,1165.1172 L682.5,1146.7656 " fill="#EEEEEE" style="stroke:#000000;stroke-width:1.5;"/><rect fill="none" height="165.7578" style="stroke:#000000;stroke-width:1.5;" width="703.5" x="682.5" y="1146.7656"/><text fill="#000000" font-family="sans-serif" font-size="13" font-weight="bold" lengthAdjust="spacing" textLength="28" x="697.5" y="1161.2607">loop</text><text fill="#000000" font-family="sans-serif" font-size="11" font-weight="bold" lengthAdjust="spacing" textLength="55" x="770.5" y="1160.1846">[until null]</text><polygon fill="#181818" points="1227,1183.4688,1237,1187.4688,1227,1191.4688,1231,1187.4688" style="stroke:#181818;stroke-width:1.0;"/><line style="stroke:#181818;stroke-width:1.0;" x1="777" x2="1233" y1="1187.4688" y2="1187.4688"/><text fill="#000000" font-family="sans-serif" font-size="13" font-weight="bold" lengthAdjust="spacing" textLength="14" x="784" y="1182.6123">27</text><text fill="#000000" font-family="sans-serif" font-size="13" lengthAdjust="spacing" textLength="73" x="802" y="1182.6123">addCity(city)</text><line style="stroke:#181818;stroke-width:1.0;" x1="1249" x2="1296" y1="1212.8203" y2="1212.8203"/><line style="stroke:#181818;stroke-width:1.0;" x1="1296" x2="1296" y1="1212.8203" y2="1225.8203"/><line style="stroke:#181818;stroke-width:1.0;" x1="1255" x2="1296" y1="1225.8203" y2="1225.8203"/><polygon fill="#181818" points="1265,1221.8203,1255,1225.8203,1265,1229.8203,1261,1225.8203" style="stroke:#181818;stroke-width:1.0;"/><text fill="#000000" font-family="sans-serif" font-size="13" font-weight="bold" lengthAdjust="spacing" textLength="14" x="1261" y="1207.9639">28</text><text fill="#000000" font-family="sans-serif" font-size="13" lengthAdjust="spacing" textLength="73" x="1279" y="1207.9639">addCity(city)</text><line style="stroke:#181818;stroke-width:1.0;" x1="1254" x2="1296" y1="1266.1719" y2="1266.1719"/><line style="stroke:#181818;stroke-width:1.0;" x1="1296" x2="1296" y1="1266.1719" y2="1279.1719"/><line style="stroke:#181818;stroke-width:1.0;" x1="1249" x2="1296" y1="1279.1719" y2="1279.1719"/><polygon fill="#181818" points="1259,1275.1719,1249,1279.1719,1259,1283.1719,1255,1279.1719" style="stroke:#181818;stroke-width:1.0;"/><text fill="#000000" font-family="sans-serif" font-size="13" font-weight="bold" lengthAdjust="spacing" textLength="14" x="1261" y="1261.3154">29</text><text fill="#000000" font-family="sans-serif" font-size="13" lengthAdjust="spacing" textLength="95" x="1279" y="1261.3154">validateCity(city)</text><polygon fill="#181818" points="788,1300.5234,778,1304.5234,788,1308.5234,784,1304.5234" style="stroke:#181818;stroke-width:1.0;"/><line style="stroke:#181818;stroke-width:1.0;" x1="782" x2="1243" y1="1304.5234" y2="1304.5234"/><text fill="#000000" font-family="sans-serif" font-size="13" font-weight="bold" lengthAdjust="spacing" textLength="14" x="794" y="1299.667">30</text><text fill="#000000" font-family="sans-serif" font-size="13" lengthAdjust="spacing" textLength="23" x="812" y="1299.667">City</text><polygon fill="#181818" points="499,1344.875,489,1348.875,499,1352.875,495,1348.875" style="stroke:#181818;stroke-width:1.0;"/><line style="stroke:#181818;stroke-width:1.0;stroke-dasharray:2.0,2.0;" x1="493" x2="771" y1="1348.875" y2="1348.875"/><text fill="#000000" font-family="sans-serif" font-size="13" font-weight="bold" lengthAdjust="spacing" textLength="14" x="505" y="1344.0186">31</text><text fill="#000000" font-family="sans-serif" font-size="13" lengthAdjust="spacing" textLength="191" x="523" y="1344.0186">State, DistrictsList and CitiesList</text><polygon fill="#181818" points="116,1375.2266,106,1379.2266,116,1383.2266,112,1379.2266" style="stroke:#181818;stroke-width:1.0;"/><line style="stroke:#181818;stroke-width:1.0;stroke-dasharray:2.0,2.0;" x1="110" x2="482" y1="1379.2266" y2="1379.2266"/><text fill="#000000" font-family="sans-serif" font-size="13" font-weight="bold" lengthAdjust="spacing" textLength="14" x="122" y="1374.3701">32</text><text fill="#000000" font-family="sans-serif" font-size="13" lengthAdjust="spacing" textLength="158" x="140" y="1374.3701">displays operation success</text><!--MD5=[9d63f271dda128b2310a0624cf555dd2]
@startuml
skinparam monochrome true
skinparam packageStyle rectangle
skinparam shadowing false

autonumber

'hide footbox
actor "System Admininistrator" as Admin
participant ":AddLocationUI" as AddLocationUI
participant ":AddLocationController" as AddLocationController
participant "State\n:State" as State
participant "District\n:District" as District
participant "City\n:City" as City

activate Admin

    Admin -> AddLocationUI : asks to register a new location

        activate AddLocationUI
            create AddLocationController
            AddLocationUI -> AddLocationController** : create
            AddLocationUI -> Admin : requests data
        deactivate AddLocationUI

    Admin -> AddLocationUI : types requested data (state)
        activate AddLocationUI
                AddLocationUI -> AddLocationUI : keepState(state)
            AddLocationUI - -> Admin :  requests data (districts associated to the state inserted)
        deactivate AddLocationUI
    loop until false

    Admin -> AddLocationUI : types requested data (district)
        activate AddLocationUI

        AddLocationUI -> AddLocationUI : keepDistrict(districtsList[i])
        AddLocationUI - -> Admin :  asks if there is another district to add to the list
        deactivate AddLocationUI
    Admin -> AddLocationUI : types requested data (true\false)
        activate AddLocationUI
    end
            AddLocationUI - -> Admin :  requests data (cities associated to the districts inserted)
        deactivate AddLocationUI
    loop for each district
        loop until false
            Admin -> AddLocationUI : types requested data (city)
            activate AddLocationUI

            AddLocationUI -> AddLocationUI : keepCity(citiesList[i])
            AddLocationUI - -> Admin :  asks if there is another city to add to the list
            deactivate AddLocationUI
        Admin -> AddLocationUI : types requested data (true\false)
            activate AddLocationUI
        end
    end
        AddLocationUI - -> Admin : shows inserted data and asks for confirmation
        deactivate AddLocationUI

    Admin -> AddLocationUI : confirms data
    activate AddLocationUI

        AddLocationUI -> AddLocationController : addLocation(state, districtsList, citiesList)
        activate AddLocationController

                AddLocationController -> State : addState(state)
                activate State
                        State -> State : addState(state)
                            activate State
                                State -> State : validateState(state)
                            deactivate State
                        State -> AddLocationController : State
                deactivate State
                loop until null
                AddLocationController -> District : addDistrict(district)
                activate District
                        District -> District : addDistrict(district)
                            activate District
                                District -> District : validateDistrict(district)
                            deactivate District
                        District -> AddLocationController : District
                deactivate District
                end
                loop for each district
                loop until null
                AddLocationController -> City : addCity(city)
                activate City
                        City -> City : addCity(city)
                            activate City
                                City -> City : validateCity(city)
                            deactivate City
                        City -> AddLocationController : City
                deactivate City
                end
                end
                AddLocationController - -> AddLocationUI : State, DistrictsList and CitiesList
            deactivate AddLocationController
        AddLocationUI - -> Admin : displays operation success
    deactivate AddLocationUI

deactivate Admin

@enduml

@startuml
skinparam monochrome true
skinparam packageStyle rectangle
skinparam shadowing false

autonumber

actor "System Admininistrator" as Admin
participant ":AddLocationUI" as AddLocationUI
participant ":AddLocationController" as AddLocationController
participant "State\n:State" as State
participant "District\n:District" as District
participant "City\n:City" as City

activate Admin

    Admin -> AddLocationUI : asks to register a new location

        activate AddLocationUI
            create AddLocationController
            AddLocationUI -> AddLocationController** : create
            AddLocationUI -> Admin : requests data
        deactivate AddLocationUI

    Admin -> AddLocationUI : types requested data (state)
        activate AddLocationUI
                AddLocationUI -> AddLocationUI : keepState(state)
            AddLocationUI - -> Admin :  requests data (districts associated to the state inserted)
        deactivate AddLocationUI
    loop until false

    Admin -> AddLocationUI : types requested data (district)
        activate AddLocationUI

        AddLocationUI -> AddLocationUI : keepDistrict(districtsList[i])
        AddLocationUI - -> Admin :  asks if there is another district to add to the list
        deactivate AddLocationUI
    Admin -> AddLocationUI : types requested data (true\false)
        activate AddLocationUI
    end
            AddLocationUI - -> Admin :  requests data (cities associated to the districts inserted)
        deactivate AddLocationUI
    loop for each district
        loop until false
            Admin -> AddLocationUI : types requested data (city)
            activate AddLocationUI

            AddLocationUI -> AddLocationUI : keepCity(citiesList[i])
            AddLocationUI - -> Admin :  asks if there is another city to add to the list
            deactivate AddLocationUI
        Admin -> AddLocationUI : types requested data (true\false)
            activate AddLocationUI
        end
    end
        AddLocationUI - -> Admin : shows inserted data and asks for confirmation
        deactivate AddLocationUI

    Admin -> AddLocationUI : confirms data
    activate AddLocationUI

        AddLocationUI -> AddLocationController : addLocation(state, districtsList, citiesList)
        activate AddLocationController

                AddLocationController -> State : addState(state)
                activate State
                        State -> State : addState(state)
                            activate State
                                State -> State : validateState(state)
                            deactivate State
                        State -> AddLocationController : State
                deactivate State
                loop until null
                AddLocationController -> District : addDistrict(district)
                activate District
                        District -> District : addDistrict(district)
                            activate District
                                District -> District : validateDistrict(district)
                            deactivate District
                        District -> AddLocationController : District
                deactivate District
                end
                loop for each district
                loop until null
                AddLocationController -> City : addCity(city)
                activate City
                        City -> City : addCity(city)
                            activate City
                                City -> City : validateCity(city)
                            deactivate City
                        City -> AddLocationController : City
                deactivate City
                end
                end
                AddLocationController - -> AddLocationUI : State, DistrictsList and CitiesList
            deactivate AddLocationController
        AddLocationUI - -> Admin : displays operation success
    deactivate AddLocationUI

deactivate Admin

@enduml

PlantUML version 1.2022.7(Mon Aug 22 18:01:30 WEST 2022)
(GPL source distribution)
Java Runtime: OpenJDK Runtime Environment
JVM: OpenJDK 64-Bit Server VM
Default Encoding: Cp1252
Language: pt
Country: PT
--></g></svg>