<?xml version="1.0" encoding="UTF-8" standalone="no"?><svg xmlns="http://www.w3.org/2000/svg" xmlns:xlink="http://www.w3.org/1999/xlink" contentStyleType="text/css" height="627px" preserveAspectRatio="none" style="width:919px;height:627px;background:#FFFFFF;" version="1.1" viewBox="0 0 919 627" width="919px" zoomAndPan="magnify"><defs/><g><rect fill="#FFFFFF" height="378.4063" style="stroke:#181818;stroke-width:1.0;" width="10" x="404" y="161.7813"/><rect fill="#FFFFFF" height="154.4688" style="stroke:#181818;stroke-width:1.0;" width="10" x="409" y="332.5625"/><rect fill="#FFFFFF" height="50.1563" style="stroke:#181818;stroke-width:1.0;" width="10" x="414" y="384.7188"/><rect fill="none" height="325.25" style="stroke:#000000;stroke-width:1.5;" width="579" x="334" y="176.7813"/><line style="stroke:#181818;stroke-width:0.5;stroke-dasharray:5.0,5.0;" x1="409" x2="409" y1="70.3125" y2="558.1875"/><line style="stroke:#181818;stroke-width:0.5;stroke-dasharray:5.0,5.0;" x1="871" x2="871" y1="258.6719" y2="558.1875"/><rect fill="#E3E3E3" height="64.3125" rx="2.5" ry="2.5" style="stroke:#181818;stroke-width:0.5;" width="130" x="344" y="5"/><text fill="#000000" font-family="sans-serif" font-size="20" lengthAdjust="spacing" textLength="105" x="356.5" y="32.7617">organization</text><text fill="#000000" font-family="sans-serif" font-size="20" lengthAdjust="spacing" textLength="116" x="351" y="57.918">:Organization</text><rect fill="#E3E3E3" height="64.3125" rx="2.5" ry="2.5" style="stroke:#181818;stroke-width:0.5;" width="130" x="344" y="557.1875"/><text fill="#000000" font-family="sans-serif" font-size="20" lengthAdjust="spacing" textLength="105" x="356.5" y="584.9492">organization</text><text fill="#000000" font-family="sans-serif" font-size="20" lengthAdjust="spacing" textLength="116" x="351" y="610.1055">:Organization</text><rect fill="#E3E3E3" height="64.3125" rx="2.5" ry="2.5" style="stroke:#181818;stroke-width:0.5;" width="63" x="840" y="557.1875"/><text fill="#000000" font-family="sans-serif" font-size="20" lengthAdjust="spacing" textLength="37" x="853" y="584.9492">task</text><text fill="#000000" font-family="sans-serif" font-size="20" lengthAdjust="spacing" textLength="49" x="847" y="610.1055">:Task</text><rect fill="#FFFFFF" height="378.4063" style="stroke:#181818;stroke-width:1.0;" width="10" x="404" y="161.7813"/><rect fill="#FFFFFF" height="154.4688" style="stroke:#181818;stroke-width:1.0;" width="10" x="409" y="332.5625"/><rect fill="#FFFFFF" height="50.1563" style="stroke:#181818;stroke-width:1.0;" width="10" x="414" y="384.7188"/><polygon fill="#181818" points="392,157.7813,402,161.7813,392,165.7813,396,161.7813" style="stroke:#181818;stroke-width:1.0;"/><line style="stroke:#181818;stroke-width:1.0;" x1="0" x2="398" y1="161.7813" y2="161.7813"/><text fill="#000000" font-family="sans-serif" font-size="20" font-weight="bold" lengthAdjust="spacing" textLength="22" x="7" y="130.2305">16</text><text fill="#000000" font-family="sans-serif" font-size="20" lengthAdjust="spacing" textLength="303" x="33" y="105.0742">createTask(reference, description,</text><text fill="#000000" font-family="sans-serif" font-size="20" lengthAdjust="spacing" textLength="359" x="33" y="130.2305">informalDescription, technicalDescription,</text><text fill="#000000" font-family="sans-serif" font-size="20" lengthAdjust="spacing" textLength="359" x="33" y="155.3867">duration, cost, taskCategory, employee )</text><path d="M334,176.7813 L493,176.7813 L493,193.9375 L483,203.9375 L334,203.9375 L334,176.7813 " fill="#EEEEEE" style="stroke:#000000;stroke-width:1.5;"/><rect fill="none" height="325.25" style="stroke:#000000;stroke-width:1.5;" width="579" x="334" y="176.7813"/><text fill="#000000" font-family="sans-serif" font-size="20" font-weight="bold" lengthAdjust="spacing" textLength="114" x="349" y="198.543">Create Task</text><polygon fill="#181818" points="828,281.4063,838,285.4063,828,289.4063,832,285.4063" style="stroke:#181818;stroke-width:1.0;"/><line style="stroke:#181818;stroke-width:1.0;" x1="414" x2="834" y1="285.4063" y2="285.4063"/><text fill="#000000" font-family="sans-serif" font-size="20" font-weight="bold" lengthAdjust="spacing" textLength="39" x="421" y="253.8555">16.1</text><text fill="#000000" font-family="sans-serif" font-size="20" lengthAdjust="spacing" textLength="260" x="464" y="228.6992">create(reference, description,</text><text fill="#000000" font-family="sans-serif" font-size="20" lengthAdjust="spacing" textLength="359" x="464" y="253.8555">informalDescription, technicalDescription,</text><text fill="#000000" font-family="sans-serif" font-size="20" lengthAdjust="spacing" textLength="353" x="464" y="279.0117">duration, cost, taskCategory, employee)</text><rect fill="#E3E3E3" height="64.3125" rx="2.5" ry="2.5" style="stroke:#181818;stroke-width:0.5;" width="63" x="840" y="218.0938"/><text fill="#000000" font-family="sans-serif" font-size="20" lengthAdjust="spacing" textLength="37" x="853" y="245.8555">task</text><text fill="#000000" font-family="sans-serif" font-size="20" lengthAdjust="spacing" textLength="49" x="847" y="271.0117">:Task</text><line style="stroke:#181818;stroke-width:1.0;" x1="414" x2="461" y1="319.5625" y2="319.5625"/><line style="stroke:#181818;stroke-width:1.0;" x1="461" x2="461" y1="319.5625" y2="332.5625"/><line style="stroke:#181818;stroke-width:1.0;" x1="420" x2="461" y1="332.5625" y2="332.5625"/><polygon fill="#181818" points="430,328.5625,420,332.5625,430,336.5625,426,332.5625" style="stroke:#181818;stroke-width:1.0;"/><text fill="#000000" font-family="sans-serif" font-size="20" font-weight="bold" lengthAdjust="spacing" textLength="39" x="426" y="313.168">16.2</text><text fill="#000000" font-family="sans-serif" font-size="20" lengthAdjust="spacing" textLength="133" x="469" y="313.168">addTask (task)</text><line style="stroke:#181818;stroke-width:1.0;" x1="419" x2="466" y1="371.7188" y2="371.7188"/><line style="stroke:#181818;stroke-width:1.0;" x1="466" x2="466" y1="371.7188" y2="384.7188"/><line style="stroke:#181818;stroke-width:1.0;" x1="425" x2="466" y1="384.7188" y2="384.7188"/><polygon fill="#181818" points="435,380.7188,425,384.7188,435,388.7188,431,384.7188" style="stroke:#181818;stroke-width:1.0;"/><text fill="#000000" font-family="sans-serif" font-size="20" font-weight="bold" lengthAdjust="spacing" textLength="39" x="431" y="365.3242">16.3</text><text fill="#000000" font-family="sans-serif" font-size="20" lengthAdjust="spacing" textLength="161" x="474" y="365.3242">validateTask(task)</text><line style="stroke:#181818;stroke-width:1.0;stroke-dasharray:2.0,2.0;" x1="424" x2="466" y1="433.875" y2="433.875"/><line style="stroke:#181818;stroke-width:1.0;stroke-dasharray:2.0,2.0;" x1="466" x2="466" y1="433.875" y2="446.875"/><line style="stroke:#181818;stroke-width:1.0;stroke-dasharray:2.0,2.0;" x1="419" x2="466" y1="446.875" y2="446.875"/><polygon fill="#181818" points="429,442.875,419,446.875,429,450.875,425,446.875" style="stroke:#181818;stroke-width:1.0;"/><text fill="#000000" font-family="sans-serif" font-size="20" font-weight="bold" lengthAdjust="spacing" textLength="39" x="431" y="427.4805">16.4</text><text fill="#000000" font-family="sans-serif" font-size="20" lengthAdjust="spacing" textLength="6" x="474" y="427.4805"> </text><line style="stroke:#181818;stroke-width:1.0;stroke-dasharray:2.0,2.0;" x1="419" x2="461" y1="486.0313" y2="486.0313"/><line style="stroke:#181818;stroke-width:1.0;stroke-dasharray:2.0,2.0;" x1="461" x2="461" y1="486.0313" y2="499.0313"/><line style="stroke:#181818;stroke-width:1.0;stroke-dasharray:2.0,2.0;" x1="414" x2="461" y1="499.0313" y2="499.0313"/><polygon fill="#181818" points="424,495.0313,414,499.0313,424,503.0313,420,499.0313" style="stroke:#181818;stroke-width:1.0;"/><text fill="#000000" font-family="sans-serif" font-size="20" font-weight="bold" lengthAdjust="spacing" textLength="39" x="426" y="479.6367">16.5</text><text fill="#000000" font-family="sans-serif" font-size="20" lengthAdjust="spacing" textLength="6" x="469" y="479.6367"> </text><polygon fill="#181818" points="11,536.1875,1,540.1875,11,544.1875,7,540.1875" style="stroke:#181818;stroke-width:1.0;"/><line style="stroke:#181818;stroke-width:1.0;stroke-dasharray:2.0,2.0;" x1="5" x2="408" y1="540.1875" y2="540.1875"/><text fill="#000000" font-family="sans-serif" font-size="20" font-weight="bold" lengthAdjust="spacing" textLength="22" x="17" y="533.793">17</text><text fill="#000000" font-family="sans-serif" font-size="20" lengthAdjust="spacing" textLength="37" x="43" y="533.793">task</text><!--SRC=[lL71JW8n5BptAruu0G4Z7ZGXneIWU2G1ZboUxTkbsUxhfkrYuEljTeCkgyQRlJITpioRQNsXkKA7fR6o80MACgnDM5aEMtqckBiL_aA1qhAL1sTBWk1gwjnKA0lCQHjEXi2H3CYvwHBy0PLzrvn3XiQJ414EMkeAES30kXnPdp5eotkUhpl70Q27zURrMX3G5v6uYriYx1QRbzL22Ao3vRfy8mUpUp5zQfHpa8umK4CUEih84KkQnAfUEbqrGoPxrfnPLw9vxg0GI1vOosjqpwfss1AazI7IelCoJiYjEqs0oihO4n6CUdbkPW9bqCV8J8qWhjpPke9b2WXDGf7WPaKAn0PjjV7uKkC_AupwOT9peb9DKXWsej5Nu6_bVX8VqMXr-OtMe4lzrUFJfpMwkbDq9HD_QNhy1Y9MhQxxOmy9UPnEayiyFPBe3_i0]--></g></svg>