<?xml version="1.0" encoding="us-ascii" standalone="no"?><svg xmlns="http://www.w3.org/2000/svg" xmlns:xlink="http://www.w3.org/1999/xlink" contentStyleType="text/css" height="445px" preserveAspectRatio="none" style="width:603px;height:445px;background:#FFFFFF;" version="1.1" viewBox="0 0 603 445" width="603px" zoomAndPan="magnify"><defs/><g><text fill="#000000" font-family="sans-serif" font-size="14" font-weight="bold" lengthAdjust="spacing" textLength="228" x="186.75" y="27.6738">System Sequence Diagram (SSD)</text><rect fill="#FFFFFF" height="229.1875" style="stroke:#181818;stroke-width:1.0;" width="10" x="21.5" y="127.2813"/><rect fill="#FFFFFF" height="28.5234" style="stroke:#181818;stroke-width:1.0;" width="10" x="560.5" y="147.8047"/><rect fill="#FFFFFF" height="28.5234" style="stroke:#181818;stroke-width:1.0;" width="10" x="560.5" y="204.8516"/><rect fill="#FFFFFF" height="28.5234" style="stroke:#181818;stroke-width:1.0;" width="10" x="560.5" y="261.8984"/><rect fill="#FFFFFF" height="28.5234" style="stroke:#181818;stroke-width:1.0;" width="10" x="560.5" y="318.9453"/><line style="stroke:#181818;stroke-width:0.5;stroke-dasharray:5.0,5.0;" x1="26" x2="26" y1="117.2813" y2="365.4688"/><line style="stroke:#181818;stroke-width:0.5;stroke-dasharray:5.0,5.0;" x1="565.5" x2="565.5" y1="117.2813" y2="365.4688"/><text fill="#000000" font-family="sans-serif" font-size="14" lengthAdjust="spacing" textLength="37" x="5" y="114.3145">Agent</text><ellipse cx="26.5" cy="50.1406" fill="#E3E3E3" rx="8" ry="8" style="stroke:#181818;stroke-width:0.5;"/><path d="M26.5,58.1406 L26.5,85.1406 M13.5,66.1406 L39.5,66.1406 M26.5,85.1406 L13.5,100.1406 M26.5,85.1406 L39.5,100.1406 " fill="none" style="stroke:#181818;stroke-width:0.5;"/><text fill="#000000" font-family="sans-serif" font-size="14" lengthAdjust="spacing" textLength="37" x="5" y="377.1426">Agent</text><ellipse cx="26.5" cy="388.6094" fill="#E3E3E3" rx="8" ry="8" style="stroke:#181818;stroke-width:0.5;"/><path d="M26.5,396.6094 L26.5,423.6094 M13.5,404.6094 L39.5,404.6094 M26.5,423.6094 L13.5,438.6094 M26.5,423.6094 L39.5,438.6094 " fill="none" style="stroke:#181818;stroke-width:0.5;"/><rect fill="#E3E3E3" height="29.6406" rx="2.5" ry="2.5" style="stroke:#181818;stroke-width:0.5;" width="64" x="533.5" y="86.6406"/><text fill="#000000" font-family="sans-serif" font-size="14" lengthAdjust="spacing" textLength="50" x="540.5" y="106.3145">:System</text><rect fill="#E3E3E3" height="29.6406" rx="2.5" ry="2.5" style="stroke:#181818;stroke-width:0.5;" width="64" x="533.5" y="364.4688"/><text fill="#000000" font-family="sans-serif" font-size="14" lengthAdjust="spacing" textLength="50" x="540.5" y="384.1426">:System</text><rect fill="#FFFFFF" height="229.1875" style="stroke:#181818;stroke-width:1.0;" width="10" x="21.5" y="127.2813"/><rect fill="#FFFFFF" height="28.5234" style="stroke:#181818;stroke-width:1.0;" width="10" x="560.5" y="147.8047"/><rect fill="#FFFFFF" height="28.5234" style="stroke:#181818;stroke-width:1.0;" width="10" x="560.5" y="204.8516"/><rect fill="#FFFFFF" height="28.5234" style="stroke:#181818;stroke-width:1.0;" width="10" x="560.5" y="261.8984"/><rect fill="#FFFFFF" height="28.5234" style="stroke:#181818;stroke-width:1.0;" width="10" x="560.5" y="318.9453"/><polygon fill="#181818" points="548.5,143.8047,558.5,147.8047,548.5,151.8047,552.5,147.8047" style="stroke:#181818;stroke-width:1.0;"/><line style="stroke:#181818;stroke-width:1.0;" x1="31.5" x2="554.5" y1="147.8047" y2="147.8047"/><text fill="#000000" font-family="sans-serif" font-size="13" font-weight="bold" lengthAdjust="spacing" textLength="7" x="38.5" y="143.0498">1</text><text fill="#000000" font-family="sans-serif" font-size="13" lengthAdjust="spacing" textLength="312" x="49.5" y="143.0498">asks to see the list of property announcement request</text><polygon fill="#181818" points="42.5,172.3281,32.5,176.3281,42.5,180.3281,38.5,176.3281" style="stroke:#181818;stroke-width:1.0;"/><line style="stroke:#181818;stroke-width:1.0;stroke-dasharray:2.0,2.0;" x1="36.5" x2="564.5" y1="176.3281" y2="176.3281"/><text fill="#000000" font-family="sans-serif" font-size="13" font-weight="bold" lengthAdjust="spacing" textLength="7" x="48.5" y="171.5732">2</text><text fill="#000000" font-family="sans-serif" font-size="13" lengthAdjust="spacing" textLength="494" x="59.5" y="171.5732">shows list of announcement request responsible for that agent and asks to select one</text><polygon fill="#181818" points="548.5,200.8516,558.5,204.8516,548.5,208.8516,552.5,204.8516" style="stroke:#181818;stroke-width:1.0;"/><line style="stroke:#181818;stroke-width:1.0;" x1="31.5" x2="554.5" y1="204.8516" y2="204.8516"/><text fill="#000000" font-family="sans-serif" font-size="13" font-weight="bold" lengthAdjust="spacing" textLength="7" x="38.5" y="200.0967">3</text><text fill="#000000" font-family="sans-serif" font-size="13" lengthAdjust="spacing" textLength="203" x="49.5" y="200.0967">selects one announcement request</text><polygon fill="#181818" points="42.5,229.375,32.5,233.375,42.5,237.375,38.5,233.375" style="stroke:#181818;stroke-width:1.0;"/><line style="stroke:#181818;stroke-width:1.0;stroke-dasharray:2.0,2.0;" x1="36.5" x2="564.5" y1="233.375" y2="233.375"/><text fill="#000000" font-family="sans-serif" font-size="13" font-weight="bold" lengthAdjust="spacing" textLength="7" x="48.5" y="228.6201">4</text><text fill="#000000" font-family="sans-serif" font-size="13" lengthAdjust="spacing" textLength="182" x="59.5" y="228.6201">shows the comissions available</text><polygon fill="#181818" points="548.5,257.8984,558.5,261.8984,548.5,265.8984,552.5,261.8984" style="stroke:#181818;stroke-width:1.0;"/><line style="stroke:#181818;stroke-width:1.0;" x1="31.5" x2="554.5" y1="261.8984" y2="261.8984"/><text fill="#000000" font-family="sans-serif" font-size="13" font-weight="bold" lengthAdjust="spacing" textLength="7" x="38.5" y="257.1436">5</text><text fill="#000000" font-family="sans-serif" font-size="13" lengthAdjust="spacing" textLength="182" x="49.5" y="257.1436">select the respective comission</text><polygon fill="#181818" points="42.5,286.4219,32.5,290.4219,42.5,294.4219,38.5,290.4219" style="stroke:#181818;stroke-width:1.0;"/><line style="stroke:#181818;stroke-width:1.0;stroke-dasharray:2.0,2.0;" x1="36.5" x2="564.5" y1="290.4219" y2="290.4219"/><text fill="#000000" font-family="sans-serif" font-size="13" font-weight="bold" lengthAdjust="spacing" textLength="7" x="48.5" y="285.667">6</text><text fill="#000000" font-family="sans-serif" font-size="13" lengthAdjust="spacing" textLength="285" x="59.5" y="285.667">shows the infomation of and asks for confirmation</text><polygon fill="#181818" points="548.5,314.9453,558.5,318.9453,548.5,322.9453,552.5,318.9453" style="stroke:#181818;stroke-width:1.0;"/><line style="stroke:#181818;stroke-width:1.0;" x1="31.5" x2="554.5" y1="318.9453" y2="318.9453"/><text fill="#000000" font-family="sans-serif" font-size="13" font-weight="bold" lengthAdjust="spacing" textLength="7" x="38.5" y="314.1904">7</text><text fill="#000000" font-family="sans-serif" font-size="13" lengthAdjust="spacing" textLength="75" x="49.5" y="314.1904">submits data</text><polygon fill="#181818" points="42.5,343.4688,32.5,347.4688,42.5,351.4688,38.5,347.4688" style="stroke:#181818;stroke-width:1.0;"/><line style="stroke:#181818;stroke-width:1.0;stroke-dasharray:2.0,2.0;" x1="36.5" x2="564.5" y1="347.4688" y2="347.4688"/><text fill="#000000" font-family="sans-serif" font-size="13" font-weight="bold" lengthAdjust="spacing" textLength="7" x="48.5" y="342.7139">8</text><text fill="#000000" font-family="sans-serif" font-size="13" lengthAdjust="spacing" textLength="158" x="59.5" y="342.7139">displays operation success</text><!--SRC=[VL8nRiCm3Dpr2Y9JE_G37WeKo0_y0aQcRI6Mv8fq0l- -b1MdGQAMYmcHFDuTpMSNPapemSSGxPYY9v2qaE5xPKPxne5QMIU2H5Om3DDZ0u_OnQiB0_GuCHaZJhIrNLd8GqlV2mLBS7GuvFQtjZs-6uEBnB3u4oNDhSG4Xw-1WXm06RRCABmuwsOC0eUcu6tbacvpxe92jtu36biA7v_x_aO7pWmIWKcrZGIJOu7OmvpYJ4bMm13YeXHzdaoPByk6TSVV5-R77VX3TvHbZLeGhtm7hk7fb-SOs9tKcbxLoeW2kCrZw1v8Jcenn41bcKP7THwtU1LSC3Y3_ArjZnViPtbD4PUTiz4xPgSo02_e9bGnfaBlYL9p4vKXiWsK-n_Gp0j0XGNyqd2XZnv59ulRD_UogpQ6tgLIh34pDRkMatTgLuU2_vozVldEyJpXgcRhlrGuyM8jCPlgxNu0]--></g></svg>