<?xml version="1.0" encoding="us-ascii" standalone="no"?><svg xmlns="http://www.w3.org/2000/svg" xmlns:xlink="http://www.w3.org/1999/xlink" contentStyleType="text/css" height="563px" preserveAspectRatio="none" style="width:628px;height:563px;background:#FFFFFF;" version="1.1" viewBox="0 0 628 563" width="628px" zoomAndPan="magnify"><defs/><g><text fill="#000000" font-family="sans-serif" font-size="14" font-weight="bold" lengthAdjust="spacing" textLength="228" x="201.75" y="27.6738">System Sequence Diagram (SSD)</text><rect fill="#FFFFFF" height="347.2813" style="stroke:#181818;stroke-width:1.0;" width="10" x="36.5" y="127.2813"/><rect fill="#FFFFFF" height="28.5234" style="stroke:#181818;stroke-width:1.0;" width="10" x="575.5" y="147.8047"/><rect fill="#FFFFFF" height="52.0469" style="stroke:#181818;stroke-width:1.0;" width="10" x="575.5" y="204.8516"/><rect fill="#FFFFFF" height="35.5234" style="stroke:#181818;stroke-width:1.0;" width="10" x="575.5" y="372.9922"/><rect fill="#FFFFFF" height="28.5234" style="stroke:#181818;stroke-width:1.0;" width="10" x="575.5" y="437.0391"/><rect fill="none" height="73.5703" style="stroke:#000000;stroke-width:1.5;" width="612.5" x="10" y="219.8516"/><rect fill="none" height="73.5703" style="stroke:#000000;stroke-width:1.5;" width="612.5" x="10" y="307.4219"/><line style="stroke:#181818;stroke-width:0.5;stroke-dasharray:5.0,5.0;" x1="41" x2="41" y1="117.2813" y2="483.5625"/><line style="stroke:#181818;stroke-width:0.5;stroke-dasharray:5.0,5.0;" x1="580.5" x2="580.5" y1="117.2813" y2="483.5625"/><text fill="#000000" font-family="sans-serif" font-size="14" lengthAdjust="spacing" textLength="37" x="20" y="114.3145">Agent</text><ellipse cx="41.5" cy="50.1406" fill="#E3E3E3" rx="8" ry="8" style="stroke:#181818;stroke-width:0.5;"/><path d="M41.5,58.1406 L41.5,85.1406 M28.5,66.1406 L54.5,66.1406 M41.5,85.1406 L28.5,100.1406 M41.5,85.1406 L54.5,100.1406 " fill="none" style="stroke:#181818;stroke-width:0.5;"/><text fill="#000000" font-family="sans-serif" font-size="14" lengthAdjust="spacing" textLength="37" x="20" y="495.2363">Agent</text><ellipse cx="41.5" cy="506.7031" fill="#E3E3E3" rx="8" ry="8" style="stroke:#181818;stroke-width:0.5;"/><path d="M41.5,514.7031 L41.5,541.7031 M28.5,522.7031 L54.5,522.7031 M41.5,541.7031 L28.5,556.7031 M41.5,541.7031 L54.5,556.7031 " fill="none" style="stroke:#181818;stroke-width:0.5;"/><rect fill="#E3E3E3" height="29.6406" rx="2.5" ry="2.5" style="stroke:#181818;stroke-width:0.5;" width="64" x="548.5" y="86.6406"/><text fill="#000000" font-family="sans-serif" font-size="14" lengthAdjust="spacing" textLength="50" x="555.5" y="106.3145">:System</text><rect fill="#E3E3E3" height="29.6406" rx="2.5" ry="2.5" style="stroke:#181818;stroke-width:0.5;" width="64" x="548.5" y="482.5625"/><text fill="#000000" font-family="sans-serif" font-size="14" lengthAdjust="spacing" textLength="50" x="555.5" y="502.2363">:System</text><rect fill="#FFFFFF" height="347.2813" style="stroke:#181818;stroke-width:1.0;" width="10" x="36.5" y="127.2813"/><rect fill="#FFFFFF" height="28.5234" style="stroke:#181818;stroke-width:1.0;" width="10" x="575.5" y="147.8047"/><rect fill="#FFFFFF" height="52.0469" style="stroke:#181818;stroke-width:1.0;" width="10" x="575.5" y="204.8516"/><rect fill="#FFFFFF" height="35.5234" style="stroke:#181818;stroke-width:1.0;" width="10" x="575.5" y="372.9922"/><rect fill="#FFFFFF" height="28.5234" style="stroke:#181818;stroke-width:1.0;" width="10" x="575.5" y="437.0391"/><polygon fill="#181818" points="563.5,143.8047,573.5,147.8047,563.5,151.8047,567.5,147.8047" style="stroke:#181818;stroke-width:1.0;"/><line style="stroke:#181818;stroke-width:1.0;" x1="46.5" x2="569.5" y1="147.8047" y2="147.8047"/><text fill="#000000" font-family="sans-serif" font-size="13" font-weight="bold" lengthAdjust="spacing" textLength="7" x="53.5" y="143.0498">1</text><text fill="#000000" font-family="sans-serif" font-size="13" lengthAdjust="spacing" textLength="312" x="64.5" y="143.0498">asks to see the list of property announcement request</text><polygon fill="#181818" points="57.5,172.3281,47.5,176.3281,57.5,180.3281,53.5,176.3281" style="stroke:#181818;stroke-width:1.0;"/><line style="stroke:#181818;stroke-width:1.0;stroke-dasharray:2.0,2.0;" x1="51.5" x2="579.5" y1="176.3281" y2="176.3281"/><text fill="#000000" font-family="sans-serif" font-size="13" font-weight="bold" lengthAdjust="spacing" textLength="7" x="63.5" y="171.5732">2</text><text fill="#000000" font-family="sans-serif" font-size="13" lengthAdjust="spacing" textLength="494" x="74.5" y="171.5732">shows list of announcement request responsible for that agent and asks to select one</text><polygon fill="#181818" points="563.5,200.8516,573.5,204.8516,563.5,208.8516,567.5,204.8516" style="stroke:#181818;stroke-width:1.0;"/><line style="stroke:#181818;stroke-width:1.0;" x1="46.5" x2="569.5" y1="204.8516" y2="204.8516"/><text fill="#000000" font-family="sans-serif" font-size="13" font-weight="bold" lengthAdjust="spacing" textLength="7" x="53.5" y="200.0967">3</text><text fill="#000000" font-family="sans-serif" font-size="13" lengthAdjust="spacing" textLength="203" x="64.5" y="200.0967">selects one announcement request</text><path d="M10,219.8516 L71,219.8516 L71,226.375 L61,236.375 L10,236.375 L10,219.8516 " fill="#EEEEEE" style="stroke:#000000;stroke-width:1.5;"/><rect fill="none" height="73.5703" style="stroke:#000000;stroke-width:1.5;" width="612.5" x="10" y="219.8516"/><text fill="#000000" font-family="sans-serif" font-size="13" font-weight="bold" lengthAdjust="spacing" textLength="16" x="25" y="232.6201">alt</text><text fill="#000000" font-family="sans-serif" font-size="11" font-weight="bold" lengthAdjust="spacing" textLength="190" x="86" y="231.8096">[Accepts Announcement Request]</text><polygon fill="#181818" points="57.5,252.8984,47.5,256.8984,57.5,260.8984,53.5,256.8984" style="stroke:#181818;stroke-width:1.0;"/><line style="stroke:#181818;stroke-width:1.0;stroke-dasharray:2.0,2.0;" x1="51.5" x2="579.5" y1="256.8984" y2="256.8984"/><text fill="#000000" font-family="sans-serif" font-size="13" font-weight="bold" lengthAdjust="spacing" textLength="7" x="63.5" y="252.1436">4</text><text fill="#000000" font-family="sans-serif" font-size="13" lengthAdjust="spacing" textLength="182" x="74.5" y="252.1436">shows the comissions available</text><polygon fill="#181818" points="568.5,281.4219,578.5,285.4219,568.5,289.4219,572.5,285.4219" style="stroke:#181818;stroke-width:1.0;"/><line style="stroke:#181818;stroke-width:1.0;" x1="46.5" x2="574.5" y1="285.4219" y2="285.4219"/><text fill="#000000" font-family="sans-serif" font-size="13" font-weight="bold" lengthAdjust="spacing" textLength="7" x="53.5" y="280.667">5</text><text fill="#000000" font-family="sans-serif" font-size="13" lengthAdjust="spacing" textLength="182" x="64.5" y="280.667">select the respective comission</text><path d="M10,307.4219 L71,307.4219 L71,313.9453 L61,323.9453 L10,323.9453 L10,307.4219 " fill="#EEEEEE" style="stroke:#000000;stroke-width:1.5;"/><rect fill="none" height="73.5703" style="stroke:#000000;stroke-width:1.5;" width="612.5" x="10" y="307.4219"/><text fill="#000000" font-family="sans-serif" font-size="13" font-weight="bold" lengthAdjust="spacing" textLength="16" x="25" y="320.1904">alt</text><text fill="#000000" font-family="sans-serif" font-size="11" font-weight="bold" lengthAdjust="spacing" textLength="177" x="86" y="319.3799">[reject Announcement Request]</text><polygon fill="#181818" points="57.5,340.4688,47.5,344.4688,57.5,348.4688,53.5,344.4688" style="stroke:#181818;stroke-width:1.0;"/><line style="stroke:#181818;stroke-width:1.0;stroke-dasharray:2.0,2.0;" x1="51.5" x2="579.5" y1="344.4688" y2="344.4688"/><text fill="#000000" font-family="sans-serif" font-size="13" font-weight="bold" lengthAdjust="spacing" textLength="7" x="63.5" y="339.7139">6</text><text fill="#000000" font-family="sans-serif" font-size="13" lengthAdjust="spacing" textLength="208" x="74.5" y="339.7139">requests data(messageJustification)</text><polygon fill="#181818" points="563.5,368.9922,573.5,372.9922,563.5,376.9922,567.5,372.9922" style="stroke:#181818;stroke-width:1.0;"/><line style="stroke:#181818;stroke-width:1.0;" x1="46.5" x2="569.5" y1="372.9922" y2="372.9922"/><text fill="#000000" font-family="sans-serif" font-size="13" font-weight="bold" lengthAdjust="spacing" textLength="7" x="53.5" y="368.2373">7</text><text fill="#000000" font-family="sans-serif" font-size="13" lengthAdjust="spacing" textLength="108" x="64.5" y="368.2373">types request data</text><polygon fill="#181818" points="57.5,404.5156,47.5,408.5156,57.5,412.5156,53.5,408.5156" style="stroke:#181818;stroke-width:1.0;"/><line style="stroke:#181818;stroke-width:1.0;stroke-dasharray:2.0,2.0;" x1="51.5" x2="579.5" y1="408.5156" y2="408.5156"/><text fill="#000000" font-family="sans-serif" font-size="13" font-weight="bold" lengthAdjust="spacing" textLength="7" x="63.5" y="403.7607">8</text><text fill="#000000" font-family="sans-serif" font-size="13" lengthAdjust="spacing" textLength="285" x="74.5" y="403.7607">shows the infomation of and asks for confirmation</text><polygon fill="#181818" points="563.5,433.0391,573.5,437.0391,563.5,441.0391,567.5,437.0391" style="stroke:#181818;stroke-width:1.0;"/><line style="stroke:#181818;stroke-width:1.0;" x1="46.5" x2="569.5" y1="437.0391" y2="437.0391"/><text fill="#000000" font-family="sans-serif" font-size="13" font-weight="bold" lengthAdjust="spacing" textLength="7" x="53.5" y="432.2842">9</text><text fill="#000000" font-family="sans-serif" font-size="13" lengthAdjust="spacing" textLength="75" x="64.5" y="432.2842">submits data</text><polygon fill="#181818" points="57.5,461.5625,47.5,465.5625,57.5,469.5625,53.5,465.5625" style="stroke:#181818;stroke-width:1.0;"/><line style="stroke:#181818;stroke-width:1.0;stroke-dasharray:2.0,2.0;" x1="51.5" x2="579.5" y1="465.5625" y2="465.5625"/><text fill="#000000" font-family="sans-serif" font-size="13" font-weight="bold" lengthAdjust="spacing" textLength="14" x="63.5" y="460.8076">10</text><text fill="#000000" font-family="sans-serif" font-size="13" lengthAdjust="spacing" textLength="158" x="81.5" y="460.8076">displays operation success</text><!--SRC=[ZLDBRkCm3Dth54HMxQ8Ny6A005tDSdm2HgOTDfRa4UaMllrGbfC6ZJieDn4iydse5xbmd31ZW91YykUS0e7ccPpSRYRq5noerMKaoEGLup3UDyWPk_J1SO0UHo7dbDLQsqMK0hJqTwRe2LuPXzB-rBQlpyxXh2dEuKJPpbvJXiDneAW7G87rv0nUsVE4KU7GLBprkXxNENv7fQtVWTLwX9TVL_x61Yu2ca38l9q9HXQ5rCEKqqHP5y0OqsmIGvdCHQ_eYdN3lnAMZrVW5-EeP8sj87t83NWFptvbIb7uPAlfpQsUKG7NUOpTdSZHLWmfKYMpwcXVnrQFXYk6593llLth0Hj7XQFtD1d2yNxwppRzrNzJtPVL-XHOXCqdu3loYERMxUZ_ehdPN1U8iYSg_NTeEn0KkrLffhSo-JEXct-13XMV0edO0_oUHRbdZsfCppzHgyj4SdlOWkNsv3tom-UcEFOfh9GrCLi2IZ9yYZtdUhadn-qz-NmAl1dxJtJtqzknJ2Ck5XZxFrHDCbi2HDmt-NF_0000]--></g></svg>