<?xml version="1.0" encoding="us-ascii" standalone="no"?><svg xmlns="http://www.w3.org/2000/svg" xmlns:xlink="http://www.w3.org/1999/xlink" contentStyleType="text/css" height="425px" preserveAspectRatio="none" style="width:705px;height:425px;background:#FFFFFF;" version="1.1" viewBox="0 0 705 425" width="705px" zoomAndPan="magnify"><defs/><g><text fill="#000000" font-family="sans-serif" font-size="14" font-weight="bold" lengthAdjust="spacing" textLength="156" x="267.75" y="22.6738">US003 - Domain Model</text><!--class Contacts--><g id="elem_Contacts"><rect codeLine="59" fill="#F1F1F1" height="64.9219" id="Contacts" rx="2.5" ry="2.5" style="stroke:#181818;stroke-width:0.5;" width="105" x="98" y="330.5206"/><text fill="#000000" font-family="sans-serif" font-size="14" lengthAdjust="spacing" textLength="56" x="122.5" y="348.1945">Contacts</text><line style="stroke:#181818;stroke-width:0.5;" x1="99" x2="202" y1="356.1613" y2="356.1613"/><text fill="#000000" font-family="sans-serif" font-size="14" lengthAdjust="spacing" textLength="93" x="104" y="372.8351">Phone number</text><text fill="#000000" font-family="sans-serif" font-size="14" lengthAdjust="spacing" textLength="81" x="104" y="388.4757">Email adress</text></g><!--class SystemAdministrator--><g id="elem_SystemAdministrator"><rect codeLine="49" fill="#F1F1F1" height="25.6406" id="SystemAdministrator" rx="2.5" ry="2.5" style="stroke:#181818;stroke-width:0.5;" width="135" x="7" y="150.0206"/><text fill="#000000" font-family="sans-serif" font-size="14" lengthAdjust="spacing" textLength="129" x="10" y="167.6945">SystemAdministrator</text></g><!--class Employee--><g id="elem_Employee"><rect codeLine="52" fill="#F1F1F1" height="96.2031" id="Employee" rx="2.5" ry="2.5" style="stroke:#181818;stroke-width:0.5;" width="88" x="446.5" y="115.0206"/><text fill="#000000" font-family="sans-serif" font-size="14" lengthAdjust="spacing" textLength="62" x="459.5" y="132.6945">Employee</text><line style="stroke:#181818;stroke-width:0.5;" x1="447.5" x2="533.5" y1="140.6613" y2="140.6613"/><text fill="#000000" font-family="sans-serif" font-size="14" lengthAdjust="spacing" textLength="36" x="452.5" y="157.3351">Name</text><text fill="#000000" font-family="sans-serif" font-size="14" lengthAdjust="spacing" textLength="13" x="452.5" y="172.9757">ID</text><text fill="#000000" font-family="sans-serif" font-size="14" lengthAdjust="spacing" textLength="49" x="452.5" y="188.6163">Number</text><text fill="#000000" font-family="sans-serif" font-size="14" lengthAdjust="spacing" textLength="76" x="452.5" y="204.257">Tax Number</text></g><polygon fill="none" points="500.2741,211.2238,511.1165,229.4293,497.3969,232.2171" style="stroke:#181818;stroke-width:1.0;"/><line style="stroke:#181818;stroke-width:1.0;" x1="504.2567" x2="504.5" y1="230.8232" y2="232.0206"/><line style="stroke:#181818;stroke-width:1.0;" x1="446.5" x2="426.21" y1="163.0527" y2="163.0206"/><line style="stroke:#181818;stroke-width:1.0;" x1="446.5" x2="426.34" y1="131.3418" y2="116.7806"/><line style="stroke:#181818;stroke-width:1.0;" x1="534.5" x2="554.89" y1="163.0528" y2="163.0206"/><!--class Role--><g id="elem_Role"><rect codeLine="32" fill="#F1F1F1" height="49.2813" id="Role" rx="2.5" ry="2.5" style="stroke:#181818;stroke-width:0.5;" width="41" x="625" y="138.5206"/><text fill="#000000" font-family="sans-serif" font-size="14" lengthAdjust="spacing" textLength="29" x="631" y="156.1945">Role</text><line style="stroke:#181818;stroke-width:0.5;" x1="626" x2="665" y1="164.1613" y2="164.1613"/><text fill="#000000" font-family="sans-serif" font-size="14" lengthAdjust="spacing" textLength="29" x="631" y="180.8351">Role</text></g><!--class Agent--><g id="elem_Agent"><rect codeLine="22" fill="#F1F1F1" height="25.6406" id="Agent" rx="2.5" ry="2.5" style="stroke:#181818;stroke-width:0.5;" width="43" x="524" y="350.0206"/><text fill="#000000" font-family="sans-serif" font-size="14" lengthAdjust="spacing" textLength="37" x="527" y="367.6945">Agent</text></g><!--class StoreManager--><g id="elem_StoreManager"><rect codeLine="24" fill="#F1F1F1" height="25.6406" id="StoreManager" rx="2.5" ry="2.5" style="stroke:#181818;stroke-width:0.5;" width="96" x="602.5" y="350.0206"/><text fill="#000000" font-family="sans-serif" font-size="14" lengthAdjust="spacing" textLength="90" x="605.5" y="367.6945">StoreManager</text></g><!--class StoreNetworkManager--><g id="elem_StoreNetworkManager"><rect codeLine="26" fill="#F1F1F1" height="25.6406" id="StoreNetworkManager" rx="2.5" ry="2.5" style="stroke:#181818;stroke-width:0.5;" width="146" x="342.5" y="350.0206"/><text fill="#000000" font-family="sans-serif" font-size="14" lengthAdjust="spacing" textLength="140" x="345.5" y="367.6945">StoreNetworkManager</text></g><!--class Store--><g id="elem_Store"><rect codeLine="36" fill="#F1F1F1" height="49.2813" id="Store" rx="2.5" ry="2.5" style="stroke:#181818;stroke-width:0.5;" width="87" x="242" y="138.5206"/><text fill="#000000" font-family="sans-serif" font-size="14" lengthAdjust="spacing" textLength="34" x="268.5" y="156.1945">Store</text><line style="stroke:#181818;stroke-width:0.5;" x1="243" x2="328" y1="164.1613" y2="164.1613"/><text fill="#000000" font-family="sans-serif" font-size="14" lengthAdjust="spacing" textLength="75" x="248" y="180.8351">Designation</text></g><!--class Address--><g id="elem_Address"><rect codeLine="41" fill="#F1F1F1" height="111.8438" id="Address" rx="2.5" ry="2.5" style="stroke:#181818;stroke-width:0.5;" width="69" x="238" y="307.0206"/><text fill="#000000" font-family="sans-serif" font-size="14" lengthAdjust="spacing" textLength="52" x="246.5" y="324.6945">Address</text><line style="stroke:#181818;stroke-width:0.5;" x1="239" x2="306" y1="332.6613" y2="332.6613"/><text fill="#000000" font-family="sans-serif" font-size="14" lengthAdjust="spacing" textLength="38" x="244" y="349.3351">Street</text><text fill="#000000" font-family="sans-serif" font-size="14" lengthAdjust="spacing" textLength="57" x="244" y="364.9757">Zip Code</text><text fill="#000000" font-family="sans-serif" font-size="14" lengthAdjust="spacing" textLength="24" x="244" y="380.6163">City</text><text fill="#000000" font-family="sans-serif" font-size="14" lengthAdjust="spacing" textLength="50" x="244" y="396.257">Country</text><text fill="#000000" font-family="sans-serif" font-size="14" lengthAdjust="spacing" textLength="33" x="244" y="411.8976">State</text></g><!--link SystemAdministrator to Store--><g id="link_SystemAdministrator_Store"><path codeLine="64" d="M142.13,163.0206 C174.8,163.0206 213.05,163.0206 241.82,163.0206 " fill="none" id="SystemAdministrator-Store" style="stroke:#181818;stroke-width:1.0;"/><polygon fill="#000000" points="169.5,152.2823,160.4549,149.3434,160.4549,155.2213,169.5,152.2823" style="stroke:#000000;stroke-width:1.0;"/><text fill="#000000" font-family="sans-serif" font-size="13" lengthAdjust="spacing" textLength="50" x="173.5" y="156.7892">registers</text><text fill="#000000" font-family="sans-serif" font-size="13" lengthAdjust="spacing" textLength="7" x="149.9098" y="160.0718">1</text><text fill="#000000" font-family="sans-serif" font-size="13" lengthAdjust="spacing" textLength="5" x="228.8828" y="159.6069">*</text></g><!--link Store to Address--><g id="link_Store_Address"><path codeLine="66" d="M282.93,187.9106 C280.9,207.5306 278.15,236.0406 276.5,261.0206 C275.52,275.9006 274.74,292.0406 274.15,306.9506 " fill="none" id="Store-Address" style="stroke:#181818;stroke-width:1.0;"/><polygon fill="#000000" points="281.1322,274.2688,284.7285,265.4644,278.8666,265.032,281.1322,274.2688" style="stroke:#000000;stroke-width:1.0;"/><text fill="#000000" font-family="sans-serif" font-size="13" lengthAdjust="spacing" textLength="57" x="290.5" y="273.7892">located at</text><text fill="#000000" font-family="sans-serif" font-size="13" lengthAdjust="spacing" textLength="5" x="276.6942" y="207.4819">*</text><text fill="#000000" font-family="sans-serif" font-size="13" lengthAdjust="spacing" textLength="7" x="266.9014" y="296.2898">1</text></g><!--link Store to Employee--><g id="link_Store_Employee"><path codeLine="68" d="M329.23,163.0206 C357.45,163.0206 394.65,163.0206 426.21,163.0206 " fill="none" id="Store-Employee" style="stroke:#181818;stroke-width:1.0;"/><polygon fill="#000000" points="346.25,152.2823,355.2951,155.2213,355.2951,149.3434,346.25,152.2823" style="stroke:#000000;stroke-width:1.0;"/><text fill="#000000" font-family="sans-serif" font-size="13" lengthAdjust="spacing" textLength="48" x="360.25" y="156.7892">works in</text><text fill="#000000" font-family="sans-serif" font-size="13" lengthAdjust="spacing" textLength="7" x="337.0525" y="159.6499">1</text><text fill="#000000" font-family="sans-serif" font-size="13" lengthAdjust="spacing" textLength="5" x="413.4874" y="159.9983">*</text></g><!--link SystemAdministrator to Employee--><g id="link_SystemAdministrator_Employee"><path codeLine="70" d="M89.1,149.9806 C126.15,118.5106 227.27,42.6406 317,66.0206 C355.74,76.1106 394.99,96.9806 426.34,116.7806 " fill="none" id="SystemAdministrator-Employee" style="stroke:#181818;stroke-width:1.0;"/><polygon fill="#000000" points="261.9759,56.7925,252.6864,54.7539,253.2623,60.6034,261.9759,56.7925" style="stroke:#000000;stroke-width:1.0;"/><text fill="#000000" font-family="sans-serif" font-size="13" lengthAdjust="spacing" textLength="50" x="266" y="61.7892">registers</text><text fill="#000000" font-family="sans-serif" font-size="13" lengthAdjust="spacing" textLength="7" x="86.9563" y="139.1748">1</text><text fill="#000000" font-family="sans-serif" font-size="13" lengthAdjust="spacing" textLength="5" x="413.6324" y="108.4118">*</text></g><!--link Employee to Role--><g id="link_Employee_Role"><path codeLine="72" d="M554.89,163.0206 C580.01,163.0206 607.02,163.0206 624.95,163.0206 " fill="none" id="Employee-Role" style="stroke:#181818;stroke-width:1.0;"/><polygon fill="#000000" points="581.75,152.2823,572.7049,149.3434,572.7049,155.2213,581.75,152.2823" style="stroke:#000000;stroke-width:1.0;"/><text fill="#000000" font-family="sans-serif" font-size="13" lengthAdjust="spacing" textLength="21" x="585.75" y="156.7892">has</text><text fill="#000000" font-family="sans-serif" font-size="13" lengthAdjust="spacing" textLength="7" x="562.3155" y="160.0411">1</text><text fill="#000000" font-family="sans-serif" font-size="13" lengthAdjust="spacing" textLength="7" x="609.9834" y="158.5105">1</text></g><!--reverse link Employee to StoreNetworkManager--><g id="link_Employee_StoreNetworkManager"><path codeLine="74" d="M504.5,232.0206 C504.5,232.0206 446.31,317.0206 424.03,349.5606 " fill="none" id="Employee-backto-StoreNetworkManager" style="stroke:#181818;stroke-width:1.0;"/></g><!--reverse link Employee to StoreManager--><g id="link_Employee_StoreManager"><path codeLine="76" d="M504.5,232.0206 C504.5,232.0206 526.28,247.3006 542.5,261.0206 C578.57,291.5206 618.58,330.3506 638.24,349.7806 " fill="none" id="Employee-backto-StoreManager" style="stroke:#181818;stroke-width:1.0;"/></g><!--reverse link Employee to Agent--><g id="link_Employee_Agent"><path codeLine="78" d="M504.5,232.0206 C504.5,232.0206 531.31,317.0206 541.57,349.5606 " fill="none" id="Employee-backto-Agent" style="stroke:#181818;stroke-width:1.0;"/></g><!--link StoreNetworkManager to Store--><g id="link_StoreNetworkManager_Store"><path codeLine="80" d="M408.12,349.7806 C396.53,330.6606 373.26,292.6306 352.5,261.0206 C335.87,235.7006 316.08,207.2406 302.33,187.7306 " fill="none" id="StoreNetworkManager-Store" style="stroke:#181818;stroke-width:1.0;"/><polygon fill="#000000" points="363.7668,265.0955,366.2503,274.2761,371.1722,271.063,363.7668,265.0955" style="stroke:#000000;stroke-width:1.0;"/><text fill="#000000" font-family="sans-serif" font-size="13" lengthAdjust="spacing" textLength="53" x="375.5" y="273.7892">manages</text><text fill="#000000" font-family="sans-serif" font-size="13" lengthAdjust="spacing" textLength="7" x="396.632" y="339.3823">1</text><text fill="#000000" font-family="sans-serif" font-size="13" lengthAdjust="spacing" textLength="5" x="301.0021" y="207.6559">*</text></g><!--link Store to Contacts--><g id="link_Store_Contacts"><path codeLine="82" d="M269.22,187.9006 C244.95,223.4906 199.27,290.5006 172.19,330.2006 " fill="none" id="Store-Contacts" style="stroke:#181818;stroke-width:1.0;"/><polygon fill="#000000" points="220.6832,273.4134,228.207,267.596,223.3507,264.2846,220.6832,273.4134" style="stroke:#000000;stroke-width:1.0;"/><text fill="#000000" font-family="sans-serif" font-size="13" lengthAdjust="spacing" textLength="21" x="232.5" y="273.7892">has</text><text fill="#000000" font-family="sans-serif" font-size="13" lengthAdjust="spacing" textLength="7" x="257.3986" y="207.4694">1</text><text fill="#000000" font-family="sans-serif" font-size="13" lengthAdjust="spacing" textLength="7" x="168.9417" y="319.8183">1</text></g><!--SRC=[XLBBRjj03BplLn2-50ZWEa5kGb0Wi7F88KOGjvVUs5rMMdWVmYw5H4ZzxwLbIP5TjRq84cSucY7vgMAkSx5QrGu3Dzvzrj6ljCESbyPYcT0hnPOTmRVTzVKjB64JFTe0Jz6GKohlRQXHQE1ZYBfAqHDmQcY2rAZtMDAEMv59f1b3wQQ4NA69hpQKy1DT9bLPGq2-vXOy-H-KyeHSfjZKZw6YP4L84zoU-DecBQggCm_h61Wrv-5xrsOcVs-y3JPpGevfW1vyxM9BO-jB_93vHzjzIO57dW3qX45YfhFQblWrflqSD0ePaoZdwU_XNNKk3cSDKjrGjcL0jZ6e3xHN47p7YOZLTrlB10ofjULMhMCJEBK28ayr_ymc2eVBiKXjYvxKuqPjc-Cor5TyW_xrS3blOJzNCH244-51ZiK1dX8AU-wdYvk5tDNYQj77BEH8Ia5bx_15MhhY4LukE-uGjm0NjKGoW3mXZcfZWWAEEyWWPtltFmkJfZCNOxsdohFRL04LdXFkVedF-UtFSVu2zkSr8pCpBzyX-M889vV3PWQZlm40]--></g></svg>