<?xml version="1.0" encoding="us-ascii" standalone="no"?><svg xmlns="http://www.w3.org/2000/svg" xmlns:xlink="http://www.w3.org/1999/xlink" contentStyleType="text/css" height="342px" preserveAspectRatio="none" style="width:409px;height:342px;background:#FFFFFF;" version="1.1" viewBox="0 0 409 342" width="409px" zoomAndPan="magnify"><defs/><g><!--class SystemAdministrator--><g id="elem_SystemAdministrator"><rect codeLine="14" fill="#F1F1F1" height="48" id="SystemAdministrator" rx="2.5" ry="2.5" style="stroke:#181818;stroke-width:0.5;" width="161" x="7" y="38.5"/><ellipse cx="22" cy="54.5" fill="#C2C2C2" rx="11" ry="11" style="stroke:#181818;stroke-width:1.0;"/><path d="M24,51 Q24.2031,50.5 24.4375,50.25 Q24.6719,50 24.9375,50 Q25.4063,50 25.7031,50.2813 Q26,50.5625 26,51.2188 L26,52.7813 Q26,53.4375 25.7188,53.7188 Q25.4375,54 25,54 Q24.6094,54 24.3594,53.8281 Q24.1094,53.6563 24,53.2031 Q23.9531,52.8906 23.7813,52.7188 Q23.4688,52.3906 22.9063,52.2031 Q22.3438,52 21.7813,52 Q21.0781,52 20.4844,52.2813 Q19.9063,52.5625 19.4531,53.1875 Q19,53.8125 19,54.6719 L19,55.5938 Q19,56.625 19.8438,57.3125 Q20.6875,58 22.1875,58 Q23.0781,58 23.7031,57.7969 Q24.0625,57.6875 24.4688,57.3281 Q24.7344,57.125 24.875,57.0625 Q25.0156,57 25.1875,57 Q25.5156,57 25.75,57.2656 Q26,57.5156 26,57.875 Q26,58.2188 25.6563,58.625 Q25.1563,59.2188 24.3594,59.5469 Q23.3125,60 22.0313,60 Q20.5313,60 19.3281,59.4063 Q18.3594,58.9375 17.6719,57.9219 Q17,56.9063 17,55.7031 L17,54.6094 Q17,53.3594 17.5938,52.2656 Q18.2031,51.1719 19.25,50.5938 Q20.3125,50 21.5,50 Q22.2188,50 22.8438,50.25 Q23.4688,50.5 24,51 Z " fill="#000000"/><text fill="#000000" font-family="sans-serif" font-size="14" lengthAdjust="spacing" textLength="129" x="36" y="59.3535">SystemAdministrator</text><line style="stroke:#181818;stroke-width:0.5;" x1="8" x2="167" y1="70.5" y2="70.5"/><line style="stroke:#181818;stroke-width:0.5;" x1="8" x2="167" y1="78.5" y2="78.5"/></g><!--class Employee--><g id="elem_Employee"><rect codeLine="17" fill="#F1F1F1" height="141.8438" id="Employee" rx="2.5" ry="2.5" style="stroke:#181818;stroke-width:0.5;" width="96" x="160.5" y="194"/><ellipse cx="176.4" cy="210" fill="#C2C2C2" rx="11" ry="11" style="stroke:#181818;stroke-width:1.0;"/><path d="M178.4,206.5 Q178.6031,206 178.8375,205.75 Q179.0719,205.5 179.3375,205.5 Q179.8063,205.5 180.1031,205.7813 Q180.4,206.0625 180.4,206.7188 L180.4,208.2813 Q180.4,208.9375 180.1188,209.2188 Q179.8375,209.5 179.4,209.5 Q179.0094,209.5 178.7594,209.3281 Q178.5094,209.1563 178.4,208.7031 Q178.3531,208.3906 178.1813,208.2188 Q177.8688,207.8906 177.3063,207.7031 Q176.7438,207.5 176.1813,207.5 Q175.4781,207.5 174.8844,207.7813 Q174.3063,208.0625 173.8531,208.6875 Q173.4,209.3125 173.4,210.1719 L173.4,211.0938 Q173.4,212.125 174.2438,212.8125 Q175.0875,213.5 176.5875,213.5 Q177.4781,213.5 178.1031,213.2969 Q178.4625,213.1875 178.8688,212.8281 Q179.1344,212.625 179.275,212.5625 Q179.4156,212.5 179.5875,212.5 Q179.9156,212.5 180.15,212.7656 Q180.4,213.0156 180.4,213.375 Q180.4,213.7188 180.0563,214.125 Q179.5563,214.7188 178.7594,215.0469 Q177.7125,215.5 176.4313,215.5 Q174.9313,215.5 173.7281,214.9063 Q172.7594,214.4375 172.0719,213.4219 Q171.4,212.4063 171.4,211.2031 L171.4,210.1094 Q171.4,208.8594 171.9938,207.7656 Q172.6031,206.6719 173.65,206.0938 Q174.7125,205.5 175.9,205.5 Q176.6188,205.5 177.2438,205.75 Q177.8688,206 178.4,206.5 Z " fill="#000000"/><text fill="#000000" font-family="sans-serif" font-size="14" lengthAdjust="spacing" textLength="62" x="190.6" y="214.8535">Employee</text><line style="stroke:#181818;stroke-width:0.5;" x1="161.5" x2="255.5" y1="226" y2="226"/><rect fill="none" height="6" style="stroke:#595959;stroke-width:1.0;" width="6" x="168.5" y="236.3203"/><text fill="#000000" font-family="sans-serif" font-size="14" lengthAdjust="spacing" textLength="35" x="180.5" y="242.6738">name</text><rect fill="none" height="6" style="stroke:#595959;stroke-width:1.0;" width="6" x="168.5" y="251.9609"/><text fill="#000000" font-family="sans-serif" font-size="14" lengthAdjust="spacing" textLength="11" x="180.5" y="258.3145">id</text><rect fill="none" height="6" style="stroke:#595959;stroke-width:1.0;" width="6" x="168.5" y="267.6016"/><text fill="#000000" font-family="sans-serif" font-size="14" lengthAdjust="spacing" textLength="48" x="180.5" y="273.9551">number</text><rect fill="none" height="6" style="stroke:#595959;stroke-width:1.0;" width="6" x="168.5" y="283.2422"/><text fill="#000000" font-family="sans-serif" font-size="14" lengthAdjust="spacing" textLength="46" x="180.5" y="289.5957">agency</text><rect fill="none" height="6" style="stroke:#595959;stroke-width:1.0;" width="6" x="168.5" y="298.8828"/><text fill="#000000" font-family="sans-serif" font-size="14" lengthAdjust="spacing" textLength="70" x="180.5" y="305.2363">tax number</text><rect fill="none" height="6" style="stroke:#595959;stroke-width:1.0;" width="6" x="168.5" y="314.5234"/><text fill="#000000" font-family="sans-serif" font-size="14" lengthAdjust="spacing" textLength="24" x="180.5" y="320.877">role</text><line style="stroke:#181818;stroke-width:0.5;" x1="161.5" x2="255.5" y1="327.8438" y2="327.8438"/></g><!--class Store--><g id="elem_Store"><rect codeLine="26" fill="#F1F1F1" height="110.5625" id="Store" rx="2.5" ry="2.5" style="stroke:#181818;stroke-width:0.5;" width="141" x="261" y="7"/><ellipse cx="310.25" cy="23" fill="#C2C2C2" rx="11" ry="11" style="stroke:#181818;stroke-width:1.0;"/><path d="M312.25,19.5 Q312.4531,19 312.6875,18.75 Q312.9219,18.5 313.1875,18.5 Q313.6563,18.5 313.9531,18.7813 Q314.25,19.0625 314.25,19.7188 L314.25,21.2813 Q314.25,21.9375 313.9688,22.2188 Q313.6875,22.5 313.25,22.5 Q312.8594,22.5 312.6094,22.3281 Q312.3594,22.1563 312.25,21.7031 Q312.2031,21.3906 312.0313,21.2188 Q311.7188,20.8906 311.1563,20.7031 Q310.5938,20.5 310.0313,20.5 Q309.3281,20.5 308.7344,20.7813 Q308.1563,21.0625 307.7031,21.6875 Q307.25,22.3125 307.25,23.1719 L307.25,24.0938 Q307.25,25.125 308.0938,25.8125 Q308.9375,26.5 310.4375,26.5 Q311.3281,26.5 311.9531,26.2969 Q312.3125,26.1875 312.7188,25.8281 Q312.9844,25.625 313.125,25.5625 Q313.2656,25.5 313.4375,25.5 Q313.7656,25.5 314,25.7656 Q314.25,26.0156 314.25,26.375 Q314.25,26.7188 313.9063,27.125 Q313.4063,27.7188 312.6094,28.0469 Q311.5625,28.5 310.2813,28.5 Q308.7813,28.5 307.5781,27.9063 Q306.6094,27.4375 305.9219,26.4219 Q305.25,25.4063 305.25,24.2031 L305.25,23.1094 Q305.25,21.8594 305.8438,20.7656 Q306.4531,19.6719 307.5,19.0938 Q308.5625,18.5 309.75,18.5 Q310.4688,18.5 311.0938,18.75 Q311.7188,19 312.25,19.5 Z " fill="#000000"/><text fill="#000000" font-family="sans-serif" font-size="14" lengthAdjust="spacing" textLength="34" x="330.75" y="27.8535">Store</text><line style="stroke:#181818;stroke-width:0.5;" x1="262" x2="401" y1="39" y2="39"/><rect fill="none" height="6" style="stroke:#595959;stroke-width:1.0;" width="6" x="269" y="49.3203"/><text fill="#000000" font-family="sans-serif" font-size="14" lengthAdjust="spacing" textLength="73" x="281" y="55.6738">designation</text><rect fill="none" height="6" style="stroke:#595959;stroke-width:1.0;" width="6" x="269" y="64.9609"/><text fill="#000000" font-family="sans-serif" font-size="14" lengthAdjust="spacing" textLength="49" x="281" y="71.3145">location</text><rect fill="none" height="6" style="stroke:#595959;stroke-width:1.0;" width="6" x="269" y="80.6016"/><text fill="#000000" font-family="sans-serif" font-size="14" lengthAdjust="spacing" textLength="81" x="281" y="86.9551">email-adress</text><rect fill="none" height="6" style="stroke:#595959;stroke-width:1.0;" width="6" x="269" y="96.2422"/><text fill="#000000" font-family="sans-serif" font-size="14" lengthAdjust="spacing" textLength="115" x="281" y="102.5957">telephone number</text><line style="stroke:#181818;stroke-width:0.5;" x1="262" x2="401" y1="109.5625" y2="109.5625"/></g><!--link SystemAdministrator to Store--><g id="link_SystemAdministrator_Store"><path codeLine="34" d="M168.07,62.5 C198.05,62.5 231.83,62.5 260.85,62.5 " fill="none" id="SystemAdministrator-Store" style="stroke:#181818;stroke-width:1.0;"/><polygon fill="#000000" points="195.5,51.7617,186.4549,48.8228,186.4549,54.7006,195.5,51.7617" style="stroke:#000000;stroke-width:1.0;"/><text fill="#000000" font-family="sans-serif" font-size="13" lengthAdjust="spacing" textLength="43" x="199.5" y="56.2686">register</text><text fill="#000000" font-family="sans-serif" font-size="13" lengthAdjust="spacing" textLength="7" x="176.0829" y="59.6263">1</text><text fill="#000000" font-family="sans-serif" font-size="13" lengthAdjust="spacing" textLength="5" x="247.8492" y="59.5555">*</text></g><!--link Store to Employee--><g id="link_Store_Employee"><path codeLine="36" d="M298.05,118.02 C283.75,141.33 266.88,168.84 251.66,193.65 " fill="none" id="Store-Employee" style="stroke:#181818;stroke-width:1.0;"/><polygon fill="#000000" points="278.8857,160.5238,286.1202,154.3502,281.1098,151.277,278.8857,160.5238" style="stroke:#000000;stroke-width:1.0;"/><text fill="#000000" font-family="sans-serif" font-size="13" lengthAdjust="spacing" textLength="21" x="290.5" y="160.7686">has</text><text fill="#000000" font-family="sans-serif" font-size="13" lengthAdjust="spacing" textLength="7" x="286.5467" y="137.4667">1</text><text fill="#000000" font-family="sans-serif" font-size="13" lengthAdjust="spacing" textLength="5" x="250.8531" y="183.3738">*</text></g><!--link SystemAdministrator to Employee--><g id="link_SystemAdministrator_Employee"><path codeLine="38" d="M101.62,86.89 C117.39,113.03 143.67,156.58 166.23,193.95 " fill="none" id="SystemAdministrator-Employee" style="stroke:#181818;stroke-width:1.0;"/><polygon fill="#000000" points="156.0835,160.5426,153.9262,151.2799,148.8937,154.317,156.0835,160.5426" style="stroke:#000000;stroke-width:1.0;"/><text fill="#000000" font-family="sans-serif" font-size="13" lengthAdjust="spacing" textLength="50" x="162.5" y="160.7686">registers</text><text fill="#000000" font-family="sans-serif" font-size="13" lengthAdjust="spacing" textLength="7" x="97.2086" y="106.3737">1</text><text fill="#000000" font-family="sans-serif" font-size="13" lengthAdjust="spacing" textLength="5" x="156.3333" y="183.219">*</text></g><!--SRC=[VP11QWCn34NtEeMPJQ3W3jbcKUYY9yW9L5lrcDYMiJoqGyZTAoQTDYqbNWdzzxyaxwRUgnp6iIOiVSxfqN4UNK8HwoE6XXb0Jh5KrD9aBkocnfbCRpFTA1NT2GCT-vB8D78TIqYtW4pe-JsMODum2G70EiKS5-cKdtsE9KflsBbjqakkYHUYRrGrkkCxm-MlzGosO2QmqMirvrTgO7NFuXQm7J_Crckisrv-JLAl9ucXO8zSm2PsNnLbZCcYRoIYCPIeJbne2zCO-6SzC-m7OytmC5pppK4_AgXApJofO-sjp1NQRb1kGbcHkw4R_nExclHz0W00]--></g></svg>