<?xml version="1.0" encoding="us-ascii" standalone="no"?><svg xmlns="http://www.w3.org/2000/svg" xmlns:xlink="http://www.w3.org/1999/xlink" contentStyleType="text/css" height="425px" preserveAspectRatio="none" style="width:685px;height:425px;background:#FFFFFF;" version="1.1" viewBox="0 0 685 425" width="685px" zoomAndPan="magnify"><defs/><g><text fill="#000000" font-family="sans-serif" font-size="14" font-weight="bold" lengthAdjust="spacing" textLength="156" x="257.75" y="22.6738">US003 - Domain Model</text><!--class SystemAdministrator--><g id="elem_SystemAdministrator"><rect codeLine="48" fill="#F1F1F1" height="25.6406" id="SystemAdministrator" rx="2.5" ry="2.5" style="stroke:#181818;stroke-width:0.5;" width="135" x="7" y="149.9506"/><text fill="#000000" font-family="sans-serif" font-size="14" lengthAdjust="spacing" textLength="129" x="10" y="167.6245">SystemAdministrator</text></g><!--class Employee--><g id="elem_Employee"><rect codeLine="51" fill="#F1F1F1" height="96.2031" id="Employee" rx="2.5" ry="2.5" style="stroke:#181818;stroke-width:0.5;" width="82" x="469.5" y="114.9506"/><text fill="#000000" font-family="sans-serif" font-size="14" lengthAdjust="spacing" textLength="62" x="479.5" y="132.6245">Employee</text><line style="stroke:#181818;stroke-width:0.5;" x1="470.5" x2="550.5" y1="140.5913" y2="140.5913"/><text fill="#000000" font-family="sans-serif" font-size="14" lengthAdjust="spacing" textLength="35" x="475.5" y="157.2651">name</text><text fill="#000000" font-family="sans-serif" font-size="14" lengthAdjust="spacing" textLength="11" x="475.5" y="172.9057">id</text><text fill="#000000" font-family="sans-serif" font-size="14" lengthAdjust="spacing" textLength="48" x="475.5" y="188.5463">number</text><text fill="#000000" font-family="sans-serif" font-size="14" lengthAdjust="spacing" textLength="70" x="475.5" y="204.187">tax number</text></g><polygon fill="none" points="509.1037,211.1537,515.5204,231.3484,501.5263,230.9422" style="stroke:#181818;stroke-width:1.0;"/><line style="stroke:#181818;stroke-width:1.0;" x1="508.5234" x2="508.5" y1="231.1453" y2="231.9506"/><line style="stroke:#181818;stroke-width:1.0;" x1="469.5" x2="449.16" y1="162.9843" y2="162.9506"/><line style="stroke:#181818;stroke-width:1.0;" x1="469.5" x2="449.41" y1="134.6686" y2="120.7606"/><line style="stroke:#181818;stroke-width:1.0;" x1="551.5" x2="571.51" y1="162.9839" y2="162.9506"/><!--class Role--><g id="elem_Role"><rect codeLine="30" fill="#F1F1F1" height="49.2813" id="Role" rx="2.5" ry="2.5" style="stroke:#181818;stroke-width:0.5;" width="36" x="642.5" y="138.4506"/><text fill="#000000" font-family="sans-serif" font-size="14" lengthAdjust="spacing" textLength="29" x="646" y="156.1245">Role</text><line style="stroke:#181818;stroke-width:0.5;" x1="643.5" x2="677.5" y1="164.0913" y2="164.0913"/><text fill="#000000" font-family="sans-serif" font-size="14" lengthAdjust="spacing" textLength="24" x="648.5" y="180.7651">role</text></g><!--class Agent--><g id="elem_Agent"><rect codeLine="20" fill="#F1F1F1" height="25.6406" id="Agent" rx="2.5" ry="2.5" style="stroke:#181818;stroke-width:0.5;" width="43" x="489" y="349.9506"/><text fill="#000000" font-family="sans-serif" font-size="14" lengthAdjust="spacing" textLength="37" x="492" y="367.6245">Agent</text></g><!--class StoreManager--><g id="elem_StoreManager"><rect codeLine="22" fill="#F1F1F1" height="25.6406" id="StoreManager" rx="2.5" ry="2.5" style="stroke:#181818;stroke-width:0.5;" width="96" x="567.5" y="349.9506"/><text fill="#000000" font-family="sans-serif" font-size="14" lengthAdjust="spacing" textLength="90" x="570.5" y="367.6245">StoreManager</text></g><!--class StoreNetworkManager--><g id="elem_StoreNetworkManager"><rect codeLine="24" fill="#F1F1F1" height="25.6406" id="StoreNetworkManager" rx="2.5" ry="2.5" style="stroke:#181818;stroke-width:0.5;" width="146" x="307.5" y="349.9506"/><text fill="#000000" font-family="sans-serif" font-size="14" lengthAdjust="spacing" textLength="140" x="310.5" y="367.6245">StoreNetworkManager</text></g><!--class Store--><g id="elem_Store"><rect codeLine="34" fill="#F1F1F1" height="80.5625" id="Store" rx="2.5" ry="2.5" style="stroke:#181818;stroke-width:0.5;" width="110" x="241.5" y="122.4506"/><text fill="#000000" font-family="sans-serif" font-size="14" lengthAdjust="spacing" textLength="34" x="279.5" y="140.1245">Store</text><line style="stroke:#181818;stroke-width:0.5;" x1="242.5" x2="350.5" y1="148.0913" y2="148.0913"/><text fill="#000000" font-family="sans-serif" font-size="14" lengthAdjust="spacing" textLength="73" x="247.5" y="164.7651">designation</text><text fill="#000000" font-family="sans-serif" font-size="14" lengthAdjust="spacing" textLength="33" x="247.5" y="180.4057">email</text><text fill="#000000" font-family="sans-serif" font-size="14" lengthAdjust="spacing" textLength="98" x="247.5" y="196.0463">contact number</text></g><!--class Adress--><g id="elem_Adress"><rect codeLine="40" fill="#F1F1F1" height="111.8438" id="Adress" rx="2.5" ry="2.5" style="stroke:#181818;stroke-width:0.5;" width="63" x="209" y="306.9506"/><text fill="#000000" font-family="sans-serif" font-size="14" lengthAdjust="spacing" textLength="44" x="218.5" y="324.6245">Adress</text><line style="stroke:#181818;stroke-width:0.5;" x1="210" x2="271" y1="332.5913" y2="332.5913"/><text fill="#000000" font-family="sans-serif" font-size="14" lengthAdjust="spacing" textLength="36" x="215" y="349.2651">street</text><text fill="#000000" font-family="sans-serif" font-size="14" lengthAdjust="spacing" textLength="51" x="215" y="364.9057">zipCode</text><text fill="#000000" font-family="sans-serif" font-size="14" lengthAdjust="spacing" textLength="24" x="215" y="380.5463">City</text><text fill="#000000" font-family="sans-serif" font-size="14" lengthAdjust="spacing" textLength="50" x="215" y="396.187">Country</text><text fill="#000000" font-family="sans-serif" font-size="14" lengthAdjust="spacing" textLength="33" x="215" y="411.8276">State</text></g><!--link SystemAdministrator to Store--><g id="link_SystemAdministrator_Store"><path codeLine="58" d="M142.01,162.9506 C173.78,162.9506 211.18,162.9506 241.23,162.9506 " fill="none" id="SystemAdministrator-Store" style="stroke:#181818;stroke-width:1.0;"/><polygon fill="#000000" points="169.25,152.2123,160.2049,149.2734,160.2049,155.1513,169.25,152.2123" style="stroke:#000000;stroke-width:1.0;"/><text fill="#000000" font-family="sans-serif" font-size="13" lengthAdjust="spacing" textLength="50" x="173.25" y="156.7192">registers</text><text fill="#000000" font-family="sans-serif" font-size="13" lengthAdjust="spacing" textLength="7" x="150.2205" y="159.9608">1</text><text fill="#000000" font-family="sans-serif" font-size="13" lengthAdjust="spacing" textLength="5" x="228.4672" y="159.8431">*</text></g><!--link Store to Adress--><g id="link_Store_Adress"><path codeLine="60" d="M269.89,203.7606 C260.02,220.6606 249.92,241.0406 244.5,260.9506 C240.54,275.5106 238.78,291.6906 238.2,306.7506 " fill="none" id="Store-Adress" style="stroke:#181818;stroke-width:1.0;"/><polygon fill="#000000" points="248.0295,273.9912,253.4986,266.2105,247.8807,264.4818,248.0295,273.9912" style="stroke:#000000;stroke-width:1.0;"/><text fill="#000000" font-family="sans-serif" font-size="13" lengthAdjust="spacing" textLength="57" x="258.5" y="273.7192">located at</text><text fill="#000000" font-family="sans-serif" font-size="13" lengthAdjust="spacing" textLength="5" x="260.4325" y="222.9237">*</text><text fill="#000000" font-family="sans-serif" font-size="13" lengthAdjust="spacing" textLength="7" x="230.4206" y="296.0723">1</text></g><!--link Store to Employee--><g id="link_Store_Employee"><path codeLine="62" d="M351.61,162.9506 C381.46,162.9506 418.41,162.9506 449.16,162.9506 " fill="none" id="Store-Employee" style="stroke:#181818;stroke-width:1.0;"/><polygon fill="#000000" points="369,152.2123,378.0451,155.1513,378.0451,149.2734,369,152.2123" style="stroke:#000000;stroke-width:1.0;"/><text fill="#000000" font-family="sans-serif" font-size="13" lengthAdjust="spacing" textLength="48" x="383" y="156.7192">works in</text><text fill="#000000" font-family="sans-serif" font-size="13" lengthAdjust="spacing" textLength="7" x="359.4857" y="159.8431">1</text><text fill="#000000" font-family="sans-serif" font-size="13" lengthAdjust="spacing" textLength="5" x="436.3795" y="159.8856">*</text></g><!--link SystemAdministrator to Employee--><g id="link_SystemAdministrator_Employee"><path codeLine="64" d="M89.8,149.9206 C128.61,118.4706 234.5,42.6406 328,65.9506 C371.17,76.7106 415.34,99.8006 449.41,120.7606 " fill="none" id="SystemAdministrator-Employee" style="stroke:#181818;stroke-width:1.0;"/><polygon fill="#000000" points="272.9836,56.8082,263.7306,54.61,264.2057,60.4686,272.9836,56.8082" style="stroke:#000000;stroke-width:1.0;"/><text fill="#000000" font-family="sans-serif" font-size="13" lengthAdjust="spacing" textLength="50" x="277" y="61.7192">registers</text><text fill="#000000" font-family="sans-serif" font-size="13" lengthAdjust="spacing" textLength="7" x="87.9625" y="139.1192">1</text><text fill="#000000" font-family="sans-serif" font-size="13" lengthAdjust="spacing" textLength="5" x="436.66" y="112.5537">*</text></g><!--link Employee to Role--><g id="link_Employee_Role"><path codeLine="66" d="M571.51,162.9506 C596.98,162.9506 624.68,162.9506 642.29,162.9506 " fill="none" id="Employee-Role" style="stroke:#181818;stroke-width:1.0;"/><polygon fill="#000000" points="599,152.2123,589.9549,149.2734,589.9549,155.1513,599,152.2123" style="stroke:#000000;stroke-width:1.0;"/><text fill="#000000" font-family="sans-serif" font-size="13" lengthAdjust="spacing" textLength="21" x="603" y="156.7192">has</text><text fill="#000000" font-family="sans-serif" font-size="13" lengthAdjust="spacing" textLength="7" x="579.3722" y="159.8856">1</text><text fill="#000000" font-family="sans-serif" font-size="13" lengthAdjust="spacing" textLength="7" x="627.5558" y="158.2686">1</text></g><!--reverse link Employee to StoreNetworkManager--><g id="link_Employee_StoreNetworkManager"><path codeLine="68" d="M508.5,231.9506 C508.5,231.9506 424.81,316.9506 392.77,349.4906 " fill="none" id="Employee-backto-StoreNetworkManager" style="stroke:#181818;stroke-width:1.0;"/></g><!--reverse link Employee to StoreManager--><g id="link_Employee_StoreManager"><path codeLine="70" d="M508.5,231.9506 C508.5,231.9506 524.02,247.5906 535.5,260.9506 C562.32,292.1706 591.92,330.6906 606.44,349.8806 " fill="none" id="Employee-backto-StoreManager" style="stroke:#181818;stroke-width:1.0;"/></g><!--reverse link Employee to Agent--><g id="link_Employee_Agent"><path codeLine="72" d="M508.5,231.9506 C508.5,231.9506 509.81,316.9506 510.31,349.4906 " fill="none" id="Employee-backto-Agent" style="stroke:#181818;stroke-width:1.0;"/></g><!--link StoreNetworkManager to Store--><g id="link_StoreNetworkManager_Store"><path codeLine="74" d="M375.37,349.8606 C363.3,321.4006 332.64,249.1406 313.3,203.5406 " fill="none" id="StoreNetworkManager-Store" style="stroke:#181818;stroke-width:1.0;"/><polygon fill="#000000" points="347.5474,264.6094,348.3741,274.0839,353.7853,271.7885,347.5474,264.6094" style="stroke:#000000;stroke-width:1.0;"/><text fill="#000000" font-family="sans-serif" font-size="13" lengthAdjust="spacing" textLength="53" x="358.5" y="273.7192">manages</text><text fill="#000000" font-family="sans-serif" font-size="13" lengthAdjust="spacing" textLength="7" x="364.5944" y="339.0329">1</text><text fill="#000000" font-family="sans-serif" font-size="13" lengthAdjust="spacing" textLength="5" x="310.4897" y="222.67">*</text></g><!--SRC=[ZP9DJ-Gm38Rl_XNMN91M6WR43Q6LqC210nnsj3_09DuscdnKYIkss-M_uyv7wOWYkEIGz_7hDtREQf6cNAzMZQSeRV3d9eMLyLJAqZggCWK0SU8PVsykBgvmYNSfa8luc2nxWB9riI75CAIOJ9rJO9JSyaHfo6ofuerqQfFP2CNAJu5IaqqlBbRuXtnXg9rbvD18Xu73C-SoWQkSskOXrfoT6Xd6gprlN3Rg2hlmkEcASBYrmKLN99EaV9JkG-DJnoFwAtshxBRYA2Ed0ZzIr6VbaxidbfUKjtFIQ6GpbpBjtaCUChoUu3rOBgwA92v5O1sw1vEYa16CxJ2LzuAzPGyQcLdWdslMkXvOE-bWdTeekOEDa4nxV7nf_wuUPzH3fC3WB1nQ2lsTT9ynmSNbGd_9uiTY_moyrfLNgkeMyQUMx2u7URdSiVliYlbaDA55aWatcXqJAJWCkA3-mPkl4aoAJaACzmTKps4FYjLq2jpyrvZpgvrZFX4FVsV6PcPSOQSCCTu0]--></g></svg>