<?xml version="1.0" encoding="us-ascii" standalone="no"?><svg xmlns="http://www.w3.org/2000/svg" xmlns:xlink="http://www.w3.org/1999/xlink" contentStyleType="text/css" height="369px" preserveAspectRatio="none" style="width:741px;height:369px;background:#FFFFFF;" version="1.1" viewBox="0 0 741 369" width="741px" zoomAndPan="magnify"><defs/><g><text fill="#000000" font-family="sans-serif" font-size="14" font-weight="bold" lengthAdjust="spacing" textLength="361" x="191.75" y="28.5352">Sequence Diagram Partial - Get List Of Properties</text><rect fill="#FFFFFF" height="208.1738" style="stroke:#181818;stroke-width:1.0;" width="10" x="94" y="100.4648"/><rect fill="#FFFFFF" height="29.3105" style="stroke:#181818;stroke-width:1.0;" width="10" x="234.5" y="146.0859"/><rect fill="#FFFFFF" height="29.3105" style="stroke:#181818;stroke-width:1.0;" width="10" x="396" y="204.707"/><rect fill="#FFFFFF" height="29.3105" style="stroke:#181818;stroke-width:1.0;" width="10" x="589" y="263.3281"/><rect fill="none" height="193.1738" style="stroke:#000000;stroke-width:1.5;" width="725.5" x="10" y="107.4648"/><line style="stroke:#181818;stroke-width:0.5;stroke-dasharray:5.0,5.0;" x1="99" x2="99" y1="90.4648" y2="317.6387"/><line style="stroke:#181818;stroke-width:0.5;stroke-dasharray:5.0,5.0;" x1="239" x2="239" y1="90.4648" y2="317.6387"/><line style="stroke:#181818;stroke-width:0.5;stroke-dasharray:5.0,5.0;" x1="400.5" x2="400.5" y1="90.4648" y2="317.6387"/><line style="stroke:#181818;stroke-width:0.5;stroke-dasharray:5.0,5.0;" x1="593.5" x2="593.5" y1="90.4648" y2="317.6387"/><rect fill="#E2E2F0" height="30.4883" rx="2.5" ry="2.5" style="stroke:#181818;stroke-width:0.5;" width="158" x="20" y="58.9766"/><text fill="#000000" font-family="sans-serif" font-size="14" lengthAdjust="spacing" textLength="144" x="27" y="79.5117">:PlaceOfferController</text><rect fill="#E2E2F0" height="30.4883" rx="2.5" ry="2.5" style="stroke:#181818;stroke-width:0.5;" width="158" x="20" y="316.6387"/><text fill="#000000" font-family="sans-serif" font-size="14" lengthAdjust="spacing" textLength="144" x="27" y="337.1738">:PlaceOfferController</text><rect fill="#E2E2F0" height="30.4883" rx="2.5" ry="2.5" style="stroke:#181818;stroke-width:0.5;" width="103" x="188" y="58.9766"/><text fill="#000000" font-family="sans-serif" font-size="14" lengthAdjust="spacing" textLength="89" x="195" y="79.5117">:Repositories</text><rect fill="#E2E2F0" height="30.4883" rx="2.5" ry="2.5" style="stroke:#181818;stroke-width:0.5;" width="103" x="188" y="316.6387"/><text fill="#000000" font-family="sans-serif" font-size="14" lengthAdjust="spacing" textLength="89" x="195" y="337.1738">:Repositories</text><rect fill="#E2E2F0" height="46.9766" rx="2.5" ry="2.5" style="stroke:#181818;stroke-width:0.5;" width="103" x="349.5" y="42.4883"/><text fill="#000000" font-family="sans-serif" font-size="14" lengthAdjust="spacing" textLength="82" x="360" y="63.0234">repositories</text><text fill="#000000" font-family="sans-serif" font-size="14" lengthAdjust="spacing" textLength="89" x="356.5" y="79.5117">:Repositories</text><rect fill="#E2E2F0" height="46.9766" rx="2.5" ry="2.5" style="stroke:#181818;stroke-width:0.5;" width="103" x="349.5" y="316.6387"/><text fill="#000000" font-family="sans-serif" font-size="14" lengthAdjust="spacing" textLength="82" x="360" y="337.1738">repositories</text><text fill="#000000" font-family="sans-serif" font-size="14" lengthAdjust="spacing" textLength="89" x="356.5" y="353.6621">:Repositories</text><rect fill="#E2E2F0" height="46.9766" rx="2.5" ry="2.5" style="stroke:#181818;stroke-width:0.5;" width="263" x="462.5" y="42.4883"/><text fill="#000000" font-family="sans-serif" font-size="14" lengthAdjust="spacing" textLength="246" x="471" y="63.0234">publishedAnnouncementRepository</text><text fill="#000000" font-family="sans-serif" font-size="14" lengthAdjust="spacing" textLength="249" x="469.5" y="79.5117">:PublishedAnnouncementRepository</text><rect fill="#E2E2F0" height="46.9766" rx="2.5" ry="2.5" style="stroke:#181818;stroke-width:0.5;" width="263" x="462.5" y="316.6387"/><text fill="#000000" font-family="sans-serif" font-size="14" lengthAdjust="spacing" textLength="246" x="471" y="337.1738">publishedAnnouncementRepository</text><text fill="#000000" font-family="sans-serif" font-size="14" lengthAdjust="spacing" textLength="249" x="469.5" y="353.6621">:PublishedAnnouncementRepository</text><rect fill="#FFFFFF" height="208.1738" style="stroke:#181818;stroke-width:1.0;" width="10" x="94" y="100.4648"/><rect fill="#FFFFFF" height="29.3105" style="stroke:#181818;stroke-width:1.0;" width="10" x="234.5" y="146.0859"/><rect fill="#FFFFFF" height="29.3105" style="stroke:#181818;stroke-width:1.0;" width="10" x="396" y="204.707"/><rect fill="#FFFFFF" height="29.3105" style="stroke:#181818;stroke-width:1.0;" width="10" x="589" y="263.3281"/><path d="M10,107.4648 L199,107.4648 L199,114.7754 L189,124.7754 L10,124.7754 L10,107.4648 " fill="#EEEEEE" style="stroke:#000000;stroke-width:1.5;"/><rect fill="none" height="193.1738" style="stroke:#000000;stroke-width:1.5;" width="725.5" x="10" y="107.4648"/><text fill="#000000" font-family="sans-serif" font-size="13" font-weight="bold" lengthAdjust="spacing" textLength="144" x="25" y="121.0332">Get List Of Properties</text><polygon fill="#181818" points="222.5,142.0859,232.5,146.0859,222.5,150.0859,226.5,146.0859" style="stroke:#181818;stroke-width:1.0;"/><line style="stroke:#181818;stroke-width:1.0;" x1="104" x2="228.5" y1="146.0859" y2="146.0859"/><text fill="#000000" font-family="sans-serif" font-size="13" font-weight="bold" lengthAdjust="spacing" textLength="18" x="111" y="141.3438">13</text><text fill="#000000" font-family="sans-serif" font-size="13" lengthAdjust="spacing" textLength="81" x="133" y="141.3438">getInstance()</text><polygon fill="#181818" points="115,171.3965,105,175.3965,115,179.3965,111,175.3965" style="stroke:#181818;stroke-width:1.0;"/><line style="stroke:#181818;stroke-width:1.0;stroke-dasharray:2.0,2.0;" x1="109" x2="238.5" y1="175.3965" y2="175.3965"/><text fill="#000000" font-family="sans-serif" font-size="13" font-weight="bold" lengthAdjust="spacing" textLength="18" x="121" y="170.6543">14</text><text fill="#000000" font-family="sans-serif" font-size="13" lengthAdjust="spacing" textLength="75" x="143" y="170.6543">repositories</text><polygon fill="#181818" points="384,200.707,394,204.707,384,208.707,388,204.707" style="stroke:#181818;stroke-width:1.0;"/><line style="stroke:#181818;stroke-width:1.0;" x1="104" x2="390" y1="204.707" y2="204.707"/><text fill="#000000" font-family="sans-serif" font-size="13" font-weight="bold" lengthAdjust="spacing" textLength="18" x="111" y="199.9648">15</text><text fill="#000000" font-family="sans-serif" font-size="13" lengthAdjust="spacing" textLength="251" x="133" y="199.9648">getPublishedAnnouncementRepository()</text><polygon fill="#181818" points="115,230.0176,105,234.0176,115,238.0176,111,234.0176" style="stroke:#181818;stroke-width:1.0;"/><line style="stroke:#181818;stroke-width:1.0;stroke-dasharray:2.0,2.0;" x1="109" x2="400" y1="234.0176" y2="234.0176"/><text fill="#000000" font-family="sans-serif" font-size="13" font-weight="bold" lengthAdjust="spacing" textLength="18" x="121" y="229.2754">16</text><text fill="#000000" font-family="sans-serif" font-size="13" lengthAdjust="spacing" textLength="223" x="143" y="229.2754">PublishedAnnouncementRepository</text><polygon fill="#181818" points="577,259.3281,587,263.3281,577,267.3281,581,263.3281" style="stroke:#181818;stroke-width:1.0;"/><line style="stroke:#181818;stroke-width:1.0;" x1="104" x2="583" y1="263.3281" y2="263.3281"/><text fill="#000000" font-family="sans-serif" font-size="13" font-weight="bold" lengthAdjust="spacing" textLength="18" x="111" y="258.5859">17</text><text fill="#000000" font-family="sans-serif" font-size="13" lengthAdjust="spacing" textLength="129" x="133" y="258.5859">getListOfProperties()</text><polygon fill="#181818" points="115,288.6387,105,292.6387,115,296.6387,111,292.6387" style="stroke:#181818;stroke-width:1.0;"/><line style="stroke:#181818;stroke-width:1.0;stroke-dasharray:2.0,2.0;" x1="109" x2="593" y1="292.6387" y2="292.6387"/><text fill="#000000" font-family="sans-serif" font-size="13" font-weight="bold" lengthAdjust="spacing" textLength="18" x="121" y="287.8965">18</text><text fill="#000000" font-family="sans-serif" font-size="13" lengthAdjust="spacing" textLength="98" x="143" y="287.8965">listOfProperties</text><!--SRC=[XP8nRuCm48Lt_ufJfdHWgBenLAfQAQeK2PIiNIvmK4l6TkrpfVxx6Y8LanAy0RxtlNVFi6H5SAQlGBeXU9FOEnoWHiSI5HHm88QZz0nL1xKpbk81UI7iED58YvfXLzOA6wgwZjohqUoCKkHsW1xcrnl5YQpnaesBj6doxyFFMUfU4HkzbBX4yQ4t06E-XTA6YvB-azeNhKs8UmwaUVQBi7fxOk9dPeJ043E7uK8E7f-4E3WJxDt-i67vZKnfGs9-Xk9vhH4eeIT-rvun1jW_p9Yr-iGQeOZanAU4j5VHqZRnJi8elKRBbBIQUEfZWLfcBBFLhwMUgCku6SnrW_6ogcw-gZHozXV8EVmhNzsufQjatKYtuXS0]--></g></svg>