<?xml version="1.0" encoding="us-ascii" standalone="no"?><svg xmlns="http://www.w3.org/2000/svg" xmlns:xlink="http://www.w3.org/1999/xlink" contentStyleType="text/css" height="669px" preserveAspectRatio="none" style="width:760px;height:669px;background:#FFFFFF;" version="1.1" viewBox="0 0 760 669" width="760px" zoomAndPan="magnify"><defs/><g><text fill="#000000" font-family="sans-serif" font-size="14" font-weight="bold" lengthAdjust="spacing" textLength="356" x="201.25" y="28.5352">US010 - Sequence Diagram Partial - Create Offer</text><rect fill="#FFFFFF" height="508.2832" style="stroke:#181818;stroke-width:1.0;" width="10" x="63" y="100.4648"/><rect fill="#FFFFFF" height="298.7305" style="stroke:#181818;stroke-width:1.0;" width="10" x="269.5" y="131.7754"/><rect fill="#FFFFFF" height="30" style="stroke:#181818;stroke-width:1.0;" width="10" x="679.5" y="163.2637"/><rect fill="#FFFFFF" height="30" style="stroke:#181818;stroke-width:1.0;" width="10" x="679.5" y="222.5742"/><rect fill="#FFFFFF" height="30" style="stroke:#181818;stroke-width:1.0;" width="10" x="679.5" y="281.8848"/><rect fill="#FFFFFF" height="30" style="stroke:#181818;stroke-width:1.0;" width="10" x="679.5" y="341.1953"/><rect fill="#FFFFFF" height="30" style="stroke:#181818;stroke-width:1.0;" width="10" x="679.5" y="400.5059"/><line style="stroke:#181818;stroke-width:0.5;stroke-dasharray:5.0,5.0;" x1="68" x2="68" y1="90.4648" y2="617.748"/><line style="stroke:#181818;stroke-width:0.5;stroke-dasharray:5.0,5.0;" x1="274" x2="274" y1="131.209" y2="617.748"/><line style="stroke:#181818;stroke-width:0.5;stroke-dasharray:5.0,5.0;" x1="684.5" x2="684.5" y1="90.4648" y2="617.748"/><rect fill="#E3E3E3" height="46.9766" rx="2.5" ry="2.5" style="stroke:#181818;stroke-width:0.5;" width="126" x="5" y="42.4883"/><text fill="#000000" font-family="sans-serif" font-size="14" lengthAdjust="spacing" textLength="106" x="15" y="63.0234">offerRepository</text><text fill="#000000" font-family="sans-serif" font-size="14" lengthAdjust="spacing" textLength="112" x="12" y="79.5117">:OfferRepository</text><rect fill="#E3E3E3" height="46.9766" rx="2.5" ry="2.5" style="stroke:#181818;stroke-width:0.5;" width="126" x="5" y="616.748"/><text fill="#000000" font-family="sans-serif" font-size="14" lengthAdjust="spacing" textLength="106" x="15" y="637.2832">offerRepository</text><text fill="#000000" font-family="sans-serif" font-size="14" lengthAdjust="spacing" textLength="112" x="12" y="653.7715">:OfferRepository</text><rect fill="#E3E3E3" height="30.4883" rx="2.5" ry="2.5" style="stroke:#181818;stroke-width:0.5;" width="49" x="250" y="616.748"/><text fill="#000000" font-family="sans-serif" font-size="14" lengthAdjust="spacing" textLength="35" x="257" y="637.2832">Offer</text><rect fill="#E3E3E3" height="30.4883" rx="2.5" ry="2.5" style="stroke:#181818;stroke-width:0.5;" width="140" x="614.5" y="58.9766"/><text fill="#000000" font-family="sans-serif" font-size="14" lengthAdjust="spacing" textLength="126" x="621.5" y="79.5117">offerDto:OfferDTO</text><rect fill="#E3E3E3" height="30.4883" rx="2.5" ry="2.5" style="stroke:#181818;stroke-width:0.5;" width="140" x="614.5" y="616.748"/><text fill="#000000" font-family="sans-serif" font-size="14" lengthAdjust="spacing" textLength="126" x="621.5" y="637.2832">offerDto:OfferDTO</text><rect fill="#FFFFFF" height="508.2832" style="stroke:#181818;stroke-width:1.0;" width="10" x="63" y="100.4648"/><rect fill="#FFFFFF" height="298.7305" style="stroke:#181818;stroke-width:1.0;" width="10" x="269.5" y="131.7754"/><rect fill="#FFFFFF" height="30" style="stroke:#181818;stroke-width:1.0;" width="10" x="679.5" y="163.2637"/><rect fill="#FFFFFF" height="30" style="stroke:#181818;stroke-width:1.0;" width="10" x="679.5" y="222.5742"/><rect fill="#FFFFFF" height="30" style="stroke:#181818;stroke-width:1.0;" width="10" x="679.5" y="281.8848"/><rect fill="#FFFFFF" height="30" style="stroke:#181818;stroke-width:1.0;" width="10" x="679.5" y="341.1953"/><rect fill="#FFFFFF" height="30" style="stroke:#181818;stroke-width:1.0;" width="10" x="679.5" y="400.5059"/><polygon fill="#181818" points="238,117.7754,248,121.7754,238,125.7754,242,121.7754" style="stroke:#181818;stroke-width:1.0;"/><line style="stroke:#181818;stroke-width:1.0;" x1="73" x2="244" y1="121.7754" y2="121.7754"/><text fill="#000000" font-family="sans-serif" font-size="13" font-weight="bold" lengthAdjust="spacing" textLength="18" x="80" y="117.0332">51</text><text fill="#000000" font-family="sans-serif" font-size="13" lengthAdjust="spacing" textLength="131" x="102" y="117.0332">createOffer(property)</text><rect fill="#E3E3E3" height="30.4883" rx="2.5" ry="2.5" style="stroke:#181818;stroke-width:0.5;" width="49" x="250" y="100.4648"/><text fill="#000000" font-family="sans-serif" font-size="14" lengthAdjust="spacing" textLength="35" x="257" y="121">Offer</text><polygon fill="#181818" points="667.5,159.2637,677.5,163.2637,667.5,167.2637,671.5,163.2637" style="stroke:#181818;stroke-width:1.0;"/><line style="stroke:#181818;stroke-width:1.0;" x1="279.5" x2="673.5" y1="163.2637" y2="163.2637"/><text fill="#000000" font-family="sans-serif" font-size="13" font-weight="bold" lengthAdjust="spacing" textLength="18" x="286.5" y="158.5215">52</text><text fill="#000000" font-family="sans-serif" font-size="13" lengthAdjust="spacing" textLength="116" x="308.5" y="158.5215">name = getName()</text><polygon fill="#181818" points="667.5,218.5742,677.5,222.5742,667.5,226.5742,671.5,222.5742" style="stroke:#181818;stroke-width:1.0;"/><line style="stroke:#181818;stroke-width:1.0;" x1="279.5" x2="673.5" y1="222.5742" y2="222.5742"/><text fill="#000000" font-family="sans-serif" font-size="13" font-weight="bold" lengthAdjust="spacing" textLength="18" x="286.5" y="217.832">53</text><text fill="#000000" font-family="sans-serif" font-size="13" lengthAdjust="spacing" textLength="118" x="308.5" y="217.832">client = getClient()</text><polygon fill="#181818" points="667.5,277.8848,677.5,281.8848,667.5,285.8848,671.5,281.8848" style="stroke:#181818;stroke-width:1.0;"/><line style="stroke:#181818;stroke-width:1.0;" x1="279.5" x2="673.5" y1="281.8848" y2="281.8848"/><text fill="#000000" font-family="sans-serif" font-size="13" font-weight="bold" lengthAdjust="spacing" textLength="18" x="286.5" y="277.1426">54</text><text fill="#000000" font-family="sans-serif" font-size="13" lengthAdjust="spacing" textLength="214" x="308.5" y="277.1426">orderAmount = getOrderAmount()</text><polygon fill="#181818" points="667.5,337.1953,677.5,341.1953,667.5,345.1953,671.5,341.1953" style="stroke:#181818;stroke-width:1.0;"/><line style="stroke:#181818;stroke-width:1.0;" x1="279.5" x2="673.5" y1="341.1953" y2="341.1953"/><text fill="#000000" font-family="sans-serif" font-size="13" font-weight="bold" lengthAdjust="spacing" textLength="18" x="286.5" y="336.4531">55</text><text fill="#000000" font-family="sans-serif" font-size="13" lengthAdjust="spacing" textLength="359" x="308.5" y="336.4531">publishedAnnouncement = getPublishedAnnouncement()</text><polygon fill="#181818" points="667.5,396.5059,677.5,400.5059,667.5,404.5059,671.5,400.5059" style="stroke:#181818;stroke-width:1.0;"/><line style="stroke:#181818;stroke-width:1.0;" x1="279.5" x2="673.5" y1="400.5059" y2="400.5059"/><text fill="#000000" font-family="sans-serif" font-size="13" font-weight="bold" lengthAdjust="spacing" textLength="18" x="286.5" y="395.7637">56</text><text fill="#000000" font-family="sans-serif" font-size="13" lengthAdjust="spacing" textLength="170" x="308.5" y="395.7637">offerState = getOfferState()</text><line style="stroke:#181818;stroke-width:1.0;" x1="73" x2="115" y1="459.8164" y2="459.8164"/><line style="stroke:#181818;stroke-width:1.0;" x1="115" x2="115" y1="459.8164" y2="472.8164"/><line style="stroke:#181818;stroke-width:1.0;" x1="74" x2="115" y1="472.8164" y2="472.8164"/><polygon fill="#181818" points="84,468.8164,74,472.8164,84,476.8164,80,472.8164" style="stroke:#181818;stroke-width:1.0;"/><text fill="#000000" font-family="sans-serif" font-size="13" font-weight="bold" lengthAdjust="spacing" textLength="18" x="80" y="455.0742">57</text><text fill="#000000" font-family="sans-serif" font-size="13" lengthAdjust="spacing" textLength="93" x="102" y="455.0742">addOffer(offer)</text><line style="stroke:#181818;stroke-width:1.0;" x1="73" x2="115" y1="502.127" y2="502.127"/><line style="stroke:#181818;stroke-width:1.0;" x1="115" x2="115" y1="502.127" y2="515.127"/><line style="stroke:#181818;stroke-width:1.0;" x1="74" x2="115" y1="515.127" y2="515.127"/><polygon fill="#181818" points="84,511.127,74,515.127,84,519.127,80,515.127" style="stroke:#181818;stroke-width:1.0;"/><text fill="#000000" font-family="sans-serif" font-size="13" font-weight="bold" lengthAdjust="spacing" textLength="18" x="80" y="497.3848">58</text><text fill="#000000" font-family="sans-serif" font-size="13" lengthAdjust="spacing" textLength="119" x="102" y="497.3848">validateOffer(offer)</text><line style="stroke:#181818;stroke-width:1.0;stroke-dasharray:2.0,2.0;" x1="73" x2="115" y1="544.4375" y2="544.4375"/><line style="stroke:#181818;stroke-width:1.0;stroke-dasharray:2.0,2.0;" x1="115" x2="115" y1="544.4375" y2="557.4375"/><line style="stroke:#181818;stroke-width:1.0;stroke-dasharray:2.0,2.0;" x1="74" x2="115" y1="557.4375" y2="557.4375"/><polygon fill="#181818" points="84,553.4375,74,557.4375,84,561.4375,80,557.4375" style="stroke:#181818;stroke-width:1.0;"/><text fill="#000000" font-family="sans-serif" font-size="13" font-weight="bold" lengthAdjust="spacing" textLength="18" x="80" y="539.6953">59</text><text fill="#000000" font-family="sans-serif" font-size="13" lengthAdjust="spacing" textLength="4" x="102" y="539.6953">&#160;</text><line style="stroke:#181818;stroke-width:1.0;stroke-dasharray:2.0,2.0;" x1="73" x2="115" y1="586.748" y2="586.748"/><line style="stroke:#181818;stroke-width:1.0;stroke-dasharray:2.0,2.0;" x1="115" x2="115" y1="586.748" y2="599.748"/><line style="stroke:#181818;stroke-width:1.0;stroke-dasharray:2.0,2.0;" x1="74" x2="115" y1="599.748" y2="599.748"/><polygon fill="#181818" points="84,595.748,74,599.748,84,603.748,80,599.748" style="stroke:#181818;stroke-width:1.0;"/><text fill="#000000" font-family="sans-serif" font-size="13" font-weight="bold" lengthAdjust="spacing" textLength="18" x="80" y="582.0059">60</text><text fill="#000000" font-family="sans-serif" font-size="13" lengthAdjust="spacing" textLength="4" x="102" y="582.0059">&#160;</text><!--SRC=[fPB1Ri8m38RlUGgB4o0XmM4Nf4r2SAPetMwxcDIKY3J9KfU9jr-QZbAWav2usRz_Vx4LbmTb77eieB36ohst1G7xYaJPLXpA0-QKyaaJU9AC9jTTGxd7pFueayCETKb2iE9W_KodiobC8ANlYemaM2dCQ_y6FIlKeRJqX4oGx7RaXN2rBfL3mp2mjVPEpfQAhJzzcNbohGm0IxZHhX6nUB7ry5Ti6-pg8ud6ioe4LcnDLMp9myiif9BLiPsrywAu4M3ordZ6OvY3Z0l6VEYyTUJvDBg1_I7gnlFpeTDW-8bNo8dN8HfscjePCxhNUbbIAmexHzeoni_nhC_8BmfRdQ79HNYExAgjLkMUieKnWIQfQ0VVz9MUtACEKwwDpHfj_ZYt8tP_i-SWEj8SCCkQguYaqODTHzGgQm_gtzRxtWTDlm00]--></g></svg>