<?xml version="1.0" encoding="us-ascii" standalone="no"?><svg xmlns="http://www.w3.org/2000/svg" xmlns:xlink="http://www.w3.org/1999/xlink" contentStyleType="text/css" height="875px" preserveAspectRatio="none" style="width:1453px;height:875px;background:#FFFFFF;" version="1.1" viewBox="0 0 1453 875" width="1453px" zoomAndPan="magnify"><defs/><g><text fill="#000000" font-family="sans-serif" font-size="14" font-weight="bold" lengthAdjust="spacing" textLength="486" x="485" y="28.5352">Sequence Diagram Partial - Get List Of Announcements Using DTO</text><rect fill="#FFFFFF" height="747.1875" style="stroke:#181818;stroke-width:1.0;" width="10" x="79" y="83.9766"/><rect fill="#FFFFFF" height="716.877" style="stroke:#181818;stroke-width:1.0;" width="10" x="272" y="105.2871"/><rect fill="#FFFFFF" height="28" style="stroke:#181818;stroke-width:1.0;" width="10" x="277" y="643.0547"/><rect fill="#FFFFFF" height="29.3105" style="stroke:#181818;stroke-width:1.0;" width="10" x="964" y="224.707"/><rect fill="#FFFFFF" height="29.3105" style="stroke:#181818;stroke-width:1.0;" width="10" x="964" y="283.3281"/><rect fill="#FFFFFF" height="29.3105" style="stroke:#181818;stroke-width:1.0;" width="10" x="964" y="341.9492"/><rect fill="#FFFFFF" height="29.3105" style="stroke:#181818;stroke-width:1.0;" width="10" x="964" y="400.5703"/><rect fill="#FFFFFF" height="29.3105" style="stroke:#181818;stroke-width:1.0;" width="10" x="964" y="459.1914"/><rect fill="#FFFFFF" height="29.3105" style="stroke:#181818;stroke-width:1.0;" width="10" x="964" y="517.8125"/><rect fill="#FFFFFF" height="29.3105" style="stroke:#181818;stroke-width:1.0;" width="10" x="964" y="576.4336"/><rect fill="#FFFFFF" height="30" style="stroke:#181818;stroke-width:1.0;" width="10" x="964" y="748.8535"/><rect fill="none" height="673.5664" style="stroke:#000000;stroke-width:1.5;" width="1229.5" x="217.5" y="120.2871"/><rect fill="none" height="600.7676" style="stroke:#000000;stroke-width:1.5;" width="1209.5" x="227.5" y="186.0859"/><line style="stroke:#181818;stroke-width:0.5;stroke-dasharray:5.0,5.0;" x1="84" x2="84" y1="73.9766" y2="840.1641"/><line style="stroke:#181818;stroke-width:0.5;stroke-dasharray:5.0,5.0;" x1="276.5" x2="276.5" y1="73.9766" y2="840.1641"/><line style="stroke:#181818;stroke-width:0.5;stroke-dasharray:5.0,5.0;" x1="969" x2="969" y1="168.3418" y2="840.1641"/><line style="stroke:#181818;stroke-width:0.5;stroke-dasharray:5.0,5.0;" x1="1290" x2="1290" y1="716.7988" y2="840.1641"/><rect fill="#E2E2F0" height="30.4883" rx="2.5" ry="2.5" style="stroke:#181818;stroke-width:0.5;" width="158" x="5" y="42.4883"/><text fill="#000000" font-family="sans-serif" font-size="14" lengthAdjust="spacing" textLength="144" x="12" y="63.0234">:PlaceOfferController</text><rect fill="#E2E2F0" height="30.4883" rx="2.5" ry="2.5" style="stroke:#181818;stroke-width:0.5;" width="158" x="5" y="839.1641"/><text fill="#000000" font-family="sans-serif" font-size="14" lengthAdjust="spacing" textLength="144" x="12" y="859.6992">:PlaceOfferController</text><rect fill="#E2E2F0" height="30.4883" rx="2.5" ry="2.5" style="stroke:#181818;stroke-width:0.5;" width="79" x="237.5" y="42.4883"/><text fill="#000000" font-family="sans-serif" font-size="14" lengthAdjust="spacing" textLength="65" x="244.5" y="63.0234">:XMapper</text><rect fill="#E2E2F0" height="30.4883" rx="2.5" ry="2.5" style="stroke:#181818;stroke-width:0.5;" width="79" x="237.5" y="839.1641"/><text fill="#000000" font-family="sans-serif" font-size="14" lengthAdjust="spacing" textLength="65" x="244.5" y="859.6992">:XMapper</text><rect fill="#E2E2F0" height="30.4883" rx="2.5" ry="2.5" style="stroke:#181818;stroke-width:0.5;" width="348" x="795" y="839.1641"/><text fill="#000000" font-family="sans-serif" font-size="14" lengthAdjust="spacing" textLength="334" x="802" y="859.6992">announcementListDTO:List&lt;AnnouncementDto&gt;</text><rect fill="#E2E2F0" height="30.4883" rx="2.5" ry="2.5" style="stroke:#181818;stroke-width:0.5;" width="274" x="1153" y="839.1641"/><text fill="#000000" font-family="sans-serif" font-size="14" lengthAdjust="spacing" textLength="260" x="1160" y="859.6992">announcementDto:AnnouncementDto</text><rect fill="#FFFFFF" height="747.1875" style="stroke:#181818;stroke-width:1.0;" width="10" x="79" y="83.9766"/><rect fill="#FFFFFF" height="716.877" style="stroke:#181818;stroke-width:1.0;" width="10" x="272" y="105.2871"/><rect fill="#FFFFFF" height="28" style="stroke:#181818;stroke-width:1.0;" width="10" x="277" y="643.0547"/><rect fill="#FFFFFF" height="29.3105" style="stroke:#181818;stroke-width:1.0;" width="10" x="964" y="224.707"/><rect fill="#FFFFFF" height="29.3105" style="stroke:#181818;stroke-width:1.0;" width="10" x="964" y="283.3281"/><rect fill="#FFFFFF" height="29.3105" style="stroke:#181818;stroke-width:1.0;" width="10" x="964" y="341.9492"/><rect fill="#FFFFFF" height="29.3105" style="stroke:#181818;stroke-width:1.0;" width="10" x="964" y="400.5703"/><rect fill="#FFFFFF" height="29.3105" style="stroke:#181818;stroke-width:1.0;" width="10" x="964" y="459.1914"/><rect fill="#FFFFFF" height="29.3105" style="stroke:#181818;stroke-width:1.0;" width="10" x="964" y="517.8125"/><rect fill="#FFFFFF" height="29.3105" style="stroke:#181818;stroke-width:1.0;" width="10" x="964" y="576.4336"/><rect fill="#FFFFFF" height="30" style="stroke:#181818;stroke-width:1.0;" width="10" x="964" y="748.8535"/><polygon fill="#181818" points="260,101.2871,270,105.2871,260,109.2871,264,105.2871" style="stroke:#181818;stroke-width:1.0;"/><line style="stroke:#181818;stroke-width:1.0;" x1="89" x2="266" y1="105.2871" y2="105.2871"/><text fill="#000000" font-family="sans-serif" font-size="13" font-weight="bold" lengthAdjust="spacing" textLength="18" x="96" y="100.5449">19</text><text fill="#000000" font-family="sans-serif" font-size="13" lengthAdjust="spacing" textLength="142" x="118" y="100.5449">toDto(listOfProperties)</text><path d="M217.5,120.2871 L498.5,120.2871 L498.5,127.5977 L488.5,137.5977 L217.5,137.5977 L217.5,120.2871 " fill="#EEEEEE" style="stroke:#000000;stroke-width:1.5;"/><rect fill="none" height="673.5664" style="stroke:#000000;stroke-width:1.5;" width="1229.5" x="217.5" y="120.2871"/><text fill="#000000" font-family="sans-serif" font-size="13" font-weight="bold" lengthAdjust="spacing" textLength="236" x="232.5" y="133.8555">Get Announcement List Using DTO</text><polygon fill="#181818" points="783,154.9082,793,158.9082,783,162.9082,787,158.9082" style="stroke:#181818;stroke-width:1.0;"/><line style="stroke:#181818;stroke-width:1.0;" x1="282" x2="789" y1="158.9082" y2="158.9082"/><text fill="#000000" font-family="sans-serif" font-size="13" font-weight="bold" lengthAdjust="spacing" textLength="18" x="289" y="154.166">20</text><text fill="#000000" font-family="sans-serif" font-size="13" lengthAdjust="spacing" textLength="46" x="311" y="154.166">create()</text><rect fill="#E2E2F0" height="30.4883" rx="2.5" ry="2.5" style="stroke:#181818;stroke-width:0.5;" width="348" x="795" y="137.5977"/><text fill="#000000" font-family="sans-serif" font-size="14" lengthAdjust="spacing" textLength="334" x="802" y="158.1328">announcementListDTO:List&lt;AnnouncementDto&gt;</text><path d="M227.5,186.0859 L301.5,186.0859 L301.5,193.3965 L291.5,203.3965 L227.5,203.3965 L227.5,186.0859 " fill="#EEEEEE" style="stroke:#000000;stroke-width:1.5;"/><rect fill="none" height="600.7676" style="stroke:#000000;stroke-width:1.5;" width="1209.5" x="227.5" y="186.0859"/><text fill="#000000" font-family="sans-serif" font-size="13" font-weight="bold" lengthAdjust="spacing" textLength="29" x="242.5" y="199.6543">loop</text><polygon fill="#181818" points="952,220.707,962,224.707,952,228.707,956,224.707" style="stroke:#181818;stroke-width:1.0;"/><line style="stroke:#181818;stroke-width:1.0;" x1="282" x2="958" y1="224.707" y2="224.707"/><text fill="#000000" font-family="sans-serif" font-size="13" font-weight="bold" lengthAdjust="spacing" textLength="18" x="289" y="219.9648">21</text><text fill="#000000" font-family="sans-serif" font-size="13" lengthAdjust="spacing" textLength="102" x="311" y="219.9648">date = getDate()</text><polygon fill="#181818" points="952,279.3281,962,283.3281,952,287.3281,956,283.3281" style="stroke:#181818;stroke-width:1.0;"/><line style="stroke:#181818;stroke-width:1.0;" x1="282" x2="958" y1="283.3281" y2="283.3281"/><text fill="#000000" font-family="sans-serif" font-size="13" font-weight="bold" lengthAdjust="spacing" textLength="18" x="289" y="278.5859">23</text><text fill="#000000" font-family="sans-serif" font-size="13" lengthAdjust="spacing" textLength="151" x="311" y="278.5859">property = getProperty()</text><polygon fill="#181818" points="952,337.9492,962,341.9492,952,345.9492,956,341.9492" style="stroke:#181818;stroke-width:1.0;"/><line style="stroke:#181818;stroke-width:1.0;" x1="282" x2="958" y1="341.9492" y2="341.9492"/><text fill="#000000" font-family="sans-serif" font-size="13" font-weight="bold" lengthAdjust="spacing" textLength="18" x="289" y="337.207">25</text><text fill="#000000" font-family="sans-serif" font-size="13" lengthAdjust="spacing" textLength="243" x="311" y="337.207">typeOfBusiness = getTypeOfBusiness()</text><polygon fill="#181818" points="952,396.5703,962,400.5703,952,404.5703,956,400.5703" style="stroke:#181818;stroke-width:1.0;"/><line style="stroke:#181818;stroke-width:1.0;" x1="282" x2="958" y1="400.5703" y2="400.5703"/><text fill="#000000" font-family="sans-serif" font-size="13" font-weight="bold" lengthAdjust="spacing" textLength="18" x="289" y="395.8281">27</text><text fill="#000000" font-family="sans-serif" font-size="13" lengthAdjust="spacing" textLength="211" x="311" y="395.8281">propertyType = getPropertyType()</text><polygon fill="#181818" points="952,455.1914,962,459.1914,952,463.1914,956,459.1914" style="stroke:#181818;stroke-width:1.0;"/><line style="stroke:#181818;stroke-width:1.0;" x1="282" x2="958" y1="459.1914" y2="459.1914"/><text fill="#000000" font-family="sans-serif" font-size="13" font-weight="bold" lengthAdjust="spacing" textLength="18" x="289" y="454.4492">29</text><text fill="#000000" font-family="sans-serif" font-size="13" lengthAdjust="spacing" textLength="157" x="311" y="454.4492">business = getBusiness()</text><polygon fill="#181818" points="952,513.8125,962,517.8125,952,521.8125,956,517.8125" style="stroke:#181818;stroke-width:1.0;"/><line style="stroke:#181818;stroke-width:1.0;" x1="282" x2="958" y1="517.8125" y2="517.8125"/><text fill="#000000" font-family="sans-serif" font-size="13" font-weight="bold" lengthAdjust="spacing" textLength="18" x="289" y="513.0703">31</text><text fill="#000000" font-family="sans-serif" font-size="13" lengthAdjust="spacing" textLength="118" x="311" y="513.0703">agent = getAgent()</text><polygon fill="#181818" points="952,572.4336,962,576.4336,952,580.4336,956,576.4336" style="stroke:#181818;stroke-width:1.0;"/><line style="stroke:#181818;stroke-width:1.0;" x1="282" x2="958" y1="576.4336" y2="576.4336"/><text fill="#000000" font-family="sans-serif" font-size="13" font-weight="bold" lengthAdjust="spacing" textLength="18" x="289" y="571.6914">33</text><text fill="#000000" font-family="sans-serif" font-size="13" lengthAdjust="spacing" textLength="292" x="311" y="571.6914">durationOfContract = getDurationOfContract()</text><line style="stroke:#181818;stroke-width:1.0;" x1="287" x2="329" y1="635.0547" y2="635.0547"/><line style="stroke:#181818;stroke-width:1.0;" x1="329" x2="329" y1="635.0547" y2="648.0547"/><line style="stroke:#181818;stroke-width:1.0;" x1="288" x2="329" y1="648.0547" y2="648.0547"/><polygon fill="#181818" points="298,644.0547,288,648.0547,298,652.0547,294,648.0547" style="stroke:#181818;stroke-width:1.0;"/><text fill="#000000" font-family="sans-serif" font-size="13" font-weight="bold" lengthAdjust="spacing" textLength="18" x="294" y="630.3125">35</text><text fill="#000000" font-family="sans-serif" font-size="13" lengthAdjust="spacing" textLength="646" x="316" y="630.3125">propertiesDto = toDto(agent,property,typeOfBusiness,propertyType,business,date,durationOfContract)</text><polygon fill="#181818" points="1141,703.3652,1151,707.3652,1141,711.3652,1145,707.3652" style="stroke:#181818;stroke-width:1.0;"/><line style="stroke:#181818;stroke-width:1.0;stroke-dasharray:2.0,2.0;" x1="282" x2="1147" y1="707.3652" y2="707.3652"/><text fill="#000000" font-family="sans-serif" font-size="13" font-weight="bold" lengthAdjust="spacing" textLength="18" x="289" y="702.623">36</text><text fill="#000000" font-family="sans-serif" font-size="13" lengthAdjust="spacing" textLength="58" x="311" y="702.623">create(...)</text><rect fill="#E2E2F0" height="30.4883" rx="2.5" ry="2.5" style="stroke:#181818;stroke-width:0.5;" width="274" x="1153" y="686.0547"/><text fill="#000000" font-family="sans-serif" font-size="14" lengthAdjust="spacing" textLength="260" x="1160" y="706.5898">announcementDto:AnnouncementDto</text><polygon fill="#181818" points="952,744.8535,962,748.8535,952,752.8535,956,748.8535" style="stroke:#181818;stroke-width:1.0;"/><line style="stroke:#181818;stroke-width:1.0;" x1="282" x2="958" y1="748.8535" y2="748.8535"/><text fill="#000000" font-family="sans-serif" font-size="13" font-weight="bold" lengthAdjust="spacing" textLength="18" x="289" y="744.1113">37</text><text fill="#000000" font-family="sans-serif" font-size="13" lengthAdjust="spacing" textLength="116" x="311" y="744.1113">add(propertieDTO)</text><polygon fill="#181818" points="100,818.1641,90,822.1641,100,826.1641,96,822.1641" style="stroke:#181818;stroke-width:1.0;"/><line style="stroke:#181818;stroke-width:1.0;stroke-dasharray:2.0,2.0;" x1="94" x2="276" y1="822.1641" y2="822.1641"/><text fill="#000000" font-family="sans-serif" font-size="13" font-weight="bold" lengthAdjust="spacing" textLength="18" x="106" y="817.4219">38</text><text fill="#000000" font-family="sans-serif" font-size="13" lengthAdjust="spacing" textLength="126" x="128" y="817.4219">listOfPropertiesDTO</text><!--SRC=[rLN1JiCm3BtdAonE6ogJE5814Z292wYJ00a9SSXQTqJgaf2wIFjxd7Rjqau3TgCzj8dZlBndDpOfAX2UyBD2dIBCbLmvkOQ5TAHa0MTmZmGFgYH8ShZHsbJijaPD9RoKIgzW_fm8ORrxggpK12Vnef0f9dcExiveSgOeq9s0B64t7UnuVPJMRfssuxw734xsRFZKs7ylGqfpCjSrX5zPLCj2bH_X-c58tXaFa6gWWKq8MP7HrNg93iulU9gI-fA4eJAn6yFPTIi7OY3341CcHKc-S8QDfB2Sxa1QvUBUcShMaGy9D6a8ejv2yoa759-Unf0wPF39L0ZWfp36DgFVTyUGULfNi4AQDnX-OyVtK9Zxy6yVAijGlnyyfdRFy4ZO7rZR9hYRXlasr9kniAUDvSjpMt6UiImR3SyzszZouDdtS-4jOr6nx6LYN3c0MAxyfwP-uuTZYNfMEKdAw2Ilooa3R-lGdlsVAThLUzlLUAxxpBwf_tL2elPgHFtR7eLN9ch_lCYNuMW_8WFXNViOCE_PEwPCTT3TWcOncyscVy-LpB999vOxqp49-KE4lHlgJ8Zw5Ge8EcqCmyRgM-H-5Bu1]--></g></svg>