<?xml version="1.0" encoding="us-ascii" standalone="no"?><svg xmlns="http://www.w3.org/2000/svg" xmlns:xlink="http://www.w3.org/1999/xlink" contentStyleType="text/css" height="934px" preserveAspectRatio="none" style="width:1419px;height:934px;background:#FFFFFF;" version="1.1" viewBox="0 0 1419 934" width="1419px" zoomAndPan="magnify"><defs/><g><text fill="#000000" font-family="sans-serif" font-size="14" font-weight="bold" lengthAdjust="spacing" textLength="445" x="488.75" y="28.5352">Sequence Diagram Partial - Get List Of Properties Using DTO</text><rect fill="#FFFFFF" height="805.8086" style="stroke:#181818;stroke-width:1.0;" width="10" x="79" y="83.9766"/><rect fill="#FFFFFF" height="775.498" style="stroke:#181818;stroke-width:1.0;" width="10" x="272" y="105.2871"/><rect fill="#FFFFFF" height="28" style="stroke:#181818;stroke-width:1.0;" width="10" x="277" y="701.6758"/><rect fill="#FFFFFF" height="29.3105" style="stroke:#181818;stroke-width:1.0;" width="10" x="1037" y="224.707"/><rect fill="#FFFFFF" height="29.3105" style="stroke:#181818;stroke-width:1.0;" width="10" x="1037" y="283.3281"/><rect fill="#FFFFFF" height="29.3105" style="stroke:#181818;stroke-width:1.0;" width="10" x="1037" y="341.9492"/><rect fill="#FFFFFF" height="29.3105" style="stroke:#181818;stroke-width:1.0;" width="10" x="1037" y="400.5703"/><rect fill="#FFFFFF" height="29.3105" style="stroke:#181818;stroke-width:1.0;" width="10" x="1037" y="459.1914"/><rect fill="#FFFFFF" height="29.3105" style="stroke:#181818;stroke-width:1.0;" width="10" x="1037" y="517.8125"/><rect fill="#FFFFFF" height="29.3105" style="stroke:#181818;stroke-width:1.0;" width="10" x="1037" y="576.4336"/><rect fill="#FFFFFF" height="29.3105" style="stroke:#181818;stroke-width:1.0;" width="10" x="1037" y="635.0547"/><rect fill="#FFFFFF" height="30" style="stroke:#181818;stroke-width:1.0;" width="10" x="1037" y="807.4746"/><rect fill="none" height="732.1875" style="stroke:#000000;stroke-width:1.5;" width="1196" x="217.5" y="120.2871"/><rect fill="none" height="659.3887" style="stroke:#000000;stroke-width:1.5;" width="1176" x="227.5" y="186.0859"/><line style="stroke:#181818;stroke-width:0.5;stroke-dasharray:5.0,5.0;" x1="84" x2="84" y1="73.9766" y2="898.7852"/><line style="stroke:#181818;stroke-width:0.5;stroke-dasharray:5.0,5.0;" x1="276.5" x2="276.5" y1="73.9766" y2="898.7852"/><line style="stroke:#181818;stroke-width:0.5;stroke-dasharray:5.0,5.0;" x1="1041.5" x2="1041.5" y1="168.3418" y2="898.7852"/><line style="stroke:#181818;stroke-width:0.5;stroke-dasharray:5.0,5.0;" x1="1289.5" x2="1289.5" y1="775.4199" y2="898.7852"/><rect fill="#E2E2F0" height="30.4883" rx="2.5" ry="2.5" style="stroke:#181818;stroke-width:0.5;" width="158" x="5" y="42.4883"/><text fill="#000000" font-family="sans-serif" font-size="14" lengthAdjust="spacing" textLength="144" x="12" y="63.0234">:PlaceOfferController</text><rect fill="#E2E2F0" height="30.4883" rx="2.5" ry="2.5" style="stroke:#181818;stroke-width:0.5;" width="158" x="5" y="897.7852"/><text fill="#000000" font-family="sans-serif" font-size="14" lengthAdjust="spacing" textLength="144" x="12" y="918.3203">:PlaceOfferController</text><rect fill="#E2E2F0" height="30.4883" rx="2.5" ry="2.5" style="stroke:#181818;stroke-width:0.5;" width="79" x="237.5" y="42.4883"/><text fill="#000000" font-family="sans-serif" font-size="14" lengthAdjust="spacing" textLength="65" x="244.5" y="63.0234">:XMapper</text><rect fill="#E2E2F0" height="30.4883" rx="2.5" ry="2.5" style="stroke:#181818;stroke-width:0.5;" width="79" x="237.5" y="897.7852"/><text fill="#000000" font-family="sans-serif" font-size="14" lengthAdjust="spacing" textLength="65" x="244.5" y="918.3203">:XMapper</text><rect fill="#E2E2F0" height="30.4883" rx="2.5" ry="2.5" style="stroke:#181818;stroke-width:0.5;" width="269" x="907.5" y="897.7852"/><text fill="#000000" font-family="sans-serif" font-size="14" lengthAdjust="spacing" textLength="255" x="914.5" y="918.3203">listOfPropertiesDTO:List&lt;Properties&gt;</text><rect fill="#E2E2F0" height="30.4883" rx="2.5" ry="2.5" style="stroke:#181818;stroke-width:0.5;" width="207" x="1186.5" y="897.7852"/><text fill="#000000" font-family="sans-serif" font-size="14" lengthAdjust="spacing" textLength="193" x="1193.5" y="918.3203">propertiesDto:PropertiesDto</text><rect fill="#FFFFFF" height="805.8086" style="stroke:#181818;stroke-width:1.0;" width="10" x="79" y="83.9766"/><rect fill="#FFFFFF" height="775.498" style="stroke:#181818;stroke-width:1.0;" width="10" x="272" y="105.2871"/><rect fill="#FFFFFF" height="28" style="stroke:#181818;stroke-width:1.0;" width="10" x="277" y="701.6758"/><rect fill="#FFFFFF" height="29.3105" style="stroke:#181818;stroke-width:1.0;" width="10" x="1037" y="224.707"/><rect fill="#FFFFFF" height="29.3105" style="stroke:#181818;stroke-width:1.0;" width="10" x="1037" y="283.3281"/><rect fill="#FFFFFF" height="29.3105" style="stroke:#181818;stroke-width:1.0;" width="10" x="1037" y="341.9492"/><rect fill="#FFFFFF" height="29.3105" style="stroke:#181818;stroke-width:1.0;" width="10" x="1037" y="400.5703"/><rect fill="#FFFFFF" height="29.3105" style="stroke:#181818;stroke-width:1.0;" width="10" x="1037" y="459.1914"/><rect fill="#FFFFFF" height="29.3105" style="stroke:#181818;stroke-width:1.0;" width="10" x="1037" y="517.8125"/><rect fill="#FFFFFF" height="29.3105" style="stroke:#181818;stroke-width:1.0;" width="10" x="1037" y="576.4336"/><rect fill="#FFFFFF" height="29.3105" style="stroke:#181818;stroke-width:1.0;" width="10" x="1037" y="635.0547"/><rect fill="#FFFFFF" height="30" style="stroke:#181818;stroke-width:1.0;" width="10" x="1037" y="807.4746"/><polygon fill="#181818" points="260,101.2871,270,105.2871,260,109.2871,264,105.2871" style="stroke:#181818;stroke-width:1.0;"/><line style="stroke:#181818;stroke-width:1.0;" x1="89" x2="266" y1="105.2871" y2="105.2871"/><text fill="#000000" font-family="sans-serif" font-size="13" font-weight="bold" lengthAdjust="spacing" textLength="18" x="96" y="100.5449">19</text><text fill="#000000" font-family="sans-serif" font-size="13" lengthAdjust="spacing" textLength="142" x="118" y="100.5449">toDto(listOfProperties)</text><path d="M217.5,120.2871 L452.5,120.2871 L452.5,127.5977 L442.5,137.5977 L217.5,137.5977 L217.5,120.2871 " fill="#EEEEEE" style="stroke:#000000;stroke-width:1.5;"/><rect fill="none" height="732.1875" style="stroke:#000000;stroke-width:1.5;" width="1196" x="217.5" y="120.2871"/><text fill="#000000" font-family="sans-serif" font-size="13" font-weight="bold" lengthAdjust="spacing" textLength="190" x="232.5" y="133.8555">Get Property List Using DTO</text><polygon fill="#181818" points="895.5,154.9082,905.5,158.9082,895.5,162.9082,899.5,158.9082" style="stroke:#181818;stroke-width:1.0;"/><line style="stroke:#181818;stroke-width:1.0;" x1="282" x2="901.5" y1="158.9082" y2="158.9082"/><text fill="#000000" font-family="sans-serif" font-size="13" font-weight="bold" lengthAdjust="spacing" textLength="18" x="289" y="154.166">20</text><text fill="#000000" font-family="sans-serif" font-size="13" lengthAdjust="spacing" textLength="46" x="311" y="154.166">create()</text><rect fill="#E2E2F0" height="30.4883" rx="2.5" ry="2.5" style="stroke:#181818;stroke-width:0.5;" width="269" x="907.5" y="137.5977"/><text fill="#000000" font-family="sans-serif" font-size="14" lengthAdjust="spacing" textLength="255" x="914.5" y="158.1328">listOfPropertiesDTO:List&lt;Properties&gt;</text><path d="M227.5,186.0859 L301.5,186.0859 L301.5,193.3965 L291.5,203.3965 L227.5,203.3965 L227.5,186.0859 " fill="#EEEEEE" style="stroke:#000000;stroke-width:1.5;"/><rect fill="none" height="659.3887" style="stroke:#000000;stroke-width:1.5;" width="1176" x="227.5" y="186.0859"/><text fill="#000000" font-family="sans-serif" font-size="13" font-weight="bold" lengthAdjust="spacing" textLength="29" x="242.5" y="199.6543">loop</text><polygon fill="#181818" points="1025,220.707,1035,224.707,1025,228.707,1029,224.707" style="stroke:#181818;stroke-width:1.0;"/><line style="stroke:#181818;stroke-width:1.0;" x1="282" x2="1031" y1="224.707" y2="224.707"/><text fill="#000000" font-family="sans-serif" font-size="13" font-weight="bold" lengthAdjust="spacing" textLength="18" x="289" y="219.9648">21</text><text fill="#000000" font-family="sans-serif" font-size="13" lengthAdjust="spacing" textLength="102" x="311" y="219.9648">date = getDate()</text><polygon fill="#181818" points="1025,279.3281,1035,283.3281,1025,287.3281,1029,283.3281" style="stroke:#181818;stroke-width:1.0;"/><line style="stroke:#181818;stroke-width:1.0;" x1="282" x2="1031" y1="283.3281" y2="283.3281"/><text fill="#000000" font-family="sans-serif" font-size="13" font-weight="bold" lengthAdjust="spacing" textLength="18" x="289" y="278.5859">23</text><text fill="#000000" font-family="sans-serif" font-size="13" lengthAdjust="spacing" textLength="151" x="311" y="278.5859">property = getProperty()</text><polygon fill="#181818" points="1025,337.9492,1035,341.9492,1025,345.9492,1029,341.9492" style="stroke:#181818;stroke-width:1.0;"/><line style="stroke:#181818;stroke-width:1.0;" x1="282" x2="1031" y1="341.9492" y2="341.9492"/><text fill="#000000" font-family="sans-serif" font-size="13" font-weight="bold" lengthAdjust="spacing" textLength="18" x="289" y="337.207">25</text><text fill="#000000" font-family="sans-serif" font-size="13" lengthAdjust="spacing" textLength="243" x="311" y="337.207">typeOfBusiness = getTypeOfBusiness()</text><polygon fill="#181818" points="1025,396.5703,1035,400.5703,1025,404.5703,1029,400.5703" style="stroke:#181818;stroke-width:1.0;"/><line style="stroke:#181818;stroke-width:1.0;" x1="282" x2="1031" y1="400.5703" y2="400.5703"/><text fill="#000000" font-family="sans-serif" font-size="13" font-weight="bold" lengthAdjust="spacing" textLength="18" x="289" y="395.8281">27</text><text fill="#000000" font-family="sans-serif" font-size="13" lengthAdjust="spacing" textLength="211" x="311" y="395.8281">propertyType = getPropertyType()</text><polygon fill="#181818" points="1025,455.1914,1035,459.1914,1025,463.1914,1029,459.1914" style="stroke:#181818;stroke-width:1.0;"/><line style="stroke:#181818;stroke-width:1.0;" x1="282" x2="1031" y1="459.1914" y2="459.1914"/><text fill="#000000" font-family="sans-serif" font-size="13" font-weight="bold" lengthAdjust="spacing" textLength="18" x="289" y="454.4492">29</text><text fill="#000000" font-family="sans-serif" font-size="13" lengthAdjust="spacing" textLength="157" x="311" y="454.4492">business = getBusiness()</text><polygon fill="#181818" points="1025,513.8125,1035,517.8125,1025,521.8125,1029,517.8125" style="stroke:#181818;stroke-width:1.0;"/><line style="stroke:#181818;stroke-width:1.0;" x1="282" x2="1031" y1="517.8125" y2="517.8125"/><text fill="#000000" font-family="sans-serif" font-size="13" font-weight="bold" lengthAdjust="spacing" textLength="18" x="289" y="513.0703">31</text><text fill="#000000" font-family="sans-serif" font-size="13" lengthAdjust="spacing" textLength="118" x="311" y="513.0703">agent = getAgent()</text><polygon fill="#181818" points="1025,572.4336,1035,576.4336,1025,580.4336,1029,576.4336" style="stroke:#181818;stroke-width:1.0;"/><line style="stroke:#181818;stroke-width:1.0;" x1="282" x2="1031" y1="576.4336" y2="576.4336"/><text fill="#000000" font-family="sans-serif" font-size="13" font-weight="bold" lengthAdjust="spacing" textLength="18" x="289" y="571.6914">33</text><text fill="#000000" font-family="sans-serif" font-size="13" lengthAdjust="spacing" textLength="292" x="311" y="571.6914">durationOfContract = getDurationOfContract()</text><polygon fill="#181818" points="1025,631.0547,1035,635.0547,1025,639.0547,1029,635.0547" style="stroke:#181818;stroke-width:1.0;"/><line style="stroke:#181818;stroke-width:1.0;" x1="282" x2="1031" y1="635.0547" y2="635.0547"/><text fill="#000000" font-family="sans-serif" font-size="13" font-weight="bold" lengthAdjust="spacing" textLength="18" x="289" y="630.3125">35</text><text fill="#000000" font-family="sans-serif" font-size="13" lengthAdjust="spacing" textLength="178" x="311" y="630.3125">comission = getComission()</text><line style="stroke:#181818;stroke-width:1.0;" x1="287" x2="329" y1="693.6758" y2="693.6758"/><line style="stroke:#181818;stroke-width:1.0;" x1="329" x2="329" y1="693.6758" y2="706.6758"/><line style="stroke:#181818;stroke-width:1.0;" x1="288" x2="329" y1="706.6758" y2="706.6758"/><polygon fill="#181818" points="298,702.6758,288,706.6758,298,710.6758,294,706.6758" style="stroke:#181818;stroke-width:1.0;"/><text fill="#000000" font-family="sans-serif" font-size="13" font-weight="bold" lengthAdjust="spacing" textLength="18" x="294" y="688.9336">37</text><text fill="#000000" font-family="sans-serif" font-size="13" lengthAdjust="spacing" textLength="719" x="316" y="688.9336">propertiesDto = toDto(agent,property,typeOfBusiness,propertyType,business,date,durationOfContract, comission)</text><polygon fill="#181818" points="1174.5,761.9863,1184.5,765.9863,1174.5,769.9863,1178.5,765.9863" style="stroke:#181818;stroke-width:1.0;"/><line style="stroke:#181818;stroke-width:1.0;stroke-dasharray:2.0,2.0;" x1="282" x2="1180.5" y1="765.9863" y2="765.9863"/><text fill="#000000" font-family="sans-serif" font-size="13" font-weight="bold" lengthAdjust="spacing" textLength="18" x="289" y="761.2441">38</text><text fill="#000000" font-family="sans-serif" font-size="13" lengthAdjust="spacing" textLength="58" x="311" y="761.2441">create(...)</text><rect fill="#E2E2F0" height="30.4883" rx="2.5" ry="2.5" style="stroke:#181818;stroke-width:0.5;" width="207" x="1186.5" y="744.6758"/><text fill="#000000" font-family="sans-serif" font-size="14" lengthAdjust="spacing" textLength="193" x="1193.5" y="765.2109">propertiesDto:PropertiesDto</text><polygon fill="#181818" points="1025,803.4746,1035,807.4746,1025,811.4746,1029,807.4746" style="stroke:#181818;stroke-width:1.0;"/><line style="stroke:#181818;stroke-width:1.0;" x1="282" x2="1031" y1="807.4746" y2="807.4746"/><text fill="#000000" font-family="sans-serif" font-size="13" font-weight="bold" lengthAdjust="spacing" textLength="18" x="289" y="802.7324">39</text><text fill="#000000" font-family="sans-serif" font-size="13" lengthAdjust="spacing" textLength="116" x="311" y="802.7324">add(propertieDTO)</text><polygon fill="#181818" points="100,876.7852,90,880.7852,100,884.7852,96,880.7852" style="stroke:#181818;stroke-width:1.0;"/><line style="stroke:#181818;stroke-width:1.0;stroke-dasharray:2.0,2.0;" x1="94" x2="276" y1="880.7852" y2="880.7852"/><text fill="#000000" font-family="sans-serif" font-size="13" font-weight="bold" lengthAdjust="spacing" textLength="18" x="106" y="876.043">40</text><text fill="#000000" font-family="sans-serif" font-size="13" lengthAdjust="spacing" textLength="126" x="128" y="876.043">listOfPropertiesDTO</text><!--SRC=[pPLDQyCm38Rl_XMYfxQaXHqNjiBMGYyRAQo3mTZ1JPJEaCQUumpwxsSx7uwJbVMsv11iHP8VlOvbnLI6y89V9UOnmeRHewGds56f6CrW0LjKyCGA1L4AEya5wWzOm6l1yYDizX4XmlZ6JD1SmIJSPJJ6A4rHhdck9Cyob1EW1RXfB-BjcGfHEzLZtoFJoqUfMrol6XgaEsTQsMZZw6n-4k725GzttPcDzIo4q5Bnl3mTKCBDhPx6YdrJXTqgY1l3OjMWGmYAwnJJFlNC9Mcg95l9Is4bhltEbTOTTPkqUWM_lFayX5YYpZUT4GBwoJWNrUXYK0Y90RY78wfD5MhyMxAUWdwozq-M99X_z9DQhmIlIp8a4atfbgeHOWnawYpqh_nOwjt0egZuzfvjJFePCbz3Ona3uS5JS3pQGKYFg9k3nNemmp6ebPIIAiRpABKDHgUfp-l0FWRQc9zOKMYi2dBTJF-3pRLWhzjhigebszqEclCI-CSxw9wZeFbb0zClW-6M1AxmNg5jS- -nU_OMMbDxDq-dgo-NozcVyjCacRR5wWlZ2jKlwsc-OfuGObzTnivL5y8lzp4P5le3]--></g></svg>