<?xml version="1.0" encoding="UTF-8" standalone="no"?><svg xmlns="http://www.w3.org/2000/svg" xmlns:xlink="http://www.w3.org/1999/xlink" contentStyleType="text/css" height="422px" preserveAspectRatio="none" style="width:804px;height:422px;background:#FFFFFF;" version="1.1" viewBox="0 0 804 422" width="804px" zoomAndPan="magnify"><defs/><g><text fill="#000000" font-family="sans-serif" font-size="14" font-weight="bold" lengthAdjust="spacing" textLength="282" x="262.75" y="29.5332">Sequence Diagram Partial - Get Property</text><rect fill="#FFFFFF" height="224.7813" style="stroke:#181818;stroke-width:1.0;" width="10" x="115" y="118.9219"/><rect fill="#FFFFFF" height="39.1563" style="stroke:#181818;stroke-width:1.0;" width="10" x="620" y="236.3906"/><rect fill="none" height="105.4688" style="stroke:#000000;stroke-width:1.5;" width="788.5" x="10" y="178.0781"/><line style="stroke:#181818;stroke-width:0.5;stroke-dasharray:5.0,5.0;" x1="120" x2="120" y1="108.9219" y2="352.7031"/><line style="stroke:#181818;stroke-width:0.5;stroke-dasharray:5.0,5.0;" x1="624.5" x2="624.5" y1="108.9219" y2="352.7031"/><rect fill="#E2E2F0" height="39.1563" rx="2.5" ry="2.5" style="stroke:#181818;stroke-width:0.5;" width="200" x="20" y="68.7656"/><text fill="#000000" font-family="sans-serif" font-size="20" lengthAdjust="spacing" textLength="186" x="27" y="96.5273">:PlaceOfferController</text><rect fill="#E2E2F0" height="39.1563" rx="2.5" ry="2.5" style="stroke:#181818;stroke-width:0.5;" width="200" x="20" y="351.7031"/><text fill="#000000" font-family="sans-serif" font-size="20" lengthAdjust="spacing" textLength="186" x="27" y="379.4648">:PlaceOfferController</text><rect fill="#E2E2F0" height="64.3125" rx="2.5" ry="2.5" style="stroke:#181818;stroke-width:0.5;" width="327" x="461.5" y="43.6094"/><text fill="#000000" font-family="sans-serif" font-size="20" lengthAdjust="spacing" textLength="305" x="472.5" y="71.3711">publishedAnnouncementRepository</text><text fill="#000000" font-family="sans-serif" font-size="20" lengthAdjust="spacing" textLength="313" x="468.5" y="96.5273">:PublishedAnnouncementRepository</text><rect fill="#E2E2F0" height="64.3125" rx="2.5" ry="2.5" style="stroke:#181818;stroke-width:0.5;" width="327" x="461.5" y="351.7031"/><text fill="#000000" font-family="sans-serif" font-size="20" lengthAdjust="spacing" textLength="305" x="472.5" y="379.4648">publishedAnnouncementRepository</text><text fill="#000000" font-family="sans-serif" font-size="20" lengthAdjust="spacing" textLength="313" x="468.5" y="404.6211">:PublishedAnnouncementRepository</text><rect fill="#FFFFFF" height="224.7813" style="stroke:#181818;stroke-width:1.0;" width="10" x="115" y="118.9219"/><rect fill="#FFFFFF" height="39.1563" style="stroke:#181818;stroke-width:1.0;" width="10" x="620" y="236.3906"/><line style="stroke:#181818;stroke-width:1.0;" x1="125" x2="167" y1="150.0781" y2="150.0781"/><line style="stroke:#181818;stroke-width:1.0;" x1="167" x2="167" y1="150.0781" y2="163.0781"/><line style="stroke:#181818;stroke-width:1.0;" x1="126" x2="167" y1="163.0781" y2="163.0781"/><polygon fill="#181818" points="136,159.0781,126,163.0781,136,167.0781,132,163.0781" style="stroke:#181818;stroke-width:1.0;"/><text fill="#000000" font-family="sans-serif" font-size="20" font-weight="bold" lengthAdjust="spacing" textLength="22" x="132" y="143.6836">47</text><text fill="#000000" font-family="sans-serif" font-size="20" lengthAdjust="spacing" textLength="455" x="158" y="143.6836">getPropertyDTOByDescription(PropertyDescription)</text><path d="M10,178.0781 L322,178.0781 L322,195.2344 L312,205.2344 L10,205.2344 L10,178.0781 " fill="#EEEEEE" style="stroke:#000000;stroke-width:1.5;"/><rect fill="none" height="105.4688" style="stroke:#000000;stroke-width:1.5;" width="788.5" x="10" y="178.0781"/><text fill="#000000" font-family="sans-serif" font-size="20" font-weight="bold" lengthAdjust="spacing" textLength="267" x="25" y="199.8398">Get Property By Description</text><polygon fill="#181818" points="608,232.3906,618,236.3906,608,240.3906,612,236.3906" style="stroke:#181818;stroke-width:1.0;"/><line style="stroke:#181818;stroke-width:1.0;" x1="125" x2="614" y1="236.3906" y2="236.3906"/><text fill="#000000" font-family="sans-serif" font-size="20" font-weight="bold" lengthAdjust="spacing" textLength="22" x="132" y="229.9961">48</text><text fill="#000000" font-family="sans-serif" font-size="20" lengthAdjust="spacing" textLength="281" x="158" y="229.9961">getPropertyDTOByDescription()</text><polygon fill="#181818" points="136,271.5469,126,275.5469,136,279.5469,132,275.5469" style="stroke:#181818;stroke-width:1.0;"/><line style="stroke:#181818;stroke-width:1.0;stroke-dasharray:2.0,2.0;" x1="130" x2="624" y1="275.5469" y2="275.5469"/><text fill="#000000" font-family="sans-serif" font-size="20" font-weight="bold" lengthAdjust="spacing" textLength="22" x="142" y="269.1523">49</text><text fill="#000000" font-family="sans-serif" font-size="20" lengthAdjust="spacing" textLength="118" x="168" y="269.1523">PropertyDTO</text><line style="stroke:#181818;stroke-width:1.0;stroke-dasharray:2.0,2.0;" x1="125" x2="167" y1="321.7031" y2="321.7031"/><line style="stroke:#181818;stroke-width:1.0;stroke-dasharray:2.0,2.0;" x1="167" x2="167" y1="321.7031" y2="334.7031"/><line style="stroke:#181818;stroke-width:1.0;stroke-dasharray:2.0,2.0;" x1="126" x2="167" y1="334.7031" y2="334.7031"/><polygon fill="#181818" points="136,330.7031,126,334.7031,136,338.7031,132,334.7031" style="stroke:#181818;stroke-width:1.0;"/><text fill="#000000" font-family="sans-serif" font-size="20" font-weight="bold" lengthAdjust="spacing" textLength="22" x="132" y="315.3086">50</text><text fill="#000000" font-family="sans-serif" font-size="20" lengthAdjust="spacing" textLength="118" x="158" y="315.3086">PropertyDTO</text><!--SRC=[ZL0xJyD03DxlLrYTw1098IIa34YKY8wDA2EBUt7AgHVVuVYGmgyd846I3ZqsFpv_3_Sdnn45En_iYHfegCNazIcmxjqdmSsrCUhK4-pfFH5RWihXSJo06aKTUYXWImgrX4YYWp7nUsvTH5PObRL7Ixks9NaSEILuJx82x65gbnSn7RphtwXvO0vf5Eo8zPbYw9q66Lwvh2yZVjWp66CmQU3K7KZWzcvihReFL9hRCbCDnVri0oKSINyJLo-xpL1HRyL5TO6l_XRJR6tCLaAAYrV1Pe0Pvbml4o5ZOZr5oluYfrISfv-fceR-BqJSB5DU8Fu2]--></g></svg>