<?xml version="1.0" encoding="UTF-8" standalone="no"?><svg xmlns="http://www.w3.org/2000/svg" xmlns:xlink="http://www.w3.org/1999/xlink" contentStyleType="text/css" height="1108px" preserveAspectRatio="none" style="width:1900px;height:1108px;background:#FFFFFF;" version="1.1" viewBox="0 0 1900 1108" width="1900px" zoomAndPan="magnify"><defs/><g><text fill="#000000" font-family="sans-serif" font-size="14" font-weight="bold" lengthAdjust="spacing" textLength="462" x="720.75" y="29.5332">Sequence Diagram Partial - Get List Of Announcements Using DTO</text><rect fill="#FFFFFF" height="961.4375" style="stroke:#181818;stroke-width:1.0;" width="10" x="100" y="93.7656"/><rect fill="#FFFFFF" height="921.2813" style="stroke:#181818;stroke-width:1.0;" width="10" x="354" y="124.9219"/><rect fill="#FFFFFF" height="28" style="stroke:#181818;stroke-width:1.0;" width="10" x="359" y="838.7344"/><rect fill="#FFFFFF" height="39.1563" style="stroke:#181818;stroke-width:1.0;" width="10" x="1307" y="282.5469"/><rect fill="#FFFFFF" height="39.1563" style="stroke:#181818;stroke-width:1.0;" width="10" x="1307" y="360.8594"/><rect fill="#FFFFFF" height="39.1563" style="stroke:#181818;stroke-width:1.0;" width="10" x="1307" y="439.1719"/><rect fill="#FFFFFF" height="39.1563" style="stroke:#181818;stroke-width:1.0;" width="10" x="1307" y="517.4844"/><rect fill="#FFFFFF" height="39.1563" style="stroke:#181818;stroke-width:1.0;" width="10" x="1307" y="595.7969"/><rect fill="#FFFFFF" height="39.1563" style="stroke:#181818;stroke-width:1.0;" width="10" x="1307" y="674.1094"/><rect fill="#FFFFFF" height="39.1563" style="stroke:#181818;stroke-width:1.0;" width="10" x="1307" y="752.4219"/><rect fill="#FFFFFF" height="30" style="stroke:#181818;stroke-width:1.0;" width="10" x="1307" y="963.0469"/><rect fill="none" height="868.125" style="stroke:#000000;stroke-width:1.5;" width="1606" x="288.5" y="139.9219"/><rect fill="none" height="776.8125" style="stroke:#000000;stroke-width:1.5;" width="1586" x="298.5" y="224.2344"/><line style="stroke:#181818;stroke-width:0.5;stroke-dasharray:5.0,5.0;" x1="105" x2="105" y1="83.7656" y2="1064.2031"/><line style="stroke:#181818;stroke-width:0.5;stroke-dasharray:5.0,5.0;" x1="358.5" x2="358.5" y1="83.7656" y2="1064.2031"/><line style="stroke:#181818;stroke-width:0.5;stroke-dasharray:5.0,5.0;" x1="1311.5" x2="1311.5" y1="202.1563" y2="1064.2031"/><line style="stroke:#181818;stroke-width:0.5;stroke-dasharray:5.0,5.0;" x1="1706.5" x2="1706.5" y1="916.8125" y2="1064.2031"/><rect fill="#E2E2F0" height="39.1563" rx="2.5" ry="2.5" style="stroke:#181818;stroke-width:0.5;" width="200" x="5" y="43.6094"/><text fill="#000000" font-family="sans-serif" font-size="20" lengthAdjust="spacing" textLength="186" x="12" y="71.3711">:PlaceOfferController</text><rect fill="#E2E2F0" height="39.1563" rx="2.5" ry="2.5" style="stroke:#181818;stroke-width:0.5;" width="200" x="5" y="1063.2031"/><text fill="#000000" font-family="sans-serif" font-size="20" lengthAdjust="spacing" textLength="186" x="12" y="1090.9648">:PlaceOfferController</text><rect fill="#E2E2F0" height="39.1563" rx="2.5" ry="2.5" style="stroke:#181818;stroke-width:0.5;" width="101" x="308.5" y="43.6094"/><text fill="#000000" font-family="sans-serif" font-size="20" lengthAdjust="spacing" textLength="87" x="315.5" y="71.3711">:XMapper</text><rect fill="#E2E2F0" height="39.1563" rx="2.5" ry="2.5" style="stroke:#181818;stroke-width:0.5;" width="101" x="308.5" y="1063.2031"/><text fill="#000000" font-family="sans-serif" font-size="20" lengthAdjust="spacing" textLength="87" x="315.5" y="1090.9648">:XMapper</text><rect fill="#E2E2F0" height="39.1563" rx="2.5" ry="2.5" style="stroke:#181818;stroke-width:0.5;" width="433" x="1095.5" y="1063.2031"/><text fill="#000000" font-family="sans-serif" font-size="20" lengthAdjust="spacing" textLength="419" x="1102.5" y="1090.9648">announcementListDTO:List&lt;AnnouncementDto&gt;</text><rect fill="#E2E2F0" height="39.1563" rx="2.5" ry="2.5" style="stroke:#181818;stroke-width:0.5;" width="336" x="1538.5" y="1063.2031"/><text fill="#000000" font-family="sans-serif" font-size="20" lengthAdjust="spacing" textLength="322" x="1545.5" y="1090.9648">announcementDto:AnnouncementDto</text><rect fill="#FFFFFF" height="961.4375" style="stroke:#181818;stroke-width:1.0;" width="10" x="100" y="93.7656"/><rect fill="#FFFFFF" height="921.2813" style="stroke:#181818;stroke-width:1.0;" width="10" x="354" y="124.9219"/><rect fill="#FFFFFF" height="28" style="stroke:#181818;stroke-width:1.0;" width="10" x="359" y="838.7344"/><rect fill="#FFFFFF" height="39.1563" style="stroke:#181818;stroke-width:1.0;" width="10" x="1307" y="282.5469"/><rect fill="#FFFFFF" height="39.1563" style="stroke:#181818;stroke-width:1.0;" width="10" x="1307" y="360.8594"/><rect fill="#FFFFFF" height="39.1563" style="stroke:#181818;stroke-width:1.0;" width="10" x="1307" y="439.1719"/><rect fill="#FFFFFF" height="39.1563" style="stroke:#181818;stroke-width:1.0;" width="10" x="1307" y="517.4844"/><rect fill="#FFFFFF" height="39.1563" style="stroke:#181818;stroke-width:1.0;" width="10" x="1307" y="595.7969"/><rect fill="#FFFFFF" height="39.1563" style="stroke:#181818;stroke-width:1.0;" width="10" x="1307" y="674.1094"/><rect fill="#FFFFFF" height="39.1563" style="stroke:#181818;stroke-width:1.0;" width="10" x="1307" y="752.4219"/><rect fill="#FFFFFF" height="30" style="stroke:#181818;stroke-width:1.0;" width="10" x="1307" y="963.0469"/><polygon fill="#181818" points="342,120.9219,352,124.9219,342,128.9219,346,124.9219" style="stroke:#181818;stroke-width:1.0;"/><line style="stroke:#181818;stroke-width:1.0;" x1="110" x2="348" y1="124.9219" y2="124.9219"/><text fill="#000000" font-family="sans-serif" font-size="20" font-weight="bold" lengthAdjust="spacing" textLength="22" x="117" y="118.5273">19</text><text fill="#000000" font-family="sans-serif" font-size="20" lengthAdjust="spacing" textLength="199" x="143" y="118.5273">toDto(listOfProperties)</text><path d="M288.5,139.9219 L665.5,139.9219 L665.5,157.0781 L655.5,167.0781 L288.5,167.0781 L288.5,139.9219 " fill="#EEEEEE" style="stroke:#000000;stroke-width:1.5;"/><rect fill="none" height="868.125" style="stroke:#000000;stroke-width:1.5;" width="1606" x="288.5" y="139.9219"/><text fill="#000000" font-family="sans-serif" font-size="20" font-weight="bold" lengthAdjust="spacing" textLength="332" x="303.5" y="161.6836">Get Announcement List Using DTO</text><polygon fill="#181818" points="1083.5,194.2344,1093.5,198.2344,1083.5,202.2344,1087.5,198.2344" style="stroke:#181818;stroke-width:1.0;"/><line style="stroke:#181818;stroke-width:1.0;" x1="364" x2="1089.5" y1="198.2344" y2="198.2344"/><text fill="#000000" font-family="sans-serif" font-size="20" font-weight="bold" lengthAdjust="spacing" textLength="22" x="371" y="191.8398">20</text><text fill="#000000" font-family="sans-serif" font-size="20" lengthAdjust="spacing" textLength="70" x="397" y="191.8398">create()</text><rect fill="#E2E2F0" height="39.1563" rx="2.5" ry="2.5" style="stroke:#181818;stroke-width:0.5;" width="433" x="1095.5" y="167.0781"/><text fill="#000000" font-family="sans-serif" font-size="20" lengthAdjust="spacing" textLength="419" x="1102.5" y="194.8398">announcementListDTO:List&lt;AnnouncementDto&gt;</text><path d="M298.5,224.2344 L384.5,224.2344 L384.5,241.3906 L374.5,251.3906 L298.5,251.3906 L298.5,224.2344 " fill="#EEEEEE" style="stroke:#000000;stroke-width:1.5;"/><rect fill="none" height="776.8125" style="stroke:#000000;stroke-width:1.5;" width="1586" x="298.5" y="224.2344"/><text fill="#000000" font-family="sans-serif" font-size="20" font-weight="bold" lengthAdjust="spacing" textLength="41" x="313.5" y="245.9961">loop</text><polygon fill="#181818" points="1295,278.5469,1305,282.5469,1295,286.5469,1299,282.5469" style="stroke:#181818;stroke-width:1.0;"/><line style="stroke:#181818;stroke-width:1.0;" x1="364" x2="1301" y1="282.5469" y2="282.5469"/><text fill="#000000" font-family="sans-serif" font-size="20" font-weight="bold" lengthAdjust="spacing" textLength="22" x="371" y="276.1523">21</text><text fill="#000000" font-family="sans-serif" font-size="20" lengthAdjust="spacing" textLength="147" x="397" y="276.1523">date = getDate()</text><polygon fill="#181818" points="1295,356.8594,1305,360.8594,1295,364.8594,1299,360.8594" style="stroke:#181818;stroke-width:1.0;"/><line style="stroke:#181818;stroke-width:1.0;" x1="364" x2="1301" y1="360.8594" y2="360.8594"/><text fill="#000000" font-family="sans-serif" font-size="20" font-weight="bold" lengthAdjust="spacing" textLength="22" x="371" y="354.4648">23</text><text fill="#000000" font-family="sans-serif" font-size="20" lengthAdjust="spacing" textLength="216" x="397" y="354.4648">property = getProperty()</text><polygon fill="#181818" points="1295,435.1719,1305,439.1719,1295,443.1719,1299,439.1719" style="stroke:#181818;stroke-width:1.0;"/><line style="stroke:#181818;stroke-width:1.0;" x1="364" x2="1301" y1="439.1719" y2="439.1719"/><text fill="#000000" font-family="sans-serif" font-size="20" font-weight="bold" lengthAdjust="spacing" textLength="22" x="371" y="432.7773">25</text><text fill="#000000" font-family="sans-serif" font-size="20" lengthAdjust="spacing" textLength="348" x="397" y="432.7773">typeOfBusiness = getTypeOfBusiness()</text><polygon fill="#181818" points="1295,513.4844,1305,517.4844,1295,521.4844,1299,517.4844" style="stroke:#181818;stroke-width:1.0;"/><line style="stroke:#181818;stroke-width:1.0;" x1="364" x2="1301" y1="517.4844" y2="517.4844"/><text fill="#000000" font-family="sans-serif" font-size="20" font-weight="bold" lengthAdjust="spacing" textLength="22" x="371" y="511.0898">27</text><text fill="#000000" font-family="sans-serif" font-size="20" lengthAdjust="spacing" textLength="304" x="397" y="511.0898">propertyType = getPropertyType()</text><polygon fill="#181818" points="1295,591.7969,1305,595.7969,1295,599.7969,1299,595.7969" style="stroke:#181818;stroke-width:1.0;"/><line style="stroke:#181818;stroke-width:1.0;" x1="364" x2="1301" y1="595.7969" y2="595.7969"/><text fill="#000000" font-family="sans-serif" font-size="20" font-weight="bold" lengthAdjust="spacing" textLength="22" x="371" y="589.4023">29</text><text fill="#000000" font-family="sans-serif" font-size="20" lengthAdjust="spacing" textLength="220" x="397" y="589.4023">business = getBusiness()</text><polygon fill="#181818" points="1295,670.1094,1305,674.1094,1295,678.1094,1299,674.1094" style="stroke:#181818;stroke-width:1.0;"/><line style="stroke:#181818;stroke-width:1.0;" x1="364" x2="1301" y1="674.1094" y2="674.1094"/><text fill="#000000" font-family="sans-serif" font-size="20" font-weight="bold" lengthAdjust="spacing" textLength="22" x="371" y="667.7148">31</text><text fill="#000000" font-family="sans-serif" font-size="20" lengthAdjust="spacing" textLength="166" x="397" y="667.7148">agent = getAgent()</text><polygon fill="#181818" points="1295,748.4219,1305,752.4219,1295,756.4219,1299,752.4219" style="stroke:#181818;stroke-width:1.0;"/><line style="stroke:#181818;stroke-width:1.0;" x1="364" x2="1301" y1="752.4219" y2="752.4219"/><text fill="#000000" font-family="sans-serif" font-size="20" font-weight="bold" lengthAdjust="spacing" textLength="22" x="371" y="746.0273">33</text><text fill="#000000" font-family="sans-serif" font-size="20" lengthAdjust="spacing" textLength="403" x="397" y="746.0273">durationOfContract = getDurationOfContract()</text><line style="stroke:#181818;stroke-width:1.0;" x1="369" x2="411" y1="830.7344" y2="830.7344"/><line style="stroke:#181818;stroke-width:1.0;" x1="411" x2="411" y1="830.7344" y2="843.7344"/><line style="stroke:#181818;stroke-width:1.0;" x1="370" x2="411" y1="843.7344" y2="843.7344"/><polygon fill="#181818" points="380,839.7344,370,843.7344,380,847.7344,376,843.7344" style="stroke:#181818;stroke-width:1.0;"/><text fill="#000000" font-family="sans-serif" font-size="20" font-weight="bold" lengthAdjust="spacing" textLength="22" x="376" y="824.3398">35</text><text fill="#000000" font-family="sans-serif" font-size="20" lengthAdjust="spacing" textLength="903" x="402" y="824.3398">propertiesDto = toDto(agent,property,typeOfBusiness,propertyType,business,date,durationOfContract)</text><polygon fill="#181818" points="1526.5,908.8906,1536.5,912.8906,1526.5,916.8906,1530.5,912.8906" style="stroke:#181818;stroke-width:1.0;"/><line style="stroke:#181818;stroke-width:1.0;stroke-dasharray:2.0,2.0;" x1="364" x2="1532.5" y1="912.8906" y2="912.8906"/><text fill="#000000" font-family="sans-serif" font-size="20" font-weight="bold" lengthAdjust="spacing" textLength="22" x="371" y="906.4961">36</text><text fill="#000000" font-family="sans-serif" font-size="20" lengthAdjust="spacing" textLength="88" x="397" y="906.4961">create(...)</text><rect fill="#E2E2F0" height="39.1563" rx="2.5" ry="2.5" style="stroke:#181818;stroke-width:0.5;" width="336" x="1538.5" y="881.7344"/><text fill="#000000" font-family="sans-serif" font-size="20" lengthAdjust="spacing" textLength="322" x="1545.5" y="909.4961">announcementDto:AnnouncementDto</text><polygon fill="#181818" points="1295,959.0469,1305,963.0469,1295,967.0469,1299,963.0469" style="stroke:#181818;stroke-width:1.0;"/><line style="stroke:#181818;stroke-width:1.0;" x1="364" x2="1301" y1="963.0469" y2="963.0469"/><text fill="#000000" font-family="sans-serif" font-size="20" font-weight="bold" lengthAdjust="spacing" textLength="22" x="371" y="956.6523">37</text><text fill="#000000" font-family="sans-serif" font-size="20" lengthAdjust="spacing" textLength="168" x="397" y="956.6523">add(propertieDTO)</text><polygon fill="#181818" points="121,1042.2031,111,1046.2031,121,1050.2031,117,1046.2031" style="stroke:#181818;stroke-width:1.0;"/><line style="stroke:#181818;stroke-width:1.0;stroke-dasharray:2.0,2.0;" x1="115" x2="358" y1="1046.2031" y2="1046.2031"/><text fill="#000000" font-family="sans-serif" font-size="20" font-weight="bold" lengthAdjust="spacing" textLength="22" x="127" y="1039.8086">38</text><text fill="#000000" font-family="sans-serif" font-size="20" lengthAdjust="spacing" textLength="179" x="153" y="1039.8086">listOfPropertiesDTO</text><!--SRC=[rLN1Rjim3BthAuYUai8Drjrch0NQ1kjbWmEq0mOCEoWMdGfr95Mc1sHVFygE7Tb1klOs-s3BDFdq7ccHrRCsJdgvBMt-Z0eK5h8kwOirzA3_87py80HfAX4UyAL6aoCijTnm0Aoa9orBk81x9FYgAuAiW1jZRCrkMpHKmVTAcmqi7pCXN73FjPE6u2nTbJB7h2ZGt_5MtfOb-ZEG5HnUHn4_laddzaxxzT13HZi7Dhnh6fwVOqfBijSDHFYogjUbhfxYxwSXEJ8T8JL08viGiYPhwkqQFLn-ujUSz6z962iJXpLSN7To80Mo335ZKfGLAs_PI1gh-G6aKoxklQrTa_cOG5k6AEiTDEzoGl7vUGgvHmQVpOK0lafhNRlwTtGAAj2wWWtIiiK8WJtVKsaUmlzyqagX-NLocyPTuJjXNs7jskJkMkRxLE-cmfvsZW_FRSrrngfgDJmER5EhGs0_h4MmJ4N5Ub29QTK0Kha9ZuRwJLXE9UkgzfAqDLdHj5C6tlUX8_j_fkZGxrtVuxdlC_ks_pS5IRgZaGnFUn8VcQJxyvBGXfFZZ8o4z-DZn7nWxvaorT5qYuR5Oh6OlxrMKgbPBvOdqtiAyeOC1pSqIeZc5Wk89cqAuy4QHkHn5lu2]--></g></svg>