<?xml version="1.0" encoding="UTF-8" standalone="no"?><svg xmlns="http://www.w3.org/2000/svg" xmlns:xlink="http://www.w3.org/1999/xlink" contentStyleType="text/css" height="1336px" preserveAspectRatio="none" style="width:3727px;height:1336px;background:#FFFFFF;" version="1.1" viewBox="0 0 3727 1336" width="3727px" zoomAndPan="magnify"><defs/><g><text fill="#000000" font-family="sans-serif" font-size="14" font-weight="bold" lengthAdjust="spacing" textLength="223" x="1751.25" y="29.5332">US010 - Sequence Diagram Split</text><rect fill="#FFFFFF" height="1099.1563" style="stroke:#181818;stroke-width:1.0;" width="10" x="27.5" y="138.7656"/><rect fill="#FFFFFF" height="514.5" style="stroke:#181818;stroke-width:1.0;" width="10" x="386.5" y="169.9219"/><rect fill="#FFFFFF" height="39.1563" style="stroke:#181818;stroke-width:1.0;" width="10" x="386.5" y="723.5781"/><rect fill="#FFFFFF" height="436.0313" style="stroke:#181818;stroke-width:1.0;" width="10" x="386.5" y="801.8906"/><rect fill="#FFFFFF" height="386.0313" style="stroke:#181818;stroke-width:1.0;" width="10" x="960.5" y="259.2344"/><rect fill="#FFFFFF" height="396.875" style="stroke:#181818;stroke-width:1.0;" width="10" x="960.5" y="841.0469"/><rect fill="#FFFFFF" height="154.7813" style="stroke:#181818;stroke-width:1.0;" width="10" x="2476" y="995.8281"/><line style="stroke:#181818;stroke-width:0.5;stroke-dasharray:5.0,5.0;" x1="32" x2="32" y1="128.7656" y2="1246.9219"/><line style="stroke:#181818;stroke-width:0.5;stroke-dasharray:5.0,5.0;" x1="391.5" x2="391.5" y1="128.7656" y2="1246.9219"/><line style="stroke:#181818;stroke-width:0.5;stroke-dasharray:5.0,5.0;" x1="965.5" x2="965.5" y1="213" y2="1246.9219"/><line style="stroke:#181818;stroke-width:0.5;stroke-dasharray:5.0,5.0;" x1="1140.5" x2="1140.5" y1="128.7656" y2="1246.9219"/><line style="stroke:#181818;stroke-width:0.5;stroke-dasharray:5.0,5.0;" x1="1280.5" x2="1280.5" y1="128.7656" y2="1246.9219"/><line style="stroke:#181818;stroke-width:0.5;stroke-dasharray:5.0,5.0;" x1="1447.5" x2="1447.5" y1="128.7656" y2="1246.9219"/><line style="stroke:#181818;stroke-width:0.5;stroke-dasharray:5.0,5.0;" x1="1641.5" x2="1641.5" y1="128.7656" y2="1246.9219"/><line style="stroke:#181818;stroke-width:0.5;stroke-dasharray:5.0,5.0;" x1="1815.5" x2="1815.5" y1="128.7656" y2="1246.9219"/><line style="stroke:#181818;stroke-width:0.5;stroke-dasharray:5.0,5.0;" x1="1975.5" x2="1975.5" y1="128.7656" y2="1246.9219"/><line style="stroke:#181818;stroke-width:0.5;stroke-dasharray:5.0,5.0;" x1="2226.5" x2="2226.5" y1="128.7656" y2="1246.9219"/><line style="stroke:#181818;stroke-width:0.5;stroke-dasharray:5.0,5.0;" x1="2480.5" x2="2480.5" y1="128.7656" y2="1246.9219"/><line style="stroke:#181818;stroke-width:0.5;stroke-dasharray:5.0,5.0;" x1="2621.5" x2="2621.5" y1="128.7656" y2="1246.9219"/><line style="stroke:#181818;stroke-width:0.5;stroke-dasharray:5.0,5.0;" x1="2898.5" x2="2898.5" y1="128.7656" y2="1246.9219"/><line style="stroke:#181818;stroke-width:0.5;stroke-dasharray:5.0,5.0;" x1="3293.5" x2="3293.5" y1="128.7656" y2="1246.9219"/><line style="stroke:#181818;stroke-width:0.5;stroke-dasharray:5.0,5.0;" x1="3501.5" x2="3501.5" y1="128.7656" y2="1246.9219"/><line style="stroke:#181818;stroke-width:0.5;stroke-dasharray:5.0,5.0;" x1="3631.5" x2="3631.5" y1="128.7656" y2="1246.9219"/><text fill="#000000" font-family="sans-serif" font-size="20" lengthAdjust="spacing" textLength="49" x="5" y="124.3711">Client</text><ellipse cx="32.5" cy="52.1094" fill="#E3E3E3" rx="8" ry="8" style="stroke:#181818;stroke-width:0.5;"/><path d="M32.5,60.1094 L32.5,87.1094 M19.5,68.1094 L45.5,68.1094 M32.5,87.1094 L19.5,102.1094 M32.5,87.1094 L45.5,102.1094 " fill="none" style="stroke:#181818;stroke-width:0.5;"/><text fill="#000000" font-family="sans-serif" font-size="20" lengthAdjust="spacing" textLength="49" x="5" y="1266.6836">Client</text><ellipse cx="32.5" cy="1279.5781" fill="#E3E3E3" rx="8" ry="8" style="stroke:#181818;stroke-width:0.5;"/><path d="M32.5,1287.5781 L32.5,1314.5781 M19.5,1295.5781 L45.5,1295.5781 M32.5,1314.5781 L19.5,1329.5781 M32.5,1314.5781 L45.5,1329.5781 " fill="none" style="stroke:#181818;stroke-width:0.5;"/><rect fill="#E3E3E3" height="39.1563" rx="2.5" ry="2.5" style="stroke:#181818;stroke-width:0.5;" width="134" x="324.5" y="88.6094"/><text fill="#000000" font-family="sans-serif" font-size="20" lengthAdjust="spacing" textLength="120" x="331.5" y="116.3711">:PlaceOfferUI</text><rect fill="#E3E3E3" height="39.1563" rx="2.5" ry="2.5" style="stroke:#181818;stroke-width:0.5;" width="134" x="324.5" y="1245.9219"/><text fill="#000000" font-family="sans-serif" font-size="20" lengthAdjust="spacing" textLength="120" x="331.5" y="1273.6836">:PlaceOfferUI</text><rect fill="#E3E3E3" height="39.1563" rx="2.5" ry="2.5" style="stroke:#181818;stroke-width:0.5;" width="200" x="865.5" y="1245.9219"/><text fill="#000000" font-family="sans-serif" font-size="20" lengthAdjust="spacing" textLength="186" x="872.5" y="1273.6836">:PlaceOfferController</text><rect fill="#E3E3E3" height="39.1563" rx="2.5" ry="2.5" style="stroke:#181818;stroke-width:0.5;" width="130" x="1075.5" y="88.6094"/><text fill="#000000" font-family="sans-serif" font-size="20" lengthAdjust="spacing" textLength="116" x="1082.5" y="116.3711">:Repositories</text><rect fill="#E3E3E3" height="39.1563" rx="2.5" ry="2.5" style="stroke:#181818;stroke-width:0.5;" width="130" x="1075.5" y="1245.9219"/><text fill="#000000" font-family="sans-serif" font-size="20" lengthAdjust="spacing" textLength="116" x="1082.5" y="1273.6836">:Repositories</text><rect fill="#E3E3E3" height="64.3125" rx="2.5" ry="2.5" style="stroke:#181818;stroke-width:0.5;" width="130" x="1215.5" y="63.4531"/><text fill="#000000" font-family="sans-serif" font-size="20" lengthAdjust="spacing" textLength="103" x="1229" y="91.2148">repositories</text><text fill="#000000" font-family="sans-serif" font-size="20" lengthAdjust="spacing" textLength="116" x="1222.5" y="116.3711">:Repositories</text><rect fill="#E3E3E3" height="64.3125" rx="2.5" ry="2.5" style="stroke:#181818;stroke-width:0.5;" width="130" x="1215.5" y="1245.9219"/><text fill="#000000" font-family="sans-serif" font-size="20" lengthAdjust="spacing" textLength="103" x="1229" y="1273.6836">repositories</text><text fill="#000000" font-family="sans-serif" font-size="20" lengthAdjust="spacing" textLength="116" x="1222.5" y="1298.8398">:Repositories</text><rect fill="#E3E3E3" height="39.1563" rx="2.5" ry="2.5" style="stroke:#181818;stroke-width:0.5;" width="184" x="1355.5" y="88.6094"/><text fill="#000000" font-family="sans-serif" font-size="20" lengthAdjust="spacing" textLength="170" x="1362.5" y="116.3711">:ApplicationSession</text><rect fill="#E3E3E3" height="39.1563" rx="2.5" ry="2.5" style="stroke:#181818;stroke-width:0.5;" width="184" x="1355.5" y="1245.9219"/><text fill="#000000" font-family="sans-serif" font-size="20" lengthAdjust="spacing" textLength="170" x="1362.5" y="1273.6836">:ApplicationSession</text><rect fill="#E3E3E3" height="64.3125" rx="2.5" ry="2.5" style="stroke:#181818;stroke-width:0.5;" width="184" x="1549.5" y="63.4531"/><text fill="#000000" font-family="sans-serif" font-size="20" lengthAdjust="spacing" textLength="102" x="1590.5" y="91.2148">appSession</text><text fill="#000000" font-family="sans-serif" font-size="20" lengthAdjust="spacing" textLength="170" x="1556.5" y="116.3711">:ApplicationSession</text><rect fill="#E3E3E3" height="64.3125" rx="2.5" ry="2.5" style="stroke:#181818;stroke-width:0.5;" width="184" x="1549.5" y="1245.9219"/><text fill="#000000" font-family="sans-serif" font-size="20" lengthAdjust="spacing" textLength="102" x="1590.5" y="1273.6836">appSession</text><text fill="#000000" font-family="sans-serif" font-size="20" lengthAdjust="spacing" textLength="170" x="1556.5" y="1298.8398">:ApplicationSession</text><rect fill="#E3E3E3" height="64.3125" rx="2.5" ry="2.5" style="stroke:#181818;stroke-width:0.5;" width="144" x="1743.5" y="63.4531"/><text fill="#000000" font-family="sans-serif" font-size="20" lengthAdjust="spacing" textLength="130" x="1750.5" y="91.2148">currentSession</text><text fill="#000000" font-family="sans-serif" font-size="20" lengthAdjust="spacing" textLength="116" x="1757.5" y="116.3711">:UserSession</text><rect fill="#E3E3E3" height="64.3125" rx="2.5" ry="2.5" style="stroke:#181818;stroke-width:0.5;" width="144" x="1743.5" y="1245.9219"/><text fill="#000000" font-family="sans-serif" font-size="20" lengthAdjust="spacing" textLength="130" x="1750.5" y="1273.6836">currentSession</text><text fill="#000000" font-family="sans-serif" font-size="20" lengthAdjust="spacing" textLength="116" x="1757.5" y="1298.8398">:UserSession</text><rect fill="#E3E3E3" height="64.3125" rx="2.5" ry="2.5" style="stroke:#181818;stroke-width:0.5;" width="156" x="1897.5" y="63.4531"/><text fill="#000000" font-family="sans-serif" font-size="20" lengthAdjust="spacing" textLength="133" x="1909" y="91.2148">userRepository</text><text fill="#000000" font-family="sans-serif" font-size="20" lengthAdjust="spacing" textLength="142" x="1904.5" y="116.3711">:UserRepository</text><rect fill="#E3E3E3" height="64.3125" rx="2.5" ry="2.5" style="stroke:#181818;stroke-width:0.5;" width="156" x="1897.5" y="1245.9219"/><text fill="#000000" font-family="sans-serif" font-size="20" lengthAdjust="spacing" textLength="133" x="1909" y="1273.6836">userRepository</text><text fill="#000000" font-family="sans-serif" font-size="20" lengthAdjust="spacing" textLength="142" x="1904.5" y="1298.8398">:UserRepository</text><rect fill="#E3E3E3" height="64.3125" rx="2.5" ry="2.5" style="stroke:#181818;stroke-width:0.5;" width="327" x="2063.5" y="63.4531"/><text fill="#000000" font-family="sans-serif" font-size="20" lengthAdjust="spacing" textLength="305" x="2074.5" y="91.2148">publishedAnnouncementRepository</text><text fill="#000000" font-family="sans-serif" font-size="20" lengthAdjust="spacing" textLength="313" x="2070.5" y="116.3711">:PublishedAnnouncementRepository</text><rect fill="#E3E3E3" height="64.3125" rx="2.5" ry="2.5" style="stroke:#181818;stroke-width:0.5;" width="327" x="2063.5" y="1245.9219"/><text fill="#000000" font-family="sans-serif" font-size="20" lengthAdjust="spacing" textLength="305" x="2074.5" y="1273.6836">publishedAnnouncementRepository</text><text fill="#000000" font-family="sans-serif" font-size="20" lengthAdjust="spacing" textLength="313" x="2070.5" y="1298.8398">:PublishedAnnouncementRepository</text><rect fill="#E3E3E3" height="64.3125" rx="2.5" ry="2.5" style="stroke:#181818;stroke-width:0.5;" width="161" x="2400.5" y="63.4531"/><text fill="#000000" font-family="sans-serif" font-size="20" lengthAdjust="spacing" textLength="136" x="2413" y="91.2148">offerRepository</text><text fill="#000000" font-family="sans-serif" font-size="20" lengthAdjust="spacing" textLength="147" x="2407.5" y="116.3711">:OfferRepository</text><rect fill="#E3E3E3" height="64.3125" rx="2.5" ry="2.5" style="stroke:#181818;stroke-width:0.5;" width="161" x="2400.5" y="1245.9219"/><text fill="#000000" font-family="sans-serif" font-size="20" lengthAdjust="spacing" textLength="136" x="2413" y="1273.6836">offerRepository</text><text fill="#000000" font-family="sans-serif" font-size="20" lengthAdjust="spacing" textLength="147" x="2407.5" y="1298.8398">:OfferRepository</text><rect fill="#E3E3E3" height="39.1563" rx="2.5" ry="2.5" style="stroke:#181818;stroke-width:0.5;" width="101" x="2571.5" y="88.6094"/><text fill="#000000" font-family="sans-serif" font-size="20" lengthAdjust="spacing" textLength="87" x="2578.5" y="116.3711">:XMapper</text><rect fill="#E3E3E3" height="39.1563" rx="2.5" ry="2.5" style="stroke:#181818;stroke-width:0.5;" width="101" x="2571.5" y="1245.9219"/><text fill="#000000" font-family="sans-serif" font-size="20" lengthAdjust="spacing" textLength="87" x="2578.5" y="1273.6836">:XMapper</text><rect fill="#E3E3E3" height="39.1563" rx="2.5" ry="2.5" style="stroke:#181818;stroke-width:0.5;" width="433" x="2682.5" y="88.6094"/><text fill="#000000" font-family="sans-serif" font-size="20" lengthAdjust="spacing" textLength="419" x="2689.5" y="116.3711">announcementListDTO:List&lt;AnnouncementDto&gt;</text><rect fill="#E3E3E3" height="39.1563" rx="2.5" ry="2.5" style="stroke:#181818;stroke-width:0.5;" width="433" x="2682.5" y="1245.9219"/><text fill="#000000" font-family="sans-serif" font-size="20" lengthAdjust="spacing" textLength="419" x="2689.5" y="1273.6836">announcementListDTO:List&lt;AnnouncementDto&gt;</text><rect fill="#E3E3E3" height="39.1563" rx="2.5" ry="2.5" style="stroke:#181818;stroke-width:0.5;" width="336" x="3125.5" y="88.6094"/><text fill="#000000" font-family="sans-serif" font-size="20" lengthAdjust="spacing" textLength="322" x="3132.5" y="116.3711">announcementDto:AnnouncementDto</text><rect fill="#E3E3E3" height="39.1563" rx="2.5" ry="2.5" style="stroke:#181818;stroke-width:0.5;" width="336" x="3125.5" y="1245.9219"/><text fill="#000000" font-family="sans-serif" font-size="20" lengthAdjust="spacing" textLength="322" x="3132.5" y="1273.6836">announcementDto:AnnouncementDto</text><rect fill="#E3E3E3" height="39.1563" rx="2.5" ry="2.5" style="stroke:#181818;stroke-width:0.5;" width="60" x="3471.5" y="88.6094"/><text fill="#000000" font-family="sans-serif" font-size="20" lengthAdjust="spacing" textLength="46" x="3478.5" y="116.3711">Offer</text><rect fill="#E3E3E3" height="39.1563" rx="2.5" ry="2.5" style="stroke:#181818;stroke-width:0.5;" width="60" x="3471.5" y="1245.9219"/><text fill="#000000" font-family="sans-serif" font-size="20" lengthAdjust="spacing" textLength="46" x="3478.5" y="1273.6836">Offer</text><rect fill="#E3E3E3" height="39.1563" rx="2.5" ry="2.5" style="stroke:#181818;stroke-width:0.5;" width="180" x="3541.5" y="88.6094"/><text fill="#000000" font-family="sans-serif" font-size="20" lengthAdjust="spacing" textLength="166" x="3548.5" y="116.3711">offerDto:OfferDTO</text><rect fill="#E3E3E3" height="39.1563" rx="2.5" ry="2.5" style="stroke:#181818;stroke-width:0.5;" width="180" x="3541.5" y="1245.9219"/><text fill="#000000" font-family="sans-serif" font-size="20" lengthAdjust="spacing" textLength="166" x="3548.5" y="1273.6836">offerDto:OfferDTO</text><rect fill="#FFFFFF" height="1099.1563" style="stroke:#181818;stroke-width:1.0;" width="10" x="27.5" y="138.7656"/><rect fill="#FFFFFF" height="514.5" style="stroke:#181818;stroke-width:1.0;" width="10" x="386.5" y="169.9219"/><rect fill="#FFFFFF" height="39.1563" style="stroke:#181818;stroke-width:1.0;" width="10" x="386.5" y="723.5781"/><rect fill="#FFFFFF" height="436.0313" style="stroke:#181818;stroke-width:1.0;" width="10" x="386.5" y="801.8906"/><rect fill="#FFFFFF" height="386.0313" style="stroke:#181818;stroke-width:1.0;" width="10" x="960.5" y="259.2344"/><rect fill="#FFFFFF" height="396.875" style="stroke:#181818;stroke-width:1.0;" width="10" x="960.5" y="841.0469"/><rect fill="#FFFFFF" height="154.7813" style="stroke:#181818;stroke-width:1.0;" width="10" x="2476" y="995.8281"/><polygon fill="#181818" points="374.5,165.9219,384.5,169.9219,374.5,173.9219,378.5,169.9219" style="stroke:#181818;stroke-width:1.0;"/><line style="stroke:#181818;stroke-width:1.0;" x1="37.5" x2="380.5" y1="169.9219" y2="169.9219"/><text fill="#000000" font-family="sans-serif" font-size="20" font-weight="bold" lengthAdjust="spacing" textLength="11" x="44.5" y="163.5273">1</text><text fill="#000000" font-family="sans-serif" font-size="20" lengthAdjust="spacing" textLength="315" x="59.5" y="163.5273">asks to place an offer on a property</text><polygon fill="#181818" points="853.5,205.0781,863.5,209.0781,853.5,213.0781,857.5,209.0781" style="stroke:#181818;stroke-width:1.0;"/><line style="stroke:#181818;stroke-width:1.0;" x1="396.5" x2="859.5" y1="209.0781" y2="209.0781"/><text fill="#000000" font-family="sans-serif" font-size="20" font-weight="bold" lengthAdjust="spacing" textLength="11" x="403.5" y="202.6836">2</text><text fill="#000000" font-family="sans-serif" font-size="20" lengthAdjust="spacing" textLength="56" x="418.5" y="202.6836">create</text><rect fill="#E3E3E3" height="39.1563" rx="2.5" ry="2.5" style="stroke:#181818;stroke-width:0.5;" width="200" x="865.5" y="177.9219"/><text fill="#000000" font-family="sans-serif" font-size="20" lengthAdjust="spacing" textLength="186" x="872.5" y="205.6836">:PlaceOfferController</text><polygon fill="#181818" points="948.5,255.2344,958.5,259.2344,948.5,263.2344,952.5,259.2344" style="stroke:#181818;stroke-width:1.0;"/><line style="stroke:#181818;stroke-width:1.0;" x1="396.5" x2="954.5" y1="259.2344" y2="259.2344"/><text fill="#000000" font-family="sans-serif" font-size="20" font-weight="bold" lengthAdjust="spacing" textLength="11" x="403.5" y="252.8398">3</text><text fill="#000000" font-family="sans-serif" font-size="20" lengthAdjust="spacing" textLength="186" x="418.5" y="252.8398">getListOfProperties()</text><rect fill="none" height="110.625" style="stroke:#000000;stroke-width:1.5;" width="206" x="862.5" y="267.2344"/><path d="M862.5,267.2344 L933.5,267.2344 L933.5,284.2344 L923.5,294.2344 L862.5,294.2344 L862.5,267.2344 " fill="#EEEEEE" style="stroke:#000000;stroke-width:2.0;"/><text fill="#000000" font-family="sans-serif" font-size="20" font-weight="bold" lengthAdjust="spacing" textLength="26" x="875.5" y="289.9961">ref</text><text fill="#000000" font-family="sans-serif" font-size="20" lengthAdjust="spacing" textLength="6" x="962.5" y="318.9961"> </text><text fill="#000000" font-family="sans-serif" font-size="20" lengthAdjust="spacing" textLength="142" x="894.5" y="344.1523">Get Client Email</text><text fill="#000000" font-family="sans-serif" font-size="20" lengthAdjust="spacing" textLength="6" x="962.5" y="369.3086"> </text><rect fill="none" height="110.625" style="stroke:#000000;stroke-width:1.5;" width="206" x="862.5" y="382.8594"/><path d="M862.5,382.8594 L933.5,382.8594 L933.5,399.8594 L923.5,409.8594 L862.5,409.8594 L862.5,382.8594 " fill="#EEEEEE" style="stroke:#000000;stroke-width:2.0;"/><text fill="#000000" font-family="sans-serif" font-size="20" font-weight="bold" lengthAdjust="spacing" textLength="26" x="875.5" y="405.6211">ref</text><text fill="#000000" font-family="sans-serif" font-size="20" lengthAdjust="spacing" textLength="6" x="962.5" y="434.6211"> </text><text fill="#000000" font-family="sans-serif" font-size="20" lengthAdjust="spacing" textLength="195" x="868" y="459.7773">Get List Of Properties</text><text fill="#000000" font-family="sans-serif" font-size="20" lengthAdjust="spacing" textLength="6" x="962.5" y="484.9336"> </text><rect fill="none" height="110.625" style="stroke:#000000;stroke-width:1.5;" width="352" x="862.5" y="498.4844"/><path d="M862.5,498.4844 L933.5,498.4844 L933.5,515.4844 L923.5,525.4844 L862.5,525.4844 L862.5,498.4844 " fill="#EEEEEE" style="stroke:#000000;stroke-width:2.0;"/><text fill="#000000" font-family="sans-serif" font-size="20" font-weight="bold" lengthAdjust="spacing" textLength="26" x="875.5" y="521.2461">ref</text><text fill="#000000" font-family="sans-serif" font-size="20" lengthAdjust="spacing" textLength="6" x="1035.5" y="550.2461"> </text><text fill="#000000" font-family="sans-serif" font-size="20" lengthAdjust="spacing" textLength="344" x="866.5" y="575.4023">Get List Of Announcements Using DTO</text><text fill="#000000" font-family="sans-serif" font-size="20" lengthAdjust="spacing" textLength="6" x="1035.5" y="600.5586"> </text><polygon fill="#181818" points="407.5,641.2656,397.5,645.2656,407.5,649.2656,403.5,645.2656" style="stroke:#181818;stroke-width:1.0;"/><line style="stroke:#181818;stroke-width:1.0;stroke-dasharray:2.0,2.0;" x1="401.5" x2="964.5" y1="645.2656" y2="645.2656"/><text fill="#000000" font-family="sans-serif" font-size="20" font-weight="bold" lengthAdjust="spacing" textLength="11" x="413.5" y="638.8711">4</text><text fill="#000000" font-family="sans-serif" font-size="20" lengthAdjust="spacing" textLength="179" x="428.5" y="638.8711">listOfPropertiesDTO</text><polygon fill="#181818" points="48.5,680.4219,38.5,684.4219,48.5,688.4219,44.5,684.4219" style="stroke:#181818;stroke-width:1.0;"/><line style="stroke:#181818;stroke-width:1.0;stroke-dasharray:2.0,2.0;" x1="42.5" x2="390.5" y1="684.4219" y2="684.4219"/><text fill="#000000" font-family="sans-serif" font-size="20" font-weight="bold" lengthAdjust="spacing" textLength="11" x="54.5" y="678.0273">5</text><text fill="#000000" font-family="sans-serif" font-size="20" lengthAdjust="spacing" textLength="237" x="69.5" y="678.0273">shows the list of properties</text><polygon fill="#181818" points="374.5,719.5781,384.5,723.5781,374.5,727.5781,378.5,723.5781" style="stroke:#181818;stroke-width:1.0;"/><line style="stroke:#181818;stroke-width:1.0;" x1="37.5" x2="380.5" y1="723.5781" y2="723.5781"/><text fill="#000000" font-family="sans-serif" font-size="20" font-weight="bold" lengthAdjust="spacing" textLength="11" x="44.5" y="717.1836">6</text><text fill="#000000" font-family="sans-serif" font-size="20" lengthAdjust="spacing" textLength="246" x="59.5" y="717.1836">selects the desired property</text><polygon fill="#181818" points="48.5,758.7344,38.5,762.7344,48.5,766.7344,44.5,762.7344" style="stroke:#181818;stroke-width:1.0;"/><line style="stroke:#181818;stroke-width:1.0;stroke-dasharray:2.0,2.0;" x1="42.5" x2="390.5" y1="762.7344" y2="762.7344"/><text fill="#000000" font-family="sans-serif" font-size="20" font-weight="bold" lengthAdjust="spacing" textLength="11" x="54.5" y="756.3398">7</text><text fill="#000000" font-family="sans-serif" font-size="20" lengthAdjust="spacing" textLength="216" x="69.5" y="756.3398">request the offer amount</text><polygon fill="#181818" points="374.5,797.8906,384.5,801.8906,374.5,805.8906,378.5,801.8906" style="stroke:#181818;stroke-width:1.0;"/><line style="stroke:#181818;stroke-width:1.0;" x1="37.5" x2="380.5" y1="801.8906" y2="801.8906"/><text fill="#000000" font-family="sans-serif" font-size="20" font-weight="bold" lengthAdjust="spacing" textLength="11" x="44.5" y="795.4961">8</text><text fill="#000000" font-family="sans-serif" font-size="20" lengthAdjust="spacing" textLength="112" x="59.5" y="795.4961">submits data</text><polygon fill="#181818" points="948.5,837.0469,958.5,841.0469,948.5,845.0469,952.5,841.0469" style="stroke:#181818;stroke-width:1.0;"/><line style="stroke:#181818;stroke-width:1.0;" x1="396.5" x2="954.5" y1="841.0469" y2="841.0469"/><text fill="#000000" font-family="sans-serif" font-size="20" font-weight="bold" lengthAdjust="spacing" textLength="11" x="403.5" y="834.6523">9</text><text fill="#000000" font-family="sans-serif" font-size="20" lengthAdjust="spacing" textLength="530" x="418.5" y="834.6523">createOffer(propertyDescription, name, orderAmount, client)</text><rect fill="none" height="110.625" style="stroke:#000000;stroke-width:1.5;" width="206" x="862.5" y="849.0469"/><path d="M862.5,849.0469 L933.5,849.0469 L933.5,866.0469 L923.5,876.0469 L862.5,876.0469 L862.5,849.0469 " fill="#EEEEEE" style="stroke:#000000;stroke-width:2.0;"/><text fill="#000000" font-family="sans-serif" font-size="20" font-weight="bold" lengthAdjust="spacing" textLength="26" x="875.5" y="871.8086">ref</text><text fill="#000000" font-family="sans-serif" font-size="20" lengthAdjust="spacing" textLength="6" x="962.5" y="900.8086"> </text><text fill="#000000" font-family="sans-serif" font-size="20" lengthAdjust="spacing" textLength="115" x="908" y="925.9648">Get Property</text><text fill="#000000" font-family="sans-serif" font-size="20" lengthAdjust="spacing" textLength="6" x="962.5" y="951.1211"> </text><polygon fill="#181818" points="2464,991.8281,2474,995.8281,2464,999.8281,2468,995.8281" style="stroke:#181818;stroke-width:1.0;"/><line style="stroke:#181818;stroke-width:1.0;" x1="970.5" x2="2470" y1="995.8281" y2="995.8281"/><text fill="#000000" font-family="sans-serif" font-size="20" font-weight="bold" lengthAdjust="spacing" textLength="22" x="977.5" y="989.4336">10</text><text fill="#000000" font-family="sans-serif" font-size="20" lengthAdjust="spacing" textLength="432" x="1003.5" y="989.4336">createOffer(property, name, orderAmount, client)</text><rect fill="none" height="110.625" style="stroke:#000000;stroke-width:1.5;" width="167" x="2397.5" y="1003.8281"/><path d="M2397.5,1003.8281 L2468.5,1003.8281 L2468.5,1020.8281 L2458.5,1030.8281 L2397.5,1030.8281 L2397.5,1003.8281 " fill="#EEEEEE" style="stroke:#000000;stroke-width:2.0;"/><text fill="#000000" font-family="sans-serif" font-size="20" font-weight="bold" lengthAdjust="spacing" textLength="26" x="2410.5" y="1026.5898">ref</text><text fill="#000000" font-family="sans-serif" font-size="20" lengthAdjust="spacing" textLength="6" x="2478" y="1055.5898"> </text><text fill="#000000" font-family="sans-serif" font-size="20" lengthAdjust="spacing" textLength="112" x="2425" y="1080.7461">Create Offer</text><text fill="#000000" font-family="sans-serif" font-size="20" lengthAdjust="spacing" textLength="6" x="2478" y="1105.9023"> </text><polygon fill="#181818" points="981.5,1146.6094,971.5,1150.6094,981.5,1154.6094,977.5,1150.6094" style="stroke:#181818;stroke-width:1.0;"/><line style="stroke:#181818;stroke-width:1.0;stroke-dasharray:2.0,2.0;" x1="975.5" x2="2480" y1="1150.6094" y2="1150.6094"/><text fill="#000000" font-family="sans-serif" font-size="20" font-weight="bold" lengthAdjust="spacing" textLength="22" x="987.5" y="1144.2148">11</text><text fill="#000000" font-family="sans-serif" font-size="20" lengthAdjust="spacing" textLength="41" x="1013.5" y="1144.2148">offer</text><polygon fill="#181818" points="407.5,1185.7656,397.5,1189.7656,407.5,1193.7656,403.5,1189.7656" style="stroke:#181818;stroke-width:1.0;"/><line style="stroke:#181818;stroke-width:1.0;stroke-dasharray:2.0,2.0;" x1="401.5" x2="959.5" y1="1189.7656" y2="1189.7656"/><text fill="#000000" font-family="sans-serif" font-size="20" font-weight="bold" lengthAdjust="spacing" textLength="22" x="413.5" y="1183.3711">12</text><text fill="#000000" font-family="sans-serif" font-size="20" lengthAdjust="spacing" textLength="41" x="439.5" y="1183.3711">offer</text><polygon fill="#181818" points="48.5,1224.9219,38.5,1228.9219,48.5,1232.9219,44.5,1228.9219" style="stroke:#181818;stroke-width:1.0;"/><line style="stroke:#181818;stroke-width:1.0;stroke-dasharray:2.0,2.0;" x1="42.5" x2="385.5" y1="1228.9219" y2="1228.9219"/><text fill="#000000" font-family="sans-serif" font-size="20" font-weight="bold" lengthAdjust="spacing" textLength="22" x="54.5" y="1222.5273">13</text><text fill="#000000" font-family="sans-serif" font-size="20" lengthAdjust="spacing" textLength="236" x="80.5" y="1222.5273">displays operation success</text><!--SRC=[dLN1Zjem4BtdAqQSjYkGQ8-eGaBGLfLQ4JL5wg4NumnWuTYfxUoAVdt7JaASDEoYvP8mdlVcpOndOiz2bSomGcf-nXnoFB1AkizQkKpyHVWmJnBR-a2XbUOdemi4PogCJah6p-o8cRj818FSCNMKiOCziLm_2tM40vCMayG9HwwxRFv-3ZF8y4-5YYDi13jw_woKmYK9gvnMLR57G-_SQGEJjHIet0IOXVereGXES54ovM2oI2NZk3qSqEo-1g_iOXqMDxtMbAlHKgAfEQz_1uWVM6ehI8906polXaicVBQaj0yn4UAtUe6038DWgvBovym9hJAqbXu1mSgoxqY6vfm2t02jqhGFufKnLBSEkBDeOeJ_tuTKPEdoRI2TuOhgJ7ryMUsbi2VCLqhfYXfTa80UOVgoHuZmYay_fFRDxONOzYs1Sc0RjE7NTofmSp6Qzq7z8o7VX7MRdzk5VtwC5MwSNWOAVzBa49_VfYJaOi1KjxHlwnE4bBhaHghYQSCPoGsEhJKCcNXY3jlPIkedp9RD7C6206SBJaFfPmYOgk6W5J0eZQOYkKj7r8nVqi29g1knnqUYumR9Rzo1ZeyOAhizf3Kr3Sl3kqXdDwz90lGpU03zHD3un1zyGTTa1PyA9cHjHPNV0_GIg9xGYNWJF6wSdnY_4Aa9CLUK_2okkXmKmSDo7Ar3MqbVoZhX1IrW_KnTEs4WefQrhVAfH3njkqRwRb7IPgz9ShJ2q0VZzNx78enVynJTCzINXXLK3tUlW6fV21AGCyVkks3NwnMk-qEhTeEM6r7wJJa5nGgSWZOvcbLGCmKUOh_vbgLjKRgsnbrT3hVE3PNtIHjkiBwyqTDr2DQiXqxZKDLiMChGihXN_x7VkhmrSlHEvCBI8hdG4gAamyUB-imvVOwIVm00]--></g></svg>