<?xml version="1.0" encoding="us-ascii" standalone="no"?><svg xmlns="http://www.w3.org/2000/svg" xmlns:xlink="http://www.w3.org/1999/xlink" contentStyleType="text/css" height="497px" preserveAspectRatio="none" style="width:911px;height:497px;background:#FFFFFF;" version="1.1" viewBox="0 0 911 497" width="911px" zoomAndPan="magnify"><defs/><g><text fill="#000000" font-family="sans-serif" font-size="14" font-weight="bold" lengthAdjust="spacing" textLength="320" x="294.5" y="28.5352">Sequence Diagram Partial - Get Client Email</text><rect fill="#FFFFFF" height="336.416" style="stroke:#181818;stroke-width:1.0;" width="10" x="51" y="100.4648"/><rect fill="#FFFFFF" height="306.1055" style="stroke:#181818;stroke-width:1.0;" width="10" x="236" y="121.7754"/><rect fill="#FFFFFF" height="29.3105" style="stroke:#181818;stroke-width:1.0;" width="10" x="410" y="193.3965"/><rect fill="#FFFFFF" height="29.3105" style="stroke:#181818;stroke-width:1.0;" width="10" x="568" y="252.0176"/><rect fill="#FFFFFF" height="29.3105" style="stroke:#181818;stroke-width:1.0;" width="10" x="710" y="310.6387"/><rect fill="#FFFFFF" height="29.3105" style="stroke:#181818;stroke-width:1.0;" width="10" x="839" y="369.2598"/><line style="stroke:#181818;stroke-width:0.5;stroke-dasharray:5.0,5.0;" x1="56" x2="56" y1="90.4648" y2="445.8809"/><line style="stroke:#181818;stroke-width:0.5;stroke-dasharray:5.0,5.0;" x1="241" x2="241" y1="90.4648" y2="445.8809"/><line style="stroke:#181818;stroke-width:0.5;stroke-dasharray:5.0,5.0;" x1="415" x2="415" y1="90.4648" y2="445.8809"/><line style="stroke:#181818;stroke-width:0.5;stroke-dasharray:5.0,5.0;" x1="573" x2="573" y1="90.4648" y2="445.8809"/><line style="stroke:#181818;stroke-width:0.5;stroke-dasharray:5.0,5.0;" x1="715" x2="715" y1="90.4648" y2="445.8809"/><line style="stroke:#181818;stroke-width:0.5;stroke-dasharray:5.0,5.0;" x1="844" x2="844" y1="90.4648" y2="445.8809"/><rect fill="#E2E2F0" height="30.4883" rx="2.5" ry="2.5" style="stroke:#181818;stroke-width:0.5;" width="102" x="5" y="58.9766"/><text fill="#000000" font-family="sans-serif" font-size="14" lengthAdjust="spacing" textLength="88" x="12" y="79.5117">:PlaceOfferUI</text><rect fill="#E2E2F0" height="30.4883" rx="2.5" ry="2.5" style="stroke:#181818;stroke-width:0.5;" width="102" x="5" y="444.8809"/><text fill="#000000" font-family="sans-serif" font-size="14" lengthAdjust="spacing" textLength="88" x="12" y="465.416">:PlaceOfferUI</text><rect fill="#E2E2F0" height="30.4883" rx="2.5" ry="2.5" style="stroke:#181818;stroke-width:0.5;" width="158" x="162" y="58.9766"/><text fill="#000000" font-family="sans-serif" font-size="14" lengthAdjust="spacing" textLength="144" x="169" y="79.5117">:PlaceOfferController</text><rect fill="#E2E2F0" height="30.4883" rx="2.5" ry="2.5" style="stroke:#181818;stroke-width:0.5;" width="158" x="162" y="444.8809"/><text fill="#000000" font-family="sans-serif" font-size="14" lengthAdjust="spacing" textLength="144" x="169" y="465.416">:PlaceOfferController</text><rect fill="#E2E2F0" height="30.4883" rx="2.5" ry="2.5" style="stroke:#181818;stroke-width:0.5;" width="148" x="341" y="58.9766"/><text fill="#000000" font-family="sans-serif" font-size="14" lengthAdjust="spacing" textLength="134" x="348" y="79.5117">:ApplicationSession</text><rect fill="#E2E2F0" height="30.4883" rx="2.5" ry="2.5" style="stroke:#181818;stroke-width:0.5;" width="148" x="341" y="444.8809"/><text fill="#000000" font-family="sans-serif" font-size="14" lengthAdjust="spacing" textLength="134" x="348" y="465.416">:ApplicationSession</text><rect fill="#E2E2F0" height="46.9766" rx="2.5" ry="2.5" style="stroke:#181818;stroke-width:0.5;" width="148" x="499" y="42.4883"/><text fill="#000000" font-family="sans-serif" font-size="14" lengthAdjust="spacing" textLength="78" x="534" y="63.0234">appSession</text><text fill="#000000" font-family="sans-serif" font-size="14" lengthAdjust="spacing" textLength="134" x="506" y="79.5117">:ApplicationSession</text><rect fill="#E2E2F0" height="46.9766" rx="2.5" ry="2.5" style="stroke:#181818;stroke-width:0.5;" width="148" x="499" y="444.8809"/><text fill="#000000" font-family="sans-serif" font-size="14" lengthAdjust="spacing" textLength="78" x="534" y="465.416">appSession</text><text fill="#000000" font-family="sans-serif" font-size="14" lengthAdjust="spacing" textLength="134" x="506" y="481.9043">:ApplicationSession</text><rect fill="#E2E2F0" height="46.9766" rx="2.5" ry="2.5" style="stroke:#181818;stroke-width:0.5;" width="116" x="657" y="42.4883"/><text fill="#000000" font-family="sans-serif" font-size="14" lengthAdjust="spacing" textLength="102" x="664" y="63.0234">currentSession</text><text fill="#000000" font-family="sans-serif" font-size="14" lengthAdjust="spacing" textLength="87" x="671.5" y="79.5117">:UserSession</text><rect fill="#E2E2F0" height="46.9766" rx="2.5" ry="2.5" style="stroke:#181818;stroke-width:0.5;" width="116" x="657" y="444.8809"/><text fill="#000000" font-family="sans-serif" font-size="14" lengthAdjust="spacing" textLength="102" x="664" y="465.416">currentSession</text><text fill="#000000" font-family="sans-serif" font-size="14" lengthAdjust="spacing" textLength="87" x="671.5" y="481.9043">:UserSession</text><rect fill="#E2E2F0" height="46.9766" rx="2.5" ry="2.5" style="stroke:#181818;stroke-width:0.5;" width="122" x="783" y="42.4883"/><text fill="#000000" font-family="sans-serif" font-size="14" lengthAdjust="spacing" textLength="103" x="792.5" y="63.0234">userRepository</text><text fill="#000000" font-family="sans-serif" font-size="14" lengthAdjust="spacing" textLength="108" x="790" y="79.5117">:UserRepository</text><rect fill="#E2E2F0" height="46.9766" rx="2.5" ry="2.5" style="stroke:#181818;stroke-width:0.5;" width="122" x="783" y="444.8809"/><text fill="#000000" font-family="sans-serif" font-size="14" lengthAdjust="spacing" textLength="103" x="792.5" y="465.416">userRepository</text><text fill="#000000" font-family="sans-serif" font-size="14" lengthAdjust="spacing" textLength="108" x="790" y="481.9043">:UserRepository</text><rect fill="#FFFFFF" height="336.416" style="stroke:#181818;stroke-width:1.0;" width="10" x="51" y="100.4648"/><rect fill="#FFFFFF" height="306.1055" style="stroke:#181818;stroke-width:1.0;" width="10" x="236" y="121.7754"/><rect fill="#FFFFFF" height="29.3105" style="stroke:#181818;stroke-width:1.0;" width="10" x="410" y="193.3965"/><rect fill="#FFFFFF" height="29.3105" style="stroke:#181818;stroke-width:1.0;" width="10" x="568" y="252.0176"/><rect fill="#FFFFFF" height="29.3105" style="stroke:#181818;stroke-width:1.0;" width="10" x="710" y="310.6387"/><rect fill="#FFFFFF" height="29.3105" style="stroke:#181818;stroke-width:1.0;" width="10" x="839" y="369.2598"/><polygon fill="#181818" points="224,117.7754,234,121.7754,224,125.7754,228,121.7754" style="stroke:#181818;stroke-width:1.0;"/><line style="stroke:#181818;stroke-width:1.0;" x1="61" x2="230" y1="121.7754" y2="121.7754"/><text fill="#000000" font-family="sans-serif" font-size="13" font-weight="bold" lengthAdjust="spacing" textLength="9" x="68" y="117.0332">3</text><text fill="#000000" font-family="sans-serif" font-size="13" lengthAdjust="spacing" textLength="129" x="81" y="117.0332">getListOfProperties()</text><line style="stroke:#181818;stroke-width:1.0;" x1="246" x2="288" y1="151.0859" y2="151.0859"/><line style="stroke:#181818;stroke-width:1.0;" x1="288" x2="288" y1="151.0859" y2="164.0859"/><line style="stroke:#181818;stroke-width:1.0;" x1="247" x2="288" y1="164.0859" y2="164.0859"/><polygon fill="#181818" points="257,160.0859,247,164.0859,257,168.0859,253,164.0859" style="stroke:#181818;stroke-width:1.0;"/><text fill="#000000" font-family="sans-serif" font-size="13" font-weight="bold" lengthAdjust="spacing" textLength="9" x="253" y="146.3438">4</text><text fill="#000000" font-family="sans-serif" font-size="13" lengthAdjust="spacing" textLength="137" x="266" y="146.3438">getClientFromSession</text><polygon fill="#181818" points="398,189.3965,408,193.3965,398,197.3965,402,193.3965" style="stroke:#181818;stroke-width:1.0;"/><line style="stroke:#181818;stroke-width:1.0;" x1="246" x2="404" y1="193.3965" y2="193.3965"/><text fill="#000000" font-family="sans-serif" font-size="13" font-weight="bold" lengthAdjust="spacing" textLength="9" x="253" y="188.6543">5</text><text fill="#000000" font-family="sans-serif" font-size="13" lengthAdjust="spacing" textLength="81" x="266" y="188.6543">getInstance()</text><polygon fill="#181818" points="257,218.707,247,222.707,257,226.707,253,222.707" style="stroke:#181818;stroke-width:1.0;"/><line style="stroke:#181818;stroke-width:1.0;stroke-dasharray:2.0,2.0;" x1="251" x2="414" y1="222.707" y2="222.707"/><text fill="#000000" font-family="sans-serif" font-size="13" font-weight="bold" lengthAdjust="spacing" textLength="9" x="263" y="217.9648">6</text><text fill="#000000" font-family="sans-serif" font-size="13" lengthAdjust="spacing" textLength="71" x="276" y="217.9648">appSession</text><polygon fill="#181818" points="556,248.0176,566,252.0176,556,256.0176,560,252.0176" style="stroke:#181818;stroke-width:1.0;"/><line style="stroke:#181818;stroke-width:1.0;" x1="246" x2="562" y1="252.0176" y2="252.0176"/><text fill="#000000" font-family="sans-serif" font-size="13" font-weight="bold" lengthAdjust="spacing" textLength="9" x="253" y="247.2754">7</text><text fill="#000000" font-family="sans-serif" font-size="13" lengthAdjust="spacing" textLength="151" x="266" y="247.2754">getCurrentUserSession()</text><polygon fill="#181818" points="257,277.3281,247,281.3281,257,285.3281,253,281.3281" style="stroke:#181818;stroke-width:1.0;"/><line style="stroke:#181818;stroke-width:1.0;stroke-dasharray:2.0,2.0;" x1="251" x2="572" y1="281.3281" y2="281.3281"/><text fill="#000000" font-family="sans-serif" font-size="13" font-weight="bold" lengthAdjust="spacing" textLength="9" x="263" y="276.5859">8</text><text fill="#000000" font-family="sans-serif" font-size="13" lengthAdjust="spacing" textLength="143" x="276" y="276.5859">getCurrentUserSession</text><polygon fill="#181818" points="698,306.6387,708,310.6387,698,314.6387,702,310.6387" style="stroke:#181818;stroke-width:1.0;"/><line style="stroke:#181818;stroke-width:1.0;" x1="246" x2="704" y1="310.6387" y2="310.6387"/><text fill="#000000" font-family="sans-serif" font-size="13" font-weight="bold" lengthAdjust="spacing" textLength="9" x="253" y="305.8965">9</text><text fill="#000000" font-family="sans-serif" font-size="13" lengthAdjust="spacing" textLength="142" x="266" y="305.8965">email = getUserEmail()</text><polygon fill="#181818" points="257,335.9492,247,339.9492,257,343.9492,253,339.9492" style="stroke:#181818;stroke-width:1.0;"/><line style="stroke:#181818;stroke-width:1.0;stroke-dasharray:2.0,2.0;" x1="251" x2="714" y1="339.9492" y2="339.9492"/><text fill="#000000" font-family="sans-serif" font-size="13" font-weight="bold" lengthAdjust="spacing" textLength="18" x="263" y="335.207">10</text><text fill="#000000" font-family="sans-serif" font-size="13" lengthAdjust="spacing" textLength="34" x="285" y="335.207">email</text><polygon fill="#181818" points="827,365.2598,837,369.2598,827,373.2598,831,369.2598" style="stroke:#181818;stroke-width:1.0;"/><line style="stroke:#181818;stroke-width:1.0;" x1="246" x2="833" y1="369.2598" y2="369.2598"/><text fill="#000000" font-family="sans-serif" font-size="13" font-weight="bold" lengthAdjust="spacing" textLength="18" x="253" y="364.5176">11</text><text fill="#000000" font-family="sans-serif" font-size="13" lengthAdjust="spacing" textLength="99" x="275" y="364.5176">getClientEmail()</text><polygon fill="#181818" points="257,394.5703,247,398.5703,257,402.5703,253,398.5703" style="stroke:#181818;stroke-width:1.0;"/><line style="stroke:#181818;stroke-width:1.0;stroke-dasharray:2.0,2.0;" x1="251" x2="843" y1="398.5703" y2="398.5703"/><text fill="#000000" font-family="sans-serif" font-size="13" font-weight="bold" lengthAdjust="spacing" textLength="18" x="263" y="393.8281">12</text><text fill="#000000" font-family="sans-serif" font-size="13" lengthAdjust="spacing" textLength="69" x="285" y="393.8281">clientEmail</text><polygon fill="#181818" points="72,423.8809,62,427.8809,72,431.8809,68,427.8809" style="stroke:#181818;stroke-width:1.0;"/><line style="stroke:#181818;stroke-width:1.0;stroke-dasharray:2.0,2.0;" x1="66" x2="240" y1="427.8809" y2="427.8809"/><text fill="#000000" font-family="sans-serif" font-size="13" font-weight="bold" lengthAdjust="spacing" textLength="18" x="78" y="423.1387">13</text><text fill="#000000" font-family="sans-serif" font-size="13" lengthAdjust="spacing" textLength="129" x="100" y="423.1387">getListOfProperties()</text><!--SRC=[TL8zQyCm4DtrAuvCxP2fMw25aBOXK8XfoDP5LIz184kgT2xatrUotUhan8kDJk_ZzEv8aq4uu7U7LY4yQtaEieL61jBIm1AsIB0n6Yt1Iokr4SBdEwMzJAN5gZ5IuVvqmd3SBK16E5mYOJkBsZXBmHc3eKUNuuInzjve9KaxUy0Oqw_7I-zhO2gCznzsZhHkcfgakX3IYmhn635mHZxNb2vLtj6xgCc5oqWfXNzMAGaXEtAsQpynm4CwAT8_al0l8J7yOVd4Ke0Ld97UTAJzgGdEOse1uzrzORF41EFTK1d6zXfSEpvjIaZP3SYTZIJJ_BbFJbfanBAINa59N7nX3Q_bK-n37qFQB6FkauSZqcVY0pDKxjbJQy-CJ5JCgmgFMI9N-itbflryHG- -iksvt6O0N_kKKVEyRthnhPXGh_nLaPbsmMLuFqbYNAQvzM52R85-0G00]--></g></svg>