<?xml version="1.0" encoding="UTF-8" standalone="no"?><svg xmlns="http://www.w3.org/2000/svg" xmlns:xlink="http://www.w3.org/1999/xlink" contentStyleType="text/css" height="802px" preserveAspectRatio="none" style="width:1241px;height:802px;background:#FFFFFF;" version="1.1" viewBox="0 0 1241 802" width="1241px" zoomAndPan="magnify"><defs/><g><text fill="#000000" font-family="sans-serif" font-size="14" font-weight="bold" lengthAdjust="spacing" textLength="336" x="451.75" y="29.5332">US010 - Sequence Diagram Partial - Create Offer</text><rect fill="#FFFFFF" height="605.5625" style="stroke:#181818;stroke-width:1.0;" width="10" x="80.5" y="118.9219"/><rect fill="#FFFFFF" height="346.7813" style="stroke:#181818;stroke-width:1.0;" width="10" x="597.5" y="160.0781"/><rect fill="#FFFFFF" height="30" style="stroke:#181818;stroke-width:1.0;" width="10" x="1140.5" y="200.2344"/><rect fill="#FFFFFF" height="30" style="stroke:#181818;stroke-width:1.0;" width="10" x="1140.5" y="269.3906"/><rect fill="#FFFFFF" height="30" style="stroke:#181818;stroke-width:1.0;" width="10" x="1140.5" y="338.5469"/><rect fill="#FFFFFF" height="30" style="stroke:#181818;stroke-width:1.0;" width="10" x="1140.5" y="407.7031"/><rect fill="#FFFFFF" height="30" style="stroke:#181818;stroke-width:1.0;" width="10" x="1140.5" y="476.8594"/><line style="stroke:#181818;stroke-width:0.5;stroke-dasharray:5.0,5.0;" x1="85" x2="85" y1="108.9219" y2="733.4844"/><line style="stroke:#181818;stroke-width:0.5;stroke-dasharray:5.0,5.0;" x1="602.5" x2="602.5" y1="154" y2="733.4844"/><line style="stroke:#181818;stroke-width:0.5;stroke-dasharray:5.0,5.0;" x1="1145.5" x2="1145.5" y1="108.9219" y2="733.4844"/><rect fill="#E3E3E3" height="64.3125" rx="2.5" ry="2.5" style="stroke:#181818;stroke-width:0.5;" width="161" x="5" y="43.6094"/><text fill="#000000" font-family="sans-serif" font-size="20" lengthAdjust="spacing" textLength="136" x="17.5" y="71.3711">offerRepository</text><text fill="#000000" font-family="sans-serif" font-size="20" lengthAdjust="spacing" textLength="147" x="12" y="96.5273">:OfferRepository</text><rect fill="#E3E3E3" height="64.3125" rx="2.5" ry="2.5" style="stroke:#181818;stroke-width:0.5;" width="161" x="5" y="732.4844"/><text fill="#000000" font-family="sans-serif" font-size="20" lengthAdjust="spacing" textLength="136" x="17.5" y="760.2461">offerRepository</text><text fill="#000000" font-family="sans-serif" font-size="20" lengthAdjust="spacing" textLength="147" x="12" y="785.4023">:OfferRepository</text><rect fill="#E3E3E3" height="39.1563" rx="2.5" ry="2.5" style="stroke:#181818;stroke-width:0.5;" width="60" x="572.5" y="732.4844"/><text fill="#000000" font-family="sans-serif" font-size="20" lengthAdjust="spacing" textLength="46" x="579.5" y="760.2461">Offer</text><rect fill="#E3E3E3" height="39.1563" rx="2.5" ry="2.5" style="stroke:#181818;stroke-width:0.5;" width="180" x="1055.5" y="68.7656"/><text fill="#000000" font-family="sans-serif" font-size="20" lengthAdjust="spacing" textLength="166" x="1062.5" y="96.5273">offerDto:OfferDTO</text><rect fill="#E3E3E3" height="39.1563" rx="2.5" ry="2.5" style="stroke:#181818;stroke-width:0.5;" width="180" x="1055.5" y="732.4844"/><text fill="#000000" font-family="sans-serif" font-size="20" lengthAdjust="spacing" textLength="166" x="1062.5" y="760.2461">offerDto:OfferDTO</text><rect fill="#FFFFFF" height="605.5625" style="stroke:#181818;stroke-width:1.0;" width="10" x="80.5" y="118.9219"/><rect fill="#FFFFFF" height="346.7813" style="stroke:#181818;stroke-width:1.0;" width="10" x="597.5" y="160.0781"/><rect fill="#FFFFFF" height="30" style="stroke:#181818;stroke-width:1.0;" width="10" x="1140.5" y="200.2344"/><rect fill="#FFFFFF" height="30" style="stroke:#181818;stroke-width:1.0;" width="10" x="1140.5" y="269.3906"/><rect fill="#FFFFFF" height="30" style="stroke:#181818;stroke-width:1.0;" width="10" x="1140.5" y="338.5469"/><rect fill="#FFFFFF" height="30" style="stroke:#181818;stroke-width:1.0;" width="10" x="1140.5" y="407.7031"/><rect fill="#FFFFFF" height="30" style="stroke:#181818;stroke-width:1.0;" width="10" x="1140.5" y="476.8594"/><polygon fill="#181818" points="560.5,146.0781,570.5,150.0781,560.5,154.0781,564.5,150.0781" style="stroke:#181818;stroke-width:1.0;"/><line style="stroke:#181818;stroke-width:1.0;" x1="90.5" x2="566.5" y1="150.0781" y2="150.0781"/><text fill="#000000" font-family="sans-serif" font-size="20" font-weight="bold" lengthAdjust="spacing" textLength="22" x="97.5" y="143.6836">50</text><text fill="#000000" font-family="sans-serif" font-size="20" lengthAdjust="spacing" textLength="432" x="123.5" y="143.6836">createOffer(property, name, orderAmount, client)</text><rect fill="#E3E3E3" height="39.1563" rx="2.5" ry="2.5" style="stroke:#181818;stroke-width:0.5;" width="60" x="572.5" y="118.9219"/><text fill="#000000" font-family="sans-serif" font-size="20" lengthAdjust="spacing" textLength="46" x="579.5" y="146.6836">Offer</text><polygon fill="#181818" points="1128.5,196.2344,1138.5,200.2344,1128.5,204.2344,1132.5,200.2344" style="stroke:#181818;stroke-width:1.0;"/><line style="stroke:#181818;stroke-width:1.0;" x1="607.5" x2="1134.5" y1="200.2344" y2="200.2344"/><text fill="#000000" font-family="sans-serif" font-size="20" font-weight="bold" lengthAdjust="spacing" textLength="22" x="614.5" y="193.8398">51</text><text fill="#000000" font-family="sans-serif" font-size="20" lengthAdjust="spacing" textLength="165" x="640.5" y="193.8398">name = getName()</text><polygon fill="#181818" points="1128.5,265.3906,1138.5,269.3906,1128.5,273.3906,1132.5,269.3906" style="stroke:#181818;stroke-width:1.0;"/><line style="stroke:#181818;stroke-width:1.0;" x1="607.5" x2="1134.5" y1="269.3906" y2="269.3906"/><text fill="#000000" font-family="sans-serif" font-size="20" font-weight="bold" lengthAdjust="spacing" textLength="22" x="614.5" y="262.9961">52</text><text fill="#000000" font-family="sans-serif" font-size="20" lengthAdjust="spacing" textLength="160" x="640.5" y="262.9961">client = getClient()</text><polygon fill="#181818" points="1128.5,334.5469,1138.5,338.5469,1128.5,342.5469,1132.5,338.5469" style="stroke:#181818;stroke-width:1.0;"/><line style="stroke:#181818;stroke-width:1.0;" x1="607.5" x2="1134.5" y1="338.5469" y2="338.5469"/><text fill="#000000" font-family="sans-serif" font-size="20" font-weight="bold" lengthAdjust="spacing" textLength="22" x="614.5" y="332.1523">53</text><text fill="#000000" font-family="sans-serif" font-size="20" lengthAdjust="spacing" textLength="297" x="640.5" y="332.1523">orderAmount = getOrderAmount()</text><polygon fill="#181818" points="1128.5,403.7031,1138.5,407.7031,1128.5,411.7031,1132.5,407.7031" style="stroke:#181818;stroke-width:1.0;"/><line style="stroke:#181818;stroke-width:1.0;" x1="607.5" x2="1134.5" y1="407.7031" y2="407.7031"/><text fill="#000000" font-family="sans-serif" font-size="20" font-weight="bold" lengthAdjust="spacing" textLength="22" x="614.5" y="401.3086">54</text><text fill="#000000" font-family="sans-serif" font-size="20" lengthAdjust="spacing" textLength="488" x="640.5" y="401.3086">publishedAnnouncement = getPublishedAnnouncement()</text><polygon fill="#181818" points="1128.5,472.8594,1138.5,476.8594,1128.5,480.8594,1132.5,476.8594" style="stroke:#181818;stroke-width:1.0;"/><line style="stroke:#181818;stroke-width:1.0;" x1="607.5" x2="1134.5" y1="476.8594" y2="476.8594"/><text fill="#000000" font-family="sans-serif" font-size="20" font-weight="bold" lengthAdjust="spacing" textLength="22" x="614.5" y="470.4648">55</text><text fill="#000000" font-family="sans-serif" font-size="20" lengthAdjust="spacing" textLength="247" x="640.5" y="470.4648">offerState = getOfferState()</text><line style="stroke:#181818;stroke-width:1.0;" x1="90.5" x2="132.5" y1="546.0156" y2="546.0156"/><line style="stroke:#181818;stroke-width:1.0;" x1="132.5" x2="132.5" y1="546.0156" y2="559.0156"/><line style="stroke:#181818;stroke-width:1.0;" x1="91.5" x2="132.5" y1="559.0156" y2="559.0156"/><polygon fill="#181818" points="101.5,555.0156,91.5,559.0156,101.5,563.0156,97.5,559.0156" style="stroke:#181818;stroke-width:1.0;"/><text fill="#000000" font-family="sans-serif" font-size="20" font-weight="bold" lengthAdjust="spacing" textLength="22" x="97.5" y="539.6211">56</text><text fill="#000000" font-family="sans-serif" font-size="20" lengthAdjust="spacing" textLength="134" x="123.5" y="539.6211">addOffer(offer)</text><line style="stroke:#181818;stroke-width:1.0;" x1="90.5" x2="132.5" y1="598.1719" y2="598.1719"/><line style="stroke:#181818;stroke-width:1.0;" x1="132.5" x2="132.5" y1="598.1719" y2="611.1719"/><line style="stroke:#181818;stroke-width:1.0;" x1="91.5" x2="132.5" y1="611.1719" y2="611.1719"/><polygon fill="#181818" points="101.5,607.1719,91.5,611.1719,101.5,615.1719,97.5,611.1719" style="stroke:#181818;stroke-width:1.0;"/><text fill="#000000" font-family="sans-serif" font-size="20" font-weight="bold" lengthAdjust="spacing" textLength="22" x="97.5" y="591.7773">57</text><text fill="#000000" font-family="sans-serif" font-size="20" lengthAdjust="spacing" textLength="168" x="123.5" y="591.7773">validateOffer(offer)</text><line style="stroke:#181818;stroke-width:1.0;stroke-dasharray:2.0,2.0;" x1="90.5" x2="132.5" y1="650.3281" y2="650.3281"/><line style="stroke:#181818;stroke-width:1.0;stroke-dasharray:2.0,2.0;" x1="132.5" x2="132.5" y1="650.3281" y2="663.3281"/><line style="stroke:#181818;stroke-width:1.0;stroke-dasharray:2.0,2.0;" x1="91.5" x2="132.5" y1="663.3281" y2="663.3281"/><polygon fill="#181818" points="101.5,659.3281,91.5,663.3281,101.5,667.3281,97.5,663.3281" style="stroke:#181818;stroke-width:1.0;"/><text fill="#000000" font-family="sans-serif" font-size="20" font-weight="bold" lengthAdjust="spacing" textLength="22" x="97.5" y="643.9336">58</text><text fill="#000000" font-family="sans-serif" font-size="20" lengthAdjust="spacing" textLength="6" x="123.5" y="643.9336"> </text><line style="stroke:#181818;stroke-width:1.0;stroke-dasharray:2.0,2.0;" x1="90.5" x2="132.5" y1="702.4844" y2="702.4844"/><line style="stroke:#181818;stroke-width:1.0;stroke-dasharray:2.0,2.0;" x1="132.5" x2="132.5" y1="702.4844" y2="715.4844"/><line style="stroke:#181818;stroke-width:1.0;stroke-dasharray:2.0,2.0;" x1="91.5" x2="132.5" y1="715.4844" y2="715.4844"/><polygon fill="#181818" points="101.5,711.4844,91.5,715.4844,101.5,719.4844,97.5,715.4844" style="stroke:#181818;stroke-width:1.0;"/><text fill="#000000" font-family="sans-serif" font-size="20" font-weight="bold" lengthAdjust="spacing" textLength="22" x="97.5" y="696.0898">59</text><text fill="#000000" font-family="sans-serif" font-size="20" lengthAdjust="spacing" textLength="6" x="123.5" y="696.0898"> </text><!--SRC=[fP9DRy8m38Rl-HKM9q0WiKcx86qI0ksuedMxxM8IjqIaIPQwJEpNhnzGEZua96xEwzUFxTRvHbkF0JFZv8OKA4gmCFpgBCVwb-1n8aH-y43ch9Fhu3823WLrCXxb1bEAUMS80ab6cvgk8L-ZSZ_Qff2WoKa8rbnQF-F9mmJ64DDtGLOIB3IcbN-9WJMQCZKFX4mG9Ga58NobI-tHClHSfRsJTxbc5tPVTXhzLtg0EPne_n5rycYxm5-mQx2BZwWs7bGXi61dYsn50PxA3uMIzRQTjTDHd0WmVcaymo5CGTOBrk- -3yvJuDq8B6Oq0XSKXLdc2iiZa4QJvS59dpszOXucAw5LEJn3IlnMHlrEKJk-edFj8glfsz3cTNmVhxDK0usEmdraNwoCpjUaPjQMD4bPE_ZoKkhEFQemvihOhD6-R-TsnFtVl7uj7MaAg5HpCZLhS6FL5erMxRLTBJsllT7q1m00]--></g></svg>