<?xml version="1.0" encoding="UTF-8" standalone="no"?><svg xmlns="http://www.w3.org/2000/svg" xmlns:xlink="http://www.w3.org/1999/xlink" contentStyleType="text/css" height="2131px" preserveAspectRatio="none" style="width:889px;height:2131px;background:#FFFFFF;" version="1.1" viewBox="0 0 889 2131" width="889px" zoomAndPan="magnify"><defs/><g><text fill="#000000" font-family="sans-serif" font-size="14" font-weight="bold" lengthAdjust="spacing" textLength="148" x="363.75" y="24.5332">US20 - Domain Model</text><!--class User--><g id="elem_User"><rect codeLine="12" fill="#F1F1F1" height="68.3125" id="User" rx="2.5" ry="2.5" style="stroke:#181818;stroke-width:0.5;" width="100" x="58" y="295.6094"/><text fill="#000000" font-family="sans-serif" font-size="20" lengthAdjust="spacing" textLength="41" x="87.5" y="321.3711">User</text><line style="stroke:#181818;stroke-width:0.5;" x1="59" x2="157" y1="330.7656" y2="330.7656"/><text fill="#000000" font-family="sans-serif" font-size="20" lengthAdjust="spacing" textLength="88" x="64" y="355.5273">Password</text></g><polygon fill="none" points="112.9823,363.9219,122.7959,382.702,108.9425,384.7228" style="stroke:#181818;stroke-width:1.0;"/><line style="stroke:#181818;stroke-width:1.0;" x1="115.8692" x2="116" y1="383.7124" y2="384.6094"/><line style="stroke:#181818;stroke-width:1.0;" x1="108" x2="108" y1="295.6094" y2="275.3694"/><!--class Person--><g id="elem_Person"><rect codeLine="16" fill="#F1F1F1" height="168.9375" id="Person" rx="2.5" ry="2.5" style="stroke:#181818;stroke-width:0.5;" width="165" x="25.5" y="45.6094"/><text fill="#000000" font-family="sans-serif" font-size="20" lengthAdjust="spacing" textLength="62" x="77" y="71.3711">Person</text><line style="stroke:#181818;stroke-width:0.5;" x1="26.5" x2="189.5" y1="80.7656" y2="80.7656"/><text fill="#000000" font-family="sans-serif" font-size="20" lengthAdjust="spacing" textLength="51" x="31.5" y="105.5273">Name</text><text fill="#000000" font-family="sans-serif" font-size="20" lengthAdjust="spacing" textLength="48" x="31.5" y="130.6836">Email</text><text fill="#000000" font-family="sans-serif" font-size="20" lengthAdjust="spacing" textLength="129" x="31.5" y="155.8398">Phone Number</text><text fill="#000000" font-family="sans-serif" font-size="20" lengthAdjust="spacing" textLength="106" x="31.5" y="180.9961">Tax Number</text><text fill="#000000" font-family="sans-serif" font-size="20" lengthAdjust="spacing" textLength="153" x="31.5" y="206.1523">Passport Number</text></g><!--class Address--><g id="elem_Address"><rect codeLine="24" fill="#F1F1F1" height="93.4688" id="Address" rx="2.5" ry="2.5" style="stroke:#181818;stroke-width:0.5;" width="92" x="773" y="1374.6094"/><text fill="#000000" font-family="sans-serif" font-size="20" lengthAdjust="spacing" textLength="73" x="782.5" y="1400.3711">Address</text><line style="stroke:#181818;stroke-width:0.5;" x1="774" x2="864" y1="1409.7656" y2="1409.7656"/><text fill="#000000" font-family="sans-serif" font-size="20" lengthAdjust="spacing" textLength="54" x="779" y="1434.5273">Street</text><text fill="#000000" font-family="sans-serif" font-size="20" lengthAdjust="spacing" textLength="80" x="779" y="1459.6836">Zip Code</text></g><!--class City--><g id="elem_City"><rect codeLine="29" fill="#F1F1F1" height="68.3125" id="City" rx="2.5" ry="2.5" style="stroke:#181818;stroke-width:0.5;" width="100" x="769" y="1206.6094"/><text fill="#000000" font-family="sans-serif" font-size="20" lengthAdjust="spacing" textLength="34" x="802" y="1232.3711">City</text><line style="stroke:#181818;stroke-width:0.5;" x1="770" x2="868" y1="1241.7656" y2="1241.7656"/><text fill="#000000" font-family="sans-serif" font-size="20" lengthAdjust="spacing" textLength="88" x="775" y="1266.5273">City name</text></g><!--class District--><g id="elem_District"><rect codeLine="33" fill="#F1F1F1" height="68.3125" id="District" rx="2.5" ry="2.5" style="stroke:#181818;stroke-width:0.5;" width="127" x="755.5" y="963.6094"/><text fill="#000000" font-family="sans-serif" font-size="20" lengthAdjust="spacing" textLength="61" x="788.5" y="989.3711">District</text><line style="stroke:#181818;stroke-width:0.5;" x1="756.5" x2="881.5" y1="998.7656" y2="998.7656"/><text fill="#000000" font-family="sans-serif" font-size="20" lengthAdjust="spacing" textLength="115" x="761.5" y="1023.5273">District name</text></g><!--class State--><g id="elem_State"><rect codeLine="37" fill="#F1F1F1" height="68.3125" id="State" rx="2.5" ry="2.5" style="stroke:#181818;stroke-width:0.5;" width="113" x="762.5" y="720.6094"/><text fill="#000000" font-family="sans-serif" font-size="20" lengthAdjust="spacing" textLength="47" x="795.5" y="746.3711">State</text><line style="stroke:#181818;stroke-width:0.5;" x1="763.5" x2="874.5" y1="755.7656" y2="755.7656"/><text fill="#000000" font-family="sans-serif" font-size="20" lengthAdjust="spacing" textLength="101" x="768.5" y="780.5273">State name</text></g><!--class Client--><g id="elem_Client"><rect codeLine="41" fill="#F1F1F1" height="43.1563" id="Client" rx="2.5" ry="2.5" style="stroke:#181818;stroke-width:0.5;" width="55" x="27.5" y="517.6094"/><text fill="#000000" font-family="sans-serif" font-size="20" lengthAdjust="spacing" textLength="49" x="30.5" y="543.3711">Client</text><line style="stroke:#181818;stroke-width:0.5;" x1="28.5" x2="81.5" y1="552.7656" y2="552.7656"/></g><!--class Residence--><g id="elem_Residence"><rect codeLine="46" fill="#F1F1F1" height="118.625" id="Residence" rx="2.5" ry="2.5" style="stroke:#181818;stroke-width:0.5;" width="247" x="429.5" y="1541.6094"/><text fill="#000000" font-family="sans-serif" font-size="20" lengthAdjust="spacing" textLength="92" x="507" y="1567.3711">Residence</text><line style="stroke:#181818;stroke-width:0.5;" x1="430.5" x2="675.5" y1="1576.7656" y2="1576.7656"/><text fill="#000000" font-family="sans-serif" font-size="20" lengthAdjust="spacing" textLength="187" x="435.5" y="1601.5273">Number of Bedrooms</text><text fill="#000000" font-family="sans-serif" font-size="20" lengthAdjust="spacing" textLength="192" x="435.5" y="1626.6836">Number of Bathrooms</text><text fill="#000000" font-family="sans-serif" font-size="20" lengthAdjust="spacing" textLength="235" x="435.5" y="1651.8398">Number of Parking Spaces</text></g><!--class Property--><g id="elem_Property"><rect codeLine="52" fill="#F1F1F1" height="118.625" id="Property" rx="2.5" ry="2.5" style="stroke:#181818;stroke-width:0.5;" width="264" x="421" y="1361.6094"/><text fill="#000000" font-family="sans-serif" font-size="20" lengthAdjust="spacing" textLength="76" x="515" y="1387.3711">Property</text><line style="stroke:#181818;stroke-width:0.5;" x1="422" x2="684" y1="1396.7656" y2="1396.7656"/><text fill="#000000" font-family="sans-serif" font-size="20" lengthAdjust="spacing" textLength="42" x="427" y="1421.5273">Area</text><text fill="#000000" font-family="sans-serif" font-size="20" lengthAdjust="spacing" textLength="61" x="427" y="1446.6836">Photos</text><text fill="#000000" font-family="sans-serif" font-size="20" lengthAdjust="spacing" textLength="252" x="427" y="1471.8398">Distance from the city center</text></g><!--class TypeOfProperty--><g id="elem_TypeOfProperty"><rect codeLine="58" fill="#F1F1F1" height="68.3125" id="TypeOfProperty" rx="2.5" ry="2.5" style="stroke:#181818;stroke-width:0.5;" width="148" x="479" y="963.6094"/><text fill="#000000" font-family="sans-serif" font-size="20" lengthAdjust="spacing" textLength="142" x="482" y="989.3711">TypeOfProperty</text><line style="stroke:#181818;stroke-width:0.5;" x1="480" x2="626" y1="998.7656" y2="998.7656"/><text fill="#000000" font-family="sans-serif" font-size="20" lengthAdjust="spacing" textLength="44" x="485" y="1023.5273">Type</text></g><!--class Photos--><g id="elem_Photos"><rect codeLine="62" fill="#F1F1F1" height="68.3125" id="Photos" rx="2.5" ry="2.5" style="stroke:#181818;stroke-width:0.5;" width="67" x="266.5" y="1387.1094"/><text fill="#000000" font-family="sans-serif" font-size="20" lengthAdjust="spacing" textLength="61" x="269.5" y="1412.8711">Photos</text><line style="stroke:#181818;stroke-width:0.5;" x1="267.5" x2="332.5" y1="1422.2656" y2="1422.2656"/><text fill="#000000" font-family="sans-serif" font-size="20" lengthAdjust="spacing" textLength="33" x="272.5" y="1447.0273">URI</text></g><!--class House--><g id="elem_House"><rect codeLine="66" fill="#F1F1F1" height="93.4688" id="House" rx="2.5" ry="2.5" style="stroke:#181818;stroke-width:0.5;" width="140" x="303" y="1747.6094"/><text fill="#000000" font-family="sans-serif" font-size="20" lengthAdjust="spacing" textLength="55" x="345.5" y="1773.3711">House</text><line style="stroke:#181818;stroke-width:0.5;" x1="304" x2="442" y1="1782.7656" y2="1782.7656"/><text fill="#000000" font-family="sans-serif" font-size="20" lengthAdjust="spacing" textLength="88" x="309" y="1807.5273">Basement</text><text fill="#000000" font-family="sans-serif" font-size="20" lengthAdjust="spacing" textLength="128" x="309" y="1832.6836">Inhabitable loft</text></g><!--class SunExposure--><g id="elem_SunExposure"><rect codeLine="71" fill="#F1F1F1" height="68.3125" id="SunExposure" rx="2.5" ry="2.5" style="stroke:#181818;stroke-width:0.5;" width="121" x="312.5" y="1927.6094"/><text fill="#000000" font-family="sans-serif" font-size="20" lengthAdjust="spacing" textLength="115" x="315.5" y="1953.3711">SunExposure</text><line style="stroke:#181818;stroke-width:0.5;" x1="313.5" x2="432.5" y1="1962.7656" y2="1962.7656"/><text fill="#000000" font-family="sans-serif" font-size="20" lengthAdjust="spacing" textLength="77" x="318.5" y="1987.5273">Direction</text></g><!--class AvailableEquipment--><g id="elem_AvailableEquipment"><rect codeLine="75" fill="#F1F1F1" height="68.3125" id="AvailableEquipment" rx="2.5" ry="2.5" style="stroke:#181818;stroke-width:0.5;" width="176" x="478" y="1760.1094"/><text fill="#000000" font-family="sans-serif" font-size="20" lengthAdjust="spacing" textLength="170" x="481" y="1785.8711">AvailableEquipment</text><line style="stroke:#181818;stroke-width:0.5;" x1="479" x2="653" y1="1795.2656" y2="1795.2656"/><text fill="#000000" font-family="sans-serif" font-size="20" lengthAdjust="spacing" textLength="92" x="484" y="1820.0273">Equipment</text></g><!--class Rent--><g id="elem_Rent"><rect codeLine="79" fill="#F1F1F1" height="68.3125" id="Rent" rx="2.5" ry="2.5" style="stroke:#181818;stroke-width:0.5;" width="185" x="83.5" y="2056.6094"/><text fill="#000000" font-family="sans-serif" font-size="20" lengthAdjust="spacing" textLength="41" x="155.5" y="2082.3711">Rent</text><line style="stroke:#181818;stroke-width:0.5;" x1="84.5" x2="267.5" y1="2091.7656" y2="2091.7656"/><text fill="#000000" font-family="sans-serif" font-size="20" lengthAdjust="spacing" textLength="173" x="89.5" y="2116.5273">Duration of contract</text></g><!--class Business--><g id="elem_Business"><rect codeLine="83" fill="#F1F1F1" height="68.3125" id="Business" rx="2.5" ry="2.5" style="stroke:#181818;stroke-width:0.5;" width="156" x="98" y="1760.1094"/><text fill="#000000" font-family="sans-serif" font-size="20" lengthAdjust="spacing" textLength="78" x="137" y="1785.8711">Business</text><line style="stroke:#181818;stroke-width:0.5;" x1="99" x2="253" y1="1795.2656" y2="1795.2656"/><text fill="#000000" font-family="sans-serif" font-size="20" lengthAdjust="spacing" textLength="144" x="104" y="1820.0273">Requested price</text></g><!--class PublishedAnnouncement--><g id="elem_PublishedAnnouncement"><rect codeLine="87" fill="#F1F1F1" height="68.3125" id="PublishedAnnouncement" rx="2.5" ry="2.5" style="stroke:#181818;stroke-width:0.5;" width="218" x="13" y="1387.1094"/><text fill="#000000" font-family="sans-serif" font-size="20" lengthAdjust="spacing" textLength="212" x="16" y="1412.8711">PublishedAnnouncement</text><line style="stroke:#181818;stroke-width:0.5;" x1="14" x2="230" y1="1422.2656" y2="1422.2656"/><text fill="#000000" font-family="sans-serif" font-size="20" lengthAdjust="spacing" textLength="119" x="19" y="1447.0273">Contract type</text></g><!--class Message--><g id="elem_Message"><rect codeLine="91" fill="#F1F1F1" height="244.4063" id="Message" rx="2.5" ry="2.5" style="stroke:#181818;stroke-width:0.5;" width="230" x="7" y="875.6094"/><text fill="#000000" font-family="sans-serif" font-size="20" lengthAdjust="spacing" textLength="81" x="81.5" y="901.3711">Message</text><line style="stroke:#181818;stroke-width:0.5;" x1="8" x2="236" y1="910.7656" y2="910.7656"/><text fill="#000000" font-family="sans-serif" font-size="20" lengthAdjust="spacing" textLength="51" x="13" y="935.5273">Name</text><text fill="#000000" font-family="sans-serif" font-size="20" lengthAdjust="spacing" textLength="126" x="13" y="960.6836">Phone number</text><text fill="#000000" font-family="sans-serif" font-size="20" lengthAdjust="spacing" textLength="42" x="13" y="985.8398">Date</text><text fill="#000000" font-family="sans-serif" font-size="20" lengthAdjust="spacing" textLength="88" x="13" y="1010.9961">Initial time</text><text fill="#000000" font-family="sans-serif" font-size="20" lengthAdjust="spacing" textLength="77" x="13" y="1036.1523">End time</text><text fill="#000000" font-family="sans-serif" font-size="20" lengthAdjust="spacing" textLength="218" x="13" y="1061.3086">Published Announcement</text><text fill="#000000" font-family="sans-serif" font-size="20" lengthAdjust="spacing" textLength="134" x="13" y="1086.4648">Message State</text><text fill="#000000" font-family="sans-serif" font-size="20" lengthAdjust="spacing" textLength="144" x="13" y="1111.6211">Agents Approval</text></g><!--class Agent--><g id="elem_Agent"><rect codeLine="102" fill="#F1F1F1" height="43.1563" id="Agent" rx="2.5" ry="2.5" style="stroke:#181818;stroke-width:0.5;" width="57" x="173.5" y="590.6094"/><text fill="#000000" font-family="sans-serif" font-size="20" lengthAdjust="spacing" textLength="51" x="176.5" y="616.3711">Agent</text><line style="stroke:#181818;stroke-width:0.5;" x1="174.5" x2="229.5" y1="625.7656" y2="625.7656"/></g><!--class Employee--><g id="elem_Employee"><rect codeLine="106" fill="#F1F1F1" height="43.1563" id="Employee" rx="2.5" ry="2.5" style="stroke:#181818;stroke-width:0.5;" width="93" x="145.5" y="444.6094"/><text fill="#000000" font-family="sans-serif" font-size="20" lengthAdjust="spacing" textLength="87" x="148.5" y="470.3711">Employee</text><line style="stroke:#181818;stroke-width:0.5;" x1="146.5" x2="237.5" y1="479.7656" y2="479.7656"/></g><!--link Message to PublishedAnnouncement--><g id="link_Message_PublishedAnnouncement"><path codeLine="110" d="M122,1119.6794 C122,1210.8894 122,1329.6594 122,1386.6794 " fill="none" id="Message-PublishedAnnouncement" style="stroke:#181818;stroke-width:1.0;"/><polygon fill="#000000" points="130,1248.6875,134.7023,1234.2154,125.2977,1234.2154,130,1248.6875" style="stroke:#000000;stroke-width:1.0;"/><text fill="#000000" font-family="sans-serif" font-size="20" lengthAdjust="spacing" textLength="198" x="143" y="1248.8711">has informations about</text><text fill="#000000" font-family="sans-serif" font-size="20" lengthAdjust="spacing" textLength="8" x="113.7563" y="1148.6338">*</text><text fill="#000000" font-family="sans-serif" font-size="20" lengthAdjust="spacing" textLength="11" x="110.0891" y="1374.6554">1</text></g><!--link Client to Message--><g id="link_Client_Message"><path codeLine="111" d="M50.79,560.9794 C46.09,585.4394 38.78,627.2694 36,663.6094 C30.53,735.1994 49.17,813.0094 70.48,875.3994 " fill="none" id="Client-Message" style="stroke:#181818;stroke-width:1.0;"/><polygon fill="#000000" points="44.5,685.1719,48.2886,670.4341,38.9024,671.0219,44.5,685.1719" style="stroke:#000000;stroke-width:1.0;"/><text fill="#000000" font-family="sans-serif" font-size="20" lengthAdjust="spacing" textLength="121" x="57" y="685.3711">responds to a</text><text fill="#000000" font-family="sans-serif" font-size="20" lengthAdjust="spacing" textLength="11" x="37.5446" y="589.6892">1</text><text fill="#000000" font-family="sans-serif" font-size="20" lengthAdjust="spacing" textLength="8" x="59.2703" y="863.3659">*</text></g><!--link Agent to Message--><g id="link_Agent_Message"><path codeLine="112" d="M197.7,633.7294 C188.34,678.6094 165.49,788.1294 147.33,875.1894 " fill="none" id="Agent-Message" style="stroke:#181818;stroke-width:1.0;"/><polygon fill="#000000" points="185.3663,762.5189,192.9249,749.312,183.7185,747.3915,185.3663,762.5189" style="stroke:#000000;stroke-width:1.0;"/><text fill="#000000" font-family="sans-serif" font-size="20" lengthAdjust="spacing" textLength="69" x="200" y="762.8711">can see</text><text fill="#000000" font-family="sans-serif" font-size="20" lengthAdjust="spacing" textLength="11" x="184.4337" y="662.3813">1</text><text fill="#000000" font-family="sans-serif" font-size="20" lengthAdjust="spacing" textLength="8" x="140.5631" y="863.1438">*</text></g><!--link District to City--><g id="link_District_City"><path codeLine="113" d="M819,1031.6094 C819,1077.5094 819,1160.1394 819,1206.2294 " fill="none" id="District-City" style="stroke:#181818;stroke-width:1.0;"/><polygon fill="#000000" points="827,1171.1875,831.7023,1156.7154,822.2977,1156.7154,827,1171.1875" style="stroke:#000000;stroke-width:1.0;"/><text fill="#000000" font-family="sans-serif" font-size="20" lengthAdjust="spacing" textLength="31" x="840" y="1171.3711">has</text><text fill="#000000" font-family="sans-serif" font-size="20" lengthAdjust="spacing" textLength="11" x="807.0203" y="1060.64">1</text><text fill="#000000" font-family="sans-serif" font-size="20" lengthAdjust="spacing" textLength="8" x="810.3375" y="1194.2137">*</text></g><!--link State to District--><g id="link_State_District"><path codeLine="114" d="M819,788.6094 C819,834.5094 819,917.1394 819,963.2294 " fill="none" id="State-District" style="stroke:#181818;stroke-width:1.0;"/><polygon fill="#000000" points="827,840.1875,831.7023,825.7154,822.2977,825.7154,827,840.1875" style="stroke:#000000;stroke-width:1.0;"/><text fill="#000000" font-family="sans-serif" font-size="20" lengthAdjust="spacing" textLength="31" x="840" y="840.3711">has</text><text fill="#000000" font-family="sans-serif" font-size="20" lengthAdjust="spacing" textLength="11" x="807.0203" y="817.64">1</text><text fill="#000000" font-family="sans-serif" font-size="20" lengthAdjust="spacing" textLength="8" x="810.3375" y="951.2137">*</text></g><!--link City to Address--><g id="link_City_Address"><path codeLine="115" d="M819,1274.7694 C819,1302.7894 819,1343.2394 819,1374.3494 " fill="none" id="City-Address" style="stroke:#181818;stroke-width:1.0;"/><polygon fill="#000000" points="827,1326.1875,831.7023,1311.7154,822.2977,1311.7154,827,1326.1875" style="stroke:#000000;stroke-width:1.0;"/><text fill="#000000" font-family="sans-serif" font-size="20" lengthAdjust="spacing" textLength="31" x="840" y="1326.3711">has</text><text fill="#000000" font-family="sans-serif" font-size="20" lengthAdjust="spacing" textLength="11" x="807.0203" y="1303.8285">1</text><text fill="#000000" font-family="sans-serif" font-size="20" lengthAdjust="spacing" textLength="8" x="810.4625" y="1362.127">*</text></g><!--link Property to Business--><g id="link_Property_Business"><path codeLine="116" d="M426.94,1480.6594 C397.19,1497.8194 366.92,1518.3294 342,1541.6094 C271.85,1607.1394 216.97,1707.9494 191.52,1759.7894 " fill="none" id="Property-Business" style="stroke:#181818;stroke-width:1.0;"/><polygon fill="#000000" points="355.1577,1595.0721,342.2328,1603.1033,349.4218,1609.1666,355.1577,1595.0721" style="stroke:#000000;stroke-width:1.0;"/><text fill="#000000" font-family="sans-serif" font-size="20" lengthAdjust="spacing" textLength="48" x="363" y="1609.3711">has a</text><text fill="#000000" font-family="sans-serif" font-size="20" lengthAdjust="spacing" textLength="11" x="402.3729" y="1508.8786">1</text><text fill="#000000" font-family="sans-serif" font-size="20" lengthAdjust="spacing" textLength="11" x="182.1796" y="1747.7836">1</text></g><!--link PublishedAnnouncement to Business--><g id="link_PublishedAnnouncement_Business"><path codeLine="117" d="M126.84,1455.3594 C137.1,1525.8794 160.95,1689.7294 171.19,1760.0694 " fill="none" id="PublishedAnnouncement-Business" style="stroke:#181818;stroke-width:1.0;"/><polygon fill="#000000" points="163.8478,1593.2709,161.2789,1608.2694,170.5854,1606.9149,163.8478,1593.2709" style="stroke:#000000;stroke-width:1.0;"/><text fill="#000000" font-family="sans-serif" font-size="20" lengthAdjust="spacing" textLength="48" x="178" y="1609.3711">has a</text><text fill="#000000" font-family="sans-serif" font-size="20" lengthAdjust="spacing" textLength="11" x="115.7266" y="1484.1428">1</text><text fill="#000000" font-family="sans-serif" font-size="20" lengthAdjust="spacing" textLength="11" x="158.418" y="1747.8186">1</text></g><!--reverse link Residence to House--><g id="link_Residence_House"><path codeLine="118" d="M483.88,1675.4494 C461.09,1699.6394 436.4,1725.8394 416.12,1747.3494 " fill="none" id="Residence-backto-House" style="stroke:#181818;stroke-width:1.0;"/><polygon fill="none" points="478.96,1670.4694,497.77,1660.7094,489.15,1680.0694,478.96,1670.4694" style="stroke:#181818;stroke-width:1.0;"/></g><!--reverse link Property to Residence--><g id="link_Property_Residence"><path codeLine="119" d="M553,1501.0594 C553,1514.6094 553,1528.4894 553,1541.3894 " fill="none" id="Property-backto-Residence" style="stroke:#181818;stroke-width:1.0;"/><polygon fill="none" points="546,1500.8894,553,1480.8894,560,1500.8894,546,1500.8894" style="stroke:#181818;stroke-width:1.0;"/></g><!--link Photos to Property--><g id="link_Photos_Property"><path codeLine="120" d="M333.6,1421.1094 C356.51,1421.1094 388.5,1421.1094 420.97,1421.1094 " fill="none" id="Photos-Property" style="stroke:#181818;stroke-width:1.0;"/><polygon fill="#000000" points="350.75,1404.6875,365.2221,1409.3898,365.2221,1399.9852,350.75,1404.6875" style="stroke:#000000;stroke-width:1.0;"/><text fill="#000000" font-family="sans-serif" font-size="20" lengthAdjust="spacing" textLength="31" x="371.75" y="1412.8711">has</text><text fill="#000000" font-family="sans-serif" font-size="20" lengthAdjust="spacing" textLength="45" x="341.4891" y="1443.6179">1..30</text><text fill="#000000" font-family="sans-serif" font-size="20" lengthAdjust="spacing" textLength="11" x="402.019" y="1416.1638">1</text></g><!--link House to SunExposure--><g id="link_House_SunExposure"><path codeLine="121" d="M373,1840.7694 C373,1868.2294 373,1902.5594 373,1927.4294 " fill="none" id="House-SunExposure" style="stroke:#181818;stroke-width:1.0;"/><polygon fill="#000000" points="381,1892.1875,385.7023,1877.7154,376.2977,1877.7154,381,1892.1875" style="stroke:#000000;stroke-width:1.0;"/><text fill="#000000" font-family="sans-serif" font-size="20" lengthAdjust="spacing" textLength="72" x="394" y="1892.3711">contains</text><text fill="#000000" font-family="sans-serif" font-size="20" lengthAdjust="spacing" textLength="8" x="364.4375" y="1869.8285">*</text><text fill="#000000" font-family="sans-serif" font-size="20" lengthAdjust="spacing" textLength="11" x="361.0547" y="1915.1545">1</text></g><!--link Property to Address--><g id="link_Property_Address"><path codeLine="122" d="M685.22,1421.1094 C716.77,1421.1094 748.39,1421.1094 772.95,1421.1094 " fill="none" id="Property-Address" style="stroke:#181818;stroke-width:1.0;"/><polygon fill="#000000" points="718.5,1404.6875,704.0279,1399.9852,704.0279,1409.3898,718.5,1404.6875" style="stroke:#000000;stroke-width:1.0;"/><text fill="#000000" font-family="sans-serif" font-size="20" lengthAdjust="spacing" textLength="31" x="723.5" y="1412.8711">has</text><text fill="#000000" font-family="sans-serif" font-size="20" lengthAdjust="spacing" textLength="11" x="693.1819" y="1416.1638">1</text><text fill="#000000" font-family="sans-serif" font-size="20" lengthAdjust="spacing" textLength="11" x="754.0564" y="1414.9331">1</text></g><!--link Residence to AvailableEquipment--><g id="link_Residence_AvailableEquipment"><path codeLine="123" d="M556.99,1660.7094 C559.21,1693.2794 561.88,1732.6194 563.74,1759.9094 " fill="none" id="Residence-AvailableEquipment" style="stroke:#181818;stroke-width:1.0;"/><polygon fill="#000000" points="569.5431,1712.169,573.2521,1697.4111,563.8692,1698.0495,569.5431,1712.169" style="stroke:#000000;stroke-width:1.0;"/><text fill="#000000" font-family="sans-serif" font-size="20" lengthAdjust="spacing" textLength="72" x="582" y="1712.3711">contains</text><text fill="#000000" font-family="sans-serif" font-size="20" lengthAdjust="spacing" textLength="11" x="545.8343" y="1688.9338">1</text><text fill="#000000" font-family="sans-serif" font-size="20" lengthAdjust="spacing" textLength="8" x="554.6641" y="1747.6311">*</text></g><!--link TypeOfProperty to Property--><g id="link_TypeOfProperty_Property"><path codeLine="124" d="M553,1031.6794 C553,1102.9094 553,1271.5994 553,1361.4294 " fill="none" id="TypeOfProperty-Property" style="stroke:#181818;stroke-width:1.0;"/><polygon fill="#000000" points="561,1248.6875,565.7023,1234.2154,556.2977,1234.2154,561,1248.6875" style="stroke:#000000;stroke-width:1.0;"/><text fill="#000000" font-family="sans-serif" font-size="20" lengthAdjust="spacing" textLength="63" x="574" y="1248.8711">defines</text><text fill="#000000" font-family="sans-serif" font-size="20" lengthAdjust="spacing" textLength="11" x="541.0203" y="1060.7225">1</text><text fill="#000000" font-family="sans-serif" font-size="20" lengthAdjust="spacing" textLength="11" x="541.3984" y="1349.3255">1</text></g><!--reverse link Business to Rent--><g id="link_Business_Rent"><path codeLine="126" d="M176,1848.4694 C176,1909.0394 176,2005.9794 176,2056.5194 " fill="none" id="Business-backto-Rent" style="stroke:#181818;stroke-width:1.0;"/><polygon fill="none" points="169,1848.3194,176,1828.3194,183,1848.3194,169,1848.3194" style="stroke:#181818;stroke-width:1.0;"/></g><!--reverse link Person to User--><g id="link_Person_User"><path codeLine="127" d="M108,235.1994 C108,249.0994 108,262.8594 108,275.3694 " fill="none" id="Person-backto-User" style="stroke:#181818;stroke-width:1.0;"/><polygon fill="none" points="101,234.8694,108,214.8694,115,234.8694,101,234.8694" style="stroke:#181818;stroke-width:1.0;"/></g><!--reverse link User to Client--><g id="link_User_Client"><path codeLine="128" d="M116,384.6094 C116,384.6094 79.88,475.5094 63.23,517.4094 " fill="none" id="User-backto-Client" style="stroke:#181818;stroke-width:1.0;"/></g><!--reverse link User to Employee--><g id="link_User_Employee"><path codeLine="129" d="M116,384.6094 C116,384.6094 149.91,420.5294 172.43,444.3794 " fill="none" id="User-backto-Employee" style="stroke:#181818;stroke-width:1.0;"/></g><!--reverse link Employee to Agent--><g id="link_Employee_Agent"><path codeLine="130" d="M194.83,507.8394 C196.7,534.8094 199.08,569.0394 200.57,590.5194 " fill="none" id="Employee-backto-Agent" style="stroke:#181818;stroke-width:1.0;"/><polygon fill="none" points="187.84,508.1794,193.43,487.7394,201.8,507.2094,187.84,508.1794" style="stroke:#181818;stroke-width:1.0;"/></g><!--SRC=[VLLBRzim3BxhLn0v3aYHTRUYA90c6TP3ko9PBxifDXCBiILNZxRPux-FUbXMicwvn28_VYAfZv8v2DbppRjMLGUieSOTTwtzhAJTY1y8bpF6hB0jmjFcSWPJMAgE2mdtgiQMCJE4mruhrz_91hMmN5OKMJWx9LNLQDKXMEsmyFIyEl0zRkoHjj1OKUo-BG6cuRLw5N8FEzwQqbErt9YvjLfidSMxIicGyOmreaQeXAw8A7ntQ1jL6yP223mPrF2J0VqUQVsgTCr-3yv7r4R9v7xW7OQF5HNTneX6IOG7rsrH1yCt_bOkFMElj1ricNXUrnhfFp9lh4QquVExw651xHoX2s6F2HS-fKyZUvV2KCsLJOYyF4LjBBUOD_FVf_v5Ar1w3czAjZKQQfS_l5H-A07K3cwnrafrvjpCRVEU_P7hWp-o3HqlcgAvMlMeSt5pZNnegbKcbnFqioEvW6tyIL90HScMtVnsxF7hRk2BTDvMx1KuqqvFwxlHyqKvCvHuomrsn1qM95- -9VbkIOkjsjcYcqwktdfbdCRSTgzMeMHnmYya4X-yUdQYxs9xWtg6zOXTZzwbqzmJ-SQHYAtcLG6yTKR8KJThV7PeB4rgJuTUbkkshJ0DrdCfbQC65lil4YlOamxT4otDtfdKey3bgEWbYIUrHrZ1Mx1Yc0fPZukS09GP15VQAEemdloUVDInljVgXRT53_UZAgDbrVMjEY8cuy0r-J21wNGAau-Jzsk_WeOR47AdT1VwQu1lbRDmmvBsVUYKBXVfQOWkKL_HFKGZB6i3LW4dV4pgd_2AIp2Ku0tBipXY0pHCSKpeXiLfF4Fao04LGiv0mnKoOF8u1LngnY2O2E9mpTwNnlzZnglW-bVA88pDk6UsP-XPFYtkRE2_kFWqcwHvp4qe1YgWNHzh3BjSXK6WTyPGAaFL8sayzBHPP2JOtzCND1A82P_JF24_lKTEp_Xa4teOVOieTPP7abemdOPHPkdPy9Rmlh3mo8HbL5jX61JDihI3EQYC_G40]--></g></svg>