<?xml version="1.0" encoding="UTF-8" standalone="no"?><svg xmlns="http://www.w3.org/2000/svg" xmlns:xlink="http://www.w3.org/1999/xlink" contentStyleType="text/css" height="1869px" preserveAspectRatio="none" style="width:912px;height:1869px;background:#FFFFFF;" version="1.1" viewBox="0 0 912 1869" width="912px" zoomAndPan="magnify"><defs/><g><text fill="#000000" font-family="sans-serif" font-size="14" font-weight="bold" lengthAdjust="spacing" textLength="148" x="375.2316" y="24.5332">US20 - Domain Model</text><!--class User--><g id="elem_User"><rect codeLine="12" fill="#F1F1F1" height="68.3125" id="User" rx="2.5" ry="2.5" style="stroke:#181818;stroke-width:0.5;" width="100" x="403.9631" y="275.6094"/><text fill="#000000" font-family="sans-serif" font-size="20" lengthAdjust="spacing" textLength="41" x="433.4631" y="301.3711">User</text><line style="stroke:#181818;stroke-width:0.5;" x1="404.9631" x2="502.9631" y1="310.7656" y2="310.7656"/><text fill="#000000" font-family="sans-serif" font-size="20" lengthAdjust="spacing" textLength="88" x="409.9631" y="335.5273">Password</text></g><!--class Person--><g id="elem_Person"><rect codeLine="16" fill="#F1F1F1" height="168.9375" id="Person" rx="2.5" ry="2.5" style="stroke:#181818;stroke-width:0.5;" width="165" x="371.4631" y="45.6094"/><text fill="#000000" font-family="sans-serif" font-size="20" lengthAdjust="spacing" textLength="62" x="422.9631" y="71.3711">Person</text><line style="stroke:#181818;stroke-width:0.5;" x1="372.4631" x2="535.4631" y1="80.7656" y2="80.7656"/><text fill="#000000" font-family="sans-serif" font-size="20" lengthAdjust="spacing" textLength="51" x="377.4631" y="105.5273">Name</text><text fill="#000000" font-family="sans-serif" font-size="20" lengthAdjust="spacing" textLength="48" x="377.4631" y="130.6836">Email</text><text fill="#000000" font-family="sans-serif" font-size="20" lengthAdjust="spacing" textLength="129" x="377.4631" y="155.8398">Phone Number</text><text fill="#000000" font-family="sans-serif" font-size="20" lengthAdjust="spacing" textLength="106" x="377.4631" y="180.9961">Tax Number</text><text fill="#000000" font-family="sans-serif" font-size="20" lengthAdjust="spacing" textLength="153" x="377.4631" y="206.1523">Passport Number</text></g><!--class Address--><g id="elem_Address"><rect codeLine="24" fill="#F1F1F1" height="93.4688" id="Address" rx="2.5" ry="2.5" style="stroke:#181818;stroke-width:0.5;" width="92" x="795.9631" y="1112.6094"/><text fill="#000000" font-family="sans-serif" font-size="20" lengthAdjust="spacing" textLength="73" x="805.4631" y="1138.3711">Address</text><line style="stroke:#181818;stroke-width:0.5;" x1="796.9631" x2="886.9631" y1="1147.7656" y2="1147.7656"/><text fill="#000000" font-family="sans-serif" font-size="20" lengthAdjust="spacing" textLength="54" x="801.9631" y="1172.5273">Street</text><text fill="#000000" font-family="sans-serif" font-size="20" lengthAdjust="spacing" textLength="80" x="801.9631" y="1197.6836">Zip Code</text></g><!--class City--><g id="elem_City"><rect codeLine="29" fill="#F1F1F1" height="68.3125" id="City" rx="2.5" ry="2.5" style="stroke:#181818;stroke-width:0.5;" width="100" x="791.9631" y="944.6094"/><text fill="#000000" font-family="sans-serif" font-size="20" lengthAdjust="spacing" textLength="34" x="824.9631" y="970.3711">City</text><line style="stroke:#181818;stroke-width:0.5;" x1="792.9631" x2="890.9631" y1="979.7656" y2="979.7656"/><text fill="#000000" font-family="sans-serif" font-size="20" lengthAdjust="spacing" textLength="88" x="797.9631" y="1004.5273">City name</text></g><!--class District--><g id="elem_District"><rect codeLine="33" fill="#F1F1F1" height="68.3125" id="District" rx="2.5" ry="2.5" style="stroke:#181818;stroke-width:0.5;" width="127" x="778.4631" y="726.6094"/><text fill="#000000" font-family="sans-serif" font-size="20" lengthAdjust="spacing" textLength="61" x="811.4631" y="752.3711">District</text><line style="stroke:#181818;stroke-width:0.5;" x1="779.4631" x2="904.4631" y1="761.7656" y2="761.7656"/><text fill="#000000" font-family="sans-serif" font-size="20" lengthAdjust="spacing" textLength="115" x="784.4631" y="786.5273">District name</text></g><!--class State--><g id="elem_State"><rect codeLine="37" fill="#F1F1F1" height="68.3125" id="State" rx="2.5" ry="2.5" style="stroke:#181818;stroke-width:0.5;" width="113" x="785.4631" y="508.6094"/><text fill="#000000" font-family="sans-serif" font-size="20" lengthAdjust="spacing" textLength="47" x="818.4631" y="534.3711">State</text><line style="stroke:#181818;stroke-width:0.5;" x1="786.4631" x2="897.4631" y1="543.7656" y2="543.7656"/><text fill="#000000" font-family="sans-serif" font-size="20" lengthAdjust="spacing" textLength="101" x="791.4631" y="568.5273">State name</text></g><!--class Client--><g id="elem_Client"><rect codeLine="41" fill="#F1F1F1" height="43.1563" id="Client" rx="2.5" ry="2.5" style="stroke:#181818;stroke-width:0.5;" width="55" x="418.4631" y="404.6094"/><text fill="#000000" font-family="sans-serif" font-size="20" lengthAdjust="spacing" textLength="49" x="421.4631" y="430.3711">Client</text><line style="stroke:#181818;stroke-width:0.5;" x1="419.4631" x2="472.4631" y1="439.7656" y2="439.7656"/></g><!--class Residence--><g id="elem_Residence"><rect codeLine="46" fill="#F1F1F1" height="118.625" id="Residence" rx="2.5" ry="2.5" style="stroke:#181818;stroke-width:0.5;" width="247" x="452.4631" y="1279.6094"/><text fill="#000000" font-family="sans-serif" font-size="20" lengthAdjust="spacing" textLength="92" x="529.9631" y="1305.3711">Residence</text><line style="stroke:#181818;stroke-width:0.5;" x1="453.4631" x2="698.4631" y1="1314.7656" y2="1314.7656"/><text fill="#000000" font-family="sans-serif" font-size="20" lengthAdjust="spacing" textLength="187" x="458.4631" y="1339.5273">Number of Bedrooms</text><text fill="#000000" font-family="sans-serif" font-size="20" lengthAdjust="spacing" textLength="192" x="458.4631" y="1364.6836">Number of Bathrooms</text><text fill="#000000" font-family="sans-serif" font-size="20" lengthAdjust="spacing" textLength="235" x="458.4631" y="1389.8398">Number of Parking Spaces</text></g><!--class Property--><g id="elem_Property"><rect codeLine="52" fill="#F1F1F1" height="118.625" id="Property" rx="2.5" ry="2.5" style="stroke:#181818;stroke-width:0.5;" width="264" x="443.9631" y="1099.6094"/><text fill="#000000" font-family="sans-serif" font-size="20" lengthAdjust="spacing" textLength="76" x="537.9631" y="1125.3711">Property</text><line style="stroke:#181818;stroke-width:0.5;" x1="444.9631" x2="706.9631" y1="1134.7656" y2="1134.7656"/><text fill="#000000" font-family="sans-serif" font-size="20" lengthAdjust="spacing" textLength="42" x="449.9631" y="1159.5273">Area</text><text fill="#000000" font-family="sans-serif" font-size="20" lengthAdjust="spacing" textLength="61" x="449.9631" y="1184.6836">Photos</text><text fill="#000000" font-family="sans-serif" font-size="20" lengthAdjust="spacing" textLength="252" x="449.9631" y="1209.8398">Distance from the city center</text></g><!--class TypeOfProperty--><g id="elem_TypeOfProperty"><rect codeLine="58" fill="#F1F1F1" height="68.3125" id="TypeOfProperty" rx="2.5" ry="2.5" style="stroke:#181818;stroke-width:0.5;" width="148" x="501.9631" y="726.6094"/><text fill="#000000" font-family="sans-serif" font-size="20" lengthAdjust="spacing" textLength="142" x="504.9631" y="752.3711">TypeOfProperty</text><line style="stroke:#181818;stroke-width:0.5;" x1="502.9631" x2="648.9631" y1="761.7656" y2="761.7656"/><text fill="#000000" font-family="sans-serif" font-size="20" lengthAdjust="spacing" textLength="44" x="507.9631" y="786.5273">Type</text></g><!--class Photos--><g id="elem_Photos"><rect codeLine="62" fill="#F1F1F1" height="68.3125" id="Photos" rx="2.5" ry="2.5" style="stroke:#181818;stroke-width:0.5;" width="67" x="289.4631" y="1125.1094"/><text fill="#000000" font-family="sans-serif" font-size="20" lengthAdjust="spacing" textLength="61" x="292.4631" y="1150.8711">Photos</text><line style="stroke:#181818;stroke-width:0.5;" x1="290.4631" x2="355.4631" y1="1160.2656" y2="1160.2656"/><text fill="#000000" font-family="sans-serif" font-size="20" lengthAdjust="spacing" textLength="33" x="295.4631" y="1185.0273">URI</text></g><!--class House--><g id="elem_House"><rect codeLine="66" fill="#F1F1F1" height="93.4688" id="House" rx="2.5" ry="2.5" style="stroke:#181818;stroke-width:0.5;" width="140" x="325.9631" y="1485.6094"/><text fill="#000000" font-family="sans-serif" font-size="20" lengthAdjust="spacing" textLength="55" x="368.4631" y="1511.3711">House</text><line style="stroke:#181818;stroke-width:0.5;" x1="326.9631" x2="464.9631" y1="1520.7656" y2="1520.7656"/><text fill="#000000" font-family="sans-serif" font-size="20" lengthAdjust="spacing" textLength="88" x="331.9631" y="1545.5273">Basement</text><text fill="#000000" font-family="sans-serif" font-size="20" lengthAdjust="spacing" textLength="128" x="331.9631" y="1570.6836">Inhabitable loft</text></g><!--class SunExposure--><g id="elem_SunExposure"><rect codeLine="71" fill="#F1F1F1" height="68.3125" id="SunExposure" rx="2.5" ry="2.5" style="stroke:#181818;stroke-width:0.5;" width="121" x="335.4631" y="1665.6094"/><text fill="#000000" font-family="sans-serif" font-size="20" lengthAdjust="spacing" textLength="115" x="338.4631" y="1691.3711">SunExposure</text><line style="stroke:#181818;stroke-width:0.5;" x1="336.4631" x2="455.4631" y1="1700.7656" y2="1700.7656"/><text fill="#000000" font-family="sans-serif" font-size="20" lengthAdjust="spacing" textLength="77" x="341.4631" y="1725.5273">Direction</text></g><!--class AvailableEquipment--><g id="elem_AvailableEquipment"><rect codeLine="75" fill="#F1F1F1" height="68.3125" id="AvailableEquipment" rx="2.5" ry="2.5" style="stroke:#181818;stroke-width:0.5;" width="176" x="500.9631" y="1498.1094"/><text fill="#000000" font-family="sans-serif" font-size="20" lengthAdjust="spacing" textLength="170" x="503.9631" y="1523.8711">AvailableEquipment</text><line style="stroke:#181818;stroke-width:0.5;" x1="501.9631" x2="675.9631" y1="1533.2656" y2="1533.2656"/><text fill="#000000" font-family="sans-serif" font-size="20" lengthAdjust="spacing" textLength="92" x="506.9631" y="1558.0273">Equipment</text></g><!--class Rent--><g id="elem_Rent"><rect codeLine="79" fill="#F1F1F1" height="68.3125" id="Rent" rx="2.5" ry="2.5" style="stroke:#181818;stroke-width:0.5;" width="185" x="106.4631" y="1794.6094"/><text fill="#000000" font-family="sans-serif" font-size="20" lengthAdjust="spacing" textLength="41" x="178.4631" y="1820.3711">Rent</text><line style="stroke:#181818;stroke-width:0.5;" x1="107.4631" x2="290.4631" y1="1829.7656" y2="1829.7656"/><text fill="#000000" font-family="sans-serif" font-size="20" lengthAdjust="spacing" textLength="173" x="112.4631" y="1854.5273">Duration of contract</text></g><!--class Business--><g id="elem_Business"><rect codeLine="83" fill="#F1F1F1" height="68.3125" id="Business" rx="2.5" ry="2.5" style="stroke:#181818;stroke-width:0.5;" width="156" x="120.9631" y="1498.1094"/><text fill="#000000" font-family="sans-serif" font-size="20" lengthAdjust="spacing" textLength="78" x="159.9631" y="1523.8711">Business</text><line style="stroke:#181818;stroke-width:0.5;" x1="121.9631" x2="275.9631" y1="1533.2656" y2="1533.2656"/><text fill="#000000" font-family="sans-serif" font-size="20" lengthAdjust="spacing" textLength="144" x="126.9631" y="1558.0273">Requested price</text></g><!--class PublishedAnnouncement--><g id="elem_PublishedAnnouncement"><rect codeLine="87" fill="#F1F1F1" height="68.3125" id="PublishedAnnouncement" rx="2.5" ry="2.5" style="stroke:#181818;stroke-width:0.5;" width="218" x="35.9631" y="1125.1094"/><text fill="#000000" font-family="sans-serif" font-size="20" lengthAdjust="spacing" textLength="212" x="38.9631" y="1150.8711">PublishedAnnouncement</text><line style="stroke:#181818;stroke-width:0.5;" x1="36.9631" x2="252.9631" y1="1160.2656" y2="1160.2656"/><text fill="#000000" font-family="sans-serif" font-size="20" lengthAdjust="spacing" textLength="119" x="41.9631" y="1185.0273">Contract type</text></g><!--class Message--><g id="elem_Message"><rect codeLine="91" fill="#F1F1F1" height="194.0938" id="Message" rx="2.5" ry="2.5" style="stroke:#181818;stroke-width:0.5;" width="138" x="205.9631" y="663.6094"/><text fill="#000000" font-family="sans-serif" font-size="20" lengthAdjust="spacing" textLength="81" x="234.4631" y="689.3711">Message</text><line style="stroke:#181818;stroke-width:0.5;" x1="206.9631" x2="342.9631" y1="698.7656" y2="698.7656"/><text fill="#000000" font-family="sans-serif" font-size="20" lengthAdjust="spacing" textLength="51" x="211.9631" y="723.5273">Name</text><text fill="#000000" font-family="sans-serif" font-size="20" lengthAdjust="spacing" textLength="126" x="211.9631" y="748.6836">Phone number</text><text fill="#000000" font-family="sans-serif" font-size="20" lengthAdjust="spacing" textLength="42" x="211.9631" y="773.8398">Date</text><text fill="#000000" font-family="sans-serif" font-size="20" lengthAdjust="spacing" textLength="88" x="211.9631" y="798.9961">Initial time</text><text fill="#000000" font-family="sans-serif" font-size="20" lengthAdjust="spacing" textLength="77" x="211.9631" y="824.1523">End time</text><text fill="#000000" font-family="sans-serif" font-size="20" lengthAdjust="spacing" textLength="98" x="211.9631" y="849.3086">Description</text></g><!--class Agent--><g id="elem_Agent"><rect codeLine="100" fill="#F1F1F1" height="43.1563" id="Agent" rx="2.5" ry="2.5" style="stroke:#181818;stroke-width:0.5;" width="57" x="72.4631" y="404.6094"/><text fill="#000000" font-family="sans-serif" font-size="20" lengthAdjust="spacing" textLength="51" x="75.4631" y="430.3711">Agent</text><line style="stroke:#181818;stroke-width:0.5;" x1="73.4631" x2="128.4631" y1="439.7656" y2="439.7656"/></g><!--class Response--><g id="elem_Response"><rect codeLine="104" fill="#F1F1F1" height="68.3125" id="Response" rx="2.5" ry="2.5" style="stroke:#181818;stroke-width:0.5;" width="110" x="132.9631" y="96.1094"/><text fill="#000000" font-family="sans-serif" font-size="20" lengthAdjust="spacing" textLength="88" x="143.9631" y="121.8711">Response</text><line style="stroke:#181818;stroke-width:0.5;" x1="133.9631" x2="241.9631" y1="131.2656" y2="131.2656"/><text fill="#000000" font-family="sans-serif" font-size="20" lengthAdjust="spacing" textLength="98" x="138.9631" y="156.0273">Description</text></g><!--link Message to PublishedAnnouncement--><g id="link_Message_PublishedAnnouncement"><path codeLine="108" d="M243.4131,857.8394 C215.0031,944.4894 174.8831,1066.8594 155.8231,1124.9794 " fill="none" id="Message-PublishedAnnouncement" style="stroke:#181818;stroke-width:1.0;"/><polygon fill="#000000" points="225.4556,971.0857,216.4784,983.3724,225.4149,986.3025,225.4556,971.0857" style="stroke:#000000;stroke-width:1.0;"/><text fill="#000000" font-family="sans-serif" font-size="20" lengthAdjust="spacing" textLength="95" x="235.9631" y="986.8711">can have a</text><text fill="#000000" font-family="sans-serif" font-size="20" lengthAdjust="spacing" textLength="8" x="232.9135" y="886.3187">*</text><text fill="#000000" font-family="sans-serif" font-size="20" lengthAdjust="spacing" textLength="11" x="145.7444" y="1112.7131">1</text></g><!--link Client to Message--><g id="link_Client_Message"><path codeLine="109" d="M473.7731,439.6494 C499.1431,452.7894 535.0331,476.0694 550.9631,508.6094 C564.2531,535.7494 565.2531,549.9794 550.9631,576.6094 C507.5231,657.5294 410.8231,708.7194 344.2531,735.7694 " fill="none" id="Client-Message" style="stroke:#181818;stroke-width:1.0;"/><text fill="#000000" font-family="sans-serif" font-size="20" lengthAdjust="spacing" textLength="73" x="568.4631" y="538.3711">leaves a</text><polygon fill="#000000" points="566.7573,562.6733,576.865,551.2984,568.2485,547.5296,566.7573,562.6733" style="stroke:#000000;stroke-width:1.0;"/><text fill="#000000" font-family="sans-serif" font-size="20" lengthAdjust="spacing" textLength="72" x="581.9631" y="563.5273">+sender</text><text fill="#000000" font-family="sans-serif" font-size="20" lengthAdjust="spacing" textLength="11" x="481.4761" y="435.6516">1</text><text fill="#000000" font-family="sans-serif" font-size="20" lengthAdjust="spacing" textLength="8" x="351.8112" y="727.6836">*</text></g><!--link Client to Message--><g id="link_Client_Message"><path codeLine="112" d="M437.0731,447.6594 C424.3731,476.6894 400.0231,531.2494 376.9631,576.6094 C362.4531,605.1394 345.8631,635.6794 330.3431,663.4794 " fill="none" id="Client-Message-1" style="stroke:#181818;stroke-width:1.0;"/><text fill="#000000" font-family="sans-serif" font-size="20" lengthAdjust="spacing" textLength="90" x="413.9631" y="538.3711">receives a</text><polygon fill="#000000" points="422.5094,548.1727,411.8791,559.0608,420.3091,563.2297,422.5094,548.1727" style="stroke:#000000;stroke-width:1.0;"/><text fill="#000000" font-family="sans-serif" font-size="20" lengthAdjust="spacing" textLength="82" x="430.9631" y="563.5273">+receiver</text><text fill="#000000" font-family="sans-serif" font-size="20" lengthAdjust="spacing" textLength="11" x="422.5656" y="476.7208">1</text><text fill="#000000" font-family="sans-serif" font-size="20" lengthAdjust="spacing" textLength="8" x="326.1164" y="651.1924">*</text></g><!--link Agent to Message--><g id="link_Agent_Message"><path codeLine="110" d="M101.4931,447.6394 C102.9531,477.3594 108.3231,533.5294 127.9631,576.6094 C146.8931,618.1394 177.3931,658.3594 205.7231,690.4594 " fill="none" id="Agent-Message" style="stroke:#181818;stroke-width:1.0;"/><text fill="#000000" font-family="sans-serif" font-size="20" lengthAdjust="spacing" textLength="90" x="131.9631" y="538.3711">receives a</text><polygon fill="#000000" points="133.8076,547.9924,135.195,563.1459,143.8371,559.4363,133.8076,547.9924" style="stroke:#000000;stroke-width:1.0;"/><text fill="#000000" font-family="sans-serif" font-size="20" lengthAdjust="spacing" textLength="82" x="148.9631" y="563.5273">+receiver</text><text fill="#000000" font-family="sans-serif" font-size="20" lengthAdjust="spacing" textLength="11" x="89.2817" y="476.6959">1</text><text fill="#000000" font-family="sans-serif" font-size="20" lengthAdjust="spacing" textLength="8" x="190.1703" y="677.701">*</text></g><!--link Agent to Message--><g id="link_Agent_Message"><path codeLine="111" d="M129.6131,436.1494 C161.1031,447.6694 210.5731,470.7594 235.9631,508.6094 C266.2431,553.7494 276.4031,613.5994 278.8031,663.5394 " fill="none" id="Agent-Message-1" style="stroke:#181818;stroke-width:1.0;"/><text fill="#000000" font-family="sans-serif" font-size="20" lengthAdjust="spacing" textLength="73" x="273.4631" y="538.3711">leaves a</text><polygon fill="#000000" points="279.3517,562.0326,275.3443,547.3528,267.4811,552.5119,279.3517,562.0326" style="stroke:#000000;stroke-width:1.0;"/><text fill="#000000" font-family="sans-serif" font-size="20" lengthAdjust="spacing" textLength="72" x="286.9631" y="563.5273">+sender</text><text fill="#000000" font-family="sans-serif" font-size="20" lengthAdjust="spacing" textLength="11" x="137.5103" y="431.3422">1</text><text fill="#000000" font-family="sans-serif" font-size="20" lengthAdjust="spacing" textLength="8" x="270.7914" y="651.2568">*</text></g><!--link Agent to PublishedAnnouncement--><g id="link_Agent_PublishedAnnouncement"><path codeLine="113" d="M72.1531,447.1894 C46.4831,467.6694 12.9631,501.9994 12.9631,541.6094 C12.9631,541.6094 12.9631,541.6094 12.9631,979.6094 C12.9631,1039.5394 61.6631,1092.5294 99.9031,1124.8894 " fill="none" id="Agent-PublishedAnnouncement" style="stroke:#181818;stroke-width:1.0;"/><polygon fill="#000000" points="21.2904,768.6808,25.3967,754.0284,16,754.4132,21.2904,768.6808" style="stroke:#000000;stroke-width:1.0;"/><text fill="#000000" font-family="sans-serif" font-size="20" lengthAdjust="spacing" textLength="108" x="33.9631" y="768.8711">publishes an</text><text fill="#000000" font-family="sans-serif" font-size="20" lengthAdjust="spacing" textLength="11" x="53.6478" y="444.828">1</text><text fill="#000000" font-family="sans-serif" font-size="20" lengthAdjust="spacing" textLength="8" x="83.471" y="1112.6077">*</text></g><!--link District to City--><g id="link_District_City"><path codeLine="114" d="M841.9631,794.8894 C841.9631,835.4794 841.9631,903.6894 841.9631,944.2994 " fill="none" id="District-City" style="stroke:#181818;stroke-width:1.0;"/><polygon fill="#000000" points="849.9631,909.1875,854.6654,894.7154,845.2609,894.7154,849.9631,909.1875" style="stroke:#000000;stroke-width:1.0;"/><text fill="#000000" font-family="sans-serif" font-size="20" lengthAdjust="spacing" textLength="31" x="862.9631" y="909.3711">has</text><text fill="#000000" font-family="sans-serif" font-size="20" lengthAdjust="spacing" textLength="11" x="830.0178" y="823.678">1</text><text fill="#000000" font-family="sans-serif" font-size="20" lengthAdjust="spacing" textLength="8" x="833.3006" y="932.2952">*</text></g><!--link State to District--><g id="link_State_District"><path codeLine="115" d="M841.9631,576.8894 C841.9631,617.4794 841.9631,685.6894 841.9631,726.2994 " fill="none" id="State-District" style="stroke:#181818;stroke-width:1.0;"/><polygon fill="#000000" points="849.9631,628.1875,854.6654,613.7154,845.2609,613.7154,849.9631,628.1875" style="stroke:#000000;stroke-width:1.0;"/><text fill="#000000" font-family="sans-serif" font-size="20" lengthAdjust="spacing" textLength="31" x="862.9631" y="628.3711">has</text><text fill="#000000" font-family="sans-serif" font-size="20" lengthAdjust="spacing" textLength="11" x="830.0178" y="605.678">1</text><text fill="#000000" font-family="sans-serif" font-size="20" lengthAdjust="spacing" textLength="8" x="833.3006" y="714.2952">*</text></g><!--link City to Address--><g id="link_City_Address"><path codeLine="116" d="M841.9631,1012.7694 C841.9631,1040.7894 841.9631,1081.2394 841.9631,1112.3494 " fill="none" id="City-Address" style="stroke:#181818;stroke-width:1.0;"/><polygon fill="#000000" points="849.9631,1064.1875,854.6654,1049.7154,845.2609,1049.7154,849.9631,1064.1875" style="stroke:#000000;stroke-width:1.0;"/><text fill="#000000" font-family="sans-serif" font-size="20" lengthAdjust="spacing" textLength="31" x="862.9631" y="1064.3711">has</text><text fill="#000000" font-family="sans-serif" font-size="20" lengthAdjust="spacing" textLength="11" x="829.9835" y="1041.8285">1</text><text fill="#000000" font-family="sans-serif" font-size="20" lengthAdjust="spacing" textLength="8" x="833.4256" y="1100.127">*</text></g><!--link Property to Business--><g id="link_Property_Business"><path codeLine="117" d="M449.9031,1218.6594 C420.1531,1235.8194 389.8831,1256.3294 364.9631,1279.6094 C294.8131,1345.1394 239.9331,1445.9494 214.4831,1497.7894 " fill="none" id="Property-Business" style="stroke:#181818;stroke-width:1.0;"/><polygon fill="#000000" points="378.1209,1333.0721,365.1959,1341.1033,372.385,1347.1666,378.1209,1333.0721" style="stroke:#000000;stroke-width:1.0;"/><text fill="#000000" font-family="sans-serif" font-size="20" lengthAdjust="spacing" textLength="48" x="385.9631" y="1347.3711">has a</text><text fill="#000000" font-family="sans-serif" font-size="20" lengthAdjust="spacing" textLength="11" x="425.336" y="1246.8786">1</text><text fill="#000000" font-family="sans-serif" font-size="20" lengthAdjust="spacing" textLength="11" x="205.1427" y="1485.7836">1</text></g><!--link PublishedAnnouncement to Business--><g id="link_PublishedAnnouncement_Business"><path codeLine="118" d="M149.8031,1193.3594 C160.0631,1263.8794 183.9131,1427.7294 194.1531,1498.0694 " fill="none" id="PublishedAnnouncement-Business" style="stroke:#181818;stroke-width:1.0;"/><polygon fill="#000000" points="186.8109,1331.2709,184.2421,1346.2694,193.5486,1344.9149,186.8109,1331.2709" style="stroke:#000000;stroke-width:1.0;"/><text fill="#000000" font-family="sans-serif" font-size="20" lengthAdjust="spacing" textLength="48" x="200.9631" y="1347.3711">has a</text><text fill="#000000" font-family="sans-serif" font-size="20" lengthAdjust="spacing" textLength="11" x="138.6897" y="1222.1428">1</text><text fill="#000000" font-family="sans-serif" font-size="20" lengthAdjust="spacing" textLength="11" x="181.3811" y="1485.8186">1</text></g><!--reverse link Residence to House--><g id="link_Residence_House"><path codeLine="119" d="M506.8431,1413.4494 C484.0531,1437.6394 459.3631,1463.8394 439.0831,1485.3494 " fill="none" id="Residence-backto-House" style="stroke:#181818;stroke-width:1.0;"/><polygon fill="none" points="501.9231,1408.4694,520.7331,1398.7094,512.1131,1418.0694,501.9231,1408.4694" style="stroke:#181818;stroke-width:1.0;"/></g><!--reverse link Property to Residence--><g id="link_Property_Residence"><path codeLine="120" d="M575.9631,1239.0594 C575.9631,1252.6094 575.9631,1266.4894 575.9631,1279.3894 " fill="none" id="Property-backto-Residence" style="stroke:#181818;stroke-width:1.0;"/><polygon fill="none" points="568.9631,1238.8894,575.9631,1218.8894,582.9631,1238.8894,568.9631,1238.8894" style="stroke:#181818;stroke-width:1.0;"/></g><!--link Photos to Property--><g id="link_Photos_Property"><path codeLine="121" d="M356.5631,1159.1094 C379.4731,1159.1094 411.4631,1159.1094 443.9331,1159.1094 " fill="none" id="Photos-Property" style="stroke:#181818;stroke-width:1.0;"/><polygon fill="#000000" points="373.7131,1142.6875,388.1853,1147.3898,388.1853,1137.9852,373.7131,1142.6875" style="stroke:#000000;stroke-width:1.0;"/><text fill="#000000" font-family="sans-serif" font-size="20" lengthAdjust="spacing" textLength="31" x="394.7131" y="1150.8711">has</text><text fill="#000000" font-family="sans-serif" font-size="20" lengthAdjust="spacing" textLength="45" x="364.4522" y="1181.6179">1..30</text><text fill="#000000" font-family="sans-serif" font-size="20" lengthAdjust="spacing" textLength="11" x="424.9822" y="1154.1638">1</text></g><!--link House to SunExposure--><g id="link_House_SunExposure"><path codeLine="122" d="M395.9631,1578.7694 C395.9631,1606.2294 395.9631,1640.5594 395.9631,1665.4294 " fill="none" id="House-SunExposure" style="stroke:#181818;stroke-width:1.0;"/><polygon fill="#000000" points="403.9631,1630.1875,408.6654,1615.7154,399.2609,1615.7154,403.9631,1630.1875" style="stroke:#000000;stroke-width:1.0;"/><text fill="#000000" font-family="sans-serif" font-size="20" lengthAdjust="spacing" textLength="72" x="416.9631" y="1630.3711">contains</text><text fill="#000000" font-family="sans-serif" font-size="20" lengthAdjust="spacing" textLength="8" x="387.4006" y="1607.8285">*</text><text fill="#000000" font-family="sans-serif" font-size="20" lengthAdjust="spacing" textLength="11" x="384.0178" y="1653.1545">1</text></g><!--link Property to Address--><g id="link_Property_Address"><path codeLine="123" d="M708.1831,1159.1094 C739.7331,1159.1094 771.3531,1159.1094 795.9131,1159.1094 " fill="none" id="Property-Address" style="stroke:#181818;stroke-width:1.0;"/><polygon fill="#000000" points="741.4631,1142.6875,726.991,1137.9852,726.991,1147.3898,741.4631,1142.6875" style="stroke:#000000;stroke-width:1.0;"/><text fill="#000000" font-family="sans-serif" font-size="20" lengthAdjust="spacing" textLength="31" x="746.4631" y="1150.8711">has</text><text fill="#000000" font-family="sans-serif" font-size="20" lengthAdjust="spacing" textLength="11" x="716.1451" y="1154.1638">1</text><text fill="#000000" font-family="sans-serif" font-size="20" lengthAdjust="spacing" textLength="11" x="777.0195" y="1152.9331">1</text></g><!--link Residence to AvailableEquipment--><g id="link_Residence_AvailableEquipment"><path codeLine="124" d="M579.9531,1398.7094 C582.1731,1431.2794 584.8431,1470.6194 586.7031,1497.9094 " fill="none" id="Residence-AvailableEquipment" style="stroke:#181818;stroke-width:1.0;"/><polygon fill="#000000" points="591.5062,1450.169,595.2152,1435.4111,585.8323,1436.0495,591.5062,1450.169" style="stroke:#000000;stroke-width:1.0;"/><text fill="#000000" font-family="sans-serif" font-size="20" lengthAdjust="spacing" textLength="72" x="603.9631" y="1450.3711">contains</text><text fill="#000000" font-family="sans-serif" font-size="20" lengthAdjust="spacing" textLength="11" x="568.7974" y="1426.9338">1</text><text fill="#000000" font-family="sans-serif" font-size="20" lengthAdjust="spacing" textLength="8" x="577.6272" y="1485.6311">*</text></g><!--link TypeOfProperty to Property--><g id="link_TypeOfProperty_Property"><path codeLine="125" d="M575.9631,794.7294 C575.9631,861.9194 575.9631,1015.0094 575.9631,1099.4694 " fill="none" id="TypeOfProperty-Property" style="stroke:#181818;stroke-width:1.0;"/><polygon fill="#000000" points="583.9631,986.6875,588.6654,972.2154,579.2609,972.2154,583.9631,986.6875" style="stroke:#000000;stroke-width:1.0;"/><text fill="#000000" font-family="sans-serif" font-size="20" lengthAdjust="spacing" textLength="63" x="596.9631" y="986.8711">defines</text><text fill="#000000" font-family="sans-serif" font-size="20" lengthAdjust="spacing" textLength="11" x="563.9835" y="823.7814">1</text><text fill="#000000" font-family="sans-serif" font-size="20" lengthAdjust="spacing" textLength="11" x="564.3616" y="1087.3698">1</text></g><!--link Response to Client--><g id="link_Response_Client"><path codeLine="126" d="M197.1131,164.4094 C211.0231,209.7994 241.3731,291.3994 291.9631,343.6094 C327.9531,380.7594 384.5731,404.6394 418.2131,416.4094 " fill="none" id="Response-Client" style="stroke:#181818;stroke-width:1.0;"/><text fill="#000000" font-family="sans-serif" font-size="20" lengthAdjust="spacing" textLength="69" x="301.4631" y="305.3711">sends a</text><polygon fill="#000000" points="306.2393,328.3573,300.2293,314.3775,293.16,320.58,306.2393,328.3573" style="stroke:#000000;stroke-width:1.0;"/><text fill="#000000" font-family="sans-serif" font-size="20" lengthAdjust="spacing" textLength="72" x="312.9631" y="330.5273">+sender</text><text fill="#000000" font-family="sans-serif" font-size="20" lengthAdjust="spacing" textLength="8" x="189.9983" y="193.2014">*</text><text fill="#000000" font-family="sans-serif" font-size="20" lengthAdjust="spacing" textLength="11" x="399.5241" y="407.0373">1</text></g><!--link Response to Agent--><g id="link_Response_Agent"><path codeLine="127" d="M171.8031,164.2394 C158.3331,193.0594 139.5431,236.2594 127.9631,275.6094 C114.7131,320.6494 106.8331,375.3294 103.2631,404.4694 " fill="none" id="Response-Agent" style="stroke:#181818;stroke-width:1.0;"/><text fill="#000000" font-family="sans-serif" font-size="20" lengthAdjust="spacing" textLength="90" x="131.9631" y="305.3711">receives a</text><polygon fill="#000000" points="139.158,314.6507,130.6656,327.2774,139.7093,329.8577,139.158,314.6507" style="stroke:#000000;stroke-width:1.0;"/><text fill="#000000" font-family="sans-serif" font-size="20" lengthAdjust="spacing" textLength="82" x="148.9631" y="330.5273">+receiver</text><text fill="#000000" font-family="sans-serif" font-size="20" lengthAdjust="spacing" textLength="8" x="160.2121" y="193.2931">*</text><text fill="#000000" font-family="sans-serif" font-size="20" lengthAdjust="spacing" textLength="11" x="91.5231" y="392.3362">1</text></g><!--reverse link Business to Rent--><g id="link_Business_Rent"><path codeLine="129" d="M198.9631,1586.4694 C198.9631,1647.0394 198.9631,1743.9794 198.9631,1794.5194 " fill="none" id="Business-backto-Rent" style="stroke:#181818;stroke-width:1.0;"/><polygon fill="none" points="191.9631,1586.3194,198.9631,1566.3194,205.9631,1586.3194,191.9631,1586.3194" style="stroke:#181818;stroke-width:1.0;"/></g><!--reverse link Person to User--><g id="link_Person_User"><path codeLine="130" d="M453.9631,234.8594 C453.9631,249.5294 453.9631,263.6294 453.9631,275.5094 " fill="none" id="Person-backto-User" style="stroke:#181818;stroke-width:1.0;"/><polygon fill="none" points="446.9631,234.6594,453.9631,214.6594,460.9631,234.6594,446.9631,234.6594" style="stroke:#181818;stroke-width:1.0;"/></g><!--reverse link User to Client--><g id="link_User_Client"><path codeLine="131" d="M450.2331,364.0394 C449.2331,378.3394 448.2131,392.9694 447.4131,404.3194 " fill="none" id="User-backto-Client" style="stroke:#181818;stroke-width:1.0;"/><polygon fill="none" points="443.2731,363.1894,451.6531,343.7294,457.2331,364.1694,443.2731,363.1894" style="stroke:#181818;stroke-width:1.0;"/></g><!--SRC=[bLN9Rjim4BtpAmO-jd3XfZSZAE3OAPf3qi1EBaKlj3Is24kamYLBbt_laA8eMdK2r1UBmpVRu-FG78HikUPDhOe3bb3YZhlQVb7IRiHFXBCPOrRO6k5-SpQ3AQnKmuM4QrLYpPZftM6lbMklP8LQM2uByims6oLLKMdL85ZjCDjfUN7WUzpO5qgXiI3VVPq3JCLBzIJa7dQyDlbEKNDZ5jPgiNKMhmebGyKpLeaIeH2we43Xkq5RgT8m5bpWtg26NmpeTqlh9wLBzgVVl4Ljb8pRDxp1y759JTUTHwKamerhjgY3uOu_vqiViLNQzhOKU56M6kc_Yxon6j66p- -YXINHEK2Nmhv4NFYKleoqknA6UYviHAJbCMfZkSMKp7yVxozhWTB7yAPeMwCXklpXnVP32w1sS86bLgenOpEtrIdxBTS7VsGREbuq6RbQjQXJSmkDl2VLAfFQ2VhPaLp0LluaoQ6WOdCsxrvQ_BRhutNXl2tB5MB6JFVhgs7dgtAcR_626smeTbYGVFcMvBibBTPgPpCsdRnyRfLn6XFjNgr2oUo47qaatldomOcswUWDwkdN0tOzxAwSvZwG9uv4R3KlCk25Cq8EkbdZWqDZwQQsTEXvksvR2rDXkP1IEI8mox-CKS4UCNHDOUdkZQJU2LmEYbwHU28zmWfUWnNzhP3bi5YXARHeHvJi1v4bZRLA9lv7Nh4acBoRm7GwXSd7oUdEvb1m2HL_HE1mpgAQFJouaNiCDOSQ2MK8zaF2UuEo98r-Pbrb9nteO54CBd6fASqRJgUpl5NN_wHvXOCscYc6f6nf50HN6fkoymv3P4vi6G9rms24I9uzAhYCGFq4wp7fDgTAwR_NQmVoPtDQcM_x39Fe_7Ui8DpQ8MUo9-YedXftDiJ_yE7JR1B7GI8Xkyy1xTgknv1b7kuXFNF67qRiUWZQgJ8cwo8IxD_B7qGS0XC-bNaK_7YCPOIFaz2xx2aQ99NAxkhkhzKSlFR6EeHSKYTyNfSYI_E729zEmznYyOtqbl2Oil2YXcLN7ViB]--></g></svg>