<?xml version="1.0" encoding="UTF-8" standalone="no"?><svg xmlns="http://www.w3.org/2000/svg" xmlns:xlink="http://www.w3.org/1999/xlink" contentStyleType="text/css" height="551px" preserveAspectRatio="none" style="width:780px;height:551px;background:#FFFFFF;" version="1.1" viewBox="0 0 780 551" width="780px" zoomAndPan="magnify"><defs/><g><text fill="#000000" font-family="sans-serif" font-size="14" font-weight="bold" lengthAdjust="spacing" textLength="351" x="213.75" y="29.5332">System Sequence Diagram (SSD) - Alternative One</text><rect fill="#FFFFFF" height="314.25" style="stroke:#181818;stroke-width:1.0;" width="10" x="81.5" y="138.7656"/><rect fill="#FFFFFF" height="39.1563" style="stroke:#181818;stroke-width:1.0;" width="10" x="726.5" y="169.9219"/><rect fill="#FFFFFF" height="39.1563" style="stroke:#181818;stroke-width:1.0;" width="10" x="726.5" y="248.2344"/><rect fill="#FFFFFF" height="39.1563" style="stroke:#181818;stroke-width:1.0;" width="10" x="726.5" y="326.5469"/><rect fill="#FFFFFF" height="39.1563" style="stroke:#181818;stroke-width:1.0;" width="10" x="726.5" y="404.8594"/><line style="stroke:#181818;stroke-width:0.5;stroke-dasharray:5.0,5.0;" x1="86" x2="86" y1="128.7656" y2="462.0156"/><line style="stroke:#181818;stroke-width:0.5;stroke-dasharray:5.0,5.0;" x1="731.5" x2="731.5" y1="128.7656" y2="462.0156"/><text fill="#000000" font-family="sans-serif" font-size="20" lengthAdjust="spacing" textLength="157" x="5" y="124.3711">Network Manager</text><ellipse cx="86.5" cy="52.1094" fill="#E3E3E3" rx="8" ry="8" style="stroke:#181818;stroke-width:0.5;"/><path d="M86.5,60.1094 L86.5,87.1094 M73.5,68.1094 L99.5,68.1094 M86.5,87.1094 L73.5,102.1094 M86.5,87.1094 L99.5,102.1094 " fill="none" style="stroke:#181818;stroke-width:0.5;"/><text fill="#000000" font-family="sans-serif" font-size="20" lengthAdjust="spacing" textLength="157" x="5" y="481.7773">Network Manager</text><ellipse cx="86.5" cy="494.6719" fill="#E3E3E3" rx="8" ry="8" style="stroke:#181818;stroke-width:0.5;"/><path d="M86.5,502.6719 L86.5,529.6719 M73.5,510.6719 L99.5,510.6719 M86.5,529.6719 L73.5,544.6719 M86.5,529.6719 L99.5,544.6719 " fill="none" style="stroke:#181818;stroke-width:0.5;"/><rect fill="#E3E3E3" height="39.1563" rx="2.5" ry="2.5" style="stroke:#181818;stroke-width:0.5;" width="86" x="688.5" y="88.6094"/><text fill="#000000" font-family="sans-serif" font-size="20" lengthAdjust="spacing" textLength="72" x="695.5" y="116.3711">:System</text><rect fill="#E3E3E3" height="39.1563" rx="2.5" ry="2.5" style="stroke:#181818;stroke-width:0.5;" width="86" x="688.5" y="461.0156"/><text fill="#000000" font-family="sans-serif" font-size="20" lengthAdjust="spacing" textLength="72" x="695.5" y="488.7773">:System</text><rect fill="#FFFFFF" height="314.25" style="stroke:#181818;stroke-width:1.0;" width="10" x="81.5" y="138.7656"/><rect fill="#FFFFFF" height="39.1563" style="stroke:#181818;stroke-width:1.0;" width="10" x="726.5" y="169.9219"/><rect fill="#FFFFFF" height="39.1563" style="stroke:#181818;stroke-width:1.0;" width="10" x="726.5" y="248.2344"/><rect fill="#FFFFFF" height="39.1563" style="stroke:#181818;stroke-width:1.0;" width="10" x="726.5" y="326.5469"/><rect fill="#FFFFFF" height="39.1563" style="stroke:#181818;stroke-width:1.0;" width="10" x="726.5" y="404.8594"/><polygon fill="#181818" points="714.5,165.9219,724.5,169.9219,714.5,173.9219,718.5,169.9219" style="stroke:#181818;stroke-width:1.0;"/><line style="stroke:#181818;stroke-width:1.0;" x1="91.5" x2="720.5" y1="169.9219" y2="169.9219"/><text fill="#000000" font-family="sans-serif" font-size="20" font-weight="bold" lengthAdjust="spacing" textLength="11" x="98.5" y="163.5273">1</text><text fill="#000000" font-family="sans-serif" font-size="20" lengthAdjust="spacing" textLength="263" x="113.5" y="163.5273">asks to see list of deals made</text><polygon fill="#181818" points="102.5,205.0781,92.5,209.0781,102.5,213.0781,98.5,209.0781" style="stroke:#181818;stroke-width:1.0;"/><line style="stroke:#181818;stroke-width:1.0;stroke-dasharray:2.0,2.0;" x1="96.5" x2="730.5" y1="209.0781" y2="209.0781"/><text fill="#000000" font-family="sans-serif" font-size="20" font-weight="bold" lengthAdjust="spacing" textLength="11" x="108.5" y="202.6836">2</text><text fill="#000000" font-family="sans-serif" font-size="20" lengthAdjust="spacing" textLength="596" x="123.5" y="202.6836">requests algorithm(bubble sort/selection sort) to use to list the deals</text><polygon fill="#181818" points="714.5,244.2344,724.5,248.2344,714.5,252.2344,718.5,248.2344" style="stroke:#181818;stroke-width:1.0;"/><line style="stroke:#181818;stroke-width:1.0;" x1="91.5" x2="720.5" y1="248.2344" y2="248.2344"/><text fill="#000000" font-family="sans-serif" font-size="20" font-weight="bold" lengthAdjust="spacing" textLength="11" x="98.5" y="241.8398">3</text><text fill="#000000" font-family="sans-serif" font-size="20" lengthAdjust="spacing" textLength="386" x="113.5" y="241.8398">chooses the algorithm to list the deals made</text><polygon fill="#181818" points="102.5,283.3906,92.5,287.3906,102.5,291.3906,98.5,287.3906" style="stroke:#181818;stroke-width:1.0;"/><line style="stroke:#181818;stroke-width:1.0;stroke-dasharray:2.0,2.0;" x1="96.5" x2="730.5" y1="287.3906" y2="287.3906"/><text fill="#000000" font-family="sans-serif" font-size="20" font-weight="bold" lengthAdjust="spacing" textLength="11" x="108.5" y="280.9961">4</text><text fill="#000000" font-family="sans-serif" font-size="20" lengthAdjust="spacing" textLength="414" x="123.5" y="280.9961">requests sorting criteria(ascending/descending)</text><polygon fill="#181818" points="714.5,322.5469,724.5,326.5469,714.5,330.5469,718.5,326.5469" style="stroke:#181818;stroke-width:1.0;"/><line style="stroke:#181818;stroke-width:1.0;" x1="91.5" x2="720.5" y1="326.5469" y2="326.5469"/><text fill="#000000" font-family="sans-serif" font-size="20" font-weight="bold" lengthAdjust="spacing" textLength="11" x="98.5" y="320.1523">5</text><text fill="#000000" font-family="sans-serif" font-size="20" lengthAdjust="spacing" textLength="376" x="113.5" y="320.1523">chooses the criteria to sort the deals made</text><polygon fill="#181818" points="102.5,361.7031,92.5,365.7031,102.5,369.7031,98.5,365.7031" style="stroke:#181818;stroke-width:1.0;"/><line style="stroke:#181818;stroke-width:1.0;stroke-dasharray:2.0,2.0;" x1="96.5" x2="730.5" y1="365.7031" y2="365.7031"/><text fill="#000000" font-family="sans-serif" font-size="20" font-weight="bold" lengthAdjust="spacing" textLength="11" x="108.5" y="359.3086">6</text><text fill="#000000" font-family="sans-serif" font-size="20" lengthAdjust="spacing" textLength="524" x="123.5" y="359.3086">shows list deals made by the selected algorithm and criteria</text><polygon fill="#181818" points="714.5,400.8594,724.5,404.8594,714.5,408.8594,718.5,404.8594" style="stroke:#181818;stroke-width:1.0;"/><line style="stroke:#181818;stroke-width:1.0;" x1="91.5" x2="720.5" y1="404.8594" y2="404.8594"/><text fill="#000000" font-family="sans-serif" font-size="20" font-weight="bold" lengthAdjust="spacing" textLength="11" x="98.5" y="398.4648">7</text><text fill="#000000" font-family="sans-serif" font-size="20" lengthAdjust="spacing" textLength="112" x="113.5" y="398.4648">submits data</text><polygon fill="#181818" points="102.5,440.0156,92.5,444.0156,102.5,448.0156,98.5,444.0156" style="stroke:#181818;stroke-width:1.0;"/><line style="stroke:#181818;stroke-width:1.0;stroke-dasharray:2.0,2.0;" x1="96.5" x2="730.5" y1="444.0156" y2="444.0156"/><text fill="#000000" font-family="sans-serif" font-size="20" font-weight="bold" lengthAdjust="spacing" textLength="11" x="108.5" y="437.6211">8</text><text fill="#000000" font-family="sans-serif" font-size="20" lengthAdjust="spacing" textLength="226" x="123.5" y="437.6211">displays operation sucess</text><!--SRC=[bLEzZjim3Dxz54IcP0Ykk353WGA7Rcq7Fm4jCRPWMN95weBSqvUMu-HwJTnMYscQ-luaS-_2Y0a77qrF5YmTCNlv6eFKxetW-LF5omWCCKJJfJWGIChqxik8fiUMQZbxWaH6CBJ-_G1tQEF9XHQEw9cgIfpeQ7rceG5g-faf688NX-qqlgthbntiuOiNIW75lHBy2BeDiyIGXuQIraPYWirtabDCFNp3e1BI1f3XqhkqAjKWphWHWy3cC9EMkRaiKEuLXJvkh43NxptOVrva7nIYPv08J0JUiK0yQeJg40QqL7PVeHSkkAmBo5xnFZ0SD48DX8K1VHkJasxODhbfD36EIPwOl6RiOYYlkqb1PfeUHOHqDAieN5hTax3YodGnCd71kGhu4_tcSTNdlncTZ4pNmoWP9OTRP4F1Qkl9qbBkhg0FJFs7iOMe79-IF_BrTt_h3hcB9vwJkw53Sovyyq7gVtUB6OEzQgiUkwtMdN9k1gUnMfI2Sa_zcchhUFHuPeWZ9PolMZR4vKhTa_CB]--></g></svg>