<?xml version="1.0" encoding="us-ascii" standalone="no"?><svg xmlns="http://www.w3.org/2000/svg" xmlns:xlink="http://www.w3.org/1999/xlink" contentStyleType="text/css" height="714px" preserveAspectRatio="none" style="width:585px;height:714px;background:#FFFFFF;" version="1.1" viewBox="0 0 585 714" width="585px" zoomAndPan="magnify"><defs/><g><text fill="#000000" font-family="sans-serif" font-size="14" font-weight="bold" lengthAdjust="spacing" textLength="351" x="118.5" y="27.6738">System Sequence Diagram (SSD) - Alternative One</text><rect fill="#FFFFFF" height="497.8984" style="stroke:#181818;stroke-width:1.0;" width="10" x="83" y="127.2813"/><rect fill="#FFFFFF" height="28.5234" style="stroke:#181818;stroke-width:1.0;" width="10" x="522" y="147.8047"/><rect fill="#FFFFFF" height="28.5234" style="stroke:#181818;stroke-width:1.0;" width="10" x="522" y="204.8516"/><rect fill="#FFFFFF" height="283.2344" style="stroke:#181818;stroke-width:1.0;" width="10" x="522" y="261.8984"/><rect fill="#FFFFFF" height="28.5234" style="stroke:#181818;stroke-width:1.0;" width="10" x="522" y="587.6563"/><rect fill="none" height="134.6172" style="stroke:#000000;stroke-width:1.5;" width="569" x="10" y="276.8984"/><rect fill="none" height="45.0469" style="stroke:#000000;stroke-width:1.5;" width="549" x="20" y="300.4219"/><rect fill="none" height="45.0469" style="stroke:#000000;stroke-width:1.5;" width="549" x="20" y="359.4688"/><rect fill="none" height="134.6172" style="stroke:#000000;stroke-width:1.5;" width="569" x="10" y="425.5156"/><rect fill="none" height="45.0469" style="stroke:#000000;stroke-width:1.5;" width="549" x="20" y="449.0391"/><rect fill="none" height="45.0469" style="stroke:#000000;stroke-width:1.5;" width="549" x="20" y="508.0859"/><line style="stroke:#181818;stroke-width:0.5;stroke-dasharray:5.0,5.0;" x1="88" x2="88" y1="117.2813" y2="634.1797"/><line style="stroke:#181818;stroke-width:0.5;stroke-dasharray:5.0,5.0;" x1="527" x2="527" y1="117.2813" y2="634.1797"/><text fill="#000000" font-family="sans-serif" font-size="14" lengthAdjust="spacing" textLength="110" x="30" y="114.3145">Network Manager</text><ellipse cx="88" cy="50.1406" fill="#E3E3E3" rx="8" ry="8" style="stroke:#181818;stroke-width:0.5;"/><path d="M88,58.1406 L88,85.1406 M75,66.1406 L101,66.1406 M88,85.1406 L75,100.1406 M88,85.1406 L101,100.1406 " fill="none" style="stroke:#181818;stroke-width:0.5;"/><text fill="#000000" font-family="sans-serif" font-size="14" lengthAdjust="spacing" textLength="110" x="30" y="645.8535">Network Manager</text><ellipse cx="88" cy="657.3203" fill="#E3E3E3" rx="8" ry="8" style="stroke:#181818;stroke-width:0.5;"/><path d="M88,665.3203 L88,692.3203 M75,673.3203 L101,673.3203 M88,692.3203 L75,707.3203 M88,692.3203 L101,707.3203 " fill="none" style="stroke:#181818;stroke-width:0.5;"/><rect fill="#E3E3E3" height="29.6406" rx="2.5" ry="2.5" style="stroke:#181818;stroke-width:0.5;" width="64" x="495" y="86.6406"/><text fill="#000000" font-family="sans-serif" font-size="14" lengthAdjust="spacing" textLength="50" x="502" y="106.3145">:System</text><rect fill="#E3E3E3" height="29.6406" rx="2.5" ry="2.5" style="stroke:#181818;stroke-width:0.5;" width="64" x="495" y="633.1797"/><text fill="#000000" font-family="sans-serif" font-size="14" lengthAdjust="spacing" textLength="50" x="502" y="652.8535">:System</text><rect fill="#FFFFFF" height="497.8984" style="stroke:#181818;stroke-width:1.0;" width="10" x="83" y="127.2813"/><rect fill="#FFFFFF" height="28.5234" style="stroke:#181818;stroke-width:1.0;" width="10" x="522" y="147.8047"/><rect fill="#FFFFFF" height="28.5234" style="stroke:#181818;stroke-width:1.0;" width="10" x="522" y="204.8516"/><rect fill="#FFFFFF" height="283.2344" style="stroke:#181818;stroke-width:1.0;" width="10" x="522" y="261.8984"/><rect fill="#FFFFFF" height="28.5234" style="stroke:#181818;stroke-width:1.0;" width="10" x="522" y="587.6563"/><polygon fill="#181818" points="510,143.8047,520,147.8047,510,151.8047,514,147.8047" style="stroke:#181818;stroke-width:1.0;"/><line style="stroke:#181818;stroke-width:1.0;" x1="93" x2="516" y1="147.8047" y2="147.8047"/><text fill="#000000" font-family="sans-serif" font-size="13" font-weight="bold" lengthAdjust="spacing" textLength="7" x="100" y="143.0498">1</text><text fill="#000000" font-family="sans-serif" font-size="13" lengthAdjust="spacing" textLength="174" x="111" y="143.0498">asks to see list of deals made</text><polygon fill="#181818" points="104,172.3281,94,176.3281,104,180.3281,100,176.3281" style="stroke:#181818;stroke-width:1.0;"/><line style="stroke:#181818;stroke-width:1.0;stroke-dasharray:2.0,2.0;" x1="98" x2="526" y1="176.3281" y2="176.3281"/><text fill="#000000" font-family="sans-serif" font-size="13" font-weight="bold" lengthAdjust="spacing" textLength="7" x="110" y="171.5732">2</text><text fill="#000000" font-family="sans-serif" font-size="13" lengthAdjust="spacing" textLength="394" x="121" y="171.5732">requests algorithm(bubble sort/selection sort) to use to list the deals</text><polygon fill="#181818" points="510,200.8516,520,204.8516,510,208.8516,514,204.8516" style="stroke:#181818;stroke-width:1.0;"/><line style="stroke:#181818;stroke-width:1.0;" x1="93" x2="516" y1="204.8516" y2="204.8516"/><text fill="#000000" font-family="sans-serif" font-size="13" font-weight="bold" lengthAdjust="spacing" textLength="7" x="100" y="200.0967">3</text><text fill="#000000" font-family="sans-serif" font-size="13" lengthAdjust="spacing" textLength="257" x="111" y="200.0967">chooses the algorithm to list the deals made</text><polygon fill="#181818" points="104,229.375,94,233.375,104,237.375,100,233.375" style="stroke:#181818;stroke-width:1.0;"/><line style="stroke:#181818;stroke-width:1.0;stroke-dasharray:2.0,2.0;" x1="98" x2="526" y1="233.375" y2="233.375"/><text fill="#000000" font-family="sans-serif" font-size="13" font-weight="bold" lengthAdjust="spacing" textLength="7" x="110" y="228.6201">4</text><text fill="#000000" font-family="sans-serif" font-size="13" lengthAdjust="spacing" textLength="273" x="121" y="228.6201">requests sorting criteria(ascending/descending)</text><polygon fill="#181818" points="510,257.8984,520,261.8984,510,265.8984,514,261.8984" style="stroke:#181818;stroke-width:1.0;"/><line style="stroke:#181818;stroke-width:1.0;" x1="93" x2="516" y1="261.8984" y2="261.8984"/><text fill="#000000" font-family="sans-serif" font-size="13" font-weight="bold" lengthAdjust="spacing" textLength="7" x="100" y="257.1436">5</text><text fill="#000000" font-family="sans-serif" font-size="13" lengthAdjust="spacing" textLength="248" x="111" y="257.1436">chooses the criteria to sort the deals made</text><path d="M10,276.8984 L71,276.8984 L71,283.4219 L61,293.4219 L10,293.4219 L10,276.8984 " fill="#EEEEEE" style="stroke:#000000;stroke-width:1.5;"/><rect fill="none" height="134.6172" style="stroke:#000000;stroke-width:1.5;" width="569" x="10" y="276.8984"/><text fill="#000000" font-family="sans-serif" font-size="13" font-weight="bold" lengthAdjust="spacing" textLength="16" x="25" y="289.667">alt</text><text fill="#000000" font-family="sans-serif" font-size="11" font-weight="bold" lengthAdjust="spacing" textLength="72" x="86" y="288.8564">[bubble sort]</text><path d="M20,300.4219 L81,300.4219 L81,306.9453 L71,316.9453 L20,316.9453 L20,300.4219 " fill="#EEEEEE" style="stroke:#000000;stroke-width:1.5;"/><rect fill="none" height="45.0469" style="stroke:#000000;stroke-width:1.5;" width="549" x="20" y="300.4219"/><text fill="#000000" font-family="sans-serif" font-size="13" font-weight="bold" lengthAdjust="spacing" textLength="16" x="35" y="313.1904">alt</text><text fill="#000000" font-family="sans-serif" font-size="11" font-weight="bold" lengthAdjust="spacing" textLength="65" x="96" y="312.3799">[ascending]</text><polygon fill="#181818" points="104,333.4688,94,337.4688,104,341.4688,100,337.4688" style="stroke:#181818;stroke-width:1.0;"/><line style="stroke:#181818;stroke-width:1.0;stroke-dasharray:2.0,2.0;" x1="98" x2="521" y1="337.4688" y2="337.4688"/><text fill="#000000" font-family="sans-serif" font-size="13" font-weight="bold" lengthAdjust="spacing" textLength="7" x="110" y="332.7139">6</text><text fill="#000000" font-family="sans-serif" font-size="13" lengthAdjust="spacing" textLength="342" x="121" y="332.7139">shows deals made list by ascending area using bubble sort</text><path d="M20,359.4688 L81,359.4688 L81,365.9922 L71,375.9922 L20,375.9922 L20,359.4688 " fill="#EEEEEE" style="stroke:#000000;stroke-width:1.5;"/><rect fill="none" height="45.0469" style="stroke:#000000;stroke-width:1.5;" width="549" x="20" y="359.4688"/><text fill="#000000" font-family="sans-serif" font-size="13" font-weight="bold" lengthAdjust="spacing" textLength="16" x="35" y="372.2373">alt</text><text fill="#000000" font-family="sans-serif" font-size="11" font-weight="bold" lengthAdjust="spacing" textLength="73" x="96" y="371.4268">[descending]</text><polygon fill="#181818" points="104,392.5156,94,396.5156,104,400.5156,100,396.5156" style="stroke:#181818;stroke-width:1.0;"/><line style="stroke:#181818;stroke-width:1.0;stroke-dasharray:2.0,2.0;" x1="98" x2="521" y1="396.5156" y2="396.5156"/><text fill="#000000" font-family="sans-serif" font-size="13" font-weight="bold" lengthAdjust="spacing" textLength="7" x="110" y="391.7607">7</text><text fill="#000000" font-family="sans-serif" font-size="13" lengthAdjust="spacing" textLength="349" x="121" y="391.7607">shows deals made list by descending area using bubble sort</text><path d="M10,425.5156 L71,425.5156 L71,432.0391 L61,442.0391 L10,442.0391 L10,425.5156 " fill="#EEEEEE" style="stroke:#000000;stroke-width:1.5;"/><rect fill="none" height="134.6172" style="stroke:#000000;stroke-width:1.5;" width="569" x="10" y="425.5156"/><text fill="#000000" font-family="sans-serif" font-size="13" font-weight="bold" lengthAdjust="spacing" textLength="16" x="25" y="438.2842">alt</text><text fill="#000000" font-family="sans-serif" font-size="11" font-weight="bold" lengthAdjust="spacing" textLength="85" x="86" y="437.4736">[selection sort]</text><path d="M20,449.0391 L81,449.0391 L81,455.5625 L71,465.5625 L20,465.5625 L20,449.0391 " fill="#EEEEEE" style="stroke:#000000;stroke-width:1.5;"/><rect fill="none" height="45.0469" style="stroke:#000000;stroke-width:1.5;" width="549" x="20" y="449.0391"/><text fill="#000000" font-family="sans-serif" font-size="13" font-weight="bold" lengthAdjust="spacing" textLength="16" x="35" y="461.8076">alt</text><text fill="#000000" font-family="sans-serif" font-size="11" font-weight="bold" lengthAdjust="spacing" textLength="65" x="96" y="460.9971">[ascending]</text><polygon fill="#181818" points="104,482.0859,94,486.0859,104,490.0859,100,486.0859" style="stroke:#181818;stroke-width:1.0;"/><line style="stroke:#181818;stroke-width:1.0;stroke-dasharray:2.0,2.0;" x1="98" x2="521" y1="486.0859" y2="486.0859"/><text fill="#000000" font-family="sans-serif" font-size="13" font-weight="bold" lengthAdjust="spacing" textLength="7" x="110" y="481.3311">8</text><text fill="#000000" font-family="sans-serif" font-size="13" lengthAdjust="spacing" textLength="356" x="121" y="481.3311">shows deals made list by ascending area using selection sort</text><path d="M20,508.0859 L81,508.0859 L81,514.6094 L71,524.6094 L20,524.6094 L20,508.0859 " fill="#EEEEEE" style="stroke:#000000;stroke-width:1.5;"/><rect fill="none" height="45.0469" style="stroke:#000000;stroke-width:1.5;" width="549" x="20" y="508.0859"/><text fill="#000000" font-family="sans-serif" font-size="13" font-weight="bold" lengthAdjust="spacing" textLength="16" x="35" y="520.8545">alt</text><text fill="#000000" font-family="sans-serif" font-size="11" font-weight="bold" lengthAdjust="spacing" textLength="73" x="96" y="520.0439">[descending]</text><polygon fill="#181818" points="104,541.1328,94,545.1328,104,549.1328,100,545.1328" style="stroke:#181818;stroke-width:1.0;"/><line style="stroke:#181818;stroke-width:1.0;stroke-dasharray:2.0,2.0;" x1="98" x2="526" y1="545.1328" y2="545.1328"/><text fill="#000000" font-family="sans-serif" font-size="13" font-weight="bold" lengthAdjust="spacing" textLength="7" x="110" y="540.3779">9</text><text fill="#000000" font-family="sans-serif" font-size="13" lengthAdjust="spacing" textLength="363" x="121" y="540.3779">shows deals made list by descending area using selection sort</text><polygon fill="#181818" points="510,583.6563,520,587.6563,510,591.6563,514,587.6563" style="stroke:#181818;stroke-width:1.0;"/><line style="stroke:#181818;stroke-width:1.0;" x1="93" x2="516" y1="587.6563" y2="587.6563"/><text fill="#000000" font-family="sans-serif" font-size="13" font-weight="bold" lengthAdjust="spacing" textLength="14" x="100" y="582.9014">10</text><text fill="#000000" font-family="sans-serif" font-size="13" lengthAdjust="spacing" textLength="75" x="118" y="582.9014">submits data</text><polygon fill="#181818" points="104,612.1797,94,616.1797,104,620.1797,100,616.1797" style="stroke:#181818;stroke-width:1.0;"/><line style="stroke:#181818;stroke-width:1.0;stroke-dasharray:2.0,2.0;" x1="98" x2="526" y1="616.1797" y2="616.1797"/><text fill="#000000" font-family="sans-serif" font-size="13" font-weight="bold" lengthAdjust="spacing" textLength="14" x="110" y="611.4248">11</text><text fill="#000000" font-family="sans-serif" font-size="13" lengthAdjust="spacing" textLength="151" x="128" y="611.4248">displays operation sucess</text><!--SRC=[lLJDZfim4BxxAKOv9OTexpbKghJNjWUUO32pOCNOr3DibBVlO08awOAsFIm760Rx-xCDdrteC64BRGpHDYcs199wCZn_wT2UiQP2hfuWaHKCjRyVm0rMyU923M_ecOmH9pgqkB9G2mNzxYbOWbU7zJ1yNnIl1pZ2To-K0efx9_WLT1hs4aFVbfIqjX8Jx7wIN68wmmyCAY7j01bklLlBg0PnrdKO17QdaJIF6yiCvTvHw7cY0RqUUt3yDia-ASIPGI8m4NZ70l4DAbA7q695UVOCFN71xRg171NlYU6a4MeWB0pewvYSDEs-xCjI4-EOv8N9QyOkXlnw61JqJCCZYv26HXMPIwkF96ouiasCJ9nnPW5_eoyUDtr-pkXWPDWULiaeETmZMmgLjbugcih33BfYwX-CJKHv-PHypTUgF_G2TuioDcRLdrjdRkA5xrZ7XClhWWEO27LrX_A1pUZtJ3BGBX6PU-7_HRrWhN5Fy9ahoyYtGSZZplo2J9u9lpYM9_hDtRaabLytzYdtPUlqK5GeQ5RErfQ9od7dySeGEqeuokijSVuXV23E_040]--></g></svg>