<?xml version="1.0" encoding="us-ascii" standalone="no"?><svg xmlns="http://www.w3.org/2000/svg" xmlns:xlink="http://www.w3.org/1999/xlink" contentStyleType="text/css" height="506px" preserveAspectRatio="none" style="width:476px;height:506px;background:#FFFFFF;" version="1.1" viewBox="0 0 476 506" width="476px" zoomAndPan="magnify"><defs/><g><text fill="#000000" font-family="sans-serif" font-size="14" font-weight="bold" lengthAdjust="spacing" textLength="351" x="64" y="27.6738">System Sequence Diagram (SSD) - Alternative One</text><rect fill="#FFFFFF" height="290.2344" style="stroke:#181818;stroke-width:1.0;" width="10" x="73" y="127.2813"/><rect fill="#FFFFFF" height="28.5234" style="stroke:#181818;stroke-width:1.0;" width="10" x="423" y="147.8047"/><rect fill="#FFFFFF" height="28.5234" style="stroke:#181818;stroke-width:1.0;" width="10" x="423" y="228.375"/><rect fill="#FFFFFF" height="28.5234" style="stroke:#181818;stroke-width:1.0;" width="10" x="423" y="315.9453"/><rect fill="#FFFFFF" height="28.5234" style="stroke:#181818;stroke-width:1.0;" width="10" x="423" y="379.9922"/><rect fill="none" height="73.5703" style="stroke:#000000;stroke-width:1.5;" width="460" x="10" y="191.3281"/><rect fill="none" height="73.5703" style="stroke:#000000;stroke-width:1.5;" width="460" x="10" y="278.8984"/><line style="stroke:#181818;stroke-width:0.5;stroke-dasharray:5.0,5.0;" x1="78" x2="78" y1="117.2813" y2="426.5156"/><line style="stroke:#181818;stroke-width:0.5;stroke-dasharray:5.0,5.0;" x1="428" x2="428" y1="117.2813" y2="426.5156"/><text fill="#000000" font-family="sans-serif" font-size="14" lengthAdjust="spacing" textLength="110" x="20" y="114.3145">Network Manager</text><ellipse cx="78" cy="50.1406" fill="#E3E3E3" rx="8" ry="8" style="stroke:#181818;stroke-width:0.5;"/><path d="M78,58.1406 L78,85.1406 M65,66.1406 L91,66.1406 M78,85.1406 L65,100.1406 M78,85.1406 L91,100.1406 " fill="none" style="stroke:#181818;stroke-width:0.5;"/><text fill="#000000" font-family="sans-serif" font-size="14" lengthAdjust="spacing" textLength="110" x="20" y="438.1895">Network Manager</text><ellipse cx="78" cy="449.6563" fill="#E3E3E3" rx="8" ry="8" style="stroke:#181818;stroke-width:0.5;"/><path d="M78,457.6563 L78,484.6563 M65,465.6563 L91,465.6563 M78,484.6563 L65,499.6563 M78,484.6563 L91,499.6563 " fill="none" style="stroke:#181818;stroke-width:0.5;"/><rect fill="#E3E3E3" height="29.6406" rx="2.5" ry="2.5" style="stroke:#181818;stroke-width:0.5;" width="64" x="396" y="86.6406"/><text fill="#000000" font-family="sans-serif" font-size="14" lengthAdjust="spacing" textLength="50" x="403" y="106.3145">:System</text><rect fill="#E3E3E3" height="29.6406" rx="2.5" ry="2.5" style="stroke:#181818;stroke-width:0.5;" width="64" x="396" y="425.5156"/><text fill="#000000" font-family="sans-serif" font-size="14" lengthAdjust="spacing" textLength="50" x="403" y="445.1895">:System</text><rect fill="#FFFFFF" height="290.2344" style="stroke:#181818;stroke-width:1.0;" width="10" x="73" y="127.2813"/><rect fill="#FFFFFF" height="28.5234" style="stroke:#181818;stroke-width:1.0;" width="10" x="423" y="147.8047"/><rect fill="#FFFFFF" height="28.5234" style="stroke:#181818;stroke-width:1.0;" width="10" x="423" y="228.375"/><rect fill="#FFFFFF" height="28.5234" style="stroke:#181818;stroke-width:1.0;" width="10" x="423" y="315.9453"/><rect fill="#FFFFFF" height="28.5234" style="stroke:#181818;stroke-width:1.0;" width="10" x="423" y="379.9922"/><polygon fill="#181818" points="411,143.8047,421,147.8047,411,151.8047,415,147.8047" style="stroke:#181818;stroke-width:1.0;"/><line style="stroke:#181818;stroke-width:1.0;" x1="83" x2="417" y1="147.8047" y2="147.8047"/><text fill="#000000" font-family="sans-serif" font-size="13" font-weight="bold" lengthAdjust="spacing" textLength="7" x="90" y="143.0498">1</text><text fill="#000000" font-family="sans-serif" font-size="13" lengthAdjust="spacing" textLength="174" x="101" y="143.0498">asks to see list of deals made</text><polygon fill="#181818" points="94,172.3281,84,176.3281,94,180.3281,90,176.3281" style="stroke:#181818;stroke-width:1.0;"/><line style="stroke:#181818;stroke-width:1.0;stroke-dasharray:2.0,2.0;" x1="88" x2="427" y1="176.3281" y2="176.3281"/><text fill="#000000" font-family="sans-serif" font-size="13" font-weight="bold" lengthAdjust="spacing" textLength="7" x="100" y="171.5732">2</text><text fill="#000000" font-family="sans-serif" font-size="13" lengthAdjust="spacing" textLength="305" x="111" y="171.5732">requests filter criteria(ascending/descending by area)</text><path d="M10,191.3281 L71,191.3281 L71,197.8516 L61,207.8516 L10,207.8516 L10,191.3281 " fill="#EEEEEE" style="stroke:#000000;stroke-width:1.5;"/><rect fill="none" height="73.5703" style="stroke:#000000;stroke-width:1.5;" width="460" x="10" y="191.3281"/><text fill="#000000" font-family="sans-serif" font-size="13" font-weight="bold" lengthAdjust="spacing" textLength="16" x="25" y="204.0967">alt</text><text fill="#000000" font-family="sans-serif" font-size="11" font-weight="bold" lengthAdjust="spacing" textLength="65" x="86" y="203.2861">[ascending]</text><polygon fill="#181818" points="411,224.375,421,228.375,411,232.375,415,228.375" style="stroke:#181818;stroke-width:1.0;"/><line style="stroke:#181818;stroke-width:1.0;" x1="83" x2="417" y1="228.375" y2="228.375"/><text fill="#000000" font-family="sans-serif" font-size="13" font-weight="bold" lengthAdjust="spacing" textLength="7" x="90" y="223.6201">3</text><text fill="#000000" font-family="sans-serif" font-size="13" lengthAdjust="spacing" textLength="202" x="101" y="223.6201">chooses ascending criteria by area</text><polygon fill="#181818" points="94,252.8984,84,256.8984,94,260.8984,90,256.8984" style="stroke:#181818;stroke-width:1.0;"/><line style="stroke:#181818;stroke-width:1.0;stroke-dasharray:2.0,2.0;" x1="88" x2="427" y1="256.8984" y2="256.8984"/><text fill="#000000" font-family="sans-serif" font-size="13" font-weight="bold" lengthAdjust="spacing" textLength="7" x="100" y="252.1436">4</text><text fill="#000000" font-family="sans-serif" font-size="13" lengthAdjust="spacing" textLength="239" x="111" y="252.1436">shows deals made list by ascending area</text><path d="M10,278.8984 L71,278.8984 L71,285.4219 L61,295.4219 L10,295.4219 L10,278.8984 " fill="#EEEEEE" style="stroke:#000000;stroke-width:1.5;"/><rect fill="none" height="73.5703" style="stroke:#000000;stroke-width:1.5;" width="460" x="10" y="278.8984"/><text fill="#000000" font-family="sans-serif" font-size="13" font-weight="bold" lengthAdjust="spacing" textLength="16" x="25" y="291.667">alt</text><text fill="#000000" font-family="sans-serif" font-size="11" font-weight="bold" lengthAdjust="spacing" textLength="73" x="86" y="290.8564">[descending]</text><polygon fill="#181818" points="411,311.9453,421,315.9453,411,319.9453,415,315.9453" style="stroke:#181818;stroke-width:1.0;"/><line style="stroke:#181818;stroke-width:1.0;" x1="83" x2="417" y1="315.9453" y2="315.9453"/><text fill="#000000" font-family="sans-serif" font-size="13" font-weight="bold" lengthAdjust="spacing" textLength="7" x="90" y="311.1904">5</text><text fill="#000000" font-family="sans-serif" font-size="13" lengthAdjust="spacing" textLength="209" x="101" y="311.1904">chooses descending criteria by area</text><polygon fill="#181818" points="94,340.4688,84,344.4688,94,348.4688,90,344.4688" style="stroke:#181818;stroke-width:1.0;"/><line style="stroke:#181818;stroke-width:1.0;stroke-dasharray:2.0,2.0;" x1="88" x2="427" y1="344.4688" y2="344.4688"/><text fill="#000000" font-family="sans-serif" font-size="13" font-weight="bold" lengthAdjust="spacing" textLength="7" x="100" y="339.7139">6</text><text fill="#000000" font-family="sans-serif" font-size="13" lengthAdjust="spacing" textLength="246" x="111" y="339.7139">shows deals made list by descending area</text><polygon fill="#181818" points="411,375.9922,421,379.9922,411,383.9922,415,379.9922" style="stroke:#181818;stroke-width:1.0;"/><line style="stroke:#181818;stroke-width:1.0;" x1="83" x2="417" y1="379.9922" y2="379.9922"/><text fill="#000000" font-family="sans-serif" font-size="13" font-weight="bold" lengthAdjust="spacing" textLength="7" x="90" y="375.2373">7</text><text fill="#000000" font-family="sans-serif" font-size="13" lengthAdjust="spacing" textLength="75" x="101" y="375.2373">submits data</text><polygon fill="#181818" points="94,404.5156,84,408.5156,94,412.5156,90,408.5156" style="stroke:#181818;stroke-width:1.0;"/><line style="stroke:#181818;stroke-width:1.0;stroke-dasharray:2.0,2.0;" x1="88" x2="427" y1="408.5156" y2="408.5156"/><text fill="#000000" font-family="sans-serif" font-size="13" font-weight="bold" lengthAdjust="spacing" textLength="7" x="100" y="403.7607">8</text><text fill="#000000" font-family="sans-serif" font-size="13" lengthAdjust="spacing" textLength="151" x="111" y="403.7607">displays operation sucess</text><!--SRC=[fPF1ReCm38RlUGghf_PGxTx3f4czRZlm16vm8G8I5fjMl7qD1PHr7OSjKeILsF_lpm1NphSOiO4c-63B61e2YHqPNcvQj1KMb4bV4qIoWhweqmGkCGzNvmiuOyraZ3ZHrAndeGOo-kh8MuAZms98tsRPSGTxUAk5eaTn5u9FhsNOIV1TSwAeiPKGOVD1SWsnWdVqsaBS039CPzEHqHx4MTUY5zWSxgPZtZqSfTm5XHuB3UZwVWRxrxdjWqfK31A0YQ1sB13Ea9CIGeCvZTMBzEm5qvf4zghtu73G4Uf0M1ZERfW0sEZquN2BRCddEiUNdEOGJZrW9DoDqch_w8Yrm588PeN7bY4mSP8zEyycVsVYCbmvcSvzO8FiOhOOF87GbE5gs0DFWc_Mtz7Cb5GyXNh2DVdzYownJQr-4avc2USA57UdnkdtaQECah-8hNMSEsvhx1b2Ir5_iU1LrHApMMjFzmq0]--></g></svg>