<?xml version="1.0" encoding="us-ascii" standalone="no"?><svg xmlns="http://www.w3.org/2000/svg" xmlns:xlink="http://www.w3.org/1999/xlink" contentStyleType="text/css" height="530px" preserveAspectRatio="none" style="width:1051px;height:530px;background:#FFFFFF;" version="1.1" viewBox="0 0 1051 530" width="1051px" zoomAndPan="magnify"><defs/><g><text fill="#000000" font-family="sans-serif" font-size="14" font-weight="bold" lengthAdjust="spacing" textLength="169" x="434.25" y="23.5352">US010 - Class Diagram</text><!--class PlaceOrderUI--><g id="elem_PlaceOrderUI"><rect codeLine="9" fill="#F1F1F1" height="48" id="PlaceOrderUI" rx="2.5" ry="2.5" style="stroke:#181818;stroke-width:0.5;" width="121" x="143.5" y="85.4883"/><ellipse cx="158.5" cy="101.4883" fill="#ADD1B2" rx="11" ry="11" style="stroke:#181818;stroke-width:1.0;"/><path d="M161.4731,107.1313 Q160.8921,107.4302 160.2529,107.5796 Q159.6138,107.729 158.9082,107.729 Q156.4014,107.729 155.0815,106.0771 Q153.7617,104.4253 153.7617,101.3042 Q153.7617,98.1748 155.0815,96.5229 Q156.4014,94.8711 158.9082,94.8711 Q159.6138,94.8711 160.2612,95.0205 Q160.9087,95.1699 161.4731,95.4688 L161.4731,98.1914 Q160.8423,97.6104 160.2488,97.3406 Q159.6553,97.0708 159.0244,97.0708 Q157.6797,97.0708 156.9949,98.1375 Q156.3101,99.2041 156.3101,101.3042 Q156.3101,103.396 156.9949,104.4626 Q157.6797,105.5293 159.0244,105.5293 Q159.6553,105.5293 160.2488,105.2595 Q160.8423,104.9897 161.4731,104.4087 Z " fill="#000000"/><text fill="#000000" font-family="sans-serif" font-size="14" lengthAdjust="spacing" textLength="89" x="172.5" y="106.7793">PlaceOrderUI</text><line style="stroke:#181818;stroke-width:0.5;" x1="144.5" x2="263.5" y1="117.4883" y2="117.4883"/><line style="stroke:#181818;stroke-width:0.5;" x1="144.5" x2="263.5" y1="125.4883" y2="125.4883"/></g><!--class PlaceOrderController--><g id="elem_PlaceOrderController"><rect codeLine="13" fill="#F1F1F1" height="80.9766" id="PlaceOrderController" rx="2.5" ry="2.5" style="stroke:#181818;stroke-width:0.5;" width="230" x="300" y="68.9883"/><ellipse cx="338.85" cy="84.9883" fill="#ADD1B2" rx="11" ry="11" style="stroke:#181818;stroke-width:1.0;"/><path d="M341.8231,90.6313 Q341.2421,90.9302 340.6029,91.0796 Q339.9638,91.229 339.2582,91.229 Q336.7514,91.229 335.4315,89.5771 Q334.1117,87.9253 334.1117,84.8042 Q334.1117,81.6748 335.4315,80.0229 Q336.7514,78.3711 339.2582,78.3711 Q339.9638,78.3711 340.6112,78.5205 Q341.2587,78.6699 341.8231,78.9688 L341.8231,81.6914 Q341.1923,81.1104 340.5988,80.8406 Q340.0053,80.5708 339.3744,80.5708 Q338.0297,80.5708 337.3449,81.6375 Q336.6601,82.7041 336.6601,84.8042 Q336.6601,86.896 337.3449,87.9626 Q338.0297,89.0293 339.3744,89.0293 Q340.0053,89.0293 340.5988,88.7595 Q341.1923,88.4897 341.8231,87.9087 Z " fill="#000000"/><text fill="#000000" font-family="sans-serif" font-size="14" lengthAdjust="spacing" textLength="145" x="358.15" y="90.2793">PlaceOrderController</text><line style="stroke:#181818;stroke-width:0.5;" x1="301" x2="529" y1="100.9883" y2="100.9883"/><line style="stroke:#181818;stroke-width:0.5;" x1="301" x2="529" y1="108.9883" y2="108.9883"/><ellipse cx="311" cy="122.7324" fill="#84BE84" rx="3" ry="3" style="stroke:#038048;stroke-width:1.0;"/><text fill="#000000" font-family="sans-serif" font-size="14" lengthAdjust="spacing" textLength="204" x="320" y="126.5234">getPublishedAnnouncement()</text><ellipse cx="311" cy="139.2207" fill="#84BE84" rx="3" ry="3" style="stroke:#038048;stroke-width:1.0;"/><text fill="#000000" font-family="sans-serif" font-size="14" lengthAdjust="spacing" textLength="180" x="320" y="143.0117">createOffer(orderAmount)</text></g><!--class PublishedAnnouncemtRepository--><g id="elem_PublishedAnnouncemtRepository"><rect codeLine="18" fill="#F1F1F1" height="80.9766" id="PublishedAnnouncemtRepository" rx="2.5" ry="2.5" style="stroke:#181818;stroke-width:0.5;" width="424" x="7" y="259.4883"/><ellipse cx="100.75" cy="275.4883" fill="#ADD1B2" rx="11" ry="11" style="stroke:#181818;stroke-width:1.0;"/><path d="M103.7231,281.1313 Q103.1421,281.4302 102.5029,281.5796 Q101.8638,281.729 101.1582,281.729 Q98.6514,281.729 97.3315,280.0771 Q96.0117,278.4253 96.0117,275.3042 Q96.0117,272.1748 97.3315,270.5229 Q98.6514,268.8711 101.1582,268.8711 Q101.8638,268.8711 102.5112,269.0205 Q103.1587,269.1699 103.7231,269.4688 L103.7231,272.1914 Q103.0923,271.6104 102.4988,271.3406 Q101.9053,271.0708 101.2744,271.0708 Q99.9297,271.0708 99.2449,272.1375 Q98.5601,273.2041 98.5601,275.3042 Q98.5601,277.396 99.2449,278.4626 Q99.9297,279.5293 101.2744,279.5293 Q101.9053,279.5293 102.4988,279.2595 Q103.0923,278.9897 103.7231,278.4087 Z " fill="#000000"/><text fill="#000000" font-family="sans-serif" font-size="14" lengthAdjust="spacing" textLength="228" x="121.25" y="280.7793">PublishedAnnouncemtRepository</text><line style="stroke:#181818;stroke-width:0.5;" x1="8" x2="430" y1="291.4883" y2="291.4883"/><rect fill="none" height="6" style="stroke:#C82930;stroke-width:1.0;" width="6" x="15" y="302.2324"/><text fill="#000000" font-family="sans-serif" font-size="14" lengthAdjust="spacing" textLength="398" x="27" y="309.0234">List &lt;PublishedAnnouncement&gt; publishedAnnouncement</text><line style="stroke:#181818;stroke-width:0.5;" x1="8" x2="430" y1="315.9766" y2="315.9766"/><ellipse cx="18" cy="329.7207" fill="#84BE84" rx="3" ry="3" style="stroke:#038048;stroke-width:1.0;"/><text fill="#000000" font-family="sans-serif" font-size="14" lengthAdjust="spacing" textLength="204" x="27" y="333.5117">getPublishedAnnouncement()</text></g><!--class AuthenticationRepository--><g id="elem_AuthenticationRepository"><rect codeLine="23" fill="#F1F1F1" height="64.4883" id="AuthenticationRepository" rx="2.5" ry="2.5" style="stroke:#181818;stroke-width:0.5;" width="206" x="707" y="267.9883"/><ellipse cx="722" cy="283.9883" fill="#ADD1B2" rx="11" ry="11" style="stroke:#181818;stroke-width:1.0;"/><path d="M724.9731,289.6313 Q724.3921,289.9302 723.7529,290.0796 Q723.1138,290.229 722.4082,290.229 Q719.9014,290.229 718.5815,288.5771 Q717.2617,286.9253 717.2617,283.8042 Q717.2617,280.6748 718.5815,279.0229 Q719.9014,277.3711 722.4082,277.3711 Q723.1138,277.3711 723.7612,277.5205 Q724.4087,277.6699 724.9731,277.9688 L724.9731,280.6914 Q724.3423,280.1104 723.7488,279.8406 Q723.1553,279.5708 722.5244,279.5708 Q721.1797,279.5708 720.4949,280.6375 Q719.8101,281.7041 719.8101,283.8042 Q719.8101,285.896 720.4949,286.9626 Q721.1797,288.0293 722.5244,288.0293 Q723.1553,288.0293 723.7488,287.7595 Q724.3423,287.4897 724.9731,286.9087 Z " fill="#000000"/><text fill="#000000" font-family="sans-serif" font-size="14" lengthAdjust="spacing" textLength="174" x="736" y="289.2793">AuthenticationRepository</text><line style="stroke:#181818;stroke-width:0.5;" x1="708" x2="912" y1="299.9883" y2="299.9883"/><line style="stroke:#181818;stroke-width:0.5;" x1="708" x2="912" y1="307.9883" y2="307.9883"/><ellipse cx="718" cy="321.7324" fill="#84BE84" rx="3" ry="3" style="stroke:#038048;stroke-width:1.0;"/><text fill="#000000" font-family="sans-serif" font-size="14" lengthAdjust="spacing" textLength="168" x="727" y="325.5234">getCurrentUserSession()</text></g><!--class OfferRepository--><g id="elem_OfferRepository"><rect codeLine="27" fill="#F1F1F1" height="97.4648" id="OfferRepository" rx="2.5" ry="2.5" style="stroke:#181818;stroke-width:0.5;" width="157" x="498.5" y="251.4883"/><ellipse cx="521.15" cy="267.4883" fill="#ADD1B2" rx="11" ry="11" style="stroke:#181818;stroke-width:1.0;"/><path d="M524.1231,273.1313 Q523.5421,273.4302 522.9029,273.5796 Q522.2638,273.729 521.5582,273.729 Q519.0514,273.729 517.7315,272.0771 Q516.4117,270.4253 516.4117,267.3042 Q516.4117,264.1748 517.7315,262.5229 Q519.0514,260.8711 521.5582,260.8711 Q522.2638,260.8711 522.9112,261.0205 Q523.5587,261.1699 524.1231,261.4688 L524.1231,264.1914 Q523.4923,263.6104 522.8988,263.3406 Q522.3053,263.0708 521.6744,263.0708 Q520.3297,263.0708 519.6449,264.1375 Q518.9601,265.2041 518.9601,267.3042 Q518.9601,269.396 519.6449,270.4626 Q520.3297,271.5293 521.6744,271.5293 Q522.3053,271.5293 522.8988,271.2595 Q523.4923,270.9897 524.1231,270.4087 Z " fill="#000000"/><text fill="#000000" font-family="sans-serif" font-size="14" lengthAdjust="spacing" textLength="108" x="536.85" y="272.7793">OfferRepository</text><line style="stroke:#181818;stroke-width:0.5;" x1="499.5" x2="654.5" y1="283.4883" y2="283.4883"/><rect fill="none" height="6" style="stroke:#C82930;stroke-width:1.0;" width="6" x="506.5" y="294.2324"/><text fill="#000000" font-family="sans-serif" font-size="14" lengthAdjust="spacing" textLength="121" x="518.5" y="301.0234">List &lt;Offer&gt; offer</text><line style="stroke:#181818;stroke-width:0.5;" x1="499.5" x2="654.5" y1="307.9766" y2="307.9766"/><ellipse cx="509.5" cy="321.7207" fill="#84BE84" rx="3" ry="3" style="stroke:#038048;stroke-width:1.0;"/><text fill="#000000" font-family="sans-serif" font-size="14" lengthAdjust="spacing" textLength="104" x="518.5" y="325.5117">addOffer(offer)</text><ellipse cx="509.5" cy="338.209" fill="#84BE84" rx="3" ry="3" style="stroke:#038048;stroke-width:1.0;"/><text fill="#000000" font-family="sans-serif" font-size="14" lengthAdjust="spacing" textLength="131" x="518.5" y="342">validateOffer(offer)</text></g><!--class Repositories--><g id="elem_Repositories"><rect codeLine="33" fill="#F1F1F1" height="130.4414" id="Repositories" rx="2.5" ry="2.5" style="stroke:#181818;stroke-width:0.5;" width="303" x="641.5" y="44.4883"/><ellipse cx="746.25" cy="60.4883" fill="#ADD1B2" rx="11" ry="11" style="stroke:#181818;stroke-width:1.0;"/><path d="M749.2231,66.1313 Q748.6421,66.4302 748.0029,66.5796 Q747.3638,66.729 746.6582,66.729 Q744.1514,66.729 742.8315,65.0771 Q741.5117,63.4253 741.5117,60.3042 Q741.5117,57.1748 742.8315,55.5229 Q744.1514,53.8711 746.6582,53.8711 Q747.3638,53.8711 748.0112,54.0205 Q748.6587,54.1699 749.2231,54.4688 L749.2231,57.1914 Q748.5923,56.6104 747.9988,56.3406 Q747.4053,56.0708 746.7744,56.0708 Q745.4297,56.0708 744.7449,57.1375 Q744.0601,58.2041 744.0601,60.3042 Q744.0601,62.396 744.7449,63.4626 Q745.4297,64.5293 746.7744,64.5293 Q747.4053,64.5293 747.9988,64.2595 Q748.5923,63.9897 749.2231,63.4087 Z " fill="#000000"/><text fill="#000000" font-family="sans-serif" font-size="14" lengthAdjust="spacing" textLength="85" x="766.75" y="65.7793">Repositories</text><line style="stroke:#181818;stroke-width:0.5;" x1="642.5" x2="943.5" y1="76.4883" y2="76.4883"/><line style="stroke:#181818;stroke-width:0.5;" x1="642.5" x2="943.5" y1="84.4883" y2="84.4883"/><rect fill="#F24D5C" height="6" style="stroke:#C82930;stroke-width:1.0;" width="6" x="649.5" y="95.2324"/><text fill="#000000" font-family="sans-serif" font-size="14" lengthAdjust="spacing" textLength="95" x="661.5" y="102.0234">Repositories()</text><ellipse cx="652.5" cy="114.7207" fill="#84BE84" rx="3" ry="3" style="stroke:#038048;stroke-width:1.0;"/><text fill="#000000" font-family="sans-serif" font-size="14" lengthAdjust="spacing" textLength="178" x="661.5" y="118.5117">getInstance():Repositories</text><ellipse cx="652.5" cy="131.209" fill="#84BE84" rx="3" ry="3" style="stroke:#038048;stroke-width:1.0;"/><text fill="#000000" font-family="sans-serif" font-size="14" lengthAdjust="spacing" textLength="277" x="661.5" y="135">getPublishedAnnouncementRepository()</text><ellipse cx="652.5" cy="147.6973" fill="#84BE84" rx="3" ry="3" style="stroke:#038048;stroke-width:1.0;"/><text fill="#000000" font-family="sans-serif" font-size="14" lengthAdjust="spacing" textLength="206" x="661.5" y="151.4883">getAuthenticationRepository()</text><ellipse cx="652.5" cy="164.1855" fill="#84BE84" rx="3" ry="3" style="stroke:#038048;stroke-width:1.0;"/><text fill="#000000" font-family="sans-serif" font-size="14" lengthAdjust="spacing" textLength="140" x="661.5" y="167.9766">getOfferRepository()</text></g><!--class Offer--><g id="elem_Offer"><rect codeLine="41" fill="#F1F1F1" height="113.9531" id="Offer" rx="2.5" ry="2.5" style="stroke:#181818;stroke-width:0.5;" width="375" x="389.5" y="409.4883"/><ellipse cx="555.25" cy="425.4883" fill="#ADD1B2" rx="11" ry="11" style="stroke:#181818;stroke-width:1.0;"/><path d="M558.2231,431.1313 Q557.6421,431.4302 557.0029,431.5796 Q556.3638,431.729 555.6582,431.729 Q553.1514,431.729 551.8315,430.0771 Q550.5117,428.4253 550.5117,425.3042 Q550.5117,422.1748 551.8315,420.5229 Q553.1514,418.8711 555.6582,418.8711 Q556.3638,418.8711 557.0112,419.0205 Q557.6587,419.1699 558.2231,419.4688 L558.2231,422.1914 Q557.5923,421.6104 556.9988,421.3406 Q556.4053,421.0708 555.7744,421.0708 Q554.4297,421.0708 553.7449,422.1375 Q553.0601,423.2041 553.0601,425.3042 Q553.0601,427.396 553.7449,428.4626 Q554.4297,429.5293 555.7744,429.5293 Q556.4053,429.5293 556.9988,429.2595 Q557.5923,428.9897 558.2231,428.4087 Z " fill="#000000"/><text fill="#000000" font-family="sans-serif" font-size="14" lengthAdjust="spacing" textLength="35" x="575.75" y="430.7793">Offer</text><line style="stroke:#181818;stroke-width:0.5;" x1="390.5" x2="763.5" y1="441.4883" y2="441.4883"/><ellipse cx="400.5" cy="455.2324" fill="none" rx="3" ry="3" style="stroke:#038048;stroke-width:1.0;"/><text fill="#000000" font-family="sans-serif" font-size="14" lengthAdjust="spacing" textLength="65" x="409.5" y="459.0234">User user</text><ellipse cx="400.5" cy="471.7207" fill="none" rx="3" ry="3" style="stroke:#038048;stroke-width:1.0;"/><text fill="#000000" font-family="sans-serif" font-size="14" lengthAdjust="spacing" textLength="349" x="409.5" y="475.5117">PublishedAnnouncement publishedAnnouncement</text><ellipse cx="400.5" cy="488.209" fill="none" rx="3" ry="3" style="stroke:#038048;stroke-width:1.0;"/><text fill="#000000" font-family="sans-serif" font-size="14" lengthAdjust="spacing" textLength="145" x="409.5" y="492">double orderAmount</text><line style="stroke:#181818;stroke-width:0.5;" x1="390.5" x2="763.5" y1="498.9531" y2="498.9531"/><ellipse cx="400.5" cy="512.6973" fill="#84BE84" rx="3" ry="3" style="stroke:#038048;stroke-width:1.0;"/><text fill="#000000" font-family="sans-serif" font-size="14" lengthAdjust="spacing" textLength="120" x="409.5" y="516.4883">createOffer(offer)</text></g><!--link PlaceOrderUI to PlaceOrderController--><g id="link_PlaceOrderUI_PlaceOrderController"><path codeLine="48" d="M264.85,109.4883 C270.6,109.4883 274.33,109.4883 274.33,109.4883 C274.33,109.4883 282.6,109.4883 293.46,109.4883 " fill="none" id="PlaceOrderUI-to-PlaceOrderController" style="stroke:#181818;stroke-width:1.0;stroke-dasharray:7.0,7.0;"/><polygon fill="#181818" points="298.21,109.4883,289.21,105.4883,293.21,109.4883,289.21,113.4883,298.21,109.4883" style="stroke:#181818;stroke-width:1.0;"/></g><!--link PlaceOrderController to Repositories--><g id="link_PlaceOrderController_Repositories"><path codeLine="49" d="M530.47,109.4883 C563.51,109.4883 600.11,109.4883 635.22,109.4883 " fill="none" id="PlaceOrderController-to-Repositories" style="stroke:#181818;stroke-width:1.0;stroke-dasharray:7.0,7.0;"/><polygon fill="#181818" points="639.79,109.4883,630.79,105.4883,634.79,109.4883,630.79,113.4883,639.79,109.4883" style="stroke:#181818;stroke-width:1.0;"/><text fill="#000000" font-family="sans-serif" font-size="13" lengthAdjust="spacing" textLength="75" x="548.25" y="103.0566">repositories</text></g><!--link PlaceOrderController to PublishedAnnouncemtRepository--><g id="link_PlaceOrderController_PublishedAnnouncemtRepository"><path codeLine="50" d="M332.3,150.3483 C279.16,175.9683 220,204.4883 220,204.4883 C220,204.4883 219.74,228.8183 219.49,252.7883 " fill="none" id="PlaceOrderController-to-PublishedAnnouncemtRepository" style="stroke:#181818;stroke-width:1.0;stroke-dasharray:7.0,7.0;"/><polygon fill="#181818" points="219.44,257.6683,223.517,248.7029,219.4829,252.6685,215.5173,248.6343,219.44,257.6683" style="stroke:#181818;stroke-width:1.0;"/><text fill="#000000" font-family="sans-serif" font-size="13" lengthAdjust="spacing" textLength="224" x="221" y="218.0566">publishedAnnouncementRepository</text></g><!--link PlaceOrderController to AuthenticationRepository--><g id="link_PlaceOrderController_AuthenticationRepository"><path codeLine="51" d="M494.47,150.4083 C557.83,182.2283 636,221.4883 636,221.4883 C636,221.4883 687.01,244.2083 733.8,265.0483 " fill="none" id="PlaceOrderController-to-AuthenticationRepository" style="stroke:#181818;stroke-width:1.0;stroke-dasharray:7.0,7.0;"/><polygon fill="#181818" points="738.1,266.9583,731.496,259.6516,733.5298,264.9302,728.2511,266.964,738.1,266.9583" style="stroke:#181818;stroke-width:1.0;"/><text fill="#000000" font-family="sans-serif" font-size="13" lengthAdjust="spacing" textLength="158" x="637" y="218.0566">authenticationRepository</text></g><!--link PlaceOrderController to OfferRepository--><g id="link_PlaceOrderController_OfferRepository"><path codeLine="52" d="M431.12,150.2483 C444.03,182.0983 460,221.4883 460,221.4883 C460,221.4883 477.68,233.1983 499.3,247.5183 " fill="none" id="PlaceOrderController-to-OfferRepository" style="stroke:#181818;stroke-width:1.0;stroke-dasharray:7.0,7.0;"/><polygon fill="#181818" points="503.3,250.1683,497.9974,241.8687,499.1288,247.4113,493.5862,248.5427,503.3,250.1683" style="stroke:#181818;stroke-width:1.0;"/><text fill="#000000" font-family="sans-serif" font-size="13" lengthAdjust="spacing" textLength="97" x="461" y="218.0566">offerRepository</text></g><!--link OfferRepository to Offer--><g id="link_OfferRepository_Offer"><path codeLine="53" d="M577,348.5683 C577,365.5383 577,384.9083 577,402.9383 " fill="none" id="OfferRepository-to-Offer" style="stroke:#181818;stroke-width:1.0;stroke-dasharray:7.0,7.0;"/><polygon fill="#181818" points="577,407.4883,581,398.4883,577,402.4883,573,398.4883,577,407.4883" style="stroke:#181818;stroke-width:1.0;"/></g><!--link Repositories to Repositories--><g id="link_Repositories_Repositories"><path codeLine="54" d="M944.84,92.2183 C965.63,95.0883 979.5,100.8483 979.5,109.4883 C979.5,117.2483 968.31,122.6883 950.95,125.7883 " fill="none" id="Repositories-to-Repositories" style="stroke:#181818;stroke-width:1.0;"/><polygon fill="#181818" points="946.34,126.5183,955.8564,129.0558,951.278,125.7333,954.6004,121.155,946.34,126.5183" style="stroke:#181818;stroke-width:1.0;"/><text fill="#000000" font-family="sans-serif" font-size="13" lengthAdjust="spacing" textLength="53" x="985.5" y="114.5566">instance</text></g><!--link Repositories to PublishedAnnouncemtRepository--><g id="link_Repositories_PublishedAnnouncemtRepository"><path codeLine="55" d="M641.26,172.6383 C579.33,198.0083 522,221.4883 522,221.4883 C522,221.4883 453.38,239.0383 381.45,257.4383 " fill="none" id="Repositories-to-PublishedAnnouncemtRepository" style="stroke:#181818;stroke-width:1.0;"/><polygon fill="#181818" points="376.85,258.6183,386.5618,260.2555,381.6931,257.3754,384.5732,252.5066,376.85,258.6183" style="stroke:#181818;stroke-width:1.0;"/></g><!--link Repositories to AuthenticationRepository--><g id="link_Repositories_AuthenticationRepository"><path codeLine="56" d="M800.52,174.7483 C802.45,191.2683 804,204.4883 804,204.4883 C804,204.4883 805.93,234.9483 807.61,261.2883 " fill="none" id="Repositories-to-AuthenticationRepository" style="stroke:#181818;stroke-width:1.0;"/><polygon fill="#181818" points="807.91,266.0083,811.3375,256.7751,807.5963,261.0181,803.3533,257.2769,807.91,266.0083" style="stroke:#181818;stroke-width:1.0;"/></g><!--link Repositories to OfferRepository--><g id="link_Repositories_OfferRepository"><path codeLine="57" d="M775.64,174.7383 C769,199.2783 763,221.4883 763,221.4883 C763,221.4883 690,251.4883 690,251.4883 C690,251.4883 677.83,256.5983 661.48,263.4783 " fill="none" id="Repositories-to-OfferRepository" style="stroke:#181818;stroke-width:1.0;"/><polygon fill="#181818" points="657.18,265.2783,667.0264,265.4982,661.7933,263.3501,663.9414,258.117,657.18,265.2783" style="stroke:#181818;stroke-width:1.0;"/></g><!--SRC=[XPFHQi8m58RlynJdKYaTxhOCGToDC50cFa2M7cim9YL9DyhOko-fNOrDuxoeRSwV_vny_Mkv5GY7_U9v0Jci1JK6NZcjDBqGGioPovgwUwWfEzCAzxPrSetCKba930JcH4lrnMK5HofCM15SecrhX5g9rZyGmhe-Eq4PRdM9-h21Rq9-ui9QIQkL4AYT0DmlWmhjhlaGt9omN4cf6idmWjBEvhs0QQGMjySZwfdo9gkB4zbvu1_jj-zOAyEjqctVA8StRYoyJFPQGZsr_F-4mmYhnfxS4cVKSYMZxft9kj7QQGu6zHwDSRhGeJjWSkokkWJb_tf7MfOz57_ze_L91IzllAwbeSdWpz4C7SB5WRgRToEDYmN3sRm89VzGkHqXz4hn2JKZ0X4SFt067XyqncF8O7A2rClCe5IkWX2aY8m3DW2xI_FJSZB4P3BPJdp7kN0VM81lUe_ly336nVInRegqSJAS1T14AMqspcbn3MMmTQmOTf4xB7aUSU9zucBXGpQnF7NYM3aQbf1V]--></g></svg>