<?xml version="1.0" encoding="us-ascii" standalone="no"?><svg xmlns="http://www.w3.org/2000/svg" xmlns:xlink="http://www.w3.org/1999/xlink" contentStyleType="text/css" height="758px" preserveAspectRatio="none" style="width:1723px;height:758px;background:#FFFFFF;" version="1.1" viewBox="0 0 1723 758" width="1723px" zoomAndPan="magnify"><defs/><g><text fill="#000000" font-family="sans-serif" font-size="14" font-weight="bold" lengthAdjust="spacing" textLength="234" x="743.75" y="28.5352">US010 - Sequence Diagram Split</text><rect fill="#FFFFFF" height="539.6328" style="stroke:#181818;stroke-width:1.0;" width="10" x="23" y="128.9766"/><rect fill="#FFFFFF" height="202.1289" style="stroke:#181818;stroke-width:1.0;" width="10" x="509" y="150.2871"/><rect fill="#FFFFFF" height="29.3105" style="stroke:#181818;stroke-width:1.0;" width="10" x="509" y="381.7266"/><rect fill="#FFFFFF" height="29.3105" style="stroke:#181818;stroke-width:1.0;" width="10" x="509" y="440.3477"/><rect fill="#FFFFFF" height="169.6406" style="stroke:#181818;stroke-width:1.0;" width="10" x="509" y="498.9688"/><rect fill="#FFFFFF" height="102.0195" style="stroke:#181818;stroke-width:1.0;" width="10" x="735" y="221.0859"/><rect fill="#FFFFFF" height="102.0195" style="stroke:#181818;stroke-width:1.0;" width="10" x="735" y="528.2793"/><line style="stroke:#181818;stroke-width:0.5;stroke-dasharray:5.0,5.0;" x1="28" x2="28" y1="118.9766" y2="677.6094"/><line style="stroke:#181818;stroke-width:0.5;stroke-dasharray:5.0,5.0;" x1="513.5" x2="513.5" y1="118.9766" y2="677.6094"/><line style="stroke:#181818;stroke-width:0.5;stroke-dasharray:5.0,5.0;" x1="739.5" x2="739.5" y1="189.0313" y2="677.6094"/><line style="stroke:#181818;stroke-width:0.5;stroke-dasharray:5.0,5.0;" x1="882.5" x2="882.5" y1="118.9766" y2="677.6094"/><line style="stroke:#181818;stroke-width:0.5;stroke-dasharray:5.0,5.0;" x1="995.5" x2="995.5" y1="118.9766" y2="677.6094"/><line style="stroke:#181818;stroke-width:0.5;stroke-dasharray:5.0,5.0;" x1="1188.5" x2="1188.5" y1="118.9766" y2="677.6094"/><line style="stroke:#181818;stroke-width:0.5;stroke-dasharray:5.0,5.0;" x1="1426.5" x2="1426.5" y1="118.9766" y2="677.6094"/><line style="stroke:#181818;stroke-width:0.5;stroke-dasharray:5.0,5.0;" x1="1595.5" x2="1595.5" y1="118.9766" y2="677.6094"/><line style="stroke:#181818;stroke-width:0.5;stroke-dasharray:5.0,5.0;" x1="1692.5" x2="1692.5" y1="118.9766" y2="677.6094"/><text fill="#000000" font-family="sans-serif" font-size="14" lengthAdjust="spacing" textLength="40" x="5" y="116.0234">Client</text><ellipse cx="28" cy="50.9883" fill="#E3E3E3" rx="8" ry="8" style="stroke:#181818;stroke-width:0.5;"/><path d="M28,58.9883 L28,85.9883 M15,66.9883 L41,66.9883 M28,85.9883 L15,100.9883 M28,85.9883 L41,100.9883 " fill="none" style="stroke:#181818;stroke-width:0.5;"/><text fill="#000000" font-family="sans-serif" font-size="14" lengthAdjust="spacing" textLength="40" x="5" y="690.1445">Client</text><ellipse cx="28" cy="701.5977" fill="#E3E3E3" rx="8" ry="8" style="stroke:#181818;stroke-width:0.5;"/><path d="M28,709.5977 L28,736.5977 M15,717.5977 L41,717.5977 M28,736.5977 L15,751.5977 M28,736.5977 L41,751.5977 " fill="none" style="stroke:#181818;stroke-width:0.5;"/><rect fill="#E3E3E3" height="30.4883" rx="2.5" ry="2.5" style="stroke:#181818;stroke-width:0.5;" width="107" x="460.5" y="87.4883"/><text fill="#000000" font-family="sans-serif" font-size="14" lengthAdjust="spacing" textLength="93" x="467.5" y="108.0234">:PlaceOrderUI</text><rect fill="#E3E3E3" height="30.4883" rx="2.5" ry="2.5" style="stroke:#181818;stroke-width:0.5;" width="107" x="460.5" y="676.6094"/><text fill="#000000" font-family="sans-serif" font-size="14" lengthAdjust="spacing" textLength="93" x="467.5" y="697.1445">:PlaceOrderUI</text><rect fill="#E3E3E3" height="30.4883" rx="2.5" ry="2.5" style="stroke:#181818;stroke-width:0.5;" width="163" x="658.5" y="676.6094"/><text fill="#000000" font-family="sans-serif" font-size="14" lengthAdjust="spacing" textLength="149" x="665.5" y="697.1445">:PlaceOrderController</text><rect fill="#E3E3E3" height="30.4883" rx="2.5" ry="2.5" style="stroke:#181818;stroke-width:0.5;" width="103" x="831.5" y="87.4883"/><text fill="#000000" font-family="sans-serif" font-size="14" lengthAdjust="spacing" textLength="89" x="838.5" y="108.0234">:Repositories</text><rect fill="#E3E3E3" height="30.4883" rx="2.5" ry="2.5" style="stroke:#181818;stroke-width:0.5;" width="103" x="831.5" y="676.6094"/><text fill="#000000" font-family="sans-serif" font-size="14" lengthAdjust="spacing" textLength="89" x="838.5" y="697.1445">:Repositories</text><rect fill="#E3E3E3" height="46.9766" rx="2.5" ry="2.5" style="stroke:#181818;stroke-width:0.5;" width="103" x="944.5" y="71"/><text fill="#000000" font-family="sans-serif" font-size="14" lengthAdjust="spacing" textLength="82" x="955" y="91.5352">repositories</text><text fill="#000000" font-family="sans-serif" font-size="14" lengthAdjust="spacing" textLength="89" x="951.5" y="108.0234">:Repositories</text><rect fill="#E3E3E3" height="46.9766" rx="2.5" ry="2.5" style="stroke:#181818;stroke-width:0.5;" width="103" x="944.5" y="676.6094"/><text fill="#000000" font-family="sans-serif" font-size="14" lengthAdjust="spacing" textLength="82" x="955" y="697.1445">repositories</text><text fill="#000000" font-family="sans-serif" font-size="14" lengthAdjust="spacing" textLength="89" x="951.5" y="713.6328">:Repositories</text><rect fill="#E3E3E3" height="46.9766" rx="2.5" ry="2.5" style="stroke:#181818;stroke-width:0.5;" width="263" x="1057.5" y="71"/><text fill="#000000" font-family="sans-serif" font-size="14" lengthAdjust="spacing" textLength="246" x="1066" y="91.5352">publishedAnnouncementRepository</text><text fill="#000000" font-family="sans-serif" font-size="14" lengthAdjust="spacing" textLength="249" x="1064.5" y="108.0234">:PublishedAnnouncementRepository</text><rect fill="#E3E3E3" height="46.9766" rx="2.5" ry="2.5" style="stroke:#181818;stroke-width:0.5;" width="263" x="1057.5" y="676.6094"/><text fill="#000000" font-family="sans-serif" font-size="14" lengthAdjust="spacing" textLength="246" x="1066" y="697.1445">publishedAnnouncementRepository</text><text fill="#000000" font-family="sans-serif" font-size="14" lengthAdjust="spacing" textLength="249" x="1064.5" y="713.6328">:PublishedAnnouncementRepository</text><rect fill="#E3E3E3" height="46.9766" rx="2.5" ry="2.5" style="stroke:#181818;stroke-width:0.5;" width="192" x="1330.5" y="71"/><text fill="#000000" font-family="sans-serif" font-size="14" lengthAdjust="spacing" textLength="172" x="1340.5" y="91.5352">authenticationRepository</text><text fill="#000000" font-family="sans-serif" font-size="14" lengthAdjust="spacing" textLength="178" x="1337.5" y="108.0234">:AuthenticationRepository</text><rect fill="#E3E3E3" height="46.9766" rx="2.5" ry="2.5" style="stroke:#181818;stroke-width:0.5;" width="192" x="1330.5" y="676.6094"/><text fill="#000000" font-family="sans-serif" font-size="14" lengthAdjust="spacing" textLength="172" x="1340.5" y="697.1445">authenticationRepository</text><text fill="#000000" font-family="sans-serif" font-size="14" lengthAdjust="spacing" textLength="178" x="1337.5" y="713.6328">:AuthenticationRepository</text><rect fill="#E3E3E3" height="46.9766" rx="2.5" ry="2.5" style="stroke:#181818;stroke-width:0.5;" width="126" x="1532.5" y="71"/><text fill="#000000" font-family="sans-serif" font-size="14" lengthAdjust="spacing" textLength="106" x="1542.5" y="91.5352">offerRepository</text><text fill="#000000" font-family="sans-serif" font-size="14" lengthAdjust="spacing" textLength="112" x="1539.5" y="108.0234">:OfferRepository</text><rect fill="#E3E3E3" height="46.9766" rx="2.5" ry="2.5" style="stroke:#181818;stroke-width:0.5;" width="126" x="1532.5" y="676.6094"/><text fill="#000000" font-family="sans-serif" font-size="14" lengthAdjust="spacing" textLength="106" x="1542.5" y="697.1445">offerRepository</text><text fill="#000000" font-family="sans-serif" font-size="14" lengthAdjust="spacing" textLength="112" x="1539.5" y="713.6328">:OfferRepository</text><rect fill="#E3E3E3" height="30.4883" rx="2.5" ry="2.5" style="stroke:#181818;stroke-width:0.5;" width="49" x="1668.5" y="87.4883"/><text fill="#000000" font-family="sans-serif" font-size="14" lengthAdjust="spacing" textLength="35" x="1675.5" y="108.0234">Offer</text><rect fill="#E3E3E3" height="30.4883" rx="2.5" ry="2.5" style="stroke:#181818;stroke-width:0.5;" width="49" x="1668.5" y="676.6094"/><text fill="#000000" font-family="sans-serif" font-size="14" lengthAdjust="spacing" textLength="35" x="1675.5" y="697.1445">Offer</text><rect fill="#FFFFFF" height="539.6328" style="stroke:#181818;stroke-width:1.0;" width="10" x="23" y="128.9766"/><rect fill="#FFFFFF" height="202.1289" style="stroke:#181818;stroke-width:1.0;" width="10" x="509" y="150.2871"/><rect fill="#FFFFFF" height="29.3105" style="stroke:#181818;stroke-width:1.0;" width="10" x="509" y="381.7266"/><rect fill="#FFFFFF" height="29.3105" style="stroke:#181818;stroke-width:1.0;" width="10" x="509" y="440.3477"/><rect fill="#FFFFFF" height="169.6406" style="stroke:#181818;stroke-width:1.0;" width="10" x="509" y="498.9688"/><rect fill="#FFFFFF" height="102.0195" style="stroke:#181818;stroke-width:1.0;" width="10" x="735" y="221.0859"/><rect fill="#FFFFFF" height="102.0195" style="stroke:#181818;stroke-width:1.0;" width="10" x="735" y="528.2793"/><polygon fill="#181818" points="497,146.2871,507,150.2871,497,154.2871,501,150.2871" style="stroke:#181818;stroke-width:1.0;"/><line style="stroke:#181818;stroke-width:1.0;" x1="33" x2="503" y1="150.2871" y2="150.2871"/><text fill="#000000" font-family="sans-serif" font-size="13" font-weight="bold" lengthAdjust="spacing" textLength="9" x="40" y="145.5449">1</text><text fill="#000000" font-family="sans-serif" font-size="13" lengthAdjust="spacing" textLength="224" x="53" y="145.5449">asks to place an offer on a property</text><polygon fill="#181818" points="646.5,175.5977,656.5,179.5977,646.5,183.5977,650.5,179.5977" style="stroke:#181818;stroke-width:1.0;"/><line style="stroke:#181818;stroke-width:1.0;" x1="519" x2="652.5" y1="179.5977" y2="179.5977"/><text fill="#000000" font-family="sans-serif" font-size="13" font-weight="bold" lengthAdjust="spacing" textLength="9" x="526" y="174.8555">2</text><text fill="#000000" font-family="sans-serif" font-size="13" lengthAdjust="spacing" textLength="38" x="539" y="174.8555">create</text><rect fill="#E3E3E3" height="30.4883" rx="2.5" ry="2.5" style="stroke:#181818;stroke-width:0.5;" width="163" x="658.5" y="158.2871"/><text fill="#000000" font-family="sans-serif" font-size="14" lengthAdjust="spacing" textLength="149" x="665.5" y="178.8223">:PlaceOrderController</text><polygon fill="#181818" points="723,217.0859,733,221.0859,723,225.0859,727,221.0859" style="stroke:#181818;stroke-width:1.0;"/><line style="stroke:#181818;stroke-width:1.0;" x1="519" x2="729" y1="221.0859" y2="221.0859"/><text fill="#000000" font-family="sans-serif" font-size="13" font-weight="bold" lengthAdjust="spacing" textLength="9" x="526" y="216.3438">3</text><text fill="#000000" font-family="sans-serif" font-size="13" lengthAdjust="spacing" textLength="184" x="539" y="216.3438">getPublishedAnnouncement()</text><rect fill="none" height="67.709" style="stroke:#000000;stroke-width:1.5;" width="177" x="655.5" y="229.0859"/><path d="M655.5,229.0859 L719.5,229.0859 L719.5,236.0859 L709.5,246.0859 L655.5,246.0859 L655.5,229.0859 " fill="#EEEEEE" style="stroke:#000000;stroke-width:2.0;"/><text fill="#000000" font-family="sans-serif" font-size="13" font-weight="bold" lengthAdjust="spacing" textLength="19" x="668.5" y="243.6543">ref</text><text fill="#000000" font-family="sans-serif" font-size="12" lengthAdjust="spacing" textLength="4" x="742" y="261.6875">&#160;</text><text fill="#000000" font-family="sans-serif" font-size="12" lengthAdjust="spacing" textLength="169" x="659.5" y="275.8203">Get Published Announcement</text><text fill="#000000" font-family="sans-serif" font-size="12" lengthAdjust="spacing" textLength="4" x="742" y="289.9531">&#160;</text><polygon fill="#181818" points="530,319.1055,520,323.1055,530,327.1055,526,323.1055" style="stroke:#181818;stroke-width:1.0;"/><line style="stroke:#181818;stroke-width:1.0;stroke-dasharray:2.0,2.0;" x1="524" x2="739" y1="323.1055" y2="323.1055"/><text fill="#000000" font-family="sans-serif" font-size="13" font-weight="bold" lengthAdjust="spacing" textLength="9" x="536" y="318.3633">4</text><text fill="#000000" font-family="sans-serif" font-size="13" lengthAdjust="spacing" textLength="179" x="549" y="318.3633">PublishedAnnouncementList</text><polygon fill="#181818" points="44,348.416,34,352.416,44,356.416,40,352.416" style="stroke:#181818;stroke-width:1.0;"/><line style="stroke:#181818;stroke-width:1.0;stroke-dasharray:2.0,2.0;" x1="38" x2="513" y1="352.416" y2="352.416"/><text fill="#000000" font-family="sans-serif" font-size="13" font-weight="bold" lengthAdjust="spacing" textLength="9" x="50" y="347.6738">5</text><text fill="#000000" font-family="sans-serif" font-size="13" lengthAdjust="spacing" textLength="173" x="63" y="347.6738">shows the list of properties</text><polygon fill="#181818" points="497,377.7266,507,381.7266,497,385.7266,501,381.7266" style="stroke:#181818;stroke-width:1.0;"/><line style="stroke:#181818;stroke-width:1.0;" x1="33" x2="503" y1="381.7266" y2="381.7266"/><text fill="#000000" font-family="sans-serif" font-size="13" font-weight="bold" lengthAdjust="spacing" textLength="9" x="40" y="376.9844">6</text><text fill="#000000" font-family="sans-serif" font-size="13" lengthAdjust="spacing" textLength="175" x="53" y="376.9844">selects the desired property</text><polygon fill="#181818" points="44,407.0371,34,411.0371,44,415.0371,40,411.0371" style="stroke:#181818;stroke-width:1.0;"/><line style="stroke:#181818;stroke-width:1.0;stroke-dasharray:2.0,2.0;" x1="38" x2="513" y1="411.0371" y2="411.0371"/><text fill="#000000" font-family="sans-serif" font-size="13" font-weight="bold" lengthAdjust="spacing" textLength="9" x="50" y="406.2949">7</text><text fill="#000000" font-family="sans-serif" font-size="13" lengthAdjust="spacing" textLength="157" x="63" y="406.2949">request the offer amount</text><polygon fill="#181818" points="497,436.3477,507,440.3477,497,444.3477,501,440.3477" style="stroke:#181818;stroke-width:1.0;"/><line style="stroke:#181818;stroke-width:1.0;" x1="33" x2="503" y1="440.3477" y2="440.3477"/><text fill="#000000" font-family="sans-serif" font-size="13" font-weight="bold" lengthAdjust="spacing" textLength="9" x="40" y="435.6055">8</text><text fill="#000000" font-family="sans-serif" font-size="13" lengthAdjust="spacing" textLength="444" x="53" y="435.6055">places an offer to purchase a property by submitting the order amount</text><polygon fill="#181818" points="44,465.6582,34,469.6582,44,473.6582,40,469.6582" style="stroke:#181818;stroke-width:1.0;"/><line style="stroke:#181818;stroke-width:1.0;stroke-dasharray:2.0,2.0;" x1="38" x2="513" y1="469.6582" y2="469.6582"/><text fill="#000000" font-family="sans-serif" font-size="13" font-weight="bold" lengthAdjust="spacing" textLength="9" x="50" y="464.916">9</text><text fill="#000000" font-family="sans-serif" font-size="13" lengthAdjust="spacing" textLength="239" x="63" y="464.916">shows an offer to purchase a property</text><polygon fill="#181818" points="497,494.9688,507,498.9688,497,502.9688,501,498.9688" style="stroke:#181818;stroke-width:1.0;"/><line style="stroke:#181818;stroke-width:1.0;" x1="33" x2="503" y1="498.9688" y2="498.9688"/><text fill="#000000" font-family="sans-serif" font-size="13" font-weight="bold" lengthAdjust="spacing" textLength="18" x="40" y="494.2266">10</text><text fill="#000000" font-family="sans-serif" font-size="13" lengthAdjust="spacing" textLength="82" x="62" y="494.2266">submits data</text><polygon fill="#181818" points="723,524.2793,733,528.2793,723,532.2793,727,528.2793" style="stroke:#181818;stroke-width:1.0;"/><line style="stroke:#181818;stroke-width:1.0;" x1="519" x2="729" y1="528.2793" y2="528.2793"/><text fill="#000000" font-family="sans-serif" font-size="13" font-weight="bold" lengthAdjust="spacing" textLength="18" x="526" y="523.5371">11</text><text fill="#000000" font-family="sans-serif" font-size="13" lengthAdjust="spacing" textLength="161" x="548" y="523.5371">createOffer(orderAmount)</text><rect fill="none" height="67.709" style="stroke:#000000;stroke-width:1.5;" width="169" x="655.5" y="536.2793"/><path d="M655.5,536.2793 L719.5,536.2793 L719.5,543.2793 L709.5,553.2793 L655.5,553.2793 L655.5,536.2793 " fill="#EEEEEE" style="stroke:#000000;stroke-width:2.0;"/><text fill="#000000" font-family="sans-serif" font-size="13" font-weight="bold" lengthAdjust="spacing" textLength="19" x="668.5" y="550.8477">ref</text><text fill="#000000" font-family="sans-serif" font-size="12" lengthAdjust="spacing" textLength="4" x="738" y="568.8809">&#160;</text><text fill="#000000" font-family="sans-serif" font-size="12" lengthAdjust="spacing" textLength="71" x="704.5" y="583.0137">Create Offer</text><text fill="#000000" font-family="sans-serif" font-size="12" lengthAdjust="spacing" textLength="4" x="738" y="597.1465">&#160;</text><polygon fill="#181818" points="530,626.2988,520,630.2988,530,634.2988,526,630.2988" style="stroke:#181818;stroke-width:1.0;"/><line style="stroke:#181818;stroke-width:1.0;stroke-dasharray:2.0,2.0;" x1="524" x2="739" y1="630.2988" y2="630.2988"/><text fill="#000000" font-family="sans-serif" font-size="13" font-weight="bold" lengthAdjust="spacing" textLength="18" x="536" y="625.5566">12</text><text fill="#000000" font-family="sans-serif" font-size="13" lengthAdjust="spacing" textLength="30" x="558" y="625.5566">offer</text><polygon fill="#181818" points="44,655.6094,34,659.6094,44,663.6094,40,659.6094" style="stroke:#181818;stroke-width:1.0;"/><line style="stroke:#181818;stroke-width:1.0;stroke-dasharray:2.0,2.0;" x1="38" x2="508" y1="659.6094" y2="659.6094"/><text fill="#000000" font-family="sans-serif" font-size="13" font-weight="bold" lengthAdjust="spacing" textLength="18" x="50" y="654.8672">13</text><text fill="#000000" font-family="sans-serif" font-size="13" lengthAdjust="spacing" textLength="170" x="72" y="654.8672">displays operation success</text><!--SRC=[bLHDRzim3BthLn0vTGK2TDSS1WGPC1GOq696RxieCcCBiILFf5lutu-IuzWkd8_c4bjyV8zyf4L7wneTT0srTzwKmTS875fKT8uqsXnrWHbt5K90mzeLrHH0fSxzXtK577H5g1HR5kXRzlJz2TQGuRyMdK7uQNKHyLbJMLPAj-nTM-ynoBDX7s2rgomwNe4cw1-LAB0rjj6EORLvhRJ1bv1ZU7jEgAmZnleYQkST1rzL67hEy-kdZ3_OUB9IWaLAoFD1bzdOhLGwJmcJZB_k2e4Sp3ERTbzPAZ7VEkTRyQMMFaSz8NkzZaZyDp1pIN6wbB0rcgrtCwtjXL0IkHISi_l30SECz6L-ahW-dSqfKd24fNsmxvfnM0FL_yFwnsdai17qaO0zD77Se1saGi0xqD04ts3WRYGwROewfGlHk0sFZq9d0Wfk6I3X0ddHyuTlasB7_L813-3V9NLw-0jvd1nCQPH2bqkRe-HwskkYz6zBh79Sb1-wY6tqrctaE_KVubY985miTWqsnHsTy0nMBNXEMCa5q9FaI3P86xUzdXOHucqWwf6X7vYkfIE-iu0qR1gd7UVV1bDgmidOOTy1jVlQCiThAMd5-s3GkglItguRIlVwbeeXo3Nh-tRol97fYtX8vMzJzLzPE93VBj4CNzRLDKkTVcMbSaioaOuWkf5k2MdLo8H8_GS0]--></g></svg>