<?xml version="1.0" encoding="us-ascii" standalone="no"?><svg xmlns="http://www.w3.org/2000/svg" xmlns:xlink="http://www.w3.org/1999/xlink" contentStyleType="text/css" height="428px" preserveAspectRatio="none" style="width:858px;height:428px;background:#FFFFFF;" version="1.1" viewBox="0 0 858 428" width="858px" zoomAndPan="magnify"><defs/><g><text fill="#000000" font-family="sans-serif" font-size="14" font-weight="bold" lengthAdjust="spacing" textLength="479" x="191.25" y="28.5352">US010 - Sequence Diagram Partial - Get Published Announcement</text><rect fill="#FFFFFF" height="236.4844" style="stroke:#181818;stroke-width:1.0;" width="10" x="220" y="121.7754"/><rect fill="#FFFFFF" height="29.3105" style="stroke:#181818;stroke-width:1.0;" width="10" x="363" y="175.3965"/><rect fill="#FFFFFF" height="29.3105" style="stroke:#181818;stroke-width:1.0;" width="10" x="513" y="234.0176"/><rect fill="#FFFFFF" height="29.3105" style="stroke:#181818;stroke-width:1.0;" width="10" x="706" y="292.6387"/><rect fill="none" height="193.1738" style="stroke:#000000;stroke-width:1.5;" width="719" x="133.5" y="136.7754"/><line style="stroke:#181818;stroke-width:0.5;stroke-dasharray:5.0,5.0;" x1="224.5" x2="224.5" y1="90.4648" y2="376.2598"/><line style="stroke:#181818;stroke-width:0.5;stroke-dasharray:5.0,5.0;" x1="367.5" x2="367.5" y1="90.4648" y2="376.2598"/><line style="stroke:#181818;stroke-width:0.5;stroke-dasharray:5.0,5.0;" x1="517.5" x2="517.5" y1="90.4648" y2="376.2598"/><line style="stroke:#181818;stroke-width:0.5;stroke-dasharray:5.0,5.0;" x1="710.5" x2="710.5" y1="90.4648" y2="376.2598"/><rect fill="#E3E3E3" height="30.4883" rx="2.5" ry="2.5" style="stroke:#181818;stroke-width:0.5;" width="163" x="143.5" y="58.9766"/><text fill="#000000" font-family="sans-serif" font-size="14" lengthAdjust="spacing" textLength="149" x="150.5" y="79.5117">:PlaceOrderController</text><rect fill="#E3E3E3" height="30.4883" rx="2.5" ry="2.5" style="stroke:#181818;stroke-width:0.5;" width="163" x="143.5" y="375.2598"/><text fill="#000000" font-family="sans-serif" font-size="14" lengthAdjust="spacing" textLength="149" x="150.5" y="395.7949">:PlaceOrderController</text><rect fill="#E3E3E3" height="30.4883" rx="2.5" ry="2.5" style="stroke:#181818;stroke-width:0.5;" width="103" x="316.5" y="58.9766"/><text fill="#000000" font-family="sans-serif" font-size="14" lengthAdjust="spacing" textLength="89" x="323.5" y="79.5117">:Repositories</text><rect fill="#E3E3E3" height="30.4883" rx="2.5" ry="2.5" style="stroke:#181818;stroke-width:0.5;" width="103" x="316.5" y="375.2598"/><text fill="#000000" font-family="sans-serif" font-size="14" lengthAdjust="spacing" textLength="89" x="323.5" y="395.7949">:Repositories</text><rect fill="#E3E3E3" height="46.9766" rx="2.5" ry="2.5" style="stroke:#181818;stroke-width:0.5;" width="103" x="466.5" y="42.4883"/><text fill="#000000" font-family="sans-serif" font-size="14" lengthAdjust="spacing" textLength="82" x="477" y="63.0234">repositories</text><text fill="#000000" font-family="sans-serif" font-size="14" lengthAdjust="spacing" textLength="89" x="473.5" y="79.5117">:Repositories</text><rect fill="#E3E3E3" height="46.9766" rx="2.5" ry="2.5" style="stroke:#181818;stroke-width:0.5;" width="103" x="466.5" y="375.2598"/><text fill="#000000" font-family="sans-serif" font-size="14" lengthAdjust="spacing" textLength="82" x="477" y="395.7949">repositories</text><text fill="#000000" font-family="sans-serif" font-size="14" lengthAdjust="spacing" textLength="89" x="473.5" y="412.2832">:Repositories</text><rect fill="#E3E3E3" height="46.9766" rx="2.5" ry="2.5" style="stroke:#181818;stroke-width:0.5;" width="263" x="579.5" y="42.4883"/><text fill="#000000" font-family="sans-serif" font-size="14" lengthAdjust="spacing" textLength="246" x="588" y="63.0234">publishedAnnouncementRepository</text><text fill="#000000" font-family="sans-serif" font-size="14" lengthAdjust="spacing" textLength="249" x="586.5" y="79.5117">:PublishedAnnouncementRepository</text><rect fill="#E3E3E3" height="46.9766" rx="2.5" ry="2.5" style="stroke:#181818;stroke-width:0.5;" width="263" x="579.5" y="375.2598"/><text fill="#000000" font-family="sans-serif" font-size="14" lengthAdjust="spacing" textLength="246" x="588" y="395.7949">publishedAnnouncementRepository</text><text fill="#000000" font-family="sans-serif" font-size="14" lengthAdjust="spacing" textLength="249" x="586.5" y="412.2832">:PublishedAnnouncementRepository</text><rect fill="#FFFFFF" height="236.4844" style="stroke:#181818;stroke-width:1.0;" width="10" x="220" y="121.7754"/><rect fill="#FFFFFF" height="29.3105" style="stroke:#181818;stroke-width:1.0;" width="10" x="363" y="175.3965"/><rect fill="#FFFFFF" height="29.3105" style="stroke:#181818;stroke-width:1.0;" width="10" x="513" y="234.0176"/><rect fill="#FFFFFF" height="29.3105" style="stroke:#181818;stroke-width:1.0;" width="10" x="706" y="292.6387"/><polygon fill="#181818" points="208,117.7754,218,121.7754,208,125.7754,212,121.7754" style="stroke:#181818;stroke-width:1.0;"/><line style="stroke:#181818;stroke-width:1.0;" x1="0" x2="214" y1="121.7754" y2="121.7754"/><text fill="#000000" font-family="sans-serif" font-size="13" font-weight="bold" lengthAdjust="spacing" textLength="9" x="7" y="117.0332">3</text><text fill="#000000" font-family="sans-serif" font-size="13" lengthAdjust="spacing" textLength="184" x="20" y="117.0332">getPublishedAnnouncement()</text><path d="M133.5,136.7754 L371.5,136.7754 L371.5,144.0859 L361.5,154.0859 L133.5,154.0859 L133.5,136.7754 " fill="#EEEEEE" style="stroke:#000000;stroke-width:1.5;"/><rect fill="none" height="193.1738" style="stroke:#000000;stroke-width:1.5;" width="719" x="133.5" y="136.7754"/><text fill="#000000" font-family="sans-serif" font-size="13" font-weight="bold" lengthAdjust="spacing" textLength="193" x="148.5" y="150.3438">getPublishedAnnouncement</text><polygon fill="#181818" points="351,171.3965,361,175.3965,351,179.3965,355,175.3965" style="stroke:#181818;stroke-width:1.0;"/><line style="stroke:#181818;stroke-width:1.0;" x1="230" x2="357" y1="175.3965" y2="175.3965"/><text fill="#000000" font-family="sans-serif" font-size="13" font-weight="bold" lengthAdjust="spacing" textLength="9" x="237" y="170.6543">4</text><text fill="#000000" font-family="sans-serif" font-size="13" lengthAdjust="spacing" textLength="81" x="250" y="170.6543">getInstance()</text><polygon fill="#181818" points="241,200.707,231,204.707,241,208.707,237,204.707" style="stroke:#181818;stroke-width:1.0;"/><line style="stroke:#181818;stroke-width:1.0;stroke-dasharray:2.0,2.0;" x1="235" x2="367" y1="204.707" y2="204.707"/><text fill="#000000" font-family="sans-serif" font-size="13" font-weight="bold" lengthAdjust="spacing" textLength="9" x="247" y="199.9648">5</text><text fill="#000000" font-family="sans-serif" font-size="13" lengthAdjust="spacing" textLength="75" x="260" y="199.9648">repositories</text><polygon fill="#181818" points="501,230.0176,511,234.0176,501,238.0176,505,234.0176" style="stroke:#181818;stroke-width:1.0;"/><line style="stroke:#181818;stroke-width:1.0;" x1="230" x2="507" y1="234.0176" y2="234.0176"/><text fill="#000000" font-family="sans-serif" font-size="13" font-weight="bold" lengthAdjust="spacing" textLength="9" x="237" y="229.2754">6</text><text fill="#000000" font-family="sans-serif" font-size="13" lengthAdjust="spacing" textLength="251" x="250" y="229.2754">getPublishedAnnouncementRepository()</text><polygon fill="#181818" points="241,259.3281,231,263.3281,241,267.3281,237,263.3281" style="stroke:#181818;stroke-width:1.0;"/><line style="stroke:#181818;stroke-width:1.0;stroke-dasharray:2.0,2.0;" x1="235" x2="517" y1="263.3281" y2="263.3281"/><text fill="#000000" font-family="sans-serif" font-size="13" font-weight="bold" lengthAdjust="spacing" textLength="9" x="247" y="258.5859">7</text><text fill="#000000" font-family="sans-serif" font-size="13" lengthAdjust="spacing" textLength="223" x="260" y="258.5859">PublishedAnnouncementRepository</text><polygon fill="#181818" points="694,288.6387,704,292.6387,694,296.6387,698,292.6387" style="stroke:#181818;stroke-width:1.0;"/><line style="stroke:#181818;stroke-width:1.0;" x1="230" x2="700" y1="292.6387" y2="292.6387"/><text fill="#000000" font-family="sans-serif" font-size="13" font-weight="bold" lengthAdjust="spacing" textLength="9" x="237" y="287.8965">8</text><text fill="#000000" font-family="sans-serif" font-size="13" lengthAdjust="spacing" textLength="184" x="250" y="287.8965">getPublishedAnnouncement()</text><polygon fill="#181818" points="241,317.9492,231,321.9492,241,325.9492,237,321.9492" style="stroke:#181818;stroke-width:1.0;"/><line style="stroke:#181818;stroke-width:1.0;stroke-dasharray:2.0,2.0;" x1="235" x2="710" y1="321.9492" y2="321.9492"/><text fill="#000000" font-family="sans-serif" font-size="13" font-weight="bold" lengthAdjust="spacing" textLength="9" x="247" y="317.207">9</text><text fill="#000000" font-family="sans-serif" font-size="13" lengthAdjust="spacing" textLength="179" x="260" y="317.207">PublishedAnnouncementList</text><polygon fill="#181818" points="11,354.2598,1,358.2598,11,362.2598,7,358.2598" style="stroke:#181818;stroke-width:1.0;"/><line style="stroke:#181818;stroke-width:1.0;stroke-dasharray:2.0,2.0;" x1="5" x2="224" y1="358.2598" y2="358.2598"/><text fill="#000000" font-family="sans-serif" font-size="13" font-weight="bold" lengthAdjust="spacing" textLength="18" x="17" y="353.5176">10</text><text fill="#000000" font-family="sans-serif" font-size="13" lengthAdjust="spacing" textLength="179" x="39" y="353.5176">PublishedAnnouncementList</text><!--SRC=[dL9FIyCm5B-_J_7OIG-5YRSXWYY885WithoyfSykB4rgyghisvjENDFHjR9Zaj_VznAssZRagSRQMQSstjMCubk6S7XfI6sfua9sXj6p4hALIG5XGwNxrhR23pA10KHBXBuLowibPbZmPyjMCJvegZfyJbuqcVZqo89vkpOwRBZ4EsjT6u4rMm5eEfJI3Ld1nIetfFZ5b-pldHNlZ66_G0hO7uyOhzoueCLvpM6FF5pi2jqr46U759ymtks4GBmOCfk_3cc5tY-AvTE8lVuC1e3QcBcjr-pn6Y2xJShZ2YkMKOMBIo0b-ek4qsb1vLtRd6G19EBHQcHwlvvFDiGVeJYr6HirZ2baWn8hJ5S09KyBdWWOgHFJw9L60tU-C90wZZYtfR7KUzLXt1cPV-vpzilCsMJ7lsYKyAo3fCLcRTcM03TPTePsp_W1]--></g></svg>