<?xml version="1.0" encoding="us-ascii" standalone="no"?><svg xmlns="http://www.w3.org/2000/svg" xmlns:xlink="http://www.w3.org/1999/xlink" contentStyleType="text/css" height="697px" preserveAspectRatio="none" style="width:1049px;height:697px;background:#FFFFFF;" version="1.1" viewBox="0 0 1049 697" width="1049px" zoomAndPan="magnify"><defs/><g><text fill="#000000" font-family="sans-serif" font-size="14" font-weight="bold" lengthAdjust="spacing" textLength="356" x="348.25" y="28.5352">US010 - Sequence Diagram Partial - Create Offer</text><rect fill="#FFFFFF" height="514.8359" style="stroke:#181818;stroke-width:1.0;" width="10" x="202" y="121.7754"/><rect fill="#FFFFFF" height="29.3105" style="stroke:#181818;stroke-width:1.0;" width="10" x="441" y="175.3965"/><rect fill="#FFFFFF" height="29.3105" style="stroke:#181818;stroke-width:1.0;" width="10" x="441" y="292.6387"/><rect fill="#FFFFFF" height="29.3105" style="stroke:#181818;stroke-width:1.0;" width="10" x="598.5" y="234.0176"/><rect fill="#FFFFFF" height="240.041" style="stroke:#181818;stroke-width:1.0;" width="10" x="767.5" y="351.2598"/><rect fill="none" height="462.5254" style="stroke:#000000;stroke-width:1.5;" width="928" x="115.5" y="136.7754"/><line style="stroke:#181818;stroke-width:0.5;stroke-dasharray:5.0,5.0;" x1="206.5" x2="206.5" y1="90.4648" y2="645.6113"/><line style="stroke:#181818;stroke-width:0.5;stroke-dasharray:5.0,5.0;" x1="445.5" x2="445.5" y1="90.4648" y2="645.6113"/><line style="stroke:#181818;stroke-width:0.5;stroke-dasharray:5.0,5.0;" x1="603.5" x2="603.5" y1="90.4648" y2="645.6113"/><line style="stroke:#181818;stroke-width:0.5;stroke-dasharray:5.0,5.0;" x1="772.5" x2="772.5" y1="90.4648" y2="645.6113"/><line style="stroke:#181818;stroke-width:0.5;stroke-dasharray:5.0,5.0;" x1="1008.5" x2="1008.5" y1="390.0039" y2="645.6113"/><rect fill="#E3E3E3" height="30.4883" rx="2.5" ry="2.5" style="stroke:#181818;stroke-width:0.5;" width="163" x="125.5" y="58.9766"/><text fill="#000000" font-family="sans-serif" font-size="14" lengthAdjust="spacing" textLength="149" x="132.5" y="79.5117">:PlaceOrderController</text><rect fill="#E3E3E3" height="30.4883" rx="2.5" ry="2.5" style="stroke:#181818;stroke-width:0.5;" width="163" x="125.5" y="644.6113"/><text fill="#000000" font-family="sans-serif" font-size="14" lengthAdjust="spacing" textLength="149" x="132.5" y="665.1465">:PlaceOrderController</text><rect fill="#E3E3E3" height="46.9766" rx="2.5" ry="2.5" style="stroke:#181818;stroke-width:0.5;" width="103" x="394.5" y="42.4883"/><text fill="#000000" font-family="sans-serif" font-size="14" lengthAdjust="spacing" textLength="82" x="405" y="63.0234">repositories</text><text fill="#000000" font-family="sans-serif" font-size="14" lengthAdjust="spacing" textLength="89" x="401.5" y="79.5117">:Repositories</text><rect fill="#E3E3E3" height="46.9766" rx="2.5" ry="2.5" style="stroke:#181818;stroke-width:0.5;" width="103" x="394.5" y="644.6113"/><text fill="#000000" font-family="sans-serif" font-size="14" lengthAdjust="spacing" textLength="82" x="405" y="665.1465">repositories</text><text fill="#000000" font-family="sans-serif" font-size="14" lengthAdjust="spacing" textLength="89" x="401.5" y="681.6348">:Repositories</text><rect fill="#E3E3E3" height="46.9766" rx="2.5" ry="2.5" style="stroke:#181818;stroke-width:0.5;" width="192" x="507.5" y="42.4883"/><text fill="#000000" font-family="sans-serif" font-size="14" lengthAdjust="spacing" textLength="172" x="517.5" y="63.0234">authenticationRepository</text><text fill="#000000" font-family="sans-serif" font-size="14" lengthAdjust="spacing" textLength="178" x="514.5" y="79.5117">:AuthenticationRepository</text><rect fill="#E3E3E3" height="46.9766" rx="2.5" ry="2.5" style="stroke:#181818;stroke-width:0.5;" width="192" x="507.5" y="644.6113"/><text fill="#000000" font-family="sans-serif" font-size="14" lengthAdjust="spacing" textLength="172" x="517.5" y="665.1465">authenticationRepository</text><text fill="#000000" font-family="sans-serif" font-size="14" lengthAdjust="spacing" textLength="178" x="514.5" y="681.6348">:AuthenticationRepository</text><rect fill="#E3E3E3" height="46.9766" rx="2.5" ry="2.5" style="stroke:#181818;stroke-width:0.5;" width="126" x="709.5" y="42.4883"/><text fill="#000000" font-family="sans-serif" font-size="14" lengthAdjust="spacing" textLength="106" x="719.5" y="63.0234">offerRepository</text><text fill="#000000" font-family="sans-serif" font-size="14" lengthAdjust="spacing" textLength="112" x="716.5" y="79.5117">:OfferRepository</text><rect fill="#E3E3E3" height="46.9766" rx="2.5" ry="2.5" style="stroke:#181818;stroke-width:0.5;" width="126" x="709.5" y="644.6113"/><text fill="#000000" font-family="sans-serif" font-size="14" lengthAdjust="spacing" textLength="106" x="719.5" y="665.1465">offerRepository</text><text fill="#000000" font-family="sans-serif" font-size="14" lengthAdjust="spacing" textLength="112" x="716.5" y="681.6348">:OfferRepository</text><rect fill="#E3E3E3" height="30.4883" rx="2.5" ry="2.5" style="stroke:#181818;stroke-width:0.5;" width="49" x="984.5" y="644.6113"/><text fill="#000000" font-family="sans-serif" font-size="14" lengthAdjust="spacing" textLength="35" x="991.5" y="665.1465">Offer</text><rect fill="#FFFFFF" height="514.8359" style="stroke:#181818;stroke-width:1.0;" width="10" x="202" y="121.7754"/><rect fill="#FFFFFF" height="29.3105" style="stroke:#181818;stroke-width:1.0;" width="10" x="441" y="175.3965"/><rect fill="#FFFFFF" height="29.3105" style="stroke:#181818;stroke-width:1.0;" width="10" x="441" y="292.6387"/><rect fill="#FFFFFF" height="29.3105" style="stroke:#181818;stroke-width:1.0;" width="10" x="598.5" y="234.0176"/><rect fill="#FFFFFF" height="240.041" style="stroke:#181818;stroke-width:1.0;" width="10" x="767.5" y="351.2598"/><polygon fill="#181818" points="190,117.7754,200,121.7754,190,125.7754,194,121.7754" style="stroke:#181818;stroke-width:1.0;"/><line style="stroke:#181818;stroke-width:1.0;" x1="0" x2="196" y1="121.7754" y2="121.7754"/><text fill="#000000" font-family="sans-serif" font-size="13" font-weight="bold" lengthAdjust="spacing" textLength="18" x="7" y="117.0332">17</text><text fill="#000000" font-family="sans-serif" font-size="13" lengthAdjust="spacing" textLength="161" x="29" y="117.0332">createOffer(orderAmount)</text><path d="M115.5,136.7754 L243.5,136.7754 L243.5,144.0859 L233.5,154.0859 L115.5,154.0859 L115.5,136.7754 " fill="#EEEEEE" style="stroke:#000000;stroke-width:1.5;"/><rect fill="none" height="462.5254" style="stroke:#000000;stroke-width:1.5;" width="928" x="115.5" y="136.7754"/><text fill="#000000" font-family="sans-serif" font-size="13" font-weight="bold" lengthAdjust="spacing" textLength="83" x="130.5" y="150.3438">Create Offer</text><polygon fill="#181818" points="429,171.3965,439,175.3965,429,179.3965,433,175.3965" style="stroke:#181818;stroke-width:1.0;"/><line style="stroke:#181818;stroke-width:1.0;" x1="212" x2="435" y1="175.3965" y2="175.3965"/><text fill="#000000" font-family="sans-serif" font-size="13" font-weight="bold" lengthAdjust="spacing" textLength="18" x="219" y="170.6543">18</text><text fill="#000000" font-family="sans-serif" font-size="13" lengthAdjust="spacing" textLength="188" x="241" y="170.6543">getAuthenticationRepository()</text><polygon fill="#181818" points="223,200.707,213,204.707,223,208.707,219,204.707" style="stroke:#181818;stroke-width:1.0;"/><line style="stroke:#181818;stroke-width:1.0;stroke-dasharray:2.0,2.0;" x1="217" x2="445" y1="204.707" y2="204.707"/><text fill="#000000" font-family="sans-serif" font-size="13" font-weight="bold" lengthAdjust="spacing" textLength="18" x="229" y="199.9648">19</text><text fill="#000000" font-family="sans-serif" font-size="13" lengthAdjust="spacing" textLength="158" x="251" y="199.9648">authenticationRepository</text><polygon fill="#181818" points="586.5,230.0176,596.5,234.0176,586.5,238.0176,590.5,234.0176" style="stroke:#181818;stroke-width:1.0;"/><line style="stroke:#181818;stroke-width:1.0;" x1="212" x2="592.5" y1="234.0176" y2="234.0176"/><text fill="#000000" font-family="sans-serif" font-size="13" font-weight="bold" lengthAdjust="spacing" textLength="18" x="219" y="229.2754">20</text><text fill="#000000" font-family="sans-serif" font-size="13" lengthAdjust="spacing" textLength="151" x="241" y="229.2754">getCurrentUserSession()</text><polygon fill="#181818" points="223,259.3281,213,263.3281,223,267.3281,219,263.3281" style="stroke:#181818;stroke-width:1.0;"/><line style="stroke:#181818;stroke-width:1.0;stroke-dasharray:2.0,2.0;" x1="217" x2="602.5" y1="263.3281" y2="263.3281"/><text fill="#000000" font-family="sans-serif" font-size="13" font-weight="bold" lengthAdjust="spacing" textLength="18" x="229" y="258.5859">21</text><text fill="#000000" font-family="sans-serif" font-size="13" lengthAdjust="spacing" textLength="143" x="251" y="258.5859">getCurrentUserSession</text><polygon fill="#181818" points="429,288.6387,439,292.6387,429,296.6387,433,292.6387" style="stroke:#181818;stroke-width:1.0;"/><line style="stroke:#181818;stroke-width:1.0;" x1="212" x2="435" y1="292.6387" y2="292.6387"/><text fill="#000000" font-family="sans-serif" font-size="13" font-weight="bold" lengthAdjust="spacing" textLength="18" x="219" y="287.8965">22</text><text fill="#000000" font-family="sans-serif" font-size="13" lengthAdjust="spacing" textLength="127" x="241" y="287.8965">getOfferRepository()</text><polygon fill="#181818" points="223,317.9492,213,321.9492,223,325.9492,219,321.9492" style="stroke:#181818;stroke-width:1.0;"/><line style="stroke:#181818;stroke-width:1.0;stroke-dasharray:2.0,2.0;" x1="217" x2="445" y1="321.9492" y2="321.9492"/><text fill="#000000" font-family="sans-serif" font-size="13" font-weight="bold" lengthAdjust="spacing" textLength="18" x="229" y="317.207">23</text><text fill="#000000" font-family="sans-serif" font-size="13" lengthAdjust="spacing" textLength="119" x="251" y="317.207">getOfferRepository</text><polygon fill="#181818" points="755.5,347.2598,765.5,351.2598,755.5,355.2598,759.5,351.2598" style="stroke:#181818;stroke-width:1.0;"/><line style="stroke:#181818;stroke-width:1.0;" x1="212" x2="761.5" y1="351.2598" y2="351.2598"/><text fill="#000000" font-family="sans-serif" font-size="13" font-weight="bold" lengthAdjust="spacing" textLength="18" x="219" y="346.5176">24</text><text fill="#000000" font-family="sans-serif" font-size="13" lengthAdjust="spacing" textLength="161" x="241" y="346.5176">createOffer(orderAmount)</text><polygon fill="#181818" points="972.5,376.5703,982.5,380.5703,972.5,384.5703,976.5,380.5703" style="stroke:#181818;stroke-width:1.0;"/><line style="stroke:#181818;stroke-width:1.0;" x1="777.5" x2="978.5" y1="380.5703" y2="380.5703"/><text fill="#000000" font-family="sans-serif" font-size="13" font-weight="bold" lengthAdjust="spacing" textLength="18" x="784.5" y="375.8281">25</text><text fill="#000000" font-family="sans-serif" font-size="13" lengthAdjust="spacing" textLength="161" x="806.5" y="375.8281">createOffer(orderAmount)</text><rect fill="#E3E3E3" height="30.4883" rx="2.5" ry="2.5" style="stroke:#181818;stroke-width:0.5;" width="49" x="984.5" y="359.2598"/><text fill="#000000" font-family="sans-serif" font-size="14" lengthAdjust="spacing" textLength="35" x="991.5" y="379.7949">Offer</text><line style="stroke:#181818;stroke-width:1.0;" x1="777.5" x2="819.5" y1="422.0586" y2="422.0586"/><line style="stroke:#181818;stroke-width:1.0;" x1="819.5" x2="819.5" y1="422.0586" y2="435.0586"/><line style="stroke:#181818;stroke-width:1.0;" x1="778.5" x2="819.5" y1="435.0586" y2="435.0586"/><polygon fill="#181818" points="788.5,431.0586,778.5,435.0586,788.5,439.0586,784.5,435.0586" style="stroke:#181818;stroke-width:1.0;"/><text fill="#000000" font-family="sans-serif" font-size="13" font-weight="bold" lengthAdjust="spacing" textLength="18" x="784.5" y="417.3164">26</text><text fill="#000000" font-family="sans-serif" font-size="13" lengthAdjust="spacing" textLength="93" x="806.5" y="417.3164">addOffer(offer)</text><line style="stroke:#181818;stroke-width:1.0;" x1="777.5" x2="819.5" y1="464.3691" y2="464.3691"/><line style="stroke:#181818;stroke-width:1.0;" x1="819.5" x2="819.5" y1="464.3691" y2="477.3691"/><line style="stroke:#181818;stroke-width:1.0;" x1="778.5" x2="819.5" y1="477.3691" y2="477.3691"/><polygon fill="#181818" points="788.5,473.3691,778.5,477.3691,788.5,481.3691,784.5,477.3691" style="stroke:#181818;stroke-width:1.0;"/><text fill="#000000" font-family="sans-serif" font-size="13" font-weight="bold" lengthAdjust="spacing" textLength="18" x="784.5" y="459.627">27</text><text fill="#000000" font-family="sans-serif" font-size="13" lengthAdjust="spacing" textLength="119" x="806.5" y="459.627">validateOffer(offer)</text><line style="stroke:#181818;stroke-width:1.0;stroke-dasharray:2.0,2.0;" x1="777.5" x2="819.5" y1="506.6797" y2="506.6797"/><line style="stroke:#181818;stroke-width:1.0;stroke-dasharray:2.0,2.0;" x1="819.5" x2="819.5" y1="506.6797" y2="519.6797"/><line style="stroke:#181818;stroke-width:1.0;stroke-dasharray:2.0,2.0;" x1="778.5" x2="819.5" y1="519.6797" y2="519.6797"/><polygon fill="#181818" points="788.5,515.6797,778.5,519.6797,788.5,523.6797,784.5,519.6797" style="stroke:#181818;stroke-width:1.0;"/><text fill="#000000" font-family="sans-serif" font-size="13" font-weight="bold" lengthAdjust="spacing" textLength="18" x="784.5" y="501.9375">28</text><text fill="#000000" font-family="sans-serif" font-size="13" lengthAdjust="spacing" textLength="4" x="806.5" y="501.9375">&#160;</text><line style="stroke:#181818;stroke-width:1.0;stroke-dasharray:2.0,2.0;" x1="777.5" x2="819.5" y1="548.9902" y2="548.9902"/><line style="stroke:#181818;stroke-width:1.0;stroke-dasharray:2.0,2.0;" x1="819.5" x2="819.5" y1="548.9902" y2="561.9902"/><line style="stroke:#181818;stroke-width:1.0;stroke-dasharray:2.0,2.0;" x1="778.5" x2="819.5" y1="561.9902" y2="561.9902"/><polygon fill="#181818" points="788.5,557.9902,778.5,561.9902,788.5,565.9902,784.5,561.9902" style="stroke:#181818;stroke-width:1.0;"/><text fill="#000000" font-family="sans-serif" font-size="13" font-weight="bold" lengthAdjust="spacing" textLength="18" x="784.5" y="544.248">29</text><text fill="#000000" font-family="sans-serif" font-size="13" lengthAdjust="spacing" textLength="4" x="806.5" y="544.248">&#160;</text><polygon fill="#181818" points="223,587.3008,213,591.3008,223,595.3008,219,591.3008" style="stroke:#181818;stroke-width:1.0;"/><line style="stroke:#181818;stroke-width:1.0;stroke-dasharray:2.0,2.0;" x1="217" x2="771.5" y1="591.3008" y2="591.3008"/><text fill="#000000" font-family="sans-serif" font-size="13" font-weight="bold" lengthAdjust="spacing" textLength="18" x="229" y="586.5586">30</text><text fill="#000000" font-family="sans-serif" font-size="13" lengthAdjust="spacing" textLength="30" x="251" y="586.5586">offer</text><polygon fill="#181818" points="11,623.6113,1,627.6113,11,631.6113,7,627.6113" style="stroke:#181818;stroke-width:1.0;"/><line style="stroke:#181818;stroke-width:1.0;stroke-dasharray:2.0,2.0;" x1="5" x2="201" y1="627.6113" y2="627.6113"/><text fill="#000000" font-family="sans-serif" font-size="13" font-weight="bold" lengthAdjust="spacing" textLength="18" x="17" y="622.8691">31</text><text fill="#000000" font-family="sans-serif" font-size="13" lengthAdjust="spacing" textLength="30" x="39" y="622.8691">offer</text><!--SRC=[fP91Ry8m38Nl_XKH9uPK2KwJq3G9iJje5RTTlDQKY3Jfd9I9Vx-qso0fP4FRfL9YlyylpxLxgHjah4Ljj2bsR6eIZbi2UweqMEonejmT5Gccmg6kLDXWTrYQTwahiKLb2S19vrit-NGs5Pd8wQqbNP1uabXr_Mja9r7vqf897OdLTaiCq7JtXMnGEp6QhnKMjEAIU6cqOwCKyKYW5UTZh61gZ9NEi2JxekVFmR7NXHUn4bkt8-tFwAJHfxwZfomIfPwOAiPqqxqkWgxYcvurk8iHVV7S1k0T6ztMhyHYTW-GFGQfYBae-bpxth7f8bpKfjNk3h1myj157eG85Pks6UmYm7bu69t7L-HIJny7CwB08M9aGyUf5K192LxiCENdq-soPVRLZINEoLhV4VfChX6Ir0l_LuU4vjD3Vejwy6VyDU5BqgtP3cGt_L_3KJ24V7CdavzuILba1yloIzjzRrKTKCdoF3OblTJ-eodQI3yoNC85WdG9y91brtGV]--></g></svg>