<?xml version="1.0" encoding="us-ascii" standalone="no"?><svg xmlns="http://www.w3.org/2000/svg" xmlns:xlink="http://www.w3.org/1999/xlink" contentStyleType="text/css" height="1082px" preserveAspectRatio="none" style="width:1781px;height:1082px;background:#FFFFFF;" version="1.1" viewBox="0 0 1781 1082" width="1781px" zoomAndPan="magnify"><defs/><g><text fill="#000000" font-family="sans-serif" font-size="14" font-weight="bold" lengthAdjust="spacing" textLength="295" x="742.25" y="28.5352">US010 - System Sequence Diagram (SSD)</text><rect fill="#FFFFFF" height="863.1836" style="stroke:#181818;stroke-width:1.0;" width="10" x="23" y="128.9766"/><rect fill="#FFFFFF" height="305.2832" style="stroke:#181818;stroke-width:1.0;" width="10" x="521" y="150.2871"/><rect fill="#FFFFFF" height="29.3105" style="stroke:#181818;stroke-width:1.0;" width="10" x="521" y="484.8809"/><rect fill="#FFFFFF" height="381.0371" style="stroke:#181818;stroke-width:1.0;" width="10" x="521" y="543.502"/><rect fill="#FFFFFF" height="38.3105" style="stroke:#181818;stroke-width:1.0;" width="10" x="521" y="953.8496"/><rect fill="#FFFFFF" height="205.1738" style="stroke:#181818;stroke-width:1.0;" width="10" x="756" y="221.0859"/><rect fill="#FFFFFF" height="322.416" style="stroke:#181818;stroke-width:1.0;" width="10" x="756" y="572.8125"/><rect fill="#FFFFFF" height="29.3105" style="stroke:#181818;stroke-width:1.0;" width="10" x="899" y="250.3965"/><rect fill="#FFFFFF" height="29.3105" style="stroke:#181818;stroke-width:1.0;" width="10" x="1049" y="309.0176"/><rect fill="#FFFFFF" height="29.3105" style="stroke:#181818;stroke-width:1.0;" width="10" x="1049" y="602.123"/><rect fill="#FFFFFF" height="29.3105" style="stroke:#181818;stroke-width:1.0;" width="10" x="1049" y="777.9863"/><rect fill="#FFFFFF" height="29.3105" style="stroke:#181818;stroke-width:1.0;" width="10" x="1242" y="367.6387"/><rect fill="#FFFFFF" height="29.3105" style="stroke:#181818;stroke-width:1.0;" width="10" x="1479.5" y="660.7441"/><rect fill="#FFFFFF" height="29.3105" style="stroke:#181818;stroke-width:1.0;" width="10" x="1648.5" y="836.6074"/><rect fill="#FFFFFF" height="29.3105" style="stroke:#181818;stroke-width:1.0;" width="10" x="1746" y="719.3652"/><line style="stroke:#181818;stroke-width:0.5;stroke-dasharray:5.0,5.0;" x1="28" x2="28" y1="118.9766" y2="1001.1602"/><line style="stroke:#181818;stroke-width:0.5;stroke-dasharray:5.0,5.0;" x1="525.5" x2="525.5" y1="118.9766" y2="1001.1602"/><line style="stroke:#181818;stroke-width:0.5;stroke-dasharray:5.0,5.0;" x1="760.5" x2="760.5" y1="189.0313" y2="1001.1602"/><line style="stroke:#181818;stroke-width:0.5;stroke-dasharray:5.0,5.0;" x1="903.5" x2="903.5" y1="118.9766" y2="1001.1602"/><line style="stroke:#181818;stroke-width:0.5;stroke-dasharray:5.0,5.0;" x1="1053.5" x2="1053.5" y1="118.9766" y2="1001.1602"/><line style="stroke:#181818;stroke-width:0.5;stroke-dasharray:5.0,5.0;" x1="1246.5" x2="1246.5" y1="118.9766" y2="1001.1602"/><line style="stroke:#181818;stroke-width:0.5;stroke-dasharray:5.0,5.0;" x1="1484.5" x2="1484.5" y1="118.9766" y2="1001.1602"/><line style="stroke:#181818;stroke-width:0.5;stroke-dasharray:5.0,5.0;" x1="1653.5" x2="1653.5" y1="118.9766" y2="1001.1602"/><line style="stroke:#181818;stroke-width:0.5;stroke-dasharray:5.0,5.0;" x1="1750.5" x2="1750.5" y1="118.9766" y2="1001.1602"/><text fill="#000000" font-family="sans-serif" font-size="14" lengthAdjust="spacing" textLength="40" x="5" y="116.0234">Client</text><ellipse cx="28" cy="50.9883" fill="#E3E3E3" rx="8" ry="8" style="stroke:#181818;stroke-width:0.5;"/><path d="M28,58.9883 L28,85.9883 M15,66.9883 L41,66.9883 M28,85.9883 L15,100.9883 M28,85.9883 L41,100.9883 " fill="none" style="stroke:#181818;stroke-width:0.5;"/><text fill="#000000" font-family="sans-serif" font-size="14" lengthAdjust="spacing" textLength="40" x="5" y="1013.6953">Client</text><ellipse cx="28" cy="1025.1484" fill="#E3E3E3" rx="8" ry="8" style="stroke:#181818;stroke-width:0.5;"/><path d="M28,1033.1484 L28,1060.1484 M15,1041.1484 L41,1041.1484 M28,1060.1484 L15,1075.1484 M28,1060.1484 L41,1075.1484 " fill="none" style="stroke:#181818;stroke-width:0.5;"/><rect fill="#E3E3E3" height="30.4883" rx="2.5" ry="2.5" style="stroke:#181818;stroke-width:0.5;" width="107" x="472.5" y="87.4883"/><text fill="#000000" font-family="sans-serif" font-size="14" lengthAdjust="spacing" textLength="93" x="479.5" y="108.0234">:PlaceOrderUI</text><rect fill="#E3E3E3" height="30.4883" rx="2.5" ry="2.5" style="stroke:#181818;stroke-width:0.5;" width="107" x="472.5" y="1000.1602"/><text fill="#000000" font-family="sans-serif" font-size="14" lengthAdjust="spacing" textLength="93" x="479.5" y="1020.6953">:PlaceOrderUI</text><rect fill="#E3E3E3" height="30.4883" rx="2.5" ry="2.5" style="stroke:#181818;stroke-width:0.5;" width="163" x="679.5" y="1000.1602"/><text fill="#000000" font-family="sans-serif" font-size="14" lengthAdjust="spacing" textLength="149" x="686.5" y="1020.6953">:PlaceOrderController</text><rect fill="#E3E3E3" height="30.4883" rx="2.5" ry="2.5" style="stroke:#181818;stroke-width:0.5;" width="103" x="852.5" y="87.4883"/><text fill="#000000" font-family="sans-serif" font-size="14" lengthAdjust="spacing" textLength="89" x="859.5" y="108.0234">:Repositories</text><rect fill="#E3E3E3" height="30.4883" rx="2.5" ry="2.5" style="stroke:#181818;stroke-width:0.5;" width="103" x="852.5" y="1000.1602"/><text fill="#000000" font-family="sans-serif" font-size="14" lengthAdjust="spacing" textLength="89" x="859.5" y="1020.6953">:Repositories</text><rect fill="#E3E3E3" height="46.9766" rx="2.5" ry="2.5" style="stroke:#181818;stroke-width:0.5;" width="103" x="1002.5" y="71"/><text fill="#000000" font-family="sans-serif" font-size="14" lengthAdjust="spacing" textLength="82" x="1013" y="91.5352">repositories</text><text fill="#000000" font-family="sans-serif" font-size="14" lengthAdjust="spacing" textLength="89" x="1009.5" y="108.0234">:Repositories</text><rect fill="#E3E3E3" height="46.9766" rx="2.5" ry="2.5" style="stroke:#181818;stroke-width:0.5;" width="103" x="1002.5" y="1000.1602"/><text fill="#000000" font-family="sans-serif" font-size="14" lengthAdjust="spacing" textLength="82" x="1013" y="1020.6953">repositories</text><text fill="#000000" font-family="sans-serif" font-size="14" lengthAdjust="spacing" textLength="89" x="1009.5" y="1037.1836">:Repositories</text><rect fill="#E3E3E3" height="46.9766" rx="2.5" ry="2.5" style="stroke:#181818;stroke-width:0.5;" width="263" x="1115.5" y="71"/><text fill="#000000" font-family="sans-serif" font-size="14" lengthAdjust="spacing" textLength="246" x="1124" y="91.5352">publishedAnnouncementRepository</text><text fill="#000000" font-family="sans-serif" font-size="14" lengthAdjust="spacing" textLength="249" x="1122.5" y="108.0234">:PublishedAnnouncementRepository</text><rect fill="#E3E3E3" height="46.9766" rx="2.5" ry="2.5" style="stroke:#181818;stroke-width:0.5;" width="263" x="1115.5" y="1000.1602"/><text fill="#000000" font-family="sans-serif" font-size="14" lengthAdjust="spacing" textLength="246" x="1124" y="1020.6953">publishedAnnouncementRepository</text><text fill="#000000" font-family="sans-serif" font-size="14" lengthAdjust="spacing" textLength="249" x="1122.5" y="1037.1836">:PublishedAnnouncementRepository</text><rect fill="#E3E3E3" height="46.9766" rx="2.5" ry="2.5" style="stroke:#181818;stroke-width:0.5;" width="192" x="1388.5" y="71"/><text fill="#000000" font-family="sans-serif" font-size="14" lengthAdjust="spacing" textLength="172" x="1398.5" y="91.5352">authenticationRepository</text><text fill="#000000" font-family="sans-serif" font-size="14" lengthAdjust="spacing" textLength="178" x="1395.5" y="108.0234">:AuthenticationRepository</text><rect fill="#E3E3E3" height="46.9766" rx="2.5" ry="2.5" style="stroke:#181818;stroke-width:0.5;" width="192" x="1388.5" y="1000.1602"/><text fill="#000000" font-family="sans-serif" font-size="14" lengthAdjust="spacing" textLength="172" x="1398.5" y="1020.6953">authenticationRepository</text><text fill="#000000" font-family="sans-serif" font-size="14" lengthAdjust="spacing" textLength="178" x="1395.5" y="1037.1836">:AuthenticationRepository</text><rect fill="#E3E3E3" height="46.9766" rx="2.5" ry="2.5" style="stroke:#181818;stroke-width:0.5;" width="126" x="1590.5" y="71"/><text fill="#000000" font-family="sans-serif" font-size="14" lengthAdjust="spacing" textLength="106" x="1600.5" y="91.5352">offerRepository</text><text fill="#000000" font-family="sans-serif" font-size="14" lengthAdjust="spacing" textLength="112" x="1597.5" y="108.0234">:OfferRepository</text><rect fill="#E3E3E3" height="46.9766" rx="2.5" ry="2.5" style="stroke:#181818;stroke-width:0.5;" width="126" x="1590.5" y="1000.1602"/><text fill="#000000" font-family="sans-serif" font-size="14" lengthAdjust="spacing" textLength="106" x="1600.5" y="1020.6953">offerRepository</text><text fill="#000000" font-family="sans-serif" font-size="14" lengthAdjust="spacing" textLength="112" x="1597.5" y="1037.1836">:OfferRepository</text><rect fill="#E3E3E3" height="30.4883" rx="2.5" ry="2.5" style="stroke:#181818;stroke-width:0.5;" width="49" x="1726.5" y="87.4883"/><text fill="#000000" font-family="sans-serif" font-size="14" lengthAdjust="spacing" textLength="35" x="1733.5" y="108.0234">Offer</text><rect fill="#E3E3E3" height="30.4883" rx="2.5" ry="2.5" style="stroke:#181818;stroke-width:0.5;" width="49" x="1726.5" y="1000.1602"/><text fill="#000000" font-family="sans-serif" font-size="14" lengthAdjust="spacing" textLength="35" x="1733.5" y="1020.6953">Offer</text><rect fill="#FFFFFF" height="863.1836" style="stroke:#181818;stroke-width:1.0;" width="10" x="23" y="128.9766"/><rect fill="#FFFFFF" height="305.2832" style="stroke:#181818;stroke-width:1.0;" width="10" x="521" y="150.2871"/><rect fill="#FFFFFF" height="29.3105" style="stroke:#181818;stroke-width:1.0;" width="10" x="521" y="484.8809"/><rect fill="#FFFFFF" height="381.0371" style="stroke:#181818;stroke-width:1.0;" width="10" x="521" y="543.502"/><rect fill="#FFFFFF" height="38.3105" style="stroke:#181818;stroke-width:1.0;" width="10" x="521" y="953.8496"/><rect fill="#FFFFFF" height="205.1738" style="stroke:#181818;stroke-width:1.0;" width="10" x="756" y="221.0859"/><rect fill="#FFFFFF" height="322.416" style="stroke:#181818;stroke-width:1.0;" width="10" x="756" y="572.8125"/><rect fill="#FFFFFF" height="29.3105" style="stroke:#181818;stroke-width:1.0;" width="10" x="899" y="250.3965"/><rect fill="#FFFFFF" height="29.3105" style="stroke:#181818;stroke-width:1.0;" width="10" x="1049" y="309.0176"/><rect fill="#FFFFFF" height="29.3105" style="stroke:#181818;stroke-width:1.0;" width="10" x="1049" y="602.123"/><rect fill="#FFFFFF" height="29.3105" style="stroke:#181818;stroke-width:1.0;" width="10" x="1049" y="777.9863"/><rect fill="#FFFFFF" height="29.3105" style="stroke:#181818;stroke-width:1.0;" width="10" x="1242" y="367.6387"/><rect fill="#FFFFFF" height="29.3105" style="stroke:#181818;stroke-width:1.0;" width="10" x="1479.5" y="660.7441"/><rect fill="#FFFFFF" height="29.3105" style="stroke:#181818;stroke-width:1.0;" width="10" x="1648.5" y="836.6074"/><rect fill="#FFFFFF" height="29.3105" style="stroke:#181818;stroke-width:1.0;" width="10" x="1746" y="719.3652"/><polygon fill="#181818" points="509,146.2871,519,150.2871,509,154.2871,513,150.2871" style="stroke:#181818;stroke-width:1.0;"/><line style="stroke:#181818;stroke-width:1.0;" x1="33" x2="515" y1="150.2871" y2="150.2871"/><text fill="#000000" font-family="sans-serif" font-size="13" font-weight="bold" lengthAdjust="spacing" textLength="9" x="40" y="145.5449">1</text><text fill="#000000" font-family="sans-serif" font-size="13" lengthAdjust="spacing" textLength="227" x="53" y="145.5449">asks to place an order on a property</text><polygon fill="#181818" points="667.5,175.5977,677.5,179.5977,667.5,183.5977,671.5,179.5977" style="stroke:#181818;stroke-width:1.0;"/><line style="stroke:#181818;stroke-width:1.0;" x1="531" x2="673.5" y1="179.5977" y2="179.5977"/><text fill="#000000" font-family="sans-serif" font-size="13" font-weight="bold" lengthAdjust="spacing" textLength="9" x="538" y="174.8555">2</text><text fill="#000000" font-family="sans-serif" font-size="13" lengthAdjust="spacing" textLength="38" x="551" y="174.8555">create</text><rect fill="#E3E3E3" height="30.4883" rx="2.5" ry="2.5" style="stroke:#181818;stroke-width:0.5;" width="163" x="679.5" y="158.2871"/><text fill="#000000" font-family="sans-serif" font-size="14" lengthAdjust="spacing" textLength="149" x="686.5" y="178.8223">:PlaceOrderController</text><polygon fill="#181818" points="744,217.0859,754,221.0859,744,225.0859,748,221.0859" style="stroke:#181818;stroke-width:1.0;"/><line style="stroke:#181818;stroke-width:1.0;" x1="531" x2="750" y1="221.0859" y2="221.0859"/><text fill="#000000" font-family="sans-serif" font-size="13" font-weight="bold" lengthAdjust="spacing" textLength="9" x="538" y="216.3438">3</text><text fill="#000000" font-family="sans-serif" font-size="13" lengthAdjust="spacing" textLength="184" x="551" y="216.3438">getPublishedAnnouncement()</text><polygon fill="#181818" points="887,246.3965,897,250.3965,887,254.3965,891,250.3965" style="stroke:#181818;stroke-width:1.0;"/><line style="stroke:#181818;stroke-width:1.0;" x1="766" x2="893" y1="250.3965" y2="250.3965"/><text fill="#000000" font-family="sans-serif" font-size="13" font-weight="bold" lengthAdjust="spacing" textLength="9" x="773" y="245.6543">4</text><text fill="#000000" font-family="sans-serif" font-size="13" lengthAdjust="spacing" textLength="81" x="786" y="245.6543">getInstance()</text><polygon fill="#181818" points="777,275.707,767,279.707,777,283.707,773,279.707" style="stroke:#181818;stroke-width:1.0;"/><line style="stroke:#181818;stroke-width:1.0;stroke-dasharray:2.0,2.0;" x1="771" x2="903" y1="279.707" y2="279.707"/><text fill="#000000" font-family="sans-serif" font-size="13" font-weight="bold" lengthAdjust="spacing" textLength="9" x="783" y="274.9648">5</text><text fill="#000000" font-family="sans-serif" font-size="13" lengthAdjust="spacing" textLength="75" x="796" y="274.9648">repositories</text><polygon fill="#181818" points="1037,305.0176,1047,309.0176,1037,313.0176,1041,309.0176" style="stroke:#181818;stroke-width:1.0;"/><line style="stroke:#181818;stroke-width:1.0;" x1="766" x2="1043" y1="309.0176" y2="309.0176"/><text fill="#000000" font-family="sans-serif" font-size="13" font-weight="bold" lengthAdjust="spacing" textLength="9" x="773" y="304.2754">6</text><text fill="#000000" font-family="sans-serif" font-size="13" lengthAdjust="spacing" textLength="251" x="786" y="304.2754">getPublishedAnnouncementRepository()</text><polygon fill="#181818" points="777,334.3281,767,338.3281,777,342.3281,773,338.3281" style="stroke:#181818;stroke-width:1.0;"/><line style="stroke:#181818;stroke-width:1.0;stroke-dasharray:2.0,2.0;" x1="771" x2="1053" y1="338.3281" y2="338.3281"/><text fill="#000000" font-family="sans-serif" font-size="13" font-weight="bold" lengthAdjust="spacing" textLength="9" x="783" y="333.5859">7</text><text fill="#000000" font-family="sans-serif" font-size="13" lengthAdjust="spacing" textLength="223" x="796" y="333.5859">PublishedAnnouncementRepository</text><polygon fill="#181818" points="1230,363.6387,1240,367.6387,1230,371.6387,1234,367.6387" style="stroke:#181818;stroke-width:1.0;"/><line style="stroke:#181818;stroke-width:1.0;" x1="766" x2="1236" y1="367.6387" y2="367.6387"/><text fill="#000000" font-family="sans-serif" font-size="13" font-weight="bold" lengthAdjust="spacing" textLength="9" x="773" y="362.8965">8</text><text fill="#000000" font-family="sans-serif" font-size="13" lengthAdjust="spacing" textLength="184" x="786" y="362.8965">getPublishedAnnouncement()</text><polygon fill="#181818" points="777,392.9492,767,396.9492,777,400.9492,773,396.9492" style="stroke:#181818;stroke-width:1.0;"/><line style="stroke:#181818;stroke-width:1.0;stroke-dasharray:2.0,2.0;" x1="771" x2="1246" y1="396.9492" y2="396.9492"/><text fill="#000000" font-family="sans-serif" font-size="13" font-weight="bold" lengthAdjust="spacing" textLength="9" x="783" y="392.207">9</text><text fill="#000000" font-family="sans-serif" font-size="13" lengthAdjust="spacing" textLength="179" x="796" y="392.207">PublishedAnnouncementList</text><polygon fill="#181818" points="542,422.2598,532,426.2598,542,430.2598,538,426.2598" style="stroke:#181818;stroke-width:1.0;"/><line style="stroke:#181818;stroke-width:1.0;stroke-dasharray:2.0,2.0;" x1="536" x2="760" y1="426.2598" y2="426.2598"/><text fill="#000000" font-family="sans-serif" font-size="13" font-weight="bold" lengthAdjust="spacing" textLength="18" x="548" y="421.5176">10</text><text fill="#000000" font-family="sans-serif" font-size="13" lengthAdjust="spacing" textLength="179" x="570" y="421.5176">PublishedAnnouncementList</text><polygon fill="#181818" points="44,451.5703,34,455.5703,44,459.5703,40,455.5703" style="stroke:#181818;stroke-width:1.0;"/><line style="stroke:#181818;stroke-width:1.0;stroke-dasharray:2.0,2.0;" x1="38" x2="525" y1="455.5703" y2="455.5703"/><text fill="#000000" font-family="sans-serif" font-size="13" font-weight="bold" lengthAdjust="spacing" textLength="18" x="50" y="450.8281">11</text><text fill="#000000" font-family="sans-serif" font-size="13" lengthAdjust="spacing" textLength="173" x="72" y="450.8281">shows the list of properties</text><polygon fill="#181818" points="509,480.8809,519,484.8809,509,488.8809,513,484.8809" style="stroke:#181818;stroke-width:1.0;"/><line style="stroke:#181818;stroke-width:1.0;" x1="33" x2="515" y1="484.8809" y2="484.8809"/><text fill="#000000" font-family="sans-serif" font-size="13" font-weight="bold" lengthAdjust="spacing" textLength="18" x="40" y="480.1387">12</text><text fill="#000000" font-family="sans-serif" font-size="13" lengthAdjust="spacing" textLength="175" x="62" y="480.1387">selects the desired property</text><polygon fill="#181818" points="44,510.1914,34,514.1914,44,518.1914,40,514.1914" style="stroke:#181818;stroke-width:1.0;"/><line style="stroke:#181818;stroke-width:1.0;stroke-dasharray:2.0,2.0;" x1="38" x2="525" y1="514.1914" y2="514.1914"/><text fill="#000000" font-family="sans-serif" font-size="13" font-weight="bold" lengthAdjust="spacing" textLength="18" x="50" y="509.4492">13</text><text fill="#000000" font-family="sans-serif" font-size="13" lengthAdjust="spacing" textLength="160" x="72" y="509.4492">request the order amount</text><polygon fill="#181818" points="509,539.502,519,543.502,509,547.502,513,543.502" style="stroke:#181818;stroke-width:1.0;"/><line style="stroke:#181818;stroke-width:1.0;" x1="33" x2="515" y1="543.502" y2="543.502"/><text fill="#000000" font-family="sans-serif" font-size="13" font-weight="bold" lengthAdjust="spacing" textLength="18" x="40" y="538.7598">14</text><text fill="#000000" font-family="sans-serif" font-size="13" lengthAdjust="spacing" textLength="447" x="62" y="538.7598">places an order to purchase a property by submitting the order amount</text><polygon fill="#181818" points="744,568.8125,754,572.8125,744,576.8125,748,572.8125" style="stroke:#181818;stroke-width:1.0;"/><line style="stroke:#181818;stroke-width:1.0;" x1="531" x2="750" y1="572.8125" y2="572.8125"/><text fill="#000000" font-family="sans-serif" font-size="13" font-weight="bold" lengthAdjust="spacing" textLength="18" x="538" y="568.0703">15</text><text fill="#000000" font-family="sans-serif" font-size="13" lengthAdjust="spacing" textLength="161" x="560" y="568.0703">createOffer(orderAmount)</text><polygon fill="#181818" points="1037,598.123,1047,602.123,1037,606.123,1041,602.123" style="stroke:#181818;stroke-width:1.0;"/><line style="stroke:#181818;stroke-width:1.0;" x1="766" x2="1043" y1="602.123" y2="602.123"/><text fill="#000000" font-family="sans-serif" font-size="13" font-weight="bold" lengthAdjust="spacing" textLength="18" x="773" y="597.3809">16</text><text fill="#000000" font-family="sans-serif" font-size="13" lengthAdjust="spacing" textLength="188" x="795" y="597.3809">getAuthenticationRepository()</text><polygon fill="#181818" points="777,627.4336,767,631.4336,777,635.4336,773,631.4336" style="stroke:#181818;stroke-width:1.0;"/><line style="stroke:#181818;stroke-width:1.0;stroke-dasharray:2.0,2.0;" x1="771" x2="1053" y1="631.4336" y2="631.4336"/><text fill="#000000" font-family="sans-serif" font-size="13" font-weight="bold" lengthAdjust="spacing" textLength="18" x="783" y="626.6914">17</text><text fill="#000000" font-family="sans-serif" font-size="13" lengthAdjust="spacing" textLength="158" x="805" y="626.6914">authenticationRepository</text><polygon fill="#181818" points="1467.5,656.7441,1477.5,660.7441,1467.5,664.7441,1471.5,660.7441" style="stroke:#181818;stroke-width:1.0;"/><line style="stroke:#181818;stroke-width:1.0;" x1="766" x2="1473.5" y1="660.7441" y2="660.7441"/><text fill="#000000" font-family="sans-serif" font-size="13" font-weight="bold" lengthAdjust="spacing" textLength="18" x="773" y="656.002">18</text><text fill="#000000" font-family="sans-serif" font-size="13" lengthAdjust="spacing" textLength="151" x="795" y="656.002">getCurrentUserSession()</text><polygon fill="#181818" points="777,686.0547,767,690.0547,777,694.0547,773,690.0547" style="stroke:#181818;stroke-width:1.0;"/><line style="stroke:#181818;stroke-width:1.0;stroke-dasharray:2.0,2.0;" x1="771" x2="1483.5" y1="690.0547" y2="690.0547"/><text fill="#000000" font-family="sans-serif" font-size="13" font-weight="bold" lengthAdjust="spacing" textLength="18" x="783" y="685.3125">19</text><text fill="#000000" font-family="sans-serif" font-size="13" lengthAdjust="spacing" textLength="143" x="805" y="685.3125">getCurrentUserSession</text><polygon fill="#181818" points="1734,715.3652,1744,719.3652,1734,723.3652,1738,719.3652" style="stroke:#181818;stroke-width:1.0;"/><line style="stroke:#181818;stroke-width:1.0;" x1="766" x2="1740" y1="719.3652" y2="719.3652"/><text fill="#000000" font-family="sans-serif" font-size="13" font-weight="bold" lengthAdjust="spacing" textLength="18" x="773" y="714.623">20</text><text fill="#000000" font-family="sans-serif" font-size="13" lengthAdjust="spacing" textLength="323" x="795" y="714.623">Offer(user, publishedAnnouncement, orderAmount)</text><polygon fill="#181818" points="777,744.6758,767,748.6758,777,752.6758,773,748.6758" style="stroke:#181818;stroke-width:1.0;"/><line style="stroke:#181818;stroke-width:1.0;stroke-dasharray:2.0,2.0;" x1="771" x2="1750" y1="748.6758" y2="748.6758"/><text fill="#000000" font-family="sans-serif" font-size="13" font-weight="bold" lengthAdjust="spacing" textLength="18" x="783" y="743.9336">21</text><text fill="#000000" font-family="sans-serif" font-size="13" lengthAdjust="spacing" textLength="30" x="805" y="743.9336">offer</text><polygon fill="#181818" points="1037,773.9863,1047,777.9863,1037,781.9863,1041,777.9863" style="stroke:#181818;stroke-width:1.0;"/><line style="stroke:#181818;stroke-width:1.0;" x1="766" x2="1043" y1="777.9863" y2="777.9863"/><text fill="#000000" font-family="sans-serif" font-size="13" font-weight="bold" lengthAdjust="spacing" textLength="18" x="773" y="773.2441">22</text><text fill="#000000" font-family="sans-serif" font-size="13" lengthAdjust="spacing" textLength="127" x="795" y="773.2441">getOfferRepository()</text><polygon fill="#181818" points="777,803.2969,767,807.2969,777,811.2969,773,807.2969" style="stroke:#181818;stroke-width:1.0;"/><line style="stroke:#181818;stroke-width:1.0;stroke-dasharray:2.0,2.0;" x1="771" x2="1053" y1="807.2969" y2="807.2969"/><text fill="#000000" font-family="sans-serif" font-size="13" font-weight="bold" lengthAdjust="spacing" textLength="18" x="783" y="802.5547">23</text><text fill="#000000" font-family="sans-serif" font-size="13" lengthAdjust="spacing" textLength="119" x="805" y="802.5547">getOfferRepository</text><polygon fill="#181818" points="1636.5,832.6074,1646.5,836.6074,1636.5,840.6074,1640.5,836.6074" style="stroke:#181818;stroke-width:1.0;"/><line style="stroke:#181818;stroke-width:1.0;" x1="766" x2="1642.5" y1="836.6074" y2="836.6074"/><text fill="#000000" font-family="sans-serif" font-size="13" font-weight="bold" lengthAdjust="spacing" textLength="18" x="773" y="831.8652">24</text><text fill="#000000" font-family="sans-serif" font-size="13" lengthAdjust="spacing" textLength="93" x="795" y="831.8652">addOffer(offer)</text><polygon fill="#181818" points="777,861.918,767,865.918,777,869.918,773,865.918" style="stroke:#181818;stroke-width:1.0;"/><line style="stroke:#181818;stroke-width:1.0;stroke-dasharray:2.0,2.0;" x1="771" x2="1652.5" y1="865.918" y2="865.918"/><text fill="#000000" font-family="sans-serif" font-size="13" font-weight="bold" lengthAdjust="spacing" textLength="18" x="783" y="861.1758">25</text><text fill="#000000" font-family="sans-serif" font-size="13" lengthAdjust="spacing" textLength="55" x="805" y="861.1758">addOffer</text><polygon fill="#181818" points="542,891.2285,532,895.2285,542,899.2285,538,895.2285" style="stroke:#181818;stroke-width:1.0;"/><line style="stroke:#181818;stroke-width:1.0;stroke-dasharray:2.0,2.0;" x1="536" x2="760" y1="895.2285" y2="895.2285"/><text fill="#000000" font-family="sans-serif" font-size="13" font-weight="bold" lengthAdjust="spacing" textLength="18" x="548" y="890.4863">26</text><text fill="#000000" font-family="sans-serif" font-size="13" lengthAdjust="spacing" textLength="70" x="570" y="890.4863">createOffer</text><polygon fill="#181818" points="44,920.5391,34,924.5391,44,928.5391,40,924.5391" style="stroke:#181818;stroke-width:1.0;"/><line style="stroke:#181818;stroke-width:1.0;stroke-dasharray:2.0,2.0;" x1="38" x2="525" y1="924.5391" y2="924.5391"/><text fill="#000000" font-family="sans-serif" font-size="13" font-weight="bold" lengthAdjust="spacing" textLength="18" x="50" y="919.7969">27</text><text fill="#000000" font-family="sans-serif" font-size="13" lengthAdjust="spacing" textLength="333" x="72" y="919.7969">shows that an order to purchase was been submitted</text><polygon fill="#181818" points="509,949.8496,519,953.8496,509,957.8496,513,953.8496" style="stroke:#181818;stroke-width:1.0;"/><line style="stroke:#181818;stroke-width:1.0;" x1="33" x2="515" y1="953.8496" y2="953.8496"/><text fill="#000000" font-family="sans-serif" font-size="13" font-weight="bold" lengthAdjust="spacing" textLength="18" x="40" y="949.1074">28</text><text fill="#000000" font-family="sans-serif" font-size="13" lengthAdjust="spacing" textLength="82" x="62" y="949.1074">submits data</text><polygon fill="#181818" points="44,979.1602,34,983.1602,44,987.1602,40,983.1602" style="stroke:#181818;stroke-width:1.0;"/><line style="stroke:#181818;stroke-width:1.0;stroke-dasharray:2.0,2.0;" x1="38" x2="520" y1="983.1602" y2="983.1602"/><text fill="#000000" font-family="sans-serif" font-size="13" font-weight="bold" lengthAdjust="spacing" textLength="18" x="50" y="978.418">29</text><text fill="#000000" font-family="sans-serif" font-size="13" lengthAdjust="spacing" textLength="170" x="72" y="978.418">displays operation success</text><!--SRC=[dLTBRzim3BxhLn2zf2qQeBiMw82YtQ70W1OpUjj5iPbOYoDvahmi_twK72UI8p_M7DfK8Z- -FfAgsGfPSyrti5DIvQLMEmIh6sJcT5FpVCitcDb3XQ0njrnkgb30bBnGUo4tiEQLGSQii2JwaTr_kOSbP0TZSGSP_cvGvWWlWc-SsdMMlTmmnXkhPBDReQRlkLKQhfuhWT9U0JVGVcLao8fSr5nQk7fuhtYERxf0_V7gfLeJWrBFIbgjgWfrYtdwiwVn0sjb1BaWq7Z9qy4X4oveyZHMqO76Jpa2G0UnPjsiAc5AB9waL0tbPKTndkqHsFkuXCUVa8bDKgPBkXOvjqB9oDRJm9KtCdGPewlr6dK4-XQVUApUMGpXByzYdW_Y3xVOqO2rls7vjMFL0qbl3LW5jIitS0dAbHoK10wrLZLgUpW37Pd2Zke4T6R3xIt1vHf9BYr0rnkqoPnVtmJEdld50cM2Il2fnNoLXjegnn0cHJwMGbX6JZv0I4fMu3ZWW8EaEXBj6IdfiBFB8gY-YrEyJNdjKMDt9s1crclA6JPbPjbdILBXkp0s36pIR1XhoFXPw249EouxDzi6Ug2XhVRKDoK2OLbGwwvPUgJf6YRHUGOhsWOjI856Q2ncT5peX7OxWQmxXBPj-OuYiZCTy2rlpZtlfa2Zyv8R39eVLWSmpMedh7KxwiBMhDbmcWn-CbrxW2Ul_t-DV-gheQ7wgOPoOt1eICzifI5_Mc-V6wtfziEWpj0OaWZz75mGR11rcHYibqP2vuUDn87u0X5WMwY6mEuWkMpl85t5u-vfSIxyz6ikzEieFbNltkBxR9alaOOBl4Wa9YfiNcA-_VQN-fyQuqXiz_E6BUBm0ciBjkW3NJXvYSiM_Op5a40VLLiGwuGoF3wsRzAZ87s6HcFAyaafDO7QrmED14SKDq3sN5WWGeZA7zSe2pSrkaab3A2W2veUUOwrfP57BrQDlsWIOj4P8wKaBQFiywA8SZwO7pQPy0wAZMHvS9q4SsreWVYWU6MZmUboOHeQiKA5MOPAgTeLiZzedNmfDYvtjgIPxU_t4lN2TEbj5qWULdgyScjAFWU9Uz8JJY_KkbmYFTYHbU8nM-_tL6-tOuHS-rZZxH41ZjXpbEZOGVyaNMIcGmzrac5xshMSFIsxO_hEceEXUsQElGUuJU_JFRtALuYoMwL4zfcl12zleE2MptiL5C9G6Gu6tFxsqvv0A6n3Cutz0m00]--></g></svg>