<?xml version="1.0" encoding="us-ascii" standalone="no"?><svg xmlns="http://www.w3.org/2000/svg" xmlns:xlink="http://www.w3.org/1999/xlink" contentStyleType="text/css" height="355px" preserveAspectRatio="none" style="width:1405px;height:355px;background:#FFFFFF;" version="1.1" viewBox="0 0 1405 355" width="1405px" zoomAndPan="magnify"><defs/><g><text fill="#000000" font-family="sans-serif" font-size="14" font-weight="bold" lengthAdjust="spacing" textLength="169" x="611" y="23.5352">US010 - Class Diagram</text><!--class PlaceOrderUI--><g id="elem_PlaceOrderUI"><rect codeLine="9" fill="#F1F1F1" height="48" id="PlaceOrderUI" rx="2.5" ry="2.5" style="stroke:#181818;stroke-width:0.5;" width="121" x="497" y="85.4883"/><ellipse cx="512" cy="101.4883" fill="#ADD1B2" rx="11" ry="11" style="stroke:#181818;stroke-width:1.0;"/><path d="M514.9731,107.1313 Q514.3921,107.4302 513.7529,107.5796 Q513.1138,107.729 512.4082,107.729 Q509.9014,107.729 508.5815,106.0771 Q507.2617,104.4253 507.2617,101.3042 Q507.2617,98.1748 508.5815,96.5229 Q509.9014,94.8711 512.4082,94.8711 Q513.1138,94.8711 513.7612,95.0205 Q514.4087,95.1699 514.9731,95.4688 L514.9731,98.1914 Q514.3423,97.6104 513.7488,97.3406 Q513.1553,97.0708 512.5244,97.0708 Q511.1797,97.0708 510.4949,98.1375 Q509.8101,99.2041 509.8101,101.3042 Q509.8101,103.396 510.4949,104.4626 Q511.1797,105.5293 512.5244,105.5293 Q513.1553,105.5293 513.7488,105.2595 Q514.3423,104.9897 514.9731,104.4087 Z " fill="#000000"/><text fill="#000000" font-family="sans-serif" font-size="14" lengthAdjust="spacing" textLength="89" x="526" y="106.7793">PlaceOrderUI</text><line style="stroke:#181818;stroke-width:0.5;" x1="498" x2="617" y1="117.4883" y2="117.4883"/><line style="stroke:#181818;stroke-width:0.5;" x1="498" x2="617" y1="125.4883" y2="125.4883"/></g><!--class PlaceOrderController--><g id="elem_PlaceOrderController"><rect codeLine="13" fill="#F1F1F1" height="80.9766" id="PlaceOrderController" rx="2.5" ry="2.5" style="stroke:#181818;stroke-width:0.5;" width="230" x="653.5" y="68.9883"/><ellipse cx="692.35" cy="84.9883" fill="#ADD1B2" rx="11" ry="11" style="stroke:#181818;stroke-width:1.0;"/><path d="M695.3231,90.6313 Q694.7421,90.9302 694.1029,91.0796 Q693.4638,91.229 692.7582,91.229 Q690.2514,91.229 688.9315,89.5771 Q687.6117,87.9253 687.6117,84.8042 Q687.6117,81.6748 688.9315,80.0229 Q690.2514,78.3711 692.7582,78.3711 Q693.4638,78.3711 694.1112,78.5205 Q694.7587,78.6699 695.3231,78.9688 L695.3231,81.6914 Q694.6923,81.1104 694.0988,80.8406 Q693.5053,80.5708 692.8744,80.5708 Q691.5297,80.5708 690.8449,81.6375 Q690.1601,82.7041 690.1601,84.8042 Q690.1601,86.896 690.8449,87.9626 Q691.5297,89.0293 692.8744,89.0293 Q693.5053,89.0293 694.0988,88.7595 Q694.6923,88.4897 695.3231,87.9087 Z " fill="#000000"/><text fill="#000000" font-family="sans-serif" font-size="14" lengthAdjust="spacing" textLength="145" x="711.65" y="90.2793">PlaceOrderController</text><line style="stroke:#181818;stroke-width:0.5;" x1="654.5" x2="882.5" y1="100.9883" y2="100.9883"/><line style="stroke:#181818;stroke-width:0.5;" x1="654.5" x2="882.5" y1="108.9883" y2="108.9883"/><ellipse cx="664.5" cy="122.7324" fill="#84BE84" rx="3" ry="3" style="stroke:#038048;stroke-width:1.0;"/><text fill="#000000" font-family="sans-serif" font-size="14" lengthAdjust="spacing" textLength="204" x="673.5" y="126.5234">getPublishedAnnouncement()</text><ellipse cx="664.5" cy="139.2207" fill="#84BE84" rx="3" ry="3" style="stroke:#038048;stroke-width:1.0;"/><text fill="#000000" font-family="sans-serif" font-size="14" lengthAdjust="spacing" textLength="180" x="673.5" y="143.0117">createOffer(orderAmount)</text></g><!--class PublishedAnnouncemtRepository--><g id="elem_PublishedAnnouncemtRepository"><rect codeLine="18" fill="#F1F1F1" height="80.9766" id="PublishedAnnouncemtRepository" rx="2.5" ry="2.5" style="stroke:#181818;stroke-width:0.5;" width="424" x="417.5" y="259.4883"/><ellipse cx="511.25" cy="275.4883" fill="#ADD1B2" rx="11" ry="11" style="stroke:#181818;stroke-width:1.0;"/><path d="M514.2231,281.1313 Q513.6421,281.4302 513.0029,281.5796 Q512.3638,281.729 511.6582,281.729 Q509.1514,281.729 507.8315,280.0771 Q506.5117,278.4253 506.5117,275.3042 Q506.5117,272.1748 507.8315,270.5229 Q509.1514,268.8711 511.6582,268.8711 Q512.3638,268.8711 513.0112,269.0205 Q513.6587,269.1699 514.2231,269.4688 L514.2231,272.1914 Q513.5923,271.6104 512.9988,271.3406 Q512.4053,271.0708 511.7744,271.0708 Q510.4297,271.0708 509.7449,272.1375 Q509.0601,273.2041 509.0601,275.3042 Q509.0601,277.396 509.7449,278.4626 Q510.4297,279.5293 511.7744,279.5293 Q512.4053,279.5293 512.9988,279.2595 Q513.5923,278.9897 514.2231,278.4087 Z " fill="#000000"/><text fill="#000000" font-family="sans-serif" font-size="14" lengthAdjust="spacing" textLength="228" x="531.75" y="280.7793">PublishedAnnouncemtRepository</text><line style="stroke:#181818;stroke-width:0.5;" x1="418.5" x2="840.5" y1="291.4883" y2="291.4883"/><rect fill="none" height="6" style="stroke:#C82930;stroke-width:1.0;" width="6" x="425.5" y="302.2324"/><text fill="#000000" font-family="sans-serif" font-size="14" lengthAdjust="spacing" textLength="398" x="437.5" y="309.0234">List &lt;PublishedAnnouncement&gt; publishedAnnouncement</text><line style="stroke:#181818;stroke-width:0.5;" x1="418.5" x2="840.5" y1="315.9766" y2="315.9766"/><ellipse cx="428.5" cy="329.7207" fill="#84BE84" rx="3" ry="3" style="stroke:#038048;stroke-width:1.0;"/><text fill="#000000" font-family="sans-serif" font-size="14" lengthAdjust="spacing" textLength="204" x="437.5" y="333.5117">getPublishedAnnouncement()</text></g><!--class AuthenticationRepository--><g id="elem_AuthenticationRepository"><rect codeLine="23" fill="#F1F1F1" height="64.4883" id="AuthenticationRepository" rx="2.5" ry="2.5" style="stroke:#181818;stroke-width:0.5;" width="206" x="876.5" y="267.9883"/><ellipse cx="891.5" cy="283.9883" fill="#ADD1B2" rx="11" ry="11" style="stroke:#181818;stroke-width:1.0;"/><path d="M894.4731,289.6313 Q893.8921,289.9302 893.2529,290.0796 Q892.6138,290.229 891.9082,290.229 Q889.4014,290.229 888.0815,288.5771 Q886.7617,286.9253 886.7617,283.8042 Q886.7617,280.6748 888.0815,279.0229 Q889.4014,277.3711 891.9082,277.3711 Q892.6138,277.3711 893.2612,277.5205 Q893.9087,277.6699 894.4731,277.9688 L894.4731,280.6914 Q893.8423,280.1104 893.2488,279.8406 Q892.6553,279.5708 892.0244,279.5708 Q890.6797,279.5708 889.9949,280.6375 Q889.3101,281.7041 889.3101,283.8042 Q889.3101,285.896 889.9949,286.9626 Q890.6797,288.0293 892.0244,288.0293 Q892.6553,288.0293 893.2488,287.7595 Q893.8423,287.4897 894.4731,286.9087 Z " fill="#000000"/><text fill="#000000" font-family="sans-serif" font-size="14" lengthAdjust="spacing" textLength="174" x="905.5" y="289.2793">AuthenticationRepository</text><line style="stroke:#181818;stroke-width:0.5;" x1="877.5" x2="1081.5" y1="299.9883" y2="299.9883"/><line style="stroke:#181818;stroke-width:0.5;" x1="877.5" x2="1081.5" y1="307.9883" y2="307.9883"/><ellipse cx="887.5" cy="321.7324" fill="#84BE84" rx="3" ry="3" style="stroke:#038048;stroke-width:1.0;"/><text fill="#000000" font-family="sans-serif" font-size="14" lengthAdjust="spacing" textLength="168" x="896.5" y="325.5234">getCurrentUserSession()</text></g><!--class OfferRepository--><g id="elem_OfferRepository"><rect codeLine="27" fill="#F1F1F1" height="64.4883" id="OfferRepository" rx="2.5" ry="2.5" style="stroke:#181818;stroke-width:0.5;" width="140" x="1117.5" y="267.9883"/><ellipse cx="1132.5" cy="283.9883" fill="#ADD1B2" rx="11" ry="11" style="stroke:#181818;stroke-width:1.0;"/><path d="M1135.4731,289.6313 Q1134.8921,289.9302 1134.2529,290.0796 Q1133.6138,290.229 1132.9082,290.229 Q1130.4014,290.229 1129.0815,288.5771 Q1127.7617,286.9253 1127.7617,283.8042 Q1127.7617,280.6748 1129.0815,279.0229 Q1130.4014,277.3711 1132.9082,277.3711 Q1133.6138,277.3711 1134.2612,277.5205 Q1134.9087,277.6699 1135.4731,277.9688 L1135.4731,280.6914 Q1134.8423,280.1104 1134.2488,279.8406 Q1133.6553,279.5708 1133.0244,279.5708 Q1131.6797,279.5708 1130.9949,280.6375 Q1130.3101,281.7041 1130.3101,283.8042 Q1130.3101,285.896 1130.9949,286.9626 Q1131.6797,288.0293 1133.0244,288.0293 Q1133.6553,288.0293 1134.2488,287.7595 Q1134.8423,287.4897 1135.4731,286.9087 Z " fill="#000000"/><text fill="#000000" font-family="sans-serif" font-size="14" lengthAdjust="spacing" textLength="108" x="1146.5" y="289.2793">OfferRepository</text><line style="stroke:#181818;stroke-width:0.5;" x1="1118.5" x2="1256.5" y1="299.9883" y2="299.9883"/><line style="stroke:#181818;stroke-width:0.5;" x1="1118.5" x2="1256.5" y1="307.9883" y2="307.9883"/><ellipse cx="1128.5" cy="321.7324" fill="#84BE84" rx="3" ry="3" style="stroke:#038048;stroke-width:1.0;"/><text fill="#000000" font-family="sans-serif" font-size="14" lengthAdjust="spacing" textLength="104" x="1137.5" y="325.5234">addOffer(offer)</text></g><!--class Repositories--><g id="elem_Repositories"><rect codeLine="31" fill="#F1F1F1" height="130.4414" id="Repositories" rx="2.5" ry="2.5" style="stroke:#181818;stroke-width:0.5;" width="303" x="995" y="44.4883"/><ellipse cx="1099.75" cy="60.4883" fill="#ADD1B2" rx="11" ry="11" style="stroke:#181818;stroke-width:1.0;"/><path d="M1102.7231,66.1313 Q1102.1421,66.4302 1101.5029,66.5796 Q1100.8638,66.729 1100.1582,66.729 Q1097.6514,66.729 1096.3315,65.0771 Q1095.0117,63.4253 1095.0117,60.3042 Q1095.0117,57.1748 1096.3315,55.5229 Q1097.6514,53.8711 1100.1582,53.8711 Q1100.8638,53.8711 1101.5112,54.0205 Q1102.1587,54.1699 1102.7231,54.4688 L1102.7231,57.1914 Q1102.0923,56.6104 1101.4988,56.3406 Q1100.9053,56.0708 1100.2744,56.0708 Q1098.9297,56.0708 1098.2449,57.1375 Q1097.5601,58.2041 1097.5601,60.3042 Q1097.5601,62.396 1098.2449,63.4626 Q1098.9297,64.5293 1100.2744,64.5293 Q1100.9053,64.5293 1101.4988,64.2595 Q1102.0923,63.9897 1102.7231,63.4087 Z " fill="#000000"/><text fill="#000000" font-family="sans-serif" font-size="14" lengthAdjust="spacing" textLength="85" x="1120.25" y="65.7793">Repositories</text><line style="stroke:#181818;stroke-width:0.5;" x1="996" x2="1297" y1="76.4883" y2="76.4883"/><line style="stroke:#181818;stroke-width:0.5;" x1="996" x2="1297" y1="84.4883" y2="84.4883"/><rect fill="#F24D5C" height="6" style="stroke:#C82930;stroke-width:1.0;" width="6" x="1003" y="95.2324"/><text fill="#000000" font-family="sans-serif" font-size="14" lengthAdjust="spacing" textLength="95" x="1015" y="102.0234">Repositories()</text><ellipse cx="1006" cy="114.7207" fill="#84BE84" rx="3" ry="3" style="stroke:#038048;stroke-width:1.0;"/><text fill="#000000" font-family="sans-serif" font-size="14" lengthAdjust="spacing" textLength="178" x="1015" y="118.5117">getInstance():Repositories</text><ellipse cx="1006" cy="131.209" fill="#84BE84" rx="3" ry="3" style="stroke:#038048;stroke-width:1.0;"/><text fill="#000000" font-family="sans-serif" font-size="14" lengthAdjust="spacing" textLength="277" x="1015" y="135">getPublishedAnnouncementRepository()</text><ellipse cx="1006" cy="147.6973" fill="#84BE84" rx="3" ry="3" style="stroke:#038048;stroke-width:1.0;"/><text fill="#000000" font-family="sans-serif" font-size="14" lengthAdjust="spacing" textLength="206" x="1015" y="151.4883">getAuthenticationRepository()</text><ellipse cx="1006" cy="164.1855" fill="#84BE84" rx="3" ry="3" style="stroke:#038048;stroke-width:1.0;"/><text fill="#000000" font-family="sans-serif" font-size="14" lengthAdjust="spacing" textLength="140" x="1015" y="167.9766">getOfferRepository()</text></g><!--class Offer--><g id="elem_Offer"><rect codeLine="39" fill="#F1F1F1" height="97.4648" id="Offer" rx="2.5" ry="2.5" style="stroke:#181818;stroke-width:0.5;" width="375" x="7" y="251.4883"/><ellipse cx="172.75" cy="267.4883" fill="#ADD1B2" rx="11" ry="11" style="stroke:#181818;stroke-width:1.0;"/><path d="M175.7231,273.1313 Q175.1421,273.4302 174.5029,273.5796 Q173.8638,273.729 173.1582,273.729 Q170.6514,273.729 169.3315,272.0771 Q168.0117,270.4253 168.0117,267.3042 Q168.0117,264.1748 169.3315,262.5229 Q170.6514,260.8711 173.1582,260.8711 Q173.8638,260.8711 174.5112,261.0205 Q175.1587,261.1699 175.7231,261.4688 L175.7231,264.1914 Q175.0923,263.6104 174.4988,263.3406 Q173.9053,263.0708 173.2744,263.0708 Q171.9297,263.0708 171.2449,264.1375 Q170.5601,265.2041 170.5601,267.3042 Q170.5601,269.396 171.2449,270.4626 Q171.9297,271.5293 173.2744,271.5293 Q173.9053,271.5293 174.4988,271.2595 Q175.0923,270.9897 175.7231,270.4087 Z " fill="#000000"/><text fill="#000000" font-family="sans-serif" font-size="14" lengthAdjust="spacing" textLength="35" x="193.25" y="272.7793">Offer</text><line style="stroke:#181818;stroke-width:0.5;" x1="8" x2="381" y1="283.4883" y2="283.4883"/><ellipse cx="18" cy="297.2324" fill="none" rx="3" ry="3" style="stroke:#038048;stroke-width:1.0;"/><text fill="#000000" font-family="sans-serif" font-size="14" lengthAdjust="spacing" textLength="65" x="27" y="301.0234">User user</text><ellipse cx="18" cy="313.7207" fill="none" rx="3" ry="3" style="stroke:#038048;stroke-width:1.0;"/><text fill="#000000" font-family="sans-serif" font-size="14" lengthAdjust="spacing" textLength="349" x="27" y="317.5117">PublishedAnnouncement publishedAnnouncement</text><ellipse cx="18" cy="330.209" fill="none" rx="3" ry="3" style="stroke:#038048;stroke-width:1.0;"/><text fill="#000000" font-family="sans-serif" font-size="14" lengthAdjust="spacing" textLength="145" x="27" y="334">double orderAmount</text><line style="stroke:#181818;stroke-width:0.5;" x1="8" x2="381" y1="340.9531" y2="340.9531"/></g><!--link PlaceOrderUI to PlaceOrderController--><g id="link_PlaceOrderUI_PlaceOrderController"><path codeLine="45" d="M618.35,109.4883 C624.1,109.4883 627.83,109.4883 627.83,109.4883 C627.83,109.4883 636.1,109.4883 646.96,109.4883 " fill="none" id="PlaceOrderUI-to-PlaceOrderController" style="stroke:#181818;stroke-width:1.0;stroke-dasharray:7.0,7.0;"/><polygon fill="#181818" points="651.71,109.4883,642.71,105.4883,646.71,109.4883,642.71,113.4883,651.71,109.4883" style="stroke:#181818;stroke-width:1.0;"/></g><!--link PlaceOrderController to Repositories--><g id="link_PlaceOrderController_Repositories"><path codeLine="46" d="M883.97,109.4883 C917.01,109.4883 953.61,109.4883 988.72,109.4883 " fill="none" id="PlaceOrderController-to-Repositories" style="stroke:#181818;stroke-width:1.0;stroke-dasharray:7.0,7.0;"/><polygon fill="#181818" points="993.29,109.4883,984.29,105.4883,988.29,109.4883,984.29,113.4883,993.29,109.4883" style="stroke:#181818;stroke-width:1.0;"/><text fill="#000000" font-family="sans-serif" font-size="13" lengthAdjust="spacing" textLength="75" x="901.75" y="103.0566">repositories</text></g><!--link PlaceOrderController to PublishedAnnouncemtRepository--><g id="link_PlaceOrderController_PublishedAnnouncemtRepository"><path codeLine="47" d="M685.4,150.4783 C658.52,163.4083 635.5,174.4883 635.5,174.4883 C635.5,174.4883 514.5,204.4883 514.5,204.4883 C514.5,204.4883 514.5,221.4883 514.5,221.4883 C514.5,221.4883 538.79,237.8583 565.05,255.5483 " fill="none" id="PlaceOrderController-to-PublishedAnnouncemtRepository" style="stroke:#181818;stroke-width:1.0;stroke-dasharray:7.0,7.0;"/><polygon fill="#181818" points="569.06,258.2583,563.8101,249.9253,564.9063,255.4749,559.3567,256.5711,569.06,258.2583" style="stroke:#181818;stroke-width:1.0;"/><text fill="#000000" font-family="sans-serif" font-size="13" lengthAdjust="spacing" textLength="224" x="515.5" y="218.0566">publishedAnnouncementRepository</text></g><!--link PlaceOrderController to AuthenticationRepository--><g id="link_PlaceOrderController_AuthenticationRepository"><path codeLine="48" d="M787.48,150.2483 C802.69,182.0983 821.5,221.4883 821.5,221.4883 C821.5,221.4883 867.61,244.1083 910.01,264.8983 " fill="none" id="PlaceOrderController-to-AuthenticationRepository" style="stroke:#181818;stroke-width:1.0;stroke-dasharray:7.0,7.0;"/><polygon fill="#181818" points="914.33,267.0183,908.0109,259.4639,909.8408,264.8166,904.4882,266.6466,914.33,267.0183" style="stroke:#181818;stroke-width:1.0;"/><text fill="#000000" font-family="sans-serif" font-size="13" lengthAdjust="spacing" textLength="158" x="822.5" y="218.0566">authenticationRepository</text></g><!--link PlaceOrderController to OfferRepository--><g id="link_PlaceOrderController_OfferRepository"><path codeLine="49" d="M862.31,150.3283 C960.48,192.0183 1100.5,251.4883 1100.5,251.4883 C1100.5,251.4883 1110.85,257.1383 1124.4,264.5383 " fill="none" id="PlaceOrderController-to-OfferRepository" style="stroke:#181818;stroke-width:1.0;stroke-dasharray:7.0,7.0;"/><polygon fill="#181818" points="1128.63,266.8483,1122.6443,259.027,1124.2405,264.454,1118.8135,266.0502,1128.63,266.8483" style="stroke:#181818;stroke-width:1.0;"/><text fill="#000000" font-family="sans-serif" font-size="13" lengthAdjust="spacing" textLength="97" x="1029.5" y="218.0566">offerRepository</text></g><!--link PlaceOrderController to Offer--><g id="link_PlaceOrderController_Offer"><path codeLine="50" d="M685.4,150.4783 C658.52,163.4083 635.5,174.4883 635.5,174.4883 C635.5,174.4883 506.5,204.4883 506.5,204.4883 C506.5,204.4883 433.85,226.4883 358.67,249.2683 " fill="none" id="PlaceOrderController-to-Offer" style="stroke:#181818;stroke-width:1.0;stroke-dasharray:7.0,7.0;"/><polygon fill="#181818" points="354.23,250.6083,364.0049,251.8134,359.0132,249.1519,361.6747,244.1602,354.23,250.6083" style="stroke:#181818;stroke-width:1.0;"/></g><!--link Repositories to Repositories--><g id="link_Repositories_Repositories"><path codeLine="51" d="M1298.34,92.2183 C1319.13,95.0883 1333,100.8483 1333,109.4883 C1333,117.2483 1321.81,122.6883 1304.45,125.7883 " fill="none" id="Repositories-to-Repositories" style="stroke:#181818;stroke-width:1.0;"/><polygon fill="#181818" points="1299.84,126.5183,1309.3564,129.0558,1304.778,125.7333,1308.1004,121.155,1299.84,126.5183" style="stroke:#181818;stroke-width:1.0;"/><text fill="#000000" font-family="sans-serif" font-size="13" lengthAdjust="spacing" textLength="53" x="1339" y="114.5566">instance</text></g><!--link Repositories to PublishedAnnouncemtRepository--><g id="link_Repositories_PublishedAnnouncemtRepository"><path codeLine="52" d="M1029.29,174.8983 C984.73,199.3783 944.5,221.4883 944.5,221.4883 C944.5,221.4883 873.16,239.0383 798.39,257.4383 " fill="none" id="Repositories-to-PublishedAnnouncemtRepository" style="stroke:#181818;stroke-width:1.0;"/><polygon fill="#181818" points="793.54,258.6283,803.2379,260.3462,798.3932,257.4257,801.3138,252.5811,793.54,258.6283" style="stroke:#181818;stroke-width:1.0;"/></g><!--link Repositories to AuthenticationRepository--><g id="link_Repositories_AuthenticationRepository"><path codeLine="53" d="M1133.77,174.7383 C1128.9,199.2783 1124.5,221.4883 1124.5,221.4883 C1124.5,221.4883 1082.53,243.9183 1043.75,264.6483 " fill="none" id="Repositories-to-AuthenticationRepository" style="stroke:#181818;stroke-width:1.0;"/><polygon fill="#181818" points="1039.39,266.9783,1049.2122,266.2542,1043.7974,264.6172,1045.4344,259.2024,1039.39,266.9783" style="stroke:#181818;stroke-width:1.0;"/></g><!--link Repositories to OfferRepository--><g id="link_Repositories_OfferRepository"><path codeLine="54" d="M1160.5,174.8283 C1166.78,203.7383 1173.98,236.8283 1179.36,261.5783 " fill="none" id="Repositories-to-OfferRepository" style="stroke:#181818;stroke-width:1.0;"/><polygon fill="#181818" points="1180.37,266.2083,1182.3762,256.5659,1179.3126,261.3214,1174.5571,258.2578,1180.37,266.2083" style="stroke:#181818;stroke-width:1.0;"/></g><!--SRC=[XLF1QiCm3BtxAtHiAHdTDOn2wIw5GSjAFy1prDJKjOEjCCBOlyyk8NLgPyt1nDBJavxoGf8Kml6mV5r20Hl5dODtoMlBhumnTv6wuVuT6YuklCO3THvkKH3NjS88uCwyCjzIrt3YoiKP9JLIro0qHdNXmfYuzTahBd1dAxJ7BVmmzficDaQJDKgXzG3mpm9gf7txfQGxOxNMshHQu1KrpUOzG5ZaXBlJ2UtC19BrrODe7l4dzVI9ZN6IZEtwHWLyI4VmbksrWYONVZxXCCAwfRCFIS596frqlv5iMcizvkZG7j0vZuiPRW8pXRogUktXZ0e6h4GtY8o3mmPzxwrs_XCBdCtB6F94uNsSc6jAQunvK9C83GCl8Am2Md-4ItQ2gG-pWChu34BaYD1YvC6NLTPwBEj73nvjjFI_HRIeV4teyA_voho0EsAQUD9I9V29r3JPexjACEF8ar8ssarH9CkIlS5IuByBIk5JibFaWoR6_W00]--></g></svg>