<?xml version="1.0" encoding="us-ascii" standalone="no"?><svg xmlns="http://www.w3.org/2000/svg" xmlns:xlink="http://www.w3.org/1999/xlink" contentStyleType="text/css" height="545px" preserveAspectRatio="none" style="width:910px;height:545px;background:#FFFFFF;" version="1.1" viewBox="0 0 910 545" width="910px" zoomAndPan="magnify"><defs/><g><text fill="#000000" font-family="sans-serif" font-size="14" font-weight="bold" lengthAdjust="spacing" textLength="356" x="278.75" y="28.5352">US010 - Sequence Diagram Partial - Create Offer</text><rect fill="#FFFFFF" height="362.7266" style="stroke:#181818;stroke-width:1.0;" width="10" x="202" y="121.7754"/><rect fill="#FFFFFF" height="29.3105" style="stroke:#181818;stroke-width:1.0;" width="10" x="441" y="175.3965"/><rect fill="#FFFFFF" height="29.3105" style="stroke:#181818;stroke-width:1.0;" width="10" x="441" y="351.2598"/><rect fill="#FFFFFF" height="29.3105" style="stroke:#181818;stroke-width:1.0;" width="10" x="598.5" y="234.0176"/><rect fill="#FFFFFF" height="29.3105" style="stroke:#181818;stroke-width:1.0;" width="10" x="767.5" y="409.8809"/><rect fill="#FFFFFF" height="29.3105" style="stroke:#181818;stroke-width:1.0;" width="10" x="865" y="292.6387"/><rect fill="none" height="310.416" style="stroke:#000000;stroke-width:1.5;" width="789" x="115.5" y="136.7754"/><line style="stroke:#181818;stroke-width:0.5;stroke-dasharray:5.0,5.0;" x1="206.5" x2="206.5" y1="90.4648" y2="493.502"/><line style="stroke:#181818;stroke-width:0.5;stroke-dasharray:5.0,5.0;" x1="445.5" x2="445.5" y1="90.4648" y2="493.502"/><line style="stroke:#181818;stroke-width:0.5;stroke-dasharray:5.0,5.0;" x1="603.5" x2="603.5" y1="90.4648" y2="493.502"/><line style="stroke:#181818;stroke-width:0.5;stroke-dasharray:5.0,5.0;" x1="772.5" x2="772.5" y1="90.4648" y2="493.502"/><line style="stroke:#181818;stroke-width:0.5;stroke-dasharray:5.0,5.0;" x1="869.5" x2="869.5" y1="90.4648" y2="493.502"/><rect fill="#E3E3E3" height="30.4883" rx="2.5" ry="2.5" style="stroke:#181818;stroke-width:0.5;" width="163" x="125.5" y="58.9766"/><text fill="#000000" font-family="sans-serif" font-size="14" lengthAdjust="spacing" textLength="149" x="132.5" y="79.5117">:PlaceOrderController</text><rect fill="#E3E3E3" height="30.4883" rx="2.5" ry="2.5" style="stroke:#181818;stroke-width:0.5;" width="163" x="125.5" y="492.502"/><text fill="#000000" font-family="sans-serif" font-size="14" lengthAdjust="spacing" textLength="149" x="132.5" y="513.0371">:PlaceOrderController</text><rect fill="#E3E3E3" height="46.9766" rx="2.5" ry="2.5" style="stroke:#181818;stroke-width:0.5;" width="103" x="394.5" y="42.4883"/><text fill="#000000" font-family="sans-serif" font-size="14" lengthAdjust="spacing" textLength="82" x="405" y="63.0234">repositories</text><text fill="#000000" font-family="sans-serif" font-size="14" lengthAdjust="spacing" textLength="89" x="401.5" y="79.5117">:Repositories</text><rect fill="#E3E3E3" height="46.9766" rx="2.5" ry="2.5" style="stroke:#181818;stroke-width:0.5;" width="103" x="394.5" y="492.502"/><text fill="#000000" font-family="sans-serif" font-size="14" lengthAdjust="spacing" textLength="82" x="405" y="513.0371">repositories</text><text fill="#000000" font-family="sans-serif" font-size="14" lengthAdjust="spacing" textLength="89" x="401.5" y="529.5254">:Repositories</text><rect fill="#E3E3E3" height="46.9766" rx="2.5" ry="2.5" style="stroke:#181818;stroke-width:0.5;" width="192" x="507.5" y="42.4883"/><text fill="#000000" font-family="sans-serif" font-size="14" lengthAdjust="spacing" textLength="172" x="517.5" y="63.0234">authenticationRepository</text><text fill="#000000" font-family="sans-serif" font-size="14" lengthAdjust="spacing" textLength="178" x="514.5" y="79.5117">:AuthenticationRepository</text><rect fill="#E3E3E3" height="46.9766" rx="2.5" ry="2.5" style="stroke:#181818;stroke-width:0.5;" width="192" x="507.5" y="492.502"/><text fill="#000000" font-family="sans-serif" font-size="14" lengthAdjust="spacing" textLength="172" x="517.5" y="513.0371">authenticationRepository</text><text fill="#000000" font-family="sans-serif" font-size="14" lengthAdjust="spacing" textLength="178" x="514.5" y="529.5254">:AuthenticationRepository</text><rect fill="#E3E3E3" height="46.9766" rx="2.5" ry="2.5" style="stroke:#181818;stroke-width:0.5;" width="126" x="709.5" y="42.4883"/><text fill="#000000" font-family="sans-serif" font-size="14" lengthAdjust="spacing" textLength="106" x="719.5" y="63.0234">offerRepository</text><text fill="#000000" font-family="sans-serif" font-size="14" lengthAdjust="spacing" textLength="112" x="716.5" y="79.5117">:OfferRepository</text><rect fill="#E3E3E3" height="46.9766" rx="2.5" ry="2.5" style="stroke:#181818;stroke-width:0.5;" width="126" x="709.5" y="492.502"/><text fill="#000000" font-family="sans-serif" font-size="14" lengthAdjust="spacing" textLength="106" x="719.5" y="513.0371">offerRepository</text><text fill="#000000" font-family="sans-serif" font-size="14" lengthAdjust="spacing" textLength="112" x="716.5" y="529.5254">:OfferRepository</text><rect fill="#E3E3E3" height="30.4883" rx="2.5" ry="2.5" style="stroke:#181818;stroke-width:0.5;" width="49" x="845.5" y="58.9766"/><text fill="#000000" font-family="sans-serif" font-size="14" lengthAdjust="spacing" textLength="35" x="852.5" y="79.5117">Offer</text><rect fill="#E3E3E3" height="30.4883" rx="2.5" ry="2.5" style="stroke:#181818;stroke-width:0.5;" width="49" x="845.5" y="492.502"/><text fill="#000000" font-family="sans-serif" font-size="14" lengthAdjust="spacing" textLength="35" x="852.5" y="513.0371">Offer</text><rect fill="#FFFFFF" height="362.7266" style="stroke:#181818;stroke-width:1.0;" width="10" x="202" y="121.7754"/><rect fill="#FFFFFF" height="29.3105" style="stroke:#181818;stroke-width:1.0;" width="10" x="441" y="175.3965"/><rect fill="#FFFFFF" height="29.3105" style="stroke:#181818;stroke-width:1.0;" width="10" x="441" y="351.2598"/><rect fill="#FFFFFF" height="29.3105" style="stroke:#181818;stroke-width:1.0;" width="10" x="598.5" y="234.0176"/><rect fill="#FFFFFF" height="29.3105" style="stroke:#181818;stroke-width:1.0;" width="10" x="767.5" y="409.8809"/><rect fill="#FFFFFF" height="29.3105" style="stroke:#181818;stroke-width:1.0;" width="10" x="865" y="292.6387"/><polygon fill="#181818" points="190,117.7754,200,121.7754,190,125.7754,194,121.7754" style="stroke:#181818;stroke-width:1.0;"/><line style="stroke:#181818;stroke-width:1.0;" x1="0" x2="196" y1="121.7754" y2="121.7754"/><text fill="#000000" font-family="sans-serif" font-size="13" font-weight="bold" lengthAdjust="spacing" textLength="18" x="7" y="117.0332">15</text><text fill="#000000" font-family="sans-serif" font-size="13" lengthAdjust="spacing" textLength="161" x="29" y="117.0332">createOffer(orderAmount)</text><path d="M115.5,136.7754 L243.5,136.7754 L243.5,144.0859 L233.5,154.0859 L115.5,154.0859 L115.5,136.7754 " fill="#EEEEEE" style="stroke:#000000;stroke-width:1.5;"/><rect fill="none" height="310.416" style="stroke:#000000;stroke-width:1.5;" width="789" x="115.5" y="136.7754"/><text fill="#000000" font-family="sans-serif" font-size="13" font-weight="bold" lengthAdjust="spacing" textLength="83" x="130.5" y="150.3438">Create Offer</text><polygon fill="#181818" points="429,171.3965,439,175.3965,429,179.3965,433,175.3965" style="stroke:#181818;stroke-width:1.0;"/><line style="stroke:#181818;stroke-width:1.0;" x1="212" x2="435" y1="175.3965" y2="175.3965"/><text fill="#000000" font-family="sans-serif" font-size="13" font-weight="bold" lengthAdjust="spacing" textLength="18" x="219" y="170.6543">16</text><text fill="#000000" font-family="sans-serif" font-size="13" lengthAdjust="spacing" textLength="188" x="241" y="170.6543">getAuthenticationRepository()</text><polygon fill="#181818" points="223,200.707,213,204.707,223,208.707,219,204.707" style="stroke:#181818;stroke-width:1.0;"/><line style="stroke:#181818;stroke-width:1.0;stroke-dasharray:2.0,2.0;" x1="217" x2="445" y1="204.707" y2="204.707"/><text fill="#000000" font-family="sans-serif" font-size="13" font-weight="bold" lengthAdjust="spacing" textLength="18" x="229" y="199.9648">17</text><text fill="#000000" font-family="sans-serif" font-size="13" lengthAdjust="spacing" textLength="158" x="251" y="199.9648">authenticationRepository</text><polygon fill="#181818" points="586.5,230.0176,596.5,234.0176,586.5,238.0176,590.5,234.0176" style="stroke:#181818;stroke-width:1.0;"/><line style="stroke:#181818;stroke-width:1.0;" x1="212" x2="592.5" y1="234.0176" y2="234.0176"/><text fill="#000000" font-family="sans-serif" font-size="13" font-weight="bold" lengthAdjust="spacing" textLength="18" x="219" y="229.2754">18</text><text fill="#000000" font-family="sans-serif" font-size="13" lengthAdjust="spacing" textLength="151" x="241" y="229.2754">getCurrentUserSession()</text><polygon fill="#181818" points="223,259.3281,213,263.3281,223,267.3281,219,263.3281" style="stroke:#181818;stroke-width:1.0;"/><line style="stroke:#181818;stroke-width:1.0;stroke-dasharray:2.0,2.0;" x1="217" x2="602.5" y1="263.3281" y2="263.3281"/><text fill="#000000" font-family="sans-serif" font-size="13" font-weight="bold" lengthAdjust="spacing" textLength="18" x="229" y="258.5859">19</text><text fill="#000000" font-family="sans-serif" font-size="13" lengthAdjust="spacing" textLength="143" x="251" y="258.5859">getCurrentUserSession</text><polygon fill="#181818" points="853,288.6387,863,292.6387,853,296.6387,857,292.6387" style="stroke:#181818;stroke-width:1.0;"/><line style="stroke:#181818;stroke-width:1.0;" x1="212" x2="859" y1="292.6387" y2="292.6387"/><text fill="#000000" font-family="sans-serif" font-size="13" font-weight="bold" lengthAdjust="spacing" textLength="18" x="219" y="287.8965">20</text><text fill="#000000" font-family="sans-serif" font-size="13" lengthAdjust="spacing" textLength="323" x="241" y="287.8965">Offer(user, publishedAnnouncement, orderAmount)</text><polygon fill="#181818" points="223,317.9492,213,321.9492,223,325.9492,219,321.9492" style="stroke:#181818;stroke-width:1.0;"/><line style="stroke:#181818;stroke-width:1.0;stroke-dasharray:2.0,2.0;" x1="217" x2="869" y1="321.9492" y2="321.9492"/><text fill="#000000" font-family="sans-serif" font-size="13" font-weight="bold" lengthAdjust="spacing" textLength="18" x="229" y="317.207">21</text><text fill="#000000" font-family="sans-serif" font-size="13" lengthAdjust="spacing" textLength="30" x="251" y="317.207">offer</text><polygon fill="#181818" points="429,347.2598,439,351.2598,429,355.2598,433,351.2598" style="stroke:#181818;stroke-width:1.0;"/><line style="stroke:#181818;stroke-width:1.0;" x1="212" x2="435" y1="351.2598" y2="351.2598"/><text fill="#000000" font-family="sans-serif" font-size="13" font-weight="bold" lengthAdjust="spacing" textLength="18" x="219" y="346.5176">22</text><text fill="#000000" font-family="sans-serif" font-size="13" lengthAdjust="spacing" textLength="127" x="241" y="346.5176">getOfferRepository()</text><polygon fill="#181818" points="223,376.5703,213,380.5703,223,384.5703,219,380.5703" style="stroke:#181818;stroke-width:1.0;"/><line style="stroke:#181818;stroke-width:1.0;stroke-dasharray:2.0,2.0;" x1="217" x2="445" y1="380.5703" y2="380.5703"/><text fill="#000000" font-family="sans-serif" font-size="13" font-weight="bold" lengthAdjust="spacing" textLength="18" x="229" y="375.8281">23</text><text fill="#000000" font-family="sans-serif" font-size="13" lengthAdjust="spacing" textLength="119" x="251" y="375.8281">getOfferRepository</text><polygon fill="#181818" points="755.5,405.8809,765.5,409.8809,755.5,413.8809,759.5,409.8809" style="stroke:#181818;stroke-width:1.0;"/><line style="stroke:#181818;stroke-width:1.0;" x1="212" x2="761.5" y1="409.8809" y2="409.8809"/><text fill="#000000" font-family="sans-serif" font-size="13" font-weight="bold" lengthAdjust="spacing" textLength="18" x="219" y="405.1387">24</text><text fill="#000000" font-family="sans-serif" font-size="13" lengthAdjust="spacing" textLength="93" x="241" y="405.1387">addOffer(offer)</text><polygon fill="#181818" points="223,435.1914,213,439.1914,223,443.1914,219,439.1914" style="stroke:#181818;stroke-width:1.0;"/><line style="stroke:#181818;stroke-width:1.0;stroke-dasharray:2.0,2.0;" x1="217" x2="771.5" y1="439.1914" y2="439.1914"/><text fill="#000000" font-family="sans-serif" font-size="13" font-weight="bold" lengthAdjust="spacing" textLength="18" x="229" y="434.4492">25</text><text fill="#000000" font-family="sans-serif" font-size="13" lengthAdjust="spacing" textLength="55" x="251" y="434.4492">addOffer</text><polygon fill="#181818" points="11,471.502,1,475.502,11,479.502,7,475.502" style="stroke:#181818;stroke-width:1.0;"/><line style="stroke:#181818;stroke-width:1.0;stroke-dasharray:2.0,2.0;" x1="5" x2="201" y1="475.502" y2="475.502"/><text fill="#000000" font-family="sans-serif" font-size="13" font-weight="bold" lengthAdjust="spacing" textLength="18" x="17" y="470.7598">26</text><text fill="#000000" font-family="sans-serif" font-size="13" lengthAdjust="spacing" textLength="70" x="39" y="470.7598">createOffer</text><!--SRC=[dLJ1Rjim3BtpAuXUqW8Dq1vs2TO1GRfpYWMzxQBAZAF6bZo9NfU_7wsagUHOsp0V0aWa7v_UOnZsndRAgnPRPvtUUTSIiky9mZdIARrNDMtuq11wqgnitQG9OQSgzsPiZLlL109WmvBwlBcxlyCvRkX7JrOJFXfL3_bFohDHZOHMdXGJhhTRyW3TSAzDfopZrUAfKPhMlYA_SfQzQnhoLwW2VXpp2a-T2uQTDnI-syMtv1ZhqekyKlMy8ojdnSRPSzv1K9Q5K4Gi1NDqDxmk0rtdDn5hT9T3nE176e0mThPlNyZZ_IU0-PT45LoWZhh6t6itIBXiNM_v1fHcytEGF14HQk_wRkH50YVWgNG2NnENddwTzCW4XmnZFcPSiW0gAk3b34jyZcnNlVSIVGxaDnI2PAGyYpP24VM2_sIJb7ovIVwGgBy07ith1UmMk_wbCM57rT9QyL5JAqYtEEtioS0ZpWNFE8mfht_qUpIU_slp9LBPuDc4C9cnUaTw__MN2IoxvpJim-yDpFBd9TrcC1i3NP2yn8NPMB4S4kLp7QFPJXJZmyDnfPuIvKjV9jqtXy3K5ZgVYqvPaMvZP0A6lqtO1vJ1mc5Ga1s-ASCe0s6QUDsHhOR5x8ST78HWG38IyAYqfewfaYcIwAkiTQhUcqdHv5XcwgkgoZGlwWD_5VmT2lwWCaHId-VpugQ3tm00]--></g></svg>