<?xml version="1.0" encoding="UTF-8" standalone="no"?><svg xmlns="http://www.w3.org/2000/svg" xmlns:xlink="http://www.w3.org/1999/xlink" contentStyleType="text/css" height="316px" preserveAspectRatio="none" style="width:608px;height:316px;background:#FFFFFF;" version="1.1" viewBox="0 0 608 316" width="608px" zoomAndPan="magnify"><defs/><g><rect fill="none" height="27.6094" id="_title" style="stroke:none;stroke-width:1.0;" width="238" x="184" y="10"/><text fill="#000000" font-family="sans-serif" font-size="14" font-weight="bold" lengthAdjust="spacing" textLength="228" x="189" y="29.5332">System Sequence Diagram (SSD)</text><rect fill="#FFFFFF" height="94.4063" style="stroke:#181818;stroke-width:1.0;" width="10" x="58" y="131.2188"/><rect fill="#FFFFFF" height="63.0547" style="stroke:#181818;stroke-width:1.0;" width="10" x="565" y="153.5703"/><line style="stroke:#181818;stroke-width:0.5;stroke-dasharray:5.0,5.0;" x1="63" x2="63" y1="121.2188" y2="234.625"/><line style="stroke:#181818;stroke-width:0.5;stroke-dasharray:5.0,5.0;" x1="570" x2="570" y1="121.2188" y2="234.625"/><text fill="#000000" font-family="sans-serif" font-size="14" lengthAdjust="spacing" textLength="110" x="5" y="118.1426">Network Manager</text><ellipse cx="63" cy="52.1094" fill="#E3E3E3" rx="8" ry="8" style="stroke:#181818;stroke-width:0.5;"/><path d="M63,60.1094 L63,87.1094 M50,68.1094 L76,68.1094 M63,87.1094 L50,102.1094 M63,87.1094 L76,102.1094 " fill="none" style="stroke:#181818;stroke-width:0.5;"/><text fill="#000000" font-family="sans-serif" font-size="14" lengthAdjust="spacing" textLength="110" x="5" y="248.1582">Network Manager</text><ellipse cx="63" cy="259.7344" fill="#E3E3E3" rx="8" ry="8" style="stroke:#181818;stroke-width:0.5;"/><path d="M63,267.7344 L63,294.7344 M50,275.7344 L76,275.7344 M63,294.7344 L50,309.7344 M63,294.7344 L76,309.7344 " fill="none" style="stroke:#181818;stroke-width:0.5;"/><rect fill="#E3E3E3" height="31.6094" rx="2.5" ry="2.5" style="stroke:#181818;stroke-width:0.5;" width="64" x="538" y="88.6094"/><text fill="#000000" font-family="sans-serif" font-size="14" lengthAdjust="spacing" textLength="50" x="545" y="110.1426">:System</text><rect fill="#E3E3E3" height="31.6094" rx="2.5" ry="2.5" style="stroke:#181818;stroke-width:0.5;" width="64" x="538" y="233.625"/><text fill="#000000" font-family="sans-serif" font-size="14" lengthAdjust="spacing" textLength="50" x="545" y="255.1582">:System</text><rect fill="#FFFFFF" height="94.4063" style="stroke:#181818;stroke-width:1.0;" width="10" x="58" y="131.2188"/><rect fill="#FFFFFF" height="63.0547" style="stroke:#181818;stroke-width:1.0;" width="10" x="565" y="153.5703"/><polygon fill="#181818" points="553,149.5703,563,153.5703,553,157.5703,557,153.5703" style="stroke:#181818;stroke-width:1.0;"/><line style="stroke:#181818;stroke-width:1.0;" x1="68" x2="559" y1="153.5703" y2="153.5703"/><text fill="#000000" font-family="sans-serif" font-size="13" font-weight="bold" lengthAdjust="spacing" textLength="7" x="75" y="148.7139">1</text><text fill="#000000" font-family="sans-serif" font-size="13" lengthAdjust="spacing" textLength="316" x="86" y="148.7139">asks to see list of all employees working in every store</text><polygon fill="#181818" points="79,212.625,69,216.625,79,220.625,75,216.625" style="stroke:#181818;stroke-width:1.0;"/><line style="stroke:#181818;stroke-width:1.0;stroke-dasharray:2.0,2.0;" x1="73" x2="569" y1="216.625" y2="216.625"/><text fill="#000000" font-family="sans-serif" font-size="13" font-weight="bold" lengthAdjust="spacing" textLength="7" x="85" y="195.417">2</text><text fill="#000000" font-family="sans-serif" font-size="13" lengthAdjust="spacing" textLength="395" x="96" y="179.0654">provides a list of employees (Id, name and role) alphabetically sorted</text><text fill="#000000" font-family="sans-serif" font-size="13" lengthAdjust="spacing" textLength="458" x="96" y="195.417">and grouped by store (Id, name and number of listings) sorted from the one with</text><text fill="#000000" font-family="sans-serif" font-size="13" lengthAdjust="spacing" textLength="236" x="96" y="211.7686">more listings to the one with less listings</text><!--MD5=[f5be787a38dccf067718e8a0cd7b2e31]
@startuml
skinparam monochrome true
skinparam packageStyle rectangle
skinparam shadowing false

title System Sequence Diagram (SSD)

autonumber

actor "Network Manager" as manager
participant ":System" as System

activate manager

    manager -> System : asks to see list of all employees working in every store
    activate System

        System - -> manager : provides a list of employees (Id, name and role) alphabetically sorted\nand grouped by store (Id, name and number of listings) sorted from the one with \nmore listings to the one with less listings
    deactivate System

@enduml

PlantUML version 1.2022.7(Mon Aug 22 18:01:30 WEST 2022)
(GPL source distribution)
Java Runtime: OpenJDK Runtime Environment
JVM: OpenJDK 64-Bit Server VM
Default Encoding: Cp1252
Language: pt
Country: PT
--></g></svg>