<?xml version="1.0" encoding="UTF-8" standalone="no"?><svg xmlns="http://www.w3.org/2000/svg" xmlns:xlink="http://www.w3.org/1999/xlink" contentStyleType="text/css" height="601px" preserveAspectRatio="none" style="width:623px;height:601px;background:#FFFFFF;" version="1.1" viewBox="0 0 623 601" width="623px" zoomAndPan="magnify"><defs/><g><text fill="#000000" font-family="sans-serif" font-size="14" font-weight="bold" lengthAdjust="spacing" textLength="351" x="135.25" y="29.5332">System Sequence Diagram (SSD) - Alternative One</text><rect fill="#FFFFFF" height="364.5625" style="stroke:#181818;stroke-width:1.0;" width="10" x="104.5" y="138.7656"/><rect fill="#FFFFFF" height="39.1563" style="stroke:#181818;stroke-width:1.0;" width="10" x="569.5" y="169.9219"/><rect fill="#FFFFFF" height="39.1563" style="stroke:#181818;stroke-width:1.0;" width="10" x="569.5" y="298.5469"/><rect fill="#FFFFFF" height="39.1563" style="stroke:#181818;stroke-width:1.0;" width="10" x="569.5" y="376.8594"/><rect fill="#FFFFFF" height="39.1563" style="stroke:#181818;stroke-width:1.0;" width="10" x="569.5" y="455.1719"/><line style="stroke:#181818;stroke-width:0.5;stroke-dasharray:5.0,5.0;" x1="109" x2="109" y1="128.7656" y2="512.3281"/><line style="stroke:#181818;stroke-width:0.5;stroke-dasharray:5.0,5.0;" x1="574.5" x2="574.5" y1="128.7656" y2="512.3281"/><text fill="#000000" font-family="sans-serif" font-size="20" lengthAdjust="spacing" textLength="203" x="5" y="124.3711">Organization Employee</text><ellipse cx="109.5" cy="52.1094" fill="#E3E3E3" rx="8" ry="8" style="stroke:#181818;stroke-width:0.5;"/><path d="M109.5,60.1094 L109.5,87.1094 M96.5,68.1094 L122.5,68.1094 M109.5,87.1094 L96.5,102.1094 M109.5,87.1094 L122.5,102.1094 " fill="none" style="stroke:#181818;stroke-width:0.5;"/><text fill="#000000" font-family="sans-serif" font-size="20" lengthAdjust="spacing" textLength="203" x="5" y="532.0898">Organization Employee</text><ellipse cx="109.5" cy="544.9844" fill="#E3E3E3" rx="8" ry="8" style="stroke:#181818;stroke-width:0.5;"/><path d="M109.5,552.9844 L109.5,579.9844 M96.5,560.9844 L122.5,560.9844 M109.5,579.9844 L96.5,594.9844 M109.5,579.9844 L122.5,594.9844 " fill="none" style="stroke:#181818;stroke-width:0.5;"/><rect fill="#E3E3E3" height="39.1563" rx="2.5" ry="2.5" style="stroke:#181818;stroke-width:0.5;" width="86" x="531.5" y="88.6094"/><text fill="#000000" font-family="sans-serif" font-size="20" lengthAdjust="spacing" textLength="72" x="538.5" y="116.3711">:System</text><rect fill="#E3E3E3" height="39.1563" rx="2.5" ry="2.5" style="stroke:#181818;stroke-width:0.5;" width="86" x="531.5" y="511.3281"/><text fill="#000000" font-family="sans-serif" font-size="20" lengthAdjust="spacing" textLength="72" x="538.5" y="539.0898">:System</text><rect fill="#FFFFFF" height="364.5625" style="stroke:#181818;stroke-width:1.0;" width="10" x="104.5" y="138.7656"/><rect fill="#FFFFFF" height="39.1563" style="stroke:#181818;stroke-width:1.0;" width="10" x="569.5" y="169.9219"/><rect fill="#FFFFFF" height="39.1563" style="stroke:#181818;stroke-width:1.0;" width="10" x="569.5" y="298.5469"/><rect fill="#FFFFFF" height="39.1563" style="stroke:#181818;stroke-width:1.0;" width="10" x="569.5" y="376.8594"/><rect fill="#FFFFFF" height="39.1563" style="stroke:#181818;stroke-width:1.0;" width="10" x="569.5" y="455.1719"/><polygon fill="#181818" points="557.5,165.9219,567.5,169.9219,557.5,173.9219,561.5,169.9219" style="stroke:#181818;stroke-width:1.0;"/><line style="stroke:#181818;stroke-width:1.0;" x1="114.5" x2="563.5" y1="169.9219" y2="169.9219"/><text fill="#000000" font-family="sans-serif" font-size="20" font-weight="bold" lengthAdjust="spacing" textLength="11" x="121.5" y="163.5273">1</text><text fill="#000000" font-family="sans-serif" font-size="20" lengthAdjust="spacing" textLength="228" x="136.5" y="163.5273">asks to create a new task</text><polygon fill="#181818" points="125.5,205.0781,115.5,209.0781,125.5,213.0781,121.5,209.0781" style="stroke:#181818;stroke-width:1.0;"/><line style="stroke:#181818;stroke-width:1.0;stroke-dasharray:2.0,2.0;" x1="119.5" x2="573.5" y1="209.0781" y2="209.0781"/><text fill="#000000" font-family="sans-serif" font-size="20" font-weight="bold" lengthAdjust="spacing" textLength="11" x="131.5" y="202.6836">2</text><text fill="#000000" font-family="sans-serif" font-size="20" lengthAdjust="spacing" textLength="121" x="146.5" y="202.6836">requests data</text><polygon fill="#181818" points="557.5,294.5469,567.5,298.5469,557.5,302.5469,561.5,298.5469" style="stroke:#181818;stroke-width:1.0;"/><line style="stroke:#181818;stroke-width:1.0;" x1="114.5" x2="563.5" y1="298.5469" y2="298.5469"/><text fill="#000000" font-family="sans-serif" font-size="20" font-weight="bold" lengthAdjust="spacing" textLength="11" x="121.5" y="266.9961">3</text><text fill="#000000" font-family="sans-serif" font-size="20" lengthAdjust="spacing" textLength="397" x="136.5" y="241.8398">types requested data (reference, description,</text><text fill="#000000" font-family="sans-serif" font-size="20" lengthAdjust="spacing" textLength="365" x="136.5" y="266.9961">informal description, technical description,</text><text fill="#000000" font-family="sans-serif" font-size="20" lengthAdjust="spacing" textLength="126" x="136.5" y="292.1523">duration, cost)</text><polygon fill="#181818" points="125.5,333.7031,115.5,337.7031,125.5,341.7031,121.5,337.7031" style="stroke:#181818;stroke-width:1.0;"/><line style="stroke:#181818;stroke-width:1.0;stroke-dasharray:2.0,2.0;" x1="119.5" x2="573.5" y1="337.7031" y2="337.7031"/><text fill="#000000" font-family="sans-serif" font-size="20" font-weight="bold" lengthAdjust="spacing" textLength="11" x="131.5" y="331.3086">4</text><text fill="#000000" font-family="sans-serif" font-size="20" lengthAdjust="spacing" textLength="416" x="146.5" y="331.3086">shows task category list and asks to select one</text><polygon fill="#181818" points="557.5,372.8594,567.5,376.8594,557.5,380.8594,561.5,376.8594" style="stroke:#181818;stroke-width:1.0;"/><line style="stroke:#181818;stroke-width:1.0;" x1="114.5" x2="563.5" y1="376.8594" y2="376.8594"/><text fill="#000000" font-family="sans-serif" font-size="20" font-weight="bold" lengthAdjust="spacing" textLength="11" x="121.5" y="370.4648">5</text><text fill="#000000" font-family="sans-serif" font-size="20" lengthAdjust="spacing" textLength="205" x="136.5" y="370.4648">selects a task category</text><polygon fill="#181818" points="125.5,412.0156,115.5,416.0156,125.5,420.0156,121.5,416.0156" style="stroke:#181818;stroke-width:1.0;"/><line style="stroke:#181818;stroke-width:1.0;stroke-dasharray:2.0,2.0;" x1="119.5" x2="573.5" y1="416.0156" y2="416.0156"/><text fill="#000000" font-family="sans-serif" font-size="20" font-weight="bold" lengthAdjust="spacing" textLength="11" x="131.5" y="409.6211">6</text><text fill="#000000" font-family="sans-serif" font-size="20" lengthAdjust="spacing" textLength="219" x="146.5" y="409.6211">shows selected category</text><polygon fill="#181818" points="557.5,451.1719,567.5,455.1719,557.5,459.1719,561.5,455.1719" style="stroke:#181818;stroke-width:1.0;"/><line style="stroke:#181818;stroke-width:1.0;" x1="114.5" x2="563.5" y1="455.1719" y2="455.1719"/><text fill="#000000" font-family="sans-serif" font-size="20" font-weight="bold" lengthAdjust="spacing" textLength="11" x="121.5" y="448.7773">7</text><text fill="#000000" font-family="sans-serif" font-size="20" lengthAdjust="spacing" textLength="112" x="136.5" y="448.7773">submits data</text><polygon fill="#181818" points="125.5,490.3281,115.5,494.3281,125.5,498.3281,121.5,494.3281" style="stroke:#181818;stroke-width:1.0;"/><line style="stroke:#181818;stroke-width:1.0;stroke-dasharray:2.0,2.0;" x1="119.5" x2="573.5" y1="494.3281" y2="494.3281"/><text fill="#000000" font-family="sans-serif" font-size="20" font-weight="bold" lengthAdjust="spacing" textLength="11" x="131.5" y="487.9336">8</text><text fill="#000000" font-family="sans-serif" font-size="20" lengthAdjust="spacing" textLength="236" x="146.5" y="487.9336">displays operation success</text><!--SRC=[dP8nJyD038Nt_0ghKv6eX1Wx8241QuUiBEx5JK-zsE7iK8LVZvEGqY8OoartpdlV-PwZXyWjPcoIX0DLKD4EksGlmbR63uBxkq9d2JJ24lPP6WBB7PrzQJ4SiARI-aIGAHXodSu5kiTAZf5hs65IAWgBvjAoLwC6IdhhY0F1KyHwa2_Byka6Ll2OZ3AZnNU23RiDEnFkcYrbtmUJ38jDhf7ZXuk4uRbfa_H42q0z7GhlmMA8BRB1OZrTEYgcxOYAxsZqRId0rto2rSFSwjfj1mKJ29a61mBJ4Sohe-L4cj7mjRxyAqUTi6lFob-kfb2XuQYjw5V4hwrOtvBEZ65w3e5bfXtb8SvRXsd8iHsYkOLNZhoJt62wh1k5FSVme_pALPTnKWHHk_dFytGlHnt3WU2kMd8FAQe1SdKAKYdv7mFYyxqsWCcgFeIBE_xVwWJqA2zGLxNKRPjuFj0h-wYYjWbx1Mbfoj-H8P3g7wry0W00]--></g></svg>