<?xml version="1.0" encoding="us-ascii" standalone="no"?><svg xmlns="http://www.w3.org/2000/svg" xmlns:xlink="http://www.w3.org/1999/xlink" contentStyleType="text/css" height="369px" preserveAspectRatio="none" style="width:572px;height:369px;background:#FFFFFF;" version="1.1" viewBox="0 0 572 369" width="572px" zoomAndPan="magnify"><defs/><g><text fill="#000000" font-family="sans-serif" font-size="14" font-weight="bold" lengthAdjust="spacing" textLength="356" x="109.5" y="27.6738">US012 - Sequence Diagram Partial Create File Copy</text><rect fill="#FFFFFF" height="182.7344" style="stroke:#181818;stroke-width:1.0;" width="10" x="211" y="118.4453"/><rect fill="#FFFFFF" height="82.0469" style="stroke:#181818;stroke-width:1.0;" width="10" x="216" y="219.1328"/><rect fill="#FFFFFF" height="40.5234" style="stroke:#181818;stroke-width:1.0;" width="10" x="221" y="260.6563"/><rect fill="none" height="140.2109" style="stroke:#000000;stroke-width:1.5;" width="440" x="126" y="133.4453"/><line style="stroke:#181818;stroke-width:0.5;stroke-dasharray:5.0,5.0;" x1="53" x2="53" y1="87.9219" y2="319.1797"/><line style="stroke:#181818;stroke-width:0.5;stroke-dasharray:5.0,5.0;" x1="216" x2="216" y1="87.9219" y2="319.1797"/><line style="stroke:#181818;stroke-width:0.5;stroke-dasharray:5.0,5.0;" x1="496" x2="496" y1="180.2891" y2="319.1797"/><rect fill="#E3E3E3" height="45.2813" rx="2.5" ry="2.5" style="stroke:#181818;stroke-width:0.5;" width="97" x="5" y="41.6406"/><text fill="#000000" font-family="sans-serif" font-size="14" lengthAdjust="spacing" textLength="74" x="16.5" y="61.3145">repositories</text><text fill="#000000" font-family="sans-serif" font-size="14" lengthAdjust="spacing" textLength="83" x="12" y="76.9551">:Repositories</text><rect fill="#E3E3E3" height="45.2813" rx="2.5" ry="2.5" style="stroke:#181818;stroke-width:0.5;" width="97" x="5" y="318.1797"/><text fill="#000000" font-family="sans-serif" font-size="14" lengthAdjust="spacing" textLength="74" x="16.5" y="337.8535">repositories</text><text fill="#000000" font-family="sans-serif" font-size="14" lengthAdjust="spacing" textLength="83" x="12" y="353.4941">:Repositories</text><rect fill="#E3E3E3" height="45.2813" rx="2.5" ry="2.5" style="stroke:#181818;stroke-width:0.5;" width="160" x="136" y="41.6406"/><text fill="#000000" font-family="sans-serif" font-size="14" lengthAdjust="spacing" textLength="146" x="143" y="61.3145">File Reader Repository</text><text fill="#000000" font-family="sans-serif" font-size="14" lengthAdjust="spacing" textLength="142" x="145" y="76.9551">:FileReaderRepository</text><rect fill="#E3E3E3" height="45.2813" rx="2.5" ry="2.5" style="stroke:#181818;stroke-width:0.5;" width="160" x="136" y="318.1797"/><text fill="#000000" font-family="sans-serif" font-size="14" lengthAdjust="spacing" textLength="146" x="143" y="337.8535">File Reader Repository</text><text fill="#000000" font-family="sans-serif" font-size="14" lengthAdjust="spacing" textLength="142" x="145" y="353.4941">:FileReaderRepository</text><rect fill="#E3E3E3" height="29.6406" rx="2.5" ry="2.5" style="stroke:#181818;stroke-width:0.5;" width="119" x="437" y="318.1797"/><text fill="#000000" font-family="sans-serif" font-size="14" lengthAdjust="spacing" textLength="105" x="444" y="337.8535">FileReaderClass</text><rect fill="#FFFFFF" height="182.7344" style="stroke:#181818;stroke-width:1.0;" width="10" x="211" y="118.4453"/><rect fill="#FFFFFF" height="82.0469" style="stroke:#181818;stroke-width:1.0;" width="10" x="216" y="219.1328"/><rect fill="#FFFFFF" height="40.5234" style="stroke:#181818;stroke-width:1.0;" width="10" x="221" y="260.6563"/><polygon fill="#181818" points="199,114.4453,209,118.4453,199,122.4453,203,118.4453" style="stroke:#181818;stroke-width:1.0;"/><line style="stroke:#181818;stroke-width:1.0;" x1="0" x2="205" y1="118.4453" y2="118.4453"/><text fill="#000000" font-family="sans-serif" font-size="13" font-weight="bold" lengthAdjust="spacing" textLength="14" x="7" y="113.6904">11</text><text fill="#000000" font-family="sans-serif" font-size="13" lengthAdjust="spacing" textLength="174" x="25" y="113.6904">createFileCopy(fileInformation)</text><path d="M126,133.4453 L277,133.4453 L277,139.9688 L267,149.9688 L126,149.9688 L126,133.4453 " fill="#EEEEEE" style="stroke:#000000;stroke-width:1.5;"/><rect fill="none" height="140.2109" style="stroke:#000000;stroke-width:1.5;" width="440" x="126" y="133.4453"/><text fill="#000000" font-family="sans-serif" font-size="13" font-weight="bold" lengthAdjust="spacing" textLength="106" x="141" y="146.2139">Create File Copy</text><polygon fill="#181818" points="425,166.4922,435,170.4922,425,174.4922,429,170.4922" style="stroke:#181818;stroke-width:1.0;"/><line style="stroke:#181818;stroke-width:1.0;" x1="221" x2="431" y1="170.4922" y2="170.4922"/><text fill="#000000" font-family="sans-serif" font-size="13" font-weight="bold" lengthAdjust="spacing" textLength="14" x="228" y="165.7373">12</text><text fill="#000000" font-family="sans-serif" font-size="13" lengthAdjust="spacing" textLength="174" x="246" y="165.7373">createFileCopy(fileInformation)</text><rect fill="#E3E3E3" height="29.6406" rx="2.5" ry="2.5" style="stroke:#181818;stroke-width:0.5;" width="119" x="437" y="149.9688"/><text fill="#000000" font-family="sans-serif" font-size="14" lengthAdjust="spacing" textLength="105" x="444" y="169.6426">FileReaderClass</text><line style="stroke:#181818;stroke-width:1.0;" x1="221" x2="268" y1="206.1328" y2="206.1328"/><line style="stroke:#181818;stroke-width:1.0;" x1="268" x2="268" y1="206.1328" y2="219.1328"/><line style="stroke:#181818;stroke-width:1.0;" x1="227" x2="268" y1="219.1328" y2="219.1328"/><polygon fill="#181818" points="237,215.1328,227,219.1328,237,223.1328,233,219.1328" style="stroke:#181818;stroke-width:1.0;"/><text fill="#000000" font-family="sans-serif" font-size="13" font-weight="bold" lengthAdjust="spacing" textLength="14" x="233" y="201.3779">13</text><text fill="#000000" font-family="sans-serif" font-size="13" lengthAdjust="spacing" textLength="159" x="251" y="201.3779">addFileCopy(fileInformation)</text><line style="stroke:#181818;stroke-width:1.0;" x1="226" x2="273" y1="247.6563" y2="247.6563"/><line style="stroke:#181818;stroke-width:1.0;" x1="273" x2="273" y1="247.6563" y2="260.6563"/><line style="stroke:#181818;stroke-width:1.0;" x1="232" x2="273" y1="260.6563" y2="260.6563"/><polygon fill="#181818" points="242,256.6563,232,260.6563,242,264.6563,238,260.6563" style="stroke:#181818;stroke-width:1.0;"/><text fill="#000000" font-family="sans-serif" font-size="13" font-weight="bold" lengthAdjust="spacing" textLength="14" x="238" y="242.9014">14</text><text fill="#000000" font-family="sans-serif" font-size="13" lengthAdjust="spacing" textLength="181" x="256" y="242.9014">validateFileCopy(fileInformation)</text><polygon fill="#181818" points="204,297.1797,214,301.1797,204,305.1797,208,301.1797" style="stroke:#181818;stroke-width:1.0;"/><line style="stroke:#181818;stroke-width:1.0;stroke-dasharray:2.0,2.0;" x1="0" x2="210" y1="301.1797" y2="301.1797"/><text fill="#000000" font-family="sans-serif" font-size="13" font-weight="bold" lengthAdjust="spacing" textLength="14" x="7" y="296.4248">15</text><text fill="#000000" font-family="sans-serif" font-size="13" lengthAdjust="spacing" textLength="51" x="25" y="296.4248">FileCopy</text><!--SRC=[nL4zJyD03DtlLrXTW4gLA6C7bY8aDjIAZSMzSrAhoVcuSmhzzoH5BVq81AHAyNJnUy_sUqahzW4Zbb2A5xkCKX9ehCYaFHBGhZ2dkMuAWaXMqUV58I4jqSax-nmoB18PewmrzML-Exw34SpfhI9l2HuOyuR_Z54P2vX6GYLuv9eybR0n1YiLNvKBYZ0U6tErP4UGYUX2FemneH5Q3kWL1f6295Q9JEdLJsO7dmF018UDO-LsuOpGrMlsh4qzem6- -j_jxQmsm3G5fpMwRoN31EpMRGCsNg-p-l7aCuabAek_EHzrKcYLrxkype_fakTHgj0IUPUkrSsHosc1AGs7Vx1uWML7aQ9plUNvprFNMB3hy_-JTzsaqSy6TeTtpd3q-wLzwyqd]--></g></svg>