<?xml version="1.0" encoding="us-ascii" standalone="no"?><svg xmlns="http://www.w3.org/2000/svg" xmlns:xlink="http://www.w3.org/1999/xlink" contentStyleType="text/css" height="620px" preserveAspectRatio="none" style="width:739px;height:620px;background:#FFFFFF;" version="1.1" viewBox="0 0 739 620" width="739px" zoomAndPan="magnify"><defs/><g><!--entity admin--><g id="elem_admin"><ellipse cx="79.5" cy="417" fill="#F1F1F1" rx="8" ry="8" style="stroke:#181818;stroke-width:0.5;"/><path d="M79.5,425 L79.5,452 M66.5,433 L92.5,433 M79.5,452 L66.5,467 M79.5,452 L92.5,467 " fill="none" style="stroke:#181818;stroke-width:0.5;"/><text fill="#000000" font-family="sans-serif" font-size="14" lengthAdjust="spacing" textLength="147" x="6" y="482.0352">System Administrator</text></g><!--entity agent--><g id="elem_agent"><ellipse cx="79.5" cy="236" fill="#F1F1F1" rx="8" ry="8" style="stroke:#181818;stroke-width:0.5;"/><path d="M79.5,244 L79.5,271 M66.5,252 L92.5,252 M79.5,271 L66.5,286 M79.5,271 L92.5,286 " fill="none" style="stroke:#181818;stroke-width:0.5;"/><text fill="#000000" font-family="sans-serif" font-size="14" lengthAdjust="spacing" textLength="41" x="59" y="301.0352">Agent</text></g><!--entity user--><g id="elem_user"><ellipse cx="79.5" cy="125" fill="#F1F1F1" rx="8" ry="8" style="stroke:#181818;stroke-width:0.5;"/><path d="M79.5,133 L79.5,160 M66.5,141 L92.5,141 M79.5,160 L66.5,175 M79.5,160 L92.5,175 " fill="none" style="stroke:#181818;stroke-width:0.5;"/><text fill="#000000" font-family="sans-serif" font-size="14" lengthAdjust="spacing" textLength="123" x="18" y="190.0352">Unregistered user</text></g><!--entity owner--><g id="elem_owner"><ellipse cx="79.5" cy="14" fill="#F1F1F1" rx="8" ry="8" style="stroke:#181818;stroke-width:0.5;"/><path d="M79.5,22 L79.5,49 M66.5,30 L92.5,30 M79.5,49 L66.5,64 M79.5,49 L92.5,64 " fill="none" style="stroke:#181818;stroke-width:0.5;"/><text fill="#000000" font-family="sans-serif" font-size="14" lengthAdjust="spacing" textLength="45" x="57" y="79.0352">Owner</text></g><g id="elem_UC1"><ellipse cx="473.5207" cy="154.4041" fill="#F1F1F1" rx="127.5207" ry="27.9041" style="stroke:#181818;stroke-width:0.5;"/><text fill="#000000" font-family="sans-serif" font-size="14" lengthAdjust="spacing" textLength="223" x="362.0207" y="157.6951">UC01: Display a listed properties</text></g><g id="elem_UC2"><ellipse cx="473.501" cy="265.7002" fill="#F1F1F1" rx="194.001" ry="41.2002" style="stroke:#181818;stroke-width:0.5;"/><text fill="#000000" font-family="sans-serif" font-size="14" lengthAdjust="spacing" textLength="361" x="293.001" y="268.9912">UC02: Publish any sale announcement on the system</text></g><g id="elem_UC3"><ellipse cx="473.6289" cy="364.5258" fill="#F1F1F1" rx="100.6289" ry="22.5258" style="stroke:#181818;stroke-width:0.5;"/><text fill="#000000" font-family="sans-serif" font-size="14" lengthAdjust="spacing" textLength="165" x="391.1289" y="367.8168">UC03: Add an employee</text></g><g id="elem_UC4"><ellipse cx="473.4901" cy="43.498" fill="#F1F1F1" rx="160.4901" ry="34.498" style="stroke:#181818;stroke-width:0.5;"/><text fill="#000000" font-family="sans-serif" font-size="14" lengthAdjust="spacing" textLength="292" x="327.4901" y="46.789">UC04: Sell or rent properties of a company</text></g><g id="elem_UC5"><ellipse cx="473.2773" cy="446.3555" fill="#F1F1F1" rx="109.7773" ry="24.3555" style="stroke:#181818;stroke-width:0.5;"/><text fill="#000000" font-family="sans-serif" font-size="14" lengthAdjust="spacing" textLength="185" x="380.7773" y="449.6465">UC05: Register a new store</text></g><g id="elem_UC6"><ellipse cx="473.323" cy="560.4646" fill="#F1F1F1" rx="260.323" ry="54.4646" style="stroke:#181818;stroke-width:0.5;"/><text fill="#000000" font-family="sans-serif" font-size="14" lengthAdjust="spacing" textLength="496" x="225.323" y="563.7556">UC06: Specify districts, municipalities, and parishes in the system distrits</text></g><!--link admin to UC5--><g id="link_admin_UC5"><path d="M153.31,446.5 C210.37,446.5 290.84,446.5 356.71,446.5 " fill="none" id="admin-to-UC5" style="stroke:#181818;stroke-width:1.0;"/><polygon fill="#181818" points="361.53,446.5,352.53,442.5,356.53,446.5,352.53,450.5,361.53,446.5" style="stroke:#181818;stroke-width:1.0;"/></g><!--link admin to UC3--><g id="link_admin_UC3"><path d="M153.18,421.25 C172.46,415.16 193.38,409.09 213,404.5 C266.74,391.92 327.69,382.29 377.01,375.64 " fill="none" id="admin-to-UC3" style="stroke:#181818;stroke-width:1.0;"/><polygon fill="#181818" points="381.77,375,372.3146,372.2442,376.8152,375.6711,373.3883,380.1718,381.77,375" style="stroke:#181818;stroke-width:1.0;"/></g><!--link admin to UC6--><g id="link_admin_UC6"><path d="M153.25,470.08 C172.62,476.22 193.57,482.73 213,488.5 C243.25,497.49 275.59,506.74 306.82,515.5 " fill="none" id="admin-to-UC6" style="stroke:#181818;stroke-width:1.0;"/><polygon fill="#181818" points="311.59,516.83,303.9956,510.559,306.7738,515.4866,301.8462,518.2648,311.59,516.83" style="stroke:#181818;stroke-width:1.0;"/></g><!--link user to UC1--><g id="link_user_UC1"><path d="M141.32,154.5 C194.03,154.5 272.16,154.5 339.3,154.5 " fill="none" id="user-to-UC1" style="stroke:#181818;stroke-width:1.0;"/><polygon fill="#181818" points="344.25,154.5,335.25,150.5,339.25,154.5,335.25,158.5,344.25,154.5" style="stroke:#181818;stroke-width:1.0;"/></g><!--link agent to UC2--><g id="link_agent_UC2"><path d="M100.48,265.5 C133.49,265.5 202.77,265.5 272.69,265.5 " fill="none" id="agent-to-UC2" style="stroke:#181818;stroke-width:1.0;"/><polygon fill="#181818" points="277.51,265.5,268.51,261.5,272.51,265.5,268.51,269.5,277.51,265.5" style="stroke:#181818;stroke-width:1.0;"/></g><!--link owner to UC4--><g id="link_owner_UC4"><path d="M102.42,43.5 C141.7,43.5 227.41,43.5 306.46,43.5 " fill="none" id="owner-to-UC4" style="stroke:#181818;stroke-width:1.0;"/><polygon fill="#181818" points="311.11,43.5,302.11,39.5,306.11,43.5,302.11,47.5,311.11,43.5" style="stroke:#181818;stroke-width:1.0;"/></g><!--SRC=[PL51RW8n3BplAqQSGIgmSCYX4gBtLaNxW3Hhm58sYPAiqFw-3WILQdEodHcFFRPqpiWUaI_NZ9uZcSpUDGtKQKgP1XpwWHsd77NsKK4dw58HmE52BZyg9P9Avo9T14kHUeo97lWIoEVdpTM2Bv58o9C_enDXqHtVrWeVd8BL4pHiQTCZH1yePgQqACpkk9xHDWfVuu_Whz1kGjAM971-T8O6cGlU8Ly9wRvFRREPjTagMRKN9cW8raz45RgTGLk54raB7n6BmD-Gy6UPtVWXo2YLtyxuEuNlwfEW7TsGnDkdtcw6tujU8CFdIIuabs2JqnB3wDXmq9QByb8c5xjq51za3dxTkRBoqyEzU7y_8bQhzuVYQxhzdnPqEM5DruLSxbtpZUJtWzQyRPhc5m00]--></g></svg>