<?xml version="1.0" encoding="us-ascii" standalone="no"?><svg xmlns="http://www.w3.org/2000/svg" xmlns:xlink="http://www.w3.org/1999/xlink" contentStyleType="text/css" height="606px" preserveAspectRatio="none" style="width:689px;height:606px;background:#FFFFFF;" version="1.1" viewBox="0 0 689 606" width="689px" zoomAndPan="magnify"><defs/><g><!--entity admin--><g id="elem_admin"><ellipse cx="72.5" cy="411" fill="#F1F1F1" rx="8" ry="8" style="stroke:#181818;stroke-width:0.5;"/><path d="M72.5,419 L72.5,446 M59.5,427 L85.5,427 M72.5,446 L59.5,461 M72.5,446 L85.5,461 " fill="none" style="stroke:#181818;stroke-width:0.5;"/><text fill="#000000" font-family="sans-serif" font-size="14" lengthAdjust="spacing" textLength="133" x="6" y="475.1738">System Administrator</text></g><!--entity agent--><g id="elem_agent"><ellipse cx="72.5" cy="236" fill="#F1F1F1" rx="8" ry="8" style="stroke:#181818;stroke-width:0.5;"/><path d="M72.5,244 L72.5,271 M59.5,252 L85.5,252 M72.5,271 L59.5,286 M72.5,271 L85.5,286 " fill="none" style="stroke:#181818;stroke-width:0.5;"/><text fill="#000000" font-family="sans-serif" font-size="14" lengthAdjust="spacing" textLength="37" x="54" y="300.1738">Agent</text></g><!--entity user--><g id="elem_user"><ellipse cx="72.5" cy="125" fill="#F1F1F1" rx="8" ry="8" style="stroke:#181818;stroke-width:0.5;"/><path d="M72.5,133 L72.5,160 M59.5,141 L85.5,141 M72.5,160 L59.5,175 M72.5,160 L85.5,175 " fill="none" style="stroke:#181818;stroke-width:0.5;"/><text fill="#000000" font-family="sans-serif" font-size="14" lengthAdjust="spacing" textLength="113" x="16" y="189.1738">Unregistered user</text></g><!--entity owner--><g id="elem_owner"><ellipse cx="72.5" cy="14" fill="#F1F1F1" rx="8" ry="8" style="stroke:#181818;stroke-width:0.5;"/><path d="M72.5,22 L72.5,49 M59.5,30 L85.5,30 M72.5,49 L59.5,64 M72.5,49 L85.5,64 " fill="none" style="stroke:#181818;stroke-width:0.5;"/><text fill="#000000" font-family="sans-serif" font-size="14" lengthAdjust="spacing" textLength="41" x="52" y="78.1738">Owner</text></g><g id="elem_UC1"><ellipse cx="440.8013" cy="154.6603" fill="#F1F1F1" rx="118.8013" ry="26.1603" style="stroke:#181818;stroke-width:0.5;"/><text fill="#000000" font-family="sans-serif" font-size="14" lengthAdjust="spacing" textLength="206" x="337.8013" y="157.5138">UC01: Display a listed properties</text></g><g id="elem_UC2"><ellipse cx="440.8394" cy="265.6679" fill="#F1F1F1" rx="181.3394" ry="38.6679" style="stroke:#181818;stroke-width:0.5;"/><text fill="#000000" font-family="sans-serif" font-size="14" lengthAdjust="spacing" textLength="336" x="272.8394" y="268.5214">UC02: Publish any sale announcement on the system</text></g><g id="elem_UC3"><ellipse cx="440.7972" cy="360.2594" fill="#F1F1F1" rx="94.2972" ry="21.2594" style="stroke:#181818;stroke-width:0.5;"/><text fill="#000000" font-family="sans-serif" font-size="14" lengthAdjust="spacing" textLength="153" x="364.2972" y="363.113">UC03: Add an employee</text></g><g id="elem_UC4"><ellipse cx="440.8396" cy="43.6679" fill="#F1F1F1" rx="148.8396" ry="32.1679" style="stroke:#181818;stroke-width:0.5;"/><text fill="#000000" font-family="sans-serif" font-size="14" lengthAdjust="spacing" textLength="269" x="306.3396" y="46.5214">UC04: Sell or rent properties of a company</text></g><g id="elem_UC5"><ellipse cx="440.925" cy="440.585" fill="#F1F1F1" rx="103.425" ry="23.085" style="stroke:#181818;stroke-width:0.5;"/><text fill="#000000" font-family="sans-serif" font-size="14" lengthAdjust="spacing" textLength="173" x="354.425" y="443.4385">UC05: Register a new store</text></g><g id="elem_UC6"><ellipse cx="441.2173" cy="549.3435" fill="#F1F1F1" rx="242.2173" ry="50.8435" style="stroke:#181818;stroke-width:0.5;"/><text fill="#000000" font-family="sans-serif" font-size="14" lengthAdjust="spacing" textLength="460" x="211.2173" y="552.197">UC06": Specify districts, municipalities, and parishes in the system distrits</text></g><!--link admin to UC5--><g id="link_admin_UC5"><path d="M139.02,440.5 C192.59,440.5 269.44,440.5 332.08,440.5 " fill="none" id="admin-to-UC5" style="stroke:#181818;stroke-width:1.0;"/><polygon fill="#181818" points="337.32,440.5,328.32,436.5,332.32,440.5,328.32,444.5,337.32,440.5" style="stroke:#181818;stroke-width:1.0;"/></g><!--link admin to UC3--><g id="link_admin_UC3"><path d="M139.11,417.63 C158.25,411.49 179.33,405.24 199,400.5 C249.72,388.27 307.35,378.56 353.53,371.77 " fill="none" id="admin-to-UC3" style="stroke:#181818;stroke-width:1.0;"/><polygon fill="#181818" points="358.53,371.04,349.0429,368.3952,353.5834,371.7691,350.2095,376.3097,358.53,371.04" style="stroke:#181818;stroke-width:1.0;"/></g><!--link admin to UC6--><g id="link_admin_UC6"><path d="M139.13,462.5 C158.37,468.8 179.48,475.56 199,481.5 C227.7,490.23 258.44,499.2 288.03,507.64 " fill="none" id="admin-to-UC6" style="stroke:#181818;stroke-width:1.0;"/><polygon fill="#181818" points="293.16,509.1,285.6002,502.7873,288.3513,507.7302,283.4085,510.4813,293.16,509.1" style="stroke:#181818;stroke-width:1.0;"/></g><!--link user to UC1--><g id="link_user_UC1"><path d="M129.16,154.5 C178.73,154.5 253.03,154.5 316.56,154.5 " fill="none" id="user-to-UC1" style="stroke:#181818;stroke-width:1.0;"/><polygon fill="#181818" points="321.89,154.5,312.89,150.5,316.89,154.5,312.89,158.5,321.89,154.5" style="stroke:#181818;stroke-width:1.0;"/></g><!--link agent to UC2--><g id="link_agent_UC2"><path d="M91.18,265.5 C121.77,265.5 187.69,265.5 254.08,265.5 " fill="none" id="agent-to-UC2" style="stroke:#181818;stroke-width:1.0;"/><polygon fill="#181818" points="259.27,265.5,250.27,261.5,254.27,265.5,250.27,269.5,259.27,265.5" style="stroke:#181818;stroke-width:1.0;"/></g><!--link owner to UC4--><g id="link_owner_UC4"><path d="M93.2,43.5 C129.87,43.5 211.65,43.5 286.6,43.5 " fill="none" id="owner-to-UC4" style="stroke:#181818;stroke-width:1.0;"/><polygon fill="#181818" points="291.98,43.5,282.98,39.5,286.98,43.5,282.98,47.5,291.98,43.5" style="stroke:#181818;stroke-width:1.0;"/></g><!--SRC=[PL51RW8n3BplAqQSGIgmSCYX4gBtLaNxW3Hhm58sYPAiqFw-3WILQdEodHcFFRPqpiWUaI_NZ9uZcSpUDGtKQKgP1XpwWHsd77NsKK4dw58HmE52BZyg9P9Avo9T14kHUeo97lWIoEVdpTM2Bv58o9C_enDXqHtVrWeVd8BL4pHiQTCZH1yePgQqACpkk9xHDWfVuu_Whz1kGjAM971-T8O6cGlU8Ly9wRvFRREPjTagMRKN9cW8raz45RgTGLk54raB7n6BmD-Gy6UPtVWXo2YLtyxuEuNlwfEW7TsGnDkdtcw6toz4C93XyoGdabEmoMc9ONHiE6ZBHNefeujVEeeHCWY_BbrP-MdYNio_Nn6hrVj3yZNT_ayBkjomfkj2BWUl-KRo-qLhtZPDymi0]--></g></svg>