<?xml version="1.0" encoding="us-ascii" standalone="no"?><svg xmlns="http://www.w3.org/2000/svg" xmlns:xlink="http://www.w3.org/1999/xlink" contentStyleType="text/css" height="596px" preserveAspectRatio="none" style="width:617px;height:596px;background:#FFFFFF;" version="1.1" viewBox="0 0 617 596" width="617px" zoomAndPan="magnify"><defs/><g><!--entity admin--><g id="elem_admin"><ellipse cx="79.5" cy="417" fill="#F1F1F1" rx="8" ry="8" style="stroke:#181818;stroke-width:0.5;"/><path d="M79.5,425 L79.5,452 M66.5,433 L92.5,433 M79.5,452 L66.5,467 M79.5,452 L92.5,467 " fill="none" style="stroke:#181818;stroke-width:0.5;"/><text fill="#000000" font-family="sans-serif" font-size="14" lengthAdjust="spacing" textLength="147" x="6" y="482.0352">System Administrator</text></g><!--entity agent--><g id="elem_agent"><ellipse cx="79.5" cy="236" fill="#F1F1F1" rx="8" ry="8" style="stroke:#181818;stroke-width:0.5;"/><path d="M79.5,244 L79.5,271 M66.5,252 L92.5,252 M79.5,271 L66.5,286 M79.5,271 L92.5,286 " fill="none" style="stroke:#181818;stroke-width:0.5;"/><text fill="#000000" font-family="sans-serif" font-size="14" lengthAdjust="spacing" textLength="41" x="59" y="301.0352">Agent</text></g><!--entity user--><g id="elem_user"><ellipse cx="79.5" cy="125" fill="#F1F1F1" rx="8" ry="8" style="stroke:#181818;stroke-width:0.5;"/><path d="M79.5,133 L79.5,160 M66.5,141 L92.5,141 M79.5,160 L66.5,175 M79.5,160 L92.5,175 " fill="none" style="stroke:#181818;stroke-width:0.5;"/><text fill="#000000" font-family="sans-serif" font-size="14" lengthAdjust="spacing" textLength="123" x="18" y="190.0352">Unregistered user</text></g><!--entity owner--><g id="elem_owner"><ellipse cx="79.5" cy="14" fill="#F1F1F1" rx="8" ry="8" style="stroke:#181818;stroke-width:0.5;"/><path d="M79.5,22 L79.5,49 M66.5,30 L92.5,30 M79.5,49 L66.5,64 M79.5,49 L92.5,64 " fill="none" style="stroke:#181818;stroke-width:0.5;"/><text fill="#000000" font-family="sans-serif" font-size="14" lengthAdjust="spacing" textLength="45" x="57" y="79.0352">Owner</text></g><g id="elem_UC1"><ellipse cx="412.5207" cy="154.4041" fill="#F1F1F1" rx="127.5207" ry="27.9041" style="stroke:#181818;stroke-width:0.5;"/><text fill="#000000" font-family="sans-serif" font-size="14" lengthAdjust="spacing" textLength="223" x="301.0207" y="157.6951">UC01: Display a listed properties</text></g><g id="elem_UC2"><ellipse cx="412.501" cy="265.7002" fill="#F1F1F1" rx="194.001" ry="41.2002" style="stroke:#181818;stroke-width:0.5;"/><text fill="#000000" font-family="sans-serif" font-size="14" lengthAdjust="spacing" textLength="361" x="232.001" y="268.9912">UC02: Publish any sale announcement on the system</text></g><g id="elem_UC3"><ellipse cx="412.6289" cy="364.5258" fill="#F1F1F1" rx="100.6289" ry="22.5258" style="stroke:#181818;stroke-width:0.5;"/><text fill="#000000" font-family="sans-serif" font-size="14" lengthAdjust="spacing" textLength="165" x="330.1289" y="367.8168">UC03: Add an employee</text></g><g id="elem_UC4"><ellipse cx="412.4901" cy="43.498" fill="#F1F1F1" rx="160.4901" ry="34.498" style="stroke:#181818;stroke-width:0.5;"/><text fill="#000000" font-family="sans-serif" font-size="14" lengthAdjust="spacing" textLength="292" x="266.4901" y="46.789">UC04: Sell or rent properties of a company</text></g><g id="elem_UC5"><ellipse cx="412.2773" cy="446.3555" fill="#F1F1F1" rx="109.7773" ry="24.3555" style="stroke:#181818;stroke-width:0.5;"/><text fill="#000000" font-family="sans-serif" font-size="14" lengthAdjust="spacing" textLength="185" x="319.7773" y="449.6465">UC05: Register a new store</text></g><g id="elem_UC6"><ellipse cx="412.375" cy="548.275" fill="#F1F1F1" rx="199.375" ry="42.275" style="stroke:#181818;stroke-width:0.5;"/><text fill="#000000" font-family="sans-serif" font-size="14" lengthAdjust="spacing" textLength="372" x="226.375" y="551.566">UC06: Specify states, districts, and states in the system</text></g><!--link admin to UC5--><g id="link_admin_UC5"><path d="M153.14,446.5 C194.94,446.5 248.42,446.5 295.87,446.5 " fill="none" id="admin-to-UC5" style="stroke:#181818;stroke-width:1.0;"/><polygon fill="#181818" points="300.71,446.5,291.71,442.5,295.71,446.5,291.71,450.5,300.71,446.5" style="stroke:#181818;stroke-width:1.0;"/></g><!--link admin to UC3--><g id="link_admin_UC3"><path d="M153.33,421.86 C172.61,415.76 193.49,409.54 213,404.5 C249.84,394.98 291.01,386.36 326.27,379.58 " fill="none" id="admin-to-UC3" style="stroke:#181818;stroke-width:1.0;"/><polygon fill="#181818" points="330.84,378.71,321.2463,376.4826,325.9301,379.6548,322.7579,384.3385,330.84,378.71" style="stroke:#181818;stroke-width:1.0;"/></g><!--link admin to UC6--><g id="link_admin_UC6"><path d="M153.34,469.78 C172.71,475.92 193.64,482.5 213,488.5 C237.67,496.14 264.11,504.21 289.38,511.87 " fill="none" id="admin-to-UC6" style="stroke:#181818;stroke-width:1.0;"/><polygon fill="#181818" points="293.99,513.26,286.5277,506.8323,289.2028,511.8167,284.2185,514.4918,293.99,513.26" style="stroke:#181818;stroke-width:1.0;"/></g><!--link user to UC1--><g id="link_user_UC1"><path d="M141.21,154.5 C179.61,154.5 230.8,154.5 278.3,154.5 " fill="none" id="user-to-UC1" style="stroke:#181818;stroke-width:1.0;"/><polygon fill="#181818" points="283.16,154.5,274.16,150.5,278.16,154.5,274.16,158.5,283.16,154.5" style="stroke:#181818;stroke-width:1.0;"/></g><!--link agent to UC2--><g id="link_agent_UC2"><path d="M100.21,265.5 C123.81,265.5 165.9,265.5 211.66,265.5 " fill="none" id="agent-to-UC2" style="stroke:#181818;stroke-width:1.0;"/><polygon fill="#181818" points="216.63,265.5,207.63,261.5,211.63,265.5,207.63,269.5,216.63,265.5" style="stroke:#181818;stroke-width:1.0;"/></g><!--link owner to UC4--><g id="link_owner_UC4"><path d="M102.47,43.5 C132.43,43.5 188.84,43.5 245.35,43.5 " fill="none" id="owner-to-UC4" style="stroke:#181818;stroke-width:1.0;"/><polygon fill="#181818" points="250.01,43.5,241.01,39.5,245.01,43.5,241.01,47.5,250.01,43.5" style="stroke:#181818;stroke-width:1.0;"/></g><!--SRC=[RL7BQiCm4BpxAuQS6sXi9mST2Y6zjpJa0rHfamXaoKWRWl- -AqUbBQvEEwkPVOsdCuCZahjS6TObCknYQ1geuvIP1kpju8BBd3J7fA0pTCa8ON-Xm8zCYIHp2eakmgL45hTC3tu9vFFj7ceYbaXQo9C_epDXTJeyRnHUNHwzdg3XIncBCSMH4ZlAgw8y7JOBMQlmVliK_XKwJCZQamGXteAXGUP23E0h8S_xr3BjeaodP5KhIj0m-ZWHLMgteFOAH_8UCI6L1Zz38fvbTXE7KKQf-dwXtofyr3i9Ez0TMMxxtM-xuE-atqZ6dMKxrapvIPmIHvnX2NMmDGttpwOxEVJi6DRhbqVvtx3x2mkx-5NXfeYBkHMtWcVtAkwRfla2]--></g></svg>