<?xml version="1.0" encoding="us-ascii" standalone="no"?><svg xmlns="http://www.w3.org/2000/svg" xmlns:xlink="http://www.w3.org/1999/xlink" contentStyleType="text/css" height="500px" preserveAspectRatio="none" style="width:1531px;height:500px;background:#FFFFFF;" version="1.1" viewBox="0 0 1531 500" width="1531px" zoomAndPan="magnify"><defs/><g><!--class Property--><g id="elem_Property"><rect codeLine="39" fill="#F1F1F1" height="126.2031" id="Property" rx="2.5" ry="2.5" style="stroke:#181818;stroke-width:0.5;" width="204" x="988" y="135"/><ellipse cx="1058.75" cy="151" fill="#ADD1B2" rx="11" ry="11" style="stroke:#181818;stroke-width:1.0;"/><path d="M1060.75,147.5 Q1060.9531,147 1061.1875,146.75 Q1061.4219,146.5 1061.6875,146.5 Q1062.1563,146.5 1062.4531,146.7813 Q1062.75,147.0625 1062.75,147.7188 L1062.75,149.2813 Q1062.75,149.9375 1062.4688,150.2188 Q1062.1875,150.5 1061.75,150.5 Q1061.3594,150.5 1061.1094,150.3281 Q1060.8594,150.1563 1060.75,149.7031 Q1060.7031,149.3906 1060.5313,149.2188 Q1060.2188,148.8906 1059.6563,148.7031 Q1059.0938,148.5 1058.5313,148.5 Q1057.8281,148.5 1057.2344,148.7813 Q1056.6563,149.0625 1056.2031,149.6875 Q1055.75,150.3125 1055.75,151.1719 L1055.75,152.0938 Q1055.75,153.125 1056.5938,153.8125 Q1057.4375,154.5 1058.9375,154.5 Q1059.8281,154.5 1060.4531,154.2969 Q1060.8125,154.1875 1061.2188,153.8281 Q1061.4844,153.625 1061.625,153.5625 Q1061.7656,153.5 1061.9375,153.5 Q1062.2656,153.5 1062.5,153.7656 Q1062.75,154.0156 1062.75,154.375 Q1062.75,154.7188 1062.4063,155.125 Q1061.9063,155.7188 1061.1094,156.0469 Q1060.0625,156.5 1058.7813,156.5 Q1057.2813,156.5 1056.0781,155.9063 Q1055.1094,155.4375 1054.4219,154.4219 Q1053.75,153.4063 1053.75,152.2031 L1053.75,151.1094 Q1053.75,149.8594 1054.3438,148.7656 Q1054.9531,147.6719 1056,147.0938 Q1057.0625,146.5 1058.25,146.5 Q1058.9688,146.5 1059.5938,146.75 Q1060.2188,147 1060.75,147.5 Z " fill="#000000"/><text fill="#000000" font-family="sans-serif" font-size="14" lengthAdjust="spacing" textLength="54" x="1079.25" y="155.8535">Property</text><line style="stroke:#181818;stroke-width:0.5;" x1="989" x2="1191" y1="167" y2="167"/><rect fill="none" height="6" style="stroke:#C82930;stroke-width:1.0;" width="6" x="996" y="177.3203"/><text fill="#000000" font-family="sans-serif" font-size="14" lengthAdjust="spacing" textLength="29" x="1008" y="183.6738">area</text><rect fill="none" height="6" style="stroke:#C82930;stroke-width:1.0;" width="6" x="996" y="192.9609"/><text fill="#000000" font-family="sans-serif" font-size="14" lengthAdjust="spacing" textLength="43" x="1008" y="199.3145">photos</text><rect fill="none" height="6" style="stroke:#C82930;stroke-width:1.0;" width="6" x="996" y="208.6016"/><text fill="#000000" font-family="sans-serif" font-size="14" lengthAdjust="spacing" textLength="114" x="1008" y="214.9551">LocationOrAdress</text><rect fill="none" height="6" style="stroke:#C82930;stroke-width:1.0;" width="6" x="996" y="224.2422"/><text fill="#000000" font-family="sans-serif" font-size="14" lengthAdjust="spacing" textLength="178" x="1008" y="230.5957">distance from the city center</text><rect fill="none" height="6" style="stroke:#C82930;stroke-width:1.0;" width="6" x="996" y="239.8828"/><text fill="#000000" font-family="sans-serif" font-size="14" lengthAdjust="spacing" textLength="123" x="1008" y="246.2363">the requested price</text><line style="stroke:#181818;stroke-width:0.5;" x1="989" x2="1191" y1="253.2031" y2="253.2031"/></g><!--class Apartment--><g id="elem_Apartment"><rect codeLine="47" fill="#F1F1F1" height="48" id="Apartment" rx="2.5" ry="2.5" style="stroke:#181818;stroke-width:0.5;" width="97" x="325.5" y="201"/><ellipse cx="340.5" cy="217" fill="#ADD1B2" rx="11" ry="11" style="stroke:#181818;stroke-width:1.0;"/><path d="M342.5,213.5 Q342.7031,213 342.9375,212.75 Q343.1719,212.5 343.4375,212.5 Q343.9063,212.5 344.2031,212.7813 Q344.5,213.0625 344.5,213.7188 L344.5,215.2813 Q344.5,215.9375 344.2188,216.2188 Q343.9375,216.5 343.5,216.5 Q343.1094,216.5 342.8594,216.3281 Q342.6094,216.1563 342.5,215.7031 Q342.4531,215.3906 342.2813,215.2188 Q341.9688,214.8906 341.4063,214.7031 Q340.8438,214.5 340.2813,214.5 Q339.5781,214.5 338.9844,214.7813 Q338.4063,215.0625 337.9531,215.6875 Q337.5,216.3125 337.5,217.1719 L337.5,218.0938 Q337.5,219.125 338.3438,219.8125 Q339.1875,220.5 340.6875,220.5 Q341.5781,220.5 342.2031,220.2969 Q342.5625,220.1875 342.9688,219.8281 Q343.2344,219.625 343.375,219.5625 Q343.5156,219.5 343.6875,219.5 Q344.0156,219.5 344.25,219.7656 Q344.5,220.0156 344.5,220.375 Q344.5,220.7188 344.1563,221.125 Q343.6563,221.7188 342.8594,222.0469 Q341.8125,222.5 340.5313,222.5 Q339.0313,222.5 337.8281,221.9063 Q336.8594,221.4375 336.1719,220.4219 Q335.5,219.4063 335.5,218.2031 L335.5,217.1094 Q335.5,215.8594 336.0938,214.7656 Q336.7031,213.6719 337.75,213.0938 Q338.8125,212.5 340,212.5 Q340.7188,212.5 341.3438,212.75 Q341.9688,213 342.5,213.5 Z " fill="#000000"/><text fill="#000000" font-family="sans-serif" font-size="14" lengthAdjust="spacing" textLength="65" x="354.5" y="221.8535">Apartment</text><line style="stroke:#181818;stroke-width:0.5;" x1="326.5" x2="421.5" y1="233" y2="233"/><line style="stroke:#181818;stroke-width:0.5;" x1="326.5" x2="421.5" y1="241" y2="241"/></g><!--class AvailableEquipment--><g id="elem_AvailableEquipment"><rect codeLine="80" fill="#F1F1F1" height="79.2813" id="AvailableEquipment" rx="2.5" ry="2.5" style="stroke:#181818;stroke-width:0.5;" width="156" x="296" y="284.5"/><ellipse cx="311" cy="300.5" fill="#ADD1B2" rx="11" ry="11" style="stroke:#181818;stroke-width:1.0;"/><path d="M313,297 Q313.2031,296.5 313.4375,296.25 Q313.6719,296 313.9375,296 Q314.4063,296 314.7031,296.2813 Q315,296.5625 315,297.2188 L315,298.7813 Q315,299.4375 314.7188,299.7188 Q314.4375,300 314,300 Q313.6094,300 313.3594,299.8281 Q313.1094,299.6563 313,299.2031 Q312.9531,298.8906 312.7813,298.7188 Q312.4688,298.3906 311.9063,298.2031 Q311.3438,298 310.7813,298 Q310.0781,298 309.4844,298.2813 Q308.9063,298.5625 308.4531,299.1875 Q308,299.8125 308,300.6719 L308,301.5938 Q308,302.625 308.8438,303.3125 Q309.6875,304 311.1875,304 Q312.0781,304 312.7031,303.7969 Q313.0625,303.6875 313.4688,303.3281 Q313.7344,303.125 313.875,303.0625 Q314.0156,303 314.1875,303 Q314.5156,303 314.75,303.2656 Q315,303.5156 315,303.875 Q315,304.2188 314.6563,304.625 Q314.1563,305.2188 313.3594,305.5469 Q312.3125,306 311.0313,306 Q309.5313,306 308.3281,305.4063 Q307.3594,304.9375 306.6719,303.9219 Q306,302.9063 306,301.7031 L306,300.6094 Q306,299.3594 306.5938,298.2656 Q307.2031,297.1719 308.25,296.5938 Q309.3125,296 310.5,296 Q311.2188,296 311.8438,296.25 Q312.4688,296.5 313,297 Z " fill="#000000"/><text fill="#000000" font-family="sans-serif" font-size="14" lengthAdjust="spacing" textLength="124" x="325" y="305.3535">AvailableEquipment</text><line style="stroke:#181818;stroke-width:0.5;" x1="297" x2="451" y1="316.5" y2="316.5"/><rect fill="none" height="6" style="stroke:#C82930;stroke-width:1.0;" width="6" x="304" y="326.8203"/><text fill="#000000" font-family="sans-serif" font-size="14" lengthAdjust="spacing" textLength="94" x="316" y="333.1738">central heating</text><rect fill="none" height="6" style="stroke:#C82930;stroke-width:1.0;" width="6" x="304" y="342.4609"/><text fill="#000000" font-family="sans-serif" font-size="14" lengthAdjust="spacing" textLength="92" x="316" y="348.8145">airconditioning</text><line style="stroke:#181818;stroke-width:0.5;" x1="297" x2="451" y1="355.7813" y2="355.7813"/></g><!--class House--><g id="elem_House"><rect codeLine="50" fill="#F1F1F1" height="94.9219" id="House" rx="2.5" ry="2.5" style="stroke:#181818;stroke-width:0.5;" width="118" x="315" y="398.5"/><ellipse cx="350.7" cy="414.5" fill="#ADD1B2" rx="11" ry="11" style="stroke:#181818;stroke-width:1.0;"/><path d="M352.7,411 Q352.9031,410.5 353.1375,410.25 Q353.3719,410 353.6375,410 Q354.1063,410 354.4031,410.2813 Q354.7,410.5625 354.7,411.2188 L354.7,412.7813 Q354.7,413.4375 354.4188,413.7188 Q354.1375,414 353.7,414 Q353.3094,414 353.0594,413.8281 Q352.8094,413.6563 352.7,413.2031 Q352.6531,412.8906 352.4813,412.7188 Q352.1688,412.3906 351.6063,412.2031 Q351.0438,412 350.4813,412 Q349.7781,412 349.1844,412.2813 Q348.6063,412.5625 348.1531,413.1875 Q347.7,413.8125 347.7,414.6719 L347.7,415.5938 Q347.7,416.625 348.5438,417.3125 Q349.3875,418 350.8875,418 Q351.7781,418 352.4031,417.7969 Q352.7625,417.6875 353.1688,417.3281 Q353.4344,417.125 353.575,417.0625 Q353.7156,417 353.8875,417 Q354.2156,417 354.45,417.2656 Q354.7,417.5156 354.7,417.875 Q354.7,418.2188 354.3563,418.625 Q353.8563,419.2188 353.0594,419.5469 Q352.0125,420 350.7313,420 Q349.2313,420 348.0281,419.4063 Q347.0594,418.9375 346.3719,417.9219 Q345.7,416.9063 345.7,415.7031 L345.7,414.6094 Q345.7,413.3594 346.2938,412.2656 Q346.9031,411.1719 347.95,410.5938 Q349.0125,410 350.2,410 Q350.9188,410 351.5438,410.25 Q352.1688,410.5 352.7,411 Z " fill="#000000"/><text fill="#000000" font-family="sans-serif" font-size="14" lengthAdjust="spacing" textLength="40" x="369.3" y="419.3535">House</text><line style="stroke:#181818;stroke-width:0.5;" x1="316" x2="432" y1="430.5" y2="430.5"/><rect fill="none" height="6" style="stroke:#C82930;stroke-width:1.0;" width="6" x="323" y="440.8203"/><text fill="#000000" font-family="sans-serif" font-size="14" lengthAdjust="spacing" textLength="62" x="335" y="447.1738">basement</text><rect fill="none" height="6" style="stroke:#C82930;stroke-width:1.0;" width="6" x="323" y="456.4609"/><text fill="#000000" font-family="sans-serif" font-size="14" lengthAdjust="spacing" textLength="92" x="335" y="462.8145">inhabitable loft</text><rect fill="none" height="6" style="stroke:#C82930;stroke-width:1.0;" width="6" x="323" y="472.1016"/><text fill="#000000" font-family="sans-serif" font-size="14" lengthAdjust="spacing" textLength="84" x="335" y="478.4551">SunExposure</text><line style="stroke:#181818;stroke-width:0.5;" x1="316" x2="432" y1="485.4219" y2="485.4219"/></g><!--class Residence--><g id="elem_Residence"><rect codeLine="31" fill="#F1F1F1" height="110.5625" id="Residence" rx="2.5" ry="2.5" style="stroke:#181818;stroke-width:0.5;" width="190" x="625" y="268.5"/><ellipse cx="682.25" cy="284.5" fill="#ADD1B2" rx="11" ry="11" style="stroke:#181818;stroke-width:1.0;"/><path d="M684.25,281 Q684.4531,280.5 684.6875,280.25 Q684.9219,280 685.1875,280 Q685.6563,280 685.9531,280.2813 Q686.25,280.5625 686.25,281.2188 L686.25,282.7813 Q686.25,283.4375 685.9688,283.7188 Q685.6875,284 685.25,284 Q684.8594,284 684.6094,283.8281 Q684.3594,283.6563 684.25,283.2031 Q684.2031,282.8906 684.0313,282.7188 Q683.7188,282.3906 683.1563,282.2031 Q682.5938,282 682.0313,282 Q681.3281,282 680.7344,282.2813 Q680.1563,282.5625 679.7031,283.1875 Q679.25,283.8125 679.25,284.6719 L679.25,285.5938 Q679.25,286.625 680.0938,287.3125 Q680.9375,288 682.4375,288 Q683.3281,288 683.9531,287.7969 Q684.3125,287.6875 684.7188,287.3281 Q684.9844,287.125 685.125,287.0625 Q685.2656,287 685.4375,287 Q685.7656,287 686,287.2656 Q686.25,287.5156 686.25,287.875 Q686.25,288.2188 685.9063,288.625 Q685.4063,289.2188 684.6094,289.5469 Q683.5625,290 682.2813,290 Q680.7813,290 679.5781,289.4063 Q678.6094,288.9375 677.9219,287.9219 Q677.25,286.9063 677.25,285.7031 L677.25,284.6094 Q677.25,283.3594 677.8438,282.2656 Q678.4531,281.1719 679.5,280.5938 Q680.5625,280 681.75,280 Q682.4688,280 683.0938,280.25 Q683.7188,280.5 684.25,281 Z " fill="#000000"/><text fill="#000000" font-family="sans-serif" font-size="14" lengthAdjust="spacing" textLength="67" x="702.75" y="289.3535">Residence</text><line style="stroke:#181818;stroke-width:0.5;" x1="626" x2="814" y1="300.5" y2="300.5"/><rect fill="none" height="6" style="stroke:#C82930;stroke-width:1.0;" width="6" x="633" y="310.8203"/><text fill="#000000" font-family="sans-serif" font-size="14" lengthAdjust="spacing" textLength="131" x="645" y="317.1738">number of bedrooms</text><rect fill="none" height="6" style="stroke:#C82930;stroke-width:1.0;" width="6" x="633" y="326.4609"/><text fill="#000000" font-family="sans-serif" font-size="14" lengthAdjust="spacing" textLength="135" x="645" y="332.8145">number of bathrooms</text><rect fill="none" height="6" style="stroke:#C82930;stroke-width:1.0;" width="6" x="633" y="342.1016"/><text fill="#000000" font-family="sans-serif" font-size="14" lengthAdjust="spacing" textLength="164" x="645" y="348.4551">number of parking spaces</text><rect fill="none" height="6" style="stroke:#C82930;stroke-width:1.0;" width="6" x="633" y="357.7422"/><text fill="#000000" font-family="sans-serif" font-size="14" lengthAdjust="spacing" textLength="124" x="645" y="364.0957">AvailableEquipment</text><line style="stroke:#181818;stroke-width:0.5;" x1="626" x2="814" y1="371.0625" y2="371.0625"/></g><!--class LocationOrAdress--><g id="elem_LocationOrAdress"><rect codeLine="72" fill="#F1F1F1" height="126.2031" id="LocationOrAdress" rx="2.5" ry="2.5" style="stroke:#181818;stroke-width:0.5;" width="146" x="647" y="7"/><ellipse cx="662" cy="23" fill="#ADD1B2" rx="11" ry="11" style="stroke:#181818;stroke-width:1.0;"/><path d="M664,19.5 Q664.2031,19 664.4375,18.75 Q664.6719,18.5 664.9375,18.5 Q665.4063,18.5 665.7031,18.7813 Q666,19.0625 666,19.7188 L666,21.2813 Q666,21.9375 665.7188,22.2188 Q665.4375,22.5 665,22.5 Q664.6094,22.5 664.3594,22.3281 Q664.1094,22.1563 664,21.7031 Q663.9531,21.3906 663.7813,21.2188 Q663.4688,20.8906 662.9063,20.7031 Q662.3438,20.5 661.7813,20.5 Q661.0781,20.5 660.4844,20.7813 Q659.9063,21.0625 659.4531,21.6875 Q659,22.3125 659,23.1719 L659,24.0938 Q659,25.125 659.8438,25.8125 Q660.6875,26.5 662.1875,26.5 Q663.0781,26.5 663.7031,26.2969 Q664.0625,26.1875 664.4688,25.8281 Q664.7344,25.625 664.875,25.5625 Q665.0156,25.5 665.1875,25.5 Q665.5156,25.5 665.75,25.7656 Q666,26.0156 666,26.375 Q666,26.7188 665.6563,27.125 Q665.1563,27.7188 664.3594,28.0469 Q663.3125,28.5 662.0313,28.5 Q660.5313,28.5 659.3281,27.9063 Q658.3594,27.4375 657.6719,26.4219 Q657,25.4063 657,24.2031 L657,23.1094 Q657,21.8594 657.5938,20.7656 Q658.2031,19.6719 659.25,19.0938 Q660.3125,18.5 661.5,18.5 Q662.2188,18.5 662.8438,18.75 Q663.4688,19 664,19.5 Z " fill="#000000"/><text fill="#000000" font-family="sans-serif" font-size="14" lengthAdjust="spacing" textLength="114" x="676" y="27.8535">LocationOrAdress</text><line style="stroke:#181818;stroke-width:0.5;" x1="648" x2="792" y1="39" y2="39"/><rect fill="none" height="6" style="stroke:#C82930;stroke-width:1.0;" width="6" x="655" y="49.3203"/><text fill="#000000" font-family="sans-serif" font-size="14" lengthAdjust="spacing" textLength="36" x="667" y="55.6738">street</text><rect fill="none" height="6" style="stroke:#C82930;stroke-width:1.0;" width="6" x="655" y="64.9609"/><text fill="#000000" font-family="sans-serif" font-size="14" lengthAdjust="spacing" textLength="21" x="667" y="71.3145">city</text><rect fill="none" height="6" style="stroke:#C82930;stroke-width:1.0;" width="6" x="655" y="80.6016"/><text fill="#000000" font-family="sans-serif" font-size="14" lengthAdjust="spacing" textLength="42" x="667" y="86.9551">county</text><rect fill="none" height="6" style="stroke:#C82930;stroke-width:1.0;" width="6" x="655" y="96.2422"/><text fill="#000000" font-family="sans-serif" font-size="14" lengthAdjust="spacing" textLength="31" x="667" y="102.5957">state</text><rect fill="none" height="6" style="stroke:#C82930;stroke-width:1.0;" width="6" x="655" y="111.8828"/><text fill="#000000" font-family="sans-serif" font-size="14" lengthAdjust="spacing" textLength="52" x="667" y="118.2363">zip code</text><line style="stroke:#181818;stroke-width:0.5;" x1="648" x2="792" y1="125.2031" y2="125.2031"/></g><!--class Land--><g id="elem_Land"><rect codeLine="56" fill="#F1F1F1" height="48" id="Land" rx="2.5" ry="2.5" style="stroke:#181818;stroke-width:0.5;" width="64" x="688" y="185"/><ellipse cx="703" cy="201" fill="#ADD1B2" rx="11" ry="11" style="stroke:#181818;stroke-width:1.0;"/><path d="M705,197.5 Q705.2031,197 705.4375,196.75 Q705.6719,196.5 705.9375,196.5 Q706.4063,196.5 706.7031,196.7813 Q707,197.0625 707,197.7188 L707,199.2813 Q707,199.9375 706.7188,200.2188 Q706.4375,200.5 706,200.5 Q705.6094,200.5 705.3594,200.3281 Q705.1094,200.1563 705,199.7031 Q704.9531,199.3906 704.7813,199.2188 Q704.4688,198.8906 703.9063,198.7031 Q703.3438,198.5 702.7813,198.5 Q702.0781,198.5 701.4844,198.7813 Q700.9063,199.0625 700.4531,199.6875 Q700,200.3125 700,201.1719 L700,202.0938 Q700,203.125 700.8438,203.8125 Q701.6875,204.5 703.1875,204.5 Q704.0781,204.5 704.7031,204.2969 Q705.0625,204.1875 705.4688,203.8281 Q705.7344,203.625 705.875,203.5625 Q706.0156,203.5 706.1875,203.5 Q706.5156,203.5 706.75,203.7656 Q707,204.0156 707,204.375 Q707,204.7188 706.6563,205.125 Q706.1563,205.7188 705.3594,206.0469 Q704.3125,206.5 703.0313,206.5 Q701.5313,206.5 700.3281,205.9063 Q699.3594,205.4375 698.6719,204.4219 Q698,203.4063 698,202.2031 L698,201.1094 Q698,199.8594 698.5938,198.7656 Q699.2031,197.6719 700.25,197.0938 Q701.3125,196.5 702.5,196.5 Q703.2188,196.5 703.8438,196.75 Q704.4688,197 705,197.5 Z " fill="#000000"/><text fill="#000000" font-family="sans-serif" font-size="14" lengthAdjust="spacing" textLength="32" x="717" y="205.8535">Land</text><line style="stroke:#181818;stroke-width:0.5;" x1="689" x2="751" y1="217" y2="217"/><line style="stroke:#181818;stroke-width:0.5;" x1="689" x2="751" y1="225" y2="225"/></g><!--class Agent--><g id="elem_Agent"><rect codeLine="22" fill="#F1F1F1" height="141.8438" id="Agent" rx="2.5" ry="2.5" style="stroke:#181818;stroke-width:0.5;" width="140" x="1384" y="50"/><ellipse cx="1431.25" cy="66" fill="#ADD1B2" rx="11" ry="11" style="stroke:#181818;stroke-width:1.0;"/><path d="M1433.25,62.5 Q1433.4531,62 1433.6875,61.75 Q1433.9219,61.5 1434.1875,61.5 Q1434.6563,61.5 1434.9531,61.7813 Q1435.25,62.0625 1435.25,62.7188 L1435.25,64.2813 Q1435.25,64.9375 1434.9688,65.2188 Q1434.6875,65.5 1434.25,65.5 Q1433.8594,65.5 1433.6094,65.3281 Q1433.3594,65.1563 1433.25,64.7031 Q1433.2031,64.3906 1433.0313,64.2188 Q1432.7188,63.8906 1432.1563,63.7031 Q1431.5938,63.5 1431.0313,63.5 Q1430.3281,63.5 1429.7344,63.7813 Q1429.1563,64.0625 1428.7031,64.6875 Q1428.25,65.3125 1428.25,66.1719 L1428.25,67.0938 Q1428.25,68.125 1429.0938,68.8125 Q1429.9375,69.5 1431.4375,69.5 Q1432.3281,69.5 1432.9531,69.2969 Q1433.3125,69.1875 1433.7188,68.8281 Q1433.9844,68.625 1434.125,68.5625 Q1434.2656,68.5 1434.4375,68.5 Q1434.7656,68.5 1435,68.7656 Q1435.25,69.0156 1435.25,69.375 Q1435.25,69.7188 1434.9063,70.125 Q1434.4063,70.7188 1433.6094,71.0469 Q1432.5625,71.5 1431.2813,71.5 Q1429.7813,71.5 1428.5781,70.9063 Q1427.6094,70.4375 1426.9219,69.4219 Q1426.25,68.4063 1426.25,67.2031 L1426.25,66.1094 Q1426.25,64.8594 1426.8438,63.7656 Q1427.4531,62.6719 1428.5,62.0938 Q1429.5625,61.5 1430.75,61.5 Q1431.4688,61.5 1432.0938,61.75 Q1432.7188,62 1433.25,62.5 Z " fill="#000000"/><text fill="#000000" font-family="sans-serif" font-size="14" lengthAdjust="spacing" textLength="37" x="1451.75" y="70.8535">Agent</text><line style="stroke:#181818;stroke-width:0.5;" x1="1385" x2="1523" y1="82" y2="82"/><rect fill="none" height="6" style="stroke:#C82930;stroke-width:1.0;" width="6" x="1392" y="92.3203"/><text fill="#000000" font-family="sans-serif" font-size="14" lengthAdjust="spacing" textLength="35" x="1404" y="98.6738">name</text><rect fill="none" height="6" style="stroke:#C82930;stroke-width:1.0;" width="6" x="1392" y="107.9609"/><text fill="#000000" font-family="sans-serif" font-size="14" lengthAdjust="spacing" textLength="11" x="1404" y="114.3145">id</text><rect fill="none" height="6" style="stroke:#C82930;stroke-width:1.0;" width="6" x="1392" y="123.6016"/><text fill="#000000" font-family="sans-serif" font-size="14" lengthAdjust="spacing" textLength="92" x="1404" y="129.9551">phone number</text><rect fill="none" height="6" style="stroke:#C82930;stroke-width:1.0;" width="6" x="1392" y="139.2422"/><text fill="#000000" font-family="sans-serif" font-size="14" lengthAdjust="spacing" textLength="46" x="1404" y="145.5957">agency</text><rect fill="none" height="6" style="stroke:#C82930;stroke-width:1.0;" width="6" x="1392" y="154.8828"/><text fill="#000000" font-family="sans-serif" font-size="14" lengthAdjust="spacing" textLength="70" x="1404" y="161.2363">tax number</text><rect fill="none" height="6" style="stroke:#C82930;stroke-width:1.0;" width="6" x="1392" y="170.5234"/><text fill="#000000" font-family="sans-serif" font-size="14" lengthAdjust="spacing" textLength="114" x="1404" y="176.877">LocationOrAdress</text><line style="stroke:#181818;stroke-width:0.5;" x1="1385" x2="1523" y1="183.8438" y2="183.8438"/></g><!--class SunExposure--><g id="elem_SunExposure"><rect codeLine="60" fill="#F1F1F1" height="63.6406" id="SunExposure" rx="2.5" ry="2.5" style="stroke:#181818;stroke-width:0.5;" width="116" x="7" y="414"/><ellipse cx="22" cy="430" fill="#ADD1B2" rx="11" ry="11" style="stroke:#181818;stroke-width:1.0;"/><path d="M24,426.5 Q24.2031,426 24.4375,425.75 Q24.6719,425.5 24.9375,425.5 Q25.4063,425.5 25.7031,425.7813 Q26,426.0625 26,426.7188 L26,428.2813 Q26,428.9375 25.7188,429.2188 Q25.4375,429.5 25,429.5 Q24.6094,429.5 24.3594,429.3281 Q24.1094,429.1563 24,428.7031 Q23.9531,428.3906 23.7813,428.2188 Q23.4688,427.8906 22.9063,427.7031 Q22.3438,427.5 21.7813,427.5 Q21.0781,427.5 20.4844,427.7813 Q19.9063,428.0625 19.4531,428.6875 Q19,429.3125 19,430.1719 L19,431.0938 Q19,432.125 19.8438,432.8125 Q20.6875,433.5 22.1875,433.5 Q23.0781,433.5 23.7031,433.2969 Q24.0625,433.1875 24.4688,432.8281 Q24.7344,432.625 24.875,432.5625 Q25.0156,432.5 25.1875,432.5 Q25.5156,432.5 25.75,432.7656 Q26,433.0156 26,433.375 Q26,433.7188 25.6563,434.125 Q25.1563,434.7188 24.3594,435.0469 Q23.3125,435.5 22.0313,435.5 Q20.5313,435.5 19.3281,434.9063 Q18.3594,434.4375 17.6719,433.4219 Q17,432.4063 17,431.2031 L17,430.1094 Q17,428.8594 17.5938,427.7656 Q18.2031,426.6719 19.25,426.0938 Q20.3125,425.5 21.5,425.5 Q22.2188,425.5 22.8438,425.75 Q23.4688,426 24,426.5 Z " fill="#000000"/><text fill="#000000" font-family="sans-serif" font-size="14" lengthAdjust="spacing" textLength="84" x="36" y="434.8535">SunExposure</text><line style="stroke:#181818;stroke-width:0.5;" x1="8" x2="122" y1="446" y2="446"/><rect fill="none" height="6" style="stroke:#C82930;stroke-width:1.0;" width="6" x="15" y="456.3203"/><text fill="#000000" font-family="sans-serif" font-size="14" lengthAdjust="spacing" textLength="54" x="27" y="462.6738">direction</text><line style="stroke:#181818;stroke-width:0.5;" x1="8" x2="122" y1="469.6406" y2="469.6406"/></g><!--link Property to Agent--><g id="link_Property_Agent"><path codeLine="85" d="M1192.32,176.45 C1253.39,163.46 1329.59,147.25 1383.8,135.72 " fill="none" id="Property-Agent" style="stroke:#181818;stroke-width:1.0;"/><polygon fill="#000000" points="1253.1094,142.302,1262.568,143.2947,1261.3451,137.5455,1253.1094,142.302" style="stroke:#000000;stroke-width:1.0;"/><text fill="#000000" font-family="sans-serif" font-size="13" lengthAdjust="spacing" textLength="55" x="1267" y="145.7686">publishes</text><text fill="#000000" font-family="sans-serif" font-size="13" lengthAdjust="spacing" textLength="7" x="1200.0912" y="187.1618">1</text><text fill="#000000" font-family="sans-serif" font-size="13" lengthAdjust="spacing" textLength="7" x="1369.1997" y="149.7635">1</text></g><!--link Land to Property--><g id="link_Land_Property"><path codeLine="86" d="M752.06,208.07 C803.52,206.53 908.66,203.39 987.88,201.02 " fill="none" id="Land-Property" style="stroke:#181818;stroke-width:1.0;"/><polygon fill="#000000" points="893.4978,195.1123,884.3689,192.445,884.5445,198.3202,893.4978,195.1123" style="stroke:#000000;stroke-width:1.0;"/><text fill="#000000" font-family="sans-serif" font-size="13" lengthAdjust="spacing" textLength="21" x="897.5" y="199.7686">is a</text><text fill="#000000" font-family="sans-serif" font-size="13" lengthAdjust="spacing" textLength="5" x="760.052" y="221.3028">*</text><text fill="#000000" font-family="sans-serif" font-size="13" lengthAdjust="spacing" textLength="7" x="973.1235" y="213.5362">1</text></g><!--link Residence to Property--><g id="link_Residence_Property"><path codeLine="87" d="M815.29,291.72 C868.1,273.63 933.97,251.08 987.86,232.63 " fill="none" id="Residence-Property" style="stroke:#181818;stroke-width:1.0;"/><polygon fill="#000000" points="895.2304,243.642,885.721,243.7917,887.6251,249.3526,895.2304,243.642" style="stroke:#000000;stroke-width:1.0;"/><text fill="#000000" font-family="sans-serif" font-size="13" lengthAdjust="spacing" textLength="17" x="899.5" y="249.7686">isa</text><text fill="#000000" font-family="sans-serif" font-size="13" lengthAdjust="spacing" textLength="5" x="823.0826" y="301.5123">*</text><text fill="#000000" font-family="sans-serif" font-size="13" lengthAdjust="spacing" textLength="7" x="973.1021" y="247.4675">1</text></g><!--link SunExposure to House--><g id="link_SunExposure_House"><path codeLine="89" d="M123.02,446 C177.73,446 259.94,446 314.98,446 " fill="none" id="SunExposure-House" style="stroke:#181818;stroke-width:1.0;"/><polygon fill="#000000" points="194,438.2617,184.9549,435.3228,184.9549,441.2006,194,438.2617" style="stroke:#000000;stroke-width:1.0;"/><text fill="#000000" font-family="sans-serif" font-size="13" lengthAdjust="spacing" textLength="36" x="198" y="442.7686">part of</text><text fill="#000000" font-family="sans-serif" font-size="13" lengthAdjust="spacing" textLength="5" x="131.1524" y="458.7685">*</text><text fill="#000000" font-family="sans-serif" font-size="13" lengthAdjust="spacing" textLength="7" x="299.9696" y="458.704">1</text></g><!--link LocationOrAdress to Property--><g id="link_LocationOrAdress_Property"><path codeLine="90" d="M793.27,95.14 C848.74,114.43 926.01,141.31 987.66,162.75 " fill="none" id="LocationOrAdress-Property" style="stroke:#181818;stroke-width:1.0;"/><polygon fill="#000000" points="885.7225,118.9042,878.1449,113.1571,876.214,118.7087,885.7225,118.9042" style="stroke:#000000;stroke-width:1.0;"/><text fill="#000000" font-family="sans-serif" font-size="13" lengthAdjust="spacing" textLength="36" x="890" y="121.7686">part of</text><text fill="#000000" font-family="sans-serif" font-size="13" lengthAdjust="spacing" textLength="5" x="801.0838" y="110.2395">*</text><text fill="#000000" font-family="sans-serif" font-size="13" lengthAdjust="spacing" textLength="7" x="972.8874" y="172.4557">1</text></g><!--link LocationOrAdress to Agent--><g id="link_LocationOrAdress_Agent"><path codeLine="91" d="M793.36,60.6 C826.03,57.12 865.15,54 900.5,54 C900.5,54 900.5,54 1289,54 C1321.6,54 1355.32,65.49 1383.65,78.95 " fill="none" id="LocationOrAdress-Agent" style="stroke:#181818;stroke-width:1.0;"/><polygon fill="#000000" points="1074.4976,46.4171,1065.5482,43.1985,1065.3656,49.0735,1074.4976,46.4171" style="stroke:#000000;stroke-width:1.0;"/><text fill="#000000" font-family="sans-serif" font-size="13" lengthAdjust="spacing" textLength="36" x="1078.5" y="50.7686">part of</text><text fill="#000000" font-family="sans-serif" font-size="13" lengthAdjust="spacing" textLength="5" x="801.1831" y="72.1376">*</text><text fill="#000000" font-family="sans-serif" font-size="13" lengthAdjust="spacing" textLength="7" x="1369.0342" y="87.1391">1</text></g><!--link AvailableEquipment to Residence--><g id="link_AvailableEquipment_Residence"><path codeLine="92" d="M452.2,324 C503.31,324 570.65,324 624.9,324 " fill="none" id="AvailableEquipment-Residence" style="stroke:#181818;stroke-width:1.0;"/><polygon fill="#000000" points="523,316.2617,513.9549,313.3228,513.9549,319.2006,523,316.2617" style="stroke:#000000;stroke-width:1.0;"/><text fill="#000000" font-family="sans-serif" font-size="13" lengthAdjust="spacing" textLength="36" x="527" y="320.7686">part of</text><text fill="#000000" font-family="sans-serif" font-size="13" lengthAdjust="spacing" textLength="5" x="459.8917" y="336.4473">*</text><text fill="#000000" font-family="sans-serif" font-size="13" lengthAdjust="spacing" textLength="7" x="610.0428" y="336.3647">1</text></g><!--link Apartment to Residence--><g id="link_Apartment_Residence"><path codeLine="93" d="M422.83,238.77 C474.89,253.75 559.45,278.08 624.92,296.92 " fill="none" id="Apartment-Residence" style="stroke:#181818;stroke-width:1.0;"/><polygon fill="#000000" points="530.305,257.6443,522.4253,252.3188,520.8,257.9675,530.305,257.6443" style="stroke:#000000;stroke-width:1.0;"/><text fill="#000000" font-family="sans-serif" font-size="13" lengthAdjust="spacing" textLength="21" x="534.5" y="260.7686">is a</text><text fill="#000000" font-family="sans-serif" font-size="13" lengthAdjust="spacing" textLength="5" x="430.3691" y="253.6276">*</text><text fill="#000000" font-family="sans-serif" font-size="13" lengthAdjust="spacing" textLength="7" x="610.0644" y="307.1267">1</text></g><!--link House to Residence--><g id="link_House_Residence"><path codeLine="94" d="M433.35,425.3 C485.78,406.71 563.71,379.08 624.93,357.36 " fill="none" id="House-Residence" style="stroke:#181818;stroke-width:1.0;"/><polygon fill="#000000" points="530.2124,369.5905,520.7053,369.8438,522.6698,375.3836,530.2124,369.5905" style="stroke:#000000;stroke-width:1.0;"/><text fill="#000000" font-family="sans-serif" font-size="13" lengthAdjust="spacing" textLength="21" x="534.5" y="375.7686">is a</text><text fill="#000000" font-family="sans-serif" font-size="13" lengthAdjust="spacing" textLength="5" x="440.888" y="435.4355">*</text><text fill="#000000" font-family="sans-serif" font-size="13" lengthAdjust="spacing" textLength="7" x="610.0752" y="372.383">1</text></g><!--SRC=[ZLDDYzim4BtxLmov10gcz1hAmXu2FHIsjBzWB4riKLlIIkCbsUB_tf7Ss4hZq5wYp9itNs_6FPqOs44mRSUWJI35njcgKZt62D-2ynJuShMVFGOUoF82lA7fiUdf-3eQNtg-k37IrVXEqMYoQW6-EeMfq4jure5YN72qUidT5kb-ZFPuzYwEWMxyyAkgmU90yXWjFxvpbi2EGqD1J1IIkiWVnlEAtfMVxZgLl3CTt0aQqi6v8LPGGu4YTnkmQFJJs1QYHqNPjw4IICM_HCwZO22Sfs0NjpgjPKkHKJg4Kt03S4UWZ4GhIPk7IqYWrv4YamOVZCW-tMrGgaqtkyhb6uoK-nCrROUDuTGszEwKe789KxaoYLs1WfLphbSbbBsCsewMCUp5-BXz3H86i1SnidKyCzcOuZFuRZmefobPguWRAMg878XIuqcWz3YfVCaEv7GnIwxfyK7dJ4dSW3rq95LicnPbWd9McrGq8P9XMUJkqmxgkivllj83-B7fJUmemkSgAxRxi7AkWGSm4H2UgkKA7z8IgogLBedpFW_f4ZbTv5Dr9yzMtl-Fc3-zahwXMncm3dGJj1pZ8-uVFUQ1_a7w3G00]--></g></svg>