<?xml version="1.0" encoding="UTF-8" standalone="no"?><svg xmlns="http://www.w3.org/2000/svg" xmlns:xlink="http://www.w3.org/1999/xlink" contentStyleType="text/css" height="2553px" preserveAspectRatio="none" style="width:1209px;height:2553px;background:#FFFFFF;" version="1.1" viewBox="0 0 1209 2553" width="1209px" zoomAndPan="magnify"><defs/><g><text fill="#000000" font-family="sans-serif" font-size="14" font-weight="bold" lengthAdjust="spacing" textLength="155" x="520.25" y="24.5332">US012 - Class Diagram</text><!--class Role--><g id="elem_Role"><rect codeLine="8" fill="#F1F1F1" height="101.4688" id="Role" rx="2.5" ry="2.5" style="stroke:#181818;stroke-width:0.5;" width="117" x="796" y="635.1094"/><ellipse cx="831.35" cy="652.6875" fill="#ADD1B2" rx="12" ry="12" style="stroke:#181818;stroke-width:1.0;"/><path d="M833.4906,647.6094 Q833.6781,647.3594 833.8969,647.2344 Q834.1156,647.0938 834.3656,647.0938 Q834.8031,647.0938 835.0844,647.4063 Q835.3656,647.7031 835.3656,648.4219 L835.3656,650.125 Q835.3656,650.8438 835.0844,651.1563 Q834.8031,651.4688 834.3656,651.4688 Q833.975,651.4688 833.725,651.2344 Q833.475,651.0156 833.3656,650.4063 Q833.3031,649.9844 833.0844,649.7656 Q832.6938,649.3281 831.975,649.0625 Q831.2563,648.7969 830.5375,648.7969 Q829.6313,648.7969 828.8813,649.1875 Q828.1313,649.5781 827.5531,650.4688 Q826.975,651.3438 826.975,652.5469 L826.975,653.8438 Q826.975,655.2969 828.0219,656.2656 Q829.0844,657.2344 830.9438,657.2344 Q832.0531,657.2344 832.8344,656.9219 Q833.2719,656.75 833.7875,656.2344 Q834.1,655.9219 834.2719,655.8281 Q834.4438,655.7344 834.6781,655.7344 Q835.0688,655.7344 835.3656,656.0469 Q835.6781,656.3438 835.6781,656.75 Q835.6781,657.1563 835.2719,657.625 Q834.6781,658.3125 833.7406,658.7031 Q832.475,659.2344 830.9594,659.2344 Q829.1781,659.2344 827.7563,658.5 Q826.6,657.9063 825.7875,656.6406 Q824.975,655.375 824.975,653.8906 L824.975,652.5313 Q824.975,650.9688 825.6938,649.625 Q826.4281,648.2656 827.7094,647.5313 Q829.0063,646.7969 830.4594,646.7969 Q831.3188,646.7969 832.0688,647 Q832.8344,647.2031 833.4906,647.6094 Z " fill="#000000"/><text fill="#000000" font-family="sans-serif" font-size="20" lengthAdjust="spacing" textLength="40" x="850.65" y="660.8711">Role</text><line style="stroke:#181818;stroke-width:0.5;" x1="797" x2="912" y1="670.2656" y2="670.2656"/><rect fill="none" height="6" style="stroke:#C82930;stroke-width:1.0;" width="6" x="804" y="685.3438"/><text fill="#000000" font-family="sans-serif" font-size="20" lengthAdjust="spacing" textLength="90" x="817" y="695.0273">String role</text><line style="stroke:#181818;stroke-width:0.5;" x1="797" x2="912" y1="703.4219" y2="703.4219"/><ellipse cx="807" cy="721.5" fill="#84BE84" rx="3" ry="3" style="stroke:#038048;stroke-width:1.0;"/><text fill="#000000" font-family="sans-serif" font-size="20" lengthAdjust="spacing" textLength="87" x="817" y="728.1836">Role(role)</text></g><!--class State--><g id="elem_State"><rect codeLine="13" fill="#F1F1F1" height="151.7813" id="State" rx="2.5" ry="2.5" style="stroke:#181818;stroke-width:0.5;" width="179" x="809" y="1966.6094"/><ellipse cx="870.5" cy="1984.1875" fill="#ADD1B2" rx="12" ry="12" style="stroke:#181818;stroke-width:1.0;"/><path d="M872.6406,1979.1094 Q872.8281,1978.8594 873.0469,1978.7344 Q873.2656,1978.5938 873.5156,1978.5938 Q873.9531,1978.5938 874.2344,1978.9063 Q874.5156,1979.2031 874.5156,1979.9219 L874.5156,1981.625 Q874.5156,1982.3438 874.2344,1982.6563 Q873.9531,1982.9688 873.5156,1982.9688 Q873.125,1982.9688 872.875,1982.7344 Q872.625,1982.5156 872.5156,1981.9063 Q872.4531,1981.4844 872.2344,1981.2656 Q871.8438,1980.8281 871.125,1980.5625 Q870.4063,1980.2969 869.6875,1980.2969 Q868.7813,1980.2969 868.0313,1980.6875 Q867.2813,1981.0781 866.7031,1981.9688 Q866.125,1982.8438 866.125,1984.0469 L866.125,1985.3438 Q866.125,1986.7969 867.1719,1987.7656 Q868.2344,1988.7344 870.0938,1988.7344 Q871.2031,1988.7344 871.9844,1988.4219 Q872.4219,1988.25 872.9375,1987.7344 Q873.25,1987.4219 873.4219,1987.3281 Q873.5938,1987.2344 873.8281,1987.2344 Q874.2188,1987.2344 874.5156,1987.5469 Q874.8281,1987.8438 874.8281,1988.25 Q874.8281,1988.6563 874.4219,1989.125 Q873.8281,1989.8125 872.8906,1990.2031 Q871.625,1990.7344 870.1094,1990.7344 Q868.3281,1990.7344 866.9063,1990 Q865.75,1989.4063 864.9375,1988.1406 Q864.125,1986.875 864.125,1985.3906 L864.125,1984.0313 Q864.125,1982.4688 864.8438,1981.125 Q865.5781,1979.7656 866.8594,1979.0313 Q868.1563,1978.2969 869.6094,1978.2969 Q870.4688,1978.2969 871.2188,1978.5 Q871.9844,1978.7031 872.6406,1979.1094 Z " fill="#000000"/><text fill="#000000" font-family="sans-serif" font-size="20" lengthAdjust="spacing" textLength="47" x="892.5" y="1992.3711">State</text><line style="stroke:#181818;stroke-width:0.5;" x1="810" x2="987" y1="2001.7656" y2="2001.7656"/><rect fill="none" height="6" style="stroke:#C82930;stroke-width:1.0;" width="6" x="817" y="2016.8438"/><text fill="#000000" font-family="sans-serif" font-size="20" lengthAdjust="spacing" textLength="152" x="830" y="2026.5273">String stateName</text><line style="stroke:#181818;stroke-width:0.5;" x1="810" x2="987" y1="2034.9219" y2="2034.9219"/><ellipse cx="820" cy="2053" fill="#84BE84" rx="3" ry="3" style="stroke:#038048;stroke-width:1.0;"/><text fill="#000000" font-family="sans-serif" font-size="20" lengthAdjust="spacing" textLength="89" x="830" y="2059.6836">getState()</text><ellipse cx="820" cy="2078.1563" fill="#84BE84" rx="3" ry="3" style="stroke:#038048;stroke-width:1.0;"/><text fill="#000000" font-family="sans-serif" font-size="20" lengthAdjust="spacing" textLength="113" x="830" y="2084.8398">getDistricts()</text><ellipse cx="820" cy="2103.3125" fill="#84BE84" rx="3" ry="3" style="stroke:#038048;stroke-width:1.0;"/><text fill="#000000" font-family="sans-serif" font-size="20" lengthAdjust="spacing" textLength="82" x="830" y="2109.9961">toString()</text></g><!--class District--><g id="elem_District"><rect codeLine="21" fill="#F1F1F1" height="151.7813" id="District" rx="2.5" ry="2.5" style="stroke:#181818;stroke-width:0.5;" width="193" x="802" y="2205.6094"/><ellipse cx="863.5" cy="2223.1875" fill="#ADD1B2" rx="12" ry="12" style="stroke:#181818;stroke-width:1.0;"/><path d="M865.6406,2218.1094 Q865.8281,2217.8594 866.0469,2217.7344 Q866.2656,2217.5938 866.5156,2217.5938 Q866.9531,2217.5938 867.2344,2217.9063 Q867.5156,2218.2031 867.5156,2218.9219 L867.5156,2220.625 Q867.5156,2221.3438 867.2344,2221.6563 Q866.9531,2221.9688 866.5156,2221.9688 Q866.125,2221.9688 865.875,2221.7344 Q865.625,2221.5156 865.5156,2220.9063 Q865.4531,2220.4844 865.2344,2220.2656 Q864.8438,2219.8281 864.125,2219.5625 Q863.4063,2219.2969 862.6875,2219.2969 Q861.7813,2219.2969 861.0313,2219.6875 Q860.2813,2220.0781 859.7031,2220.9688 Q859.125,2221.8438 859.125,2223.0469 L859.125,2224.3438 Q859.125,2225.7969 860.1719,2226.7656 Q861.2344,2227.7344 863.0938,2227.7344 Q864.2031,2227.7344 864.9844,2227.4219 Q865.4219,2227.25 865.9375,2226.7344 Q866.25,2226.4219 866.4219,2226.3281 Q866.5938,2226.2344 866.8281,2226.2344 Q867.2188,2226.2344 867.5156,2226.5469 Q867.8281,2226.8438 867.8281,2227.25 Q867.8281,2227.6563 867.4219,2228.125 Q866.8281,2228.8125 865.8906,2229.2031 Q864.625,2229.7344 863.1094,2229.7344 Q861.3281,2229.7344 859.9063,2229 Q858.75,2228.4063 857.9375,2227.1406 Q857.125,2225.875 857.125,2224.3906 L857.125,2223.0313 Q857.125,2221.4688 857.8438,2220.125 Q858.5781,2218.7656 859.8594,2218.0313 Q861.1563,2217.2969 862.6094,2217.2969 Q863.4688,2217.2969 864.2188,2217.5 Q864.9844,2217.7031 865.6406,2218.1094 Z " fill="#000000"/><text fill="#000000" font-family="sans-serif" font-size="20" lengthAdjust="spacing" textLength="61" x="885.5" y="2231.3711">District</text><line style="stroke:#181818;stroke-width:0.5;" x1="803" x2="994" y1="2240.7656" y2="2240.7656"/><rect fill="none" height="6" style="stroke:#C82930;stroke-width:1.0;" width="6" x="810" y="2255.8438"/><text fill="#000000" font-family="sans-serif" font-size="20" lengthAdjust="spacing" textLength="166" x="823" y="2265.5273">String districtName</text><line style="stroke:#181818;stroke-width:0.5;" x1="803" x2="994" y1="2273.9219" y2="2273.9219"/><ellipse cx="813" cy="2292" fill="#84BE84" rx="3" ry="3" style="stroke:#038048;stroke-width:1.0;"/><text fill="#000000" font-family="sans-serif" font-size="20" lengthAdjust="spacing" textLength="154" x="823" y="2298.6836">getDistrictName()</text><ellipse cx="813" cy="2317.1563" fill="#84BE84" rx="3" ry="3" style="stroke:#038048;stroke-width:1.0;"/><text fill="#000000" font-family="sans-serif" font-size="20" lengthAdjust="spacing" textLength="91" x="823" y="2323.8398">getCities()</text><ellipse cx="813" cy="2342.3125" fill="#84BE84" rx="3" ry="3" style="stroke:#038048;stroke-width:1.0;"/><text fill="#000000" font-family="sans-serif" font-size="20" lengthAdjust="spacing" textLength="82" x="823" y="2348.9961">toString()</text></g><!--class City--><g id="elem_City"><rect codeLine="30" fill="#F1F1F1" height="101.4688" id="City" rx="2.5" ry="2.5" style="stroke:#181818;stroke-width:0.5;" width="165" x="816" y="2444.6094"/><ellipse cx="877" cy="2462.1875" fill="#ADD1B2" rx="12" ry="12" style="stroke:#181818;stroke-width:1.0;"/><path d="M879.1406,2457.1094 Q879.3281,2456.8594 879.5469,2456.7344 Q879.7656,2456.5938 880.0156,2456.5938 Q880.4531,2456.5938 880.7344,2456.9063 Q881.0156,2457.2031 881.0156,2457.9219 L881.0156,2459.625 Q881.0156,2460.3438 880.7344,2460.6563 Q880.4531,2460.9688 880.0156,2460.9688 Q879.625,2460.9688 879.375,2460.7344 Q879.125,2460.5156 879.0156,2459.9063 Q878.9531,2459.4844 878.7344,2459.2656 Q878.3438,2458.8281 877.625,2458.5625 Q876.9063,2458.2969 876.1875,2458.2969 Q875.2813,2458.2969 874.5313,2458.6875 Q873.7813,2459.0781 873.2031,2459.9688 Q872.625,2460.8438 872.625,2462.0469 L872.625,2463.3438 Q872.625,2464.7969 873.6719,2465.7656 Q874.7344,2466.7344 876.5938,2466.7344 Q877.7031,2466.7344 878.4844,2466.4219 Q878.9219,2466.25 879.4375,2465.7344 Q879.75,2465.4219 879.9219,2465.3281 Q880.0938,2465.2344 880.3281,2465.2344 Q880.7188,2465.2344 881.0156,2465.5469 Q881.3281,2465.8438 881.3281,2466.25 Q881.3281,2466.6563 880.9219,2467.125 Q880.3281,2467.8125 879.3906,2468.2031 Q878.125,2468.7344 876.6094,2468.7344 Q874.8281,2468.7344 873.4063,2468 Q872.25,2467.4063 871.4375,2466.1406 Q870.625,2464.875 870.625,2463.3906 L870.625,2462.0313 Q870.625,2460.4688 871.3438,2459.125 Q872.0781,2457.7656 873.3594,2457.0313 Q874.6563,2456.2969 876.1094,2456.2969 Q876.9688,2456.2969 877.7188,2456.5 Q878.4844,2456.7031 879.1406,2457.1094 Z " fill="#000000"/><text fill="#000000" font-family="sans-serif" font-size="20" lengthAdjust="spacing" textLength="34" x="899" y="2470.3711">City</text><line style="stroke:#181818;stroke-width:0.5;" x1="817" x2="980" y1="2479.7656" y2="2479.7656"/><rect fill="none" height="6" style="stroke:#C82930;stroke-width:1.0;" width="6" x="824" y="2494.8438"/><text fill="#000000" font-family="sans-serif" font-size="20" lengthAdjust="spacing" textLength="138" x="837" y="2504.5273">String cityName</text><line style="stroke:#181818;stroke-width:0.5;" x1="817" x2="980" y1="2512.9219" y2="2512.9219"/><rect fill="#F24D5C" height="6" style="stroke:#C82930;stroke-width:1.0;" width="6" x="824" y="2528"/><text fill="#000000" font-family="sans-serif" font-size="20" lengthAdjust="spacing" textLength="127" x="837" y="2537.6836">getCityName()</text></g><!--class Address--><g id="elem_Address"><rect codeLine="36" fill="#F1F1F1" height="227.25" id="Address" rx="2.5" ry="2.5" style="stroke:#181818;stroke-width:0.5;" width="416" x="690.5" y="1652.6094"/><ellipse cx="857.5" cy="1670.1875" fill="#ADD1B2" rx="12" ry="12" style="stroke:#181818;stroke-width:1.0;"/><path d="M859.6406,1665.1094 Q859.8281,1664.8594 860.0469,1664.7344 Q860.2656,1664.5938 860.5156,1664.5938 Q860.9531,1664.5938 861.2344,1664.9063 Q861.5156,1665.2031 861.5156,1665.9219 L861.5156,1667.625 Q861.5156,1668.3438 861.2344,1668.6563 Q860.9531,1668.9688 860.5156,1668.9688 Q860.125,1668.9688 859.875,1668.7344 Q859.625,1668.5156 859.5156,1667.9063 Q859.4531,1667.4844 859.2344,1667.2656 Q858.8438,1666.8281 858.125,1666.5625 Q857.4063,1666.2969 856.6875,1666.2969 Q855.7813,1666.2969 855.0313,1666.6875 Q854.2813,1667.0781 853.7031,1667.9688 Q853.125,1668.8438 853.125,1670.0469 L853.125,1671.3438 Q853.125,1672.7969 854.1719,1673.7656 Q855.2344,1674.7344 857.0938,1674.7344 Q858.2031,1674.7344 858.9844,1674.4219 Q859.4219,1674.25 859.9375,1673.7344 Q860.25,1673.4219 860.4219,1673.3281 Q860.5938,1673.2344 860.8281,1673.2344 Q861.2188,1673.2344 861.5156,1673.5469 Q861.8281,1673.8438 861.8281,1674.25 Q861.8281,1674.6563 861.4219,1675.125 Q860.8281,1675.8125 859.8906,1676.2031 Q858.625,1676.7344 857.1094,1676.7344 Q855.3281,1676.7344 853.9063,1676 Q852.75,1675.4063 851.9375,1674.1406 Q851.125,1672.875 851.125,1671.3906 L851.125,1670.0313 Q851.125,1668.4688 851.8438,1667.125 Q852.5781,1665.7656 853.8594,1665.0313 Q855.1563,1664.2969 856.6094,1664.2969 Q857.4688,1664.2969 858.2188,1664.5 Q858.9844,1664.7031 859.6406,1665.1094 Z " fill="#000000"/><text fill="#000000" font-family="sans-serif" font-size="20" lengthAdjust="spacing" textLength="73" x="879.5" y="1678.3711">Address</text><line style="stroke:#181818;stroke-width:0.5;" x1="691.5" x2="1105.5" y1="1687.7656" y2="1687.7656"/><rect fill="none" height="6" style="stroke:#C82930;stroke-width:1.0;" width="6" x="698.5" y="1702.8438"/><text fill="#000000" font-family="sans-serif" font-size="20" lengthAdjust="spacing" textLength="159" x="711.5" y="1712.5273">String streetName</text><rect fill="none" height="6" style="stroke:#C82930;stroke-width:1.0;" width="6" x="698.5" y="1728"/><text fill="#000000" font-family="sans-serif" font-size="20" lengthAdjust="spacing" textLength="97" x="711.5" y="1737.6836">int zipCode</text><line style="stroke:#181818;stroke-width:0.5;" x1="691.5" x2="1105.5" y1="1746.0781" y2="1746.0781"/><ellipse cx="701.5" cy="1764.1563" fill="#84BE84" rx="3" ry="3" style="stroke:#038048;stroke-width:1.0;"/><text fill="#000000" font-family="sans-serif" font-size="20" lengthAdjust="spacing" textLength="135" x="711.5" y="1770.8398">verifyZipCode()</text><ellipse cx="701.5" cy="1789.3125" fill="#84BE84" rx="3" ry="3" style="stroke:#038048;stroke-width:1.0;"/><text fill="#000000" font-family="sans-serif" font-size="20" lengthAdjust="spacing" textLength="76" x="711.5" y="1795.9961">getCity()</text><ellipse cx="701.5" cy="1814.4688" fill="#84BE84" rx="3" ry="3" style="stroke:#038048;stroke-width:1.0;"/><text fill="#000000" font-family="sans-serif" font-size="20" lengthAdjust="spacing" textLength="103" x="711.5" y="1821.1523">getDistrict()</text><ellipse cx="701.5" cy="1839.625" fill="#84BE84" rx="3" ry="3" style="stroke:#038048;stroke-width:1.0;"/><text fill="#000000" font-family="sans-serif" font-size="20" lengthAdjust="spacing" textLength="89" x="711.5" y="1846.3086">getState()</text><ellipse cx="701.5" cy="1864.7813" fill="#84BE84" rx="3" ry="3" style="stroke:#038048;stroke-width:1.0;"/><text fill="#000000" font-family="sans-serif" font-size="20" lengthAdjust="spacing" textLength="389" x="711.5" y="1871.4648">Address(state, district, city, street, zipCode)</text></g><!--class Person--><g id="elem_Person"><rect codeLine="49" fill="#F1F1F1" height="378.1875" id="Person" rx="2.5" ry="2.5" style="stroke:#181818;stroke-width:0.5;" width="560" x="195.5" y="873.6094"/><ellipse cx="440" cy="891.1875" fill="#ADD1B2" rx="12" ry="12" style="stroke:#181818;stroke-width:1.0;"/><path d="M442.1406,886.1094 Q442.3281,885.8594 442.5469,885.7344 Q442.7656,885.5938 443.0156,885.5938 Q443.4531,885.5938 443.7344,885.9063 Q444.0156,886.2031 444.0156,886.9219 L444.0156,888.625 Q444.0156,889.3438 443.7344,889.6563 Q443.4531,889.9688 443.0156,889.9688 Q442.625,889.9688 442.375,889.7344 Q442.125,889.5156 442.0156,888.9063 Q441.9531,888.4844 441.7344,888.2656 Q441.3438,887.8281 440.625,887.5625 Q439.9063,887.2969 439.1875,887.2969 Q438.2813,887.2969 437.5313,887.6875 Q436.7813,888.0781 436.2031,888.9688 Q435.625,889.8438 435.625,891.0469 L435.625,892.3438 Q435.625,893.7969 436.6719,894.7656 Q437.7344,895.7344 439.5938,895.7344 Q440.7031,895.7344 441.4844,895.4219 Q441.9219,895.25 442.4375,894.7344 Q442.75,894.4219 442.9219,894.3281 Q443.0938,894.2344 443.3281,894.2344 Q443.7188,894.2344 444.0156,894.5469 Q444.3281,894.8438 444.3281,895.25 Q444.3281,895.6563 443.9219,896.125 Q443.3281,896.8125 442.3906,897.2031 Q441.125,897.7344 439.6094,897.7344 Q437.8281,897.7344 436.4063,897 Q435.25,896.4063 434.4375,895.1406 Q433.625,893.875 433.625,892.3906 L433.625,891.0313 Q433.625,889.4688 434.3438,888.125 Q435.0781,886.7656 436.3594,886.0313 Q437.6563,885.2969 439.1094,885.2969 Q439.9688,885.2969 440.7188,885.5 Q441.4844,885.7031 442.1406,886.1094 Z " fill="#000000"/><text fill="#000000" font-family="sans-serif" font-size="20" lengthAdjust="spacing" textLength="62" x="462" y="899.3711">Person</text><line style="stroke:#181818;stroke-width:0.5;" x1="196.5" x2="754.5" y1="908.7656" y2="908.7656"/><rect fill="none" height="6" style="stroke:#C82930;stroke-width:1.0;" width="6" x="203.5" y="923.8438"/><text fill="#000000" font-family="sans-serif" font-size="20" lengthAdjust="spacing" textLength="103" x="216.5" y="933.5273">String email</text><rect fill="none" height="6" style="stroke:#C82930;stroke-width:1.0;" width="6" x="203.5" y="949"/><text fill="#000000" font-family="sans-serif" font-size="20" lengthAdjust="spacing" textLength="171" x="216.5" y="958.6836">int passportNumber</text><rect fill="none" height="6" style="stroke:#C82930;stroke-width:1.0;" width="6" x="203.5" y="974.1563"/><text fill="#000000" font-family="sans-serif" font-size="20" lengthAdjust="spacing" textLength="120" x="216.5" y="983.8398">int taxNumber</text><rect fill="none" height="6" style="stroke:#C82930;stroke-width:1.0;" width="6" x="203.5" y="999.3125"/><text fill="#000000" font-family="sans-serif" font-size="20" lengthAdjust="spacing" textLength="105" x="216.5" y="1008.9961">String name</text><rect fill="none" height="6" style="stroke:#C82930;stroke-width:1.0;" width="6" x="203.5" y="1024.4688"/><text fill="#000000" font-family="sans-serif" font-size="20" lengthAdjust="spacing" textLength="150" x="216.5" y="1034.1523">Address address</text><rect fill="none" height="6" style="stroke:#C82930;stroke-width:1.0;" width="6" x="203.5" y="1049.625"/><text fill="#000000" font-family="sans-serif" font-size="20" lengthAdjust="spacing" textLength="147" x="216.5" y="1059.3086">int phoneNumber</text><line style="stroke:#181818;stroke-width:0.5;" x1="196.5" x2="754.5" y1="1067.7031" y2="1067.7031"/><ellipse cx="206.5" cy="1085.7813" fill="#84BE84" rx="3" ry="3" style="stroke:#038048;stroke-width:1.0;"/><text fill="#000000" font-family="sans-serif" font-size="20" lengthAdjust="spacing" textLength="533" x="216.5" y="1092.4648">User(email,passportNumber,taxNumber,name,phoneNumber)</text><ellipse cx="206.5" cy="1110.9375" fill="#84BE84" rx="3" ry="3" style="stroke:#038048;stroke-width:1.0;"/><text fill="#000000" font-family="sans-serif" font-size="20" lengthAdjust="spacing" textLength="189" x="216.5" y="1117.6211">getPassportNumber()</text><ellipse cx="206.5" cy="1136.0938" fill="#84BE84" rx="3" ry="3" style="stroke:#038048;stroke-width:1.0;"/><text fill="#000000" font-family="sans-serif" font-size="20" lengthAdjust="spacing" textLength="142" x="216.5" y="1142.7773">getTaxNumber()</text><ellipse cx="206.5" cy="1161.25" fill="#84BE84" rx="3" ry="3" style="stroke:#038048;stroke-width:1.0;"/><text fill="#000000" font-family="sans-serif" font-size="20" lengthAdjust="spacing" textLength="90" x="216.5" y="1167.9336">getEmail()</text><ellipse cx="206.5" cy="1186.4063" fill="#84BE84" rx="3" ry="3" style="stroke:#038048;stroke-width:1.0;"/><text fill="#000000" font-family="sans-serif" font-size="20" lengthAdjust="spacing" textLength="104" x="216.5" y="1193.0898">getAdress()</text><ellipse cx="206.5" cy="1211.5625" fill="#84BE84" rx="3" ry="3" style="stroke:#038048;stroke-width:1.0;"/><text fill="#000000" font-family="sans-serif" font-size="20" lengthAdjust="spacing" textLength="93" x="216.5" y="1218.2461">getName()</text><ellipse cx="206.5" cy="1236.7188" fill="#84BE84" rx="3" ry="3" style="stroke:#038048;stroke-width:1.0;"/><text fill="#000000" font-family="sans-serif" font-size="20" lengthAdjust="spacing" textLength="165" x="216.5" y="1243.4023">getPhoneNumber()</text></g><!--class Employee--><g id="elem_Employee"><rect codeLine="66" fill="#F1F1F1" height="202.0938" id="Employee" rx="2.5" ry="2.5" style="stroke:#181818;stroke-width:0.5;" width="444" x="282.5" y="584.6094"/><ellipse cx="456.5" cy="602.1875" fill="#ADD1B2" rx="12" ry="12" style="stroke:#181818;stroke-width:1.0;"/><path d="M458.6406,597.1094 Q458.8281,596.8594 459.0469,596.7344 Q459.2656,596.5938 459.5156,596.5938 Q459.9531,596.5938 460.2344,596.9063 Q460.5156,597.2031 460.5156,597.9219 L460.5156,599.625 Q460.5156,600.3438 460.2344,600.6563 Q459.9531,600.9688 459.5156,600.9688 Q459.125,600.9688 458.875,600.7344 Q458.625,600.5156 458.5156,599.9063 Q458.4531,599.4844 458.2344,599.2656 Q457.8438,598.8281 457.125,598.5625 Q456.4063,598.2969 455.6875,598.2969 Q454.7813,598.2969 454.0313,598.6875 Q453.2813,599.0781 452.7031,599.9688 Q452.125,600.8438 452.125,602.0469 L452.125,603.3438 Q452.125,604.7969 453.1719,605.7656 Q454.2344,606.7344 456.0938,606.7344 Q457.2031,606.7344 457.9844,606.4219 Q458.4219,606.25 458.9375,605.7344 Q459.25,605.4219 459.4219,605.3281 Q459.5938,605.2344 459.8281,605.2344 Q460.2188,605.2344 460.5156,605.5469 Q460.8281,605.8438 460.8281,606.25 Q460.8281,606.6563 460.4219,607.125 Q459.8281,607.8125 458.8906,608.2031 Q457.625,608.7344 456.1094,608.7344 Q454.3281,608.7344 452.9063,608 Q451.75,607.4063 450.9375,606.1406 Q450.125,604.875 450.125,603.3906 L450.125,602.0313 Q450.125,600.4688 450.8438,599.125 Q451.5781,597.7656 452.8594,597.0313 Q454.1563,596.2969 455.6094,596.2969 Q456.4688,596.2969 457.2188,596.5 Q457.9844,596.7031 458.6406,597.1094 Z " fill="#000000"/><text fill="#000000" font-family="sans-serif" font-size="20" lengthAdjust="spacing" textLength="87" x="478.5" y="610.3711">Employee</text><line style="stroke:#181818;stroke-width:0.5;" x1="283.5" x2="725.5" y1="619.7656" y2="619.7656"/><rect fill="none" height="6" style="stroke:#C82930;stroke-width:1.0;" width="6" x="290.5" y="634.8438"/><text fill="#000000" font-family="sans-serif" font-size="20" lengthAdjust="spacing" textLength="99" x="303.5" y="644.5273">Store store</text><rect fill="none" height="6" style="stroke:#C82930;stroke-width:1.0;" width="6" x="290.5" y="660"/><text fill="#000000" font-family="sans-serif" font-size="20" lengthAdjust="spacing" textLength="79" x="303.5" y="669.6836">Role role</text><line style="stroke:#181818;stroke-width:0.5;" x1="283.5" x2="725.5" y1="678.0781" y2="678.0781"/><ellipse cx="293.5" cy="708.7344" fill="#84BE84" rx="3" ry="3" style="stroke:#038048;stroke-width:1.0;"/><text fill="#000000" font-family="sans-serif" font-size="20" lengthAdjust="spacing" textLength="417" x="303.5" y="702.8398">Employee(email,name,store,phoneNumber,role,</text><text fill="#000000" font-family="sans-serif" font-size="20" lengthAdjust="spacing" textLength="329" x="303.5" y="727.9961">address,taxNumber,passportNumber)</text><ellipse cx="293.5" cy="746.4688" fill="#84BE84" rx="3" ry="3" style="stroke:#038048;stroke-width:1.0;"/><text fill="#000000" font-family="sans-serif" font-size="20" lengthAdjust="spacing" textLength="90" x="303.5" y="753.1523">getStore()</text><ellipse cx="293.5" cy="771.625" fill="#84BE84" rx="3" ry="3" style="stroke:#038048;stroke-width:1.0;"/><text fill="#000000" font-family="sans-serif" font-size="20" lengthAdjust="spacing" textLength="82" x="303.5" y="778.3086">getRole()</text></g><!--class Store--><g id="elem_Store"><rect codeLine="74" fill="#F1F1F1" height="227.25" id="Store" rx="2.5" ry="2.5" style="stroke:#181818;stroke-width:0.5;" width="608" x="594.5" y="1338.6094"/><ellipse cx="870" cy="1356.1875" fill="#ADD1B2" rx="12" ry="12" style="stroke:#181818;stroke-width:1.0;"/><path d="M872.1406,1351.1094 Q872.3281,1350.8594 872.5469,1350.7344 Q872.7656,1350.5938 873.0156,1350.5938 Q873.4531,1350.5938 873.7344,1350.9063 Q874.0156,1351.2031 874.0156,1351.9219 L874.0156,1353.625 Q874.0156,1354.3438 873.7344,1354.6563 Q873.4531,1354.9688 873.0156,1354.9688 Q872.625,1354.9688 872.375,1354.7344 Q872.125,1354.5156 872.0156,1353.9063 Q871.9531,1353.4844 871.7344,1353.2656 Q871.3438,1352.8281 870.625,1352.5625 Q869.9063,1352.2969 869.1875,1352.2969 Q868.2813,1352.2969 867.5313,1352.6875 Q866.7813,1353.0781 866.2031,1353.9688 Q865.625,1354.8438 865.625,1356.0469 L865.625,1357.3438 Q865.625,1358.7969 866.6719,1359.7656 Q867.7344,1360.7344 869.5938,1360.7344 Q870.7031,1360.7344 871.4844,1360.4219 Q871.9219,1360.25 872.4375,1359.7344 Q872.75,1359.4219 872.9219,1359.3281 Q873.0938,1359.2344 873.3281,1359.2344 Q873.7188,1359.2344 874.0156,1359.5469 Q874.3281,1359.8438 874.3281,1360.25 Q874.3281,1360.6563 873.9219,1361.125 Q873.3281,1361.8125 872.3906,1362.2031 Q871.125,1362.7344 869.6094,1362.7344 Q867.8281,1362.7344 866.4063,1362 Q865.25,1361.4063 864.4375,1360.1406 Q863.625,1358.875 863.625,1357.3906 L863.625,1356.0313 Q863.625,1354.4688 864.3438,1353.125 Q865.0781,1351.7656 866.3594,1351.0313 Q867.6563,1350.2969 869.1094,1350.2969 Q869.9688,1350.2969 870.7188,1350.5 Q871.4844,1350.7031 872.1406,1351.1094 Z " fill="#000000"/><text fill="#000000" font-family="sans-serif" font-size="20" lengthAdjust="spacing" textLength="48" x="892" y="1364.3711">Store</text><line style="stroke:#181818;stroke-width:0.5;" x1="595.5" x2="1201.5" y1="1373.7656" y2="1373.7656"/><rect fill="none" height="6" style="stroke:#C82930;stroke-width:1.0;" width="6" x="602.5" y="1388.8438"/><text fill="#000000" font-family="sans-serif" font-size="20" lengthAdjust="spacing" textLength="105" x="615.5" y="1398.5273">String name</text><rect fill="none" height="6" style="stroke:#C82930;stroke-width:1.0;" width="6" x="602.5" y="1414"/><text fill="#000000" font-family="sans-serif" font-size="20" lengthAdjust="spacing" textLength="150" x="615.5" y="1423.6836">Address address</text><line style="stroke:#181818;stroke-width:0.5;" x1="595.5" x2="1201.5" y1="1432.0781" y2="1432.0781"/><rect fill="#F24D5C" height="6" style="stroke:#C82930;stroke-width:1.0;" width="6" x="602.5" y="1447.1563"/><text fill="#000000" font-family="sans-serif" font-size="20" lengthAdjust="spacing" textLength="219" x="615.5" y="1456.8398">addEmployee(employee)</text><rect fill="#F24D5C" height="6" style="stroke:#C82930;stroke-width:1.0;" width="6" x="602.5" y="1472.3125"/><text fill="#000000" font-family="sans-serif" font-size="20" lengthAdjust="spacing" textLength="253" x="615.5" y="1481.9961">validateEmployee(employee)</text><ellipse cx="605.5" cy="1500.4688" fill="#84BE84" rx="3" ry="3" style="stroke:#038048;stroke-width:1.0;"/><text fill="#000000" font-family="sans-serif" font-size="20" lengthAdjust="spacing" textLength="246" x="615.5" y="1507.1523">Store(name,adress,contact)</text><ellipse cx="605.5" cy="1538.2031" fill="#84BE84" rx="3" ry="3" style="stroke:#038048;stroke-width:1.0;"/><text fill="#000000" font-family="sans-serif" font-size="20" lengthAdjust="spacing" textLength="394" x="615.5" y="1532.3086">createEmployee(name,citizen's card number,</text><text fill="#000000" font-family="sans-serif" font-size="20" lengthAdjust="spacing" textLength="581" x="615.5" y="1557.4648">tax number, address, email adress, telephone number, store, role)</text></g><!--class Repositories--><g id="elem_Repositories"><rect codeLine="83" fill="#F1F1F1" height="126.625" id="Repositories" rx="2.5" ry="2.5" style="stroke:#181818;stroke-width:0.5;" width="269" x="573" y="45.6094"/><ellipse cx="648" cy="63.1875" fill="#ADD1B2" rx="12" ry="12" style="stroke:#181818;stroke-width:1.0;"/><path d="M650.1406,58.1094 Q650.3281,57.8594 650.5469,57.7344 Q650.7656,57.5938 651.0156,57.5938 Q651.4531,57.5938 651.7344,57.9063 Q652.0156,58.2031 652.0156,58.9219 L652.0156,60.625 Q652.0156,61.3438 651.7344,61.6563 Q651.4531,61.9688 651.0156,61.9688 Q650.625,61.9688 650.375,61.7344 Q650.125,61.5156 650.0156,60.9063 Q649.9531,60.4844 649.7344,60.2656 Q649.3438,59.8281 648.625,59.5625 Q647.9063,59.2969 647.1875,59.2969 Q646.2813,59.2969 645.5313,59.6875 Q644.7813,60.0781 644.2031,60.9688 Q643.625,61.8438 643.625,63.0469 L643.625,64.3438 Q643.625,65.7969 644.6719,66.7656 Q645.7344,67.7344 647.5938,67.7344 Q648.7031,67.7344 649.4844,67.4219 Q649.9219,67.25 650.4375,66.7344 Q650.75,66.4219 650.9219,66.3281 Q651.0938,66.2344 651.3281,66.2344 Q651.7188,66.2344 652.0156,66.5469 Q652.3281,66.8438 652.3281,67.25 Q652.3281,67.6563 651.9219,68.125 Q651.3281,68.8125 650.3906,69.2031 Q649.125,69.7344 647.6094,69.7344 Q645.8281,69.7344 644.4063,69 Q643.25,68.4063 642.4375,67.1406 Q641.625,65.875 641.625,64.3906 L641.625,63.0313 Q641.625,61.4688 642.3438,60.125 Q643.0781,58.7656 644.3594,58.0313 Q645.6563,57.2969 647.1094,57.2969 Q647.9688,57.2969 648.7188,57.5 Q649.4844,57.7031 650.1406,58.1094 Z " fill="#000000"/><text fill="#000000" font-family="sans-serif" font-size="20" lengthAdjust="spacing" textLength="110" x="670" y="71.3711">Repositories</text><line style="stroke:#181818;stroke-width:0.5;" x1="574" x2="841" y1="80.7656" y2="80.7656"/><line style="stroke:#181818;stroke-width:0.5;" x1="574" x2="841" y1="88.7656" y2="88.7656"/><rect fill="#F24D5C" height="6" style="stroke:#C82930;stroke-width:1.0;" width="6" x="581" y="103.8438"/><text fill="#000000" font-family="sans-serif" font-size="20" lengthAdjust="spacing" textLength="124" x="594" y="113.5273">Repositories()</text><ellipse cx="584" cy="132" fill="#84BE84" rx="3" ry="3" style="stroke:#038048;stroke-width:1.0;"/><text fill="#000000" font-family="sans-serif" font-size="20" lengthAdjust="spacing" textLength="232" x="594" y="138.6836">getInstance():Repositories</text><ellipse cx="584" cy="157.1563" fill="#84BE84" rx="3" ry="3" style="stroke:#038048;stroke-width:1.0;"/><text fill="#000000" font-family="sans-serif" font-size="20" lengthAdjust="spacing" textLength="242" x="594" y="163.8398">getLegacyFilesRepository()</text></g><!--class FileReaderRepository--><g id="elem_FileReaderRepository"><rect codeLine="89" fill="#F1F1F1" height="76.3125" id="FileReaderRepository" rx="2.5" ry="2.5" style="stroke:#181818;stroke-width:0.5;" width="274" x="367.5" y="259.6094"/><ellipse cx="405.55" cy="277.1875" fill="#ADD1B2" rx="12" ry="12" style="stroke:#181818;stroke-width:1.0;"/><path d="M407.6906,272.1094 Q407.8781,271.8594 408.0969,271.7344 Q408.3156,271.5938 408.5656,271.5938 Q409.0031,271.5938 409.2844,271.9063 Q409.5656,272.2031 409.5656,272.9219 L409.5656,274.625 Q409.5656,275.3438 409.2844,275.6563 Q409.0031,275.9688 408.5656,275.9688 Q408.175,275.9688 407.925,275.7344 Q407.675,275.5156 407.5656,274.9063 Q407.5031,274.4844 407.2844,274.2656 Q406.8938,273.8281 406.175,273.5625 Q405.4563,273.2969 404.7375,273.2969 Q403.8313,273.2969 403.0813,273.6875 Q402.3313,274.0781 401.7531,274.9688 Q401.175,275.8438 401.175,277.0469 L401.175,278.3438 Q401.175,279.7969 402.2219,280.7656 Q403.2844,281.7344 405.1438,281.7344 Q406.2531,281.7344 407.0344,281.4219 Q407.4719,281.25 407.9875,280.7344 Q408.3,280.4219 408.4719,280.3281 Q408.6438,280.2344 408.8781,280.2344 Q409.2688,280.2344 409.5656,280.5469 Q409.8781,280.8438 409.8781,281.25 Q409.8781,281.6563 409.4719,282.125 Q408.8781,282.8125 407.9406,283.2031 Q406.675,283.7344 405.1594,283.7344 Q403.3781,283.7344 401.9563,283 Q400.8,282.4063 399.9875,281.1406 Q399.175,279.875 399.175,278.3906 L399.175,277.0313 Q399.175,275.4688 399.8938,274.125 Q400.6281,272.7656 401.9094,272.0313 Q403.2063,271.2969 404.6594,271.2969 Q405.5188,271.2969 406.2688,271.5 Q407.0344,271.7031 407.6906,272.1094 Z " fill="#000000"/><text fill="#000000" font-family="sans-serif" font-size="20" lengthAdjust="spacing" textLength="191" x="425.45" y="285.3711">FileReaderRepository</text><line style="stroke:#181818;stroke-width:0.5;" x1="368.5" x2="640.5" y1="294.7656" y2="294.7656"/><line style="stroke:#181818;stroke-width:0.5;" x1="368.5" x2="640.5" y1="302.7656" y2="302.7656"/><rect fill="#F24D5C" height="6" style="stroke:#C82930;stroke-width:1.0;" width="6" x="375.5" y="317.8438"/><text fill="#000000" font-family="sans-serif" font-size="20" lengthAdjust="spacing" textLength="247" x="388.5" y="327.5273">addFileCopy(fileInformation)</text></g><!--class ImportFileController--><g id="elem_ImportFileController"><rect codeLine="93" fill="#F1F1F1" height="126.625" id="ImportFileController" rx="2.5" ry="2.5" style="stroke:#181818;stroke-width:0.5;" width="260" x="173.5" y="45.6094"/><ellipse cx="213.35" cy="63.1875" fill="#ADD1B2" rx="12" ry="12" style="stroke:#181818;stroke-width:1.0;"/><path d="M215.4906,58.1094 Q215.6781,57.8594 215.8969,57.7344 Q216.1156,57.5938 216.3656,57.5938 Q216.8031,57.5938 217.0844,57.9063 Q217.3656,58.2031 217.3656,58.9219 L217.3656,60.625 Q217.3656,61.3438 217.0844,61.6563 Q216.8031,61.9688 216.3656,61.9688 Q215.975,61.9688 215.725,61.7344 Q215.475,61.5156 215.3656,60.9063 Q215.3031,60.4844 215.0844,60.2656 Q214.6938,59.8281 213.975,59.5625 Q213.2563,59.2969 212.5375,59.2969 Q211.6313,59.2969 210.8813,59.6875 Q210.1313,60.0781 209.5531,60.9688 Q208.975,61.8438 208.975,63.0469 L208.975,64.3438 Q208.975,65.7969 210.0219,66.7656 Q211.0844,67.7344 212.9438,67.7344 Q214.0531,67.7344 214.8344,67.4219 Q215.2719,67.25 215.7875,66.7344 Q216.1,66.4219 216.2719,66.3281 Q216.4438,66.2344 216.6781,66.2344 Q217.0688,66.2344 217.3656,66.5469 Q217.6781,66.8438 217.6781,67.25 Q217.6781,67.6563 217.2719,68.125 Q216.6781,68.8125 215.7406,69.2031 Q214.475,69.7344 212.9594,69.7344 Q211.1781,69.7344 209.7563,69 Q208.6,68.4063 207.7875,67.1406 Q206.975,65.875 206.975,64.3906 L206.975,63.0313 Q206.975,61.4688 207.6938,60.125 Q208.4281,58.7656 209.7094,58.0313 Q211.0063,57.2969 212.4594,57.2969 Q213.3188,57.2969 214.0688,57.5 Q214.8344,57.7031 215.4906,58.1094 Z " fill="#000000"/><text fill="#000000" font-family="sans-serif" font-size="20" lengthAdjust="spacing" textLength="173" x="233.65" y="71.3711">ImportFileController</text><line style="stroke:#181818;stroke-width:0.5;" x1="174.5" x2="432.5" y1="80.7656" y2="80.7656"/><line style="stroke:#181818;stroke-width:0.5;" x1="174.5" x2="432.5" y1="88.7656" y2="88.7656"/><rect fill="#F24D5C" height="6" style="stroke:#C82930;stroke-width:1.0;" width="6" x="181.5" y="103.8438"/><text fill="#000000" font-family="sans-serif" font-size="20" lengthAdjust="spacing" textLength="187" x="194.5" y="113.5273">getFileReaderClass()</text><rect fill="#F24D5C" height="6" style="stroke:#C82930;stroke-width:1.0;" width="6" x="181.5" y="129"/><text fill="#000000" font-family="sans-serif" font-size="20" lengthAdjust="spacing" textLength="188" x="194.5" y="138.6836">getStoreInformation()</text><rect fill="#F24D5C" height="6" style="stroke:#C82930;stroke-width:1.0;" width="6" x="181.5" y="154.1563"/><text fill="#000000" font-family="sans-serif" font-size="20" lengthAdjust="spacing" textLength="233" x="194.5" y="163.8398">getFileReaderRepository()</text></g><!--class ReadFileUI--><g id="elem_ReadFileUI"><rect codeLine="99" fill="#F1F1F1" height="51.1563" id="ReadFileUI" rx="2.5" ry="2.5" style="stroke:#181818;stroke-width:0.5;" width="131" x="7" y="83.6094"/><ellipse cx="23" cy="101.1875" fill="#ADD1B2" rx="12" ry="12" style="stroke:#181818;stroke-width:1.0;"/><path d="M25.1406,96.1094 Q25.3281,95.8594 25.5469,95.7344 Q25.7656,95.5938 26.0156,95.5938 Q26.4531,95.5938 26.7344,95.9063 Q27.0156,96.2031 27.0156,96.9219 L27.0156,98.625 Q27.0156,99.3438 26.7344,99.6563 Q26.4531,99.9688 26.0156,99.9688 Q25.625,99.9688 25.375,99.7344 Q25.125,99.5156 25.0156,98.9063 Q24.9531,98.4844 24.7344,98.2656 Q24.3438,97.8281 23.625,97.5625 Q22.9063,97.2969 22.1875,97.2969 Q21.2813,97.2969 20.5313,97.6875 Q19.7813,98.0781 19.2031,98.9688 Q18.625,99.8438 18.625,101.0469 L18.625,102.3438 Q18.625,103.7969 19.6719,104.7656 Q20.7344,105.7344 22.5938,105.7344 Q23.7031,105.7344 24.4844,105.4219 Q24.9219,105.25 25.4375,104.7344 Q25.75,104.4219 25.9219,104.3281 Q26.0938,104.2344 26.3281,104.2344 Q26.7188,104.2344 27.0156,104.5469 Q27.3281,104.8438 27.3281,105.25 Q27.3281,105.6563 26.9219,106.125 Q26.3281,106.8125 25.3906,107.2031 Q24.125,107.7344 22.6094,107.7344 Q20.8281,107.7344 19.4063,107 Q18.25,106.4063 17.4375,105.1406 Q16.625,103.875 16.625,102.3906 L16.625,101.0313 Q16.625,99.4688 17.3438,98.125 Q18.0781,96.7656 19.3594,96.0313 Q20.6563,95.2969 22.1094,95.2969 Q22.9688,95.2969 23.7188,95.5 Q24.4844,95.7031 25.1406,96.1094 Z " fill="#000000"/><text fill="#000000" font-family="sans-serif" font-size="20" lengthAdjust="spacing" textLength="97" x="38" y="109.3711">ReadFileUI</text><line style="stroke:#181818;stroke-width:0.5;" x1="8" x2="137" y1="118.7656" y2="118.7656"/><line style="stroke:#181818;stroke-width:0.5;" x1="8" x2="137" y1="126.7656" y2="126.7656"/></g><!--class FileReaderClass--><g id="elem_FileReaderClass"><rect codeLine="102" fill="#F1F1F1" height="126.625" id="FileReaderClass" rx="2.5" ry="2.5" style="stroke:#181818;stroke-width:0.5;" width="327" x="341" y="396.6094"/><ellipse cx="427.5" cy="414.1875" fill="#ADD1B2" rx="12" ry="12" style="stroke:#181818;stroke-width:1.0;"/><path d="M429.6406,409.1094 Q429.8281,408.8594 430.0469,408.7344 Q430.2656,408.5938 430.5156,408.5938 Q430.9531,408.5938 431.2344,408.9063 Q431.5156,409.2031 431.5156,409.9219 L431.5156,411.625 Q431.5156,412.3438 431.2344,412.6563 Q430.9531,412.9688 430.5156,412.9688 Q430.125,412.9688 429.875,412.7344 Q429.625,412.5156 429.5156,411.9063 Q429.4531,411.4844 429.2344,411.2656 Q428.8438,410.8281 428.125,410.5625 Q427.4063,410.2969 426.6875,410.2969 Q425.7813,410.2969 425.0313,410.6875 Q424.2813,411.0781 423.7031,411.9688 Q423.125,412.8438 423.125,414.0469 L423.125,415.3438 Q423.125,416.7969 424.1719,417.7656 Q425.2344,418.7344 427.0938,418.7344 Q428.2031,418.7344 428.9844,418.4219 Q429.4219,418.25 429.9375,417.7344 Q430.25,417.4219 430.4219,417.3281 Q430.5938,417.2344 430.8281,417.2344 Q431.2188,417.2344 431.5156,417.5469 Q431.8281,417.8438 431.8281,418.25 Q431.8281,418.6563 431.4219,419.125 Q430.8281,419.8125 429.8906,420.2031 Q428.625,420.7344 427.1094,420.7344 Q425.3281,420.7344 423.9063,420 Q422.75,419.4063 421.9375,418.1406 Q421.125,416.875 421.125,415.3906 L421.125,414.0313 Q421.125,412.4688 421.8438,411.125 Q422.5781,409.7656 423.8594,409.0313 Q425.1563,408.2969 426.6094,408.2969 Q427.4688,408.2969 428.2188,408.5 Q428.9844,408.7031 429.6406,409.1094 Z " fill="#000000"/><text fill="#000000" font-family="sans-serif" font-size="20" lengthAdjust="spacing" textLength="145" x="449.5" y="422.3711">FileReaderClass</text><line style="stroke:#181818;stroke-width:0.5;" x1="342" x2="667" y1="431.7656" y2="431.7656"/><line style="stroke:#181818;stroke-width:0.5;" x1="342" x2="667" y1="439.7656" y2="439.7656"/><rect fill="#F24D5C" height="6" style="stroke:#C82930;stroke-width:1.0;" width="6" x="349" y="454.8438"/><text fill="#000000" font-family="sans-serif" font-size="20" lengthAdjust="spacing" textLength="272" x="362" y="464.5273">readStoreInformations(File file)</text><rect fill="#F24D5C" height="6" style="stroke:#C82930;stroke-width:1.0;" width="6" x="349" y="480"/><text fill="#000000" font-family="sans-serif" font-size="20" lengthAdjust="spacing" textLength="283" x="362" y="489.6836">readOwnerInformations(File file)</text><rect fill="#F24D5C" height="6" style="stroke:#C82930;stroke-width:1.0;" width="6" x="349" y="505.1563"/><text fill="#000000" font-family="sans-serif" font-size="20" lengthAdjust="spacing" textLength="300" x="362" y="514.8398">readPropertyInformations(File file)</text></g><!--class SystemAdministrator--><g id="elem_SystemAdministrator"><rect codeLine="108" fill="#F1F1F1" height="51.1563" id="SystemAdministrator" rx="2.5" ry="2.5" style="stroke:#181818;stroke-width:0.5;" width="216" x="790.5" y="1037.1094"/><ellipse cx="806.5" cy="1054.6875" fill="#ADD1B2" rx="12" ry="12" style="stroke:#181818;stroke-width:1.0;"/><path d="M808.6406,1049.6094 Q808.8281,1049.3594 809.0469,1049.2344 Q809.2656,1049.0938 809.5156,1049.0938 Q809.9531,1049.0938 810.2344,1049.4063 Q810.5156,1049.7031 810.5156,1050.4219 L810.5156,1052.125 Q810.5156,1052.8438 810.2344,1053.1563 Q809.9531,1053.4688 809.5156,1053.4688 Q809.125,1053.4688 808.875,1053.2344 Q808.625,1053.0156 808.5156,1052.4063 Q808.4531,1051.9844 808.2344,1051.7656 Q807.8438,1051.3281 807.125,1051.0625 Q806.4063,1050.7969 805.6875,1050.7969 Q804.7813,1050.7969 804.0313,1051.1875 Q803.2813,1051.5781 802.7031,1052.4688 Q802.125,1053.3438 802.125,1054.5469 L802.125,1055.8438 Q802.125,1057.2969 803.1719,1058.2656 Q804.2344,1059.2344 806.0938,1059.2344 Q807.2031,1059.2344 807.9844,1058.9219 Q808.4219,1058.75 808.9375,1058.2344 Q809.25,1057.9219 809.4219,1057.8281 Q809.5938,1057.7344 809.8281,1057.7344 Q810.2188,1057.7344 810.5156,1058.0469 Q810.8281,1058.3438 810.8281,1058.75 Q810.8281,1059.1563 810.4219,1059.625 Q809.8281,1060.3125 808.8906,1060.7031 Q807.625,1061.2344 806.1094,1061.2344 Q804.3281,1061.2344 802.9063,1060.5 Q801.75,1059.9063 800.9375,1058.6406 Q800.125,1057.375 800.125,1055.8906 L800.125,1054.5313 Q800.125,1052.9688 800.8438,1051.625 Q801.5781,1050.2656 802.8594,1049.5313 Q804.1563,1048.7969 805.6094,1048.7969 Q806.4688,1048.7969 807.2188,1049 Q807.9844,1049.2031 808.6406,1049.6094 Z " fill="#000000"/><text fill="#000000" font-family="sans-serif" font-size="20" lengthAdjust="spacing" textLength="182" x="821.5" y="1062.8711">SystemAdministrator</text><line style="stroke:#181818;stroke-width:0.5;" x1="791.5" x2="1005.5" y1="1072.2656" y2="1072.2656"/><line style="stroke:#181818;stroke-width:0.5;" x1="791.5" x2="1005.5" y1="1080.2656" y2="1080.2656"/></g><!--link ReadFileUI to ImportFileController--><g id="link_ReadFileUI_ImportFileController"><path codeLine="112" d="M138.14,109.1094 C144.98,109.1094 149.5,109.1094 149.5,109.1094 C149.5,109.1094 157.47,109.1094 168.29,109.1094 " fill="none" id="ReadFileUI-to-ImportFileController" style="stroke:#181818;stroke-width:1.0;stroke-dasharray:7.0,7.0;"/><polygon fill="#181818" points="173.44,109.1094,164.44,105.1094,168.44,109.1094,164.44,113.1094,173.44,109.1094" style="stroke:#181818;stroke-width:1.0;"/></g><!--link ImportFileController to Repositories--><g id="link_ImportFileController_Repositories"><path codeLine="113" d="M433.55,109.1094 C476.42,109.1094 524.26,109.1094 567.81,109.1094 " fill="none" id="ImportFileController-to-Repositories" style="stroke:#181818;stroke-width:1.0;stroke-dasharray:7.0,7.0;"/><polygon fill="#181818" points="572.83,109.1094,563.83,105.1094,567.83,109.1094,563.83,113.1094,572.83,109.1094" style="stroke:#181818;stroke-width:1.0;"/><text fill="#000000" font-family="sans-serif" font-size="20" lengthAdjust="spacing" textLength="103" x="451.75" y="100.8711">repositories</text></g><!--link ImportFileController to FileReaderRepository--><g id="link_ImportFileController_FileReaderRepository"><path codeLine="114" d="M370.99,172.7294 C400.56,200.1594 434.41,231.5794 460.63,255.9094 " fill="none" id="ImportFileController-to-FileReaderRepository" style="stroke:#181818;stroke-width:1.0;stroke-dasharray:7.0,7.0;"/><polygon fill="#181818" points="464.44,259.4394,460.5721,250.3818,460.7781,256.0349,455.125,256.2409,464.44,259.4394" style="stroke:#181818;stroke-width:1.0;"/><text fill="#000000" font-family="sans-serif" font-size="20" lengthAdjust="spacing" textLength="90" x="429.5" y="224.3711">fileReader</text></g><!--link Repositories to Repositories--><g id="link_Repositories_Repositories"><path codeLine="115" d="M842.12,90.9394 C862.88,93.6894 877,99.7394 877,109.1094 C877,117.6694 865.2,123.4694 847.32,126.4994 " fill="none" id="Repositories-to-Repositories" style="stroke:#181818;stroke-width:1.0;"/><polygon fill="#181818" points="842.12,127.2794,851.6145,129.8974,847.0645,126.5363,850.4256,121.9862,842.12,127.2794" style="stroke:#181818;stroke-width:1.0;"/><text fill="#000000" font-family="sans-serif" font-size="20" lengthAdjust="spacing" textLength="72" x="883" y="117.3711">instance</text></g><!--link Repositories to FileReaderRepository--><g id="link_Repositories_FileReaderRepository"><path codeLine="116" d="M639.34,172.7294 C609.48,200.1594 575.29,231.5794 548.8,255.9094 " fill="none" id="Repositories-to-FileReaderRepository" style="stroke:#181818;stroke-width:1.0;"/><polygon fill="#181818" points="544.96,259.4394,554.294,256.2966,548.6422,256.0569,548.882,250.4051,544.96,259.4394" style="stroke:#181818;stroke-width:1.0;"/></g><!--link FileReaderRepository to FileReaderClass--><g id="link_FileReaderRepository_FileReaderClass"><path codeLine="117" d="M504.5,335.8394 C504.5,352.2594 504.5,372.0894 504.5,390.9994 " fill="none" id="FileReaderRepository-to-FileReaderClass" style="stroke:#181818;stroke-width:1.0;"/><polygon fill="#181818" points="504.5,396.3094,508.5,387.3094,504.5,391.3094,500.5,387.3094,504.5,396.3094" style="stroke:#181818;stroke-width:1.0;"/><text fill="#000000" font-family="sans-serif" font-size="20" lengthAdjust="spacing" textLength="11" x="492.6234" y="364.6737">1</text><text fill="#000000" font-family="sans-serif" font-size="20" lengthAdjust="spacing" textLength="8" x="496.0875" y="384.23">*</text></g><!--link FileReaderClass to Employee--><g id="link_FileReaderClass_Employee"><path codeLine="118" d="M504.5,523.6594 C504.5,540.8994 504.5,560.0794 504.5,579.0294 " fill="none" id="FileReaderClass-to-Employee" style="stroke:#181818;stroke-width:1.0;"/><polygon fill="#181818" points="504.5,584.3694,508.5,575.3694,504.5,579.3694,500.5,575.3694,504.5,584.3694" style="stroke:#181818;stroke-width:1.0;"/></g><!--reverse link Employee to SystemAdministrator--><g id="link_Employee_SystemAdministrator"><path codeLine="119" d="M652.57,789.5394 C715,832.9494 773.5,873.6094 773.5,873.6094 C773.5,873.6094 848.28,986.0694 882.16,1037.0294 " fill="none" id="Employee-backto-SystemAdministrator" style="stroke:#181818;stroke-width:1.0;"/><polygon fill="#181818" points="648.45,786.6794,653.5668,795.0947,652.5589,789.5284,658.1252,788.5205,648.45,786.6794" style="stroke:#181818;stroke-width:1.0;"/><text fill="#000000" font-family="sans-serif" font-size="20" lengthAdjust="spacing" textLength="77" x="728.5" y="838.3711">registers</text></g><!--link Employee to Role--><g id="link_Employee_Role"><path codeLine="120" d="M726.66,685.6094 C749.77,685.6094 771.7,685.6094 790.66,685.6094 " fill="none" id="Employee-to-Role" style="stroke:#181818;stroke-width:1.0;"/><polygon fill="#181818" points="795.93,685.6094,786.93,681.6094,790.93,685.6094,786.93,689.6094,795.93,685.6094" style="stroke:#181818;stroke-width:1.0;"/><text fill="#000000" font-family="sans-serif" font-size="20" lengthAdjust="spacing" textLength="33" x="744.75" y="677.3711">role</text><text fill="#000000" font-family="sans-serif" font-size="20" lengthAdjust="spacing" textLength="11" x="734.8415" y="680.923">1</text><text fill="#000000" font-family="sans-serif" font-size="20" lengthAdjust="spacing" textLength="8" x="779.9132" y="679.7495">*</text></g><!--reverse link Employee to Person--><g id="link_Employee_Person"><path codeLine="121" d="M495.22,806.6594 C493.56,828.0494 491.8,850.7894 490.04,873.5394 " fill="none" id="Employee-backto-Person" style="stroke:#181818;stroke-width:1.0;"/><polygon fill="none" points="488.25,806.0094,496.77,786.6094,502.2,807.0894,488.25,806.0094" style="stroke:#181818;stroke-width:1.0;"/></g><!--link SystemAdministrator to Store--><g id="link_SystemAdministrator_Store"><path codeLine="122" d="M898.5,1088.1394 C898.5,1136.5094 898.5,1246.9694 898.5,1333.4094 " fill="none" id="SystemAdministrator-to-Store" style="stroke:#181818;stroke-width:1.0;"/><polygon fill="#181818" points="898.5,1338.5494,902.5,1329.5494,898.5,1333.5494,894.5,1329.5494,898.5,1338.5494" style="stroke:#181818;stroke-width:1.0;"/><text fill="#000000" font-family="sans-serif" font-size="20" lengthAdjust="spacing" textLength="77" x="899.5" y="1303.3711">registers</text><text fill="#000000" font-family="sans-serif" font-size="20" lengthAdjust="spacing" textLength="8" x="890.2438" y="1326.2324">*</text></g><!--link Store to Address--><g id="link_Store_Address"><path codeLine="123" d="M898.5,1565.7494 C898.5,1592.1794 898.5,1620.4094 898.5,1647.0594 " fill="none" id="Store-to-Address" style="stroke:#181818;stroke-width:1.0;"/><polygon fill="#181818" points="898.5,1652.3694,902.5,1643.3694,898.5,1647.3694,894.5,1643.3694,898.5,1652.3694" style="stroke:#181818;stroke-width:1.0;"/><polygon fill="#000000" points="906.5,1617.1875,911.2023,1602.7154,901.7977,1602.7154,906.5,1617.1875" style="stroke:#000000;stroke-width:1.0;"/><text fill="#000000" font-family="sans-serif" font-size="20" lengthAdjust="spacing" textLength="31" x="919.5" y="1617.3711">has</text><text fill="#000000" font-family="sans-serif" font-size="20" lengthAdjust="spacing" textLength="11" x="887.1477" y="1594.5889">1</text><text fill="#000000" font-family="sans-serif" font-size="20" lengthAdjust="spacing" textLength="8" x="890.2438" y="1640.0408">*</text></g><!--link Address to State--><g id="link_Address_State"><path codeLine="124" d="M898.5,1879.9494 C898.5,1907.2594 898.5,1935.8994 898.5,1961.3594 " fill="none" id="Address-to-State" style="stroke:#181818;stroke-width:1.0;"/><polygon fill="#181818" points="898.5,1966.4094,902.5,1957.4094,898.5,1961.4094,894.5,1957.4094,898.5,1966.4094" style="stroke:#181818;stroke-width:1.0;"/><polygon fill="#000000" points="906.5,1931.1875,911.2023,1916.7154,901.7977,1916.7154,906.5,1931.1875" style="stroke:#000000;stroke-width:1.0;"/><text fill="#000000" font-family="sans-serif" font-size="20" lengthAdjust="spacing" textLength="31" x="919.5" y="1931.3711">has</text><text fill="#000000" font-family="sans-serif" font-size="20" lengthAdjust="spacing" textLength="11" x="887.1477" y="1908.8017">1</text><text fill="#000000" font-family="sans-serif" font-size="20" lengthAdjust="spacing" textLength="8" x="890.1438" y="1954.2879">*</text></g><!--link State to District--><g id="link_State_District"><path codeLine="125" d="M898.5,2118.9194 C898.5,2144.8494 898.5,2173.9594 898.5,2200.2694 " fill="none" id="State-to-District" style="stroke:#181818;stroke-width:1.0;"/><polygon fill="#181818" points="898.5,2205.4894,902.5,2196.4894,898.5,2200.4894,894.5,2196.4894,898.5,2205.4894" style="stroke:#181818;stroke-width:1.0;"/><polygon fill="#000000" points="906.5,2170.1875,911.2023,2155.7154,901.7977,2155.7154,906.5,2170.1875" style="stroke:#000000;stroke-width:1.0;"/><text fill="#000000" font-family="sans-serif" font-size="20" lengthAdjust="spacing" textLength="31" x="919.5" y="2170.3711">has</text><text fill="#000000" font-family="sans-serif" font-size="20" lengthAdjust="spacing" textLength="11" x="887.0445" y="2147.0512">1</text><text fill="#000000" font-family="sans-serif" font-size="20" lengthAdjust="spacing" textLength="8" x="890.1313" y="2193.0987">*</text></g><!--link District to City--><g id="link_District_City"><path codeLine="126" d="M898.5,2357.7694 C898.5,2384.5994 898.5,2414.2994 898.5,2439.1094 " fill="none" id="District-to-City" style="stroke:#181818;stroke-width:1.0;"/><polygon fill="#181818" points="898.5,2444.3294,902.5,2435.3294,898.5,2439.3294,894.5,2435.3294,898.5,2444.3294" style="stroke:#181818;stroke-width:1.0;"/><polygon fill="#000000" points="906.5,2409.1875,911.2023,2394.7154,901.7977,2394.7154,906.5,2409.1875" style="stroke:#000000;stroke-width:1.0;"/><text fill="#000000" font-family="sans-serif" font-size="20" lengthAdjust="spacing" textLength="31" x="919.5" y="2409.3711">has</text><text fill="#000000" font-family="sans-serif" font-size="20" lengthAdjust="spacing" textLength="11" x="887.0273" y="2386.1664">1</text><text fill="#000000" font-family="sans-serif" font-size="20" lengthAdjust="spacing" textLength="8" x="890.0125" y="2432.3598">*</text></g><!--SRC=[bLPDRzim3BthLmYzp5cTeTqn60eK_G0235tGh9UX5yrcKg6sP4ZgXzljlu-IB9jstGtB8Od8HpxoIQ9jxwLgX15rfOjxA7a9E_5GkKkjt5Q-0Fzyn9YJhW9-ipqw_ioN_AmIrl9pAVOOnPXD2NWZYdknXwrh4MsWS4BjAo00UoTA_IJLdkz4PQcdaWfSsm1lTDNw1MD5eBdMcEkLSVmi-TOP7spG5Yo7mPtvzOBzJY5R9zoR6EkDLwB6n35o3ou0iyLWE9SMqOMplT7f69-H_0arfIWxUsHvczNRATkPT1B-JeMGTafJe6rePDbbQhliVUXfMHh0tpSw681OOhHBvVYBRCvqsKlp24RksX_HEAcudTEBsiQYTbLaGVwyboWFNUHTDNag89IV6jY0iLfDwuTQo8gKtY2qqSPTFTG_mH274yyZMnUlXiwJGYB-qgHtMa4NtJLoOy5aWJmVK-OzKUvpvoIMgB8PnL2zlgTmQhpmHDHm6cKabkbfsWoyz1XSr4sbMw3tGHj0uV6xiuGhHkvK2kdQ3Lq5FEqjzm7vhUh48ogCvHcT3Cn1ImwNTtHnVMcl_xbXk28Lnp-BplSeAbdYoNi7S1Wfiz2YY8qKEFX4uHAWC43Z0nBFBav6zS7oGfYIgzWtlyN0vtwLX8adbdVPkOCAWemzC4hB9qFi6Xfj9RfmHFIIK2CLSgtmVga2nLnHo03u2djHj9Uo0ji3MYgzTrs3AC4C_fuMM_7-CzsqsGx_hDLEcreugHL9iQxzhaUWSjXE1QPFWJKC5E41aYq6LzW5afNwvYhBHaA9KDtD6ibc-ebFgrG7xcOvPREPHtFVsOB0lZqfCF-6ROnkmBZsFUHmkblhe3ujQwdy51HO1PRb_QI5JoUpEh9PSH4yEYOhB8Zi_dmC1irkzYhK6yrib7RvXaPsvss2MywdPhDy1yS78UBWuy5qjzXqzpmkNK7MJxGlo-Mig5w6FQxm-J600rra2_Dk5IVUaEmNPekF73QNr9SGekEGeXpHGlj9Wsh5xuJb9oojAIQ-fIH4N55__vQH8Bs1ei8BGaAmFm00]--></g></svg>