<?xml version="1.0" encoding="UTF-8" standalone="no"?><svg xmlns="http://www.w3.org/2000/svg" xmlns:xlink="http://www.w3.org/1999/xlink" contentStyleType="text/css" height="476px" preserveAspectRatio="none" style="width:834px;height:476px;background:#FFFFFF;" version="1.1" viewBox="0 0 834 476" width="834px" zoomAndPan="magnify"><defs/><g><text fill="#000000" font-family="sans-serif" font-size="14" font-weight="bold" lengthAdjust="spacing" textLength="430" x="201" y="29.5332">US012 - Sequence Diagram Partial Get File Reader Repository</text><rect fill="#FFFFFF" height="298.0938" style="stroke:#181818;stroke-width:1.0;" width="10" x="354" y="124.9219"/><rect fill="#FFFFFF" height="39.1563" style="stroke:#181818;stroke-width:1.0;" width="10" x="609" y="250.3906"/><rect fill="#FFFFFF" height="39.1563" style="stroke:#181818;stroke-width:1.0;" width="10" x="746" y="328.7031"/><rect fill="none" height="183.7813" style="stroke:#000000;stroke-width:1.5;" width="570.5" x="252.5" y="192.0781"/><line style="stroke:#181818;stroke-width:0.5;stroke-dasharray:5.0,5.0;" x1="358.5" x2="358.5" y1="83.7656" y2="432.0156"/><line style="stroke:#181818;stroke-width:0.5;stroke-dasharray:5.0,5.0;" x1="614" x2="614" y1="83.7656" y2="432.0156"/><line style="stroke:#181818;stroke-width:0.5;stroke-dasharray:5.0,5.0;" x1="751" x2="751" y1="83.7656" y2="432.0156"/><rect fill="#E3E3E3" height="39.1563" rx="2.5" ry="2.5" style="stroke:#181818;stroke-width:0.5;" width="193" x="262.5" y="43.6094"/><text fill="#000000" font-family="sans-serif" font-size="20" lengthAdjust="spacing" textLength="179" x="269.5" y="71.3711">:ImportFileController</text><rect fill="#E3E3E3" height="39.1563" rx="2.5" ry="2.5" style="stroke:#181818;stroke-width:0.5;" width="193" x="262.5" y="431.0156"/><text fill="#000000" font-family="sans-serif" font-size="20" lengthAdjust="spacing" textLength="179" x="269.5" y="458.7773">:ImportFileController</text><rect fill="#E3E3E3" height="39.1563" rx="2.5" ry="2.5" style="stroke:#181818;stroke-width:0.5;" width="130" x="549" y="43.6094"/><text fill="#000000" font-family="sans-serif" font-size="20" lengthAdjust="spacing" textLength="116" x="556" y="71.3711">:Repositories</text><rect fill="#E3E3E3" height="39.1563" rx="2.5" ry="2.5" style="stroke:#181818;stroke-width:0.5;" width="130" x="549" y="431.0156"/><text fill="#000000" font-family="sans-serif" font-size="20" lengthAdjust="spacing" textLength="116" x="556" y="458.7773">:Repositories</text><rect fill="#E3E3E3" height="39.1563" rx="2.5" ry="2.5" style="stroke:#181818;stroke-width:0.5;" width="124" x="689" y="43.6094"/><text fill="#000000" font-family="sans-serif" font-size="20" lengthAdjust="spacing" textLength="110" x="696" y="71.3711">Repositories</text><rect fill="#E3E3E3" height="39.1563" rx="2.5" ry="2.5" style="stroke:#181818;stroke-width:0.5;" width="124" x="689" y="431.0156"/><text fill="#000000" font-family="sans-serif" font-size="20" lengthAdjust="spacing" textLength="110" x="696" y="458.7773">Repositories</text><rect fill="#FFFFFF" height="298.0938" style="stroke:#181818;stroke-width:1.0;" width="10" x="354" y="124.9219"/><rect fill="#FFFFFF" height="39.1563" style="stroke:#181818;stroke-width:1.0;" width="10" x="609" y="250.3906"/><rect fill="#FFFFFF" height="39.1563" style="stroke:#181818;stroke-width:1.0;" width="10" x="746" y="328.7031"/><polygon fill="#181818" points="342,120.9219,352,124.9219,342,128.9219,346,124.9219" style="stroke:#181818;stroke-width:1.0;"/><line style="stroke:#181818;stroke-width:1.0;" x1="0" x2="348" y1="124.9219" y2="124.9219"/><text fill="#000000" font-family="sans-serif" font-size="20" font-weight="bold" lengthAdjust="spacing" textLength="11" x="7" y="118.5273">5</text><text fill="#000000" font-family="sans-serif" font-size="20" lengthAdjust="spacing" textLength="320" x="22" y="118.5273">importAndSavesInformation(filePath)</text><line style="stroke:#181818;stroke-width:1.0;" x1="364" x2="406" y1="164.0781" y2="164.0781"/><line style="stroke:#181818;stroke-width:1.0;" x1="406" x2="406" y1="164.0781" y2="177.0781"/><line style="stroke:#181818;stroke-width:1.0;" x1="365" x2="406" y1="177.0781" y2="177.0781"/><polygon fill="#181818" points="375,173.0781,365,177.0781,375,181.0781,371,177.0781" style="stroke:#181818;stroke-width:1.0;"/><text fill="#000000" font-family="sans-serif" font-size="20" font-weight="bold" lengthAdjust="spacing" textLength="11" x="371" y="157.6836">6</text><text fill="#000000" font-family="sans-serif" font-size="20" lengthAdjust="spacing" textLength="216" x="386" y="157.6836">copyLegacyFile(filePath)</text><path d="M252.5,192.0781 L552.5,192.0781 L552.5,209.2344 L542.5,219.2344 L252.5,219.2344 L252.5,192.0781 " fill="#EEEEEE" style="stroke:#000000;stroke-width:1.5;"/><rect fill="none" height="183.7813" style="stroke:#000000;stroke-width:1.5;" width="570.5" x="252.5" y="192.0781"/><text fill="#000000" font-family="sans-serif" font-size="20" font-weight="bold" lengthAdjust="spacing" textLength="255" x="267.5" y="213.8398">Get File Reader Repository</text><polygon fill="#181818" points="597,246.3906,607,250.3906,597,254.3906,601,250.3906" style="stroke:#181818;stroke-width:1.0;"/><line style="stroke:#181818;stroke-width:1.0;" x1="364" x2="603" y1="250.3906" y2="250.3906"/><text fill="#000000" font-family="sans-serif" font-size="20" font-weight="bold" lengthAdjust="spacing" textLength="11" x="371" y="243.9961">7</text><text fill="#000000" font-family="sans-serif" font-size="20" lengthAdjust="spacing" textLength="116" x="386" y="243.9961">getInstance()</text><polygon fill="#181818" points="375,285.5469,365,289.5469,375,293.5469,371,289.5469" style="stroke:#181818;stroke-width:1.0;"/><line style="stroke:#181818;stroke-width:1.0;stroke-dasharray:2.0,2.0;" x1="369" x2="613" y1="289.5469" y2="289.5469"/><text fill="#000000" font-family="sans-serif" font-size="20" font-weight="bold" lengthAdjust="spacing" textLength="11" x="381" y="283.1523">8</text><text fill="#000000" font-family="sans-serif" font-size="20" lengthAdjust="spacing" textLength="103" x="396" y="283.1523">repositories</text><polygon fill="#181818" points="734,324.7031,744,328.7031,734,332.7031,738,328.7031" style="stroke:#181818;stroke-width:1.0;"/><line style="stroke:#181818;stroke-width:1.0;" x1="364" x2="740" y1="328.7031" y2="328.7031"/><text fill="#000000" font-family="sans-serif" font-size="20" font-weight="bold" lengthAdjust="spacing" textLength="11" x="371" y="322.3086">9</text><text fill="#000000" font-family="sans-serif" font-size="20" lengthAdjust="spacing" textLength="233" x="386" y="322.3086">getFileReaderRepository()</text><polygon fill="#181818" points="375,363.8594,365,367.8594,375,371.8594,371,367.8594" style="stroke:#181818;stroke-width:1.0;"/><line style="stroke:#181818;stroke-width:1.0;stroke-dasharray:2.0,2.0;" x1="369" x2="750" y1="367.8594" y2="367.8594"/><text fill="#000000" font-family="sans-serif" font-size="20" font-weight="bold" lengthAdjust="spacing" textLength="22" x="381" y="361.4648">10</text><text fill="#000000" font-family="sans-serif" font-size="20" lengthAdjust="spacing" textLength="185" x="407" y="361.4648">fileReaderRepository</text><polygon fill="#181818" points="821,410.0156,831,414.0156,821,418.0156,825,414.0156" style="stroke:#181818;stroke-width:1.0;"/><line style="stroke:#181818;stroke-width:1.0;" x1="364" x2="827" y1="414.0156" y2="414.0156"/><text fill="#000000" font-family="sans-serif" font-size="20" font-weight="bold" lengthAdjust="spacing" textLength="22" x="371" y="407.6211">11</text><text fill="#000000" font-family="sans-serif" font-size="20" lengthAdjust="spacing" textLength="270" x="397" y="407.6211">createFileCopy(fileInformation)</text><!--SRC=[ZPB1JiCm44Jl_eeL5ygXj21nwG495HLLwg5gu0CMPvDQTMnZRuh2rsCdBObeLTMN73BxPiRhi5F6eSTAMxcZ778giDQyi8OpzKFmE1MtMsONPfE9qsYuhlIzjDKaq5TDHj8uLrZ6UI724GMLDLPklQq8sDSq-EDGxh2aZ1jDu4aocb8F1M6BkVrMfeG2TI0XM76KVcJJXqSOGtPmXTVE5TReMQ66Ds9OgAZS4ERauyVPeDZwHWYisPgw-YGlN99BvM8Hk9ajAsSzfx5vxEkjrkHl00FCtpUhVze_eABGQiuxm9E0yNCBW1cerk35v1dkAInDONs5hAmP5T5qZRoz4p0uA5djaQaB85fAJvFMDIigKJOfyW3HCaflQtVn7k3VEU9xJJGfYPScnBr86jsTZFm5lCHDPy0S7nhCuiBxEpoPokag-4deoEfYfzfTwtx-gWefpUKIoQElKPmnkgfECYAJzujDI_KKDTqRT4sxrC4xYRiLlm00]--></g></svg>