<?xml version="1.0" encoding="us-ascii" standalone="no"?><svg xmlns="http://www.w3.org/2000/svg" xmlns:xlink="http://www.w3.org/1999/xlink" contentStyleType="text/css" height="781px" preserveAspectRatio="none" style="width:1593px;height:781px;background:#FFFFFF;" version="1.1" viewBox="0 0 1593 781" width="1593px" zoomAndPan="magnify"><defs/><g><text fill="#000000" font-family="sans-serif" font-size="14" font-weight="bold" lengthAdjust="spacing" textLength="228" x="681.75" y="28.5352">US012 - Sequence Diagram Full</text><rect fill="#FFFFFF" height="553.6348" style="stroke:#181818;stroke-width:1.0;" width="10" x="76.5" y="128.9766"/><rect fill="#FFFFFF" height="70.7988" style="stroke:#181818;stroke-width:1.0;" width="10" x="497.5" y="150.2871"/><rect fill="#FFFFFF" height="432.2148" style="stroke:#181818;stroke-width:1.0;" width="10" x="497.5" y="250.3965"/><rect fill="#FFFFFF" height="373.5938" style="stroke:#181818;stroke-width:1.0;" width="10" x="770.5" y="279.707"/><rect fill="#FFFFFF" height="29.3105" style="stroke:#181818;stroke-width:1.0;" width="10" x="957.5" y="351.3281"/><rect fill="#FFFFFF" height="29.3105" style="stroke:#181818;stroke-width:1.0;" width="10" x="1070.5" y="409.9492"/><rect fill="#FFFFFF" height="155.4199" style="stroke:#181818;stroke-width:1.0;" width="10" x="1215.5" y="468.5703"/><rect fill="#FFFFFF" height="76.6211" style="stroke:#181818;stroke-width:1.0;" width="10" x="1220.5" y="547.3691"/><rect fill="#FFFFFF" height="34.3105" style="stroke:#181818;stroke-width:1.0;" width="10" x="1225.5" y="589.6797"/><line style="stroke:#181818;stroke-width:0.5;stroke-dasharray:5.0,5.0;" x1="81" x2="81" y1="118.9766" y2="700.6113"/><line style="stroke:#181818;stroke-width:0.5;stroke-dasharray:5.0,5.0;" x1="502.5" x2="502.5" y1="118.9766" y2="700.6113"/><line style="stroke:#181818;stroke-width:0.5;stroke-dasharray:5.0,5.0;" x1="775.5" x2="775.5" y1="189.0313" y2="700.6113"/><line style="stroke:#181818;stroke-width:0.5;stroke-dasharray:5.0,5.0;" x1="962" x2="962" y1="118.9766" y2="700.6113"/><line style="stroke:#181818;stroke-width:0.5;stroke-dasharray:5.0,5.0;" x1="1075" x2="1075" y1="118.9766" y2="700.6113"/><line style="stroke:#181818;stroke-width:0.5;stroke-dasharray:5.0,5.0;" x1="1220" x2="1220" y1="118.9766" y2="700.6113"/><line style="stroke:#181818;stroke-width:0.5;stroke-dasharray:5.0,5.0;" x1="1526.5" x2="1526.5" y1="507.3145" y2="700.6113"/><text fill="#000000" font-family="sans-serif" font-size="14" lengthAdjust="spacing" textLength="147" x="5" y="116.0234">System Administrator</text><ellipse cx="81.5" cy="50.9883" fill="#E3E3E3" rx="8" ry="8" style="stroke:#181818;stroke-width:0.5;"/><path d="M81.5,58.9883 L81.5,85.9883 M68.5,66.9883 L94.5,66.9883 M81.5,85.9883 L68.5,100.9883 M81.5,85.9883 L94.5,100.9883 " fill="none" style="stroke:#181818;stroke-width:0.5;"/><text fill="#000000" font-family="sans-serif" font-size="14" lengthAdjust="spacing" textLength="147" x="5" y="713.1465">System Administrator</text><ellipse cx="81.5" cy="724.5996" fill="#E3E3E3" rx="8" ry="8" style="stroke:#181818;stroke-width:0.5;"/><path d="M81.5,732.5996 L81.5,759.5996 M68.5,740.5996 L94.5,740.5996 M81.5,759.5996 L68.5,774.5996 M81.5,759.5996 L94.5,774.5996 " fill="none" style="stroke:#181818;stroke-width:0.5;"/><rect fill="#E3E3E3" height="30.4883" rx="2.5" ry="2.5" style="stroke:#181818;stroke-width:0.5;" width="90" x="457.5" y="87.4883"/><text fill="#000000" font-family="sans-serif" font-size="14" lengthAdjust="spacing" textLength="76" x="464.5" y="108.0234">:ReadFileUI</text><rect fill="#E3E3E3" height="30.4883" rx="2.5" ry="2.5" style="stroke:#181818;stroke-width:0.5;" width="90" x="457.5" y="699.6113"/><text fill="#000000" font-family="sans-serif" font-size="14" lengthAdjust="spacing" textLength="76" x="464.5" y="720.1465">:ReadFileUI</text><rect fill="#E3E3E3" height="30.4883" rx="2.5" ry="2.5" style="stroke:#181818;stroke-width:0.5;" width="158" x="696.5" y="699.6113"/><text fill="#000000" font-family="sans-serif" font-size="14" lengthAdjust="spacing" textLength="144" x="703.5" y="720.1465">:ImportFileController</text><rect fill="#E3E3E3" height="30.4883" rx="2.5" ry="2.5" style="stroke:#181818;stroke-width:0.5;" width="103" x="911" y="87.4883"/><text fill="#000000" font-family="sans-serif" font-size="14" lengthAdjust="spacing" textLength="89" x="918" y="108.0234">:Repositories</text><rect fill="#E3E3E3" height="30.4883" rx="2.5" ry="2.5" style="stroke:#181818;stroke-width:0.5;" width="103" x="911" y="699.6113"/><text fill="#000000" font-family="sans-serif" font-size="14" lengthAdjust="spacing" textLength="89" x="918" y="720.1465">:Repositories</text><rect fill="#E3E3E3" height="46.9766" rx="2.5" ry="2.5" style="stroke:#181818;stroke-width:0.5;" width="103" x="1024" y="71"/><text fill="#000000" font-family="sans-serif" font-size="14" lengthAdjust="spacing" textLength="82" x="1034.5" y="91.5352">repositories</text><text fill="#000000" font-family="sans-serif" font-size="14" lengthAdjust="spacing" textLength="89" x="1031" y="108.0234">:Repositories</text><rect fill="#E3E3E3" height="46.9766" rx="2.5" ry="2.5" style="stroke:#181818;stroke-width:0.5;" width="103" x="1024" y="699.6113"/><text fill="#000000" font-family="sans-serif" font-size="14" lengthAdjust="spacing" textLength="82" x="1034.5" y="720.1465">repositories</text><text fill="#000000" font-family="sans-serif" font-size="14" lengthAdjust="spacing" textLength="89" x="1031" y="736.6348">:Repositories</text><rect fill="#E3E3E3" height="46.9766" rx="2.5" ry="2.5" style="stroke:#181818;stroke-width:0.5;" width="167" x="1137" y="71"/><text fill="#000000" font-family="sans-serif" font-size="14" lengthAdjust="spacing" textLength="153" x="1144" y="91.5352">File Reader Repository</text><text fill="#000000" font-family="sans-serif" font-size="14" lengthAdjust="spacing" textLength="149" x="1146" y="108.0234">:FileReaderRepository</text><rect fill="#E3E3E3" height="46.9766" rx="2.5" ry="2.5" style="stroke:#181818;stroke-width:0.5;" width="167" x="1137" y="699.6113"/><text fill="#000000" font-family="sans-serif" font-size="14" lengthAdjust="spacing" textLength="153" x="1144" y="720.1465">File Reader Repository</text><text fill="#000000" font-family="sans-serif" font-size="14" lengthAdjust="spacing" textLength="149" x="1146" y="736.6348">:FileReaderRepository</text><rect fill="#E3E3E3" height="30.4883" rx="2.5" ry="2.5" style="stroke:#181818;stroke-width:0.5;" width="122" x="1465.5" y="699.6113"/><text fill="#000000" font-family="sans-serif" font-size="14" lengthAdjust="spacing" textLength="108" x="1472.5" y="720.1465">FileReaderClass</text><rect fill="#FFFFFF" height="553.6348" style="stroke:#181818;stroke-width:1.0;" width="10" x="76.5" y="128.9766"/><rect fill="#FFFFFF" height="70.7988" style="stroke:#181818;stroke-width:1.0;" width="10" x="497.5" y="150.2871"/><rect fill="#FFFFFF" height="432.2148" style="stroke:#181818;stroke-width:1.0;" width="10" x="497.5" y="250.3965"/><rect fill="#FFFFFF" height="373.5938" style="stroke:#181818;stroke-width:1.0;" width="10" x="770.5" y="279.707"/><rect fill="#FFFFFF" height="29.3105" style="stroke:#181818;stroke-width:1.0;" width="10" x="957.5" y="351.3281"/><rect fill="#FFFFFF" height="29.3105" style="stroke:#181818;stroke-width:1.0;" width="10" x="1070.5" y="409.9492"/><rect fill="#FFFFFF" height="155.4199" style="stroke:#181818;stroke-width:1.0;" width="10" x="1215.5" y="468.5703"/><rect fill="#FFFFFF" height="76.6211" style="stroke:#181818;stroke-width:1.0;" width="10" x="1220.5" y="547.3691"/><rect fill="#FFFFFF" height="34.3105" style="stroke:#181818;stroke-width:1.0;" width="10" x="1225.5" y="589.6797"/><polygon fill="#181818" points="485.5,146.2871,495.5,150.2871,485.5,154.2871,489.5,150.2871" style="stroke:#181818;stroke-width:1.0;"/><line style="stroke:#181818;stroke-width:1.0;" x1="86.5" x2="491.5" y1="150.2871" y2="150.2871"/><text fill="#000000" font-family="sans-serif" font-size="13" font-weight="bold" lengthAdjust="spacing" textLength="9" x="93.5" y="145.5449">1</text><text fill="#000000" font-family="sans-serif" font-size="13" lengthAdjust="spacing" textLength="308" x="106.5" y="145.5449">asks to import information from a legacy system</text><polygon fill="#181818" points="684.5,175.5977,694.5,179.5977,684.5,183.5977,688.5,179.5977" style="stroke:#181818;stroke-width:1.0;"/><line style="stroke:#181818;stroke-width:1.0;" x1="507.5" x2="690.5" y1="179.5977" y2="179.5977"/><text fill="#000000" font-family="sans-serif" font-size="13" font-weight="bold" lengthAdjust="spacing" textLength="9" x="514.5" y="174.8555">2</text><text fill="#000000" font-family="sans-serif" font-size="13" lengthAdjust="spacing" textLength="38" x="527.5" y="174.8555">create</text><rect fill="#E3E3E3" height="30.4883" rx="2.5" ry="2.5" style="stroke:#181818;stroke-width:0.5;" width="158" x="696.5" y="158.2871"/><text fill="#000000" font-family="sans-serif" font-size="14" lengthAdjust="spacing" textLength="144" x="703.5" y="178.8223">:ImportFileController</text><polygon fill="#181818" points="97.5,217.0859,87.5,221.0859,97.5,225.0859,93.5,221.0859" style="stroke:#181818;stroke-width:1.0;"/><line style="stroke:#181818;stroke-width:1.0;stroke-dasharray:2.0,2.0;" x1="91.5" x2="501.5" y1="221.0859" y2="221.0859"/><text fill="#000000" font-family="sans-serif" font-size="13" font-weight="bold" lengthAdjust="spacing" textLength="9" x="103.5" y="216.3438">3</text><text fill="#000000" font-family="sans-serif" font-size="13" lengthAdjust="spacing" textLength="238" x="116.5" y="216.3438">requests the path of the file to import</text><polygon fill="#181818" points="485.5,246.3965,495.5,250.3965,485.5,254.3965,489.5,250.3965" style="stroke:#181818;stroke-width:1.0;"/><line style="stroke:#181818;stroke-width:1.0;" x1="86.5" x2="491.5" y1="250.3965" y2="250.3965"/><text fill="#000000" font-family="sans-serif" font-size="13" font-weight="bold" lengthAdjust="spacing" textLength="9" x="93.5" y="245.6543">4</text><text fill="#000000" font-family="sans-serif" font-size="13" lengthAdjust="spacing" textLength="268" x="106.5" y="245.6543">types the path of the file and submits data</text><polygon fill="#181818" points="758.5,275.707,768.5,279.707,758.5,283.707,762.5,279.707" style="stroke:#181818;stroke-width:1.0;"/><line style="stroke:#181818;stroke-width:1.0;" x1="507.5" x2="764.5" y1="279.707" y2="279.707"/><text fill="#000000" font-family="sans-serif" font-size="13" font-weight="bold" lengthAdjust="spacing" textLength="9" x="514.5" y="274.9648">5</text><text fill="#000000" font-family="sans-serif" font-size="13" lengthAdjust="spacing" textLength="231" x="527.5" y="274.9648">importAndSavesInformation(filePath)</text><line style="stroke:#181818;stroke-width:1.0;" x1="780.5" x2="822.5" y1="309.0176" y2="309.0176"/><line style="stroke:#181818;stroke-width:1.0;" x1="822.5" x2="822.5" y1="309.0176" y2="322.0176"/><line style="stroke:#181818;stroke-width:1.0;" x1="781.5" x2="822.5" y1="322.0176" y2="322.0176"/><polygon fill="#181818" points="791.5,318.0176,781.5,322.0176,791.5,326.0176,787.5,322.0176" style="stroke:#181818;stroke-width:1.0;"/><text fill="#000000" font-family="sans-serif" font-size="13" font-weight="bold" lengthAdjust="spacing" textLength="9" x="787.5" y="304.2754">6</text><text fill="#000000" font-family="sans-serif" font-size="13" lengthAdjust="spacing" textLength="150" x="800.5" y="304.2754">copyLegacyFile(filePath)</text><polygon fill="#181818" points="945.5,347.3281,955.5,351.3281,945.5,355.3281,949.5,351.3281" style="stroke:#181818;stroke-width:1.0;"/><line style="stroke:#181818;stroke-width:1.0;" x1="780.5" x2="951.5" y1="351.3281" y2="351.3281"/><text fill="#000000" font-family="sans-serif" font-size="13" font-weight="bold" lengthAdjust="spacing" textLength="9" x="787.5" y="346.5859">7</text><text fill="#000000" font-family="sans-serif" font-size="13" lengthAdjust="spacing" textLength="81" x="800.5" y="346.5859">getInstance()</text><polygon fill="#181818" points="791.5,376.6387,781.5,380.6387,791.5,384.6387,787.5,380.6387" style="stroke:#181818;stroke-width:1.0;"/><line style="stroke:#181818;stroke-width:1.0;stroke-dasharray:2.0,2.0;" x1="785.5" x2="961.5" y1="380.6387" y2="380.6387"/><text fill="#000000" font-family="sans-serif" font-size="13" font-weight="bold" lengthAdjust="spacing" textLength="9" x="797.5" y="375.8965">8</text><text fill="#000000" font-family="sans-serif" font-size="13" lengthAdjust="spacing" textLength="75" x="810.5" y="375.8965">repositories</text><polygon fill="#181818" points="1058.5,405.9492,1068.5,409.9492,1058.5,413.9492,1062.5,409.9492" style="stroke:#181818;stroke-width:1.0;"/><line style="stroke:#181818;stroke-width:1.0;" x1="780.5" x2="1064.5" y1="409.9492" y2="409.9492"/><text fill="#000000" font-family="sans-serif" font-size="13" font-weight="bold" lengthAdjust="spacing" textLength="9" x="787.5" y="405.207">9</text><text fill="#000000" font-family="sans-serif" font-size="13" lengthAdjust="spacing" textLength="159" x="800.5" y="405.207">getFileReaderRepository()</text><polygon fill="#181818" points="791.5,435.2598,781.5,439.2598,791.5,443.2598,787.5,439.2598" style="stroke:#181818;stroke-width:1.0;"/><line style="stroke:#181818;stroke-width:1.0;stroke-dasharray:2.0,2.0;" x1="785.5" x2="1074.5" y1="439.2598" y2="439.2598"/><text fill="#000000" font-family="sans-serif" font-size="13" font-weight="bold" lengthAdjust="spacing" textLength="18" x="797.5" y="434.5176">10</text><text fill="#000000" font-family="sans-serif" font-size="13" lengthAdjust="spacing" textLength="129" x="819.5" y="434.5176">fileReaderRepository</text><polygon fill="#181818" points="1203.5,464.5703,1213.5,468.5703,1203.5,472.5703,1207.5,468.5703" style="stroke:#181818;stroke-width:1.0;"/><line style="stroke:#181818;stroke-width:1.0;" x1="780.5" x2="1209.5" y1="468.5703" y2="468.5703"/><text fill="#000000" font-family="sans-serif" font-size="13" font-weight="bold" lengthAdjust="spacing" textLength="18" x="787.5" y="463.8281">11</text><text fill="#000000" font-family="sans-serif" font-size="13" lengthAdjust="spacing" textLength="194" x="809.5" y="463.8281">createFileCopy(fileInformation)</text><polygon fill="#181818" points="1453.5,493.8809,1463.5,497.8809,1453.5,501.8809,1457.5,497.8809" style="stroke:#181818;stroke-width:1.0;"/><line style="stroke:#181818;stroke-width:1.0;" x1="1225.5" x2="1459.5" y1="497.8809" y2="497.8809"/><text fill="#000000" font-family="sans-serif" font-size="13" font-weight="bold" lengthAdjust="spacing" textLength="18" x="1232.5" y="493.1387">12</text><text fill="#000000" font-family="sans-serif" font-size="13" lengthAdjust="spacing" textLength="194" x="1254.5" y="493.1387">createFileCopy(fileInformation)</text><rect fill="#E3E3E3" height="30.4883" rx="2.5" ry="2.5" style="stroke:#181818;stroke-width:0.5;" width="122" x="1465.5" y="476.5703"/><text fill="#000000" font-family="sans-serif" font-size="14" lengthAdjust="spacing" textLength="108" x="1472.5" y="497.1055">FileReaderClass</text><line style="stroke:#181818;stroke-width:1.0;" x1="1225.5" x2="1272.5" y1="534.3691" y2="534.3691"/><line style="stroke:#181818;stroke-width:1.0;" x1="1272.5" x2="1272.5" y1="534.3691" y2="547.3691"/><line style="stroke:#181818;stroke-width:1.0;" x1="1231.5" x2="1272.5" y1="547.3691" y2="547.3691"/><polygon fill="#181818" points="1241.5,543.3691,1231.5,547.3691,1241.5,551.3691,1237.5,547.3691" style="stroke:#181818;stroke-width:1.0;"/><text fill="#000000" font-family="sans-serif" font-size="13" font-weight="bold" lengthAdjust="spacing" textLength="18" x="1237.5" y="529.627">13</text><text fill="#000000" font-family="sans-serif" font-size="13" lengthAdjust="spacing" textLength="179" x="1259.5" y="529.627">addFileCopy(fileInformation)</text><line style="stroke:#181818;stroke-width:1.0;" x1="1230.5" x2="1277.5" y1="576.6797" y2="576.6797"/><line style="stroke:#181818;stroke-width:1.0;" x1="1277.5" x2="1277.5" y1="576.6797" y2="589.6797"/><line style="stroke:#181818;stroke-width:1.0;" x1="1236.5" x2="1277.5" y1="589.6797" y2="589.6797"/><polygon fill="#181818" points="1246.5,585.6797,1236.5,589.6797,1246.5,593.6797,1242.5,589.6797" style="stroke:#181818;stroke-width:1.0;"/><text fill="#000000" font-family="sans-serif" font-size="13" font-weight="bold" lengthAdjust="spacing" textLength="18" x="1242.5" y="571.9375">14</text><text fill="#000000" font-family="sans-serif" font-size="13" lengthAdjust="spacing" textLength="205" x="1264.5" y="571.9375">validateFileCopy(fileInformation)</text><polygon fill="#181818" points="791.5,619.9902,781.5,623.9902,791.5,627.9902,787.5,623.9902" style="stroke:#181818;stroke-width:1.0;"/><line style="stroke:#181818;stroke-width:1.0;stroke-dasharray:2.0,2.0;" x1="785.5" x2="1219.5" y1="623.9902" y2="623.9902"/><text fill="#000000" font-family="sans-serif" font-size="13" font-weight="bold" lengthAdjust="spacing" textLength="18" x="797.5" y="619.248">15</text><text fill="#000000" font-family="sans-serif" font-size="13" lengthAdjust="spacing" textLength="54" x="819.5" y="619.248">FileCopy</text><polygon fill="#181818" points="518.5,649.3008,508.5,653.3008,518.5,657.3008,514.5,653.3008" style="stroke:#181818;stroke-width:1.0;"/><line style="stroke:#181818;stroke-width:1.0;stroke-dasharray:2.0,2.0;" x1="512.5" x2="774.5" y1="653.3008" y2="653.3008"/><text fill="#000000" font-family="sans-serif" font-size="13" font-weight="bold" lengthAdjust="spacing" textLength="18" x="524.5" y="648.5586">16</text><text fill="#000000" font-family="sans-serif" font-size="13" lengthAdjust="spacing" textLength="54" x="546.5" y="648.5586">FileCopy</text><polygon fill="#181818" points="92.5,678.6113,82.5,682.6113,92.5,686.6113,88.5,682.6113" style="stroke:#181818;stroke-width:1.0;"/><line style="stroke:#181818;stroke-width:1.0;stroke-dasharray:2.0,2.0;" x1="86.5" x2="501.5" y1="682.6113" y2="682.6113"/><text fill="#000000" font-family="sans-serif" font-size="13" font-weight="bold" lengthAdjust="spacing" textLength="18" x="98.5" y="677.8691">17</text><text fill="#000000" font-family="sans-serif" font-size="13" lengthAdjust="spacing" textLength="365" x="120.5" y="677.8691">shows a success message and displays operation success</text><!--SRC=[pLPDZzem4BtxLuouT5a9gUsHGwKL5HBI7ggbt7ePaabYaTYfxR3Dl-yuWSHP3CkXgZO7HCPlthpvi1rxaAf6WnLKMkcaCBeYSAOXOOUL6fC3vhHrRKbWA76eyZ84s09J_IfL3XcMbeHmqZ5qj_tyvIiiO4k_6r89mNU9kSUlcx8K0XkdLLFjoGZngP0fGQQrs-i_0XEd3SoshNLKmLDQIIMjCyZM6Q3jBO9ZEvd86fM3sVA5C5tBadQR3hBRl5dVLBKspYDMMZcZov9wijNFb-SBhbfRoT4asGup6DefqWJ0N-g67nkcdbu8UCra0dRcy0kzVJHtNB458Nojv14TdOeYuFHqhx3unfM09ViVB3WDigi2I9LfKw6JMa76BGU4ad9CMh1TpKUQWPuBEXYPaebzuHuVcJmnn0ZMCW3E84RrEfOyDpm4rh6AWdYYN04ww_vdlXA3j84YfOlGqvHSMzCLDbGfs6PVIGwNeaDnDPDfDipQgtXIwHQFP3TZdHuyym-ED9yu3wpT64s9_TFHZlI9hjldhjA-dG7dTS-ns-oVazieonimeOVvXSiW9fmGY3m1v-8apdSe6DQt7a4xRf5VY6QkNdPiVEzAmQkvdOIFCQQHnVR9FUb40vqJYiaVHhy_LUgswsSmC_EexcYwyTtzddjKrKJjgaHhWrrwNUe_23Of3QRf1wxBHEeHIvb-l3wEnyPPsBj4mLolxza7_zl_oluwd-dHF0FE_f2zSiFOGhzQlibiaoHaBLJymvyjtMsGIbkNs5hGDPd-tZl1HEIo2LxxM_Kl]--></g></svg>