<?xml version="1.0" encoding="us-ascii" standalone="no"?><svg xmlns="http://www.w3.org/2000/svg" xmlns:xlink="http://www.w3.org/1999/xlink" contentStyleType="text/css" height="370px" preserveAspectRatio="none" style="width:592px;height:370px;background:#FFFFFF;" version="1.1" viewBox="0 0 592 370" width="592px" zoomAndPan="magnify"><defs/><g><text fill="#000000" font-family="sans-serif" font-size="14" font-weight="bold" lengthAdjust="spacing" textLength="430" x="80.25" y="27.6738">US012 - Sequence Diagram Partial Get File Reader Repository</text><rect fill="#FFFFFF" height="223.6641" style="stroke:#181818;stroke-width:1.0;" width="10" x="238" y="102.8047"/><rect fill="#FFFFFF" height="28.5234" style="stroke:#181818;stroke-width:1.0;" width="10" x="415" y="196.375"/><rect fill="#FFFFFF" height="28.5234" style="stroke:#181818;stroke-width:1.0;" width="10" x="520" y="253.4219"/><rect fill="none" height="130.6172" style="stroke:#000000;stroke-width:1.5;" width="419.5" x="162" y="159.3281"/><line style="stroke:#181818;stroke-width:0.5;stroke-dasharray:5.0,5.0;" x1="243" x2="243" y1="72.2813" y2="335.4688"/><line style="stroke:#181818;stroke-width:0.5;stroke-dasharray:5.0,5.0;" x1="419.5" x2="419.5" y1="72.2813" y2="335.4688"/><line style="stroke:#181818;stroke-width:0.5;stroke-dasharray:5.0,5.0;" x1="524.5" x2="524.5" y1="72.2813" y2="335.4688"/><rect fill="#E3E3E3" height="29.6406" rx="2.5" ry="2.5" style="stroke:#181818;stroke-width:0.5;" width="142" x="172" y="41.6406"/><text fill="#000000" font-family="sans-serif" font-size="14" lengthAdjust="spacing" textLength="128" x="179" y="61.3145">:ImportFileController</text><rect fill="#E3E3E3" height="29.6406" rx="2.5" ry="2.5" style="stroke:#181818;stroke-width:0.5;" width="142" x="172" y="334.4688"/><text fill="#000000" font-family="sans-serif" font-size="14" lengthAdjust="spacing" textLength="128" x="179" y="354.1426">:ImportFileController</text><rect fill="#E3E3E3" height="29.6406" rx="2.5" ry="2.5" style="stroke:#181818;stroke-width:0.5;" width="97" x="371.5" y="41.6406"/><text fill="#000000" font-family="sans-serif" font-size="14" lengthAdjust="spacing" textLength="83" x="378.5" y="61.3145">:Repositories</text><rect fill="#E3E3E3" height="29.6406" rx="2.5" ry="2.5" style="stroke:#181818;stroke-width:0.5;" width="97" x="371.5" y="334.4688"/><text fill="#000000" font-family="sans-serif" font-size="14" lengthAdjust="spacing" textLength="83" x="378.5" y="354.1426">:Repositories</text><rect fill="#E3E3E3" height="29.6406" rx="2.5" ry="2.5" style="stroke:#181818;stroke-width:0.5;" width="93" x="478.5" y="41.6406"/><text fill="#000000" font-family="sans-serif" font-size="14" lengthAdjust="spacing" textLength="79" x="485.5" y="61.3145">Repositories</text><rect fill="#E3E3E3" height="29.6406" rx="2.5" ry="2.5" style="stroke:#181818;stroke-width:0.5;" width="93" x="478.5" y="334.4688"/><text fill="#000000" font-family="sans-serif" font-size="14" lengthAdjust="spacing" textLength="79" x="485.5" y="354.1426">Repositories</text><rect fill="#FFFFFF" height="223.6641" style="stroke:#181818;stroke-width:1.0;" width="10" x="238" y="102.8047"/><rect fill="#FFFFFF" height="28.5234" style="stroke:#181818;stroke-width:1.0;" width="10" x="415" y="196.375"/><rect fill="#FFFFFF" height="28.5234" style="stroke:#181818;stroke-width:1.0;" width="10" x="520" y="253.4219"/><polygon fill="#181818" points="226,98.8047,236,102.8047,226,106.8047,230,102.8047" style="stroke:#181818;stroke-width:1.0;"/><line style="stroke:#181818;stroke-width:1.0;" x1="0" x2="232" y1="102.8047" y2="102.8047"/><text fill="#000000" font-family="sans-serif" font-size="13" font-weight="bold" lengthAdjust="spacing" textLength="7" x="7" y="98.0498">5</text><text fill="#000000" font-family="sans-serif" font-size="13" lengthAdjust="spacing" textLength="208" x="18" y="98.0498">importAndSavesInformation(filePath)</text><line style="stroke:#181818;stroke-width:1.0;" x1="248" x2="290" y1="131.3281" y2="131.3281"/><line style="stroke:#181818;stroke-width:1.0;" x1="290" x2="290" y1="131.3281" y2="144.3281"/><line style="stroke:#181818;stroke-width:1.0;" x1="249" x2="290" y1="144.3281" y2="144.3281"/><polygon fill="#181818" points="259,140.3281,249,144.3281,259,148.3281,255,144.3281" style="stroke:#181818;stroke-width:1.0;"/><text fill="#000000" font-family="sans-serif" font-size="13" font-weight="bold" lengthAdjust="spacing" textLength="7" x="255" y="126.5732">6</text><text fill="#000000" font-family="sans-serif" font-size="13" lengthAdjust="spacing" textLength="142" x="266" y="126.5732">copyLegacyFile(filePath)</text><path d="M162,159.3281 L378,159.3281 L378,165.8516 L368,175.8516 L162,175.8516 L162,159.3281 " fill="#EEEEEE" style="stroke:#000000;stroke-width:1.5;"/><rect fill="none" height="130.6172" style="stroke:#000000;stroke-width:1.5;" width="419.5" x="162" y="159.3281"/><text fill="#000000" font-family="sans-serif" font-size="13" font-weight="bold" lengthAdjust="spacing" textLength="171" x="177" y="172.0967">Get File Reader Repository</text><polygon fill="#181818" points="403,192.375,413,196.375,403,200.375,407,196.375" style="stroke:#181818;stroke-width:1.0;"/><line style="stroke:#181818;stroke-width:1.0;" x1="248" x2="409" y1="196.375" y2="196.375"/><text fill="#000000" font-family="sans-serif" font-size="13" font-weight="bold" lengthAdjust="spacing" textLength="7" x="255" y="191.6201">7</text><text fill="#000000" font-family="sans-serif" font-size="13" lengthAdjust="spacing" textLength="75" x="266" y="191.6201">getInstance()</text><polygon fill="#181818" points="259,220.8984,249,224.8984,259,228.8984,255,224.8984" style="stroke:#181818;stroke-width:1.0;"/><line style="stroke:#181818;stroke-width:1.0;stroke-dasharray:2.0,2.0;" x1="253" x2="419" y1="224.8984" y2="224.8984"/><text fill="#000000" font-family="sans-serif" font-size="13" font-weight="bold" lengthAdjust="spacing" textLength="7" x="265" y="220.1436">8</text><text fill="#000000" font-family="sans-serif" font-size="13" lengthAdjust="spacing" textLength="67" x="276" y="220.1436">repositories</text><polygon fill="#181818" points="508,249.4219,518,253.4219,508,257.4219,512,253.4219" style="stroke:#181818;stroke-width:1.0;"/><line style="stroke:#181818;stroke-width:1.0;" x1="248" x2="514" y1="253.4219" y2="253.4219"/><text fill="#000000" font-family="sans-serif" font-size="13" font-weight="bold" lengthAdjust="spacing" textLength="7" x="255" y="248.667">9</text><text fill="#000000" font-family="sans-serif" font-size="13" lengthAdjust="spacing" textLength="150" x="266" y="248.667">getFileReaderRepository()</text><polygon fill="#181818" points="259,277.9453,249,281.9453,259,285.9453,255,281.9453" style="stroke:#181818;stroke-width:1.0;"/><line style="stroke:#181818;stroke-width:1.0;stroke-dasharray:2.0,2.0;" x1="253" x2="524" y1="281.9453" y2="281.9453"/><text fill="#000000" font-family="sans-serif" font-size="13" font-weight="bold" lengthAdjust="spacing" textLength="14" x="265" y="277.1904">10</text><text fill="#000000" font-family="sans-serif" font-size="13" lengthAdjust="spacing" textLength="119" x="283" y="277.1904">fileReaderRepository</text><polygon fill="#181818" points="579.5,313.4688,589.5,317.4688,579.5,321.4688,583.5,317.4688" style="stroke:#181818;stroke-width:1.0;"/><line style="stroke:#181818;stroke-width:1.0;" x1="248" x2="585.5" y1="317.4688" y2="317.4688"/><text fill="#000000" font-family="sans-serif" font-size="13" font-weight="bold" lengthAdjust="spacing" textLength="14" x="255" y="312.7139">11</text><text fill="#000000" font-family="sans-serif" font-size="13" lengthAdjust="spacing" textLength="174" x="273" y="312.7139">createFileCopy(fileInformation)</text><!--SRC=[ZLBBRi8m4BpxArPS2eUKjb8l72fLLAsGE23IVi3MsIGMYUtQ6whyVUs4aWWGOY-9vDbvU7nNCbk_cCzjXPgRkhgNffvx-cb8IqeoXON3MWY_KzfY-8NQQ2DBPse2TWsDJYpA7HQKSbiHE9ACkgZ605zYPdwLBY37ofCGh3X0lzA7noT883sembkl2XjqhB223s9uLm6v9Sp8XOyrNh5nhH3OiD5D_KrEs0YNoeOWC5ciQciSnxMbqUnCLP6R07fOVcxN9zWZeIBVOIuhmBE0vAKZW0MeJk1LPodkoQzqRboDh8oUva5qWrpE18m69QizClK6HCSoi4bZspKLADjeUKJHSHJEDFRgFS39_DCFc21I4A-q3xr8cixELeu6h_766N4cXmIBKFXmXsTR6Tr4VcOwSFMsO-m-zR1_KuJevdg8g374o2y8tHGd2f7EXc9ZgOu2fd-3jkrA7RsJqAtu0m00]--></g></svg>