<?xml version="1.0" encoding="UTF-8" standalone="no"?><svg xmlns="http://www.w3.org/2000/svg" xmlns:xlink="http://www.w3.org/1999/xlink" contentStyleType="text/css" height="472px" preserveAspectRatio="none" style="width:820px;height:472px;background:#FFFFFF;" version="1.1" viewBox="0 0 820 472" width="820px" zoomAndPan="magnify"><defs/><g><text fill="#000000" font-family="sans-serif" font-size="14" font-weight="bold" lengthAdjust="spacing" textLength="356" x="233.5" y="29.5332">US012 - Sequence Diagram Partial Create File Copy</text><rect fill="#FFFFFF" height="234.7813" style="stroke:#181818;stroke-width:1.0;" width="10" x="315" y="150.0781"/><rect fill="#FFFFFF" height="103.3125" style="stroke:#181818;stroke-width:1.0;" width="10" x="320" y="281.5469"/><rect fill="#FFFFFF" height="51.1563" style="stroke:#181818;stroke-width:1.0;" width="10" x="325" y="333.7031"/><rect fill="none" height="181.625" style="stroke:#000000;stroke-width:1.5;" width="612.5" x="201.5" y="165.0781"/><line style="stroke:#181818;stroke-width:0.5;stroke-dasharray:5.0,5.0;" x1="70" x2="70" y1="108.9219" y2="402.8594"/><line style="stroke:#181818;stroke-width:0.5;stroke-dasharray:5.0,5.0;" x1="319.5" x2="319.5" y1="108.9219" y2="402.8594"/><line style="stroke:#181818;stroke-width:0.5;stroke-dasharray:5.0,5.0;" x1="724" x2="724" y1="227.3125" y2="402.8594"/><rect fill="#E3E3E3" height="64.3125" rx="2.5" ry="2.5" style="stroke:#181818;stroke-width:0.5;" width="130" x="5" y="43.6094"/><text fill="#000000" font-family="sans-serif" font-size="20" lengthAdjust="spacing" textLength="103" x="18.5" y="71.3711">repositories</text><text fill="#000000" font-family="sans-serif" font-size="20" lengthAdjust="spacing" textLength="116" x="12" y="96.5273">:Repositories</text><rect fill="#E3E3E3" height="64.3125" rx="2.5" ry="2.5" style="stroke:#181818;stroke-width:0.5;" width="130" x="5" y="401.8594"/><text fill="#000000" font-family="sans-serif" font-size="20" lengthAdjust="spacing" textLength="103" x="18.5" y="429.6211">repositories</text><text fill="#000000" font-family="sans-serif" font-size="20" lengthAdjust="spacing" textLength="116" x="12" y="454.7773">:Repositories</text><rect fill="#E3E3E3" height="64.3125" rx="2.5" ry="2.5" style="stroke:#181818;stroke-width:0.5;" width="217" x="211.5" y="43.6094"/><text fill="#000000" font-family="sans-serif" font-size="20" lengthAdjust="spacing" textLength="203" x="218.5" y="71.3711">File Reader Repository</text><text fill="#000000" font-family="sans-serif" font-size="20" lengthAdjust="spacing" textLength="197" x="221.5" y="96.5273">:FileReaderRepository</text><rect fill="#E3E3E3" height="64.3125" rx="2.5" ry="2.5" style="stroke:#181818;stroke-width:0.5;" width="217" x="211.5" y="401.8594"/><text fill="#000000" font-family="sans-serif" font-size="20" lengthAdjust="spacing" textLength="203" x="218.5" y="429.6211">File Reader Repository</text><text fill="#000000" font-family="sans-serif" font-size="20" lengthAdjust="spacing" textLength="197" x="221.5" y="454.7773">:FileReaderRepository</text><rect fill="#E3E3E3" height="39.1563" rx="2.5" ry="2.5" style="stroke:#181818;stroke-width:0.5;" width="159" x="645" y="401.8594"/><text fill="#000000" font-family="sans-serif" font-size="20" lengthAdjust="spacing" textLength="145" x="652" y="429.6211">FileReaderClass</text><rect fill="#FFFFFF" height="234.7813" style="stroke:#181818;stroke-width:1.0;" width="10" x="315" y="150.0781"/><rect fill="#FFFFFF" height="103.3125" style="stroke:#181818;stroke-width:1.0;" width="10" x="320" y="281.5469"/><rect fill="#FFFFFF" height="51.1563" style="stroke:#181818;stroke-width:1.0;" width="10" x="325" y="333.7031"/><polygon fill="#181818" points="303,146.0781,313,150.0781,303,154.0781,307,150.0781" style="stroke:#181818;stroke-width:1.0;"/><line style="stroke:#181818;stroke-width:1.0;" x1="0" x2="309" y1="150.0781" y2="150.0781"/><text fill="#000000" font-family="sans-serif" font-size="20" font-weight="bold" lengthAdjust="spacing" textLength="22" x="7" y="143.6836">11</text><text fill="#000000" font-family="sans-serif" font-size="20" lengthAdjust="spacing" textLength="270" x="33" y="143.6836">createFileCopy(fileInformation)</text><path d="M201.5,165.0781 L402.5,165.0781 L402.5,182.2344 L392.5,192.2344 L201.5,192.2344 L201.5,165.0781 " fill="#EEEEEE" style="stroke:#000000;stroke-width:1.5;"/><rect fill="none" height="181.625" style="stroke:#000000;stroke-width:1.5;" width="612.5" x="201.5" y="165.0781"/><text fill="#000000" font-family="sans-serif" font-size="20" font-weight="bold" lengthAdjust="spacing" textLength="156" x="216.5" y="186.8398">Create File Copy</text><polygon fill="#181818" points="633,219.3906,643,223.3906,633,227.3906,637,223.3906" style="stroke:#181818;stroke-width:1.0;"/><line style="stroke:#181818;stroke-width:1.0;" x1="325" x2="639" y1="223.3906" y2="223.3906"/><text fill="#000000" font-family="sans-serif" font-size="20" font-weight="bold" lengthAdjust="spacing" textLength="22" x="332" y="216.9961">12</text><text fill="#000000" font-family="sans-serif" font-size="20" lengthAdjust="spacing" textLength="270" x="358" y="216.9961">createFileCopy(fileInformation)</text><rect fill="#E3E3E3" height="39.1563" rx="2.5" ry="2.5" style="stroke:#181818;stroke-width:0.5;" width="159" x="645" y="192.2344"/><text fill="#000000" font-family="sans-serif" font-size="20" lengthAdjust="spacing" textLength="145" x="652" y="219.9961">FileReaderClass</text><line style="stroke:#181818;stroke-width:1.0;" x1="325" x2="372" y1="268.5469" y2="268.5469"/><line style="stroke:#181818;stroke-width:1.0;" x1="372" x2="372" y1="268.5469" y2="281.5469"/><line style="stroke:#181818;stroke-width:1.0;" x1="331" x2="372" y1="281.5469" y2="281.5469"/><polygon fill="#181818" points="341,277.5469,331,281.5469,341,285.5469,337,281.5469" style="stroke:#181818;stroke-width:1.0;"/><text fill="#000000" font-family="sans-serif" font-size="20" font-weight="bold" lengthAdjust="spacing" textLength="22" x="337" y="262.1523">13</text><text fill="#000000" font-family="sans-serif" font-size="20" lengthAdjust="spacing" textLength="247" x="363" y="262.1523">addFileCopy(fileInformation)</text><line style="stroke:#181818;stroke-width:1.0;" x1="330" x2="377" y1="320.7031" y2="320.7031"/><line style="stroke:#181818;stroke-width:1.0;" x1="377" x2="377" y1="320.7031" y2="333.7031"/><line style="stroke:#181818;stroke-width:1.0;" x1="336" x2="377" y1="333.7031" y2="333.7031"/><polygon fill="#181818" points="346,329.7031,336,333.7031,346,337.7031,342,333.7031" style="stroke:#181818;stroke-width:1.0;"/><text fill="#000000" font-family="sans-serif" font-size="20" font-weight="bold" lengthAdjust="spacing" textLength="22" x="342" y="314.3086">14</text><text fill="#000000" font-family="sans-serif" font-size="20" lengthAdjust="spacing" textLength="281" x="368" y="314.3086">validateFileCopy(fileInformation)</text><polygon fill="#181818" points="308,380.8594,318,384.8594,308,388.8594,312,384.8594" style="stroke:#181818;stroke-width:1.0;"/><line style="stroke:#181818;stroke-width:1.0;stroke-dasharray:2.0,2.0;" x1="0" x2="314" y1="384.8594" y2="384.8594"/><text fill="#000000" font-family="sans-serif" font-size="20" font-weight="bold" lengthAdjust="spacing" textLength="22" x="7" y="378.4648">15</text><text fill="#000000" font-family="sans-serif" font-size="20" lengthAdjust="spacing" textLength="77" x="33" y="378.4648">FileCopy</text><!--SRC=[nL71Ji904BtlLqoug2Gam9635mo9DqFZpSkmEoqRjZlhxXJ5hxV5e0MgrSI4EMtdlJSpxpLjh0yOiNIiDsJ0K8wLamLxoUmRmNIiqe429NlMwyWbWSIAMaX0lS62CjavWaXQq1UkJKXhDFnYVG4vkaHAYPMQ-fYD9rCOGKRF5NbDS6UnQFWF6CMYWtaa58A5hSbp3Zkbi1BsLRcY29E9KbThQmXoPbdngr8gD49j0tg1GQJ0oGf7I-d9pvQjpm5WWdRZMBbVk2GqzPfFrgwUqG0V_Q_sVbONe9g2qnhTTf9X1dhljW4RhzTv_RZtESSInRA_EHzrKgZ5RWzvdH_J9oyYLw4ZyZvTfviZbtE7AGs7lx3u3ykE8aLZBfRd7q_TehFcal-VlEadZRutS3YyTuQXdo-zj5wz0m00]--></g></svg>