<?xml version="1.0" encoding="us-ascii" standalone="no"?><svg xmlns="http://www.w3.org/2000/svg" xmlns:xlink="http://www.w3.org/1999/xlink" contentStyleType="text/css" height="1312.2px" preserveAspectRatio="none" style="width:516px;height:1312px;background:#FFFFFF;" version="1.1" viewBox="0 0 516 1312" width="516.78px" zoomAndPan="magnify"><defs/><g><text fill="#000000" font-family="sans-serif" font-size="11.34" font-weight="bold" lengthAdjust="spacing" textLength="126.36" x="189.7425" y="18.3658">Domain Model - US015</text><!--class Agent--><g id="elem_Agent"><rect codeLine="14" fill="#F1F1F1" height="27.2489" id="Agent" rx="2.025" ry="2.025" style="stroke:#181818;stroke-width:0.405;" width="34.83" x="269.325" y="279.1589"/><text fill="#000000" font-family="sans-serif" font-size="11.34" lengthAdjust="spacing" textLength="29.97" x="271.755" y="293.4747">Agent</text><line style="stroke:#181818;stroke-width:0.405;" x1="270.135" x2="303.345" y1="299.9278" y2="299.9278"/></g><!--class Message--><g id="elem_Message"><rect codeLine="17" fill="#F1F1F1" height="77.9245" id="Message" rx="2.025" ry="2.025" style="stroke:#181818;stroke-width:0.405;" width="67.23" x="253.125" y="430.6289"/><text fill="#000000" font-family="sans-serif" font-size="11.34" lengthAdjust="spacing" textLength="46.17" x="263.655" y="444.9447">Message</text><line style="stroke:#181818;stroke-width:0.405;" x1="253.935" x2="319.545" y1="451.3978" y2="451.3978"/><text fill="#000000" font-family="sans-serif" font-size="11.34" lengthAdjust="spacing" textLength="24.3" x="257.985" y="464.9036">Date</text><text fill="#000000" font-family="sans-serif" font-size="11.34" lengthAdjust="spacing" textLength="50.22" x="257.985" y="477.5725">Initial time</text><text fill="#000000" font-family="sans-serif" font-size="11.34" lengthAdjust="spacing" textLength="44.55" x="257.985" y="490.2414">End time</text><text fill="#000000" font-family="sans-serif" font-size="11.34" lengthAdjust="spacing" textLength="57.51" x="257.985" y="502.9103">Description</text></g><!--class Employee--><g id="elem_Employee"><rect codeLine="24" fill="#F1F1F1" height="27.2489" id="Employee" rx="2.025" ry="2.025" style="stroke:#181818;stroke-width:0.405;" width="55.08" x="259.2" y="175.4789"/><text fill="#000000" font-family="sans-serif" font-size="11.34" lengthAdjust="spacing" textLength="50.22" x="261.63" y="189.7947">Employee</text><line style="stroke:#181818;stroke-width:0.405;" x1="260.01" x2="313.47" y1="196.2478" y2="196.2478"/></g><!--class Person--><g id="elem_Person"><rect codeLine="27" fill="#F1F1F1" height="90.5934" id="Person" rx="2.025" ry="2.025" style="stroke:#181818;stroke-width:0.405;" width="98.01" x="183.465" y="35.3489"/><text fill="#000000" font-family="sans-serif" font-size="11.34" lengthAdjust="spacing" textLength="36.45" x="214.245" y="49.6647">Person</text><line style="stroke:#181818;stroke-width:0.405;" x1="184.275" x2="280.665" y1="56.1178" y2="56.1178"/><text fill="#000000" font-family="sans-serif" font-size="11.34" lengthAdjust="spacing" textLength="29.16" x="188.325" y="69.6236">Name</text><text fill="#000000" font-family="sans-serif" font-size="11.34" lengthAdjust="spacing" textLength="27.54" x="188.325" y="82.2925">Email</text><text fill="#000000" font-family="sans-serif" font-size="11.34" lengthAdjust="spacing" textLength="76.14" x="188.325" y="94.9614">Phone Number</text><text fill="#000000" font-family="sans-serif" font-size="11.34" lengthAdjust="spacing" textLength="61.56" x="188.325" y="107.6303">Tax Number</text><text fill="#000000" font-family="sans-serif" font-size="11.34" lengthAdjust="spacing" textLength="88.29" x="188.325" y="120.2992">Passport Number</text></g><!--class Address--><g id="elem_Address"><rect codeLine="36" fill="#F1F1F1" height="52.5867" id="Address" rx="2.025" ry="2.025" style="stroke:#181818;stroke-width:0.405;" width="55.89" x="61.155" y="931.2089"/><text fill="#000000" font-family="sans-serif" font-size="11.34" lengthAdjust="spacing" textLength="42.12" x="68.04" y="945.5247">Address</text><line style="stroke:#181818;stroke-width:0.405;" x1="61.965" x2="116.235" y1="951.9778" y2="951.9778"/><text fill="#000000" font-family="sans-serif" font-size="11.34" lengthAdjust="spacing" textLength="30.78" x="66.015" y="965.4836">Street</text><text fill="#000000" font-family="sans-serif" font-size="11.34" lengthAdjust="spacing" textLength="46.17" x="66.015" y="978.1525">Zip Code</text></g><!--class City--><g id="elem_City"><rect codeLine="41" fill="#F1F1F1" height="39.9178" id="City" rx="2.025" ry="2.025" style="stroke:#181818;stroke-width:0.405;" width="60.75" x="58.725" y="1267.3589"/><text fill="#000000" font-family="sans-serif" font-size="11.34" lengthAdjust="spacing" textLength="19.44" x="79.38" y="1281.6747">City</text><line style="stroke:#181818;stroke-width:0.405;" x1="59.535" x2="118.665" y1="1288.1278" y2="1288.1278"/><text fill="#000000" font-family="sans-serif" font-size="11.34" lengthAdjust="spacing" textLength="51.03" x="63.585" y="1301.6336">City name</text></g><!--class District--><g id="elem_District"><rect codeLine="45" fill="#F1F1F1" height="39.9178" id="District" rx="2.025" ry="2.025" style="stroke:#181818;stroke-width:0.405;" width="76.14" x="51.03" y="1166.1089"/><text fill="#000000" font-family="sans-serif" font-size="11.34" lengthAdjust="spacing" textLength="34.83" x="71.685" y="1180.4247">District</text><line style="stroke:#181818;stroke-width:0.405;" x1="51.84" x2="126.36" y1="1186.8778" y2="1186.8778"/><text fill="#000000" font-family="sans-serif" font-size="11.34" lengthAdjust="spacing" textLength="66.42" x="55.89" y="1200.3836">District name</text></g><!--class State--><g id="elem_State"><rect codeLine="49" fill="#F1F1F1" height="39.9178" id="State" rx="2.025" ry="2.025" style="stroke:#181818;stroke-width:0.405;" width="68.04" x="55.08" y="1058.3789"/><text fill="#000000" font-family="sans-serif" font-size="11.34" lengthAdjust="spacing" textLength="26.73" x="75.735" y="1072.6947">State</text><line style="stroke:#181818;stroke-width:0.405;" x1="55.89" x2="122.31" y1="1079.1478" y2="1079.1478"/><text fill="#000000" font-family="sans-serif" font-size="11.34" lengthAdjust="spacing" textLength="58.32" x="59.94" y="1092.6536">State name</text></g><!--class Client--><g id="elem_Client"><rect codeLine="56" fill="#F1F1F1" height="27.2489" id="Client" rx="2.025" ry="2.025" style="stroke:#181818;stroke-width:0.405;" width="34.02" x="199.26" y="227.3189"/><text fill="#000000" font-family="sans-serif" font-size="11.34" lengthAdjust="spacing" textLength="29.16" x="201.69" y="241.6347">Client</text><line style="stroke:#181818;stroke-width:0.405;" x1="200.07" x2="232.47" y1="248.0878" y2="248.0878"/></g><!--class Residence--><g id="elem_Residence"><rect codeLine="61" fill="#F1F1F1" height="65.2556" id="Residence" rx="2.025" ry="2.025" style="stroke:#181818;stroke-width:0.405;" width="145.8" x="145.8" y="924.7289"/><text fill="#000000" font-family="sans-serif" font-size="11.34" lengthAdjust="spacing" textLength="54.27" x="191.565" y="939.0447">Residence</text><line style="stroke:#181818;stroke-width:0.405;" x1="146.61" x2="290.79" y1="945.4978" y2="945.4978"/><text fill="#000000" font-family="sans-serif" font-size="11.34" lengthAdjust="spacing" textLength="107.73" x="150.66" y="959.0036">Number of Bedrooms</text><text fill="#000000" font-family="sans-serif" font-size="11.34" lengthAdjust="spacing" textLength="110.97" x="150.66" y="971.6725">Number of Bathrooms</text><text fill="#000000" font-family="sans-serif" font-size="11.34" lengthAdjust="spacing" textLength="136.08" x="150.66" y="984.3414">Number of Parking Spaces</text></g><!--class Property--><g id="elem_Property"><rect codeLine="67" fill="#F1F1F1" height="52.5867" id="Property" rx="2.025" ry="2.025" style="stroke:#181818;stroke-width:0.405;" width="155.52" x="103.68" y="810.5189"/><text fill="#000000" font-family="sans-serif" font-size="11.34" lengthAdjust="spacing" textLength="43.74" x="159.57" y="824.8347">Property</text><line style="stroke:#181818;stroke-width:0.405;" x1="104.49" x2="258.39" y1="831.2878" y2="831.2878"/><text fill="#000000" font-family="sans-serif" font-size="11.34" lengthAdjust="spacing" textLength="24.3" x="108.54" y="844.7936">Area</text><text fill="#000000" font-family="sans-serif" font-size="11.34" lengthAdjust="spacing" textLength="145.8" x="108.54" y="857.4625">Distance from the city center</text></g><!--class TypeOfProperty--><g id="elem_TypeOfProperty"><rect codeLine="72" fill="#F1F1F1" height="39.9178" id="TypeOfProperty" rx="2.025" ry="2.025" style="stroke:#181818;stroke-width:0.405;" width="86.67" x="110.565" y="620.1689"/><text fill="#000000" font-family="sans-serif" font-size="11.34" lengthAdjust="spacing" textLength="81.81" x="112.995" y="634.4847">TypeOfProperty</text><line style="stroke:#181818;stroke-width:0.405;" x1="111.375" x2="196.425" y1="640.9378" y2="640.9378"/><text fill="#000000" font-family="sans-serif" font-size="11.34" lengthAdjust="spacing" textLength="25.92" x="115.425" y="654.4436">Type</text></g><!--class Photos--><g id="elem_Photos"><rect codeLine="76" fill="#F1F1F1" height="39.9178" id="Photos" rx="2.025" ry="2.025" style="stroke:#181818;stroke-width:0.405;" width="40.5" x="5.67" y="816.9989"/><text fill="#000000" font-family="sans-serif" font-size="11.34" lengthAdjust="spacing" textLength="35.64" x="8.1" y="831.3147">Photos</text><line style="stroke:#181818;stroke-width:0.405;" x1="6.48" x2="45.36" y1="837.7678" y2="837.7678"/><text fill="#000000" font-family="sans-serif" font-size="11.34" lengthAdjust="spacing" textLength="17.82" x="10.53" y="851.2736">URI</text></g><!--class House--><g id="elem_House"><rect codeLine="80" fill="#F1F1F1" height="52.5867" id="House" rx="2.025" ry="2.025" style="stroke:#181818;stroke-width:0.405;" width="84.24" x="153.09" y="1051.8989"/><text fill="#000000" font-family="sans-serif" font-size="11.34" lengthAdjust="spacing" textLength="32.4" x="179.01" y="1066.2147">House</text><line style="stroke:#181818;stroke-width:0.405;" x1="153.9" x2="236.52" y1="1072.6678" y2="1072.6678"/><text fill="#000000" font-family="sans-serif" font-size="11.34" lengthAdjust="spacing" textLength="51.03" x="157.95" y="1086.1736">Basement</text><text fill="#000000" font-family="sans-serif" font-size="11.34" lengthAdjust="spacing" textLength="74.52" x="157.95" y="1098.8425">Inhabitable loft</text></g><!--class SunExposure--><g id="elem_SunExposure"><rect codeLine="85" fill="#F1F1F1" height="39.9178" id="SunExposure" rx="2.025" ry="2.025" style="stroke:#181818;stroke-width:0.405;" width="72.9" x="158.76" y="1166.1089"/><text fill="#000000" font-family="sans-serif" font-size="11.34" lengthAdjust="spacing" textLength="68.04" x="161.19" y="1180.4247">SunExposure</text><line style="stroke:#181818;stroke-width:0.405;" x1="159.57" x2="230.85" y1="1186.8778" y2="1186.8778"/><text fill="#000000" font-family="sans-serif" font-size="11.34" lengthAdjust="spacing" textLength="45.36" x="163.62" y="1200.3836">Direction</text></g><!--class AvailableEquipment--><g id="elem_AvailableEquipment"><rect codeLine="89" fill="#F1F1F1" height="39.9178" id="AvailableEquipment" rx="2.025" ry="2.025" style="stroke:#181818;stroke-width:0.405;" width="105.3" x="265.68" y="1058.3789"/><text fill="#000000" font-family="sans-serif" font-size="11.34" lengthAdjust="spacing" textLength="100.44" x="268.11" y="1072.6947">AvailableEquipment</text><line style="stroke:#181818;stroke-width:0.405;" x1="266.49" x2="370.17" y1="1079.1478" y2="1079.1478"/><text fill="#000000" font-family="sans-serif" font-size="11.34" lengthAdjust="spacing" textLength="54.27" x="270.54" y="1092.6536">Equipment</text></g><!--class Rent--><g id="elem_Rent"><rect codeLine="102" fill="#F1F1F1" height="39.9178" id="Rent" rx="2.025" ry="2.025" style="stroke:#181818;stroke-width:0.405;" width="110.97" x="400.545" y="1058.3789"/><text fill="#000000" font-family="sans-serif" font-size="11.34" lengthAdjust="spacing" textLength="24.3" x="443.88" y="1072.6947">Rent</text><line style="stroke:#181818;stroke-width:0.405;" x1="401.355" x2="510.705" y1="1079.1478" y2="1079.1478"/><text fill="#000000" font-family="sans-serif" font-size="11.34" lengthAdjust="spacing" textLength="101.25" x="405.405" y="1092.6536">Duration of contract</text></g><!--class Business--><g id="elem_Business"><rect codeLine="106" fill="#F1F1F1" height="39.9178" id="Business" rx="2.025" ry="2.025" style="stroke:#181818;stroke-width:0.405;" width="93.96" x="409.05" y="816.9989"/><text fill="#000000" font-family="sans-serif" font-size="11.34" lengthAdjust="spacing" textLength="46.17" x="432.945" y="831.3147">Business</text><line style="stroke:#181818;stroke-width:0.405;" x1="409.86" x2="502.2" y1="837.7678" y2="837.7678"/><text fill="#000000" font-family="sans-serif" font-size="11.34" lengthAdjust="spacing" textLength="84.24" x="413.91" y="851.2736">Requested price</text></g><!--class PublishedAnnouncement--><g id="elem_PublishedAnnouncement"><rect codeLine="110" fill="#F1F1F1" height="39.9178" id="PublishedAnnouncement" rx="2.025" ry="2.025" style="stroke:#181818;stroke-width:0.405;" width="132.03" x="309.015" y="620.1689"/><text fill="#000000" font-family="sans-serif" font-size="11.34" lengthAdjust="spacing" textLength="127.17" x="311.445" y="634.4847">PublishedAnnouncement</text><line style="stroke:#181818;stroke-width:0.405;" x1="309.825" x2="440.235" y1="640.9378" y2="640.9378"/><text fill="#000000" font-family="sans-serif" font-size="11.34" lengthAdjust="spacing" textLength="68.85" x="313.875" y="654.4436">Contract type</text></g><!--class Comission--><g id="elem_Comission"><rect codeLine="114" fill="#F1F1F1" height="39.9178" id="Comission" rx="2.025" ry="2.025" style="stroke:#181818;stroke-width:0.405;" width="57.51" x="343.845" y="709.2689"/><text fill="#000000" font-family="sans-serif" font-size="11.34" lengthAdjust="spacing" textLength="52.65" x="346.275" y="723.5847">Comission</text><line style="stroke:#181818;stroke-width:0.405;" x1="344.655" x2="400.545" y1="730.0378" y2="730.0378"/><text fill="#000000" font-family="sans-serif" font-size="11.34" lengthAdjust="spacing" textLength="29.16" x="348.705" y="743.5436">Value</text></g><!--class Role--><g id="elem_Role"><rect codeLine="118" fill="#F1F1F1" height="27.2489" id="Role" rx="2.025" ry="2.025" style="stroke:#181818;stroke-width:0.405;" width="28.35" x="380.295" y="175.4789"/><text fill="#000000" font-family="sans-serif" font-size="11.34" lengthAdjust="spacing" textLength="23.49" x="382.725" y="189.7947">Role</text><line style="stroke:#181818;stroke-width:0.405;" x1="381.105" x2="407.835" y1="196.2478" y2="196.2478"/></g><!--link State to District--><g id="link_State_District"><path codeLine="53" d="M89.1,1098.2471 C89.1,1117.4765 89.1,1146.8876 89.1,1166.0684 " fill="none" id="State-District" style="stroke:#181818;stroke-width:0.81;"/><polygon fill="#000000" points="93.15,1139.5909,95.5305,1132.2644,90.7695,1132.2644,93.15,1139.5909" style="stroke:#000000;stroke-width:0.81;"/><text fill="#000000" font-family="sans-serif" font-size="10.53" lengthAdjust="spacing" textLength="17.01" x="100.44" y="1139.1914">has</text><text fill="#000000" font-family="sans-serif" font-size="10.53" lengthAdjust="spacing" textLength="5.67" x="82.7035" y="1114.3887">1</text><text fill="#000000" font-family="sans-serif" font-size="10.53" lengthAdjust="spacing" textLength="4.05" x="84.5058" y="1157.4193">*</text></g><!--link District to City--><g id="link_District_City"><path codeLine="54" d="M89.1,1205.9771 C89.1,1223.6189 89.1,1249.6199 89.1,1267.2455 " fill="none" id="District-City" style="stroke:#181818;stroke-width:0.81;"/><polygon fill="#000000" points="93.15,1240.8409,95.5305,1233.5144,90.7695,1233.5144,93.15,1240.8409" style="stroke:#000000;stroke-width:0.81;"/><text fill="#000000" font-family="sans-serif" font-size="10.53" lengthAdjust="spacing" textLength="17.01" x="100.44" y="1240.4414">has</text><text fill="#000000" font-family="sans-serif" font-size="10.53" lengthAdjust="spacing" textLength="5.67" x="82.7035" y="1222.1187">1</text><text fill="#000000" font-family="sans-serif" font-size="10.53" lengthAdjust="spacing" textLength="4.05" x="84.5058" y="1258.5768">*</text></g><!--link Address to State--><g id="link_Address_State"><path codeLine="55" d="M89.1,983.8913 C89.1,1006.1663 89.1,1037.9912 89.1,1058.1764 " fill="none" id="Address-State" style="stroke:#181818;stroke-width:0.81;"/><polygon fill="#000000" points="93.15,1017.2809,90.7695,1024.6074,95.5305,1024.6074,93.15,1017.2809" style="stroke:#000000;stroke-width:0.81;"/><text fill="#000000" font-family="sans-serif" font-size="10.53" lengthAdjust="spacing" textLength="17.01" x="100.44" y="1024.9814">has</text><text fill="#000000" font-family="sans-serif" font-size="10.53" lengthAdjust="spacing" textLength="4.05" x="84.6513" y="999.7772">*</text><text fill="#000000" font-family="sans-serif" font-size="10.53" lengthAdjust="spacing" textLength="5.67" x="82.7035" y="1049.804">1</text></g><!--reverse link Residence to House--><g id="link_Residence_House"><path codeLine="93" d="M209.1744,1006.6361 C206.1369,1022.0099 202.905,1038.4286 200.3049,1051.5749 " fill="none" id="Residence-backto-House" style="stroke:#181818;stroke-width:0.81;"/><polygon fill="none" points="203.6421,1005.3644,212.3415,990.5657,214.7715,1007.5595,203.6421,1005.3644" style="stroke:#181818;stroke-width:0.81;"/></g><!--reverse link Property to Residence--><g id="link_Property_Residence"><path codeLine="94" d="M194.3352,878.8667 C199.0251,893.8517 204.2496,910.5539 208.656,924.6317 " fill="none" id="Property-backto-Residence" style="stroke:#181818;stroke-width:0.81;"/><polygon fill="none" points="188.8596,880.349,189.4347,863.2013,199.6812,876.9632,188.8596,880.349" style="stroke:#181818;stroke-width:0.81;"/></g><!--link Photos to Property--><g id="link_Photos_Property"><path codeLine="95" d="M46.251,836.8439 C61.155,836.8439 82.4175,836.8439 103.68,836.8439 " fill="none" id="Photos-Property" style="stroke:#181818;stroke-width:0.81;"/><polygon fill="#000000" points="60.345,828.1459,67.6715,830.5264,67.6715,825.7654,60.345,828.1459" style="stroke:#000000;stroke-width:0.81;"/><text fill="#000000" font-family="sans-serif" font-size="10.53" lengthAdjust="spacing" textLength="17.01" x="71.685" y="831.7964">has</text><text fill="#000000" font-family="sans-serif" font-size="10.53" lengthAdjust="spacing" textLength="23.49" x="52.566" y="847.512">1..30</text><text fill="#000000" font-family="sans-serif" font-size="10.53" lengthAdjust="spacing" textLength="5.67" x="91.5876" y="834.604">1</text></g><!--link House to SunExposure--><g id="link_House_SunExposure"><path codeLine="96" d="M195.21,1104.719 C195.21,1123.6082 195.21,1148.8802 195.21,1166.0117 " fill="none" id="House-SunExposure" style="stroke:#181818;stroke-width:0.81;"/><polygon fill="#000000" points="199.26,1139.5909,201.6405,1132.2644,196.8795,1132.2644,199.26,1139.5909" style="stroke:#000000;stroke-width:0.81;"/><text fill="#000000" font-family="sans-serif" font-size="10.53" lengthAdjust="spacing" textLength="39.69" x="206.55" y="1139.1914">contains</text><text fill="#000000" font-family="sans-serif" font-size="10.53" lengthAdjust="spacing" textLength="4.05" x="190.774" y="1120.4295">*</text><text fill="#000000" font-family="sans-serif" font-size="10.53" lengthAdjust="spacing" textLength="5.67" x="188.7781" y="1157.3473">1</text></g><!--link Property to Address--><g id="link_Property_Address"><path codeLine="97" d="M161.6274,863.2013 C146.0997,883.2164 124.5942,910.9508 109.0341,931.0145 " fill="none" id="Property-Address" style="stroke:#181818;stroke-width:0.81;"/><polygon fill="#000000" points="142.508,897.3612,148.8791,893.0307,145.1169,890.1129,142.508,897.3612" style="stroke:#000000;stroke-width:0.81;"/><text fill="#000000" font-family="sans-serif" font-size="10.53" lengthAdjust="spacing" textLength="17.01" x="152.28" y="897.8114">has</text><text fill="#000000" font-family="sans-serif" font-size="10.53" lengthAdjust="spacing" textLength="5.67" x="151.4987" y="879.0872">1</text><text fill="#000000" font-family="sans-serif" font-size="10.53" lengthAdjust="spacing" textLength="5.67" x="106.8908" y="922.6182">1</text></g><!--link Residence to AvailableEquipment--><g id="link_Residence_AvailableEquipment"><path codeLine="98" d="M245.6649,990.5657 C263.7603,1012.1927 286.9911,1039.9595 302.2515,1058.2007 " fill="none" id="Residence-AvailableEquipment" style="stroke:#181818;stroke-width:0.81;"/><polygon fill="#000000" points="281.2388,1024.4371,278.3633,1017.2904,274.7117,1020.3455,281.2388,1024.4371" style="stroke:#000000;stroke-width:0.81;"/><text fill="#000000" font-family="sans-serif" font-size="10.53" lengthAdjust="spacing" textLength="39.69" x="285.93" y="1024.9814">contains</text><text fill="#000000" font-family="sans-serif" font-size="10.53" lengthAdjust="spacing" textLength="5.67" x="243.6898" y="1006.084">1</text><text fill="#000000" font-family="sans-serif" font-size="10.53" lengthAdjust="spacing" textLength="4.05" x="293.3362" y="1049.5145">*</text></g><!--link TypeOfProperty to Property--><g id="link_TypeOfProperty_Property"><path codeLine="99" d="M156.5892,659.8994 C161.5707,695.1992 172.2303,770.7479 177.8274,810.4541 " fill="none" id="TypeOfProperty-Property" style="stroke:#181818;stroke-width:0.81;"/><polygon fill="#000000" points="173.9057,733.3362,175.2395,725.749,170.5251,726.414,173.9057,733.3362" style="stroke:#000000;stroke-width:0.81;"/><text fill="#000000" font-family="sans-serif" font-size="10.53" lengthAdjust="spacing" textLength="33.21" x="180.63" y="732.9764">defines</text><text fill="#000000" font-family="sans-serif" font-size="10.53" lengthAdjust="spacing" textLength="5.67" x="150.8818" y="676.0057">1</text><text fill="#000000" font-family="sans-serif" font-size="10.53" lengthAdjust="spacing" textLength="5.67" x="170.747" y="801.6868">1</text></g><!--link PublishedAnnouncement to Property--><g id="link_PublishedAnnouncement_Property"><path codeLine="122" d="M338.7339,659.9966 C317.4309,672.3167 290.7981,689.6669 270.54,709.2689 C238.9338,739.8545 211.3533,783.0842 195.5502,810.3245 " fill="none" id="PublishedAnnouncement-Property" style="stroke:#181818;stroke-width:0.81;"/><polygon fill="#000000" points="271.7968,732.2585,278.5735,728.5952,275.126,725.3115,271.7968,732.2585" style="stroke:#000000;stroke-width:0.81;"/><text fill="#000000" font-family="sans-serif" font-size="10.53" lengthAdjust="spacing" textLength="46.98" x="281.88" y="732.9764">advertises</text><text fill="#000000" font-family="sans-serif" font-size="10.53" lengthAdjust="spacing" textLength="4.05" x="324.8641" y="676.1278">*</text><text fill="#000000" font-family="sans-serif" font-size="10.53" lengthAdjust="spacing" textLength="4.05" x="193.9928" y="801.9282">*</text></g><!--link PublishedAnnouncement to Business--><g id="link_PublishedAnnouncement_Business"><path codeLine="123" d="M387.585,660.1262 C396.0576,673.5965 407.1708,692.1455 415.53,709.2689 C428.9355,736.7198 431.406,744.1394 440.64,773.2589 C445.2165,787.7012 449.2503,804.3629 452.0367,816.8936 " fill="none" id="PublishedAnnouncement-Business" style="stroke:#181818;stroke-width:0.81;"/><polygon fill="#000000" points="435.05,725.5801,435.6342,733.2615,440.0376,731.4511,435.05,725.5801" style="stroke:#000000;stroke-width:0.81;"/><text fill="#000000" font-family="sans-serif" font-size="10.53" lengthAdjust="spacing" textLength="25.92" x="443.88" y="732.9764">has a</text><text fill="#000000" font-family="sans-serif" font-size="10.53" lengthAdjust="spacing" textLength="5.67" x="384.2843" y="675.9671">1</text><text fill="#000000" font-family="sans-serif" font-size="10.53" lengthAdjust="spacing" textLength="5.67" x="444.5316" y="808.227">1</text></g><!--reverse link Business to Rent--><g id="link_Business_Rent"><path codeLine="124" d="M456.03,873.1319 C456.03,924.5102 456.03,1017.8708 456.03,1058.1035 " fill="none" id="Business-backto-Rent" style="stroke:#181818;stroke-width:0.81;"/><polygon fill="none" points="450.36,873.0671,456.03,856.8671,461.7,873.0671,450.36,873.0671" style="stroke:#181818;stroke-width:0.81;"/></g><!--link Message to PublishedAnnouncement--><g id="link_Message_PublishedAnnouncement"><path codeLine="125" d="M306.666,508.4294 C324.8181,543.1622 350.892,593.042 365.0184,620.0555 " fill="none" id="Message-PublishedAnnouncement" style="stroke:#181818;stroke-width:0.81;"/><polygon fill="#000000" points="341.5638,560.9017,342.8482,568.4974,347.0676,566.2918,341.5638,560.9017" style="stroke:#000000;stroke-width:0.81;"/><text fill="#000000" font-family="sans-serif" font-size="10.53" lengthAdjust="spacing" textLength="50.22" x="350.73" y="568.1414">can have a</text><text fill="#000000" font-family="sans-serif" font-size="10.53" lengthAdjust="spacing" textLength="4.05" x="305.2452" y="524.5302">*</text><text fill="#000000" font-family="sans-serif" font-size="10.53" lengthAdjust="spacing" textLength="5.67" x="355.8959" y="611.3868">1</text></g><!--link Client to Message--><g id="link_Client_Message"><path codeLine="126" d="M216.8208,255.0371 C217.9062,274.7201 221.0814,312.863 230.04,343.9589 C238.7313,374.1314 253.53,406.3532 265.8339,430.4912 " fill="none" id="Client-Message" style="stroke:#181818;stroke-width:0.81;"/><polygon fill="#000000" points="235.1796,341.5916,235.5012,333.8947,230.9157,335.1757,235.1796,341.5916" style="stroke:#000000;stroke-width:0.81;"/><text fill="#000000" font-family="sans-serif" font-size="10.53" lengthAdjust="spacing" textLength="38.07" x="241.38" y="341.3414">leaves a</text><text fill="#000000" font-family="sans-serif" font-size="10.53" lengthAdjust="spacing" textLength="5.67" x="210.4513" y="270.6872">1</text><text fill="#000000" font-family="sans-serif" font-size="10.53" lengthAdjust="spacing" textLength="16.2" x="245.1923" y="421.8608">1..*</text></g><!--link Agent to PublishedAnnouncement--><g id="link_Agent_PublishedAnnouncement"><path codeLine="127" d="M304.2117,294.881 C344.2095,298.5422 439.02,313.5758 439.02,373.9289 C439.02,373.9289 439.02,373.9289 439.02,565.0889 C439.02,587.696 421.7508,606.8201 405.1539,619.9745 " fill="none" id="Agent-PublishedAnnouncement" style="stroke:#181818;stroke-width:0.81;"/><polygon fill="#000000" points="444.271,473.5887,444.3719,465.8858,439.8249,467.2977,444.271,473.5887" style="stroke:#000000;stroke-width:0.81;"/><text fill="#000000" font-family="sans-serif" font-size="10.53" lengthAdjust="spacing" textLength="59.13" x="450.36" y="473.3714">publishes an</text><text fill="#000000" font-family="sans-serif" font-size="10.53" lengthAdjust="spacing" textLength="5.67" x="310.6845" y="292.0024">1</text><text fill="#000000" font-family="sans-serif" font-size="10.53" lengthAdjust="spacing" textLength="4.05" x="408.3042" y="611.6041">*</text></g><!--link Employee to Role--><g id="link_Employee_Role"><path codeLine="128" d="M314.4825,189.2489 C335.4291,189.2489 363.3336,189.2489 380.0358,189.2489 " fill="none" id="Employee-Role" style="stroke:#181818;stroke-width:0.81;"/><polygon fill="#000000" points="336.3525,180.5509,329.026,178.1704,329.026,182.9314,336.3525,180.5509" style="stroke:#000000;stroke-width:0.81;"/><text fill="#000000" font-family="sans-serif" font-size="10.53" lengthAdjust="spacing" textLength="25.92" x="339.5925" y="184.2014">has a</text><text fill="#000000" font-family="sans-serif" font-size="10.53" lengthAdjust="spacing" textLength="4.05" x="320.622" y="186.3457">*</text><text fill="#000000" font-family="sans-serif" font-size="10.53" lengthAdjust="spacing" textLength="5.67" x="368.2136" y="185.5489">1</text></g><!--link Agent to Message--><g id="link_Agent_Message"><path codeLine="130" d="M286.74,306.8933 C286.74,332.7971 286.74,391.3115 286.74,430.4102 " fill="none" id="Agent-Message" style="stroke:#181818;stroke-width:0.81;"/><polygon fill="#000000" points="290.79,379.0009,293.1705,371.6744,288.4095,371.6744,290.79,379.0009" style="stroke:#000000;stroke-width:0.81;"/><text fill="#000000" font-family="sans-serif" font-size="10.53" lengthAdjust="spacing" textLength="97.2" x="298.08" y="378.6014">wants to see a list of</text><text fill="#000000" font-family="sans-serif" font-size="10.53" lengthAdjust="spacing" textLength="5.67" x="280.2372" y="322.2985">1</text><text fill="#000000" font-family="sans-serif" font-size="10.53" lengthAdjust="spacing" textLength="5.67" x="280.6536" y="422.0464">1</text></g><!--reverse link Person to Employee--><g id="link_Person_Employee"><path codeLine="131" d="M262.521,140.7137 C269.1387,153.7628 275.5296,166.3502 280.0818,175.3169 " fill="none" id="Person-backto-Employee" style="stroke:#181818;stroke-width:0.81;"/><polygon fill="none" points="257.4504,143.2571,255.1743,126.2471,267.5592,138.1217,257.4504,143.2571" style="stroke:#181818;stroke-width:0.81;"/></g><!--link Employee to Agent--><g id="link_Employee_Agent"><path codeLine="132" d="M286.74,203.189 C286.74,222.791 286.74,259.4678 286.74,279.0374 " fill="none" id="Employee-Agent" style="stroke:#181818;stroke-width:0.81;"/></g><!--reverse link Person to Client--><g id="link_Person_Client"><path codeLine="133" d="M226.2573,142.3823 C223.0983,173.3972 219.5262,208.4054 217.6227,227.003 " fill="none" id="Person-backto-Client" style="stroke:#181818;stroke-width:0.81;"/><polygon fill="none" points="220.6278,141.7019,227.9178,126.1661,231.9111,142.8602,220.6278,141.7019" style="stroke:#181818;stroke-width:0.81;"/></g><!--link Comission to Business--><g id="link_Comission_Business"><path codeLine="135" d="M373.5882,749.0156 C374.9733,760.5986 378.189,775.2272 385.56,786.2189 C393.903,798.6605 406.4823,808.988 418.7133,816.9422 " fill="none" id="Comission-Business" style="stroke:#181818;stroke-width:0.81;"/><polygon fill="#000000" points="387.3689,776.5774,389.4402,783.9973,393.4059,781.3628,387.3689,776.5774" style="stroke:#000000;stroke-width:0.81;"/><text fill="#000000" font-family="sans-serif" font-size="10.53" lengthAdjust="spacing" textLength="39.69" x="396.9" y="783.6014">contains</text><text fill="#000000" font-family="sans-serif" font-size="10.53" lengthAdjust="spacing" textLength="5.67" x="367.445" y="765.126">1</text><text fill="#000000" font-family="sans-serif" font-size="10.53" lengthAdjust="spacing" textLength="5.67" x="402.2525" y="808.2887">1</text></g><!--SRC=[TLLDRzim3BthLn2v32YGeS6mIr4KI9i0ww5TqBGxxAROJ2pKbbo9xiS-_lieoPBjhCqbCaNoFP9FadjKkfLMDj0OROhAcWQ1R8V2vPrM5e_oW5jwgn4i5YJreHuxk4gMvaNf0-nbxL28JpNk2SY0LOUAe5G-IXajHa55BPrR4bcrwmYl2wEtwXV2gH2LAX4APGi62Ui6gJAb4u8KCOMLQQJIS6DAh64E3zlJnLSXOa9O7b3JRm5_i-K6dMFwRFE_bIICgskjICaQI3MzPQtBqTSANM5L6tYFqgsRjZPlY1EC3LfdD9jkfGzVCy5QmAOo6k6sQtPe1TpBrxpUS51hB6K3fyeLbALboj0Jtf95fBZ-gLguuhB7q5UAtf9lMEj0ON1OASTDBYWvvUzZnornRmPO_p6unE_POWPpdhMUm-nabbETGIKTN8WXzv6Z9vQTKe5-8_cmUq28JkUYhwrMF4scD6dG7JfMXIuorzX4C7kunD8QqxZ_x9AgTpSsqZvwuMvPvEWc8xMcHJlqTcbH3WsK7dxFfmMeyc9bluAfzgFiKzo_jVXzdnBrURnnWbCPCddQ3tVNuyrlfdEvp4lfi66G9DzAxXJ97P-8sknfCibEhrzRupgBmzJJ6HpvBPzPfpx3-gbJRHDx7Oz2CaJteUNdV_gH1MfYQ5FUoBwZpI07VodC_Qm_V_voEkiBpweOSmxkNHkr4u3EW2y8ucFlnJ4eAFln8e4b2RrNNP1S2iX4fycdKnif-HYcnBtIwCcFf3cqSDLPwHlkPURpMrbCXdJPEH-UHt-7JnqwmX9QFa9JZNIxMhaAowNMfcF6ur5TzRc1ahBwmsCQvPporz8FMVEDFkIxCpNsX-g3tA5HypY0eM9PFlD2kL3qHv6BFfB_Kubn9D9tDrVDUfdFGyD4kg87LD_dzxBpfAJcPCyOiq6w8Y9gU6wYmZXJd_KCQkG0Zt_X8y8BCT0y-H2gxSqSgMDekljxeX4kI8aRcefaEHn1B4PSNgGcvvz6Xxu61Y0la0iHdv3GbemZCY0R8_69NonUY3pg7dFIV9Z8MuX_]--></g></svg>