<?xml version="1.0" encoding="UTF-8" standalone="no"?><svg xmlns="http://www.w3.org/2000/svg" xmlns:xlink="http://www.w3.org/1999/xlink" contentStyleType="text/css" height="2012px" preserveAspectRatio="none" style="width:838px;height:2012px;background:#FFFFFF;" version="1.1" viewBox="0 0 838 2012" width="838px" zoomAndPan="magnify"><defs/><g><text fill="#000000" font-family="sans-serif" font-size="14" font-weight="bold" lengthAdjust="spacing" textLength="156" x="334.25" y="24.5332">Domain Model - US015</text><!--class Agent--><g id="elem_Agent"><rect codeLine="14" fill="#F1F1F1" height="43.1563" id="Agent" rx="2.5" ry="2.5" style="stroke:#181818;stroke-width:0.5;" width="57" x="415" y="421.6094"/><text fill="#000000" font-family="sans-serif" font-size="20" lengthAdjust="spacing" textLength="51" x="418" y="447.3711">Agent</text><line style="stroke:#181818;stroke-width:0.5;" x1="416" x2="471" y1="456.7656" y2="456.7656"/></g><!--class Message--><g id="elem_Message"><rect codeLine="17" fill="#F1F1F1" height="143.7813" id="Message" rx="2.5" ry="2.5" style="stroke:#181818;stroke-width:0.5;" width="110" x="388.5" y="639.6094"/><text fill="#000000" font-family="sans-serif" font-size="20" lengthAdjust="spacing" textLength="81" x="403" y="665.3711">Message</text><line style="stroke:#181818;stroke-width:0.5;" x1="389.5" x2="497.5" y1="674.7656" y2="674.7656"/><text fill="#000000" font-family="sans-serif" font-size="20" lengthAdjust="spacing" textLength="42" x="394.5" y="699.5273">Date</text><text fill="#000000" font-family="sans-serif" font-size="20" lengthAdjust="spacing" textLength="88" x="394.5" y="724.6836">Initial time</text><text fill="#000000" font-family="sans-serif" font-size="20" lengthAdjust="spacing" textLength="77" x="394.5" y="749.8398">End time</text><text fill="#000000" font-family="sans-serif" font-size="20" lengthAdjust="spacing" textLength="98" x="394.5" y="774.9961">Description</text></g><!--class Employee--><g id="elem_Employee"><rect codeLine="24" fill="#F1F1F1" height="43.1563" id="Employee" rx="2.5" ry="2.5" style="stroke:#181818;stroke-width:0.5;" width="93" x="394" y="275.6094"/><text fill="#000000" font-family="sans-serif" font-size="20" lengthAdjust="spacing" textLength="87" x="397" y="301.3711">Employee</text><line style="stroke:#181818;stroke-width:0.5;" x1="395" x2="486" y1="310.7656" y2="310.7656"/></g><!--class Person--><g id="elem_Person"><rect codeLine="27" fill="#F1F1F1" height="168.9375" id="Person" rx="2.5" ry="2.5" style="stroke:#181818;stroke-width:0.5;" width="165" x="274" y="45.6094"/><text fill="#000000" font-family="sans-serif" font-size="20" lengthAdjust="spacing" textLength="62" x="325.5" y="71.3711">Person</text><line style="stroke:#181818;stroke-width:0.5;" x1="275" x2="438" y1="80.7656" y2="80.7656"/><text fill="#000000" font-family="sans-serif" font-size="20" lengthAdjust="spacing" textLength="51" x="280" y="105.5273">Name</text><text fill="#000000" font-family="sans-serif" font-size="20" lengthAdjust="spacing" textLength="48" x="280" y="130.6836">Email</text><text fill="#000000" font-family="sans-serif" font-size="20" lengthAdjust="spacing" textLength="129" x="280" y="155.8398">Phone Number</text><text fill="#000000" font-family="sans-serif" font-size="20" lengthAdjust="spacing" textLength="106" x="280" y="180.9961">Tax Number</text><text fill="#000000" font-family="sans-serif" font-size="20" lengthAdjust="spacing" textLength="153" x="280" y="206.1523">Passport Number</text></g><!--class Address--><g id="elem_Address"><rect codeLine="36" fill="#F1F1F1" height="93.4688" id="Address" rx="2.5" ry="2.5" style="stroke:#181818;stroke-width:0.5;" width="92" x="96.5" y="1409.6094"/><text fill="#000000" font-family="sans-serif" font-size="20" lengthAdjust="spacing" textLength="73" x="106" y="1435.3711">Address</text><line style="stroke:#181818;stroke-width:0.5;" x1="97.5" x2="187.5" y1="1444.7656" y2="1444.7656"/><text fill="#000000" font-family="sans-serif" font-size="20" lengthAdjust="spacing" textLength="54" x="102.5" y="1469.5273">Street</text><text fill="#000000" font-family="sans-serif" font-size="20" lengthAdjust="spacing" textLength="80" x="102.5" y="1494.6836">Zip Code</text></g><!--class City--><g id="elem_City"><rect codeLine="41" fill="#F1F1F1" height="68.3125" id="City" rx="2.5" ry="2.5" style="stroke:#181818;stroke-width:0.5;" width="100" x="92.5" y="1937.6094"/><text fill="#000000" font-family="sans-serif" font-size="20" lengthAdjust="spacing" textLength="34" x="125.5" y="1963.3711">City</text><line style="stroke:#181818;stroke-width:0.5;" x1="93.5" x2="191.5" y1="1972.7656" y2="1972.7656"/><text fill="#000000" font-family="sans-serif" font-size="20" lengthAdjust="spacing" textLength="88" x="98.5" y="1997.5273">City name</text></g><!--class District--><g id="elem_District"><rect codeLine="45" fill="#F1F1F1" height="68.3125" id="District" rx="2.5" ry="2.5" style="stroke:#181818;stroke-width:0.5;" width="127" x="79" y="1782.6094"/><text fill="#000000" font-family="sans-serif" font-size="20" lengthAdjust="spacing" textLength="61" x="112" y="1808.3711">District</text><line style="stroke:#181818;stroke-width:0.5;" x1="80" x2="205" y1="1817.7656" y2="1817.7656"/><text fill="#000000" font-family="sans-serif" font-size="20" lengthAdjust="spacing" textLength="115" x="85" y="1842.5273">District name</text></g><!--class State--><g id="elem_State"><rect codeLine="49" fill="#F1F1F1" height="68.3125" id="State" rx="2.5" ry="2.5" style="stroke:#181818;stroke-width:0.5;" width="113" x="86" y="1615.1094"/><text fill="#000000" font-family="sans-serif" font-size="20" lengthAdjust="spacing" textLength="47" x="119" y="1640.8711">State</text><line style="stroke:#181818;stroke-width:0.5;" x1="87" x2="198" y1="1650.2656" y2="1650.2656"/><text fill="#000000" font-family="sans-serif" font-size="20" lengthAdjust="spacing" textLength="101" x="92" y="1675.0273">State name</text></g><!--class Client--><g id="elem_Client"><rect codeLine="56" fill="#F1F1F1" height="43.1563" id="Client" rx="2.5" ry="2.5" style="stroke:#181818;stroke-width:0.5;" width="55" x="300" y="348.6094"/><text fill="#000000" font-family="sans-serif" font-size="20" lengthAdjust="spacing" textLength="49" x="303" y="374.3711">Client</text><line style="stroke:#181818;stroke-width:0.5;" x1="301" x2="354" y1="383.7656" y2="383.7656"/></g><!--class Residence--><g id="elem_Residence"><rect codeLine="61" fill="#F1F1F1" height="118.625" id="Residence" rx="2.5" ry="2.5" style="stroke:#181818;stroke-width:0.5;" width="247" x="224" y="1396.6094"/><text fill="#000000" font-family="sans-serif" font-size="20" lengthAdjust="spacing" textLength="92" x="301.5" y="1422.3711">Residence</text><line style="stroke:#181818;stroke-width:0.5;" x1="225" x2="470" y1="1431.7656" y2="1431.7656"/><text fill="#000000" font-family="sans-serif" font-size="20" lengthAdjust="spacing" textLength="187" x="230" y="1456.5273">Number of Bedrooms</text><text fill="#000000" font-family="sans-serif" font-size="20" lengthAdjust="spacing" textLength="192" x="230" y="1481.6836">Number of Bathrooms</text><text fill="#000000" font-family="sans-serif" font-size="20" lengthAdjust="spacing" textLength="235" x="230" y="1506.8398">Number of Parking Spaces</text></g><!--class Property--><g id="elem_Property"><rect codeLine="67" fill="#F1F1F1" height="93.4688" id="Property" rx="2.5" ry="2.5" style="stroke:#181818;stroke-width:0.5;" width="264" x="161.5" y="1216.6094"/><text fill="#000000" font-family="sans-serif" font-size="20" lengthAdjust="spacing" textLength="76" x="255.5" y="1242.3711">Property</text><line style="stroke:#181818;stroke-width:0.5;" x1="162.5" x2="424.5" y1="1251.7656" y2="1251.7656"/><text fill="#000000" font-family="sans-serif" font-size="20" lengthAdjust="spacing" textLength="42" x="167.5" y="1276.5273">Area</text><text fill="#000000" font-family="sans-serif" font-size="20" lengthAdjust="spacing" textLength="252" x="167.5" y="1301.6836">Distance from the city center</text></g><!--class TypeOfProperty--><g id="elem_TypeOfProperty"><rect codeLine="72" fill="#F1F1F1" height="68.3125" id="TypeOfProperty" rx="2.5" ry="2.5" style="stroke:#181818;stroke-width:0.5;" width="148" x="177.5" y="932.6094"/><text fill="#000000" font-family="sans-serif" font-size="20" lengthAdjust="spacing" textLength="142" x="180.5" y="958.3711">TypeOfProperty</text><line style="stroke:#181818;stroke-width:0.5;" x1="178.5" x2="324.5" y1="967.7656" y2="967.7656"/><text fill="#000000" font-family="sans-serif" font-size="20" lengthAdjust="spacing" textLength="44" x="183.5" y="992.5273">Type</text></g><!--class Photos--><g id="elem_Photos"><rect codeLine="76" fill="#F1F1F1" height="68.3125" id="Photos" rx="2.5" ry="2.5" style="stroke:#181818;stroke-width:0.5;" width="67" x="7" y="1229.1094"/><text fill="#000000" font-family="sans-serif" font-size="20" lengthAdjust="spacing" textLength="61" x="10" y="1254.8711">Photos</text><line style="stroke:#181818;stroke-width:0.5;" x1="8" x2="73" y1="1264.2656" y2="1264.2656"/><text fill="#000000" font-family="sans-serif" font-size="20" lengthAdjust="spacing" textLength="33" x="13" y="1289.0273">URI</text></g><!--class House--><g id="elem_House"><rect codeLine="80" fill="#F1F1F1" height="93.4688" id="House" rx="2.5" ry="2.5" style="stroke:#181818;stroke-width:0.5;" width="140" x="236.5" y="1602.6094"/><text fill="#000000" font-family="sans-serif" font-size="20" lengthAdjust="spacing" textLength="55" x="279" y="1628.3711">House</text><line style="stroke:#181818;stroke-width:0.5;" x1="237.5" x2="375.5" y1="1637.7656" y2="1637.7656"/><text fill="#000000" font-family="sans-serif" font-size="20" lengthAdjust="spacing" textLength="88" x="242.5" y="1662.5273">Basement</text><text fill="#000000" font-family="sans-serif" font-size="20" lengthAdjust="spacing" textLength="128" x="242.5" y="1687.6836">Inhabitable loft</text></g><!--class SunExposure--><g id="elem_SunExposure"><rect codeLine="85" fill="#F1F1F1" height="68.3125" id="SunExposure" rx="2.5" ry="2.5" style="stroke:#181818;stroke-width:0.5;" width="121" x="246" y="1782.6094"/><text fill="#000000" font-family="sans-serif" font-size="20" lengthAdjust="spacing" textLength="115" x="249" y="1808.3711">SunExposure</text><line style="stroke:#181818;stroke-width:0.5;" x1="247" x2="366" y1="1817.7656" y2="1817.7656"/><text fill="#000000" font-family="sans-serif" font-size="20" lengthAdjust="spacing" textLength="77" x="252" y="1842.5273">Direction</text></g><!--class AvailableEquipment--><g id="elem_AvailableEquipment"><rect codeLine="89" fill="#F1F1F1" height="68.3125" id="AvailableEquipment" rx="2.5" ry="2.5" style="stroke:#181818;stroke-width:0.5;" width="176" x="411.5" y="1615.1094"/><text fill="#000000" font-family="sans-serif" font-size="20" lengthAdjust="spacing" textLength="170" x="414.5" y="1640.8711">AvailableEquipment</text><line style="stroke:#181818;stroke-width:0.5;" x1="412.5" x2="586.5" y1="1650.2656" y2="1650.2656"/><text fill="#000000" font-family="sans-serif" font-size="20" lengthAdjust="spacing" textLength="92" x="417.5" y="1675.0273">Equipment</text></g><!--class Rent--><g id="elem_Rent"><rect codeLine="102" fill="#F1F1F1" height="68.3125" id="Rent" rx="2.5" ry="2.5" style="stroke:#181818;stroke-width:0.5;" width="185" x="624" y="1615.1094"/><text fill="#000000" font-family="sans-serif" font-size="20" lengthAdjust="spacing" textLength="41" x="696" y="1640.8711">Rent</text><line style="stroke:#181818;stroke-width:0.5;" x1="625" x2="808" y1="1650.2656" y2="1650.2656"/><text fill="#000000" font-family="sans-serif" font-size="20" lengthAdjust="spacing" textLength="173" x="630" y="1675.0273">Duration of contract</text></g><!--class Business--><g id="elem_Business"><rect codeLine="106" fill="#F1F1F1" height="68.3125" id="Business" rx="2.5" ry="2.5" style="stroke:#181818;stroke-width:0.5;" width="156" x="638.5" y="1229.1094"/><text fill="#000000" font-family="sans-serif" font-size="20" lengthAdjust="spacing" textLength="78" x="677.5" y="1254.8711">Business</text><line style="stroke:#181818;stroke-width:0.5;" x1="639.5" x2="793.5" y1="1264.2656" y2="1264.2656"/><text fill="#000000" font-family="sans-serif" font-size="20" lengthAdjust="spacing" textLength="144" x="644.5" y="1289.0273">Requested price</text></g><!--class PublishedAnnouncement--><g id="elem_PublishedAnnouncement"><rect codeLine="110" fill="#F1F1F1" height="68.3125" id="PublishedAnnouncement" rx="2.5" ry="2.5" style="stroke:#181818;stroke-width:0.5;" width="218" x="485.5" y="932.6094"/><text fill="#000000" font-family="sans-serif" font-size="20" lengthAdjust="spacing" textLength="212" x="488.5" y="958.3711">PublishedAnnouncement</text><line style="stroke:#181818;stroke-width:0.5;" x1="486.5" x2="702.5" y1="967.7656" y2="967.7656"/><text fill="#000000" font-family="sans-serif" font-size="20" lengthAdjust="spacing" textLength="119" x="491.5" y="992.5273">Contract type</text></g><!--class Comission--><g id="elem_Comission"><rect codeLine="114" fill="#F1F1F1" height="68.3125" id="Comission" rx="2.5" ry="2.5" style="stroke:#181818;stroke-width:0.5;" width="96" x="553.5" y="1061.6094"/><text fill="#000000" font-family="sans-serif" font-size="20" lengthAdjust="spacing" textLength="90" x="556.5" y="1087.3711">Comission</text><line style="stroke:#181818;stroke-width:0.5;" x1="554.5" x2="648.5" y1="1096.7656" y2="1096.7656"/><text fill="#000000" font-family="sans-serif" font-size="20" lengthAdjust="spacing" textLength="49" x="559.5" y="1121.5273">Value</text></g><!--class Role--><g id="elem_Role"><rect codeLine="118" fill="#F1F1F1" height="43.1563" id="Role" rx="2.5" ry="2.5" style="stroke:#181818;stroke-width:0.5;" width="46" x="591.5" y="275.6094"/><text fill="#000000" font-family="sans-serif" font-size="20" lengthAdjust="spacing" textLength="40" x="594.5" y="301.3711">Role</text><line style="stroke:#181818;stroke-width:0.5;" x1="592.5" x2="636.5" y1="310.7656" y2="310.7656"/></g><!--link State to District--><g id="link_State_District"><path codeLine="53" d="M142.5,1683.1994 C142.5,1712.0694 142.5,1753.7294 142.5,1782.5694 " fill="none" id="State-District" style="stroke:#181818;stroke-width:1.0;"/><polygon fill="#000000" points="150.5,1747.1875,155.2023,1732.7154,145.7977,1732.7154,150.5,1747.1875" style="stroke:#000000;stroke-width:1.0;"/><text fill="#000000" font-family="sans-serif" font-size="20" lengthAdjust="spacing" textLength="31" x="163.5" y="1747.3711">has</text><text fill="#000000" font-family="sans-serif" font-size="20" lengthAdjust="spacing" textLength="11" x="130.5203" y="1712.246">1</text><text fill="#000000" font-family="sans-serif" font-size="20" lengthAdjust="spacing" textLength="8" x="133.8125" y="1770.3186">*</text></g><!--link District to City--><g id="link_District_City"><path codeLine="54" d="M142.5,1850.8094 C142.5,1876.4694 142.5,1911.8294 142.5,1937.4794 " fill="none" id="District-City" style="stroke:#181818;stroke-width:1.0;"/><polygon fill="#000000" points="150.5,1902.1875,155.2023,1887.7154,145.7977,1887.7154,150.5,1902.1875" style="stroke:#000000;stroke-width:1.0;"/><text fill="#000000" font-family="sans-serif" font-size="20" lengthAdjust="spacing" textLength="31" x="163.5" y="1902.3711">has</text><text fill="#000000" font-family="sans-serif" font-size="20" lengthAdjust="spacing" textLength="11" x="130.5547" y="1879.5842">1</text><text fill="#000000" font-family="sans-serif" font-size="20" lengthAdjust="spacing" textLength="8" x="133.8125" y="1925.2131">*</text></g><!--link Address to State--><g id="link_Address_State"><path codeLine="55" d="M142.5,1502.8594 C142.5,1537.3994 142.5,1583.9894 142.5,1614.9894 " fill="none" id="Address-State" style="stroke:#181818;stroke-width:1.0;"/><polygon fill="#000000" points="150.5,1551.1875,145.7977,1565.6596,155.2023,1565.6596,150.5,1551.1875" style="stroke:#000000;stroke-width:1.0;"/><text fill="#000000" font-family="sans-serif" font-size="20" lengthAdjust="spacing" textLength="31" x="163.5" y="1567.3711">has</text><text fill="#000000" font-family="sans-serif" font-size="20" lengthAdjust="spacing" textLength="8" x="133.9375" y="1531.9312">*</text><text fill="#000000" font-family="sans-serif" font-size="20" lengthAdjust="spacing" textLength="11" x="130.5547" y="1602.7249">1</text></g><!--reverse link Residence to House--><g id="link_Residence_House"><path codeLine="93" d="M330.72,1535.2694 C325.83,1558.0794 320.64,1582.2594 316.32,1602.3494 " fill="none" id="Residence-backto-House" style="stroke:#181818;stroke-width:1.0;"/><polygon fill="none" points="323.88,1533.7994,334.92,1515.7094,337.57,1536.7394,323.88,1533.7994" style="stroke:#181818;stroke-width:1.0;"/></g><!--reverse link Property to Residence--><g id="link_Property_Residence"><path codeLine="94" d="M311.96,1329.3994 C318.1,1351.1094 324.89,1375.1494 330.88,1396.3394 " fill="none" id="Property-backto-Residence" style="stroke:#181818;stroke-width:1.0;"/><polygon fill="none" points="305.14,1331.0094,306.43,1309.8594,318.61,1327.1994,305.14,1331.0094" style="stroke:#181818;stroke-width:1.0;"/></g><!--link Photos to Property--><g id="link_Photos_Property"><path codeLine="95" d="M74.1,1263.1094 C97.01,1263.1094 129,1263.1094 161.47,1263.1094 " fill="none" id="Photos-Property" style="stroke:#181818;stroke-width:1.0;"/><polygon fill="#000000" points="91.25,1246.6875,105.7221,1251.3898,105.7221,1241.9852,91.25,1246.6875" style="stroke:#000000;stroke-width:1.0;"/><text fill="#000000" font-family="sans-serif" font-size="20" lengthAdjust="spacing" textLength="31" x="112.25" y="1254.8711">has</text><text fill="#000000" font-family="sans-serif" font-size="20" lengthAdjust="spacing" textLength="45" x="81.9891" y="1285.6179">1..30</text><text fill="#000000" font-family="sans-serif" font-size="20" lengthAdjust="spacing" textLength="11" x="142.519" y="1258.1394">1</text></g><!--link House to SunExposure--><g id="link_House_SunExposure"><path codeLine="96" d="M306.5,1695.7694 C306.5,1723.2294 306.5,1757.5594 306.5,1782.4294 " fill="none" id="House-SunExposure" style="stroke:#181818;stroke-width:1.0;"/><polygon fill="#000000" points="314.5,1747.1875,319.2023,1732.7154,309.7977,1732.7154,314.5,1747.1875" style="stroke:#000000;stroke-width:1.0;"/><text fill="#000000" font-family="sans-serif" font-size="20" lengthAdjust="spacing" textLength="72" x="327.5" y="1747.3711">contains</text><text fill="#000000" font-family="sans-serif" font-size="20" lengthAdjust="spacing" textLength="8" x="297.9375" y="1724.8285">*</text><text fill="#000000" font-family="sans-serif" font-size="20" lengthAdjust="spacing" textLength="11" x="294.5547" y="1770.1545">1</text></g><!--link Property to Address--><g id="link_Property_Address"><path codeLine="97" d="M257.33,1309.8594 C233.51,1339.9894 202.45,1379.2794 178.63,1409.3994 " fill="none" id="Property-Address" style="stroke:#181818;stroke-width:1.0;"/><polygon fill="#000000" points="235.5383,1359.463,248.2027,1351.0269,240.8254,1345.1941,235.5383,1359.463" style="stroke:#000000;stroke-width:1.0;"/><text fill="#000000" font-family="sans-serif" font-size="20" lengthAdjust="spacing" textLength="31" x="253.5" y="1361.3711">has</text><text fill="#000000" font-family="sans-serif" font-size="20" lengthAdjust="spacing" textLength="11" x="240.4702" y="1338.9312">1</text><text fill="#000000" font-family="sans-serif" font-size="20" lengthAdjust="spacing" textLength="11" x="171.7459" y="1397.1838">1</text></g><!--link Residence to AvailableEquipment--><g id="link_Residence_AvailableEquipment"><path codeLine="98" d="M394.14,1515.7094 C420.06,1548.2794 451.36,1587.6194 473.08,1614.9094 " fill="none" id="Residence-AvailableEquipment" style="stroke:#181818;stroke-width:1.0;"/><polygon fill="#000000" points="450.4814,1565.4474,445.1494,1551.1952,437.7905,1557.0512,450.4814,1565.4474" style="stroke:#000000;stroke-width:1.0;"/><text fill="#000000" font-family="sans-serif" font-size="20" lengthAdjust="spacing" textLength="72" x="458.5" y="1567.3711">contains</text><text fill="#000000" font-family="sans-serif" font-size="20" lengthAdjust="spacing" textLength="11" x="387.3826" y="1543.9338">1</text><text fill="#000000" font-family="sans-serif" font-size="20" lengthAdjust="spacing" textLength="8" x="459.8516" y="1602.6311">*</text></g><!--link TypeOfProperty to Property--><g id="link_TypeOfProperty_Property"><path codeLine="99" d="M256.24,1000.8194 C263.77,1053.6194 278.49,1156.8294 287,1216.5094 " fill="none" id="TypeOfProperty-Property" style="stroke:#181818;stroke-width:1.0;"/><polygon fill="#000000" points="284.6295,1103.6074,287.2414,1088.6163,277.9311,1089.9441,284.6295,1103.6074" style="stroke:#000000;stroke-width:1.0;"/><text fill="#000000" font-family="sans-serif" font-size="20" lengthAdjust="spacing" textLength="63" x="296.5" y="1103.8711">defines</text><text fill="#000000" font-family="sans-serif" font-size="20" lengthAdjust="spacing" textLength="11" x="245.1094" y="1029.5959">1</text><text fill="#000000" font-family="sans-serif" font-size="20" lengthAdjust="spacing" textLength="11" x="274.3875" y="1204.3085">1</text></g><!--link PublishedAnnouncement to Property--><g id="link_PublishedAnnouncement_Property"><path codeLine="122" d="M515.56,1000.7694 C484.59,1016.2594 450.17,1036.8094 423.5,1061.6094 C397.9,1085.4094 349.68,1164.7394 319.71,1216.1894 " fill="none" id="PublishedAnnouncement-Property" style="stroke:#181818;stroke-width:1.0;"/><polygon fill="#000000" points="426.1184,1101.6068,439.3331,1094.0619,432.3745,1087.7354,426.1184,1101.6068" style="stroke:#000000;stroke-width:1.0;"/><text fill="#000000" font-family="sans-serif" font-size="20" lengthAdjust="spacing" textLength="90" x="444.5" y="1103.8711">advertises</text><text fill="#000000" font-family="sans-serif" font-size="20" lengthAdjust="spacing" textLength="8" x="492.7863" y="1029.8285">*</text><text fill="#000000" font-family="sans-serif" font-size="20" lengthAdjust="spacing" textLength="8" x="314.5557" y="1204.3179">*</text></g><!--link PublishedAnnouncement to Business--><g id="link_PublishedAnnouncement_Business"><path codeLine="123" d="M625.11,1000.8094 C639.6,1017.9394 656.17,1039.7894 667.5,1061.6094 C695.81,1116.1594 708.18,1187.5994 713.26,1228.8294 " fill="none" id="PublishedAnnouncement-Business" style="stroke:#181818;stroke-width:1.0;"/><polygon fill="#000000" points="697.6153,1088.2257,698.4478,1103.4198,707.2197,1100.0287,697.6153,1088.2257" style="stroke:#000000;stroke-width:1.0;"/><text fill="#000000" font-family="sans-serif" font-size="20" lengthAdjust="spacing" textLength="48" x="713.5" y="1103.8711">has a</text><text fill="#000000" font-family="sans-serif" font-size="20" lengthAdjust="spacing" textLength="11" x="618.4258" y="1029.5842">1</text><text fill="#000000" font-family="sans-serif" font-size="20" lengthAdjust="spacing" textLength="11" x="700.8124" y="1216.8302">1</text></g><!--reverse link Business to Rent--><g id="link_Business_Rent"><path codeLine="124" d="M716.5,1317.2094 C716.5,1397.7294 716.5,1548.3694 716.5,1614.9794 " fill="none" id="Business-backto-Rent" style="stroke:#181818;stroke-width:1.0;"/><polygon fill="none" points="709.5,1317.1794,716.5,1297.1794,723.5,1317.1794,709.5,1317.1794" style="stroke:#181818;stroke-width:1.0;"/></g><!--link Message to PublishedAnnouncement--><g id="link_Message_PublishedAnnouncement"><path codeLine="125" d="M485.96,783.7594 C515.01,832.4294 552.19,894.7094 574.63,932.3194 " fill="none" id="Message-PublishedAnnouncement" style="stroke:#181818;stroke-width:1.0;"/><polygon fill="#000000" points="542.3999,851.3181,545.7793,866.155,553.8548,861.335,542.3999,851.3181" style="stroke:#000000;stroke-width:1.0;"/><text fill="#000000" font-family="sans-serif" font-size="20" lengthAdjust="spacing" textLength="95" x="559.5" y="866.3711">can have a</text><text fill="#000000" font-family="sans-serif" font-size="20" lengthAdjust="spacing" textLength="8" x="481.3853" y="812.0769">*</text><text fill="#000000" font-family="sans-serif" font-size="20" lengthAdjust="spacing" textLength="11" x="559.4281" y="920.3186">1</text></g><!--link Client to Message--><g id="link_Client_Message"><path codeLine="126" d="M326.64,392.0594 C326.01,421.6094 327.04,476.9094 340.5,521.6094 C352.89,562.7594 374.94,605.0794 395.46,639.2094 " fill="none" id="Client-Message" style="stroke:#181818;stroke-width:1.0;"/><polygon fill="#000000" points="350.646,515.8943,351.2938,500.6912,342.2339,503.214,350.646,515.8943" style="stroke:#000000;stroke-width:1.0;"/><text fill="#000000" font-family="sans-serif" font-size="20" lengthAdjust="spacing" textLength="73" x="361.5" y="516.3711">leaves a</text><text fill="#000000" font-family="sans-serif" font-size="20" lengthAdjust="spacing" textLength="11" x="314.2488" y="420.357">1</text><text fill="#000000" font-family="sans-serif" font-size="20" lengthAdjust="spacing" textLength="31" x="358.6024" y="627.1617">1..*</text></g><!--link Agent to PublishedAnnouncement--><g id="link_Agent_PublishedAnnouncement"><path codeLine="127" d="M472.1,444.5194 C539.27,447.1294 701.5,463.8294 701.5,564.1094 C701.5,564.1094 701.5,564.1094 701.5,859.1094 C701.5,889.6394 679.34,914.4394 655.19,932.3994 " fill="none" id="Agent-PublishedAnnouncement" style="stroke:#181818;stroke-width:1.0;"/><polygon fill="#000000" points="712.3108,719.1775,711.6285,703.9759,702.8235,707.2802,712.3108,719.1775" style="stroke:#000000;stroke-width:1.0;"/><text fill="#000000" font-family="sans-serif" font-size="20" lengthAdjust="spacing" textLength="108" x="722.5" y="719.8711">publishes an</text><text fill="#000000" font-family="sans-serif" font-size="20" lengthAdjust="spacing" textLength="11" x="479.9856" y="437.7165">1</text><text fill="#000000" font-family="sans-serif" font-size="20" lengthAdjust="spacing" textLength="8" x="656.9336" y="920.1194">*</text></g><!--link Employee to Role--><g id="link_Employee_Role"><path codeLine="128" d="M487.13,297.1094 C520.75,297.1094 564.71,297.1094 591.21,297.1094 " fill="none" id="Employee-Role" style="stroke:#181818;stroke-width:1.0;"/><polygon fill="#000000" points="520.25,280.6875,505.7779,275.9852,505.7779,285.3898,520.25,280.6875" style="stroke:#000000;stroke-width:1.0;"/><text fill="#000000" font-family="sans-serif" font-size="20" lengthAdjust="spacing" textLength="48" x="525.25" y="288.8711">has a</text><text fill="#000000" font-family="sans-serif" font-size="20" lengthAdjust="spacing" textLength="8" x="494.8827" y="290.957">*</text><text fill="#000000" font-family="sans-serif" font-size="20" lengthAdjust="spacing" textLength="11" x="572.4727" y="289.5117">1</text></g><!--link Agent to Message--><g id="link_Agent_Message"><path codeLine="130" d="M443.5,465.0194 C443.5,502.1394 443.5,581.1194 443.5,639.5494 " fill="none" id="Agent-Message" style="stroke:#181818;stroke-width:1.0;"/><polygon fill="#000000" points="451.5,573.1875,456.2023,558.7154,446.7977,558.7154,451.5,573.1875" style="stroke:#000000;stroke-width:1.0;"/><text fill="#000000" font-family="sans-serif" font-size="20" lengthAdjust="spacing" textLength="183" x="464.5" y="573.3711">wants to see a list of</text><text fill="#000000" font-family="sans-serif" font-size="20" lengthAdjust="spacing" textLength="11" x="431.2281" y="493.7384">1</text><text fill="#000000" font-family="sans-serif" font-size="20" lengthAdjust="spacing" textLength="11" x="431.9758" y="627.2693">1</text></g><!--reverse link Person to Employee--><g id="link_Person_Employee"><path codeLine="131" d="M408.4,233.0494 C416.54,249.0394 424.15,263.9994 429.92,275.3294 " fill="none" id="Person-backto-Employee" style="stroke:#181818;stroke-width:1.0;"/><polygon fill="none" points="402.07,236.0594,399.24,215.0594,414.55,229.7094,402.07,236.0594" style="stroke:#181818;stroke-width:1.0;"/></g><!--link Employee to Agent--><g id="link_Employee_Agent"><path codeLine="132" d="M440.93,318.7394 C441.5,346.1194 442.5,394.1594 443.07,421.5194 " fill="none" id="Employee-Agent" style="stroke:#181818;stroke-width:1.0;"/></g><!--reverse link Person to Client--><g id="link_Person_Client"><path codeLine="133" d="M343.89,234.6194 C338.7,277.1994 333.18,322.4594 330.06,348.1194 " fill="none" id="Person-backto-Client" style="stroke:#181818;stroke-width:1.0;"/><polygon fill="none" points="336.95,233.6894,346.32,214.6894,350.85,235.3894,336.95,233.6894" style="stroke:#181818;stroke-width:1.0;"/></g><!--link Comission to Business--><g id="link_Comission_Business"><path codeLine="135" d="M593.12,1129.7194 C590.41,1147.5994 590.15,1169.4494 599.5,1186.6094 C608.98,1204.0194 624.4,1218.0194 640.97,1229.0094 " fill="none" id="Comission-Business" style="stroke:#181818;stroke-width:1.0;"/><polygon fill="#000000" points="604.0269,1165.9807,606.0738,1181.0593,614.5458,1176.9765,604.0269,1165.9807" style="stroke:#000000;stroke-width:1.0;"/><text fill="#000000" font-family="sans-serif" font-size="20" lengthAdjust="spacing" textLength="72" x="620.5" y="1181.3711">contains</text><text fill="#000000" font-family="sans-serif" font-size="20" lengthAdjust="spacing" textLength="11" x="579.6476" y="1158.7696">1</text><text fill="#000000" font-family="sans-serif" font-size="20" lengthAdjust="spacing" textLength="11" x="619.588" y="1218.7905">1</text></g><!--SRC=[TLLDRzim3BthLn2v32YGejsmIp4KI9iCws5TqNGxxAROJ2nKbZo9RjTz_FTHaYNRNPjBP8haUoIV97-lJ2UTRBMjxh666lUor_JH6jggNmXlJuJFBj1QOwl6sHQ1N8-JdKvMz_A0MthI20uhakQWfmw-aRLzLEO0Uwaz2l56uvw0B3XrQ0Xg5QAKDM8IL6df_Oh8gLrFU5LP4pcT2D6e6g5IhcAGk6wH6bjx8KWHKrZRLYe3dssD6fRmTNjo-bw8b11M1pJqMy3VOlcCtZDzjeNVMXAcrPLHfAG6KkrWsPXwyhL6NpdLHTwJT9ksq_O9SOPnWyvRmwPh6S8tJ50Bk6ciGRZksnqw0NVoPrdVS51d7HK3foeLrBLZoZ0Gtf93fBJ-hZguvBAdq9UAdh9lN9j8ONHOAyzDhYWxbU_dZblYteomuMDqIT-BqmKiUTPc2OkZHKbr1etqS2x6tCyS0x7Yb0iC6zc7tID2SleWXjgqucaofLc3Rj6pAanLkAOcWjt31TREsjR_PvVKlBXn8zrz4EwMHOv-Db9dEtHZRrSEvTX06U3tV5g0cY1MzgkOwZ3A8SNTKuTVzZdHa2SOPpYD9Lkc_VNsQhhvoVQ-b7aXFROCakNRo9qYkUCJeUsUPfFipUPdPttlS9nwFeCJlzK3wpHasFpeLTUcNgUZa0t9VMpvXp_3o28rCRQfR1JVoMQKGxWKbc7MnyVlJXP3uKKLKyxHlU-ITYBG6V05GNpiWpX61HK_NcImBA6NgekIom65w3pvV6eJ9J-7uUjK6Gpa9z8SMxZkdGmD3p8B-PsiPaEww7q8BwE_nHyzUk9xkkCZDDT8lzFADrYlZB4zCvwEwdB83PILDHmUsohlLRYMladDD_gOxzPg70xLAxbZevPf06F5idxWXVAnwDSYJuT8_iybff78qDrIDUjbkOmD4_cA7b53dr_ApfEIXfCzOCe6-Of8gF6vIGhZJ4FMCz380G7_F4J45sAaUVGgL3UOETAaq7pt3qGJN9GIDpGNoN9u1d4wuV8e3VdmD7eCDJ001O6SY_I4nBOK7540sPY8p_nIyKAKKG-Oi-R3JDv2_0C0]--></g></svg>