<?xml version="1.0" encoding="UTF-8" standalone="no"?><svg xmlns="http://www.w3.org/2000/svg" xmlns:xlink="http://www.w3.org/1999/xlink" contentStyleType="text/css" height="486px" preserveAspectRatio="none" style="width:783px;height:486px;background:#FFFFFF;" version="1.1" viewBox="0 0 783 486" width="783px" zoomAndPan="magnify"><defs/><g><text fill="#000000" font-family="sans-serif" font-size="14" font-weight="bold" lengthAdjust="spacing" textLength="276" x="252.75" y="29.5332">System Sequence Diagram (SSD) - US09</text><rect fill="#FFFFFF" height="339.4063" style="stroke:#181818;stroke-width:1.0;" width="10" x="31.5" y="93.7656"/><rect fill="#FFFFFF" height="39.1563" style="stroke:#181818;stroke-width:1.0;" width="10" x="732.5" y="124.9219"/><rect fill="#FFFFFF" height="64.3125" style="stroke:#181818;stroke-width:1.0;" width="10" x="732.5" y="203.2344"/><rect fill="#FFFFFF" height="39.1563" style="stroke:#181818;stroke-width:1.0;" width="10" x="732.5" y="306.7031"/><rect fill="#FFFFFF" height="39.1563" style="stroke:#181818;stroke-width:1.0;" width="10" x="732.5" y="385.0156"/><line style="stroke:#181818;stroke-width:0.5;stroke-dasharray:5.0,5.0;" x1="36" x2="36" y1="83.7656" y2="442.1719"/><line style="stroke:#181818;stroke-width:0.5;stroke-dasharray:5.0,5.0;" x1="737.5" x2="737.5" y1="83.7656" y2="442.1719"/><rect fill="#E3E3E3" height="39.1563" rx="2.5" ry="2.5" style="stroke:#181818;stroke-width:0.5;" width="63" x="5" y="43.6094"/><text fill="#000000" font-family="sans-serif" font-size="20" lengthAdjust="spacing" textLength="49" x="12" y="71.3711">Client</text><rect fill="#E3E3E3" height="39.1563" rx="2.5" ry="2.5" style="stroke:#181818;stroke-width:0.5;" width="63" x="5" y="441.1719"/><text fill="#000000" font-family="sans-serif" font-size="20" lengthAdjust="spacing" textLength="49" x="12" y="468.9336">Client</text><rect fill="#E3E3E3" height="39.1563" rx="2.5" ry="2.5" style="stroke:#181818;stroke-width:0.5;" width="80" x="697.5" y="43.6094"/><text fill="#000000" font-family="sans-serif" font-size="20" lengthAdjust="spacing" textLength="66" x="704.5" y="71.3711">System</text><rect fill="#E3E3E3" height="39.1563" rx="2.5" ry="2.5" style="stroke:#181818;stroke-width:0.5;" width="80" x="697.5" y="441.1719"/><text fill="#000000" font-family="sans-serif" font-size="20" lengthAdjust="spacing" textLength="66" x="704.5" y="468.9336">System</text><rect fill="#FFFFFF" height="339.4063" style="stroke:#181818;stroke-width:1.0;" width="10" x="31.5" y="93.7656"/><rect fill="#FFFFFF" height="39.1563" style="stroke:#181818;stroke-width:1.0;" width="10" x="732.5" y="124.9219"/><rect fill="#FFFFFF" height="64.3125" style="stroke:#181818;stroke-width:1.0;" width="10" x="732.5" y="203.2344"/><rect fill="#FFFFFF" height="39.1563" style="stroke:#181818;stroke-width:1.0;" width="10" x="732.5" y="306.7031"/><rect fill="#FFFFFF" height="39.1563" style="stroke:#181818;stroke-width:1.0;" width="10" x="732.5" y="385.0156"/><polygon fill="#181818" points="720.5,120.9219,730.5,124.9219,720.5,128.9219,724.5,124.9219" style="stroke:#181818;stroke-width:1.0;"/><line style="stroke:#181818;stroke-width:1.0;" x1="41.5" x2="726.5" y1="124.9219" y2="124.9219"/><text fill="#000000" font-family="sans-serif" font-size="20" font-weight="bold" lengthAdjust="spacing" textLength="11" x="48.5" y="118.5273">1</text><text fill="#000000" font-family="sans-serif" font-size="20" lengthAdjust="spacing" textLength="203" x="63.5" y="118.5273">asks to schedule a visit</text><polygon fill="#181818" points="52.5,160.0781,42.5,164.0781,52.5,168.0781,48.5,164.0781" style="stroke:#181818;stroke-width:1.0;"/><line style="stroke:#181818;stroke-width:1.0;stroke-dasharray:2.0,2.0;" x1="46.5" x2="736.5" y1="164.0781" y2="164.0781"/><text fill="#000000" font-family="sans-serif" font-size="20" font-weight="bold" lengthAdjust="spacing" textLength="11" x="58.5" y="157.6836">2</text><text fill="#000000" font-family="sans-serif" font-size="20" lengthAdjust="spacing" textLength="652" x="73.5" y="157.6836">shows a list of properties sorted from the most recent entries to the oldest</text><polygon fill="#181818" points="720.5,199.2344,730.5,203.2344,720.5,207.2344,724.5,203.2344" style="stroke:#181818;stroke-width:1.0;"/><line style="stroke:#181818;stroke-width:1.0;" x1="41.5" x2="726.5" y1="203.2344" y2="203.2344"/><text fill="#000000" font-family="sans-serif" font-size="20" font-weight="bold" lengthAdjust="spacing" textLength="11" x="48.5" y="196.8398">3</text><text fill="#000000" font-family="sans-serif" font-size="20" lengthAdjust="spacing" textLength="283" x="63.5" y="196.8398">selects a property of his interest</text><polygon fill="#181818" points="52.5,263.5469,42.5,267.5469,52.5,271.5469,48.5,267.5469" style="stroke:#181818;stroke-width:1.0;"/><line style="stroke:#181818;stroke-width:1.0;stroke-dasharray:2.0,2.0;" x1="46.5" x2="736.5" y1="267.5469" y2="267.5469"/><text fill="#000000" font-family="sans-serif" font-size="20" font-weight="bold" lengthAdjust="spacing" textLength="11" x="58.5" y="248.5742">4</text><text fill="#000000" font-family="sans-serif" font-size="20" lengthAdjust="spacing" textLength="551" x="73.5" y="235.9961">requests the name, phone number and preferred date and time</text><text fill="#000000" font-family="sans-serif" font-size="20" lengthAdjust="spacing" textLength="415" x="73.5" y="261.1523">slot (from x hour to y hour) for the property visit</text><polygon fill="#181818" points="720.5,302.7031,730.5,306.7031,720.5,310.7031,724.5,306.7031" style="stroke:#181818;stroke-width:1.0;"/><line style="stroke:#181818;stroke-width:1.0;" x1="41.5" x2="726.5" y1="306.7031" y2="306.7031"/><text fill="#000000" font-family="sans-serif" font-size="20" font-weight="bold" lengthAdjust="spacing" textLength="11" x="48.5" y="300.3086">5</text><text fill="#000000" font-family="sans-serif" font-size="20" lengthAdjust="spacing" textLength="239" x="63.5" y="300.3086">submits the requested data</text><polygon fill="#181818" points="52.5,341.8594,42.5,345.8594,52.5,349.8594,48.5,345.8594" style="stroke:#181818;stroke-width:1.0;"/><line style="stroke:#181818;stroke-width:1.0;stroke-dasharray:2.0,2.0;" x1="46.5" x2="736.5" y1="345.8594" y2="345.8594"/><text fill="#000000" font-family="sans-serif" font-size="20" font-weight="bold" lengthAdjust="spacing" textLength="11" x="58.5" y="339.4648">6</text><text fill="#000000" font-family="sans-serif" font-size="20" lengthAdjust="spacing" textLength="303" x="73.5" y="339.4648">asks to confirm the submitted data</text><polygon fill="#181818" points="720.5,381.0156,730.5,385.0156,720.5,389.0156,724.5,385.0156" style="stroke:#181818;stroke-width:1.0;"/><line style="stroke:#181818;stroke-width:1.0;" x1="41.5" x2="726.5" y1="385.0156" y2="385.0156"/><text fill="#000000" font-family="sans-serif" font-size="20" font-weight="bold" lengthAdjust="spacing" textLength="11" x="48.5" y="378.6211">7</text><text fill="#000000" font-family="sans-serif" font-size="20" lengthAdjust="spacing" textLength="243" x="63.5" y="378.6211">confirms the submitted data</text><polygon fill="#181818" points="52.5,420.1719,42.5,424.1719,52.5,428.1719,48.5,424.1719" style="stroke:#181818;stroke-width:1.0;"/><line style="stroke:#181818;stroke-width:1.0;stroke-dasharray:2.0,2.0;" x1="46.5" x2="736.5" y1="424.1719" y2="424.1719"/><text fill="#000000" font-family="sans-serif" font-size="20" font-weight="bold" lengthAdjust="spacing" textLength="11" x="58.5" y="417.7773">8</text><text fill="#000000" font-family="sans-serif" font-size="20" lengthAdjust="spacing" textLength="492" x="73.5" y="417.7773">registers the information and shows a success message</text><!--SRC=[ZPEnRjmm38PtFGMt9a2l5tJh3LqQv0MCR5aOcRQ5aqHNf99UdxwKxKi398C7su95_j_FtxASGvwnO8hipzH3JmFMg0-SjGj_2RxVkI-JwYodut6EcBMc-CrpEWhzhfGz7Vg0e_KxkIf1uin-Afm8j5HwjpEZF-D8dLuYGI6lcCVula0cxFarv146Z4BEQL0hxIwYbA3Rc72_Ck6cw-vluG2FtTqFvx0gvvgUgTZQQtX19VWL0sLrRdt2uUScTWAKiu0oY9-ehqP1U0aIz7_lMkdSXZzOyofpCgFyAjOHWoZm07FXcOe64X0kQaaE5W3eH1Q7bTYm3MzNQJM6RLiSUn9rFNr0VhGh52smnjnObyQTWa38IgNfx35UMePYEesVCT5Nc2VEjbwI0yoz0MYWKjfnQ6hjbOP4JraYAzmia_s1YMjfWroMrIqCN1RHDtjhclk6gyyfRAOsXoiTTmrr_PIUyn3A6lig-IQpoyRMBvy9x0jtjFD0PHK8sI99g87pak7rp4ZrdaGWsSt-Xa-i_GC0]--></g></svg>