<?xml version="1.0" encoding="us-ascii" standalone="no"?><svg xmlns="http://www.w3.org/2000/svg" xmlns:xlink="http://www.w3.org/1999/xlink" contentStyleType="text/css" height="976px" preserveAspectRatio="none" style="width:722px;height:976px;background:#FFFFFF;" version="1.1" viewBox="0 0 722 976" width="722px" zoomAndPan="magnify"><defs/><g><text fill="#000000" font-family="sans-serif" font-size="7" font-weight="bold" lengthAdjust="spacing" textLength="73.5" x="320.875" y="11.3369">US09 - Class Diagram</text><!--class SendMessageUI--><g id="elem_SendMessageUI"><rect codeLine="12" fill="#F1F1F1" height="24" id="SendMessageUI" rx="1.25" ry="1.25" style="stroke:#181818;stroke-width:0.25;" width="67" x="4" y="53.0703"/><ellipse cx="11.5" cy="61.0703" fill="#ADD1B2" rx="5.5" ry="5.5" style="stroke:#181818;stroke-width:0.5;"/><path d="M12.8828,59.0078 Q12.9609,58.8984 13.0547,58.8438 Q13.1484,58.7891 13.2578,58.7891 Q13.4453,58.7891 13.5625,58.9219 Q13.6797,59.0469 13.6797,59.3516 L13.6797,60.0781 Q13.6797,60.3828 13.5625,60.5156 Q13.4453,60.6484 13.2578,60.6484 Q13.0859,60.6484 12.9844,60.5469 Q12.8828,60.4531 12.8281,60.1953 Q12.8047,60.0156 12.7109,59.9219 Q12.5469,59.7344 12.2422,59.625 Q11.9375,59.5156 11.625,59.5156 Q11.2422,59.5156 10.9219,59.6797 Q10.6094,59.8438 10.3594,60.2188 Q10.1172,60.5938 10.1172,61.1094 L10.1172,61.6563 Q10.1172,62.2734 10.5625,62.6875 Q11.0078,63.0938 11.8047,63.0938 Q12.2734,63.0938 12.6016,62.9688 Q12.7969,62.8906 13.0078,62.6719 Q13.1406,62.5391 13.2109,62.5 Q13.2891,62.4609 13.3906,62.4609 Q13.5547,62.4609 13.6797,62.5938 Q13.8125,62.7188 13.8125,62.8906 Q13.8125,63.0625 13.6406,63.2656 Q13.3906,63.5547 12.9922,63.7188 Q12.4531,63.9453 11.8047,63.9453 Q11.0469,63.9453 10.4453,63.6328 Q9.9531,63.3828 9.6094,62.8516 Q9.2656,62.3125 9.2656,61.6719 L9.2656,61.0938 Q9.2656,60.4297 9.5703,59.8594 Q9.8828,59.2813 10.4297,58.9766 Q10.9766,58.6641 11.5938,58.6641 Q11.9609,58.6641 12.2813,58.75 Q12.6094,58.8281 12.8828,59.0078 Z " fill="#000000"/><text fill="#000000" font-family="sans-serif" font-size="7" lengthAdjust="spacing" textLength="51" x="18.5" y="63.4971">SendMessageUI</text><line style="stroke:#181818;stroke-width:0.25;" x1="4.5" x2="70.5" y1="69.0703" y2="69.0703"/><line style="stroke:#181818;stroke-width:0.25;" x1="4.5" x2="70.5" y1="73.0703" y2="73.0703"/></g><!--class SendMessageController--><g id="elem_SendMessageController"><rect codeLine="15" fill="#F1F1F1" height="47.4609" id="SendMessageController" rx="1.25" ry="1.25" style="stroke:#181818;stroke-width:0.25;" width="264.5" x="88.75" y="41.3203"/><ellipse cx="180.875" cy="49.3203" fill="#ADD1B2" rx="5.5" ry="5.5" style="stroke:#181818;stroke-width:0.5;"/><path d="M182.2578,47.2578 Q182.3359,47.1484 182.4297,47.0938 Q182.5234,47.0391 182.6328,47.0391 Q182.8203,47.0391 182.9375,47.1719 Q183.0547,47.2969 183.0547,47.6016 L183.0547,48.3281 Q183.0547,48.6328 182.9375,48.7656 Q182.8203,48.8984 182.6328,48.8984 Q182.4609,48.8984 182.3594,48.7969 Q182.2578,48.7031 182.2031,48.4453 Q182.1797,48.2656 182.0859,48.1719 Q181.9219,47.9844 181.6172,47.875 Q181.3125,47.7656 181,47.7656 Q180.6172,47.7656 180.2969,47.9297 Q179.9844,48.0938 179.7344,48.4688 Q179.4922,48.8438 179.4922,49.3594 L179.4922,49.9063 Q179.4922,50.5234 179.9375,50.9375 Q180.3828,51.3438 181.1797,51.3438 Q181.6484,51.3438 181.9766,51.2188 Q182.1719,51.1406 182.3828,50.9219 Q182.5156,50.7891 182.5859,50.75 Q182.6641,50.7109 182.7656,50.7109 Q182.9297,50.7109 183.0547,50.8438 Q183.1875,50.9688 183.1875,51.1406 Q183.1875,51.3125 183.0156,51.5156 Q182.7656,51.8047 182.3672,51.9688 Q181.8281,52.1953 181.1797,52.1953 Q180.4219,52.1953 179.8203,51.8828 Q179.3281,51.6328 178.9844,51.1016 Q178.6406,50.5625 178.6406,49.9219 L178.6406,49.3438 Q178.6406,48.6797 178.9453,48.1094 Q179.2578,47.5313 179.8047,47.2266 Q180.3516,46.9141 180.9688,46.9141 Q181.3359,46.9141 181.6563,47 Q181.9844,47.0781 182.2578,47.2578 Z " fill="#000000"/><text fill="#000000" font-family="sans-serif" font-size="7" lengthAdjust="spacing" textLength="76" x="191.125" y="51.7471">SendMessageController</text><line style="stroke:#181818;stroke-width:0.25;" x1="89.25" x2="352.75" y1="57.3203" y2="57.3203"/><line style="stroke:#181818;stroke-width:0.25;" x1="89.25" x2="352.75" y1="61.3203" y2="61.3203"/><ellipse cx="94.25" cy="67.9805" fill="#84BE84" rx="1.5" ry="1.5" style="stroke:#038048;stroke-width:0.5;"/><text fill="#000000" font-family="sans-serif" font-size="7" lengthAdjust="spacing" textLength="239.5" x="98.75" y="69.6572">sendMessageController(propertyTypeRepository,announcementRepository)</text><ellipse cx="94.25" cy="79.7109" fill="#84BE84" rx="1.5" ry="1.5" style="stroke:#038048;stroke-width:0.5;"/><text fill="#000000" font-family="sans-serif" font-size="7" lengthAdjust="spacing" textLength="251.5" x="98.75" y="77.4775">getPpublishAnnouncement(propertyType, description, cost, informalDescription,</text><text fill="#000000" font-family="sans-serif" font-size="7" lengthAdjust="spacing" textLength="191.5" x="98.75" y="85.2979">technicalDescription, durationOfAnnouncement, designation)</text></g><!--class Repositories--><g id="elem_Repositories"><rect codeLine="185" fill="#F1F1F1" height="86.5625" id="Repositories" rx="1.25" ry="1.25" style="stroke:#181818;stroke-width:0.25;" width="140.5" x="405.25" y="21.8203"/><ellipse cx="453.625" cy="29.8203" fill="#ADD1B2" rx="5.5" ry="5.5" style="stroke:#181818;stroke-width:0.5;"/><path d="M455.0078,27.7578 Q455.0859,27.6484 455.1797,27.5938 Q455.2734,27.5391 455.3828,27.5391 Q455.5703,27.5391 455.6875,27.6719 Q455.8047,27.7969 455.8047,28.1016 L455.8047,28.8281 Q455.8047,29.1328 455.6875,29.2656 Q455.5703,29.3984 455.3828,29.3984 Q455.2109,29.3984 455.1094,29.2969 Q455.0078,29.2031 454.9531,28.9453 Q454.9297,28.7656 454.8359,28.6719 Q454.6719,28.4844 454.3672,28.375 Q454.0625,28.2656 453.75,28.2656 Q453.3672,28.2656 453.0469,28.4297 Q452.7344,28.5938 452.4844,28.9688 Q452.2422,29.3438 452.2422,29.8594 L452.2422,30.4063 Q452.2422,31.0234 452.6875,31.4375 Q453.1328,31.8438 453.9297,31.8438 Q454.3984,31.8438 454.7266,31.7188 Q454.9219,31.6406 455.1328,31.4219 Q455.2656,31.2891 455.3359,31.25 Q455.4141,31.2109 455.5156,31.2109 Q455.6797,31.2109 455.8047,31.3438 Q455.9375,31.4688 455.9375,31.6406 Q455.9375,31.8125 455.7656,32.0156 Q455.5156,32.3047 455.1172,32.4688 Q454.5781,32.6953 453.9297,32.6953 Q453.1719,32.6953 452.5703,32.3828 Q452.0781,32.1328 451.7344,31.6016 Q451.3906,31.0625 451.3906,30.4219 L451.3906,29.8438 Q451.3906,29.1797 451.6953,28.6094 Q452.0078,28.0313 452.5547,27.7266 Q453.1016,27.4141 453.7188,27.4141 Q454.0859,27.4141 454.4063,27.5 Q454.7344,27.5781 455.0078,27.7578 Z " fill="#000000"/><text fill="#000000" font-family="sans-serif" font-size="7" lengthAdjust="spacing" textLength="39.5" x="463.875" y="32.2471">Repositories</text><line style="stroke:#181818;stroke-width:0.25;" x1="405.75" x2="545.25" y1="37.8203" y2="37.8203"/><line style="stroke:#181818;stroke-width:0.25;" x1="405.75" x2="545.25" y1="41.8203" y2="41.8203"/><rect fill="#F24D5C" height="3" style="stroke:#C82930;stroke-width:0.5;" width="3" x="409.25" y="46.9805"/><text fill="#000000" font-family="sans-serif" font-size="7" lengthAdjust="spacing" textLength="44.5" x="415.25" y="50.1572">Repositories()</text><text fill="#000000" font-family="sans-serif" font-size="7" lengthAdjust="spacing" textLength="2" x="415.25" y="57.9775">&#160;</text><ellipse cx="410.75" cy="64.1211" fill="#84BE84" rx="1.5" ry="1.5" style="stroke:#038048;stroke-width:0.5;"/><text fill="#000000" font-family="sans-serif" font-size="7" lengthAdjust="spacing" textLength="83" x="415.25" y="65.7979">getInstance():Repositories</text><ellipse cx="410.75" cy="71.9414" fill="#84BE84" rx="1.5" ry="1.5" style="stroke:#038048;stroke-width:0.5;"/><text fill="#000000" font-family="sans-serif" font-size="7" lengthAdjust="spacing" textLength="77.5" x="415.25" y="73.6182">getMessageRepository()</text><ellipse cx="410.75" cy="79.7617" fill="#84BE84" rx="1.5" ry="1.5" style="stroke:#038048;stroke-width:0.5;"/><text fill="#000000" font-family="sans-serif" font-size="7" lengthAdjust="spacing" textLength="127.5" x="415.25" y="81.4385">getPublishedAnnouncementRepository()</text><ellipse cx="410.75" cy="87.582" fill="#84BE84" rx="1.5" ry="1.5" style="stroke:#038048;stroke-width:0.5;"/><text fill="#000000" font-family="sans-serif" font-size="7" lengthAdjust="spacing" textLength="63.5" x="415.25" y="89.2588">getUserRepository()</text><text fill="#000000" font-family="sans-serif" font-size="7" lengthAdjust="spacing" textLength="2" x="415.25" y="97.0791">&#160;</text><ellipse cx="410.75" cy="103.2227" fill="#84BE84" rx="1.5" ry="1.5" style="stroke:#038048;stroke-width:0.5;"/><text fill="#000000" font-family="sans-serif" font-size="7" lengthAdjust="spacing" textLength="127.5" x="415.25" y="104.8994">getPublishedAnnouncementRepository()</text></g><!--class PublishedAnnouncementRepository--><g id="elem_PublishedAnnouncementRepository"><rect codeLine="33" fill="#F1F1F1" height="39.6406" id="PublishedAnnouncementRepository" rx="1.25" ry="1.25" style="stroke:#181818;stroke-width:0.25;" width="128.5" x="590.25" y="263.8203"/><ellipse cx="597.75" cy="271.8203" fill="#ADD1B2" rx="5.5" ry="5.5" style="stroke:#181818;stroke-width:0.5;"/><path d="M599.1328,269.7578 Q599.2109,269.6484 599.3047,269.5938 Q599.3984,269.5391 599.5078,269.5391 Q599.6953,269.5391 599.8125,269.6719 Q599.9297,269.7969 599.9297,270.1016 L599.9297,270.8281 Q599.9297,271.1328 599.8125,271.2656 Q599.6953,271.3984 599.5078,271.3984 Q599.3359,271.3984 599.2344,271.2969 Q599.1328,271.2031 599.0781,270.9453 Q599.0547,270.7656 598.9609,270.6719 Q598.7969,270.4844 598.4922,270.375 Q598.1875,270.2656 597.875,270.2656 Q597.4922,270.2656 597.1719,270.4297 Q596.8594,270.5938 596.6094,270.9688 Q596.3672,271.3438 596.3672,271.8594 L596.3672,272.4063 Q596.3672,273.0234 596.8125,273.4375 Q597.2578,273.8438 598.0547,273.8438 Q598.5234,273.8438 598.8516,273.7188 Q599.0469,273.6406 599.2578,273.4219 Q599.3906,273.2891 599.4609,273.25 Q599.5391,273.2109 599.6406,273.2109 Q599.8047,273.2109 599.9297,273.3438 Q600.0625,273.4688 600.0625,273.6406 Q600.0625,273.8125 599.8906,274.0156 Q599.6406,274.3047 599.2422,274.4688 Q598.7031,274.6953 598.0547,274.6953 Q597.2969,274.6953 596.6953,274.3828 Q596.2031,274.1328 595.8594,273.6016 Q595.5156,273.0625 595.5156,272.4219 L595.5156,271.8438 Q595.5156,271.1797 595.8203,270.6094 Q596.1328,270.0313 596.6797,269.7266 Q597.2266,269.4141 597.8438,269.4141 Q598.2109,269.4141 598.5313,269.5 Q598.8594,269.5781 599.1328,269.7578 Z " fill="#000000"/><text fill="#000000" font-family="sans-serif" font-size="7" lengthAdjust="spacing" textLength="112.5" x="604.75" y="274.2471">PublishedAnnouncementRepository</text><line style="stroke:#181818;stroke-width:0.25;" x1="590.75" x2="718.25" y1="279.8203" y2="279.8203"/><line style="stroke:#181818;stroke-width:0.25;" x1="590.75" x2="718.25" y1="283.8203" y2="283.8203"/><ellipse cx="595.75" cy="290.4805" fill="#84BE84" rx="1.5" ry="1.5" style="stroke:#038048;stroke-width:0.5;"/><text fill="#000000" font-family="sans-serif" font-size="7" lengthAdjust="spacing" textLength="65.5" x="600.25" y="292.1572">getTypeOfProperty()</text><ellipse cx="595.75" cy="298.3008" fill="#84BE84" rx="1.5" ry="1.5" style="stroke:#038048;stroke-width:0.5;"/><text fill="#000000" font-family="sans-serif" font-size="7" lengthAdjust="spacing" textLength="70.5" x="600.25" y="299.9775">getTypeOfBussiness()</text></g><!--class PropertyTypeRepository--><g id="elem_PropertyTypeRepository"><rect codeLine="39" fill="#F1F1F1" height="31.8203" id="PropertyTypeRepository" rx="1.25" ry="1.25" style="stroke:#181818;stroke-width:0.25;" width="93" x="98.5" y="193.3203"/><ellipse cx="106" cy="201.3203" fill="#ADD1B2" rx="5.5" ry="5.5" style="stroke:#181818;stroke-width:0.5;"/><path d="M107.3828,199.2578 Q107.4609,199.1484 107.5547,199.0938 Q107.6484,199.0391 107.7578,199.0391 Q107.9453,199.0391 108.0625,199.1719 Q108.1797,199.2969 108.1797,199.6016 L108.1797,200.3281 Q108.1797,200.6328 108.0625,200.7656 Q107.9453,200.8984 107.7578,200.8984 Q107.5859,200.8984 107.4844,200.7969 Q107.3828,200.7031 107.3281,200.4453 Q107.3047,200.2656 107.2109,200.1719 Q107.0469,199.9844 106.7422,199.875 Q106.4375,199.7656 106.125,199.7656 Q105.7422,199.7656 105.4219,199.9297 Q105.1094,200.0938 104.8594,200.4688 Q104.6172,200.8438 104.6172,201.3594 L104.6172,201.9063 Q104.6172,202.5234 105.0625,202.9375 Q105.5078,203.3438 106.3047,203.3438 Q106.7734,203.3438 107.1016,203.2188 Q107.2969,203.1406 107.5078,202.9219 Q107.6406,202.7891 107.7109,202.75 Q107.7891,202.7109 107.8906,202.7109 Q108.0547,202.7109 108.1797,202.8438 Q108.3125,202.9688 108.3125,203.1406 Q108.3125,203.3125 108.1406,203.5156 Q107.8906,203.8047 107.4922,203.9688 Q106.9531,204.1953 106.3047,204.1953 Q105.5469,204.1953 104.9453,203.8828 Q104.4531,203.6328 104.1094,203.1016 Q103.7656,202.5625 103.7656,201.9219 L103.7656,201.3438 Q103.7656,200.6797 104.0703,200.1094 Q104.3828,199.5313 104.9297,199.2266 Q105.4766,198.9141 106.0938,198.9141 Q106.4609,198.9141 106.7813,199 Q107.1094,199.0781 107.3828,199.2578 Z " fill="#000000"/><text fill="#000000" font-family="sans-serif" font-size="7" lengthAdjust="spacing" textLength="77" x="113" y="203.7471">PropertyTypeRepository</text><line style="stroke:#181818;stroke-width:0.25;" x1="99" x2="191" y1="209.3203" y2="209.3203"/><line style="stroke:#181818;stroke-width:0.25;" x1="99" x2="191" y1="213.3203" y2="213.3203"/><ellipse cx="104" cy="219.9805" fill="#84BE84" rx="1.5" ry="1.5" style="stroke:#038048;stroke-width:0.5;"/><text fill="#000000" font-family="sans-serif" font-size="7" lengthAdjust="spacing" textLength="58" x="108.5" y="221.6572">getPropertyType()</text></g><!--class UserRepository--><g id="elem_UserRepository"><rect codeLine="43" fill="#F1F1F1" height="31.8203" id="UserRepository" rx="1.25" ry="1.25" style="stroke:#181818;stroke-width:0.25;" width="65" x="333" y="146.3203"/><ellipse cx="340.725" cy="154.3203" fill="#ADD1B2" rx="5.5" ry="5.5" style="stroke:#181818;stroke-width:0.5;"/><path d="M342.1078,152.2578 Q342.1859,152.1484 342.2797,152.0938 Q342.3734,152.0391 342.4828,152.0391 Q342.6703,152.0391 342.7875,152.1719 Q342.9047,152.2969 342.9047,152.6016 L342.9047,153.3281 Q342.9047,153.6328 342.7875,153.7656 Q342.6703,153.8984 342.4828,153.8984 Q342.3109,153.8984 342.2094,153.7969 Q342.1078,153.7031 342.0531,153.4453 Q342.0297,153.2656 341.9359,153.1719 Q341.7719,152.9844 341.4672,152.875 Q341.1625,152.7656 340.85,152.7656 Q340.4672,152.7656 340.1469,152.9297 Q339.8344,153.0938 339.5844,153.4688 Q339.3422,153.8438 339.3422,154.3594 L339.3422,154.9063 Q339.3422,155.5234 339.7875,155.9375 Q340.2328,156.3438 341.0297,156.3438 Q341.4984,156.3438 341.8266,156.2188 Q342.0219,156.1406 342.2328,155.9219 Q342.3656,155.7891 342.4359,155.75 Q342.5141,155.7109 342.6156,155.7109 Q342.7797,155.7109 342.9047,155.8438 Q343.0375,155.9688 343.0375,156.1406 Q343.0375,156.3125 342.8656,156.5156 Q342.6156,156.8047 342.2172,156.9688 Q341.6781,157.1953 341.0297,157.1953 Q340.2719,157.1953 339.6703,156.8828 Q339.1781,156.6328 338.8344,156.1016 Q338.4906,155.5625 338.4906,154.9219 L338.4906,154.3438 Q338.4906,153.6797 338.7953,153.1094 Q339.1078,152.5313 339.6547,152.2266 Q340.2016,151.9141 340.8188,151.9141 Q341.1859,151.9141 341.5063,152 Q341.8344,152.0781 342.1078,152.2578 Z " fill="#000000"/><text fill="#000000" font-family="sans-serif" font-size="7" lengthAdjust="spacing" textLength="48.5" x="347.775" y="156.7471">UserRepository</text><line style="stroke:#181818;stroke-width:0.25;" x1="333.5" x2="397.5" y1="162.3203" y2="162.3203"/><line style="stroke:#181818;stroke-width:0.25;" x1="333.5" x2="397.5" y1="166.3203" y2="166.3203"/><ellipse cx="338.5" cy="172.9805" fill="#84BE84" rx="1.5" ry="1.5" style="stroke:#038048;stroke-width:0.5;"/><text fill="#000000" font-family="sans-serif" font-size="7" lengthAdjust="spacing" textLength="52" x="343" y="174.6572">getUserIdentity()</text></g><!--class TypeComissionRepository--><g id="elem_TypeComissionRepository"><rect codeLine="47" fill="#F1F1F1" height="31.8203" id="TypeComissionRepository" rx="1.25" ry="1.25" style="stroke:#181818;stroke-width:0.25;" width="98.5" x="502.25" y="193.3203"/><ellipse cx="509.75" cy="201.3203" fill="#ADD1B2" rx="5.5" ry="5.5" style="stroke:#181818;stroke-width:0.5;"/><path d="M511.1328,199.2578 Q511.2109,199.1484 511.3047,199.0938 Q511.3984,199.0391 511.5078,199.0391 Q511.6953,199.0391 511.8125,199.1719 Q511.9297,199.2969 511.9297,199.6016 L511.9297,200.3281 Q511.9297,200.6328 511.8125,200.7656 Q511.6953,200.8984 511.5078,200.8984 Q511.3359,200.8984 511.2344,200.7969 Q511.1328,200.7031 511.0781,200.4453 Q511.0547,200.2656 510.9609,200.1719 Q510.7969,199.9844 510.4922,199.875 Q510.1875,199.7656 509.875,199.7656 Q509.4922,199.7656 509.1719,199.9297 Q508.8594,200.0938 508.6094,200.4688 Q508.3672,200.8438 508.3672,201.3594 L508.3672,201.9063 Q508.3672,202.5234 508.8125,202.9375 Q509.2578,203.3438 510.0547,203.3438 Q510.5234,203.3438 510.8516,203.2188 Q511.0469,203.1406 511.2578,202.9219 Q511.3906,202.7891 511.4609,202.75 Q511.5391,202.7109 511.6406,202.7109 Q511.8047,202.7109 511.9297,202.8438 Q512.0625,202.9688 512.0625,203.1406 Q512.0625,203.3125 511.8906,203.5156 Q511.6406,203.8047 511.2422,203.9688 Q510.7031,204.1953 510.0547,204.1953 Q509.2969,204.1953 508.6953,203.8828 Q508.2031,203.6328 507.8594,203.1016 Q507.5156,202.5625 507.5156,201.9219 L507.5156,201.3438 Q507.5156,200.6797 507.8203,200.1094 Q508.1328,199.5313 508.6797,199.2266 Q509.2266,198.9141 509.8438,198.9141 Q510.2109,198.9141 510.5313,199 Q510.8594,199.0781 511.1328,199.2578 Z " fill="#000000"/><text fill="#000000" font-family="sans-serif" font-size="7" lengthAdjust="spacing" textLength="82.5" x="516.75" y="203.7471">TypeComissionRepository</text><line style="stroke:#181818;stroke-width:0.25;" x1="502.75" x2="600.25" y1="209.3203" y2="209.3203"/><line style="stroke:#181818;stroke-width:0.25;" x1="502.75" x2="600.25" y1="213.3203" y2="213.3203"/><ellipse cx="507.75" cy="219.9805" fill="#84BE84" rx="1.5" ry="1.5" style="stroke:#038048;stroke-width:0.5;"/><text fill="#000000" font-family="sans-serif" font-size="7" lengthAdjust="spacing" textLength="69" x="512.25" y="221.6572">getTypeCommission()</text></g><!--class MessageRepository--><g id="elem_MessageRepository"><rect codeLine="51" fill="#F1F1F1" height="31.8203" id="MessageRepository" rx="1.25" ry="1.25" style="stroke:#181818;stroke-width:0.25;" width="78.5" x="436.25" y="146.3203"/><ellipse cx="443.75" cy="154.3203" fill="#ADD1B2" rx="5.5" ry="5.5" style="stroke:#181818;stroke-width:0.5;"/><path d="M445.1328,152.2578 Q445.2109,152.1484 445.3047,152.0938 Q445.3984,152.0391 445.5078,152.0391 Q445.6953,152.0391 445.8125,152.1719 Q445.9297,152.2969 445.9297,152.6016 L445.9297,153.3281 Q445.9297,153.6328 445.8125,153.7656 Q445.6953,153.8984 445.5078,153.8984 Q445.3359,153.8984 445.2344,153.7969 Q445.1328,153.7031 445.0781,153.4453 Q445.0547,153.2656 444.9609,153.1719 Q444.7969,152.9844 444.4922,152.875 Q444.1875,152.7656 443.875,152.7656 Q443.4922,152.7656 443.1719,152.9297 Q442.8594,153.0938 442.6094,153.4688 Q442.3672,153.8438 442.3672,154.3594 L442.3672,154.9063 Q442.3672,155.5234 442.8125,155.9375 Q443.2578,156.3438 444.0547,156.3438 Q444.5234,156.3438 444.8516,156.2188 Q445.0469,156.1406 445.2578,155.9219 Q445.3906,155.7891 445.4609,155.75 Q445.5391,155.7109 445.6406,155.7109 Q445.8047,155.7109 445.9297,155.8438 Q446.0625,155.9688 446.0625,156.1406 Q446.0625,156.3125 445.8906,156.5156 Q445.6406,156.8047 445.2422,156.9688 Q444.7031,157.1953 444.0547,157.1953 Q443.2969,157.1953 442.6953,156.8828 Q442.2031,156.6328 441.8594,156.1016 Q441.5156,155.5625 441.5156,154.9219 L441.5156,154.3438 Q441.5156,153.6797 441.8203,153.1094 Q442.1328,152.5313 442.6797,152.2266 Q443.2266,151.9141 443.8438,151.9141 Q444.2109,151.9141 444.5313,152 Q444.8594,152.0781 445.1328,152.2578 Z " fill="#000000"/><text fill="#000000" font-family="sans-serif" font-size="7" lengthAdjust="spacing" textLength="62.5" x="450.75" y="156.7471">MessageRepository</text><line style="stroke:#181818;stroke-width:0.25;" x1="436.75" x2="514.25" y1="162.3203" y2="162.3203"/><line style="stroke:#181818;stroke-width:0.25;" x1="436.75" x2="514.25" y1="166.3203" y2="166.3203"/><ellipse cx="441.75" cy="172.9805" fill="#84BE84" rx="1.5" ry="1.5" style="stroke:#038048;stroke-width:0.5;"/><text fill="#000000" font-family="sans-serif" font-size="7" lengthAdjust="spacing" textLength="43.5" x="446.25" y="174.6572">getMessage()</text></g><!--class Message--><g id="elem_Message"><rect codeLine="55" fill="#F1F1F1" height="47.4609" id="Message" rx="1.25" ry="1.25" style="stroke:#181818;stroke-width:0.25;" width="92.5" x="429.25" y="259.8203"/><ellipse cx="459.125" cy="267.8203" fill="#ADD1B2" rx="5.5" ry="5.5" style="stroke:#181818;stroke-width:0.5;"/><path d="M460.5078,265.7578 Q460.5859,265.6484 460.6797,265.5938 Q460.7734,265.5391 460.8828,265.5391 Q461.0703,265.5391 461.1875,265.6719 Q461.3047,265.7969 461.3047,266.1016 L461.3047,266.8281 Q461.3047,267.1328 461.1875,267.2656 Q461.0703,267.3984 460.8828,267.3984 Q460.7109,267.3984 460.6094,267.2969 Q460.5078,267.2031 460.4531,266.9453 Q460.4297,266.7656 460.3359,266.6719 Q460.1719,266.4844 459.8672,266.375 Q459.5625,266.2656 459.25,266.2656 Q458.8672,266.2656 458.5469,266.4297 Q458.2344,266.5938 457.9844,266.9688 Q457.7422,267.3438 457.7422,267.8594 L457.7422,268.4063 Q457.7422,269.0234 458.1875,269.4375 Q458.6328,269.8438 459.4297,269.8438 Q459.8984,269.8438 460.2266,269.7188 Q460.4219,269.6406 460.6328,269.4219 Q460.7656,269.2891 460.8359,269.25 Q460.9141,269.2109 461.0156,269.2109 Q461.1797,269.2109 461.3047,269.3438 Q461.4375,269.4688 461.4375,269.6406 Q461.4375,269.8125 461.2656,270.0156 Q461.0156,270.3047 460.6172,270.4688 Q460.0781,270.6953 459.4297,270.6953 Q458.6719,270.6953 458.0703,270.3828 Q457.5781,270.1328 457.2344,269.6016 Q456.8906,269.0625 456.8906,268.4219 L456.8906,267.8438 Q456.8906,267.1797 457.1953,266.6094 Q457.5078,266.0313 458.0547,265.7266 Q458.6016,265.4141 459.2188,265.4141 Q459.5859,265.4141 459.9063,265.5 Q460.2344,265.5781 460.5078,265.7578 Z " fill="#000000"/><text fill="#000000" font-family="sans-serif" font-size="7" lengthAdjust="spacing" textLength="28.5" x="469.375" y="270.2471">Message</text><line style="stroke:#181818;stroke-width:0.25;" x1="429.75" x2="521.25" y1="275.8203" y2="275.8203"/><rect fill="none" height="3" style="stroke:#C82930;stroke-width:0.5;" width="3" x="433.25" y="280.9805"/><text fill="#000000" font-family="sans-serif" font-size="7" lengthAdjust="spacing" textLength="79.5" x="439.25" y="284.1572">String initialDateAndTime</text><rect fill="none" height="3" style="stroke:#C82930;stroke-width:0.5;" width="3" x="433.25" y="288.8008"/><text fill="#000000" font-family="sans-serif" font-size="7" lengthAdjust="spacing" textLength="75.5" x="439.25" y="291.9775">String endDateAndTime</text><rect fill="none" height="3" style="stroke:#C82930;stroke-width:0.5;" width="3" x="433.25" y="296.6211"/><text fill="#000000" font-family="sans-serif" font-size="7" lengthAdjust="spacing" textLength="55" x="439.25" y="299.7979">String description</text><line style="stroke:#181818;stroke-width:0.25;" x1="429.75" x2="521.25" y1="303.2813" y2="303.2813"/></g><!--class Property--><g id="elem_Property"><rect codeLine="64" fill="#F1F1F1" height="47.4609" id="Property" rx="1.25" ry="1.25" style="stroke:#181818;stroke-width:0.25;" width="152.5" x="310.75" y="691.5703"/><ellipse cx="371.375" cy="699.5703" fill="#ADD1B2" rx="5.5" ry="5.5" style="stroke:#181818;stroke-width:0.5;"/><path d="M372.7578,697.5078 Q372.8359,697.3984 372.9297,697.3438 Q373.0234,697.2891 373.1328,697.2891 Q373.3203,697.2891 373.4375,697.4219 Q373.5547,697.5469 373.5547,697.8516 L373.5547,698.5781 Q373.5547,698.8828 373.4375,699.0156 Q373.3203,699.1484 373.1328,699.1484 Q372.9609,699.1484 372.8594,699.0469 Q372.7578,698.9531 372.7031,698.6953 Q372.6797,698.5156 372.5859,698.4219 Q372.4219,698.2344 372.1172,698.125 Q371.8125,698.0156 371.5,698.0156 Q371.1172,698.0156 370.7969,698.1797 Q370.4844,698.3438 370.2344,698.7188 Q369.9922,699.0938 369.9922,699.6094 L369.9922,700.1563 Q369.9922,700.7734 370.4375,701.1875 Q370.8828,701.5938 371.6797,701.5938 Q372.1484,701.5938 372.4766,701.4688 Q372.6719,701.3906 372.8828,701.1719 Q373.0156,701.0391 373.0859,701 Q373.1641,700.9609 373.2656,700.9609 Q373.4297,700.9609 373.5547,701.0938 Q373.6875,701.2188 373.6875,701.3906 Q373.6875,701.5625 373.5156,701.7656 Q373.2656,702.0547 372.8672,702.2188 Q372.3281,702.4453 371.6797,702.4453 Q370.9219,702.4453 370.3203,702.1328 Q369.8281,701.8828 369.4844,701.3516 Q369.1406,700.8125 369.1406,700.1719 L369.1406,699.5938 Q369.1406,698.9297 369.4453,698.3594 Q369.7578,697.7813 370.3047,697.4766 Q370.8516,697.1641 371.4688,697.1641 Q371.8359,697.1641 372.1563,697.25 Q372.4844,697.3281 372.7578,697.5078 Z " fill="#000000"/><text fill="#000000" font-family="sans-serif" font-size="7" lengthAdjust="spacing" textLength="27" x="381.625" y="701.9971">Property</text><line style="stroke:#181818;stroke-width:0.25;" x1="311.25" x2="462.75" y1="707.5703" y2="707.5703"/><rect fill="none" height="3" style="stroke:#C82930;stroke-width:0.5;" width="3" x="314.75" y="712.7305"/><text fill="#000000" font-family="sans-serif" font-size="7" lengthAdjust="spacing" textLength="38" x="320.75" y="715.9072">double area</text><rect fill="none" height="3" style="stroke:#C82930;stroke-width:0.5;" width="3" x="314.75" y="720.5508"/><text fill="#000000" font-family="sans-serif" font-size="7" lengthAdjust="spacing" textLength="98.5" x="320.75" y="723.7275">int distanceFromTheCityCenter</text><line style="stroke:#181818;stroke-width:0.25;" x1="311.25" x2="462.75" y1="727.2109" y2="727.2109"/><ellipse cx="316.25" cy="733.8711" fill="#84BE84" rx="1.5" ry="1.5" style="stroke:#038048;stroke-width:0.5;"/><text fill="#000000" font-family="sans-serif" font-size="7" lengthAdjust="spacing" textLength="139.5" x="320.75" y="735.5479">Property(area, distanceFromTheCityCenter)</text></g><!--class Photos--><g id="elem_Photos"><rect codeLine="71" fill="#F1F1F1" height="31.8203" id="Photos" rx="1.25" ry="1.25" style="stroke:#181818;stroke-width:0.25;" width="44.5" x="230.75" y="699.3203"/><ellipse cx="241.175" cy="707.3203" fill="#ADD1B2" rx="5.5" ry="5.5" style="stroke:#181818;stroke-width:0.5;"/><path d="M242.5578,705.2578 Q242.6359,705.1484 242.7297,705.0938 Q242.8234,705.0391 242.9328,705.0391 Q243.1203,705.0391 243.2375,705.1719 Q243.3547,705.2969 243.3547,705.6016 L243.3547,706.3281 Q243.3547,706.6328 243.2375,706.7656 Q243.1203,706.8984 242.9328,706.8984 Q242.7609,706.8984 242.6594,706.7969 Q242.5578,706.7031 242.5031,706.4453 Q242.4797,706.2656 242.3859,706.1719 Q242.2219,705.9844 241.9172,705.875 Q241.6125,705.7656 241.3,705.7656 Q240.9172,705.7656 240.5969,705.9297 Q240.2844,706.0938 240.0344,706.4688 Q239.7922,706.8438 239.7922,707.3594 L239.7922,707.9063 Q239.7922,708.5234 240.2375,708.9375 Q240.6828,709.3438 241.4797,709.3438 Q241.9484,709.3438 242.2766,709.2188 Q242.4719,709.1406 242.6828,708.9219 Q242.8156,708.7891 242.8859,708.75 Q242.9641,708.7109 243.0656,708.7109 Q243.2297,708.7109 243.3547,708.8438 Q243.4875,708.9688 243.4875,709.1406 Q243.4875,709.3125 243.3156,709.5156 Q243.0656,709.8047 242.6672,709.9688 Q242.1281,710.1953 241.4797,710.1953 Q240.7219,710.1953 240.1203,709.8828 Q239.6281,709.6328 239.2844,709.1016 Q238.9406,708.5625 238.9406,707.9219 L238.9406,707.3438 Q238.9406,706.6797 239.2453,706.1094 Q239.5578,705.5313 240.1047,705.2266 Q240.6516,704.9141 241.2688,704.9141 Q241.6359,704.9141 241.9563,705 Q242.2844,705.0781 242.5578,705.2578 Z " fill="#000000"/><text fill="#000000" font-family="sans-serif" font-size="7" lengthAdjust="spacing" textLength="22" x="248.825" y="709.7471">Photos</text><line style="stroke:#181818;stroke-width:0.25;" x1="231.25" x2="274.75" y1="715.3203" y2="715.3203"/><rect fill="none" height="3" style="stroke:#C82930;stroke-width:0.5;" width="3" x="234.75" y="720.4805"/><text fill="#000000" font-family="sans-serif" font-size="7" lengthAdjust="spacing" textLength="31.5" x="240.75" y="723.6572">String URI</text><line style="stroke:#181818;stroke-width:0.25;" x1="231.25" x2="274.75" y1="727.1406" y2="727.1406"/></g><!--class House--><g id="elem_House"><rect codeLine="75" fill="#F1F1F1" height="47.4609" id="House" rx="1.25" ry="1.25" style="stroke:#181818;stroke-width:0.25;" width="194" x="167" y="925.3203"/><ellipse cx="251.875" cy="933.3203" fill="#ADD1B2" rx="5.5" ry="5.5" style="stroke:#181818;stroke-width:0.5;"/><path d="M253.2578,931.2578 Q253.3359,931.1484 253.4297,931.0938 Q253.5234,931.0391 253.6328,931.0391 Q253.8203,931.0391 253.9375,931.1719 Q254.0547,931.2969 254.0547,931.6016 L254.0547,932.3281 Q254.0547,932.6328 253.9375,932.7656 Q253.8203,932.8984 253.6328,932.8984 Q253.4609,932.8984 253.3594,932.7969 Q253.2578,932.7031 253.2031,932.4453 Q253.1797,932.2656 253.0859,932.1719 Q252.9219,931.9844 252.6172,931.875 Q252.3125,931.7656 252,931.7656 Q251.6172,931.7656 251.2969,931.9297 Q250.9844,932.0938 250.7344,932.4688 Q250.4922,932.8438 250.4922,933.3594 L250.4922,933.9063 Q250.4922,934.5234 250.9375,934.9375 Q251.3828,935.3438 252.1797,935.3438 Q252.6484,935.3438 252.9766,935.2188 Q253.1719,935.1406 253.3828,934.9219 Q253.5156,934.7891 253.5859,934.75 Q253.6641,934.7109 253.7656,934.7109 Q253.9297,934.7109 254.0547,934.8438 Q254.1875,934.9688 254.1875,935.1406 Q254.1875,935.3125 254.0156,935.5156 Q253.7656,935.8047 253.3672,935.9688 Q252.8281,936.1953 252.1797,936.1953 Q251.4219,936.1953 250.8203,935.8828 Q250.3281,935.6328 249.9844,935.1016 Q249.6406,934.5625 249.6406,933.9219 L249.6406,933.3438 Q249.6406,932.6797 249.9453,932.1094 Q250.2578,931.5313 250.8047,931.2266 Q251.3516,930.9141 251.9688,930.9141 Q252.3359,930.9141 252.6563,931 Q252.9844,931.0781 253.2578,931.2578 Z " fill="#000000"/><text fill="#000000" font-family="sans-serif" font-size="7" lengthAdjust="spacing" textLength="20" x="262.125" y="935.7471">House</text><line style="stroke:#181818;stroke-width:0.25;" x1="167.5" x2="360.5" y1="941.3203" y2="941.3203"/><rect fill="none" height="3" style="stroke:#C82930;stroke-width:0.5;" width="3" x="171" y="946.4805"/><text fill="#000000" font-family="sans-serif" font-size="7" lengthAdjust="spacing" textLength="117.5" x="177" y="949.6572">Boolean existenceOfBasement : false</text><rect fill="none" height="3" style="stroke:#C82930;stroke-width:0.5;" width="3" x="171" y="954.3008"/><text fill="#000000" font-family="sans-serif" font-size="7" lengthAdjust="spacing" textLength="132.5" x="177" y="957.4775">Boolean existenceOfInhabitableLoft : false</text><line style="stroke:#181818;stroke-width:0.25;" x1="167.5" x2="360.5" y1="960.9609" y2="960.9609"/><ellipse cx="172.5" cy="967.6211" fill="#84BE84" rx="1.5" ry="1.5" style="stroke:#038048;stroke-width:0.5;"/><text fill="#000000" font-family="sans-serif" font-size="7" lengthAdjust="spacing" textLength="181" x="177" y="969.2979">House(existenceOfBasement, existenceOfInhabitableLoft)</text></g><!--class Residence--><g id="elem_Residence"><rect codeLine="82" fill="#F1F1F1" height="55.2813" id="Residence" rx="1.25" ry="1.25" style="stroke:#181818;stroke-width:0.25;" width="267.5" x="130.25" y="808.3203"/><ellipse cx="245.125" cy="816.3203" fill="#ADD1B2" rx="5.5" ry="5.5" style="stroke:#181818;stroke-width:0.5;"/><path d="M246.5078,814.2578 Q246.5859,814.1484 246.6797,814.0938 Q246.7734,814.0391 246.8828,814.0391 Q247.0703,814.0391 247.1875,814.1719 Q247.3047,814.2969 247.3047,814.6016 L247.3047,815.3281 Q247.3047,815.6328 247.1875,815.7656 Q247.0703,815.8984 246.8828,815.8984 Q246.7109,815.8984 246.6094,815.7969 Q246.5078,815.7031 246.4531,815.4453 Q246.4297,815.2656 246.3359,815.1719 Q246.1719,814.9844 245.8672,814.875 Q245.5625,814.7656 245.25,814.7656 Q244.8672,814.7656 244.5469,814.9297 Q244.2344,815.0938 243.9844,815.4688 Q243.7422,815.8438 243.7422,816.3594 L243.7422,816.9063 Q243.7422,817.5234 244.1875,817.9375 Q244.6328,818.3438 245.4297,818.3438 Q245.8984,818.3438 246.2266,818.2188 Q246.4219,818.1406 246.6328,817.9219 Q246.7656,817.7891 246.8359,817.75 Q246.9141,817.7109 247.0156,817.7109 Q247.1797,817.7109 247.3047,817.8438 Q247.4375,817.9688 247.4375,818.1406 Q247.4375,818.3125 247.2656,818.5156 Q247.0156,818.8047 246.6172,818.9688 Q246.0781,819.1953 245.4297,819.1953 Q244.6719,819.1953 244.0703,818.8828 Q243.5781,818.6328 243.2344,818.1016 Q242.8906,817.5625 242.8906,816.9219 L242.8906,816.3438 Q242.8906,815.6797 243.1953,815.1094 Q243.5078,814.5313 244.0547,814.2266 Q244.6016,813.9141 245.2188,813.9141 Q245.5859,813.9141 245.9063,814 Q246.2344,814.0781 246.5078,814.2578 Z " fill="#000000"/><text fill="#000000" font-family="sans-serif" font-size="7" lengthAdjust="spacing" textLength="33.5" x="255.375" y="818.7471">Residence</text><line style="stroke:#181818;stroke-width:0.25;" x1="130.75" x2="397.25" y1="824.3203" y2="824.3203"/><rect fill="none" height="3" style="stroke:#C82930;stroke-width:0.5;" width="3" x="134.25" y="829.4805"/><text fill="#000000" font-family="sans-serif" font-size="7" lengthAdjust="spacing" textLength="73" x="140.25" y="832.6572">int numberOfBedrooms</text><rect fill="none" height="3" style="stroke:#C82930;stroke-width:0.5;" width="3" x="134.25" y="837.3008"/><text fill="#000000" font-family="sans-serif" font-size="7" lengthAdjust="spacing" textLength="75" x="140.25" y="840.4775">int numberOfBathrooms</text><rect fill="none" height="3" style="stroke:#C82930;stroke-width:0.5;" width="3" x="134.25" y="845.1211"/><text fill="#000000" font-family="sans-serif" font-size="7" lengthAdjust="spacing" textLength="88.5" x="140.25" y="848.2979">int numberOfParkingSpaces</text><line style="stroke:#181818;stroke-width:0.25;" x1="130.75" x2="397.25" y1="851.7813" y2="851.7813"/><ellipse cx="135.75" cy="858.4414" fill="#84BE84" rx="1.5" ry="1.5" style="stroke:#038048;stroke-width:0.5;"/><text fill="#000000" font-family="sans-serif" font-size="7" lengthAdjust="spacing" textLength="254.5" x="140.25" y="860.1182">Residence(numberOfBedrooms, numberOfBathrooms, numberOfParkingSpaces)</text></g><!--class SunExposure--><g id="elem_SunExposure"><rect codeLine="90" fill="#F1F1F1" height="39.6406" id="SunExposure" rx="1.25" ry="1.25" style="stroke:#181818;stroke-width:0.25;" width="87" x="30.5" y="929.3203"/><ellipse cx="51.05" cy="937.3203" fill="#ADD1B2" rx="5.5" ry="5.5" style="stroke:#181818;stroke-width:0.5;"/><path d="M52.4328,935.2578 Q52.5109,935.1484 52.6047,935.0938 Q52.6984,935.0391 52.8078,935.0391 Q52.9953,935.0391 53.1125,935.1719 Q53.2297,935.2969 53.2297,935.6016 L53.2297,936.3281 Q53.2297,936.6328 53.1125,936.7656 Q52.9953,936.8984 52.8078,936.8984 Q52.6359,936.8984 52.5344,936.7969 Q52.4328,936.7031 52.3781,936.4453 Q52.3547,936.2656 52.2609,936.1719 Q52.0969,935.9844 51.7922,935.875 Q51.4875,935.7656 51.175,935.7656 Q50.7922,935.7656 50.4719,935.9297 Q50.1594,936.0938 49.9094,936.4688 Q49.6672,936.8438 49.6672,937.3594 L49.6672,937.9063 Q49.6672,938.5234 50.1125,938.9375 Q50.5578,939.3438 51.3547,939.3438 Q51.8234,939.3438 52.1516,939.2188 Q52.3469,939.1406 52.5578,938.9219 Q52.6906,938.7891 52.7609,938.75 Q52.8391,938.7109 52.9406,938.7109 Q53.1047,938.7109 53.2297,938.8438 Q53.3625,938.9688 53.3625,939.1406 Q53.3625,939.3125 53.1906,939.5156 Q52.9406,939.8047 52.5422,939.9688 Q52.0031,940.1953 51.3547,940.1953 Q50.5969,940.1953 49.9953,939.8828 Q49.5031,939.6328 49.1594,939.1016 Q48.8156,938.5625 48.8156,937.9219 L48.8156,937.3438 Q48.8156,936.6797 49.1203,936.1094 Q49.4328,935.5313 49.9797,935.2266 Q50.5266,934.9141 51.1438,934.9141 Q51.5109,934.9141 51.8313,935 Q52.1594,935.0781 52.4328,935.2578 Z " fill="#000000"/><text fill="#000000" font-family="sans-serif" font-size="7" lengthAdjust="spacing" textLength="42" x="60.95" y="939.7471">SunExposure</text><line style="stroke:#181818;stroke-width:0.25;" x1="31" x2="117" y1="945.3203" y2="945.3203"/><rect fill="none" height="3" style="stroke:#C82930;stroke-width:0.5;" width="3" x="34.5" y="950.4805"/><text fill="#000000" font-family="sans-serif" font-size="7" lengthAdjust="spacing" textLength="47.5" x="40.5" y="953.6572">String direction</text><line style="stroke:#181818;stroke-width:0.25;" x1="31" x2="117" y1="957.1406" y2="957.1406"/><ellipse cx="36" cy="963.8008" fill="#84BE84" rx="1.5" ry="1.5" style="stroke:#038048;stroke-width:0.5;"/><text fill="#000000" font-family="sans-serif" font-size="7" lengthAdjust="spacing" textLength="74" x="40.5" y="965.4775">SunExposure(direction)</text></g><!--class AvailableEquipment--><g id="elem_AvailableEquipment"><rect codeLine="96" fill="#F1F1F1" height="39.6406" id="AvailableEquipment" rx="1.25" ry="1.25" style="stroke:#181818;stroke-width:0.25;" width="134.5" x="447.25" y="816.3203"/><ellipse cx="481.375" cy="824.3203" fill="#ADD1B2" rx="5.5" ry="5.5" style="stroke:#181818;stroke-width:0.5;"/><path d="M482.7578,822.2578 Q482.8359,822.1484 482.9297,822.0938 Q483.0234,822.0391 483.1328,822.0391 Q483.3203,822.0391 483.4375,822.1719 Q483.5547,822.2969 483.5547,822.6016 L483.5547,823.3281 Q483.5547,823.6328 483.4375,823.7656 Q483.3203,823.8984 483.1328,823.8984 Q482.9609,823.8984 482.8594,823.7969 Q482.7578,823.7031 482.7031,823.4453 Q482.6797,823.2656 482.5859,823.1719 Q482.4219,822.9844 482.1172,822.875 Q481.8125,822.7656 481.5,822.7656 Q481.1172,822.7656 480.7969,822.9297 Q480.4844,823.0938 480.2344,823.4688 Q479.9922,823.8438 479.9922,824.3594 L479.9922,824.9063 Q479.9922,825.5234 480.4375,825.9375 Q480.8828,826.3438 481.6797,826.3438 Q482.1484,826.3438 482.4766,826.2188 Q482.6719,826.1406 482.8828,825.9219 Q483.0156,825.7891 483.0859,825.75 Q483.1641,825.7109 483.2656,825.7109 Q483.4297,825.7109 483.5547,825.8438 Q483.6875,825.9688 483.6875,826.1406 Q483.6875,826.3125 483.5156,826.5156 Q483.2656,826.8047 482.8672,826.9688 Q482.3281,827.1953 481.6797,827.1953 Q480.9219,827.1953 480.3203,826.8828 Q479.8281,826.6328 479.4844,826.1016 Q479.1406,825.5625 479.1406,824.9219 L479.1406,824.3438 Q479.1406,823.6797 479.4453,823.1094 Q479.7578,822.5313 480.3047,822.2266 Q480.8516,821.9141 481.4688,821.9141 Q481.8359,821.9141 482.1563,822 Q482.4844,822.0781 482.7578,822.2578 Z " fill="#000000"/><text fill="#000000" font-family="sans-serif" font-size="7" lengthAdjust="spacing" textLength="62" x="491.625" y="826.7471">AvailableEquipment</text><line style="stroke:#181818;stroke-width:0.25;" x1="447.75" x2="581.25" y1="832.3203" y2="832.3203"/><rect fill="none" height="3" style="stroke:#C82930;stroke-width:0.5;" width="3" x="451.25" y="837.4805"/><text fill="#000000" font-family="sans-serif" font-size="7" lengthAdjust="spacing" textLength="75" x="457.25" y="840.6572">String typeOfEquipment</text><line style="stroke:#181818;stroke-width:0.25;" x1="447.75" x2="581.25" y1="844.1406" y2="844.1406"/><ellipse cx="452.75" cy="850.8008" fill="#84BE84" rx="1.5" ry="1.5" style="stroke:#038048;stroke-width:0.5;"/><text fill="#000000" font-family="sans-serif" font-size="7" lengthAdjust="spacing" textLength="121.5" x="457.25" y="852.4775">AvailableEquipment(typeOfEquipment)</text></g><!--class User--><g id="elem_User"><rect codeLine="106" fill="#F1F1F1" height="86.5625" id="User" rx="1.25" ry="1.25" style="stroke:#181818;stroke-width:0.25;" width="73" x="308.5" y="240.3203"/><ellipse cx="335.625" cy="248.3203" fill="#ADD1B2" rx="5.5" ry="5.5" style="stroke:#181818;stroke-width:0.5;"/><path d="M337.0078,246.2578 Q337.0859,246.1484 337.1797,246.0938 Q337.2734,246.0391 337.3828,246.0391 Q337.5703,246.0391 337.6875,246.1719 Q337.8047,246.2969 337.8047,246.6016 L337.8047,247.3281 Q337.8047,247.6328 337.6875,247.7656 Q337.5703,247.8984 337.3828,247.8984 Q337.2109,247.8984 337.1094,247.7969 Q337.0078,247.7031 336.9531,247.4453 Q336.9297,247.2656 336.8359,247.1719 Q336.6719,246.9844 336.3672,246.875 Q336.0625,246.7656 335.75,246.7656 Q335.3672,246.7656 335.0469,246.9297 Q334.7344,247.0938 334.4844,247.4688 Q334.2422,247.8438 334.2422,248.3594 L334.2422,248.9063 Q334.2422,249.5234 334.6875,249.9375 Q335.1328,250.3438 335.9297,250.3438 Q336.3984,250.3438 336.7266,250.2188 Q336.9219,250.1406 337.1328,249.9219 Q337.2656,249.7891 337.3359,249.75 Q337.4141,249.7109 337.5156,249.7109 Q337.6797,249.7109 337.8047,249.8438 Q337.9375,249.9688 337.9375,250.1406 Q337.9375,250.3125 337.7656,250.5156 Q337.5156,250.8047 337.1172,250.9688 Q336.5781,251.1953 335.9297,251.1953 Q335.1719,251.1953 334.5703,250.8828 Q334.0781,250.6328 333.7344,250.1016 Q333.3906,249.5625 333.3906,248.9219 L333.3906,248.3438 Q333.3906,247.6797 333.6953,247.1094 Q334.0078,246.5313 334.5547,246.2266 Q335.1016,245.9141 335.7188,245.9141 Q336.0859,245.9141 336.4063,246 Q336.7344,246.0781 337.0078,246.2578 Z " fill="#000000"/><text fill="#000000" font-family="sans-serif" font-size="7" lengthAdjust="spacing" textLength="14.5" x="345.875" y="250.7471">User</text><line style="stroke:#181818;stroke-width:0.25;" x1="309" x2="381" y1="256.3203" y2="256.3203"/><ellipse cx="314" cy="262.9805" fill="none" rx="1.5" ry="1.5" style="stroke:#038048;stroke-width:0.5;"/><text fill="#000000" font-family="sans-serif" font-size="7" lengthAdjust="spacing" textLength="38" x="318.5" y="264.6572">String name</text><ellipse cx="314" cy="270.8008" fill="none" rx="1.5" ry="1.5" style="stroke:#038048;stroke-width:0.5;"/><text fill="#000000" font-family="sans-serif" font-size="7" lengthAdjust="spacing" textLength="44.5" x="318.5" y="272.4775">int tax number</text><ellipse cx="314" cy="278.6211" fill="none" rx="1.5" ry="1.5" style="stroke:#038048;stroke-width:0.5;"/><text fill="#000000" font-family="sans-serif" font-size="7" lengthAdjust="spacing" textLength="55.5" x="318.5" y="280.2979">int phone number</text><ellipse cx="314" cy="286.4414" fill="none" rx="1.5" ry="1.5" style="stroke:#038048;stroke-width:0.5;"/><text fill="#000000" font-family="sans-serif" font-size="7" lengthAdjust="spacing" textLength="37" x="318.5" y="288.1182">String email</text><line style="stroke:#181818;stroke-width:0.25;" x1="309" x2="381" y1="291.6016" y2="291.6016"/><rect fill="#F24D5C" height="3" style="stroke:#C82930;stroke-width:0.5;" width="3" x="312.5" y="296.7617"/><text fill="#000000" font-family="sans-serif" font-size="7" lengthAdjust="spacing" textLength="33" x="318.5" y="299.9385">getName()</text><rect fill="#F24D5C" height="3" style="stroke:#C82930;stroke-width:0.5;" width="3" x="312.5" y="304.582"/><text fill="#000000" font-family="sans-serif" font-size="7" lengthAdjust="spacing" textLength="32" x="318.5" y="307.7588">getEmail()</text><rect fill="#F24D5C" height="3" style="stroke:#C82930;stroke-width:0.5;" width="3" x="312.5" y="312.4023"/><text fill="#000000" font-family="sans-serif" font-size="7" lengthAdjust="spacing" textLength="60" x="318.5" y="315.5791">getPhoneNumber()</text><rect fill="#F24D5C" height="3" style="stroke:#C82930;stroke-width:0.5;" width="3" x="312.5" y="320.2227"/><text fill="#000000" font-family="sans-serif" font-size="7" lengthAdjust="spacing" textLength="51" x="318.5" y="323.3994">getTaxNumber()</text></g><!--class Address--><g id="elem_Address"><rect codeLine="118" fill="#F1F1F1" height="78.7422" id="Address" rx="1.25" ry="1.25" style="stroke:#181818;stroke-width:0.25;" width="150" x="29.5" y="442.8203"/><ellipse cx="89.375" cy="450.8203" fill="#ADD1B2" rx="5.5" ry="5.5" style="stroke:#181818;stroke-width:0.5;"/><path d="M90.7578,448.7578 Q90.8359,448.6484 90.9297,448.5938 Q91.0234,448.5391 91.1328,448.5391 Q91.3203,448.5391 91.4375,448.6719 Q91.5547,448.7969 91.5547,449.1016 L91.5547,449.8281 Q91.5547,450.1328 91.4375,450.2656 Q91.3203,450.3984 91.1328,450.3984 Q90.9609,450.3984 90.8594,450.2969 Q90.7578,450.2031 90.7031,449.9453 Q90.6797,449.7656 90.5859,449.6719 Q90.4219,449.4844 90.1172,449.375 Q89.8125,449.2656 89.5,449.2656 Q89.1172,449.2656 88.7969,449.4297 Q88.4844,449.5938 88.2344,449.9688 Q87.9922,450.3438 87.9922,450.8594 L87.9922,451.4063 Q87.9922,452.0234 88.4375,452.4375 Q88.8828,452.8438 89.6797,452.8438 Q90.1484,452.8438 90.4766,452.7188 Q90.6719,452.6406 90.8828,452.4219 Q91.0156,452.2891 91.0859,452.25 Q91.1641,452.2109 91.2656,452.2109 Q91.4297,452.2109 91.5547,452.3438 Q91.6875,452.4688 91.6875,452.6406 Q91.6875,452.8125 91.5156,453.0156 Q91.2656,453.3047 90.8672,453.4688 Q90.3281,453.6953 89.6797,453.6953 Q88.9219,453.6953 88.3203,453.3828 Q87.8281,453.1328 87.4844,452.6016 Q87.1406,452.0625 87.1406,451.4219 L87.1406,450.8438 Q87.1406,450.1797 87.4453,449.6094 Q87.7578,449.0313 88.3047,448.7266 Q88.8516,448.4141 89.4688,448.4141 Q89.8359,448.4141 90.1563,448.5 Q90.4844,448.5781 90.7578,448.7578 Z " fill="#000000"/><text fill="#000000" font-family="sans-serif" font-size="7" lengthAdjust="spacing" textLength="26" x="99.625" y="453.2471">Address</text><line style="stroke:#181818;stroke-width:0.25;" x1="30" x2="179" y1="458.8203" y2="458.8203"/><rect fill="none" height="3" style="stroke:#C82930;stroke-width:0.5;" width="3" x="33.5" y="463.9805"/><text fill="#000000" font-family="sans-serif" font-size="7" lengthAdjust="spacing" textLength="56.5" x="39.5" y="467.1572">String streetName</text><rect fill="none" height="3" style="stroke:#C82930;stroke-width:0.5;" width="3" x="33.5" y="471.8008"/><text fill="#000000" font-family="sans-serif" font-size="7" lengthAdjust="spacing" textLength="35" x="39.5" y="474.9775">int zipCode</text><line style="stroke:#181818;stroke-width:0.25;" x1="30" x2="179" y1="478.4609" y2="478.4609"/><ellipse cx="35" cy="485.1211" fill="#84BE84" rx="1.5" ry="1.5" style="stroke:#038048;stroke-width:0.5;"/><text fill="#000000" font-family="sans-serif" font-size="7" lengthAdjust="spacing" textLength="48.5" x="39.5" y="486.7979">verifyZipCode()</text><ellipse cx="35" cy="492.9414" fill="#84BE84" rx="1.5" ry="1.5" style="stroke:#038048;stroke-width:0.5;"/><text fill="#000000" font-family="sans-serif" font-size="7" lengthAdjust="spacing" textLength="27" x="39.5" y="494.6182">getCity()</text><ellipse cx="35" cy="500.7617" fill="#84BE84" rx="1.5" ry="1.5" style="stroke:#038048;stroke-width:0.5;"/><text fill="#000000" font-family="sans-serif" font-size="7" lengthAdjust="spacing" textLength="36.5" x="39.5" y="502.4385">getDistrict()</text><ellipse cx="35" cy="508.582" fill="#84BE84" rx="1.5" ry="1.5" style="stroke:#038048;stroke-width:0.5;"/><text fill="#000000" font-family="sans-serif" font-size="7" lengthAdjust="spacing" textLength="31.5" x="39.5" y="510.2588">getState()</text><ellipse cx="35" cy="516.4023" fill="#84BE84" rx="1.5" ry="1.5" style="stroke:#038048;stroke-width:0.5;"/><text fill="#000000" font-family="sans-serif" font-size="7" lengthAdjust="spacing" textLength="137" x="39.5" y="518.0791">Address(state, district, city, street, zipCode)</text></g><!--class City--><g id="elem_City"><rect codeLine="131" fill="#F1F1F1" height="39.6406" id="City" rx="1.25" ry="1.25" style="stroke:#181818;stroke-width:0.25;" width="62" x="441.5" y="462.3203"/><ellipse cx="464.375" cy="470.3203" fill="#ADD1B2" rx="5.5" ry="5.5" style="stroke:#181818;stroke-width:0.5;"/><path d="M465.7578,468.2578 Q465.8359,468.1484 465.9297,468.0938 Q466.0234,468.0391 466.1328,468.0391 Q466.3203,468.0391 466.4375,468.1719 Q466.5547,468.2969 466.5547,468.6016 L466.5547,469.3281 Q466.5547,469.6328 466.4375,469.7656 Q466.3203,469.8984 466.1328,469.8984 Q465.9609,469.8984 465.8594,469.7969 Q465.7578,469.7031 465.7031,469.4453 Q465.6797,469.2656 465.5859,469.1719 Q465.4219,468.9844 465.1172,468.875 Q464.8125,468.7656 464.5,468.7656 Q464.1172,468.7656 463.7969,468.9297 Q463.4844,469.0938 463.2344,469.4688 Q462.9922,469.8438 462.9922,470.3594 L462.9922,470.9063 Q462.9922,471.5234 463.4375,471.9375 Q463.8828,472.3438 464.6797,472.3438 Q465.1484,472.3438 465.4766,472.2188 Q465.6719,472.1406 465.8828,471.9219 Q466.0156,471.7891 466.0859,471.75 Q466.1641,471.7109 466.2656,471.7109 Q466.4297,471.7109 466.5547,471.8438 Q466.6875,471.9688 466.6875,472.1406 Q466.6875,472.3125 466.5156,472.5156 Q466.2656,472.8047 465.8672,472.9688 Q465.3281,473.1953 464.6797,473.1953 Q463.9219,473.1953 463.3203,472.8828 Q462.8281,472.6328 462.4844,472.1016 Q462.1406,471.5625 462.1406,470.9219 L462.1406,470.3438 Q462.1406,469.6797 462.4453,469.1094 Q462.7578,468.5313 463.3047,468.2266 Q463.8516,467.9141 464.4688,467.9141 Q464.8359,467.9141 465.1563,468 Q465.4844,468.0781 465.7578,468.2578 Z " fill="#000000"/><text fill="#000000" font-family="sans-serif" font-size="7" lengthAdjust="spacing" textLength="12" x="474.625" y="472.7471">City</text><line style="stroke:#181818;stroke-width:0.25;" x1="442" x2="503" y1="478.3203" y2="478.3203"/><rect fill="none" height="3" style="stroke:#C82930;stroke-width:0.5;" width="3" x="445.5" y="483.4805"/><text fill="#000000" font-family="sans-serif" font-size="7" lengthAdjust="spacing" textLength="49" x="451.5" y="486.6572">String cityName</text><line style="stroke:#181818;stroke-width:0.25;" x1="442" x2="503" y1="490.1406" y2="490.1406"/><rect fill="#F24D5C" height="3" style="stroke:#C82930;stroke-width:0.5;" width="3" x="445.5" y="495.3008"/><text fill="#000000" font-family="sans-serif" font-size="7" lengthAdjust="spacing" textLength="45" x="451.5" y="498.4775">getCityName()</text></g><!--class District--><g id="elem_District"><rect codeLine="137" fill="#F1F1F1" height="39.6406" id="District" rx="1.25" ry="1.25" style="stroke:#181818;stroke-width:0.25;" width="72" x="328.5" y="462.3203"/><ellipse cx="351.625" cy="470.3203" fill="#ADD1B2" rx="5.5" ry="5.5" style="stroke:#181818;stroke-width:0.5;"/><path d="M353.0078,468.2578 Q353.0859,468.1484 353.1797,468.0938 Q353.2734,468.0391 353.3828,468.0391 Q353.5703,468.0391 353.6875,468.1719 Q353.8047,468.2969 353.8047,468.6016 L353.8047,469.3281 Q353.8047,469.6328 353.6875,469.7656 Q353.5703,469.8984 353.3828,469.8984 Q353.2109,469.8984 353.1094,469.7969 Q353.0078,469.7031 352.9531,469.4453 Q352.9297,469.2656 352.8359,469.1719 Q352.6719,468.9844 352.3672,468.875 Q352.0625,468.7656 351.75,468.7656 Q351.3672,468.7656 351.0469,468.9297 Q350.7344,469.0938 350.4844,469.4688 Q350.2422,469.8438 350.2422,470.3594 L350.2422,470.9063 Q350.2422,471.5234 350.6875,471.9375 Q351.1328,472.3438 351.9297,472.3438 Q352.3984,472.3438 352.7266,472.2188 Q352.9219,472.1406 353.1328,471.9219 Q353.2656,471.7891 353.3359,471.75 Q353.4141,471.7109 353.5156,471.7109 Q353.6797,471.7109 353.8047,471.8438 Q353.9375,471.9688 353.9375,472.1406 Q353.9375,472.3125 353.7656,472.5156 Q353.5156,472.8047 353.1172,472.9688 Q352.5781,473.1953 351.9297,473.1953 Q351.1719,473.1953 350.5703,472.8828 Q350.0781,472.6328 349.7344,472.1016 Q349.3906,471.5625 349.3906,470.9219 L349.3906,470.3438 Q349.3906,469.6797 349.6953,469.1094 Q350.0078,468.5313 350.5547,468.2266 Q351.1016,467.9141 351.7188,467.9141 Q352.0859,467.9141 352.4063,468 Q352.7344,468.0781 353.0078,468.2578 Z " fill="#000000"/><text fill="#000000" font-family="sans-serif" font-size="7" lengthAdjust="spacing" textLength="21.5" x="361.875" y="472.7471">District</text><line style="stroke:#181818;stroke-width:0.25;" x1="329" x2="400" y1="478.3203" y2="478.3203"/><rect fill="none" height="3" style="stroke:#C82930;stroke-width:0.5;" width="3" x="332.5" y="483.4805"/><text fill="#000000" font-family="sans-serif" font-size="7" lengthAdjust="spacing" textLength="59" x="338.5" y="486.6572">String districtName</text><line style="stroke:#181818;stroke-width:0.25;" x1="329" x2="400" y1="490.1406" y2="490.1406"/><rect fill="#F24D5C" height="3" style="stroke:#C82930;stroke-width:0.5;" width="3" x="332.5" y="495.3008"/><text fill="#000000" font-family="sans-serif" font-size="7" lengthAdjust="spacing" textLength="54.5" x="338.5" y="498.4775">getDistrictName()</text></g><!--class State--><g id="elem_State"><rect codeLine="143" fill="#F1F1F1" height="39.6406" id="State" rx="1.25" ry="1.25" style="stroke:#181818;stroke-width:0.25;" width="67" x="220.5" y="462.3203"/><ellipse cx="243.625" cy="470.3203" fill="#ADD1B2" rx="5.5" ry="5.5" style="stroke:#181818;stroke-width:0.5;"/><path d="M245.0078,468.2578 Q245.0859,468.1484 245.1797,468.0938 Q245.2734,468.0391 245.3828,468.0391 Q245.5703,468.0391 245.6875,468.1719 Q245.8047,468.2969 245.8047,468.6016 L245.8047,469.3281 Q245.8047,469.6328 245.6875,469.7656 Q245.5703,469.8984 245.3828,469.8984 Q245.2109,469.8984 245.1094,469.7969 Q245.0078,469.7031 244.9531,469.4453 Q244.9297,469.2656 244.8359,469.1719 Q244.6719,468.9844 244.3672,468.875 Q244.0625,468.7656 243.75,468.7656 Q243.3672,468.7656 243.0469,468.9297 Q242.7344,469.0938 242.4844,469.4688 Q242.2422,469.8438 242.2422,470.3594 L242.2422,470.9063 Q242.2422,471.5234 242.6875,471.9375 Q243.1328,472.3438 243.9297,472.3438 Q244.3984,472.3438 244.7266,472.2188 Q244.9219,472.1406 245.1328,471.9219 Q245.2656,471.7891 245.3359,471.75 Q245.4141,471.7109 245.5156,471.7109 Q245.6797,471.7109 245.8047,471.8438 Q245.9375,471.9688 245.9375,472.1406 Q245.9375,472.3125 245.7656,472.5156 Q245.5156,472.8047 245.1172,472.9688 Q244.5781,473.1953 243.9297,473.1953 Q243.1719,473.1953 242.5703,472.8828 Q242.0781,472.6328 241.7344,472.1016 Q241.3906,471.5625 241.3906,470.9219 L241.3906,470.3438 Q241.3906,469.6797 241.6953,469.1094 Q242.0078,468.5313 242.5547,468.2266 Q243.1016,467.9141 243.7188,467.9141 Q244.0859,467.9141 244.4063,468 Q244.7344,468.0781 245.0078,468.2578 Z " fill="#000000"/><text fill="#000000" font-family="sans-serif" font-size="7" lengthAdjust="spacing" textLength="16.5" x="253.875" y="472.7471">State</text><line style="stroke:#181818;stroke-width:0.25;" x1="221" x2="287" y1="478.3203" y2="478.3203"/><rect fill="none" height="3" style="stroke:#C82930;stroke-width:0.5;" width="3" x="224.5" y="483.4805"/><text fill="#000000" font-family="sans-serif" font-size="7" lengthAdjust="spacing" textLength="54" x="230.5" y="486.6572">String stateName</text><line style="stroke:#181818;stroke-width:0.25;" x1="221" x2="287" y1="490.1406" y2="490.1406"/><rect fill="#F24D5C" height="3" style="stroke:#C82930;stroke-width:0.5;" width="3" x="224.5" y="495.3008"/><text fill="#000000" font-family="sans-serif" font-size="7" lengthAdjust="spacing" textLength="49.5" x="230.5" y="498.4775">getStateName()</text></g><!--class Comission--><g id="elem_Comission"><rect codeLine="152" fill="#F1F1F1" height="47.4609" id="Comission" rx="1.25" ry="1.25" style="stroke:#181818;stroke-width:0.25;" width="94" x="538" y="364.8203"/><ellipse cx="566.625" cy="372.8203" fill="#ADD1B2" rx="5.5" ry="5.5" style="stroke:#181818;stroke-width:0.5;"/><path d="M568.0078,370.7578 Q568.0859,370.6484 568.1797,370.5938 Q568.2734,370.5391 568.3828,370.5391 Q568.5703,370.5391 568.6875,370.6719 Q568.8047,370.7969 568.8047,371.1016 L568.8047,371.8281 Q568.8047,372.1328 568.6875,372.2656 Q568.5703,372.3984 568.3828,372.3984 Q568.2109,372.3984 568.1094,372.2969 Q568.0078,372.2031 567.9531,371.9453 Q567.9297,371.7656 567.8359,371.6719 Q567.6719,371.4844 567.3672,371.375 Q567.0625,371.2656 566.75,371.2656 Q566.3672,371.2656 566.0469,371.4297 Q565.7344,371.5938 565.4844,371.9688 Q565.2422,372.3438 565.2422,372.8594 L565.2422,373.4063 Q565.2422,374.0234 565.6875,374.4375 Q566.1328,374.8438 566.9297,374.8438 Q567.3984,374.8438 567.7266,374.7188 Q567.9219,374.6406 568.1328,374.4219 Q568.2656,374.2891 568.3359,374.25 Q568.4141,374.2109 568.5156,374.2109 Q568.6797,374.2109 568.8047,374.3438 Q568.9375,374.4688 568.9375,374.6406 Q568.9375,374.8125 568.7656,375.0156 Q568.5156,375.3047 568.1172,375.4688 Q567.5781,375.6953 566.9297,375.6953 Q566.1719,375.6953 565.5703,375.3828 Q565.0781,375.1328 564.7344,374.6016 Q564.3906,374.0625 564.3906,373.4219 L564.3906,372.8438 Q564.3906,372.1797 564.6953,371.6094 Q565.0078,371.0313 565.5547,370.7266 Q566.1016,370.4141 566.7188,370.4141 Q567.0859,370.4141 567.4063,370.5 Q567.7344,370.5781 568.0078,370.7578 Z " fill="#000000"/><text fill="#000000" font-family="sans-serif" font-size="7" lengthAdjust="spacing" textLength="32.5" x="576.875" y="375.2471">Comission</text><line style="stroke:#181818;stroke-width:0.25;" x1="538.5" x2="631.5" y1="380.8203" y2="380.8203"/><rect fill="none" height="3" style="stroke:#C82930;stroke-width:0.5;" width="3" x="542" y="385.9805"/><text fill="#000000" font-family="sans-serif" font-size="7" lengthAdjust="spacing" textLength="59.5" x="548" y="389.1572">double percentage</text><rect fill="none" height="3" style="stroke:#C82930;stroke-width:0.5;" width="3" x="542" y="393.8008"/><text fill="#000000" font-family="sans-serif" font-size="7" lengthAdjust="spacing" textLength="58" x="548" y="396.9775">double staticValue</text><line style="stroke:#181818;stroke-width:0.25;" x1="538.5" x2="631.5" y1="400.4609" y2="400.4609"/><ellipse cx="543.5" cy="407.1211" fill="#84BE84" rx="1.5" ry="1.5" style="stroke:#038048;stroke-width:0.5;"/><text fill="#000000" font-family="sans-serif" font-size="7" lengthAdjust="spacing" textLength="81" x="548" y="408.7979">calculateFinalComission()</text></g><!--class Rent--><g id="elem_Rent"><rect codeLine="160" fill="#F1F1F1" height="47.4609" id="Rent" rx="1.25" ry="1.25" style="stroke:#181818;stroke-width:0.25;" width="83" x="599.5" y="812.3203"/><ellipse cx="631.375" cy="820.3203" fill="#ADD1B2" rx="5.5" ry="5.5" style="stroke:#181818;stroke-width:0.5;"/><path d="M632.7578,818.2578 Q632.8359,818.1484 632.9297,818.0938 Q633.0234,818.0391 633.1328,818.0391 Q633.3203,818.0391 633.4375,818.1719 Q633.5547,818.2969 633.5547,818.6016 L633.5547,819.3281 Q633.5547,819.6328 633.4375,819.7656 Q633.3203,819.8984 633.1328,819.8984 Q632.9609,819.8984 632.8594,819.7969 Q632.7578,819.7031 632.7031,819.4453 Q632.6797,819.2656 632.5859,819.1719 Q632.4219,818.9844 632.1172,818.875 Q631.8125,818.7656 631.5,818.7656 Q631.1172,818.7656 630.7969,818.9297 Q630.4844,819.0938 630.2344,819.4688 Q629.9922,819.8438 629.9922,820.3594 L629.9922,820.9063 Q629.9922,821.5234 630.4375,821.9375 Q630.8828,822.3438 631.6797,822.3438 Q632.1484,822.3438 632.4766,822.2188 Q632.6719,822.1406 632.8828,821.9219 Q633.0156,821.7891 633.0859,821.75 Q633.1641,821.7109 633.2656,821.7109 Q633.4297,821.7109 633.5547,821.8438 Q633.6875,821.9688 633.6875,822.1406 Q633.6875,822.3125 633.5156,822.5156 Q633.2656,822.8047 632.8672,822.9688 Q632.3281,823.1953 631.6797,823.1953 Q630.9219,823.1953 630.3203,822.8828 Q629.8281,822.6328 629.4844,822.1016 Q629.1406,821.5625 629.1406,820.9219 L629.1406,820.3438 Q629.1406,819.6797 629.4453,819.1094 Q629.7578,818.5313 630.3047,818.2266 Q630.8516,817.9141 631.4688,817.9141 Q631.8359,817.9141 632.1563,818 Q632.4844,818.0781 632.7578,818.2578 Z " fill="#000000"/><text fill="#000000" font-family="sans-serif" font-size="7" lengthAdjust="spacing" textLength="15" x="641.625" y="822.7471">Rent</text><line style="stroke:#181818;stroke-width:0.25;" x1="600" x2="682" y1="828.3203" y2="828.3203"/><rect fill="none" height="3" style="stroke:#C82930;stroke-width:0.5;" width="3" x="603.5" y="833.4805"/><text fill="#000000" font-family="sans-serif" font-size="7" lengthAdjust="spacing" textLength="70" x="609.5" y="836.6572">int durationOfContract</text><line style="stroke:#181818;stroke-width:0.25;" x1="600" x2="682" y1="840.1406" y2="840.1406"/><ellipse cx="605" cy="846.8008" fill="#84BE84" rx="1.5" ry="1.5" style="stroke:#038048;stroke-width:0.5;"/><text fill="#000000" font-family="sans-serif" font-size="7" lengthAdjust="spacing" textLength="63" x="609.5" y="848.4775">getFinalComission()</text><ellipse cx="605" cy="854.6211" fill="#84BE84" rx="1.5" ry="1.5" style="stroke:#038048;stroke-width:0.5;"/><text fill="#000000" font-family="sans-serif" font-size="7" lengthAdjust="spacing" textLength="65" x="609.5" y="856.2979">calculateTotalPrice()</text></g><!--class Announcement--><g id="elem_Announcement"><rect codeLine="167" fill="#F1F1F1" height="63.1016" id="Announcement" rx="1.25" ry="1.25" style="stroke:#181818;stroke-width:0.25;" width="237.5" x="327.25" y="551.8203"/><ellipse cx="420.125" cy="559.8203" fill="#ADD1B2" rx="5.5" ry="5.5" style="stroke:#181818;stroke-width:0.5;"/><path d="M421.5078,557.7578 Q421.5859,557.6484 421.6797,557.5938 Q421.7734,557.5391 421.8828,557.5391 Q422.0703,557.5391 422.1875,557.6719 Q422.3047,557.7969 422.3047,558.1016 L422.3047,558.8281 Q422.3047,559.1328 422.1875,559.2656 Q422.0703,559.3984 421.8828,559.3984 Q421.7109,559.3984 421.6094,559.2969 Q421.5078,559.2031 421.4531,558.9453 Q421.4297,558.7656 421.3359,558.6719 Q421.1719,558.4844 420.8672,558.375 Q420.5625,558.2656 420.25,558.2656 Q419.8672,558.2656 419.5469,558.4297 Q419.2344,558.5938 418.9844,558.9688 Q418.7422,559.3438 418.7422,559.8594 L418.7422,560.4063 Q418.7422,561.0234 419.1875,561.4375 Q419.6328,561.8438 420.4297,561.8438 Q420.8984,561.8438 421.2266,561.7188 Q421.4219,561.6406 421.6328,561.4219 Q421.7656,561.2891 421.8359,561.25 Q421.9141,561.2109 422.0156,561.2109 Q422.1797,561.2109 422.3047,561.3438 Q422.4375,561.4688 422.4375,561.6406 Q422.4375,561.8125 422.2656,562.0156 Q422.0156,562.3047 421.6172,562.4688 Q421.0781,562.6953 420.4297,562.6953 Q419.6719,562.6953 419.0703,562.3828 Q418.5781,562.1328 418.2344,561.6016 Q417.8906,561.0625 417.8906,560.4219 L417.8906,559.8438 Q417.8906,559.1797 418.1953,558.6094 Q418.5078,558.0313 419.0547,557.7266 Q419.6016,557.4141 420.2188,557.4141 Q420.5859,557.4141 420.9063,557.5 Q421.2344,557.5781 421.5078,557.7578 Z " fill="#000000"/><text fill="#000000" font-family="sans-serif" font-size="7" lengthAdjust="spacing" textLength="47.5" x="430.375" y="562.2471">Announcement</text><line style="stroke:#181818;stroke-width:0.25;" x1="327.75" x2="564.25" y1="567.8203" y2="567.8203"/><rect fill="none" height="3" style="stroke:#C82930;stroke-width:0.5;" width="3" x="331.25" y="572.9805"/><text fill="#000000" font-family="sans-serif" font-size="7" lengthAdjust="spacing" textLength="51.5" x="337.25" y="576.1572">String initialDate</text><rect fill="none" height="3" style="stroke:#C82930;stroke-width:0.5;" width="3" x="331.25" y="580.8008"/><text fill="#000000" font-family="sans-serif" font-size="7" lengthAdjust="spacing" textLength="48.5" x="337.25" y="583.9775">String finalDate</text><rect fill="none" height="3" style="stroke:#C82930;stroke-width:0.5;" width="3" x="331.25" y="588.6211"/><text fill="#000000" font-family="sans-serif" font-size="7" lengthAdjust="spacing" textLength="62" x="337.25" y="591.7979">String contractType</text><line style="stroke:#181818;stroke-width:0.25;" x1="327.75" x2="564.25" y1="595.2813" y2="595.2813"/><ellipse cx="332.75" cy="601.9414" fill="#84BE84" rx="1.5" ry="1.5" style="stroke:#038048;stroke-width:0.5;"/><text fill="#000000" font-family="sans-serif" font-size="7" lengthAdjust="spacing" textLength="29.5" x="337.25" y="603.6182">getUser()</text><ellipse cx="332.75" cy="609.7617" fill="#84BE84" rx="1.5" ry="1.5" style="stroke:#038048;stroke-width:0.5;"/><text fill="#000000" font-family="sans-serif" font-size="7" lengthAdjust="spacing" textLength="224.5" x="337.25" y="611.4385">PublishedAnnouncement(initialDate, finalDate, AnnouncementRequest)</text></g><!--class Business--><g id="elem_Business"><rect codeLine="176" fill="#F1F1F1" height="63.1016" id="Business" rx="1.25" ry="1.25" style="stroke:#181818;stroke-width:0.25;" width="108.5" x="545.75" y="683.8203"/><ellipse cx="583.625" cy="691.8203" fill="#ADD1B2" rx="5.5" ry="5.5" style="stroke:#181818;stroke-width:0.5;"/><path d="M585.0078,689.7578 Q585.0859,689.6484 585.1797,689.5938 Q585.2734,689.5391 585.3828,689.5391 Q585.5703,689.5391 585.6875,689.6719 Q585.8047,689.7969 585.8047,690.1016 L585.8047,690.8281 Q585.8047,691.1328 585.6875,691.2656 Q585.5703,691.3984 585.3828,691.3984 Q585.2109,691.3984 585.1094,691.2969 Q585.0078,691.2031 584.9531,690.9453 Q584.9297,690.7656 584.8359,690.6719 Q584.6719,690.4844 584.3672,690.375 Q584.0625,690.2656 583.75,690.2656 Q583.3672,690.2656 583.0469,690.4297 Q582.7344,690.5938 582.4844,690.9688 Q582.2422,691.3438 582.2422,691.8594 L582.2422,692.4063 Q582.2422,693.0234 582.6875,693.4375 Q583.1328,693.8438 583.9297,693.8438 Q584.3984,693.8438 584.7266,693.7188 Q584.9219,693.6406 585.1328,693.4219 Q585.2656,693.2891 585.3359,693.25 Q585.4141,693.2109 585.5156,693.2109 Q585.6797,693.2109 585.8047,693.3438 Q585.9375,693.4688 585.9375,693.6406 Q585.9375,693.8125 585.7656,694.0156 Q585.5156,694.3047 585.1172,694.4688 Q584.5781,694.6953 583.9297,694.6953 Q583.1719,694.6953 582.5703,694.3828 Q582.0781,694.1328 581.7344,693.6016 Q581.3906,693.0625 581.3906,692.4219 L581.3906,691.8438 Q581.3906,691.1797 581.6953,690.6094 Q582.0078,690.0313 582.5547,689.7266 Q583.1016,689.4141 583.7188,689.4141 Q584.0859,689.4141 584.4063,689.5 Q584.7344,689.5781 585.0078,689.7578 Z " fill="#000000"/><text fill="#000000" font-family="sans-serif" font-size="7" lengthAdjust="spacing" textLength="28.5" x="593.875" y="694.2471">Business</text><line style="stroke:#181818;stroke-width:0.25;" x1="546.25" x2="653.75" y1="699.8203" y2="699.8203"/><rect fill="none" height="3" style="stroke:#C82930;stroke-width:0.5;" width="3" x="549.75" y="704.9805"/><text fill="#000000" font-family="sans-serif" font-size="7" lengthAdjust="spacing" textLength="71.5" x="555.75" y="708.1572">double requestedPrice</text><rect fill="none" height="3" style="stroke:#C82930;stroke-width:0.5;" width="3" x="549.75" y="712.8008"/><text fill="#000000" font-family="sans-serif" font-size="7" lengthAdjust="spacing" textLength="70" x="555.75" y="715.9775">String typeOfBusiness</text><line style="stroke:#181818;stroke-width:0.25;" x1="546.25" x2="653.75" y1="719.4609" y2="719.4609"/><ellipse cx="551.25" cy="726.1211" fill="#84BE84" rx="1.5" ry="1.5" style="stroke:#038048;stroke-width:0.5;"/><text fill="#000000" font-family="sans-serif" font-size="7" lengthAdjust="spacing" textLength="63" x="555.75" y="727.7979">getFinalComission()</text><ellipse cx="551.25" cy="733.9414" fill="#84BE84" rx="1.5" ry="1.5" style="stroke:#038048;stroke-width:0.5;"/><text fill="#000000" font-family="sans-serif" font-size="7" lengthAdjust="spacing" textLength="95.5" x="555.75" y="735.6182">calculatePriceWithComission()</text><ellipse cx="551.25" cy="741.7617" fill="#84BE84" rx="1.5" ry="1.5" style="stroke:#038048;stroke-width:0.5;"/><text fill="#000000" font-family="sans-serif" font-size="7" lengthAdjust="spacing" textLength="67" x="555.75" y="743.4385">getTypeOfBusiness()</text></g><!--class Agent--><g id="elem_Agent"><rect fill="#F1F1F1" height="24" id="Agent" rx="1.25" ry="1.25" style="stroke:#181818;stroke-width:0.25;" width="34.5" x="458.25" y="376.5703"/><ellipse cx="465.75" cy="384.5703" fill="#ADD1B2" rx="5.5" ry="5.5" style="stroke:#181818;stroke-width:0.5;"/><path d="M467.1328,382.5078 Q467.2109,382.3984 467.3047,382.3438 Q467.3984,382.2891 467.5078,382.2891 Q467.6953,382.2891 467.8125,382.4219 Q467.9297,382.5469 467.9297,382.8516 L467.9297,383.5781 Q467.9297,383.8828 467.8125,384.0156 Q467.6953,384.1484 467.5078,384.1484 Q467.3359,384.1484 467.2344,384.0469 Q467.1328,383.9531 467.0781,383.6953 Q467.0547,383.5156 466.9609,383.4219 Q466.7969,383.2344 466.4922,383.125 Q466.1875,383.0156 465.875,383.0156 Q465.4922,383.0156 465.1719,383.1797 Q464.8594,383.3438 464.6094,383.7188 Q464.3672,384.0938 464.3672,384.6094 L464.3672,385.1563 Q464.3672,385.7734 464.8125,386.1875 Q465.2578,386.5938 466.0547,386.5938 Q466.5234,386.5938 466.8516,386.4688 Q467.0469,386.3906 467.2578,386.1719 Q467.3906,386.0391 467.4609,386 Q467.5391,385.9609 467.6406,385.9609 Q467.8047,385.9609 467.9297,386.0938 Q468.0625,386.2188 468.0625,386.3906 Q468.0625,386.5625 467.8906,386.7656 Q467.6406,387.0547 467.2422,387.2188 Q466.7031,387.4453 466.0547,387.4453 Q465.2969,387.4453 464.6953,387.1328 Q464.2031,386.8828 463.8594,386.3516 Q463.5156,385.8125 463.5156,385.1719 L463.5156,384.5938 Q463.5156,383.9297 463.8203,383.3594 Q464.1328,382.7813 464.6797,382.4766 Q465.2266,382.1641 465.8438,382.1641 Q466.2109,382.1641 466.5313,382.25 Q466.8594,382.3281 467.1328,382.5078 Z " fill="#000000"/><text fill="#000000" font-family="sans-serif" font-size="7" lengthAdjust="spacing" textLength="18.5" x="472.75" y="386.9971">Agent</text><line style="stroke:#181818;stroke-width:0.25;" x1="458.75" x2="492.25" y1="392.5703" y2="392.5703"/><line style="stroke:#181818;stroke-width:0.25;" x1="458.75" x2="492.25" y1="396.5703" y2="396.5703"/></g><!--link SendMessageUI to SendMessageController--><g id="link_SendMessageUI_SendMessageController"><path codeLine="20" d="M71.125,65.0703 C76.46,65.0703 81.665,65.0703 86.095,65.0703 " fill="none" id="SendMessageUI-to-SendMessageController" style="stroke:#181818;stroke-width:0.5;stroke-dasharray:7.0,7.0;"/><polygon fill="#181818" points="88.745,65.0703,84.245,63.0703,86.245,65.0703,84.245,67.0703,88.745,65.0703" style="stroke:#181818;stroke-width:0.5;"/></g><!--link SendMessageController to Repositories--><g id="link_SendMessageController_Repositories"><path codeLine="192" d="M353.28,65.0703 C370.195,65.0703 386.995,65.0703 402.475,65.0703 " fill="none" id="SendMessageController-to-Repositories" style="stroke:#181818;stroke-width:0.5;stroke-dasharray:7.0,7.0;"/><polygon fill="#181818" points="405.145,65.0703,400.645,63.0703,402.645,65.0703,400.645,67.0703,405.145,65.0703" style="stroke:#181818;stroke-width:0.5;"/><text fill="#000000" font-family="sans-serif" font-size="6.5" lengthAdjust="spacing" textLength="33.5" x="362.5" y="61.9546">repositories</text></g><!--link Repositories to Repositories--><g id="link_Repositories_Repositories"><path codeLine="193" d="M545.9,54.5503 C556.26,56.2053 563.25,59.7103 563.25,65.0703 C563.25,69.9703 557.41,73.3203 548.495,75.1203 " fill="none" id="Repositories-to-Repositories" style="stroke:#181818;stroke-width:0.5;"/><polygon fill="#181818" points="545.9,75.5903,550.6834,76.7604,548.3604,75.1469,549.9739,72.8238,545.9,75.5903" style="stroke:#181818;stroke-width:0.5;"/><text fill="#000000" font-family="sans-serif" font-size="6.5" lengthAdjust="spacing" textLength="24.5" x="566.25" y="67.4546">instance</text></g><!--link Repositories to UserRepository--><g id="link_Repositories_UserRepository"><path codeLine="194" d="M426.61,108.3453 C412.02,121.1153 396.85,134.3903 385.27,144.5203 " fill="none" id="Repositories-to-UserRepository" style="stroke:#181818;stroke-width:0.5;stroke-dasharray:7.0,7.0;"/><polygon fill="#181818" points="383.3,146.2453,388.0009,144.7783,385.1783,144.5955,385.3612,141.773,383.3,146.2453" style="stroke:#181818;stroke-width:0.5;"/><text fill="#000000" font-family="sans-serif" font-size="6.5" lengthAdjust="spacing" textLength="12.5" x="407.5" y="129.7046">user</text></g><!--link Repositories to TypeComissionRepository--><g id="link_Repositories_TypeComissionRepository"><path codeLine="195" d="M501.045,108.5453 C512.51,127.8303 523.5,146.3203 523.5,146.3203 C523.5,146.3203 535.145,172.3103 543.415,190.7703 " fill="none" id="Repositories-to-TypeComissionRepository" style="stroke:#181818;stroke-width:0.5;stroke-dasharray:7.0,7.0;"/><polygon fill="#181818" points="544.505,193.2103,544.495,188.2859,543.485,190.9278,540.8431,189.9179,544.505,193.2103" style="stroke:#181818;stroke-width:0.5;"/><text fill="#000000" font-family="sans-serif" font-size="6.5" lengthAdjust="spacing" textLength="29.5" x="514" y="129.7046">comission</text></g><!--link Repositories to PublishedAnnouncementRepository--><g id="link_Repositories_PublishedAnnouncementRepository"><path codeLine="196" d="M529.33,108.4503 C540.005,116.9553 548,123.3203 548,123.3203 C548,123.3203 609.5,193.3203 609.5,193.3203 C609.5,193.3203 630.345,234.8953 643.66,261.4553 " fill="none" id="Repositories-to-PublishedAnnouncementRepository" style="stroke:#181818;stroke-width:0.5;stroke-dasharray:7.0,7.0;"/><polygon fill="#181818" points="644.845,263.8153,644.6151,258.8963,643.7241,261.5807,641.0397,260.6897,644.845,263.8153" style="stroke:#181818;stroke-width:0.5;"/><text fill="#000000" font-family="sans-serif" font-size="6.5" lengthAdjust="spacing" textLength="42.5" x="596.5" y="164.7046">announcement</text></g><!--link Repositories to PropertyTypeRepository--><g id="link_Repositories_PropertyTypeRepository"><path codeLine="197" d="M405.205,96.0353 C337.415,125.4203 237.35,168.7903 183.19,192.2653 " fill="none" id="Repositories-to-PropertyTypeRepository" style="stroke:#181818;stroke-width:0.5;stroke-dasharray:7.0,7.0;"/><polygon fill="#181818" points="180.805,193.3003,185.7292,193.3475,183.0991,192.3069,184.1397,189.6768,180.805,193.3003" style="stroke:#181818;stroke-width:0.5;"/><text fill="#000000" font-family="sans-serif" font-size="6.5" lengthAdjust="spacing" textLength="37.5" x="339" y="129.7046">propertyType</text></g><!--link Repositories to MessageRepository--><g id="link_Repositories_MessageRepository"><path codeLine="198" d="M475.5,108.3453 C475.5,120.7003 475.5,133.5253 475.5,143.5203 " fill="none" id="Repositories-to-MessageRepository" style="stroke:#181818;stroke-width:0.5;stroke-dasharray:7.0,7.0;"/><polygon fill="#181818" points="475.5,146.1303,477.5,141.6303,475.5,143.6303,473.5,141.6303,475.5,146.1303" style="stroke:#181818;stroke-width:0.5;"/><text fill="#000000" font-family="sans-serif" font-size="6.5" lengthAdjust="spacing" textLength="26.5" x="476" y="129.7046">message</text></g><!--link MessageRepository to Message--><g id="link_MessageRepository_Message"><path codeLine="200" d="M475.5,178.5403 C475.5,198.5053 475.5,233.2203 475.5,257.1353 " fill="none" id="MessageRepository-to-Message" style="stroke:#181818;stroke-width:0.5;"/><polygon fill="#181818" points="475.5,259.7053,477.5,255.2053,475.5,257.2053,473.5,255.2053,475.5,259.7053" style="stroke:#181818;stroke-width:0.5;"/></g><!--link Message to Agent--><g id="link_Message_Agent"><path codeLine="201" d="M475.5,307.4103 C475.5,328.9103 475.5,359.9153 475.5,376.5253 " fill="none" id="Message-Agent" style="stroke:#181818;stroke-width:0.5;"/><polygon fill="#000000" points="478,343.4512,476.5305,347.9737,479.4695,347.9737,478,343.4512" style="stroke:#000000;stroke-width:0.5;"/><text fill="#000000" font-family="sans-serif" font-size="6.5" lengthAdjust="spacing" textLength="25.5" x="482.5" y="348.2046">recives a</text><text fill="#000000" font-family="sans-serif" font-size="6.5" lengthAdjust="spacing" textLength="2.5" x="472.8242" y="317.1604">*</text><text fill="#000000" font-family="sans-serif" font-size="6.5" lengthAdjust="spacing" textLength="3.5" x="471.5297" y="371.267">1</text></g><!--link Message to PublishedAnnouncementRepository--><g id="link_Message_PublishedAnnouncementRepository"><path codeLine="202" d="M521.83,283.5703 C542.65,283.5703 567.57,283.5703 590.165,283.5703 " fill="none" id="Message-PublishedAnnouncementRepository" style="stroke:#181818;stroke-width:0.5;"/><polygon fill="#000000" points="544.25,278.2012,548.7725,279.6706,548.7725,276.7317,544.25,278.2012" style="stroke:#000000;stroke-width:0.5;"/><text fill="#000000" font-family="sans-serif" font-size="6.5" lengthAdjust="spacing" textLength="16" x="551.25" y="280.4546">has a</text><text fill="#000000" font-family="sans-serif" font-size="6.5" lengthAdjust="spacing" textLength="3.5" x="525.8116" y="282.1772">1</text><text fill="#000000" font-family="sans-serif" font-size="6.5" lengthAdjust="spacing" textLength="2.5" x="583.6684" y="282.245">*</text></g><!--link PropertyTypeRepository to Property--><g id="link_PropertyTypeRepository_Property"><path codeLine="206" d="M128.71,225.3653 C91.41,260.9553 3,345.3203 3,345.3203 C3,345.3203 3,345.3203 3,649.8203 C3,649.8203 284,683.8203 284,683.8203 C284,683.8203 294.205,686.8903 308.195,691.1003 " fill="none" id="PropertyTypeRepository-to-Property" style="stroke:#181818;stroke-width:0.5;"/><polygon fill="#181818" points="310.66,691.8453,306.9201,688.6417,308.2645,691.1302,305.7759,692.4746,310.66,691.8453" style="stroke:#181818;stroke-width:0.5;"/></g><!--reverse link Residence to House--><g id="link_Residence_House"><path codeLine="207" d="M264,873.9653 C264,890.8903 264,910.3703 264,925.1803 " fill="none" id="Residence-backto-House" style="stroke:#181818;stroke-width:0.5;"/><polygon fill="none" points="260.5,873.8253,264,863.8253,267.5,873.8253,260.5,873.8253" style="stroke:#181818;stroke-width:0.5;"/></g><!--reverse link Property to Residence--><g id="link_Property_Residence"><path codeLine="208" d="M355.76,746.2353 C336.135,765.3453 311.025,789.7853 292.035,808.2753 " fill="none" id="Property-backto-Residence" style="stroke:#181818;stroke-width:0.5;"/><polygon fill="none" points="353.385,743.6603,362.99,739.1953,358.27,748.6753,353.385,743.6603" style="stroke:#181818;stroke-width:0.5;"/></g><!--link Photos to Property--><g id="link_Photos_Property"><path codeLine="209" d="M275.28,715.3203 C285.285,715.3203 297.75,715.3203 310.68,715.3203 " fill="none" id="Photos-Property" style="stroke:#181818;stroke-width:0.5;"/><polygon fill="#000000" points="284,709.9512,288.5225,711.4206,288.5225,708.4817,284,709.9512" style="stroke:#000000;stroke-width:0.5;"/><text fill="#000000" font-family="sans-serif" font-size="6.5" lengthAdjust="spacing" textLength="10.5" x="291" y="712.2046">has</text><text fill="#000000" font-family="sans-serif" font-size="6.5" lengthAdjust="spacing" textLength="14.5" x="279.2481" y="721.7046">1..30</text><text fill="#000000" font-family="sans-serif" font-size="6.5" lengthAdjust="spacing" textLength="3.5" x="303.1545" y="714.0319">1</text></g><!--link SunExposure to House--><g id="link_SunExposure_House"><path codeLine="210" d="M117.59,949.0703 C132.38,949.0703 149.55,949.0703 166.815,949.0703 " fill="none" id="SunExposure-House" style="stroke:#181818;stroke-width:0.5;"/><polygon fill="#000000" points="126.25,943.7012,130.7725,945.1706,130.7725,942.2317,126.25,943.7012" style="stroke:#000000;stroke-width:0.5;"/><text fill="#000000" font-family="sans-serif" font-size="6.5" lengthAdjust="spacing" textLength="24.5" x="133.25" y="945.9546">contains</text><text fill="#000000" font-family="sans-serif" font-size="6.5" lengthAdjust="spacing" textLength="3.5" x="121.4864" y="947.659">1</text><text fill="#000000" font-family="sans-serif" font-size="6.5" lengthAdjust="spacing" textLength="2.5" x="160.4699" y="947.8237">*</text></g><!--link Residence to AvailableEquipment--><g id="link_Residence_AvailableEquipment"><path codeLine="211" d="M397.865,836.0703 C414.93,836.0703 431.775,836.0703 447.13,836.0703 " fill="none" id="Residence-AvailableEquipment" style="stroke:#181818;stroke-width:0.5;"/><polygon fill="#000000" points="411.5,830.7012,406.9775,829.2317,406.9775,832.1706,411.5,830.7012" style="stroke:#000000;stroke-width:0.5;"/><text fill="#000000" font-family="sans-serif" font-size="6.5" lengthAdjust="spacing" textLength="24.5" x="413.5" y="832.9546">contains</text><text fill="#000000" font-family="sans-serif" font-size="6.5" lengthAdjust="spacing" textLength="3.5" x="401.8911" y="834.8578">1</text><text fill="#000000" font-family="sans-serif" font-size="6.5" lengthAdjust="spacing" textLength="2.5" x="440.6629" y="834.7557">*</text></g><!--link Address to State--><g id="link_Address_State"><path codeLine="216" d="M179.69,482.0703 C194.01,482.0703 208.315,482.0703 220.49,482.0703 " fill="none" id="Address-State" style="stroke:#181818;stroke-width:0.5;"/><polygon fill="#000000" points="193.25,476.7012,188.7275,475.2317,188.7275,478.1706,193.25,476.7012" style="stroke:#000000;stroke-width:0.5;"/><text fill="#000000" font-family="sans-serif" font-size="6.5" lengthAdjust="spacing" textLength="16" x="195.25" y="478.9546">has a</text><text fill="#000000" font-family="sans-serif" font-size="6.5" lengthAdjust="spacing" textLength="3.5" x="183.4168" y="480.7855">1</text><text fill="#000000" font-family="sans-serif" font-size="6.5" lengthAdjust="spacing" textLength="2.5" x="213.9709" y="480.5569">*</text></g><!--link District to City--><g id="link_District_City"><path codeLine="217" d="M400.615,482.0703 C413.86,482.0703 428.72,482.0703 441.48,482.0703 " fill="none" id="District-City" style="stroke:#181818;stroke-width:0.5;"/><polygon fill="#000000" points="414.25,476.7012,409.7275,475.2317,409.7275,478.1706,414.25,476.7012" style="stroke:#000000;stroke-width:0.5;"/><text fill="#000000" font-family="sans-serif" font-size="6.5" lengthAdjust="spacing" textLength="16" x="416.25" y="478.9546">has a</text><text fill="#000000" font-family="sans-serif" font-size="6.5" lengthAdjust="spacing" textLength="3.5" x="404.5198" y="480.5999">1</text><text fill="#000000" font-family="sans-serif" font-size="6.5" lengthAdjust="spacing" textLength="2.5" x="435.0471" y="480.5354">*</text></g><!--link State to District--><g id="link_State_District"><path codeLine="218" d="M287.605,482.0703 C300.495,482.0703 315.25,482.0703 328.365,482.0703 " fill="none" id="State-District" style="stroke:#181818;stroke-width:0.5;"/><polygon fill="#000000" points="301.25,476.7012,296.7275,475.2317,296.7275,478.1706,301.25,476.7012" style="stroke:#000000;stroke-width:0.5;"/><text fill="#000000" font-family="sans-serif" font-size="6.5" lengthAdjust="spacing" textLength="16" x="303.25" y="478.9546">has a</text><text fill="#000000" font-family="sans-serif" font-size="6.5" lengthAdjust="spacing" textLength="3.5" x="291.472" y="480.5784">1</text><text fill="#000000" font-family="sans-serif" font-size="6.5" lengthAdjust="spacing" textLength="2.5" x="322.0097" y="480.5999">*</text></g><!--link User to Address--><g id="link_User_Address"><path codeLine="219" d="M308.475,314.0653 C266.555,348.4903 197.69,405.0403 151.73,442.7853 " fill="none" id="User-Address" style="stroke:#181818;stroke-width:0.5;"/><polygon fill="#000000" points="245.568,390.2878,249.9956,388.5532,248.1305,386.282,245.568,390.2878" style="stroke:#000000;stroke-width:0.5;"/><text fill="#000000" font-family="sans-serif" font-size="6.5" lengthAdjust="spacing" textLength="10.5" x="252" y="390.9546">has</text><text fill="#000000" font-family="sans-serif" font-size="6.5" lengthAdjust="spacing" textLength="3.5" x="301.0279" y="315.7437">1</text><text fill="#000000" font-family="sans-serif" font-size="6.5" lengthAdjust="spacing" textLength="3.5" x="152.7069" y="437.4589">1</text></g><!--link UserRepository to User--><g id="link_UserRepository_User"><path codeLine="220" d="M362.82,178.5403 C360.26,193.5603 356.275,216.9303 352.725,237.7653 " fill="none" id="UserRepository-to-User" style="stroke:#181818;stroke-width:0.5;"/><polygon fill="#181818" points="352.29,240.2953,355.0084,236.1892,352.7045,237.8299,351.0637,235.526,352.29,240.2953" style="stroke:#181818;stroke-width:0.5;"/></g><!--link PublishedAnnouncementRepository to Business--><g id="link_PublishedAnnouncementRepository_Business"><path codeLine="221" d="M655.245,303.3903 C656.4,333.4653 658.5,388.0703 658.5,388.0703 C658.5,388.0703 658.5,388.0703 658.5,649.8203 C658.5,649.8203 644.245,665.6553 629.81,681.6953 " fill="none" id="PublishedAnnouncementRepository-to-Business" style="stroke:#181818;stroke-width:0.5;"/><polygon fill="#181818" points="628.05,683.6553,632.5469,681.6484,629.7224,681.7971,629.5738,678.9726,628.05,683.6553" style="stroke:#181818;stroke-width:0.5;"/></g><!--link User to Message--><g id="link_User_Message"><path codeLine="222" d="M381.525,283.5703 C396.305,283.5703 413.54,283.5703 429.185,283.5703 " fill="none" id="User-Message" style="stroke:#181818;stroke-width:0.5;"/><polygon fill="#000000" points="395.125,278.2012,390.6025,276.7317,390.6025,279.6706,395.125,278.2012" style="stroke:#000000;stroke-width:0.5;"/><text fill="#000000" font-family="sans-serif" font-size="6.5" lengthAdjust="spacing" textLength="23" x="397.125" y="280.4546">sends a</text><text fill="#000000" font-family="sans-serif" font-size="6.5" lengthAdjust="spacing" textLength="3.5" x="385.4721" y="282.1039">1</text><text fill="#000000" font-family="sans-serif" font-size="6.5" lengthAdjust="spacing" textLength="2.5" x="422.746" y="282.1772">*</text></g><!--link TypeComissionRepository to Comission--><g id="link_TypeComissionRepository_Comission"><path codeLine="225" d="M554.415,225.3253 C560.165,255.9303 573.035,324.3903 580.105,362.0353 " fill="none" id="TypeComissionRepository-to-Comission" style="stroke:#181818;stroke-width:0.5;"/><polygon fill="#181818" points="580.605,364.6903,581.7347,359.8972,580.1408,362.2338,577.8043,360.6399,580.605,364.6903" style="stroke:#181818;stroke-width:0.5;"/></g><!--link Agent to Comission--><g id="link_Agent_Comission"><path codeLine="226" d="M492.85,388.5703 C505.03,388.5703 521.945,388.5703 537.96,388.5703 " fill="none" id="Agent-Comission" style="stroke:#181818;stroke-width:0.5;"/><polygon fill="#000000" points="506.375,383.2012,501.8525,381.7317,501.8525,384.6706,506.375,383.2012" style="stroke:#000000;stroke-width:0.5;"/><text fill="#000000" font-family="sans-serif" font-size="6.5" lengthAdjust="spacing" textLength="20.5" x="508.375" y="385.4546">defines</text><text fill="#000000" font-family="sans-serif" font-size="6.5" lengthAdjust="spacing" textLength="3.5" x="496.7894" y="386.7597">1</text><text fill="#000000" font-family="sans-serif" font-size="6.5" lengthAdjust="spacing" textLength="2.5" x="531.461" y="387.1772">*</text></g><!--link Comission to Business--><g id="link_Comission_Business"><path codeLine="227" d="M588.785,412.4103 C593.23,439.8153 600,481.5703 600,481.5703 C600,481.5703 600,481.5703 600,649.8203 C600,649.8203 600,666.9703 600,683.6553 " fill="none" id="Comission-Business" style="stroke:#181818;stroke-width:0.5;"/><polygon fill="#000000" points="602.3967,580.9533,601.1153,585.5327,604.0518,585.4113,602.3967,580.9533" style="stroke:#000000;stroke-width:0.5;"/><text fill="#000000" font-family="sans-serif" font-size="6.5" lengthAdjust="spacing" textLength="24.5" x="607" y="585.7046">contains</text><text fill="#000000" font-family="sans-serif" font-size="6.5" lengthAdjust="spacing" textLength="3.5" x="585.5712" y="422.1604">1</text><text fill="#000000" font-family="sans-serif" font-size="6.5" lengthAdjust="spacing" textLength="3.5" x="596.2977" y="678.4829">1</text></g><!--link Property to Business--><g id="link_Property_Business"><path codeLine="228" d="M463.295,715.3203 C490.515,715.3203 520.6,715.3203 545.6,715.3203 " fill="none" id="Property-Business" style="stroke:#181818;stroke-width:0.5;"/><polygon fill="#000000" points="492.75,709.9512,497.2725,711.4206,497.2725,708.4817,492.75,709.9512" style="stroke:#000000;stroke-width:0.5;"/><text fill="#000000" font-family="sans-serif" font-size="6.5" lengthAdjust="spacing" textLength="16" x="499.75" y="712.2046">has a</text><text fill="#000000" font-family="sans-serif" font-size="6.5" lengthAdjust="spacing" textLength="3.5" x="467.3192" y="714.0319">1</text><text fill="#000000" font-family="sans-serif" font-size="6.5" lengthAdjust="spacing" textLength="3.5" x="538.3274" y="713.9748">1</text></g><!--link Announcement to Business--><g id="link_Announcement_Business"><path codeLine="229" d="M482.495,614.8653 C506.955,635.6703 539.04,662.9653 563.5,683.7703 " fill="none" id="Announcement-Business" style="stroke:#181818;stroke-width:0.5;"/><polygon fill="#000000" points="529.9043,651.071,527.4115,647.0214,525.5073,649.26,529.9043,651.071" style="stroke:#000000;stroke-width:0.5;"/><text fill="#000000" font-family="sans-serif" font-size="6.5" lengthAdjust="spacing" textLength="10.5" x="532.5" y="651.7046">has</text><text fill="#000000" font-family="sans-serif" font-size="6.5" lengthAdjust="spacing" textLength="3.5" x="483.0124" y="624.8109">1</text><text fill="#000000" font-family="sans-serif" font-size="6.5" lengthAdjust="spacing" textLength="3.5" x="555.3383" y="678.3926">1</text></g><!--link Announcement to Property--><g id="link_Announcement_Property"><path codeLine="230" d="M432.02,614.8653 C421.455,638.3203 407.18,670.0153 397.56,691.3753 " fill="none" id="Announcement-Property" style="stroke:#181818;stroke-width:0.5;"/><polygon fill="#000000" points="418.4733,651.7306,421.6704,648.2105,418.9908,647.0036,418.4733,651.7306" style="stroke:#000000;stroke-width:0.5;"/><text fill="#000000" font-family="sans-serif" font-size="6.5" lengthAdjust="spacing" textLength="16" x="424" y="651.7046">has a</text><text fill="#000000" font-family="sans-serif" font-size="6.5" lengthAdjust="spacing" textLength="3.5" x="426.7012" y="624.8109">1</text><text fill="#000000" font-family="sans-serif" font-size="6.5" lengthAdjust="spacing" textLength="3.5" x="395.354" y="686.2507">1</text></g><!--link Agent to Announcement--><g id="link_Agent_Announcement"><path codeLine="231" d="M483.435,400.6003 C494.31,416.3953 512.5,442.8203 512.5,442.8203 C512.5,442.8203 512.5,521.3203 512.5,521.3203 C512.5,521.3203 496.135,536.4553 479.64,551.7103 " fill="none" id="Agent-Announcement" style="stroke:#181818;stroke-width:0.5;"/><polygon fill="#000000" points="514.9372,484.7004,516.5198,480.2162,513.5818,480.1424,514.9372,484.7004" style="stroke:#000000;stroke-width:0.5;"/><text fill="#000000" font-family="sans-serif" font-size="6.5" lengthAdjust="spacing" textLength="27.5" x="519.5" y="484.4546">publishes</text><text fill="#000000" font-family="sans-serif" font-size="6.5" lengthAdjust="spacing" textLength="3.5" x="481.5199" y="410.4977">1</text><text fill="#000000" font-family="sans-serif" font-size="6.5" lengthAdjust="spacing" textLength="2.5" x="480.8851" y="546.5443">*</text></g><!--reverse link Business to Rent--><g id="link_Business_Rent"><path codeLine="232" d="M613.93,756.5103 C620.28,775.0503 627.565,796.3303 632.98,812.1403 " fill="none" id="Business-backto-Rent" style="stroke:#181818;stroke-width:0.5;"/><polygon fill="none" points="610.595,757.5653,610.665,746.9703,617.215,755.2953,610.595,757.5653" style="stroke:#181818;stroke-width:0.5;"/></g><!--SRC=[ZLTBR-Cs4BxpLn2-n6xa88kUQYm2U9qiQg3TDUAa1OfU68csY9L9BKcbyQRxtpjyYhJaJNsnD8zl7fpXZ2xK5yPR8ia17mGNPIt5WM8jEufwJalABsHFj_hOK2nfgGdVDwc0gaab_c5yZtUaKIcdOPpgOqjnAvgZUK4N8qmXjKWPPKEKMcejsLEdwReKVCk-KNoDBXgwqrWBBDc-rhXYnXicE4AQQN3kSNlz2vxZbT77jupi0GqXPF7mblBgTweKXFAu7gEk1DTID0sL-1LX-5rYDSQTjbAqLEhZ0pX_JrkXc1RoM13EHSTBUg1Sz-IPXzfJlMcxfuQfUfa8Pc05hgWg9MjDK0KkXT85Pdmdv84qjmdhRwvfMNDMvcHSTPAOfy-xr8Q5PNjkMJFq7Q4i5_ZgPZmD8KSn64OLf6QUlazd25r2R6kke2vAEfqjKhRbUU0-9w1aw1kN3bejHpFdfHuLbHdH1E0zUmC1d4KsyoQvdtSRdse3t5C_T4f19IeJolS8F7h4hybP9WAfOkxjQunWNO5dpDgEiaPt9GuCx0kUAGNlWElPgTuWd_WrpVE8g2_eETv2Kq6VCiuqWzeXcYvvzS0EDET3DPpb9INgZk8aPT5M9U1qA2QI4azXt3IjAvIFSDKyr7G5ELb1QaorsUJ6Gp9wnNdnzB1geOKw2V7nVjrB_2ewrIVXWn0D9HpJ5m2d00v5G9Ij7RpmTzXPoJMloHFJ14BxJUnw1UUzDJGT0Iv-W964SW-DMXaXuwnB6EyEJrG24gsa40Sre1DTZp8sHCALkj_2_GsDwFoB-DDJs688M8n39UvkEtxt0bNOoK699PUpjPo8JYClWLe-4zQOZDnzxLXhp-84KTjsZMoFEzIRdWZEN9Mc7Ghzua4vWVg-D6dJvCN7wzxRMd0QAQ4n3c0DeJbqsoVGX5OpZtU6wfytHksJrVAK1_8It_jmgqf2RuOOFRpIaZfaHpP-V6FjIbIXm9wfPBlZNuuszSC5ZApStH9URw7M92jrGjfgwEZmxirFbI6wBZFYC7C0f_1-5C7sBErpOycxtP-DKRDkEx-zGpv5CUZWrR1M73r7k4seAOeDn45411j7hhuDf6ae0Ez_k75Z3FwYWckdX7A1w_A4OS1P-GTfkd0A60PlsJLWu2FZf8cGtbJevQI6xTKNfxETiQGCDGpU3d0i8vfv49eq6yX6bebqwltWYiyPEsDfI2wzIsRiz6wPPWdEZ0xRQMAdwB4Bd4_ahnrLwJq7GzVEtDDX8PqahMoiMM_eCAsjul_Ed0Nwa-bw899k08C585jYqhd_vivYQsryhOH5Azkb5X1lOYRZpUUdmiolMBdS5O3cImV0mX2IGx4p-mR8bu4wL7fhnLhWTEyTqH_Tf40jNNo7QiCTPu4FZeRGa3c73n0-ZsfekJSjCNatmVEkdUF9JvEu2fcab-mPx11y4w2SgFsiSD9lXBt0DJ40xyrXdmdHd61WeNwml__NEJjtMqdKJXXHk6TQ_ypd3xZtxkhgv-k9NtkS9pSe7SLME8t6MbhO7YTGHk3soBWrWj74f7SYqxF5RIzW44-a_K09UG59EoToeN2Z9r9n9EIIraGYPYhSXpLYxmQTT819lI6XjwhN2COh9HZncSkBndmAkf91w5mZXIgCF1IVN7QxrZblgdC1c_JE63QvwiLiZFOl-9NbFo-84xbGazbSIBEMYzwC2TeGx7Cm5N1FnLr0uJnSIFuBrmOLxtWeR5lKPcVx3m00]--></g></svg>