<?xml version="1.0" encoding="us-ascii" standalone="no"?><svg xmlns="http://www.w3.org/2000/svg" xmlns:xlink="http://www.w3.org/1999/xlink" contentStyleType="text/css" height="669px" preserveAspectRatio="none" style="width:1039px;height:669px;background:#FFFFFF;" version="1.1" viewBox="0 0 1039 669" width="1039px" zoomAndPan="magnify"><defs/><g><text fill="#000000" font-family="sans-serif" font-size="14" font-weight="bold" lengthAdjust="spacing" textLength="356" x="343" y="27.6738">US09 - Sequence Diagram Partial - Create Message</text><rect fill="#FFFFFF" height="477.0859" style="stroke:#181818;stroke-width:1.0;" width="10" x="249" y="132.9688"/><rect fill="#FFFFFF" height="28.5234" style="stroke:#181818;stroke-width:1.0;" width="10" x="499.5" y="226.5391"/><rect fill="#FFFFFF" height="28.5234" style="stroke:#181818;stroke-width:1.0;" width="10" x="499.5" y="340.6328"/><rect fill="#FFFFFF" height="167.8516" style="stroke:#181818;stroke-width:1.0;" width="10" x="641" y="397.6797"/><rect fill="#FFFFFF" height="75.0469" style="stroke:#181818;stroke-width:1.0;" width="10" x="646" y="490.4844"/><rect fill="#FFFFFF" height="33.5234" style="stroke:#181818;stroke-width:1.0;" width="10" x="651" y="532.0078"/><rect fill="#FFFFFF" height="28.5234" style="stroke:#181818;stroke-width:1.0;" width="10" x="845" y="283.5859"/><rect fill="none" height="425.5625" style="stroke:#000000;stroke-width:1.5;" width="874" x="159" y="147.9688"/><line style="stroke:#181818;stroke-width:0.5;stroke-dasharray:5.0,5.0;" x1="254" x2="254" y1="87.9219" y2="619.0547"/><line style="stroke:#181818;stroke-width:0.5;stroke-dasharray:5.0,5.0;" x1="397" x2="397" y1="87.9219" y2="619.0547"/><line style="stroke:#181818;stroke-width:0.5;stroke-dasharray:5.0,5.0;" x1="504" x2="504" y1="87.9219" y2="619.0547"/><line style="stroke:#181818;stroke-width:0.5;stroke-dasharray:5.0,5.0;" x1="645.5" x2="645.5" y1="87.9219" y2="619.0547"/><line style="stroke:#181818;stroke-width:0.5;stroke-dasharray:5.0,5.0;" x1="850" x2="850" y1="87.9219" y2="619.0547"/><line style="stroke:#181818;stroke-width:0.5;stroke-dasharray:5.0,5.0;" x1="985" x2="985" y1="443.8203" y2="619.0547"/><rect fill="#E3E3E3" height="29.6406" rx="2.5" ry="2.5" style="stroke:#181818;stroke-width:0.5;" width="170" x="169" y="57.2813"/><text fill="#000000" font-family="sans-serif" font-size="14" lengthAdjust="spacing" textLength="156" x="176" y="76.9551">:SendMessageController</text><rect fill="#E3E3E3" height="29.6406" rx="2.5" ry="2.5" style="stroke:#181818;stroke-width:0.5;" width="170" x="169" y="618.0547"/><text fill="#000000" font-family="sans-serif" font-size="14" lengthAdjust="spacing" textLength="156" x="176" y="637.7285">:SendMessageController</text><rect fill="#E3E3E3" height="29.6406" rx="2.5" ry="2.5" style="stroke:#181818;stroke-width:0.5;" width="97" x="349" y="57.2813"/><text fill="#000000" font-family="sans-serif" font-size="14" lengthAdjust="spacing" textLength="83" x="356" y="76.9551">:Repositories</text><rect fill="#E3E3E3" height="29.6406" rx="2.5" ry="2.5" style="stroke:#181818;stroke-width:0.5;" width="97" x="349" y="618.0547"/><text fill="#000000" font-family="sans-serif" font-size="14" lengthAdjust="spacing" textLength="83" x="356" y="637.7285">:Repositories</text><rect fill="#E3E3E3" height="45.2813" rx="2.5" ry="2.5" style="stroke:#181818;stroke-width:0.5;" width="97" x="456" y="41.6406"/><text fill="#000000" font-family="sans-serif" font-size="14" lengthAdjust="spacing" textLength="74" x="467.5" y="61.3145">repositories</text><text fill="#000000" font-family="sans-serif" font-size="14" lengthAdjust="spacing" textLength="83" x="463" y="76.9551">:Repositories</text><rect fill="#E3E3E3" height="45.2813" rx="2.5" ry="2.5" style="stroke:#181818;stroke-width:0.5;" width="97" x="456" y="618.0547"/><text fill="#000000" font-family="sans-serif" font-size="14" lengthAdjust="spacing" textLength="74" x="467.5" y="637.7285">repositories</text><text fill="#000000" font-family="sans-serif" font-size="14" lengthAdjust="spacing" textLength="83" x="463" y="653.3691">:Repositories</text><rect fill="#E3E3E3" height="45.2813" rx="2.5" ry="2.5" style="stroke:#181818;stroke-width:0.5;" width="147" x="572.5" y="41.6406"/><text fill="#000000" font-family="sans-serif" font-size="14" lengthAdjust="spacing" textLength="129" x="579.5" y="61.3145">messageRepository:</text><text fill="#000000" font-family="sans-serif" font-size="14" lengthAdjust="spacing" textLength="129" x="581.5" y="76.9551">Message Repository</text><rect fill="#E3E3E3" height="45.2813" rx="2.5" ry="2.5" style="stroke:#181818;stroke-width:0.5;" width="147" x="572.5" y="618.0547"/><text fill="#000000" font-family="sans-serif" font-size="14" lengthAdjust="spacing" textLength="129" x="579.5" y="637.7285">messageRepository:</text><text fill="#000000" font-family="sans-serif" font-size="14" lengthAdjust="spacing" textLength="129" x="581.5" y="653.3691">Message Repository</text><rect fill="#E3E3E3" height="45.2813" rx="2.5" ry="2.5" style="stroke:#181818;stroke-width:0.5;" width="176" x="762" y="41.6406"/><text fill="#000000" font-family="sans-serif" font-size="14" lengthAdjust="spacing" textLength="157" x="771.5" y="61.3145">authenticationRepository</text><text fill="#000000" font-family="sans-serif" font-size="14" lengthAdjust="spacing" textLength="162" x="769" y="76.9551">:AuthenticationRepository</text><rect fill="#E3E3E3" height="45.2813" rx="2.5" ry="2.5" style="stroke:#181818;stroke-width:0.5;" width="176" x="762" y="618.0547"/><text fill="#000000" font-family="sans-serif" font-size="14" lengthAdjust="spacing" textLength="157" x="771.5" y="637.7285">authenticationRepository</text><text fill="#000000" font-family="sans-serif" font-size="14" lengthAdjust="spacing" textLength="162" x="769" y="653.3691">:AuthenticationRepository</text><rect fill="#E3E3E3" height="45.2813" rx="2.5" ry="2.5" style="stroke:#181818;stroke-width:0.5;" width="75" x="948" y="618.0547"/><text fill="#000000" font-family="sans-serif" font-size="14" lengthAdjust="spacing" textLength="61" x="955" y="637.7285">message:</text><text fill="#000000" font-family="sans-serif" font-size="14" lengthAdjust="spacing" textLength="57" x="957" y="653.3691">Message</text><rect fill="#FFFFFF" height="477.0859" style="stroke:#181818;stroke-width:1.0;" width="10" x="249" y="132.9688"/><rect fill="#FFFFFF" height="28.5234" style="stroke:#181818;stroke-width:1.0;" width="10" x="499.5" y="226.5391"/><rect fill="#FFFFFF" height="28.5234" style="stroke:#181818;stroke-width:1.0;" width="10" x="499.5" y="340.6328"/><rect fill="#FFFFFF" height="167.8516" style="stroke:#181818;stroke-width:1.0;" width="10" x="641" y="397.6797"/><rect fill="#FFFFFF" height="75.0469" style="stroke:#181818;stroke-width:1.0;" width="10" x="646" y="490.4844"/><rect fill="#FFFFFF" height="33.5234" style="stroke:#181818;stroke-width:1.0;" width="10" x="651" y="532.0078"/><rect fill="#FFFFFF" height="28.5234" style="stroke:#181818;stroke-width:1.0;" width="10" x="845" y="283.5859"/><polygon fill="#181818" points="237,128.9688,247,132.9688,237,136.9688,241,132.9688" style="stroke:#181818;stroke-width:1.0;"/><line style="stroke:#181818;stroke-width:1.0;" x1="0" x2="243" y1="132.9688" y2="132.9688"/><text fill="#000000" font-family="sans-serif" font-size="13" font-weight="bold" lengthAdjust="spacing" textLength="7" x="7" y="120.9521">1</text><text fill="#000000" font-family="sans-serif" font-size="13" lengthAdjust="spacing" textLength="215" x="18" y="113.6904">createMessage(name, phone number</text><text fill="#000000" font-family="sans-serif" font-size="13" lengthAdjust="spacing" textLength="133" x="18" y="128.2139">and date and time slot)</text><path d="M159,147.9688 L305,147.9688 L305,154.4922 L295,164.4922 L159,164.4922 L159,147.9688 " fill="#EEEEEE" style="stroke:#000000;stroke-width:1.5;"/><rect fill="none" height="425.5625" style="stroke:#000000;stroke-width:1.5;" width="874" x="159" y="147.9688"/><text fill="#000000" font-family="sans-serif" font-size="13" font-weight="bold" lengthAdjust="spacing" textLength="101" x="174" y="160.7373">Create Message</text><line style="stroke:#181818;stroke-width:1.0;" x1="259" x2="301" y1="185.0156" y2="185.0156"/><line style="stroke:#181818;stroke-width:1.0;" x1="301" x2="301" y1="185.0156" y2="198.0156"/><line style="stroke:#181818;stroke-width:1.0;" x1="260" x2="301" y1="198.0156" y2="198.0156"/><polygon fill="#181818" points="270,194.0156,260,198.0156,270,202.0156,266,198.0156" style="stroke:#181818;stroke-width:1.0;"/><text fill="#000000" font-family="sans-serif" font-size="13" font-weight="bold" lengthAdjust="spacing" textLength="7" x="266" y="180.2607">2</text><text fill="#000000" font-family="sans-serif" font-size="13" lengthAdjust="spacing" textLength="104" x="277" y="180.2607">Property Selected</text><polygon fill="#181818" points="487.5,222.5391,497.5,226.5391,487.5,230.5391,491.5,226.5391" style="stroke:#181818;stroke-width:1.0;"/><line style="stroke:#181818;stroke-width:1.0;" x1="259" x2="493.5" y1="226.5391" y2="226.5391"/><text fill="#000000" font-family="sans-serif" font-size="13" font-weight="bold" lengthAdjust="spacing" textLength="7" x="266" y="221.7842">3</text><text fill="#000000" font-family="sans-serif" font-size="13" lengthAdjust="spacing" textLength="164" x="277" y="221.7842">getAutenticationRepository()</text><polygon fill="#181818" points="270,251.0625,260,255.0625,270,259.0625,266,255.0625" style="stroke:#181818;stroke-width:1.0;"/><line style="stroke:#181818;stroke-width:1.0;stroke-dasharray:2.0,2.0;" x1="264" x2="503.5" y1="255.0625" y2="255.0625"/><text fill="#000000" font-family="sans-serif" font-size="13" font-weight="bold" lengthAdjust="spacing" textLength="7" x="276" y="250.3076">4</text><text fill="#000000" font-family="sans-serif" font-size="13" lengthAdjust="spacing" textLength="136" x="287" y="250.3076">authenticatioRepository</text><polygon fill="#181818" points="833,279.5859,843,283.5859,833,287.5859,837,283.5859" style="stroke:#181818;stroke-width:1.0;"/><line style="stroke:#181818;stroke-width:1.0;" x1="259" x2="839" y1="283.5859" y2="283.5859"/><text fill="#000000" font-family="sans-serif" font-size="13" font-weight="bold" lengthAdjust="spacing" textLength="7" x="266" y="278.8311">5</text><text fill="#000000" font-family="sans-serif" font-size="13" lengthAdjust="spacing" textLength="115" x="277" y="278.8311">getCurrentSession()</text><polygon fill="#181818" points="270,308.1094,260,312.1094,270,316.1094,266,312.1094" style="stroke:#181818;stroke-width:1.0;"/><line style="stroke:#181818;stroke-width:1.0;stroke-dasharray:2.0,2.0;" x1="264" x2="849" y1="312.1094" y2="312.1094"/><text fill="#000000" font-family="sans-serif" font-size="13" font-weight="bold" lengthAdjust="spacing" textLength="7" x="276" y="307.3545">6</text><text fill="#000000" font-family="sans-serif" font-size="13" lengthAdjust="spacing" textLength="107" x="287" y="307.3545">getCurrentSession</text><polygon fill="#181818" points="487.5,336.6328,497.5,340.6328,487.5,344.6328,491.5,340.6328" style="stroke:#181818;stroke-width:1.0;"/><line style="stroke:#181818;stroke-width:1.0;" x1="259" x2="493.5" y1="340.6328" y2="340.6328"/><text fill="#000000" font-family="sans-serif" font-size="13" font-weight="bold" lengthAdjust="spacing" textLength="7" x="266" y="335.8779">7</text><text fill="#000000" font-family="sans-serif" font-size="13" lengthAdjust="spacing" textLength="141" x="277" y="335.8779">getMessageRepository()</text><polygon fill="#181818" points="270,365.1563,260,369.1563,270,373.1563,266,369.1563" style="stroke:#181818;stroke-width:1.0;"/><line style="stroke:#181818;stroke-width:1.0;stroke-dasharray:2.0,2.0;" x1="264" x2="503.5" y1="369.1563" y2="369.1563"/><text fill="#000000" font-family="sans-serif" font-size="13" font-weight="bold" lengthAdjust="spacing" textLength="7" x="276" y="364.4014">8</text><text fill="#000000" font-family="sans-serif" font-size="13" lengthAdjust="spacing" textLength="115" x="287" y="364.4014">messageRepository</text><polygon fill="#181818" points="629,393.6797,639,397.6797,629,401.6797,633,397.6797" style="stroke:#181818;stroke-width:1.0;"/><line style="stroke:#181818;stroke-width:1.0;" x1="259" x2="635" y1="397.6797" y2="397.6797"/><text fill="#000000" font-family="sans-serif" font-size="13" font-weight="bold" lengthAdjust="spacing" textLength="7" x="266" y="392.9248">9</text><text fill="#000000" font-family="sans-serif" font-size="13" lengthAdjust="spacing" textLength="352" x="277" y="392.9248">createMessage(name, phone number and date and time slot)</text><polygon fill="#181818" points="936,436.7266,946,440.7266,936,444.7266,940,440.7266" style="stroke:#181818;stroke-width:1.0;"/><line style="stroke:#181818;stroke-width:1.0;" x1="651" x2="942" y1="440.7266" y2="440.7266"/><text fill="#000000" font-family="sans-serif" font-size="13" font-weight="bold" lengthAdjust="spacing" textLength="14" x="658" y="428.71">10</text><text fill="#000000" font-family="sans-serif" font-size="13" lengthAdjust="spacing" textLength="215" x="676" y="421.4482">createMessage(name, phone number</text><text fill="#000000" font-family="sans-serif" font-size="13" lengthAdjust="spacing" textLength="133" x="676" y="435.9717">and date and time slot)</text><rect fill="#E3E3E3" height="45.2813" rx="2.5" ry="2.5" style="stroke:#181818;stroke-width:0.5;" width="75" x="948" y="405.6797"/><text fill="#000000" font-family="sans-serif" font-size="14" lengthAdjust="spacing" textLength="61" x="955" y="425.3535">message:</text><text fill="#000000" font-family="sans-serif" font-size="14" lengthAdjust="spacing" textLength="57" x="957" y="440.9941">Message</text><line style="stroke:#181818;stroke-width:1.0;" x1="651" x2="698" y1="477.4844" y2="477.4844"/><line style="stroke:#181818;stroke-width:1.0;" x1="698" x2="698" y1="477.4844" y2="490.4844"/><line style="stroke:#181818;stroke-width:1.0;" x1="657" x2="698" y1="490.4844" y2="490.4844"/><polygon fill="#181818" points="667,486.4844,657,490.4844,667,494.4844,663,490.4844" style="stroke:#181818;stroke-width:1.0;"/><text fill="#000000" font-family="sans-serif" font-size="13" font-weight="bold" lengthAdjust="spacing" textLength="14" x="663" y="472.7295">11</text><text fill="#000000" font-family="sans-serif" font-size="13" lengthAdjust="spacing" textLength="135" x="681" y="472.7295">addMessage(message)</text><line style="stroke:#181818;stroke-width:1.0;" x1="656" x2="703" y1="519.0078" y2="519.0078"/><line style="stroke:#181818;stroke-width:1.0;" x1="703" x2="703" y1="519.0078" y2="532.0078"/><line style="stroke:#181818;stroke-width:1.0;" x1="662" x2="703" y1="532.0078" y2="532.0078"/><polygon fill="#181818" points="672,528.0078,662,532.0078,672,536.0078,668,532.0078" style="stroke:#181818;stroke-width:1.0;"/><text fill="#000000" font-family="sans-serif" font-size="13" font-weight="bold" lengthAdjust="spacing" textLength="14" x="668" y="514.2529">12</text><text fill="#000000" font-family="sans-serif" font-size="13" lengthAdjust="spacing" textLength="157" x="686" y="514.2529">validateMessage(message)</text><polygon fill="#181818" points="270,561.5313,260,565.5313,270,569.5313,266,565.5313" style="stroke:#181818;stroke-width:1.0;"/><line style="stroke:#181818;stroke-width:1.0;stroke-dasharray:2.0,2.0;" x1="264" x2="645" y1="565.5313" y2="565.5313"/><text fill="#000000" font-family="sans-serif" font-size="13" font-weight="bold" lengthAdjust="spacing" textLength="14" x="276" y="560.7764">13</text><text fill="#000000" font-family="sans-serif" font-size="13" lengthAdjust="spacing" textLength="53" x="294" y="560.7764">Message</text><polygon fill="#181818" points="11,597.0547,1,601.0547,11,605.0547,7,601.0547" style="stroke:#181818;stroke-width:1.0;"/><line style="stroke:#181818;stroke-width:1.0;stroke-dasharray:2.0,2.0;" x1="5" x2="248" y1="601.0547" y2="601.0547"/><text fill="#000000" font-family="sans-serif" font-size="13" font-weight="bold" lengthAdjust="spacing" textLength="14" x="17" y="596.2998">14</text><text fill="#000000" font-family="sans-serif" font-size="13" lengthAdjust="spacing" textLength="53" x="35" y="596.2998">Message</text><!--SRC=[lLLDRzim3BthLn2zD2tcPTXjnb1Wo8uhKDJRhHVLOcsXigH9ShVy-yaVYIKxIeqDQqwE-4Y-nqVPbxLpskRRhHPKkhOHxqlLR2t-R56Mc35EAqCRGkmpbvhwHsYKL6LjL8FWJ8j1HDFocLPOkBr0C5WwAYiH0cnDcVh5PGLFL5Wan77deJ-A3vyWWs9i2b-7fd17ZUDK-D3E87K8jsYjRq08RPsIRVE8Xf3BcZE49wNSe_fDYEwIIgwz6hZ82vHipDefwOmI0iq5K0kxx_VVPk1xrCfofmn7ssEE1_iOQGBWWpoNzp5ER0OgKpo71pdo2xBw8WjiNCgFe4Rf_rF7bPnGdi-NHAWlcmgU99eVsOMKulbdD_qiSoXxaqRyHj86tu6kbKGOe5ugbGnOvsJtuBXV8IkKko8m_cZf-4iNxzqv7bT6jNgn15samq5sCn2uCqgZSNk_IS9l7xAfGe0DtO4SAdH-9AScihcAqe_SGdSZH5Wu6yVYEqHE1GCFKnc-Nlx0F-NW86RN6kEZXP-IZwOq9BSWWYSx1UeMBLEwrhKyQzJj_4hCvAstwenTotjtgiKQm-Pw5fLXnQLvxSeajIzr97EMn2QsrzVmJrVxhvf68wBiy0hVZE6tKnyHUQ62is0ERyLcsit3ko-L76pbkZN-FqbBTVup79z-phAPg3y0]--></g></svg>