<?xml version="1.0" encoding="us-ascii" standalone="no"?><svg xmlns="http://www.w3.org/2000/svg" xmlns:xlink="http://www.w3.org/1999/xlink" contentStyleType="text/css" height="921.6px" preserveAspectRatio="none" style="width:1575px;height:921px;background:#FFFFFF;" version="1.1" viewBox="0 0 1575 921" width="1575.2px" zoomAndPan="magnify"><defs/><g><text fill="#000000" font-family="sans-serif" font-size="11.2" font-weight="bold" lengthAdjust="spacing" textLength="168" x="702.8" y="22.1391">US09 - Sequence Diagram Full</text><rect fill="#FFFFFF" height="748.8813" style="stroke:#181818;stroke-width:0.8000000000000002;" width="8" x="16.8" y="101.825"/><rect fill="#FFFFFF" height="237.8813" style="stroke:#181818;stroke-width:0.8000000000000002;" width="8" x="400" y="118.2438"/><rect fill="#FFFFFF" height="34.4375" style="stroke:#181818;stroke-width:0.8000000000000002;" width="8" x="400" y="378.9438"/><rect fill="#FFFFFF" height="407.3063" style="stroke:#181818;stroke-width:0.8000000000000002;" width="8" x="400" y="436.2"/><rect fill="#FFFFFF" height="159.7313" style="stroke:#181818;stroke-width:0.8000000000000002;" width="8" x="612.8" y="173.575"/><rect fill="#FFFFFF" height="350.05" style="stroke:#181818;stroke-width:0.8000000000000002;" width="8" x="612.8" y="470.6375"/><rect fill="#FFFFFF" height="22.8188" style="stroke:#181818;stroke-width:0.8000000000000002;" width="8" x="729.6" y="196.3938"/><rect fill="#FFFFFF" height="22.8188" style="stroke:#181818;stroke-width:0.8000000000000002;" width="8" x="830.4" y="242.0313"/><rect fill="#FFFFFF" height="22.8188" style="stroke:#181818;stroke-width:0.8000000000000002;" width="8" x="830.4" y="526.675"/><rect fill="#FFFFFF" height="22.8188" style="stroke:#181818;stroke-width:0.8000000000000002;" width="8" x="830.4" y="617.95"/><rect fill="#FFFFFF" height="22.8188" style="stroke:#181818;stroke-width:0.8000000000000002;" width="8" x="977.6" y="287.6688"/><rect fill="#FFFFFF" height="22.8188" style="stroke:#181818;stroke-width:0.8000000000000002;" width="8" x="1156.4" y="572.3125"/><rect fill="#FFFFFF" height="134.2813" style="stroke:#181818;stroke-width:0.8000000000000002;" width="8" x="1293.6" y="663.5875"/><rect fill="#FFFFFF" height="60.0375" style="stroke:#181818;stroke-width:0.8000000000000002;" width="8" x="1297.6" y="737.8313"/><rect fill="#FFFFFF" height="26.8188" style="stroke:#181818;stroke-width:0.8000000000000002;" width="8" x="1301.6" y="771.05"/><line style="stroke:#181818;stroke-width:0.4000000000000001;stroke-dasharray:5.0,5.0;" x1="20.8" x2="20.8" y1="93.825" y2="857.9063"/><line style="stroke:#181818;stroke-width:0.4000000000000001;stroke-dasharray:5.0,5.0;" x1="404" x2="404" y1="93.825" y2="857.9063"/><line style="stroke:#181818;stroke-width:0.4000000000000001;stroke-dasharray:5.0,5.0;" x1="616.8" x2="616.8" y1="148.9" y2="857.9063"/><line style="stroke:#181818;stroke-width:0.4000000000000001;stroke-dasharray:5.0,5.0;" x1="733.2" x2="733.2" y1="93.825" y2="857.9063"/><line style="stroke:#181818;stroke-width:0.4000000000000001;stroke-dasharray:5.0,5.0;" x1="834" x2="834" y1="93.825" y2="857.9063"/><line style="stroke:#181818;stroke-width:0.4000000000000001;stroke-dasharray:5.0,5.0;" x1="981.2" x2="981.2" y1="93.825" y2="857.9063"/><line style="stroke:#181818;stroke-width:0.4000000000000001;stroke-dasharray:5.0,5.0;" x1="1160.4" x2="1160.4" y1="93.825" y2="857.9063"/><line style="stroke:#181818;stroke-width:0.4000000000000001;stroke-dasharray:5.0,5.0;" x1="1297.2" x2="1297.2" y1="93.825" y2="857.9063"/><line style="stroke:#181818;stroke-width:0.4000000000000001;stroke-dasharray:5.0,5.0;" x1="1540" x2="1540" y1="700.5" y2="857.9063"/><text fill="#000000" font-family="sans-serif" font-size="11.2" lengthAdjust="spacing" textLength="28.8" x="4" y="91.4516">Client</text><ellipse cx="20.8" cy="40.1125" fill="#E3E3E3" rx="6.4" ry="6.4" style="stroke:#181818;stroke-width:0.4000000000000001;"/><path d="M20.8,46.5125 L20.8,68.1125 M10.4,52.9125 L31.2,52.9125 M20.8,68.1125 L10.4,80.1125 M20.8,68.1125 L31.2,80.1125 " fill="none" style="stroke:#181818;stroke-width:0.4000000000000001;"/><text fill="#000000" font-family="sans-serif" font-size="11.2" lengthAdjust="spacing" textLength="28.8" x="4" y="867.2453">Client</text><ellipse cx="20.8" cy="876.4188" fill="#E3E3E3" rx="6.4" ry="6.4" style="stroke:#181818;stroke-width:0.4000000000000001;"/><path d="M20.8,882.8188 L20.8,904.4188 M10.4,889.2188 L31.2,889.2188 M20.8,904.4188 L10.4,916.4188 M20.8,904.4188 L31.2,916.4188 " fill="none" style="stroke:#181818;stroke-width:0.4000000000000001;"/><rect fill="#E3E3E3" height="23.7125" rx="2" ry="2" style="stroke:#181818;stroke-width:0.4000000000000001;" width="96" x="356" y="69.3125"/><text fill="#000000" font-family="sans-serif" font-size="11.2" lengthAdjust="spacing" textLength="84.8" x="361.6" y="85.0516">:SendMessageUI</text><rect fill="#E3E3E3" height="23.7125" rx="2" ry="2" style="stroke:#181818;stroke-width:0.4000000000000001;" width="96" x="356" y="857.1063"/><text fill="#000000" font-family="sans-serif" font-size="11.2" lengthAdjust="spacing" textLength="84.8" x="361.6" y="872.8453">:SendMessageUI</text><rect fill="#E3E3E3" height="23.7125" rx="2" ry="2" style="stroke:#181818;stroke-width:0.4000000000000001;" width="136" x="548.8" y="857.1063"/><text fill="#000000" font-family="sans-serif" font-size="11.2" lengthAdjust="spacing" textLength="124.8" x="554.4" y="872.8453">:SendMessageController</text><rect fill="#E3E3E3" height="23.7125" rx="2" ry="2" style="stroke:#181818;stroke-width:0.4000000000000001;" width="77.6" x="694.8" y="69.3125"/><text fill="#000000" font-family="sans-serif" font-size="11.2" lengthAdjust="spacing" textLength="66.4" x="700.4" y="85.0516">:Repositories</text><rect fill="#E3E3E3" height="23.7125" rx="2" ry="2" style="stroke:#181818;stroke-width:0.4000000000000001;" width="77.6" x="694.8" y="857.1063"/><text fill="#000000" font-family="sans-serif" font-size="11.2" lengthAdjust="spacing" textLength="66.4" x="700.4" y="872.8453">:Repositories</text><rect fill="#E3E3E3" height="36.225" rx="2" ry="2" style="stroke:#181818;stroke-width:0.4000000000000001;" width="77.6" x="795.6" y="56.8"/><text fill="#000000" font-family="sans-serif" font-size="11.2" lengthAdjust="spacing" textLength="59.2" x="804.8" y="72.5391">repositories</text><text fill="#000000" font-family="sans-serif" font-size="11.2" lengthAdjust="spacing" textLength="66.4" x="801.2" y="85.0516">:Repositories</text><rect fill="#E3E3E3" height="36.225" rx="2" ry="2" style="stroke:#181818;stroke-width:0.4000000000000001;" width="77.6" x="795.6" y="857.1063"/><text fill="#000000" font-family="sans-serif" font-size="11.2" lengthAdjust="spacing" textLength="59.2" x="804.8" y="872.8453">repositories</text><text fill="#000000" font-family="sans-serif" font-size="11.2" lengthAdjust="spacing" textLength="66.4" x="801.2" y="885.3578">:Repositories</text><rect fill="#E3E3E3" height="36.225" rx="2" ry="2" style="stroke:#181818;stroke-width:0.4000000000000001;" width="200.8" x="881.2" y="56.8"/><text fill="#000000" font-family="sans-serif" font-size="11.2" lengthAdjust="spacing" textLength="179.2" x="892" y="72.5391">publishedAnnouncementRepository</text><text fill="#000000" font-family="sans-serif" font-size="11.2" lengthAdjust="spacing" textLength="189.6" x="886.8" y="85.0516">:Published Announcement Repository</text><rect fill="#E3E3E3" height="36.225" rx="2" ry="2" style="stroke:#181818;stroke-width:0.4000000000000001;" width="200.8" x="881.2" y="857.1063"/><text fill="#000000" font-family="sans-serif" font-size="11.2" lengthAdjust="spacing" textLength="179.2" x="892" y="872.8453">publishedAnnouncementRepository</text><text fill="#000000" font-family="sans-serif" font-size="11.2" lengthAdjust="spacing" textLength="189.6" x="886.8" y="885.3578">:Published Announcement Repository</text><rect fill="#E3E3E3" height="36.225" rx="2" ry="2" style="stroke:#181818;stroke-width:0.4000000000000001;" width="140.8" x="1090" y="56.8"/><text fill="#000000" font-family="sans-serif" font-size="11.2" lengthAdjust="spacing" textLength="125.6" x="1097.6" y="72.5391">authenticationRepository</text><text fill="#000000" font-family="sans-serif" font-size="11.2" lengthAdjust="spacing" textLength="129.6" x="1095.6" y="85.0516">:AuthenticationRepository</text><rect fill="#E3E3E3" height="36.225" rx="2" ry="2" style="stroke:#181818;stroke-width:0.4000000000000001;" width="140.8" x="1090" y="857.1063"/><text fill="#000000" font-family="sans-serif" font-size="11.2" lengthAdjust="spacing" textLength="125.6" x="1097.6" y="872.8453">authenticationRepository</text><text fill="#000000" font-family="sans-serif" font-size="11.2" lengthAdjust="spacing" textLength="129.6" x="1095.6" y="885.3578">:AuthenticationRepository</text><rect fill="#E3E3E3" height="36.225" rx="2" ry="2" style="stroke:#181818;stroke-width:0.4000000000000001;" width="117.6" x="1238.8" y="56.8"/><text fill="#000000" font-family="sans-serif" font-size="11.2" lengthAdjust="spacing" textLength="103.2" x="1244.4" y="72.5391">messageRepository:</text><text fill="#000000" font-family="sans-serif" font-size="11.2" lengthAdjust="spacing" textLength="103.2" x="1246" y="85.0516">Message Repository</text><rect fill="#E3E3E3" height="36.225" rx="2" ry="2" style="stroke:#181818;stroke-width:0.4000000000000001;" width="117.6" x="1238.8" y="857.1063"/><text fill="#000000" font-family="sans-serif" font-size="11.2" lengthAdjust="spacing" textLength="103.2" x="1244.4" y="872.8453">messageRepository:</text><text fill="#000000" font-family="sans-serif" font-size="11.2" lengthAdjust="spacing" textLength="103.2" x="1246" y="885.3578">Message Repository</text><rect fill="#E3E3E3" height="36.225" rx="2" ry="2" style="stroke:#181818;stroke-width:0.4000000000000001;" width="60" x="1510.4" y="857.1063"/><text fill="#000000" font-family="sans-serif" font-size="11.2" lengthAdjust="spacing" textLength="48.8" x="1516" y="872.8453">message:</text><text fill="#000000" font-family="sans-serif" font-size="11.2" lengthAdjust="spacing" textLength="45.6" x="1517.6" y="885.3578">Message</text><rect fill="#FFFFFF" height="748.8813" style="stroke:#181818;stroke-width:0.8000000000000002;" width="8" x="16.8" y="101.825"/><rect fill="#FFFFFF" height="237.8813" style="stroke:#181818;stroke-width:0.8000000000000002;" width="8" x="400" y="118.2438"/><rect fill="#FFFFFF" height="34.4375" style="stroke:#181818;stroke-width:0.8000000000000002;" width="8" x="400" y="378.9438"/><rect fill="#FFFFFF" height="407.3063" style="stroke:#181818;stroke-width:0.8000000000000002;" width="8" x="400" y="436.2"/><rect fill="#FFFFFF" height="159.7313" style="stroke:#181818;stroke-width:0.8000000000000002;" width="8" x="612.8" y="173.575"/><rect fill="#FFFFFF" height="350.05" style="stroke:#181818;stroke-width:0.8000000000000002;" width="8" x="612.8" y="470.6375"/><rect fill="#FFFFFF" height="22.8188" style="stroke:#181818;stroke-width:0.8000000000000002;" width="8" x="729.6" y="196.3938"/><rect fill="#FFFFFF" height="22.8188" style="stroke:#181818;stroke-width:0.8000000000000002;" width="8" x="830.4" y="242.0313"/><rect fill="#FFFFFF" height="22.8188" style="stroke:#181818;stroke-width:0.8000000000000002;" width="8" x="830.4" y="526.675"/><rect fill="#FFFFFF" height="22.8188" style="stroke:#181818;stroke-width:0.8000000000000002;" width="8" x="830.4" y="617.95"/><rect fill="#FFFFFF" height="22.8188" style="stroke:#181818;stroke-width:0.8000000000000002;" width="8" x="977.6" y="287.6688"/><rect fill="#FFFFFF" height="22.8188" style="stroke:#181818;stroke-width:0.8000000000000002;" width="8" x="1156.4" y="572.3125"/><rect fill="#FFFFFF" height="134.2813" style="stroke:#181818;stroke-width:0.8000000000000002;" width="8" x="1293.6" y="663.5875"/><rect fill="#FFFFFF" height="60.0375" style="stroke:#181818;stroke-width:0.8000000000000002;" width="8" x="1297.6" y="737.8313"/><rect fill="#FFFFFF" height="26.8188" style="stroke:#181818;stroke-width:0.8000000000000002;" width="8" x="1301.6" y="771.05"/><polygon fill="#181818" points="390.4,115.0438,398.4,118.2438,390.4,121.4438,393.6,118.2438" style="stroke:#181818;stroke-width:0.8000000000000002;"/><line style="stroke:#181818;stroke-width:0.8000000000000002;" x1="24.8" x2="395.2" y1="118.2438" y2="118.2438"/><text fill="#000000" font-family="sans-serif" font-size="10.4" font-weight="bold" lengthAdjust="spacing" textLength="5.6" x="30.4" y="114.4398">1</text><text fill="#000000" font-family="sans-serif" font-size="10.4" lengthAdjust="spacing" textLength="108.8" x="39.2" y="114.4398">asks to schedule a visit</text><polygon fill="#181818" points="539.2,137.8625,547.2,141.0625,539.2,144.2625,542.4,141.0625" style="stroke:#181818;stroke-width:0.8000000000000002;"/><line style="stroke:#181818;stroke-width:0.8000000000000002;" x1="408" x2="544" y1="141.0625" y2="141.0625"/><text fill="#000000" font-family="sans-serif" font-size="10.4" font-weight="bold" lengthAdjust="spacing" textLength="5.6" x="413.6" y="137.2586">2</text><text fill="#000000" font-family="sans-serif" font-size="10.4" lengthAdjust="spacing" textLength="28.8" x="422.4" y="137.2586">create</text><rect fill="#E3E3E3" height="23.7125" rx="2" ry="2" style="stroke:#181818;stroke-width:0.4000000000000001;" width="136" x="548.8" y="124.6438"/><text fill="#000000" font-family="sans-serif" font-size="11.2" lengthAdjust="spacing" textLength="124.8" x="554.4" y="140.3828">:SendMessageController</text><polygon fill="#181818" points="603.2,170.375,611.2,173.575,603.2,176.775,606.4,173.575" style="stroke:#181818;stroke-width:0.8000000000000002;"/><line style="stroke:#181818;stroke-width:0.8000000000000002;" x1="408" x2="608" y1="173.575" y2="173.575"/><text fill="#000000" font-family="sans-serif" font-size="10.4" font-weight="bold" lengthAdjust="spacing" textLength="5.6" x="413.6" y="169.7711">3</text><text fill="#000000" font-family="sans-serif" font-size="10.4" lengthAdjust="spacing" textLength="68" x="422.4" y="169.7711">getProperties()</text><polygon fill="#181818" points="720,193.1938,728,196.3938,720,199.5938,723.2,196.3938" style="stroke:#181818;stroke-width:0.8000000000000002;"/><line style="stroke:#181818;stroke-width:0.8000000000000002;" x1="620.8" x2="724.8" y1="196.3938" y2="196.3938"/><text fill="#000000" font-family="sans-serif" font-size="10.4" font-weight="bold" lengthAdjust="spacing" textLength="5.6" x="626.4" y="192.5898">4</text><text fill="#000000" font-family="sans-serif" font-size="10.4" lengthAdjust="spacing" textLength="60" x="635.2" y="192.5898">getInstance()</text><polygon fill="#181818" points="629.6,216.0125,621.6,219.2125,629.6,222.4125,626.4,219.2125" style="stroke:#181818;stroke-width:0.8000000000000002;"/><line style="stroke:#181818;stroke-width:0.8000000000000002;stroke-dasharray:2.0,2.0;" x1="624.8" x2="732.8" y1="219.2125" y2="219.2125"/><text fill="#000000" font-family="sans-serif" font-size="10.4" font-weight="bold" lengthAdjust="spacing" textLength="5.6" x="634.4" y="215.4086">5</text><text fill="#000000" font-family="sans-serif" font-size="10.4" lengthAdjust="spacing" textLength="53.6" x="643.2" y="215.4086">repositories</text><polygon fill="#181818" points="820.8,238.8313,828.8,242.0313,820.8,245.2313,824,242.0313" style="stroke:#181818;stroke-width:0.8000000000000002;"/><line style="stroke:#181818;stroke-width:0.8000000000000002;" x1="620.8" x2="825.6" y1="242.0313" y2="242.0313"/><text fill="#000000" font-family="sans-serif" font-size="10.4" font-weight="bold" lengthAdjust="spacing" textLength="5.6" x="626.4" y="238.2273">6</text><text fill="#000000" font-family="sans-serif" font-size="10.4" lengthAdjust="spacing" textLength="185.6" x="635.2" y="238.2273">getPublishedAnnouncementRepository()</text><polygon fill="#181818" points="629.6,261.65,621.6,264.85,629.6,268.05,626.4,264.85" style="stroke:#181818;stroke-width:0.8000000000000002;"/><line style="stroke:#181818;stroke-width:0.8000000000000002;stroke-dasharray:2.0,2.0;" x1="624.8" x2="833.6" y1="264.85" y2="264.85"/><text fill="#000000" font-family="sans-serif" font-size="10.4" font-weight="bold" lengthAdjust="spacing" textLength="5.6" x="634.4" y="261.0461">7</text><text fill="#000000" font-family="sans-serif" font-size="10.4" lengthAdjust="spacing" textLength="164.8" x="643.2" y="261.0461">PublishedAnnouncementRepository</text><polygon fill="#181818" points="968,284.4688,976,287.6688,968,290.8688,971.2,287.6688" style="stroke:#181818;stroke-width:0.8000000000000002;"/><line style="stroke:#181818;stroke-width:0.8000000000000002;" x1="620.8" x2="972.8" y1="287.6688" y2="287.6688"/><text fill="#000000" font-family="sans-serif" font-size="10.4" font-weight="bold" lengthAdjust="spacing" textLength="5.6" x="626.4" y="283.8648">8</text><text fill="#000000" font-family="sans-serif" font-size="10.4" lengthAdjust="spacing" textLength="68" x="635.2" y="283.8648">getProperties()</text><polygon fill="#181818" points="629.6,307.2875,621.6,310.4875,629.6,313.6875,626.4,310.4875" style="stroke:#181818;stroke-width:0.8000000000000002;"/><line style="stroke:#181818;stroke-width:0.8000000000000002;stroke-dasharray:2.0,2.0;" x1="624.8" x2="980.8" y1="310.4875" y2="310.4875"/><text fill="#000000" font-family="sans-serif" font-size="10.4" font-weight="bold" lengthAdjust="spacing" textLength="5.6" x="634.4" y="306.6836">9</text><text fill="#000000" font-family="sans-serif" font-size="10.4" lengthAdjust="spacing" textLength="47.2" x="643.2" y="306.6836">Properties</text><polygon fill="#181818" points="416.8,330.1063,408.8,333.3063,416.8,336.5063,413.6,333.3063" style="stroke:#181818;stroke-width:0.8000000000000002;"/><line style="stroke:#181818;stroke-width:0.8000000000000002;stroke-dasharray:2.0,2.0;" x1="412" x2="616" y1="333.3063" y2="333.3063"/><text fill="#000000" font-family="sans-serif" font-size="10.4" font-weight="bold" lengthAdjust="spacing" textLength="11.2" x="421.6" y="329.5023">10</text><text fill="#000000" font-family="sans-serif" font-size="10.4" lengthAdjust="spacing" textLength="47.2" x="436" y="329.5023">Properties</text><polygon fill="#181818" points="33.6,352.925,25.6,356.125,33.6,359.325,30.4,356.125" style="stroke:#181818;stroke-width:0.8000000000000002;"/><line style="stroke:#181818;stroke-width:0.8000000000000002;stroke-dasharray:2.0,2.0;" x1="28.8" x2="403.2" y1="356.125" y2="356.125"/><text fill="#000000" font-family="sans-serif" font-size="10.4" font-weight="bold" lengthAdjust="spacing" textLength="11.2" x="38.4" y="352.3211">11</text><text fill="#000000" font-family="sans-serif" font-size="10.4" lengthAdjust="spacing" textLength="341.6" x="52.8" y="352.3211">shows a list of properties sorted from the most recent entries to the oldest</text><polygon fill="#181818" points="390.4,375.7438,398.4,378.9438,390.4,382.1438,393.6,378.9438" style="stroke:#181818;stroke-width:0.8000000000000002;"/><line style="stroke:#181818;stroke-width:0.8000000000000002;" x1="24.8" x2="395.2" y1="378.9438" y2="378.9438"/><text fill="#000000" font-family="sans-serif" font-size="10.4" font-weight="bold" lengthAdjust="spacing" textLength="11.2" x="30.4" y="375.1398">12</text><text fill="#000000" font-family="sans-serif" font-size="10.4" lengthAdjust="spacing" textLength="148.8" x="44.8" y="375.1398">selects a property of his interest</text><polygon fill="#181818" points="33.6,410.1813,25.6,413.3813,33.6,416.5813,30.4,413.3813" style="stroke:#181818;stroke-width:0.8000000000000002;"/><line style="stroke:#181818;stroke-width:0.8000000000000002;stroke-dasharray:2.0,2.0;" x1="28.8" x2="403.2" y1="413.3813" y2="413.3813"/><text fill="#000000" font-family="sans-serif" font-size="10.4" font-weight="bold" lengthAdjust="spacing" textLength="11.2" x="38.4" y="403.768">13</text><text fill="#000000" font-family="sans-serif" font-size="10.4" lengthAdjust="spacing" textLength="221.6" x="52.8" y="397.9586">requests the name, phone number and preferred</text><text fill="#000000" font-family="sans-serif" font-size="10.4" lengthAdjust="spacing" textLength="282.4" x="52.8" y="409.5773">date and time slot (from x hour to y hour) for the property visit</text><polygon fill="#181818" points="390.4,433,398.4,436.2,390.4,439.4,393.6,436.2" style="stroke:#181818;stroke-width:0.8000000000000002;"/><line style="stroke:#181818;stroke-width:0.8000000000000002;" x1="24.8" x2="395.2" y1="436.2" y2="436.2"/><text fill="#000000" font-family="sans-serif" font-size="10.4" font-weight="bold" lengthAdjust="spacing" textLength="11.2" x="30.4" y="432.3961">14</text><text fill="#000000" font-family="sans-serif" font-size="10.4" lengthAdjust="spacing" textLength="126.4" x="44.8" y="432.3961">submits the requested data</text><polygon fill="#181818" points="603.2,467.4375,611.2,470.6375,603.2,473.8375,606.4,470.6375" style="stroke:#181818;stroke-width:0.8000000000000002;"/><line style="stroke:#181818;stroke-width:0.8000000000000002;" x1="408" x2="608" y1="470.6375" y2="470.6375"/><text fill="#000000" font-family="sans-serif" font-size="10.4" font-weight="bold" lengthAdjust="spacing" textLength="11.2" x="413.6" y="461.0242">15</text><text fill="#000000" font-family="sans-serif" font-size="10.4" lengthAdjust="spacing" textLength="172" x="428" y="455.2148">createMessage(name, phone number</text><text fill="#000000" font-family="sans-serif" font-size="10.4" lengthAdjust="spacing" textLength="106.4" x="428" y="466.8336">and date and time slot)</text><line style="stroke:#181818;stroke-width:0.8000000000000002;" x1="620.8" x2="654.4" y1="493.4563" y2="493.4563"/><line style="stroke:#181818;stroke-width:0.8000000000000002;" x1="654.4" x2="654.4" y1="493.4563" y2="503.8563"/><line style="stroke:#181818;stroke-width:0.8000000000000002;" x1="621.6" x2="654.4" y1="503.8563" y2="503.8563"/><polygon fill="#181818" points="629.6,500.6563,621.6,503.8563,629.6,507.0563,626.4,503.8563" style="stroke:#181818;stroke-width:0.8000000000000002;"/><text fill="#000000" font-family="sans-serif" font-size="10.4" font-weight="bold" lengthAdjust="spacing" textLength="11.2" x="626.4" y="489.6523">16</text><text fill="#000000" font-family="sans-serif" font-size="10.4" lengthAdjust="spacing" textLength="83.2" x="640.8" y="489.6523">Property Selected</text><polygon fill="#181818" points="820.8,523.475,828.8,526.675,820.8,529.875,824,526.675" style="stroke:#181818;stroke-width:0.8000000000000002;"/><line style="stroke:#181818;stroke-width:0.8000000000000002;" x1="620.8" x2="825.6" y1="526.675" y2="526.675"/><text fill="#000000" font-family="sans-serif" font-size="10.4" font-weight="bold" lengthAdjust="spacing" textLength="11.2" x="626.4" y="522.8711">17</text><text fill="#000000" font-family="sans-serif" font-size="10.4" lengthAdjust="spacing" textLength="131.2" x="640.8" y="522.8711">getAutenticationRepository()</text><polygon fill="#181818" points="629.6,546.2938,621.6,549.4938,629.6,552.6938,626.4,549.4938" style="stroke:#181818;stroke-width:0.8000000000000002;"/><line style="stroke:#181818;stroke-width:0.8000000000000002;stroke-dasharray:2.0,2.0;" x1="624.8" x2="833.6" y1="549.4938" y2="549.4938"/><text fill="#000000" font-family="sans-serif" font-size="10.4" font-weight="bold" lengthAdjust="spacing" textLength="11.2" x="634.4" y="545.6898">18</text><text fill="#000000" font-family="sans-serif" font-size="10.4" lengthAdjust="spacing" textLength="108.8" x="648.8" y="545.6898">authenticatioRepository</text><polygon fill="#181818" points="1146.8,569.1125,1154.8,572.3125,1146.8,575.5125,1150,572.3125" style="stroke:#181818;stroke-width:0.8000000000000002;"/><line style="stroke:#181818;stroke-width:0.8000000000000002;" x1="620.8" x2="1151.6" y1="572.3125" y2="572.3125"/><text fill="#000000" font-family="sans-serif" font-size="10.4" font-weight="bold" lengthAdjust="spacing" textLength="11.2" x="626.4" y="568.5086">19</text><text fill="#000000" font-family="sans-serif" font-size="10.4" lengthAdjust="spacing" textLength="92" x="640.8" y="568.5086">getCurrentSession()</text><polygon fill="#181818" points="629.6,591.9313,621.6,595.1313,629.6,598.3313,626.4,595.1313" style="stroke:#181818;stroke-width:0.8000000000000002;"/><line style="stroke:#181818;stroke-width:0.8000000000000002;stroke-dasharray:2.0,2.0;" x1="624.8" x2="1159.6" y1="595.1313" y2="595.1313"/><text fill="#000000" font-family="sans-serif" font-size="10.4" font-weight="bold" lengthAdjust="spacing" textLength="11.2" x="634.4" y="591.3273">20</text><text fill="#000000" font-family="sans-serif" font-size="10.4" lengthAdjust="spacing" textLength="85.6" x="648.8" y="591.3273">getCurrentSession</text><polygon fill="#181818" points="820.8,614.75,828.8,617.95,820.8,621.15,824,617.95" style="stroke:#181818;stroke-width:0.8000000000000002;"/><line style="stroke:#181818;stroke-width:0.8000000000000002;" x1="620.8" x2="825.6" y1="617.95" y2="617.95"/><text fill="#000000" font-family="sans-serif" font-size="10.4" font-weight="bold" lengthAdjust="spacing" textLength="11.2" x="626.4" y="614.1461">21</text><text fill="#000000" font-family="sans-serif" font-size="10.4" lengthAdjust="spacing" textLength="112.8" x="640.8" y="614.1461">getMessageRepository()</text><polygon fill="#181818" points="629.6,637.5688,621.6,640.7688,629.6,643.9688,626.4,640.7688" style="stroke:#181818;stroke-width:0.8000000000000002;"/><line style="stroke:#181818;stroke-width:0.8000000000000002;stroke-dasharray:2.0,2.0;" x1="624.8" x2="833.6" y1="640.7688" y2="640.7688"/><text fill="#000000" font-family="sans-serif" font-size="10.4" font-weight="bold" lengthAdjust="spacing" textLength="11.2" x="634.4" y="636.9648">22</text><text fill="#000000" font-family="sans-serif" font-size="10.4" lengthAdjust="spacing" textLength="92" x="648.8" y="636.9648">messageRepository</text><polygon fill="#181818" points="1284,660.3875,1292,663.5875,1284,666.7875,1287.2,663.5875" style="stroke:#181818;stroke-width:0.8000000000000002;"/><line style="stroke:#181818;stroke-width:0.8000000000000002;" x1="620.8" x2="1288.8" y1="663.5875" y2="663.5875"/><text fill="#000000" font-family="sans-serif" font-size="10.4" font-weight="bold" lengthAdjust="spacing" textLength="11.2" x="626.4" y="659.7836">23</text><text fill="#000000" font-family="sans-serif" font-size="10.4" lengthAdjust="spacing" textLength="281.6" x="640.8" y="659.7836">createMessage(name, phone number and date and time slot)</text><polygon fill="#181818" points="1500.8,694.825,1508.8,698.025,1500.8,701.225,1504,698.025" style="stroke:#181818;stroke-width:0.8000000000000002;"/><line style="stroke:#181818;stroke-width:0.8000000000000002;" x1="1301.6" x2="1505.6" y1="698.025" y2="698.025"/><text fill="#000000" font-family="sans-serif" font-size="10.4" font-weight="bold" lengthAdjust="spacing" textLength="11.2" x="1307.2" y="688.4117">24</text><text fill="#000000" font-family="sans-serif" font-size="10.4" lengthAdjust="spacing" textLength="172" x="1321.6" y="682.6023">createMessage(name, phone number</text><text fill="#000000" font-family="sans-serif" font-size="10.4" lengthAdjust="spacing" textLength="106.4" x="1321.6" y="694.2211">and date and time slot)</text><rect fill="#E3E3E3" height="36.225" rx="2" ry="2" style="stroke:#181818;stroke-width:0.4000000000000001;" width="60" x="1510.4" y="669.9875"/><text fill="#000000" font-family="sans-serif" font-size="11.2" lengthAdjust="spacing" textLength="48.8" x="1516" y="685.7266">message:</text><text fill="#000000" font-family="sans-serif" font-size="11.2" lengthAdjust="spacing" textLength="45.6" x="1517.6" y="698.2391">Message</text><line style="stroke:#181818;stroke-width:0.8000000000000002;" x1="1301.6" x2="1339.2" y1="727.4313" y2="727.4313"/><line style="stroke:#181818;stroke-width:0.8000000000000002;" x1="1339.2" x2="1339.2" y1="727.4313" y2="737.8313"/><line style="stroke:#181818;stroke-width:0.8000000000000002;" x1="1306.4" x2="1339.2" y1="737.8313" y2="737.8313"/><polygon fill="#181818" points="1314.4,734.6313,1306.4,737.8313,1314.4,741.0313,1311.2,737.8313" style="stroke:#181818;stroke-width:0.8000000000000002;"/><text fill="#000000" font-family="sans-serif" font-size="10.4" font-weight="bold" lengthAdjust="spacing" textLength="11.2" x="1311.2" y="723.6273">25</text><text fill="#000000" font-family="sans-serif" font-size="10.4" lengthAdjust="spacing" textLength="108" x="1325.6" y="723.6273">addMessage(message)</text><line style="stroke:#181818;stroke-width:0.8000000000000002;" x1="1305.6" x2="1343.2" y1="760.65" y2="760.65"/><line style="stroke:#181818;stroke-width:0.8000000000000002;" x1="1343.2" x2="1343.2" y1="760.65" y2="771.05"/><line style="stroke:#181818;stroke-width:0.8000000000000002;" x1="1310.4" x2="1343.2" y1="771.05" y2="771.05"/><polygon fill="#181818" points="1318.4,767.85,1310.4,771.05,1318.4,774.25,1315.2,771.05" style="stroke:#181818;stroke-width:0.8000000000000002;"/><text fill="#000000" font-family="sans-serif" font-size="10.4" font-weight="bold" lengthAdjust="spacing" textLength="11.2" x="1315.2" y="756.8461">26</text><text fill="#000000" font-family="sans-serif" font-size="10.4" lengthAdjust="spacing" textLength="125.6" x="1329.6" y="756.8461">validateMessage(message)</text><polygon fill="#181818" points="629.6,794.6688,621.6,797.8688,629.6,801.0688,626.4,797.8688" style="stroke:#181818;stroke-width:0.8000000000000002;"/><line style="stroke:#181818;stroke-width:0.8000000000000002;stroke-dasharray:2.0,2.0;" x1="624.8" x2="1296.8" y1="797.8688" y2="797.8688"/><text fill="#000000" font-family="sans-serif" font-size="10.4" font-weight="bold" lengthAdjust="spacing" textLength="11.2" x="634.4" y="794.0648">27</text><text fill="#000000" font-family="sans-serif" font-size="10.4" lengthAdjust="spacing" textLength="42.4" x="648.8" y="794.0648">Message</text><polygon fill="#181818" points="416.8,817.4875,408.8,820.6875,416.8,823.8875,413.6,820.6875" style="stroke:#181818;stroke-width:0.8000000000000002;"/><line style="stroke:#181818;stroke-width:0.8000000000000002;stroke-dasharray:2.0,2.0;" x1="412" x2="616" y1="820.6875" y2="820.6875"/><text fill="#000000" font-family="sans-serif" font-size="10.4" font-weight="bold" lengthAdjust="spacing" textLength="11.2" x="421.6" y="816.8836">28</text><text fill="#000000" font-family="sans-serif" font-size="10.4" lengthAdjust="spacing" textLength="42.4" x="436" y="816.8836">Message</text><polygon fill="#181818" points="33.6,840.3063,25.6,843.5063,33.6,846.7063,30.4,843.5063" style="stroke:#181818;stroke-width:0.8000000000000002;"/><line style="stroke:#181818;stroke-width:0.8000000000000002;stroke-dasharray:2.0,2.0;" x1="28.8" x2="403.2" y1="843.5063" y2="843.5063"/><text fill="#000000" font-family="sans-serif" font-size="10.4" font-weight="bold" lengthAdjust="spacing" textLength="11.2" x="38.4" y="839.7023">29</text><text fill="#000000" font-family="sans-serif" font-size="10.4" lengthAdjust="spacing" textLength="260.8" x="52.8" y="839.7023">registers the information and shows a success message</text><!--SRC=[jLXDRziu4BtpLmnoiLCqm69lwyC2HOe53BH0KAzlkJ3Is2OYaIf9fVM_tw4-IOcKbM9h881X3j-R6JxE36DUXQouvYMKIghiebM9O7MDp0mh5SzU-HaFzbeWQCmib-V2Dp0NdgiVGfxXn0k3Z5bXoVHu-EClU803VgzHPWYV1Jyxyt_gec2CrrR9kdn1pTZc8dA4arBsHVraFBDAmzrZ8L3QE-06sg-CsAp8HCMbXRlT0MN-5OqXruxxnkouJviyAccrAWhKBUA_txvCZBzXfOmWQe6ciHb-k8QMsZDybalx_WmtLlLB8Sm5yqzIgffIKb9KepLXFVKMu9juY0t13PoGbF9yeMMHSIkK3DW-9POQajHYY5wssHsNT_0ikvHFtPxPHg5smtv_KwWNw3wa5F76BVO2QHRQx_3mD-bXHn2l1gm2ar6-Qb8bXpT1z7CCKi_mut7lzZkHVFW0EyWqaWNRz4jkhMNPqOKWUHjhW4iW5LF6xBMrT9ySVVnDk-1xI0X26jG4S146iEIY6BT7DeVkqVOpsYC1xEL9wR8vhEszRnmcokb-mwRh3HH1UjAD8e_hZWCcdu75lm4J9f_XOGmYoJDdyLAwmDD7v817ivNf2bCV84nD9_YJaC2ZYP7uyaZIjA7qQha5wq5sXxs92zTSr0_JmeaHZcISUvg6JCcJ6AZU8-jkPwlh2hLHaXS-LLpcB2No9wq8nLALfGDBYvijwxh5saj3NIp32T8AGRFaXhWA_6Qno1MLDRjrJMVXhBcKwJkPz7opqjrLHULfkNz53YLwuzcAkdA3YgqiBj6uRhJXY6hJSTrgwS7EMyH-_0CzMufrDNrOYrBeqnh4PlMdBpySYDU2Ea4rO85Hsj88TA9X56W8eT6KJ6ZmTDM5_fmWNKjtIwh8gL2nU5sAZ0C62nfW7M_7TtNSha89QL7xM3EapHX44_qhOjLbu7feS37Vzh2VqMHQLAxEqRb7Al0ucdI5iebdyCfqWE-ekLx9TL0z0kJSyeLQE_5ggFqEG_8IFq9rKPA-DyDNqnygZIVKch2VPUwmt8zMqDF15Ch2jZcvdt1HjNO1NfjlzpJWwp38S1AxVNZrIoawppet-_0MesjlGp_6TTFbDXBRitI1p2EwPubUqtdP5eIMf5S4z988RER5aERis9ZT5S5qDKeKl63SdnIwfUBM-vSQ-rjd7siwTMaFbC9sS0fyJ3uP6hCayaFGvaEAgT_B58k9_ZfzVgJ6Y6ZXJwHx_gRvrMuoGu8LWhqbrrbiStzdjdD7Hk-yrz0lNQDtaGMfu7d_ajzsoxyloe3uZHSYz-BzNUoZfZgcfNwzBBl_rvZDnDetm8YZQpg_nZFrV7eGD8Ly-lRevm9JPndX3_y0I7I9_m00]--></g></svg>