<?xml version="1.0" encoding="us-ascii" standalone="no"?><svg xmlns="http://www.w3.org/2000/svg" xmlns:xlink="http://www.w3.org/1999/xlink" contentStyleType="text/css" height="1551px" preserveAspectRatio="none" style="width:1915px;height:1551px;background:#FFFFFF;" version="1.1" viewBox="0 0 1915 1551" width="1915px" zoomAndPan="magnify"><defs/><g><text fill="#000000" font-family="sans-serif" font-size="14" font-weight="bold" lengthAdjust="spacing" textLength="210" x="851.5" y="27.6738">US09 - Sequence Diagram Full</text><rect fill="#FFFFFF" height="1335.4297" style="stroke:#181818;stroke-width:1.0;" width="10" x="21" y="127.2813"/><rect fill="#FFFFFF" height="69.1641" style="stroke:#181818;stroke-width:1.0;" width="10" x="500" y="147.8047"/><rect fill="#FFFFFF" height="256.7109" style="stroke:#181818;stroke-width:1.0;" width="10" x="500" y="245.4922"/><rect fill="#FFFFFF" height="256.7109" style="stroke:#181818;stroke-width:1.0;" width="10" x="500" y="530.7266"/><rect fill="#FFFFFF" height="28.5234" style="stroke:#181818;stroke-width:1.0;" width="10" x="500" y="815.9609"/><rect fill="#FFFFFF" height="43.0469" style="stroke:#181818;stroke-width:1.0;" width="10" x="500" y="873.0078"/><rect fill="#FFFFFF" height="452.0859" style="stroke:#181818;stroke-width:1.0;" width="10" x="500" y="944.5781"/><rect fill="#FFFFFF" height="28.5234" style="stroke:#181818;stroke-width:1.0;" width="10" x="500" y="1425.1875"/><rect fill="#FFFFFF" height="199.6641" style="stroke:#181818;stroke-width:1.0;" width="10" x="766" y="274.0156"/><rect fill="#FFFFFF" height="199.6641" style="stroke:#181818;stroke-width:1.0;" width="10" x="766" y="559.25"/><rect fill="#FFFFFF" height="380.5156" style="stroke:#181818;stroke-width:1.0;" width="10" x="766" y="987.625"/><rect fill="#FFFFFF" height="28.5234" style="stroke:#181818;stroke-width:1.0;" width="10" x="912" y="302.5391"/><rect fill="#FFFFFF" height="28.5234" style="stroke:#181818;stroke-width:1.0;" width="10" x="912" y="587.7734"/><rect fill="#FFFFFF" height="28.5234" style="stroke:#181818;stroke-width:1.0;" width="10" x="912" y="1057.6719"/><rect fill="#FFFFFF" height="28.5234" style="stroke:#181818;stroke-width:1.0;" width="10" x="1045" y="359.5859"/><rect fill="#FFFFFF" height="28.5234" style="stroke:#181818;stroke-width:1.0;" width="10" x="1045" y="644.8203"/><rect fill="#FFFFFF" height="28.5234" style="stroke:#181818;stroke-width:1.0;" width="10" x="1045" y="1114.7188"/><rect fill="#FFFFFF" height="28.5234" style="stroke:#181818;stroke-width:1.0;" width="10" x="1161" y="416.6328"/><rect fill="#FFFFFF" height="28.5234" style="stroke:#181818;stroke-width:1.0;" width="10" x="1354" y="701.8672"/><rect fill="#FFFFFF" height="167.8516" style="stroke:#181818;stroke-width:1.0;" width="10" x="1563" y="1171.7656"/><rect fill="#FFFFFF" height="75.0469" style="stroke:#181818;stroke-width:1.0;" width="10" x="1568" y="1264.5703"/><rect fill="#FFFFFF" height="33.5234" style="stroke:#181818;stroke-width:1.0;" width="10" x="1573" y="1306.0938"/><line style="stroke:#181818;stroke-width:0.5;stroke-dasharray:5.0,5.0;" x1="26" x2="26" y1="117.2813" y2="1471.7109"/><line style="stroke:#181818;stroke-width:0.5;stroke-dasharray:5.0,5.0;" x1="505" x2="505" y1="117.2813" y2="1471.7109"/><line style="stroke:#181818;stroke-width:0.5;stroke-dasharray:5.0,5.0;" x1="771" x2="771" y1="186.125" y2="1471.7109"/><line style="stroke:#181818;stroke-width:0.5;stroke-dasharray:5.0,5.0;" x1="916.5" x2="916.5" y1="117.2813" y2="1471.7109"/><line style="stroke:#181818;stroke-width:0.5;stroke-dasharray:5.0,5.0;" x1="1049.5" x2="1049.5" y1="117.2813" y2="1471.7109"/><line style="stroke:#181818;stroke-width:0.5;stroke-dasharray:5.0,5.0;" x1="1165.5" x2="1165.5" y1="117.2813" y2="1471.7109"/><line style="stroke:#181818;stroke-width:0.5;stroke-dasharray:5.0,5.0;" x1="1358.5" x2="1358.5" y1="117.2813" y2="1471.7109"/><line style="stroke:#181818;stroke-width:0.5;stroke-dasharray:5.0,5.0;" x1="1567.5" x2="1567.5" y1="117.2813" y2="1471.7109"/><line style="stroke:#181818;stroke-width:0.5;stroke-dasharray:5.0,5.0;" x1="1871" x2="1871" y1="1217.9063" y2="1471.7109"/><text fill="#000000" font-family="sans-serif" font-size="14" lengthAdjust="spacing" textLength="36" x="5" y="114.3145">Client</text><ellipse cx="26" cy="50.1406" fill="#E3E3E3" rx="8" ry="8" style="stroke:#181818;stroke-width:0.5;"/><path d="M26,58.1406 L26,85.1406 M13,66.1406 L39,66.1406 M26,85.1406 L13,100.1406 M26,85.1406 L39,100.1406 " fill="none" style="stroke:#181818;stroke-width:0.5;"/><text fill="#000000" font-family="sans-serif" font-size="14" lengthAdjust="spacing" textLength="36" x="5" y="1483.3848">Client</text><ellipse cx="26" cy="1494.8516" fill="#E3E3E3" rx="8" ry="8" style="stroke:#181818;stroke-width:0.5;"/><path d="M26,1502.8516 L26,1529.8516 M13,1510.8516 L39,1510.8516 M26,1529.8516 L13,1544.8516 M26,1529.8516 L39,1544.8516 " fill="none" style="stroke:#181818;stroke-width:0.5;"/><rect fill="#E3E3E3" height="29.6406" rx="2.5" ry="2.5" style="stroke:#181818;stroke-width:0.5;" width="120" x="445" y="86.6406"/><text fill="#000000" font-family="sans-serif" font-size="14" lengthAdjust="spacing" textLength="106" x="452" y="106.3145">:SendMessageUI</text><rect fill="#E3E3E3" height="29.6406" rx="2.5" ry="2.5" style="stroke:#181818;stroke-width:0.5;" width="120" x="445" y="1470.7109"/><text fill="#000000" font-family="sans-serif" font-size="14" lengthAdjust="spacing" textLength="106" x="452" y="1490.3848">:SendMessageUI</text><rect fill="#E3E3E3" height="29.6406" rx="2.5" ry="2.5" style="stroke:#181818;stroke-width:0.5;" width="170" x="686" y="1470.7109"/><text fill="#000000" font-family="sans-serif" font-size="14" lengthAdjust="spacing" textLength="156" x="693" y="1490.3848">:SendMessageController</text><rect fill="#E3E3E3" height="29.6406" rx="2.5" ry="2.5" style="stroke:#181818;stroke-width:0.5;" width="97" x="868.5" y="86.6406"/><text fill="#000000" font-family="sans-serif" font-size="14" lengthAdjust="spacing" textLength="83" x="875.5" y="106.3145">:Repositories</text><rect fill="#E3E3E3" height="29.6406" rx="2.5" ry="2.5" style="stroke:#181818;stroke-width:0.5;" width="97" x="868.5" y="1470.7109"/><text fill="#000000" font-family="sans-serif" font-size="14" lengthAdjust="spacing" textLength="83" x="875.5" y="1490.3848">:Repositories</text><rect fill="#E3E3E3" height="45.2813" rx="2.5" ry="2.5" style="stroke:#181818;stroke-width:0.5;" width="97" x="1001.5" y="71"/><text fill="#000000" font-family="sans-serif" font-size="14" lengthAdjust="spacing" textLength="74" x="1013" y="90.6738">repositories</text><text fill="#000000" font-family="sans-serif" font-size="14" lengthAdjust="spacing" textLength="83" x="1008.5" y="106.3145">:Repositories</text><rect fill="#E3E3E3" height="45.2813" rx="2.5" ry="2.5" style="stroke:#181818;stroke-width:0.5;" width="97" x="1001.5" y="1470.7109"/><text fill="#000000" font-family="sans-serif" font-size="14" lengthAdjust="spacing" textLength="74" x="1013" y="1490.3848">repositories</text><text fill="#000000" font-family="sans-serif" font-size="14" lengthAdjust="spacing" textLength="83" x="1008.5" y="1506.0254">:Repositories</text><rect fill="#E3E3E3" height="45.2813" rx="2.5" ry="2.5" style="stroke:#181818;stroke-width:0.5;" width="115" x="1108.5" y="71"/><text fill="#000000" font-family="sans-serif" font-size="14" lengthAdjust="spacing" textLength="101" x="1115.5" y="90.6738">UserRepository:</text><text fill="#000000" font-family="sans-serif" font-size="14" lengthAdjust="spacing" textLength="101" x="1115.5" y="106.3145">User Repository</text><rect fill="#E3E3E3" height="45.2813" rx="2.5" ry="2.5" style="stroke:#181818;stroke-width:0.5;" width="115" x="1108.5" y="1470.7109"/><text fill="#000000" font-family="sans-serif" font-size="14" lengthAdjust="spacing" textLength="101" x="1115.5" y="1490.3848">UserRepository:</text><text fill="#000000" font-family="sans-serif" font-size="14" lengthAdjust="spacing" textLength="101" x="1115.5" y="1506.0254">User Repository</text><rect fill="#E3E3E3" height="45.2813" rx="2.5" ry="2.5" style="stroke:#181818;stroke-width:0.5;" width="251" x="1233.5" y="71"/><text fill="#000000" font-family="sans-serif" font-size="14" lengthAdjust="spacing" textLength="224" x="1247" y="90.6738">publishedAnnouncementRepository</text><text fill="#000000" font-family="sans-serif" font-size="14" lengthAdjust="spacing" textLength="237" x="1240.5" y="106.3145">:Published Announcement Repository</text><rect fill="#E3E3E3" height="45.2813" rx="2.5" ry="2.5" style="stroke:#181818;stroke-width:0.5;" width="251" x="1233.5" y="1470.7109"/><text fill="#000000" font-family="sans-serif" font-size="14" lengthAdjust="spacing" textLength="224" x="1247" y="1490.3848">publishedAnnouncementRepository</text><text fill="#000000" font-family="sans-serif" font-size="14" lengthAdjust="spacing" textLength="237" x="1240.5" y="1506.0254">:Published Announcement Repository</text><rect fill="#E3E3E3" height="45.2813" rx="2.5" ry="2.5" style="stroke:#181818;stroke-width:0.5;" width="147" x="1494.5" y="71"/><text fill="#000000" font-family="sans-serif" font-size="14" lengthAdjust="spacing" textLength="129" x="1501.5" y="90.6738">messageRepository:</text><text fill="#000000" font-family="sans-serif" font-size="14" lengthAdjust="spacing" textLength="129" x="1503.5" y="106.3145">Message Repository</text><rect fill="#E3E3E3" height="45.2813" rx="2.5" ry="2.5" style="stroke:#181818;stroke-width:0.5;" width="147" x="1494.5" y="1470.7109"/><text fill="#000000" font-family="sans-serif" font-size="14" lengthAdjust="spacing" textLength="129" x="1501.5" y="1490.3848">messageRepository:</text><text fill="#000000" font-family="sans-serif" font-size="14" lengthAdjust="spacing" textLength="129" x="1503.5" y="1506.0254">Message Repository</text><rect fill="#E3E3E3" height="45.2813" rx="2.5" ry="2.5" style="stroke:#181818;stroke-width:0.5;" width="75" x="1834" y="1470.7109"/><text fill="#000000" font-family="sans-serif" font-size="14" lengthAdjust="spacing" textLength="61" x="1841" y="1490.3848">message:</text><text fill="#000000" font-family="sans-serif" font-size="14" lengthAdjust="spacing" textLength="57" x="1843" y="1506.0254">Message</text><rect fill="#FFFFFF" height="1335.4297" style="stroke:#181818;stroke-width:1.0;" width="10" x="21" y="127.2813"/><rect fill="#FFFFFF" height="69.1641" style="stroke:#181818;stroke-width:1.0;" width="10" x="500" y="147.8047"/><rect fill="#FFFFFF" height="256.7109" style="stroke:#181818;stroke-width:1.0;" width="10" x="500" y="245.4922"/><rect fill="#FFFFFF" height="256.7109" style="stroke:#181818;stroke-width:1.0;" width="10" x="500" y="530.7266"/><rect fill="#FFFFFF" height="28.5234" style="stroke:#181818;stroke-width:1.0;" width="10" x="500" y="815.9609"/><rect fill="#FFFFFF" height="43.0469" style="stroke:#181818;stroke-width:1.0;" width="10" x="500" y="873.0078"/><rect fill="#FFFFFF" height="452.0859" style="stroke:#181818;stroke-width:1.0;" width="10" x="500" y="944.5781"/><rect fill="#FFFFFF" height="28.5234" style="stroke:#181818;stroke-width:1.0;" width="10" x="500" y="1425.1875"/><rect fill="#FFFFFF" height="199.6641" style="stroke:#181818;stroke-width:1.0;" width="10" x="766" y="274.0156"/><rect fill="#FFFFFF" height="199.6641" style="stroke:#181818;stroke-width:1.0;" width="10" x="766" y="559.25"/><rect fill="#FFFFFF" height="380.5156" style="stroke:#181818;stroke-width:1.0;" width="10" x="766" y="987.625"/><rect fill="#FFFFFF" height="28.5234" style="stroke:#181818;stroke-width:1.0;" width="10" x="912" y="302.5391"/><rect fill="#FFFFFF" height="28.5234" style="stroke:#181818;stroke-width:1.0;" width="10" x="912" y="587.7734"/><rect fill="#FFFFFF" height="28.5234" style="stroke:#181818;stroke-width:1.0;" width="10" x="912" y="1057.6719"/><rect fill="#FFFFFF" height="28.5234" style="stroke:#181818;stroke-width:1.0;" width="10" x="1045" y="359.5859"/><rect fill="#FFFFFF" height="28.5234" style="stroke:#181818;stroke-width:1.0;" width="10" x="1045" y="644.8203"/><rect fill="#FFFFFF" height="28.5234" style="stroke:#181818;stroke-width:1.0;" width="10" x="1045" y="1114.7188"/><rect fill="#FFFFFF" height="28.5234" style="stroke:#181818;stroke-width:1.0;" width="10" x="1161" y="416.6328"/><rect fill="#FFFFFF" height="28.5234" style="stroke:#181818;stroke-width:1.0;" width="10" x="1354" y="701.8672"/><rect fill="#FFFFFF" height="167.8516" style="stroke:#181818;stroke-width:1.0;" width="10" x="1563" y="1171.7656"/><rect fill="#FFFFFF" height="75.0469" style="stroke:#181818;stroke-width:1.0;" width="10" x="1568" y="1264.5703"/><rect fill="#FFFFFF" height="33.5234" style="stroke:#181818;stroke-width:1.0;" width="10" x="1573" y="1306.0938"/><polygon fill="#181818" points="488,143.8047,498,147.8047,488,151.8047,492,147.8047" style="stroke:#181818;stroke-width:1.0;"/><line style="stroke:#181818;stroke-width:1.0;" x1="31" x2="494" y1="147.8047" y2="147.8047"/><text fill="#000000" font-family="sans-serif" font-size="13" font-weight="bold" lengthAdjust="spacing" textLength="7" x="38" y="143.0498">1</text><text fill="#000000" font-family="sans-serif" font-size="13" lengthAdjust="spacing" textLength="136" x="49" y="143.0498">asks to schedule a visit</text><polygon fill="#181818" points="674,172.3281,684,176.3281,674,180.3281,678,176.3281" style="stroke:#181818;stroke-width:1.0;"/><line style="stroke:#181818;stroke-width:1.0;" x1="510" x2="680" y1="176.3281" y2="176.3281"/><text fill="#000000" font-family="sans-serif" font-size="13" font-weight="bold" lengthAdjust="spacing" textLength="7" x="517" y="171.5732">2</text><text fill="#000000" font-family="sans-serif" font-size="13" lengthAdjust="spacing" textLength="36" x="528" y="171.5732">create</text><rect fill="#E3E3E3" height="29.6406" rx="2.5" ry="2.5" style="stroke:#181818;stroke-width:0.5;" width="170" x="686" y="155.8047"/><text fill="#000000" font-family="sans-serif" font-size="14" lengthAdjust="spacing" textLength="156" x="693" y="175.4785">:SendMessageController</text><polygon fill="#181818" points="42,212.9688,32,216.9688,42,220.9688,38,216.9688" style="stroke:#181818;stroke-width:1.0;"/><line style="stroke:#181818;stroke-width:1.0;stroke-dasharray:2.0,2.0;" x1="36" x2="504" y1="216.9688" y2="216.9688"/><text fill="#000000" font-family="sans-serif" font-size="13" font-weight="bold" lengthAdjust="spacing" textLength="7" x="48" y="212.2139">3</text><text fill="#000000" font-family="sans-serif" font-size="13" lengthAdjust="spacing" textLength="114" x="59" y="212.2139">requests an identity</text><polygon fill="#181818" points="488,241.4922,498,245.4922,488,249.4922,492,245.4922" style="stroke:#181818;stroke-width:1.0;"/><line style="stroke:#181818;stroke-width:1.0;" x1="31" x2="494" y1="245.4922" y2="245.4922"/><text fill="#000000" font-family="sans-serif" font-size="13" font-weight="bold" lengthAdjust="spacing" textLength="7" x="38" y="240.7373">4</text><text fill="#000000" font-family="sans-serif" font-size="13" lengthAdjust="spacing" textLength="95" x="49" y="240.7373">inserts his email</text><polygon fill="#181818" points="754,270.0156,764,274.0156,754,278.0156,758,274.0156" style="stroke:#181818;stroke-width:1.0;"/><line style="stroke:#181818;stroke-width:1.0;" x1="510" x2="760" y1="274.0156" y2="274.0156"/><text fill="#000000" font-family="sans-serif" font-size="13" font-weight="bold" lengthAdjust="spacing" textLength="7" x="517" y="269.2607">5</text><text fill="#000000" font-family="sans-serif" font-size="13" lengthAdjust="spacing" textLength="116" x="528" y="269.2607">getUserInformation()</text><polygon fill="#181818" points="900,298.5391,910,302.5391,900,306.5391,904,302.5391" style="stroke:#181818;stroke-width:1.0;"/><line style="stroke:#181818;stroke-width:1.0;" x1="776" x2="906" y1="302.5391" y2="302.5391"/><text fill="#000000" font-family="sans-serif" font-size="13" font-weight="bold" lengthAdjust="spacing" textLength="7" x="783" y="297.7842">6</text><text fill="#000000" font-family="sans-serif" font-size="13" lengthAdjust="spacing" textLength="75" x="794" y="297.7842">getInstance()</text><polygon fill="#181818" points="787,327.0625,777,331.0625,787,335.0625,783,331.0625" style="stroke:#181818;stroke-width:1.0;"/><line style="stroke:#181818;stroke-width:1.0;stroke-dasharray:2.0,2.0;" x1="781" x2="916" y1="331.0625" y2="331.0625"/><text fill="#000000" font-family="sans-serif" font-size="13" font-weight="bold" lengthAdjust="spacing" textLength="7" x="793" y="326.3076">7</text><text fill="#000000" font-family="sans-serif" font-size="13" lengthAdjust="spacing" textLength="67" x="804" y="326.3076">repositories</text><polygon fill="#181818" points="1033,355.5859,1043,359.5859,1033,363.5859,1037,359.5859" style="stroke:#181818;stroke-width:1.0;"/><line style="stroke:#181818;stroke-width:1.0;" x1="776" x2="1039" y1="359.5859" y2="359.5859"/><text fill="#000000" font-family="sans-serif" font-size="13" font-weight="bold" lengthAdjust="spacing" textLength="7" x="783" y="354.8311">8</text><text fill="#000000" font-family="sans-serif" font-size="13" lengthAdjust="spacing" textLength="178" x="794" y="354.8311">getUserInformationRepository()</text><polygon fill="#181818" points="787,384.1094,777,388.1094,787,392.1094,783,388.1094" style="stroke:#181818;stroke-width:1.0;"/><line style="stroke:#181818;stroke-width:1.0;stroke-dasharray:2.0,2.0;" x1="781" x2="1049" y1="388.1094" y2="388.1094"/><text fill="#000000" font-family="sans-serif" font-size="13" font-weight="bold" lengthAdjust="spacing" textLength="7" x="793" y="383.3545">9</text><text fill="#000000" font-family="sans-serif" font-size="13" lengthAdjust="spacing" textLength="152" x="804" y="383.3545">UserInformationRepository</text><polygon fill="#181818" points="1149,412.6328,1159,416.6328,1149,420.6328,1153,416.6328" style="stroke:#181818;stroke-width:1.0;"/><line style="stroke:#181818;stroke-width:1.0;" x1="776" x2="1155" y1="416.6328" y2="416.6328"/><text fill="#000000" font-family="sans-serif" font-size="13" font-weight="bold" lengthAdjust="spacing" textLength="14" x="783" y="411.8779">10</text><text fill="#000000" font-family="sans-serif" font-size="13" lengthAdjust="spacing" textLength="116" x="801" y="411.8779">getUserInformation()</text><polygon fill="#181818" points="787,441.1563,777,445.1563,787,449.1563,783,445.1563" style="stroke:#181818;stroke-width:1.0;"/><line style="stroke:#181818;stroke-width:1.0;stroke-dasharray:2.0,2.0;" x1="781" x2="1165" y1="445.1563" y2="445.1563"/><text fill="#000000" font-family="sans-serif" font-size="13" font-weight="bold" lengthAdjust="spacing" textLength="14" x="793" y="440.4014">11</text><text fill="#000000" font-family="sans-serif" font-size="13" lengthAdjust="spacing" textLength="94" x="811" y="440.4014">User Information</text><polygon fill="#181818" points="521,469.6797,511,473.6797,521,477.6797,517,473.6797" style="stroke:#181818;stroke-width:1.0;"/><line style="stroke:#181818;stroke-width:1.0;stroke-dasharray:2.0,2.0;" x1="515" x2="770" y1="473.6797" y2="473.6797"/><text fill="#000000" font-family="sans-serif" font-size="13" font-weight="bold" lengthAdjust="spacing" textLength="14" x="527" y="468.9248">12</text><text fill="#000000" font-family="sans-serif" font-size="13" lengthAdjust="spacing" textLength="94" x="545" y="468.9248">User Information</text><polygon fill="#181818" points="42,498.2031,32,502.2031,42,506.2031,38,502.2031" style="stroke:#181818;stroke-width:1.0;"/><line style="stroke:#181818;stroke-width:1.0;stroke-dasharray:2.0,2.0;" x1="36" x2="504" y1="502.2031" y2="502.2031"/><text fill="#000000" font-family="sans-serif" font-size="13" font-weight="bold" lengthAdjust="spacing" textLength="14" x="48" y="497.4482">13</text><text fill="#000000" font-family="sans-serif" font-size="13" lengthAdjust="spacing" textLength="299" x="66" y="497.4482">shows User information and requests a confirmation</text><polygon fill="#181818" points="488,526.7266,498,530.7266,488,534.7266,492,530.7266" style="stroke:#181818;stroke-width:1.0;"/><line style="stroke:#181818;stroke-width:1.0;" x1="31" x2="494" y1="530.7266" y2="530.7266"/><text fill="#000000" font-family="sans-serif" font-size="13" font-weight="bold" lengthAdjust="spacing" textLength="14" x="38" y="525.9717">14</text><text fill="#000000" font-family="sans-serif" font-size="13" lengthAdjust="spacing" textLength="190" x="56" y="525.9717">confirms his personal information</text><polygon fill="#181818" points="754,555.25,764,559.25,754,563.25,758,559.25" style="stroke:#181818;stroke-width:1.0;"/><line style="stroke:#181818;stroke-width:1.0;" x1="510" x2="760" y1="559.25" y2="559.25"/><text fill="#000000" font-family="sans-serif" font-size="13" font-weight="bold" lengthAdjust="spacing" textLength="14" x="517" y="554.4951">15</text><text fill="#000000" font-family="sans-serif" font-size="13" lengthAdjust="spacing" textLength="85" x="535" y="554.4951">getProperties()</text><polygon fill="#181818" points="900,583.7734,910,587.7734,900,591.7734,904,587.7734" style="stroke:#181818;stroke-width:1.0;"/><line style="stroke:#181818;stroke-width:1.0;" x1="776" x2="906" y1="587.7734" y2="587.7734"/><text fill="#000000" font-family="sans-serif" font-size="13" font-weight="bold" lengthAdjust="spacing" textLength="14" x="783" y="583.0186">16</text><text fill="#000000" font-family="sans-serif" font-size="13" lengthAdjust="spacing" textLength="75" x="801" y="583.0186">getInstance()</text><polygon fill="#181818" points="787,612.2969,777,616.2969,787,620.2969,783,616.2969" style="stroke:#181818;stroke-width:1.0;"/><line style="stroke:#181818;stroke-width:1.0;stroke-dasharray:2.0,2.0;" x1="781" x2="916" y1="616.2969" y2="616.2969"/><text fill="#000000" font-family="sans-serif" font-size="13" font-weight="bold" lengthAdjust="spacing" textLength="14" x="793" y="611.542">17</text><text fill="#000000" font-family="sans-serif" font-size="13" lengthAdjust="spacing" textLength="67" x="811" y="611.542">repositories</text><polygon fill="#181818" points="1033,640.8203,1043,644.8203,1033,648.8203,1037,644.8203" style="stroke:#181818;stroke-width:1.0;"/><line style="stroke:#181818;stroke-width:1.0;" x1="776" x2="1039" y1="644.8203" y2="644.8203"/><text fill="#000000" font-family="sans-serif" font-size="13" font-weight="bold" lengthAdjust="spacing" textLength="14" x="783" y="640.0654">18</text><text fill="#000000" font-family="sans-serif" font-size="13" lengthAdjust="spacing" textLength="232" x="801" y="640.0654">getPublishedAnnouncementRepository()</text><polygon fill="#181818" points="787,669.3438,777,673.3438,787,677.3438,783,673.3438" style="stroke:#181818;stroke-width:1.0;"/><line style="stroke:#181818;stroke-width:1.0;stroke-dasharray:2.0,2.0;" x1="781" x2="1049" y1="673.3438" y2="673.3438"/><text fill="#000000" font-family="sans-serif" font-size="13" font-weight="bold" lengthAdjust="spacing" textLength="14" x="793" y="668.5889">19</text><text fill="#000000" font-family="sans-serif" font-size="13" lengthAdjust="spacing" textLength="206" x="811" y="668.5889">PublishedAnnouncementRepository</text><polygon fill="#181818" points="1342,697.8672,1352,701.8672,1342,705.8672,1346,701.8672" style="stroke:#181818;stroke-width:1.0;"/><line style="stroke:#181818;stroke-width:1.0;" x1="776" x2="1348" y1="701.8672" y2="701.8672"/><text fill="#000000" font-family="sans-serif" font-size="13" font-weight="bold" lengthAdjust="spacing" textLength="14" x="783" y="697.1123">20</text><text fill="#000000" font-family="sans-serif" font-size="13" lengthAdjust="spacing" textLength="85" x="801" y="697.1123">getProperties()</text><polygon fill="#181818" points="787,726.3906,777,730.3906,787,734.3906,783,730.3906" style="stroke:#181818;stroke-width:1.0;"/><line style="stroke:#181818;stroke-width:1.0;stroke-dasharray:2.0,2.0;" x1="781" x2="1358" y1="730.3906" y2="730.3906"/><text fill="#000000" font-family="sans-serif" font-size="13" font-weight="bold" lengthAdjust="spacing" textLength="14" x="793" y="725.6357">21</text><text fill="#000000" font-family="sans-serif" font-size="13" lengthAdjust="spacing" textLength="59" x="811" y="725.6357">Properties</text><polygon fill="#181818" points="521,754.9141,511,758.9141,521,762.9141,517,758.9141" style="stroke:#181818;stroke-width:1.0;"/><line style="stroke:#181818;stroke-width:1.0;stroke-dasharray:2.0,2.0;" x1="515" x2="770" y1="758.9141" y2="758.9141"/><text fill="#000000" font-family="sans-serif" font-size="13" font-weight="bold" lengthAdjust="spacing" textLength="14" x="527" y="754.1592">22</text><text fill="#000000" font-family="sans-serif" font-size="13" lengthAdjust="spacing" textLength="59" x="545" y="754.1592">Properties</text><polygon fill="#181818" points="42,783.4375,32,787.4375,42,791.4375,38,787.4375" style="stroke:#181818;stroke-width:1.0;"/><line style="stroke:#181818;stroke-width:1.0;stroke-dasharray:2.0,2.0;" x1="36" x2="504" y1="787.4375" y2="787.4375"/><text fill="#000000" font-family="sans-serif" font-size="13" font-weight="bold" lengthAdjust="spacing" textLength="14" x="48" y="782.6826">23</text><text fill="#000000" font-family="sans-serif" font-size="13" lengthAdjust="spacing" textLength="427" x="66" y="782.6826">shows a list of properties sorted from the most recent entries to the oldest</text><polygon fill="#181818" points="488,811.9609,498,815.9609,488,819.9609,492,815.9609" style="stroke:#181818;stroke-width:1.0;"/><line style="stroke:#181818;stroke-width:1.0;" x1="31" x2="494" y1="815.9609" y2="815.9609"/><text fill="#000000" font-family="sans-serif" font-size="13" font-weight="bold" lengthAdjust="spacing" textLength="14" x="38" y="811.2061">24</text><text fill="#000000" font-family="sans-serif" font-size="13" lengthAdjust="spacing" textLength="186" x="56" y="811.2061">selects a property of his interest</text><polygon fill="#181818" points="42,840.4844,32,844.4844,42,848.4844,38,844.4844" style="stroke:#181818;stroke-width:1.0;"/><line style="stroke:#181818;stroke-width:1.0;stroke-dasharray:2.0,2.0;" x1="36" x2="504" y1="844.4844" y2="844.4844"/><text fill="#000000" font-family="sans-serif" font-size="13" font-weight="bold" lengthAdjust="spacing" textLength="14" x="48" y="839.7295">25</text><text fill="#000000" font-family="sans-serif" font-size="13" lengthAdjust="spacing" textLength="215" x="66" y="839.7295">asks to confirm the property selected</text><polygon fill="#181818" points="488,869.0078,498,873.0078,488,877.0078,492,873.0078" style="stroke:#181818;stroke-width:1.0;"/><line style="stroke:#181818;stroke-width:1.0;" x1="31" x2="494" y1="873.0078" y2="873.0078"/><text fill="#000000" font-family="sans-serif" font-size="13" font-weight="bold" lengthAdjust="spacing" textLength="14" x="38" y="868.2529">26</text><text fill="#000000" font-family="sans-serif" font-size="13" lengthAdjust="spacing" textLength="153" x="56" y="868.2529">confirms the selected data</text><polygon fill="#181818" points="42,912.0547,32,916.0547,42,920.0547,38,916.0547" style="stroke:#181818;stroke-width:1.0;"/><line style="stroke:#181818;stroke-width:1.0;stroke-dasharray:2.0,2.0;" x1="36" x2="504" y1="916.0547" y2="916.0547"/><text fill="#000000" font-family="sans-serif" font-size="13" font-weight="bold" lengthAdjust="spacing" textLength="14" x="48" y="904.0381">27</text><text fill="#000000" font-family="sans-serif" font-size="13" lengthAdjust="spacing" textLength="277" x="66" y="896.7764">requests the name, phone number and preferred</text><text fill="#000000" font-family="sans-serif" font-size="13" lengthAdjust="spacing" textLength="353" x="66" y="911.2998">date and time slot (from x hour to y hour) for the property visit</text><polygon fill="#181818" points="488,940.5781,498,944.5781,488,948.5781,492,944.5781" style="stroke:#181818;stroke-width:1.0;"/><line style="stroke:#181818;stroke-width:1.0;" x1="31" x2="494" y1="944.5781" y2="944.5781"/><text fill="#000000" font-family="sans-serif" font-size="13" font-weight="bold" lengthAdjust="spacing" textLength="14" x="38" y="939.8232">28</text><text fill="#000000" font-family="sans-serif" font-size="13" lengthAdjust="spacing" textLength="158" x="56" y="939.8232">submits the requested data</text><polygon fill="#181818" points="754,983.625,764,987.625,754,991.625,758,987.625" style="stroke:#181818;stroke-width:1.0;"/><line style="stroke:#181818;stroke-width:1.0;" x1="510" x2="760" y1="987.625" y2="987.625"/><text fill="#000000" font-family="sans-serif" font-size="13" font-weight="bold" lengthAdjust="spacing" textLength="14" x="517" y="975.6084">29</text><text fill="#000000" font-family="sans-serif" font-size="13" lengthAdjust="spacing" textLength="215" x="535" y="968.3467">createMessage(name, phone number</text><text fill="#000000" font-family="sans-serif" font-size="13" lengthAdjust="spacing" textLength="133" x="535" y="982.8701">and date and time slot)</text><line style="stroke:#181818;stroke-width:1.0;" x1="776" x2="818" y1="1016.1484" y2="1016.1484"/><line style="stroke:#181818;stroke-width:1.0;" x1="818" x2="818" y1="1016.1484" y2="1029.1484"/><line style="stroke:#181818;stroke-width:1.0;" x1="777" x2="818" y1="1029.1484" y2="1029.1484"/><polygon fill="#181818" points="787,1025.1484,777,1029.1484,787,1033.1484,783,1029.1484" style="stroke:#181818;stroke-width:1.0;"/><text fill="#000000" font-family="sans-serif" font-size="13" font-weight="bold" lengthAdjust="spacing" textLength="14" x="783" y="1011.3936">30</text><text fill="#000000" font-family="sans-serif" font-size="13" lengthAdjust="spacing" textLength="104" x="801" y="1011.3936">Property Selected</text><polygon fill="#181818" points="900,1053.6719,910,1057.6719,900,1061.6719,904,1057.6719" style="stroke:#181818;stroke-width:1.0;"/><line style="stroke:#181818;stroke-width:1.0;" x1="776" x2="906" y1="1057.6719" y2="1057.6719"/><text fill="#000000" font-family="sans-serif" font-size="13" font-weight="bold" lengthAdjust="spacing" textLength="14" x="783" y="1052.917">31</text><text fill="#000000" font-family="sans-serif" font-size="13" lengthAdjust="spacing" textLength="75" x="801" y="1052.917">getInstance()</text><polygon fill="#181818" points="787,1082.1953,777,1086.1953,787,1090.1953,783,1086.1953" style="stroke:#181818;stroke-width:1.0;"/><line style="stroke:#181818;stroke-width:1.0;stroke-dasharray:2.0,2.0;" x1="781" x2="916" y1="1086.1953" y2="1086.1953"/><text fill="#000000" font-family="sans-serif" font-size="13" font-weight="bold" lengthAdjust="spacing" textLength="14" x="793" y="1081.4404">32</text><text fill="#000000" font-family="sans-serif" font-size="13" lengthAdjust="spacing" textLength="67" x="811" y="1081.4404">repositories</text><polygon fill="#181818" points="1033,1110.7188,1043,1114.7188,1033,1118.7188,1037,1114.7188" style="stroke:#181818;stroke-width:1.0;"/><line style="stroke:#181818;stroke-width:1.0;" x1="776" x2="1039" y1="1114.7188" y2="1114.7188"/><text fill="#000000" font-family="sans-serif" font-size="13" font-weight="bold" lengthAdjust="spacing" textLength="14" x="783" y="1109.9639">33</text><text fill="#000000" font-family="sans-serif" font-size="13" lengthAdjust="spacing" textLength="141" x="801" y="1109.9639">getMessageRepository()</text><polygon fill="#181818" points="787,1139.2422,777,1143.2422,787,1147.2422,783,1143.2422" style="stroke:#181818;stroke-width:1.0;"/><line style="stroke:#181818;stroke-width:1.0;stroke-dasharray:2.0,2.0;" x1="781" x2="1049" y1="1143.2422" y2="1143.2422"/><text fill="#000000" font-family="sans-serif" font-size="13" font-weight="bold" lengthAdjust="spacing" textLength="14" x="793" y="1138.4873">34</text><text fill="#000000" font-family="sans-serif" font-size="13" lengthAdjust="spacing" textLength="115" x="811" y="1138.4873">messageRepository</text><polygon fill="#181818" points="1551,1167.7656,1561,1171.7656,1551,1175.7656,1555,1171.7656" style="stroke:#181818;stroke-width:1.0;"/><line style="stroke:#181818;stroke-width:1.0;" x1="776" x2="1557" y1="1171.7656" y2="1171.7656"/><text fill="#000000" font-family="sans-serif" font-size="13" font-weight="bold" lengthAdjust="spacing" textLength="14" x="783" y="1167.0107">35</text><text fill="#000000" font-family="sans-serif" font-size="13" lengthAdjust="spacing" textLength="352" x="801" y="1167.0107">createMessage(name, phone number and date and time slot)</text><polygon fill="#181818" points="1822,1210.8125,1832,1214.8125,1822,1218.8125,1826,1214.8125" style="stroke:#181818;stroke-width:1.0;"/><line style="stroke:#181818;stroke-width:1.0;" x1="1573" x2="1828" y1="1214.8125" y2="1214.8125"/><text fill="#000000" font-family="sans-serif" font-size="13" font-weight="bold" lengthAdjust="spacing" textLength="14" x="1580" y="1202.7959">36</text><text fill="#000000" font-family="sans-serif" font-size="13" lengthAdjust="spacing" textLength="215" x="1598" y="1195.5342">createMessage(name, phone number</text><text fill="#000000" font-family="sans-serif" font-size="13" lengthAdjust="spacing" textLength="133" x="1598" y="1210.0576">and date and time slot)</text><rect fill="#E3E3E3" height="45.2813" rx="2.5" ry="2.5" style="stroke:#181818;stroke-width:0.5;" width="75" x="1834" y="1179.7656"/><text fill="#000000" font-family="sans-serif" font-size="14" lengthAdjust="spacing" textLength="61" x="1841" y="1199.4395">message:</text><text fill="#000000" font-family="sans-serif" font-size="14" lengthAdjust="spacing" textLength="57" x="1843" y="1215.0801">Message</text><line style="stroke:#181818;stroke-width:1.0;" x1="1573" x2="1620" y1="1251.5703" y2="1251.5703"/><line style="stroke:#181818;stroke-width:1.0;" x1="1620" x2="1620" y1="1251.5703" y2="1264.5703"/><line style="stroke:#181818;stroke-width:1.0;" x1="1579" x2="1620" y1="1264.5703" y2="1264.5703"/><polygon fill="#181818" points="1589,1260.5703,1579,1264.5703,1589,1268.5703,1585,1264.5703" style="stroke:#181818;stroke-width:1.0;"/><text fill="#000000" font-family="sans-serif" font-size="13" font-weight="bold" lengthAdjust="spacing" textLength="14" x="1585" y="1246.8154">37</text><text fill="#000000" font-family="sans-serif" font-size="13" lengthAdjust="spacing" textLength="135" x="1603" y="1246.8154">addMessage(message)</text><line style="stroke:#181818;stroke-width:1.0;" x1="1578" x2="1625" y1="1293.0938" y2="1293.0938"/><line style="stroke:#181818;stroke-width:1.0;" x1="1625" x2="1625" y1="1293.0938" y2="1306.0938"/><line style="stroke:#181818;stroke-width:1.0;" x1="1584" x2="1625" y1="1306.0938" y2="1306.0938"/><polygon fill="#181818" points="1594,1302.0938,1584,1306.0938,1594,1310.0938,1590,1306.0938" style="stroke:#181818;stroke-width:1.0;"/><text fill="#000000" font-family="sans-serif" font-size="13" font-weight="bold" lengthAdjust="spacing" textLength="14" x="1590" y="1288.3389">38</text><text fill="#000000" font-family="sans-serif" font-size="13" lengthAdjust="spacing" textLength="157" x="1608" y="1288.3389">validateMessage(message)</text><polygon fill="#181818" points="787,1335.6172,777,1339.6172,787,1343.6172,783,1339.6172" style="stroke:#181818;stroke-width:1.0;"/><line style="stroke:#181818;stroke-width:1.0;stroke-dasharray:2.0,2.0;" x1="781" x2="1567" y1="1339.6172" y2="1339.6172"/><text fill="#000000" font-family="sans-serif" font-size="13" font-weight="bold" lengthAdjust="spacing" textLength="14" x="793" y="1334.8623">39</text><text fill="#000000" font-family="sans-serif" font-size="13" lengthAdjust="spacing" textLength="53" x="811" y="1334.8623">Message</text><polygon fill="#181818" points="521,1364.1406,511,1368.1406,521,1372.1406,517,1368.1406" style="stroke:#181818;stroke-width:1.0;"/><line style="stroke:#181818;stroke-width:1.0;stroke-dasharray:2.0,2.0;" x1="515" x2="770" y1="1368.1406" y2="1368.1406"/><text fill="#000000" font-family="sans-serif" font-size="13" font-weight="bold" lengthAdjust="spacing" textLength="14" x="527" y="1363.3857">40</text><text fill="#000000" font-family="sans-serif" font-size="13" lengthAdjust="spacing" textLength="53" x="545" y="1363.3857">Message</text><polygon fill="#181818" points="42,1392.6641,32,1396.6641,42,1400.6641,38,1396.6641" style="stroke:#181818;stroke-width:1.0;"/><line style="stroke:#181818;stroke-width:1.0;stroke-dasharray:2.0,2.0;" x1="36" x2="504" y1="1396.6641" y2="1396.6641"/><text fill="#000000" font-family="sans-serif" font-size="13" font-weight="bold" lengthAdjust="spacing" textLength="14" x="48" y="1391.9092">41</text><text fill="#000000" font-family="sans-serif" font-size="13" lengthAdjust="spacing" textLength="201" x="66" y="1391.9092">asks to confirm the submitted data</text><polygon fill="#181818" points="488,1421.1875,498,1425.1875,488,1429.1875,492,1425.1875" style="stroke:#181818;stroke-width:1.0;"/><line style="stroke:#181818;stroke-width:1.0;" x1="31" x2="494" y1="1425.1875" y2="1425.1875"/><text fill="#000000" font-family="sans-serif" font-size="13" font-weight="bold" lengthAdjust="spacing" textLength="14" x="38" y="1420.4326">42</text><text fill="#000000" font-family="sans-serif" font-size="13" lengthAdjust="spacing" textLength="161" x="56" y="1420.4326">confirms the submitted data</text><polygon fill="#181818" points="42,1449.7109,32,1453.7109,42,1457.7109,38,1453.7109" style="stroke:#181818;stroke-width:1.0;"/><line style="stroke:#181818;stroke-width:1.0;stroke-dasharray:2.0,2.0;" x1="36" x2="504" y1="1453.7109" y2="1453.7109"/><text fill="#000000" font-family="sans-serif" font-size="13" font-weight="bold" lengthAdjust="spacing" textLength="14" x="48" y="1448.9561">43</text><text fill="#000000" font-family="sans-serif" font-size="13" lengthAdjust="spacing" textLength="326" x="66" y="1448.9561">registers the information and shows a success message</text><!--SRC=[tLTBY-Cu4BxxLnHzwVGm3KjkcyF0CCr2O0QQoUQMYzgknA9joIF9FPD_loK_9SklpEEoWO2nIjzNd-gXidxbec2AvP1B8UDKoHp1g18ZtQqKB7vb5poOQuQWC3PCN3BNGASiaT-vkC2PPHgZo713fiV3Nt_38npmMuaYHdZYx6BD_ocpB8fOQQGeynTKKNIVyWJXBALvaJyY5XkfuEvJnb6OEs0QwiU8s0oFUS64WRlT0KNo1RKcruxxokoudpRv98LHCijGrOZ_VlqyCFwAXTISg3dgogPxSVKjbMDu4dFxjlx6eqRLB-vEmhvmp6iHdf4FK9Gl6TSf9X-5a2MTQKx7qXkJCy-j1RWcGuu579yqhm_GSHnEeZdL8N1WEmgrw_Qxc_oKWEP7oS3VcC4s1wg5-XaUFr38TmJngi58q34fAYdn6BnneWynA46wbyUztM_puDqxs46ia2oYTiKkrIGxIdbAO6qqC06KfuAo-zh191YWkzxHTYueehGxvHemPpnRwnVjlQ2n-R0NPwboPhWKcuVUr3yVcz7UKeL1M7qqQiIzq5J2CH8K37uTcXD1pyZ1UkpTT2iYm7HEQ0erz7GxAhvVN-VxTihvhUlz9CawATjnBNuThugbdnD-7_0C1zW3BU1GH7CQfYXg2Mt-paCwS7K6ZfQGJkNtkhLHENH8L529KrqGIt7cBSlw0cksrHLMeD9IiCpbkQtWdfKa44EfF4Yo_tUfFS_V2R-pu1QeVgdi5gwsaH1Fwrgw9hsTIyIk_ev-jZnNq_lrEeKUL6fGg6sTCY1U0_8CHOS5MYf3OyMP9aGmATAyI2Oq3TfAfB_DHti9soMP9LJHQokOM36ZgTBoDdnNosshcGk3oiKAaEvx4PNwLyIYEO7heSB5PDF2Fg6E5IziJtY8HW-WdIMQdbB9wPpI3TvwPLrhiZZjTaYOOTEA1Xvr_T5229RZUoXIAUYvcfIg7beeFADI17qIYSMoBmsdKLvdqi2c2jeFI6MfhBXhzVH00xVo1VfZqtBSofUSDvurRYwfkm-2fP_8VZCYx2IiYb3EGtzCTKMrmripKzw6DTFScvPIKxGv1MrI3SjlTVEVRT4tDls5XZ_PxByCv_Hb7xTZJdfjFHp-VxQ91qYm8iPB4GwqXVu6jg4ZlNVEPyDFPTvDPDvHiAJzgjqqotzEfKVynZAUE7h_57kVKmtJt3KvdtQ_rpWAahLjPIEEhhbmn-wRkgq6hVJ6osOSPFcskT3LJpDq1JASrTlnG9TnJ7gxB_S95_y3]--></g></svg>