<?xml version="1.0" encoding="us-ascii" standalone="no"?><svg xmlns="http://www.w3.org/2000/svg" xmlns:xlink="http://www.w3.org/1999/xlink" contentStyleType="text/css" height="416px" preserveAspectRatio="none" style="width:591px;height:416px;background:#FFFFFF;" version="1.1" viewBox="0 0 591 416" width="591px" zoomAndPan="magnify"><defs/><g><text fill="#000000" font-family="sans-serif" font-size="14" font-weight="bold" lengthAdjust="spacing" textLength="359" x="117.5" y="27.6738">US09 - Sequence Diagram Partial - Get User Identity</text><rect fill="#FFFFFF" height="239.1875" style="stroke:#181818;stroke-width:1.0;" width="10" x="146" y="118.4453"/><rect fill="#FFFFFF" height="28.5234" style="stroke:#181818;stroke-width:1.0;" width="10" x="289.5" y="170.4922"/><rect fill="#FFFFFF" height="28.5234" style="stroke:#181818;stroke-width:1.0;" width="10" x="396.5" y="227.5391"/><rect fill="#FFFFFF" height="28.5234" style="stroke:#181818;stroke-width:1.0;" width="10" x="512.5" y="284.5859"/><rect fill="none" height="187.6641" style="stroke:#000000;stroke-width:1.5;" width="529" x="56" y="133.4453"/><line style="stroke:#181818;stroke-width:0.5;stroke-dasharray:5.0,5.0;" x1="151" x2="151" y1="87.9219" y2="366.6328"/><line style="stroke:#181818;stroke-width:0.5;stroke-dasharray:5.0,5.0;" x1="294" x2="294" y1="87.9219" y2="366.6328"/><line style="stroke:#181818;stroke-width:0.5;stroke-dasharray:5.0,5.0;" x1="401" x2="401" y1="87.9219" y2="366.6328"/><line style="stroke:#181818;stroke-width:0.5;stroke-dasharray:5.0,5.0;" x1="517" x2="517" y1="87.9219" y2="366.6328"/><rect fill="#E3E3E3" height="29.6406" rx="2.5" ry="2.5" style="stroke:#181818;stroke-width:0.5;" width="170" x="66" y="57.2813"/><text fill="#000000" font-family="sans-serif" font-size="14" lengthAdjust="spacing" textLength="156" x="73" y="76.9551">:SendMessageController</text><rect fill="#E3E3E3" height="29.6406" rx="2.5" ry="2.5" style="stroke:#181818;stroke-width:0.5;" width="170" x="66" y="365.6328"/><text fill="#000000" font-family="sans-serif" font-size="14" lengthAdjust="spacing" textLength="156" x="73" y="385.3066">:SendMessageController</text><rect fill="#E3E3E3" height="29.6406" rx="2.5" ry="2.5" style="stroke:#181818;stroke-width:0.5;" width="97" x="246" y="57.2813"/><text fill="#000000" font-family="sans-serif" font-size="14" lengthAdjust="spacing" textLength="83" x="253" y="76.9551">:Repositories</text><rect fill="#E3E3E3" height="29.6406" rx="2.5" ry="2.5" style="stroke:#181818;stroke-width:0.5;" width="97" x="246" y="365.6328"/><text fill="#000000" font-family="sans-serif" font-size="14" lengthAdjust="spacing" textLength="83" x="253" y="385.3066">:Repositories</text><rect fill="#E3E3E3" height="45.2813" rx="2.5" ry="2.5" style="stroke:#181818;stroke-width:0.5;" width="97" x="353" y="41.6406"/><text fill="#000000" font-family="sans-serif" font-size="14" lengthAdjust="spacing" textLength="74" x="364.5" y="61.3145">repositories</text><text fill="#000000" font-family="sans-serif" font-size="14" lengthAdjust="spacing" textLength="83" x="360" y="76.9551">:Repositories</text><rect fill="#E3E3E3" height="45.2813" rx="2.5" ry="2.5" style="stroke:#181818;stroke-width:0.5;" width="97" x="353" y="365.6328"/><text fill="#000000" font-family="sans-serif" font-size="14" lengthAdjust="spacing" textLength="74" x="364.5" y="385.3066">repositories</text><text fill="#000000" font-family="sans-serif" font-size="14" lengthAdjust="spacing" textLength="83" x="360" y="400.9473">:Repositories</text><rect fill="#E3E3E3" height="45.2813" rx="2.5" ry="2.5" style="stroke:#181818;stroke-width:0.5;" width="115" x="460" y="41.6406"/><text fill="#000000" font-family="sans-serif" font-size="14" lengthAdjust="spacing" textLength="101" x="467" y="61.3145">UserRepository:</text><text fill="#000000" font-family="sans-serif" font-size="14" lengthAdjust="spacing" textLength="101" x="467" y="76.9551">User Repository</text><rect fill="#E3E3E3" height="45.2813" rx="2.5" ry="2.5" style="stroke:#181818;stroke-width:0.5;" width="115" x="460" y="365.6328"/><text fill="#000000" font-family="sans-serif" font-size="14" lengthAdjust="spacing" textLength="101" x="467" y="385.3066">UserRepository:</text><text fill="#000000" font-family="sans-serif" font-size="14" lengthAdjust="spacing" textLength="101" x="467" y="400.9473">User Repository</text><rect fill="#FFFFFF" height="239.1875" style="stroke:#181818;stroke-width:1.0;" width="10" x="146" y="118.4453"/><rect fill="#FFFFFF" height="28.5234" style="stroke:#181818;stroke-width:1.0;" width="10" x="289.5" y="170.4922"/><rect fill="#FFFFFF" height="28.5234" style="stroke:#181818;stroke-width:1.0;" width="10" x="396.5" y="227.5391"/><rect fill="#FFFFFF" height="28.5234" style="stroke:#181818;stroke-width:1.0;" width="10" x="512.5" y="284.5859"/><polygon fill="#181818" points="134,114.4453,144,118.4453,134,122.4453,138,118.4453" style="stroke:#181818;stroke-width:1.0;"/><line style="stroke:#181818;stroke-width:1.0;" x1="0" x2="140" y1="118.4453" y2="118.4453"/><text fill="#000000" font-family="sans-serif" font-size="13" font-weight="bold" lengthAdjust="spacing" textLength="7" x="7" y="113.6904">1</text><text fill="#000000" font-family="sans-serif" font-size="13" lengthAdjust="spacing" textLength="116" x="18" y="113.6904">getUserInformation()</text><path d="M56,133.4453 L232,133.4453 L232,139.9688 L222,149.9688 L56,149.9688 L56,133.4453 " fill="#EEEEEE" style="stroke:#000000;stroke-width:1.5;"/><rect fill="none" height="187.6641" style="stroke:#000000;stroke-width:1.5;" width="529" x="56" y="133.4453"/><text fill="#000000" font-family="sans-serif" font-size="13" font-weight="bold" lengthAdjust="spacing" textLength="131" x="71" y="146.2139">Get User Information</text><polygon fill="#181818" points="277.5,166.4922,287.5,170.4922,277.5,174.4922,281.5,170.4922" style="stroke:#181818;stroke-width:1.0;"/><line style="stroke:#181818;stroke-width:1.0;" x1="156" x2="283.5" y1="170.4922" y2="170.4922"/><text fill="#000000" font-family="sans-serif" font-size="13" font-weight="bold" lengthAdjust="spacing" textLength="7" x="163" y="165.7373">2</text><text fill="#000000" font-family="sans-serif" font-size="13" lengthAdjust="spacing" textLength="75" x="174" y="165.7373">getInstance()</text><polygon fill="#181818" points="167,195.0156,157,199.0156,167,203.0156,163,199.0156" style="stroke:#181818;stroke-width:1.0;"/><line style="stroke:#181818;stroke-width:1.0;stroke-dasharray:2.0,2.0;" x1="161" x2="293.5" y1="199.0156" y2="199.0156"/><text fill="#000000" font-family="sans-serif" font-size="13" font-weight="bold" lengthAdjust="spacing" textLength="7" x="173" y="194.2607">3</text><text fill="#000000" font-family="sans-serif" font-size="13" lengthAdjust="spacing" textLength="67" x="184" y="194.2607">repositories</text><polygon fill="#181818" points="384.5,223.5391,394.5,227.5391,384.5,231.5391,388.5,227.5391" style="stroke:#181818;stroke-width:1.0;"/><line style="stroke:#181818;stroke-width:1.0;" x1="156" x2="390.5" y1="227.5391" y2="227.5391"/><text fill="#000000" font-family="sans-serif" font-size="13" font-weight="bold" lengthAdjust="spacing" textLength="7" x="163" y="222.7842">4</text><text fill="#000000" font-family="sans-serif" font-size="13" lengthAdjust="spacing" textLength="178" x="174" y="222.7842">getUserInformationRepository()</text><polygon fill="#181818" points="167,252.0625,157,256.0625,167,260.0625,163,256.0625" style="stroke:#181818;stroke-width:1.0;"/><line style="stroke:#181818;stroke-width:1.0;stroke-dasharray:2.0,2.0;" x1="161" x2="400.5" y1="256.0625" y2="256.0625"/><text fill="#000000" font-family="sans-serif" font-size="13" font-weight="bold" lengthAdjust="spacing" textLength="7" x="173" y="251.3076">5</text><text fill="#000000" font-family="sans-serif" font-size="13" lengthAdjust="spacing" textLength="152" x="184" y="251.3076">UserInformationRepository</text><polygon fill="#181818" points="500.5,280.5859,510.5,284.5859,500.5,288.5859,504.5,284.5859" style="stroke:#181818;stroke-width:1.0;"/><line style="stroke:#181818;stroke-width:1.0;" x1="156" x2="506.5" y1="284.5859" y2="284.5859"/><text fill="#000000" font-family="sans-serif" font-size="13" font-weight="bold" lengthAdjust="spacing" textLength="7" x="163" y="279.8311">6</text><text fill="#000000" font-family="sans-serif" font-size="13" lengthAdjust="spacing" textLength="116" x="174" y="279.8311">getUserInformation()</text><polygon fill="#181818" points="167,309.1094,157,313.1094,167,317.1094,163,313.1094" style="stroke:#181818;stroke-width:1.0;"/><line style="stroke:#181818;stroke-width:1.0;stroke-dasharray:2.0,2.0;" x1="161" x2="516.5" y1="313.1094" y2="313.1094"/><text fill="#000000" font-family="sans-serif" font-size="13" font-weight="bold" lengthAdjust="spacing" textLength="7" x="173" y="308.3545">7</text><text fill="#000000" font-family="sans-serif" font-size="13" lengthAdjust="spacing" textLength="94" x="184" y="308.3545">User Information</text><polygon fill="#181818" points="11,344.6328,1,348.6328,11,352.6328,7,348.6328" style="stroke:#181818;stroke-width:1.0;"/><line style="stroke:#181818;stroke-width:1.0;stroke-dasharray:2.0,2.0;" x1="5" x2="145" y1="348.6328" y2="348.6328"/><text fill="#000000" font-family="sans-serif" font-size="13" font-weight="bold" lengthAdjust="spacing" textLength="7" x="17" y="343.8779">8</text><text fill="#000000" font-family="sans-serif" font-size="13" lengthAdjust="spacing" textLength="94" x="28" y="343.8779">User Information</text><!--SRC=[ZLEnJiCm4Dtz5QSkXI4KPQD2B4L2bK123TswkCariUhOnhu0_NlS53LssfHwidtlxhrtFeyh8kEcaucHN55JoxjSrnE7dmsg79D2yDBocZ6t5SfmluLQAvrNLjS8P1iC8eRdMrvYHZk9O34dhaeP0bp52_qjL0aRBXqoHe8yT9dTFq02sHyfF1z8uPrR4bpwq0iIB1rQc1UeVDAECTwGLaszHilOk185maPhMkiVPlPfkJ3U3uoc6QhY3PtpmcPQaTLIeXq1Tp3xMBpsm0iqsWdILg1hCSUBNOoq0N2bBkMbSUBUHHUShbHhgxjfisCGYyqcJwroc4A9j4VErKRRcfFGwkQMCGWMpqbySSA3roXKMjsOeB5TaHZNSddEJi-1UQwSVzySFINqrf4rz102Wbf9PoViwKdD0l-jUgeqFTkaBdwTzdH8V1gg7oIvpafwtaiy2LUzUUIYFqaXg5UxvsLu8deUBb7ulnUTkyDZaWon_G80]--></g></svg>