<?xml version="1.0" encoding="us-ascii" standalone="no"?><svg xmlns="http://www.w3.org/2000/svg" xmlns:xlink="http://www.w3.org/1999/xlink" contentStyleType="text/css" height="725px" preserveAspectRatio="none" style="width:1704px;height:725px;background:#FFFFFF;" version="1.1" viewBox="0 0 1704 725" width="1704px" zoomAndPan="magnify"><defs/><g><text fill="#000000" font-family="sans-serif" font-size="14" font-weight="bold" lengthAdjust="spacing" textLength="215" x="743.5" y="27.6738">US09 - Sequence Diagram Split</text><rect fill="#FFFFFF" height="508.8125" style="stroke:#181818;stroke-width:1.0;" width="10" x="21" y="127.2813"/><rect fill="#FFFFFF" height="209.3594" style="stroke:#181818;stroke-width:1.0;" width="10" x="500" y="147.8047"/><rect fill="#FFFFFF" height="43.0469" style="stroke:#181818;stroke-width:1.0;" width="10" x="500" y="385.6875"/><rect fill="#FFFFFF" height="169.8359" style="stroke:#181818;stroke-width:1.0;" width="10" x="500" y="457.2578"/><rect fill="#FFFFFF" height="111.6719" style="stroke:#181818;stroke-width:1.0;" width="10" x="766" y="216.9688"/><rect fill="#FFFFFF" height="98.2656" style="stroke:#181818;stroke-width:1.0;" width="10" x="766" y="500.3047"/><line style="stroke:#181818;stroke-width:0.5;stroke-dasharray:5.0,5.0;" x1="26" x2="26" y1="117.2813" y2="645.0938"/><line style="stroke:#181818;stroke-width:0.5;stroke-dasharray:5.0,5.0;" x1="505" x2="505" y1="117.2813" y2="645.0938"/><line style="stroke:#181818;stroke-width:0.5;stroke-dasharray:5.0,5.0;" x1="771" x2="771" y1="186.125" y2="645.0938"/><line style="stroke:#181818;stroke-width:0.5;stroke-dasharray:5.0,5.0;" x1="914" x2="914" y1="117.2813" y2="645.0938"/><line style="stroke:#181818;stroke-width:0.5;stroke-dasharray:5.0,5.0;" x1="1021" x2="1021" y1="117.2813" y2="645.0938"/><line style="stroke:#181818;stroke-width:0.5;stroke-dasharray:5.0,5.0;" x1="1137" x2="1137" y1="117.2813" y2="645.0938"/><line style="stroke:#181818;stroke-width:0.5;stroke-dasharray:5.0,5.0;" x1="1330" x2="1330" y1="117.2813" y2="645.0938"/><line style="stroke:#181818;stroke-width:0.5;stroke-dasharray:5.0,5.0;" x1="1539" x2="1539" y1="117.2813" y2="645.0938"/><line style="stroke:#181818;stroke-width:0.5;stroke-dasharray:5.0,5.0;" x1="1660" x2="1660" y1="117.2813" y2="645.0938"/><text fill="#000000" font-family="sans-serif" font-size="14" lengthAdjust="spacing" textLength="36" x="5" y="114.3145">Client</text><ellipse cx="26" cy="50.1406" fill="#E3E3E3" rx="8" ry="8" style="stroke:#181818;stroke-width:0.5;"/><path d="M26,58.1406 L26,85.1406 M13,66.1406 L39,66.1406 M26,85.1406 L13,100.1406 M26,85.1406 L39,100.1406 " fill="none" style="stroke:#181818;stroke-width:0.5;"/><text fill="#000000" font-family="sans-serif" font-size="14" lengthAdjust="spacing" textLength="36" x="5" y="656.7676">Client</text><ellipse cx="26" cy="668.2344" fill="#E3E3E3" rx="8" ry="8" style="stroke:#181818;stroke-width:0.5;"/><path d="M26,676.2344 L26,703.2344 M13,684.2344 L39,684.2344 M26,703.2344 L13,718.2344 M26,703.2344 L39,718.2344 " fill="none" style="stroke:#181818;stroke-width:0.5;"/><rect fill="#E3E3E3" height="29.6406" rx="2.5" ry="2.5" style="stroke:#181818;stroke-width:0.5;" width="120" x="445" y="86.6406"/><text fill="#000000" font-family="sans-serif" font-size="14" lengthAdjust="spacing" textLength="106" x="452" y="106.3145">:SendMessageUI</text><rect fill="#E3E3E3" height="29.6406" rx="2.5" ry="2.5" style="stroke:#181818;stroke-width:0.5;" width="120" x="445" y="644.0938"/><text fill="#000000" font-family="sans-serif" font-size="14" lengthAdjust="spacing" textLength="106" x="452" y="663.7676">:SendMessageUI</text><rect fill="#E3E3E3" height="29.6406" rx="2.5" ry="2.5" style="stroke:#181818;stroke-width:0.5;" width="170" x="686" y="644.0938"/><text fill="#000000" font-family="sans-serif" font-size="14" lengthAdjust="spacing" textLength="156" x="693" y="663.7676">:SendMessageController</text><rect fill="#E3E3E3" height="29.6406" rx="2.5" ry="2.5" style="stroke:#181818;stroke-width:0.5;" width="97" x="866" y="86.6406"/><text fill="#000000" font-family="sans-serif" font-size="14" lengthAdjust="spacing" textLength="83" x="873" y="106.3145">:Repositories</text><rect fill="#E3E3E3" height="29.6406" rx="2.5" ry="2.5" style="stroke:#181818;stroke-width:0.5;" width="97" x="866" y="644.0938"/><text fill="#000000" font-family="sans-serif" font-size="14" lengthAdjust="spacing" textLength="83" x="873" y="663.7676">:Repositories</text><rect fill="#E3E3E3" height="45.2813" rx="2.5" ry="2.5" style="stroke:#181818;stroke-width:0.5;" width="97" x="973" y="71"/><text fill="#000000" font-family="sans-serif" font-size="14" lengthAdjust="spacing" textLength="74" x="984.5" y="90.6738">repositories</text><text fill="#000000" font-family="sans-serif" font-size="14" lengthAdjust="spacing" textLength="83" x="980" y="106.3145">:Repositories</text><rect fill="#E3E3E3" height="45.2813" rx="2.5" ry="2.5" style="stroke:#181818;stroke-width:0.5;" width="97" x="973" y="644.0938"/><text fill="#000000" font-family="sans-serif" font-size="14" lengthAdjust="spacing" textLength="74" x="984.5" y="663.7676">repositories</text><text fill="#000000" font-family="sans-serif" font-size="14" lengthAdjust="spacing" textLength="83" x="980" y="679.4082">:Repositories</text><rect fill="#E3E3E3" height="45.2813" rx="2.5" ry="2.5" style="stroke:#181818;stroke-width:0.5;" width="115" x="1080" y="71"/><text fill="#000000" font-family="sans-serif" font-size="14" lengthAdjust="spacing" textLength="101" x="1087" y="90.6738">UserRepository:</text><text fill="#000000" font-family="sans-serif" font-size="14" lengthAdjust="spacing" textLength="101" x="1087" y="106.3145">User Repository</text><rect fill="#E3E3E3" height="45.2813" rx="2.5" ry="2.5" style="stroke:#181818;stroke-width:0.5;" width="115" x="1080" y="644.0938"/><text fill="#000000" font-family="sans-serif" font-size="14" lengthAdjust="spacing" textLength="101" x="1087" y="663.7676">UserRepository:</text><text fill="#000000" font-family="sans-serif" font-size="14" lengthAdjust="spacing" textLength="101" x="1087" y="679.4082">User Repository</text><rect fill="#E3E3E3" height="45.2813" rx="2.5" ry="2.5" style="stroke:#181818;stroke-width:0.5;" width="251" x="1205" y="71"/><text fill="#000000" font-family="sans-serif" font-size="14" lengthAdjust="spacing" textLength="224" x="1218.5" y="90.6738">publishedAnnouncementRepository</text><text fill="#000000" font-family="sans-serif" font-size="14" lengthAdjust="spacing" textLength="237" x="1212" y="106.3145">:Published Announcement Repository</text><rect fill="#E3E3E3" height="45.2813" rx="2.5" ry="2.5" style="stroke:#181818;stroke-width:0.5;" width="251" x="1205" y="644.0938"/><text fill="#000000" font-family="sans-serif" font-size="14" lengthAdjust="spacing" textLength="224" x="1218.5" y="663.7676">publishedAnnouncementRepository</text><text fill="#000000" font-family="sans-serif" font-size="14" lengthAdjust="spacing" textLength="237" x="1212" y="679.4082">:Published Announcement Repository</text><rect fill="#E3E3E3" height="45.2813" rx="2.5" ry="2.5" style="stroke:#181818;stroke-width:0.5;" width="147" x="1466" y="71"/><text fill="#000000" font-family="sans-serif" font-size="14" lengthAdjust="spacing" textLength="129" x="1473" y="90.6738">messageRepository:</text><text fill="#000000" font-family="sans-serif" font-size="14" lengthAdjust="spacing" textLength="129" x="1475" y="106.3145">Message Repository</text><rect fill="#E3E3E3" height="45.2813" rx="2.5" ry="2.5" style="stroke:#181818;stroke-width:0.5;" width="147" x="1466" y="644.0938"/><text fill="#000000" font-family="sans-serif" font-size="14" lengthAdjust="spacing" textLength="129" x="1473" y="663.7676">messageRepository:</text><text fill="#000000" font-family="sans-serif" font-size="14" lengthAdjust="spacing" textLength="129" x="1475" y="679.4082">Message Repository</text><rect fill="#E3E3E3" height="45.2813" rx="2.5" ry="2.5" style="stroke:#181818;stroke-width:0.5;" width="75" x="1623" y="71"/><text fill="#000000" font-family="sans-serif" font-size="14" lengthAdjust="spacing" textLength="61" x="1630" y="90.6738">message:</text><text fill="#000000" font-family="sans-serif" font-size="14" lengthAdjust="spacing" textLength="57" x="1632" y="106.3145">Message</text><rect fill="#E3E3E3" height="45.2813" rx="2.5" ry="2.5" style="stroke:#181818;stroke-width:0.5;" width="75" x="1623" y="644.0938"/><text fill="#000000" font-family="sans-serif" font-size="14" lengthAdjust="spacing" textLength="61" x="1630" y="663.7676">message:</text><text fill="#000000" font-family="sans-serif" font-size="14" lengthAdjust="spacing" textLength="57" x="1632" y="679.4082">Message</text><rect fill="#FFFFFF" height="508.8125" style="stroke:#181818;stroke-width:1.0;" width="10" x="21" y="127.2813"/><rect fill="#FFFFFF" height="209.3594" style="stroke:#181818;stroke-width:1.0;" width="10" x="500" y="147.8047"/><rect fill="#FFFFFF" height="43.0469" style="stroke:#181818;stroke-width:1.0;" width="10" x="500" y="385.6875"/><rect fill="#FFFFFF" height="169.8359" style="stroke:#181818;stroke-width:1.0;" width="10" x="500" y="457.2578"/><rect fill="#FFFFFF" height="111.6719" style="stroke:#181818;stroke-width:1.0;" width="10" x="766" y="216.9688"/><rect fill="#FFFFFF" height="98.2656" style="stroke:#181818;stroke-width:1.0;" width="10" x="766" y="500.3047"/><polygon fill="#181818" points="488,143.8047,498,147.8047,488,151.8047,492,147.8047" style="stroke:#181818;stroke-width:1.0;"/><line style="stroke:#181818;stroke-width:1.0;" x1="31" x2="494" y1="147.8047" y2="147.8047"/><text fill="#000000" font-family="sans-serif" font-size="13" font-weight="bold" lengthAdjust="spacing" textLength="7" x="38" y="143.0498">1</text><text fill="#000000" font-family="sans-serif" font-size="13" lengthAdjust="spacing" textLength="136" x="49" y="143.0498">asks to schedule a visit</text><polygon fill="#181818" points="674,172.3281,684,176.3281,674,180.3281,678,176.3281" style="stroke:#181818;stroke-width:1.0;"/><line style="stroke:#181818;stroke-width:1.0;" x1="510" x2="680" y1="176.3281" y2="176.3281"/><text fill="#000000" font-family="sans-serif" font-size="13" font-weight="bold" lengthAdjust="spacing" textLength="7" x="517" y="171.5732">2</text><text fill="#000000" font-family="sans-serif" font-size="13" lengthAdjust="spacing" textLength="36" x="528" y="171.5732">create</text><rect fill="#E3E3E3" height="29.6406" rx="2.5" ry="2.5" style="stroke:#181818;stroke-width:0.5;" width="170" x="686" y="155.8047"/><text fill="#000000" font-family="sans-serif" font-size="14" lengthAdjust="spacing" textLength="156" x="693" y="175.4785">:SendMessageController</text><polygon fill="#181818" points="754,212.9688,764,216.9688,754,220.9688,758,216.9688" style="stroke:#181818;stroke-width:1.0;"/><line style="stroke:#181818;stroke-width:1.0;" x1="510" x2="760" y1="216.9688" y2="216.9688"/><text fill="#000000" font-family="sans-serif" font-size="13" font-weight="bold" lengthAdjust="spacing" textLength="7" x="517" y="212.2139">3</text><text fill="#000000" font-family="sans-serif" font-size="13" lengthAdjust="spacing" textLength="85" x="528" y="212.2139">getProperties()</text><rect fill="none" height="78.1484" style="stroke:#000000;stroke-width:1.5;" width="176" x="683" y="224.9688"/><path d="M683,224.9688 L745,224.9688 L745,230.9688 L735,240.9688 L683,240.9688 L683,224.9688 " fill="#EEEEEE" style="stroke:#000000;stroke-width:2.0;"/><text fill="#000000" font-family="sans-serif" font-size="13" font-weight="bold" lengthAdjust="spacing" textLength="17" x="696" y="238.7373">ref</text><text fill="#000000" font-family="sans-serif" font-size="12" lengthAdjust="spacing" textLength="3" x="769.5" y="255.832">&#160;</text><text fill="#000000" font-family="sans-serif" font-size="12" lengthAdjust="spacing" textLength="79" x="731.5" y="269.2383">Get Properties</text><text fill="#000000" font-family="sans-serif" font-size="12" lengthAdjust="spacing" textLength="3" x="769.5" y="282.6445">&#160;</text><text fill="#000000" font-family="sans-serif" font-size="12" lengthAdjust="spacing" textLength="3" x="769.5" y="296.0508">&#160;</text><polygon fill="#181818" points="521,324.6406,511,328.6406,521,332.6406,517,328.6406" style="stroke:#181818;stroke-width:1.0;"/><line style="stroke:#181818;stroke-width:1.0;stroke-dasharray:2.0,2.0;" x1="515" x2="770" y1="328.6406" y2="328.6406"/><text fill="#000000" font-family="sans-serif" font-size="13" font-weight="bold" lengthAdjust="spacing" textLength="14" x="527" y="323.8857">10</text><text fill="#000000" font-family="sans-serif" font-size="13" lengthAdjust="spacing" textLength="59" x="545" y="323.8857">Properties</text><polygon fill="#181818" points="42,353.1641,32,357.1641,42,361.1641,38,357.1641" style="stroke:#181818;stroke-width:1.0;"/><line style="stroke:#181818;stroke-width:1.0;stroke-dasharray:2.0,2.0;" x1="36" x2="504" y1="357.1641" y2="357.1641"/><text fill="#000000" font-family="sans-serif" font-size="13" font-weight="bold" lengthAdjust="spacing" textLength="14" x="48" y="352.4092">11</text><text fill="#000000" font-family="sans-serif" font-size="13" lengthAdjust="spacing" textLength="427" x="66" y="352.4092">shows a list of properties sorted from the most recent entries to the oldest</text><polygon fill="#181818" points="488,381.6875,498,385.6875,488,389.6875,492,385.6875" style="stroke:#181818;stroke-width:1.0;"/><line style="stroke:#181818;stroke-width:1.0;" x1="31" x2="494" y1="385.6875" y2="385.6875"/><text fill="#000000" font-family="sans-serif" font-size="13" font-weight="bold" lengthAdjust="spacing" textLength="14" x="38" y="380.9326">12</text><text fill="#000000" font-family="sans-serif" font-size="13" lengthAdjust="spacing" textLength="186" x="56" y="380.9326">selects a property of his interest</text><polygon fill="#181818" points="42,424.7344,32,428.7344,42,432.7344,38,428.7344" style="stroke:#181818;stroke-width:1.0;"/><line style="stroke:#181818;stroke-width:1.0;stroke-dasharray:2.0,2.0;" x1="36" x2="504" y1="428.7344" y2="428.7344"/><text fill="#000000" font-family="sans-serif" font-size="13" font-weight="bold" lengthAdjust="spacing" textLength="14" x="48" y="416.7178">13</text><text fill="#000000" font-family="sans-serif" font-size="13" lengthAdjust="spacing" textLength="277" x="66" y="409.4561">requests the name, phone number and preferred</text><text fill="#000000" font-family="sans-serif" font-size="13" lengthAdjust="spacing" textLength="353" x="66" y="423.9795">date and time slot (from x hour to y hour) for the property visit</text><polygon fill="#181818" points="488,453.2578,498,457.2578,488,461.2578,492,457.2578" style="stroke:#181818;stroke-width:1.0;"/><line style="stroke:#181818;stroke-width:1.0;" x1="31" x2="494" y1="457.2578" y2="457.2578"/><text fill="#000000" font-family="sans-serif" font-size="13" font-weight="bold" lengthAdjust="spacing" textLength="14" x="38" y="452.5029">14</text><text fill="#000000" font-family="sans-serif" font-size="13" lengthAdjust="spacing" textLength="158" x="56" y="452.5029">submits the requested data</text><polygon fill="#181818" points="754,496.3047,764,500.3047,754,504.3047,758,500.3047" style="stroke:#181818;stroke-width:1.0;"/><line style="stroke:#181818;stroke-width:1.0;" x1="510" x2="760" y1="500.3047" y2="500.3047"/><text fill="#000000" font-family="sans-serif" font-size="13" font-weight="bold" lengthAdjust="spacing" textLength="14" x="517" y="488.2881">15</text><text fill="#000000" font-family="sans-serif" font-size="13" lengthAdjust="spacing" textLength="215" x="535" y="481.0264">createMessage(name, phone number</text><text fill="#000000" font-family="sans-serif" font-size="13" lengthAdjust="spacing" textLength="133" x="535" y="495.5498">and date and time slot)</text><rect fill="none" height="64.7422" style="stroke:#000000;stroke-width:1.5;" width="176" x="683" y="508.3047"/><path d="M683,508.3047 L745,508.3047 L745,514.3047 L735,524.3047 L683,524.3047 L683,508.3047 " fill="#EEEEEE" style="stroke:#000000;stroke-width:2.0;"/><text fill="#000000" font-family="sans-serif" font-size="13" font-weight="bold" lengthAdjust="spacing" textLength="17" x="696" y="522.0732">ref</text><text fill="#000000" font-family="sans-serif" font-size="12" lengthAdjust="spacing" textLength="3" x="769.5" y="539.168">&#160;</text><text fill="#000000" font-family="sans-serif" font-size="12" lengthAdjust="spacing" textLength="91" x="725.5" y="552.5742">Create Message</text><text fill="#000000" font-family="sans-serif" font-size="12" lengthAdjust="spacing" textLength="3" x="769.5" y="565.9805">&#160;</text><polygon fill="#181818" points="521,594.5703,511,598.5703,521,602.5703,517,598.5703" style="stroke:#181818;stroke-width:1.0;"/><line style="stroke:#181818;stroke-width:1.0;stroke-dasharray:2.0,2.0;" x1="515" x2="770" y1="598.5703" y2="598.5703"/><text fill="#000000" font-family="sans-serif" font-size="13" font-weight="bold" lengthAdjust="spacing" textLength="14" x="527" y="593.8154">28</text><text fill="#000000" font-family="sans-serif" font-size="13" lengthAdjust="spacing" textLength="53" x="545" y="593.8154">Message</text><polygon fill="#181818" points="42,623.0938,32,627.0938,42,631.0938,38,627.0938" style="stroke:#181818;stroke-width:1.0;"/><line style="stroke:#181818;stroke-width:1.0;stroke-dasharray:2.0,2.0;" x1="36" x2="504" y1="627.0938" y2="627.0938"/><text fill="#000000" font-family="sans-serif" font-size="13" font-weight="bold" lengthAdjust="spacing" textLength="14" x="48" y="622.3389">29</text><text fill="#000000" font-family="sans-serif" font-size="13" lengthAdjust="spacing" textLength="326" x="66" y="622.3389">registers the information and shows a success message</text><!--SRC=[tLTBZzis4BxpLmpsOc_G1LAVMXy25Bj0OA0BBEBwvWjN6bl4IgH2KfluttUe9wcddIQN6Z0WYCDl7lpcuyYy2PbppJF8b5HHebM6O7M1pBGhEO_U-1dtzf8YQ8mib-VKDp09ZzKt8Szmugb1ngomP7hOV_mJ7c2FNmkK4SAJu6TdlizJOHdZXLMoo5vHCxPAH8nmKig-gk-CHrPfk7jC1Kfx1zn0zSZ8dHMHoBcqSBVTeuoVqHYAxR0hpGwxQPD79QrMQOgwGlpdozyzuo-OAoF8jK1JshGlBg6bzWoFScxV9jnuCAYxnUrHkXUUUPL4O1G2vCLhAao2yLzIgeAAcb5PEcCAvgMn0D-axsC19tIQLGNq0eUZhAlQ1nxOZa9js_t-ff0IKF-83EATMsmuK2vKp_3mYOvyIn1l1gm24r561J6FmxiWzqCC8aZxyh1p-nqFFdo0BKGQoOAjcYMtLddP4kc9miOQu1A8g9BuVQaitIz67tzLBVWH4eAGTAe4a0W3c76HTjj7DeVXqVOpMaUBdJmfdN4hb5pV-yPXeHorUuiQJw3UYMnZYv_Hbgm33v-nqAOCX0BgJhOAQoSDwK64BXxe_Tg8F3hqN7jm3rswVeCDORrwJmCFuzsCrh5RlpA3pNGA6p-7IJzN9hIPoYZKXol94H8jL9YUQG-_brB0aTLiBZqth3EYNIJC7iEgt9fcMVBZ-MZeFDwt9b7VAa6b1cpXg8jZhwKXKl8aMbUtT7Mzishh7BLHagU-g_4kPrCz_g8LeLXYFPtWT6-pwSvc_VDmlTt1_c-x-cN-Gll9lRtWxRzs-CBjFCALkMvVkkjxUvUS-sNeU3Ml14iX-DjAOUW60VZzOqVgK2PyMi_90nj8GwCC72Wi2-e4UOi5HcbBuzE9Hc6m2T9WJ2Oqzhh6fxzZhnist99AOz8GDYuP8uEAmPJ6P-UtzdTnlfru26bH-rW3f5MNH9dz6s9UL-2oBt4nNZUmJsWYBN8dGVUZ-RVovzAGFCFV84-KfEUgwauYSv8Mr9fgSPIn2yMzj88-44ogBApB2ds7H1NQ5UHIFjtJ5AzBr3R5S1PRBbBnceawiZfC2e42u9F5MGqgOvx8VZsIs56wB8RfU6Mg-DrCXFMWUXlMWcvFQFPZwH2Uct5uvOb25L9puD2SkDzujuhvWjxUAkAB0Zufti_zZuOh8jsCXnh8zF1ZPFNZeZm0WoiOCiMFQRKUYNbeFOob2z3xcFaXwjxeBgW7ZvklxNMz_4jJ3No_yrJ4NjA_C82EOKshpbr-2opyoTPpL-dcZ-2Y36_J9fMvYtJYAZdJ9Kh3RwdO_JcxkMXD4KNaeVtMdxWE_WK0]--></g></svg>