<?xml version="1.0" encoding="us-ascii" standalone="no"?><svg xmlns="http://www.w3.org/2000/svg" xmlns:xlink="http://www.w3.org/1999/xlink" contentStyleType="text/css" height="839px" preserveAspectRatio="none" style="width:1697px;height:839px;background:#FFFFFF;" version="1.1" viewBox="0 0 1697 839" width="1697px" zoomAndPan="magnify"><defs/><g><text fill="#000000" font-family="sans-serif" font-size="14" font-weight="bold" lengthAdjust="spacing" textLength="215" x="740" y="27.6738">US09 - Sequence Diagram Split</text><rect fill="#FFFFFF" height="622.9063" style="stroke:#181818;stroke-width:1.0;" width="10" x="21" y="127.2813"/><rect fill="#FFFFFF" height="209.3594" style="stroke:#181818;stroke-width:1.0;" width="10" x="493" y="147.8047"/><rect fill="#FFFFFF" height="28.5234" style="stroke:#181818;stroke-width:1.0;" width="10" x="493" y="385.6875"/><rect fill="#FFFFFF" height="43.0469" style="stroke:#181818;stroke-width:1.0;" width="10" x="493" y="442.7344"/><rect fill="#FFFFFF" height="169.8359" style="stroke:#181818;stroke-width:1.0;" width="10" x="493" y="514.3047"/><rect fill="#FFFFFF" height="28.5234" style="stroke:#181818;stroke-width:1.0;" width="10" x="493" y="712.6641"/><rect fill="#FFFFFF" height="111.6719" style="stroke:#181818;stroke-width:1.0;" width="10" x="759" y="216.9688"/><rect fill="#FFFFFF" height="98.2656" style="stroke:#181818;stroke-width:1.0;" width="10" x="759" y="557.3516"/><line style="stroke:#181818;stroke-width:0.5;stroke-dasharray:5.0,5.0;" x1="26" x2="26" y1="117.2813" y2="759.1875"/><line style="stroke:#181818;stroke-width:0.5;stroke-dasharray:5.0,5.0;" x1="498" x2="498" y1="117.2813" y2="759.1875"/><line style="stroke:#181818;stroke-width:0.5;stroke-dasharray:5.0,5.0;" x1="764" x2="764" y1="186.125" y2="759.1875"/><line style="stroke:#181818;stroke-width:0.5;stroke-dasharray:5.0,5.0;" x1="907" x2="907" y1="117.2813" y2="759.1875"/><line style="stroke:#181818;stroke-width:0.5;stroke-dasharray:5.0,5.0;" x1="1014" x2="1014" y1="117.2813" y2="759.1875"/><line style="stroke:#181818;stroke-width:0.5;stroke-dasharray:5.0,5.0;" x1="1130" x2="1130" y1="117.2813" y2="759.1875"/><line style="stroke:#181818;stroke-width:0.5;stroke-dasharray:5.0,5.0;" x1="1323" x2="1323" y1="117.2813" y2="759.1875"/><line style="stroke:#181818;stroke-width:0.5;stroke-dasharray:5.0,5.0;" x1="1532" x2="1532" y1="117.2813" y2="759.1875"/><line style="stroke:#181818;stroke-width:0.5;stroke-dasharray:5.0,5.0;" x1="1653" x2="1653" y1="117.2813" y2="759.1875"/><text fill="#000000" font-family="sans-serif" font-size="14" lengthAdjust="spacing" textLength="36" x="5" y="114.3145">Client</text><ellipse cx="26" cy="50.1406" fill="#E3E3E3" rx="8" ry="8" style="stroke:#181818;stroke-width:0.5;"/><path d="M26,58.1406 L26,85.1406 M13,66.1406 L39,66.1406 M26,85.1406 L13,100.1406 M26,85.1406 L39,100.1406 " fill="none" style="stroke:#181818;stroke-width:0.5;"/><text fill="#000000" font-family="sans-serif" font-size="14" lengthAdjust="spacing" textLength="36" x="5" y="770.8613">Client</text><ellipse cx="26" cy="782.3281" fill="#E3E3E3" rx="8" ry="8" style="stroke:#181818;stroke-width:0.5;"/><path d="M26,790.3281 L26,817.3281 M13,798.3281 L39,798.3281 M26,817.3281 L13,832.3281 M26,817.3281 L39,832.3281 " fill="none" style="stroke:#181818;stroke-width:0.5;"/><rect fill="#E3E3E3" height="29.6406" rx="2.5" ry="2.5" style="stroke:#181818;stroke-width:0.5;" width="120" x="438" y="86.6406"/><text fill="#000000" font-family="sans-serif" font-size="14" lengthAdjust="spacing" textLength="106" x="445" y="106.3145">:SendMessageUI</text><rect fill="#E3E3E3" height="29.6406" rx="2.5" ry="2.5" style="stroke:#181818;stroke-width:0.5;" width="120" x="438" y="758.1875"/><text fill="#000000" font-family="sans-serif" font-size="14" lengthAdjust="spacing" textLength="106" x="445" y="777.8613">:SendMessageUI</text><rect fill="#E3E3E3" height="29.6406" rx="2.5" ry="2.5" style="stroke:#181818;stroke-width:0.5;" width="170" x="679" y="758.1875"/><text fill="#000000" font-family="sans-serif" font-size="14" lengthAdjust="spacing" textLength="156" x="686" y="777.8613">:SendMessageController</text><rect fill="#E3E3E3" height="29.6406" rx="2.5" ry="2.5" style="stroke:#181818;stroke-width:0.5;" width="97" x="859" y="86.6406"/><text fill="#000000" font-family="sans-serif" font-size="14" lengthAdjust="spacing" textLength="83" x="866" y="106.3145">:Repositories</text><rect fill="#E3E3E3" height="29.6406" rx="2.5" ry="2.5" style="stroke:#181818;stroke-width:0.5;" width="97" x="859" y="758.1875"/><text fill="#000000" font-family="sans-serif" font-size="14" lengthAdjust="spacing" textLength="83" x="866" y="777.8613">:Repositories</text><rect fill="#E3E3E3" height="45.2813" rx="2.5" ry="2.5" style="stroke:#181818;stroke-width:0.5;" width="97" x="966" y="71"/><text fill="#000000" font-family="sans-serif" font-size="14" lengthAdjust="spacing" textLength="74" x="977.5" y="90.6738">repositories</text><text fill="#000000" font-family="sans-serif" font-size="14" lengthAdjust="spacing" textLength="83" x="973" y="106.3145">:Repositories</text><rect fill="#E3E3E3" height="45.2813" rx="2.5" ry="2.5" style="stroke:#181818;stroke-width:0.5;" width="97" x="966" y="758.1875"/><text fill="#000000" font-family="sans-serif" font-size="14" lengthAdjust="spacing" textLength="74" x="977.5" y="777.8613">repositories</text><text fill="#000000" font-family="sans-serif" font-size="14" lengthAdjust="spacing" textLength="83" x="973" y="793.502">:Repositories</text><rect fill="#E3E3E3" height="45.2813" rx="2.5" ry="2.5" style="stroke:#181818;stroke-width:0.5;" width="115" x="1073" y="71"/><text fill="#000000" font-family="sans-serif" font-size="14" lengthAdjust="spacing" textLength="101" x="1080" y="90.6738">UserRepository:</text><text fill="#000000" font-family="sans-serif" font-size="14" lengthAdjust="spacing" textLength="101" x="1080" y="106.3145">User Repository</text><rect fill="#E3E3E3" height="45.2813" rx="2.5" ry="2.5" style="stroke:#181818;stroke-width:0.5;" width="115" x="1073" y="758.1875"/><text fill="#000000" font-family="sans-serif" font-size="14" lengthAdjust="spacing" textLength="101" x="1080" y="777.8613">UserRepository:</text><text fill="#000000" font-family="sans-serif" font-size="14" lengthAdjust="spacing" textLength="101" x="1080" y="793.502">User Repository</text><rect fill="#E3E3E3" height="45.2813" rx="2.5" ry="2.5" style="stroke:#181818;stroke-width:0.5;" width="251" x="1198" y="71"/><text fill="#000000" font-family="sans-serif" font-size="14" lengthAdjust="spacing" textLength="224" x="1211.5" y="90.6738">publishedAnnouncementRepository</text><text fill="#000000" font-family="sans-serif" font-size="14" lengthAdjust="spacing" textLength="237" x="1205" y="106.3145">:Published Announcement Repository</text><rect fill="#E3E3E3" height="45.2813" rx="2.5" ry="2.5" style="stroke:#181818;stroke-width:0.5;" width="251" x="1198" y="758.1875"/><text fill="#000000" font-family="sans-serif" font-size="14" lengthAdjust="spacing" textLength="224" x="1211.5" y="777.8613">publishedAnnouncementRepository</text><text fill="#000000" font-family="sans-serif" font-size="14" lengthAdjust="spacing" textLength="237" x="1205" y="793.502">:Published Announcement Repository</text><rect fill="#E3E3E3" height="45.2813" rx="2.5" ry="2.5" style="stroke:#181818;stroke-width:0.5;" width="147" x="1459" y="71"/><text fill="#000000" font-family="sans-serif" font-size="14" lengthAdjust="spacing" textLength="129" x="1466" y="90.6738">messageRepository:</text><text fill="#000000" font-family="sans-serif" font-size="14" lengthAdjust="spacing" textLength="129" x="1468" y="106.3145">Message Repository</text><rect fill="#E3E3E3" height="45.2813" rx="2.5" ry="2.5" style="stroke:#181818;stroke-width:0.5;" width="147" x="1459" y="758.1875"/><text fill="#000000" font-family="sans-serif" font-size="14" lengthAdjust="spacing" textLength="129" x="1466" y="777.8613">messageRepository:</text><text fill="#000000" font-family="sans-serif" font-size="14" lengthAdjust="spacing" textLength="129" x="1468" y="793.502">Message Repository</text><rect fill="#E3E3E3" height="45.2813" rx="2.5" ry="2.5" style="stroke:#181818;stroke-width:0.5;" width="75" x="1616" y="71"/><text fill="#000000" font-family="sans-serif" font-size="14" lengthAdjust="spacing" textLength="61" x="1623" y="90.6738">message:</text><text fill="#000000" font-family="sans-serif" font-size="14" lengthAdjust="spacing" textLength="57" x="1625" y="106.3145">Message</text><rect fill="#E3E3E3" height="45.2813" rx="2.5" ry="2.5" style="stroke:#181818;stroke-width:0.5;" width="75" x="1616" y="758.1875"/><text fill="#000000" font-family="sans-serif" font-size="14" lengthAdjust="spacing" textLength="61" x="1623" y="777.8613">message:</text><text fill="#000000" font-family="sans-serif" font-size="14" lengthAdjust="spacing" textLength="57" x="1625" y="793.502">Message</text><rect fill="#FFFFFF" height="622.9063" style="stroke:#181818;stroke-width:1.0;" width="10" x="21" y="127.2813"/><rect fill="#FFFFFF" height="209.3594" style="stroke:#181818;stroke-width:1.0;" width="10" x="493" y="147.8047"/><rect fill="#FFFFFF" height="28.5234" style="stroke:#181818;stroke-width:1.0;" width="10" x="493" y="385.6875"/><rect fill="#FFFFFF" height="43.0469" style="stroke:#181818;stroke-width:1.0;" width="10" x="493" y="442.7344"/><rect fill="#FFFFFF" height="169.8359" style="stroke:#181818;stroke-width:1.0;" width="10" x="493" y="514.3047"/><rect fill="#FFFFFF" height="28.5234" style="stroke:#181818;stroke-width:1.0;" width="10" x="493" y="712.6641"/><rect fill="#FFFFFF" height="111.6719" style="stroke:#181818;stroke-width:1.0;" width="10" x="759" y="216.9688"/><rect fill="#FFFFFF" height="98.2656" style="stroke:#181818;stroke-width:1.0;" width="10" x="759" y="557.3516"/><polygon fill="#181818" points="481,143.8047,491,147.8047,481,151.8047,485,147.8047" style="stroke:#181818;stroke-width:1.0;"/><line style="stroke:#181818;stroke-width:1.0;" x1="31" x2="487" y1="147.8047" y2="147.8047"/><text fill="#000000" font-family="sans-serif" font-size="13" font-weight="bold" lengthAdjust="spacing" textLength="7" x="38" y="143.0498">1</text><text fill="#000000" font-family="sans-serif" font-size="13" lengthAdjust="spacing" textLength="136" x="49" y="143.0498">asks to schedule a visit</text><polygon fill="#181818" points="667,172.3281,677,176.3281,667,180.3281,671,176.3281" style="stroke:#181818;stroke-width:1.0;"/><line style="stroke:#181818;stroke-width:1.0;" x1="503" x2="673" y1="176.3281" y2="176.3281"/><text fill="#000000" font-family="sans-serif" font-size="13" font-weight="bold" lengthAdjust="spacing" textLength="7" x="510" y="171.5732">2</text><text fill="#000000" font-family="sans-serif" font-size="13" lengthAdjust="spacing" textLength="36" x="521" y="171.5732">create</text><rect fill="#E3E3E3" height="29.6406" rx="2.5" ry="2.5" style="stroke:#181818;stroke-width:0.5;" width="170" x="679" y="155.8047"/><text fill="#000000" font-family="sans-serif" font-size="14" lengthAdjust="spacing" textLength="156" x="686" y="175.4785">:SendMessageController</text><polygon fill="#181818" points="747,212.9688,757,216.9688,747,220.9688,751,216.9688" style="stroke:#181818;stroke-width:1.0;"/><line style="stroke:#181818;stroke-width:1.0;" x1="503" x2="753" y1="216.9688" y2="216.9688"/><text fill="#000000" font-family="sans-serif" font-size="13" font-weight="bold" lengthAdjust="spacing" textLength="7" x="510" y="212.2139">3</text><text fill="#000000" font-family="sans-serif" font-size="13" lengthAdjust="spacing" textLength="85" x="521" y="212.2139">getProperties()</text><rect fill="none" height="78.1484" style="stroke:#000000;stroke-width:1.5;" width="176" x="676" y="224.9688"/><path d="M676,224.9688 L738,224.9688 L738,230.9688 L728,240.9688 L676,240.9688 L676,224.9688 " fill="#EEEEEE" style="stroke:#000000;stroke-width:2.0;"/><text fill="#000000" font-family="sans-serif" font-size="13" font-weight="bold" lengthAdjust="spacing" textLength="17" x="689" y="238.7373">ref</text><text fill="#000000" font-family="sans-serif" font-size="12" lengthAdjust="spacing" textLength="3" x="762.5" y="255.832">&#160;</text><text fill="#000000" font-family="sans-serif" font-size="12" lengthAdjust="spacing" textLength="79" x="724.5" y="269.2383">Get Properties</text><text fill="#000000" font-family="sans-serif" font-size="12" lengthAdjust="spacing" textLength="3" x="762.5" y="282.6445">&#160;</text><text fill="#000000" font-family="sans-serif" font-size="12" lengthAdjust="spacing" textLength="3" x="762.5" y="296.0508">&#160;</text><polygon fill="#181818" points="514,324.6406,504,328.6406,514,332.6406,510,328.6406" style="stroke:#181818;stroke-width:1.0;"/><line style="stroke:#181818;stroke-width:1.0;stroke-dasharray:2.0,2.0;" x1="508" x2="763" y1="328.6406" y2="328.6406"/><text fill="#000000" font-family="sans-serif" font-size="13" font-weight="bold" lengthAdjust="spacing" textLength="7" x="520" y="323.8857">4</text><text fill="#000000" font-family="sans-serif" font-size="13" lengthAdjust="spacing" textLength="59" x="531" y="323.8857">Properties</text><polygon fill="#181818" points="42,353.1641,32,357.1641,42,361.1641,38,357.1641" style="stroke:#181818;stroke-width:1.0;"/><line style="stroke:#181818;stroke-width:1.0;stroke-dasharray:2.0,2.0;" x1="36" x2="497" y1="357.1641" y2="357.1641"/><text fill="#000000" font-family="sans-serif" font-size="13" font-weight="bold" lengthAdjust="spacing" textLength="7" x="48" y="352.4092">5</text><text fill="#000000" font-family="sans-serif" font-size="13" lengthAdjust="spacing" textLength="427" x="59" y="352.4092">shows a list of properties sorted from the most recent entries to the oldest</text><polygon fill="#181818" points="481,381.6875,491,385.6875,481,389.6875,485,385.6875" style="stroke:#181818;stroke-width:1.0;"/><line style="stroke:#181818;stroke-width:1.0;" x1="31" x2="487" y1="385.6875" y2="385.6875"/><text fill="#000000" font-family="sans-serif" font-size="13" font-weight="bold" lengthAdjust="spacing" textLength="7" x="38" y="380.9326">6</text><text fill="#000000" font-family="sans-serif" font-size="13" lengthAdjust="spacing" textLength="186" x="49" y="380.9326">selects a property of his interest</text><polygon fill="#181818" points="42,410.2109,32,414.2109,42,418.2109,38,414.2109" style="stroke:#181818;stroke-width:1.0;"/><line style="stroke:#181818;stroke-width:1.0;stroke-dasharray:2.0,2.0;" x1="36" x2="497" y1="414.2109" y2="414.2109"/><text fill="#000000" font-family="sans-serif" font-size="13" font-weight="bold" lengthAdjust="spacing" textLength="7" x="48" y="409.4561">7</text><text fill="#000000" font-family="sans-serif" font-size="13" lengthAdjust="spacing" textLength="215" x="59" y="409.4561">asks to confirm the property selected</text><polygon fill="#181818" points="481,438.7344,491,442.7344,481,446.7344,485,442.7344" style="stroke:#181818;stroke-width:1.0;"/><line style="stroke:#181818;stroke-width:1.0;" x1="31" x2="487" y1="442.7344" y2="442.7344"/><text fill="#000000" font-family="sans-serif" font-size="13" font-weight="bold" lengthAdjust="spacing" textLength="7" x="38" y="437.9795">8</text><text fill="#000000" font-family="sans-serif" font-size="13" lengthAdjust="spacing" textLength="153" x="49" y="437.9795">confirms the selected data</text><polygon fill="#181818" points="42,481.7813,32,485.7813,42,489.7813,38,485.7813" style="stroke:#181818;stroke-width:1.0;"/><line style="stroke:#181818;stroke-width:1.0;stroke-dasharray:2.0,2.0;" x1="36" x2="497" y1="485.7813" y2="485.7813"/><text fill="#000000" font-family="sans-serif" font-size="13" font-weight="bold" lengthAdjust="spacing" textLength="7" x="48" y="473.7646">9</text><text fill="#000000" font-family="sans-serif" font-size="13" lengthAdjust="spacing" textLength="277" x="59" y="466.5029">requests the name, phone number and preferred</text><text fill="#000000" font-family="sans-serif" font-size="13" lengthAdjust="spacing" textLength="353" x="59" y="481.0264">date and time slot (from x hour to y hour) for the property visit</text><polygon fill="#181818" points="481,510.3047,491,514.3047,481,518.3047,485,514.3047" style="stroke:#181818;stroke-width:1.0;"/><line style="stroke:#181818;stroke-width:1.0;" x1="31" x2="487" y1="514.3047" y2="514.3047"/><text fill="#000000" font-family="sans-serif" font-size="13" font-weight="bold" lengthAdjust="spacing" textLength="14" x="38" y="509.5498">10</text><text fill="#000000" font-family="sans-serif" font-size="13" lengthAdjust="spacing" textLength="158" x="56" y="509.5498">submits the requested data</text><polygon fill="#181818" points="747,553.3516,757,557.3516,747,561.3516,751,557.3516" style="stroke:#181818;stroke-width:1.0;"/><line style="stroke:#181818;stroke-width:1.0;" x1="503" x2="753" y1="557.3516" y2="557.3516"/><text fill="#000000" font-family="sans-serif" font-size="13" font-weight="bold" lengthAdjust="spacing" textLength="14" x="510" y="545.335">11</text><text fill="#000000" font-family="sans-serif" font-size="13" lengthAdjust="spacing" textLength="215" x="528" y="538.0732">createMessage(name, phone number</text><text fill="#000000" font-family="sans-serif" font-size="13" lengthAdjust="spacing" textLength="133" x="528" y="552.5967">and date and time slot)</text><rect fill="none" height="64.7422" style="stroke:#000000;stroke-width:1.5;" width="176" x="676" y="565.3516"/><path d="M676,565.3516 L738,565.3516 L738,571.3516 L728,581.3516 L676,581.3516 L676,565.3516 " fill="#EEEEEE" style="stroke:#000000;stroke-width:2.0;"/><text fill="#000000" font-family="sans-serif" font-size="13" font-weight="bold" lengthAdjust="spacing" textLength="17" x="689" y="579.1201">ref</text><text fill="#000000" font-family="sans-serif" font-size="12" lengthAdjust="spacing" textLength="3" x="762.5" y="596.2148">&#160;</text><text fill="#000000" font-family="sans-serif" font-size="12" lengthAdjust="spacing" textLength="91" x="718.5" y="609.6211">Create Message</text><text fill="#000000" font-family="sans-serif" font-size="12" lengthAdjust="spacing" textLength="3" x="762.5" y="623.0273">&#160;</text><polygon fill="#181818" points="514,651.6172,504,655.6172,514,659.6172,510,655.6172" style="stroke:#181818;stroke-width:1.0;"/><line style="stroke:#181818;stroke-width:1.0;stroke-dasharray:2.0,2.0;" x1="508" x2="763" y1="655.6172" y2="655.6172"/><text fill="#000000" font-family="sans-serif" font-size="13" font-weight="bold" lengthAdjust="spacing" textLength="14" x="520" y="650.8623">12</text><text fill="#000000" font-family="sans-serif" font-size="13" lengthAdjust="spacing" textLength="53" x="538" y="650.8623">Message</text><polygon fill="#181818" points="42,680.1406,32,684.1406,42,688.1406,38,684.1406" style="stroke:#181818;stroke-width:1.0;"/><line style="stroke:#181818;stroke-width:1.0;stroke-dasharray:2.0,2.0;" x1="36" x2="497" y1="684.1406" y2="684.1406"/><text fill="#000000" font-family="sans-serif" font-size="13" font-weight="bold" lengthAdjust="spacing" textLength="14" x="48" y="679.3857">13</text><text fill="#000000" font-family="sans-serif" font-size="13" lengthAdjust="spacing" textLength="201" x="66" y="679.3857">asks to confirm the submitted data</text><polygon fill="#181818" points="481,708.6641,491,712.6641,481,716.6641,485,712.6641" style="stroke:#181818;stroke-width:1.0;"/><line style="stroke:#181818;stroke-width:1.0;" x1="31" x2="487" y1="712.6641" y2="712.6641"/><text fill="#000000" font-family="sans-serif" font-size="13" font-weight="bold" lengthAdjust="spacing" textLength="14" x="38" y="707.9092">14</text><text fill="#000000" font-family="sans-serif" font-size="13" lengthAdjust="spacing" textLength="161" x="56" y="707.9092">confirms the submitted data</text><polygon fill="#181818" points="42,737.1875,32,741.1875,42,745.1875,38,741.1875" style="stroke:#181818;stroke-width:1.0;"/><line style="stroke:#181818;stroke-width:1.0;stroke-dasharray:2.0,2.0;" x1="36" x2="497" y1="741.1875" y2="741.1875"/><text fill="#000000" font-family="sans-serif" font-size="13" font-weight="bold" lengthAdjust="spacing" textLength="14" x="48" y="736.4326">15</text><text fill="#000000" font-family="sans-serif" font-size="13" lengthAdjust="spacing" textLength="326" x="66" y="736.4326">registers the information and shows a success message</text><!--SRC=[tLXBYzim4BxhLmnxIRPqeUJM70fb5qgW2qlJt7BHsfDOh2svahnj_dr7Vaf-nCcslJImOApHDzz8tpoyvaN8d6kUGQQaYXAjCWIh2sIcNSbvzCAFkBMd545ZPBayfhw1INYiVWfvX0DF3J9cXINJtVR3HxY3BVueK4O83u8VdVasJuLbZ1TMoI9xHitO8X4nma4f-wn-CHvPfU7cFXKexGrm0zKZ8tTMH2BdqiBDUeioVaHZYDjkKvhjDjCczqfQhT8KTONu_TlNdl4tp9KHv5gWAMtQ5wVGKdk6UtbktohSk3EekyNrNheNddaLH60K0kJ5SofCWl5dALL1XvhHiNJ6HEQfiG3VfEzZ1YTqcbK7w167lQnFjGyyi1s5MhVx_KsX9A3-aHZ4AxVOQA1Sg9xXxXDT-PeWNWnO1IQYY0fI7eTNGUw762IGzkLku_Ox7Rnx1sk8D985MpHBRgtoiYRHauIDDS0ba50bwVjKMRfVZ3x-ebhm6HA2a7Ih19080vXnaNRRHpQ7z6Zx4QsJnKOUbCwu5KekRttZyA2Sj7kB6W-WNabiOujVq9Qg0m-ViT2c94A4kfkjQ6saeNeGeUC3lL_Bo9D3pxK7TzU5woVO4DOxxsdW8T_Lw3bswnT6i9eEOUN7CEddme1MKn65zU52SOH22ojCpxI7tmifqCZYR2mzDwmpebrKc3s5LR4roJBdn_FHo7ayRqsYVbO5bHAmXQCiZhsKXaZ9WsXTNPFLzSughNFKHacU-gx6ivnDvVYJLeHYIVLqWzEvpQOpc_Nlm-Ls1_lVPlNJ-ORsbtDxnjkVPlXCTnxHohbid-lrlRrpplrZw7HrlXBCKV2tbOLXl2xuEZvN3zYW5ZIbW0FniA0EaBTOO9IsD2yTQFO5co1DmcH2SwxBTFfpSdNJXLjIQKn5WutNY979n61AyxBpM_ixET-kMWXfKVjO0wH55qGP_GjYNf_0QLlYOhniO1_GH5hahkRSij43Q8QakcQLuRIaJ8rtUMHjwNCupNQ8kUNJ4VKOjINOGKYUuNl84oNfkHm1opATKtb3hGbwBsE7vLvQGHyf9bKMbkMb_O945Te5TogVRkbBGeS1XlFW_BqLpvcecTKqvw9R32xBF93zSYImlNHH3CEvxOwfoh5cAgs7vUkmPdh7HD-uBnt2OpEIBxp2L55gD0YD2FtalxQXpDJyQnl9R1EPR22F_G-N2vYknga6hMBuGRHuUsCOWC452fdIntJ76E4yj1vowGXw7rHlakwLxeBpu77pnR-ib_zfg87lLvwAs0lw7nBe5DQawha6FAF2lsmzsSu77RtXVcKp7-jbLSaUbEah6zauo7mdEz9OGVD_2TB_r6X63rD44SNR_hjZWk9l]--></g></svg>