<?xml version="1.0" encoding="us-ascii" standalone="no"?><svg xmlns="http://www.w3.org/2000/svg" xmlns:xlink="http://www.w3.org/1999/xlink" contentStyleType="text/css" height="1107px" preserveAspectRatio="none" style="width:1704px;height:1107px;background:#FFFFFF;" version="1.1" viewBox="0 0 1704 1107" width="1704px" zoomAndPan="magnify"><defs/><g><text fill="#000000" font-family="sans-serif" font-size="14" font-weight="bold" lengthAdjust="spacing" textLength="215" x="743.5" y="27.6738">US09 - Sequence Diagram Split</text><rect fill="#FFFFFF" height="890.6016" style="stroke:#181818;stroke-width:1.0;" width="10" x="21" y="127.2813"/><rect fill="#FFFFFF" height="69.1641" style="stroke:#181818;stroke-width:1.0;" width="10" x="500" y="147.8047"/><rect fill="#FFFFFF" height="182.125" style="stroke:#181818;stroke-width:1.0;" width="10" x="500" y="245.4922"/><rect fill="#FFFFFF" height="168.7188" style="stroke:#181818;stroke-width:1.0;" width="10" x="500" y="456.1406"/><rect fill="#FFFFFF" height="28.5234" style="stroke:#181818;stroke-width:1.0;" width="10" x="500" y="653.3828"/><rect fill="#FFFFFF" height="43.0469" style="stroke:#181818;stroke-width:1.0;" width="10" x="500" y="710.4297"/><rect fill="#FFFFFF" height="169.8359" style="stroke:#181818;stroke-width:1.0;" width="10" x="500" y="782"/><rect fill="#FFFFFF" height="28.5234" style="stroke:#181818;stroke-width:1.0;" width="10" x="500" y="980.3594"/><rect fill="#FFFFFF" height="125.0781" style="stroke:#181818;stroke-width:1.0;" width="10" x="766" y="274.0156"/><rect fill="#FFFFFF" height="111.6719" style="stroke:#181818;stroke-width:1.0;" width="10" x="766" y="484.6641"/><rect fill="#FFFFFF" height="98.2656" style="stroke:#181818;stroke-width:1.0;" width="10" x="766" y="825.0469"/><line style="stroke:#181818;stroke-width:0.5;stroke-dasharray:5.0,5.0;" x1="26" x2="26" y1="117.2813" y2="1026.8828"/><line style="stroke:#181818;stroke-width:0.5;stroke-dasharray:5.0,5.0;" x1="505" x2="505" y1="117.2813" y2="1026.8828"/><line style="stroke:#181818;stroke-width:0.5;stroke-dasharray:5.0,5.0;" x1="771" x2="771" y1="186.125" y2="1026.8828"/><line style="stroke:#181818;stroke-width:0.5;stroke-dasharray:5.0,5.0;" x1="914" x2="914" y1="117.2813" y2="1026.8828"/><line style="stroke:#181818;stroke-width:0.5;stroke-dasharray:5.0,5.0;" x1="1021" x2="1021" y1="117.2813" y2="1026.8828"/><line style="stroke:#181818;stroke-width:0.5;stroke-dasharray:5.0,5.0;" x1="1137" x2="1137" y1="117.2813" y2="1026.8828"/><line style="stroke:#181818;stroke-width:0.5;stroke-dasharray:5.0,5.0;" x1="1330" x2="1330" y1="117.2813" y2="1026.8828"/><line style="stroke:#181818;stroke-width:0.5;stroke-dasharray:5.0,5.0;" x1="1539" x2="1539" y1="117.2813" y2="1026.8828"/><line style="stroke:#181818;stroke-width:0.5;stroke-dasharray:5.0,5.0;" x1="1660" x2="1660" y1="117.2813" y2="1026.8828"/><text fill="#000000" font-family="sans-serif" font-size="14" lengthAdjust="spacing" textLength="36" x="5" y="114.3145">Client</text><ellipse cx="26" cy="50.1406" fill="#E3E3E3" rx="8" ry="8" style="stroke:#181818;stroke-width:0.5;"/><path d="M26,58.1406 L26,85.1406 M13,66.1406 L39,66.1406 M26,85.1406 L13,100.1406 M26,85.1406 L39,100.1406 " fill="none" style="stroke:#181818;stroke-width:0.5;"/><text fill="#000000" font-family="sans-serif" font-size="14" lengthAdjust="spacing" textLength="36" x="5" y="1038.5566">Client</text><ellipse cx="26" cy="1050.0234" fill="#E3E3E3" rx="8" ry="8" style="stroke:#181818;stroke-width:0.5;"/><path d="M26,1058.0234 L26,1085.0234 M13,1066.0234 L39,1066.0234 M26,1085.0234 L13,1100.0234 M26,1085.0234 L39,1100.0234 " fill="none" style="stroke:#181818;stroke-width:0.5;"/><rect fill="#E3E3E3" height="29.6406" rx="2.5" ry="2.5" style="stroke:#181818;stroke-width:0.5;" width="120" x="445" y="86.6406"/><text fill="#000000" font-family="sans-serif" font-size="14" lengthAdjust="spacing" textLength="106" x="452" y="106.3145">:SendMessageUI</text><rect fill="#E3E3E3" height="29.6406" rx="2.5" ry="2.5" style="stroke:#181818;stroke-width:0.5;" width="120" x="445" y="1025.8828"/><text fill="#000000" font-family="sans-serif" font-size="14" lengthAdjust="spacing" textLength="106" x="452" y="1045.5566">:SendMessageUI</text><rect fill="#E3E3E3" height="29.6406" rx="2.5" ry="2.5" style="stroke:#181818;stroke-width:0.5;" width="170" x="686" y="1025.8828"/><text fill="#000000" font-family="sans-serif" font-size="14" lengthAdjust="spacing" textLength="156" x="693" y="1045.5566">:SendMessageController</text><rect fill="#E3E3E3" height="29.6406" rx="2.5" ry="2.5" style="stroke:#181818;stroke-width:0.5;" width="97" x="866" y="86.6406"/><text fill="#000000" font-family="sans-serif" font-size="14" lengthAdjust="spacing" textLength="83" x="873" y="106.3145">:Repositories</text><rect fill="#E3E3E3" height="29.6406" rx="2.5" ry="2.5" style="stroke:#181818;stroke-width:0.5;" width="97" x="866" y="1025.8828"/><text fill="#000000" font-family="sans-serif" font-size="14" lengthAdjust="spacing" textLength="83" x="873" y="1045.5566">:Repositories</text><rect fill="#E3E3E3" height="45.2813" rx="2.5" ry="2.5" style="stroke:#181818;stroke-width:0.5;" width="97" x="973" y="71"/><text fill="#000000" font-family="sans-serif" font-size="14" lengthAdjust="spacing" textLength="74" x="984.5" y="90.6738">repositories</text><text fill="#000000" font-family="sans-serif" font-size="14" lengthAdjust="spacing" textLength="83" x="980" y="106.3145">:Repositories</text><rect fill="#E3E3E3" height="45.2813" rx="2.5" ry="2.5" style="stroke:#181818;stroke-width:0.5;" width="97" x="973" y="1025.8828"/><text fill="#000000" font-family="sans-serif" font-size="14" lengthAdjust="spacing" textLength="74" x="984.5" y="1045.5566">repositories</text><text fill="#000000" font-family="sans-serif" font-size="14" lengthAdjust="spacing" textLength="83" x="980" y="1061.1973">:Repositories</text><rect fill="#E3E3E3" height="45.2813" rx="2.5" ry="2.5" style="stroke:#181818;stroke-width:0.5;" width="115" x="1080" y="71"/><text fill="#000000" font-family="sans-serif" font-size="14" lengthAdjust="spacing" textLength="101" x="1087" y="90.6738">UserRepository:</text><text fill="#000000" font-family="sans-serif" font-size="14" lengthAdjust="spacing" textLength="101" x="1087" y="106.3145">User Repository</text><rect fill="#E3E3E3" height="45.2813" rx="2.5" ry="2.5" style="stroke:#181818;stroke-width:0.5;" width="115" x="1080" y="1025.8828"/><text fill="#000000" font-family="sans-serif" font-size="14" lengthAdjust="spacing" textLength="101" x="1087" y="1045.5566">UserRepository:</text><text fill="#000000" font-family="sans-serif" font-size="14" lengthAdjust="spacing" textLength="101" x="1087" y="1061.1973">User Repository</text><rect fill="#E3E3E3" height="45.2813" rx="2.5" ry="2.5" style="stroke:#181818;stroke-width:0.5;" width="251" x="1205" y="71"/><text fill="#000000" font-family="sans-serif" font-size="14" lengthAdjust="spacing" textLength="224" x="1218.5" y="90.6738">publishedAnnouncementRepository</text><text fill="#000000" font-family="sans-serif" font-size="14" lengthAdjust="spacing" textLength="237" x="1212" y="106.3145">:Published Announcement Repository</text><rect fill="#E3E3E3" height="45.2813" rx="2.5" ry="2.5" style="stroke:#181818;stroke-width:0.5;" width="251" x="1205" y="1025.8828"/><text fill="#000000" font-family="sans-serif" font-size="14" lengthAdjust="spacing" textLength="224" x="1218.5" y="1045.5566">publishedAnnouncementRepository</text><text fill="#000000" font-family="sans-serif" font-size="14" lengthAdjust="spacing" textLength="237" x="1212" y="1061.1973">:Published Announcement Repository</text><rect fill="#E3E3E3" height="45.2813" rx="2.5" ry="2.5" style="stroke:#181818;stroke-width:0.5;" width="147" x="1466" y="71"/><text fill="#000000" font-family="sans-serif" font-size="14" lengthAdjust="spacing" textLength="129" x="1473" y="90.6738">messageRepository:</text><text fill="#000000" font-family="sans-serif" font-size="14" lengthAdjust="spacing" textLength="129" x="1475" y="106.3145">Message Repository</text><rect fill="#E3E3E3" height="45.2813" rx="2.5" ry="2.5" style="stroke:#181818;stroke-width:0.5;" width="147" x="1466" y="1025.8828"/><text fill="#000000" font-family="sans-serif" font-size="14" lengthAdjust="spacing" textLength="129" x="1473" y="1045.5566">messageRepository:</text><text fill="#000000" font-family="sans-serif" font-size="14" lengthAdjust="spacing" textLength="129" x="1475" y="1061.1973">Message Repository</text><rect fill="#E3E3E3" height="45.2813" rx="2.5" ry="2.5" style="stroke:#181818;stroke-width:0.5;" width="75" x="1623" y="71"/><text fill="#000000" font-family="sans-serif" font-size="14" lengthAdjust="spacing" textLength="61" x="1630" y="90.6738">message:</text><text fill="#000000" font-family="sans-serif" font-size="14" lengthAdjust="spacing" textLength="57" x="1632" y="106.3145">Message</text><rect fill="#E3E3E3" height="45.2813" rx="2.5" ry="2.5" style="stroke:#181818;stroke-width:0.5;" width="75" x="1623" y="1025.8828"/><text fill="#000000" font-family="sans-serif" font-size="14" lengthAdjust="spacing" textLength="61" x="1630" y="1045.5566">message:</text><text fill="#000000" font-family="sans-serif" font-size="14" lengthAdjust="spacing" textLength="57" x="1632" y="1061.1973">Message</text><rect fill="#FFFFFF" height="890.6016" style="stroke:#181818;stroke-width:1.0;" width="10" x="21" y="127.2813"/><rect fill="#FFFFFF" height="69.1641" style="stroke:#181818;stroke-width:1.0;" width="10" x="500" y="147.8047"/><rect fill="#FFFFFF" height="182.125" style="stroke:#181818;stroke-width:1.0;" width="10" x="500" y="245.4922"/><rect fill="#FFFFFF" height="168.7188" style="stroke:#181818;stroke-width:1.0;" width="10" x="500" y="456.1406"/><rect fill="#FFFFFF" height="28.5234" style="stroke:#181818;stroke-width:1.0;" width="10" x="500" y="653.3828"/><rect fill="#FFFFFF" height="43.0469" style="stroke:#181818;stroke-width:1.0;" width="10" x="500" y="710.4297"/><rect fill="#FFFFFF" height="169.8359" style="stroke:#181818;stroke-width:1.0;" width="10" x="500" y="782"/><rect fill="#FFFFFF" height="28.5234" style="stroke:#181818;stroke-width:1.0;" width="10" x="500" y="980.3594"/><rect fill="#FFFFFF" height="125.0781" style="stroke:#181818;stroke-width:1.0;" width="10" x="766" y="274.0156"/><rect fill="#FFFFFF" height="111.6719" style="stroke:#181818;stroke-width:1.0;" width="10" x="766" y="484.6641"/><rect fill="#FFFFFF" height="98.2656" style="stroke:#181818;stroke-width:1.0;" width="10" x="766" y="825.0469"/><polygon fill="#181818" points="488,143.8047,498,147.8047,488,151.8047,492,147.8047" style="stroke:#181818;stroke-width:1.0;"/><line style="stroke:#181818;stroke-width:1.0;" x1="31" x2="494" y1="147.8047" y2="147.8047"/><text fill="#000000" font-family="sans-serif" font-size="13" font-weight="bold" lengthAdjust="spacing" textLength="7" x="38" y="143.0498">1</text><text fill="#000000" font-family="sans-serif" font-size="13" lengthAdjust="spacing" textLength="136" x="49" y="143.0498">asks to schedule a visit</text><polygon fill="#181818" points="674,172.3281,684,176.3281,674,180.3281,678,176.3281" style="stroke:#181818;stroke-width:1.0;"/><line style="stroke:#181818;stroke-width:1.0;" x1="510" x2="680" y1="176.3281" y2="176.3281"/><text fill="#000000" font-family="sans-serif" font-size="13" font-weight="bold" lengthAdjust="spacing" textLength="7" x="517" y="171.5732">2</text><text fill="#000000" font-family="sans-serif" font-size="13" lengthAdjust="spacing" textLength="36" x="528" y="171.5732">create</text><rect fill="#E3E3E3" height="29.6406" rx="2.5" ry="2.5" style="stroke:#181818;stroke-width:0.5;" width="170" x="686" y="155.8047"/><text fill="#000000" font-family="sans-serif" font-size="14" lengthAdjust="spacing" textLength="156" x="693" y="175.4785">:SendMessageController</text><polygon fill="#181818" points="42,212.9688,32,216.9688,42,220.9688,38,216.9688" style="stroke:#181818;stroke-width:1.0;"/><line style="stroke:#181818;stroke-width:1.0;stroke-dasharray:2.0,2.0;" x1="36" x2="504" y1="216.9688" y2="216.9688"/><text fill="#000000" font-family="sans-serif" font-size="13" font-weight="bold" lengthAdjust="spacing" textLength="7" x="48" y="212.2139">3</text><text fill="#000000" font-family="sans-serif" font-size="13" lengthAdjust="spacing" textLength="114" x="59" y="212.2139">requests an identity</text><polygon fill="#181818" points="488,241.4922,498,245.4922,488,249.4922,492,245.4922" style="stroke:#181818;stroke-width:1.0;"/><line style="stroke:#181818;stroke-width:1.0;" x1="31" x2="494" y1="245.4922" y2="245.4922"/><text fill="#000000" font-family="sans-serif" font-size="13" font-weight="bold" lengthAdjust="spacing" textLength="7" x="38" y="240.7373">4</text><text fill="#000000" font-family="sans-serif" font-size="13" lengthAdjust="spacing" textLength="95" x="49" y="240.7373">inserts his email</text><polygon fill="#181818" points="754,270.0156,764,274.0156,754,278.0156,758,274.0156" style="stroke:#181818;stroke-width:1.0;"/><line style="stroke:#181818;stroke-width:1.0;" x1="510" x2="760" y1="274.0156" y2="274.0156"/><text fill="#000000" font-family="sans-serif" font-size="13" font-weight="bold" lengthAdjust="spacing" textLength="7" x="517" y="269.2607">5</text><text fill="#000000" font-family="sans-serif" font-size="13" lengthAdjust="spacing" textLength="116" x="528" y="269.2607">getUserInformation()</text><rect fill="none" height="91.5547" style="stroke:#000000;stroke-width:1.5;" width="176" x="683" y="282.0156"/><path d="M683,282.0156 L745,282.0156 L745,288.0156 L735,298.0156 L683,298.0156 L683,282.0156 " fill="#EEEEEE" style="stroke:#000000;stroke-width:2.0;"/><text fill="#000000" font-family="sans-serif" font-size="13" font-weight="bold" lengthAdjust="spacing" textLength="17" x="696" y="295.7842">ref</text><text fill="#000000" font-family="sans-serif" font-size="12" lengthAdjust="spacing" textLength="3" x="769.5" y="312.8789">&#160;</text><text fill="#000000" font-family="sans-serif" font-size="12" lengthAdjust="spacing" textLength="114" x="714" y="326.2852">Get User Information</text><text fill="#000000" font-family="sans-serif" font-size="12" lengthAdjust="spacing" textLength="3" x="769.5" y="339.6914">&#160;</text><text fill="#000000" font-family="sans-serif" font-size="12" lengthAdjust="spacing" textLength="3" x="769.5" y="353.0977">&#160;</text><text fill="#000000" font-family="sans-serif" font-size="12" lengthAdjust="spacing" textLength="3" x="769.5" y="366.5039">&#160;</text><polygon fill="#181818" points="521,395.0938,511,399.0938,521,403.0938,517,399.0938" style="stroke:#181818;stroke-width:1.0;"/><line style="stroke:#181818;stroke-width:1.0;stroke-dasharray:2.0,2.0;" x1="515" x2="770" y1="399.0938" y2="399.0938"/><text fill="#000000" font-family="sans-serif" font-size="13" font-weight="bold" lengthAdjust="spacing" textLength="7" x="527" y="394.3389">6</text><text fill="#000000" font-family="sans-serif" font-size="13" lengthAdjust="spacing" textLength="94" x="538" y="394.3389">User Information</text><polygon fill="#181818" points="42,423.6172,32,427.6172,42,431.6172,38,427.6172" style="stroke:#181818;stroke-width:1.0;"/><line style="stroke:#181818;stroke-width:1.0;stroke-dasharray:2.0,2.0;" x1="36" x2="504" y1="427.6172" y2="427.6172"/><text fill="#000000" font-family="sans-serif" font-size="13" font-weight="bold" lengthAdjust="spacing" textLength="7" x="48" y="422.8623">7</text><text fill="#000000" font-family="sans-serif" font-size="13" lengthAdjust="spacing" textLength="299" x="59" y="422.8623">shows User information and requests a confirmation</text><polygon fill="#181818" points="488,452.1406,498,456.1406,488,460.1406,492,456.1406" style="stroke:#181818;stroke-width:1.0;"/><line style="stroke:#181818;stroke-width:1.0;" x1="31" x2="494" y1="456.1406" y2="456.1406"/><text fill="#000000" font-family="sans-serif" font-size="13" font-weight="bold" lengthAdjust="spacing" textLength="7" x="38" y="451.3857">8</text><text fill="#000000" font-family="sans-serif" font-size="13" lengthAdjust="spacing" textLength="190" x="49" y="451.3857">confirms his personal information</text><polygon fill="#181818" points="754,480.6641,764,484.6641,754,488.6641,758,484.6641" style="stroke:#181818;stroke-width:1.0;"/><line style="stroke:#181818;stroke-width:1.0;" x1="510" x2="760" y1="484.6641" y2="484.6641"/><text fill="#000000" font-family="sans-serif" font-size="13" font-weight="bold" lengthAdjust="spacing" textLength="7" x="517" y="479.9092">9</text><text fill="#000000" font-family="sans-serif" font-size="13" lengthAdjust="spacing" textLength="85" x="528" y="479.9092">getProperties()</text><rect fill="none" height="78.1484" style="stroke:#000000;stroke-width:1.5;" width="176" x="683" y="492.6641"/><path d="M683,492.6641 L745,492.6641 L745,498.6641 L735,508.6641 L683,508.6641 L683,492.6641 " fill="#EEEEEE" style="stroke:#000000;stroke-width:2.0;"/><text fill="#000000" font-family="sans-serif" font-size="13" font-weight="bold" lengthAdjust="spacing" textLength="17" x="696" y="506.4326">ref</text><text fill="#000000" font-family="sans-serif" font-size="12" lengthAdjust="spacing" textLength="3" x="769.5" y="523.5273">&#160;</text><text fill="#000000" font-family="sans-serif" font-size="12" lengthAdjust="spacing" textLength="79" x="731.5" y="536.9336">Get Properties</text><text fill="#000000" font-family="sans-serif" font-size="12" lengthAdjust="spacing" textLength="3" x="769.5" y="550.3398">&#160;</text><text fill="#000000" font-family="sans-serif" font-size="12" lengthAdjust="spacing" textLength="3" x="769.5" y="563.7461">&#160;</text><polygon fill="#181818" points="521,592.3359,511,596.3359,521,600.3359,517,596.3359" style="stroke:#181818;stroke-width:1.0;"/><line style="stroke:#181818;stroke-width:1.0;stroke-dasharray:2.0,2.0;" x1="515" x2="770" y1="596.3359" y2="596.3359"/><text fill="#000000" font-family="sans-serif" font-size="13" font-weight="bold" lengthAdjust="spacing" textLength="14" x="527" y="591.5811">10</text><text fill="#000000" font-family="sans-serif" font-size="13" lengthAdjust="spacing" textLength="59" x="545" y="591.5811">Properties</text><polygon fill="#181818" points="42,620.8594,32,624.8594,42,628.8594,38,624.8594" style="stroke:#181818;stroke-width:1.0;"/><line style="stroke:#181818;stroke-width:1.0;stroke-dasharray:2.0,2.0;" x1="36" x2="504" y1="624.8594" y2="624.8594"/><text fill="#000000" font-family="sans-serif" font-size="13" font-weight="bold" lengthAdjust="spacing" textLength="14" x="48" y="620.1045">11</text><text fill="#000000" font-family="sans-serif" font-size="13" lengthAdjust="spacing" textLength="427" x="66" y="620.1045">shows a list of properties sorted from the most recent entries to the oldest</text><polygon fill="#181818" points="488,649.3828,498,653.3828,488,657.3828,492,653.3828" style="stroke:#181818;stroke-width:1.0;"/><line style="stroke:#181818;stroke-width:1.0;" x1="31" x2="494" y1="653.3828" y2="653.3828"/><text fill="#000000" font-family="sans-serif" font-size="13" font-weight="bold" lengthAdjust="spacing" textLength="14" x="38" y="648.6279">12</text><text fill="#000000" font-family="sans-serif" font-size="13" lengthAdjust="spacing" textLength="186" x="56" y="648.6279">selects a property of his interest</text><polygon fill="#181818" points="42,677.9063,32,681.9063,42,685.9063,38,681.9063" style="stroke:#181818;stroke-width:1.0;"/><line style="stroke:#181818;stroke-width:1.0;stroke-dasharray:2.0,2.0;" x1="36" x2="504" y1="681.9063" y2="681.9063"/><text fill="#000000" font-family="sans-serif" font-size="13" font-weight="bold" lengthAdjust="spacing" textLength="14" x="48" y="677.1514">13</text><text fill="#000000" font-family="sans-serif" font-size="13" lengthAdjust="spacing" textLength="215" x="66" y="677.1514">asks to confirm the property selected</text><polygon fill="#181818" points="488,706.4297,498,710.4297,488,714.4297,492,710.4297" style="stroke:#181818;stroke-width:1.0;"/><line style="stroke:#181818;stroke-width:1.0;" x1="31" x2="494" y1="710.4297" y2="710.4297"/><text fill="#000000" font-family="sans-serif" font-size="13" font-weight="bold" lengthAdjust="spacing" textLength="14" x="38" y="705.6748">14</text><text fill="#000000" font-family="sans-serif" font-size="13" lengthAdjust="spacing" textLength="153" x="56" y="705.6748">confirms the selected data</text><polygon fill="#181818" points="42,749.4766,32,753.4766,42,757.4766,38,753.4766" style="stroke:#181818;stroke-width:1.0;"/><line style="stroke:#181818;stroke-width:1.0;stroke-dasharray:2.0,2.0;" x1="36" x2="504" y1="753.4766" y2="753.4766"/><text fill="#000000" font-family="sans-serif" font-size="13" font-weight="bold" lengthAdjust="spacing" textLength="14" x="48" y="741.46">15</text><text fill="#000000" font-family="sans-serif" font-size="13" lengthAdjust="spacing" textLength="277" x="66" y="734.1982">requests the name, phone number and preferred</text><text fill="#000000" font-family="sans-serif" font-size="13" lengthAdjust="spacing" textLength="353" x="66" y="748.7217">date and time slot (from x hour to y hour) for the property visit</text><polygon fill="#181818" points="488,778,498,782,488,786,492,782" style="stroke:#181818;stroke-width:1.0;"/><line style="stroke:#181818;stroke-width:1.0;" x1="31" x2="494" y1="782" y2="782"/><text fill="#000000" font-family="sans-serif" font-size="13" font-weight="bold" lengthAdjust="spacing" textLength="14" x="38" y="777.2451">16</text><text fill="#000000" font-family="sans-serif" font-size="13" lengthAdjust="spacing" textLength="158" x="56" y="777.2451">submits the requested data</text><polygon fill="#181818" points="754,821.0469,764,825.0469,754,829.0469,758,825.0469" style="stroke:#181818;stroke-width:1.0;"/><line style="stroke:#181818;stroke-width:1.0;" x1="510" x2="760" y1="825.0469" y2="825.0469"/><text fill="#000000" font-family="sans-serif" font-size="13" font-weight="bold" lengthAdjust="spacing" textLength="14" x="517" y="813.0303">17</text><text fill="#000000" font-family="sans-serif" font-size="13" lengthAdjust="spacing" textLength="215" x="535" y="805.7686">createMessage(name, phone number</text><text fill="#000000" font-family="sans-serif" font-size="13" lengthAdjust="spacing" textLength="133" x="535" y="820.292">and date and time slot)</text><rect fill="none" height="64.7422" style="stroke:#000000;stroke-width:1.5;" width="176" x="683" y="833.0469"/><path d="M683,833.0469 L745,833.0469 L745,839.0469 L735,849.0469 L683,849.0469 L683,833.0469 " fill="#EEEEEE" style="stroke:#000000;stroke-width:2.0;"/><text fill="#000000" font-family="sans-serif" font-size="13" font-weight="bold" lengthAdjust="spacing" textLength="17" x="696" y="846.8154">ref</text><text fill="#000000" font-family="sans-serif" font-size="12" lengthAdjust="spacing" textLength="3" x="769.5" y="863.9102">&#160;</text><text fill="#000000" font-family="sans-serif" font-size="12" lengthAdjust="spacing" textLength="91" x="725.5" y="877.3164">Create Message</text><text fill="#000000" font-family="sans-serif" font-size="12" lengthAdjust="spacing" textLength="3" x="769.5" y="890.7227">&#160;</text><polygon fill="#181818" points="521,919.3125,511,923.3125,521,927.3125,517,923.3125" style="stroke:#181818;stroke-width:1.0;"/><line style="stroke:#181818;stroke-width:1.0;stroke-dasharray:2.0,2.0;" x1="515" x2="770" y1="923.3125" y2="923.3125"/><text fill="#000000" font-family="sans-serif" font-size="13" font-weight="bold" lengthAdjust="spacing" textLength="14" x="527" y="918.5576">18</text><text fill="#000000" font-family="sans-serif" font-size="13" lengthAdjust="spacing" textLength="53" x="545" y="918.5576">Message</text><polygon fill="#181818" points="42,947.8359,32,951.8359,42,955.8359,38,951.8359" style="stroke:#181818;stroke-width:1.0;"/><line style="stroke:#181818;stroke-width:1.0;stroke-dasharray:2.0,2.0;" x1="36" x2="504" y1="951.8359" y2="951.8359"/><text fill="#000000" font-family="sans-serif" font-size="13" font-weight="bold" lengthAdjust="spacing" textLength="14" x="48" y="947.0811">19</text><text fill="#000000" font-family="sans-serif" font-size="13" lengthAdjust="spacing" textLength="201" x="66" y="947.0811">asks to confirm the submitted data</text><polygon fill="#181818" points="488,976.3594,498,980.3594,488,984.3594,492,980.3594" style="stroke:#181818;stroke-width:1.0;"/><line style="stroke:#181818;stroke-width:1.0;" x1="31" x2="494" y1="980.3594" y2="980.3594"/><text fill="#000000" font-family="sans-serif" font-size="13" font-weight="bold" lengthAdjust="spacing" textLength="14" x="38" y="975.6045">20</text><text fill="#000000" font-family="sans-serif" font-size="13" lengthAdjust="spacing" textLength="161" x="56" y="975.6045">confirms the submitted data</text><polygon fill="#181818" points="42,1004.8828,32,1008.8828,42,1012.8828,38,1008.8828" style="stroke:#181818;stroke-width:1.0;"/><line style="stroke:#181818;stroke-width:1.0;stroke-dasharray:2.0,2.0;" x1="36" x2="504" y1="1008.8828" y2="1008.8828"/><text fill="#000000" font-family="sans-serif" font-size="13" font-weight="bold" lengthAdjust="spacing" textLength="14" x="48" y="1004.1279">21</text><text fill="#000000" font-family="sans-serif" font-size="13" lengthAdjust="spacing" textLength="326" x="66" y="1004.1279">registers the information and shows a success message</text><!--SRC=[tLXBRziu4BxhLmnoiLCqmCAtzQ50aG25WGqGrEkRBumqjeX8f9QaqlhVxr0I9L8FI-xZqW01177upJVKDmzQlt5HCCLooAMGSQfaZc1KYP5kLmeMlx4pxiqbGr0O6oREcM-WKvR8RroSuSGoZL5ak27Jm_wll-41zlXVYI96UEBiRCttHSPD5B7II57chwYYQ9No1E4afNcLtoCM6wdWxZ7ZACmTC0trOqJk38zvmOI1k-qUHVACMXEtmwuoE-ocJHwbC4fc6QeQyT-l__ICls8XDIVN77LbqxwuX9RACpoAQ_isuSQ3HjKjRe_2ll3Cwo02en2WA5yphbDCFWiXIphKd8wbCoOoByu2V9E-ZncSq6bU7w1778wYETK-yC1s56hRxlStXPA0ve_4mD-PGQU1Qg5-XeTFzCct1F6cmKZGCKLKal8Ol7DoFyGWWRGl3pkxt-hWmmVOGgoGB2AtOfTg9rlIF2bO6mrC0EbKaBmlBKo20tIV7MtdWhuexKwv1imPpvRoehrdD5OFEt6IAcU6Ix6-xqp3yx6A3fOKda2-ayA6Ir_GL4833pcYFFHjAWf4fVkODQ6Tq5G2OYGcWNt0nbF0AZJpu1wwGFsS6i9wXpmDFEIx6Jt1RdrX19lf43P-39D-5WQqcOeeB0bJibXT2QPNL7gcFVnUI856LbTZwRa994Ubk7jHH-OoPAZ42VnQoAD9gbFvhIwUb70j4gLiukKln5ASkFEoF8MRRNKE5wYq52pp_ToMqYzA4eWXgTDd-_baTWdTmVwngVnolN7zueIUyVQpQJtJXKUqSYt5vtfwR- -SS_yOEbrTJ_yv2WlBWQ_ZguLWK0TS6M10F0p84nGj5cYf3Cr59vfnmQH84o-Pq3nh4vt-hLpj566NP9PGmLXQ8CWhPZGNMx-DlulrROi55mQLZpL0MdL1LD6_8HRD2Lps5IucQmVxX3fMlB0bvpuQFG0t33Kbgmgd9QKRlEMHjPNFuhZja333fYFgCMhBhuKGBCUFKAHIq7CrwbKbkg3oXaeHz54a5ik-D9mk8pgJ1jRLH_iEgIoL3UvIFTtJZK650OPpt_ntArzptZ1hQCv5jnfyBFr4zkkHm8x2HZ4CvxuxfZh7tFJP3CMtOStqZec-yLWvX6StUg-ymbHJSXe49q8_-MzjA3Cr_zP6Cjj49Xl8S_-2ie3fPfngq2g65v_LZpU60HWiKCYKFgOxnWZdeVMGIqVGkpZza7HlT1US1qlSpNxTBF_MK0FVxopZYHVqRoJGASobwhK6FAF2NsmzsSu77Trnlx6PZ_MokcGFolIDZMmSPBwJdMcieF6_0kbVCzpeeSiufdZRdpKcAFuF]--></g></svg>