<?xml version="1.0" encoding="us-ascii" standalone="no"?><svg xmlns="http://www.w3.org/2000/svg" xmlns:xlink="http://www.w3.org/1999/xlink" contentStyleType="text/css" height="1234px" preserveAspectRatio="none" style="width:1917px;height:1234px;background:#FFFFFF;" version="1.1" viewBox="0 0 1917 1234" width="1917px" zoomAndPan="magnify"><defs/><g><text fill="#000000" font-family="sans-serif" font-size="14" font-weight="bold" lengthAdjust="spacing" textLength="228" x="843.75" y="28.5352">US010 - Sequence Diagram Full</text><rect fill="#FFFFFF" height="1015.293" style="stroke:#181818;stroke-width:1.0;" width="10" x="23" y="128.9766"/><rect fill="#FFFFFF" height="305.2832" style="stroke:#181818;stroke-width:1.0;" width="10" x="518" y="150.2871"/><rect fill="#FFFFFF" height="29.3105" style="stroke:#181818;stroke-width:1.0;" width="10" x="518" y="484.8809"/><rect fill="#FFFFFF" height="29.3105" style="stroke:#181818;stroke-width:1.0;" width="10" x="518" y="543.502"/><rect fill="#FFFFFF" height="542.1465" style="stroke:#181818;stroke-width:1.0;" width="10" x="518" y="602.123"/><rect fill="#FFFFFF" height="205.1738" style="stroke:#181818;stroke-width:1.0;" width="10" x="753" y="221.0859"/><rect fill="#FFFFFF" height="512.8359" style="stroke:#181818;stroke-width:1.0;" width="10" x="753" y="631.4336"/><rect fill="#FFFFFF" height="29.3105" style="stroke:#181818;stroke-width:1.0;" width="10" x="893.5" y="250.3965"/><rect fill="#FFFFFF" height="29.3105" style="stroke:#181818;stroke-width:1.0;" width="10" x="1046" y="309.0176"/><rect fill="#FFFFFF" height="29.3105" style="stroke:#181818;stroke-width:1.0;" width="10" x="1046" y="660.7441"/><rect fill="#FFFFFF" height="29.3105" style="stroke:#181818;stroke-width:1.0;" width="10" x="1046" y="777.9863"/><rect fill="#FFFFFF" height="29.3105" style="stroke:#181818;stroke-width:1.0;" width="10" x="1239" y="367.6387"/><rect fill="#FFFFFF" height="29.3105" style="stroke:#181818;stroke-width:1.0;" width="10" x="1476.5" y="719.3652"/><rect fill="#FFFFFF" height="240.041" style="stroke:#181818;stroke-width:1.0;" width="10" x="1645.5" y="836.6074"/><line style="stroke:#181818;stroke-width:0.5;stroke-dasharray:5.0,5.0;" x1="28" x2="28" y1="118.9766" y2="1153.2695"/><line style="stroke:#181818;stroke-width:0.5;stroke-dasharray:5.0,5.0;" x1="523" x2="523" y1="118.9766" y2="1153.2695"/><line style="stroke:#181818;stroke-width:0.5;stroke-dasharray:5.0,5.0;" x1="758" x2="758" y1="189.0313" y2="1153.2695"/><line style="stroke:#181818;stroke-width:0.5;stroke-dasharray:5.0,5.0;" x1="898" x2="898" y1="118.9766" y2="1153.2695"/><line style="stroke:#181818;stroke-width:0.5;stroke-dasharray:5.0,5.0;" x1="1050.5" x2="1050.5" y1="118.9766" y2="1153.2695"/><line style="stroke:#181818;stroke-width:0.5;stroke-dasharray:5.0,5.0;" x1="1243.5" x2="1243.5" y1="118.9766" y2="1153.2695"/><line style="stroke:#181818;stroke-width:0.5;stroke-dasharray:5.0,5.0;" x1="1481.5" x2="1481.5" y1="118.9766" y2="1153.2695"/><line style="stroke:#181818;stroke-width:0.5;stroke-dasharray:5.0,5.0;" x1="1650.5" x2="1650.5" y1="118.9766" y2="1153.2695"/><line style="stroke:#181818;stroke-width:0.5;stroke-dasharray:5.0,5.0;" x1="1886.5" x2="1886.5" y1="875.3516" y2="1153.2695"/><text fill="#000000" font-family="sans-serif" font-size="14" lengthAdjust="spacing" textLength="40" x="5" y="116.0234">Client</text><ellipse cx="28" cy="50.9883" fill="#E3E3E3" rx="8" ry="8" style="stroke:#181818;stroke-width:0.5;"/><path d="M28,58.9883 L28,85.9883 M15,66.9883 L41,66.9883 M28,85.9883 L15,100.9883 M28,85.9883 L41,100.9883 " fill="none" style="stroke:#181818;stroke-width:0.5;"/><text fill="#000000" font-family="sans-serif" font-size="14" lengthAdjust="spacing" textLength="40" x="5" y="1165.8047">Client</text><ellipse cx="28" cy="1177.2578" fill="#E3E3E3" rx="8" ry="8" style="stroke:#181818;stroke-width:0.5;"/><path d="M28,1185.2578 L28,1212.2578 M15,1193.2578 L41,1193.2578 M28,1212.2578 L15,1227.2578 M28,1212.2578 L41,1227.2578 " fill="none" style="stroke:#181818;stroke-width:0.5;"/><rect fill="#E3E3E3" height="30.4883" rx="2.5" ry="2.5" style="stroke:#181818;stroke-width:0.5;" width="102" x="472" y="87.4883"/><text fill="#000000" font-family="sans-serif" font-size="14" lengthAdjust="spacing" textLength="88" x="479" y="108.0234">:PlaceOfferUI</text><rect fill="#E3E3E3" height="30.4883" rx="2.5" ry="2.5" style="stroke:#181818;stroke-width:0.5;" width="102" x="472" y="1152.2695"/><text fill="#000000" font-family="sans-serif" font-size="14" lengthAdjust="spacing" textLength="88" x="479" y="1172.8047">:PlaceOfferUI</text><rect fill="#E3E3E3" height="30.4883" rx="2.5" ry="2.5" style="stroke:#181818;stroke-width:0.5;" width="158" x="679" y="1152.2695"/><text fill="#000000" font-family="sans-serif" font-size="14" lengthAdjust="spacing" textLength="144" x="686" y="1172.8047">:PlaceOfferController</text><rect fill="#E3E3E3" height="30.4883" rx="2.5" ry="2.5" style="stroke:#181818;stroke-width:0.5;" width="103" x="847" y="87.4883"/><text fill="#000000" font-family="sans-serif" font-size="14" lengthAdjust="spacing" textLength="89" x="854" y="108.0234">:Repositories</text><rect fill="#E3E3E3" height="30.4883" rx="2.5" ry="2.5" style="stroke:#181818;stroke-width:0.5;" width="103" x="847" y="1152.2695"/><text fill="#000000" font-family="sans-serif" font-size="14" lengthAdjust="spacing" textLength="89" x="854" y="1172.8047">:Repositories</text><rect fill="#E3E3E3" height="46.9766" rx="2.5" ry="2.5" style="stroke:#181818;stroke-width:0.5;" width="103" x="999.5" y="71"/><text fill="#000000" font-family="sans-serif" font-size="14" lengthAdjust="spacing" textLength="82" x="1010" y="91.5352">repositories</text><text fill="#000000" font-family="sans-serif" font-size="14" lengthAdjust="spacing" textLength="89" x="1006.5" y="108.0234">:Repositories</text><rect fill="#E3E3E3" height="46.9766" rx="2.5" ry="2.5" style="stroke:#181818;stroke-width:0.5;" width="103" x="999.5" y="1152.2695"/><text fill="#000000" font-family="sans-serif" font-size="14" lengthAdjust="spacing" textLength="82" x="1010" y="1172.8047">repositories</text><text fill="#000000" font-family="sans-serif" font-size="14" lengthAdjust="spacing" textLength="89" x="1006.5" y="1189.293">:Repositories</text><rect fill="#E3E3E3" height="46.9766" rx="2.5" ry="2.5" style="stroke:#181818;stroke-width:0.5;" width="263" x="1112.5" y="71"/><text fill="#000000" font-family="sans-serif" font-size="14" lengthAdjust="spacing" textLength="246" x="1121" y="91.5352">publishedAnnouncementRepository</text><text fill="#000000" font-family="sans-serif" font-size="14" lengthAdjust="spacing" textLength="249" x="1119.5" y="108.0234">:PublishedAnnouncementRepository</text><rect fill="#E3E3E3" height="46.9766" rx="2.5" ry="2.5" style="stroke:#181818;stroke-width:0.5;" width="263" x="1112.5" y="1152.2695"/><text fill="#000000" font-family="sans-serif" font-size="14" lengthAdjust="spacing" textLength="246" x="1121" y="1172.8047">publishedAnnouncementRepository</text><text fill="#000000" font-family="sans-serif" font-size="14" lengthAdjust="spacing" textLength="249" x="1119.5" y="1189.293">:PublishedAnnouncementRepository</text><rect fill="#E3E3E3" height="46.9766" rx="2.5" ry="2.5" style="stroke:#181818;stroke-width:0.5;" width="192" x="1385.5" y="71"/><text fill="#000000" font-family="sans-serif" font-size="14" lengthAdjust="spacing" textLength="172" x="1395.5" y="91.5352">authenticationRepository</text><text fill="#000000" font-family="sans-serif" font-size="14" lengthAdjust="spacing" textLength="178" x="1392.5" y="108.0234">:AuthenticationRepository</text><rect fill="#E3E3E3" height="46.9766" rx="2.5" ry="2.5" style="stroke:#181818;stroke-width:0.5;" width="192" x="1385.5" y="1152.2695"/><text fill="#000000" font-family="sans-serif" font-size="14" lengthAdjust="spacing" textLength="172" x="1395.5" y="1172.8047">authenticationRepository</text><text fill="#000000" font-family="sans-serif" font-size="14" lengthAdjust="spacing" textLength="178" x="1392.5" y="1189.293">:AuthenticationRepository</text><rect fill="#E3E3E3" height="46.9766" rx="2.5" ry="2.5" style="stroke:#181818;stroke-width:0.5;" width="126" x="1587.5" y="71"/><text fill="#000000" font-family="sans-serif" font-size="14" lengthAdjust="spacing" textLength="106" x="1597.5" y="91.5352">offerRepository</text><text fill="#000000" font-family="sans-serif" font-size="14" lengthAdjust="spacing" textLength="112" x="1594.5" y="108.0234">:OfferRepository</text><rect fill="#E3E3E3" height="46.9766" rx="2.5" ry="2.5" style="stroke:#181818;stroke-width:0.5;" width="126" x="1587.5" y="1152.2695"/><text fill="#000000" font-family="sans-serif" font-size="14" lengthAdjust="spacing" textLength="106" x="1597.5" y="1172.8047">offerRepository</text><text fill="#000000" font-family="sans-serif" font-size="14" lengthAdjust="spacing" textLength="112" x="1594.5" y="1189.293">:OfferRepository</text><rect fill="#E3E3E3" height="30.4883" rx="2.5" ry="2.5" style="stroke:#181818;stroke-width:0.5;" width="49" x="1862.5" y="1152.2695"/><text fill="#000000" font-family="sans-serif" font-size="14" lengthAdjust="spacing" textLength="35" x="1869.5" y="1172.8047">Offer</text><rect fill="#FFFFFF" height="1015.293" style="stroke:#181818;stroke-width:1.0;" width="10" x="23" y="128.9766"/><rect fill="#FFFFFF" height="305.2832" style="stroke:#181818;stroke-width:1.0;" width="10" x="518" y="150.2871"/><rect fill="#FFFFFF" height="29.3105" style="stroke:#181818;stroke-width:1.0;" width="10" x="518" y="484.8809"/><rect fill="#FFFFFF" height="29.3105" style="stroke:#181818;stroke-width:1.0;" width="10" x="518" y="543.502"/><rect fill="#FFFFFF" height="542.1465" style="stroke:#181818;stroke-width:1.0;" width="10" x="518" y="602.123"/><rect fill="#FFFFFF" height="205.1738" style="stroke:#181818;stroke-width:1.0;" width="10" x="753" y="221.0859"/><rect fill="#FFFFFF" height="512.8359" style="stroke:#181818;stroke-width:1.0;" width="10" x="753" y="631.4336"/><rect fill="#FFFFFF" height="29.3105" style="stroke:#181818;stroke-width:1.0;" width="10" x="893.5" y="250.3965"/><rect fill="#FFFFFF" height="29.3105" style="stroke:#181818;stroke-width:1.0;" width="10" x="1046" y="309.0176"/><rect fill="#FFFFFF" height="29.3105" style="stroke:#181818;stroke-width:1.0;" width="10" x="1046" y="660.7441"/><rect fill="#FFFFFF" height="29.3105" style="stroke:#181818;stroke-width:1.0;" width="10" x="1046" y="777.9863"/><rect fill="#FFFFFF" height="29.3105" style="stroke:#181818;stroke-width:1.0;" width="10" x="1239" y="367.6387"/><rect fill="#FFFFFF" height="29.3105" style="stroke:#181818;stroke-width:1.0;" width="10" x="1476.5" y="719.3652"/><rect fill="#FFFFFF" height="240.041" style="stroke:#181818;stroke-width:1.0;" width="10" x="1645.5" y="836.6074"/><polygon fill="#181818" points="506,146.2871,516,150.2871,506,154.2871,510,150.2871" style="stroke:#181818;stroke-width:1.0;"/><line style="stroke:#181818;stroke-width:1.0;" x1="33" x2="512" y1="150.2871" y2="150.2871"/><text fill="#000000" font-family="sans-serif" font-size="13" font-weight="bold" lengthAdjust="spacing" textLength="9" x="40" y="145.5449">1</text><text fill="#000000" font-family="sans-serif" font-size="13" lengthAdjust="spacing" textLength="224" x="53" y="145.5449">asks to place an offer on a property</text><polygon fill="#181818" points="667,175.5977,677,179.5977,667,183.5977,671,179.5977" style="stroke:#181818;stroke-width:1.0;"/><line style="stroke:#181818;stroke-width:1.0;" x1="528" x2="673" y1="179.5977" y2="179.5977"/><text fill="#000000" font-family="sans-serif" font-size="13" font-weight="bold" lengthAdjust="spacing" textLength="9" x="535" y="174.8555">2</text><text fill="#000000" font-family="sans-serif" font-size="13" lengthAdjust="spacing" textLength="38" x="548" y="174.8555">create</text><rect fill="#E3E3E3" height="30.4883" rx="2.5" ry="2.5" style="stroke:#181818;stroke-width:0.5;" width="158" x="679" y="158.2871"/><text fill="#000000" font-family="sans-serif" font-size="14" lengthAdjust="spacing" textLength="144" x="686" y="178.8223">:PlaceOfferController</text><polygon fill="#181818" points="741,217.0859,751,221.0859,741,225.0859,745,221.0859" style="stroke:#181818;stroke-width:1.0;"/><line style="stroke:#181818;stroke-width:1.0;" x1="528" x2="747" y1="221.0859" y2="221.0859"/><text fill="#000000" font-family="sans-serif" font-size="13" font-weight="bold" lengthAdjust="spacing" textLength="9" x="535" y="216.3438">3</text><text fill="#000000" font-family="sans-serif" font-size="13" lengthAdjust="spacing" textLength="184" x="548" y="216.3438">getPublishedAnnouncement()</text><polygon fill="#181818" points="881.5,246.3965,891.5,250.3965,881.5,254.3965,885.5,250.3965" style="stroke:#181818;stroke-width:1.0;"/><line style="stroke:#181818;stroke-width:1.0;" x1="763" x2="887.5" y1="250.3965" y2="250.3965"/><text fill="#000000" font-family="sans-serif" font-size="13" font-weight="bold" lengthAdjust="spacing" textLength="9" x="770" y="245.6543">4</text><text fill="#000000" font-family="sans-serif" font-size="13" lengthAdjust="spacing" textLength="81" x="783" y="245.6543">getInstance()</text><polygon fill="#181818" points="774,275.707,764,279.707,774,283.707,770,279.707" style="stroke:#181818;stroke-width:1.0;"/><line style="stroke:#181818;stroke-width:1.0;stroke-dasharray:2.0,2.0;" x1="768" x2="897.5" y1="279.707" y2="279.707"/><text fill="#000000" font-family="sans-serif" font-size="13" font-weight="bold" lengthAdjust="spacing" textLength="9" x="780" y="274.9648">5</text><text fill="#000000" font-family="sans-serif" font-size="13" lengthAdjust="spacing" textLength="75" x="793" y="274.9648">repositories</text><polygon fill="#181818" points="1034,305.0176,1044,309.0176,1034,313.0176,1038,309.0176" style="stroke:#181818;stroke-width:1.0;"/><line style="stroke:#181818;stroke-width:1.0;" x1="763" x2="1040" y1="309.0176" y2="309.0176"/><text fill="#000000" font-family="sans-serif" font-size="13" font-weight="bold" lengthAdjust="spacing" textLength="9" x="770" y="304.2754">6</text><text fill="#000000" font-family="sans-serif" font-size="13" lengthAdjust="spacing" textLength="251" x="783" y="304.2754">getPublishedAnnouncementRepository()</text><polygon fill="#181818" points="774,334.3281,764,338.3281,774,342.3281,770,338.3281" style="stroke:#181818;stroke-width:1.0;"/><line style="stroke:#181818;stroke-width:1.0;stroke-dasharray:2.0,2.0;" x1="768" x2="1050" y1="338.3281" y2="338.3281"/><text fill="#000000" font-family="sans-serif" font-size="13" font-weight="bold" lengthAdjust="spacing" textLength="9" x="780" y="333.5859">7</text><text fill="#000000" font-family="sans-serif" font-size="13" lengthAdjust="spacing" textLength="223" x="793" y="333.5859">PublishedAnnouncementRepository</text><polygon fill="#181818" points="1227,363.6387,1237,367.6387,1227,371.6387,1231,367.6387" style="stroke:#181818;stroke-width:1.0;"/><line style="stroke:#181818;stroke-width:1.0;" x1="763" x2="1233" y1="367.6387" y2="367.6387"/><text fill="#000000" font-family="sans-serif" font-size="13" font-weight="bold" lengthAdjust="spacing" textLength="9" x="770" y="362.8965">8</text><text fill="#000000" font-family="sans-serif" font-size="13" lengthAdjust="spacing" textLength="184" x="783" y="362.8965">getPublishedAnnouncement()</text><polygon fill="#181818" points="774,392.9492,764,396.9492,774,400.9492,770,396.9492" style="stroke:#181818;stroke-width:1.0;"/><line style="stroke:#181818;stroke-width:1.0;stroke-dasharray:2.0,2.0;" x1="768" x2="1243" y1="396.9492" y2="396.9492"/><text fill="#000000" font-family="sans-serif" font-size="13" font-weight="bold" lengthAdjust="spacing" textLength="9" x="780" y="392.207">9</text><text fill="#000000" font-family="sans-serif" font-size="13" lengthAdjust="spacing" textLength="179" x="793" y="392.207">PublishedAnnouncementList</text><polygon fill="#181818" points="539,422.2598,529,426.2598,539,430.2598,535,426.2598" style="stroke:#181818;stroke-width:1.0;"/><line style="stroke:#181818;stroke-width:1.0;stroke-dasharray:2.0,2.0;" x1="533" x2="757" y1="426.2598" y2="426.2598"/><text fill="#000000" font-family="sans-serif" font-size="13" font-weight="bold" lengthAdjust="spacing" textLength="18" x="545" y="421.5176">10</text><text fill="#000000" font-family="sans-serif" font-size="13" lengthAdjust="spacing" textLength="179" x="567" y="421.5176">PublishedAnnouncementList</text><polygon fill="#181818" points="44,451.5703,34,455.5703,44,459.5703,40,455.5703" style="stroke:#181818;stroke-width:1.0;"/><line style="stroke:#181818;stroke-width:1.0;stroke-dasharray:2.0,2.0;" x1="38" x2="522" y1="455.5703" y2="455.5703"/><text fill="#000000" font-family="sans-serif" font-size="13" font-weight="bold" lengthAdjust="spacing" textLength="18" x="50" y="450.8281">11</text><text fill="#000000" font-family="sans-serif" font-size="13" lengthAdjust="spacing" textLength="173" x="72" y="450.8281">shows the list of properties</text><polygon fill="#181818" points="506,480.8809,516,484.8809,506,488.8809,510,484.8809" style="stroke:#181818;stroke-width:1.0;"/><line style="stroke:#181818;stroke-width:1.0;" x1="33" x2="512" y1="484.8809" y2="484.8809"/><text fill="#000000" font-family="sans-serif" font-size="13" font-weight="bold" lengthAdjust="spacing" textLength="18" x="40" y="480.1387">12</text><text fill="#000000" font-family="sans-serif" font-size="13" lengthAdjust="spacing" textLength="175" x="62" y="480.1387">selects the desired property</text><polygon fill="#181818" points="44,510.1914,34,514.1914,44,518.1914,40,514.1914" style="stroke:#181818;stroke-width:1.0;"/><line style="stroke:#181818;stroke-width:1.0;stroke-dasharray:2.0,2.0;" x1="38" x2="522" y1="514.1914" y2="514.1914"/><text fill="#000000" font-family="sans-serif" font-size="13" font-weight="bold" lengthAdjust="spacing" textLength="18" x="50" y="509.4492">13</text><text fill="#000000" font-family="sans-serif" font-size="13" lengthAdjust="spacing" textLength="157" x="72" y="509.4492">request the offer amount</text><polygon fill="#181818" points="506,539.502,516,543.502,506,547.502,510,543.502" style="stroke:#181818;stroke-width:1.0;"/><line style="stroke:#181818;stroke-width:1.0;" x1="33" x2="512" y1="543.502" y2="543.502"/><text fill="#000000" font-family="sans-serif" font-size="13" font-weight="bold" lengthAdjust="spacing" textLength="18" x="40" y="538.7598">14</text><text fill="#000000" font-family="sans-serif" font-size="13" lengthAdjust="spacing" textLength="444" x="62" y="538.7598">places an offer to purchase a property by submitting the order amount</text><polygon fill="#181818" points="44,568.8125,34,572.8125,44,576.8125,40,572.8125" style="stroke:#181818;stroke-width:1.0;"/><line style="stroke:#181818;stroke-width:1.0;stroke-dasharray:2.0,2.0;" x1="38" x2="522" y1="572.8125" y2="572.8125"/><text fill="#000000" font-family="sans-serif" font-size="13" font-weight="bold" lengthAdjust="spacing" textLength="18" x="50" y="568.0703">15</text><text fill="#000000" font-family="sans-serif" font-size="13" lengthAdjust="spacing" textLength="239" x="72" y="568.0703">shows an offer to purchase a property</text><polygon fill="#181818" points="506,598.123,516,602.123,506,606.123,510,602.123" style="stroke:#181818;stroke-width:1.0;"/><line style="stroke:#181818;stroke-width:1.0;" x1="33" x2="512" y1="602.123" y2="602.123"/><text fill="#000000" font-family="sans-serif" font-size="13" font-weight="bold" lengthAdjust="spacing" textLength="18" x="40" y="597.3809">16</text><text fill="#000000" font-family="sans-serif" font-size="13" lengthAdjust="spacing" textLength="82" x="62" y="597.3809">submits data</text><polygon fill="#181818" points="741,627.4336,751,631.4336,741,635.4336,745,631.4336" style="stroke:#181818;stroke-width:1.0;"/><line style="stroke:#181818;stroke-width:1.0;" x1="528" x2="747" y1="631.4336" y2="631.4336"/><text fill="#000000" font-family="sans-serif" font-size="13" font-weight="bold" lengthAdjust="spacing" textLength="18" x="535" y="626.6914">17</text><text fill="#000000" font-family="sans-serif" font-size="13" lengthAdjust="spacing" textLength="161" x="557" y="626.6914">createOffer(orderAmount)</text><polygon fill="#181818" points="1034,656.7441,1044,660.7441,1034,664.7441,1038,660.7441" style="stroke:#181818;stroke-width:1.0;"/><line style="stroke:#181818;stroke-width:1.0;" x1="763" x2="1040" y1="660.7441" y2="660.7441"/><text fill="#000000" font-family="sans-serif" font-size="13" font-weight="bold" lengthAdjust="spacing" textLength="18" x="770" y="656.002">18</text><text fill="#000000" font-family="sans-serif" font-size="13" lengthAdjust="spacing" textLength="188" x="792" y="656.002">getAuthenticationRepository()</text><polygon fill="#181818" points="774,686.0547,764,690.0547,774,694.0547,770,690.0547" style="stroke:#181818;stroke-width:1.0;"/><line style="stroke:#181818;stroke-width:1.0;stroke-dasharray:2.0,2.0;" x1="768" x2="1050" y1="690.0547" y2="690.0547"/><text fill="#000000" font-family="sans-serif" font-size="13" font-weight="bold" lengthAdjust="spacing" textLength="18" x="780" y="685.3125">19</text><text fill="#000000" font-family="sans-serif" font-size="13" lengthAdjust="spacing" textLength="158" x="802" y="685.3125">authenticationRepository</text><polygon fill="#181818" points="1464.5,715.3652,1474.5,719.3652,1464.5,723.3652,1468.5,719.3652" style="stroke:#181818;stroke-width:1.0;"/><line style="stroke:#181818;stroke-width:1.0;" x1="763" x2="1470.5" y1="719.3652" y2="719.3652"/><text fill="#000000" font-family="sans-serif" font-size="13" font-weight="bold" lengthAdjust="spacing" textLength="18" x="770" y="714.623">20</text><text fill="#000000" font-family="sans-serif" font-size="13" lengthAdjust="spacing" textLength="151" x="792" y="714.623">getCurrentUserSession()</text><polygon fill="#181818" points="774,744.6758,764,748.6758,774,752.6758,770,748.6758" style="stroke:#181818;stroke-width:1.0;"/><line style="stroke:#181818;stroke-width:1.0;stroke-dasharray:2.0,2.0;" x1="768" x2="1480.5" y1="748.6758" y2="748.6758"/><text fill="#000000" font-family="sans-serif" font-size="13" font-weight="bold" lengthAdjust="spacing" textLength="18" x="780" y="743.9336">21</text><text fill="#000000" font-family="sans-serif" font-size="13" lengthAdjust="spacing" textLength="143" x="802" y="743.9336">getCurrentUserSession</text><polygon fill="#181818" points="1034,773.9863,1044,777.9863,1034,781.9863,1038,777.9863" style="stroke:#181818;stroke-width:1.0;"/><line style="stroke:#181818;stroke-width:1.0;" x1="763" x2="1040" y1="777.9863" y2="777.9863"/><text fill="#000000" font-family="sans-serif" font-size="13" font-weight="bold" lengthAdjust="spacing" textLength="18" x="770" y="773.2441">22</text><text fill="#000000" font-family="sans-serif" font-size="13" lengthAdjust="spacing" textLength="127" x="792" y="773.2441">getOfferRepository()</text><polygon fill="#181818" points="774,803.2969,764,807.2969,774,811.2969,770,807.2969" style="stroke:#181818;stroke-width:1.0;"/><line style="stroke:#181818;stroke-width:1.0;stroke-dasharray:2.0,2.0;" x1="768" x2="1050" y1="807.2969" y2="807.2969"/><text fill="#000000" font-family="sans-serif" font-size="13" font-weight="bold" lengthAdjust="spacing" textLength="18" x="780" y="802.5547">23</text><text fill="#000000" font-family="sans-serif" font-size="13" lengthAdjust="spacing" textLength="119" x="802" y="802.5547">getOfferRepository</text><polygon fill="#181818" points="1633.5,832.6074,1643.5,836.6074,1633.5,840.6074,1637.5,836.6074" style="stroke:#181818;stroke-width:1.0;"/><line style="stroke:#181818;stroke-width:1.0;" x1="763" x2="1639.5" y1="836.6074" y2="836.6074"/><text fill="#000000" font-family="sans-serif" font-size="13" font-weight="bold" lengthAdjust="spacing" textLength="18" x="770" y="831.8652">24</text><text fill="#000000" font-family="sans-serif" font-size="13" lengthAdjust="spacing" textLength="161" x="792" y="831.8652">createOffer(orderAmount)</text><polygon fill="#181818" points="1850.5,861.918,1860.5,865.918,1850.5,869.918,1854.5,865.918" style="stroke:#181818;stroke-width:1.0;"/><line style="stroke:#181818;stroke-width:1.0;" x1="1655.5" x2="1856.5" y1="865.918" y2="865.918"/><text fill="#000000" font-family="sans-serif" font-size="13" font-weight="bold" lengthAdjust="spacing" textLength="18" x="1662.5" y="861.1758">25</text><text fill="#000000" font-family="sans-serif" font-size="13" lengthAdjust="spacing" textLength="161" x="1684.5" y="861.1758">createOffer(orderAmount)</text><rect fill="#E3E3E3" height="30.4883" rx="2.5" ry="2.5" style="stroke:#181818;stroke-width:0.5;" width="49" x="1862.5" y="844.6074"/><text fill="#000000" font-family="sans-serif" font-size="14" lengthAdjust="spacing" textLength="35" x="1869.5" y="865.1426">Offer</text><line style="stroke:#181818;stroke-width:1.0;" x1="1655.5" x2="1697.5" y1="907.4063" y2="907.4063"/><line style="stroke:#181818;stroke-width:1.0;" x1="1697.5" x2="1697.5" y1="907.4063" y2="920.4063"/><line style="stroke:#181818;stroke-width:1.0;" x1="1656.5" x2="1697.5" y1="920.4063" y2="920.4063"/><polygon fill="#181818" points="1666.5,916.4063,1656.5,920.4063,1666.5,924.4063,1662.5,920.4063" style="stroke:#181818;stroke-width:1.0;"/><text fill="#000000" font-family="sans-serif" font-size="13" font-weight="bold" lengthAdjust="spacing" textLength="18" x="1662.5" y="902.6641">26</text><text fill="#000000" font-family="sans-serif" font-size="13" lengthAdjust="spacing" textLength="93" x="1684.5" y="902.6641">addOffer(offer)</text><line style="stroke:#181818;stroke-width:1.0;" x1="1655.5" x2="1697.5" y1="949.7168" y2="949.7168"/><line style="stroke:#181818;stroke-width:1.0;" x1="1697.5" x2="1697.5" y1="949.7168" y2="962.7168"/><line style="stroke:#181818;stroke-width:1.0;" x1="1656.5" x2="1697.5" y1="962.7168" y2="962.7168"/><polygon fill="#181818" points="1666.5,958.7168,1656.5,962.7168,1666.5,966.7168,1662.5,962.7168" style="stroke:#181818;stroke-width:1.0;"/><text fill="#000000" font-family="sans-serif" font-size="13" font-weight="bold" lengthAdjust="spacing" textLength="18" x="1662.5" y="944.9746">27</text><text fill="#000000" font-family="sans-serif" font-size="13" lengthAdjust="spacing" textLength="119" x="1684.5" y="944.9746">validateOffer(offer)</text><line style="stroke:#181818;stroke-width:1.0;stroke-dasharray:2.0,2.0;" x1="1655.5" x2="1697.5" y1="992.0273" y2="992.0273"/><line style="stroke:#181818;stroke-width:1.0;stroke-dasharray:2.0,2.0;" x1="1697.5" x2="1697.5" y1="992.0273" y2="1005.0273"/><line style="stroke:#181818;stroke-width:1.0;stroke-dasharray:2.0,2.0;" x1="1656.5" x2="1697.5" y1="1005.0273" y2="1005.0273"/><polygon fill="#181818" points="1666.5,1001.0273,1656.5,1005.0273,1666.5,1009.0273,1662.5,1005.0273" style="stroke:#181818;stroke-width:1.0;"/><text fill="#000000" font-family="sans-serif" font-size="13" font-weight="bold" lengthAdjust="spacing" textLength="18" x="1662.5" y="987.2852">28</text><text fill="#000000" font-family="sans-serif" font-size="13" lengthAdjust="spacing" textLength="4" x="1684.5" y="987.2852">&#160;</text><line style="stroke:#181818;stroke-width:1.0;stroke-dasharray:2.0,2.0;" x1="1655.5" x2="1697.5" y1="1034.3379" y2="1034.3379"/><line style="stroke:#181818;stroke-width:1.0;stroke-dasharray:2.0,2.0;" x1="1697.5" x2="1697.5" y1="1034.3379" y2="1047.3379"/><line style="stroke:#181818;stroke-width:1.0;stroke-dasharray:2.0,2.0;" x1="1656.5" x2="1697.5" y1="1047.3379" y2="1047.3379"/><polygon fill="#181818" points="1666.5,1043.3379,1656.5,1047.3379,1666.5,1051.3379,1662.5,1047.3379" style="stroke:#181818;stroke-width:1.0;"/><text fill="#000000" font-family="sans-serif" font-size="13" font-weight="bold" lengthAdjust="spacing" textLength="18" x="1662.5" y="1029.5957">29</text><text fill="#000000" font-family="sans-serif" font-size="13" lengthAdjust="spacing" textLength="4" x="1684.5" y="1029.5957">&#160;</text><polygon fill="#181818" points="774,1072.6484,764,1076.6484,774,1080.6484,770,1076.6484" style="stroke:#181818;stroke-width:1.0;"/><line style="stroke:#181818;stroke-width:1.0;stroke-dasharray:2.0,2.0;" x1="768" x2="1649.5" y1="1076.6484" y2="1076.6484"/><text fill="#000000" font-family="sans-serif" font-size="13" font-weight="bold" lengthAdjust="spacing" textLength="18" x="780" y="1071.9063">30</text><text fill="#000000" font-family="sans-serif" font-size="13" lengthAdjust="spacing" textLength="30" x="802" y="1071.9063">offer</text><polygon fill="#181818" points="539,1101.959,529,1105.959,539,1109.959,535,1105.959" style="stroke:#181818;stroke-width:1.0;"/><line style="stroke:#181818;stroke-width:1.0;stroke-dasharray:2.0,2.0;" x1="533" x2="752" y1="1105.959" y2="1105.959"/><text fill="#000000" font-family="sans-serif" font-size="13" font-weight="bold" lengthAdjust="spacing" textLength="18" x="545" y="1101.2168">31</text><text fill="#000000" font-family="sans-serif" font-size="13" lengthAdjust="spacing" textLength="30" x="567" y="1101.2168">offer</text><polygon fill="#181818" points="44,1131.2695,34,1135.2695,44,1139.2695,40,1135.2695" style="stroke:#181818;stroke-width:1.0;"/><line style="stroke:#181818;stroke-width:1.0;stroke-dasharray:2.0,2.0;" x1="38" x2="517" y1="1135.2695" y2="1135.2695"/><text fill="#000000" font-family="sans-serif" font-size="13" font-weight="bold" lengthAdjust="spacing" textLength="18" x="50" y="1130.5273">32</text><text fill="#000000" font-family="sans-serif" font-size="13" lengthAdjust="spacing" textLength="170" x="72" y="1130.5273">displays operation success</text><!--SRC=[fLLDYzim4BthLmnxsYu4jjSS2Y6bi53OfIQtNXHx4elOaYl9k_ZVToGdiUHOiRkzv4EQUUzfz6PaJa8sNFCQQYLLNcfL8rZT8ZFNdORd9tx4p7OLWiRSSdcimW1Jya9z27c40wyCCcQ5fT1Tzlpr6LQGuPyMPOxmNV2ZY__HLXLZlBLAjlKUDVtEhTBmiAq4Ili0t43_an615RbekBJmi7whU8wlXmFgtOkFoZfZiKv6RPMqMbKLwXxp-dUKyGiRPGH946Xyv7MXouGxB2cDKtIGyLlU0Q25EBDfzvKm9HORALLBPQdfd0CVWRtTZ_3uCp4n9LMwf6sHSokKZBWsYIrFajgCqPMhT0Jw6gzuhD5Q3E4tXp3l1_7EBLvimFflM7qxNpciAVfam2fet7K3b-25W9B0eT6gGMsx0UZi57PE9w313KzF19ThfBZf0De-efsi-UENGEpWBnOa4zI4dthC5scedN8COQRCnwOGLf78DOIcP0NU1qm8fDGxfnsG9WKxNXP1ZINE-NPAjKUDvSx0BBolEJ5iZcOrTibamazXR7YmMThmhA7Z5w679hnusSdi6sXDmrfzKD-K28HbgMakpJ8opQLX9ZhFO4MlG0zIe14QYmKT5uhGxaaWTeVGjoslwKHseG3VycReUJS5MfsNt63G_B3lmBJxMbZhtYRFfOk1Qv7IlbmpJ4lhviKOABZbooRJTIxvkVZevM-y-dyREzUkJetqJxMp6yAf9s9X8wVqz6gthTQqkpEeCpI68aAToUU99L5N4sFzbYGKdoQPA_NenVjiXM-HbjPsbBR8IsCgDWQvu0PlvWHUCYsImulYdEi-bsQzyqeK0sqgzJRtFuAY6_6KuINSGAG6U9yvEMSAOMYgTGRSHF5Uet6HqvGpx2y0]--></g></svg>