<?xml version="1.0" encoding="UTF-8" standalone="no"?><svg xmlns="http://www.w3.org/2000/svg" xmlns:xlink="http://www.w3.org/1999/xlink" contentStyleType="text/css" height="954px" preserveAspectRatio="none" style="width:2088px;height:954px;background:#FFFFFF;" version="1.1" viewBox="0 0 2088 954" width="2088px" zoomAndPan="magnify"><defs/><g><rect fill="none" height="27.6094" id="_title" style="stroke:none;stroke-width:1.0;" width="157" x="958.52" y="5"/><text fill="#000000" font-family="sans-serif" font-size="14" font-weight="bold" lengthAdjust="spacing" textLength="147" x="963.52" y="24.5332">US11 - Class Diagram</text><!--MD5=[9d44916250b776386006c440668bcfbb]
class Agent--><g id="elem_Agent"><rect codeLine="8" fill="#F1F1F1" height="83.2188" id="Agent" rx="2.5" ry="2.5" style="stroke:#181818;stroke-width:0.5;" width="106" x="1162.67" y="45.6094"/><ellipse cx="1194.32" cy="61.6094" fill="#C2C2C2" rx="11" ry="11" style="stroke:#181818;stroke-width:1.0;"/><path d="M1197.0856,57.4844 Q1197.2419,57.2656 1197.4294,57.1563 Q1197.6169,57.0469 1197.8356,57.0469 Q1198.2106,57.0469 1198.445,57.3125 Q1198.6794,57.5625 1198.6794,58.1719 L1198.6794,59.625 Q1198.6794,60.2344 1198.445,60.5 Q1198.2106,60.7656 1197.8356,60.7656 Q1197.4919,60.7656 1197.2888,60.5625 Q1197.0856,60.375 1196.9763,59.8594 Q1196.9294,59.5 1196.7419,59.3125 Q1196.4138,58.9375 1195.8044,58.7188 Q1195.195,58.5 1194.57,58.5 Q1193.8044,58.5 1193.1638,58.8281 Q1192.5388,59.1563 1192.0388,59.9063 Q1191.5544,60.6563 1191.5544,61.6875 L1191.5544,62.7813 Q1191.5544,64.0156 1192.445,64.8438 Q1193.3356,65.6563 1194.9294,65.6563 Q1195.8669,65.6563 1196.5231,65.4063 Q1196.9138,65.25 1197.3356,64.8125 Q1197.6013,64.5469 1197.7419,64.4688 Q1197.8981,64.3906 1198.1013,64.3906 Q1198.4294,64.3906 1198.6794,64.6563 Q1198.945,64.9063 1198.945,65.25 Q1198.945,65.5938 1198.6013,66 Q1198.1013,66.5781 1197.3044,66.9063 Q1196.2263,67.3594 1194.9294,67.3594 Q1193.4138,67.3594 1192.2106,66.7344 Q1191.2263,66.2344 1190.5388,65.1719 Q1189.8513,64.0938 1189.8513,62.8125 L1189.8513,61.6563 Q1189.8513,60.3281 1190.4606,59.1875 Q1191.0856,58.0313 1192.1794,57.4219 Q1193.2731,56.7969 1194.5075,56.7969 Q1195.2419,56.7969 1195.8825,56.9688 Q1196.5388,57.125 1197.0856,57.4844 Z " fill="#000000"/><text fill="#000000" font-family="sans-serif" font-size="14" lengthAdjust="spacing" textLength="37" x="1212.02" y="67.3379">Agent</text><line style="stroke:#181818;stroke-width:0.5;" x1="1163.67" x2="1267.67" y1="77.6094" y2="77.6094"/><rect fill="none" height="6" style="stroke:#595959;stroke-width:1.0;" width="6" x="1170.67" y="88.9141"/><text fill="#000000" font-family="sans-serif" font-size="14" lengthAdjust="spacing" textLength="80" x="1182.67" y="96.1426">name: String</text><rect fill="none" height="6" style="stroke:#595959;stroke-width:1.0;" width="6" x="1170.67" y="106.5234"/><text fill="#000000" font-family="sans-serif" font-size="14" lengthAdjust="spacing" textLength="78" x="1182.67" y="113.752">email: String</text><line style="stroke:#181818;stroke-width:0.5;" x1="1163.67" x2="1267.67" y1="120.8281" y2="120.8281"/></g><!--MD5=[ab9bfced01624956e8995eb9a3beed04]
class OfferDecisionUI--><g id="elem_OfferDecisionUI"><rect codeLine="13" fill="#F1F1F1" height="118.4375" id="OfferDecisionUI" rx="2.5" ry="2.5" style="stroke:#181818;stroke-width:0.5;" width="412" x="1009.67" y="188.6094"/><ellipse cx="1162.42" cy="204.6094" fill="#C2C2C2" rx="11" ry="11" style="stroke:#181818;stroke-width:1.0;"/><path d="M1165.1856,200.4844 Q1165.3419,200.2656 1165.5294,200.1563 Q1165.7169,200.0469 1165.9356,200.0469 Q1166.3106,200.0469 1166.545,200.3125 Q1166.7794,200.5625 1166.7794,201.1719 L1166.7794,202.625 Q1166.7794,203.2344 1166.545,203.5 Q1166.3106,203.7656 1165.9356,203.7656 Q1165.5919,203.7656 1165.3888,203.5625 Q1165.1856,203.375 1165.0763,202.8594 Q1165.0294,202.5 1164.8419,202.3125 Q1164.5138,201.9375 1163.9044,201.7188 Q1163.295,201.5 1162.67,201.5 Q1161.9044,201.5 1161.2638,201.8281 Q1160.6388,202.1563 1160.1388,202.9063 Q1159.6544,203.6563 1159.6544,204.6875 L1159.6544,205.7813 Q1159.6544,207.0156 1160.545,207.8438 Q1161.4356,208.6563 1163.0294,208.6563 Q1163.9669,208.6563 1164.6231,208.4063 Q1165.0138,208.25 1165.4356,207.8125 Q1165.7013,207.5469 1165.8419,207.4688 Q1165.9981,207.3906 1166.2013,207.3906 Q1166.5294,207.3906 1166.7794,207.6563 Q1167.045,207.9063 1167.045,208.25 Q1167.045,208.5938 1166.7013,209 Q1166.2013,209.5781 1165.4044,209.9063 Q1164.3263,210.3594 1163.0294,210.3594 Q1161.5138,210.3594 1160.3106,209.7344 Q1159.3263,209.2344 1158.6388,208.1719 Q1157.9513,207.0938 1157.9513,205.8125 L1157.9513,204.6563 Q1157.9513,203.3281 1158.5606,202.1875 Q1159.1856,201.0313 1160.2794,200.4219 Q1161.3731,199.7969 1162.6075,199.7969 Q1163.3419,199.7969 1163.9825,199.9688 Q1164.6388,200.125 1165.1856,200.4844 Z " fill="#000000"/><text fill="#000000" font-family="sans-serif" font-size="14" lengthAdjust="spacing" textLength="98" x="1182.92" y="210.3379">OfferDecisionUI</text><line style="stroke:#181818;stroke-width:0.5;" x1="1010.67" x2="1420.67" y1="220.6094" y2="220.6094"/><line style="stroke:#181818;stroke-width:0.5;" x1="1010.67" x2="1420.67" y1="228.6094" y2="228.6094"/><ellipse cx="1020.67" cy="242.9141" fill="#A6A6A6" rx="3" ry="3" style="stroke:#545454;stroke-width:1.0;"/><text fill="#000000" font-family="sans-serif" font-size="14" lengthAdjust="spacing" textLength="386" x="1029.67" y="247.1426">displayPurchaseOrders(properties: List&lt;PropertyDTO&gt;): void</text><ellipse cx="1020.67" cy="260.5234" fill="#A6A6A6" rx="3" ry="3" style="stroke:#545454;stroke-width:1.0;"/><text fill="#000000" font-family="sans-serif" font-size="14" lengthAdjust="spacing" textLength="206" x="1029.67" y="264.752">keepOffer(offer: OfferDTO): void</text><ellipse cx="1020.67" cy="278.1328" fill="#A6A6A6" rx="3" ry="3" style="stroke:#545454;stroke-width:1.0;"/><text fill="#000000" font-family="sans-serif" font-size="14" lengthAdjust="spacing" textLength="247" x="1029.67" y="282.3613">promptAgentDecision(): DecisionStatus</text><ellipse cx="1020.67" cy="295.7422" fill="#A6A6A6" rx="3" ry="3" style="stroke:#545454;stroke-width:1.0;"/><text fill="#000000" font-family="sans-serif" font-size="14" lengthAdjust="spacing" textLength="204" x="1029.67" y="299.9707">displayOperationSuccess(): void</text></g><!--MD5=[34f2da2ece1c585b3849857c77523852]
class OfferDecisionController--><g id="elem_OfferDecisionController"><rect codeLine="20" fill="#F1F1F1" height="136.0469" id="OfferDecisionController" rx="2.5" ry="2.5" style="stroke:#181818;stroke-width:0.5;" width="420" x="742.67" y="366.6094"/><ellipse cx="874.42" cy="382.6094" fill="#C2C2C2" rx="11" ry="11" style="stroke:#181818;stroke-width:1.0;"/><path d="M877.1856,378.4844 Q877.3419,378.2656 877.5294,378.1563 Q877.7169,378.0469 877.9356,378.0469 Q878.3106,378.0469 878.545,378.3125 Q878.7794,378.5625 878.7794,379.1719 L878.7794,380.625 Q878.7794,381.2344 878.545,381.5 Q878.3106,381.7656 877.9356,381.7656 Q877.5919,381.7656 877.3888,381.5625 Q877.1856,381.375 877.0763,380.8594 Q877.0294,380.5 876.8419,380.3125 Q876.5138,379.9375 875.9044,379.7188 Q875.295,379.5 874.67,379.5 Q873.9044,379.5 873.2638,379.8281 Q872.6388,380.1563 872.1388,380.9063 Q871.6544,381.6563 871.6544,382.6875 L871.6544,383.7813 Q871.6544,385.0156 872.545,385.8438 Q873.4356,386.6563 875.0294,386.6563 Q875.9669,386.6563 876.6231,386.4063 Q877.0138,386.25 877.4356,385.8125 Q877.7013,385.5469 877.8419,385.4688 Q877.9981,385.3906 878.2013,385.3906 Q878.5294,385.3906 878.7794,385.6563 Q879.045,385.9063 879.045,386.25 Q879.045,386.5938 878.7013,387 Q878.2013,387.5781 877.4044,387.9063 Q876.3263,388.3594 875.0294,388.3594 Q873.5138,388.3594 872.3106,387.7344 Q871.3263,387.2344 870.6388,386.1719 Q869.9513,385.0938 869.9513,383.8125 L869.9513,382.6563 Q869.9513,381.3281 870.5606,380.1875 Q871.1856,379.0313 872.2794,378.4219 Q873.3731,377.7969 874.6075,377.7969 Q875.3419,377.7969 875.9825,377.9688 Q876.6388,378.125 877.1856,378.4844 Z " fill="#000000"/><text fill="#000000" font-family="sans-serif" font-size="14" lengthAdjust="spacing" textLength="148" x="894.92" y="388.3379">OfferDecisionController</text><line style="stroke:#181818;stroke-width:0.5;" x1="743.67" x2="1161.67" y1="398.6094" y2="398.6094"/><rect fill="none" height="6" style="stroke:#595959;stroke-width:1.0;" width="6" x="750.67" y="409.9141"/><text fill="#000000" font-family="sans-serif" font-size="14" lengthAdjust="spacing" textLength="251" x="762.67" y="417.1426">propertyRepository: PropertyRepository</text><rect fill="none" height="6" style="stroke:#595959;stroke-width:1.0;" width="6" x="750.67" y="427.5234"/><text fill="#000000" font-family="sans-serif" font-size="14" lengthAdjust="spacing" textLength="205" x="762.67" y="434.752">offerRepository: OfferRepository</text><rect fill="none" height="6" style="stroke:#595959;stroke-width:1.0;" width="6" x="750.67" y="445.1328"/><text fill="#000000" font-family="sans-serif" font-size="14" lengthAdjust="spacing" textLength="136" x="762.67" y="452.3613">mapper: OfferMapper</text><line style="stroke:#181818;stroke-width:0.5;" x1="743.67" x2="1161.67" y1="459.4375" y2="459.4375"/><ellipse cx="753.67" cy="473.7422" fill="#A6A6A6" rx="3" ry="3" style="stroke:#545454;stroke-width:1.0;"/><text fill="#000000" font-family="sans-serif" font-size="14" lengthAdjust="spacing" textLength="125" x="762.67" y="477.9707">getOffersList(): void</text><ellipse cx="753.67" cy="491.3516" fill="#A6A6A6" rx="3" ry="3" style="stroke:#545454;stroke-width:1.0;"/><text fill="#000000" font-family="sans-serif" font-size="14" lengthAdjust="spacing" textLength="394" x="762.67" y="495.5801">sendOfferStatus(offer: OfferDTO, status: DecisionStatus): void</text></g><!--MD5=[35ae6afabc28cfceb76ccc01ee55d1fe]
class Repositories--><g id="elem_Repositories"><rect codeLine="28" fill="#F1F1F1" height="136.0469" id="Repositories" rx="2.5" ry="2.5" style="stroke:#181818;stroke-width:0.5;" width="308" x="63.67" y="562.6094"/><ellipse cx="173.92" cy="578.6094" fill="#C2C2C2" rx="11" ry="11" style="stroke:#181818;stroke-width:1.0;"/><path d="M176.6856,574.4844 Q176.8419,574.2656 177.0294,574.1563 Q177.2169,574.0469 177.4356,574.0469 Q177.8106,574.0469 178.045,574.3125 Q178.2794,574.5625 178.2794,575.1719 L178.2794,576.625 Q178.2794,577.2344 178.045,577.5 Q177.8106,577.7656 177.4356,577.7656 Q177.0919,577.7656 176.8888,577.5625 Q176.6856,577.375 176.5763,576.8594 Q176.5294,576.5 176.3419,576.3125 Q176.0138,575.9375 175.4044,575.7188 Q174.795,575.5 174.17,575.5 Q173.4044,575.5 172.7638,575.8281 Q172.1388,576.1563 171.6388,576.9063 Q171.1544,577.6563 171.1544,578.6875 L171.1544,579.7813 Q171.1544,581.0156 172.045,581.8438 Q172.9356,582.6563 174.5294,582.6563 Q175.4669,582.6563 176.1231,582.4063 Q176.5138,582.25 176.9356,581.8125 Q177.2013,581.5469 177.3419,581.4688 Q177.4981,581.3906 177.7013,581.3906 Q178.0294,581.3906 178.2794,581.6563 Q178.545,581.9063 178.545,582.25 Q178.545,582.5938 178.2013,583 Q177.7013,583.5781 176.9044,583.9063 Q175.8263,584.3594 174.5294,584.3594 Q173.0138,584.3594 171.8106,583.7344 Q170.8263,583.2344 170.1388,582.1719 Q169.4513,581.0938 169.4513,579.8125 L169.4513,578.6563 Q169.4513,577.3281 170.0606,576.1875 Q170.6856,575.0313 171.7794,574.4219 Q172.8731,573.7969 174.1075,573.7969 Q174.8419,573.7969 175.4825,573.9688 Q176.1388,574.125 176.6856,574.4844 Z " fill="#000000"/><text fill="#000000" font-family="sans-serif" font-size="14" lengthAdjust="spacing" textLength="79" x="194.42" y="584.3379">Repositories</text><line style="stroke:#181818;stroke-width:0.5;" x1="64.67" x2="370.67" y1="594.6094" y2="594.6094"/><rect fill="none" height="6" style="stroke:#595959;stroke-width:1.0;" width="6" x="71.67" y="605.9141"/><text fill="#000000" font-family="sans-serif" font-size="14" lengthAdjust="spacing" textLength="251" x="83.67" y="613.1426">propertyRepository: PropertyRepository</text><rect fill="none" height="6" style="stroke:#595959;stroke-width:1.0;" width="6" x="71.67" y="623.5234"/><text fill="#000000" font-family="sans-serif" font-size="14" lengthAdjust="spacing" textLength="205" x="83.67" y="630.752">offerRepository: OfferRepository</text><line style="stroke:#181818;stroke-width:0.5;" x1="64.67" x2="370.67" y1="637.8281" y2="637.8281"/><ellipse cx="74.67" cy="652.1328" fill="#A6A6A6" rx="3" ry="3" style="stroke:#545454;stroke-width:1.0;"/><text fill="#000000" font-family="sans-serif" font-size="14" lengthAdjust="spacing" textLength="170" x="83.67" y="656.3613">getInstance(): Repositories</text><ellipse cx="74.67" cy="669.7422" fill="#A6A6A6" rx="3" ry="3" style="stroke:#545454;stroke-width:1.0;"/><text fill="#000000" font-family="sans-serif" font-size="14" lengthAdjust="spacing" textLength="282" x="83.67" y="673.9707">getPropertyRepository(): PropertyRepository</text><ellipse cx="74.67" cy="687.3516" fill="#A6A6A6" rx="3" ry="3" style="stroke:#545454;stroke-width:1.0;"/><text fill="#000000" font-family="sans-serif" font-size="14" lengthAdjust="spacing" textLength="238" x="83.67" y="691.5801">getOfferRepository(): OfferRepository</text></g><!--MD5=[6b626634f3bb0842bebd5e499c80b711]
class Property--><g id="elem_Property"><rect codeLine="36" fill="#F1F1F1" height="136.0469" id="Property" rx="2.5" ry="2.5" style="stroke:#181818;stroke-width:0.5;" width="263" x="921.17" y="785.1094"/><ellipse cx="1021.42" cy="801.1094" fill="#C2C2C2" rx="11" ry="11" style="stroke:#181818;stroke-width:1.0;"/><path d="M1024.1856,796.9844 Q1024.3419,796.7656 1024.5294,796.6563 Q1024.7169,796.5469 1024.9356,796.5469 Q1025.3106,796.5469 1025.545,796.8125 Q1025.7794,797.0625 1025.7794,797.6719 L1025.7794,799.125 Q1025.7794,799.7344 1025.545,800 Q1025.3106,800.2656 1024.9356,800.2656 Q1024.5919,800.2656 1024.3888,800.0625 Q1024.1856,799.875 1024.0763,799.3594 Q1024.0294,799 1023.8419,798.8125 Q1023.5138,798.4375 1022.9044,798.2188 Q1022.295,798 1021.67,798 Q1020.9044,798 1020.2638,798.3281 Q1019.6388,798.6563 1019.1388,799.4063 Q1018.6544,800.1563 1018.6544,801.1875 L1018.6544,802.2813 Q1018.6544,803.5156 1019.545,804.3438 Q1020.4356,805.1563 1022.0294,805.1563 Q1022.9669,805.1563 1023.6231,804.9063 Q1024.0138,804.75 1024.4356,804.3125 Q1024.7013,804.0469 1024.8419,803.9688 Q1024.9981,803.8906 1025.2013,803.8906 Q1025.5294,803.8906 1025.7794,804.1563 Q1026.045,804.4063 1026.045,804.75 Q1026.045,805.0938 1025.7013,805.5 Q1025.2013,806.0781 1024.4044,806.4063 Q1023.3263,806.8594 1022.0294,806.8594 Q1020.5138,806.8594 1019.3106,806.2344 Q1018.3263,805.7344 1017.6388,804.6719 Q1016.9513,803.5938 1016.9513,802.3125 L1016.9513,801.1563 Q1016.9513,799.8281 1017.5606,798.6875 Q1018.1856,797.5313 1019.2794,796.9219 Q1020.3731,796.2969 1021.6075,796.2969 Q1022.3419,796.2969 1022.9825,796.4688 Q1023.6388,796.625 1024.1856,796.9844 Z " fill="#000000"/><text fill="#000000" font-family="sans-serif" font-size="14" lengthAdjust="spacing" textLength="54" x="1041.92" y="806.8379">Property</text><line style="stroke:#181818;stroke-width:0.5;" x1="922.17" x2="1183.17" y1="817.1094" y2="817.1094"/><rect fill="none" height="6" style="stroke:#595959;stroke-width:1.0;" width="6" x="929.17" y="828.4141"/><text fill="#000000" font-family="sans-serif" font-size="14" lengthAdjust="spacing" textLength="87" x="941.17" y="835.6426">propertyId: int</text><rect fill="none" height="6" style="stroke:#595959;stroke-width:1.0;" width="6" x="929.17" y="846.0234"/><text fill="#000000" font-family="sans-serif" font-size="14" lengthAdjust="spacing" textLength="134" x="941.17" y="853.252">propertyName: String</text><rect fill="none" height="6" style="stroke:#595959;stroke-width:1.0;" width="6" x="929.17" y="863.6328"/><text fill="#000000" font-family="sans-serif" font-size="14" lengthAdjust="spacing" textLength="130" x="941.17" y="870.8613">propertyType: String</text><rect fill="none" height="6" style="stroke:#595959;stroke-width:1.0;" width="6" x="929.17" y="881.2422"/><text fill="#000000" font-family="sans-serif" font-size="14" lengthAdjust="spacing" textLength="128" x="941.17" y="888.4707">... other attributes ...</text><line style="stroke:#181818;stroke-width:0.5;" x1="922.17" x2="1183.17" y1="895.5469" y2="895.5469"/><ellipse cx="932.17" cy="909.8516" fill="#A6A6A6" rx="3" ry="3" style="stroke:#545454;stroke-width:1.0;"/><text fill="#000000" font-family="sans-serif" font-size="14" lengthAdjust="spacing" textLength="237" x="941.17" y="914.0801">compare(otherProperty: Property): int</text></g><!--MD5=[73a37539352c4bb42a21d24210947a4a]
class PropertyRepository--><g id="elem_PropertyRepository"><rect codeLine="44" fill="#F1F1F1" height="83.2188" id="PropertyRepository" rx="2.5" ry="2.5" style="stroke:#181818;stroke-width:0.5;" width="259" x="832.17" y="589.1094"/><ellipse cx="896.42" cy="605.1094" fill="#C2C2C2" rx="11" ry="11" style="stroke:#181818;stroke-width:1.0;"/><path d="M899.1856,600.9844 Q899.3419,600.7656 899.5294,600.6563 Q899.7169,600.5469 899.9356,600.5469 Q900.3106,600.5469 900.545,600.8125 Q900.7794,601.0625 900.7794,601.6719 L900.7794,603.125 Q900.7794,603.7344 900.545,604 Q900.3106,604.2656 899.9356,604.2656 Q899.5919,604.2656 899.3888,604.0625 Q899.1856,603.875 899.0763,603.3594 Q899.0294,603 898.8419,602.8125 Q898.5138,602.4375 897.9044,602.2188 Q897.295,602 896.67,602 Q895.9044,602 895.2638,602.3281 Q894.6388,602.6563 894.1388,603.4063 Q893.6544,604.1563 893.6544,605.1875 L893.6544,606.2813 Q893.6544,607.5156 894.545,608.3438 Q895.4356,609.1563 897.0294,609.1563 Q897.9669,609.1563 898.6231,608.9063 Q899.0138,608.75 899.4356,608.3125 Q899.7013,608.0469 899.8419,607.9688 Q899.9981,607.8906 900.2013,607.8906 Q900.5294,607.8906 900.7794,608.1563 Q901.045,608.4063 901.045,608.75 Q901.045,609.0938 900.7013,609.5 Q900.2013,610.0781 899.4044,610.4063 Q898.3263,610.8594 897.0294,610.8594 Q895.5138,610.8594 894.3106,610.2344 Q893.3263,609.7344 892.6388,608.6719 Q891.9513,607.5938 891.9513,606.3125 L891.9513,605.1563 Q891.9513,603.8281 892.5606,602.6875 Q893.1856,601.5313 894.2794,600.9219 Q895.3731,600.2969 896.6075,600.2969 Q897.3419,600.2969 897.9825,600.4688 Q898.6388,600.625 899.1856,600.9844 Z " fill="#000000"/><text fill="#000000" font-family="sans-serif" font-size="14" lengthAdjust="spacing" textLength="122" x="916.92" y="610.8379">PropertyRepository</text><line style="stroke:#181818;stroke-width:0.5;" x1="833.17" x2="1090.17" y1="621.1094" y2="621.1094"/><line style="stroke:#181818;stroke-width:0.5;" x1="833.17" x2="1090.17" y1="629.1094" y2="629.1094"/><ellipse cx="843.17" cy="643.4141" fill="#A6A6A6" rx="3" ry="3" style="stroke:#545454;stroke-width:1.0;"/><text fill="#000000" font-family="sans-serif" font-size="14" lengthAdjust="spacing" textLength="233" x="852.17" y="647.6426">getProperty(propertyId: int): Property</text><ellipse cx="843.17" cy="661.0234" fill="#A6A6A6" rx="3" ry="3" style="stroke:#545454;stroke-width:1.0;"/><text fill="#000000" font-family="sans-serif" font-size="14" lengthAdjust="spacing" textLength="217" x="852.17" y="665.252">getPropertiesList(): List&lt;Property&gt;</text></g><!--MD5=[af8ed831b3fe9dbd380fec6c597723ab]
class Offer--><g id="elem_Offer"><rect codeLine="49" fill="#F1F1F1" height="188.875" id="Offer" rx="2.5" ry="2.5" style="stroke:#181818;stroke-width:0.5;" width="233" x="190.17" y="758.6094"/><ellipse cx="286.42" cy="774.6094" fill="#C2C2C2" rx="11" ry="11" style="stroke:#181818;stroke-width:1.0;"/><path d="M289.1856,770.4844 Q289.3419,770.2656 289.5294,770.1563 Q289.7169,770.0469 289.9356,770.0469 Q290.3106,770.0469 290.545,770.3125 Q290.7794,770.5625 290.7794,771.1719 L290.7794,772.625 Q290.7794,773.2344 290.545,773.5 Q290.3106,773.7656 289.9356,773.7656 Q289.5919,773.7656 289.3888,773.5625 Q289.1856,773.375 289.0763,772.8594 Q289.0294,772.5 288.8419,772.3125 Q288.5138,771.9375 287.9044,771.7188 Q287.295,771.5 286.67,771.5 Q285.9044,771.5 285.2638,771.8281 Q284.6388,772.1563 284.1388,772.9063 Q283.6544,773.6563 283.6544,774.6875 L283.6544,775.7813 Q283.6544,777.0156 284.545,777.8438 Q285.4356,778.6563 287.0294,778.6563 Q287.9669,778.6563 288.6231,778.4063 Q289.0138,778.25 289.4356,777.8125 Q289.7013,777.5469 289.8419,777.4688 Q289.9981,777.3906 290.2013,777.3906 Q290.5294,777.3906 290.7794,777.6563 Q291.045,777.9063 291.045,778.25 Q291.045,778.5938 290.7013,779 Q290.2013,779.5781 289.4044,779.9063 Q288.3263,780.3594 287.0294,780.3594 Q285.5138,780.3594 284.3106,779.7344 Q283.3263,779.2344 282.6388,778.1719 Q281.9513,777.0938 281.9513,775.8125 L281.9513,774.6563 Q281.9513,773.3281 282.5606,772.1875 Q283.1856,771.0313 284.2794,770.4219 Q285.3731,769.7969 286.6075,769.7969 Q287.3419,769.7969 287.9825,769.9688 Q288.6388,770.125 289.1856,770.4844 Z " fill="#000000"/><text fill="#000000" font-family="sans-serif" font-size="14" lengthAdjust="spacing" textLength="32" x="306.92" y="780.3379">Offer</text><line style="stroke:#181818;stroke-width:0.5;" x1="191.17" x2="422.17" y1="790.6094" y2="790.6094"/><rect fill="none" height="6" style="stroke:#595959;stroke-width:1.0;" width="6" x="198.17" y="801.9141"/><text fill="#000000" font-family="sans-serif" font-size="14" lengthAdjust="spacing" textLength="63" x="210.17" y="809.1426">offerId: int</text><rect fill="none" height="6" style="stroke:#595959;stroke-width:1.0;" width="6" x="198.17" y="819.5234"/><text fill="#000000" font-family="sans-serif" font-size="14" lengthAdjust="spacing" textLength="87" x="210.17" y="826.752">propertyId: int</text><rect fill="none" height="6" style="stroke:#595959;stroke-width:1.0;" width="6" x="198.17" y="837.1328"/><text fill="#000000" font-family="sans-serif" font-size="14" lengthAdjust="spacing" textLength="97" x="210.17" y="844.3613">offerDate: Date</text><rect fill="none" height="6" style="stroke:#595959;stroke-width:1.0;" width="6" x="198.17" y="854.7422"/><text fill="#000000" font-family="sans-serif" font-size="14" lengthAdjust="spacing" textLength="143" x="210.17" y="861.9707">offerValue: BigDecimal</text><rect fill="none" height="6" style="stroke:#595959;stroke-width:1.0;" width="6" x="198.17" y="872.3516"/><text fill="#000000" font-family="sans-serif" font-size="14" lengthAdjust="spacing" textLength="140" x="210.17" y="879.5801">status: DecisionStatus</text><line style="stroke:#181818;stroke-width:0.5;" x1="191.17" x2="422.17" y1="886.6563" y2="886.6563"/><ellipse cx="201.17" cy="900.9609" fill="#A6A6A6" rx="3" ry="3" style="stroke:#545454;stroke-width:1.0;"/><text fill="#000000" font-family="sans-serif" font-size="14" lengthAdjust="spacing" textLength="193" x="210.17" y="905.1895">compare(otherOffer: Offer): int</text><ellipse cx="201.17" cy="918.5703" fill="#A6A6A6" rx="3" ry="3" style="stroke:#545454;stroke-width:1.0;"/><text fill="#000000" font-family="sans-serif" font-size="14" lengthAdjust="spacing" textLength="207" x="210.17" y="922.7988">changeStatusToAccepted(): void</text><ellipse cx="201.17" cy="936.1797" fill="#A6A6A6" rx="3" ry="3" style="stroke:#545454;stroke-width:1.0;"/><text fill="#000000" font-family="sans-serif" font-size="14" lengthAdjust="spacing" textLength="203" x="210.17" y="940.4082">changeStatusToDeclined(): void</text></g><!--MD5=[69180efba401837261e3ef5d6df74d04]
class OfferRepository--><g id="elem_OfferRepository"><rect codeLine="60" fill="#F1F1F1" height="100.8281" id="OfferRepository" rx="2.5" ry="2.5" style="stroke:#181818;stroke-width:0.5;" width="390" x="406.67" y="580.1094"/><ellipse cx="547.42" cy="596.1094" fill="#C2C2C2" rx="11" ry="11" style="stroke:#181818;stroke-width:1.0;"/><path d="M550.1856,591.9844 Q550.3419,591.7656 550.5294,591.6563 Q550.7169,591.5469 550.9356,591.5469 Q551.3106,591.5469 551.545,591.8125 Q551.7794,592.0625 551.7794,592.6719 L551.7794,594.125 Q551.7794,594.7344 551.545,595 Q551.3106,595.2656 550.9356,595.2656 Q550.5919,595.2656 550.3888,595.0625 Q550.1856,594.875 550.0763,594.3594 Q550.0294,594 549.8419,593.8125 Q549.5138,593.4375 548.9044,593.2188 Q548.295,593 547.67,593 Q546.9044,593 546.2638,593.3281 Q545.6388,593.6563 545.1388,594.4063 Q544.6544,595.1563 544.6544,596.1875 L544.6544,597.2813 Q544.6544,598.5156 545.545,599.3438 Q546.4356,600.1563 548.0294,600.1563 Q548.9669,600.1563 549.6231,599.9063 Q550.0138,599.75 550.4356,599.3125 Q550.7013,599.0469 550.8419,598.9688 Q550.9981,598.8906 551.2013,598.8906 Q551.5294,598.8906 551.7794,599.1563 Q552.045,599.4063 552.045,599.75 Q552.045,600.0938 551.7013,600.5 Q551.2013,601.0781 550.4044,601.4063 Q549.3263,601.8594 548.0294,601.8594 Q546.5138,601.8594 545.3106,601.2344 Q544.3263,600.7344 543.6388,599.6719 Q542.9513,598.5938 542.9513,597.3125 L542.9513,596.1563 Q542.9513,594.8281 543.5606,593.6875 Q544.1856,592.5313 545.2794,591.9219 Q546.3731,591.2969 547.6075,591.2969 Q548.3419,591.2969 548.9825,591.4688 Q549.6388,591.625 550.1856,591.9844 Z " fill="#000000"/><text fill="#000000" font-family="sans-serif" font-size="14" lengthAdjust="spacing" textLength="100" x="567.92" y="601.8379">OfferRepository</text><line style="stroke:#181818;stroke-width:0.5;" x1="407.67" x2="795.67" y1="612.1094" y2="612.1094"/><line style="stroke:#181818;stroke-width:0.5;" x1="407.67" x2="795.67" y1="620.1094" y2="620.1094"/><ellipse cx="417.67" cy="634.4141" fill="#A6A6A6" rx="3" ry="3" style="stroke:#545454;stroke-width:1.0;"/><text fill="#000000" font-family="sans-serif" font-size="14" lengthAdjust="spacing" textLength="189" x="426.67" y="638.6426">getOffer(propertyId: int): Offer</text><ellipse cx="417.67" cy="652.0234" fill="#A6A6A6" rx="3" ry="3" style="stroke:#545454;stroke-width:1.0;"/><text fill="#000000" font-family="sans-serif" font-size="14" lengthAdjust="spacing" textLength="169" x="426.67" y="656.252">getOffersList(): List&lt;Offer&gt;</text><ellipse cx="417.67" cy="669.6328" fill="#A6A6A6" rx="3" ry="3" style="stroke:#545454;stroke-width:1.0;"/><text fill="#000000" font-family="sans-serif" font-size="14" lengthAdjust="spacing" textLength="364" x="426.67" y="673.8613">sendOfferStatus(offer: Offer, status: DecisionStatus): void</text></g><!--MD5=[ecc568c1cd01e36b8fec80e25fed4097]
class OfferMapper--><g id="elem_OfferMapper"><rect codeLine="66" fill="#F1F1F1" height="65.6094" id="OfferMapper" rx="2.5" ry="2.5" style="stroke:#181818;stroke-width:0.5;" width="479" x="1269.17" y="597.6094"/><ellipse cx="1464.42" cy="613.6094" fill="#C2C2C2" rx="11" ry="11" style="stroke:#181818;stroke-width:1.0;"/><path d="M1467.1856,609.4844 Q1467.3419,609.2656 1467.5294,609.1563 Q1467.7169,609.0469 1467.9356,609.0469 Q1468.3106,609.0469 1468.545,609.3125 Q1468.7794,609.5625 1468.7794,610.1719 L1468.7794,611.625 Q1468.7794,612.2344 1468.545,612.5 Q1468.3106,612.7656 1467.9356,612.7656 Q1467.5919,612.7656 1467.3888,612.5625 Q1467.1856,612.375 1467.0763,611.8594 Q1467.0294,611.5 1466.8419,611.3125 Q1466.5138,610.9375 1465.9044,610.7188 Q1465.295,610.5 1464.67,610.5 Q1463.9044,610.5 1463.2638,610.8281 Q1462.6388,611.1563 1462.1388,611.9063 Q1461.6544,612.6563 1461.6544,613.6875 L1461.6544,614.7813 Q1461.6544,616.0156 1462.545,616.8438 Q1463.4356,617.6563 1465.0294,617.6563 Q1465.9669,617.6563 1466.6231,617.4063 Q1467.0138,617.25 1467.4356,616.8125 Q1467.7013,616.5469 1467.8419,616.4688 Q1467.9981,616.3906 1468.2013,616.3906 Q1468.5294,616.3906 1468.7794,616.6563 Q1469.045,616.9063 1469.045,617.25 Q1469.045,617.5938 1468.7013,618 Q1468.2013,618.5781 1467.4044,618.9063 Q1466.3263,619.3594 1465.0294,619.3594 Q1463.5138,619.3594 1462.3106,618.7344 Q1461.3263,618.2344 1460.6388,617.1719 Q1459.9513,616.0938 1459.9513,614.8125 L1459.9513,613.6563 Q1459.9513,612.3281 1460.5606,611.1875 Q1461.1856,610.0313 1462.2794,609.4219 Q1463.3731,608.7969 1464.6075,608.7969 Q1465.3419,608.7969 1465.9825,608.9688 Q1466.6388,609.125 1467.1856,609.4844 Z " fill="#000000"/><text fill="#000000" font-family="sans-serif" font-size="14" lengthAdjust="spacing" textLength="80" x="1484.92" y="619.3379">OfferMapper</text><line style="stroke:#181818;stroke-width:0.5;" x1="1270.17" x2="1747.17" y1="629.6094" y2="629.6094"/><line style="stroke:#181818;stroke-width:0.5;" x1="1270.17" x2="1747.17" y1="637.6094" y2="637.6094"/><ellipse cx="1280.17" cy="651.9141" fill="#A6A6A6" rx="3" ry="3" style="stroke:#545454;stroke-width:1.0;"/><text fill="#000000" font-family="sans-serif" font-size="14" lengthAdjust="spacing" textLength="453" x="1289.17" y="656.1426">toDTO(propertyList: List&lt;Property&gt;, offerList: List&lt;Offer&gt;): JointListDTO</text></g><!--MD5=[a8c0967d7b66f43265179b07355379df]
class PropertyDTO--><g id="elem_PropertyDTO"><rect codeLine="70" fill="#F1F1F1" height="118.4375" id="PropertyDTO" rx="2.5" ry="2.5" style="stroke:#181818;stroke-width:0.5;" width="160" x="1428.67" y="794.1094"/><ellipse cx="1463.47" cy="810.1094" fill="#C2C2C2" rx="11" ry="11" style="stroke:#181818;stroke-width:1.0;"/><path d="M1466.2356,805.9844 Q1466.3919,805.7656 1466.5794,805.6563 Q1466.7669,805.5469 1466.9856,805.5469 Q1467.3606,805.5469 1467.595,805.8125 Q1467.8294,806.0625 1467.8294,806.6719 L1467.8294,808.125 Q1467.8294,808.7344 1467.595,809 Q1467.3606,809.2656 1466.9856,809.2656 Q1466.6419,809.2656 1466.4388,809.0625 Q1466.2356,808.875 1466.1263,808.3594 Q1466.0794,808 1465.8919,807.8125 Q1465.5638,807.4375 1464.9544,807.2188 Q1464.345,807 1463.72,807 Q1462.9544,807 1462.3138,807.3281 Q1461.6888,807.6563 1461.1888,808.4063 Q1460.7044,809.1563 1460.7044,810.1875 L1460.7044,811.2813 Q1460.7044,812.5156 1461.595,813.3438 Q1462.4856,814.1563 1464.0794,814.1563 Q1465.0169,814.1563 1465.6731,813.9063 Q1466.0638,813.75 1466.4856,813.3125 Q1466.7513,813.0469 1466.8919,812.9688 Q1467.0481,812.8906 1467.2513,812.8906 Q1467.5794,812.8906 1467.8294,813.1563 Q1468.095,813.4063 1468.095,813.75 Q1468.095,814.0938 1467.7513,814.5 Q1467.2513,815.0781 1466.4544,815.4063 Q1465.3763,815.8594 1464.0794,815.8594 Q1462.5638,815.8594 1461.3606,815.2344 Q1460.3763,814.7344 1459.6888,813.6719 Q1459.0013,812.5938 1459.0013,811.3125 L1459.0013,810.1563 Q1459.0013,808.8281 1459.6106,807.6875 Q1460.2356,806.5313 1461.3294,805.9219 Q1462.4231,805.2969 1463.6575,805.2969 Q1464.3919,805.2969 1465.0325,805.4688 Q1465.6888,805.625 1466.2356,805.9844 Z " fill="#000000"/><text fill="#000000" font-family="sans-serif" font-size="14" lengthAdjust="spacing" textLength="84" x="1481.87" y="815.8379">PropertyDTO</text><line style="stroke:#181818;stroke-width:0.5;" x1="1429.67" x2="1587.67" y1="826.1094" y2="826.1094"/><rect fill="none" height="6" style="stroke:#595959;stroke-width:1.0;" width="6" x="1436.67" y="837.4141"/><text fill="#000000" font-family="sans-serif" font-size="14" lengthAdjust="spacing" textLength="87" x="1448.67" y="844.6426">propertyId: int</text><rect fill="none" height="6" style="stroke:#595959;stroke-width:1.0;" width="6" x="1436.67" y="855.0234"/><text fill="#000000" font-family="sans-serif" font-size="14" lengthAdjust="spacing" textLength="134" x="1448.67" y="862.252">propertyName: String</text><rect fill="none" height="6" style="stroke:#595959;stroke-width:1.0;" width="6" x="1436.67" y="872.6328"/><text fill="#000000" font-family="sans-serif" font-size="14" lengthAdjust="spacing" textLength="130" x="1448.67" y="879.8613">propertyType: String</text><rect fill="none" height="6" style="stroke:#595959;stroke-width:1.0;" width="6" x="1436.67" y="890.2422"/><text fill="#000000" font-family="sans-serif" font-size="14" lengthAdjust="spacing" textLength="128" x="1448.67" y="897.4707">... other attributes ...</text><line style="stroke:#181818;stroke-width:0.5;" x1="1429.67" x2="1587.67" y1="904.5469" y2="904.5469"/></g><!--MD5=[1d2dd0dcc7f0ced765780a944914688a]
class OfferDTO--><g id="elem_OfferDTO"><rect codeLine="77" fill="#F1F1F1" height="136.0469" id="OfferDTO" rx="2.5" ry="2.5" style="stroke:#181818;stroke-width:0.5;" width="169" x="1822.17" y="785.1094"/><ellipse cx="1871.42" cy="801.1094" fill="#C2C2C2" rx="11" ry="11" style="stroke:#181818;stroke-width:1.0;"/><path d="M1874.1856,796.9844 Q1874.3419,796.7656 1874.5294,796.6563 Q1874.7169,796.5469 1874.9356,796.5469 Q1875.3106,796.5469 1875.545,796.8125 Q1875.7794,797.0625 1875.7794,797.6719 L1875.7794,799.125 Q1875.7794,799.7344 1875.545,800 Q1875.3106,800.2656 1874.9356,800.2656 Q1874.5919,800.2656 1874.3888,800.0625 Q1874.1856,799.875 1874.0763,799.3594 Q1874.0294,799 1873.8419,798.8125 Q1873.5138,798.4375 1872.9044,798.2188 Q1872.295,798 1871.67,798 Q1870.9044,798 1870.2638,798.3281 Q1869.6388,798.6563 1869.1388,799.4063 Q1868.6544,800.1563 1868.6544,801.1875 L1868.6544,802.2813 Q1868.6544,803.5156 1869.545,804.3438 Q1870.4356,805.1563 1872.0294,805.1563 Q1872.9669,805.1563 1873.6231,804.9063 Q1874.0138,804.75 1874.4356,804.3125 Q1874.7013,804.0469 1874.8419,803.9688 Q1874.9981,803.8906 1875.2013,803.8906 Q1875.5294,803.8906 1875.7794,804.1563 Q1876.045,804.4063 1876.045,804.75 Q1876.045,805.0938 1875.7013,805.5 Q1875.2013,806.0781 1874.4044,806.4063 Q1873.3263,806.8594 1872.0294,806.8594 Q1870.5138,806.8594 1869.3106,806.2344 Q1868.3263,805.7344 1867.6388,804.6719 Q1866.9513,803.5938 1866.9513,802.3125 L1866.9513,801.1563 Q1866.9513,799.8281 1867.5606,798.6875 Q1868.1856,797.5313 1869.2794,796.9219 Q1870.3731,796.2969 1871.6075,796.2969 Q1872.3419,796.2969 1872.9825,796.4688 Q1873.6388,796.625 1874.1856,796.9844 Z " fill="#000000"/><text fill="#000000" font-family="sans-serif" font-size="14" lengthAdjust="spacing" textLength="62" x="1891.92" y="806.8379">OfferDTO</text><line style="stroke:#181818;stroke-width:0.5;" x1="1823.17" x2="1990.17" y1="817.1094" y2="817.1094"/><rect fill="none" height="6" style="stroke:#595959;stroke-width:1.0;" width="6" x="1830.17" y="828.4141"/><text fill="#000000" font-family="sans-serif" font-size="14" lengthAdjust="spacing" textLength="63" x="1842.17" y="835.6426">offerId: int</text><rect fill="none" height="6" style="stroke:#595959;stroke-width:1.0;" width="6" x="1830.17" y="846.0234"/><text fill="#000000" font-family="sans-serif" font-size="14" lengthAdjust="spacing" textLength="87" x="1842.17" y="853.252">propertyId: int</text><rect fill="none" height="6" style="stroke:#595959;stroke-width:1.0;" width="6" x="1830.17" y="863.6328"/><text fill="#000000" font-family="sans-serif" font-size="14" lengthAdjust="spacing" textLength="97" x="1842.17" y="870.8613">offerDate: Date</text><rect fill="none" height="6" style="stroke:#595959;stroke-width:1.0;" width="6" x="1830.17" y="881.2422"/><text fill="#000000" font-family="sans-serif" font-size="14" lengthAdjust="spacing" textLength="143" x="1842.17" y="888.4707">offerValue: BigDecimal</text><rect fill="none" height="6" style="stroke:#595959;stroke-width:1.0;" width="6" x="1830.17" y="898.8516"/><text fill="#000000" font-family="sans-serif" font-size="14" lengthAdjust="spacing" textLength="140" x="1842.17" y="906.0801">status: DecisionStatus</text><line style="stroke:#181818;stroke-width:0.5;" x1="1823.17" x2="1990.17" y1="913.1563" y2="913.1563"/></g><!--MD5=[39749ad7315a08aabaef39d96bb1d73b]
class JointListDTO--><g id="elem_JointListDTO"><rect codeLine="85" fill="#F1F1F1" height="83.2188" id="JointListDTO" rx="2.5" ry="2.5" style="stroke:#181818;stroke-width:0.5;" width="246" x="1783.67" y="589.1094"/><ellipse cx="1861.92" cy="605.1094" fill="#C2C2C2" rx="11" ry="11" style="stroke:#181818;stroke-width:1.0;"/><path d="M1864.6856,600.9844 Q1864.8419,600.7656 1865.0294,600.6563 Q1865.2169,600.5469 1865.4356,600.5469 Q1865.8106,600.5469 1866.045,600.8125 Q1866.2794,601.0625 1866.2794,601.6719 L1866.2794,603.125 Q1866.2794,603.7344 1866.045,604 Q1865.8106,604.2656 1865.4356,604.2656 Q1865.0919,604.2656 1864.8888,604.0625 Q1864.6856,603.875 1864.5763,603.3594 Q1864.5294,603 1864.3419,602.8125 Q1864.0138,602.4375 1863.4044,602.2188 Q1862.795,602 1862.17,602 Q1861.4044,602 1860.7638,602.3281 Q1860.1388,602.6563 1859.6388,603.4063 Q1859.1544,604.1563 1859.1544,605.1875 L1859.1544,606.2813 Q1859.1544,607.5156 1860.045,608.3438 Q1860.9356,609.1563 1862.5294,609.1563 Q1863.4669,609.1563 1864.1231,608.9063 Q1864.5138,608.75 1864.9356,608.3125 Q1865.2013,608.0469 1865.3419,607.9688 Q1865.4981,607.8906 1865.7013,607.8906 Q1866.0294,607.8906 1866.2794,608.1563 Q1866.545,608.4063 1866.545,608.75 Q1866.545,609.0938 1866.2013,609.5 Q1865.7013,610.0781 1864.9044,610.4063 Q1863.8263,610.8594 1862.5294,610.8594 Q1861.0138,610.8594 1859.8106,610.2344 Q1858.8263,609.7344 1858.1388,608.6719 Q1857.4513,607.5938 1857.4513,606.3125 L1857.4513,605.1563 Q1857.4513,603.8281 1858.0606,602.6875 Q1858.6856,601.5313 1859.7794,600.9219 Q1860.8731,600.2969 1862.1075,600.2969 Q1862.8419,600.2969 1863.4825,600.4688 Q1864.1388,600.625 1864.6856,600.9844 Z " fill="#000000"/><text fill="#000000" font-family="sans-serif" font-size="14" lengthAdjust="spacing" textLength="81" x="1882.42" y="610.8379">JointListDTO</text><line style="stroke:#181818;stroke-width:0.5;" x1="1784.67" x2="2028.67" y1="621.1094" y2="621.1094"/><rect fill="none" height="6" style="stroke:#595959;stroke-width:1.0;" width="6" x="1791.67" y="632.4141"/><text fill="#000000" font-family="sans-serif" font-size="14" lengthAdjust="spacing" textLength="220" x="1803.67" y="639.6426">propertyDTOs: List&lt;PropertyDTO&gt;</text><rect fill="none" height="6" style="stroke:#595959;stroke-width:1.0;" width="6" x="1791.67" y="650.0234"/><text fill="#000000" font-family="sans-serif" font-size="14" lengthAdjust="spacing" textLength="174" x="1803.67" y="657.252">offerDTOs: List&lt;OfferDTO&gt;</text><line style="stroke:#181818;stroke-width:0.5;" x1="1784.67" x2="2028.67" y1="664.3281" y2="664.3281"/></g><!--MD5=[5cde13fe77d9cccd872f0ff55322a040]
link Agent to OfferDecisionUI--><g id="link_Agent_OfferDecisionUI"><path codeLine="91" d="M1204.36,128.9294 C1203.01,145.5294 1202.61,165.0994 1203.16,183.4594 " fill="none" id="Agent-to-OfferDecisionUI" style="stroke:#181818;stroke-width:1.0;"/><polygon fill="#181818" points="1203.34,188.6094,1207.0293,179.4776,1203.1687,183.6123,1199.034,179.7517,1203.34,188.6094" style="stroke:#181818;stroke-width:1.0;"/></g><!--MD5=[f15de38b0f1b458ea3f4bd512b68cc5c]
link OfferDecisionUI to Agent--><g id="link_OfferDecisionUI_Agent"><path codeLine="101" d="M1228.73,188.6094 C1229.49,170.6594 1229.27,151.1394 1228.06,134.1194 " fill="none" id="OfferDecisionUI-to-Agent" style="stroke:#181818;stroke-width:1.0;"/><polygon fill="#181818" points="1227.65,128.9294,1224.3561,138.2111,1228.0357,133.9145,1232.3323,137.594,1227.65,128.9294" style="stroke:#181818;stroke-width:1.0;"/></g><!--MD5=[feafc208d367c979104ea1cb12032bcc]
link OfferDecisionUI to OfferDecisionController--><g id="link_OfferDecisionUI_OfferDecisionController"><path codeLine="92" d="M1133.18,306.6394 C1107.58,324.6394 1079.1,344.6794 1052.46,363.4194 " fill="none" id="OfferDecisionUI-to-OfferDecisionController" style="stroke:#181818;stroke-width:1.0;"/><polygon fill="#181818" points="1048.2,366.4194,1057.8634,364.517,1052.2908,363.5444,1053.2634,357.9718,1048.2,366.4194" style="stroke:#181818;stroke-width:1.0;"/></g><!--MD5=[5c90064a821a82a9968ab0e73c8a0f99]
link OfferDecisionController to Repositories--><g id="link_OfferDecisionController_Repositories"><path codeLine="93" d="M742.43,475.0294 C635.49,497.0694 504.06,527.2394 388.67,562.6094 C384.81,563.7894 380.92,565.0194 377,566.2894 " fill="none" id="OfferDecisionController-to-Repositories" style="stroke:#181818;stroke-width:1.0;stroke-dasharray:7.0,7.0;"/><polygon fill="#181818" points="372.03,567.9194,381.8278,568.9211,376.7819,566.3639,379.3391,561.3181,372.03,567.9194" style="stroke:#181818;stroke-width:1.0;"/></g><!--MD5=[2cf4ebeeaf5a4f57397c079f0c7a59ff]
link OfferDecisionController to Property--><g id="link_OfferDecisionController_Property"><path codeLine="94" d="M1061.86,502.9294 C1080.81,519.9194 1097.88,539.8994 1108.67,562.6094 C1141.71,632.1194 1116.64,719.8194 1090.31,780.3794 " fill="none" id="OfferDecisionController-to-Property" style="stroke:#181818;stroke-width:1.0;"/><polygon fill="#181818" points="1088.25,785.0594,1095.5394,778.4363,1090.2661,780.4839,1088.2185,775.2106,1088.25,785.0594" style="stroke:#181818;stroke-width:1.0;"/></g><!--MD5=[1dbf1fc9e58bc0dcbf05a23fe483764c]
link OfferDecisionController to Offer--><g id="link_OfferDecisionController_Offer"><path codeLine="95" d="M742.43,450.6594 C488.86,470.9894 90.78,510.7394 45.67,562.6094 C6,608.2194 15.66,646.1394 45.67,698.6094 C76.01,751.6494 132.61,788.1694 185.37,812.2394 " fill="none" id="OfferDecisionController-to-Offer" style="stroke:#181818;stroke-width:1.0;"/><polygon fill="#181818" points="190.13,814.3894,183.5536,807.0578,185.5675,812.3441,180.2812,814.3579,190.13,814.3894" style="stroke:#181818;stroke-width:1.0;"/></g><!--MD5=[cecd96bd40d52ac0eb74d8d2e73bf6f5]
link OfferDecisionController to OfferMapper--><g id="link_OfferDecisionController_OfferMapper"><path codeLine="96" d="M1144.79,502.6494 C1234.94,534.0994 1338.44,570.2094 1411.96,595.8694 " fill="none" id="OfferDecisionController-to-OfferMapper" style="stroke:#181818;stroke-width:1.0;stroke-dasharray:7.0,7.0;"/><polygon fill="#181818" points="1416.76,597.5394,1409.5776,590.8005,1412.0385,595.894,1406.945,598.3549,1416.76,597.5394" style="stroke:#181818;stroke-width:1.0;"/></g><!--MD5=[8d162c12bb7a8a828bc750d1ede69080]
link OfferDecisionController to PropertyRepository--><g id="link_OfferDecisionController_PropertyRepository"><path codeLine="97" d="M955.78,502.6494 C957.02,529.4294 958.42,559.5994 959.55,583.8094 " fill="none" id="OfferDecisionController-to-PropertyRepository" style="stroke:#181818;stroke-width:1.0;stroke-dasharray:7.0,7.0;"/><polygon fill="#181818" points="959.78,588.8794,963.3648,579.7061,959.5517,583.8846,955.3732,580.0714,959.78,588.8794" style="stroke:#181818;stroke-width:1.0;"/></g><!--MD5=[167ef75c59c551abcecea90c96fb0920]
link OfferDecisionController to OfferRepository--><g id="link_OfferDecisionController_OfferRepository"><path codeLine="98" d="M831.39,502.6494 C787.03,527.1594 737.55,554.5094 695.91,577.5294 " fill="none" id="OfferDecisionController-to-OfferRepository" style="stroke:#181818;stroke-width:1.0;stroke-dasharray:7.0,7.0;"/><polygon fill="#181818" points="691.39,580.0194,701.2033,579.1833,695.7702,577.6081,697.3453,572.175,691.39,580.0194" style="stroke:#181818;stroke-width:1.0;"/></g><!--MD5=[ea8f7cf94f6d7ed1c1e47360e655b2db]
link OfferMapper to PropertyDTO--><g id="link_OfferMapper_PropertyDTO"><path codeLine="99" d="M1508.67,663.6694 C1508.67,696.2494 1508.67,747.5994 1508.67,788.4694 " fill="none" id="OfferMapper-to-PropertyDTO" style="stroke:#181818;stroke-width:1.0;stroke-dasharray:7.0,7.0;"/><polygon fill="#181818" points="1508.67,793.9094,1512.67,784.9094,1508.67,788.9094,1504.67,784.9094,1508.67,793.9094" style="stroke:#181818;stroke-width:1.0;"/></g><!--MD5=[cb5092a61c2b04b80b335fcd4c8c44f5]
link OfferMapper to OfferDTO--><g id="link_OfferMapper_OfferDTO"><path codeLine="100" d="M1566.54,663.6694 C1632.39,700.1494 1740.71,760.1594 1817.4,802.6494 " fill="none" id="OfferMapper-to-OfferDTO" style="stroke:#181818;stroke-width:1.0;stroke-dasharray:7.0,7.0;"/><polygon fill="#181818" points="1821.94,805.1694,1816.0043,797.3102,1817.5659,802.7472,1812.1288,804.3088,1821.94,805.1694" style="stroke:#181818;stroke-width:1.0;"/></g><!--MD5=[40a9013f75f4efc86e780acec3e92a1b]
link OfferDecisionUI to PropertyDTO--><g id="link_OfferDecisionUI_PropertyDTO"><path codeLine="102" d="M1204.49,306.6794 C1190.21,397.7294 1175.65,576.2994 1251.67,698.6094 C1290.5,761.0794 1364.94,801.3894 1423.75,824.9494 " fill="none" id="OfferDecisionUI-to-PropertyDTO" style="stroke:#181818;stroke-width:1.0;"/><polygon fill="#181818" points="1428.67,826.8994,1421.7732,819.8685,1424.0208,825.0596,1418.8296,827.3073,1428.67,826.8994" style="stroke:#181818;stroke-width:1.0;"/></g><!--MD5=[dffad8ba34cb998298ea1bbef8b28f24]
link OfferDecisionUI to OfferDTO--><g id="link_OfferDecisionUI_OfferDTO"><path codeLine="103" d="M1421.73,262.6194 C1619.1,288.2694 1906.92,360.4094 2046.67,562.6094 C2081.04,612.3294 2068.51,642.2494 2046.67,698.6094 C2034.79,729.2594 2013.63,757.5294 1991.3,781.2494 " fill="none" id="OfferDecisionUI-to-OfferDTO" style="stroke:#181818;stroke-width:1.0;"/><polygon fill="#181818" points="1987.71,785.0094,1996.8138,781.2517,1991.1586,781.389,1991.0213,775.7338,1987.71,785.0094" style="stroke:#181818;stroke-width:1.0;"/></g><!--MD5=[e2a6bb0bb73b8266cc6fbb8cc825b48d]
link PropertyRepository to Property--><g id="link_PropertyRepository_Property"><path codeLine="104" d="M978.47,672.3094 C990.9,702.4394 1008.17,744.2794 1022.92,780.0194 " fill="none" id="PropertyRepository-to-Property" style="stroke:#181818;stroke-width:1.0;"/><polygon fill="#181818" points="1024.89,784.7994,1025.162,774.9543,1022.9863,780.176,1017.7645,778.0003,1024.89,784.7994" style="stroke:#181818;stroke-width:1.0;"/></g><!--MD5=[3a875d77cbdc6de41ff1f53a4686d1b7]
link OfferRepository to Offer--><g id="link_OfferRepository_Offer"><path codeLine="105" d="M535.1,681.3694 C503.29,705.1394 464.21,734.3594 427.42,761.8494 " fill="none" id="OfferRepository-to-Offer" style="stroke:#181818;stroke-width:1.0;"/><polygon fill="#181818" points="423.41,764.8494,433.0137,762.6658,427.4151,761.8562,428.2247,756.2576,423.41,764.8494" style="stroke:#181818;stroke-width:1.0;"/></g><!--MD5=[3ed312d50956603daa0bf523d3bed505]
link JointListDTO to PropertyDTO--><g id="link_JointListDTO_PropertyDTO"><path codeLine="106" d="M1833.21,672.3094 C1765.4,709.8694 1664.74,765.6494 1593.53,805.0994 " fill="none" id="JointListDTO-to-PropertyDTO" style="stroke:#181818;stroke-width:1.0;"/><polygon fill="#181818" points="1588.88,807.6694,1598.69,806.7952,1593.2508,805.2412,1594.8048,799.802,1588.88,807.6694" style="stroke:#181818;stroke-width:1.0;"/></g><!--MD5=[a4b4ce703e62d7ed1a56c5137dcfb982]
link JointListDTO to OfferDTO--><g id="link_JointListDTO_OfferDTO"><path codeLine="107" d="M1906.67,672.3094 C1906.67,702.3194 1906.67,743.9394 1906.67,779.5894 " fill="none" id="JointListDTO-to-OfferDTO" style="stroke:#181818;stroke-width:1.0;"/><polygon fill="#181818" points="1906.67,784.7994,1910.67,775.7994,1906.67,779.7994,1902.67,775.7994,1906.67,784.7994" style="stroke:#181818;stroke-width:1.0;"/></g><!--MD5=[4c825d550d1ad03f34be5a3e1806c71d]
@startuml

title US11 - Class Diagram

skinparam monochrome true
skinparam packageStyle rectangle
skinparam shadowing false

class Agent {
  -name: String
  -email: String
}

class OfferDecisionUI {
  +displayPurchaseOrders(properties: List<PropertyDTO>): void
  +keepOffer(offer: OfferDTO): void
  +promptAgentDecision(): DecisionStatus
  +displayOperationSuccess(): void
}

class OfferDecisionController {
  -propertyRepository: PropertyRepository
  -offerRepository: OfferRepository
  -mapper: OfferMapper
  +getOffersList(): void
  +sendOfferStatus(offer: OfferDTO, status: DecisionStatus): void
}

class Repositories {
  -propertyRepository: PropertyRepository
  -offerRepository: OfferRepository
  +getInstance(): Repositories
  +getPropertyRepository(): PropertyRepository
  +getOfferRepository(): OfferRepository
}

class Property {
  -propertyId: int
  -propertyName: String
  -propertyType: String
  -... other attributes ...
  +compare(otherProperty: Property): int
}

class PropertyRepository {
  +getProperty(propertyId: int): Property
  +getPropertiesList(): List<Property>
}

class Offer {
  -offerId: int
  -propertyId: int
  -offerDate: Date
  -offerValue: BigDecimal
  -status: DecisionStatus
  +compare(otherOffer: Offer): int
  +changeStatusToAccepted(): void
  +changeStatusToDeclined(): void
}

class OfferRepository {
  +getOffer(propertyId: int): Offer
  +getOffersList(): List<Offer>
  +sendOfferStatus(offer: Offer, status: DecisionStatus): void
}

class OfferMapper {
  +toDTO(propertyList: List<Property>, offerList: List<Offer>): JointListDTO
}

class PropertyDTO {
  -propertyId: int
  -propertyName: String
  -propertyType: String
  -... other attributes ...
}

class OfferDTO {
  -offerId: int
  -propertyId: int
  -offerDate: Date
  -offerValue: BigDecimal
  -status: DecisionStatus
}

class JointListDTO {
  -propertyDTOs: List<PropertyDTO>
  -offerDTOs: List<OfferDTO>
}


Agent - -> OfferDecisionUI
OfferDecisionUI - -> OfferDecisionController
OfferDecisionController ..> Repositories
OfferDecisionController - -> Property
OfferDecisionController - -> Offer
OfferDecisionController ..> OfferMapper
OfferDecisionController ..> PropertyRepository
OfferDecisionController ..> OfferRepository
OfferMapper ..> PropertyDTO
OfferMapper ..> OfferDTO
OfferDecisionUI - -> Agent
OfferDecisionUI - -> PropertyDTO
OfferDecisionUI - -> OfferDTO
PropertyRepository - -> Property
OfferRepository - -> Offer
JointListDTO - -> PropertyDTO
JointListDTO - -> OfferDTO

@enduml

PlantUML version 1.2022.7(Mon Aug 22 18:01:30 WEST 2022)
(GPL source distribution)
Java Runtime: OpenJDK Runtime Environment
JVM: OpenJDK 64-Bit Server VM
Default Encoding: Cp1252
Language: pt
Country: PT
--></g></svg>