<?xml version="1.0" encoding="UTF-8" standalone="no"?><svg xmlns="http://www.w3.org/2000/svg" xmlns:xlink="http://www.w3.org/1999/xlink" contentStyleType="text/css" height="448px" preserveAspectRatio="none" style="width:714px;height:448px;background:#FFFFFF;" version="1.1" viewBox="0 0 714 448" width="714px" zoomAndPan="magnify"><defs/><g><rect fill="#FFFFFF" height="319.4844" style="stroke:#181818;stroke-width:1.0;" width="10" x="83" y="65.2188"/><rect fill="#FFFFFF" height="298.1328" style="stroke:#181818;stroke-width:1.0;" width="10" x="235" y="87.5703"/><rect fill="#FFFFFF" height="266.7813" style="stroke:#181818;stroke-width:1.0;" width="10" x="444" y="117.9219"/><rect fill="none" height="244.7813" style="stroke:#000000;stroke-width:1.5;" width="313" x="394" y="132.9219"/><rect fill="none" height="153.2422" style="stroke:#000000;stroke-width:1.5;" width="293" x="404" y="158.2734"/><rect fill="none" height="120.8906" style="stroke:#000000;stroke-width:1.5;" width="273" x="414" y="183.625"/><line style="stroke:#181818;stroke-width:0.5;stroke-dasharray:5.0,5.0;" x1="88" x2="88" y1="55.2188" y2="394.7031"/><line style="stroke:#181818;stroke-width:0.5;stroke-dasharray:5.0,5.0;" x1="240" x2="240" y1="55.2188" y2="394.7031"/><line style="stroke:#181818;stroke-width:0.5;stroke-dasharray:5.0,5.0;" x1="449" x2="449" y1="55.2188" y2="394.7031"/><rect fill="#E3E3E3" height="31.6094" rx="2.5" ry="2.5" style="stroke:#181818;stroke-width:0.5;" width="166" x="5" y="22.6094"/><text fill="#000000" font-family="sans-serif" font-size="14" lengthAdjust="spacing" textLength="152" x="12" y="44.1426">:OfferDecisionController</text><rect fill="#E3E3E3" height="31.6094" rx="2.5" ry="2.5" style="stroke:#181818;stroke-width:0.5;" width="166" x="5" y="393.7031"/><text fill="#000000" font-family="sans-serif" font-size="14" lengthAdjust="spacing" textLength="152" x="12" y="415.2363">:OfferDecisionController</text><rect fill="#E3E3E3" height="49.2188" rx="2.5" ry="2.5" style="stroke:#181818;stroke-width:0.5;" width="118" x="181" y="5"/><text fill="#000000" font-family="sans-serif" font-size="14" lengthAdjust="spacing" textLength="97" x="191.5" y="26.5332">offerRepository</text><text fill="#000000" font-family="sans-serif" font-size="14" lengthAdjust="spacing" textLength="104" x="188" y="44.1426">:OfferRepository</text><rect fill="#E3E3E3" height="49.2188" rx="2.5" ry="2.5" style="stroke:#181818;stroke-width:0.5;" width="118" x="181" y="393.7031"/><text fill="#000000" font-family="sans-serif" font-size="14" lengthAdjust="spacing" textLength="97" x="191.5" y="415.2363">offerRepository</text><text fill="#000000" font-family="sans-serif" font-size="14" lengthAdjust="spacing" textLength="104" x="188" y="432.8457">:OfferRepository</text><rect fill="#E3E3E3" height="49.2188" rx="2.5" ry="2.5" style="stroke:#181818;stroke-width:0.5;" width="50" x="424" y="5"/><text fill="#000000" font-family="sans-serif" font-size="14" lengthAdjust="spacing" textLength="32" x="433" y="26.5332">Offer</text><text fill="#000000" font-family="sans-serif" font-size="14" lengthAdjust="spacing" textLength="36" x="431" y="44.1426">:Offer</text><rect fill="#E3E3E3" height="49.2188" rx="2.5" ry="2.5" style="stroke:#181818;stroke-width:0.5;" width="50" x="424" y="393.7031"/><text fill="#000000" font-family="sans-serif" font-size="14" lengthAdjust="spacing" textLength="32" x="433" y="415.2363">Offer</text><text fill="#000000" font-family="sans-serif" font-size="14" lengthAdjust="spacing" textLength="36" x="431" y="432.8457">:Offer</text><rect fill="#FFFFFF" height="319.4844" style="stroke:#181818;stroke-width:1.0;" width="10" x="83" y="65.2188"/><rect fill="#FFFFFF" height="298.1328" style="stroke:#181818;stroke-width:1.0;" width="10" x="235" y="87.5703"/><rect fill="#FFFFFF" height="266.7813" style="stroke:#181818;stroke-width:1.0;" width="10" x="444" y="117.9219"/><polygon fill="#181818" points="223,83.5703,233,87.5703,223,91.5703,227,87.5703" style="stroke:#181818;stroke-width:1.0;"/><line style="stroke:#181818;stroke-width:1.0;" x1="93" x2="229" y1="87.5703" y2="87.5703"/><text fill="#000000" font-family="sans-serif" font-size="13" font-weight="bold" lengthAdjust="spacing" textLength="7" x="100" y="82.7139">1</text><text fill="#000000" font-family="sans-serif" font-size="13" lengthAdjust="spacing" textLength="4" x="111" y="82.7139"> </text><polygon fill="#181818" points="432,113.9219,442,117.9219,432,121.9219,436,117.9219" style="stroke:#181818;stroke-width:1.0;"/><line style="stroke:#181818;stroke-width:1.0;" x1="245" x2="438" y1="117.9219" y2="117.9219"/><text fill="#000000" font-family="sans-serif" font-size="13" font-weight="bold" lengthAdjust="spacing" textLength="7" x="252" y="113.0654">2</text><text fill="#000000" font-family="sans-serif" font-size="13" lengthAdjust="spacing" textLength="169" x="263" y="113.0654">sendOfferStatus(offer, status)</text><path d="M394,132.9219 L455,132.9219 L455,141.2734 L445,151.2734 L394,151.2734 L394,132.9219 " fill="#EEEEEE" style="stroke:#000000;stroke-width:1.5;"/><rect fill="none" height="244.7813" style="stroke:#000000;stroke-width:1.5;" width="313" x="394" y="132.9219"/><text fill="#000000" font-family="sans-serif" font-size="13" font-weight="bold" lengthAdjust="spacing" textLength="16" x="409" y="147.417">alt</text><text fill="#000000" font-family="sans-serif" font-size="11" font-weight="bold" lengthAdjust="spacing" textLength="121" x="470" y="146.3408">[if status == accepted]</text><path d="M404,158.2734 L477,158.2734 L477,166.625 L467,176.625 L404,176.625 L404,158.2734 " fill="#EEEEEE" style="stroke:#000000;stroke-width:1.5;"/><rect fill="none" height="153.2422" style="stroke:#000000;stroke-width:1.5;" width="293" x="404" y="158.2734"/><text fill="#000000" font-family="sans-serif" font-size="13" font-weight="bold" lengthAdjust="spacing" textLength="28" x="419" y="172.7686">loop</text><text fill="#000000" font-family="sans-serif" font-size="11" font-weight="bold" lengthAdjust="spacing" textLength="88" x="492" y="171.6924">[for every offer]</text><path d="M414,183.625 L475,183.625 L475,191.9766 L465,201.9766 L414,201.9766 L414,183.625 " fill="#EEEEEE" style="stroke:#000000;stroke-width:1.5;"/><rect fill="none" height="120.8906" style="stroke:#000000;stroke-width:1.5;" width="273" x="414" y="183.625"/><text fill="#000000" font-family="sans-serif" font-size="13" font-weight="bold" lengthAdjust="spacing" textLength="16" x="429" y="198.1201">alt</text><text fill="#000000" font-family="sans-serif" font-size="11" font-weight="bold" lengthAdjust="spacing" textLength="192" x="490" y="197.0439">[if it is the offer that was accepted]</text><line style="stroke:#181818;stroke-width:1.0;stroke-dasharray:2.0,2.0;" x1="454" x2="496" y1="224.3281" y2="224.3281"/><line style="stroke:#181818;stroke-width:1.0;stroke-dasharray:2.0,2.0;" x1="496" x2="496" y1="224.3281" y2="237.3281"/><line style="stroke:#181818;stroke-width:1.0;stroke-dasharray:2.0,2.0;" x1="455" x2="496" y1="237.3281" y2="237.3281"/><polygon fill="#181818" points="465,233.3281,455,237.3281,465,241.3281,461,237.3281" style="stroke:#181818;stroke-width:1.0;"/><text fill="#000000" font-family="sans-serif" font-size="13" font-weight="bold" lengthAdjust="spacing" textLength="7" x="461" y="219.4717">3</text><text fill="#000000" font-family="sans-serif" font-size="13" lengthAdjust="spacing" textLength="157" x="472" y="219.4717">changeStatusToAccepted()</text><line style="stroke:#000000;stroke-width:1.0;stroke-dasharray:2.0,2.0;" x1="414" x2="687" y1="246.3281" y2="246.3281"/><text fill="#000000" font-family="sans-serif" font-size="11" font-weight="bold" lengthAdjust="spacing" textLength="123" x="419" y="257.7471">[if it is any other offer]</text><line style="stroke:#181818;stroke-width:1.0;stroke-dasharray:2.0,2.0;" x1="454" x2="496" y1="283.5156" y2="283.5156"/><line style="stroke:#181818;stroke-width:1.0;stroke-dasharray:2.0,2.0;" x1="496" x2="496" y1="283.5156" y2="296.5156"/><line style="stroke:#181818;stroke-width:1.0;stroke-dasharray:2.0,2.0;" x1="455" x2="496" y1="296.5156" y2="296.5156"/><polygon fill="#181818" points="465,292.5156,455,296.5156,465,300.5156,461,296.5156" style="stroke:#181818;stroke-width:1.0;"/><text fill="#000000" font-family="sans-serif" font-size="13" font-weight="bold" lengthAdjust="spacing" textLength="7" x="461" y="278.6592">4</text><text fill="#000000" font-family="sans-serif" font-size="13" lengthAdjust="spacing" textLength="152" x="472" y="278.6592">changeStatusToDeclined()</text><line style="stroke:#000000;stroke-width:1.0;stroke-dasharray:2.0,2.0;" x1="394" x2="707" y1="319.5156" y2="319.5156"/><text fill="#000000" font-family="sans-serif" font-size="11" font-weight="bold" lengthAdjust="spacing" textLength="118" x="399" y="330.9346">[if status == declined]</text><line style="stroke:#181818;stroke-width:1.0;stroke-dasharray:2.0,2.0;" x1="454" x2="496" y1="356.7031" y2="356.7031"/><line style="stroke:#181818;stroke-width:1.0;stroke-dasharray:2.0,2.0;" x1="496" x2="496" y1="356.7031" y2="369.7031"/><line style="stroke:#181818;stroke-width:1.0;stroke-dasharray:2.0,2.0;" x1="455" x2="496" y1="369.7031" y2="369.7031"/><polygon fill="#181818" points="465,365.7031,455,369.7031,465,373.7031,461,369.7031" style="stroke:#181818;stroke-width:1.0;"/><text fill="#000000" font-family="sans-serif" font-size="13" font-weight="bold" lengthAdjust="spacing" textLength="7" x="461" y="351.8467">5</text><text fill="#000000" font-family="sans-serif" font-size="13" lengthAdjust="spacing" textLength="157" x="472" y="351.8467">changeStatusToAccepted()</text><!--MD5=[cf16408a50e39cef38c2e5a9122cee75]
@startuml
skinparam monochrome true
skinparam packageStyle rectangle
skinparam shadowing false

autonumber
participant ":OfferDecisionController" as controller
participant "offerRepository\n:OfferRepository" as offerrepository
participant "Offer\n:Offer" as offer


activate controller
controller -> offerrepository : 
activate offerrepository
offerrepository -> offer: sendOfferStatus(offer, status)
activate offer
        alt if status == accepted
                loop for every offer
                        alt if it is the offer that was accepted
                                offer - -> offer : changeStatusToAccepted()
                        else if it is any other offer
                                        offer - -> offer : changeStatusToDeclined()
                        end
                end
        else if status == declined
                offer - -> offer : changeStatusToAccepted()
        end
deactivate offer
deactivate controller

@enduml

PlantUML version 1.2022.7(Mon Aug 22 18:01:30 WEST 2022)
(GPL source distribution)
Java Runtime: OpenJDK Runtime Environment
JVM: OpenJDK 64-Bit Server VM
Default Encoding: Cp1252
Language: pt
Country: PT
--></g></svg>