<?xml version="1.0" encoding="UTF-8" standalone="no"?><svg xmlns="http://www.w3.org/2000/svg" xmlns:xlink="http://www.w3.org/1999/xlink" contentStyleType="text/css" height="705px" preserveAspectRatio="none" style="width:1180px;height:705px;background:#FFFFFF;" version="1.1" viewBox="0 0 1180 705" width="1180px" zoomAndPan="magnify"><defs/><g><!--MD5=[60d6b92408f98aed8df94d5c6e04aa63]
class State--><g id="elem_State"><rect codeLine="10" fill="#F1F1F1" height="65.6094" id="State" rx="2.5" ry="2.5" style="stroke:#181818;stroke-width:0.5;" width="134" x="376.5" y="470.5"/><ellipse cx="422.75" cy="486.5" fill="#ADD1B2" rx="11" ry="11" style="stroke:#181818;stroke-width:1.0;"/><path d="M425.5156,482.375 Q425.6719,482.1563 425.8594,482.0469 Q426.0469,481.9375 426.2656,481.9375 Q426.6406,481.9375 426.875,482.2031 Q427.1094,482.4531 427.1094,483.0625 L427.1094,484.5156 Q427.1094,485.125 426.875,485.3906 Q426.6406,485.6563 426.2656,485.6563 Q425.9219,485.6563 425.7188,485.4531 Q425.5156,485.2656 425.4063,484.75 Q425.3594,484.3906 425.1719,484.2031 Q424.8438,483.8281 424.2344,483.6094 Q423.625,483.3906 423,483.3906 Q422.2344,483.3906 421.5938,483.7188 Q420.9688,484.0469 420.4688,484.7969 Q419.9844,485.5469 419.9844,486.5781 L419.9844,487.6719 Q419.9844,488.9063 420.875,489.7344 Q421.7656,490.5469 423.3594,490.5469 Q424.2969,490.5469 424.9531,490.2969 Q425.3438,490.1406 425.7656,489.7031 Q426.0313,489.4375 426.1719,489.3594 Q426.3281,489.2813 426.5313,489.2813 Q426.8594,489.2813 427.1094,489.5469 Q427.375,489.7969 427.375,490.1406 Q427.375,490.4844 427.0313,490.8906 Q426.5313,491.4688 425.7344,491.7969 Q424.6563,492.25 423.3594,492.25 Q421.8438,492.25 420.6406,491.625 Q419.6563,491.125 418.9688,490.0625 Q418.2813,488.9844 418.2813,487.7031 L418.2813,486.5469 Q418.2813,485.2188 418.8906,484.0781 Q419.5156,482.9219 420.6094,482.3125 Q421.7031,481.6875 422.9375,481.6875 Q423.6719,481.6875 424.3125,481.8594 Q424.9688,482.0156 425.5156,482.375 Z " fill="#000000"/><text fill="#000000" font-family="sans-serif" font-size="14" lengthAdjust="spacing" textLength="33" x="443.25" y="492.2285">State</text><line style="stroke:#181818;stroke-width:0.5;" x1="377.5" x2="509.5" y1="502.5" y2="502.5"/><rect fill="none" height="6" style="stroke:#C82930;stroke-width:1.0;" width="6" x="384.5" y="513.8047"/><text fill="#000000" font-family="sans-serif" font-size="14" lengthAdjust="spacing" textLength="108" x="396.5" y="521.0332">String stateName</text><line style="stroke:#181818;stroke-width:0.5;" x1="377.5" x2="509.5" y1="528.1094" y2="528.1094"/></g><!--MD5=[c4d681900983498091bbbc67674786ba]
class District--><g id="elem_District"><rect codeLine="14" fill="#F1F1F1" height="65.6094" id="District" rx="2.5" ry="2.5" style="stroke:#181818;stroke-width:0.5;" width="144" x="581.5" y="470.5"/><ellipse cx="627.75" cy="486.5" fill="#ADD1B2" rx="11" ry="11" style="stroke:#181818;stroke-width:1.0;"/><path d="M630.5156,482.375 Q630.6719,482.1563 630.8594,482.0469 Q631.0469,481.9375 631.2656,481.9375 Q631.6406,481.9375 631.875,482.2031 Q632.1094,482.4531 632.1094,483.0625 L632.1094,484.5156 Q632.1094,485.125 631.875,485.3906 Q631.6406,485.6563 631.2656,485.6563 Q630.9219,485.6563 630.7188,485.4531 Q630.5156,485.2656 630.4063,484.75 Q630.3594,484.3906 630.1719,484.2031 Q629.8438,483.8281 629.2344,483.6094 Q628.625,483.3906 628,483.3906 Q627.2344,483.3906 626.5938,483.7188 Q625.9688,484.0469 625.4688,484.7969 Q624.9844,485.5469 624.9844,486.5781 L624.9844,487.6719 Q624.9844,488.9063 625.875,489.7344 Q626.7656,490.5469 628.3594,490.5469 Q629.2969,490.5469 629.9531,490.2969 Q630.3438,490.1406 630.7656,489.7031 Q631.0313,489.4375 631.1719,489.3594 Q631.3281,489.2813 631.5313,489.2813 Q631.8594,489.2813 632.1094,489.5469 Q632.375,489.7969 632.375,490.1406 Q632.375,490.4844 632.0313,490.8906 Q631.5313,491.4688 630.7344,491.7969 Q629.6563,492.25 628.3594,492.25 Q626.8438,492.25 625.6406,491.625 Q624.6563,491.125 623.9688,490.0625 Q623.2813,488.9844 623.2813,487.7031 L623.2813,486.5469 Q623.2813,485.2188 623.8906,484.0781 Q624.5156,482.9219 625.6094,482.3125 Q626.7031,481.6875 627.9375,481.6875 Q628.6719,481.6875 629.3125,481.8594 Q629.9688,482.0156 630.5156,482.375 Z " fill="#000000"/><text fill="#000000" font-family="sans-serif" font-size="14" lengthAdjust="spacing" textLength="43" x="648.25" y="492.2285">District</text><line style="stroke:#181818;stroke-width:0.5;" x1="582.5" x2="724.5" y1="502.5" y2="502.5"/><rect fill="none" height="6" style="stroke:#C82930;stroke-width:1.0;" width="6" x="589.5" y="513.8047"/><text fill="#000000" font-family="sans-serif" font-size="14" lengthAdjust="spacing" textLength="118" x="601.5" y="521.0332">String districtName</text><line style="stroke:#181818;stroke-width:0.5;" x1="582.5" x2="724.5" y1="528.1094" y2="528.1094"/></g><!--MD5=[9466097c40aeafc62ec36a0cc4f3c955]
class City--><g id="elem_City"><rect codeLine="19" fill="#F1F1F1" height="65.6094" id="City" rx="2.5" ry="2.5" style="stroke:#181818;stroke-width:0.5;" width="124" x="796.5" y="470.5"/><ellipse cx="842.25" cy="486.5" fill="#ADD1B2" rx="11" ry="11" style="stroke:#181818;stroke-width:1.0;"/><path d="M845.0156,482.375 Q845.1719,482.1563 845.3594,482.0469 Q845.5469,481.9375 845.7656,481.9375 Q846.1406,481.9375 846.375,482.2031 Q846.6094,482.4531 846.6094,483.0625 L846.6094,484.5156 Q846.6094,485.125 846.375,485.3906 Q846.1406,485.6563 845.7656,485.6563 Q845.4219,485.6563 845.2188,485.4531 Q845.0156,485.2656 844.9063,484.75 Q844.8594,484.3906 844.6719,484.2031 Q844.3438,483.8281 843.7344,483.6094 Q843.125,483.3906 842.5,483.3906 Q841.7344,483.3906 841.0938,483.7188 Q840.4688,484.0469 839.9688,484.7969 Q839.4844,485.5469 839.4844,486.5781 L839.4844,487.6719 Q839.4844,488.9063 840.375,489.7344 Q841.2656,490.5469 842.8594,490.5469 Q843.7969,490.5469 844.4531,490.2969 Q844.8438,490.1406 845.2656,489.7031 Q845.5313,489.4375 845.6719,489.3594 Q845.8281,489.2813 846.0313,489.2813 Q846.3594,489.2813 846.6094,489.5469 Q846.875,489.7969 846.875,490.1406 Q846.875,490.4844 846.5313,490.8906 Q846.0313,491.4688 845.2344,491.7969 Q844.1563,492.25 842.8594,492.25 Q841.3438,492.25 840.1406,491.625 Q839.1563,491.125 838.4688,490.0625 Q837.7813,488.9844 837.7813,487.7031 L837.7813,486.5469 Q837.7813,485.2188 838.3906,484.0781 Q839.0156,482.9219 840.1094,482.3125 Q841.2031,481.6875 842.4375,481.6875 Q843.1719,481.6875 843.8125,481.8594 Q844.4688,482.0156 845.0156,482.375 Z " fill="#000000"/><text fill="#000000" font-family="sans-serif" font-size="14" lengthAdjust="spacing" textLength="24" x="862.75" y="492.2285">City</text><line style="stroke:#181818;stroke-width:0.5;" x1="797.5" x2="919.5" y1="502.5" y2="502.5"/><rect fill="none" height="6" style="stroke:#C82930;stroke-width:1.0;" width="6" x="804.5" y="513.8047"/><text fill="#000000" font-family="sans-serif" font-size="14" lengthAdjust="spacing" textLength="98" x="816.5" y="521.0332">String cityName</text><line style="stroke:#181818;stroke-width:0.5;" x1="797.5" x2="919.5" y1="528.1094" y2="528.1094"/></g><!--MD5=[0f39e4cb6f03951afbf6d14bd2505654]
class Address--><g id="elem_Address"><rect codeLine="24" fill="#F1F1F1" height="83.2188" id="Address" rx="2.5" ry="2.5" style="stroke:#181818;stroke-width:0.5;" width="139" x="462" y="265.5"/><ellipse cx="501.75" cy="281.5" fill="#ADD1B2" rx="11" ry="11" style="stroke:#181818;stroke-width:1.0;"/><path d="M504.5156,277.375 Q504.6719,277.1563 504.8594,277.0469 Q505.0469,276.9375 505.2656,276.9375 Q505.6406,276.9375 505.875,277.2031 Q506.1094,277.4531 506.1094,278.0625 L506.1094,279.5156 Q506.1094,280.125 505.875,280.3906 Q505.6406,280.6563 505.2656,280.6563 Q504.9219,280.6563 504.7188,280.4531 Q504.5156,280.2656 504.4063,279.75 Q504.3594,279.3906 504.1719,279.2031 Q503.8438,278.8281 503.2344,278.6094 Q502.625,278.3906 502,278.3906 Q501.2344,278.3906 500.5938,278.7188 Q499.9688,279.0469 499.4688,279.7969 Q498.9844,280.5469 498.9844,281.5781 L498.9844,282.6719 Q498.9844,283.9063 499.875,284.7344 Q500.7656,285.5469 502.3594,285.5469 Q503.2969,285.5469 503.9531,285.2969 Q504.3438,285.1406 504.7656,284.7031 Q505.0313,284.4375 505.1719,284.3594 Q505.3281,284.2813 505.5313,284.2813 Q505.8594,284.2813 506.1094,284.5469 Q506.375,284.7969 506.375,285.1406 Q506.375,285.4844 506.0313,285.8906 Q505.5313,286.4688 504.7344,286.7969 Q503.6563,287.25 502.3594,287.25 Q500.8438,287.25 499.6406,286.625 Q498.6563,286.125 497.9688,285.0625 Q497.2813,283.9844 497.2813,282.7031 L497.2813,281.5469 Q497.2813,280.2188 497.8906,279.0781 Q498.5156,277.9219 499.6094,277.3125 Q500.7031,276.6875 501.9375,276.6875 Q502.6719,276.6875 503.3125,276.8594 Q503.9688,277.0156 504.5156,277.375 Z " fill="#000000"/><text fill="#000000" font-family="sans-serif" font-size="14" lengthAdjust="spacing" textLength="52" x="521.25" y="287.2285">Address</text><line style="stroke:#181818;stroke-width:0.5;" x1="463" x2="600" y1="297.5" y2="297.5"/><rect fill="none" height="6" style="stroke:#C82930;stroke-width:1.0;" width="6" x="470" y="308.8047"/><text fill="#000000" font-family="sans-serif" font-size="14" lengthAdjust="spacing" textLength="113" x="482" y="316.0332">String streetName</text><rect fill="none" height="6" style="stroke:#C82930;stroke-width:1.0;" width="6" x="470" y="326.4141"/><text fill="#000000" font-family="sans-serif" font-size="14" lengthAdjust="spacing" textLength="70" x="482" y="333.6426">int zipCode</text><line style="stroke:#181818;stroke-width:0.5;" x1="463" x2="600" y1="340.7188" y2="340.7188"/></g><!--MD5=[c2fe003dc4f4575e3ea9c643120f69d1]
class Contacts--><g id="elem_Contacts"><rect codeLine="29" fill="#F1F1F1" height="83.2188" id="Contacts" rx="2.5" ry="2.5" style="stroke:#181818;stroke-width:0.5;" width="156" x="102.5" y="615"/><ellipse cx="148.25" cy="631" fill="#ADD1B2" rx="11" ry="11" style="stroke:#181818;stroke-width:1.0;"/><path d="M151.0156,626.875 Q151.1719,626.6563 151.3594,626.5469 Q151.5469,626.4375 151.7656,626.4375 Q152.1406,626.4375 152.375,626.7031 Q152.6094,626.9531 152.6094,627.5625 L152.6094,629.0156 Q152.6094,629.625 152.375,629.8906 Q152.1406,630.1563 151.7656,630.1563 Q151.4219,630.1563 151.2188,629.9531 Q151.0156,629.7656 150.9063,629.25 Q150.8594,628.8906 150.6719,628.7031 Q150.3438,628.3281 149.7344,628.1094 Q149.125,627.8906 148.5,627.8906 Q147.7344,627.8906 147.0938,628.2188 Q146.4688,628.5469 145.9688,629.2969 Q145.4844,630.0469 145.4844,631.0781 L145.4844,632.1719 Q145.4844,633.4063 146.375,634.2344 Q147.2656,635.0469 148.8594,635.0469 Q149.7969,635.0469 150.4531,634.7969 Q150.8438,634.6406 151.2656,634.2031 Q151.5313,633.9375 151.6719,633.8594 Q151.8281,633.7813 152.0313,633.7813 Q152.3594,633.7813 152.6094,634.0469 Q152.875,634.2969 152.875,634.6406 Q152.875,634.9844 152.5313,635.3906 Q152.0313,635.9688 151.2344,636.2969 Q150.1563,636.75 148.8594,636.75 Q147.3438,636.75 146.1406,636.125 Q145.1563,635.625 144.4688,634.5625 Q143.7813,633.4844 143.7813,632.2031 L143.7813,631.0469 Q143.7813,629.7188 144.3906,628.5781 Q145.0156,627.4219 146.1094,626.8125 Q147.2031,626.1875 148.4375,626.1875 Q149.1719,626.1875 149.8125,626.3594 Q150.4688,626.5156 151.0156,626.875 Z " fill="#000000"/><text fill="#000000" font-family="sans-serif" font-size="14" lengthAdjust="spacing" textLength="56" x="168.75" y="636.7285">Contacts</text><line style="stroke:#181818;stroke-width:0.5;" x1="103.5" x2="257.5" y1="647" y2="647"/><rect fill="none" height="6" style="stroke:#C82930;stroke-width:1.0;" width="6" x="110.5" y="658.3047"/><text fill="#000000" font-family="sans-serif" font-size="14" lengthAdjust="spacing" textLength="130" x="122.5" y="665.5332">String phoneNumber</text><rect fill="none" height="6" style="stroke:#C82930;stroke-width:1.0;" width="6" x="110.5" y="675.9141"/><text fill="#000000" font-family="sans-serif" font-size="14" lengthAdjust="spacing" textLength="74" x="122.5" y="683.1426">String email</text><line style="stroke:#181818;stroke-width:0.5;" x1="103.5" x2="257.5" y1="690.2188" y2="690.2188"/></g><!--MD5=[35ae6afabc28cfceb76ccc01ee55d1fe]
class Repositories--><g id="elem_Repositories"><rect codeLine="34" fill="#F1F1F1" height="100.8281" id="Repositories" rx="2.5" ry="2.5" style="stroke:#181818;stroke-width:0.5;" width="192" x="723.5" y="256.5"/><ellipse cx="775.75" cy="272.5" fill="#ADD1B2" rx="11" ry="11" style="stroke:#181818;stroke-width:1.0;"/><path d="M778.5156,268.375 Q778.6719,268.1563 778.8594,268.0469 Q779.0469,267.9375 779.2656,267.9375 Q779.6406,267.9375 779.875,268.2031 Q780.1094,268.4531 780.1094,269.0625 L780.1094,270.5156 Q780.1094,271.125 779.875,271.3906 Q779.6406,271.6563 779.2656,271.6563 Q778.9219,271.6563 778.7188,271.4531 Q778.5156,271.2656 778.4063,270.75 Q778.3594,270.3906 778.1719,270.2031 Q777.8438,269.8281 777.2344,269.6094 Q776.625,269.3906 776,269.3906 Q775.2344,269.3906 774.5938,269.7188 Q773.9688,270.0469 773.4688,270.7969 Q772.9844,271.5469 772.9844,272.5781 L772.9844,273.6719 Q772.9844,274.9063 773.875,275.7344 Q774.7656,276.5469 776.3594,276.5469 Q777.2969,276.5469 777.9531,276.2969 Q778.3438,276.1406 778.7656,275.7031 Q779.0313,275.4375 779.1719,275.3594 Q779.3281,275.2813 779.5313,275.2813 Q779.8594,275.2813 780.1094,275.5469 Q780.375,275.7969 780.375,276.1406 Q780.375,276.4844 780.0313,276.8906 Q779.5313,277.4688 778.7344,277.7969 Q777.6563,278.25 776.3594,278.25 Q774.8438,278.25 773.6406,277.625 Q772.6563,277.125 771.9688,276.0625 Q771.2813,274.9844 771.2813,273.7031 L771.2813,272.5469 Q771.2813,271.2188 771.8906,270.0781 Q772.5156,268.9219 773.6094,268.3125 Q774.7031,267.6875 775.9375,267.6875 Q776.6719,267.6875 777.3125,267.8594 Q777.9688,268.0156 778.5156,268.375 Z " fill="#000000"/><text fill="#000000" font-family="sans-serif" font-size="14" lengthAdjust="spacing" textLength="79" x="796.25" y="278.2285">Repositories</text><line style="stroke:#181818;stroke-width:0.5;" x1="724.5" x2="914.5" y1="288.5" y2="288.5"/><line style="stroke:#181818;stroke-width:0.5;" x1="724.5" x2="914.5" y1="296.5" y2="296.5"/><rect fill="#F24D5C" height="6" style="stroke:#C82930;stroke-width:1.0;" width="6" x="731.5" y="307.8047"/><text fill="#000000" font-family="sans-serif" font-size="14" lengthAdjust="spacing" textLength="89" x="743.5" y="315.0332">Repositories()</text><ellipse cx="734.5" cy="328.4141" fill="#84BE84" rx="3" ry="3" style="stroke:#038048;stroke-width:1.0;"/><text fill="#000000" font-family="sans-serif" font-size="14" lengthAdjust="spacing" textLength="166" x="743.5" y="332.6426">getInstance():Repositories</text><ellipse cx="734.5" cy="346.0234" fill="#84BE84" rx="3" ry="3" style="stroke:#038048;stroke-width:1.0;"/><text fill="#000000" font-family="sans-serif" font-size="14" lengthAdjust="spacing" textLength="131" x="743.5" y="350.252">getStateRepository()</text></g><!--MD5=[b4d3d50c0abf08df45181fececb9f04d]
class Store--><g id="elem_Store"><rect codeLine="40" fill="#F1F1F1" height="136.0469" id="Store" rx="2.5" ry="2.5" style="stroke:#181818;stroke-width:0.5;" width="347" x="7" y="239"/><ellipse cx="159.25" cy="255" fill="#ADD1B2" rx="11" ry="11" style="stroke:#181818;stroke-width:1.0;"/><path d="M162.0156,250.875 Q162.1719,250.6563 162.3594,250.5469 Q162.5469,250.4375 162.7656,250.4375 Q163.1406,250.4375 163.375,250.7031 Q163.6094,250.9531 163.6094,251.5625 L163.6094,253.0156 Q163.6094,253.625 163.375,253.8906 Q163.1406,254.1563 162.7656,254.1563 Q162.4219,254.1563 162.2188,253.9531 Q162.0156,253.7656 161.9063,253.25 Q161.8594,252.8906 161.6719,252.7031 Q161.3438,252.3281 160.7344,252.1094 Q160.125,251.8906 159.5,251.8906 Q158.7344,251.8906 158.0938,252.2188 Q157.4688,252.5469 156.9688,253.2969 Q156.4844,254.0469 156.4844,255.0781 L156.4844,256.1719 Q156.4844,257.4063 157.375,258.2344 Q158.2656,259.0469 159.8594,259.0469 Q160.7969,259.0469 161.4531,258.7969 Q161.8438,258.6406 162.2656,258.2031 Q162.5313,257.9375 162.6719,257.8594 Q162.8281,257.7813 163.0313,257.7813 Q163.3594,257.7813 163.6094,258.0469 Q163.875,258.2969 163.875,258.6406 Q163.875,258.9844 163.5313,259.3906 Q163.0313,259.9688 162.2344,260.2969 Q161.1563,260.75 159.8594,260.75 Q158.3438,260.75 157.1406,260.125 Q156.1563,259.625 155.4688,258.5625 Q154.7813,257.4844 154.7813,256.2031 L154.7813,255.0469 Q154.7813,253.7188 155.3906,252.5781 Q156.0156,251.4219 157.1094,250.8125 Q158.2031,250.1875 159.4375,250.1875 Q160.1719,250.1875 160.8125,250.3594 Q161.4688,250.5156 162.0156,250.875 Z " fill="#000000"/><text fill="#000000" font-family="sans-serif" font-size="14" lengthAdjust="spacing" textLength="34" x="179.75" y="260.7285">Store</text><line style="stroke:#181818;stroke-width:0.5;" x1="8" x2="353" y1="271" y2="271"/><rect fill="none" height="6" style="stroke:#C82930;stroke-width:1.0;" width="6" x="15" y="282.3047"/><text fill="#000000" font-family="sans-serif" font-size="14" lengthAdjust="spacing" textLength="30" x="27" y="289.5332">int id</text><rect fill="none" height="6" style="stroke:#C82930;stroke-width:1.0;" width="6" x="15" y="299.9141"/><text fill="#000000" font-family="sans-serif" font-size="14" lengthAdjust="spacing" textLength="114" x="27" y="307.1426">String designation</text><line style="stroke:#181818;stroke-width:0.5;" x1="8" x2="353" y1="314.2188" y2="314.2188"/><ellipse cx="18" cy="337.3281" fill="#84BE84" rx="3" ry="3" style="stroke:#038048;stroke-width:1.0;"/><text fill="#000000" font-family="sans-serif" font-size="14" lengthAdjust="spacing" textLength="315" x="27" y="332.752">addStore(id, designation/name, state, district, city,</text><text fill="#000000" font-family="sans-serif" font-size="14" lengthAdjust="spacing" textLength="321" x="27" y="350.3613">street, zip code, email address and phone number)</text><ellipse cx="18" cy="363.7422" fill="#84BE84" rx="3" ry="3" style="stroke:#038048;stroke-width:1.0;"/><text fill="#000000" font-family="sans-serif" font-size="14" lengthAdjust="spacing" textLength="93" x="27" y="367.9707">validateStore()</text></g><!--MD5=[0d12243de689bfebc51792ff4d7c27b5]
class RegisterStoreController--><g id="elem_RegisterStoreController"><rect codeLine="47" fill="#F1F1F1" height="153.6563" id="RegisterStoreController" rx="2.5" ry="2.5" style="stroke:#181818;stroke-width:0.5;" width="369" x="635" y="7"/><ellipse cx="740.75" cy="23" fill="#ADD1B2" rx="11" ry="11" style="stroke:#181818;stroke-width:1.0;"/><path d="M743.5156,18.875 Q743.6719,18.6563 743.8594,18.5469 Q744.0469,18.4375 744.2656,18.4375 Q744.6406,18.4375 744.875,18.7031 Q745.1094,18.9531 745.1094,19.5625 L745.1094,21.0156 Q745.1094,21.625 744.875,21.8906 Q744.6406,22.1563 744.2656,22.1563 Q743.9219,22.1563 743.7188,21.9531 Q743.5156,21.7656 743.4063,21.25 Q743.3594,20.8906 743.1719,20.7031 Q742.8438,20.3281 742.2344,20.1094 Q741.625,19.8906 741,19.8906 Q740.2344,19.8906 739.5938,20.2188 Q738.9688,20.5469 738.4688,21.2969 Q737.9844,22.0469 737.9844,23.0781 L737.9844,24.1719 Q737.9844,25.4063 738.875,26.2344 Q739.7656,27.0469 741.3594,27.0469 Q742.2969,27.0469 742.9531,26.7969 Q743.3438,26.6406 743.7656,26.2031 Q744.0313,25.9375 744.1719,25.8594 Q744.3281,25.7813 744.5313,25.7813 Q744.8594,25.7813 745.1094,26.0469 Q745.375,26.2969 745.375,26.6406 Q745.375,26.9844 745.0313,27.3906 Q744.5313,27.9688 743.7344,28.2969 Q742.6563,28.75 741.3594,28.75 Q739.8438,28.75 738.6406,28.125 Q737.6563,27.625 736.9688,26.5625 Q736.2813,25.4844 736.2813,24.2031 L736.2813,23.0469 Q736.2813,21.7188 736.8906,20.5781 Q737.5156,19.4219 738.6094,18.8125 Q739.7031,18.1875 740.9375,18.1875 Q741.6719,18.1875 742.3125,18.3594 Q742.9688,18.5156 743.5156,18.875 Z " fill="#000000"/><text fill="#000000" font-family="sans-serif" font-size="14" lengthAdjust="spacing" textLength="149" x="761.25" y="28.7285">RegisterStoreController</text><line style="stroke:#181818;stroke-width:0.5;" x1="636" x2="1003" y1="39" y2="39"/><line style="stroke:#181818;stroke-width:0.5;" x1="636" x2="1003" y1="47" y2="47"/><ellipse cx="646" cy="61.3047" fill="#84BE84" rx="3" ry="3" style="stroke:#038048;stroke-width:1.0;"/><text fill="#000000" font-family="sans-serif" font-size="14" lengthAdjust="spacing" textLength="70" x="655" y="65.5332">getStates()</text><ellipse cx="646" cy="78.9141" fill="#84BE84" rx="3" ry="3" style="stroke:#038048;stroke-width:1.0;"/><text fill="#000000" font-family="sans-serif" font-size="14" lengthAdjust="spacing" textLength="191" x="655" y="83.1426">getDistrictByDescription(state)</text><ellipse cx="646" cy="96.5234" fill="#84BE84" rx="3" ry="3" style="stroke:#038048;stroke-width:1.0;"/><text fill="#000000" font-family="sans-serif" font-size="14" lengthAdjust="spacing" textLength="182" x="655" y="100.752">getCityByDescription(district)</text><ellipse cx="646" cy="122.9375" fill="#84BE84" rx="3" ry="3" style="stroke:#038048;stroke-width:1.0;"/><text fill="#000000" font-family="sans-serif" font-size="14" lengthAdjust="spacing" textLength="339" x="655" y="118.3613">registerStore(id, designation/name, state, district, city,</text><text fill="#000000" font-family="sans-serif" font-size="14" lengthAdjust="spacing" textLength="321" x="655" y="135.9707">street, zip code, email address and phone number)</text><rect fill="#F24D5C" height="6" style="stroke:#C82930;stroke-width:1.0;" width="6" x="643" y="146.3516"/><text fill="#000000" font-family="sans-serif" font-size="14" lengthAdjust="spacing" textLength="131" x="655" y="153.5801">getStateRepository()</text></g><!--MD5=[0d22722e7442ab8978c3a335bed2d7e4]
class StateRepository--><g id="elem_StateRepository"><rect codeLine="55" fill="#F1F1F1" height="100.8281" id="StateRepository" rx="2.5" ry="2.5" style="stroke:#181818;stroke-width:0.5;" width="217" x="956" y="453"/><ellipse cx="1009.75" cy="469" fill="#ADD1B2" rx="11" ry="11" style="stroke:#181818;stroke-width:1.0;"/><path d="M1012.5156,464.875 Q1012.6719,464.6563 1012.8594,464.5469 Q1013.0469,464.4375 1013.2656,464.4375 Q1013.6406,464.4375 1013.875,464.7031 Q1014.1094,464.9531 1014.1094,465.5625 L1014.1094,467.0156 Q1014.1094,467.625 1013.875,467.8906 Q1013.6406,468.1563 1013.2656,468.1563 Q1012.9219,468.1563 1012.7188,467.9531 Q1012.5156,467.7656 1012.4063,467.25 Q1012.3594,466.8906 1012.1719,466.7031 Q1011.8438,466.3281 1011.2344,466.1094 Q1010.625,465.8906 1010,465.8906 Q1009.2344,465.8906 1008.5938,466.2188 Q1007.9688,466.5469 1007.4688,467.2969 Q1006.9844,468.0469 1006.9844,469.0781 L1006.9844,470.1719 Q1006.9844,471.4063 1007.875,472.2344 Q1008.7656,473.0469 1010.3594,473.0469 Q1011.2969,473.0469 1011.9531,472.7969 Q1012.3438,472.6406 1012.7656,472.2031 Q1013.0313,471.9375 1013.1719,471.8594 Q1013.3281,471.7813 1013.5313,471.7813 Q1013.8594,471.7813 1014.1094,472.0469 Q1014.375,472.2969 1014.375,472.6406 Q1014.375,472.9844 1014.0313,473.3906 Q1013.5313,473.9688 1012.7344,474.2969 Q1011.6563,474.75 1010.3594,474.75 Q1008.8438,474.75 1007.6406,474.125 Q1006.6563,473.625 1005.9688,472.5625 Q1005.2813,471.4844 1005.2813,470.2031 L1005.2813,469.0469 Q1005.2813,467.7188 1005.8906,466.5781 Q1006.5156,465.4219 1007.6094,464.8125 Q1008.7031,464.1875 1009.9375,464.1875 Q1010.6719,464.1875 1011.3125,464.3594 Q1011.9688,464.5156 1012.5156,464.875 Z " fill="#000000"/><text fill="#000000" font-family="sans-serif" font-size="14" lengthAdjust="spacing" textLength="101" x="1030.25" y="474.7285">StateRepository</text><line style="stroke:#181818;stroke-width:0.5;" x1="957" x2="1172" y1="485" y2="485"/><line style="stroke:#181818;stroke-width:0.5;" x1="957" x2="1172" y1="493" y2="493"/><ellipse cx="967" cy="507.3047" fill="#84BE84" rx="3" ry="3" style="stroke:#038048;stroke-width:1.0;"/><text fill="#000000" font-family="sans-serif" font-size="14" lengthAdjust="spacing" textLength="70" x="976" y="511.5332">getStates()</text><ellipse cx="967" cy="524.9141" fill="#84BE84" rx="3" ry="3" style="stroke:#038048;stroke-width:1.0;"/><text fill="#000000" font-family="sans-serif" font-size="14" lengthAdjust="spacing" textLength="191" x="976" y="529.1426">getDistrictByDescription(state)</text><ellipse cx="967" cy="542.5234" fill="#84BE84" rx="3" ry="3" style="stroke:#038048;stroke-width:1.0;"/><text fill="#000000" font-family="sans-serif" font-size="14" lengthAdjust="spacing" textLength="182" x="976" y="546.752">getCityByDescription(district)</text></g><!--MD5=[ef4fc0da9b4db3f5610ffe2c59dc4478]
class RegisterStoreUI--><g id="elem_RegisterStoreUI"><rect codeLine="61" fill="#F1F1F1" height="48" id="RegisterStoreUI" rx="2.5" ry="2.5" style="stroke:#181818;stroke-width:0.5;" width="131" x="469" y="60"/><ellipse cx="484" cy="76" fill="#ADD1B2" rx="11" ry="11" style="stroke:#181818;stroke-width:1.0;"/><path d="M486.7656,71.875 Q486.9219,71.6563 487.1094,71.5469 Q487.2969,71.4375 487.5156,71.4375 Q487.8906,71.4375 488.125,71.7031 Q488.3594,71.9531 488.3594,72.5625 L488.3594,74.0156 Q488.3594,74.625 488.125,74.8906 Q487.8906,75.1563 487.5156,75.1563 Q487.1719,75.1563 486.9688,74.9531 Q486.7656,74.7656 486.6563,74.25 Q486.6094,73.8906 486.4219,73.7031 Q486.0938,73.3281 485.4844,73.1094 Q484.875,72.8906 484.25,72.8906 Q483.4844,72.8906 482.8438,73.2188 Q482.2188,73.5469 481.7188,74.2969 Q481.2344,75.0469 481.2344,76.0781 L481.2344,77.1719 Q481.2344,78.4063 482.125,79.2344 Q483.0156,80.0469 484.6094,80.0469 Q485.5469,80.0469 486.2031,79.7969 Q486.5938,79.6406 487.0156,79.2031 Q487.2813,78.9375 487.4219,78.8594 Q487.5781,78.7813 487.7813,78.7813 Q488.1094,78.7813 488.3594,79.0469 Q488.625,79.2969 488.625,79.6406 Q488.625,79.9844 488.2813,80.3906 Q487.7813,80.9688 486.9844,81.2969 Q485.9063,81.75 484.6094,81.75 Q483.0938,81.75 481.8906,81.125 Q480.9063,80.625 480.2188,79.5625 Q479.5313,78.4844 479.5313,77.2031 L479.5313,76.0469 Q479.5313,74.7188 480.1406,73.5781 Q480.7656,72.4219 481.8594,71.8125 Q482.9531,71.1875 484.1875,71.1875 Q484.9219,71.1875 485.5625,71.3594 Q486.2188,71.5156 486.7656,71.875 Z " fill="#000000"/><text fill="#000000" font-family="sans-serif" font-size="14" lengthAdjust="spacing" textLength="99" x="498" y="81.7285">RegisterStoreUI</text><line style="stroke:#181818;stroke-width:0.5;" x1="470" x2="599" y1="92" y2="92"/><line style="stroke:#181818;stroke-width:0.5;" x1="470" x2="599" y1="100" y2="100"/></g><!--MD5=[fff48e9c385a875a0ec7f6b68c295159]
link Repositories to Repositories--><g id="link_Repositories_Repositories"><path codeLine="65" d="M915.75,287.79 C935.95,289.78 950.5,296.18 950.5,307 C950.5,316.89 938.34,323.09 920.83,325.6 " fill="none" id="Repositories-to-Repositories" style="stroke:#181818;stroke-width:1.0;"/><polygon fill="#181818" points="915.75,326.21,925.1644,329.1028,920.714,325.6109,924.2059,321.1604,915.75,326.21" style="stroke:#181818;stroke-width:1.0;"/><text fill="#000000" font-family="sans-serif" font-size="13" lengthAdjust="spacing" textLength="49" x="956.5" y="312.4951">instance</text></g><!--MD5=[8d646d702199f52dfdc991bebcafce12]
link Repositories to StateRepository--><g id="link_Repositories_StateRepository"><path codeLine="66" d="M874.03,357.77 C908.09,388.85 945.5,423 945.5,423 C945.5,423 963.75,435.19 985.96,450.03 " fill="none" id="Repositories-to-StateRepository" style="stroke:#181818;stroke-width:1.0;"/><polygon fill="#181818" points="990.15,452.83,984.8803,444.5095,985.9897,450.0565,980.4427,451.1659,990.15,452.83" style="stroke:#181818;stroke-width:1.0;"/><text fill="#000000" font-family="sans-serif" font-size="13" lengthAdjust="spacing" textLength="91" x="946.5" y="419.4951">stateRepository</text></g><!--MD5=[a801e6c0c94b341bb41f71580d9bc3c3]
link RegisterStoreController to Repositories--><g id="link_RegisterStoreController_Repositories"><path codeLine="67" d="M819.5,161.06 C819.5,190.68 819.5,223.97 819.5,251.17 " fill="none" id="RegisterStoreController-to-Repositories" style="stroke:#181818;stroke-width:1.0;stroke-dasharray:7.0,7.0;"/><polygon fill="#181818" points="819.5,256.17,823.5,247.17,819.5,251.17,815.5,247.17,819.5,256.17" style="stroke:#181818;stroke-width:1.0;"/><text fill="#000000" font-family="sans-serif" font-size="13" lengthAdjust="spacing" textLength="67" x="820.5" y="205.4951">repositories</text></g><!--MD5=[677725f41463730e0ac0569516128c56]
link RegisterStoreController to StateRepository--><g id="link_RegisterStoreController_StateRepository"><path codeLine="68" d="M914.87,161.1 C963.49,199.9 1012.5,239 1012.5,239 C1012.5,239 1038.5,370.76 1053.73,447.94 " fill="none" id="RegisterStoreController-to-StateRepository" style="stroke:#181818;stroke-width:1.0;stroke-dasharray:7.0,7.0;"/><polygon fill="#181818" points="1054.72,452.94,1056.8988,443.3352,1053.7504,448.0349,1049.0506,444.8865,1054.72,452.94" style="stroke:#181818;stroke-width:1.0;"/><text fill="#000000" font-family="sans-serif" font-size="13" lengthAdjust="spacing" textLength="93" x="1039.5" y="312.4951">StateRepository</text></g><!--MD5=[5bcd88373731d6d6fdbdf9e4ad375f1c]
link RegisterStoreController to Store--><g id="link_RegisterStoreController_Store"><path codeLine="69" d="M634.72,154.52 C624.02,158.55 617.5,161 617.5,161 C617.5,161 479.93,206.65 359.17,246.72 " fill="none" id="RegisterStoreController-to-Store" style="stroke:#181818;stroke-width:1.0;stroke-dasharray:7.0,7.0;"/><polygon fill="#181818" points="354.16,248.38,363.9605,249.3552,358.9077,246.8117,361.4512,241.7589,354.16,248.38" style="stroke:#181818;stroke-width:1.0;"/><text fill="#000000" font-family="sans-serif" font-size="13" lengthAdjust="spacing" textLength="31" x="523.5" y="205.4951">Store</text></g><!--MD5=[aaefdd836838d1531d4f97bf2f197d74]
link RegisterStoreUI to RegisterStoreController--><g id="link_RegisterStoreUI_RegisterStoreController"><path codeLine="70" d="M600.22,84 C616.55,84 629.5,84 629.5,84 C629.5,84 629.62,84 629.86,84 " fill="none" id="RegisterStoreUI-to-RegisterStoreController" style="stroke:#181818;stroke-width:1.0;stroke-dasharray:7.0,7.0;"/><polygon fill="#181818" points="634.88,84,625.88,80,629.88,84,625.88,88,634.88,84" style="stroke:#181818;stroke-width:1.0;"/></g><!--MD5=[b44e66b883b44d4947a87538e308a5d3]
reverse link Store to Address--><g id="link_Store_Address"><path codeLine="71" d="M359.56,307 C395.9,307 432.04,307 461.74,307 " fill="none" id="Store-backto-Address" style="stroke:#181818;stroke-width:1.0;"/><polygon fill="#181818" points="354.2,307,363.2,311,359.2,307,363.2,303,354.2,307" style="stroke:#181818;stroke-width:1.0;"/><text fill="#000000" font-family="sans-serif" font-size="13" lengthAdjust="spacing" textLength="71" x="372.5" y="300.4951">is located at</text><text fill="#000000" font-family="sans-serif" font-size="13" lengthAdjust="spacing" textLength="5" x="362.1841" y="304.1395">*</text><text fill="#000000" font-family="sans-serif" font-size="13" lengthAdjust="spacing" textLength="7" x="447.1851" y="303.677">1</text></g><!--MD5=[129972a5e6cdb99fe3ca661a27424b30]
link Address to State--><g id="link_Address_State"><path codeLine="72" d="M513.05,348.77 C496.67,384.98 473.06,437.16 458,470.45 " fill="none" id="Address-State" style="stroke:#181818;stroke-width:1.0;"/><polygon fill="#000000" points="494.561,409.6203,488.155,416.6498,493.5103,419.0727,494.561,409.6203" style="stroke:#000000;stroke-width:1.0;"/><text fill="#000000" font-family="sans-serif" font-size="13" lengthAdjust="spacing" textLength="21" x="501.5" y="419.4951">has</text><text fill="#000000" font-family="sans-serif" font-size="13" lengthAdjust="spacing" textLength="5" x="504.7111" y="370.2078">*</text><text fill="#000000" font-family="sans-serif" font-size="13" lengthAdjust="spacing" textLength="7" x="453.2688" y="459.5551">1</text></g><!--MD5=[cd1097b4d6b53e13878caf984aed34c4]
link District to City--><g id="link_District_City"><path codeLine="73" d="M725.78,503.5 C748.83,503.5 774.13,503.5 796.39,503.5 " fill="none" id="District-City" style="stroke:#181818;stroke-width:1.0;"/><polygon fill="#000000" points="753,491.6758,743.9549,488.7369,743.9549,494.6147,753,491.6758" style="stroke:#000000;stroke-width:1.0;"/><text fill="#000000" font-family="sans-serif" font-size="13" lengthAdjust="spacing" textLength="21" x="757" y="496.9951">has</text><text fill="#000000" font-family="sans-serif" font-size="13" lengthAdjust="spacing" textLength="7" x="733.5948" y="500.2084">1</text><text fill="#000000" font-family="sans-serif" font-size="13" lengthAdjust="spacing" textLength="5" x="783.5157" y="500.0653">*</text></g><!--MD5=[9507060b9b8dd58465f9ccdeabbe9f6e]
link State to District--><g id="link_State_District"><path codeLine="74" d="M510.52,503.5 C533.09,503.5 558.36,503.5 581.31,503.5 " fill="none" id="State-District" style="stroke:#181818;stroke-width:1.0;"/><polygon fill="#000000" points="538,491.6758,528.9549,488.7369,528.9549,494.6147,538,491.6758" style="stroke:#000000;stroke-width:1.0;"/><text fill="#000000" font-family="sans-serif" font-size="13" lengthAdjust="spacing" textLength="21" x="542" y="496.9951">has</text><text fill="#000000" font-family="sans-serif" font-size="13" lengthAdjust="spacing" textLength="7" x="518.6739" y="500.113">1</text><text fill="#000000" font-family="sans-serif" font-size="13" lengthAdjust="spacing" textLength="5" x="568.6076" y="500.2084">*</text></g><!--MD5=[a135af3b978ececa95379268fc07c120]
reverse link Store to Contacts--><g id="link_Store_Contacts"><path codeLine="75" d="M180.5,380.06 C180.5,451.12 180.5,557.21 180.5,614.79 " fill="none" id="Store-backto-Contacts" style="stroke:#181818;stroke-width:1.0;"/><polygon fill="#181818" points="180.5,375,176.5,384,180.5,380,184.5,384,180.5,375" style="stroke:#181818;stroke-width:1.0;"/><text fill="#000000" font-family="sans-serif" font-size="13" lengthAdjust="spacing" textLength="21" x="181.5" y="508.9951">has</text><text fill="#000000" font-family="sans-serif" font-size="13" lengthAdjust="spacing" textLength="7" x="173.1391" y="396.3483">1</text><text fill="#000000" font-family="sans-serif" font-size="13" lengthAdjust="spacing" textLength="7" x="172.9203" y="604.0629">1</text></g><!--MD5=[a6bbcd8cf0e8a85d81c3cd08c0442199]
@startuml

'skinparam monochrome true
skinparam packageStyle rectangle
skinparam shadowing false
skinparam linetype polyline
'skinparam linetype orto
'skinparam classAttributeIconSize 0
'left to right direction

class State {
    - String stateName
}

class District {
    - String districtName

}

class City {
    - String cityName

}

class Address {
    -String streetName
    -int zipCode
}

class Contacts {
    -String phoneNumber
    -String email
}

class Repositories {
    -Repositories()
    +getInstance():Repositories
    +getStateRepository()
}

class Store {
    -int id
    -String designation
    +addStore(id, designation/name, state, district, city, \nstreet, zip code, email address and phone number)
    +validateStore()
}

class RegisterStoreController {
    +getStates()
    +getDistrictByDescription(state)
    +getCityByDescription(district)
    +registerStore(id, designation/name, state, district, city, \nstreet, zip code, email address and phone number)
    -getStateRepository()
}

class StateRepository {
    +getStates()
    +getDistrictByDescription(state)
    +getCityByDescription(district)
}

class RegisterStoreUI {

}

Repositories -> Repositories:instance
Repositories - -> StateRepository: stateRepository
RegisterStoreController ..> Repositories : repositories
RegisterStoreController ..> StateRepository : StateRepository
RegisterStoreController ..> Store : Store
RegisterStoreUI .right.> RegisterStoreController
Address "1" -left-> "*"  Store : is located at
State "1" -up- "*" Address: has >
District "1" -right- "*" City : has >
State "1" -right- "*" District : has >
Contacts "1" -up- -> "1" Store: has

@enduml

@startuml

skinparam packageStyle rectangle
skinparam shadowing false
skinparam linetype polyline

class State {
    - String stateName
}

class District {
    - String districtName

}

class City {
    - String cityName

}

class Address {
    -String streetName
    -int zipCode
}

class Contacts {
    -String phoneNumber
    -String email
}

class Repositories {
    -Repositories()
    +getInstance():Repositories
    +getStateRepository()
}

class Store {
    -int id
    -String designation
    +addStore(id, designation/name, state, district, city, \nstreet, zip code, email address and phone number)
    +validateStore()
}

class RegisterStoreController {
    +getStates()
    +getDistrictByDescription(state)
    +getCityByDescription(district)
    +registerStore(id, designation/name, state, district, city, \nstreet, zip code, email address and phone number)
    -getStateRepository()
}

class StateRepository {
    +getStates()
    +getDistrictByDescription(state)
    +getCityByDescription(district)
}

class RegisterStoreUI {

}

Repositories -> Repositories:instance
Repositories - -> StateRepository: stateRepository
RegisterStoreController ..> Repositories : repositories
RegisterStoreController ..> StateRepository : StateRepository
RegisterStoreController ..> Store : Store
RegisterStoreUI .right.> RegisterStoreController
Address "1" -left-> "*"  Store : is located at
State "1" -up- "*" Address: has >
District "1" -right- "*" City : has >
State "1" -right- "*" District : has >
Contacts "1" -up- -> "1" Store: has

@enduml

PlantUML version 1.2022.7(Mon Aug 22 18:01:30 WEST 2022)
(GPL source distribution)
Java Runtime: OpenJDK Runtime Environment
JVM: OpenJDK 64-Bit Server VM
Default Encoding: Cp1252
Language: pt
Country: PT
--></g></svg>