<?xml version="1.0" encoding="UTF-8" standalone="no"?><svg xmlns="http://www.w3.org/2000/svg" xmlns:xlink="http://www.w3.org/1999/xlink" contentStyleType="text/css" height="669px" preserveAspectRatio="none" style="width:1207px;height:669px;background:#FFFFFF;" version="1.1" viewBox="0 0 1207 669" width="1207px" zoomAndPan="magnify"><defs/><g><!--MD5=[60d6b92408f98aed8df94d5c6e04aa63]
class State--><g id="elem_State"><rect codeLine="10" fill="#F1F1F1" height="65.6094" id="State" rx="2.5" ry="2.5" style="stroke:#181818;stroke-width:0.5;" width="134" x="397.5" y="434.5"/><ellipse cx="443.75" cy="450.5" fill="#ADD1B2" rx="11" ry="11" style="stroke:#181818;stroke-width:1.0;"/><path d="M446.5156,446.375 Q446.6719,446.1563 446.8594,446.0469 Q447.0469,445.9375 447.2656,445.9375 Q447.6406,445.9375 447.875,446.2031 Q448.1094,446.4531 448.1094,447.0625 L448.1094,448.5156 Q448.1094,449.125 447.875,449.3906 Q447.6406,449.6563 447.2656,449.6563 Q446.9219,449.6563 446.7188,449.4531 Q446.5156,449.2656 446.4063,448.75 Q446.3594,448.3906 446.1719,448.2031 Q445.8438,447.8281 445.2344,447.6094 Q444.625,447.3906 444,447.3906 Q443.2344,447.3906 442.5938,447.7188 Q441.9688,448.0469 441.4688,448.7969 Q440.9844,449.5469 440.9844,450.5781 L440.9844,451.6719 Q440.9844,452.9063 441.875,453.7344 Q442.7656,454.5469 444.3594,454.5469 Q445.2969,454.5469 445.9531,454.2969 Q446.3438,454.1406 446.7656,453.7031 Q447.0313,453.4375 447.1719,453.3594 Q447.3281,453.2813 447.5313,453.2813 Q447.8594,453.2813 448.1094,453.5469 Q448.375,453.7969 448.375,454.1406 Q448.375,454.4844 448.0313,454.8906 Q447.5313,455.4688 446.7344,455.7969 Q445.6563,456.25 444.3594,456.25 Q442.8438,456.25 441.6406,455.625 Q440.6563,455.125 439.9688,454.0625 Q439.2813,452.9844 439.2813,451.7031 L439.2813,450.5469 Q439.2813,449.2188 439.8906,448.0781 Q440.5156,446.9219 441.6094,446.3125 Q442.7031,445.6875 443.9375,445.6875 Q444.6719,445.6875 445.3125,445.8594 Q445.9688,446.0156 446.5156,446.375 Z " fill="#000000"/><text fill="#000000" font-family="sans-serif" font-size="14" lengthAdjust="spacing" textLength="33" x="464.25" y="456.2285">State</text><line style="stroke:#181818;stroke-width:0.5;" x1="398.5" x2="530.5" y1="466.5" y2="466.5"/><rect fill="none" height="6" style="stroke:#C82930;stroke-width:1.0;" width="6" x="405.5" y="477.8047"/><text fill="#000000" font-family="sans-serif" font-size="14" lengthAdjust="spacing" textLength="108" x="417.5" y="485.0332">String stateName</text><line style="stroke:#181818;stroke-width:0.5;" x1="398.5" x2="530.5" y1="492.1094" y2="492.1094"/></g><!--MD5=[c4d681900983498091bbbc67674786ba]
class District--><g id="elem_District"><rect codeLine="14" fill="#F1F1F1" height="65.6094" id="District" rx="2.5" ry="2.5" style="stroke:#181818;stroke-width:0.5;" width="144" x="602.5" y="434.5"/><ellipse cx="648.75" cy="450.5" fill="#ADD1B2" rx="11" ry="11" style="stroke:#181818;stroke-width:1.0;"/><path d="M651.5156,446.375 Q651.6719,446.1563 651.8594,446.0469 Q652.0469,445.9375 652.2656,445.9375 Q652.6406,445.9375 652.875,446.2031 Q653.1094,446.4531 653.1094,447.0625 L653.1094,448.5156 Q653.1094,449.125 652.875,449.3906 Q652.6406,449.6563 652.2656,449.6563 Q651.9219,449.6563 651.7188,449.4531 Q651.5156,449.2656 651.4063,448.75 Q651.3594,448.3906 651.1719,448.2031 Q650.8438,447.8281 650.2344,447.6094 Q649.625,447.3906 649,447.3906 Q648.2344,447.3906 647.5938,447.7188 Q646.9688,448.0469 646.4688,448.7969 Q645.9844,449.5469 645.9844,450.5781 L645.9844,451.6719 Q645.9844,452.9063 646.875,453.7344 Q647.7656,454.5469 649.3594,454.5469 Q650.2969,454.5469 650.9531,454.2969 Q651.3438,454.1406 651.7656,453.7031 Q652.0313,453.4375 652.1719,453.3594 Q652.3281,453.2813 652.5313,453.2813 Q652.8594,453.2813 653.1094,453.5469 Q653.375,453.7969 653.375,454.1406 Q653.375,454.4844 653.0313,454.8906 Q652.5313,455.4688 651.7344,455.7969 Q650.6563,456.25 649.3594,456.25 Q647.8438,456.25 646.6406,455.625 Q645.6563,455.125 644.9688,454.0625 Q644.2813,452.9844 644.2813,451.7031 L644.2813,450.5469 Q644.2813,449.2188 644.8906,448.0781 Q645.5156,446.9219 646.6094,446.3125 Q647.7031,445.6875 648.9375,445.6875 Q649.6719,445.6875 650.3125,445.8594 Q650.9688,446.0156 651.5156,446.375 Z " fill="#000000"/><text fill="#000000" font-family="sans-serif" font-size="14" lengthAdjust="spacing" textLength="43" x="669.25" y="456.2285">District</text><line style="stroke:#181818;stroke-width:0.5;" x1="603.5" x2="745.5" y1="466.5" y2="466.5"/><rect fill="none" height="6" style="stroke:#C82930;stroke-width:1.0;" width="6" x="610.5" y="477.8047"/><text fill="#000000" font-family="sans-serif" font-size="14" lengthAdjust="spacing" textLength="118" x="622.5" y="485.0332">String districtName</text><line style="stroke:#181818;stroke-width:0.5;" x1="603.5" x2="745.5" y1="492.1094" y2="492.1094"/></g><!--MD5=[9466097c40aeafc62ec36a0cc4f3c955]
class City--><g id="elem_City"><rect codeLine="19" fill="#F1F1F1" height="65.6094" id="City" rx="2.5" ry="2.5" style="stroke:#181818;stroke-width:0.5;" width="124" x="817.5" y="434.5"/><ellipse cx="863.25" cy="450.5" fill="#ADD1B2" rx="11" ry="11" style="stroke:#181818;stroke-width:1.0;"/><path d="M866.0156,446.375 Q866.1719,446.1563 866.3594,446.0469 Q866.5469,445.9375 866.7656,445.9375 Q867.1406,445.9375 867.375,446.2031 Q867.6094,446.4531 867.6094,447.0625 L867.6094,448.5156 Q867.6094,449.125 867.375,449.3906 Q867.1406,449.6563 866.7656,449.6563 Q866.4219,449.6563 866.2188,449.4531 Q866.0156,449.2656 865.9063,448.75 Q865.8594,448.3906 865.6719,448.2031 Q865.3438,447.8281 864.7344,447.6094 Q864.125,447.3906 863.5,447.3906 Q862.7344,447.3906 862.0938,447.7188 Q861.4688,448.0469 860.9688,448.7969 Q860.4844,449.5469 860.4844,450.5781 L860.4844,451.6719 Q860.4844,452.9063 861.375,453.7344 Q862.2656,454.5469 863.8594,454.5469 Q864.7969,454.5469 865.4531,454.2969 Q865.8438,454.1406 866.2656,453.7031 Q866.5313,453.4375 866.6719,453.3594 Q866.8281,453.2813 867.0313,453.2813 Q867.3594,453.2813 867.6094,453.5469 Q867.875,453.7969 867.875,454.1406 Q867.875,454.4844 867.5313,454.8906 Q867.0313,455.4688 866.2344,455.7969 Q865.1563,456.25 863.8594,456.25 Q862.3438,456.25 861.1406,455.625 Q860.1563,455.125 859.4688,454.0625 Q858.7813,452.9844 858.7813,451.7031 L858.7813,450.5469 Q858.7813,449.2188 859.3906,448.0781 Q860.0156,446.9219 861.1094,446.3125 Q862.2031,445.6875 863.4375,445.6875 Q864.1719,445.6875 864.8125,445.8594 Q865.4688,446.0156 866.0156,446.375 Z " fill="#000000"/><text fill="#000000" font-family="sans-serif" font-size="14" lengthAdjust="spacing" textLength="24" x="883.75" y="456.2285">City</text><line style="stroke:#181818;stroke-width:0.5;" x1="818.5" x2="940.5" y1="466.5" y2="466.5"/><rect fill="none" height="6" style="stroke:#C82930;stroke-width:1.0;" width="6" x="825.5" y="477.8047"/><text fill="#000000" font-family="sans-serif" font-size="14" lengthAdjust="spacing" textLength="98" x="837.5" y="485.0332">String cityName</text><line style="stroke:#181818;stroke-width:0.5;" x1="818.5" x2="940.5" y1="492.1094" y2="492.1094"/></g><!--MD5=[0f39e4cb6f03951afbf6d14bd2505654]
class Address--><g id="elem_Address"><rect codeLine="24" fill="#F1F1F1" height="83.2188" id="Address" rx="2.5" ry="2.5" style="stroke:#181818;stroke-width:0.5;" width="139" x="484" y="238.5"/><ellipse cx="523.75" cy="254.5" fill="#ADD1B2" rx="11" ry="11" style="stroke:#181818;stroke-width:1.0;"/><path d="M526.5156,250.375 Q526.6719,250.1563 526.8594,250.0469 Q527.0469,249.9375 527.2656,249.9375 Q527.6406,249.9375 527.875,250.2031 Q528.1094,250.4531 528.1094,251.0625 L528.1094,252.5156 Q528.1094,253.125 527.875,253.3906 Q527.6406,253.6563 527.2656,253.6563 Q526.9219,253.6563 526.7188,253.4531 Q526.5156,253.2656 526.4063,252.75 Q526.3594,252.3906 526.1719,252.2031 Q525.8438,251.8281 525.2344,251.6094 Q524.625,251.3906 524,251.3906 Q523.2344,251.3906 522.5938,251.7188 Q521.9688,252.0469 521.4688,252.7969 Q520.9844,253.5469 520.9844,254.5781 L520.9844,255.6719 Q520.9844,256.9063 521.875,257.7344 Q522.7656,258.5469 524.3594,258.5469 Q525.2969,258.5469 525.9531,258.2969 Q526.3438,258.1406 526.7656,257.7031 Q527.0313,257.4375 527.1719,257.3594 Q527.3281,257.2813 527.5313,257.2813 Q527.8594,257.2813 528.1094,257.5469 Q528.375,257.7969 528.375,258.1406 Q528.375,258.4844 528.0313,258.8906 Q527.5313,259.4688 526.7344,259.7969 Q525.6563,260.25 524.3594,260.25 Q522.8438,260.25 521.6406,259.625 Q520.6563,259.125 519.9688,258.0625 Q519.2813,256.9844 519.2813,255.7031 L519.2813,254.5469 Q519.2813,253.2188 519.8906,252.0781 Q520.5156,250.9219 521.6094,250.3125 Q522.7031,249.6875 523.9375,249.6875 Q524.6719,249.6875 525.3125,249.8594 Q525.9688,250.0156 526.5156,250.375 Z " fill="#000000"/><text fill="#000000" font-family="sans-serif" font-size="14" lengthAdjust="spacing" textLength="52" x="543.25" y="260.2285">Address</text><line style="stroke:#181818;stroke-width:0.5;" x1="485" x2="622" y1="270.5" y2="270.5"/><rect fill="none" height="6" style="stroke:#C82930;stroke-width:1.0;" width="6" x="492" y="281.8047"/><text fill="#000000" font-family="sans-serif" font-size="14" lengthAdjust="spacing" textLength="113" x="504" y="289.0332">String streetName</text><rect fill="none" height="6" style="stroke:#C82930;stroke-width:1.0;" width="6" x="492" y="299.4141"/><text fill="#000000" font-family="sans-serif" font-size="14" lengthAdjust="spacing" textLength="70" x="504" y="306.6426">int zipCode</text><line style="stroke:#181818;stroke-width:0.5;" x1="485" x2="622" y1="313.7188" y2="313.7188"/></g><!--MD5=[c2fe003dc4f4575e3ea9c643120f69d1]
class Contacts--><g id="elem_Contacts"><rect codeLine="29" fill="#F1F1F1" height="83.2188" id="Contacts" rx="2.5" ry="2.5" style="stroke:#181818;stroke-width:0.5;" width="120" x="131.5" y="579"/><ellipse cx="160.9" cy="595" fill="#ADD1B2" rx="11" ry="11" style="stroke:#181818;stroke-width:1.0;"/><path d="M163.6656,590.875 Q163.8219,590.6563 164.0094,590.5469 Q164.1969,590.4375 164.4156,590.4375 Q164.7906,590.4375 165.025,590.7031 Q165.2594,590.9531 165.2594,591.5625 L165.2594,593.0156 Q165.2594,593.625 165.025,593.8906 Q164.7906,594.1563 164.4156,594.1563 Q164.0719,594.1563 163.8688,593.9531 Q163.6656,593.7656 163.5563,593.25 Q163.5094,592.8906 163.3219,592.7031 Q162.9938,592.3281 162.3844,592.1094 Q161.775,591.8906 161.15,591.8906 Q160.3844,591.8906 159.7438,592.2188 Q159.1188,592.5469 158.6188,593.2969 Q158.1344,594.0469 158.1344,595.0781 L158.1344,596.1719 Q158.1344,597.4063 159.025,598.2344 Q159.9156,599.0469 161.5094,599.0469 Q162.4469,599.0469 163.1031,598.7969 Q163.4938,598.6406 163.9156,598.2031 Q164.1813,597.9375 164.3219,597.8594 Q164.4781,597.7813 164.6813,597.7813 Q165.0094,597.7813 165.2594,598.0469 Q165.525,598.2969 165.525,598.6406 Q165.525,598.9844 165.1813,599.3906 Q164.6813,599.9688 163.8844,600.2969 Q162.8063,600.75 161.5094,600.75 Q159.9938,600.75 158.7906,600.125 Q157.8063,599.625 157.1188,598.5625 Q156.4313,597.4844 156.4313,596.2031 L156.4313,595.0469 Q156.4313,593.7188 157.0406,592.5781 Q157.6656,591.4219 158.7594,590.8125 Q159.8531,590.1875 161.0875,590.1875 Q161.8219,590.1875 162.4625,590.3594 Q163.1188,590.5156 163.6656,590.875 Z " fill="#000000"/><text fill="#000000" font-family="sans-serif" font-size="14" lengthAdjust="spacing" textLength="56" x="178.1" y="600.7285">Contacts</text><line style="stroke:#181818;stroke-width:0.5;" x1="132.5" x2="250.5" y1="611" y2="611"/><rect fill="none" height="6" style="stroke:#C82930;stroke-width:1.0;" width="6" x="139.5" y="622.3047"/><text fill="#000000" font-family="sans-serif" font-size="14" lengthAdjust="spacing" textLength="94" x="151.5" y="629.5332">Phone Number</text><rect fill="none" height="6" style="stroke:#C82930;stroke-width:1.0;" width="6" x="139.5" y="639.9141"/><text fill="#000000" font-family="sans-serif" font-size="14" lengthAdjust="spacing" textLength="82" x="151.5" y="647.1426">Email Adress</text><line style="stroke:#181818;stroke-width:0.5;" x1="132.5" x2="250.5" y1="654.2188" y2="654.2188"/></g><!--MD5=[35ae6afabc28cfceb76ccc01ee55d1fe]
class Repositories--><g id="elem_Repositories"><rect codeLine="34" fill="#F1F1F1" height="100.8281" id="Repositories" rx="2.5" ry="2.5" style="stroke:#181818;stroke-width:0.5;" width="192" x="747.5" y="229.5"/><ellipse cx="799.75" cy="245.5" fill="#ADD1B2" rx="11" ry="11" style="stroke:#181818;stroke-width:1.0;"/><path d="M802.5156,241.375 Q802.6719,241.1563 802.8594,241.0469 Q803.0469,240.9375 803.2656,240.9375 Q803.6406,240.9375 803.875,241.2031 Q804.1094,241.4531 804.1094,242.0625 L804.1094,243.5156 Q804.1094,244.125 803.875,244.3906 Q803.6406,244.6563 803.2656,244.6563 Q802.9219,244.6563 802.7188,244.4531 Q802.5156,244.2656 802.4063,243.75 Q802.3594,243.3906 802.1719,243.2031 Q801.8438,242.8281 801.2344,242.6094 Q800.625,242.3906 800,242.3906 Q799.2344,242.3906 798.5938,242.7188 Q797.9688,243.0469 797.4688,243.7969 Q796.9844,244.5469 796.9844,245.5781 L796.9844,246.6719 Q796.9844,247.9063 797.875,248.7344 Q798.7656,249.5469 800.3594,249.5469 Q801.2969,249.5469 801.9531,249.2969 Q802.3438,249.1406 802.7656,248.7031 Q803.0313,248.4375 803.1719,248.3594 Q803.3281,248.2813 803.5313,248.2813 Q803.8594,248.2813 804.1094,248.5469 Q804.375,248.7969 804.375,249.1406 Q804.375,249.4844 804.0313,249.8906 Q803.5313,250.4688 802.7344,250.7969 Q801.6563,251.25 800.3594,251.25 Q798.8438,251.25 797.6406,250.625 Q796.6563,250.125 795.9688,249.0625 Q795.2813,247.9844 795.2813,246.7031 L795.2813,245.5469 Q795.2813,244.2188 795.8906,243.0781 Q796.5156,241.9219 797.6094,241.3125 Q798.7031,240.6875 799.9375,240.6875 Q800.6719,240.6875 801.3125,240.8594 Q801.9688,241.0156 802.5156,241.375 Z " fill="#000000"/><text fill="#000000" font-family="sans-serif" font-size="14" lengthAdjust="spacing" textLength="79" x="820.25" y="251.2285">Repositories</text><line style="stroke:#181818;stroke-width:0.5;" x1="748.5" x2="938.5" y1="261.5" y2="261.5"/><line style="stroke:#181818;stroke-width:0.5;" x1="748.5" x2="938.5" y1="269.5" y2="269.5"/><rect fill="#F24D5C" height="6" style="stroke:#C82930;stroke-width:1.0;" width="6" x="755.5" y="280.8047"/><text fill="#000000" font-family="sans-serif" font-size="14" lengthAdjust="spacing" textLength="89" x="767.5" y="288.0332">Repositories()</text><ellipse cx="758.5" cy="301.4141" fill="#84BE84" rx="3" ry="3" style="stroke:#038048;stroke-width:1.0;"/><text fill="#000000" font-family="sans-serif" font-size="14" lengthAdjust="spacing" textLength="166" x="767.5" y="305.6426">getInstance():Repositories</text><ellipse cx="758.5" cy="319.0234" fill="#84BE84" rx="3" ry="3" style="stroke:#038048;stroke-width:1.0;"/><text fill="#000000" font-family="sans-serif" font-size="14" lengthAdjust="spacing" textLength="131" x="767.5" y="323.252">getStateRepository()</text></g><!--MD5=[b4d3d50c0abf08df45181fececb9f04d]
class Store--><g id="elem_Store"><rect codeLine="40" fill="#F1F1F1" height="118.4375" id="Store" rx="2.5" ry="2.5" style="stroke:#181818;stroke-width:0.5;" width="369" x="7" y="221"/><ellipse cx="170.25" cy="237" fill="#ADD1B2" rx="11" ry="11" style="stroke:#181818;stroke-width:1.0;"/><path d="M173.0156,232.875 Q173.1719,232.6563 173.3594,232.5469 Q173.5469,232.4375 173.7656,232.4375 Q174.1406,232.4375 174.375,232.7031 Q174.6094,232.9531 174.6094,233.5625 L174.6094,235.0156 Q174.6094,235.625 174.375,235.8906 Q174.1406,236.1563 173.7656,236.1563 Q173.4219,236.1563 173.2188,235.9531 Q173.0156,235.7656 172.9063,235.25 Q172.8594,234.8906 172.6719,234.7031 Q172.3438,234.3281 171.7344,234.1094 Q171.125,233.8906 170.5,233.8906 Q169.7344,233.8906 169.0938,234.2188 Q168.4688,234.5469 167.9688,235.2969 Q167.4844,236.0469 167.4844,237.0781 L167.4844,238.1719 Q167.4844,239.4063 168.375,240.2344 Q169.2656,241.0469 170.8594,241.0469 Q171.7969,241.0469 172.4531,240.7969 Q172.8438,240.6406 173.2656,240.2031 Q173.5313,239.9375 173.6719,239.8594 Q173.8281,239.7813 174.0313,239.7813 Q174.3594,239.7813 174.6094,240.0469 Q174.875,240.2969 174.875,240.6406 Q174.875,240.9844 174.5313,241.3906 Q174.0313,241.9688 173.2344,242.2969 Q172.1563,242.75 170.8594,242.75 Q169.3438,242.75 168.1406,242.125 Q167.1563,241.625 166.4688,240.5625 Q165.7813,239.4844 165.7813,238.2031 L165.7813,237.0469 Q165.7813,235.7188 166.3906,234.5781 Q167.0156,233.4219 168.1094,232.8125 Q169.2031,232.1875 170.4375,232.1875 Q171.1719,232.1875 171.8125,232.3594 Q172.4688,232.5156 173.0156,232.875 Z " fill="#000000"/><text fill="#000000" font-family="sans-serif" font-size="14" lengthAdjust="spacing" textLength="34" x="190.75" y="242.7285">Store</text><line style="stroke:#181818;stroke-width:0.5;" x1="8" x2="375" y1="253" y2="253"/><rect fill="none" height="6" style="stroke:#C82930;stroke-width:1.0;" width="6" x="15" y="264.3047"/><text fill="#000000" font-family="sans-serif" font-size="14" lengthAdjust="spacing" textLength="30" x="27" y="271.5332">int id</text><rect fill="none" height="6" style="stroke:#C82930;stroke-width:1.0;" width="6" x="15" y="281.9141"/><text fill="#000000" font-family="sans-serif" font-size="14" lengthAdjust="spacing" textLength="114" x="27" y="289.1426">String designation</text><line style="stroke:#181818;stroke-width:0.5;" x1="8" x2="375" y1="296.2188" y2="296.2188"/><ellipse cx="18" cy="319.3281" fill="#84BE84" rx="3" ry="3" style="stroke:#038048;stroke-width:1.0;"/><text fill="#000000" font-family="sans-serif" font-size="14" lengthAdjust="spacing" textLength="339" x="27" y="314.752">registerStore(id, designation/name, state, district, city,</text><text fill="#000000" font-family="sans-serif" font-size="14" lengthAdjust="spacing" textLength="321" x="27" y="332.3613">street, zip code, email address and phone number)</text></g><!--MD5=[0d12243de689bfebc51792ff4d7c27b5]
class RegisterStoreController--><g id="elem_RegisterStoreController"><rect codeLine="46" fill="#F1F1F1" height="136.0469" id="RegisterStoreController" rx="2.5" ry="2.5" style="stroke:#181818;stroke-width:0.5;" width="369" x="659" y="7"/><ellipse cx="764.75" cy="23" fill="#ADD1B2" rx="11" ry="11" style="stroke:#181818;stroke-width:1.0;"/><path d="M767.5156,18.875 Q767.6719,18.6563 767.8594,18.5469 Q768.0469,18.4375 768.2656,18.4375 Q768.6406,18.4375 768.875,18.7031 Q769.1094,18.9531 769.1094,19.5625 L769.1094,21.0156 Q769.1094,21.625 768.875,21.8906 Q768.6406,22.1563 768.2656,22.1563 Q767.9219,22.1563 767.7188,21.9531 Q767.5156,21.7656 767.4063,21.25 Q767.3594,20.8906 767.1719,20.7031 Q766.8438,20.3281 766.2344,20.1094 Q765.625,19.8906 765,19.8906 Q764.2344,19.8906 763.5938,20.2188 Q762.9688,20.5469 762.4688,21.2969 Q761.9844,22.0469 761.9844,23.0781 L761.9844,24.1719 Q761.9844,25.4063 762.875,26.2344 Q763.7656,27.0469 765.3594,27.0469 Q766.2969,27.0469 766.9531,26.7969 Q767.3438,26.6406 767.7656,26.2031 Q768.0313,25.9375 768.1719,25.8594 Q768.3281,25.7813 768.5313,25.7813 Q768.8594,25.7813 769.1094,26.0469 Q769.375,26.2969 769.375,26.6406 Q769.375,26.9844 769.0313,27.3906 Q768.5313,27.9688 767.7344,28.2969 Q766.6563,28.75 765.3594,28.75 Q763.8438,28.75 762.6406,28.125 Q761.6563,27.625 760.9688,26.5625 Q760.2813,25.4844 760.2813,24.2031 L760.2813,23.0469 Q760.2813,21.7188 760.8906,20.5781 Q761.5156,19.4219 762.6094,18.8125 Q763.7031,18.1875 764.9375,18.1875 Q765.6719,18.1875 766.3125,18.3594 Q766.9688,18.5156 767.5156,18.875 Z " fill="#000000"/><text fill="#000000" font-family="sans-serif" font-size="14" lengthAdjust="spacing" textLength="149" x="785.25" y="28.7285">RegisterStoreController</text><line style="stroke:#181818;stroke-width:0.5;" x1="660" x2="1027" y1="39" y2="39"/><line style="stroke:#181818;stroke-width:0.5;" x1="660" x2="1027" y1="47" y2="47"/><ellipse cx="670" cy="61.3047" fill="#84BE84" rx="3" ry="3" style="stroke:#038048;stroke-width:1.0;"/><text fill="#000000" font-family="sans-serif" font-size="14" lengthAdjust="spacing" textLength="70" x="679" y="65.5332">getStates()</text><ellipse cx="670" cy="87.7188" fill="#84BE84" rx="3" ry="3" style="stroke:#038048;stroke-width:1.0;"/><text fill="#000000" font-family="sans-serif" font-size="14" lengthAdjust="spacing" textLength="339" x="679" y="83.1426">registerStore(id, designation/name, state, district, city,</text><text fill="#000000" font-family="sans-serif" font-size="14" lengthAdjust="spacing" textLength="321" x="679" y="100.752">street, zip code, email address and phone number)</text><rect fill="#F24D5C" height="6" style="stroke:#C82930;stroke-width:1.0;" width="6" x="667" y="111.1328"/><text fill="#000000" font-family="sans-serif" font-size="14" lengthAdjust="spacing" textLength="198" x="679" y="118.3613">getDistrictsByDescription(state)</text><rect fill="#F24D5C" height="6" style="stroke:#C82930;stroke-width:1.0;" width="6" x="667" y="128.7422"/><text fill="#000000" font-family="sans-serif" font-size="14" lengthAdjust="spacing" textLength="193" x="679" y="135.9707">getCitiesByDescription(district)</text></g><!--MD5=[0d22722e7442ab8978c3a335bed2d7e4]
class StateRepository--><g id="elem_StateRepository"><rect codeLine="53" fill="#F1F1F1" height="100.8281" id="StateRepository" rx="2.5" ry="2.5" style="stroke:#181818;stroke-width:0.5;" width="224" x="976.5" y="417"/><ellipse cx="1033.75" cy="433" fill="#ADD1B2" rx="11" ry="11" style="stroke:#181818;stroke-width:1.0;"/><path d="M1036.5156,428.875 Q1036.6719,428.6563 1036.8594,428.5469 Q1037.0469,428.4375 1037.2656,428.4375 Q1037.6406,428.4375 1037.875,428.7031 Q1038.1094,428.9531 1038.1094,429.5625 L1038.1094,431.0156 Q1038.1094,431.625 1037.875,431.8906 Q1037.6406,432.1563 1037.2656,432.1563 Q1036.9219,432.1563 1036.7188,431.9531 Q1036.5156,431.7656 1036.4063,431.25 Q1036.3594,430.8906 1036.1719,430.7031 Q1035.8438,430.3281 1035.2344,430.1094 Q1034.625,429.8906 1034,429.8906 Q1033.2344,429.8906 1032.5938,430.2188 Q1031.9688,430.5469 1031.4688,431.2969 Q1030.9844,432.0469 1030.9844,433.0781 L1030.9844,434.1719 Q1030.9844,435.4063 1031.875,436.2344 Q1032.7656,437.0469 1034.3594,437.0469 Q1035.2969,437.0469 1035.9531,436.7969 Q1036.3438,436.6406 1036.7656,436.2031 Q1037.0313,435.9375 1037.1719,435.8594 Q1037.3281,435.7813 1037.5313,435.7813 Q1037.8594,435.7813 1038.1094,436.0469 Q1038.375,436.2969 1038.375,436.6406 Q1038.375,436.9844 1038.0313,437.3906 Q1037.5313,437.9688 1036.7344,438.2969 Q1035.6563,438.75 1034.3594,438.75 Q1032.8438,438.75 1031.6406,438.125 Q1030.6563,437.625 1029.9688,436.5625 Q1029.2813,435.4844 1029.2813,434.2031 L1029.2813,433.0469 Q1029.2813,431.7188 1029.8906,430.5781 Q1030.5156,429.4219 1031.6094,428.8125 Q1032.7031,428.1875 1033.9375,428.1875 Q1034.6719,428.1875 1035.3125,428.3594 Q1035.9688,428.5156 1036.5156,428.875 Z " fill="#000000"/><text fill="#000000" font-family="sans-serif" font-size="14" lengthAdjust="spacing" textLength="101" x="1054.25" y="438.7285">StateRepository</text><line style="stroke:#181818;stroke-width:0.5;" x1="977.5" x2="1199.5" y1="449" y2="449"/><line style="stroke:#181818;stroke-width:0.5;" x1="977.5" x2="1199.5" y1="457" y2="457"/><ellipse cx="987.5" cy="471.3047" fill="#84BE84" rx="3" ry="3" style="stroke:#038048;stroke-width:1.0;"/><text fill="#000000" font-family="sans-serif" font-size="14" lengthAdjust="spacing" textLength="70" x="996.5" y="475.5332">getStates()</text><ellipse cx="987.5" cy="488.9141" fill="#84BE84" rx="3" ry="3" style="stroke:#038048;stroke-width:1.0;"/><text fill="#000000" font-family="sans-serif" font-size="14" lengthAdjust="spacing" textLength="198" x="996.5" y="493.1426">getDistrictsByDescription(state)</text><ellipse cx="987.5" cy="506.5234" fill="#84BE84" rx="3" ry="3" style="stroke:#038048;stroke-width:1.0;"/><text fill="#000000" font-family="sans-serif" font-size="14" lengthAdjust="spacing" textLength="193" x="996.5" y="510.752">getCitiesByDescription(district)</text></g><!--MD5=[ef4fc0da9b4db3f5610ffe2c59dc4478]
class RegisterStoreUI--><g id="elem_RegisterStoreUI"><rect codeLine="59" fill="#F1F1F1" height="48" id="RegisterStoreUI" rx="2.5" ry="2.5" style="stroke:#181818;stroke-width:0.5;" width="131" x="493" y="51"/><ellipse cx="508" cy="67" fill="#ADD1B2" rx="11" ry="11" style="stroke:#181818;stroke-width:1.0;"/><path d="M510.7656,62.875 Q510.9219,62.6563 511.1094,62.5469 Q511.2969,62.4375 511.5156,62.4375 Q511.8906,62.4375 512.125,62.7031 Q512.3594,62.9531 512.3594,63.5625 L512.3594,65.0156 Q512.3594,65.625 512.125,65.8906 Q511.8906,66.1563 511.5156,66.1563 Q511.1719,66.1563 510.9688,65.9531 Q510.7656,65.7656 510.6563,65.25 Q510.6094,64.8906 510.4219,64.7031 Q510.0938,64.3281 509.4844,64.1094 Q508.875,63.8906 508.25,63.8906 Q507.4844,63.8906 506.8438,64.2188 Q506.2188,64.5469 505.7188,65.2969 Q505.2344,66.0469 505.2344,67.0781 L505.2344,68.1719 Q505.2344,69.4063 506.125,70.2344 Q507.0156,71.0469 508.6094,71.0469 Q509.5469,71.0469 510.2031,70.7969 Q510.5938,70.6406 511.0156,70.2031 Q511.2813,69.9375 511.4219,69.8594 Q511.5781,69.7813 511.7813,69.7813 Q512.1094,69.7813 512.3594,70.0469 Q512.625,70.2969 512.625,70.6406 Q512.625,70.9844 512.2813,71.3906 Q511.7813,71.9688 510.9844,72.2969 Q509.9063,72.75 508.6094,72.75 Q507.0938,72.75 505.8906,72.125 Q504.9063,71.625 504.2188,70.5625 Q503.5313,69.4844 503.5313,68.2031 L503.5313,67.0469 Q503.5313,65.7188 504.1406,64.5781 Q504.7656,63.4219 505.8594,62.8125 Q506.9531,62.1875 508.1875,62.1875 Q508.9219,62.1875 509.5625,62.3594 Q510.2188,62.5156 510.7656,62.875 Z " fill="#000000"/><text fill="#000000" font-family="sans-serif" font-size="14" lengthAdjust="spacing" textLength="99" x="522" y="72.7285">RegisterStoreUI</text><line style="stroke:#181818;stroke-width:0.5;" x1="494" x2="623" y1="83" y2="83"/><line style="stroke:#181818;stroke-width:0.5;" x1="494" x2="623" y1="91" y2="91"/></g><!--MD5=[fff48e9c385a875a0ec7f6b68c295159]
link Repositories to Repositories--><g id="link_Repositories_Repositories"><path codeLine="63" d="M939.75,262.24 C959.95,264.08 974.5,270 974.5,280 C974.5,289.14 962.34,294.87 944.83,297.19 " fill="none" id="Repositories-to-Repositories" style="stroke:#181818;stroke-width:1.0;"/><polygon fill="#181818" points="939.75,297.76,949.1395,300.7328,944.7189,297.2031,948.2485,292.7825,939.75,297.76" style="stroke:#181818;stroke-width:1.0;"/><text fill="#000000" font-family="sans-serif" font-size="13" lengthAdjust="spacing" textLength="49" x="980.5" y="285.4951">instance</text></g><!--MD5=[8d646d702199f52dfdc991bebcafce12]
link Repositories to StateRepository--><g id="link_Repositories_StateRepository"><path codeLine="64" d="M902.44,330.59 C935.23,358.17 969.5,387 969.5,387 C969.5,387 987.75,399.19 1009.96,414.03 " fill="none" id="Repositories-to-StateRepository" style="stroke:#181818;stroke-width:1.0;"/><polygon fill="#181818" points="1014.15,416.83,1008.8803,408.5095,1009.9897,414.0565,1004.4427,415.1659,1014.15,416.83" style="stroke:#181818;stroke-width:1.0;"/><text fill="#000000" font-family="sans-serif" font-size="13" lengthAdjust="spacing" textLength="91" x="970.5" y="383.4951">stateRepository</text></g><!--MD5=[a801e6c0c94b341bb41f71580d9bc3c3]
link RegisterStoreController to Repositories--><g id="link_RegisterStoreController_Repositories"><path codeLine="65" d="M843.5,143.03 C843.5,169.34 843.5,199.15 843.5,224.14 " fill="none" id="RegisterStoreController-to-Repositories" style="stroke:#181818;stroke-width:1.0;stroke-dasharray:7.0,7.0;"/><polygon fill="#181818" points="843.5,229.4,847.5,220.4,843.5,224.4,839.5,220.4,843.5,229.4" style="stroke:#181818;stroke-width:1.0;"/><text fill="#000000" font-family="sans-serif" font-size="13" lengthAdjust="spacing" textLength="67" x="844.5" y="187.4951">repositories</text></g><!--MD5=[677725f41463730e0ac0569516128c56]
link RegisterStoreController to StateRepository--><g id="link_RegisterStoreController_StateRepository"><path codeLine="66" d="M932.94,143.19 C983.42,181.12 1036.5,221 1036.5,221 C1036.5,221 1061.56,339.34 1076.89,411.69 " fill="none" id="RegisterStoreController-to-StateRepository" style="stroke:#181818;stroke-width:1.0;stroke-dasharray:7.0,7.0;"/><polygon fill="#181818" points="1077.98,416.82,1080.0401,407.189,1076.9499,411.9273,1072.2117,408.8371,1077.98,416.82" style="stroke:#181818;stroke-width:1.0;"/><text fill="#000000" font-family="sans-serif" font-size="13" lengthAdjust="spacing" textLength="93" x="1061.5" y="285.4951">StateRepository</text></g><!--MD5=[5bcd88373731d6d6fdbdf9e4ad375f1c]
link RegisterStoreController to Store--><g id="link_RegisterStoreController_Store"><path codeLine="67" d="M658.72,137.29 C648.02,140.84 641.5,143 641.5,143 C641.5,143 504.18,184.5 381.26,221.65 " fill="none" id="RegisterStoreController-to-Store" style="stroke:#181818;stroke-width:1.0;stroke-dasharray:7.0,7.0;"/><polygon fill="#181818" points="376.16,223.19,385.9315,224.4218,380.9472,221.7467,383.6223,216.7623,376.16,223.19" style="stroke:#181818;stroke-width:1.0;"/><text fill="#000000" font-family="sans-serif" font-size="13" lengthAdjust="spacing" textLength="31" x="533.5" y="187.4951">Store</text></g><!--MD5=[aaefdd836838d1531d4f97bf2f197d74]
link RegisterStoreUI to RegisterStoreController--><g id="link_RegisterStoreUI_RegisterStoreController"><path codeLine="68" d="M624.22,75 C640.55,75 653.5,75 653.5,75 C653.5,75 653.62,75 653.86,75 " fill="none" id="RegisterStoreUI-to-RegisterStoreController" style="stroke:#181818;stroke-width:1.0;stroke-dasharray:7.0,7.0;"/><polygon fill="#181818" points="658.88,75,649.88,71,653.88,75,649.88,79,658.88,75" style="stroke:#181818;stroke-width:1.0;"/></g><!--MD5=[b44e66b883b44d4947a87538e308a5d3]
reverse link Store to Address--><g id="link_Store_Address"><path codeLine="69" d="M381.6,280 C418.12,280 454.14,280 483.7,280 " fill="none" id="Store-backto-Address" style="stroke:#181818;stroke-width:1.0;"/><polygon fill="#181818" points="376.21,280,385.21,284,381.21,280,385.21,276,376.21,280" style="stroke:#181818;stroke-width:1.0;"/><text fill="#000000" font-family="sans-serif" font-size="13" lengthAdjust="spacing" textLength="71" x="394.5" y="273.4951">is located at</text><text fill="#000000" font-family="sans-serif" font-size="13" lengthAdjust="spacing" textLength="5" x="384.1079" y="277.1558">*</text><text fill="#000000" font-family="sans-serif" font-size="13" lengthAdjust="spacing" textLength="7" x="469.1409" y="276.677">1</text></g><!--MD5=[129972a5e6cdb99fe3ca661a27424b30]
link Address to State--><g id="link_Address_State"><path codeLine="70" d="M533.97,321.71 C517.7,355.62 494.84,403.26 479.85,434.5 " fill="none" id="Address-State" style="stroke:#181818;stroke-width:1.0;"/><polygon fill="#000000" points="515.663,373.6679,509.1004,380.5514,514.3998,383.0942,515.663,373.6679" style="stroke:#000000;stroke-width:1.0;"/><text fill="#000000" font-family="sans-serif" font-size="13" lengthAdjust="spacing" textLength="21" x="522.5" y="383.4951">has</text><text fill="#000000" font-family="sans-serif" font-size="13" lengthAdjust="spacing" textLength="5" x="525.459" y="343.1382">*</text><text fill="#000000" font-family="sans-serif" font-size="13" lengthAdjust="spacing" textLength="7" x="475.2941" y="423.6154">1</text></g><!--MD5=[cd1097b4d6b53e13878caf984aed34c4]
link District to City--><g id="link_District_City"><path codeLine="71" d="M746.78,467.5 C769.83,467.5 795.13,467.5 817.39,467.5 " fill="none" id="District-City" style="stroke:#181818;stroke-width:1.0;"/><polygon fill="#000000" points="774,455.6758,764.9549,452.7369,764.9549,458.6147,774,455.6758" style="stroke:#000000;stroke-width:1.0;"/><text fill="#000000" font-family="sans-serif" font-size="13" lengthAdjust="spacing" textLength="21" x="778" y="460.9951">has</text><text fill="#000000" font-family="sans-serif" font-size="13" lengthAdjust="spacing" textLength="7" x="754.5948" y="464.2084">1</text><text fill="#000000" font-family="sans-serif" font-size="13" lengthAdjust="spacing" textLength="5" x="804.5157" y="464.0653">*</text></g><!--MD5=[9507060b9b8dd58465f9ccdeabbe9f6e]
link State to District--><g id="link_State_District"><path codeLine="72" d="M531.52,467.5 C554.09,467.5 579.36,467.5 602.31,467.5 " fill="none" id="State-District" style="stroke:#181818;stroke-width:1.0;"/><polygon fill="#000000" points="559,455.6758,549.9549,452.7369,549.9549,458.6147,559,455.6758" style="stroke:#000000;stroke-width:1.0;"/><text fill="#000000" font-family="sans-serif" font-size="13" lengthAdjust="spacing" textLength="21" x="563" y="460.9951">has</text><text fill="#000000" font-family="sans-serif" font-size="13" lengthAdjust="spacing" textLength="7" x="539.6739" y="464.113">1</text><text fill="#000000" font-family="sans-serif" font-size="13" lengthAdjust="spacing" textLength="5" x="589.6076" y="464.2084">*</text></g><!--MD5=[a135af3b978ececa95379268fc07c120]
reverse link Store to Contacts--><g id="link_Store_Contacts"><path codeLine="73" d="M191.5,344.47 C191.5,413.05 191.5,520.31 191.5,578.54 " fill="none" id="Store-backto-Contacts" style="stroke:#181818;stroke-width:1.0;"/><polygon fill="#181818" points="191.5,339.19,187.5,348.19,191.5,344.19,195.5,348.19,191.5,339.19" style="stroke:#181818;stroke-width:1.0;"/><text fill="#000000" font-family="sans-serif" font-size="13" lengthAdjust="spacing" textLength="21" x="192.5" y="472.9951">has</text><text fill="#000000" font-family="sans-serif" font-size="13" lengthAdjust="spacing" textLength="7" x="184.0734" y="360.8687">1</text><text fill="#000000" font-family="sans-serif" font-size="13" lengthAdjust="spacing" textLength="7" x="183.9422" y="568.0833">1</text></g><!--MD5=[285d2f25bf0dacec43ac77574032105e]
@startuml

'skinparam monochrome true
skinparam packageStyle rectangle
skinparam shadowing false
skinparam linetype polyline
'skinparam linetype orto
'skinparam classAttributeIconSize 0
'left to right direction

class State {
    - String stateName
}

class District {
    - String districtName

}

class City {
    - String cityName

}

class Address {
    -String streetName
    -int zipCode
}

class Contacts {
    -Phone Number
    -Email Adress
}

class Repositories {
    -Repositories()
    +getInstance():Repositories
    +getStateRepository()
}

class Store {
    -int id
    -String designation
    +registerStore(id, designation/name, state, district, city, \nstreet, zip code, email address and phone number)
}

class RegisterStoreController {
    +getStates()
    +registerStore(id, designation/name, state, district, city, \nstreet, zip code, email address and phone number)
    -getDistrictsByDescription(state)
    -getCitiesByDescription(district)
}

class StateRepository {
    +getStates()
    +getDistrictsByDescription(state)
    +getCitiesByDescription(district)
}

class RegisterStoreUI {

}

Repositories -> Repositories:instance
Repositories - -> StateRepository: stateRepository
RegisterStoreController ..> Repositories : repositories
RegisterStoreController ..> StateRepository : StateRepository
RegisterStoreController ..> Store : Store
RegisterStoreUI .right.> RegisterStoreController
Address "1" -left-> "*"  Store : is located at
State "1" -up- "*" Address: has >
District "1" -right- "*" City : has >
State "1" -right- "*" District : has >
Contacts "1" -up- -> "1" Store: has

@enduml

@startuml

skinparam packageStyle rectangle
skinparam shadowing false
skinparam linetype polyline

class State {
    - String stateName
}

class District {
    - String districtName

}

class City {
    - String cityName

}

class Address {
    -String streetName
    -int zipCode
}

class Contacts {
    -Phone Number
    -Email Adress
}

class Repositories {
    -Repositories()
    +getInstance():Repositories
    +getStateRepository()
}

class Store {
    -int id
    -String designation
    +registerStore(id, designation/name, state, district, city, \nstreet, zip code, email address and phone number)
}

class RegisterStoreController {
    +getStates()
    +registerStore(id, designation/name, state, district, city, \nstreet, zip code, email address and phone number)
    -getDistrictsByDescription(state)
    -getCitiesByDescription(district)
}

class StateRepository {
    +getStates()
    +getDistrictsByDescription(state)
    +getCitiesByDescription(district)
}

class RegisterStoreUI {

}

Repositories -> Repositories:instance
Repositories - -> StateRepository: stateRepository
RegisterStoreController ..> Repositories : repositories
RegisterStoreController ..> StateRepository : StateRepository
RegisterStoreController ..> Store : Store
RegisterStoreUI .right.> RegisterStoreController
Address "1" -left-> "*"  Store : is located at
State "1" -up- "*" Address: has >
District "1" -right- "*" City : has >
State "1" -right- "*" District : has >
Contacts "1" -up- -> "1" Store: has

@enduml

PlantUML version 1.2022.7(Mon Aug 22 18:01:30 WEST 2022)
(GPL source distribution)
Java Runtime: OpenJDK Runtime Environment
JVM: OpenJDK 64-Bit Server VM
Default Encoding: Cp1252
Language: pt
Country: PT
--></g></svg>