<?xml version="1.0" encoding="UTF-8" standalone="no"?><svg xmlns="http://www.w3.org/2000/svg" xmlns:xlink="http://www.w3.org/1999/xlink" contentStyleType="text/css" height="514px" preserveAspectRatio="none" style="width:866px;height:514px;background:#FFFFFF;" version="1.1" viewBox="0 0 866 514" width="866px" zoomAndPan="magnify"><defs/><g><rect fill="#FFFFFF" height="315.25" style="stroke:#181818;stroke-width:1.0;" width="10" x="215" y="111.4688"/><rect fill="#FFFFFF" height="39.1563" style="stroke:#181818;stroke-width:1.0;" width="10" x="394" y="184.7813"/><rect fill="#FFFFFF" height="39.1563" style="stroke:#181818;stroke-width:1.0;" width="10" x="537" y="263.0938"/><rect fill="#FFFFFF" height="39.1563" style="stroke:#181818;stroke-width:1.0;" width="10" x="728.5" y="341.4063"/><rect fill="none" height="262.0938" style="stroke:#000000;stroke-width:1.5;" width="754" x="106" y="126.4688"/><line style="stroke:#181818;stroke-width:0.5;stroke-dasharray:5.0,5.0;" x1="220" x2="220" y1="70.3125" y2="444.7188"/><line style="stroke:#181818;stroke-width:0.5;stroke-dasharray:5.0,5.0;" x1="399" x2="399" y1="70.3125" y2="444.7188"/><line style="stroke:#181818;stroke-width:0.5;stroke-dasharray:5.0,5.0;" x1="542" x2="542" y1="70.3125" y2="444.7188"/><line style="stroke:#181818;stroke-width:0.5;stroke-dasharray:5.0,5.0;" x1="733" x2="733" y1="70.3125" y2="444.7188"/><rect fill="#E3E3E3" height="39.1563" rx="2.5" ry="2.5" style="stroke:#181818;stroke-width:0.5;" width="208" x="116" y="30.1563"/><text fill="#000000" font-family="sans-serif" font-size="20" lengthAdjust="spacing" textLength="194" x="123" y="57.918">:CreateTaskController</text><rect fill="#E3E3E3" height="39.1563" rx="2.5" ry="2.5" style="stroke:#181818;stroke-width:0.5;" width="208" x="116" y="443.7188"/><text fill="#000000" font-family="sans-serif" font-size="20" lengthAdjust="spacing" textLength="194" x="123" y="471.4805">:CreateTaskController</text><rect fill="#E3E3E3" height="39.1563" rx="2.5" ry="2.5" style="stroke:#181818;stroke-width:0.5;" width="130" x="334" y="30.1563"/><text fill="#000000" font-family="sans-serif" font-size="20" lengthAdjust="spacing" textLength="116" x="341" y="57.918">:Repositories</text><rect fill="#E3E3E3" height="39.1563" rx="2.5" ry="2.5" style="stroke:#181818;stroke-width:0.5;" width="130" x="334" y="443.7188"/><text fill="#000000" font-family="sans-serif" font-size="20" lengthAdjust="spacing" textLength="116" x="341" y="471.4805">:Repositories</text><rect fill="#E3E3E3" height="64.3125" rx="2.5" ry="2.5" style="stroke:#181818;stroke-width:0.5;" width="130" x="477" y="5"/><text fill="#000000" font-family="sans-serif" font-size="20" lengthAdjust="spacing" textLength="103" x="490.5" y="32.7617">repositories</text><text fill="#000000" font-family="sans-serif" font-size="20" lengthAdjust="spacing" textLength="116" x="484" y="57.918">:Repositories</text><rect fill="#E3E3E3" height="64.3125" rx="2.5" ry="2.5" style="stroke:#181818;stroke-width:0.5;" width="130" x="477" y="443.7188"/><text fill="#000000" font-family="sans-serif" font-size="20" lengthAdjust="spacing" textLength="103" x="490.5" y="471.4805">repositories</text><text fill="#000000" font-family="sans-serif" font-size="20" lengthAdjust="spacing" textLength="116" x="484" y="496.6367">:Repositories</text><rect fill="#E3E3E3" height="64.3125" rx="2.5" ry="2.5" style="stroke:#181818;stroke-width:0.5;" width="233" x="617" y="5"/><text fill="#000000" font-family="sans-serif" font-size="20" lengthAdjust="spacing" textLength="219" x="624" y="32.7617">taskCategoryRepository:</text><text fill="#000000" font-family="sans-serif" font-size="20" lengthAdjust="spacing" textLength="219" x="624" y="57.918">TaskCategoryRepository</text><rect fill="#E3E3E3" height="64.3125" rx="2.5" ry="2.5" style="stroke:#181818;stroke-width:0.5;" width="233" x="617" y="443.7188"/><text fill="#000000" font-family="sans-serif" font-size="20" lengthAdjust="spacing" textLength="219" x="624" y="471.4805">taskCategoryRepository:</text><text fill="#000000" font-family="sans-serif" font-size="20" lengthAdjust="spacing" textLength="219" x="624" y="496.6367">TaskCategoryRepository</text><rect fill="#FFFFFF" height="315.25" style="stroke:#181818;stroke-width:1.0;" width="10" x="215" y="111.4688"/><rect fill="#FFFFFF" height="39.1563" style="stroke:#181818;stroke-width:1.0;" width="10" x="394" y="184.7813"/><rect fill="#FFFFFF" height="39.1563" style="stroke:#181818;stroke-width:1.0;" width="10" x="537" y="263.0938"/><rect fill="#FFFFFF" height="39.1563" style="stroke:#181818;stroke-width:1.0;" width="10" x="728.5" y="341.4063"/><polygon fill="#181818" points="203,107.4688,213,111.4688,203,115.4688,207,111.4688" style="stroke:#181818;stroke-width:1.0;"/><line style="stroke:#181818;stroke-width:1.0;" x1="0" x2="209" y1="111.4688" y2="111.4688"/><text fill="#000000" font-family="sans-serif" font-size="20" font-weight="bold" lengthAdjust="spacing" textLength="11" x="7" y="105.0742">3</text><text fill="#000000" font-family="sans-serif" font-size="20" lengthAdjust="spacing" textLength="181" x="22" y="105.0742">getTaskCategories()</text><path d="M106,126.4688 L370,126.4688 L370,143.625 L360,153.625 L106,153.625 L106,126.4688 " fill="#EEEEEE" style="stroke:#000000;stroke-width:1.5;"/><rect fill="none" height="262.0938" style="stroke:#000000;stroke-width:1.5;" width="754" x="106" y="126.4688"/><text fill="#000000" font-family="sans-serif" font-size="20" font-weight="bold" lengthAdjust="spacing" textLength="219" x="121" y="148.2305">Get Task Category List</text><polygon fill="#181818" points="382,180.7813,392,184.7813,382,188.7813,386,184.7813" style="stroke:#181818;stroke-width:1.0;"/><line style="stroke:#181818;stroke-width:1.0;" x1="225" x2="388" y1="184.7813" y2="184.7813"/><text fill="#000000" font-family="sans-serif" font-size="20" font-weight="bold" lengthAdjust="spacing" textLength="28" x="232" y="178.3867">3.1</text><text fill="#000000" font-family="sans-serif" font-size="20" lengthAdjust="spacing" textLength="116" x="264" y="178.3867">getInstance()</text><polygon fill="#181818" points="236,219.9375,226,223.9375,236,227.9375,232,223.9375" style="stroke:#181818;stroke-width:1.0;"/><line style="stroke:#181818;stroke-width:1.0;stroke-dasharray:2.0,2.0;" x1="230" x2="398" y1="223.9375" y2="223.9375"/><text fill="#000000" font-family="sans-serif" font-size="20" font-weight="bold" lengthAdjust="spacing" textLength="28" x="242" y="217.543">3.2</text><text fill="#000000" font-family="sans-serif" font-size="20" lengthAdjust="spacing" textLength="103" x="274" y="217.543">repositories</text><polygon fill="#181818" points="525,259.0938,535,263.0938,525,267.0938,529,263.0938" style="stroke:#181818;stroke-width:1.0;"/><line style="stroke:#181818;stroke-width:1.0;" x1="225" x2="531" y1="263.0938" y2="263.0938"/><text fill="#000000" font-family="sans-serif" font-size="20" font-weight="bold" lengthAdjust="spacing" textLength="28" x="232" y="256.6992">3.3</text><text fill="#000000" font-family="sans-serif" font-size="20" lengthAdjust="spacing" textLength="261" x="264" y="256.6992">getTaskCategoryRepository()</text><polygon fill="#181818" points="236,298.25,226,302.25,236,306.25,232,302.25" style="stroke:#181818;stroke-width:1.0;"/><line style="stroke:#181818;stroke-width:1.0;stroke-dasharray:2.0,2.0;" x1="230" x2="541" y1="302.25" y2="302.25"/><text fill="#000000" font-family="sans-serif" font-size="20" font-weight="bold" lengthAdjust="spacing" textLength="28" x="242" y="295.8555">3.4</text><text fill="#000000" font-family="sans-serif" font-size="20" lengthAdjust="spacing" textLength="213" x="274" y="295.8555">taskCategoryRepository</text><polygon fill="#181818" points="716.5,337.4063,726.5,341.4063,716.5,345.4063,720.5,341.4063" style="stroke:#181818;stroke-width:1.0;"/><line style="stroke:#181818;stroke-width:1.0;" x1="225" x2="722.5" y1="341.4063" y2="341.4063"/><text fill="#000000" font-family="sans-serif" font-size="20" font-weight="bold" lengthAdjust="spacing" textLength="28" x="232" y="335.0117">3.5</text><text fill="#000000" font-family="sans-serif" font-size="20" lengthAdjust="spacing" textLength="181" x="264" y="335.0117">getTaskCategories()</text><polygon fill="#181818" points="236,376.5625,226,380.5625,236,384.5625,232,380.5625" style="stroke:#181818;stroke-width:1.0;"/><line style="stroke:#181818;stroke-width:1.0;stroke-dasharray:2.0,2.0;" x1="230" x2="732.5" y1="380.5625" y2="380.5625"/><text fill="#000000" font-family="sans-serif" font-size="20" font-weight="bold" lengthAdjust="spacing" textLength="28" x="242" y="374.168">3.6</text><text fill="#000000" font-family="sans-serif" font-size="20" lengthAdjust="spacing" textLength="149" x="274" y="374.168">taskCategoryList</text><polygon fill="#181818" points="11,422.7188,1,426.7188,11,430.7188,7,426.7188" style="stroke:#181818;stroke-width:1.0;"/><line style="stroke:#181818;stroke-width:1.0;stroke-dasharray:2.0,2.0;" x1="5" x2="219" y1="426.7188" y2="426.7188"/><text fill="#000000" font-family="sans-serif" font-size="20" font-weight="bold" lengthAdjust="spacing" textLength="11" x="17" y="420.3242">4</text><text fill="#000000" font-family="sans-serif" font-size="20" lengthAdjust="spacing" textLength="149" x="32" y="420.3242">taskCategoryList</text><!--SRC=[ZL8xQyCm4DxrAuuiRGUNlYPJ2YNGKiXG4ezP5FlY2CkIaSvjqrzVMQaJEPOXMWo-xtKFMmdLSCDhgVCA2oXmorj9RrhHIlmYFDmnsqEWrahdEwDh138j1fM6vnKlSKLxYM0m9wvA6GBiZXVwMwWIjbnQP8otf5LRRz0mThKJ1S9MQzhe7yOSWqGk6gu8PkdS82VCkAtcBfJHKgAP0RSmpvQBC-mI6sq5QIFGUipnntubkaJESqWn0MEjnWAVYzTioA0kYKjKEj6JVBfMMRJWLUAbS0Zmo1WaBxufIA542ZWkpFND07nxptXEuilL3tC0zqgZsmRUaRmVz8Qm49OOyv3-UHjd5vdFmVr3MRV379rlo3kQnWOxG7OlffxyDvb2EFe1jS3BRVf6kZsDvXRCUgeFlzzHSAzsIXfV-LJciMGVCXvjOjtHk5E7TDx0X5Dokh2m9tyW4zrCENeygi9_WzDyyZ-Ua-HW57CArFtjiZy0]--></g></svg>