<?xml version="1.0" encoding="us-ascii" standalone="no"?><svg xmlns="http://www.w3.org/2000/svg" xmlns:xlink="http://www.w3.org/1999/xlink" contentStyleType="text/css" height="1203.2px" preserveAspectRatio="none" style="width:1028px;height:1203px;background:#FFFFFF;" version="1.1" viewBox="0 0 1028 1203" width="1028.8px" zoomAndPan="magnify"><defs/><g><text fill="#000000" font-family="sans-serif" font-size="11.2" font-weight="bold" lengthAdjust="spacing" textLength="135.2" x="441.2" y="18.8281">US001 - Class Diagram</text><!--class Address--><g id="elem_Address"><rect codeLine="16" fill="#F1F1F1" height="130.7344" id="Address" rx="2" ry="2" style="stroke:#181818;stroke-width:0.4000000000000001;" width="258.4" x="598.4" y="891.5906"/><ellipse cx="701.8" cy="904.3906" fill="#ADD1B2" rx="8.8" ry="8.8" style="stroke:#181818;stroke-width:0.8000000000000002;"/><path d="M704.1785,908.9051 Q703.7137,909.1441 703.2023,909.2637 Q702.691,909.3832 702.1266,909.3832 Q700.1211,909.3832 699.0652,908.0617 Q698.0094,906.7402 698.0094,904.2434 Q698.0094,901.7398 699.0652,900.4184 Q700.1211,899.0969 702.1266,899.0969 Q702.691,899.0969 703.209,899.2164 Q703.727,899.3359 704.1785,899.575 L704.1785,901.7531 Q703.6738,901.2883 703.199,901.0725 Q702.7242,900.8566 702.2195,900.8566 Q701.1438,900.8566 700.5959,901.71 Q700.048,902.5633 700.048,904.2434 Q700.048,905.9168 700.5959,906.7701 Q701.1438,907.6234 702.2195,907.6234 Q702.7242,907.6234 703.199,907.4076 Q703.6738,907.1918 704.1785,906.727 Z " fill="#000000"/><text fill="#000000" font-family="sans-serif" font-size="11.2" lengthAdjust="spacing" textLength="44.8" x="718.2" y="908.6234">Address</text><line style="stroke:#181818;stroke-width:0.4000000000000001;" x1="599.2" x2="856" y1="917.1906" y2="917.1906"/><rect fill="none" height="4.8" style="stroke:#C82930;stroke-width:0.8000000000000002;" width="4.8" x="604.8" y="925.7859"/><text fill="#000000" font-family="sans-serif" font-size="11.2" lengthAdjust="spacing" textLength="98.4" x="614.4" y="931.2188">String streetName</text><rect fill="none" height="4.8" style="stroke:#C82930;stroke-width:0.8000000000000002;" width="4.8" x="604.8" y="938.9766"/><text fill="#000000" font-family="sans-serif" font-size="11.2" lengthAdjust="spacing" textLength="63.2" x="614.4" y="944.4094">int zipCode</text><line style="stroke:#181818;stroke-width:0.4000000000000001;" x1="599.2" x2="856" y1="949.9719" y2="949.9719"/><ellipse cx="607.2" cy="960.9672" fill="#84BE84" rx="2.4" ry="2.4" style="stroke:#038048;stroke-width:0.8000000000000002;"/><text fill="#000000" font-family="sans-serif" font-size="11.2" lengthAdjust="spacing" textLength="83.2" x="614.4" y="964">verifyZipCode()</text><ellipse cx="607.2" cy="974.1578" fill="#84BE84" rx="2.4" ry="2.4" style="stroke:#038048;stroke-width:0.8000000000000002;"/><text fill="#000000" font-family="sans-serif" font-size="11.2" lengthAdjust="spacing" textLength="46.4" x="614.4" y="977.1906">getCity()</text><ellipse cx="607.2" cy="987.3484" fill="#84BE84" rx="2.4" ry="2.4" style="stroke:#038048;stroke-width:0.8000000000000002;"/><text fill="#000000" font-family="sans-serif" font-size="11.2" lengthAdjust="spacing" textLength="64" x="614.4" y="990.3813">getDistrict()</text><ellipse cx="607.2" cy="1000.5391" fill="#84BE84" rx="2.4" ry="2.4" style="stroke:#038048;stroke-width:0.8000000000000002;"/><text fill="#000000" font-family="sans-serif" font-size="11.2" lengthAdjust="spacing" textLength="52.8" x="614.4" y="1003.5719">getState()</text><ellipse cx="607.2" cy="1013.7297" fill="#84BE84" rx="2.4" ry="2.4" style="stroke:#038048;stroke-width:0.8000000000000002;"/><text fill="#000000" font-family="sans-serif" font-size="11.2" lengthAdjust="spacing" textLength="237.6" x="614.4" y="1016.7625">Address(state, district, city, street, zipCode)</text></g><!--class Business--><g id="elem_Business"><rect codeLine="37" fill="#F1F1F1" height="77.9719" id="Business" rx="2" ry="2" style="stroke:#181818;stroke-width:0.4000000000000001;" width="140" x="105.6" y="739.1906"/><ellipse cx="148.6" cy="751.9906" fill="#ADD1B2" rx="8.8" ry="8.8" style="stroke:#181818;stroke-width:0.8000000000000002;"/><path d="M150.9785,756.5051 Q150.5137,756.7441 150.0023,756.8637 Q149.491,756.9832 148.9266,756.9832 Q146.9211,756.9832 145.8652,755.6617 Q144.8094,754.3402 144.8094,751.8434 Q144.8094,749.3398 145.8652,748.0184 Q146.9211,746.6969 148.9266,746.6969 Q149.491,746.6969 150.009,746.8164 Q150.527,746.9359 150.9785,747.175 L150.9785,749.3531 Q150.4738,748.8883 149.999,748.6725 Q149.5242,748.4566 149.0195,748.4566 Q147.9438,748.4566 147.3959,749.31 Q146.848,750.1633 146.848,751.8434 Q146.848,753.5168 147.3959,754.3701 Q147.9438,755.2234 149.0195,755.2234 Q149.5242,755.2234 149.999,755.0076 Q150.4738,754.7918 150.9785,754.327 Z " fill="#000000"/><text fill="#000000" font-family="sans-serif" font-size="11.2" lengthAdjust="spacing" textLength="47.2" x="165" y="756.2234">Business</text><line style="stroke:#181818;stroke-width:0.4000000000000001;" x1="106.4" x2="244.8" y1="764.7906" y2="764.7906"/><rect fill="none" height="4.8" style="stroke:#C82930;stroke-width:0.8000000000000002;" width="4.8" x="112" y="773.3859"/><text fill="#000000" font-family="sans-serif" font-size="11.2" lengthAdjust="spacing" textLength="119.2" x="121.6" y="778.8188">String typeOfBusiness</text><rect fill="none" height="4.8" style="stroke:#C82930;stroke-width:0.8000000000000002;" width="4.8" x="112" y="786.5766"/><text fill="#000000" font-family="sans-serif" font-size="11.2" lengthAdjust="spacing" textLength="68.8" x="121.6" y="792.0094">double price</text><line style="stroke:#181818;stroke-width:0.4000000000000001;" x1="106.4" x2="244.8" y1="797.5719" y2="797.5719"/><ellipse cx="114.4" cy="808.5672" fill="#84BE84" rx="2.4" ry="2.4" style="stroke:#038048;stroke-width:0.8000000000000002;"/><text fill="#000000" font-family="sans-serif" font-size="11.2" lengthAdjust="spacing" textLength="52" x="121.6" y="811.6">getPrice()</text></g><!--class City--><g id="elem_City"><rect codeLine="49" fill="#F1F1F1" height="64.7813" id="City" rx="2" ry="2" style="stroke:#181818;stroke-width:0.4000000000000001;" width="106.4" x="907.2" y="1133.1906"/><ellipse cx="946.6" cy="1145.9906" fill="#ADD1B2" rx="8.8" ry="8.8" style="stroke:#181818;stroke-width:0.8000000000000002;"/><path d="M948.9785,1150.5051 Q948.5137,1150.7441 948.0023,1150.8637 Q947.491,1150.9832 946.9266,1150.9832 Q944.9211,1150.9832 943.8652,1149.6617 Q942.8094,1148.3402 942.8094,1145.8434 Q942.8094,1143.3398 943.8652,1142.0184 Q944.9211,1140.6969 946.9266,1140.6969 Q947.491,1140.6969 948.009,1140.8164 Q948.527,1140.9359 948.9785,1141.175 L948.9785,1143.3531 Q948.4738,1142.8883 947.999,1142.6725 Q947.5242,1142.4566 947.0195,1142.4566 Q945.9438,1142.4566 945.3959,1143.31 Q944.848,1144.1633 944.848,1145.8434 Q944.848,1147.5168 945.3959,1148.3701 Q945.9438,1149.2234 947.0195,1149.2234 Q947.5242,1149.2234 947.999,1149.0076 Q948.4738,1148.7918 948.9785,1148.327 Z " fill="#000000"/><text fill="#000000" font-family="sans-serif" font-size="11.2" lengthAdjust="spacing" textLength="20.8" x="963" y="1150.2234">City</text><line style="stroke:#181818;stroke-width:0.4000000000000001;" x1="908" x2="1012.8" y1="1158.7906" y2="1158.7906"/><rect fill="none" height="4.8" style="stroke:#C82930;stroke-width:0.8000000000000002;" width="4.8" x="913.6" y="1167.3859"/><text fill="#000000" font-family="sans-serif" font-size="11.2" lengthAdjust="spacing" textLength="85.6" x="923.2" y="1172.8188">String cityName</text><line style="stroke:#181818;stroke-width:0.4000000000000001;" x1="908" x2="1012.8" y1="1178.3813" y2="1178.3813"/><ellipse cx="916" cy="1189.3766" fill="#84BE84" rx="2.4" ry="2.4" style="stroke:#038048;stroke-width:0.8000000000000002;"/><text fill="#000000" font-family="sans-serif" font-size="11.2" lengthAdjust="spacing" textLength="77.6" x="923.2" y="1192.4094">getCityName()</text></g><!--class Comparator--><g id="elem_Comparator"><rect codeLine="55" fill="#F1F1F1" height="51.5906" id="Comparator" rx="2" ry="2" style="stroke:#181818;stroke-width:0.4000000000000001;" width="258.4" x="273.6" y="752.3906"/><ellipse cx="366.2" cy="765.1906" fill="#B4A7E5" rx="8.8" ry="8.8" style="stroke:#181818;stroke-width:0.8000000000000002;"/><path d="M362.9422,761.8027 L362.9422,760.0762 L368.8457,760.0762 L368.8457,761.8027 L366.8734,761.8027 L366.8734,768.2641 L368.8457,768.2641 L368.8457,769.9906 L362.9422,769.9906 L362.9422,768.2641 L364.9145,768.2641 L364.9145,761.8027 Z " fill="#000000"/><text fill="#000000" font-family="sans-serif" font-size="11.2" font-style="italic" lengthAdjust="spacing" textLength="66.4" x="382.6" y="769.4234">Comparator</text><line style="stroke:#181818;stroke-width:0.4000000000000001;" x1="274.4" x2="531.2" y1="777.9906" y2="777.9906"/><line style="stroke:#181818;stroke-width:0.4000000000000001;" x1="274.4" x2="531.2" y1="784.3906" y2="784.3906"/><ellipse cx="282.4" cy="795.3859" fill="#84BE84" rx="2.4" ry="2.4" style="stroke:#038048;stroke-width:0.8000000000000002;"/><text fill="#000000" font-family="sans-serif" font-size="11.2" lengthAdjust="spacing" textLength="237.6" x="289.6" y="798.4188">compare(announcement1, announcement2</text></g><!--class DisplayPropertiesController--><g id="elem_DisplayPropertiesController"><rect codeLine="69" fill="#F1F1F1" height="117.5438" id="DisplayPropertiesController" rx="2" ry="2" style="stroke:#181818;stroke-width:0.4000000000000001;" width="442.4" x="165.6" y="35.5906"/><ellipse cx="307.8" cy="48.3906" fill="#ADD1B2" rx="8.8" ry="8.8" style="stroke:#181818;stroke-width:0.8000000000000002;"/><path d="M310.1785,52.9051 Q309.7137,53.1441 309.2023,53.2637 Q308.691,53.3832 308.1266,53.3832 Q306.1211,53.3832 305.0652,52.0617 Q304.0094,50.7402 304.0094,48.2434 Q304.0094,45.7398 305.0652,44.4184 Q306.1211,43.0969 308.1266,43.0969 Q308.691,43.0969 309.209,43.2164 Q309.727,43.3359 310.1785,43.575 L310.1785,45.7531 Q309.6738,45.2883 309.199,45.0725 Q308.7242,44.8566 308.2195,44.8566 Q307.1438,44.8566 306.5959,45.71 Q306.048,46.5633 306.048,48.2434 Q306.048,49.9168 306.5959,50.7701 Q307.1438,51.6234 308.2195,51.6234 Q308.7242,51.6234 309.199,51.4076 Q309.6738,51.1918 310.1785,50.727 Z " fill="#000000"/><text fill="#000000" font-family="sans-serif" font-size="11.2" lengthAdjust="spacing" textLength="151.2" x="324.2" y="52.6234">DisplayPropertiesController</text><line style="stroke:#181818;stroke-width:0.4000000000000001;" x1="166.4" x2="607.2" y1="61.1906" y2="61.1906"/><line style="stroke:#181818;stroke-width:0.4000000000000001;" x1="166.4" x2="607.2" y1="67.5906" y2="67.5906"/><ellipse cx="174.4" cy="78.5859" fill="#84BE84" rx="2.4" ry="2.4" style="stroke:#038048;stroke-width:0.8000000000000002;"/><text fill="#000000" font-family="sans-serif" font-size="11.2" lengthAdjust="spacing" textLength="355.2" x="181.6" y="81.6188">DisplayPropertiesController(PublishedAnnouncementRepository)</text><ellipse cx="174.4" cy="91.7766" fill="#84BE84" rx="2.4" ry="2.4" style="stroke:#038048;stroke-width:0.8000000000000002;"/><text fill="#000000" font-family="sans-serif" font-size="11.2" lengthAdjust="spacing" textLength="163.2" x="181.6" y="94.8094">getPublishedAnnouncement()</text><ellipse cx="174.4" cy="104.9672" fill="#84BE84" rx="2.4" ry="2.4" style="stroke:#038048;stroke-width:0.8000000000000002;"/><text fill="#000000" font-family="sans-serif" font-size="11.2" lengthAdjust="spacing" textLength="421.6" x="181.6" y="108">displayAnnouncements(type of business, type of property, number of rooms)</text><ellipse cx="174.4" cy="118.1578" fill="#84BE84" rx="2.4" ry="2.4" style="stroke:#038048;stroke-width:0.8000000000000002;"/><text fill="#000000" font-family="sans-serif" font-size="11.2" lengthAdjust="spacing" textLength="124" x="181.6" y="121.1906">sortPropertiesByPrice()</text><ellipse cx="174.4" cy="131.3484" fill="#84BE84" rx="2.4" ry="2.4" style="stroke:#038048;stroke-width:0.8000000000000002;"/><text fill="#000000" font-family="sans-serif" font-size="11.2" lengthAdjust="spacing" textLength="149.6" x="181.6" y="134.3813">sortPropertiesByCityName()</text><ellipse cx="174.4" cy="144.5391" fill="#84BE84" rx="2.4" ry="2.4" style="stroke:#038048;stroke-width:0.8000000000000002;"/><text fill="#000000" font-family="sans-serif" font-size="11.2" lengthAdjust="spacing" textLength="156" x="181.6" y="147.5719">sortPropertiesByStateName()</text></g><!--class DisplayPropertiesUI--><g id="elem_DisplayPropertiesUI"><rect codeLine="78" fill="#F1F1F1" height="38.4" id="DisplayPropertiesUI" rx="2" ry="2" style="stroke:#181818;stroke-width:0.4000000000000001;" width="132" x="5.6" y="75.1906"/><ellipse cx="17.6" cy="87.9906" fill="#ADD1B2" rx="8.8" ry="8.8" style="stroke:#181818;stroke-width:0.8000000000000002;"/><path d="M19.9785,92.5051 Q19.5137,92.7441 19.0023,92.8637 Q18.491,92.9832 17.9266,92.9832 Q15.9211,92.9832 14.8652,91.6617 Q13.8094,90.3402 13.8094,87.8434 Q13.8094,85.3398 14.8652,84.0184 Q15.9211,82.6969 17.9266,82.6969 Q18.491,82.6969 19.009,82.8164 Q19.527,82.9359 19.9785,83.175 L19.9785,85.3531 Q19.4738,84.8883 18.999,84.6725 Q18.5242,84.4566 18.0195,84.4566 Q16.9438,84.4566 16.3959,85.31 Q15.848,86.1633 15.848,87.8434 Q15.848,89.5168 16.3959,90.3701 Q16.9438,91.2234 18.0195,91.2234 Q18.5242,91.2234 18.999,91.0076 Q19.4738,90.7918 19.9785,90.327 Z " fill="#000000"/><text fill="#000000" font-family="sans-serif" font-size="11.2" lengthAdjust="spacing" textLength="106.4" x="28.8" y="92.2234">DisplayPropertiesUI</text><line style="stroke:#181818;stroke-width:0.4000000000000001;" x1="6.4" x2="136.8" y1="100.7906" y2="100.7906"/><line style="stroke:#181818;stroke-width:0.4000000000000001;" x1="6.4" x2="136.8" y1="107.1906" y2="107.1906"/></g><!--class District--><g id="elem_District"><rect codeLine="83" fill="#F1F1F1" height="104.3531" id="District" rx="2" ry="2" style="stroke:#181818;stroke-width:0.4000000000000001;" width="125.6" x="897.6" y="904.7906"/><ellipse cx="937.8" cy="917.5906" fill="#ADD1B2" rx="8.8" ry="8.8" style="stroke:#181818;stroke-width:0.8000000000000002;"/><path d="M940.1785,922.1051 Q939.7137,922.3441 939.2023,922.4637 Q938.691,922.5832 938.1266,922.5832 Q936.1211,922.5832 935.0652,921.2617 Q934.0094,919.9402 934.0094,917.4434 Q934.0094,914.9398 935.0652,913.6184 Q936.1211,912.2969 938.1266,912.2969 Q938.691,912.2969 939.209,912.4164 Q939.727,912.5359 940.1785,912.775 L940.1785,914.9531 Q939.6738,914.4883 939.199,914.2725 Q938.7242,914.0566 938.2195,914.0566 Q937.1438,914.0566 936.5959,914.91 Q936.048,915.7633 936.048,917.4434 Q936.048,919.1168 936.5959,919.9701 Q937.1438,920.8234 938.2195,920.8234 Q938.7242,920.8234 939.199,920.6076 Q939.6738,920.3918 940.1785,919.927 Z " fill="#000000"/><text fill="#000000" font-family="sans-serif" font-size="11.2" lengthAdjust="spacing" textLength="38.4" x="954.2" y="921.8234">District</text><line style="stroke:#181818;stroke-width:0.4000000000000001;" x1="898.4" x2="1022.4" y1="930.3906" y2="930.3906"/><rect fill="none" height="4.8" style="stroke:#C82930;stroke-width:0.8000000000000002;" width="4.8" x="904" y="938.9859"/><text fill="#000000" font-family="sans-serif" font-size="11.2" lengthAdjust="spacing" textLength="104.8" x="913.6" y="944.4188">String districtName</text><rect fill="none" height="4.8" style="stroke:#C82930;stroke-width:0.8000000000000002;" width="4.8" x="904" y="952.1766"/><text fill="#000000" font-family="sans-serif" font-size="11.2" lengthAdjust="spacing" textLength="91.2" x="913.6" y="957.6094">List &lt;City&gt; cities</text><line style="stroke:#181818;stroke-width:0.4000000000000001;" x1="898.4" x2="1022.4" y1="963.1719" y2="963.1719"/><ellipse cx="906.4" cy="974.1672" fill="#84BE84" rx="2.4" ry="2.4" style="stroke:#038048;stroke-width:0.8000000000000002;"/><text fill="#000000" font-family="sans-serif" font-size="11.2" lengthAdjust="spacing" textLength="95.2" x="913.6" y="977.2">getDistrictName()</text><ellipse cx="906.4" cy="987.3578" fill="#84BE84" rx="2.4" ry="2.4" style="stroke:#038048;stroke-width:0.8000000000000002;"/><text fill="#000000" font-family="sans-serif" font-size="11.2" lengthAdjust="spacing" textLength="56" x="913.6" y="990.3906">getCities()</text><ellipse cx="906.4" cy="1000.5484" fill="#84BE84" rx="2.4" ry="2.4" style="stroke:#038048;stroke-width:0.8000000000000002;"/><text fill="#000000" font-family="sans-serif" font-size="11.2" lengthAdjust="spacing" textLength="52" x="913.6" y="1003.5813">toString()</text></g><!--class Property--><g id="elem_Property"><rect codeLine="109" fill="#F1F1F1" height="104.3531" id="Property" rx="2" ry="2" style="stroke:#181818;stroke-width:0.4000000000000001;" width="258.4" x="560" y="725.9906"/><ellipse cx="662.6" cy="738.7906" fill="#ADD1B2" rx="8.8" ry="8.8" style="stroke:#181818;stroke-width:0.8000000000000002;"/><path d="M664.9785,743.3051 Q664.5137,743.5441 664.0023,743.6637 Q663.491,743.7832 662.9266,743.7832 Q660.9211,743.7832 659.8652,742.4617 Q658.8094,741.1402 658.8094,738.6434 Q658.8094,736.1398 659.8652,734.8184 Q660.9211,733.4969 662.9266,733.4969 Q663.491,733.4969 664.009,733.6164 Q664.527,733.7359 664.9785,733.975 L664.9785,736.1531 Q664.4738,735.6883 663.999,735.4725 Q663.5242,735.2566 663.0195,735.2566 Q661.9438,735.2566 661.3959,736.11 Q660.848,736.9633 660.848,738.6434 Q660.848,740.3168 661.3959,741.1701 Q661.9438,742.0234 663.0195,742.0234 Q663.5242,742.0234 663.999,741.8076 Q664.4738,741.5918 664.9785,741.127 Z " fill="#000000"/><text fill="#000000" font-family="sans-serif" font-size="11.2" lengthAdjust="spacing" textLength="46.4" x="679" y="743.0234">Property</text><line style="stroke:#181818;stroke-width:0.4000000000000001;" x1="560.8" x2="817.6" y1="751.5906" y2="751.5906"/><rect fill="none" height="4.8" style="stroke:#C82930;stroke-width:0.8000000000000002;" width="4.8" x="566.4" y="760.1859"/><text fill="#000000" font-family="sans-serif" font-size="11.2" lengthAdjust="spacing" textLength="65.6" x="576" y="765.6188">double area</text><rect fill="none" height="4.8" style="stroke:#C82930;stroke-width:0.8000000000000002;" width="4.8" x="566.4" y="773.3766"/><text fill="#000000" font-family="sans-serif" font-size="11.2" lengthAdjust="spacing" textLength="170.4" x="576" y="778.8094">int distanceFromTheCityCenter</text><rect fill="none" height="4.8" style="stroke:#C82930;stroke-width:0.8000000000000002;" width="4.8" x="566.4" y="786.5672"/><text fill="#000000" font-family="sans-serif" font-size="11.2" lengthAdjust="spacing" textLength="118.4" x="576" y="792">String typeOfProperty</text><line style="stroke:#181818;stroke-width:0.4000000000000001;" x1="560.8" x2="817.6" y1="797.5625" y2="797.5625"/><ellipse cx="568.8" cy="808.5578" fill="#84BE84" rx="2.4" ry="2.4" style="stroke:#038048;stroke-width:0.8000000000000002;"/><text fill="#000000" font-family="sans-serif" font-size="11.2" lengthAdjust="spacing" textLength="237.6" x="576" y="811.5906">Property(area, distanceFromTheCityCenter)</text><ellipse cx="568.8" cy="821.7484" fill="#84BE84" rx="2.4" ry="2.4" style="stroke:#038048;stroke-width:0.8000000000000002;"/><text fill="#000000" font-family="sans-serif" font-size="11.2" lengthAdjust="spacing" textLength="70.4" x="576" y="824.7813">getAddress()</text></g><!--class PublishedAnnouncement--><g id="elem_PublishedAnnouncement"><rect codeLine="119" fill="#F1F1F1" height="104.3531" id="PublishedAnnouncement" rx="2" ry="2" style="stroke:#181818;stroke-width:0.4000000000000001;" width="262.4" x="271.6" y="420.3906"/><ellipse cx="330.6" cy="433.1906" fill="#ADD1B2" rx="8.8" ry="8.8" style="stroke:#181818;stroke-width:0.8000000000000002;"/><path d="M332.9785,437.7051 Q332.5137,437.9441 332.0023,438.0637 Q331.491,438.1832 330.9266,438.1832 Q328.9211,438.1832 327.8652,436.8617 Q326.8094,435.5402 326.8094,433.0434 Q326.8094,430.5398 327.8652,429.2184 Q328.9211,427.8969 330.9266,427.8969 Q331.491,427.8969 332.009,428.0164 Q332.527,428.1359 332.9785,428.375 L332.9785,430.5531 Q332.4738,430.0883 331.999,429.8725 Q331.5242,429.6566 331.0195,429.6566 Q329.9438,429.6566 329.3959,430.51 Q328.848,431.3633 328.848,433.0434 Q328.848,434.7168 329.3959,435.5701 Q329.9438,436.4234 331.0195,436.4234 Q331.5242,436.4234 331.999,436.2076 Q332.4738,435.9918 332.9785,435.527 Z " fill="#000000"/><text fill="#000000" font-family="sans-serif" font-size="11.2" lengthAdjust="spacing" textLength="137.6" x="347" y="437.4234">PublishedAnnouncement</text><line style="stroke:#181818;stroke-width:0.4000000000000001;" x1="272.4" x2="533.2" y1="445.9906" y2="445.9906"/><rect fill="none" height="4.8" style="stroke:#C82930;stroke-width:0.8000000000000002;" width="4.8" x="278" y="454.5859"/><text fill="#000000" font-family="sans-serif" font-size="11.2" lengthAdjust="spacing" textLength="91.2" x="287.6" y="460.0188">String initialDate</text><rect fill="none" height="4.8" style="stroke:#C82930;stroke-width:0.8000000000000002;" width="4.8" x="278" y="467.7766"/><text fill="#000000" font-family="sans-serif" font-size="11.2" lengthAdjust="spacing" textLength="84.8" x="287.6" y="473.2094">String finalDate</text><line style="stroke:#181818;stroke-width:0.4000000000000001;" x1="272.4" x2="533.2" y1="478.7719" y2="478.7719"/><ellipse cx="280.4" cy="489.7672" fill="#84BE84" rx="2.4" ry="2.4" style="stroke:#038048;stroke-width:0.8000000000000002;"/><text fill="#000000" font-family="sans-serif" font-size="11.2" lengthAdjust="spacing" textLength="72.8" x="287.6" y="492.8">getBusiness()</text><ellipse cx="280.4" cy="502.9578" fill="#84BE84" rx="2.4" ry="2.4" style="stroke:#038048;stroke-width:0.8000000000000002;"/><text fill="#000000" font-family="sans-serif" font-size="11.2" lengthAdjust="spacing" textLength="72" x="287.6" y="505.9906">getProperty()</text><ellipse cx="280.4" cy="516.1484" fill="#84BE84" rx="2.4" ry="2.4" style="stroke:#038048;stroke-width:0.8000000000000002;"/><text fill="#000000" font-family="sans-serif" font-size="11.2" lengthAdjust="spacing" textLength="241.6" x="287.6" y="519.1813">compare(announcement1, announcement2)</text></g><!--class PublishedAnnouncementRepository--><g id="elem_PublishedAnnouncementRepository"><rect codeLine="128" fill="#F1F1F1" height="157.1156" id="PublishedAnnouncementRepository" rx="2" ry="2" style="stroke:#181818;stroke-width:0.4000000000000001;" width="469.6" x="544" y="214.7906"/><ellipse cx="677.4" cy="227.5906" fill="#ADD1B2" rx="8.8" ry="8.8" style="stroke:#181818;stroke-width:0.8000000000000002;"/><path d="M679.7785,232.1051 Q679.3137,232.3441 678.8023,232.4637 Q678.291,232.5832 677.7266,232.5832 Q675.7211,232.5832 674.6652,231.2617 Q673.6094,229.9402 673.6094,227.4434 Q673.6094,224.9398 674.6652,223.6184 Q675.7211,222.2969 677.7266,222.2969 Q678.291,222.2969 678.809,222.4164 Q679.327,222.5359 679.7785,222.775 L679.7785,224.9531 Q679.2738,224.4883 678.799,224.2725 Q678.3242,224.0566 677.8195,224.0566 Q676.7438,224.0566 676.1959,224.91 Q675.648,225.7633 675.648,227.4434 Q675.648,229.1168 676.1959,229.9701 Q676.7438,230.8234 677.8195,230.8234 Q678.3242,230.8234 678.799,230.6076 Q679.2738,230.3918 679.7785,229.927 Z " fill="#000000"/><text fill="#000000" font-family="sans-serif" font-size="11.2" lengthAdjust="spacing" textLength="196" x="693.8" y="231.8234">PublishedAnnouncementRepository</text><line style="stroke:#181818;stroke-width:0.4000000000000001;" x1="544.8" x2="1012.8" y1="240.3906" y2="240.3906"/><rect fill="none" height="4.8" style="stroke:#C82930;stroke-width:0.8000000000000002;" width="4.8" x="550.4" y="248.9859"/><text fill="#000000" font-family="sans-serif" font-size="11.2" lengthAdjust="spacing" textLength="348.8" x="560" y="254.4188">ArrayList&lt;PublishedAnnouncement&gt; publishedannouncements</text><line style="stroke:#181818;stroke-width:0.4000000000000001;" x1="544.8" x2="1012.8" y1="259.9813" y2="259.9813"/><ellipse cx="552.8" cy="270.9766" fill="#84BE84" rx="2.4" ry="2.4" style="stroke:#038048;stroke-width:0.8000000000000002;"/><text fill="#000000" font-family="sans-serif" font-size="11.2" lengthAdjust="spacing" textLength="448.8" x="560" y="274.0094">getPublishedAnnouncement(type of property, type of business, number of rooms)</text><ellipse cx="552.8" cy="284.1672" fill="#84BE84" rx="2.4" ry="2.4" style="stroke:#038048;stroke-width:0.8000000000000002;"/><text fill="#000000" font-family="sans-serif" font-size="11.2" lengthAdjust="spacing" textLength="163.2" x="560" y="287.2">getPublishedAnnouncement()</text><ellipse cx="552.8" cy="297.3578" fill="#84BE84" rx="2.4" ry="2.4" style="stroke:#038048;stroke-width:0.8000000000000002;"/><text fill="#000000" font-family="sans-serif" font-size="11.2" lengthAdjust="spacing" textLength="181.6" x="560" y="300.3906">sortPropertiesByAscendingPrice()</text><ellipse cx="552.8" cy="310.5484" fill="#84BE84" rx="2.4" ry="2.4" style="stroke:#038048;stroke-width:0.8000000000000002;"/><text fill="#000000" font-family="sans-serif" font-size="11.2" lengthAdjust="spacing" textLength="188" x="560" y="313.5813">sortPropertiesByDescendingPrice()</text><ellipse cx="552.8" cy="323.7391" fill="#84BE84" rx="2.4" ry="2.4" style="stroke:#038048;stroke-width:0.8000000000000002;"/><text fill="#000000" font-family="sans-serif" font-size="11.2" lengthAdjust="spacing" textLength="207.2" x="560" y="326.7719">sortPropertiesByAscendingCityName()</text><ellipse cx="552.8" cy="336.9297" fill="#84BE84" rx="2.4" ry="2.4" style="stroke:#038048;stroke-width:0.8000000000000002;"/><text fill="#000000" font-family="sans-serif" font-size="11.2" lengthAdjust="spacing" textLength="213.6" x="560" y="339.9625">sortPropertiesByDescendingCityName()</text><ellipse cx="552.8" cy="350.1203" fill="#84BE84" rx="2.4" ry="2.4" style="stroke:#038048;stroke-width:0.8000000000000002;"/><text fill="#000000" font-family="sans-serif" font-size="11.2" lengthAdjust="spacing" textLength="213.6" x="560" y="353.1531">sortPropertiesByAscendingStateName()</text><ellipse cx="552.8" cy="363.3109" fill="#84BE84" rx="2.4" ry="2.4" style="stroke:#038048;stroke-width:0.8000000000000002;"/><text fill="#000000" font-family="sans-serif" font-size="11.2" lengthAdjust="spacing" textLength="220" x="560" y="366.3438">sortPropertiesByDescendingStateName()</text></g><!--class Repositories--><g id="elem_Repositories"><rect codeLine="152" fill="#F1F1F1" height="77.9719" id="Repositories" rx="2" ry="2" style="stroke:#181818;stroke-width:0.4000000000000001;" width="242.4" x="697.6" y="55.5906"/><ellipse cx="781.4" cy="68.3906" fill="#ADD1B2" rx="8.8" ry="8.8" style="stroke:#181818;stroke-width:0.8000000000000002;"/><path d="M783.7785,72.9051 Q783.3137,73.1441 782.8023,73.2637 Q782.291,73.3832 781.7266,73.3832 Q779.7211,73.3832 778.6652,72.0617 Q777.6094,70.7402 777.6094,68.2434 Q777.6094,65.7398 778.6652,64.4184 Q779.7211,63.0969 781.7266,63.0969 Q782.291,63.0969 782.809,63.2164 Q783.327,63.3359 783.7785,63.575 L783.7785,65.7531 Q783.2738,65.2883 782.799,65.0725 Q782.3242,64.8566 781.8195,64.8566 Q780.7438,64.8566 780.1959,65.71 Q779.648,66.5633 779.648,68.2434 Q779.648,69.9168 780.1959,70.7701 Q780.7438,71.6234 781.8195,71.6234 Q782.3242,71.6234 782.799,71.4076 Q783.2738,71.1918 783.7785,70.727 Z " fill="#000000"/><text fill="#000000" font-family="sans-serif" font-size="11.2" lengthAdjust="spacing" textLength="68" x="797.8" y="72.6234">Repositories</text><line style="stroke:#181818;stroke-width:0.4000000000000001;" x1="698.4" x2="939.2" y1="81.1906" y2="81.1906"/><line style="stroke:#181818;stroke-width:0.4000000000000001;" x1="698.4" x2="939.2" y1="87.5906" y2="87.5906"/><rect fill="#F24D5C" height="4.8" style="stroke:#C82930;stroke-width:0.8000000000000002;" width="4.8" x="704" y="96.1859"/><text fill="#000000" font-family="sans-serif" font-size="11.2" lengthAdjust="spacing" textLength="76" x="713.6" y="101.6188">Repositories()</text><ellipse cx="706.4" cy="111.7766" fill="#84BE84" rx="2.4" ry="2.4" style="stroke:#038048;stroke-width:0.8000000000000002;"/><text fill="#000000" font-family="sans-serif" font-size="11.2" lengthAdjust="spacing" textLength="142.4" x="713.6" y="114.8094">getInstance():Repositories</text><ellipse cx="706.4" cy="124.9672" fill="#84BE84" rx="2.4" ry="2.4" style="stroke:#038048;stroke-width:0.8000000000000002;"/><text fill="#000000" font-family="sans-serif" font-size="11.2" lengthAdjust="spacing" textLength="221.6" x="713.6" y="128">getPublishedAnnouncementRepository()</text></g><!--class State--><g id="elem_State"><rect codeLine="168" fill="#F1F1F1" height="104.3531" id="State" rx="2" ry="2" style="stroke:#181818;stroke-width:0.4000000000000001;" width="144.8" x="845.6" y="573.1906"/><ellipse cx="901" cy="585.9906" fill="#ADD1B2" rx="8.8" ry="8.8" style="stroke:#181818;stroke-width:0.8000000000000002;"/><path d="M903.3785,590.5051 Q902.9137,590.7441 902.4023,590.8637 Q901.891,590.9832 901.3266,590.9832 Q899.3211,590.9832 898.2652,589.6617 Q897.2094,588.3402 897.2094,585.8434 Q897.2094,583.3398 898.2652,582.0184 Q899.3211,580.6969 901.3266,580.6969 Q901.891,580.6969 902.409,580.8164 Q902.927,580.9359 903.3785,581.175 L903.3785,583.3531 Q902.8738,582.8883 902.399,582.6725 Q901.9242,582.4566 901.4195,582.4566 Q900.3438,582.4566 899.7959,583.31 Q899.248,584.1633 899.248,585.8434 Q899.248,587.5168 899.7959,588.3701 Q900.3438,589.2234 901.4195,589.2234 Q901.9242,589.2234 902.399,589.0076 Q902.8738,588.7918 903.3785,588.327 Z " fill="#000000"/><text fill="#000000" font-family="sans-serif" font-size="11.2" lengthAdjust="spacing" textLength="27.2" x="917.4" y="590.2234">State</text><line style="stroke:#181818;stroke-width:0.4000000000000001;" x1="846.4" x2="989.6" y1="598.7906" y2="598.7906"/><rect fill="none" height="4.8" style="stroke:#C82930;stroke-width:0.8000000000000002;" width="4.8" x="852" y="607.3859"/><text fill="#000000" font-family="sans-serif" font-size="11.2" lengthAdjust="spacing" textLength="93.6" x="861.6" y="612.8188">String stateName</text><rect fill="none" height="4.8" style="stroke:#C82930;stroke-width:0.8000000000000002;" width="4.8" x="852" y="620.5766"/><text fill="#000000" font-family="sans-serif" font-size="11.2" lengthAdjust="spacing" textLength="124" x="861.6" y="626.0094">List &lt;District&gt; districts</text><line style="stroke:#181818;stroke-width:0.4000000000000001;" x1="846.4" x2="989.6" y1="631.5719" y2="631.5719"/><ellipse cx="854.4" cy="642.5672" fill="#84BE84" rx="2.4" ry="2.4" style="stroke:#038048;stroke-width:0.8000000000000002;"/><text fill="#000000" font-family="sans-serif" font-size="11.2" lengthAdjust="spacing" textLength="52.8" x="861.6" y="645.6">getState()</text><ellipse cx="854.4" cy="655.7578" fill="#84BE84" rx="2.4" ry="2.4" style="stroke:#038048;stroke-width:0.8000000000000002;"/><text fill="#000000" font-family="sans-serif" font-size="11.2" lengthAdjust="spacing" textLength="69.6" x="861.6" y="658.7906">getDistricts()</text><ellipse cx="854.4" cy="668.9484" fill="#84BE84" rx="2.4" ry="2.4" style="stroke:#038048;stroke-width:0.8000000000000002;"/><text fill="#000000" font-family="sans-serif" font-size="11.2" lengthAdjust="spacing" textLength="52" x="861.6" y="671.9813">toString()</text></g><!--link State to Address--><g id="link_State_Address"><path codeLine="193" d="M896.4,677.4706 C871.04,737.9026 832.4,829.9906 832.4,829.9906 C832.4,829.9906 807.016,860.5106 781.232,891.5106 " fill="none" id="State-Address" style="stroke:#181818;stroke-width:0.8000000000000002;"/><polygon fill="#000000" points="877.7047,781.6373,883.2038,776.3792,879.0629,774.1511,877.7047,781.6373" style="stroke:#000000;stroke-width:0.8000000000000002;"/><text fill="#000000" font-family="sans-serif" font-size="10.4" lengthAdjust="spacing" textLength="17.6" x="886.8" y="782.0453">has</text><text fill="#000000" font-family="sans-serif" font-size="10.4" lengthAdjust="spacing" textLength="6.4" x="887.2875" y="693.894">1</text><text fill="#000000" font-family="sans-serif" font-size="10.4" lengthAdjust="spacing" textLength="4.8" x="781.155" y="882.9902">*</text></g><!--link DisplayPropertiesController to Repositories--><g id="link_DisplayPropertiesController_Repositories"><path codeLine="196" d="M608.176,94.3906 C637.072,94.3906 665.84,94.3906 692.408,94.3906 " fill="none" id="DisplayPropertiesController-to-Repositories" style="stroke:#181818;stroke-width:0.8000000000000002;stroke-dasharray:7.0,7.0;"/><polygon fill="#181818" points="696.128,94.3906,688.928,91.1906,692.128,94.3906,688.928,97.5906,696.128,94.3906" style="stroke:#181818;stroke-width:0.8000000000000002;"/><text fill="#000000" font-family="sans-serif" font-size="10.4" lengthAdjust="spacing" textLength="60" x="622.8" y="89.2453">repositories</text></g><!--link DisplayPropertiesController to PublishedAnnouncementRepository--><g id="link_DisplayPropertiesController_PublishedAnnouncementRepository"><path codeLine="197" d="M502.824,153.5586 C539.344,171.9266 580.336,192.5506 619.328,212.1666 " fill="none" id="DisplayPropertiesController-to-PublishedAnnouncementRepository" style="stroke:#181818;stroke-width:0.8000000000000002;stroke-dasharray:7.0,7.0;"/><polygon fill="#181818" points="622.744,213.8866,617.743,207.7981,619.1686,212.0932,614.8735,213.5188,622.744,213.8866" style="stroke:#181818;stroke-width:0.8000000000000002;"/><text fill="#000000" font-family="sans-serif" font-size="10.4" lengthAdjust="spacing" textLength="178.4" x="572.4" y="188.0453">PublishedAnnouncementRepository</text></g><!--link DisplayPropertiesController to PublishedAnnouncement--><g id="link_DisplayPropertiesController_PublishedAnnouncement"><path codeLine="198" d="M389.28,153.5906 C392.312,224.8066 397.392,344.3586 400.384,414.8226 " fill="none" id="DisplayPropertiesController-to-PublishedAnnouncement" style="stroke:#181818;stroke-width:0.8000000000000002;stroke-dasharray:7.0,7.0;"/><polygon fill="#181818" points="400.56,418.8066,403.4488,411.4762,400.3887,414.8103,397.0546,411.7502,400.56,418.8066" style="stroke:#181818;stroke-width:0.8000000000000002;"/><text fill="#000000" font-family="sans-serif" font-size="10.4" lengthAdjust="spacing" textLength="127.2" x="399.6" y="297.2453">published announcement</text></g><!--link DisplayPropertiesUI to DisplayPropertiesController--><g id="link_DisplayPropertiesUI_DisplayPropertiesController"><path codeLine="199" d="M137.84,94.3906 C146.168,94.3906 153.992,94.3906 160.416,94.3906 " fill="none" id="DisplayPropertiesUI-to-DisplayPropertiesController" style="stroke:#181818;stroke-width:0.8000000000000002;stroke-dasharray:7.0,7.0;"/><polygon fill="#181818" points="164.24,94.3906,157.04,91.1906,160.24,94.3906,157.04,97.5906,164.24,94.3906" style="stroke:#181818;stroke-width:0.8000000000000002;"/></g><!--link District to City--><g id="link_District_City"><path codeLine="200" d="M960.4,1009.0786 C960.4,1047.9106 960.4,1099.9506 960.4,1132.9346 " fill="none" id="District-City" style="stroke:#181818;stroke-width:0.8000000000000002;"/><polygon fill="#000000" points="964.4,1073.7148,962.0489,1080.9509,966.7511,1080.9509,964.4,1073.7148" style="stroke:#000000;stroke-width:0.8000000000000002;"/><text fill="#000000" font-family="sans-serif" font-size="10.4" lengthAdjust="spacing" textLength="17.6" x="971.6" y="1081.6453">has</text><text fill="#000000" font-family="sans-serif" font-size="10.4" lengthAdjust="spacing" textLength="6.4" x="953.65" y="1025.5028">1</text><text fill="#000000" font-family="sans-serif" font-size="10.4" lengthAdjust="spacing" textLength="4.8" x="955.2025" y="1124.609">*</text></g><!--link Property to Address--><g id="link_Property_Address"><path codeLine="205" d="M700.36,830.2786 C704.496,849.3906 709.248,871.3106 713.608,891.4386 " fill="none" id="Property-Address" style="stroke:#181818;stroke-width:0.8000000000000002;"/><polygon fill="#000000" points="711.5532,857.0055,710.7872,864.5753,715.3829,863.5798,711.5532,857.0055" style="stroke:#000000;stroke-width:0.8000000000000002;"/><text fill="#000000" font-family="sans-serif" font-size="10.4" lengthAdjust="spacing" textLength="17.6" x="719.6" y="864.8453">has</text><text fill="#000000" font-family="sans-serif" font-size="10.4" lengthAdjust="spacing" textLength="4.8" x="696.5181" y="846.7028">*</text><text fill="#000000" font-family="sans-serif" font-size="10.4" lengthAdjust="spacing" textLength="6.4" x="705.6231" y="882.9116">1</text></g><!--link PublishedAnnouncement to Property--><g id="link_PublishedAnnouncement_Property"><path codeLine="208" d="M451.384,524.7586 C504.128,580.7426 587.872,669.6386 640.616,725.6226 " fill="none" id="PublishedAnnouncement-Property" style="stroke:#181818;stroke-width:0.8000000000000002;"/><polygon fill="#000000" points="601.5429,628.2263,598.2923,621.3472,594.8697,624.5716,601.5429,628.2263" style="stroke:#000000;stroke-width:0.8000000000000002;"/><text fill="#000000" font-family="sans-serif" font-size="10.4" lengthAdjust="spacing" textLength="51.2" x="606" y="629.2453">advertises</text><text fill="#000000" font-family="sans-serif" font-size="10.4" lengthAdjust="spacing" textLength="6.4" x="449.9479" y="541.1916">1</text><text fill="#000000" font-family="sans-serif" font-size="10.4" lengthAdjust="spacing" textLength="6.4" x="628.5521" y="717.2876">1</text></g><!--link PublishedAnnouncementRepository to PublishedAnnouncement--><g id="link_PublishedAnnouncementRepository_PublishedAnnouncement"><path codeLine="209" d="M613.88,371.8866 C580.968,387.4306 547.096,403.4306 516.384,417.9346 " fill="none" id="PublishedAnnouncementRepository-to-PublishedAnnouncement" style="stroke:#181818;stroke-width:0.8000000000000002;"/><polygon fill="#181818" points="512.976,419.5506,520.8529,419.3636,516.5916,417.8398,518.1155,413.5785,512.976,419.5506" style="stroke:#181818;stroke-width:0.8000000000000002;"/><text fill="#000000" font-family="sans-serif" font-size="10.4" lengthAdjust="spacing" textLength="6.4" x="594.6083" y="388.4233">1</text><text fill="#000000" font-family="sans-serif" font-size="10.4" lengthAdjust="spacing" textLength="4.8" x="518.7481" y="411.7408">*</text></g><!--link PublishedAnnouncement to Business--><g id="link_PublishedAnnouncement_Business"><path codeLine="210" d="M364.256,524.7586 C318.936,585.4066 244.76,684.6546 204.232,738.8786 " fill="none" id="PublishedAnnouncement-Business" style="stroke:#181818;stroke-width:0.8000000000000002;"/><text fill="#000000" font-family="sans-serif" font-size="10.4" lengthAdjust="spacing" textLength="6.4" x="353.2903" y="541.1916">1</text><text fill="#000000" font-family="sans-serif" font-size="10.4" lengthAdjust="spacing" textLength="6.4" x="201.4084" y="730.5808">1</text></g><!--link PublishedAnnouncement to Comparator--><g id="link_PublishedAnnouncement_Comparator"><path codeLine="211" d="M402.8,524.7586 C402.8,588.6306 402.8,695.3266 402.8,747.1346 " fill="none" id="PublishedAnnouncement-to-Comparator" style="stroke:#181818;stroke-width:0.8000000000000002;"/><polygon fill="#181818" points="402.8,751.0626,406,743.8626,402.8,747.0626,399.6,743.8626,402.8,751.0626" style="stroke:#181818;stroke-width:0.8000000000000002;"/><text fill="#000000" font-family="sans-serif" font-size="10.4" lengthAdjust="spacing" textLength="59.2" x="403.6" y="629.2453">implements</text></g><!--link Repositories to PublishedAnnouncementRepository--><g id="link_Repositories_PublishedAnnouncementRepository"><path codeLine="213" d="M811.04,133.4466 C806.648,155.1186 800.968,183.1026 795.608,209.5346 " fill="none" id="Repositories-to-PublishedAnnouncementRepository" style="stroke:#181818;stroke-width:0.8000000000000002;"/><polygon fill="#181818" points="794.848,213.2706,799.4051,206.8431,795.6369,209.3492,793.1308,205.5809,794.848,213.2706" style="stroke:#181818;stroke-width:0.8000000000000002;"/><text fill="#000000" font-family="sans-serif" font-size="10.4" lengthAdjust="spacing" textLength="6.4" x="789.1339" y="206.284">1</text></g><!--link Repositories to Repositories--><g id="link_Repositories_Repositories"><path codeLine="214" d="M940.272,79.4466 C956.904,81.9266 968,86.9106 968,94.3906 C968,101.1106 959.048,105.8146 945.16,108.5026 " fill="none" id="Repositories-to-Repositories" style="stroke:#181818;stroke-width:0.8000000000000002;"/><polygon fill="#181818" points="941.464,109.1346,949.1004,111.0751,945.4068,108.4604,948.0216,104.7667,941.464,109.1346" style="stroke:#181818;stroke-width:0.8000000000000002;"/><text fill="#000000" font-family="sans-serif" font-size="10.4" lengthAdjust="spacing" textLength="42.4" x="972.8" y="98.4453">instance</text></g><!--link State to District--><g id="link_State_District"><path codeLine="218" d="M924.624,677.5506 C932.576,739.4546 945.84,842.6546 953.784,904.5186 " fill="none" id="State-District" style="stroke:#181818;stroke-width:0.8000000000000002;"/><polygon fill="#000000" points="947.0903,774.1475,945.6804,781.6241,950.3443,781.0249,947.0903,774.1475" style="stroke:#000000;stroke-width:0.8000000000000002;"/><text fill="#000000" font-family="sans-serif" font-size="10.4" lengthAdjust="spacing" textLength="17.6" x="954.8" y="782.0453">has</text><text fill="#000000" font-family="sans-serif" font-size="10.4" lengthAdjust="spacing" textLength="6.4" x="918.5985" y="693.9827">1</text><text fill="#000000" font-family="sans-serif" font-size="10.4" lengthAdjust="spacing" textLength="4.8" x="947.9979" y="896.1941">*</text></g><!--SRC=[dLTBR-Cs4BxpLn2vI6di9kdH20mapYuQOD4ruaqBzCP8Ovk8B6f9AbttyTyx94MAUjZQrfV4m-7Cy9jl7jPS5q1VDZStjtHELmLJYZvojfFiG0XHRxoi6FvFAvQziHriz17L9MIQbRi28WMrPxduWvSxkcM5YayANe8-La0hKHpD5qAIaLCXjOWF3g8KsLwA0r0jQo190LjDjQ2Ix_QQvjn4mKL9p2UpWT_dkGJy-nUX-9dJZPOc8AKbWFw57Q2HyrBJFtcr4hcJ945rnVKnABRYZMOQhDmUNBs3vDlZxyv4Ukc4Ez3cUlJraQDhdkb8P2tvxqsygJB26Jx9gSzeXdPcJTmp7-eb-OUGwwHvwZlZ1NijuCFNcbS7m1VrNcr0_RmDnqtamtjfJz6uIQu3fW-rmWm5K16JNDIlbWHVQr0QyZN637H1Rwn2Fm1_tnysjojpoSMK65m-yf8LAt7WIc5E6u2IgumLMLqWEjR9Rrpl-peMLNkQMe1yt2OLVKWodzrEmep4tKLUWDmoV0rwCIpKGZOshcXcHP2oiXHrcO71wdP6uwy_sG1yYaAa8Gp_Tf0PQcCv1TJ2cQ42ptvbHUqElNEFmm2dJhAGS5N1Zcifq8Vce5QYr58K1RJlEAEJhZ46hlQGtqUlUePAA8vG71lQKeFucARdjM6oyH6VgTHL-PQ-DeoOKI-fN2n8-R8-l6AiA9D279Itfx0vj04_77s-nq-Zf8uhX79sQJ-1tSiJOcOp6XHiUVPPvSisQZ2VK4JlJ1nBGpeqHWPD8OxGCH7Ll40BPznpsdFgPr4h204y2540AobyGvk0G6EvCMNXHlAuFdnIywdSirUkJI_u9BRj1HU0TPIE69wTiH7OU9qqcAttGej1GtvvVceq6wqc__r2mN9ZKSisG3Fq-n67mfSz67XNO4hMTwPj8PXkMijOB_9-V5NvxwbnD3jjF-eqlcL7n1ajXVwJUOdvPSKZ4gzxi3K5RSLjSVcUcSO5vsEz_0_zQ2hAjhH3lFTIigFXxzteZIMjl3ZsfAOwmx3KX-tWHF5FTfj-UTyhRAyvWdk-JJp2z-a5SvDzfRKugHgCnhreocgisuoQ9hlFCULihTGulN12VDxQziuo7KsJK_CscZDVX6P5ErQZ6HCuWy45bx4mPkrJwKeglLp4AXEPRMcPTfQUPr0yDvsdyrH76-nGa5lUH4ErSypq_jpvciatWp5kkg3YsHkyfdrFiw7nsRYz7eOsaSCrrI-PyH3nus8PvamqIphRP3HRJiqH3-IcBZzyGunh2SDf5lPgz_n8Dms7uJsDmPTImiwC1GdvYxBR1acCnoJiZtT_p-UMfuIuvr_SNj0voYv-k0YR-uBkcQ9BahJBarMpE__S_XyCBh05uXR5IxHDoBdLvyTbbxKBN5uZCavSdUgSYocD_-K0pOPEssdgP6nHGIjdd92mkiIOsmtP0Oxu9MwrC0TM0HLZbhHwOLYRXCxRwY3XmDcm9hfvlOjkXqYwAHrLyzb7kyr2uNao3brisrjQK9Q_6s0KdBmO9TMPM3gVOxhVuJhyz1bNdHlxqG-D1UM7gcZ6AUaGraPoUp59jEwb0Ujvqur9qdRIEE4ZFof3HjeRBk-MBcEb7BWMA4EIGNkmNkEqZZriuNz7c8Jz2m00]--></g></svg>