<?xml version="1.0" encoding="UTF-8" standalone="no"?><svg xmlns="http://www.w3.org/2000/svg" xmlns:xlink="http://www.w3.org/1999/xlink" contentStyleType="text/css" height="878px" preserveAspectRatio="none" style="width:1774px;height:878px;background:#FFFFFF;" version="1.1" viewBox="0 0 1774 878" width="1774px" zoomAndPan="magnify"><defs/><g><rect fill="#FFFFFF" height="679.8125" style="stroke:#181818;stroke-width:1.0;" width="10" x="289" y="111.4688"/><rect fill="#FFFFFF" height="39.1563" style="stroke:#181818;stroke-width:1.0;" width="10" x="495" y="184.7813"/><rect fill="#FFFFFF" height="39.1563" style="stroke:#181818;stroke-width:1.0;" width="10" x="689" y="263.0938"/><rect fill="#FFFFFF" height="39.1563" style="stroke:#181818;stroke-width:1.0;" width="10" x="863" y="341.4063"/><rect fill="#FFFFFF" height="39.1563" style="stroke:#181818;stroke-width:1.0;" width="10" x="1150" y="419.7188"/><rect fill="#FFFFFF" height="168.7813" style="stroke:#181818;stroke-width:1.0;" width="10" x="1335" y="498.0313"/><rect fill="#FFFFFF" height="39.1563" style="stroke:#181818;stroke-width:1.0;" width="10" x="1678" y="581.5"/><rect fill="#FFFFFF" height="39.1563" style="stroke:#181818;stroke-width:1.0;" width="10" x="1678" y="705.9688"/><rect fill="none" height="626.6563" style="stroke:#000000;stroke-width:1.5;" width="1588" x="180" y="126.4688"/><rect fill="none" height="115.625" style="stroke:#000000;stroke-width:1.5;" width="538" x="1220" y="513.0313"/><line style="stroke:#181818;stroke-width:0.5;stroke-dasharray:5.0,5.0;" x1="294" x2="294" y1="70.3125" y2="809.2813"/><line style="stroke:#181818;stroke-width:0.5;stroke-dasharray:5.0,5.0;" x1="500" x2="500" y1="70.3125" y2="809.2813"/><line style="stroke:#181818;stroke-width:0.5;stroke-dasharray:5.0,5.0;" x1="694" x2="694" y1="70.3125" y2="809.2813"/><line style="stroke:#181818;stroke-width:0.5;stroke-dasharray:5.0,5.0;" x1="868" x2="868" y1="70.3125" y2="809.2813"/><line style="stroke:#181818;stroke-width:0.5;stroke-dasharray:5.0,5.0;" x1="1015" x2="1015" y1="70.3125" y2="809.2813"/><line style="stroke:#181818;stroke-width:0.5;stroke-dasharray:5.0,5.0;" x1="1155" x2="1155" y1="70.3125" y2="809.2813"/><line style="stroke:#181818;stroke-width:0.5;stroke-dasharray:5.0,5.0;" x1="1340" x2="1340" y1="70.3125" y2="809.2813"/><line style="stroke:#181818;stroke-width:0.5;stroke-dasharray:5.0,5.0;" x1="1683" x2="1683" y1="70.3125" y2="809.2813"/><rect fill="#E3E3E3" height="39.1563" rx="2.5" ry="2.5" style="stroke:#181818;stroke-width:0.5;" width="208" x="190" y="30.1563"/><text fill="#000000" font-family="sans-serif" font-size="20" lengthAdjust="spacing" textLength="194" x="197" y="57.918">:CreateTaskController</text><rect fill="#E3E3E3" height="39.1563" rx="2.5" ry="2.5" style="stroke:#181818;stroke-width:0.5;" width="208" x="190" y="808.2813"/><text fill="#000000" font-family="sans-serif" font-size="20" lengthAdjust="spacing" textLength="194" x="197" y="836.043">:CreateTaskController</text><rect fill="#E3E3E3" height="39.1563" rx="2.5" ry="2.5" style="stroke:#181818;stroke-width:0.5;" width="184" x="408" y="30.1563"/><text fill="#000000" font-family="sans-serif" font-size="20" lengthAdjust="spacing" textLength="170" x="415" y="57.918">:ApplicationSession</text><rect fill="#E3E3E3" height="39.1563" rx="2.5" ry="2.5" style="stroke:#181818;stroke-width:0.5;" width="184" x="408" y="808.2813"/><text fill="#000000" font-family="sans-serif" font-size="20" lengthAdjust="spacing" textLength="170" x="415" y="836.043">:ApplicationSession</text><rect fill="#E3E3E3" height="64.3125" rx="2.5" ry="2.5" style="stroke:#181818;stroke-width:0.5;" width="184" x="602" y="5"/><text fill="#000000" font-family="sans-serif" font-size="20" lengthAdjust="spacing" textLength="102" x="643" y="32.7617">appSession</text><text fill="#000000" font-family="sans-serif" font-size="20" lengthAdjust="spacing" textLength="170" x="609" y="57.918">:ApplicationSession</text><rect fill="#E3E3E3" height="64.3125" rx="2.5" ry="2.5" style="stroke:#181818;stroke-width:0.5;" width="184" x="602" y="808.2813"/><text fill="#000000" font-family="sans-serif" font-size="20" lengthAdjust="spacing" textLength="102" x="643" y="836.043">appSession</text><text fill="#000000" font-family="sans-serif" font-size="20" lengthAdjust="spacing" textLength="170" x="609" y="861.1992">:ApplicationSession</text><rect fill="#E3E3E3" height="64.3125" rx="2.5" ry="2.5" style="stroke:#181818;stroke-width:0.5;" width="144" x="796" y="5"/><text fill="#000000" font-family="sans-serif" font-size="20" lengthAdjust="spacing" textLength="130" x="803" y="32.7617">currentSession</text><text fill="#000000" font-family="sans-serif" font-size="20" lengthAdjust="spacing" textLength="116" x="810" y="57.918">:UserSession</text><rect fill="#E3E3E3" height="64.3125" rx="2.5" ry="2.5" style="stroke:#181818;stroke-width:0.5;" width="144" x="796" y="808.2813"/><text fill="#000000" font-family="sans-serif" font-size="20" lengthAdjust="spacing" textLength="130" x="803" y="836.043">currentSession</text><text fill="#000000" font-family="sans-serif" font-size="20" lengthAdjust="spacing" textLength="116" x="810" y="861.1992">:UserSession</text><rect fill="#E3E3E3" height="39.1563" rx="2.5" ry="2.5" style="stroke:#181818;stroke-width:0.5;" width="130" x="950" y="30.1563"/><text fill="#000000" font-family="sans-serif" font-size="20" lengthAdjust="spacing" textLength="116" x="957" y="57.918">:Repositories</text><rect fill="#E3E3E3" height="39.1563" rx="2.5" ry="2.5" style="stroke:#181818;stroke-width:0.5;" width="130" x="950" y="808.2813"/><text fill="#000000" font-family="sans-serif" font-size="20" lengthAdjust="spacing" textLength="116" x="957" y="836.043">:Repositories</text><rect fill="#E3E3E3" height="64.3125" rx="2.5" ry="2.5" style="stroke:#181818;stroke-width:0.5;" width="130" x="1090" y="5"/><text fill="#000000" font-family="sans-serif" font-size="20" lengthAdjust="spacing" textLength="103" x="1103.5" y="32.7617">repositories</text><text fill="#000000" font-family="sans-serif" font-size="20" lengthAdjust="spacing" textLength="116" x="1097" y="57.918">:Repositories</text><rect fill="#E3E3E3" height="64.3125" rx="2.5" ry="2.5" style="stroke:#181818;stroke-width:0.5;" width="130" x="1090" y="808.2813"/><text fill="#000000" font-family="sans-serif" font-size="20" lengthAdjust="spacing" textLength="103" x="1103.5" y="836.043">repositories</text><text fill="#000000" font-family="sans-serif" font-size="20" lengthAdjust="spacing" textLength="116" x="1097" y="861.1992">:Repositories</text><rect fill="#E3E3E3" height="64.3125" rx="2.5" ry="2.5" style="stroke:#181818;stroke-width:0.5;" width="220" x="1230" y="5"/><text fill="#000000" font-family="sans-serif" font-size="20" lengthAdjust="spacing" textLength="206" x="1237" y="32.7617">organizationRepository:</text><text fill="#000000" font-family="sans-serif" font-size="20" lengthAdjust="spacing" textLength="205" x="1237.5" y="57.918">OrganizationRepository</text><rect fill="#E3E3E3" height="64.3125" rx="2.5" ry="2.5" style="stroke:#181818;stroke-width:0.5;" width="220" x="1230" y="808.2813"/><text fill="#000000" font-family="sans-serif" font-size="20" lengthAdjust="spacing" textLength="206" x="1237" y="836.043">organizationRepository:</text><text fill="#000000" font-family="sans-serif" font-size="20" lengthAdjust="spacing" textLength="205" x="1237.5" y="861.1992">OrganizationRepository</text><rect fill="#E3E3E3" height="64.3125" rx="2.5" ry="2.5" style="stroke:#181818;stroke-width:0.5;" width="130" x="1618" y="5"/><text fill="#000000" font-family="sans-serif" font-size="20" lengthAdjust="spacing" textLength="105" x="1630.5" y="32.7617">organization</text><text fill="#000000" font-family="sans-serif" font-size="20" lengthAdjust="spacing" textLength="116" x="1625" y="57.918">:Organization</text><rect fill="#E3E3E3" height="64.3125" rx="2.5" ry="2.5" style="stroke:#181818;stroke-width:0.5;" width="130" x="1618" y="808.2813"/><text fill="#000000" font-family="sans-serif" font-size="20" lengthAdjust="spacing" textLength="105" x="1630.5" y="836.043">organization</text><text fill="#000000" font-family="sans-serif" font-size="20" lengthAdjust="spacing" textLength="116" x="1625" y="861.1992">:Organization</text><rect fill="#FFFFFF" height="679.8125" style="stroke:#181818;stroke-width:1.0;" width="10" x="289" y="111.4688"/><rect fill="#FFFFFF" height="39.1563" style="stroke:#181818;stroke-width:1.0;" width="10" x="495" y="184.7813"/><rect fill="#FFFFFF" height="39.1563" style="stroke:#181818;stroke-width:1.0;" width="10" x="689" y="263.0938"/><rect fill="#FFFFFF" height="39.1563" style="stroke:#181818;stroke-width:1.0;" width="10" x="863" y="341.4063"/><rect fill="#FFFFFF" height="39.1563" style="stroke:#181818;stroke-width:1.0;" width="10" x="1150" y="419.7188"/><rect fill="#FFFFFF" height="168.7813" style="stroke:#181818;stroke-width:1.0;" width="10" x="1335" y="498.0313"/><rect fill="#FFFFFF" height="39.1563" style="stroke:#181818;stroke-width:1.0;" width="10" x="1678" y="581.5"/><rect fill="#FFFFFF" height="39.1563" style="stroke:#181818;stroke-width:1.0;" width="10" x="1678" y="705.9688"/><polygon fill="#181818" points="277,107.4688,287,111.4688,277,115.4688,281,111.4688" style="stroke:#181818;stroke-width:1.0;"/><line style="stroke:#181818;stroke-width:1.0;" x1="0" x2="283" y1="111.4688" y2="111.4688"/><text fill="#000000" font-family="sans-serif" font-size="20" font-weight="bold" lengthAdjust="spacing" textLength="22" x="7" y="105.0742">14</text><text fill="#000000" font-family="sans-serif" font-size="20" lengthAdjust="spacing" textLength="244" x="33" y="105.0742">getEmployeeFromSession()</text><path d="M180,126.4688 L357,126.4688 L357,143.625 L347,153.625 L180,153.625 L180,126.4688 " fill="#EEEEEE" style="stroke:#000000;stroke-width:1.5;"/><rect fill="none" height="626.6563" style="stroke:#000000;stroke-width:1.5;" width="1588" x="180" y="126.4688"/><text fill="#000000" font-family="sans-serif" font-size="20" font-weight="bold" lengthAdjust="spacing" textLength="132" x="195" y="148.2305">Get Employee</text><polygon fill="#181818" points="483,180.7813,493,184.7813,483,188.7813,487,184.7813" style="stroke:#181818;stroke-width:1.0;"/><line style="stroke:#181818;stroke-width:1.0;" x1="299" x2="489" y1="184.7813" y2="184.7813"/><text fill="#000000" font-family="sans-serif" font-size="20" font-weight="bold" lengthAdjust="spacing" textLength="39" x="306" y="178.3867">14.1</text><text fill="#000000" font-family="sans-serif" font-size="20" lengthAdjust="spacing" textLength="116" x="349" y="178.3867">getInstance()</text><polygon fill="#181818" points="310,219.9375,300,223.9375,310,227.9375,306,223.9375" style="stroke:#181818;stroke-width:1.0;"/><line style="stroke:#181818;stroke-width:1.0;" x1="304" x2="499" y1="223.9375" y2="223.9375"/><text fill="#000000" font-family="sans-serif" font-size="20" font-weight="bold" lengthAdjust="spacing" textLength="39" x="316" y="217.543">14.2</text><text fill="#000000" font-family="sans-serif" font-size="20" lengthAdjust="spacing" textLength="102" x="359" y="217.543">appSession</text><polygon fill="#181818" points="677,259.0938,687,263.0938,677,267.0938,681,263.0938" style="stroke:#181818;stroke-width:1.0;"/><line style="stroke:#181818;stroke-width:1.0;" x1="299" x2="683" y1="263.0938" y2="263.0938"/><text fill="#000000" font-family="sans-serif" font-size="20" font-weight="bold" lengthAdjust="spacing" textLength="39" x="306" y="256.6992">14.3</text><text fill="#000000" font-family="sans-serif" font-size="20" lengthAdjust="spacing" textLength="176" x="349" y="256.6992">getCurrentSession()</text><polygon fill="#181818" points="310,298.25,300,302.25,310,306.25,306,302.25" style="stroke:#181818;stroke-width:1.0;"/><line style="stroke:#181818;stroke-width:1.0;stroke-dasharray:2.0,2.0;" x1="304" x2="693" y1="302.25" y2="302.25"/><text fill="#000000" font-family="sans-serif" font-size="20" font-weight="bold" lengthAdjust="spacing" textLength="39" x="316" y="295.8555">14.4</text><text fill="#000000" font-family="sans-serif" font-size="20" lengthAdjust="spacing" textLength="130" x="359" y="295.8555">currentSession</text><polygon fill="#181818" points="851,337.4063,861,341.4063,851,345.4063,855,341.4063" style="stroke:#181818;stroke-width:1.0;"/><line style="stroke:#181818;stroke-width:1.0;" x1="299" x2="857" y1="341.4063" y2="341.4063"/><text fill="#000000" font-family="sans-serif" font-size="20" font-weight="bold" lengthAdjust="spacing" textLength="39" x="306" y="335.0117">14.5</text><text fill="#000000" font-family="sans-serif" font-size="20" lengthAdjust="spacing" textLength="201" x="349" y="335.0117">email = getUserEmail()</text><polygon fill="#181818" points="310,376.5625,300,380.5625,310,384.5625,306,380.5625" style="stroke:#181818;stroke-width:1.0;"/><line style="stroke:#181818;stroke-width:1.0;stroke-dasharray:2.0,2.0;" x1="304" x2="867" y1="380.5625" y2="380.5625"/><text fill="#000000" font-family="sans-serif" font-size="20" font-weight="bold" lengthAdjust="spacing" textLength="39" x="316" y="374.168">14.6</text><text fill="#000000" font-family="sans-serif" font-size="20" lengthAdjust="spacing" textLength="46" x="359" y="374.168">email</text><polygon fill="#181818" points="1138,415.7188,1148,419.7188,1138,423.7188,1142,419.7188" style="stroke:#181818;stroke-width:1.0;"/><line style="stroke:#181818;stroke-width:1.0;" x1="299" x2="1144" y1="419.7188" y2="419.7188"/><text fill="#000000" font-family="sans-serif" font-size="20" font-weight="bold" lengthAdjust="spacing" textLength="39" x="306" y="413.3242">14.7</text><text fill="#000000" font-family="sans-serif" font-size="20" lengthAdjust="spacing" textLength="293" x="349" y="413.3242">getOrganizationRepository(email)</text><polygon fill="#181818" points="310,454.875,300,458.875,310,462.875,306,458.875" style="stroke:#181818;stroke-width:1.0;"/><line style="stroke:#181818;stroke-width:1.0;stroke-dasharray:2.0,2.0;" x1="304" x2="1154" y1="458.875" y2="458.875"/><text fill="#000000" font-family="sans-serif" font-size="20" font-weight="bold" lengthAdjust="spacing" textLength="39" x="316" y="452.4805">14.8</text><text fill="#000000" font-family="sans-serif" font-size="20" lengthAdjust="spacing" textLength="200" x="359" y="452.4805">organizationRepository</text><polygon fill="#181818" points="1323,494.0313,1333,498.0313,1323,502.0313,1327,498.0313" style="stroke:#181818;stroke-width:1.0;"/><line style="stroke:#181818;stroke-width:1.0;" x1="299" x2="1329" y1="498.0313" y2="498.0313"/><text fill="#000000" font-family="sans-serif" font-size="20" font-weight="bold" lengthAdjust="spacing" textLength="39" x="306" y="491.6367">14.9</text><text fill="#000000" font-family="sans-serif" font-size="20" lengthAdjust="spacing" textLength="310" x="349" y="491.6367">getOrganizationByUserEmail(email)</text><path d="M1220,513.0313 L1306,513.0313 L1306,530.1875 L1296,540.1875 L1220,540.1875 L1220,513.0313 " fill="#EEEEEE" style="stroke:#000000;stroke-width:1.5;"/><rect fill="none" height="115.625" style="stroke:#000000;stroke-width:1.5;" width="538" x="1220" y="513.0313"/><text fill="#000000" font-family="sans-serif" font-size="20" font-weight="bold" lengthAdjust="spacing" textLength="41" x="1235" y="534.793">loop</text><text fill="#000000" font-family="sans-serif" font-size="20" font-weight="bold" lengthAdjust="spacing" textLength="222" x="1321" y="535.793">[[for each organization]</text><polygon fill="#181818" points="1666,577.5,1676,581.5,1666,585.5,1670,581.5" style="stroke:#181818;stroke-width:1.0;"/><line style="stroke:#181818;stroke-width:1.0;" x1="1345" x2="1672" y1="581.5" y2="581.5"/><text fill="#000000" font-family="sans-serif" font-size="20" font-weight="bold" lengthAdjust="spacing" textLength="50" x="1352" y="575.1055">14.10</text><text fill="#000000" font-family="sans-serif" font-size="20" lengthAdjust="spacing" textLength="260" x="1406" y="575.1055">anyEmployeeHasEmail(email)</text><polygon fill="#181818" points="1356,616.6563,1346,620.6563,1356,624.6563,1352,620.6563" style="stroke:#181818;stroke-width:1.0;"/><line style="stroke:#181818;stroke-width:1.0;stroke-dasharray:2.0,2.0;" x1="1350" x2="1682" y1="620.6563" y2="620.6563"/><text fill="#000000" font-family="sans-serif" font-size="20" font-weight="bold" lengthAdjust="spacing" textLength="50" x="1362" y="614.2617">14.11</text><text fill="#000000" font-family="sans-serif" font-size="20" lengthAdjust="spacing" textLength="82" x="1416" y="614.2617">true/false</text><polygon fill="#181818" points="310,662.8125,300,666.8125,310,670.8125,306,666.8125" style="stroke:#181818;stroke-width:1.0;"/><line style="stroke:#181818;stroke-width:1.0;stroke-dasharray:2.0,2.0;" x1="304" x2="1339" y1="666.8125" y2="666.8125"/><text fill="#000000" font-family="sans-serif" font-size="20" font-weight="bold" lengthAdjust="spacing" textLength="50" x="316" y="660.418">14.12</text><text fill="#000000" font-family="sans-serif" font-size="20" lengthAdjust="spacing" textLength="105" x="370" y="660.418">organization</text><polygon fill="#181818" points="1666,701.9688,1676,705.9688,1666,709.9688,1670,705.9688" style="stroke:#181818;stroke-width:1.0;"/><line style="stroke:#181818;stroke-width:1.0;" x1="299" x2="1672" y1="705.9688" y2="705.9688"/><text fill="#000000" font-family="sans-serif" font-size="20" font-weight="bold" lengthAdjust="spacing" textLength="50" x="306" y="699.5742">14.13</text><text fill="#000000" font-family="sans-serif" font-size="20" lengthAdjust="spacing" textLength="246" x="360" y="699.5742">getEmployeeByEmail(email)</text><polygon fill="#181818" points="310,741.125,300,745.125,310,749.125,306,745.125" style="stroke:#181818;stroke-width:1.0;"/><line style="stroke:#181818;stroke-width:1.0;stroke-dasharray:2.0,2.0;" x1="304" x2="1682" y1="745.125" y2="745.125"/><text fill="#000000" font-family="sans-serif" font-size="20" font-weight="bold" lengthAdjust="spacing" textLength="50" x="316" y="738.7305">14.14</text><text fill="#000000" font-family="sans-serif" font-size="20" lengthAdjust="spacing" textLength="85" x="370" y="738.7305">employee</text><polygon fill="#181818" points="11,787.2813,1,791.2813,11,795.2813,7,791.2813" style="stroke:#181818;stroke-width:1.0;"/><line style="stroke:#181818;stroke-width:1.0;stroke-dasharray:2.0,2.0;" x1="5" x2="293" y1="791.2813" y2="791.2813"/><text fill="#000000" font-family="sans-serif" font-size="20" font-weight="bold" lengthAdjust="spacing" textLength="22" x="17" y="784.8867">15</text><text fill="#000000" font-family="sans-serif" font-size="20" lengthAdjust="spacing" textLength="85" x="43" y="784.8867">employee</text><!--SRC=[XLJ1Rjim3BtxAuXUrXtIhSDs2RO1QP1c0meqYBFJ2XIgpJX2P4cGv6tkrqzIOaUoPPIN81BVunFvJ7saN195QYQA8vPGufuqpDmBRdBwYl3fOwQx5AW55yL1YHh1g0Q36qcA8wamDor3K5WOmYiM9kW3ASLVoYlO4wOni_7kG4k4lH3cHVpBR9gX1PM46xYQBnKIWpkYZqkhH0d6K5q1qR3SRHy6kGif6Is8eOBdgBNzyPdFYyqcpYHIdXEU-1Hg12eQfT0semV-qgX2HBxAyyNZGDCMfT3K24LH-wp-eCsfQuqHF8Qe066hZ0Ws3ujTZ12g8fo- -YTSwETF_35vuLdILzEyLaa8EN5irrb66lk2fdv11RUVizbtFnYOGuLcLKicMiHxQvHpewxVnu2RsumKXlwnCpvDD0CRbHADX3KQw2ZyiGlFRgkueVeYFxcs7YlGCdSvFQEVF0JX3k2iSGuN6_H99SRWKTskx39oGwfu17VXQ_V5Opkb12Jhdqms1wm9PV3DIN4-NBc_AHLdKqP2JcU15a-MaZ14TogS1tqRqZQwzeG9DTwxaHPt4YX9MpabBQRgXANrZAJUjPUcJMcT-48YzKm82R_tGe4LTeZKHtakqdnUz7PjFnZ2syxjFuXEQXjhT5yWfC9npYOROikvlVtXj8A7sA3Bha1uXRoC2qwzwh88egQa9lbMe_lPRjVHMhbhtnZWi3bTJyx2SBXR4kzsx_MamTBwua- -pcOZee30BxF_]--></g></svg>