<?xml version="1.0" encoding="UTF-8" standalone="no"?><svg xmlns="http://www.w3.org/2000/svg" xmlns:xlink="http://www.w3.org/1999/xlink" contentStyleType="text/css" height="2467px" preserveAspectRatio="none" style="width:3865px;height:2467px;background:#FFFFFF;" version="1.1" viewBox="0 0 3865 2467" width="3865px" zoomAndPan="magnify"><defs/><g><rect fill="#FFFFFF" height="2268.9688" style="stroke:#181818;stroke-width:1.0;" width="10" x="42.5" y="100.1563"/><rect fill="#FFFFFF" height="1634.4688" style="stroke:#181818;stroke-width:1.0;" width="10" x="915.5" y="131.3125"/><rect fill="#FFFFFF" height="133.4688" style="stroke:#181818;stroke-width:1.0;" width="10" x="915.5" y="1804.9375"/><rect fill="#FFFFFF" height="39.1563" style="stroke:#181818;stroke-width:1.0;" width="10" x="915.5" y="2021.875"/><rect fill="#FFFFFF" height="112.4688" style="stroke:#181818;stroke-width:1.0;" width="10" x="915.5" y="2100.1875"/><rect fill="#FFFFFF" height="108.3125" style="stroke:#181818;stroke-width:1.0;" width="10" x="915.5" y="2251.8125"/><rect fill="#FFFFFF" height="1506" style="stroke:#181818;stroke-width:1.0;" width="10" x="1336.5" y="220.625"/><rect fill="#FFFFFF" height="30" style="stroke:#181818;stroke-width:1.0;" width="10" x="1336.5" y="1844.0938"/><rect fill="#FFFFFF" height="30" style="stroke:#181818;stroke-width:1.0;" width="10" x="1336.5" y="2290.9688"/><rect fill="#FFFFFF" height="39.1563" style="stroke:#181818;stroke-width:1.0;" width="10" x="1518" y="259.7813"/><rect fill="#FFFFFF" height="39.1563" style="stroke:#181818;stroke-width:1.0;" width="10" x="1639.5" y="338.0938"/><rect fill="#FFFFFF" height="364.5625" style="stroke:#181818;stroke-width:1.0;" width="10" x="1757.5" y="416.4063"/><rect fill="#FFFFFF" height="39.1563" style="stroke:#181818;stroke-width:1.0;" width="10" x="1939.5" y="575.1875"/><rect fill="#FFFFFF" height="867.3438" style="stroke:#181818;stroke-width:1.0;" width="10" x="2132" y="820.125"/><rect fill="#FFFFFF" height="30" style="stroke:#181818;stroke-width:1.0;" width="10" x="3499" y="697.8125"/><rect fill="#FFFFFF" height="30" style="stroke:#181818;stroke-width:1.0;" width="10" x="3499" y="934.5938"/><rect fill="#FFFFFF" height="30" style="stroke:#181818;stroke-width:1.0;" width="10" x="3499" y="1003.75"/><rect fill="#FFFFFF" height="30" style="stroke:#181818;stroke-width:1.0;" width="10" x="3499" y="1072.9063"/><rect fill="#FFFFFF" height="30" style="stroke:#181818;stroke-width:1.0;" width="10" x="3499" y="1142.0625"/><rect fill="#FFFFFF" height="30" style="stroke:#181818;stroke-width:1.0;" width="10" x="3499" y="1211.2188"/><rect fill="#FFFFFF" height="30" style="stroke:#181818;stroke-width:1.0;" width="10" x="3499" y="1280.375"/><rect fill="#FFFFFF" height="30" style="stroke:#181818;stroke-width:1.0;" width="10" x="3499" y="1349.5313"/><rect fill="#FFFFFF" height="30" style="stroke:#181818;stroke-width:1.0;" width="10" x="3499" y="1418.6875"/><rect fill="#FFFFFF" height="30" style="stroke:#181818;stroke-width:1.0;" width="10" x="3499" y="1487.8438"/><rect fill="#FFFFFF" height="39.1563" style="stroke:#181818;stroke-width:1.0;" width="10" x="3686" y="1609.1563"/><rect fill="none" height="236.0938" style="stroke:#000000;stroke-width:1.5;" width="1910" x="1692" y="506.7188"/><rect fill="none" height="106.4688" style="stroke:#000000;stroke-width:1.5;" width="1890" x="1702" y="629.3438"/><rect fill="none" height="221.0938" style="stroke:#000000;stroke-width:1.5;" width="1005" x="10" y="1953.4063"/><line style="stroke:#181818;stroke-width:0.5;stroke-dasharray:5.0,5.0;" x1="47" x2="47" y1="90.1563" y2="2378.125"/><line style="stroke:#181818;stroke-width:0.5;stroke-dasharray:5.0,5.0;" x1="920" x2="920" y1="90.1563" y2="2378.125"/><line style="stroke:#181818;stroke-width:0.5;stroke-dasharray:5.0,5.0;" x1="1341" x2="1341" y1="174.3906" y2="2378.125"/><line style="stroke:#181818;stroke-width:0.5;stroke-dasharray:5.0,5.0;" x1="1523" x2="1523" y1="90.1563" y2="2378.125"/><line style="stroke:#181818;stroke-width:0.5;stroke-dasharray:5.0,5.0;" x1="1644" x2="1644" y1="90.1563" y2="2378.125"/><line style="stroke:#181818;stroke-width:0.5;stroke-dasharray:5.0,5.0;" x1="1762" x2="1762" y1="90.1563" y2="2378.125"/><line style="stroke:#181818;stroke-width:0.5;stroke-dasharray:5.0,5.0;" x1="1944.5" x2="1944.5" y1="90.1563" y2="2378.125"/><line style="stroke:#181818;stroke-width:0.5;stroke-dasharray:5.0,5.0;" x1="2136.5" x2="2136.5" y1="90.1563" y2="2378.125"/><line style="stroke:#181818;stroke-width:0.5;stroke-dasharray:5.0,5.0;" x1="3504" x2="3504" y1="472.0625" y2="2378.125"/><line style="stroke:#181818;stroke-width:0.5;stroke-dasharray:5.0,5.0;" x1="3691" x2="3691" y1="875.7813" y2="2378.125"/><line style="stroke:#181818;stroke-width:0.5;stroke-dasharray:5.0,5.0;" x1="3829" x2="3829" y1="90.1563" y2="2378.125"/><text fill="#000000" font-family="sans-serif" font-size="20" lengthAdjust="spacing" textLength="49" x="20" y="85.7617">Client</text><ellipse cx="47.5" cy="13.5" fill="#E3E3E3" rx="8" ry="8" style="stroke:#181818;stroke-width:0.5;"/><path d="M47.5,21.5 L47.5,48.5 M34.5,29.5 L60.5,29.5 M47.5,48.5 L34.5,63.5 M47.5,48.5 L60.5,63.5 " fill="none" style="stroke:#181818;stroke-width:0.5;"/><text fill="#000000" font-family="sans-serif" font-size="20" lengthAdjust="spacing" textLength="49" x="20" y="2397.8867">Client</text><ellipse cx="47.5" cy="2410.7813" fill="#E3E3E3" rx="8" ry="8" style="stroke:#181818;stroke-width:0.5;"/><path d="M47.5,2418.7813 L47.5,2445.7813 M34.5,2426.7813 L60.5,2426.7813 M47.5,2445.7813 L34.5,2460.7813 M47.5,2445.7813 L60.5,2460.7813 " fill="none" style="stroke:#181818;stroke-width:0.5;"/><rect fill="#E3E3E3" height="39.1563" rx="2.5" ry="2.5" style="stroke:#181818;stroke-width:0.5;" width="169" x="836" y="50"/><text fill="#000000" font-family="sans-serif" font-size="20" lengthAdjust="spacing" textLength="155" x="843" y="77.7617">:ClientMessageUI</text><rect fill="#E3E3E3" height="39.1563" rx="2.5" ry="2.5" style="stroke:#181818;stroke-width:0.5;" width="169" x="836" y="2377.125"/><text fill="#000000" font-family="sans-serif" font-size="20" lengthAdjust="spacing" textLength="155" x="843" y="2404.8867">:ClientMessageUI</text><rect fill="#E3E3E3" height="39.1563" rx="2.5" ry="2.5" style="stroke:#181818;stroke-width:0.5;" width="235" x="1224" y="2377.125"/><text fill="#000000" font-family="sans-serif" font-size="20" lengthAdjust="spacing" textLength="221" x="1231" y="2404.8867">:ClientMessageController</text><rect fill="#E3E3E3" height="39.1563" rx="2.5" ry="2.5" style="stroke:#181818;stroke-width:0.5;" width="108" x="1469" y="50"/><text fill="#000000" font-family="sans-serif" font-size="20" lengthAdjust="spacing" textLength="94" x="1476" y="77.7617">:repository</text><rect fill="#E3E3E3" height="39.1563" rx="2.5" ry="2.5" style="stroke:#181818;stroke-width:0.5;" width="108" x="1469" y="2377.125"/><text fill="#000000" font-family="sans-serif" font-size="20" lengthAdjust="spacing" textLength="94" x="1476" y="2404.8867">:repository</text><rect fill="#E3E3E3" height="64.3125" rx="2.5" ry="2.5" style="stroke:#181818;stroke-width:0.5;" width="115" x="1587" y="24.8438"/><text fill="#000000" font-family="sans-serif" font-size="20" lengthAdjust="spacing" textLength="88" x="1600.5" y="52.6055">repository</text><text fill="#000000" font-family="sans-serif" font-size="20" lengthAdjust="spacing" textLength="101" x="1594" y="77.7617">:Repository</text><rect fill="#E3E3E3" height="64.3125" rx="2.5" ry="2.5" style="stroke:#181818;stroke-width:0.5;" width="115" x="1587" y="2377.125"/><text fill="#000000" font-family="sans-serif" font-size="20" lengthAdjust="spacing" textLength="88" x="1600.5" y="2404.8867">repository</text><text fill="#000000" font-family="sans-serif" font-size="20" lengthAdjust="spacing" textLength="101" x="1594" y="2430.043">:Repository</text><rect fill="#E3E3E3" height="64.3125" rx="2.5" ry="2.5" style="stroke:#181818;stroke-width:0.5;" width="101" x="1712" y="24.8438"/><text fill="#000000" font-family="sans-serif" font-size="20" lengthAdjust="spacing" textLength="81" x="1722" y="52.6055">Message</text><text fill="#000000" font-family="sans-serif" font-size="20" lengthAdjust="spacing" textLength="87" x="1719" y="77.7617">:Message</text><rect fill="#E3E3E3" height="64.3125" rx="2.5" ry="2.5" style="stroke:#181818;stroke-width:0.5;" width="101" x="1712" y="2377.125"/><text fill="#000000" font-family="sans-serif" font-size="20" lengthAdjust="spacing" textLength="81" x="1722" y="2404.8867">Message</text><text fill="#000000" font-family="sans-serif" font-size="20" lengthAdjust="spacing" textLength="87" x="1719" y="2430.043">:Message</text><rect fill="#E3E3E3" height="64.3125" rx="2.5" ry="2.5" style="stroke:#181818;stroke-width:0.5;" width="196" x="1846.5" y="24.8438"/><text fill="#000000" font-family="sans-serif" font-size="20" lengthAdjust="spacing" textLength="175" x="1857" y="52.6055">messageRepository</text><text fill="#000000" font-family="sans-serif" font-size="20" lengthAdjust="spacing" textLength="182" x="1853.5" y="77.7617">:MessageRepository</text><rect fill="#E3E3E3" height="64.3125" rx="2.5" ry="2.5" style="stroke:#181818;stroke-width:0.5;" width="196" x="1846.5" y="2377.125"/><text fill="#000000" font-family="sans-serif" font-size="20" lengthAdjust="spacing" textLength="175" x="1857" y="2404.8867">messageRepository</text><text fill="#000000" font-family="sans-serif" font-size="20" lengthAdjust="spacing" textLength="182" x="1853.5" y="2430.043">:MessageRepository</text><rect fill="#E3E3E3" height="39.1563" rx="2.5" ry="2.5" style="stroke:#181818;stroke-width:0.5;" width="169" x="2052.5" y="50"/><text fill="#000000" font-family="sans-serif" font-size="20" lengthAdjust="spacing" textLength="155" x="2059.5" y="77.7617">:MessageMapper</text><rect fill="#E3E3E3" height="39.1563" rx="2.5" ry="2.5" style="stroke:#181818;stroke-width:0.5;" width="169" x="2052.5" y="2377.125"/><text fill="#000000" font-family="sans-serif" font-size="20" lengthAdjust="spacing" textLength="155" x="2059.5" y="2404.8867">:MessageMapper</text><rect fill="#E3E3E3" height="64.3125" rx="2.5" ry="2.5" style="stroke:#181818;stroke-width:0.5;" width="156" x="3426" y="2377.125"/><text fill="#000000" font-family="sans-serif" font-size="20" lengthAdjust="spacing" textLength="112" x="3448" y="2404.8867">MessageList</text><text fill="#000000" font-family="sans-serif" font-size="20" lengthAdjust="spacing" textLength="142" x="3433" y="2430.043">:List&lt;Message&gt;</text><rect fill="#E3E3E3" height="64.3125" rx="2.5" ry="2.5" style="stroke:#181818;stroke-width:0.5;" width="198" x="3592" y="2377.125"/><text fill="#000000" font-family="sans-serif" font-size="20" lengthAdjust="spacing" textLength="122" x="3630" y="2404.8867">MessageDtos</text><text fill="#000000" font-family="sans-serif" font-size="20" lengthAdjust="spacing" textLength="184" x="3599" y="2430.043">:List&lt;MessageDTO&gt;</text><rect fill="#E3E3E3" height="39.1563" rx="2.5" ry="2.5" style="stroke:#181818;stroke-width:0.5;" width="59" x="3800" y="50"/><text fill="#000000" font-family="sans-serif" font-size="20" lengthAdjust="spacing" textLength="45" x="3807" y="77.7617">client</text><rect fill="#E3E3E3" height="39.1563" rx="2.5" ry="2.5" style="stroke:#181818;stroke-width:0.5;" width="59" x="3800" y="2377.125"/><text fill="#000000" font-family="sans-serif" font-size="20" lengthAdjust="spacing" textLength="45" x="3807" y="2404.8867">client</text><rect fill="#FFFFFF" height="2268.9688" style="stroke:#181818;stroke-width:1.0;" width="10" x="42.5" y="100.1563"/><rect fill="#FFFFFF" height="1634.4688" style="stroke:#181818;stroke-width:1.0;" width="10" x="915.5" y="131.3125"/><rect fill="#FFFFFF" height="133.4688" style="stroke:#181818;stroke-width:1.0;" width="10" x="915.5" y="1804.9375"/><rect fill="#FFFFFF" height="39.1563" style="stroke:#181818;stroke-width:1.0;" width="10" x="915.5" y="2021.875"/><rect fill="#FFFFFF" height="112.4688" style="stroke:#181818;stroke-width:1.0;" width="10" x="915.5" y="2100.1875"/><rect fill="#FFFFFF" height="108.3125" style="stroke:#181818;stroke-width:1.0;" width="10" x="915.5" y="2251.8125"/><rect fill="#FFFFFF" height="1506" style="stroke:#181818;stroke-width:1.0;" width="10" x="1336.5" y="220.625"/><rect fill="#FFFFFF" height="30" style="stroke:#181818;stroke-width:1.0;" width="10" x="1336.5" y="1844.0938"/><rect fill="#FFFFFF" height="30" style="stroke:#181818;stroke-width:1.0;" width="10" x="1336.5" y="2290.9688"/><rect fill="#FFFFFF" height="39.1563" style="stroke:#181818;stroke-width:1.0;" width="10" x="1518" y="259.7813"/><rect fill="#FFFFFF" height="39.1563" style="stroke:#181818;stroke-width:1.0;" width="10" x="1639.5" y="338.0938"/><rect fill="#FFFFFF" height="364.5625" style="stroke:#181818;stroke-width:1.0;" width="10" x="1757.5" y="416.4063"/><rect fill="#FFFFFF" height="39.1563" style="stroke:#181818;stroke-width:1.0;" width="10" x="1939.5" y="575.1875"/><rect fill="#FFFFFF" height="867.3438" style="stroke:#181818;stroke-width:1.0;" width="10" x="2132" y="820.125"/><rect fill="#FFFFFF" height="30" style="stroke:#181818;stroke-width:1.0;" width="10" x="3499" y="697.8125"/><rect fill="#FFFFFF" height="30" style="stroke:#181818;stroke-width:1.0;" width="10" x="3499" y="934.5938"/><rect fill="#FFFFFF" height="30" style="stroke:#181818;stroke-width:1.0;" width="10" x="3499" y="1003.75"/><rect fill="#FFFFFF" height="30" style="stroke:#181818;stroke-width:1.0;" width="10" x="3499" y="1072.9063"/><rect fill="#FFFFFF" height="30" style="stroke:#181818;stroke-width:1.0;" width="10" x="3499" y="1142.0625"/><rect fill="#FFFFFF" height="30" style="stroke:#181818;stroke-width:1.0;" width="10" x="3499" y="1211.2188"/><rect fill="#FFFFFF" height="30" style="stroke:#181818;stroke-width:1.0;" width="10" x="3499" y="1280.375"/><rect fill="#FFFFFF" height="30" style="stroke:#181818;stroke-width:1.0;" width="10" x="3499" y="1349.5313"/><rect fill="#FFFFFF" height="30" style="stroke:#181818;stroke-width:1.0;" width="10" x="3499" y="1418.6875"/><rect fill="#FFFFFF" height="30" style="stroke:#181818;stroke-width:1.0;" width="10" x="3499" y="1487.8438"/><rect fill="#FFFFFF" height="39.1563" style="stroke:#181818;stroke-width:1.0;" width="10" x="3686" y="1609.1563"/><polygon fill="#181818" points="903.5,127.3125,913.5,131.3125,903.5,135.3125,907.5,131.3125" style="stroke:#181818;stroke-width:1.0;"/><line style="stroke:#181818;stroke-width:1.0;" x1="52.5" x2="909.5" y1="131.3125" y2="131.3125"/><text fill="#000000" font-family="sans-serif" font-size="20" font-weight="bold" lengthAdjust="spacing" textLength="11" x="59.5" y="124.918">1</text><text fill="#000000" font-family="sans-serif" font-size="20" lengthAdjust="spacing" textLength="562" x="74.5" y="124.918">asks to see all responses received for the appointment requests</text><polygon fill="#181818" points="1212,166.4688,1222,170.4688,1212,174.4688,1216,170.4688" style="stroke:#181818;stroke-width:1.0;"/><line style="stroke:#181818;stroke-width:1.0;stroke-dasharray:2.0,2.0;" x1="925.5" x2="1218" y1="170.4688" y2="170.4688"/><text fill="#000000" font-family="sans-serif" font-size="20" font-weight="bold" lengthAdjust="spacing" textLength="11" x="932.5" y="164.0742">2</text><text fill="#000000" font-family="sans-serif" font-size="20" lengthAdjust="spacing" textLength="56" x="947.5" y="164.0742">create</text><rect fill="#E3E3E3" height="39.1563" rx="2.5" ry="2.5" style="stroke:#181818;stroke-width:0.5;" width="235" x="1224" y="139.3125"/><text fill="#000000" font-family="sans-serif" font-size="20" lengthAdjust="spacing" textLength="221" x="1231" y="167.0742">:ClientMessageController</text><polygon fill="#181818" points="1324.5,216.625,1334.5,220.625,1324.5,224.625,1328.5,220.625" style="stroke:#181818;stroke-width:1.0;"/><line style="stroke:#181818;stroke-width:1.0;" x1="925.5" x2="1330.5" y1="220.625" y2="220.625"/><text fill="#000000" font-family="sans-serif" font-size="20" font-weight="bold" lengthAdjust="spacing" textLength="11" x="932.5" y="214.2305">3</text><text fill="#000000" font-family="sans-serif" font-size="20" lengthAdjust="spacing" textLength="199" x="947.5" y="214.2305">getMessageList(client)</text><polygon fill="#181818" points="1506,255.7813,1516,259.7813,1506,263.7813,1510,259.7813" style="stroke:#181818;stroke-width:1.0;"/><line style="stroke:#181818;stroke-width:1.0;" x1="1346.5" x2="1512" y1="259.7813" y2="259.7813"/><text fill="#000000" font-family="sans-serif" font-size="20" font-weight="bold" lengthAdjust="spacing" textLength="11" x="1353.5" y="253.3867">4</text><text fill="#000000" font-family="sans-serif" font-size="20" lengthAdjust="spacing" textLength="116" x="1368.5" y="253.3867">getInstance()</text><polygon fill="#181818" points="1357.5,294.9375,1347.5,298.9375,1357.5,302.9375,1353.5,298.9375" style="stroke:#181818;stroke-width:1.0;"/><line style="stroke:#181818;stroke-width:1.0;stroke-dasharray:2.0,2.0;" x1="1351.5" x2="1522" y1="298.9375" y2="298.9375"/><text fill="#000000" font-family="sans-serif" font-size="20" font-weight="bold" lengthAdjust="spacing" textLength="11" x="1363.5" y="292.543">5</text><text fill="#000000" font-family="sans-serif" font-size="20" lengthAdjust="spacing" textLength="88" x="1378.5" y="292.543">repository</text><polygon fill="#181818" points="1627.5,334.0938,1637.5,338.0938,1627.5,342.0938,1631.5,338.0938" style="stroke:#181818;stroke-width:1.0;"/><line style="stroke:#181818;stroke-width:1.0;" x1="1346.5" x2="1633.5" y1="338.0938" y2="338.0938"/><text fill="#000000" font-family="sans-serif" font-size="20" font-weight="bold" lengthAdjust="spacing" textLength="11" x="1353.5" y="331.6992">6</text><text fill="#000000" font-family="sans-serif" font-size="20" lengthAdjust="spacing" textLength="218" x="1368.5" y="331.6992">getMessageRepository()</text><polygon fill="#181818" points="1357.5,373.25,1347.5,377.25,1357.5,381.25,1353.5,377.25" style="stroke:#181818;stroke-width:1.0;"/><line style="stroke:#181818;stroke-width:1.0;stroke-dasharray:2.0,2.0;" x1="1351.5" x2="1643.5" y1="377.25" y2="377.25"/><text fill="#000000" font-family="sans-serif" font-size="20" font-weight="bold" lengthAdjust="spacing" textLength="11" x="1363.5" y="370.8555">7</text><text fill="#000000" font-family="sans-serif" font-size="20" lengthAdjust="spacing" textLength="176" x="1378.5" y="370.8555">MessageRepository</text><polygon fill="#181818" points="1745.5,412.4063,1755.5,416.4063,1745.5,420.4063,1749.5,416.4063" style="stroke:#181818;stroke-width:1.0;"/><line style="stroke:#181818;stroke-width:1.0;" x1="1346.5" x2="1751.5" y1="416.4063" y2="416.4063"/><text fill="#000000" font-family="sans-serif" font-size="20" font-weight="bold" lengthAdjust="spacing" textLength="11" x="1353.5" y="410.0117">8</text><text fill="#000000" font-family="sans-serif" font-size="20" lengthAdjust="spacing" textLength="199" x="1368.5" y="410.0117">getMessageList(client)</text><polygon fill="#181818" points="3414,451.5625,3424,455.5625,3414,459.5625,3418,455.5625" style="stroke:#181818;stroke-width:1.0;"/><line style="stroke:#181818;stroke-width:1.0;stroke-dasharray:2.0,2.0;" x1="1767.5" x2="3420" y1="455.5625" y2="455.5625"/><text fill="#000000" font-family="sans-serif" font-size="20" font-weight="bold" lengthAdjust="spacing" textLength="11" x="1774.5" y="449.168">9</text><text fill="#000000" font-family="sans-serif" font-size="20" lengthAdjust="spacing" textLength="70" x="1789.5" y="449.168">create()</text><rect fill="#E3E3E3" height="64.3125" rx="2.5" ry="2.5" style="stroke:#181818;stroke-width:0.5;" width="156" x="3426" y="424.4063"/><text fill="#000000" font-family="sans-serif" font-size="20" lengthAdjust="spacing" textLength="112" x="3448" y="452.168">MessageList</text><text fill="#000000" font-family="sans-serif" font-size="20" lengthAdjust="spacing" textLength="142" x="3433" y="477.3242">:List&lt;Message&gt;</text><path d="M1692,506.7188 L1778,506.7188 L1778,523.875 L1768,533.875 L1692,533.875 L1692,506.7188 " fill="#EEEEEE" style="stroke:#000000;stroke-width:1.5;"/><rect fill="none" height="236.0938" style="stroke:#000000;stroke-width:1.5;" width="1910" x="1692" y="506.7188"/><text fill="#000000" font-family="sans-serif" font-size="20" font-weight="bold" lengthAdjust="spacing" textLength="41" x="1707" y="528.4805">loop</text><text fill="#000000" font-family="sans-serif" font-size="20" font-weight="bold" lengthAdjust="spacing" textLength="182" x="1793" y="529.4805">[for each Message]</text><polygon fill="#181818" points="1927.5,571.1875,1937.5,575.1875,1927.5,579.1875,1931.5,575.1875" style="stroke:#181818;stroke-width:1.0;"/><line style="stroke:#181818;stroke-width:1.0;" x1="1767.5" x2="1933.5" y1="575.1875" y2="575.1875"/><text fill="#000000" font-family="sans-serif" font-size="20" font-weight="bold" lengthAdjust="spacing" textLength="22" x="1774.5" y="568.793">10</text><text fill="#000000" font-family="sans-serif" font-size="20" lengthAdjust="spacing" textLength="127" x="1800.5" y="568.793">getMessage(i)</text><polygon fill="#181818" points="1778.5,610.3438,1768.5,614.3438,1778.5,618.3438,1774.5,614.3438" style="stroke:#181818;stroke-width:1.0;"/><line style="stroke:#181818;stroke-width:1.0;stroke-dasharray:2.0,2.0;" x1="1772.5" x2="1943.5" y1="614.3438" y2="614.3438"/><text fill="#000000" font-family="sans-serif" font-size="20" font-weight="bold" lengthAdjust="spacing" textLength="22" x="1784.5" y="607.9492">11</text><text fill="#000000" font-family="sans-serif" font-size="20" lengthAdjust="spacing" textLength="81" x="1810.5" y="607.9492">Message</text><path d="M1702,629.3438 L1770,629.3438 L1770,646.5 L1760,656.5 L1702,656.5 L1702,629.3438 " fill="#EEEEEE" style="stroke:#000000;stroke-width:1.5;"/><rect fill="none" height="106.4688" style="stroke:#000000;stroke-width:1.5;" width="1890" x="1702" y="629.3438"/><text fill="#000000" font-family="sans-serif" font-size="20" font-weight="bold" lengthAdjust="spacing" textLength="23" x="1717" y="651.1055">alt</text><text fill="#000000" font-family="sans-serif" font-size="20" font-weight="bold" lengthAdjust="spacing" textLength="228" x="1785" y="652.1055">[if message is for client]</text><polygon fill="#181818" points="3487,693.8125,3497,697.8125,3487,701.8125,3491,697.8125" style="stroke:#181818;stroke-width:1.0;"/><line style="stroke:#181818;stroke-width:1.0;" x1="1767.5" x2="3493" y1="697.8125" y2="697.8125"/><text fill="#000000" font-family="sans-serif" font-size="20" font-weight="bold" lengthAdjust="spacing" textLength="22" x="1774.5" y="691.418">12</text><text fill="#000000" font-family="sans-serif" font-size="20" lengthAdjust="spacing" textLength="128" x="1800.5" y="691.418">add(Message)</text><polygon fill="#181818" points="1357.5,776.9688,1347.5,780.9688,1357.5,784.9688,1353.5,780.9688" style="stroke:#181818;stroke-width:1.0;"/><line style="stroke:#181818;stroke-width:1.0;stroke-dasharray:2.0,2.0;" x1="1351.5" x2="1761.5" y1="780.9688" y2="780.9688"/><text fill="#000000" font-family="sans-serif" font-size="20" font-weight="bold" lengthAdjust="spacing" textLength="22" x="1363.5" y="774.5742">13</text><text fill="#000000" font-family="sans-serif" font-size="20" lengthAdjust="spacing" textLength="112" x="1389.5" y="774.5742">MessageList</text><polygon fill="#181818" points="2120,816.125,2130,820.125,2120,824.125,2124,820.125" style="stroke:#181818;stroke-width:1.0;"/><line style="stroke:#181818;stroke-width:1.0;" x1="1346.5" x2="2126" y1="820.125" y2="820.125"/><text fill="#000000" font-family="sans-serif" font-size="20" font-weight="bold" lengthAdjust="spacing" textLength="22" x="1353.5" y="813.7305">14</text><text fill="#000000" font-family="sans-serif" font-size="20" lengthAdjust="spacing" textLength="282" x="1379.5" y="813.7305">toDTO(StoreList, EmployeeList)</text><polygon fill="#181818" points="3580,855.2813,3590,859.2813,3580,863.2813,3584,859.2813" style="stroke:#181818;stroke-width:1.0;"/><line style="stroke:#181818;stroke-width:1.0;stroke-dasharray:2.0,2.0;" x1="2142" x2="3586" y1="859.2813" y2="859.2813"/><text fill="#000000" font-family="sans-serif" font-size="20" font-weight="bold" lengthAdjust="spacing" textLength="22" x="2149" y="852.8867">15</text><text fill="#000000" font-family="sans-serif" font-size="20" lengthAdjust="spacing" textLength="70" x="2175" y="852.8867">create()</text><rect fill="#E3E3E3" height="64.3125" rx="2.5" ry="2.5" style="stroke:#181818;stroke-width:0.5;" width="198" x="3592" y="828.125"/><text fill="#000000" font-family="sans-serif" font-size="20" lengthAdjust="spacing" textLength="122" x="3630" y="855.8867">MessageDtos</text><text fill="#000000" font-family="sans-serif" font-size="20" lengthAdjust="spacing" textLength="184" x="3599" y="881.043">:List&lt;MessageDTO&gt;</text><polygon fill="#181818" points="3487,930.5938,3497,934.5938,3487,938.5938,3491,934.5938" style="stroke:#181818;stroke-width:1.0;"/><line style="stroke:#181818;stroke-width:1.0;" x1="2142" x2="3493" y1="934.5938" y2="934.5938"/><text fill="#000000" font-family="sans-serif" font-size="20" font-weight="bold" lengthAdjust="spacing" textLength="22" x="2149" y="928.1992">16</text><text fill="#000000" font-family="sans-serif" font-size="20" lengthAdjust="spacing" textLength="165" x="2175" y="928.1992">name = getName()</text><polygon fill="#181818" points="3487,999.75,3497,1003.75,3487,1007.75,3491,1003.75" style="stroke:#181818;stroke-width:1.0;"/><line style="stroke:#181818;stroke-width:1.0;" x1="2142" x2="3493" y1="1003.75" y2="1003.75"/><text fill="#000000" font-family="sans-serif" font-size="20" font-weight="bold" lengthAdjust="spacing" textLength="22" x="2149" y="997.3555">17</text><text fill="#000000" font-family="sans-serif" font-size="20" lengthAdjust="spacing" textLength="310" x="2175" y="997.3555">phoneNumber = getPhoneNumber()</text><polygon fill="#181818" points="3487,1068.9063,3497,1072.9063,3487,1076.9063,3491,1072.9063" style="stroke:#181818;stroke-width:1.0;"/><line style="stroke:#181818;stroke-width:1.0;" x1="2142" x2="3493" y1="1072.9063" y2="1072.9063"/><text fill="#000000" font-family="sans-serif" font-size="20" font-weight="bold" lengthAdjust="spacing" textLength="22" x="2149" y="1066.5117">18</text><text fill="#000000" font-family="sans-serif" font-size="20" lengthAdjust="spacing" textLength="259" x="2175" y="1066.5117">description = getDescription()</text><polygon fill="#181818" points="3487,1138.0625,3497,1142.0625,3487,1146.0625,3491,1142.0625" style="stroke:#181818;stroke-width:1.0;"/><line style="stroke:#181818;stroke-width:1.0;" x1="2142" x2="3493" y1="1142.0625" y2="1142.0625"/><text fill="#000000" font-family="sans-serif" font-size="20" font-weight="bold" lengthAdjust="spacing" textLength="22" x="2149" y="1135.668">19</text><text fill="#000000" font-family="sans-serif" font-size="20" lengthAdjust="spacing" textLength="238" x="2175" y="1135.668">initialDate = getInitialDate()</text><polygon fill="#181818" points="3487,1207.2188,3497,1211.2188,3487,1215.2188,3491,1211.2188" style="stroke:#181818;stroke-width:1.0;"/><line style="stroke:#181818;stroke-width:1.0;" x1="2142" x2="3493" y1="1211.2188" y2="1211.2188"/><text fill="#000000" font-family="sans-serif" font-size="20" font-weight="bold" lengthAdjust="spacing" textLength="22" x="2149" y="1204.8242">20</text><text fill="#000000" font-family="sans-serif" font-size="20" lengthAdjust="spacing" textLength="240" x="2175" y="1204.8242">initialTime = getInitialTime()</text><polygon fill="#181818" points="3487,1276.375,3497,1280.375,3487,1284.375,3491,1280.375" style="stroke:#181818;stroke-width:1.0;"/><line style="stroke:#181818;stroke-width:1.0;" x1="2142" x2="3493" y1="1280.375" y2="1280.375"/><text fill="#000000" font-family="sans-serif" font-size="20" font-weight="bold" lengthAdjust="spacing" textLength="22" x="2149" y="1273.9805">21</text><text fill="#000000" font-family="sans-serif" font-size="20" lengthAdjust="spacing" textLength="218" x="2175" y="1273.9805">endTime = getEndTime()</text><polygon fill="#181818" points="3487,1345.5313,3497,1349.5313,3487,1353.5313,3491,1349.5313" style="stroke:#181818;stroke-width:1.0;"/><line style="stroke:#181818;stroke-width:1.0;" x1="2142" x2="3493" y1="1349.5313" y2="1349.5313"/><text fill="#000000" font-family="sans-serif" font-size="20" font-weight="bold" lengthAdjust="spacing" textLength="22" x="2149" y="1343.1367">22</text><text fill="#000000" font-family="sans-serif" font-size="20" lengthAdjust="spacing" textLength="486" x="2175" y="1343.1367">publishedAnnouncement = getpublishedAnnouncement()</text><polygon fill="#181818" points="3487,1414.6875,3497,1418.6875,3487,1422.6875,3491,1418.6875" style="stroke:#181818;stroke-width:1.0;"/><line style="stroke:#181818;stroke-width:1.0;" x1="2142" x2="3493" y1="1418.6875" y2="1418.6875"/><text fill="#000000" font-family="sans-serif" font-size="20" font-weight="bold" lengthAdjust="spacing" textLength="22" x="2149" y="1412.293">23</text><text fill="#000000" font-family="sans-serif" font-size="20" lengthAdjust="spacing" textLength="321" x="2175" y="1412.293">messageState = getMessageState()</text><polygon fill="#181818" points="3487,1483.8438,3497,1487.8438,3487,1491.8438,3491,1487.8438" style="stroke:#181818;stroke-width:1.0;"/><line style="stroke:#181818;stroke-width:1.0;" x1="2142" x2="3493" y1="1487.8438" y2="1487.8438"/><text fill="#000000" font-family="sans-serif" font-size="20" font-weight="bold" lengthAdjust="spacing" textLength="22" x="2149" y="1481.4492">24</text><text fill="#000000" font-family="sans-serif" font-size="20" lengthAdjust="spacing" textLength="382" x="2175" y="1481.4492">isApprovedByAgent = isApprovedByAgent()</text><line style="stroke:#181818;stroke-width:1.0;stroke-dasharray:2.0,2.0;" x1="2142" x2="2184" y1="1557" y2="1557"/><line style="stroke:#181818;stroke-width:1.0;stroke-dasharray:2.0,2.0;" x1="2184" x2="2184" y1="1557" y2="1570"/><line style="stroke:#181818;stroke-width:1.0;stroke-dasharray:2.0,2.0;" x1="2143" x2="2184" y1="1570" y2="1570"/><polygon fill="#181818" points="2153,1566,2143,1570,2153,1574,2149,1570" style="stroke:#181818;stroke-width:1.0;"/><text fill="#000000" font-family="sans-serif" font-size="20" font-weight="bold" lengthAdjust="spacing" textLength="22" x="2149" y="1550.6055">25</text><text fill="#000000" font-family="sans-serif" font-size="20" lengthAdjust="spacing" textLength="1317" x="2175" y="1550.6055">messageDto = toDTO(name,phoneNumber, description, initialDate, initialTime, endTime, publishedAnnouncement, messageState, isApprovedByAgent)</text><polygon fill="#181818" points="3674,1605.1563,3684,1609.1563,3674,1613.1563,3678,1609.1563" style="stroke:#181818;stroke-width:1.0;"/><line style="stroke:#181818;stroke-width:1.0;" x1="2142" x2="3680" y1="1609.1563" y2="1609.1563"/><text fill="#000000" font-family="sans-serif" font-size="20" font-weight="bold" lengthAdjust="spacing" textLength="22" x="2149" y="1602.7617">26</text><text fill="#000000" font-family="sans-serif" font-size="20" lengthAdjust="spacing" textLength="158" x="2175" y="1602.7617">add(messageDto)</text><polygon fill="#181818" points="2153,1644.3125,2143,1648.3125,2153,1652.3125,2149,1648.3125" style="stroke:#181818;stroke-width:1.0;"/><line style="stroke:#181818;stroke-width:1.0;" x1="2147" x2="3690" y1="1648.3125" y2="1648.3125"/><text fill="#000000" font-family="sans-serif" font-size="20" font-weight="bold" lengthAdjust="spacing" textLength="22" x="2159" y="1641.918">27</text><text fill="#000000" font-family="sans-serif" font-size="20" lengthAdjust="spacing" textLength="122" x="2185" y="1641.918">MessageDtos</text><polygon fill="#181818" points="1357.5,1683.4688,1347.5,1687.4688,1357.5,1691.4688,1353.5,1687.4688" style="stroke:#181818;stroke-width:1.0;"/><line style="stroke:#181818;stroke-width:1.0;" x1="1351.5" x2="2136" y1="1687.4688" y2="1687.4688"/><text fill="#000000" font-family="sans-serif" font-size="20" font-weight="bold" lengthAdjust="spacing" textLength="22" x="1363.5" y="1681.0742">28</text><text fill="#000000" font-family="sans-serif" font-size="20" lengthAdjust="spacing" textLength="122" x="1389.5" y="1681.0742">MessageDtos</text><polygon fill="#181818" points="936.5,1722.625,926.5,1726.625,936.5,1730.625,932.5,1726.625" style="stroke:#181818;stroke-width:1.0;"/><line style="stroke:#181818;stroke-width:1.0;stroke-dasharray:2.0,2.0;" x1="930.5" x2="1340.5" y1="1726.625" y2="1726.625"/><text fill="#000000" font-family="sans-serif" font-size="20" font-weight="bold" lengthAdjust="spacing" textLength="22" x="942.5" y="1720.2305">29</text><text fill="#000000" font-family="sans-serif" font-size="20" lengthAdjust="spacing" textLength="122" x="968.5" y="1720.2305">MessageDtos</text><polygon fill="#181818" points="63.5,1761.7813,53.5,1765.7813,63.5,1769.7813,59.5,1765.7813" style="stroke:#181818;stroke-width:1.0;"/><line style="stroke:#181818;stroke-width:1.0;stroke-dasharray:2.0,2.0;" x1="57.5" x2="919.5" y1="1765.7813" y2="1765.7813"/><text fill="#000000" font-family="sans-serif" font-size="20" font-weight="bold" lengthAdjust="spacing" textLength="22" x="69.5" y="1759.3867">30</text><text fill="#000000" font-family="sans-serif" font-size="20" lengthAdjust="spacing" textLength="410" x="95.5" y="1759.3867">shows list of responses and asks to select one</text><polygon fill="#181818" points="903.5,1800.9375,913.5,1804.9375,903.5,1808.9375,907.5,1804.9375" style="stroke:#181818;stroke-width:1.0;"/><line style="stroke:#181818;stroke-width:1.0;" x1="52.5" x2="909.5" y1="1804.9375" y2="1804.9375"/><text fill="#000000" font-family="sans-serif" font-size="20" font-weight="bold" lengthAdjust="spacing" textLength="22" x="59.5" y="1798.543">31</text><text fill="#000000" font-family="sans-serif" font-size="20" lengthAdjust="spacing" textLength="276" x="85.5" y="1798.543">selects the pretended message</text><polygon fill="#181818" points="1324.5,1840.0938,1334.5,1844.0938,1324.5,1848.0938,1328.5,1844.0938" style="stroke:#181818;stroke-width:1.0;"/><line style="stroke:#181818;stroke-width:1.0;" x1="925.5" x2="1330.5" y1="1844.0938" y2="1844.0938"/><text fill="#000000" font-family="sans-serif" font-size="20" font-weight="bold" lengthAdjust="spacing" textLength="22" x="932.5" y="1837.6992">32</text><text fill="#000000" font-family="sans-serif" font-size="20" lengthAdjust="spacing" textLength="366" x="958.5" y="1837.6992">sendVisualizedEmail(email, subject, body)</text><polygon fill="#181818" points="63.5,1934.4063,53.5,1938.4063,63.5,1942.4063,59.5,1938.4063" style="stroke:#181818;stroke-width:1.0;"/><line style="stroke:#181818;stroke-width:1.0;stroke-dasharray:2.0,2.0;" x1="57.5" x2="919.5" y1="1938.4063" y2="1938.4063"/><text fill="#000000" font-family="sans-serif" font-size="20" font-weight="bold" lengthAdjust="spacing" textLength="22" x="69.5" y="1919.4336">33</text><text fill="#000000" font-family="sans-serif" font-size="20" lengthAdjust="spacing" textLength="725" x="95.5" y="1906.8555">shows selected message (information about the property, date of the appointment,</text><text fill="#000000" font-family="sans-serif" font-size="20" lengthAdjust="spacing" textLength="813" x="95.5" y="1932.0117">agent name and phone number) and asks if the client wants to accept or decline appointment</text><path d="M10,1953.4063 L78,1953.4063 L78,1970.5625 L68,1980.5625 L10,1980.5625 L10,1953.4063 " fill="#EEEEEE" style="stroke:#000000;stroke-width:1.5;"/><rect fill="none" height="221.0938" style="stroke:#000000;stroke-width:1.5;" width="1005" x="10" y="1953.4063"/><text fill="#000000" font-family="sans-serif" font-size="20" font-weight="bold" lengthAdjust="spacing" textLength="23" x="25" y="1975.168">alt</text><text fill="#000000" font-family="sans-serif" font-size="20" font-weight="bold" lengthAdjust="spacing" textLength="216" x="93" y="1976.168">[declines appointment]</text><polygon fill="#181818" points="903.5,2017.875,913.5,2021.875,903.5,2025.875,907.5,2021.875" style="stroke:#181818;stroke-width:1.0;"/><line style="stroke:#181818;stroke-width:1.0;" x1="52.5" x2="909.5" y1="2021.875" y2="2021.875"/><text fill="#000000" font-family="sans-serif" font-size="20" font-weight="bold" lengthAdjust="spacing" textLength="22" x="59.5" y="2015.4805">34</text><text fill="#000000" font-family="sans-serif" font-size="20" lengthAdjust="spacing" textLength="184" x="85.5" y="2015.4805">declines appointment</text><polygon fill="#181818" points="63.5,2057.0313,53.5,2061.0313,63.5,2065.0313,59.5,2061.0313" style="stroke:#181818;stroke-width:1.0;"/><line style="stroke:#181818;stroke-width:1.0;stroke-dasharray:2.0,2.0;" x1="57.5" x2="919.5" y1="2061.0313" y2="2061.0313"/><text fill="#000000" font-family="sans-serif" font-size="20" font-weight="bold" lengthAdjust="spacing" textLength="22" x="69.5" y="2054.6367">35</text><text fill="#000000" font-family="sans-serif" font-size="20" lengthAdjust="spacing" textLength="353" x="95.5" y="2054.6367">asks to state the reason for declinement</text><polygon fill="#181818" points="903.5,2096.1875,913.5,2100.1875,903.5,2104.1875,907.5,2100.1875" style="stroke:#181818;stroke-width:1.0;"/><line style="stroke:#181818;stroke-width:1.0;" x1="52.5" x2="909.5" y1="2100.1875" y2="2100.1875"/><text fill="#000000" font-family="sans-serif" font-size="20" font-weight="bold" lengthAdjust="spacing" textLength="22" x="59.5" y="2093.793">36</text><text fill="#000000" font-family="sans-serif" font-size="20" lengthAdjust="spacing" textLength="206" x="85.5" y="2093.793">submits requested data</text><line style="stroke:#000000;stroke-width:1.0;stroke-dasharray:2.0,2.0;" x1="10" x2="1015" y1="2109.1875" y2="2109.1875"/><text fill="#000000" font-family="sans-serif" font-size="20" font-weight="bold" lengthAdjust="spacing" textLength="212" x="15" y="2129.9492">[accepts appointment]</text><polygon fill="#181818" points="903.5,2162.5,913.5,2166.5,903.5,2170.5,907.5,2166.5" style="stroke:#181818;stroke-width:1.0;"/><line style="stroke:#181818;stroke-width:1.0;" x1="52.5" x2="909.5" y1="2166.5" y2="2166.5"/><text fill="#000000" font-family="sans-serif" font-size="20" font-weight="bold" lengthAdjust="spacing" textLength="22" x="59.5" y="2160.1055">37</text><text fill="#000000" font-family="sans-serif" font-size="20" lengthAdjust="spacing" textLength="182" x="85.5" y="2160.1055">accepts appointment</text><polygon fill="#181818" points="63.5,2208.6563,53.5,2212.6563,63.5,2216.6563,59.5,2212.6563" style="stroke:#181818;stroke-width:1.0;"/><line style="stroke:#181818;stroke-width:1.0;stroke-dasharray:2.0,2.0;" x1="57.5" x2="919.5" y1="2212.6563" y2="2212.6563"/><text fill="#000000" font-family="sans-serif" font-size="20" font-weight="bold" lengthAdjust="spacing" textLength="22" x="69.5" y="2206.2617">38</text><text fill="#000000" font-family="sans-serif" font-size="20" lengthAdjust="spacing" textLength="437" x="95.5" y="2206.2617">shows the inserted data and asks for confirmation</text><polygon fill="#181818" points="903.5,2247.8125,913.5,2251.8125,903.5,2255.8125,907.5,2251.8125" style="stroke:#181818;stroke-width:1.0;"/><line style="stroke:#181818;stroke-width:1.0;" x1="52.5" x2="909.5" y1="2251.8125" y2="2251.8125"/><text fill="#000000" font-family="sans-serif" font-size="20" font-weight="bold" lengthAdjust="spacing" textLength="22" x="59.5" y="2245.418">39</text><text fill="#000000" font-family="sans-serif" font-size="20" lengthAdjust="spacing" textLength="119" x="85.5" y="2245.418">confirms data</text><polygon fill="#181818" points="1324.5,2286.9688,1334.5,2290.9688,1324.5,2294.9688,1328.5,2290.9688" style="stroke:#181818;stroke-width:1.0;"/><line style="stroke:#181818;stroke-width:1.0;" x1="925.5" x2="1330.5" y1="2290.9688" y2="2290.9688"/><text fill="#000000" font-family="sans-serif" font-size="20" font-weight="bold" lengthAdjust="spacing" textLength="22" x="932.5" y="2284.5742">40</text><text fill="#000000" font-family="sans-serif" font-size="20" lengthAdjust="spacing" textLength="366" x="958.5" y="2284.5742">sendVisualizedEmail(email, subject, body)</text><polygon fill="#181818" points="63.5,2356.125,53.5,2360.125,63.5,2364.125,59.5,2360.125" style="stroke:#181818;stroke-width:1.0;"/><line style="stroke:#181818;stroke-width:1.0;stroke-dasharray:2.0,2.0;" x1="57.5" x2="919.5" y1="2360.125" y2="2360.125"/><text fill="#000000" font-family="sans-serif" font-size="20" font-weight="bold" lengthAdjust="spacing" textLength="22" x="69.5" y="2353.7305">41</text><text fill="#000000" font-family="sans-serif" font-size="20" lengthAdjust="spacing" textLength="236" x="95.5" y="2353.7305">displays operation success</text><!--SRC=[tLZDRkCs4BxhAOXSQYyKeEWnw0P8DocmGBCjx6rFUw6biSs68bMHsjJxz1rIb4XAbEnjiJxKXqGQplzy77AaNfYeQKChBeiNA4a9Uzfo_RCKUik-0FdX-qprBAIIGXR7HbP0TDD2i5BJueKUOAjF74W3XQRYm4C6TQIbV6NYGFQKAyWoscefsce7JPPzTsGbaBsKUYV_pcYXPKDktd46GjyGgaZtcA4cpGfMKw79pLr7V0QbqF3lxmF6WROayGuZR2Jdq4mb_Tf8GmErL0pTErcXpV2wPIPUZ2WMyFoVnDqc5lPhiOpp0GNSa-Lspp5hrH4tePNdCIqKtypOxAMUQLsxX4IKf8U_CANHeFdteoFTXw9c8IdugAKQ2Jv-_3MIDIoPGGBxJ3Nq0CW8_hfdSdi_hZQvGmKlYcX9502Xd6EELIs50fFj0jXd1FWUiQMFk5pNaWbT6LqD_DM2qihg7ndrOBAhHGEJjG0kta7lrktOLS__vWqwtQcqecdvMN4KFe0EqhqgBEFQwfaF9d1uQZ5GZvOJ4E-ilXSADta1guInrBuOkCmlfVLsCSvWjuIAIZXlT24whpLAfLULYYvm9V8bKBOSotGppeGqjhGGYID-1IBwZZAiE6Y7kxTVwhNVUajcFO0l9YgAWajPsxs6qHm7Mo57z18PkPzcA8fhnTOJuN5OCyaDx6pYSla4ffmT5MPgPEeGruJjYMlHX2cRZQuQ4-Pq-2R5fgcLvSfHrad9iLjHwPOZIBA2AEDu8aA8XRCO7_HFJLyAwUu4GfLQuYcnscAwhTgSF5KrboUmR_C0ToVO3CpjGJCApLaCK66uOh0daJoI7nTIKBmulJL0_e1FgtcNewhC5ErIe_LH2lXWBrgTxTyyuKekbA2AXjMQOPUtBZnwmfLSO89fHlcZaN_R7Ly3uRekV6HLx88XNCa5tCVU_5FtSYqOjZlEr17A1o5aY_S6U_6oZYINhkIMQyzRFG3ZEQ1S2ndgeQuRYRVJdquFXoul4zetyYNHPwkXvw4VNTCrdIiFEaaUxkayt5rvYFEyHroUhdyUvJ-V1hq-cqBJcTqPwVsUJrMgtLiLYJoaHARPxIQLMJVFdf2n_5I_K-LPPa_Cv4Gq3Y8mi3WIB0yog5WTvQiYt21OxeD1Yueo6CCu5BWkOD5sFrijJNQTAcL7jxe1ZS32OQuAhchBkhzwi59euG-cMihP5oYVAihu2ipVdAXszoSwavETB4_hxA8vwnlalak9pm9PCO5tp8hQWvRkPAjTkYGYI9zmqnhJMAtH_9j_4jIs7Nj1CGMqMvrqdsVMlgIi4-qkiUGLPtfRPbeKK6EP6umGrqIa_ABAcykoarMHy2WVQMma9PSdu10MPzCzmDcU4YO3U0jKcEEz3pcoUIxSis1lTnNJglykOJxBKKql30cu0bUIVv7BMS5e1hW0dIPD33j2qxllOMG78Idsp67rFpS7fqpvD5sYwt_G24gcQavFYfWTtkrxrM85bJgRqs3D3QN_0000]--></g></svg>