<?xml version="1.0" encoding="us-ascii" standalone="no"?><svg xmlns="http://www.w3.org/2000/svg" xmlns:xlink="http://www.w3.org/1999/xlink" contentStyleType="text/css" height="586.8px" preserveAspectRatio="none" style="width:235px;height:586px;background:#FFFFFF;" version="1.1" viewBox="0 0 235 586" width="235.2px" zoomAndPan="magnify"><defs/><g><text fill="#000000" font-family="sans-serif" font-size="8.4" font-weight="bold" lengthAdjust="spacing" textLength="101.4" x="62.7" y="14.1211">US001 - Domain Model</text><!--class UnregisteredUser--><g id="elem_UnregisteredUser"><rect codeLine="11" fill="#F1F1F1" height="25.493" id="UnregisteredUser" rx="1.5" ry="1.5" style="stroke:#181818;stroke-width:0.3;" width="75.6" x="112.5" y="26.693"/><text fill="#000000" font-family="sans-serif" font-size="8.4" lengthAdjust="spacing" textLength="72" x="114.3" y="37.8141">UnregisteredUser</text><line style="stroke:#181818;stroke-width:0.3;" x1="113.1" x2="187.5" y1="42.5859" y2="42.5859"/><line style="stroke:#181818;stroke-width:0.3;" x1="113.1" x2="187.5" y1="47.3859" y2="47.3859"/></g><!--class Property--><g id="elem_Property"><rect codeLine="15" fill="#F1F1F1" height="74.9578" id="Property" rx="1.5" ry="1.5" style="stroke:#181818;stroke-width:0.3;" width="132.6" x="84" y="124.493"/><text fill="#000000" font-family="sans-serif" font-size="8.4" lengthAdjust="spacing" textLength="34.8" x="132.9" y="135.6141">Property</text><line style="stroke:#181818;stroke-width:0.3;" x1="84.6" x2="216" y1="140.3859" y2="140.3859"/><rect fill="none" height="3.6" style="stroke:#595959;stroke-width:0.6;" width="3.6" x="88.8" y="146.8324"/><text fill="#000000" font-family="sans-serif" font-size="8.4" lengthAdjust="spacing" textLength="19.2" x="96" y="150.907">Area</text><rect fill="none" height="3.6" style="stroke:#595959;stroke-width:0.6;" width="3.6" x="88.8" y="156.7254"/><text fill="#000000" font-family="sans-serif" font-size="8.4" lengthAdjust="spacing" textLength="28.2" x="96" y="160.8">Photos</text><rect fill="none" height="3.6" style="stroke:#595959;stroke-width:0.6;" width="3.6" x="88.8" y="166.6184"/><text fill="#000000" font-family="sans-serif" font-size="8.4" lengthAdjust="spacing" textLength="117" x="96" y="170.693">Distance from the city center</text><rect fill="none" height="3.6" style="stroke:#595959;stroke-width:0.6;" width="3.6" x="88.8" y="176.5113"/><text fill="#000000" font-family="sans-serif" font-size="8.4" lengthAdjust="spacing" textLength="82.2" x="96" y="180.5859">The requested price</text><rect fill="none" height="3.6" style="stroke:#595959;stroke-width:0.6;" width="3.6" x="88.8" y="186.4043"/><text fill="#000000" font-family="sans-serif" font-size="8.4" lengthAdjust="spacing" textLength="33.6" x="96" y="190.4789">Address</text><line style="stroke:#181818;stroke-width:0.3;" x1="84.6" x2="216" y1="194.6508" y2="194.6508"/></g><!--class Residence--><g id="elem_Residence"><rect codeLine="24" fill="#F1F1F1" height="65.0648" id="Residence" rx="1.5" ry="1.5" style="stroke:#181818;stroke-width:0.3;" width="123.6" x="33.9" y="277.193"/><text fill="#000000" font-family="sans-serif" font-size="8.4" lengthAdjust="spacing" textLength="41.4" x="75" y="288.3141">Residence</text><line style="stroke:#181818;stroke-width:0.3;" x1="34.5" x2="156.9" y1="293.0859" y2="293.0859"/><rect fill="none" height="3.6" style="stroke:#595959;stroke-width:0.6;" width="3.6" x="38.7" y="299.5324"/><text fill="#000000" font-family="sans-serif" font-size="8.4" lengthAdjust="spacing" textLength="87.6" x="45.9" y="303.607">Number of Bedrooms</text><rect fill="none" height="3.6" style="stroke:#595959;stroke-width:0.6;" width="3.6" x="38.7" y="309.4254"/><text fill="#000000" font-family="sans-serif" font-size="8.4" lengthAdjust="spacing" textLength="90.6" x="45.9" y="313.5">Number of Bathrooms</text><rect fill="none" height="3.6" style="stroke:#595959;stroke-width:0.6;" width="3.6" x="38.7" y="319.3184"/><text fill="#000000" font-family="sans-serif" font-size="8.4" lengthAdjust="spacing" textLength="108" x="45.9" y="323.393">Number of Parking Spaces</text><rect fill="none" height="3.6" style="stroke:#595959;stroke-width:0.6;" width="3.6" x="38.7" y="329.2113"/><text fill="#000000" font-family="sans-serif" font-size="8.4" lengthAdjust="spacing" textLength="81.6" x="45.9" y="333.2859">AvailableEquipment</text><line style="stroke:#181818;stroke-width:0.3;" x1="34.5" x2="156.9" y1="337.4578" y2="337.4578"/></g><!--class House--><g id="elem_House"><rect codeLine="32" fill="#F1F1F1" height="55.1719" id="House" rx="1.5" ry="1.5" style="stroke:#181818;stroke-width:0.3;" width="79.8" x="4.2" y="419.693"/><text fill="#000000" font-family="sans-serif" font-size="8.4" lengthAdjust="spacing" textLength="25.8" x="31.2" y="430.8141">House</text><line style="stroke:#181818;stroke-width:0.3;" x1="4.8" x2="83.4" y1="435.5859" y2="435.5859"/><rect fill="none" height="3.6" style="stroke:#595959;stroke-width:0.6;" width="3.6" x="9" y="442.0324"/><text fill="#000000" font-family="sans-serif" font-size="8.4" lengthAdjust="spacing" textLength="39.6" x="16.2" y="446.107">Basement</text><rect fill="none" height="3.6" style="stroke:#595959;stroke-width:0.6;" width="3.6" x="9" y="451.9254"/><text fill="#000000" font-family="sans-serif" font-size="8.4" lengthAdjust="spacing" textLength="64.2" x="16.2" y="456">Inhabitable Loft</text><rect fill="none" height="3.6" style="stroke:#595959;stroke-width:0.6;" width="3.6" x="9" y="461.8184"/><text fill="#000000" font-family="sans-serif" font-size="8.4" lengthAdjust="spacing" textLength="54.6" x="16.2" y="465.893">SunExposure</text><line style="stroke:#181818;stroke-width:0.3;" x1="4.8" x2="83.4" y1="470.0648" y2="470.0648"/></g><!--class SunExposure--><g id="elem_SunExposure"><rect codeLine="39" fill="#F1F1F1" height="35.3859" id="SunExposure" rx="1.5" ry="1.5" style="stroke:#181818;stroke-width:0.3;" width="58.2" x="15" y="547.493"/><text fill="#000000" font-family="sans-serif" font-size="8.4" lengthAdjust="spacing" textLength="54.6" x="16.8" y="558.6141">SunExposure</text><line style="stroke:#181818;stroke-width:0.3;" x1="15.6" x2="72.6" y1="563.3859" y2="563.3859"/><rect fill="none" height="3.6" style="stroke:#595959;stroke-width:0.6;" width="3.6" x="19.8" y="569.8324"/><text fill="#000000" font-family="sans-serif" font-size="8.4" lengthAdjust="spacing" textLength="37.2" x="27" y="573.907">Direction</text><line style="stroke:#181818;stroke-width:0.3;" x1="15.6" x2="72.6" y1="578.0789" y2="578.0789"/></g><!--class Address--><g id="elem_Address"><rect codeLine="44" fill="#F1F1F1" height="74.9578" id="Address" rx="1.5" ry="1.5" style="stroke:#181818;stroke-width:0.3;" width="52.2" x="178.8" y="272.093"/><text fill="#000000" font-family="sans-serif" font-size="8.4" lengthAdjust="spacing" textLength="33.6" x="188.1" y="283.2141">Address</text><line style="stroke:#181818;stroke-width:0.3;" x1="179.4" x2="230.4" y1="287.9859" y2="287.9859"/><rect fill="none" height="3.6" style="stroke:#595959;stroke-width:0.6;" width="3.6" x="183.6" y="294.4324"/><text fill="#000000" font-family="sans-serif" font-size="8.4" lengthAdjust="spacing" textLength="24" x="190.8" y="298.507">Street</text><rect fill="none" height="3.6" style="stroke:#595959;stroke-width:0.6;" width="3.6" x="183.6" y="304.3254"/><text fill="#000000" font-family="sans-serif" font-size="8.4" lengthAdjust="spacing" textLength="15.6" x="190.8" y="308.4">City</text><rect fill="none" height="3.6" style="stroke:#595959;stroke-width:0.6;" width="3.6" x="183.6" y="314.2184"/><text fill="#000000" font-family="sans-serif" font-size="8.4" lengthAdjust="spacing" textLength="29.4" x="190.8" y="318.293">County</text><rect fill="none" height="3.6" style="stroke:#595959;stroke-width:0.6;" width="3.6" x="183.6" y="324.1113"/><text fill="#000000" font-family="sans-serif" font-size="8.4" lengthAdjust="spacing" textLength="20.4" x="190.8" y="328.1859">State</text><rect fill="none" height="3.6" style="stroke:#595959;stroke-width:0.6;" width="3.6" x="183.6" y="334.0043"/><text fill="#000000" font-family="sans-serif" font-size="8.4" lengthAdjust="spacing" textLength="36.6" x="190.8" y="338.0789">Zip Code</text><line style="stroke:#181818;stroke-width:0.3;" x1="179.4" x2="230.4" y1="342.2508" y2="342.2508"/></g><!--class AvailableEquipment--><g id="elem_AvailableEquipment"><rect codeLine="53" fill="#F1F1F1" height="35.3859" id="AvailableEquipment" rx="1.5" ry="1.5" style="stroke:#181818;stroke-width:0.3;" width="85.2" x="105.3" y="429.593"/><text fill="#000000" font-family="sans-serif" font-size="8.4" lengthAdjust="spacing" textLength="81.6" x="107.1" y="440.7141">AvailableEquipment</text><line style="stroke:#181818;stroke-width:0.3;" x1="105.9" x2="189.9" y1="445.4859" y2="445.4859"/><rect fill="none" height="3.6" style="stroke:#595959;stroke-width:0.6;" width="3.6" x="110.1" y="451.9324"/><text fill="#000000" font-family="sans-serif" font-size="8.4" lengthAdjust="spacing" textLength="44.4" x="117.3" y="456.007">Equipment</text><line style="stroke:#181818;stroke-width:0.3;" x1="105.9" x2="189.9" y1="460.1789" y2="460.1789"/></g><!--link UnregisteredUser to Property--><g id="link_UnregisteredUser_Property"><path codeLine="58" d="M150.3,52.193 C150.3,69.173 150.3,99.755 150.3,124.337 " fill="none" id="UnregisteredUser-Property" style="stroke:#181818;stroke-width:0.6;"/><polygon fill="#000000" points="96.9,86.2581,98.6634,80.8311,95.1366,80.8311,96.9,86.2581" style="stroke:#000000;stroke-width:0.6;"/><text fill="#000000" font-family="sans-serif" font-size="7.8" lengthAdjust="spacing" textLength="47.4" x="102.3" y="86.206">wants to see</text><text fill="#000000" font-family="sans-serif" font-size="7.8" lengthAdjust="spacing" textLength="3.6" x="146.1938" y="64.6127">*</text><text fill="#000000" font-family="sans-serif" font-size="7.8" lengthAdjust="spacing" textLength="3.6" x="146.4919" y="118.0169">*</text></g><!--reverse link Property to Residence--><g id="link_Property_Residence"><path codeLine="60" d="M120.75,212.531 C120.75,212.531 120.75,277.049 120.75,277.049 " fill="none" id="Property-backto-Residence" style="stroke:#181818;stroke-width:0.6;"/><polygon fill="none" points="116.55,212.531,120.75,200.531,124.95,212.531,116.55,212.531" style="stroke:#181818;stroke-width:0.6;"/></g><!--link Property to Address--><g id="link_Property_Address"><path codeLine="61" d="M197.7,199.619 C197.7,221.825 197.7,249.839 197.7,272.033 " fill="none" id="Property-Address" style="stroke:#181818;stroke-width:0.6;"/><polygon fill="#000000" points="178.5,227.8221,176.7366,233.2492,180.2634,233.2492,178.5,227.8221" style="stroke:#000000;stroke-width:0.6;"/><text fill="#000000" font-family="sans-serif" font-size="7.8" lengthAdjust="spacing" textLength="13.2" x="183.9" y="233.77">has</text><text fill="#000000" font-family="sans-serif" font-size="7.8" lengthAdjust="spacing" textLength="3.6" x="199.0875" y="211.78">*</text><text fill="#000000" font-family="sans-serif" font-size="7.8" lengthAdjust="spacing" textLength="4.8" x="191.79" y="265.724">1</text></g><!--link Residence to AvailableEquipment--><g id="link_Residence_AvailableEquipment"><path codeLine="63" d="M131.4,342.227 C131.4,369.503 131.4,407.387 131.4,429.425 " fill="none" id="Residence-AvailableEquipment" style="stroke:#181818;stroke-width:0.6;"/><polygon fill="#000000" points="112.2,377.8161,110.4366,383.2432,113.9634,383.2432,112.2,377.8161" style="stroke:#000000;stroke-width:0.6;"/><text fill="#000000" font-family="sans-serif" font-size="7.8" lengthAdjust="spacing" textLength="13.2" x="117.6" y="383.764">has</text><text fill="#000000" font-family="sans-serif" font-size="7.8" lengthAdjust="spacing" textLength="3.6" x="132.1434" y="354.5207">*</text><text fill="#000000" font-family="sans-serif" font-size="7.8" lengthAdjust="spacing" textLength="4.8" x="122.4656" y="423.0949">1</text></g><!--reverse link Residence to House--><g id="link_Residence_House"><path codeLine="64" d="M58.95,355.133 C58.95,355.133 58.95,419.543 58.95,419.543 " fill="none" id="Residence-backto-House" style="stroke:#181818;stroke-width:0.6;"/><polygon fill="none" points="54.75,355.133,58.95,343.133,63.15,355.133,54.75,355.133" style="stroke:#181818;stroke-width:0.6;"/></g><!--link House to SunExposure--><g id="link_House_SunExposure"><path codeLine="66" d="M44.1,474.935 C44.1,497.261 44.1,528.023 44.1,547.253 " fill="none" id="House-SunExposure" style="stroke:#181818;stroke-width:0.6;"/><polygon fill="#000000" points="24.9,503.0841,23.1366,508.5112,26.6634,508.5112,24.9,503.0841" style="stroke:#000000;stroke-width:0.6;"/><text fill="#000000" font-family="sans-serif" font-size="7.8" lengthAdjust="spacing" textLength="13.2" x="30.3" y="509.032">has</text><text fill="#000000" font-family="sans-serif" font-size="7.8" lengthAdjust="spacing" textLength="3.6" x="40.2356" y="487.2126">*</text><text fill="#000000" font-family="sans-serif" font-size="7.8" lengthAdjust="spacing" textLength="4.8" x="38.805" y="541.1864">1</text></g><!--SRC=[PL71Rjim3BthAuWS1nXeUooA0krIe0Mw8PYNoswApCH2RL6bg6x5jdyVvIosYlWYuptoyV5Hl0m8s_RYuX8QMDDeVO0lrE5WJ7hn8Lgs8noOSdmAFR8N6np2LKME5CZrJ2E2SCQA6Nn0UOy8nDAJwNs7u3ox0Or-Rh0fmJOm7dmIPEos2Hb-cxypkM6AoFAkO0DtZ5QVJKz2IN_MsZMPsUjiaBveQwd3e6BAVrU4yJMZYdSGsJiiAbt7c58rv1icDLQ4ofIlUTof2zh3FNPCDAQFe9N-7DrOrgKFq4Rhi51tRzOFTZVWmslsSLHB1fQ9ZvJJSTgzJJYn3MYyTgVnQXCyqxv0RGuFloAbp5ZvhT19O-qPdNWALSt_BIU-5KOiSfyrdl9G3jDFArPA93zyLB2hPvpxdwIMRKhfsUbMdrRGDCtqdavt3Jzja0H2a13XrfZvg3T_Il4S_qBCEfUhUPDhw6s26sEMStqeEpTywbWQZWEdz8qv7g7Mg8CzDVy3]--></g></svg>