<?xml version="1.0" encoding="us-ascii" standalone="no"?><svg xmlns="http://www.w3.org/2000/svg" xmlns:xlink="http://www.w3.org/1999/xlink" contentStyleType="text/css" height="541px" preserveAspectRatio="none" style="width:1344px;height:541px;background:#FFFFFF;" version="1.1" viewBox="0 0 1344 541" width="1344px" zoomAndPan="magnify"><defs/><g><!--class Client--><g id="elem_Client"><rect codeLine="4" fill="#F1F1F1" height="130.4414" id="Client" rx="2.5" ry="2.5" style="stroke:#181818;stroke-width:0.5;" width="270" x="656" y="7"/><ellipse cx="766.75" cy="23" fill="#ADD1B2" rx="11" ry="11" style="stroke:#181818;stroke-width:1.0;"/><path d="M769.7231,28.6431 Q769.1421,28.9419 768.5029,29.0913 Q767.8638,29.2407 767.1582,29.2407 Q764.6514,29.2407 763.3315,27.5889 Q762.0117,25.937 762.0117,22.8159 Q762.0117,19.6865 763.3315,18.0347 Q764.6514,16.3828 767.1582,16.3828 Q767.8638,16.3828 768.5112,16.5322 Q769.1587,16.6816 769.7231,16.9805 L769.7231,19.7031 Q769.0923,19.1221 768.4988,18.8523 Q767.9053,18.5825 767.2744,18.5825 Q765.9297,18.5825 765.2449,19.6492 Q764.5601,20.7158 764.5601,22.8159 Q764.5601,24.9077 765.2449,25.9744 Q765.9297,27.041 767.2744,27.041 Q767.9053,27.041 768.4988,26.7712 Q769.0923,26.5015 769.7231,25.9204 Z " fill="#000000"/><text fill="#000000" font-family="sans-serif" font-size="14" lengthAdjust="spacing" textLength="40" x="787.25" y="28.291">Client</text><line style="stroke:#181818;stroke-width:0.5;" x1="657" x2="925" y1="39" y2="39"/><rect fill="none" height="6" style="stroke:#C82930;stroke-width:1.0;" width="6" x="664" y="49.7441"/><text fill="#000000" font-family="sans-serif" font-size="14" lengthAdjust="spacing" textLength="38" x="676" y="56.5352">name</text><rect fill="none" height="6" style="stroke:#C82930;stroke-width:1.0;" width="6" x="664" y="66.2324"/><text fill="#000000" font-family="sans-serif" font-size="14" lengthAdjust="spacing" textLength="110" x="676" y="73.0234">type of property</text><rect fill="none" height="6" style="stroke:#C82930;stroke-width:1.0;" width="6" x="664" y="82.7207"/><text fill="#000000" font-family="sans-serif" font-size="14" lengthAdjust="spacing" textLength="111" x="676" y="89.5117">type of business</text><rect fill="none" height="6" style="stroke:#C82930;stroke-width:1.0;" width="6" x="664" y="99.209"/><text fill="#000000" font-family="sans-serif" font-size="14" lengthAdjust="spacing" textLength="120" x="676" y="106">number of rooms</text><line style="stroke:#181818;stroke-width:0.5;" x1="657" x2="925" y1="112.9531" y2="112.9531"/><rect fill="#F24D5C" height="6" style="stroke:#C82930;stroke-width:1.0;" width="6" x="664" y="123.6973"/><text fill="#000000" font-family="sans-serif" font-size="14" lengthAdjust="spacing" textLength="244" x="676" y="130.4883">sorting criteria(price and/or parish)</text></g><!--class Property--><g id="elem_Property"><rect codeLine="12" fill="#F1F1F1" height="130.4414" id="Property" rx="2.5" ry="2.5" style="stroke:#181818;stroke-width:0.5;" width="220" x="1117" y="222"/><ellipse cx="1193.75" cy="238" fill="#ADD1B2" rx="11" ry="11" style="stroke:#181818;stroke-width:1.0;"/><path d="M1196.7231,243.6431 Q1196.1421,243.9419 1195.5029,244.0913 Q1194.8638,244.2407 1194.1582,244.2407 Q1191.6514,244.2407 1190.3315,242.5889 Q1189.0117,240.937 1189.0117,237.8159 Q1189.0117,234.6865 1190.3315,233.0347 Q1191.6514,231.3828 1194.1582,231.3828 Q1194.8638,231.3828 1195.5112,231.5322 Q1196.1587,231.6816 1196.7231,231.9805 L1196.7231,234.7031 Q1196.0923,234.1221 1195.4988,233.8523 Q1194.9053,233.5825 1194.2744,233.5825 Q1192.9297,233.5825 1192.2449,234.6492 Q1191.5601,235.7158 1191.5601,237.8159 Q1191.5601,239.9077 1192.2449,240.9744 Q1192.9297,242.041 1194.2744,242.041 Q1194.9053,242.041 1195.4988,241.7712 Q1196.0923,241.5015 1196.7231,240.9204 Z " fill="#000000"/><text fill="#000000" font-family="sans-serif" font-size="14" lengthAdjust="spacing" textLength="58" x="1214.25" y="243.291">Property</text><line style="stroke:#181818;stroke-width:0.5;" x1="1118" x2="1336" y1="254" y2="254"/><rect fill="none" height="6" style="stroke:#C82930;stroke-width:1.0;" width="6" x="1125" y="264.7441"/><text fill="#000000" font-family="sans-serif" font-size="14" lengthAdjust="spacing" textLength="30" x="1137" y="271.5352">area</text><rect fill="none" height="6" style="stroke:#C82930;stroke-width:1.0;" width="6" x="1125" y="281.2324"/><text fill="#000000" font-family="sans-serif" font-size="14" lengthAdjust="spacing" textLength="55" x="1137" y="288.0234">location</text><rect fill="none" height="6" style="stroke:#C82930;stroke-width:1.0;" width="6" x="1125" y="297.7207"/><text fill="#000000" font-family="sans-serif" font-size="14" lengthAdjust="spacing" textLength="48" x="1137" y="304.5117">photos</text><rect fill="none" height="6" style="stroke:#C82930;stroke-width:1.0;" width="6" x="1125" y="314.209"/><text fill="#000000" font-family="sans-serif" font-size="14" lengthAdjust="spacing" textLength="194" x="1137" y="321">distance from the city center</text><rect fill="none" height="6" style="stroke:#C82930;stroke-width:1.0;" width="6" x="1125" y="330.6973"/><text fill="#000000" font-family="sans-serif" font-size="14" lengthAdjust="spacing" textLength="133" x="1137" y="337.4883">the requested price</text><line style="stroke:#181818;stroke-width:0.5;" x1="1118" x2="1336" y1="344.4414" y2="344.4414"/></g><!--class Residence--><g id="elem_Residence"><rect codeLine="22" fill="#F1F1F1" height="113.9531" id="Residence" rx="2.5" ry="2.5" style="stroke:#181818;stroke-width:0.5;" width="205" x="688.5" y="172"/><ellipse cx="752.25" cy="188" fill="#ADD1B2" rx="11" ry="11" style="stroke:#181818;stroke-width:1.0;"/><path d="M755.2231,193.6431 Q754.6421,193.9419 754.0029,194.0913 Q753.3638,194.2407 752.6582,194.2407 Q750.1514,194.2407 748.8315,192.5889 Q747.5117,190.937 747.5117,187.8159 Q747.5117,184.6865 748.8315,183.0347 Q750.1514,181.3828 752.6582,181.3828 Q753.3638,181.3828 754.0112,181.5322 Q754.6587,181.6816 755.2231,181.9805 L755.2231,184.7031 Q754.5923,184.1221 753.9988,183.8523 Q753.4053,183.5825 752.7744,183.5825 Q751.4297,183.5825 750.7449,184.6492 Q750.0601,185.7158 750.0601,187.8159 Q750.0601,189.9077 750.7449,190.9744 Q751.4297,192.041 752.7744,192.041 Q753.4053,192.041 753.9988,191.7712 Q754.5923,191.5015 755.2231,190.9204 Z " fill="#000000"/><text fill="#000000" font-family="sans-serif" font-size="14" lengthAdjust="spacing" textLength="69" x="772.75" y="193.291">Residence</text><line style="stroke:#181818;stroke-width:0.5;" x1="689.5" x2="892.5" y1="204" y2="204"/><rect fill="none" height="6" style="stroke:#C82930;stroke-width:1.0;" width="6" x="696.5" y="214.7441"/><text fill="#000000" font-family="sans-serif" font-size="14" lengthAdjust="spacing" textLength="146" x="708.5" y="221.5352">number of bedrooms</text><rect fill="none" height="6" style="stroke:#C82930;stroke-width:1.0;" width="6" x="696.5" y="231.2324"/><text fill="#000000" font-family="sans-serif" font-size="14" lengthAdjust="spacing" textLength="151" x="708.5" y="238.0234">number of bathrooms</text><rect fill="none" height="6" style="stroke:#C82930;stroke-width:1.0;" width="6" x="696.5" y="247.7207"/><text fill="#000000" font-family="sans-serif" font-size="14" lengthAdjust="spacing" textLength="179" x="708.5" y="254.5117">number of parking spaces</text><rect fill="none" height="6" style="stroke:#C82930;stroke-width:1.0;" width="6" x="696.5" y="264.209"/><text fill="#000000" font-family="sans-serif" font-size="14" lengthAdjust="spacing" textLength="136" x="708.5" y="271">AvailableEquipment</text><line style="stroke:#181818;stroke-width:0.5;" x1="689.5" x2="892.5" y1="277.9531" y2="277.9531"/></g><!--class Apartment--><g id="elem_Apartment"><rect codeLine="29" fill="#F1F1F1" height="48" id="Apartment" rx="2.5" ry="2.5" style="stroke:#181818;stroke-width:0.5;" width="105" x="340.5" y="97"/><ellipse cx="355.5" cy="113" fill="#ADD1B2" rx="11" ry="11" style="stroke:#181818;stroke-width:1.0;"/><path d="M358.4731,118.6431 Q357.8921,118.9419 357.2529,119.0913 Q356.6138,119.2407 355.9082,119.2407 Q353.4014,119.2407 352.0815,117.5889 Q350.7617,115.937 350.7617,112.8159 Q350.7617,109.6865 352.0815,108.0347 Q353.4014,106.3828 355.9082,106.3828 Q356.6138,106.3828 357.2612,106.5322 Q357.9087,106.6816 358.4731,106.9805 L358.4731,109.7031 Q357.8423,109.1221 357.2488,108.8523 Q356.6553,108.5825 356.0244,108.5825 Q354.6797,108.5825 353.9949,109.6492 Q353.3101,110.7158 353.3101,112.8159 Q353.3101,114.9077 353.9949,115.9744 Q354.6797,117.041 356.0244,117.041 Q356.6553,117.041 357.2488,116.7712 Q357.8423,116.5015 358.4731,115.9204 Z " fill="#000000"/><text fill="#000000" font-family="sans-serif" font-size="14" lengthAdjust="spacing" textLength="73" x="369.5" y="118.291">Apartment</text><line style="stroke:#181818;stroke-width:0.5;" x1="341.5" x2="444.5" y1="129" y2="129"/><line style="stroke:#181818;stroke-width:0.5;" x1="341.5" x2="444.5" y1="137" y2="137"/></g><!--class House--><g id="elem_House"><rect codeLine="32" fill="#F1F1F1" height="97.4648" id="House" rx="2.5" ry="2.5" style="stroke:#181818;stroke-width:0.5;" width="130" x="328" y="180.5"/><ellipse cx="367.75" cy="196.5" fill="#ADD1B2" rx="11" ry="11" style="stroke:#181818;stroke-width:1.0;"/><path d="M370.7231,202.1431 Q370.1421,202.4419 369.5029,202.5913 Q368.8638,202.7407 368.1582,202.7407 Q365.6514,202.7407 364.3315,201.0889 Q363.0117,199.437 363.0117,196.3159 Q363.0117,193.1865 364.3315,191.5347 Q365.6514,189.8828 368.1582,189.8828 Q368.8638,189.8828 369.5112,190.0322 Q370.1587,190.1816 370.7231,190.4805 L370.7231,193.2031 Q370.0923,192.6221 369.4988,192.3523 Q368.9053,192.0825 368.2744,192.0825 Q366.9297,192.0825 366.2449,193.1492 Q365.5601,194.2158 365.5601,196.3159 Q365.5601,198.4077 366.2449,199.4744 Q366.9297,200.541 368.2744,200.541 Q368.9053,200.541 369.4988,200.2712 Q370.0923,200.0015 370.7231,199.4204 Z " fill="#000000"/><text fill="#000000" font-family="sans-serif" font-size="14" lengthAdjust="spacing" textLength="43" x="387.25" y="201.791">House</text><line style="stroke:#181818;stroke-width:0.5;" x1="329" x2="457" y1="212.5" y2="212.5"/><rect fill="none" height="6" style="stroke:#C82930;stroke-width:1.0;" width="6" x="336" y="223.2441"/><text fill="#000000" font-family="sans-serif" font-size="14" lengthAdjust="spacing" textLength="67" x="348" y="230.0352">basement</text><rect fill="none" height="6" style="stroke:#C82930;stroke-width:1.0;" width="6" x="336" y="239.7324"/><text fill="#000000" font-family="sans-serif" font-size="14" lengthAdjust="spacing" textLength="104" x="348" y="246.5234">inhabitable loft</text><rect fill="none" height="6" style="stroke:#C82930;stroke-width:1.0;" width="6" x="336" y="256.2207"/><text fill="#000000" font-family="sans-serif" font-size="14" lengthAdjust="spacing" textLength="91" x="348" y="263.0117">SunExposure</text><line style="stroke:#181818;stroke-width:0.5;" x1="329" x2="457" y1="269.9648" y2="269.9648"/></g><!--class Land--><g id="elem_Land"><rect codeLine="38" fill="#F1F1F1" height="48" id="Land" rx="2.5" ry="2.5" style="stroke:#181818;stroke-width:0.5;" width="65" x="758.5" y="321"/><ellipse cx="773.5" cy="337" fill="#ADD1B2" rx="11" ry="11" style="stroke:#181818;stroke-width:1.0;"/><path d="M776.4731,342.6431 Q775.8921,342.9419 775.2529,343.0913 Q774.6138,343.2407 773.9082,343.2407 Q771.4014,343.2407 770.0815,341.5889 Q768.7617,339.937 768.7617,336.8159 Q768.7617,333.6865 770.0815,332.0347 Q771.4014,330.3828 773.9082,330.3828 Q774.6138,330.3828 775.2612,330.5322 Q775.9087,330.6816 776.4731,330.9805 L776.4731,333.7031 Q775.8423,333.1221 775.2488,332.8523 Q774.6553,332.5825 774.0244,332.5825 Q772.6797,332.5825 771.9949,333.6492 Q771.3101,334.7158 771.3101,336.8159 Q771.3101,338.9077 771.9949,339.9744 Q772.6797,341.041 774.0244,341.041 Q774.6553,341.041 775.2488,340.7712 Q775.8423,340.5015 776.4731,339.9204 Z " fill="#000000"/><text fill="#000000" font-family="sans-serif" font-size="14" lengthAdjust="spacing" textLength="33" x="787.5" y="342.291">Land</text><line style="stroke:#181818;stroke-width:0.5;" x1="759.5" x2="822.5" y1="353" y2="353"/><line style="stroke:#181818;stroke-width:0.5;" x1="759.5" x2="822.5" y1="361" y2="361"/></g><!--class SunExposure--><g id="elem_SunExposure"><rect codeLine="42" fill="#F1F1F1" height="64.4883" id="SunExposure" rx="2.5" ry="2.5" style="stroke:#181818;stroke-width:0.5;" width="123" x="7" y="197"/><ellipse cx="22" cy="213" fill="#ADD1B2" rx="11" ry="11" style="stroke:#181818;stroke-width:1.0;"/><path d="M24.9731,218.6431 Q24.3921,218.9419 23.7529,219.0913 Q23.1138,219.2407 22.4082,219.2407 Q19.9014,219.2407 18.5815,217.5889 Q17.2617,215.937 17.2617,212.8159 Q17.2617,209.6865 18.5815,208.0347 Q19.9014,206.3828 22.4082,206.3828 Q23.1138,206.3828 23.7612,206.5322 Q24.4087,206.6816 24.9731,206.9805 L24.9731,209.7031 Q24.3423,209.1221 23.7488,208.8523 Q23.1553,208.5825 22.5244,208.5825 Q21.1797,208.5825 20.4949,209.6492 Q19.8101,210.7158 19.8101,212.8159 Q19.8101,214.9077 20.4949,215.9744 Q21.1797,217.041 22.5244,217.041 Q23.1553,217.041 23.7488,216.7712 Q24.3423,216.5015 24.9731,215.9204 Z " fill="#000000"/><text fill="#000000" font-family="sans-serif" font-size="14" lengthAdjust="spacing" textLength="91" x="36" y="218.291">SunExposure</text><line style="stroke:#181818;stroke-width:0.5;" x1="8" x2="129" y1="229" y2="229"/><rect fill="none" height="6" style="stroke:#C82930;stroke-width:1.0;" width="6" x="15" y="239.7441"/><text fill="#000000" font-family="sans-serif" font-size="14" lengthAdjust="spacing" textLength="61" x="27" y="246.5352">direction</text><line style="stroke:#181818;stroke-width:0.5;" x1="8" x2="129" y1="253.4883" y2="253.4883"/></g><!--class LocationOrAddress--><g id="elem_LocationOrAddress"><rect codeLine="54" fill="#F1F1F1" height="130.4414" id="LocationOrAddress" rx="2.5" ry="2.5" style="stroke:#181818;stroke-width:0.5;" width="163" x="709.5" y="404"/><ellipse cx="724.5" cy="420" fill="#ADD1B2" rx="11" ry="11" style="stroke:#181818;stroke-width:1.0;"/><path d="M727.4731,425.6431 Q726.8921,425.9419 726.2529,426.0913 Q725.6138,426.2407 724.9082,426.2407 Q722.4014,426.2407 721.0815,424.5889 Q719.7617,422.937 719.7617,419.8159 Q719.7617,416.6865 721.0815,415.0347 Q722.4014,413.3828 724.9082,413.3828 Q725.6138,413.3828 726.2612,413.5322 Q726.9087,413.6816 727.4731,413.9805 L727.4731,416.7031 Q726.8423,416.1221 726.2488,415.8523 Q725.6553,415.5825 725.0244,415.5825 Q723.6797,415.5825 722.9949,416.6492 Q722.3101,417.7158 722.3101,419.8159 Q722.3101,421.9077 722.9949,422.9744 Q723.6797,424.041 725.0244,424.041 Q725.6553,424.041 726.2488,423.7712 Q726.8423,423.5015 727.4731,422.9204 Z " fill="#000000"/><text fill="#000000" font-family="sans-serif" font-size="14" lengthAdjust="spacing" textLength="131" x="738.5" y="425.291">LocationOrAddress</text><line style="stroke:#181818;stroke-width:0.5;" x1="710.5" x2="871.5" y1="436" y2="436"/><rect fill="none" height="6" style="stroke:#C82930;stroke-width:1.0;" width="6" x="717.5" y="446.7441"/><text fill="#000000" font-family="sans-serif" font-size="14" lengthAdjust="spacing" textLength="39" x="729.5" y="453.5352">street</text><rect fill="none" height="6" style="stroke:#C82930;stroke-width:1.0;" width="6" x="717.5" y="463.2324"/><text fill="#000000" font-family="sans-serif" font-size="14" lengthAdjust="spacing" textLength="23" x="729.5" y="470.0234">city</text><rect fill="none" height="6" style="stroke:#C82930;stroke-width:1.0;" width="6" x="717.5" y="479.7207"/><text fill="#000000" font-family="sans-serif" font-size="14" lengthAdjust="spacing" textLength="46" x="729.5" y="486.5117">county</text><rect fill="none" height="6" style="stroke:#C82930;stroke-width:1.0;" width="6" x="717.5" y="496.209"/><text fill="#000000" font-family="sans-serif" font-size="14" lengthAdjust="spacing" textLength="33" x="729.5" y="503">state</text><rect fill="none" height="6" style="stroke:#C82930;stroke-width:1.0;" width="6" x="717.5" y="512.6973"/><text fill="#000000" font-family="sans-serif" font-size="14" lengthAdjust="spacing" textLength="58" x="729.5" y="519.4883">zip code</text><line style="stroke:#181818;stroke-width:0.5;" x1="710.5" x2="871.5" y1="526.4414" y2="526.4414"/></g><!--class AvailableEquipment--><g id="elem_AvailableEquipment"><rect codeLine="62" fill="#F1F1F1" height="80.9766" id="AvailableEquipment" rx="2.5" ry="2.5" style="stroke:#181818;stroke-width:0.5;" width="168" x="309" y="312.5"/><ellipse cx="324" cy="328.5" fill="#ADD1B2" rx="11" ry="11" style="stroke:#181818;stroke-width:1.0;"/><path d="M326.9731,334.1431 Q326.3921,334.4419 325.7529,334.5913 Q325.1138,334.7407 324.4082,334.7407 Q321.9014,334.7407 320.5815,333.0889 Q319.2617,331.437 319.2617,328.3159 Q319.2617,325.1865 320.5815,323.5347 Q321.9014,321.8828 324.4082,321.8828 Q325.1138,321.8828 325.7612,322.0322 Q326.4087,322.1816 326.9731,322.4805 L326.9731,325.2031 Q326.3423,324.6221 325.7488,324.3523 Q325.1553,324.0825 324.5244,324.0825 Q323.1797,324.0825 322.4949,325.1492 Q321.8101,326.2158 321.8101,328.3159 Q321.8101,330.4077 322.4949,331.4744 Q323.1797,332.541 324.5244,332.541 Q325.1553,332.541 325.7488,332.2712 Q326.3423,332.0015 326.9731,331.4204 Z " fill="#000000"/><text fill="#000000" font-family="sans-serif" font-size="14" lengthAdjust="spacing" textLength="136" x="338" y="333.791">AvailableEquipment</text><line style="stroke:#181818;stroke-width:0.5;" x1="310" x2="476" y1="344.5" y2="344.5"/><rect fill="none" height="6" style="stroke:#C82930;stroke-width:1.0;" width="6" x="317" y="355.2441"/><text fill="#000000" font-family="sans-serif" font-size="14" lengthAdjust="spacing" textLength="103" x="329" y="362.0352">central heating</text><rect fill="none" height="6" style="stroke:#C82930;stroke-width:1.0;" width="6" x="317" y="371.7324"/><text fill="#000000" font-family="sans-serif" font-size="14" lengthAdjust="spacing" textLength="105" x="329" y="378.5234">airconditioning</text><line style="stroke:#181818;stroke-width:0.5;" x1="310" x2="476" y1="385.4766" y2="385.4766"/></g><!--link Client to Property--><g id="link_Client_Property"><path codeLine="20" d="M923.98,137.38 C985.58,167.9 1058.03,203.79 1116.53,232.77 " fill="none" id="Client-Property" style="stroke:#181818;stroke-width:1.0;"/><polygon fill="#000000" points="996.4803,162.8749,989.68,156.2261,987.0707,161.4931,996.4803,162.8749" style="stroke:#000000;stroke-width:1.0;"/><text fill="#000000" font-family="sans-serif" font-size="13" lengthAdjust="spacing" textLength="54" x="1001" y="165.5684">consults</text><text fill="#000000" font-family="sans-serif" font-size="13" lengthAdjust="spacing" textLength="6" x="932.1966" y="157.9125">*</text><text fill="#000000" font-family="sans-serif" font-size="13" lengthAdjust="spacing" textLength="8" x="1100.839" y="242.1943">1</text></g><!--link Land to Property--><g id="link_Land_Property"><path codeLine="68" d="M823.91,340.74 C884.79,332.6 1020.07,314.52 1116.9,301.58 " fill="none" id="Land-Property" style="stroke:#181818;stroke-width:1.0;"/><polygon fill="#000000" points="1012.9559,300.9929,1003.6012,299.2781,1004.3799,305.1042,1012.9559,300.9929" style="stroke:#000000;stroke-width:1.0;"/><text fill="#000000" font-family="sans-serif" font-size="13" lengthAdjust="spacing" textLength="22" x="1017" y="306.5684">is a</text><text fill="#000000" font-family="sans-serif" font-size="13" lengthAdjust="spacing" textLength="6" x="831.3164" y="354.0086">*</text><text fill="#000000" font-family="sans-serif" font-size="13" lengthAdjust="spacing" textLength="8" x="1100.8773" y="315.6963">1</text></g><!--link Residence to Property--><g id="link_Residence_Property"><path codeLine="69" d="M893.75,242.6 C960.65,251.54 1048.13,263.23 1116.53,272.37 " fill="none" id="Residence-Property" style="stroke:#181818;stroke-width:1.0;"/><polygon fill="#000000" points="1012.9559,248.3175,1004.3798,244.2065,1003.6013,250.0325,1012.9559,248.3175" style="stroke:#000000;stroke-width:1.0;"/><text fill="#000000" font-family="sans-serif" font-size="13" lengthAdjust="spacing" textLength="22" x="1017" y="252.5684">is a</text><text fill="#000000" font-family="sans-serif" font-size="13" lengthAdjust="spacing" textLength="6" x="901.516" y="256.731">*</text><text fill="#000000" font-family="sans-serif" font-size="13" lengthAdjust="spacing" textLength="8" x="1100.839" y="284.4549">1</text></g><!--link SunExposure to House--><g id="link_SunExposure_House"><path codeLine="71" d="M130.16,229 C186.54,229 270.24,229 327.74,229 " fill="none" id="SunExposure-House" style="stroke:#181818;stroke-width:1.0;"/><polygon fill="#000000" points="201,220.6553,191.9549,217.7163,191.9549,223.5942,201,220.6553" style="stroke:#000000;stroke-width:1.0;"/><text fill="#000000" font-family="sans-serif" font-size="13" lengthAdjust="spacing" textLength="42" x="205" y="225.5684">part of</text><text fill="#000000" font-family="sans-serif" font-size="13" lengthAdjust="spacing" textLength="6" x="138.0404" y="242.4716">*</text><text fill="#000000" font-family="sans-serif" font-size="13" lengthAdjust="spacing" textLength="8" x="312.1647" y="242.3802">1</text></g><!--link LocationOrAddress to Property--><g id="link_LocationOrAddress_Property"><path codeLine="72" d="M872.87,435.09 C941.66,406.24 1041.06,364.55 1116.89,332.75 " fill="none" id="LocationOrAddress-Property" style="stroke:#181818;stroke-width:1.0;"/><polygon fill="#000000" points="1002.6109,348.7215,993.133,349.5095,995.4063,354.93,1002.6109,348.7215" style="stroke:#000000;stroke-width:1.0;"/><text fill="#000000" font-family="sans-serif" font-size="13" lengthAdjust="spacing" textLength="42" x="1007" y="355.5684">part of</text><text fill="#000000" font-family="sans-serif" font-size="13" lengthAdjust="spacing" textLength="6" x="880.4287" y="445.3004">*</text><text fill="#000000" font-family="sans-serif" font-size="13" lengthAdjust="spacing" textLength="8" x="1100.8666" y="349.0579">1</text></g><!--link AvailableEquipment to Residence--><g id="link_AvailableEquipment_Residence"><path codeLine="74" d="M477.5,326.85 C538.99,307.6 622.94,281.31 688.34,260.83 " fill="none" id="AvailableEquipment-Residence" style="stroke:#181818;stroke-width:1.0;"/><polygon fill="#000000" points="547.7715,281.1612,538.2615,281.0594,540.018,286.6687,547.7715,281.1612" style="stroke:#000000;stroke-width:1.0;"/><text fill="#000000" font-family="sans-serif" font-size="13" lengthAdjust="spacing" textLength="42" x="552" y="287.5684">part of</text><text fill="#000000" font-family="sans-serif" font-size="13" lengthAdjust="spacing" textLength="6" x="485.0195" y="337.83">*</text><text fill="#000000" font-family="sans-serif" font-size="13" lengthAdjust="spacing" textLength="8" x="672.5072" y="276.2998">1</text></g><!--link Apartment to Residence--><g id="link_Apartment_Residence"><path codeLine="75" d="M445.77,135.12 C507.09,151.84 610.7,180.1 688.26,201.25 " fill="none" id="Apartment-Residence" style="stroke:#181818;stroke-width:1.0;"/><polygon fill="#000000" points="557.8238,153.9708,549.8707,148.7556,548.3242,154.4264,557.8238,153.9708" style="stroke:#000000;stroke-width:1.0;"/><text fill="#000000" font-family="sans-serif" font-size="13" lengthAdjust="spacing" textLength="22" x="562" y="157.5684">is a</text><text fill="#000000" font-family="sans-serif" font-size="13" lengthAdjust="spacing" textLength="6" x="453.6127" y="150.7505">*</text><text fill="#000000" font-family="sans-serif" font-size="13" lengthAdjust="spacing" textLength="8" x="672.4213" y="212.3444">1</text></g><!--link House to Residence--><g id="link_House_Residence"><path codeLine="76" d="M458.06,229 C520.23,229 615.56,229 688.14,229 " fill="none" id="House-Residence" style="stroke:#181818;stroke-width:1.0;"/><polygon fill="#000000" points="558,220.6553,548.9549,217.7163,548.9549,223.5942,558,220.6553" style="stroke:#000000;stroke-width:1.0;"/><text fill="#000000" font-family="sans-serif" font-size="13" lengthAdjust="spacing" textLength="22" x="562" y="225.5684">is a</text><text fill="#000000" font-family="sans-serif" font-size="13" lengthAdjust="spacing" textLength="6" x="465.9294" y="242.4266">*</text><text fill="#000000" font-family="sans-serif" font-size="13" lengthAdjust="spacing" textLength="8" x="672.6264" y="242.1083">1</text></g><!--SRC=[XLB1ZjD03BtdAwnU2aZHYkiULgfGfJqWWU0BdCHjB9APMO-3jY3-7NkQDa4jS1hD6_lv-RqPwA2W4OIFlKB7Ggro35NL3fWpV1YOWiBFgeQ08zcXfqGG3v0a9X8zhQ1coXmePo-UneR4GObnT2H7KGv7Q8MLXF5D4cu9C7GFKI2XSExVLhykWp_Fz6Kq2g4TGsonYAiXzL6ZqtQS5OCH7IIEe3r1ozRLcceIrsQ8qCj4MQc3CjE7p7jjtcsWhclOlDzS9pv26qEU1itmT57pXJ9tv6DCph9RGzrvFLXltA3sTs1RyPiRa1EsLDvstv47R0RQlqoSHXDKmTM0dTNhU3R_2Zx7AHSDDYHJwQY1GuyDgnEPHGU7lavX_vfYdeIMve_cjVKkmAggS2xfMydMp3XEGL6sTdcOAUO4Fick4qlQsW2s5b2vxL-LGlR-0lxWP5Psv3SZh6ufBXpsErI8NBcdvqUqqQVoWEhVxags67JZNc7ov0K7w0dzl_dlOR54E_QfZhYMuiNzz3a3Ml9BvFyigzOchYlFKJrwxEhnFrMtczzZ_gEbkhFakcaHkUvQlixVQcVnPut_AVeD]--></g></svg>