<?xml version="1.0" encoding="us-ascii" standalone="no"?><svg xmlns="http://www.w3.org/2000/svg" xmlns:xlink="http://www.w3.org/1999/xlink" contentStyleType="text/css" height="279.2px" preserveAspectRatio="none" style="width:1015px;height:279px;background:#FFFFFF;" version="1.1" viewBox="0 0 1015 279" width="1015.2px" zoomAndPan="magnify"><defs/><g><!--class UnregisteredUser--><g id="elem_UnregisteredUser"><rect codeLine="6" fill="#F1F1F1" height="38.4" id="UnregisteredUser" rx="2" ry="2" style="stroke:#181818;stroke-width:0.4000000000000001;" width="121.6" x="860.4" y="55.6"/><ellipse cx="872.4" cy="68.4" fill="#ADD1B2" rx="8.8" ry="8.8" style="stroke:#181818;stroke-width:0.8000000000000002;"/><path d="M874.7785,72.9145 Q874.3137,73.1535 873.8023,73.273 Q873.291,73.3926 872.7266,73.3926 Q870.7211,73.3926 869.6652,72.0711 Q868.6094,70.7496 868.6094,68.2527 Q868.6094,65.7492 869.6652,64.4277 Q870.7211,63.1063 872.7266,63.1063 Q873.291,63.1063 873.809,63.2258 Q874.327,63.3453 874.7785,63.5844 L874.7785,65.7625 Q874.2738,65.2977 873.799,65.0818 Q873.3242,64.866 872.8195,64.866 Q871.7438,64.866 871.1959,65.7193 Q870.648,66.5727 870.648,68.2527 Q870.648,69.9262 871.1959,70.7795 Q871.7438,71.6328 872.8195,71.6328 Q873.3242,71.6328 873.799,71.417 Q874.2738,71.2012 874.7785,70.7363 Z " fill="#000000"/><text fill="#000000" font-family="sans-serif" font-size="11.2" lengthAdjust="spacing" textLength="96" x="883.6" y="72.6328">UnregisteredUser</text><line style="stroke:#181818;stroke-width:0.4000000000000001;" x1="861.2" x2="981.2" y1="81.2" y2="81.2"/><line style="stroke:#181818;stroke-width:0.4000000000000001;" x1="861.2" x2="981.2" y1="87.6" y2="87.6"/></g><!--class Property--><g id="elem_Property"><rect codeLine="9" fill="#F1F1F1" height="104.3531" id="Property" rx="2" ry="2" style="stroke:#181818;stroke-width:0.4000000000000001;" width="176.8" x="832.8" y="135.6"/><ellipse cx="894.6" cy="148.4" fill="#ADD1B2" rx="8.8" ry="8.8" style="stroke:#181818;stroke-width:0.8000000000000002;"/><path d="M896.9785,152.9145 Q896.5137,153.1535 896.0023,153.273 Q895.491,153.3926 894.9266,153.3926 Q892.9211,153.3926 891.8652,152.0711 Q890.8094,150.7496 890.8094,148.2527 Q890.8094,145.7492 891.8652,144.4277 Q892.9211,143.1063 894.9266,143.1063 Q895.491,143.1063 896.009,143.2258 Q896.527,143.3453 896.9785,143.5844 L896.9785,145.7625 Q896.4738,145.2977 895.999,145.0818 Q895.5242,144.866 895.0195,144.866 Q893.9438,144.866 893.3959,145.7193 Q892.848,146.5727 892.848,148.2527 Q892.848,149.9262 893.3959,150.7795 Q893.9438,151.6328 895.0195,151.6328 Q895.5242,151.6328 895.999,151.417 Q896.4738,151.2012 896.9785,150.7363 Z " fill="#000000"/><text fill="#000000" font-family="sans-serif" font-size="11.2" lengthAdjust="spacing" textLength="46.4" x="911" y="152.6328">Property</text><line style="stroke:#181818;stroke-width:0.4000000000000001;" x1="833.6" x2="1008.8" y1="161.2" y2="161.2"/><rect fill="none" height="4.8" style="stroke:#C82930;stroke-width:0.8000000000000002;" width="4.8" x="839.2" y="169.7953"/><text fill="#000000" font-family="sans-serif" font-size="11.2" lengthAdjust="spacing" textLength="25.6" x="848.8" y="175.2281">Area</text><rect fill="none" height="4.8" style="stroke:#C82930;stroke-width:0.8000000000000002;" width="4.8" x="839.2" y="182.9859"/><text fill="#000000" font-family="sans-serif" font-size="11.2" lengthAdjust="spacing" textLength="37.6" x="848.8" y="188.4188">Photos</text><rect fill="none" height="4.8" style="stroke:#C82930;stroke-width:0.8000000000000002;" width="4.8" x="839.2" y="196.1766"/><text fill="#000000" font-family="sans-serif" font-size="11.2" lengthAdjust="spacing" textLength="156" x="848.8" y="201.6094">Distance from the city center</text><rect fill="none" height="4.8" style="stroke:#C82930;stroke-width:0.8000000000000002;" width="4.8" x="839.2" y="209.3672"/><text fill="#000000" font-family="sans-serif" font-size="11.2" lengthAdjust="spacing" textLength="109.6" x="848.8" y="214.8">The requested price</text><rect fill="none" height="4.8" style="stroke:#C82930;stroke-width:0.8000000000000002;" width="4.8" x="839.2" y="222.5578"/><text fill="#000000" font-family="sans-serif" font-size="11.2" lengthAdjust="spacing" textLength="44.8" x="848.8" y="227.9906">Address</text><line style="stroke:#181818;stroke-width:0.4000000000000001;" x1="833.6" x2="1008.8" y1="233.5531" y2="233.5531"/></g><!--class Residence--><g id="elem_Residence"><rect codeLine="18" fill="#F1F1F1" height="91.1625" id="Residence" rx="2" ry="2" style="stroke:#181818;stroke-width:0.4000000000000001;" width="164.8" x="524.8" y="50.8"/><ellipse cx="576.2" cy="63.6" fill="#ADD1B2" rx="8.8" ry="8.8" style="stroke:#181818;stroke-width:0.8000000000000002;"/><path d="M578.5785,68.1145 Q578.1137,68.3535 577.6023,68.473 Q577.091,68.5926 576.5266,68.5926 Q574.5211,68.5926 573.4652,67.2711 Q572.4094,65.9496 572.4094,63.4527 Q572.4094,60.9492 573.4652,59.6277 Q574.5211,58.3063 576.5266,58.3063 Q577.091,58.3063 577.609,58.4258 Q578.127,58.5453 578.5785,58.7844 L578.5785,60.9625 Q578.0738,60.4977 577.599,60.2818 Q577.1242,60.066 576.6195,60.066 Q575.5438,60.066 574.9959,60.9193 Q574.448,61.7727 574.448,63.4527 Q574.448,65.1262 574.9959,65.9795 Q575.5438,66.8328 576.6195,66.8328 Q577.1242,66.8328 577.599,66.617 Q578.0738,66.4012 578.5785,65.9363 Z " fill="#000000"/><text fill="#000000" font-family="sans-serif" font-size="11.2" lengthAdjust="spacing" textLength="55.2" x="592.6" y="67.8328">Residence</text><line style="stroke:#181818;stroke-width:0.4000000000000001;" x1="525.6" x2="688.8" y1="76.4" y2="76.4"/><rect fill="none" height="4.8" style="stroke:#C82930;stroke-width:0.8000000000000002;" width="4.8" x="531.2" y="84.9953"/><text fill="#000000" font-family="sans-serif" font-size="11.2" lengthAdjust="spacing" textLength="116.8" x="540.8" y="90.4281">Number of Bedrooms</text><rect fill="none" height="4.8" style="stroke:#C82930;stroke-width:0.8000000000000002;" width="4.8" x="531.2" y="98.1859"/><text fill="#000000" font-family="sans-serif" font-size="11.2" lengthAdjust="spacing" textLength="120.8" x="540.8" y="103.6188">Number of Bathrooms</text><rect fill="none" height="4.8" style="stroke:#C82930;stroke-width:0.8000000000000002;" width="4.8" x="531.2" y="111.3766"/><text fill="#000000" font-family="sans-serif" font-size="11.2" lengthAdjust="spacing" textLength="144" x="540.8" y="116.8094">Number of Parking Spaces</text><rect fill="none" height="4.8" style="stroke:#C82930;stroke-width:0.8000000000000002;" width="4.8" x="531.2" y="124.5672"/><text fill="#000000" font-family="sans-serif" font-size="11.2" lengthAdjust="spacing" textLength="108.8" x="540.8" y="130">AvailableEquipment</text><line style="stroke:#181818;stroke-width:0.4000000000000001;" x1="525.6" x2="688.8" y1="135.5625" y2="135.5625"/></g><!--class House--><g id="elem_House"><rect codeLine="26" fill="#F1F1F1" height="77.9719" id="House" rx="2" ry="2" style="stroke:#181818;stroke-width:0.4000000000000001;" width="106.4" x="261.2" y="5.6"/><ellipse cx="294.08" cy="18.4" fill="#ADD1B2" rx="8.8" ry="8.8" style="stroke:#181818;stroke-width:0.8000000000000002;"/><path d="M296.4585,22.9145 Q295.9937,23.1535 295.4823,23.273 Q294.971,23.3926 294.4066,23.3926 Q292.4011,23.3926 291.3452,22.0711 Q290.2894,20.7496 290.2894,18.2527 Q290.2894,15.7492 291.3452,14.4277 Q292.4011,13.1063 294.4066,13.1063 Q294.971,13.1063 295.489,13.2258 Q296.007,13.3453 296.4585,13.5844 L296.4585,15.7625 Q295.9538,15.2977 295.479,15.0818 Q295.0042,14.866 294.4995,14.866 Q293.4238,14.866 292.8759,15.7193 Q292.328,16.5727 292.328,18.2527 Q292.328,19.9262 292.8759,20.7795 Q293.4238,21.6328 294.4995,21.6328 Q295.0042,21.6328 295.479,21.417 Q295.9538,21.2012 296.4585,20.7363 Z " fill="#000000"/><text fill="#000000" font-family="sans-serif" font-size="11.2" lengthAdjust="spacing" textLength="34.4" x="309.92" y="22.6328">House</text><line style="stroke:#181818;stroke-width:0.4000000000000001;" x1="262" x2="366.8" y1="31.2" y2="31.2"/><rect fill="none" height="4.8" style="stroke:#C82930;stroke-width:0.8000000000000002;" width="4.8" x="267.6" y="39.7953"/><text fill="#000000" font-family="sans-serif" font-size="11.2" lengthAdjust="spacing" textLength="52.8" x="277.2" y="45.2281">Basement</text><rect fill="none" height="4.8" style="stroke:#C82930;stroke-width:0.8000000000000002;" width="4.8" x="267.6" y="52.9859"/><text fill="#000000" font-family="sans-serif" font-size="11.2" lengthAdjust="spacing" textLength="85.6" x="277.2" y="58.4188">Inhabitable Loft</text><rect fill="none" height="4.8" style="stroke:#C82930;stroke-width:0.8000000000000002;" width="4.8" x="267.6" y="66.1766"/><text fill="#000000" font-family="sans-serif" font-size="11.2" lengthAdjust="spacing" textLength="72.8" x="277.2" y="71.6094">SunExposure</text><line style="stroke:#181818;stroke-width:0.4000000000000001;" x1="262" x2="366.8" y1="77.1719" y2="77.1719"/></g><!--class SunExposure--><g id="elem_SunExposure"><rect codeLine="33" fill="#F1F1F1" height="51.5906" id="SunExposure" rx="2" ry="2" style="stroke:#181818;stroke-width:0.4000000000000001;" width="98.4" x="5.6" y="18.8"/><ellipse cx="17.6" cy="31.6" fill="#ADD1B2" rx="8.8" ry="8.8" style="stroke:#181818;stroke-width:0.8000000000000002;"/><path d="M19.9785,36.1145 Q19.5137,36.3535 19.0023,36.473 Q18.491,36.5926 17.9266,36.5926 Q15.9211,36.5926 14.8652,35.2711 Q13.8094,33.9496 13.8094,31.4527 Q13.8094,28.9492 14.8652,27.6277 Q15.9211,26.3063 17.9266,26.3063 Q18.491,26.3063 19.009,26.4258 Q19.527,26.5453 19.9785,26.7844 L19.9785,28.9625 Q19.4738,28.4977 18.999,28.2818 Q18.5242,28.066 18.0195,28.066 Q16.9438,28.066 16.3959,28.9193 Q15.848,29.7727 15.848,31.4527 Q15.848,33.1262 16.3959,33.9795 Q16.9438,34.8328 18.0195,34.8328 Q18.5242,34.8328 18.999,34.617 Q19.4738,34.4012 19.9785,33.9363 Z " fill="#000000"/><text fill="#000000" font-family="sans-serif" font-size="11.2" lengthAdjust="spacing" textLength="72.8" x="28.8" y="35.8328">SunExposure</text><line style="stroke:#181818;stroke-width:0.4000000000000001;" x1="6.4" x2="103.2" y1="44.4" y2="44.4"/><rect fill="none" height="4.8" style="stroke:#C82930;stroke-width:0.8000000000000002;" width="4.8" x="12" y="52.9953"/><text fill="#000000" font-family="sans-serif" font-size="11.2" lengthAdjust="spacing" textLength="49.6" x="21.6" y="58.4281">Direction</text><line style="stroke:#181818;stroke-width:0.4000000000000001;" x1="6.4" x2="103.2" y1="63.9906" y2="63.9906"/></g><!--class Address--><g id="elem_Address"><rect codeLine="38" fill="#F1F1F1" height="104.3531" id="Address" rx="2" ry="2" style="stroke:#181818;stroke-width:0.4000000000000001;" width="70.4" x="572" y="170"/><ellipse cx="584" cy="182.8" fill="#ADD1B2" rx="8.8" ry="8.8" style="stroke:#181818;stroke-width:0.8000000000000002;"/><path d="M586.3785,187.3145 Q585.9137,187.5535 585.4023,187.673 Q584.891,187.7926 584.3266,187.7926 Q582.3211,187.7926 581.2652,186.4711 Q580.2094,185.1496 580.2094,182.6527 Q580.2094,180.1492 581.2652,178.8277 Q582.3211,177.5063 584.3266,177.5063 Q584.891,177.5063 585.409,177.6258 Q585.927,177.7453 586.3785,177.9844 L586.3785,180.1625 Q585.8738,179.6977 585.399,179.4818 Q584.9242,179.266 584.4195,179.266 Q583.3438,179.266 582.7959,180.1193 Q582.248,180.9727 582.248,182.6527 Q582.248,184.3262 582.7959,185.1795 Q583.3438,186.0328 584.4195,186.0328 Q584.9242,186.0328 585.399,185.817 Q585.8738,185.6012 586.3785,185.1363 Z " fill="#000000"/><text fill="#000000" font-family="sans-serif" font-size="11.2" lengthAdjust="spacing" textLength="44.8" x="595.2" y="187.0328">Address</text><line style="stroke:#181818;stroke-width:0.4000000000000001;" x1="572.8" x2="641.6" y1="195.6" y2="195.6"/><rect fill="none" height="4.8" style="stroke:#C82930;stroke-width:0.8000000000000002;" width="4.8" x="578.4" y="204.1953"/><text fill="#000000" font-family="sans-serif" font-size="11.2" lengthAdjust="spacing" textLength="32" x="588" y="209.6281">Street</text><rect fill="none" height="4.8" style="stroke:#C82930;stroke-width:0.8000000000000002;" width="4.8" x="578.4" y="217.3859"/><text fill="#000000" font-family="sans-serif" font-size="11.2" lengthAdjust="spacing" textLength="20.8" x="588" y="222.8188">City</text><rect fill="none" height="4.8" style="stroke:#C82930;stroke-width:0.8000000000000002;" width="4.8" x="578.4" y="230.5766"/><text fill="#000000" font-family="sans-serif" font-size="11.2" lengthAdjust="spacing" textLength="39.2" x="588" y="236.0094">County</text><rect fill="none" height="4.8" style="stroke:#C82930;stroke-width:0.8000000000000002;" width="4.8" x="578.4" y="243.7672"/><text fill="#000000" font-family="sans-serif" font-size="11.2" lengthAdjust="spacing" textLength="27.2" x="588" y="249.2">State</text><rect fill="none" height="4.8" style="stroke:#C82930;stroke-width:0.8000000000000002;" width="4.8" x="578.4" y="256.9578"/><text fill="#000000" font-family="sans-serif" font-size="11.2" lengthAdjust="spacing" textLength="48.8" x="588" y="262.3906">Zip Code</text><line style="stroke:#181818;stroke-width:0.4000000000000001;" x1="572.8" x2="641.6" y1="267.9531" y2="267.9531"/></g><!--class AvailableEquipment--><g id="elem_AvailableEquipment"><rect codeLine="47" fill="#F1F1F1" height="51.5906" id="AvailableEquipment" rx="2" ry="2" style="stroke:#181818;stroke-width:0.4000000000000001;" width="134.4" x="247.2" y="111.6"/><ellipse cx="259.2" cy="124.4" fill="#ADD1B2" rx="8.8" ry="8.8" style="stroke:#181818;stroke-width:0.8000000000000002;"/><path d="M261.5785,128.9145 Q261.1137,129.1535 260.6023,129.273 Q260.091,129.3926 259.5266,129.3926 Q257.5211,129.3926 256.4652,128.0711 Q255.4094,126.7496 255.4094,124.2527 Q255.4094,121.7492 256.4652,120.4277 Q257.5211,119.1063 259.5266,119.1063 Q260.091,119.1063 260.609,119.2258 Q261.127,119.3453 261.5785,119.5844 L261.5785,121.7625 Q261.0738,121.2977 260.599,121.0818 Q260.1242,120.866 259.6195,120.866 Q258.5438,120.866 257.9959,121.7193 Q257.448,122.5727 257.448,124.2527 Q257.448,125.9262 257.9959,126.7795 Q258.5438,127.6328 259.6195,127.6328 Q260.1242,127.6328 260.599,127.417 Q261.0738,127.2012 261.5785,126.7363 Z " fill="#000000"/><text fill="#000000" font-family="sans-serif" font-size="11.2" lengthAdjust="spacing" textLength="108.8" x="270.4" y="128.6328">AvailableEquipment</text><line style="stroke:#181818;stroke-width:0.4000000000000001;" x1="248" x2="380.8" y1="137.2" y2="137.2"/><rect fill="none" height="4.8" style="stroke:#C82930;stroke-width:0.8000000000000002;" width="4.8" x="253.6" y="145.7953"/><text fill="#000000" font-family="sans-serif" font-size="11.2" lengthAdjust="spacing" textLength="59.2" x="263.2" y="151.2281">Equipment</text><line style="stroke:#181818;stroke-width:0.4000000000000001;" x1="248" x2="380.8" y1="156.7906" y2="156.7906"/></g><!--link UnregisteredUser to Property--><g id="link_UnregisteredUser_Property"><path codeLine="52" d="M921.2,94.336 C921.2,105.776 921.2,120.832 921.2,135.496 " fill="none" id="UnregisteredUser-Property" style="stroke:#181818;stroke-width:0.8000000000000002;"/><polygon fill="#000000" points="888.4,118.9242,890.7511,111.6882,886.0489,111.6882,888.4,118.9242" style="stroke:#000000;stroke-width:0.8000000000000002;"/><text fill="#000000" font-family="sans-serif" font-size="10.4" lengthAdjust="spacing" textLength="43.2" x="895.6" y="118.8547">consults</text><text fill="#000000" font-family="sans-serif" font-size="10.4" lengthAdjust="spacing" textLength="4.8" x="915.845" y="110.3246">*</text><text fill="#000000" font-family="sans-serif" font-size="10.4" lengthAdjust="spacing" textLength="4.8" x="916.1225" y="126.8264">*</text></g><!--link Residence to Property--><g id="link_Residence_Property"><path codeLine="54" d="M689.872,120.304 C733.712,133.104 787.736,148.872 832.464,161.928 " fill="none" id="Residence-Property" style="stroke:#181818;stroke-width:0.8000000000000002;"/><polygon fill="#000000" points="754.2397,128.4451,747.9524,124.1605,746.6348,128.6744,754.2397,128.4451" style="stroke:#000000;stroke-width:0.8000000000000002;"/><text fill="#000000" font-family="sans-serif" font-size="10.4" lengthAdjust="spacing" textLength="17.6" x="757.6" y="131.2547">is a</text><text fill="#000000" font-family="sans-serif" font-size="10.4" lengthAdjust="spacing" textLength="4.8" x="696.1195" y="132.5653">*</text><text fill="#000000" font-family="sans-serif" font-size="10.4" lengthAdjust="spacing" textLength="6.4" x="819.8871" y="170.6575">1</text></g><!--link Address to Property--><g id="link_Address_Property"><path codeLine="55" d="M642.624,218.184 C688.136,213.176 769.696,204.192 832.704,197.256 " fill="none" id="Address-Property" style="stroke:#181818;stroke-width:0.8000000000000002;"/><polygon fill="#000000" points="746.376,194.8865,738.9261,193.3414,739.4407,198.0154,746.376,194.8865" style="stroke:#000000;stroke-width:0.8000000000000002;"/><text fill="#000000" font-family="sans-serif" font-size="10.4" lengthAdjust="spacing" textLength="33.6" x="749.6" y="199.2547">part of</text><text fill="#000000" font-family="sans-serif" font-size="10.4" lengthAdjust="spacing" textLength="4.8" x="648.8886" y="228.5917">*</text><text fill="#000000" font-family="sans-serif" font-size="10.4" lengthAdjust="spacing" textLength="6.4" x="820.1432" y="208.3591">1</text></g><!--link AvailableEquipment to Residence--><g id="link_AvailableEquipment_Residence"><path codeLine="57" d="M381.64,127.888 C424.112,121.944 479.488,114.184 524.648,107.856 " fill="none" id="AvailableEquipment-Residence" style="stroke:#181818;stroke-width:0.8000000000000002;"/><polygon fill="#000000" points="438.3613,107.5693,430.8691,106.2447,431.5214,110.9015,438.3613,107.5693" style="stroke:#000000;stroke-width:0.8000000000000002;"/><text fill="#000000" font-family="sans-serif" font-size="10.4" lengthAdjust="spacing" textLength="33.6" x="441.6" y="112.0547">part of</text><text fill="#000000" font-family="sans-serif" font-size="10.4" lengthAdjust="spacing" textLength="4.8" x="388.0599" y="137.6308">*</text><text fill="#000000" font-family="sans-serif" font-size="10.4" lengthAdjust="spacing" textLength="6.4" x="511.9506" y="119.2031">1</text></g><!--link House to Residence--><g id="link_House_Residence"><path codeLine="58" d="M367.936,53.816 C411.616,61.616 474.432,72.832 524.624,81.8 " fill="none" id="House-Residence" style="stroke:#181818;stroke-width:0.8000000000000002;"/><polygon fill="#000000" points="446.3377,59.2275,439.6277,55.6408,438.801,60.2698,446.3377,59.2275" style="stroke:#000000;stroke-width:0.8000000000000002;"/><text fill="#000000" font-family="sans-serif" font-size="10.4" lengthAdjust="spacing" textLength="17.6" x="449.6" y="62.4547">is a</text><text fill="#000000" font-family="sans-serif" font-size="10.4" lengthAdjust="spacing" textLength="4.8" x="374.054" y="65.5501">*</text><text fill="#000000" font-family="sans-serif" font-size="10.4" lengthAdjust="spacing" textLength="6.4" x="511.9248" y="91.2336">1</text></g><!--link SunExposure to House--><g id="link_SunExposure_House"><path codeLine="60" d="M104.128,44.4 C148.792,44.4 214.896,44.4 260.848,44.4 " fill="none" id="SunExposure-House" style="stroke:#181818;stroke-width:0.8000000000000002;"/><polygon fill="#000000" points="160.8,37.7242,153.5639,35.3731,153.5639,40.0754,160.8,37.7242" style="stroke:#000000;stroke-width:0.8000000000000002;"/><text fill="#000000" font-family="sans-serif" font-size="10.4" lengthAdjust="spacing" textLength="33.6" x="164" y="41.6547">part of</text><text fill="#000000" font-family="sans-serif" font-size="10.4" lengthAdjust="spacing" textLength="4.8" x="110.4324" y="55.1773">*</text><text fill="#000000" font-family="sans-serif" font-size="10.4" lengthAdjust="spacing" textLength="6.4" x="248.2408" y="55.1042">1</text></g><!--SRC=[TL91JiCm4Bpx5QiUaNA0Omz8BQq44a8LeHTkhhr9B1BRNTi8XFWxwxGbHYsNn9gTdPcC4zwCzPBa02svv1ziXsIYj0hXHeWUcmZH0PcsYw0DeOh6MI5KBqE0hILiJOX8gBS12Rx4zscs8UUHuYTZ5Im89RysdOiky675IwD7Gsw0s24emrI5bhLu_i88uJuXQslmP1Hc5Qq9GyWUHvDd34PZ5iekJsdOSGZNm18rEJU4lw2CtJcwaSGLj51xgJ2F5k_Iz7BNutgVZ1yuae39yTwbS71Roe3Zj09kJUwuDLw2HzTag4vs_U5TI8H5tW8TDLQ_ZKwSurUEypeIOfQxuthoooKx7keeOwxarNW6TUbndd-KchucKyzkRdOrWsfydYvk3ihPaFeOu5Q8gUcHMJ7tkkIQ099vf_2NI307_jDYBfq5ByGiboQ_SklG_d-yOmPHjbno3zkbtWy0]--></g></svg>