<?xml version="1.0" encoding="us-ascii" standalone="no"?><svg xmlns="http://www.w3.org/2000/svg" xmlns:xlink="http://www.w3.org/1999/xlink" contentStyleType="text/css" height="954px" preserveAspectRatio="none" style="width:3303px;height:954px;background:#FFFFFF;" version="1.1" viewBox="0 0 3303 954" width="3303px" zoomAndPan="magnify"><defs><filter height="300%" id="f1ry5eltzfaxp0" width="300%" x="-1" y="-1"><feGaussianBlur result="blurOut" stdDeviation="2.0"/><feColorMatrix in="blurOut" result="blurOut2" type="matrix" values="0 0 0 0 0 0 0 0 0 0 0 0 0 0 0 0 0 0 .4 0"/><feOffset dx="4.0" dy="4.0" in="blurOut2" result="blurOut3"/><feBlend in="SourceGraphic" in2="blurOut3" mode="normal"/></filter></defs><g><text fill="#000000" font-family="sans-serif" font-size="14" font-weight="bold" lengthAdjust="spacing" textLength="234" x="1532" y="28.5352">US016 - Sequence Diagram Split</text><rect fill="#FFFFFF" filter="url(#f1ry5eltzfaxp0)" height="732.584" style="stroke:#181818;stroke-width:1.0;" width="10" x="23.5" y="131.9766"/><rect fill="#FFFFFF" filter="url(#f1ry5eltzfaxp0)" height="205.1289" style="stroke:#181818;stroke-width:1.0;" width="10" x="521.5" y="153.2871"/><rect fill="#FFFFFF" filter="url(#f1ry5eltzfaxp0)" height="29.3105" style="stroke:#181818;stroke-width:1.0;" width="10" x="521.5" y="387.7266"/><rect fill="#FFFFFF" filter="url(#f1ry5eltzfaxp0)" height="29.3105" style="stroke:#181818;stroke-width:1.0;" width="10" x="521.5" y="446.3477"/><rect fill="#FFFFFF" filter="url(#f1ry5eltzfaxp0)" height="350.5918" style="stroke:#181818;stroke-width:1.0;" width="10" x="521.5" y="504.9688"/><rect fill="#FFFFFF" filter="url(#f1ry5eltzfaxp0)" height="102.0195" style="stroke:#181818;stroke-width:1.0;" width="10" x="771.5" y="227.0859"/><rect fill="#FFFFFF" filter="url(#f1ry5eltzfaxp0)" height="102.0195" style="stroke:#181818;stroke-width:1.0;" width="10" x="771.5" y="534.2793"/><rect fill="#FFFFFF" filter="url(#f1ry5eltzfaxp0)" height="160.6406" style="stroke:#181818;stroke-width:1.0;" width="10" x="771.5" y="665.6094"/><rect fill="#FFFFFF" filter="url(#f1ry5eltzfaxp0)" height="102.0195" style="stroke:#181818;stroke-width:1.0;" width="10" x="1177" y="694.9199"/><line style="stroke:#181818;stroke-width:0.5;stroke-dasharray:5.0,5.0;" x1="28" x2="28" y1="121.9766" y2="873.5605"/><line style="stroke:#181818;stroke-width:0.5;stroke-dasharray:5.0,5.0;" x1="526" x2="526" y1="121.9766" y2="873.5605"/><line style="stroke:#181818;stroke-width:0.5;stroke-dasharray:5.0,5.0;" x1="776" x2="776" y1="193.5313" y2="873.5605"/><line style="stroke:#181818;stroke-width:0.5;stroke-dasharray:5.0,5.0;" x1="926" x2="926" y1="121.9766" y2="873.5605"/><line style="stroke:#181818;stroke-width:0.5;stroke-dasharray:5.0,5.0;" x1="1042" x2="1042" y1="121.9766" y2="873.5605"/><line style="stroke:#181818;stroke-width:0.5;stroke-dasharray:5.0,5.0;" x1="1182" x2="1182" y1="121.9766" y2="873.5605"/><line style="stroke:#181818;stroke-width:0.5;stroke-dasharray:5.0,5.0;" x1="1344" x2="1344" y1="121.9766" y2="873.5605"/><line style="stroke:#181818;stroke-width:0.5;stroke-dasharray:5.0,5.0;" x1="1505" x2="1505" y1="121.9766" y2="873.5605"/><line style="stroke:#181818;stroke-width:0.5;stroke-dasharray:5.0,5.0;" x1="1650" x2="1650" y1="121.9766" y2="873.5605"/><line style="stroke:#181818;stroke-width:0.5;stroke-dasharray:5.0,5.0;" x1="1802" x2="1802" y1="121.9766" y2="873.5605"/><line style="stroke:#181818;stroke-width:0.5;stroke-dasharray:5.0,5.0;" x1="1960" x2="1960" y1="121.9766" y2="873.5605"/><line style="stroke:#181818;stroke-width:0.5;stroke-dasharray:5.0,5.0;" x1="2168" x2="2168" y1="121.9766" y2="873.5605"/><line style="stroke:#181818;stroke-width:0.5;stroke-dasharray:5.0,5.0;" x1="2380" x2="2380" y1="121.9766" y2="873.5605"/><line style="stroke:#181818;stroke-width:0.5;stroke-dasharray:5.0,5.0;" x1="2518" x2="2518" y1="121.9766" y2="873.5605"/><line style="stroke:#181818;stroke-width:0.5;stroke-dasharray:5.0,5.0;" x1="2655" x2="2655" y1="121.9766" y2="873.5605"/><line style="stroke:#181818;stroke-width:0.5;stroke-dasharray:5.0,5.0;" x1="2785" x2="2785" y1="121.9766" y2="873.5605"/><line style="stroke:#181818;stroke-width:0.5;stroke-dasharray:5.0,5.0;" x1="2889" x2="2889" y1="121.9766" y2="873.5605"/><line style="stroke:#181818;stroke-width:0.5;stroke-dasharray:5.0,5.0;" x1="2995" x2="2995" y1="121.9766" y2="873.5605"/><line style="stroke:#181818;stroke-width:0.5;stroke-dasharray:5.0,5.0;" x1="3116" x2="3116" y1="121.9766" y2="873.5605"/><line style="stroke:#181818;stroke-width:0.5;stroke-dasharray:5.0,5.0;" x1="3239" x2="3239" y1="121.9766" y2="873.5605"/><text fill="#000000" font-family="sans-serif" font-size="14" lengthAdjust="spacing" textLength="41" x="5" y="119.0234">Agent</text><ellipse cx="28.5" cy="50.9883" fill="#E3E3E3" filter="url(#f1ry5eltzfaxp0)" rx="8" ry="8" style="stroke:#181818;stroke-width:0.5;"/><path d="M28.5,58.9883 L28.5,85.9883 M15.5,66.9883 L41.5,66.9883 M28.5,85.9883 L15.5,100.9883 M28.5,85.9883 L41.5,100.9883 " fill="none" filter="url(#f1ry5eltzfaxp0)" style="stroke:#181818;stroke-width:0.5;"/><text fill="#000000" font-family="sans-serif" font-size="14" lengthAdjust="spacing" textLength="41" x="5" y="886.0957">Agent</text><ellipse cx="28.5" cy="897.5488" fill="#E3E3E3" filter="url(#f1ry5eltzfaxp0)" rx="8" ry="8" style="stroke:#181818;stroke-width:0.5;"/><path d="M28.5,905.5488 L28.5,932.5488 M15.5,913.5488 L41.5,913.5488 M28.5,932.5488 L15.5,947.5488 M28.5,932.5488 L41.5,947.5488 " fill="none" filter="url(#f1ry5eltzfaxp0)" style="stroke:#181818;stroke-width:0.5;"/><rect fill="#E3E3E3" filter="url(#f1ry5eltzfaxp0)" height="30.4883" rx="2.5" ry="2.5" style="stroke:#181818;stroke-width:0.5;" width="114" x="468" y="87.4883"/><text fill="#000000" font-family="sans-serif" font-size="14" lengthAdjust="spacing" textLength="100" x="475" y="108.0234">:ListMessageUI</text><rect fill="#E3E3E3" filter="url(#f1ry5eltzfaxp0)" height="30.4883" rx="2.5" ry="2.5" style="stroke:#181818;stroke-width:0.5;" width="114" x="468" y="872.5605"/><text fill="#000000" font-family="sans-serif" font-size="14" lengthAdjust="spacing" textLength="100" x="475" y="893.0957">:ListMessageUI</text><rect fill="#E3E3E3" filter="url(#f1ry5eltzfaxp0)" height="30.4883" rx="2.5" ry="2.5" style="stroke:#181818;stroke-width:0.5;" width="170" x="690" y="872.5605"/><text fill="#000000" font-family="sans-serif" font-size="14" lengthAdjust="spacing" textLength="156" x="697" y="893.0957">:ListMessageController</text><rect fill="#E3E3E3" filter="url(#f1ry5eltzfaxp0)" height="30.4883" rx="2.5" ry="2.5" style="stroke:#181818;stroke-width:0.5;" width="103" x="873" y="87.4883"/><text fill="#000000" font-family="sans-serif" font-size="14" lengthAdjust="spacing" textLength="89" x="880" y="108.0234">:Repositories</text><rect fill="#E3E3E3" filter="url(#f1ry5eltzfaxp0)" height="30.4883" rx="2.5" ry="2.5" style="stroke:#181818;stroke-width:0.5;" width="103" x="873" y="872.5605"/><text fill="#000000" font-family="sans-serif" font-size="14" lengthAdjust="spacing" textLength="89" x="880" y="893.0957">:Repositories</text><rect fill="#E3E3E3" filter="url(#f1ry5eltzfaxp0)" height="46.9766" rx="2.5" ry="2.5" style="stroke:#181818;stroke-width:0.5;" width="103" x="989" y="71"/><text fill="#000000" font-family="sans-serif" font-size="14" lengthAdjust="spacing" textLength="82" x="999.5" y="91.5352">repositories</text><text fill="#000000" font-family="sans-serif" font-size="14" lengthAdjust="spacing" textLength="89" x="996" y="108.0234">:Repositories</text><rect fill="#E3E3E3" filter="url(#f1ry5eltzfaxp0)" height="46.9766" rx="2.5" ry="2.5" style="stroke:#181818;stroke-width:0.5;" width="103" x="989" y="872.5605"/><text fill="#000000" font-family="sans-serif" font-size="14" lengthAdjust="spacing" textLength="82" x="999.5" y="893.0957">repositories</text><text fill="#000000" font-family="sans-serif" font-size="14" lengthAdjust="spacing" textLength="89" x="996" y="909.584">:Repositories</text><rect fill="#E3E3E3" filter="url(#f1ry5eltzfaxp0)" height="46.9766" rx="2.5" ry="2.5" style="stroke:#181818;stroke-width:0.5;" width="151" x="1105" y="71"/><text fill="#000000" font-family="sans-serif" font-size="14" lengthAdjust="spacing" textLength="137" x="1112" y="91.5352">messageRepository:</text><text fill="#000000" font-family="sans-serif" font-size="14" lengthAdjust="spacing" textLength="132" x="1114.5" y="108.0234">MessageRepository</text><rect fill="#E3E3E3" filter="url(#f1ry5eltzfaxp0)" height="46.9766" rx="2.5" ry="2.5" style="stroke:#181818;stroke-width:0.5;" width="151" x="1105" y="872.5605"/><text fill="#000000" font-family="sans-serif" font-size="14" lengthAdjust="spacing" textLength="137" x="1112" y="893.0957">messageRepository:</text><text fill="#000000" font-family="sans-serif" font-size="14" lengthAdjust="spacing" textLength="132" x="1114.5" y="909.584">MessageRepository</text><rect fill="#E3E3E3" filter="url(#f1ry5eltzfaxp0)" height="30.4883" rx="2.5" ry="2.5" style="stroke:#181818;stroke-width:0.5;" width="148" x="1269" y="87.4883"/><text fill="#000000" font-family="sans-serif" font-size="14" lengthAdjust="spacing" textLength="134" x="1276" y="108.0234">:ApplicationSession</text><rect fill="#E3E3E3" filter="url(#f1ry5eltzfaxp0)" height="30.4883" rx="2.5" ry="2.5" style="stroke:#181818;stroke-width:0.5;" width="148" x="1269" y="872.5605"/><text fill="#000000" font-family="sans-serif" font-size="14" lengthAdjust="spacing" textLength="134" x="1276" y="893.0957">:ApplicationSession</text><rect fill="#E3E3E3" filter="url(#f1ry5eltzfaxp0)" height="46.9766" rx="2.5" ry="2.5" style="stroke:#181818;stroke-width:0.5;" width="148" x="1430" y="71"/><text fill="#000000" font-family="sans-serif" font-size="14" lengthAdjust="spacing" textLength="78" x="1465" y="91.5352">appSession</text><text fill="#000000" font-family="sans-serif" font-size="14" lengthAdjust="spacing" textLength="134" x="1437" y="108.0234">:ApplicationSession</text><rect fill="#E3E3E3" filter="url(#f1ry5eltzfaxp0)" height="46.9766" rx="2.5" ry="2.5" style="stroke:#181818;stroke-width:0.5;" width="148" x="1430" y="872.5605"/><text fill="#000000" font-family="sans-serif" font-size="14" lengthAdjust="spacing" textLength="78" x="1465" y="893.0957">appSession</text><text fill="#000000" font-family="sans-serif" font-size="14" lengthAdjust="spacing" textLength="134" x="1437" y="909.584">:ApplicationSession</text><rect fill="#E3E3E3" filter="url(#f1ry5eltzfaxp0)" height="46.9766" rx="2.5" ry="2.5" style="stroke:#181818;stroke-width:0.5;" width="116" x="1591" y="71"/><text fill="#000000" font-family="sans-serif" font-size="14" lengthAdjust="spacing" textLength="102" x="1598" y="91.5352">currentSession</text><text fill="#000000" font-family="sans-serif" font-size="14" lengthAdjust="spacing" textLength="87" x="1605.5" y="108.0234">:UserSession</text><rect fill="#E3E3E3" filter="url(#f1ry5eltzfaxp0)" height="46.9766" rx="2.5" ry="2.5" style="stroke:#181818;stroke-width:0.5;" width="116" x="1591" y="872.5605"/><text fill="#000000" font-family="sans-serif" font-size="14" lengthAdjust="spacing" textLength="102" x="1598" y="893.0957">currentSession</text><text fill="#000000" font-family="sans-serif" font-size="14" lengthAdjust="spacing" textLength="87" x="1605.5" y="909.584">:UserSession</text><rect fill="#E3E3E3" filter="url(#f1ry5eltzfaxp0)" height="46.9766" rx="2.5" ry="2.5" style="stroke:#181818;stroke-width:0.5;" width="161" x="1720" y="71"/><text fill="#000000" font-family="sans-serif" font-size="14" lengthAdjust="spacing" textLength="139" x="1731" y="91.5352">employeeRepository</text><text fill="#000000" font-family="sans-serif" font-size="14" lengthAdjust="spacing" textLength="147" x="1727" y="108.0234">:Employee Repository</text><rect fill="#E3E3E3" filter="url(#f1ry5eltzfaxp0)" height="46.9766" rx="2.5" ry="2.5" style="stroke:#181818;stroke-width:0.5;" width="161" x="1720" y="872.5605"/><text fill="#000000" font-family="sans-serif" font-size="14" lengthAdjust="spacing" textLength="139" x="1731" y="893.0957">employeeRepository</text><text fill="#000000" font-family="sans-serif" font-size="14" lengthAdjust="spacing" textLength="147" x="1727" y="909.584">:Employee Repository</text><rect fill="#E3E3E3" filter="url(#f1ry5eltzfaxp0)" height="30.4883" rx="2.5" ry="2.5" style="stroke:#181818;stroke-width:0.5;" width="129" x="1894" y="87.4883"/><text fill="#000000" font-family="sans-serif" font-size="14" lengthAdjust="spacing" textLength="115" x="1901" y="108.0234">:MessageMapper</text><rect fill="#E3E3E3" filter="url(#f1ry5eltzfaxp0)" height="30.4883" rx="2.5" ry="2.5" style="stroke:#181818;stroke-width:0.5;" width="129" x="1894" y="872.5605"/><text fill="#000000" font-family="sans-serif" font-size="14" lengthAdjust="spacing" textLength="115" x="1901" y="893.0957">:MessageMapper</text><rect fill="#E3E3E3" filter="url(#f1ry5eltzfaxp0)" height="30.4883" rx="2.5" ry="2.5" style="stroke:#181818;stroke-width:0.5;" width="261" x="2036" y="87.4883"/><text fill="#000000" font-family="sans-serif" font-size="14" lengthAdjust="spacing" textLength="247" x="2043" y="108.0234">listOfMessagesDTO:List&lt;Messages&gt;</text><rect fill="#E3E3E3" filter="url(#f1ry5eltzfaxp0)" height="30.4883" rx="2.5" ry="2.5" style="stroke:#181818;stroke-width:0.5;" width="261" x="2036" y="872.5605"/><text fill="#000000" font-family="sans-serif" font-size="14" lengthAdjust="spacing" textLength="247" x="2043" y="893.0957">listOfMessagesDTO:List&lt;Messages&gt;</text><rect fill="#E3E3E3" filter="url(#f1ry5eltzfaxp0)" height="30.4883" rx="2.5" ry="2.5" style="stroke:#181818;stroke-width:0.5;" width="137" x="2310" y="87.4883"/><text fill="#000000" font-family="sans-serif" font-size="14" lengthAdjust="spacing" textLength="123" x="2317" y="108.0234">message:Message</text><rect fill="#E3E3E3" filter="url(#f1ry5eltzfaxp0)" height="30.4883" rx="2.5" ry="2.5" style="stroke:#181818;stroke-width:0.5;" width="137" x="2310" y="872.5605"/><text fill="#000000" font-family="sans-serif" font-size="14" lengthAdjust="spacing" textLength="123" x="2317" y="893.0957">message:Message</text><rect fill="#E3E3E3" filter="url(#f1ry5eltzfaxp0)" height="30.4883" rx="2.5" ry="2.5" style="stroke:#181818;stroke-width:0.5;" width="114" x="2460" y="87.4883"/><text fill="#000000" font-family="sans-serif" font-size="14" lengthAdjust="spacing" textLength="100" x="2467" y="108.0234">:sortAlgorithm</text><rect fill="#E3E3E3" filter="url(#f1ry5eltzfaxp0)" height="30.4883" rx="2.5" ry="2.5" style="stroke:#181818;stroke-width:0.5;" width="114" x="2460" y="872.5605"/><text fill="#000000" font-family="sans-serif" font-size="14" lengthAdjust="spacing" textLength="100" x="2467" y="893.0957">:sortAlgorithm</text><rect fill="#E3E3E3" filter="url(#f1ry5eltzfaxp0)" height="30.4883" rx="2.5" ry="2.5" style="stroke:#181818;stroke-width:0.5;" width="134" x="2587" y="87.4883"/><text fill="#000000" font-family="sans-serif" font-size="14" lengthAdjust="spacing" textLength="120" x="2594" y="108.0234">:ConfigProperties</text><rect fill="#E3E3E3" filter="url(#f1ry5eltzfaxp0)" height="30.4883" rx="2.5" ry="2.5" style="stroke:#181818;stroke-width:0.5;" width="134" x="2587" y="872.5605"/><text fill="#000000" font-family="sans-serif" font-size="14" lengthAdjust="spacing" textLength="120" x="2594" y="893.0957">:ConfigProperties</text><rect fill="#E3E3E3" filter="url(#f1ry5eltzfaxp0)" height="30.4883" rx="2.5" ry="2.5" style="stroke:#181818;stroke-width:0.5;" width="99" x="2734" y="87.4883"/><text fill="#000000" font-family="sans-serif" font-size="14" lengthAdjust="spacing" textLength="85" x="2741" y="108.0234">EmailService</text><rect fill="#E3E3E3" filter="url(#f1ry5eltzfaxp0)" height="30.4883" rx="2.5" ry="2.5" style="stroke:#181818;stroke-width:0.5;" width="99" x="2734" y="872.5605"/><text fill="#000000" font-family="sans-serif" font-size="14" lengthAdjust="spacing" textLength="85" x="2741" y="893.0957">EmailService</text><rect fill="#E3E3E3" filter="url(#f1ry5eltzfaxp0)" height="30.4883" rx="2.5" ry="2.5" style="stroke:#181818;stroke-width:0.5;" width="84" x="2846" y="87.4883"/><text fill="#000000" font-family="sans-serif" font-size="14" lengthAdjust="spacing" textLength="70" x="2853" y="108.0234">DEIService</text><rect fill="#E3E3E3" filter="url(#f1ry5eltzfaxp0)" height="30.4883" rx="2.5" ry="2.5" style="stroke:#181818;stroke-width:0.5;" width="84" x="2846" y="872.5605"/><text fill="#000000" font-family="sans-serif" font-size="14" lengthAdjust="spacing" textLength="70" x="2853" y="893.0957">DEIService</text><rect fill="#E3E3E3" filter="url(#f1ry5eltzfaxp0)" height="30.4883" rx="2.5" ry="2.5" style="stroke:#181818;stroke-width:0.5;" width="101" x="2943" y="87.4883"/><text fill="#000000" font-family="sans-serif" font-size="14" lengthAdjust="spacing" textLength="87" x="2950" y="108.0234">GmailService</text><rect fill="#E3E3E3" filter="url(#f1ry5eltzfaxp0)" height="30.4883" rx="2.5" ry="2.5" style="stroke:#181818;stroke-width:0.5;" width="101" x="2943" y="872.5605"/><text fill="#000000" font-family="sans-serif" font-size="14" lengthAdjust="spacing" textLength="87" x="2950" y="893.0957">GmailService</text><rect fill="#E3E3E3" filter="url(#f1ry5eltzfaxp0)" height="30.4883" rx="2.5" ry="2.5" style="stroke:#181818;stroke-width:0.5;" width="115" x="3057" y="87.4883"/><text fill="#000000" font-family="sans-serif" font-size="14" lengthAdjust="spacing" textLength="101" x="3064" y="108.0234">HotmailService</text><rect fill="#E3E3E3" filter="url(#f1ry5eltzfaxp0)" height="30.4883" rx="2.5" ry="2.5" style="stroke:#181818;stroke-width:0.5;" width="115" x="3057" y="872.5605"/><text fill="#000000" font-family="sans-serif" font-size="14" lengthAdjust="spacing" textLength="101" x="3064" y="893.0957">HotmailService</text><rect fill="#E3E3E3" filter="url(#f1ry5eltzfaxp0)" height="30.4883" rx="2.5" ry="2.5" style="stroke:#181818;stroke-width:0.5;" width="106" x="3185" y="87.4883"/><text fill="#000000" font-family="sans-serif" font-size="14" lengthAdjust="spacing" textLength="92" x="3192" y="108.0234">YahooService</text><rect fill="#E3E3E3" filter="url(#f1ry5eltzfaxp0)" height="30.4883" rx="2.5" ry="2.5" style="stroke:#181818;stroke-width:0.5;" width="106" x="3185" y="872.5605"/><text fill="#000000" font-family="sans-serif" font-size="14" lengthAdjust="spacing" textLength="92" x="3192" y="893.0957">YahooService</text><rect fill="#FFFFFF" filter="url(#f1ry5eltzfaxp0)" height="732.584" style="stroke:#181818;stroke-width:1.0;" width="10" x="23.5" y="131.9766"/><rect fill="#FFFFFF" filter="url(#f1ry5eltzfaxp0)" height="205.1289" style="stroke:#181818;stroke-width:1.0;" width="10" x="521.5" y="153.2871"/><rect fill="#FFFFFF" filter="url(#f1ry5eltzfaxp0)" height="29.3105" style="stroke:#181818;stroke-width:1.0;" width="10" x="521.5" y="387.7266"/><rect fill="#FFFFFF" filter="url(#f1ry5eltzfaxp0)" height="29.3105" style="stroke:#181818;stroke-width:1.0;" width="10" x="521.5" y="446.3477"/><rect fill="#FFFFFF" filter="url(#f1ry5eltzfaxp0)" height="350.5918" style="stroke:#181818;stroke-width:1.0;" width="10" x="521.5" y="504.9688"/><rect fill="#FFFFFF" filter="url(#f1ry5eltzfaxp0)" height="102.0195" style="stroke:#181818;stroke-width:1.0;" width="10" x="771.5" y="227.0859"/><rect fill="#FFFFFF" filter="url(#f1ry5eltzfaxp0)" height="102.0195" style="stroke:#181818;stroke-width:1.0;" width="10" x="771.5" y="534.2793"/><rect fill="#FFFFFF" filter="url(#f1ry5eltzfaxp0)" height="160.6406" style="stroke:#181818;stroke-width:1.0;" width="10" x="771.5" y="665.6094"/><rect fill="#FFFFFF" filter="url(#f1ry5eltzfaxp0)" height="102.0195" style="stroke:#181818;stroke-width:1.0;" width="10" x="1177" y="694.9199"/><polygon fill="#181818" points="509.5,149.2871,519.5,153.2871,509.5,157.2871,513.5,153.2871" style="stroke:#181818;stroke-width:1.0;"/><line style="stroke:#181818;stroke-width:1.0;" x1="33.5" x2="515.5" y1="153.2871" y2="153.2871"/><text fill="#000000" font-family="sans-serif" font-size="13" font-weight="bold" lengthAdjust="spacing" textLength="9" x="40.5" y="148.5449">1</text><text fill="#000000" font-family="sans-serif" font-size="13" lengthAdjust="spacing" textLength="209" x="53.5" y="148.5449">asks to see the booking requests</text><polygon fill="#181818" points="678,178.5977,688,182.5977,678,186.5977,682,182.5977" style="stroke:#181818;stroke-width:1.0;"/><line style="stroke:#181818;stroke-width:1.0;" x1="531.5" x2="684" y1="182.5977" y2="182.5977"/><text fill="#000000" font-family="sans-serif" font-size="13" font-weight="bold" lengthAdjust="spacing" textLength="9" x="538.5" y="177.8555">2</text><text fill="#000000" font-family="sans-serif" font-size="13" lengthAdjust="spacing" textLength="38" x="551.5" y="177.8555">create</text><rect fill="#E3E3E3" filter="url(#f1ry5eltzfaxp0)" height="30.4883" rx="2.5" ry="2.5" style="stroke:#181818;stroke-width:0.5;" width="170" x="690" y="161.2871"/><text fill="#000000" font-family="sans-serif" font-size="14" lengthAdjust="spacing" textLength="156" x="697" y="181.8223">:ListMessageController</text><polygon fill="#181818" points="759.5,223.0859,769.5,227.0859,759.5,231.0859,763.5,227.0859" style="stroke:#181818;stroke-width:1.0;"/><line style="stroke:#181818;stroke-width:1.0;" x1="531.5" x2="765.5" y1="227.0859" y2="227.0859"/><text fill="#000000" font-family="sans-serif" font-size="13" font-weight="bold" lengthAdjust="spacing" textLength="9" x="538.5" y="222.3438">3</text><text fill="#000000" font-family="sans-serif" font-size="13" lengthAdjust="spacing" textLength="105" x="551.5" y="222.3438">getListMessage()</text><rect fill="none" filter="url(#f1ry5eltzfaxp0)" height="67.709" style="stroke:#000000;stroke-width:1.5;" width="176" x="687" y="235.0859"/><path d="M687,235.0859 L751,235.0859 L751,242.0859 L741,252.0859 L687,252.0859 L687,235.0859 " fill="#EEEEEE" style="stroke:#000000;stroke-width:2.0;"/><text fill="#000000" font-family="sans-serif" font-size="13" font-weight="bold" lengthAdjust="spacing" textLength="19" x="700" y="249.6543">ref</text><text fill="#000000" font-family="sans-serif" font-size="12" lengthAdjust="spacing" textLength="4" x="774.5" y="267.6875">&#160;</text><text fill="#000000" font-family="sans-serif" font-size="12" lengthAdjust="spacing" textLength="38" x="757.5" y="281.8203">US015</text><text fill="#000000" font-family="sans-serif" font-size="12" lengthAdjust="spacing" textLength="4" x="774.5" y="295.9531">&#160;</text><polygon fill="#181818" points="542.5,325.1055,532.5,329.1055,542.5,333.1055,538.5,329.1055" style="stroke:#181818;stroke-width:1.0;"/><line style="stroke:#181818;stroke-width:1.0;stroke-dasharray:2.0,2.0;" x1="536.5" x2="775.5" y1="329.1055" y2="329.1055"/><text fill="#000000" font-family="sans-serif" font-size="13" font-weight="bold" lengthAdjust="spacing" textLength="9" x="548.5" y="324.3633">4</text><text fill="#000000" font-family="sans-serif" font-size="13" lengthAdjust="spacing" textLength="183" x="561.5" y="324.3633">messageListByAgentAndDate</text><polygon fill="#181818" points="44.5,354.416,34.5,358.416,44.5,362.416,40.5,358.416" style="stroke:#181818;stroke-width:1.0;"/><line style="stroke:#181818;stroke-width:1.0;stroke-dasharray:2.0,2.0;" x1="38.5" x2="525.5" y1="358.416" y2="358.416"/><text fill="#000000" font-family="sans-serif" font-size="13" font-weight="bold" lengthAdjust="spacing" textLength="9" x="50.5" y="353.6738">5</text><text fill="#000000" font-family="sans-serif" font-size="13" lengthAdjust="spacing" textLength="178" x="63.5" y="353.6738">shows the booking requests</text><polygon fill="#181818" points="509.5,383.7266,519.5,387.7266,509.5,391.7266,513.5,387.7266" style="stroke:#181818;stroke-width:1.0;"/><line style="stroke:#181818;stroke-width:1.0;" x1="33.5" x2="515.5" y1="387.7266" y2="387.7266"/><text fill="#000000" font-family="sans-serif" font-size="13" font-weight="bold" lengthAdjust="spacing" textLength="9" x="40.5" y="382.9844">6</text><text fill="#000000" font-family="sans-serif" font-size="13" lengthAdjust="spacing" textLength="234" x="53.5" y="382.9844">selects a booking request to respond</text><polygon fill="#181818" points="44.5,413.0371,34.5,417.0371,44.5,421.0371,40.5,417.0371" style="stroke:#181818;stroke-width:1.0;"/><line style="stroke:#181818;stroke-width:1.0;stroke-dasharray:2.0,2.0;" x1="38.5" x2="525.5" y1="417.0371" y2="417.0371"/><text fill="#000000" font-family="sans-serif" font-size="13" font-weight="bold" lengthAdjust="spacing" textLength="9" x="50.5" y="412.2949">7</text><text fill="#000000" font-family="sans-serif" font-size="13" lengthAdjust="spacing" textLength="451" x="63.5" y="412.2949">shows the selected booking request and asks to enter the client's email</text><polygon fill="#181818" points="509.5,442.3477,519.5,446.3477,509.5,450.3477,513.5,446.3477" style="stroke:#181818;stroke-width:1.0;"/><line style="stroke:#181818;stroke-width:1.0;" x1="33.5" x2="515.5" y1="446.3477" y2="446.3477"/><text fill="#000000" font-family="sans-serif" font-size="13" font-weight="bold" lengthAdjust="spacing" textLength="9" x="40.5" y="441.6055">8</text><text fill="#000000" font-family="sans-serif" font-size="13" lengthAdjust="spacing" textLength="154" x="53.5" y="441.6055">inserts the client's email</text><polygon fill="#181818" points="44.5,471.6582,34.5,475.6582,44.5,479.6582,40.5,475.6582" style="stroke:#181818;stroke-width:1.0;"/><line style="stroke:#181818;stroke-width:1.0;stroke-dasharray:2.0,2.0;" x1="38.5" x2="525.5" y1="475.6582" y2="475.6582"/><text fill="#000000" font-family="sans-serif" font-size="13" font-weight="bold" lengthAdjust="spacing" textLength="9" x="50.5" y="470.916">9</text><text fill="#000000" font-family="sans-serif" font-size="13" lengthAdjust="spacing" textLength="288" x="63.5" y="470.916">asks to accept or decline the booking request</text><polygon fill="#181818" points="509.5,500.9688,519.5,504.9688,509.5,508.9688,513.5,504.9688" style="stroke:#181818;stroke-width:1.0;"/><line style="stroke:#181818;stroke-width:1.0;" x1="33.5" x2="515.5" y1="504.9688" y2="504.9688"/><text fill="#000000" font-family="sans-serif" font-size="13" font-weight="bold" lengthAdjust="spacing" textLength="18" x="40.5" y="500.2266">10</text><text fill="#000000" font-family="sans-serif" font-size="13" lengthAdjust="spacing" textLength="206" x="62.5" y="500.2266">responds to the booking request</text><polygon fill="#181818" points="759.5,530.2793,769.5,534.2793,759.5,538.2793,763.5,534.2793" style="stroke:#181818;stroke-width:1.0;"/><line style="stroke:#181818;stroke-width:1.0;" x1="531.5" x2="765.5" y1="534.2793" y2="534.2793"/><text fill="#000000" font-family="sans-serif" font-size="13" font-weight="bold" lengthAdjust="spacing" textLength="18" x="538.5" y="529.5371">11</text><text fill="#000000" font-family="sans-serif" font-size="13" lengthAdjust="spacing" textLength="199" x="560.5" y="529.5371">sendEmail(email, subject, body)</text><rect fill="none" filter="url(#f1ry5eltzfaxp0)" height="67.709" style="stroke:#000000;stroke-width:1.5;" width="176" x="687" y="542.2793"/><path d="M687,542.2793 L751,542.2793 L751,549.2793 L741,559.2793 L687,559.2793 L687,542.2793 " fill="#EEEEEE" style="stroke:#000000;stroke-width:2.0;"/><text fill="#000000" font-family="sans-serif" font-size="13" font-weight="bold" lengthAdjust="spacing" textLength="19" x="700" y="556.8477">ref</text><text fill="#000000" font-family="sans-serif" font-size="12" lengthAdjust="spacing" textLength="4" x="774.5" y="574.8809">&#160;</text><text fill="#000000" font-family="sans-serif" font-size="12" lengthAdjust="spacing" textLength="59" x="747" y="589.0137">SendEmail</text><text fill="#000000" font-family="sans-serif" font-size="12" lengthAdjust="spacing" textLength="4" x="774.5" y="603.1465">&#160;</text><polygon fill="#181818" points="542.5,632.2988,532.5,636.2988,542.5,640.2988,538.5,636.2988" style="stroke:#181818;stroke-width:1.0;"/><line style="stroke:#181818;stroke-width:1.0;stroke-dasharray:2.0,2.0;" x1="536.5" x2="775.5" y1="636.2988" y2="636.2988"/><text fill="#000000" font-family="sans-serif" font-size="13" font-weight="bold" lengthAdjust="spacing" textLength="18" x="548.5" y="631.5566">12</text><text fill="#000000" font-family="sans-serif" font-size="13" lengthAdjust="spacing" textLength="61" x="570.5" y="631.5566">emailSent</text><polygon fill="#181818" points="759.5,661.6094,769.5,665.6094,759.5,669.6094,763.5,665.6094" style="stroke:#181818;stroke-width:1.0;"/><line style="stroke:#181818;stroke-width:1.0;" x1="531.5" x2="765.5" y1="665.6094" y2="665.6094"/><text fill="#000000" font-family="sans-serif" font-size="13" font-weight="bold" lengthAdjust="spacing" textLength="18" x="538.5" y="660.8672">13</text><text fill="#000000" font-family="sans-serif" font-size="13" lengthAdjust="spacing" textLength="191" x="560.5" y="660.8672">updateMessageState(message)</text><polygon fill="#181818" points="1165,690.9199,1175,694.9199,1165,698.9199,1169,694.9199" style="stroke:#181818;stroke-width:1.0;"/><line style="stroke:#181818;stroke-width:1.0;" x1="781.5" x2="1171" y1="694.9199" y2="694.9199"/><text fill="#000000" font-family="sans-serif" font-size="13" font-weight="bold" lengthAdjust="spacing" textLength="18" x="788.5" y="690.1777">14</text><text fill="#000000" font-family="sans-serif" font-size="13" lengthAdjust="spacing" textLength="191" x="810.5" y="690.1777">updateMessageState(message)</text><rect fill="none" filter="url(#f1ry5eltzfaxp0)" height="67.709" style="stroke:#000000;stroke-width:1.5;" width="157" x="1102" y="702.9199"/><path d="M1102,702.9199 L1166,702.9199 L1166,709.9199 L1156,719.9199 L1102,719.9199 L1102,702.9199 " fill="#EEEEEE" style="stroke:#000000;stroke-width:2.0;"/><text fill="#000000" font-family="sans-serif" font-size="13" font-weight="bold" lengthAdjust="spacing" textLength="19" x="1115" y="717.4883">ref</text><text fill="#000000" font-family="sans-serif" font-size="12" lengthAdjust="spacing" textLength="4" x="1180" y="735.5215">&#160;</text><text fill="#000000" font-family="sans-serif" font-size="12" lengthAdjust="spacing" textLength="128" x="1118" y="749.6543">Update Message State</text><text fill="#000000" font-family="sans-serif" font-size="12" lengthAdjust="spacing" textLength="4" x="1180" y="763.7871">&#160;</text><polygon fill="#181818" points="792.5,792.9395,782.5,796.9395,792.5,800.9395,788.5,796.9395" style="stroke:#181818;stroke-width:1.0;"/><line style="stroke:#181818;stroke-width:1.0;stroke-dasharray:2.0,2.0;" x1="786.5" x2="1181" y1="796.9395" y2="796.9395"/><text fill="#000000" font-family="sans-serif" font-size="13" font-weight="bold" lengthAdjust="spacing" textLength="18" x="798.5" y="792.1973">15</text><text fill="#000000" font-family="sans-serif" font-size="13" lengthAdjust="spacing" textLength="191" x="820.5" y="792.1973">updateMessageState(message)</text><polygon fill="#181818" points="542.5,822.25,532.5,826.25,542.5,830.25,538.5,826.25" style="stroke:#181818;stroke-width:1.0;"/><line style="stroke:#181818;stroke-width:1.0;stroke-dasharray:2.0,2.0;" x1="536.5" x2="775.5" y1="826.25" y2="826.25"/><text fill="#000000" font-family="sans-serif" font-size="13" font-weight="bold" lengthAdjust="spacing" textLength="18" x="548.5" y="821.5078">16</text><text fill="#000000" font-family="sans-serif" font-size="13" lengthAdjust="spacing" textLength="191" x="570.5" y="821.5078">updateMessageState(message)</text><polygon fill="#181818" points="44.5,851.5605,34.5,855.5605,44.5,859.5605,40.5,855.5605" style="stroke:#181818;stroke-width:1.0;"/><line style="stroke:#181818;stroke-width:1.0;stroke-dasharray:2.0,2.0;" x1="38.5" x2="525.5" y1="855.5605" y2="855.5605"/><text fill="#000000" font-family="sans-serif" font-size="13" font-weight="bold" lengthAdjust="spacing" textLength="18" x="50.5" y="850.8184">17</text><text fill="#000000" font-family="sans-serif" font-size="13" lengthAdjust="spacing" textLength="163" x="72.5" y="850.8184">display operation success</text><!--SRC=[bLMnRjim4Dtr5KIMfa4Cj4Cx64K0jpRI00qILCqG80iZdMNM5AcIfmJw-nvfAg9aEd6yM3o-z_Xul2DHe0Hsbt_w_9NDM0x_Mb05iANWbU4ronifCCliLgY6kq2jbIusHjV0qBGGpJIysF8ASkn8q421N5Ko1jWDB_MpKDMEcV4MjMhhHp3qNQ0sx6HHWS8JnYtpNnaHKHIYuGhPoVoNi7WDrj8gTrSUbNSMeJuC-w4L6Yqb60yVXXFARsYq5MH1WFN8bq2N2xSDSZgcc8Zne5uJ6FFgdR5XUlwWhgSnhx0NdNXUD7Gs1KUXLKvG-lCqtZHZ80N2FFayG5hStev9HMiC7S10lBDWOeORZobGDr9t41acsYe4sMHpVNoofx3dQ_8SZcptEOP9Ek2RTS3QvPyRV-JV-i259ygX2XmaUGhzUd6-xSIIrGONigAJnKtjWQF814qLjXRLhT5a6ljQc0R7d5NDXSp1F8a2Gcw6m1YwN5t5m64uXbrE5IyFAlxKE0MFGsFuFTze7OFZWEzYySGHGlTc_e_DBaAViZbHjfQXPfPA0ZV07hNUkXl1k8l7eXqaGcjdWKeYG_UUdP5KOO1mQG1DLu3HHN3wSL2ERe7Cm9hf9oB4GKO_ToD-oJ9GPPP5khENpSnPA2AtolVERtMXogNpL49oiTufQUmoCwSxKJ_RT2OYaJuNYOHQa7JLKjjF1LoM3TX6qmuE9ZNfP2S9vPuYL-NB0HA9qk7WXHGq-60PkB99sTvtBHHT7sXJ_6EyzYPuKK23Z5wE4aX69MlgE4SXLLus9N9KNVhpKALlu5E_dNDcsyU_bCvpKYoxzrPXtgkzLecqAkmwLk5RfJTnspOb8KEFv4ZVfw6g3pYD3LpiFr77Ikw_RKCE4dE-8RrkFykySiZAletPUpOQfIonzg6K7wduHl-NmZQITymz3VvLfdgXehQfzlyF]--></g></svg>