<?xml version="1.0" encoding="us-ascii" standalone="no"?><svg xmlns="http://www.w3.org/2000/svg" xmlns:xlink="http://www.w3.org/1999/xlink" contentStyleType="text/css" height="417px" preserveAspectRatio="none" style="width:855px;height:417px;background:#FFFFFF;" version="1.1" viewBox="0 0 855 417" width="855px" zoomAndPan="magnify"><defs><filter height="300%" id="fuv6t8s4njzkf" width="300%" x="-1" y="-1"><feGaussianBlur result="blurOut" stdDeviation="2.0"/><feColorMatrix in="blurOut" result="blurOut2" type="matrix" values="0 0 0 0 0 0 0 0 0 0 0 0 0 0 0 0 0 0 .4 0"/><feOffset dx="4.0" dy="4.0" in="blurOut2" result="blurOut3"/><feBlend in="SourceGraphic" in2="blurOut3" mode="normal"/></filter></defs><g><text fill="#000000" font-family="sans-serif" font-size="14" font-weight="bold" lengthAdjust="spacing" textLength="447" x="202.75" y="28.5352">US016 - Sequence Diagram Partial - Update Message Request</text><rect fill="#FFFFFF" filter="url(#fuv6t8s4njzkf)" height="280.4395" style="stroke:#181818;stroke-width:1.0;" width="10" x="73.5" y="86.9766"/><rect fill="#FFFFFF" filter="url(#fuv6t8s4njzkf)" height="218.8184" style="stroke:#181818;stroke-width:1.0;" width="10" x="311.5" y="132.5977"/><rect fill="#FFFFFF" filter="url(#fuv6t8s4njzkf)" height="160.1973" style="stroke:#181818;stroke-width:1.0;" width="10" x="623.5" y="161.9082"/><rect fill="none" filter="url(#fuv6t8s4njzkf)" height="265.4395" style="stroke:#000000;stroke-width:1.5;" width="833.5" x="10" y="93.9766"/><rect fill="none" filter="url(#fuv6t8s4njzkf)" height="116.8867" style="stroke:#000000;stroke-width:1.5;" width="285" x="548.5" y="176.9082"/><line style="stroke:#181818;stroke-width:0.5;stroke-dasharray:5.0,5.0;" x1="78" x2="78" y1="76.9766" y2="376.416"/><line style="stroke:#181818;stroke-width:0.5;stroke-dasharray:5.0,5.0;" x1="316" x2="316" y1="76.9766" y2="376.416"/><line style="stroke:#181818;stroke-width:0.5;stroke-dasharray:5.0,5.0;" x1="628.5" x2="628.5" y1="76.9766" y2="376.416"/><rect fill="#E3E3E3" filter="url(#fuv6t8s4njzkf)" height="30.4883" rx="2.5" ry="2.5" style="stroke:#181818;stroke-width:0.5;" width="114" x="20" y="42.4883"/><text fill="#000000" font-family="sans-serif" font-size="14" lengthAdjust="spacing" textLength="100" x="27" y="63.0234">:ListMessageUI</text><rect fill="#E3E3E3" filter="url(#fuv6t8s4njzkf)" height="30.4883" rx="2.5" ry="2.5" style="stroke:#181818;stroke-width:0.5;" width="114" x="20" y="375.416"/><text fill="#000000" font-family="sans-serif" font-size="14" lengthAdjust="spacing" textLength="100" x="27" y="395.9512">:ListMessageUI</text><rect fill="#E3E3E3" filter="url(#fuv6t8s4njzkf)" height="30.4883" rx="2.5" ry="2.5" style="stroke:#181818;stroke-width:0.5;" width="170" x="230" y="42.4883"/><text fill="#000000" font-family="sans-serif" font-size="14" lengthAdjust="spacing" textLength="156" x="237" y="63.0234">:ListMessageController</text><rect fill="#E3E3E3" filter="url(#fuv6t8s4njzkf)" height="30.4883" rx="2.5" ry="2.5" style="stroke:#181818;stroke-width:0.5;" width="170" x="230" y="375.416"/><text fill="#000000" font-family="sans-serif" font-size="14" lengthAdjust="spacing" textLength="156" x="237" y="395.9512">:ListMessageController</text><rect fill="#E3E3E3" filter="url(#fuv6t8s4njzkf)" height="30.4883" rx="2.5" ry="2.5" style="stroke:#181818;stroke-width:0.5;" width="137" x="558.5" y="42.4883"/><text fill="#000000" font-family="sans-serif" font-size="14" lengthAdjust="spacing" textLength="123" x="565.5" y="63.0234">message:Message</text><rect fill="#E3E3E3" filter="url(#fuv6t8s4njzkf)" height="30.4883" rx="2.5" ry="2.5" style="stroke:#181818;stroke-width:0.5;" width="137" x="558.5" y="375.416"/><text fill="#000000" font-family="sans-serif" font-size="14" lengthAdjust="spacing" textLength="123" x="565.5" y="395.9512">message:Message</text><rect fill="#FFFFFF" filter="url(#fuv6t8s4njzkf)" height="280.4395" style="stroke:#181818;stroke-width:1.0;" width="10" x="73.5" y="86.9766"/><rect fill="#FFFFFF" filter="url(#fuv6t8s4njzkf)" height="218.8184" style="stroke:#181818;stroke-width:1.0;" width="10" x="311.5" y="132.5977"/><rect fill="#FFFFFF" filter="url(#fuv6t8s4njzkf)" height="160.1973" style="stroke:#181818;stroke-width:1.0;" width="10" x="623.5" y="161.9082"/><path d="M10,93.9766 L226,93.9766 L226,101.2871 L216,111.2871 L10,111.2871 L10,93.9766 " fill="#EEEEEE" style="stroke:#000000;stroke-width:1.5;"/><rect fill="none" height="265.4395" style="stroke:#000000;stroke-width:1.5;" width="833.5" x="10" y="93.9766"/><text fill="#000000" font-family="sans-serif" font-size="13" font-weight="bold" lengthAdjust="spacing" textLength="171" x="25" y="107.5449">Update Message Request</text><polygon fill="#181818" points="299.5,128.5977,309.5,132.5977,299.5,136.5977,303.5,132.5977" style="stroke:#181818;stroke-width:1.0;"/><line style="stroke:#181818;stroke-width:1.0;" x1="83.5" x2="305.5" y1="132.5977" y2="132.5977"/><text fill="#000000" font-family="sans-serif" font-size="13" font-weight="bold" lengthAdjust="spacing" textLength="9" x="90.5" y="127.8555">1</text><text fill="#000000" font-family="sans-serif" font-size="13" lengthAdjust="spacing" textLength="191" x="103.5" y="127.8555">updateMessageState(message)</text><polygon fill="#181818" points="611.5,157.9082,621.5,161.9082,611.5,165.9082,615.5,161.9082" style="stroke:#181818;stroke-width:1.0;"/><line style="stroke:#181818;stroke-width:1.0;" x1="321.5" x2="617.5" y1="161.9082" y2="161.9082"/><text fill="#000000" font-family="sans-serif" font-size="13" font-weight="bold" lengthAdjust="spacing" textLength="9" x="328.5" y="157.166">2</text><text fill="#000000" font-family="sans-serif" font-size="13" lengthAdjust="spacing" textLength="270" x="341.5" y="157.166">setMessageState(MessageState.ANSWERED)</text><path d="M548.5,176.9082 L610.5,176.9082 L610.5,184.2188 L600.5,194.2188 L548.5,194.2188 L548.5,176.9082 " fill="#EEEEEE" style="stroke:#000000;stroke-width:1.5;"/><rect fill="none" height="116.8867" style="stroke:#000000;stroke-width:1.5;" width="285" x="548.5" y="176.9082"/><text fill="#000000" font-family="sans-serif" font-size="13" font-weight="bold" lengthAdjust="spacing" textLength="17" x="563.5" y="190.4766">alt</text><text fill="#000000" font-family="sans-serif" font-size="11" font-weight="bold" lengthAdjust="spacing" textLength="153" x="625.5" y="189.543">[setApprovedByAgent(true)]</text><line style="stroke:#181818;stroke-width:1.0;stroke-dasharray:2.0,2.0;" x1="633.5" x2="675.5" y1="215.5293" y2="215.5293"/><line style="stroke:#181818;stroke-width:1.0;stroke-dasharray:2.0,2.0;" x1="675.5" x2="675.5" y1="215.5293" y2="228.5293"/><line style="stroke:#181818;stroke-width:1.0;stroke-dasharray:2.0,2.0;" x1="634.5" x2="675.5" y1="228.5293" y2="228.5293"/><polygon fill="#181818" points="644.5,224.5293,634.5,228.5293,644.5,232.5293,640.5,228.5293" style="stroke:#181818;stroke-width:1.0;"/><text fill="#000000" font-family="sans-serif" font-size="13" font-weight="bold" lengthAdjust="spacing" textLength="9" x="640.5" y="210.7871">3</text><text fill="#000000" font-family="sans-serif" font-size="13" lengthAdjust="spacing" textLength="163" x="653.5" y="210.7871">setApprovedByAgent(true)</text><line style="stroke:#000000;stroke-width:1.0;stroke-dasharray:2.0,2.0;" x1="548.5" x2="833.5" y1="237.5293" y2="237.5293"/><text fill="#000000" font-family="sans-serif" font-size="11" font-weight="bold" lengthAdjust="spacing" textLength="158" x="553.5" y="248.1641">[setApprovedByAgent(false)]</text><line style="stroke:#181818;stroke-width:1.0;stroke-dasharray:2.0,2.0;" x1="633.5" x2="675.5" y1="272.7949" y2="272.7949"/><line style="stroke:#181818;stroke-width:1.0;stroke-dasharray:2.0,2.0;" x1="675.5" x2="675.5" y1="272.7949" y2="285.7949"/><line style="stroke:#181818;stroke-width:1.0;stroke-dasharray:2.0,2.0;" x1="634.5" x2="675.5" y1="285.7949" y2="285.7949"/><polygon fill="#181818" points="644.5,281.7949,634.5,285.7949,644.5,289.7949,640.5,285.7949" style="stroke:#181818;stroke-width:1.0;"/><text fill="#000000" font-family="sans-serif" font-size="13" font-weight="bold" lengthAdjust="spacing" textLength="9" x="640.5" y="268.0527">4</text><text fill="#000000" font-family="sans-serif" font-size="13" lengthAdjust="spacing" textLength="168" x="653.5" y="268.0527">setApprovedByAgent(false)</text><polygon fill="#181818" points="332.5,318.1055,322.5,322.1055,332.5,326.1055,328.5,322.1055" style="stroke:#181818;stroke-width:1.0;"/><line style="stroke:#181818;stroke-width:1.0;stroke-dasharray:2.0,2.0;" x1="326.5" x2="627.5" y1="322.1055" y2="322.1055"/><text fill="#000000" font-family="sans-serif" font-size="13" font-weight="bold" lengthAdjust="spacing" textLength="9" x="338.5" y="317.3633">5</text><text fill="#000000" font-family="sans-serif" font-size="13" lengthAdjust="spacing" textLength="191" x="351.5" y="317.3633">updateMessageState(message)</text><polygon fill="#181818" points="94.5,347.416,84.5,351.416,94.5,355.416,90.5,351.416" style="stroke:#181818;stroke-width:1.0;"/><line style="stroke:#181818;stroke-width:1.0;stroke-dasharray:2.0,2.0;" x1="88.5" x2="315.5" y1="351.416" y2="351.416"/><text fill="#000000" font-family="sans-serif" font-size="13" font-weight="bold" lengthAdjust="spacing" textLength="9" x="100.5" y="346.6738">6</text><text fill="#000000" font-family="sans-serif" font-size="13" lengthAdjust="spacing" textLength="191" x="113.5" y="346.6738">updateMessageState(message)</text><!--SRC=[bP4nJyCm48Lt_ufJftOeWeMX0rAX7P00eKOLyv4SgLN7DlQbAFyUEtM92os2oRRkVU_UdLco8bWNbrVNC8M2tblI9S52OksmWMTqB565qjfMo0IFv3tM1Akez2o4tqfjCMeReqsvSQOXODTILh5ORWDKS1TwEIePTQroWTzWPJwahlUam9QDRfjNSaBO6A6K5ZN3QFOWFQSCw_iHe8UYyqpDUTcTqUoCKkHw-V0yHfgzUfQeNflkNeZQcTQUtG6MB7UnahA8_GdJcwmTpA3j-OGN7ExZr7OoU6G1HKO7hqESuEI9ZsponyNygNXPhfQBp7IO11L7UcwjCpkgRhjvJPh7SUyJ8RvQJ7_qEqEGyWIdwcyOAl-pF22ags_Si8ZVjrZHYP7pBGQlz3b_Die_92Rx1000]--></g></svg>