<?xml version="1.0" encoding="UTF-8" standalone="no"?><svg xmlns="http://www.w3.org/2000/svg" xmlns:xlink="http://www.w3.org/1999/xlink" contentStyleType="text/css" height="615px" preserveAspectRatio="none" style="width:1515px;height:615px;background:#FFFFFF;" version="1.1" viewBox="0 0 1515 615" width="1515px" zoomAndPan="magnify"><defs><filter height="300%" id="fqav2z157x2wn" width="300%" x="-1" y="-1"><feGaussianBlur result="blurOut" stdDeviation="2.0"/><feColorMatrix in="blurOut" result="blurOut2" type="matrix" values="0 0 0 0 0 0 0 0 0 0 0 0 0 0 0 0 0 0 .4 0"/><feOffset dx="4.0" dy="4.0" in="blurOut2" result="blurOut3"/><feBlend in="SourceGraphic" in2="blurOut3" mode="normal"/></filter></defs><g><text fill="#000000" font-family="sans-serif" font-size="14" font-weight="bold" lengthAdjust="spacing" textLength="430" x="541" y="29.5332">US016 - Sequence Diagram Partial - Update Message Request</text><rect fill="#FFFFFF" filter="url(#fqav2z157x2wn)" height="459.875" style="stroke:#181818;stroke-width:1.0;" width="10" x="92" y="96.7656"/><rect fill="#FFFFFF" filter="url(#fqav2z157x2wn)" height="339.4063" style="stroke:#181818;stroke-width:1.0;" width="10" x="418" y="162.0781"/><rect fill="#FFFFFF" filter="url(#fqav2z157x2wn)" height="355.4063" style="stroke:#181818;stroke-width:1.0;" width="10" x="749" y="201.2344"/><rect fill="#FFFFFF" filter="url(#fqav2z157x2wn)" height="221.9375" style="stroke:#181818;stroke-width:1.0;" width="10" x="1208" y="240.3906"/><rect fill="none" filter="url(#fqav2z157x2wn)" height="444.875" style="stroke:#000000;stroke-width:1.5;" width="1493" x="10" y="103.7656"/><rect fill="none" filter="url(#fqav2z157x2wn)" height="168.7813" style="stroke:#000000;stroke-width:1.5;" width="382" x="1111" y="255.3906"/><line style="stroke:#181818;stroke-width:0.5;stroke-dasharray:5.0,5.0;" x1="97" x2="97" y1="86.7656" y2="565.6406"/><line style="stroke:#181818;stroke-width:0.5;stroke-dasharray:5.0,5.0;" x1="423" x2="423" y1="86.7656" y2="565.6406"/><line style="stroke:#181818;stroke-width:0.5;stroke-dasharray:5.0,5.0;" x1="753.5" x2="753.5" y1="86.7656" y2="565.6406"/><line style="stroke:#181818;stroke-width:0.5;stroke-dasharray:5.0,5.0;" x1="1213" x2="1213" y1="86.7656" y2="565.6406"/><rect fill="#E3E3E3" filter="url(#fqav2z157x2wn)" height="39.1563" rx="2.5" ry="2.5" style="stroke:#181818;stroke-width:0.5;" width="151" x="20" y="43.6094"/><text fill="#000000" font-family="sans-serif" font-size="20" lengthAdjust="spacing" textLength="137" x="27" y="71.3711">:ListMessageUI</text><rect fill="#E3E3E3" filter="url(#fqav2z157x2wn)" height="39.1563" rx="2.5" ry="2.5" style="stroke:#181818;stroke-width:0.5;" width="151" x="20" y="564.6406"/><text fill="#000000" font-family="sans-serif" font-size="20" lengthAdjust="spacing" textLength="137" x="27" y="592.4023">:ListMessageUI</text><rect fill="#E3E3E3" filter="url(#fqav2z157x2wn)" height="39.1563" rx="2.5" ry="2.5" style="stroke:#181818;stroke-width:0.5;" width="217" x="313" y="43.6094"/><text fill="#000000" font-family="sans-serif" font-size="20" lengthAdjust="spacing" textLength="203" x="320" y="71.3711">:ListMessageController</text><rect fill="#E3E3E3" filter="url(#fqav2z157x2wn)" height="39.1563" rx="2.5" ry="2.5" style="stroke:#181818;stroke-width:0.5;" width="217" x="313" y="564.6406"/><text fill="#000000" font-family="sans-serif" font-size="20" lengthAdjust="spacing" textLength="203" x="320" y="592.4023">:ListMessageController</text><rect fill="#E3E3E3" filter="url(#fqav2z157x2wn)" height="39.1563" rx="2.5" ry="2.5" style="stroke:#181818;stroke-width:0.5;" width="196" x="654.5" y="43.6094"/><text fill="#000000" font-family="sans-serif" font-size="20" lengthAdjust="spacing" textLength="182" x="661.5" y="71.3711">:MessageRepository</text><rect fill="#E3E3E3" filter="url(#fqav2z157x2wn)" height="39.1563" rx="2.5" ry="2.5" style="stroke:#181818;stroke-width:0.5;" width="196" x="654.5" y="564.6406"/><text fill="#000000" font-family="sans-serif" font-size="20" lengthAdjust="spacing" textLength="182" x="661.5" y="592.4023">:MessageRepository</text><rect fill="#E3E3E3" filter="url(#fqav2z157x2wn)" height="39.1563" rx="2.5" ry="2.5" style="stroke:#181818;stroke-width:0.5;" width="181" x="1121" y="43.6094"/><text fill="#000000" font-family="sans-serif" font-size="20" lengthAdjust="spacing" textLength="167" x="1128" y="71.3711">message:Message</text><rect fill="#E3E3E3" filter="url(#fqav2z157x2wn)" height="39.1563" rx="2.5" ry="2.5" style="stroke:#181818;stroke-width:0.5;" width="181" x="1121" y="564.6406"/><text fill="#000000" font-family="sans-serif" font-size="20" lengthAdjust="spacing" textLength="167" x="1128" y="592.4023">message:Message</text><rect fill="#FFFFFF" filter="url(#fqav2z157x2wn)" height="459.875" style="stroke:#181818;stroke-width:1.0;" width="10" x="92" y="96.7656"/><rect fill="#FFFFFF" filter="url(#fqav2z157x2wn)" height="339.4063" style="stroke:#181818;stroke-width:1.0;" width="10" x="418" y="162.0781"/><rect fill="#FFFFFF" filter="url(#fqav2z157x2wn)" height="355.4063" style="stroke:#181818;stroke-width:1.0;" width="10" x="749" y="201.2344"/><rect fill="#FFFFFF" filter="url(#fqav2z157x2wn)" height="221.9375" style="stroke:#181818;stroke-width:1.0;" width="10" x="1208" y="240.3906"/><path d="M10,103.7656 L296,103.7656 L296,120.9219 L286,130.9219 L10,130.9219 L10,103.7656 " fill="#EEEEEE" style="stroke:#000000;stroke-width:1.5;"/><rect fill="none" height="444.875" style="stroke:#000000;stroke-width:1.5;" width="1493" x="10" y="103.7656"/><text fill="#000000" font-family="sans-serif" font-size="20" font-weight="bold" lengthAdjust="spacing" textLength="241" x="25" y="125.5273">Update Message Request</text><polygon fill="#181818" points="406,158.0781,416,162.0781,406,166.0781,410,162.0781" style="stroke:#181818;stroke-width:1.0;"/><line style="stroke:#181818;stroke-width:1.0;" x1="102" x2="412" y1="162.0781" y2="162.0781"/><text fill="#000000" font-family="sans-serif" font-size="20" font-weight="bold" lengthAdjust="spacing" textLength="11" x="109" y="155.6836">1</text><text fill="#000000" font-family="sans-serif" font-size="20" lengthAdjust="spacing" textLength="282" x="124" y="155.6836">updateMessageState(message)</text><polygon fill="#181818" points="737,197.2344,747,201.2344,737,205.2344,741,201.2344" style="stroke:#181818;stroke-width:1.0;"/><line style="stroke:#181818;stroke-width:1.0;" x1="428" x2="743" y1="201.2344" y2="201.2344"/><text fill="#000000" font-family="sans-serif" font-size="20" font-weight="bold" lengthAdjust="spacing" textLength="11" x="435" y="194.8398">2</text><text fill="#000000" font-family="sans-serif" font-size="20" lengthAdjust="spacing" textLength="282" x="450" y="194.8398">updateMessageState(message)</text><polygon fill="#181818" points="1196,236.3906,1206,240.3906,1196,244.3906,1200,240.3906" style="stroke:#181818;stroke-width:1.0;"/><line style="stroke:#181818;stroke-width:1.0;" x1="759" x2="1202" y1="240.3906" y2="240.3906"/><text fill="#000000" font-family="sans-serif" font-size="20" font-weight="bold" lengthAdjust="spacing" textLength="11" x="766" y="233.9961">3</text><text fill="#000000" font-family="sans-serif" font-size="20" lengthAdjust="spacing" textLength="415" x="781" y="233.9961">setMessageState(MessageState.ANSWERED)</text><path d="M1111,255.3906 L1179,255.3906 L1179,272.5469 L1169,282.5469 L1111,282.5469 L1111,255.3906 " fill="#EEEEEE" style="stroke:#000000;stroke-width:1.5;"/><rect fill="none" height="168.7813" style="stroke:#000000;stroke-width:1.5;" width="382" x="1111" y="255.3906"/><text fill="#000000" font-family="sans-serif" font-size="20" font-weight="bold" lengthAdjust="spacing" textLength="23" x="1126" y="277.1523">alt</text><text fill="#000000" font-family="sans-serif" font-size="20" font-weight="bold" lengthAdjust="spacing" textLength="266" x="1194" y="278.1523">[setApprovedByAgent(true)]</text><line style="stroke:#181818;stroke-width:1.0;stroke-dasharray:2.0,2.0;" x1="1218" x2="1260" y1="323.8594" y2="323.8594"/><line style="stroke:#181818;stroke-width:1.0;stroke-dasharray:2.0,2.0;" x1="1260" x2="1260" y1="323.8594" y2="336.8594"/><line style="stroke:#181818;stroke-width:1.0;stroke-dasharray:2.0,2.0;" x1="1219" x2="1260" y1="336.8594" y2="336.8594"/><polygon fill="#181818" points="1229,332.8594,1219,336.8594,1229,340.8594,1225,336.8594" style="stroke:#181818;stroke-width:1.0;"/><text fill="#000000" font-family="sans-serif" font-size="20" font-weight="bold" lengthAdjust="spacing" textLength="11" x="1225" y="317.4648">4</text><text fill="#000000" font-family="sans-serif" font-size="20" lengthAdjust="spacing" textLength="233" x="1240" y="317.4648">setApprovedByAgent(true)</text><line style="stroke:#000000;stroke-width:1.0;stroke-dasharray:2.0,2.0;" x1="1111" x2="1493" y1="345.8594" y2="345.8594"/><text fill="#000000" font-family="sans-serif" font-size="20" font-weight="bold" lengthAdjust="spacing" textLength="273" x="1116" y="366.6211">[setApprovedByAgent(false)]</text><line style="stroke:#181818;stroke-width:1.0;stroke-dasharray:2.0,2.0;" x1="1218" x2="1260" y1="403.1719" y2="403.1719"/><line style="stroke:#181818;stroke-width:1.0;stroke-dasharray:2.0,2.0;" x1="1260" x2="1260" y1="403.1719" y2="416.1719"/><line style="stroke:#181818;stroke-width:1.0;stroke-dasharray:2.0,2.0;" x1="1219" x2="1260" y1="416.1719" y2="416.1719"/><polygon fill="#181818" points="1229,412.1719,1219,416.1719,1229,420.1719,1225,416.1719" style="stroke:#181818;stroke-width:1.0;"/><text fill="#000000" font-family="sans-serif" font-size="20" font-weight="bold" lengthAdjust="spacing" textLength="11" x="1225" y="396.7773">5</text><text fill="#000000" font-family="sans-serif" font-size="20" lengthAdjust="spacing" textLength="241" x="1240" y="396.7773">setApprovedByAgent(false)</text><polygon fill="#181818" points="770,458.3281,760,462.3281,770,466.3281,766,462.3281" style="stroke:#181818;stroke-width:1.0;"/><line style="stroke:#181818;stroke-width:1.0;stroke-dasharray:2.0,2.0;" x1="764" x2="1212" y1="462.3281" y2="462.3281"/><text fill="#000000" font-family="sans-serif" font-size="20" font-weight="bold" lengthAdjust="spacing" textLength="11" x="776" y="455.9336">6</text><text fill="#000000" font-family="sans-serif" font-size="20" lengthAdjust="spacing" textLength="282" x="791" y="455.9336">updateMessageState(message)</text><polygon fill="#181818" points="434,497.4844,424,501.4844,434,505.4844,430,501.4844" style="stroke:#181818;stroke-width:1.0;"/><line style="stroke:#181818;stroke-width:1.0;stroke-dasharray:2.0,2.0;" x1="428" x2="748" y1="501.4844" y2="501.4844"/><text fill="#000000" font-family="sans-serif" font-size="20" font-weight="bold" lengthAdjust="spacing" textLength="11" x="440" y="495.0898">7</text><text fill="#000000" font-family="sans-serif" font-size="20" lengthAdjust="spacing" textLength="282" x="455" y="495.0898">updateMessageState(message)</text><polygon fill="#181818" points="113,536.6406,103,540.6406,113,544.6406,109,540.6406" style="stroke:#181818;stroke-width:1.0;"/><line style="stroke:#181818;stroke-width:1.0;stroke-dasharray:2.0,2.0;" x1="107" x2="422" y1="540.6406" y2="540.6406"/><text fill="#000000" font-family="sans-serif" font-size="20" font-weight="bold" lengthAdjust="spacing" textLength="11" x="119" y="534.2461">8</text><text fill="#000000" font-family="sans-serif" font-size="20" lengthAdjust="spacing" textLength="282" x="134" y="534.2461">updateMessageState(message)</text><!--SRC=[dP8nJyCm48Lt_ufJftOeAWmC7P0ABH8I8DIeOZwIQshLiOrzAGg_7gTDIKeIH9aI- -vxp-zqVYkrHOUPCl6M4aXeZRdYUwCvafy4LnCXMB8YM4MJosiOGqJlEUcOO2un3I2ye6E9AfHMDa4cU2BlCILObfsUXV174yYCDl76cOo0NKwDYiLu6w28Y-3bA6RKgMes-0qcvaFgz40ApDdeF7iZ9uGjdn1BYvfXC7sKdgith1u6W1wYmZDb_Mrt8QupIf7RjzV77qZLlYHhl6JZYdrxw_QKoWxb8zn4l12fCxdjdHp6B7TbfKeW3byOtpGU2LF8zto5Hnp-XvNjgDPen18DEcYr4lnLiXrTjBLg0nzqFV69QFDmCNkENXVBnRnj4KQ5YajwPgqpEqfkYrbAceVbEeo-VJsCMtuz12bFq5LVOwYS9tb4I2VTN3sFtqURK4VoZfcUim4DpRuT27BLQlrBgepz1G00]--></g></svg>