<?xml version="1.0" encoding="UTF-8" standalone="no"?><svg xmlns="http://www.w3.org/2000/svg" xmlns:xlink="http://www.w3.org/1999/xlink" contentStyleType="text/css" height="1227px" preserveAspectRatio="none" style="width:1244px;height:1227px;background:#FFFFFF;" version="1.1" viewBox="0 0 1244 1227" width="1244px" zoomAndPan="magnify"><defs/><g><text fill="#000000" font-family="sans-serif" font-size="14" font-weight="bold" lengthAdjust="spacing" textLength="148" x="541" y="24.5332">US20 - Domain Model</text><!--class Employee--><g id="elem_Employee"><rect codeLine="13" fill="#F1F1F1" height="68.3125" id="Employee" rx="2.5" ry="2.5" style="stroke:#181818;stroke-width:0.5;" width="93" x="808" y="561.1094"/><text fill="#000000" font-family="sans-serif" font-size="20" lengthAdjust="spacing" textLength="87" x="811" y="586.8711">Employee</text><line style="stroke:#181818;stroke-width:0.5;" x1="809" x2="900" y1="596.2656" y2="596.2656"/><text fill="#000000" font-family="sans-serif" font-size="20" lengthAdjust="spacing" textLength="20" x="814" y="621.0273">ID</text></g><!--class Role--><g id="elem_Role"><rect codeLine="17" fill="#F1F1F1" height="68.3125" id="Role" rx="2.5" ry="2.5" style="stroke:#181818;stroke-width:0.5;" width="52" x="828.5" y="355.6094"/><text fill="#000000" font-family="sans-serif" font-size="20" lengthAdjust="spacing" textLength="40" x="834.5" y="381.3711">Role</text><line style="stroke:#181818;stroke-width:0.5;" x1="829.5" x2="879.5" y1="390.7656" y2="390.7656"/><text fill="#000000" font-family="sans-serif" font-size="20" lengthAdjust="spacing" textLength="40" x="834.5" y="415.5273">Role</text></g><!--class StoreManager--><g id="elem_StoreManager"><rect codeLine="21" fill="#F1F1F1" height="43.1563" id="StoreManager" rx="2.5" ry="2.5" style="stroke:#181818;stroke-width:0.5;" width="132" x="640.5" y="573.6094"/><text fill="#000000" font-family="sans-serif" font-size="20" lengthAdjust="spacing" textLength="126" x="643.5" y="599.3711">StoreManager</text><line style="stroke:#181818;stroke-width:0.5;" x1="641.5" x2="771.5" y1="608.7656" y2="608.7656"/></g><!--class Residence--><g id="elem_Residence"><rect codeLine="25" fill="#F1F1F1" height="118.625" id="Residence" rx="2.5" ry="2.5" style="stroke:#181818;stroke-width:0.5;" width="247" x="443" y="766.6094"/><text fill="#000000" font-family="sans-serif" font-size="20" lengthAdjust="spacing" textLength="92" x="520.5" y="792.3711">Residence</text><line style="stroke:#181818;stroke-width:0.5;" x1="444" x2="689" y1="801.7656" y2="801.7656"/><text fill="#000000" font-family="sans-serif" font-size="20" lengthAdjust="spacing" textLength="187" x="449" y="826.5273">Number of Bedrooms</text><text fill="#000000" font-family="sans-serif" font-size="20" lengthAdjust="spacing" textLength="192" x="449" y="851.6836">Number of Bathrooms</text><text fill="#000000" font-family="sans-serif" font-size="20" lengthAdjust="spacing" textLength="235" x="449" y="876.8398">Number of Parking Spaces</text></g><!--class Property--><g id="elem_Property"><rect codeLine="31" fill="#F1F1F1" height="118.625" id="Property" rx="2.5" ry="2.5" style="stroke:#181818;stroke-width:0.5;" width="264" x="161.5" y="535.6094"/><text fill="#000000" font-family="sans-serif" font-size="20" lengthAdjust="spacing" textLength="76" x="255.5" y="561.3711">Property</text><line style="stroke:#181818;stroke-width:0.5;" x1="162.5" x2="424.5" y1="570.7656" y2="570.7656"/><text fill="#000000" font-family="sans-serif" font-size="20" lengthAdjust="spacing" textLength="42" x="167.5" y="595.5273">Area</text><text fill="#000000" font-family="sans-serif" font-size="20" lengthAdjust="spacing" textLength="61" x="167.5" y="620.6836">Photos</text><text fill="#000000" font-family="sans-serif" font-size="20" lengthAdjust="spacing" textLength="252" x="167.5" y="645.8398">Distance from the city center</text></g><!--class TypeOfProperty--><g id="elem_TypeOfProperty"><rect codeLine="37" fill="#F1F1F1" height="68.3125" id="TypeOfProperty" rx="2.5" ry="2.5" style="stroke:#181818;stroke-width:0.5;" width="148" x="219.5" y="200.6094"/><text fill="#000000" font-family="sans-serif" font-size="20" lengthAdjust="spacing" textLength="142" x="222.5" y="226.3711">TypeOfProperty</text><line style="stroke:#181818;stroke-width:0.5;" x1="220.5" x2="366.5" y1="235.7656" y2="235.7656"/><text fill="#000000" font-family="sans-serif" font-size="20" lengthAdjust="spacing" textLength="44" x="225.5" y="260.5273">Type</text></g><!--class Photos--><g id="elem_Photos"><rect codeLine="41" fill="#F1F1F1" height="68.3125" id="Photos" rx="2.5" ry="2.5" style="stroke:#181818;stroke-width:0.5;" width="67" x="7" y="561.1094"/><text fill="#000000" font-family="sans-serif" font-size="20" lengthAdjust="spacing" textLength="61" x="10" y="586.8711">Photos</text><line style="stroke:#181818;stroke-width:0.5;" x1="8" x2="73" y1="596.2656" y2="596.2656"/><text fill="#000000" font-family="sans-serif" font-size="20" lengthAdjust="spacing" textLength="33" x="13" y="621.0273">URI</text></g><!--class House--><g id="elem_House"><rect codeLine="45" fill="#F1F1F1" height="93.4688" id="House" rx="2.5" ry="2.5" style="stroke:#181818;stroke-width:0.5;" width="140" x="653.5" y="972.6094"/><text fill="#000000" font-family="sans-serif" font-size="20" lengthAdjust="spacing" textLength="55" x="696" y="998.3711">House</text><line style="stroke:#181818;stroke-width:0.5;" x1="654.5" x2="792.5" y1="1007.7656" y2="1007.7656"/><text fill="#000000" font-family="sans-serif" font-size="20" lengthAdjust="spacing" textLength="88" x="659.5" y="1032.5273">Basement</text><text fill="#000000" font-family="sans-serif" font-size="20" lengthAdjust="spacing" textLength="128" x="659.5" y="1057.6836">Inhabitable loft</text></g><!--class SunExposure--><g id="elem_SunExposure"><rect codeLine="50" fill="#F1F1F1" height="68.3125" id="SunExposure" rx="2.5" ry="2.5" style="stroke:#181818;stroke-width:0.5;" width="121" x="663" y="1152.6094"/><text fill="#000000" font-family="sans-serif" font-size="20" lengthAdjust="spacing" textLength="115" x="666" y="1178.3711">SunExposure</text><line style="stroke:#181818;stroke-width:0.5;" x1="664" x2="783" y1="1187.7656" y2="1187.7656"/><text fill="#000000" font-family="sans-serif" font-size="20" lengthAdjust="spacing" textLength="77" x="669" y="1212.5273">Direction</text></g><!--class AvailableEquipment--><g id="elem_AvailableEquipment"><rect codeLine="54" fill="#F1F1F1" height="68.3125" id="AvailableEquipment" rx="2.5" ry="2.5" style="stroke:#181818;stroke-width:0.5;" width="176" x="442.5" y="985.1094"/><text fill="#000000" font-family="sans-serif" font-size="20" lengthAdjust="spacing" textLength="170" x="445.5" y="1010.8711">AvailableEquipment</text><line style="stroke:#181818;stroke-width:0.5;" x1="443.5" x2="617.5" y1="1020.2656" y2="1020.2656"/><text fill="#000000" font-family="sans-serif" font-size="20" lengthAdjust="spacing" textLength="92" x="448.5" y="1045.0273">Equipment</text></g><!--class User--><g id="elem_User"><rect codeLine="58" fill="#F1F1F1" height="68.3125" id="User" rx="2.5" ry="2.5" style="stroke:#181818;stroke-width:0.5;" width="100" x="936.5" y="561.1094"/><text fill="#000000" font-family="sans-serif" font-size="20" lengthAdjust="spacing" textLength="41" x="966" y="586.8711">User</text><line style="stroke:#181818;stroke-width:0.5;" x1="937.5" x2="1035.5" y1="596.2656" y2="596.2656"/><text fill="#000000" font-family="sans-serif" font-size="20" lengthAdjust="spacing" textLength="88" x="942.5" y="621.0273">Password</text></g><!--class Person--><g id="elem_Person"><rect codeLine="62" fill="#F1F1F1" height="168.9375" id="Person" rx="2.5" ry="2.5" style="stroke:#181818;stroke-width:0.5;" width="165" x="1072" y="510.6094"/><text fill="#000000" font-family="sans-serif" font-size="20" lengthAdjust="spacing" textLength="62" x="1123.5" y="536.3711">Person</text><line style="stroke:#181818;stroke-width:0.5;" x1="1073" x2="1236" y1="545.7656" y2="545.7656"/><text fill="#000000" font-family="sans-serif" font-size="20" lengthAdjust="spacing" textLength="51" x="1078" y="570.5273">Name</text><text fill="#000000" font-family="sans-serif" font-size="20" lengthAdjust="spacing" textLength="48" x="1078" y="595.6836">Email</text><text fill="#000000" font-family="sans-serif" font-size="20" lengthAdjust="spacing" textLength="129" x="1078" y="620.8398">Phone Number</text><text fill="#000000" font-family="sans-serif" font-size="20" lengthAdjust="spacing" textLength="106" x="1078" y="645.9961">Tax Number</text><text fill="#000000" font-family="sans-serif" font-size="20" lengthAdjust="spacing" textLength="153" x="1078" y="671.1523">Passport Number</text></g><!--class Address--><g id="elem_Address"><rect codeLine="70" fill="#F1F1F1" height="93.4688" id="Address" rx="2.5" ry="2.5" style="stroke:#181818;stroke-width:0.5;" width="92" x="513.5" y="548.6094"/><text fill="#000000" font-family="sans-serif" font-size="20" lengthAdjust="spacing" textLength="73" x="523" y="574.3711">Address</text><line style="stroke:#181818;stroke-width:0.5;" x1="514.5" x2="604.5" y1="583.7656" y2="583.7656"/><text fill="#000000" font-family="sans-serif" font-size="20" lengthAdjust="spacing" textLength="54" x="519.5" y="608.5273">Street</text><text fill="#000000" font-family="sans-serif" font-size="20" lengthAdjust="spacing" textLength="80" x="519.5" y="633.6836">Zip Code</text></g><!--class City--><g id="elem_City"><rect codeLine="75" fill="#F1F1F1" height="68.3125" id="City" rx="2.5" ry="2.5" style="stroke:#181818;stroke-width:0.5;" width="100" x="509.5" y="355.6094"/><text fill="#000000" font-family="sans-serif" font-size="20" lengthAdjust="spacing" textLength="34" x="542.5" y="381.3711">City</text><line style="stroke:#181818;stroke-width:0.5;" x1="510.5" x2="608.5" y1="390.7656" y2="390.7656"/><text fill="#000000" font-family="sans-serif" font-size="20" lengthAdjust="spacing" textLength="88" x="515.5" y="415.5273">City name</text></g><!--class District--><g id="elem_District"><rect codeLine="79" fill="#F1F1F1" height="68.3125" id="District" rx="2.5" ry="2.5" style="stroke:#181818;stroke-width:0.5;" width="127" x="496" y="200.6094"/><text fill="#000000" font-family="sans-serif" font-size="20" lengthAdjust="spacing" textLength="61" x="529" y="226.3711">District</text><line style="stroke:#181818;stroke-width:0.5;" x1="497" x2="622" y1="235.7656" y2="235.7656"/><text fill="#000000" font-family="sans-serif" font-size="20" lengthAdjust="spacing" textLength="115" x="502" y="260.5273">District name</text></g><!--class State--><g id="elem_State"><rect codeLine="83" fill="#F1F1F1" height="68.3125" id="State" rx="2.5" ry="2.5" style="stroke:#181818;stroke-width:0.5;" width="113" x="503" y="45.6094"/><text fill="#000000" font-family="sans-serif" font-size="20" lengthAdjust="spacing" textLength="47" x="536" y="71.3711">State</text><line style="stroke:#181818;stroke-width:0.5;" x1="504" x2="615" y1="80.7656" y2="80.7656"/><text fill="#000000" font-family="sans-serif" font-size="20" lengthAdjust="spacing" textLength="101" x="509" y="105.5273">State name</text></g><!--class Business--><g id="elem_Business"><rect codeLine="87" fill="#F1F1F1" height="68.3125" id="Business" rx="2.5" ry="2.5" style="stroke:#181818;stroke-width:0.5;" width="156" x="215.5" y="985.1094"/><text fill="#000000" font-family="sans-serif" font-size="20" lengthAdjust="spacing" textLength="78" x="254.5" y="1010.8711">Business</text><line style="stroke:#181818;stroke-width:0.5;" x1="216.5" x2="370.5" y1="1020.2656" y2="1020.2656"/><text fill="#000000" font-family="sans-serif" font-size="20" lengthAdjust="spacing" textLength="144" x="221.5" y="1045.0273">Requested price</text></g><!--link StoreManager to Employee--><g id="link_StoreManager_Employee"><path codeLine="92" d="M772.7,595.1094 C777.73,595.1094 782.76,595.1094 787.8,595.1094 " fill="none" id="StoreManager-to-Employee" style="stroke:#181818;stroke-width:1.0;"/><polygon fill="none" points="787.85,588.1094,807.85,595.1094,787.85,602.1094,787.85,588.1094" style="stroke:#181818;stroke-width:1.0;"/></g><!--link Role to Employee--><g id="link_Role_Employee"><path codeLine="93" d="M854.5,423.7594 C854.5,461.5994 854.5,523.1394 854.5,560.9794 " fill="none" id="Role-Employee" style="stroke:#181818;stroke-width:1.0;"/><polygon fill="#000000" points="862.5,459.1875,857.7977,473.6596,867.2023,473.6596,862.5,459.1875" style="stroke:#000000;stroke-width:1.0;"/><text fill="#000000" font-family="sans-serif" font-size="20" lengthAdjust="spacing" textLength="31" x="875.5" y="475.3711">has</text></g><!--link User to Person--><g id="link_User_Person"><path codeLine="94" d="M1036.7,595.1094 C1041.62,595.1094 1046.54,595.1094 1051.46,595.1094 " fill="none" id="User-to-Person" style="stroke:#181818;stroke-width:1.0;"/><polygon fill="none" points="1051.67,588.1094,1071.67,595.1094,1051.67,602.1094,1051.67,588.1094" style="stroke:#181818;stroke-width:1.0;"/></g><!--link Employee to User--><g id="link_Employee_User"><path codeLine="95" d="M901.16,595.1094 C906.22,595.1094 911.29,595.1094 916.35,595.1094 " fill="none" id="Employee-to-User" style="stroke:#181818;stroke-width:1.0;"/><polygon fill="none" points="916.5,588.1094,936.5,595.1094,916.5,602.1094,916.5,588.1094" style="stroke:#181818;stroke-width:1.0;"/></g><!--link District to City--><g id="link_District_City"><path codeLine="97" d="M559.5,268.8094 C559.5,294.4694 559.5,329.8294 559.5,355.4794 " fill="none" id="District-City" style="stroke:#181818;stroke-width:1.0;"/><polygon fill="#000000" points="567.5,320.1875,572.2023,305.7154,562.7977,305.7154,567.5,320.1875" style="stroke:#000000;stroke-width:1.0;"/><text fill="#000000" font-family="sans-serif" font-size="20" lengthAdjust="spacing" textLength="31" x="580.5" y="320.3711">has</text><text fill="#000000" font-family="sans-serif" font-size="20" lengthAdjust="spacing" textLength="11" x="547.5547" y="297.5842">1</text><text fill="#000000" font-family="sans-serif" font-size="20" lengthAdjust="spacing" textLength="8" x="550.8125" y="343.2131">*</text></g><!--link State to District--><g id="link_State_District"><path codeLine="98" d="M559.5,113.8094 C559.5,139.4694 559.5,174.8294 559.5,200.4794 " fill="none" id="State-District" style="stroke:#181818;stroke-width:1.0;"/><polygon fill="#000000" points="567.5,165.1875,572.2023,150.7154,562.7977,150.7154,567.5,165.1875" style="stroke:#000000;stroke-width:1.0;"/><text fill="#000000" font-family="sans-serif" font-size="20" lengthAdjust="spacing" textLength="31" x="580.5" y="165.3711">has</text><text fill="#000000" font-family="sans-serif" font-size="20" lengthAdjust="spacing" textLength="11" x="547.5547" y="142.5842">1</text><text fill="#000000" font-family="sans-serif" font-size="20" lengthAdjust="spacing" textLength="8" x="550.8125" y="188.2131">*</text></g><!--link City to Address--><g id="link_City_Address"><path codeLine="99" d="M559.5,423.7594 C559.5,457.6594 559.5,510.5794 559.5,548.4294 " fill="none" id="City-Address" style="stroke:#181818;stroke-width:1.0;"/><polygon fill="#000000" points="567.5,475.1875,572.2023,460.7154,562.7977,460.7154,567.5,475.1875" style="stroke:#000000;stroke-width:1.0;"/><text fill="#000000" font-family="sans-serif" font-size="20" lengthAdjust="spacing" textLength="31" x="580.5" y="475.3711">has</text><text fill="#000000" font-family="sans-serif" font-size="20" lengthAdjust="spacing" textLength="11" x="547.5203" y="452.8167">1</text><text fill="#000000" font-family="sans-serif" font-size="20" lengthAdjust="spacing" textLength="8" x="550.9625" y="536.2178">*</text></g><!--link Property to Business--><g id="link_Property_Business"><path codeLine="101" d="M293.5,654.7894 C293.5,744.6994 293.5,913.6194 293.5,984.9594 " fill="none" id="Property-Business" style="stroke:#181818;stroke-width:1.0;"/><polygon fill="#000000" points="301.5,818.1875,296.7977,832.6596,306.2023,832.6596,301.5,818.1875" style="stroke:#000000;stroke-width:1.0;"/><text fill="#000000" font-family="sans-serif" font-size="20" lengthAdjust="spacing" textLength="48" x="314.5" y="834.3711">has a</text><text fill="#000000" font-family="sans-serif" font-size="20" lengthAdjust="spacing" textLength="11" x="281.9328" y="683.022">1</text><text fill="#000000" font-family="sans-serif" font-size="20" lengthAdjust="spacing" textLength="11" x="281.5547" y="972.6897">1</text></g><!--reverse link Residence to House--><g id="link_Residence_House"><path codeLine="102" d="M639.69,900.6394 C644.11,905.6294 648.42,910.6494 652.5,915.6094 C667.22,933.4994 682.03,954.3394 694.3,972.5394 " fill="none" id="Residence-backto-House" style="stroke:#181818;stroke-width:1.0;"/><polygon fill="none" points="634.49,905.3394,626.18,885.8494,644.83,895.8994,634.49,905.3394" style="stroke:#181818;stroke-width:1.0;"/></g><!--reverse link Property to Residence--><g id="link_Property_Residence"><path codeLine="103" d="M378.99,667.8194 C416.88,699.5994 460.88,736.5094 496.73,766.5894 " fill="none" id="Property-backto-Residence" style="stroke:#181818;stroke-width:1.0;"/><polygon fill="none" points="374.27,672.9994,363.45,654.7894,383.27,662.2794,374.27,672.9994" style="stroke:#181818;stroke-width:1.0;"/></g><!--link Photos to Property--><g id="link_Photos_Property"><path codeLine="104" d="M74.1,595.1094 C97.01,595.1094 129,595.1094 161.47,595.1094 " fill="none" id="Photos-Property" style="stroke:#181818;stroke-width:1.0;"/><polygon fill="#000000" points="91.25,578.6875,105.7221,583.3898,105.7221,573.9852,91.25,578.6875" style="stroke:#000000;stroke-width:1.0;"/><text fill="#000000" font-family="sans-serif" font-size="20" lengthAdjust="spacing" textLength="31" x="112.25" y="586.8711">has</text><text fill="#000000" font-family="sans-serif" font-size="20" lengthAdjust="spacing" textLength="45" x="81.9891" y="617.6179">1..30</text><text fill="#000000" font-family="sans-serif" font-size="20" lengthAdjust="spacing" textLength="11" x="142.519" y="590.1638">1</text></g><!--link House to SunExposure--><g id="link_House_SunExposure"><path codeLine="105" d="M723.5,1065.7694 C723.5,1093.2294 723.5,1127.5594 723.5,1152.4294 " fill="none" id="House-SunExposure" style="stroke:#181818;stroke-width:1.0;"/><polygon fill="#000000" points="731.5,1117.1875,736.2023,1102.7154,726.7977,1102.7154,731.5,1117.1875" style="stroke:#000000;stroke-width:1.0;"/><text fill="#000000" font-family="sans-serif" font-size="20" lengthAdjust="spacing" textLength="72" x="744.5" y="1117.3711">contains</text><text fill="#000000" font-family="sans-serif" font-size="20" lengthAdjust="spacing" textLength="8" x="714.9375" y="1094.8285">*</text><text fill="#000000" font-family="sans-serif" font-size="20" lengthAdjust="spacing" textLength="11" x="711.5547" y="1140.1545">1</text></g><!--link Property to Address--><g id="link_Property_Address"><path codeLine="106" d="M425.72,595.1094 C457.27,595.1094 488.89,595.1094 513.45,595.1094 " fill="none" id="Property-Address" style="stroke:#181818;stroke-width:1.0;"/><polygon fill="#000000" points="459,578.6875,444.5279,573.9852,444.5279,583.3898,459,578.6875" style="stroke:#000000;stroke-width:1.0;"/><text fill="#000000" font-family="sans-serif" font-size="20" lengthAdjust="spacing" textLength="31" x="464" y="586.8711">has</text><text fill="#000000" font-family="sans-serif" font-size="20" lengthAdjust="spacing" textLength="11" x="433.6819" y="590.1638">1</text><text fill="#000000" font-family="sans-serif" font-size="20" lengthAdjust="spacing" textLength="11" x="494.5564" y="588.9331">1</text></g><!--link Residence to AvailableEquipment--><g id="link_Residence_AvailableEquipment"><path codeLine="107" d="M555.45,885.7094 C549.32,918.2794 541.9,957.6194 536.76,984.9094 " fill="none" id="Residence-AvailableEquipment" style="stroke:#181818;stroke-width:1.0;"/><polygon fill="#000000" points="557.0188,937.0492,564.3193,923.6979,555.0773,921.9566,557.0188,937.0492" style="stroke:#000000;stroke-width:1.0;"/><text fill="#000000" font-family="sans-serif" font-size="20" lengthAdjust="spacing" textLength="72" x="571.5" y="937.3711">contains</text><text fill="#000000" font-family="sans-serif" font-size="20" lengthAdjust="spacing" textLength="11" x="542.7433" y="913.9338">1</text><text fill="#000000" font-family="sans-serif" font-size="20" lengthAdjust="spacing" textLength="8" x="529.1484" y="972.6311">*</text></g><!--link TypeOfProperty to Property--><g id="link_TypeOfProperty_Property"><path codeLine="108" d="M293.5,268.6894 C293.5,329.4494 293.5,459.5194 293.5,535.5394 " fill="none" id="TypeOfProperty-Property" style="stroke:#181818;stroke-width:1.0;"/><polygon fill="#000000" points="301.5,397.6875,306.2023,383.2154,296.7977,383.2154,301.5,397.6875" style="stroke:#000000;stroke-width:1.0;"/><text fill="#000000" font-family="sans-serif" font-size="20" lengthAdjust="spacing" textLength="63" x="314.5" y="397.8711">defines</text><text fill="#000000" font-family="sans-serif" font-size="20" lengthAdjust="spacing" textLength="11" x="281.5203" y="297.7342">1</text><text fill="#000000" font-family="sans-serif" font-size="20" lengthAdjust="spacing" textLength="11" x="281.8641" y="522.9987">1</text></g><!--link StoreManager to Residence--><g id="link_StoreManager_Residence"><path codeLine="110" d="M693.83,616.8394 C673.37,650.3094 632.32,717.4594 602.34,766.4894 " fill="none" id="StoreManager-Residence" style="stroke:#181818;stroke-width:1.0;"/><polygon fill="#000000" points="640.3272,730.013,651.8878,720.1183,643.864,715.2128,640.3272,730.013" style="stroke:#000000;stroke-width:1.0;"/><text fill="#000000" font-family="sans-serif" font-size="20" lengthAdjust="spacing" textLength="77" x="657.5" y="731.3711">analyses</text></g><!--SRC=[RLJ1Rjim3BthAuGS1xZ8kbjH56YR3CkXMr2lbzqKcuw5oA8hoMkpTly-Ih9a9rqkaSZ7H_A9j3r8tGiZEeNL0MfUGoC6vRwYTgNy0_nooPYJJW5_AY-NlE0hx8JK_05hK8mnc-Bvtk3GRtGBHZgXAmgTEJlKMBK6E-3E333pzA8wY3sKxaWv35GKkrTpW6r5ZIzIxtaZb9rxAYMilNNEoDtWO5EX3YKlMIjhu9Kq5H65SmUknTeo5aBukkiL7W7u6-FqswpOt-HwH9NC_ZWvIeS67eIcMiqRcmM0fGo-tnZrVUXsO3Ws_0vgWzZPSxDmxV_iMs4ElikI504x9TWQxC6uuyX_Qq24mxP5Xv5a9MsKl265kMjzynHGWNPW9gQVnnv-D8alqddRB5VW73CzFMucppSSR6hnJbZeY3kAfrknenVVaMuA6pTJRD3hrnxjO5BWIle7bgWdqErl8PKFNZyFilUi8pRV9-oJ9QMYTqlt5pJrh7Gm5dLw1D51PA5XLKak3QFSiNFnEhzwnXwDIxQfmhesO9CefJC0iVDVikVtj0OJz5xcPmf7xSl8NlzAHbOkYp5UJr6b4mvoCdy-zTyDLkgfdaTu7i0wsjoUo0AEpKUL5-ytUTvP7lnYw8iuwrUy5PRVi22k1qSXPr2oUITZkUB5vmKlQ2brmHUV5h7Nn1DhFaFao8GA8MUW97J2i3pv0LWKuJ_r7r62NxDf0w_VHxemhLDyjcVe6RU2nWN-YuiloyMu1hcZsHm7jDVE5nooN77wxZZw95eg9RKmaOPZIXOP2VPnw3rV92PyBlE4_7HzP-gT9w5lk9V8ItWw2cSYaDBaKKVhiVy0]--></g></svg>