<?xml version="1.0" encoding="UTF-8" standalone="no"?><svg xmlns="http://www.w3.org/2000/svg" xmlns:xlink="http://www.w3.org/1999/xlink" contentStyleType="text/css" height="733px" preserveAspectRatio="none" style="width:611px;height:733px;background:#FFFFFF;" version="1.1" viewBox="0 0 611 733" width="611px" zoomAndPan="magnify"><defs/><g><text fill="#000000" font-family="sans-serif" font-size="14" font-weight="bold" lengthAdjust="spacing" textLength="576" x="16.75" y="29.5332">US010 - System Sequence Diagram - Alternative Four - Offer Amount already exists</text><rect fill="#FFFFFF" height="496.0313" style="stroke:#181818;stroke-width:1.0;" width="10" x="27.5" y="138.7656"/><rect fill="#FFFFFF" height="39.1563" style="stroke:#181818;stroke-width:1.0;" width="10" x="557.5" y="169.9219"/><rect fill="#FFFFFF" height="39.1563" style="stroke:#181818;stroke-width:1.0;" width="10" x="557.5" y="248.2344"/><rect fill="#FFFFFF" height="64.3125" style="stroke:#181818;stroke-width:1.0;" width="10" x="557.5" y="326.5469"/><rect fill="#FFFFFF" height="39.1563" style="stroke:#181818;stroke-width:1.0;" width="10" x="557.5" y="430.0156"/><rect fill="#FFFFFF" height="39.1563" style="stroke:#181818;stroke-width:1.0;" width="10" x="557.5" y="508.3281"/><rect fill="#FFFFFF" height="39.1563" style="stroke:#181818;stroke-width:1.0;" width="10" x="557.5" y="586.6406"/><line style="stroke:#181818;stroke-width:0.5;stroke-dasharray:5.0,5.0;" x1="32" x2="32" y1="128.7656" y2="643.7969"/><line style="stroke:#181818;stroke-width:0.5;stroke-dasharray:5.0,5.0;" x1="562.5" x2="562.5" y1="128.7656" y2="643.7969"/><text fill="#000000" font-family="sans-serif" font-size="20" lengthAdjust="spacing" textLength="49" x="5" y="124.3711">Client</text><ellipse cx="32.5" cy="52.1094" fill="#E3E3E3" rx="8" ry="8" style="stroke:#181818;stroke-width:0.5;"/><path d="M32.5,60.1094 L32.5,87.1094 M19.5,68.1094 L45.5,68.1094 M32.5,87.1094 L19.5,102.1094 M32.5,87.1094 L45.5,102.1094 " fill="none" style="stroke:#181818;stroke-width:0.5;"/><text fill="#000000" font-family="sans-serif" font-size="20" lengthAdjust="spacing" textLength="49" x="5" y="663.5586">Client</text><ellipse cx="32.5" cy="676.4531" fill="#E3E3E3" rx="8" ry="8" style="stroke:#181818;stroke-width:0.5;"/><path d="M32.5,684.4531 L32.5,711.4531 M19.5,692.4531 L45.5,692.4531 M32.5,711.4531 L19.5,726.4531 M32.5,711.4531 L45.5,726.4531 " fill="none" style="stroke:#181818;stroke-width:0.5;"/><rect fill="#E3E3E3" height="39.1563" rx="2.5" ry="2.5" style="stroke:#181818;stroke-width:0.5;" width="86" x="519.5" y="88.6094"/><text fill="#000000" font-family="sans-serif" font-size="20" lengthAdjust="spacing" textLength="72" x="526.5" y="116.3711">:System</text><rect fill="#E3E3E3" height="39.1563" rx="2.5" ry="2.5" style="stroke:#181818;stroke-width:0.5;" width="86" x="519.5" y="642.7969"/><text fill="#000000" font-family="sans-serif" font-size="20" lengthAdjust="spacing" textLength="72" x="526.5" y="670.5586">:System</text><rect fill="#FFFFFF" height="496.0313" style="stroke:#181818;stroke-width:1.0;" width="10" x="27.5" y="138.7656"/><rect fill="#FFFFFF" height="39.1563" style="stroke:#181818;stroke-width:1.0;" width="10" x="557.5" y="169.9219"/><rect fill="#FFFFFF" height="39.1563" style="stroke:#181818;stroke-width:1.0;" width="10" x="557.5" y="248.2344"/><rect fill="#FFFFFF" height="64.3125" style="stroke:#181818;stroke-width:1.0;" width="10" x="557.5" y="326.5469"/><rect fill="#FFFFFF" height="39.1563" style="stroke:#181818;stroke-width:1.0;" width="10" x="557.5" y="430.0156"/><rect fill="#FFFFFF" height="39.1563" style="stroke:#181818;stroke-width:1.0;" width="10" x="557.5" y="508.3281"/><rect fill="#FFFFFF" height="39.1563" style="stroke:#181818;stroke-width:1.0;" width="10" x="557.5" y="586.6406"/><polygon fill="#181818" points="545.5,165.9219,555.5,169.9219,545.5,173.9219,549.5,169.9219" style="stroke:#181818;stroke-width:1.0;"/><line style="stroke:#181818;stroke-width:1.0;" x1="37.5" x2="551.5" y1="169.9219" y2="169.9219"/><text fill="#000000" font-family="sans-serif" font-size="20" font-weight="bold" lengthAdjust="spacing" textLength="11" x="44.5" y="163.5273">1</text><text fill="#000000" font-family="sans-serif" font-size="20" lengthAdjust="spacing" textLength="315" x="59.5" y="163.5273">asks to place an offer on a property</text><polygon fill="#181818" points="48.5,205.0781,38.5,209.0781,48.5,213.0781,44.5,209.0781" style="stroke:#181818;stroke-width:1.0;"/><line style="stroke:#181818;stroke-width:1.0;stroke-dasharray:2.0,2.0;" x1="42.5" x2="561.5" y1="209.0781" y2="209.0781"/><text fill="#000000" font-family="sans-serif" font-size="20" font-weight="bold" lengthAdjust="spacing" textLength="11" x="54.5" y="202.6836">2</text><text fill="#000000" font-family="sans-serif" font-size="20" lengthAdjust="spacing" textLength="237" x="69.5" y="202.6836">shows the list of properties</text><polygon fill="#181818" points="545.5,244.2344,555.5,248.2344,545.5,252.2344,549.5,248.2344" style="stroke:#181818;stroke-width:1.0;"/><line style="stroke:#181818;stroke-width:1.0;" x1="37.5" x2="551.5" y1="248.2344" y2="248.2344"/><text fill="#000000" font-family="sans-serif" font-size="20" font-weight="bold" lengthAdjust="spacing" textLength="11" x="44.5" y="241.8398">3</text><text fill="#000000" font-family="sans-serif" font-size="20" lengthAdjust="spacing" textLength="246" x="59.5" y="241.8398">selects the desired property</text><polygon fill="#181818" points="48.5,283.3906,38.5,287.3906,48.5,291.3906,44.5,287.3906" style="stroke:#181818;stroke-width:1.0;"/><line style="stroke:#181818;stroke-width:1.0;stroke-dasharray:2.0,2.0;" x1="42.5" x2="561.5" y1="287.3906" y2="287.3906"/><text fill="#000000" font-family="sans-serif" font-size="20" font-weight="bold" lengthAdjust="spacing" textLength="11" x="54.5" y="280.9961">4</text><text fill="#000000" font-family="sans-serif" font-size="20" lengthAdjust="spacing" textLength="216" x="69.5" y="280.9961">request the offer amount</text><polygon fill="#181818" points="545.5,322.5469,555.5,326.5469,545.5,330.5469,549.5,326.5469" style="stroke:#181818;stroke-width:1.0;"/><line style="stroke:#181818;stroke-width:1.0;" x1="37.5" x2="551.5" y1="326.5469" y2="326.5469"/><text fill="#000000" font-family="sans-serif" font-size="20" font-weight="bold" lengthAdjust="spacing" textLength="11" x="44.5" y="320.1523">5</text><text fill="#000000" font-family="sans-serif" font-size="20" lengthAdjust="spacing" textLength="208" x="59.5" y="320.1523">inserts the offer amount</text><polygon fill="#181818" points="48.5,386.8594,38.5,390.8594,48.5,394.8594,44.5,390.8594" style="stroke:#181818;stroke-width:1.0;"/><line style="stroke:#181818;stroke-width:1.0;stroke-dasharray:2.0,2.0;" x1="42.5" x2="561.5" y1="390.8594" y2="390.8594"/><text fill="#000000" font-family="sans-serif" font-size="20" font-weight="bold" lengthAdjust="spacing" textLength="11" x="54.5" y="371.8867">6</text><text fill="#000000" font-family="sans-serif" font-size="20" lengthAdjust="spacing" textLength="313" x="69.5" y="359.3086">offerAmount is already submited for</text><text fill="#000000" font-family="sans-serif" font-size="20" lengthAdjust="spacing" textLength="322" x="69.5" y="384.4648">this property and asks for a new one</text><polygon fill="#181818" points="545.5,426.0156,555.5,430.0156,545.5,434.0156,549.5,430.0156" style="stroke:#181818;stroke-width:1.0;"/><line style="stroke:#181818;stroke-width:1.0;" x1="37.5" x2="551.5" y1="430.0156" y2="430.0156"/><text fill="#000000" font-family="sans-serif" font-size="20" font-weight="bold" lengthAdjust="spacing" textLength="11" x="44.5" y="423.6211">7</text><text fill="#000000" font-family="sans-serif" font-size="20" lengthAdjust="spacing" textLength="208" x="59.5" y="423.6211">inserts the offer amount</text><polygon fill="#181818" points="48.5,465.1719,38.5,469.1719,48.5,473.1719,44.5,469.1719" style="stroke:#181818;stroke-width:1.0;"/><line style="stroke:#181818;stroke-width:1.0;stroke-dasharray:2.0,2.0;" x1="42.5" x2="561.5" y1="469.1719" y2="469.1719"/><text fill="#000000" font-family="sans-serif" font-size="20" font-weight="bold" lengthAdjust="spacing" textLength="11" x="54.5" y="462.7773">8</text><text fill="#000000" font-family="sans-serif" font-size="20" lengthAdjust="spacing" textLength="481" x="69.5" y="462.7773">accepts the offer amount and request the client's name</text><polygon fill="#181818" points="545.5,504.3281,555.5,508.3281,545.5,512.3281,549.5,508.3281" style="stroke:#181818;stroke-width:1.0;"/><line style="stroke:#181818;stroke-width:1.0;" x1="37.5" x2="551.5" y1="508.3281" y2="508.3281"/><text fill="#000000" font-family="sans-serif" font-size="20" font-weight="bold" lengthAdjust="spacing" textLength="11" x="44.5" y="501.9336">9</text><text fill="#000000" font-family="sans-serif" font-size="20" lengthAdjust="spacing" textLength="145" x="59.5" y="501.9336">inserts the name</text><polygon fill="#181818" points="48.5,543.4844,38.5,547.4844,48.5,551.4844,44.5,547.4844" style="stroke:#181818;stroke-width:1.0;"/><line style="stroke:#181818;stroke-width:1.0;stroke-dasharray:2.0,2.0;" x1="42.5" x2="561.5" y1="547.4844" y2="547.4844"/><text fill="#000000" font-family="sans-serif" font-size="20" font-weight="bold" lengthAdjust="spacing" textLength="22" x="54.5" y="541.0898">10</text><text fill="#000000" font-family="sans-serif" font-size="20" lengthAdjust="spacing" textLength="449" x="80.5" y="541.0898">receives the client's information and sends the offer</text><polygon fill="#181818" points="545.5,582.6406,555.5,586.6406,545.5,590.6406,549.5,586.6406" style="stroke:#181818;stroke-width:1.0;"/><line style="stroke:#181818;stroke-width:1.0;" x1="37.5" x2="551.5" y1="586.6406" y2="586.6406"/><text fill="#000000" font-family="sans-serif" font-size="20" font-weight="bold" lengthAdjust="spacing" textLength="22" x="44.5" y="580.2461">11</text><text fill="#000000" font-family="sans-serif" font-size="20" lengthAdjust="spacing" textLength="112" x="70.5" y="580.2461">submits data</text><polygon fill="#181818" points="48.5,621.7969,38.5,625.7969,48.5,629.7969,44.5,625.7969" style="stroke:#181818;stroke-width:1.0;"/><line style="stroke:#181818;stroke-width:1.0;stroke-dasharray:2.0,2.0;" x1="42.5" x2="561.5" y1="625.7969" y2="625.7969"/><text fill="#000000" font-family="sans-serif" font-size="20" font-weight="bold" lengthAdjust="spacing" textLength="22" x="54.5" y="619.4023">12</text><text fill="#000000" font-family="sans-serif" font-size="20" lengthAdjust="spacing" textLength="236" x="80.5" y="619.4023">displays operation success</text><!--SRC=[fLCzRzim4DtvAmvUEXbmCte84BJ8sa78rkL2dcp2_51unpZAhy-9ibeNyQ2samZTlNVltYFvvDE01MF8zaGE7FLOWppc99r_9xZR6SDB3yISiZsM70caLBgg36XFUA1Ena1Go0gcGxXku2EwVFRf03q69cF4YxO-TRklEzX2Dx9GX8vUAYLByDtZOO9juI48bOJYNmaUSotwwqVVKu67c6iIm508tGZqvbdO6AoIKutFLFHi9HVOV0kUacm06UQZKKtYhHzG2JRxUNYhpyU6zAyej03C_8Nj_I9rh-qd1iam15J5c20tNJa1mb3oG4N6tqGBymM-LQOBvrxDoMUbEX84NK9v5hmdDeu-STmGmnJKzPd44VkYOVwTY39vhzCdXdaJR0wl4R07drX7yMVqgjaDSGdKywzCkJv7Bxf9hp7-J7BKshAK6kxc2AOYGgApMayhxVeFkHgyjJJS03T9rpRQ1lZ2a33-Yx86MncU9NqX_ETOdzIRg6zdkfEgZIcvAzbhhrPBWS6Xu3erphC-Yf5XYceUprLDunkt-GC0]--></g></svg>