<?xml version="1.0" encoding="UTF-8" standalone="no"?><svg xmlns="http://www.w3.org/2000/svg" xmlns:xlink="http://www.w3.org/1999/xlink" contentStyleType="text/css" height="708px" preserveAspectRatio="none" style="width:611px;height:708px;background:#FFFFFF;" version="1.1" viewBox="0 0 611 708" width="611px" zoomAndPan="magnify"><defs/><g><text fill="#000000" font-family="sans-serif" font-size="14" font-weight="bold" lengthAdjust="spacing" textLength="550" x="29.75" y="29.5332">US010 - System Sequence Diagram - Alternative Two - Offer Amount is superior</text><rect fill="#FFFFFF" height="470.875" style="stroke:#181818;stroke-width:1.0;" width="10" x="27.5" y="138.7656"/><rect fill="#FFFFFF" height="39.1563" style="stroke:#181818;stroke-width:1.0;" width="10" x="557.5" y="169.9219"/><rect fill="#FFFFFF" height="39.1563" style="stroke:#181818;stroke-width:1.0;" width="10" x="557.5" y="248.2344"/><rect fill="#FFFFFF" height="39.1563" style="stroke:#181818;stroke-width:1.0;" width="10" x="557.5" y="326.5469"/><rect fill="#FFFFFF" height="39.1563" style="stroke:#181818;stroke-width:1.0;" width="10" x="557.5" y="404.8594"/><rect fill="#FFFFFF" height="39.1563" style="stroke:#181818;stroke-width:1.0;" width="10" x="557.5" y="483.1719"/><rect fill="#FFFFFF" height="39.1563" style="stroke:#181818;stroke-width:1.0;" width="10" x="557.5" y="561.4844"/><line style="stroke:#181818;stroke-width:0.5;stroke-dasharray:5.0,5.0;" x1="32" x2="32" y1="128.7656" y2="618.6406"/><line style="stroke:#181818;stroke-width:0.5;stroke-dasharray:5.0,5.0;" x1="562.5" x2="562.5" y1="128.7656" y2="618.6406"/><text fill="#000000" font-family="sans-serif" font-size="20" lengthAdjust="spacing" textLength="49" x="5" y="124.3711">Client</text><ellipse cx="32.5" cy="52.1094" fill="#E3E3E3" rx="8" ry="8" style="stroke:#181818;stroke-width:0.5;"/><path d="M32.5,60.1094 L32.5,87.1094 M19.5,68.1094 L45.5,68.1094 M32.5,87.1094 L19.5,102.1094 M32.5,87.1094 L45.5,102.1094 " fill="none" style="stroke:#181818;stroke-width:0.5;"/><text fill="#000000" font-family="sans-serif" font-size="20" lengthAdjust="spacing" textLength="49" x="5" y="638.4023">Client</text><ellipse cx="32.5" cy="651.2969" fill="#E3E3E3" rx="8" ry="8" style="stroke:#181818;stroke-width:0.5;"/><path d="M32.5,659.2969 L32.5,686.2969 M19.5,667.2969 L45.5,667.2969 M32.5,686.2969 L19.5,701.2969 M32.5,686.2969 L45.5,701.2969 " fill="none" style="stroke:#181818;stroke-width:0.5;"/><rect fill="#E3E3E3" height="39.1563" rx="2.5" ry="2.5" style="stroke:#181818;stroke-width:0.5;" width="86" x="519.5" y="88.6094"/><text fill="#000000" font-family="sans-serif" font-size="20" lengthAdjust="spacing" textLength="72" x="526.5" y="116.3711">:System</text><rect fill="#E3E3E3" height="39.1563" rx="2.5" ry="2.5" style="stroke:#181818;stroke-width:0.5;" width="86" x="519.5" y="617.6406"/><text fill="#000000" font-family="sans-serif" font-size="20" lengthAdjust="spacing" textLength="72" x="526.5" y="645.4023">:System</text><rect fill="#FFFFFF" height="470.875" style="stroke:#181818;stroke-width:1.0;" width="10" x="27.5" y="138.7656"/><rect fill="#FFFFFF" height="39.1563" style="stroke:#181818;stroke-width:1.0;" width="10" x="557.5" y="169.9219"/><rect fill="#FFFFFF" height="39.1563" style="stroke:#181818;stroke-width:1.0;" width="10" x="557.5" y="248.2344"/><rect fill="#FFFFFF" height="39.1563" style="stroke:#181818;stroke-width:1.0;" width="10" x="557.5" y="326.5469"/><rect fill="#FFFFFF" height="39.1563" style="stroke:#181818;stroke-width:1.0;" width="10" x="557.5" y="404.8594"/><rect fill="#FFFFFF" height="39.1563" style="stroke:#181818;stroke-width:1.0;" width="10" x="557.5" y="483.1719"/><rect fill="#FFFFFF" height="39.1563" style="stroke:#181818;stroke-width:1.0;" width="10" x="557.5" y="561.4844"/><polygon fill="#181818" points="545.5,165.9219,555.5,169.9219,545.5,173.9219,549.5,169.9219" style="stroke:#181818;stroke-width:1.0;"/><line style="stroke:#181818;stroke-width:1.0;" x1="37.5" x2="551.5" y1="169.9219" y2="169.9219"/><text fill="#000000" font-family="sans-serif" font-size="20" font-weight="bold" lengthAdjust="spacing" textLength="11" x="44.5" y="163.5273">1</text><text fill="#000000" font-family="sans-serif" font-size="20" lengthAdjust="spacing" textLength="315" x="59.5" y="163.5273">asks to place an offer on a property</text><polygon fill="#181818" points="48.5,205.0781,38.5,209.0781,48.5,213.0781,44.5,209.0781" style="stroke:#181818;stroke-width:1.0;"/><line style="stroke:#181818;stroke-width:1.0;stroke-dasharray:2.0,2.0;" x1="42.5" x2="561.5" y1="209.0781" y2="209.0781"/><text fill="#000000" font-family="sans-serif" font-size="20" font-weight="bold" lengthAdjust="spacing" textLength="11" x="54.5" y="202.6836">2</text><text fill="#000000" font-family="sans-serif" font-size="20" lengthAdjust="spacing" textLength="237" x="69.5" y="202.6836">shows the list of properties</text><polygon fill="#181818" points="545.5,244.2344,555.5,248.2344,545.5,252.2344,549.5,248.2344" style="stroke:#181818;stroke-width:1.0;"/><line style="stroke:#181818;stroke-width:1.0;" x1="37.5" x2="551.5" y1="248.2344" y2="248.2344"/><text fill="#000000" font-family="sans-serif" font-size="20" font-weight="bold" lengthAdjust="spacing" textLength="11" x="44.5" y="241.8398">3</text><text fill="#000000" font-family="sans-serif" font-size="20" lengthAdjust="spacing" textLength="246" x="59.5" y="241.8398">selects the desired property</text><polygon fill="#181818" points="48.5,283.3906,38.5,287.3906,48.5,291.3906,44.5,287.3906" style="stroke:#181818;stroke-width:1.0;"/><line style="stroke:#181818;stroke-width:1.0;stroke-dasharray:2.0,2.0;" x1="42.5" x2="561.5" y1="287.3906" y2="287.3906"/><text fill="#000000" font-family="sans-serif" font-size="20" font-weight="bold" lengthAdjust="spacing" textLength="11" x="54.5" y="280.9961">4</text><text fill="#000000" font-family="sans-serif" font-size="20" lengthAdjust="spacing" textLength="216" x="69.5" y="280.9961">request the offer amount</text><polygon fill="#181818" points="545.5,322.5469,555.5,326.5469,545.5,330.5469,549.5,326.5469" style="stroke:#181818;stroke-width:1.0;"/><line style="stroke:#181818;stroke-width:1.0;" x1="37.5" x2="551.5" y1="326.5469" y2="326.5469"/><text fill="#000000" font-family="sans-serif" font-size="20" font-weight="bold" lengthAdjust="spacing" textLength="11" x="44.5" y="320.1523">5</text><text fill="#000000" font-family="sans-serif" font-size="20" lengthAdjust="spacing" textLength="208" x="59.5" y="320.1523">inserts the offer amount</text><polygon fill="#181818" points="48.5,361.7031,38.5,365.7031,48.5,369.7031,44.5,365.7031" style="stroke:#181818;stroke-width:1.0;"/><line style="stroke:#181818;stroke-width:1.0;stroke-dasharray:2.0,2.0;" x1="42.5" x2="561.5" y1="365.7031" y2="365.7031"/><text fill="#000000" font-family="sans-serif" font-size="20" font-weight="bold" lengthAdjust="spacing" textLength="11" x="54.5" y="359.3086">6</text><text fill="#000000" font-family="sans-serif" font-size="20" lengthAdjust="spacing" textLength="421" x="69.5" y="359.3086">rejects the offer amount and asks for a new one</text><polygon fill="#181818" points="545.5,400.8594,555.5,404.8594,545.5,408.8594,549.5,404.8594" style="stroke:#181818;stroke-width:1.0;"/><line style="stroke:#181818;stroke-width:1.0;" x1="37.5" x2="551.5" y1="404.8594" y2="404.8594"/><text fill="#000000" font-family="sans-serif" font-size="20" font-weight="bold" lengthAdjust="spacing" textLength="11" x="44.5" y="398.4648">7</text><text fill="#000000" font-family="sans-serif" font-size="20" lengthAdjust="spacing" textLength="208" x="59.5" y="398.4648">inserts the offer amount</text><polygon fill="#181818" points="48.5,440.0156,38.5,444.0156,48.5,448.0156,44.5,444.0156" style="stroke:#181818;stroke-width:1.0;"/><line style="stroke:#181818;stroke-width:1.0;stroke-dasharray:2.0,2.0;" x1="42.5" x2="561.5" y1="444.0156" y2="444.0156"/><text fill="#000000" font-family="sans-serif" font-size="20" font-weight="bold" lengthAdjust="spacing" textLength="11" x="54.5" y="437.6211">8</text><text fill="#000000" font-family="sans-serif" font-size="20" lengthAdjust="spacing" textLength="481" x="69.5" y="437.6211">accepts the offer amount and request the client's name</text><polygon fill="#181818" points="545.5,479.1719,555.5,483.1719,545.5,487.1719,549.5,483.1719" style="stroke:#181818;stroke-width:1.0;"/><line style="stroke:#181818;stroke-width:1.0;" x1="37.5" x2="551.5" y1="483.1719" y2="483.1719"/><text fill="#000000" font-family="sans-serif" font-size="20" font-weight="bold" lengthAdjust="spacing" textLength="11" x="44.5" y="476.7773">9</text><text fill="#000000" font-family="sans-serif" font-size="20" lengthAdjust="spacing" textLength="145" x="59.5" y="476.7773">inserts the name</text><polygon fill="#181818" points="48.5,518.3281,38.5,522.3281,48.5,526.3281,44.5,522.3281" style="stroke:#181818;stroke-width:1.0;"/><line style="stroke:#181818;stroke-width:1.0;stroke-dasharray:2.0,2.0;" x1="42.5" x2="561.5" y1="522.3281" y2="522.3281"/><text fill="#000000" font-family="sans-serif" font-size="20" font-weight="bold" lengthAdjust="spacing" textLength="22" x="54.5" y="515.9336">10</text><text fill="#000000" font-family="sans-serif" font-size="20" lengthAdjust="spacing" textLength="449" x="80.5" y="515.9336">receives the client's information and sends the offer</text><polygon fill="#181818" points="545.5,557.4844,555.5,561.4844,545.5,565.4844,549.5,561.4844" style="stroke:#181818;stroke-width:1.0;"/><line style="stroke:#181818;stroke-width:1.0;" x1="37.5" x2="551.5" y1="561.4844" y2="561.4844"/><text fill="#000000" font-family="sans-serif" font-size="20" font-weight="bold" lengthAdjust="spacing" textLength="22" x="44.5" y="555.0898">11</text><text fill="#000000" font-family="sans-serif" font-size="20" lengthAdjust="spacing" textLength="112" x="70.5" y="555.0898">submits data</text><polygon fill="#181818" points="48.5,596.6406,38.5,600.6406,48.5,604.6406,44.5,600.6406" style="stroke:#181818;stroke-width:1.0;"/><line style="stroke:#181818;stroke-width:1.0;stroke-dasharray:2.0,2.0;" x1="42.5" x2="561.5" y1="600.6406" y2="600.6406"/><text fill="#000000" font-family="sans-serif" font-size="20" font-weight="bold" lengthAdjust="spacing" textLength="22" x="54.5" y="594.2461">12</text><text fill="#000000" font-family="sans-serif" font-size="20" lengthAdjust="spacing" textLength="236" x="80.5" y="594.2461">displays operation success</text><!--SRC=[dPDDZjim38NtEWMHpQm2f5rcKM3Gejikt1w08z496_su8ZL1vlIbxN7h8bF0xSg2nVVuwOcI2-S1AwPO_8K21EgnHVrSidRyGl3-u9miDP1ABlvSIoBGscYrCw2_u8awlKM2Ibund-AwGCuOofNp2NgCGiufgvL-wmxl3h27xYPA2JhwqIXxWa-Cfr6sXyUeL3CgFnDylHRxywNlgS9ZAYqhi82qWIgNwXmsBRcb9nhNNak5tSV8b7K7A30ldV4eUnxGrBlZt7ZQdvUJafzHQH6u-Glx3mlcqSel0bfWY6YqcA5CK2K3mb2B0Udjjz7Y_2hVczEhvz62ALUpEXD45ZMVHSyaBj2TnnimGj4Idqq22LUxo7-3g6Fkrdrqc4-2KxnR08x0MQoLtAitzlx-YtwjjbJ3d7Dl5ucGwMhvqiPCjZFTGzdrUa_3tvZMOVb9y22GCVqFsYJR69CdUmFoPrlE5aworp5Edh49vR32tZf0xIcn4GLKt4OJM6pqRmBZbCtjfLbeyiRC_WG0]--></g></svg>