<?xml version="1.0" encoding="UTF-8" standalone="no"?><svg xmlns="http://www.w3.org/2000/svg" xmlns:xlink="http://www.w3.org/1999/xlink" contentStyleType="text/css" height="850px" preserveAspectRatio="none" style="width:841px;height:850px;background:#FFFFFF;" version="1.1" viewBox="0 0 841 850" width="841px" zoomAndPan="magnify"><defs/><g><text fill="#000000" font-family="sans-serif" font-size="14" font-weight="bold" lengthAdjust="spacing" textLength="284" x="279.75" y="29.5332">US010 - System Sequence Diagram (SSD)</text><rect fill="#FFFFFF" height="612.8125" style="stroke:#181818;stroke-width:1.0;" width="10" x="52.5" y="138.7656"/><rect fill="#FFFFFF" height="39.1563" style="stroke:#181818;stroke-width:1.0;" width="10" x="766.5" y="169.9219"/><rect fill="#FFFFFF" height="39.1563" style="stroke:#181818;stroke-width:1.0;" width="10" x="766.5" y="248.2344"/><rect fill="#FFFFFF" height="218.25" style="stroke:#181818;stroke-width:1.0;" width="10" x="766.5" y="326.5469"/><rect fill="#FFFFFF" height="73.3125" style="stroke:#181818;stroke-width:1.0;" width="10" x="766.5" y="583.9531"/><rect fill="#FFFFFF" height="39.1563" style="stroke:#181818;stroke-width:1.0;" width="10" x="766.5" y="703.4219"/><rect fill="none" height="76.4688" style="stroke:#000000;stroke-width:1.5;" width="804.5" x="20" y="341.5469"/><rect fill="none" height="233.25" style="stroke:#000000;stroke-width:1.5;" width="824.5" x="10" y="432.0156"/><rect fill="none" height="115.625" style="stroke:#000000;stroke-width:1.5;" width="804.5" x="20" y="476.3281"/><line style="stroke:#181818;stroke-width:0.5;stroke-dasharray:5.0,5.0;" x1="57" x2="57" y1="128.7656" y2="760.5781"/><line style="stroke:#181818;stroke-width:0.5;stroke-dasharray:5.0,5.0;" x1="771.5" x2="771.5" y1="128.7656" y2="760.5781"/><text fill="#000000" font-family="sans-serif" font-size="20" lengthAdjust="spacing" textLength="49" x="30" y="124.3711">Client</text><ellipse cx="57.5" cy="52.1094" fill="#E3E3E3" rx="8" ry="8" style="stroke:#181818;stroke-width:0.5;"/><path d="M57.5,60.1094 L57.5,87.1094 M44.5,68.1094 L70.5,68.1094 M57.5,87.1094 L44.5,102.1094 M57.5,87.1094 L70.5,102.1094 " fill="none" style="stroke:#181818;stroke-width:0.5;"/><text fill="#000000" font-family="sans-serif" font-size="20" lengthAdjust="spacing" textLength="49" x="30" y="780.3398">Client</text><ellipse cx="57.5" cy="793.2344" fill="#E3E3E3" rx="8" ry="8" style="stroke:#181818;stroke-width:0.5;"/><path d="M57.5,801.2344 L57.5,828.2344 M44.5,809.2344 L70.5,809.2344 M57.5,828.2344 L44.5,843.2344 M57.5,828.2344 L70.5,843.2344 " fill="none" style="stroke:#181818;stroke-width:0.5;"/><rect fill="#E3E3E3" height="39.1563" rx="2.5" ry="2.5" style="stroke:#181818;stroke-width:0.5;" width="86" x="728.5" y="88.6094"/><text fill="#000000" font-family="sans-serif" font-size="20" lengthAdjust="spacing" textLength="72" x="735.5" y="116.3711">:System</text><rect fill="#E3E3E3" height="39.1563" rx="2.5" ry="2.5" style="stroke:#181818;stroke-width:0.5;" width="86" x="728.5" y="759.5781"/><text fill="#000000" font-family="sans-serif" font-size="20" lengthAdjust="spacing" textLength="72" x="735.5" y="787.3398">:System</text><rect fill="#FFFFFF" height="612.8125" style="stroke:#181818;stroke-width:1.0;" width="10" x="52.5" y="138.7656"/><rect fill="#FFFFFF" height="39.1563" style="stroke:#181818;stroke-width:1.0;" width="10" x="766.5" y="169.9219"/><rect fill="#FFFFFF" height="39.1563" style="stroke:#181818;stroke-width:1.0;" width="10" x="766.5" y="248.2344"/><rect fill="#FFFFFF" height="218.25" style="stroke:#181818;stroke-width:1.0;" width="10" x="766.5" y="326.5469"/><rect fill="#FFFFFF" height="73.3125" style="stroke:#181818;stroke-width:1.0;" width="10" x="766.5" y="583.9531"/><rect fill="#FFFFFF" height="39.1563" style="stroke:#181818;stroke-width:1.0;" width="10" x="766.5" y="703.4219"/><polygon fill="#181818" points="754.5,165.9219,764.5,169.9219,754.5,173.9219,758.5,169.9219" style="stroke:#181818;stroke-width:1.0;"/><line style="stroke:#181818;stroke-width:1.0;" x1="62.5" x2="760.5" y1="169.9219" y2="169.9219"/><text fill="#000000" font-family="sans-serif" font-size="20" font-weight="bold" lengthAdjust="spacing" textLength="11" x="69.5" y="163.5273">1</text><text fill="#000000" font-family="sans-serif" font-size="20" lengthAdjust="spacing" textLength="315" x="84.5" y="163.5273">asks to place an offer on a property</text><polygon fill="#181818" points="73.5,205.0781,63.5,209.0781,73.5,213.0781,69.5,209.0781" style="stroke:#181818;stroke-width:1.0;"/><line style="stroke:#181818;stroke-width:1.0;stroke-dasharray:2.0,2.0;" x1="67.5" x2="770.5" y1="209.0781" y2="209.0781"/><text fill="#000000" font-family="sans-serif" font-size="20" font-weight="bold" lengthAdjust="spacing" textLength="11" x="79.5" y="202.6836">2</text><text fill="#000000" font-family="sans-serif" font-size="20" lengthAdjust="spacing" textLength="237" x="94.5" y="202.6836">shows the list of properties</text><polygon fill="#181818" points="754.5,244.2344,764.5,248.2344,754.5,252.2344,758.5,248.2344" style="stroke:#181818;stroke-width:1.0;"/><line style="stroke:#181818;stroke-width:1.0;" x1="62.5" x2="760.5" y1="248.2344" y2="248.2344"/><text fill="#000000" font-family="sans-serif" font-size="20" font-weight="bold" lengthAdjust="spacing" textLength="11" x="69.5" y="241.8398">3</text><text fill="#000000" font-family="sans-serif" font-size="20" lengthAdjust="spacing" textLength="246" x="84.5" y="241.8398">selects the desired property</text><polygon fill="#181818" points="73.5,283.3906,63.5,287.3906,73.5,291.3906,69.5,287.3906" style="stroke:#181818;stroke-width:1.0;"/><line style="stroke:#181818;stroke-width:1.0;stroke-dasharray:2.0,2.0;" x1="67.5" x2="770.5" y1="287.3906" y2="287.3906"/><text fill="#000000" font-family="sans-serif" font-size="20" font-weight="bold" lengthAdjust="spacing" textLength="11" x="79.5" y="280.9961">4</text><text fill="#000000" font-family="sans-serif" font-size="20" lengthAdjust="spacing" textLength="216" x="94.5" y="280.9961">request the offer amount</text><polygon fill="#181818" points="754.5,322.5469,764.5,326.5469,754.5,330.5469,758.5,326.5469" style="stroke:#181818;stroke-width:1.0;"/><line style="stroke:#181818;stroke-width:1.0;" x1="62.5" x2="760.5" y1="326.5469" y2="326.5469"/><text fill="#000000" font-family="sans-serif" font-size="20" font-weight="bold" lengthAdjust="spacing" textLength="11" x="69.5" y="320.1523">5</text><text fill="#000000" font-family="sans-serif" font-size="20" lengthAdjust="spacing" textLength="614" x="84.5" y="320.1523">places an offer to purchase a property by submitting the order amount</text><path d="M20,341.5469 L96,341.5469 L96,358.7031 L86,368.7031 L20,368.7031 L20,341.5469 " fill="#EEEEEE" style="stroke:#000000;stroke-width:1.5;"/><rect fill="none" height="76.4688" style="stroke:#000000;stroke-width:1.5;" width="804.5" x="20" y="341.5469"/><text fill="#000000" font-family="sans-serif" font-size="20" font-weight="bold" lengthAdjust="spacing" textLength="31" x="35" y="363.3086">opt</text><text fill="#000000" font-family="sans-serif" font-size="20" font-weight="bold" lengthAdjust="spacing" textLength="253" x="111" y="364.3086">[if there is a pending offer]</text><polygon fill="#181818" points="73.5,406.0156,63.5,410.0156,73.5,414.0156,69.5,410.0156" style="stroke:#181818;stroke-width:1.0;"/><line style="stroke:#181818;stroke-width:1.0;stroke-dasharray:2.0,2.0;" x1="67.5" x2="765.5" y1="410.0156" y2="410.0156"/><text fill="#000000" font-family="sans-serif" font-size="20" font-weight="bold" lengthAdjust="spacing" textLength="11" x="79.5" y="403.6211">6</text><text fill="#000000" font-family="sans-serif" font-size="20" lengthAdjust="spacing" textLength="665" x="94.5" y="403.6211">asks the user to wait until the pending request is either accepted or rejected</text><path d="M10,432.0156 L78,432.0156 L78,449.1719 L68,459.1719 L10,459.1719 L10,432.0156 " fill="#EEEEEE" style="stroke:#000000;stroke-width:1.5;"/><rect fill="none" height="233.25" style="stroke:#000000;stroke-width:1.5;" width="824.5" x="10" y="432.0156"/><text fill="#000000" font-family="sans-serif" font-size="20" font-weight="bold" lengthAdjust="spacing" textLength="23" x="25" y="453.7773">alt</text><text fill="#000000" font-family="sans-serif" font-size="20" font-weight="bold" lengthAdjust="spacing" textLength="243" x="93" y="454.7773">[offer amount is superior]</text><path d="M20,476.3281 L106,476.3281 L106,493.4844 L96,503.4844 L20,503.4844 L20,476.3281 " fill="#EEEEEE" style="stroke:#000000;stroke-width:1.5;"/><rect fill="none" height="115.625" style="stroke:#000000;stroke-width:1.5;" width="804.5" x="20" y="476.3281"/><text fill="#000000" font-family="sans-serif" font-size="20" font-weight="bold" lengthAdjust="spacing" textLength="41" x="35" y="498.0898">loop</text><text fill="#000000" font-family="sans-serif" font-size="20" font-weight="bold" lengthAdjust="spacing" textLength="596" x="121" y="499.0898">[if the offer amount is higher than the owner's requested price]</text><polygon fill="#181818" points="73.5,540.7969,63.5,544.7969,73.5,548.7969,69.5,544.7969" style="stroke:#181818;stroke-width:1.0;"/><line style="stroke:#181818;stroke-width:1.0;stroke-dasharray:2.0,2.0;" x1="67.5" x2="770.5" y1="544.7969" y2="544.7969"/><text fill="#000000" font-family="sans-serif" font-size="20" font-weight="bold" lengthAdjust="spacing" textLength="11" x="79.5" y="538.4023">7</text><text fill="#000000" font-family="sans-serif" font-size="20" lengthAdjust="spacing" textLength="179" x="94.5" y="538.4023">asks for a new price</text><polygon fill="#181818" points="754.5,579.9531,764.5,583.9531,754.5,587.9531,758.5,583.9531" style="stroke:#181818;stroke-width:1.0;"/><line style="stroke:#181818;stroke-width:1.0;" x1="62.5" x2="760.5" y1="583.9531" y2="583.9531"/><text fill="#000000" font-family="sans-serif" font-size="20" font-weight="bold" lengthAdjust="spacing" textLength="11" x="69.5" y="577.5586">8</text><text fill="#000000" font-family="sans-serif" font-size="20" lengthAdjust="spacing" textLength="426" x="84.5" y="577.5586">places a new order with an inferior order amount</text><line style="stroke:#000000;stroke-width:1.0;stroke-dasharray:2.0,2.0;" x1="10" x2="834.5" y1="599.9531" y2="599.9531"/><text fill="#000000" font-family="sans-serif" font-size="20" font-weight="bold" lengthAdjust="spacing" textLength="232" x="15" y="620.7148">[offer amount is inferior]</text><polygon fill="#181818" points="73.5,653.2656,63.5,657.2656,73.5,661.2656,69.5,657.2656" style="stroke:#181818;stroke-width:1.0;"/><line style="stroke:#181818;stroke-width:1.0;stroke-dasharray:2.0,2.0;" x1="67.5" x2="770.5" y1="657.2656" y2="657.2656"/><text fill="#000000" font-family="sans-serif" font-size="20" font-weight="bold" lengthAdjust="spacing" textLength="11" x="79.5" y="650.8711">9</text><text fill="#000000" font-family="sans-serif" font-size="20" lengthAdjust="spacing" textLength="260" x="94.5" y="650.8711">accepts the purchase request</text><polygon fill="#181818" points="754.5,699.4219,764.5,703.4219,754.5,707.4219,758.5,703.4219" style="stroke:#181818;stroke-width:1.0;"/><line style="stroke:#181818;stroke-width:1.0;" x1="62.5" x2="760.5" y1="703.4219" y2="703.4219"/><text fill="#000000" font-family="sans-serif" font-size="20" font-weight="bold" lengthAdjust="spacing" textLength="22" x="69.5" y="697.0273">10</text><text fill="#000000" font-family="sans-serif" font-size="20" lengthAdjust="spacing" textLength="112" x="95.5" y="697.0273">submits data</text><polygon fill="#181818" points="73.5,738.5781,63.5,742.5781,73.5,746.5781,69.5,742.5781" style="stroke:#181818;stroke-width:1.0;"/><line style="stroke:#181818;stroke-width:1.0;stroke-dasharray:2.0,2.0;" x1="67.5" x2="770.5" y1="742.5781" y2="742.5781"/><text fill="#000000" font-family="sans-serif" font-size="20" font-weight="bold" lengthAdjust="spacing" textLength="22" x="79.5" y="736.1836">11</text><text fill="#000000" font-family="sans-serif" font-size="20" lengthAdjust="spacing" textLength="226" x="105.5" y="736.1836">displays operation sucess</text><!--SRC=[bLD1Zjim3Bph5KGkRGy1qXvpwAMBVi3e0nYRZjd8aYjHDTBNbvBYZHTnTxU-H8WuC-IC62_i9WmuMjzUg8EEUanMldid3VyX-78m9YurC7hdso7uaK12ejNDXEq5pzJ8rH84QWNTsQuBue2TdzcTeKSRoHXXqT8VpU7p0VRGNAFG20tzIkHQWYV6SuPzR9gdJyPW4k_IUAAWvrPyWDqto-Ha1nYX7eqA2RSyeHFO7IjZkQ_7WkJVABG0JFs5_TT5_wZbbmZYORAeRQ03t_SKm3j0c8AVACZrJhGmt-1xPRfn7dLYFolLG60vYl8iUAPeEdhWs6WcabKhAqb7aOCcz7zDX6oegcU6EWcEFkdixskWk13lDcHZKcW7ZBJo0qvNYEaqiaWEk6Y5xgxre0Jw-Kc0-rmS23XcEd9TnXUfMfI_hR5gIggJOkrgHXPGBRRbxuLg6L_vYRCKODlI9EgZlg50FzLUwggMGke1hRpmAgDZqadPhzgota-t0Hwg1pvdBHdKk78_EmeVuj9EIP5RkfEzEcUlhI8ucc-eDMWZnlNrAv4MmXhJhDRaZDdrPSYNwQtv_YdsR1xfSZ_uiH2_4Mg9fkRw_Cfkbfat1YxwMnjKdcM43WNVjp4THxNe6Y6_RHJMpOz97TlSMVCN]--></g></svg>