<?xml version="1.0" encoding="us-ascii" standalone="no"?><svg xmlns="http://www.w3.org/2000/svg" xmlns:xlink="http://www.w3.org/1999/xlink" contentStyleType="text/css" height="587px" preserveAspectRatio="none" style="width:640px;height:587px;background:#FFFFFF;" version="1.1" viewBox="0 0 640 587" width="640px" zoomAndPan="magnify"><defs/><g><text fill="#000000" font-family="sans-serif" font-size="14" font-weight="bold" lengthAdjust="spacing" textLength="612" x="10" y="28.5352">US010 - System Sequence Diagram - Alternative Four - Offer Amount already exists</text><rect fill="#FFFFFF" height="368.0371" style="stroke:#181818;stroke-width:1.0;" width="10" x="109.5" y="128.9766"/><rect fill="#FFFFFF" height="29.3105" style="stroke:#181818;stroke-width:1.0;" width="10" x="503.5" y="150.2871"/><rect fill="#FFFFFF" height="29.3105" style="stroke:#181818;stroke-width:1.0;" width="10" x="503.5" y="208.9082"/><rect fill="#FFFFFF" height="44.6211" style="stroke:#181818;stroke-width:1.0;" width="10" x="503.5" y="267.5293"/><rect fill="#FFFFFF" height="29.3105" style="stroke:#181818;stroke-width:1.0;" width="10" x="503.5" y="341.4609"/><rect fill="#FFFFFF" height="29.3105" style="stroke:#181818;stroke-width:1.0;" width="10" x="503.5" y="400.082"/><rect fill="#FFFFFF" height="29.3105" style="stroke:#181818;stroke-width:1.0;" width="10" x="503.5" y="458.7031"/><line style="stroke:#181818;stroke-width:0.5;stroke-dasharray:5.0,5.0;" x1="114.5" x2="114.5" y1="118.9766" y2="506.0137"/><line style="stroke:#181818;stroke-width:0.5;stroke-dasharray:5.0,5.0;" x1="508.5" x2="508.5" y1="118.9766" y2="506.0137"/><text fill="#000000" font-family="sans-serif" font-size="14" lengthAdjust="spacing" textLength="40" x="91.5" y="116.0234">Client</text><ellipse cx="114.5" cy="50.9883" fill="#E3E3E3" rx="8" ry="8" style="stroke:#181818;stroke-width:0.5;"/><path d="M114.5,58.9883 L114.5,85.9883 M101.5,66.9883 L127.5,66.9883 M114.5,85.9883 L101.5,100.9883 M114.5,85.9883 L127.5,100.9883 " fill="none" style="stroke:#181818;stroke-width:0.5;"/><text fill="#000000" font-family="sans-serif" font-size="14" lengthAdjust="spacing" textLength="40" x="91.5" y="518.5488">Client</text><ellipse cx="114.5" cy="530.002" fill="#E3E3E3" rx="8" ry="8" style="stroke:#181818;stroke-width:0.5;"/><path d="M114.5,538.002 L114.5,565.002 M101.5,546.002 L127.5,546.002 M114.5,565.002 L101.5,580.002 M114.5,565.002 L127.5,580.002 " fill="none" style="stroke:#181818;stroke-width:0.5;"/><rect fill="#E3E3E3" height="30.4883" rx="2.5" ry="2.5" style="stroke:#181818;stroke-width:0.5;" width="66" x="475.5" y="87.4883"/><text fill="#000000" font-family="sans-serif" font-size="14" lengthAdjust="spacing" textLength="52" x="482.5" y="108.0234">:System</text><rect fill="#E3E3E3" height="30.4883" rx="2.5" ry="2.5" style="stroke:#181818;stroke-width:0.5;" width="66" x="475.5" y="505.0137"/><text fill="#000000" font-family="sans-serif" font-size="14" lengthAdjust="spacing" textLength="52" x="482.5" y="525.5488">:System</text><rect fill="#FFFFFF" height="368.0371" style="stroke:#181818;stroke-width:1.0;" width="10" x="109.5" y="128.9766"/><rect fill="#FFFFFF" height="29.3105" style="stroke:#181818;stroke-width:1.0;" width="10" x="503.5" y="150.2871"/><rect fill="#FFFFFF" height="29.3105" style="stroke:#181818;stroke-width:1.0;" width="10" x="503.5" y="208.9082"/><rect fill="#FFFFFF" height="44.6211" style="stroke:#181818;stroke-width:1.0;" width="10" x="503.5" y="267.5293"/><rect fill="#FFFFFF" height="29.3105" style="stroke:#181818;stroke-width:1.0;" width="10" x="503.5" y="341.4609"/><rect fill="#FFFFFF" height="29.3105" style="stroke:#181818;stroke-width:1.0;" width="10" x="503.5" y="400.082"/><rect fill="#FFFFFF" height="29.3105" style="stroke:#181818;stroke-width:1.0;" width="10" x="503.5" y="458.7031"/><polygon fill="#181818" points="491.5,146.2871,501.5,150.2871,491.5,154.2871,495.5,150.2871" style="stroke:#181818;stroke-width:1.0;"/><line style="stroke:#181818;stroke-width:1.0;" x1="119.5" x2="497.5" y1="150.2871" y2="150.2871"/><text fill="#000000" font-family="sans-serif" font-size="13" font-weight="bold" lengthAdjust="spacing" textLength="9" x="126.5" y="145.5449">1</text><text fill="#000000" font-family="sans-serif" font-size="13" lengthAdjust="spacing" textLength="224" x="139.5" y="145.5449">asks to place an offer on a property</text><polygon fill="#181818" points="130.5,175.5977,120.5,179.5977,130.5,183.5977,126.5,179.5977" style="stroke:#181818;stroke-width:1.0;"/><line style="stroke:#181818;stroke-width:1.0;stroke-dasharray:2.0,2.0;" x1="124.5" x2="507.5" y1="179.5977" y2="179.5977"/><text fill="#000000" font-family="sans-serif" font-size="13" font-weight="bold" lengthAdjust="spacing" textLength="9" x="136.5" y="174.8555">2</text><text fill="#000000" font-family="sans-serif" font-size="13" lengthAdjust="spacing" textLength="173" x="149.5" y="174.8555">shows the list of properties</text><polygon fill="#181818" points="491.5,204.9082,501.5,208.9082,491.5,212.9082,495.5,208.9082" style="stroke:#181818;stroke-width:1.0;"/><line style="stroke:#181818;stroke-width:1.0;" x1="119.5" x2="497.5" y1="208.9082" y2="208.9082"/><text fill="#000000" font-family="sans-serif" font-size="13" font-weight="bold" lengthAdjust="spacing" textLength="9" x="126.5" y="204.166">3</text><text fill="#000000" font-family="sans-serif" font-size="13" lengthAdjust="spacing" textLength="175" x="139.5" y="204.166">selects the desired property</text><polygon fill="#181818" points="130.5,234.2188,120.5,238.2188,130.5,242.2188,126.5,238.2188" style="stroke:#181818;stroke-width:1.0;"/><line style="stroke:#181818;stroke-width:1.0;stroke-dasharray:2.0,2.0;" x1="124.5" x2="507.5" y1="238.2188" y2="238.2188"/><text fill="#000000" font-family="sans-serif" font-size="13" font-weight="bold" lengthAdjust="spacing" textLength="9" x="136.5" y="233.4766">4</text><text fill="#000000" font-family="sans-serif" font-size="13" lengthAdjust="spacing" textLength="157" x="149.5" y="233.4766">request the offer amount</text><polygon fill="#181818" points="491.5,263.5293,501.5,267.5293,491.5,271.5293,495.5,267.5293" style="stroke:#181818;stroke-width:1.0;"/><line style="stroke:#181818;stroke-width:1.0;" x1="119.5" x2="497.5" y1="267.5293" y2="267.5293"/><text fill="#000000" font-family="sans-serif" font-size="13" font-weight="bold" lengthAdjust="spacing" textLength="9" x="126.5" y="262.7871">5</text><text fill="#000000" font-family="sans-serif" font-size="13" lengthAdjust="spacing" textLength="153" x="139.5" y="262.7871">inserts the offer amount</text><polygon fill="#181818" points="130.5,308.1504,120.5,312.1504,130.5,316.1504,126.5,312.1504" style="stroke:#181818;stroke-width:1.0;"/><line style="stroke:#181818;stroke-width:1.0;stroke-dasharray:2.0,2.0;" x1="124.5" x2="507.5" y1="312.1504" y2="312.1504"/><text fill="#000000" font-family="sans-serif" font-size="13" font-weight="bold" lengthAdjust="spacing" textLength="9" x="136.5" y="299.7529">6</text><text fill="#000000" font-family="sans-serif" font-size="13" lengthAdjust="spacing" textLength="229" x="149.5" y="292.0977">offerAmount is already submited for</text><text fill="#000000" font-family="sans-serif" font-size="13" lengthAdjust="spacing" textLength="230" x="149.5" y="307.4082">this property and asks for a new one</text><polygon fill="#181818" points="491.5,337.4609,501.5,341.4609,491.5,345.4609,495.5,341.4609" style="stroke:#181818;stroke-width:1.0;"/><line style="stroke:#181818;stroke-width:1.0;" x1="119.5" x2="497.5" y1="341.4609" y2="341.4609"/><text fill="#000000" font-family="sans-serif" font-size="13" font-weight="bold" lengthAdjust="spacing" textLength="9" x="126.5" y="336.7188">7</text><text fill="#000000" font-family="sans-serif" font-size="13" lengthAdjust="spacing" textLength="153" x="139.5" y="336.7188">inserts the offer amount</text><polygon fill="#181818" points="130.5,366.7715,120.5,370.7715,130.5,374.7715,126.5,370.7715" style="stroke:#181818;stroke-width:1.0;"/><line style="stroke:#181818;stroke-width:1.0;stroke-dasharray:2.0,2.0;" x1="124.5" x2="507.5" y1="370.7715" y2="370.7715"/><text fill="#000000" font-family="sans-serif" font-size="13" font-weight="bold" lengthAdjust="spacing" textLength="9" x="136.5" y="366.0293">8</text><text fill="#000000" font-family="sans-serif" font-size="13" lengthAdjust="spacing" textLength="347" x="149.5" y="366.0293">accepts the offer amount and request the client's name</text><polygon fill="#181818" points="491.5,396.082,501.5,400.082,491.5,404.082,495.5,400.082" style="stroke:#181818;stroke-width:1.0;"/><line style="stroke:#181818;stroke-width:1.0;" x1="119.5" x2="497.5" y1="400.082" y2="400.082"/><text fill="#000000" font-family="sans-serif" font-size="13" font-weight="bold" lengthAdjust="spacing" textLength="9" x="126.5" y="395.3398">9</text><text fill="#000000" font-family="sans-serif" font-size="13" lengthAdjust="spacing" textLength="105" x="139.5" y="395.3398">inserts the name</text><polygon fill="#181818" points="130.5,425.3926,120.5,429.3926,130.5,433.3926,126.5,429.3926" style="stroke:#181818;stroke-width:1.0;"/><line style="stroke:#181818;stroke-width:1.0;stroke-dasharray:2.0,2.0;" x1="124.5" x2="507.5" y1="429.3926" y2="429.3926"/><text fill="#000000" font-family="sans-serif" font-size="13" font-weight="bold" lengthAdjust="spacing" textLength="18" x="136.5" y="424.6504">10</text><text fill="#000000" font-family="sans-serif" font-size="13" lengthAdjust="spacing" textLength="328" x="158.5" y="424.6504">receives the client's information and sends the offer</text><polygon fill="#181818" points="491.5,454.7031,501.5,458.7031,491.5,462.7031,495.5,458.7031" style="stroke:#181818;stroke-width:1.0;"/><line style="stroke:#181818;stroke-width:1.0;" x1="119.5" x2="497.5" y1="458.7031" y2="458.7031"/><text fill="#000000" font-family="sans-serif" font-size="13" font-weight="bold" lengthAdjust="spacing" textLength="18" x="126.5" y="453.9609">11</text><text fill="#000000" font-family="sans-serif" font-size="13" lengthAdjust="spacing" textLength="82" x="148.5" y="453.9609">submits data</text><polygon fill="#181818" points="130.5,484.0137,120.5,488.0137,130.5,492.0137,126.5,488.0137" style="stroke:#181818;stroke-width:1.0;"/><line style="stroke:#181818;stroke-width:1.0;stroke-dasharray:2.0,2.0;" x1="124.5" x2="507.5" y1="488.0137" y2="488.0137"/><text fill="#000000" font-family="sans-serif" font-size="13" font-weight="bold" lengthAdjust="spacing" textLength="18" x="136.5" y="483.2715">12</text><text fill="#000000" font-family="sans-serif" font-size="13" lengthAdjust="spacing" textLength="170" x="158.5" y="483.2715">displays operation success</text><!--SRC=[fLEnZjim3Dtz5KIMJW6kQuO2XnPTEmJTkl0a9Y4YKJwHlfp__cWvlgQu36uxMJ3v7X_Va_JCqcF53Bb82QTQCe7LWJfzh_GOpdYalOs9e58mb6EwRT0Jnd9XES81arBN6Pkt_jm_V7w0BUn7DSgmf-U1911yOpnEi2qy9gCgQFn2yBqCrN_zE1oemcCkWnXWgeHn17fbDUqw7Ap8a9-e-ZbOgR3vcfZ4De0Ayx5pJSQ1UtI2pMuUtkhpiI7v1OqMG3T_OVjbaRhpzhE25UWJkc8KA4rN4K3eQ-cfslYRQ66-mhVETENSkJdbubGdWkHBEC-2Pz8kqWUEEsAKahi-aqHIhXJ_KaITlFVf4yEy2JQ7rmZO0OlwAFs8NZMx8Qw1ihvdgiDJPlDD3XxZBx6JrvQbtF0uHp0L4OGkRZsjjEi_v7hm8L1_1zmatTeO6k2JWc3-5sKDjZAyGFv2zC-nBEvDzhSptKdNfYJnHlRQgzLIK8Xek4vDPFL7CIfCKStZTN3JzCvjVWC0]--></g></svg>