<?xml version="1.0" encoding="us-ascii" standalone="no"?><svg xmlns="http://www.w3.org/2000/svg" xmlns:xlink="http://www.w3.org/1999/xlink" contentStyleType="text/css" height="651px" preserveAspectRatio="none" style="width:640px;height:651px;background:#FFFFFF;" version="1.1" viewBox="0 0 640 651" width="640px" zoomAndPan="magnify"><defs/><g><text fill="#000000" font-family="sans-serif" font-size="14" font-weight="bold" lengthAdjust="spacing" textLength="295" x="173.5" y="28.5352">US010 - System Sequence Diagram (SSD)</text><rect fill="#FFFFFF" height="432.3027" style="stroke:#181818;stroke-width:1.0;" width="10" x="48" y="128.9766"/><rect fill="#FFFFFF" height="29.3105" style="stroke:#181818;stroke-width:1.0;" width="10" x="575" y="150.2871"/><rect fill="#FFFFFF" height="29.3105" style="stroke:#181818;stroke-width:1.0;" width="10" x="575" y="208.9082"/><rect fill="#FFFFFF" height="138.5527" style="stroke:#181818;stroke-width:1.0;" width="10" x="575" y="267.5293"/><rect fill="#FFFFFF" height="51.2656" style="stroke:#181818;stroke-width:1.0;" width="10" x="575" y="435.3926"/><rect fill="#FFFFFF" height="29.3105" style="stroke:#181818;stroke-width:1.0;" width="10" x="575" y="522.9688"/><rect fill="none" height="46.6211" style="stroke:#000000;stroke-width:1.5;" width="603" x="20" y="282.5293"/><rect fill="none" height="151.5078" style="stroke:#000000;stroke-width:1.5;" width="623" x="10" y="343.1504"/><rect fill="none" height="75.9316" style="stroke:#000000;stroke-width:1.5;" width="603" x="20" y="367.4609"/><line style="stroke:#181818;stroke-width:0.5;stroke-dasharray:5.0,5.0;" x1="53" x2="53" y1="118.9766" y2="570.2793"/><line style="stroke:#181818;stroke-width:0.5;stroke-dasharray:5.0,5.0;" x1="580" x2="580" y1="118.9766" y2="570.2793"/><text fill="#000000" font-family="sans-serif" font-size="14" lengthAdjust="spacing" textLength="40" x="30" y="116.0234">Client</text><ellipse cx="53" cy="50.9883" fill="#E3E3E3" rx="8" ry="8" style="stroke:#181818;stroke-width:0.5;"/><path d="M53,58.9883 L53,85.9883 M40,66.9883 L66,66.9883 M53,85.9883 L40,100.9883 M53,85.9883 L66,100.9883 " fill="none" style="stroke:#181818;stroke-width:0.5;"/><text fill="#000000" font-family="sans-serif" font-size="14" lengthAdjust="spacing" textLength="40" x="30" y="582.8145">Client</text><ellipse cx="53" cy="594.2676" fill="#E3E3E3" rx="8" ry="8" style="stroke:#181818;stroke-width:0.5;"/><path d="M53,602.2676 L53,629.2676 M40,610.2676 L66,610.2676 M53,629.2676 L40,644.2676 M53,629.2676 L66,644.2676 " fill="none" style="stroke:#181818;stroke-width:0.5;"/><rect fill="#E3E3E3" height="30.4883" rx="2.5" ry="2.5" style="stroke:#181818;stroke-width:0.5;" width="66" x="547" y="87.4883"/><text fill="#000000" font-family="sans-serif" font-size="14" lengthAdjust="spacing" textLength="52" x="554" y="108.0234">:System</text><rect fill="#E3E3E3" height="30.4883" rx="2.5" ry="2.5" style="stroke:#181818;stroke-width:0.5;" width="66" x="547" y="569.2793"/><text fill="#000000" font-family="sans-serif" font-size="14" lengthAdjust="spacing" textLength="52" x="554" y="589.8145">:System</text><rect fill="#FFFFFF" height="432.3027" style="stroke:#181818;stroke-width:1.0;" width="10" x="48" y="128.9766"/><rect fill="#FFFFFF" height="29.3105" style="stroke:#181818;stroke-width:1.0;" width="10" x="575" y="150.2871"/><rect fill="#FFFFFF" height="29.3105" style="stroke:#181818;stroke-width:1.0;" width="10" x="575" y="208.9082"/><rect fill="#FFFFFF" height="138.5527" style="stroke:#181818;stroke-width:1.0;" width="10" x="575" y="267.5293"/><rect fill="#FFFFFF" height="51.2656" style="stroke:#181818;stroke-width:1.0;" width="10" x="575" y="435.3926"/><rect fill="#FFFFFF" height="29.3105" style="stroke:#181818;stroke-width:1.0;" width="10" x="575" y="522.9688"/><polygon fill="#181818" points="563,146.2871,573,150.2871,563,154.2871,567,150.2871" style="stroke:#181818;stroke-width:1.0;"/><line style="stroke:#181818;stroke-width:1.0;" x1="58" x2="569" y1="150.2871" y2="150.2871"/><text fill="#000000" font-family="sans-serif" font-size="13" font-weight="bold" lengthAdjust="spacing" textLength="9" x="65" y="145.5449">1</text><text fill="#000000" font-family="sans-serif" font-size="13" lengthAdjust="spacing" textLength="224" x="78" y="145.5449">asks to place an offer on a property</text><polygon fill="#181818" points="69,175.5977,59,179.5977,69,183.5977,65,179.5977" style="stroke:#181818;stroke-width:1.0;"/><line style="stroke:#181818;stroke-width:1.0;stroke-dasharray:2.0,2.0;" x1="63" x2="579" y1="179.5977" y2="179.5977"/><text fill="#000000" font-family="sans-serif" font-size="13" font-weight="bold" lengthAdjust="spacing" textLength="9" x="75" y="174.8555">2</text><text fill="#000000" font-family="sans-serif" font-size="13" lengthAdjust="spacing" textLength="173" x="88" y="174.8555">shows the list of properties</text><polygon fill="#181818" points="563,204.9082,573,208.9082,563,212.9082,567,208.9082" style="stroke:#181818;stroke-width:1.0;"/><line style="stroke:#181818;stroke-width:1.0;" x1="58" x2="569" y1="208.9082" y2="208.9082"/><text fill="#000000" font-family="sans-serif" font-size="13" font-weight="bold" lengthAdjust="spacing" textLength="9" x="65" y="204.166">3</text><text fill="#000000" font-family="sans-serif" font-size="13" lengthAdjust="spacing" textLength="175" x="78" y="204.166">selects the desired property</text><polygon fill="#181818" points="69,234.2188,59,238.2188,69,242.2188,65,238.2188" style="stroke:#181818;stroke-width:1.0;"/><line style="stroke:#181818;stroke-width:1.0;stroke-dasharray:2.0,2.0;" x1="63" x2="579" y1="238.2188" y2="238.2188"/><text fill="#000000" font-family="sans-serif" font-size="13" font-weight="bold" lengthAdjust="spacing" textLength="9" x="75" y="233.4766">4</text><text fill="#000000" font-family="sans-serif" font-size="13" lengthAdjust="spacing" textLength="157" x="88" y="233.4766">request the offer amount</text><polygon fill="#181818" points="563,263.5293,573,267.5293,563,271.5293,567,267.5293" style="stroke:#181818;stroke-width:1.0;"/><line style="stroke:#181818;stroke-width:1.0;" x1="58" x2="569" y1="267.5293" y2="267.5293"/><text fill="#000000" font-family="sans-serif" font-size="13" font-weight="bold" lengthAdjust="spacing" textLength="9" x="65" y="262.7871">5</text><text fill="#000000" font-family="sans-serif" font-size="13" lengthAdjust="spacing" textLength="444" x="78" y="262.7871">places an offer to purchase a property by submitting the order amount</text><path d="M20,282.5293 L87,282.5293 L87,289.8398 L77,299.8398 L20,299.8398 L20,282.5293 " fill="#EEEEEE" style="stroke:#000000;stroke-width:1.5;"/><rect fill="none" height="46.6211" style="stroke:#000000;stroke-width:1.5;" width="603" x="20" y="282.5293"/><text fill="#000000" font-family="sans-serif" font-size="13" font-weight="bold" lengthAdjust="spacing" textLength="22" x="35" y="296.0977">opt</text><text fill="#000000" font-family="sans-serif" font-size="11" font-weight="bold" lengthAdjust="spacing" textLength="154" x="102" y="295.1641">[if there is a pending offer]</text><polygon fill="#181818" points="69,317.1504,59,321.1504,69,325.1504,65,321.1504" style="stroke:#181818;stroke-width:1.0;"/><line style="stroke:#181818;stroke-width:1.0;stroke-dasharray:2.0,2.0;" x1="63" x2="574" y1="321.1504" y2="321.1504"/><text fill="#000000" font-family="sans-serif" font-size="13" font-weight="bold" lengthAdjust="spacing" textLength="9" x="75" y="316.4082">6</text><text fill="#000000" font-family="sans-serif" font-size="13" lengthAdjust="spacing" textLength="480" x="88" y="316.4082">asks the user to wait until the pending request is either accepted or rejected</text><path d="M10,343.1504 L72,343.1504 L72,350.4609 L62,360.4609 L10,360.4609 L10,343.1504 " fill="#EEEEEE" style="stroke:#000000;stroke-width:1.5;"/><rect fill="none" height="151.5078" style="stroke:#000000;stroke-width:1.5;" width="623" x="10" y="343.1504"/><text fill="#000000" font-family="sans-serif" font-size="13" font-weight="bold" lengthAdjust="spacing" textLength="17" x="25" y="356.7188">alt</text><text fill="#000000" font-family="sans-serif" font-size="11" font-weight="bold" lengthAdjust="spacing" textLength="147" x="87" y="355.7852">[offer amount is superior]</text><path d="M20,367.4609 L94,367.4609 L94,374.7715 L84,384.7715 L20,384.7715 L20,367.4609 " fill="#EEEEEE" style="stroke:#000000;stroke-width:1.5;"/><rect fill="none" height="75.9316" style="stroke:#000000;stroke-width:1.5;" width="603" x="20" y="367.4609"/><text fill="#000000" font-family="sans-serif" font-size="13" font-weight="bold" lengthAdjust="spacing" textLength="29" x="35" y="381.0293">loop</text><text fill="#000000" font-family="sans-serif" font-size="11" font-weight="bold" lengthAdjust="spacing" textLength="356" x="109" y="380.0957">[if the offer amount is higher than the owner's requested price]</text><polygon fill="#181818" points="69,402.082,59,406.082,69,410.082,65,406.082" style="stroke:#181818;stroke-width:1.0;"/><line style="stroke:#181818;stroke-width:1.0;stroke-dasharray:2.0,2.0;" x1="63" x2="579" y1="406.082" y2="406.082"/><text fill="#000000" font-family="sans-serif" font-size="13" font-weight="bold" lengthAdjust="spacing" textLength="9" x="75" y="401.3398">7</text><text fill="#000000" font-family="sans-serif" font-size="13" lengthAdjust="spacing" textLength="126" x="88" y="401.3398">asks for a new price</text><polygon fill="#181818" points="563,431.3926,573,435.3926,563,439.3926,567,435.3926" style="stroke:#181818;stroke-width:1.0;"/><line style="stroke:#181818;stroke-width:1.0;" x1="58" x2="569" y1="435.3926" y2="435.3926"/><text fill="#000000" font-family="sans-serif" font-size="13" font-weight="bold" lengthAdjust="spacing" textLength="9" x="65" y="430.6504">8</text><text fill="#000000" font-family="sans-serif" font-size="13" lengthAdjust="spacing" textLength="306" x="78" y="430.6504">places a new order with an inferior order amount</text><line style="stroke:#000000;stroke-width:1.0;stroke-dasharray:2.0,2.0;" x1="10" x2="633" y1="451.3926" y2="451.3926"/><text fill="#000000" font-family="sans-serif" font-size="11" font-weight="bold" lengthAdjust="spacing" textLength="143" x="15" y="462.0273">[offer amount is inferior]</text><polygon fill="#181818" points="69,482.6582,59,486.6582,69,490.6582,65,486.6582" style="stroke:#181818;stroke-width:1.0;"/><line style="stroke:#181818;stroke-width:1.0;stroke-dasharray:2.0,2.0;" x1="63" x2="579" y1="486.6582" y2="486.6582"/><text fill="#000000" font-family="sans-serif" font-size="13" font-weight="bold" lengthAdjust="spacing" textLength="9" x="75" y="481.916">9</text><text fill="#000000" font-family="sans-serif" font-size="13" lengthAdjust="spacing" textLength="184" x="88" y="481.916">accepts the purchase request</text><polygon fill="#181818" points="563,518.9688,573,522.9688,563,526.9688,567,522.9688" style="stroke:#181818;stroke-width:1.0;"/><line style="stroke:#181818;stroke-width:1.0;" x1="58" x2="569" y1="522.9688" y2="522.9688"/><text fill="#000000" font-family="sans-serif" font-size="13" font-weight="bold" lengthAdjust="spacing" textLength="18" x="65" y="518.2266">10</text><text fill="#000000" font-family="sans-serif" font-size="13" lengthAdjust="spacing" textLength="82" x="87" y="518.2266">submits data</text><polygon fill="#181818" points="69,548.2793,59,552.2793,69,556.2793,65,552.2793" style="stroke:#181818;stroke-width:1.0;"/><line style="stroke:#181818;stroke-width:1.0;stroke-dasharray:2.0,2.0;" x1="63" x2="579" y1="552.2793" y2="552.2793"/><text fill="#000000" font-family="sans-serif" font-size="13" font-weight="bold" lengthAdjust="spacing" textLength="18" x="75" y="547.5371">11</text><text fill="#000000" font-family="sans-serif" font-size="13" lengthAdjust="spacing" textLength="163" x="97" y="547.5371">displays operation sucess</text><!--SRC=[bLD1Sjim3Bph5HXVqXuyarvzwANvWQOFW2L8GYsH2W5Lezy792rR6Qj9geiv9dONs2Namcx4W0CCtlcg2tuWq31H8RUR4QiBjbJgqXC4gXHTssyBfCFQp-nQQB0NAWfbjTBVvVEFPpX2kOZI02MzJkGgWXV6DiA-bUNBzwB0IRsRXZC5ErVg0nn-zKnE3u02-LYOa7B58pg5moapfljyJ4Z-YqeheCY_SFovwf-i_2AW7iOUhGrqu9k60dW726Fm8mLTxaGhynL-DAOhvyaczhDHTGGzYnhFYcUIegO7ZfrcX7gpCfFK91oe_iycGZJKr2D3dWG7FzdiNsiWkI1t6w8nKwWw5Dhu0US5P3eFh1e3JbgXlcizA85zVbJW9XO70fP8HwwE-2ILY-AtDrPEoNGcoLtDo0gcnNtwUwLQnpT-uYW5M5KqglbeRoZG7xENwgnba7p0Njzv5T4osQJiDstrte_N0HwgEswZbdPcNBgV7OKdMTj9AN95Tx8FvsoiLGH7ynMr1Ut4kBt-8D94c6EQpPgOCRic3Va-lItVFyLkvf4jzuCVA_4deQPeSgwtLtQrhFXauAI_jq7fMGhKgFYrZQbPpA958BvjLBRDbyaSsztPuWq0]--></g></svg>