<?xml version="1.0" encoding="UTF-8" standalone="no"?><svg xmlns="http://www.w3.org/2000/svg" xmlns:xlink="http://www.w3.org/1999/xlink" contentStyleType="text/css" height="1440px" preserveAspectRatio="none" style="width:4393px;height:1440px;background:#FFFFFF;" version="1.1" viewBox="0 0 4393 1440" width="4393px" zoomAndPan="magnify"><defs/><g><text fill="#000000" font-family="sans-serif" font-size="14" font-weight="bold" lengthAdjust="spacing" textLength="215" x="2088.25" y="29.5332">US09 - Sequence Diagram Split</text><rect fill="#FFFFFF" height="1203.4688" style="stroke:#181818;stroke-width:1.0;" width="10" x="27.5" y="138.7656"/><rect fill="#FFFFFF" height="489.3438" style="stroke:#181818;stroke-width:1.0;" width="10" x="728.5" y="169.9219"/><rect fill="#FFFFFF" height="64.3125" style="stroke:#181818;stroke-width:1.0;" width="10" x="728.5" y="698.4219"/><rect fill="#FFFFFF" height="531.3438" style="stroke:#181818;stroke-width:1.0;" width="10" x="728.5" y="801.8906"/><rect fill="#FFFFFF" height="360.875" style="stroke:#181818;stroke-width:1.0;" width="10" x="1492.5" y="259.2344"/><rect fill="#FFFFFF" height="501.1875" style="stroke:#181818;stroke-width:1.0;" width="10" x="1492.5" y="841.0469"/><rect fill="#FFFFFF" height="454.0313" style="stroke:#181818;stroke-width:1.0;" width="10" x="1497.5" y="888.2031"/><rect fill="#FFFFFF" height="154.7813" style="stroke:#181818;stroke-width:1.0;" width="10" x="4172" y="1100.1406"/><line style="stroke:#181818;stroke-width:0.5;stroke-dasharray:5.0,5.0;" x1="32" x2="32" y1="128.7656" y2="1351.2344"/><line style="stroke:#181818;stroke-width:0.5;stroke-dasharray:5.0,5.0;" x1="733" x2="733" y1="128.7656" y2="1351.2344"/><line style="stroke:#181818;stroke-width:0.5;stroke-dasharray:5.0,5.0;" x1="1497" x2="1497" y1="213" y2="1351.2344"/><line style="stroke:#181818;stroke-width:0.5;stroke-dasharray:5.0,5.0;" x1="2002.5" x2="2002.5" y1="128.7656" y2="1351.2344"/><line style="stroke:#181818;stroke-width:0.5;stroke-dasharray:5.0,5.0;" x1="2142.5" x2="2142.5" y1="128.7656" y2="1351.2344"/><line style="stroke:#181818;stroke-width:0.5;stroke-dasharray:5.0,5.0;" x1="2309.5" x2="2309.5" y1="128.7656" y2="1351.2344"/><line style="stroke:#181818;stroke-width:0.5;stroke-dasharray:5.0,5.0;" x1="2503.5" x2="2503.5" y1="128.7656" y2="1351.2344"/><line style="stroke:#181818;stroke-width:0.5;stroke-dasharray:5.0,5.0;" x1="2677.5" x2="2677.5" y1="128.7656" y2="1351.2344"/><line style="stroke:#181818;stroke-width:0.5;stroke-dasharray:5.0,5.0;" x1="2841.5" x2="2841.5" y1="128.7656" y2="1351.2344"/><line style="stroke:#181818;stroke-width:0.5;stroke-dasharray:5.0,5.0;" x1="3096.5" x2="3096.5" y1="128.7656" y2="1351.2344"/><line style="stroke:#181818;stroke-width:0.5;stroke-dasharray:5.0,5.0;" x1="3354.5" x2="3354.5" y1="128.7656" y2="1351.2344"/><line style="stroke:#181818;stroke-width:0.5;stroke-dasharray:5.0,5.0;" x1="3621.5" x2="3621.5" y1="128.7656" y2="1351.2344"/><line style="stroke:#181818;stroke-width:0.5;stroke-dasharray:5.0,5.0;" x1="3935.5" x2="3935.5" y1="128.7656" y2="1351.2344"/><line style="stroke:#181818;stroke-width:0.5;stroke-dasharray:5.0,5.0;" x1="4176.5" x2="4176.5" y1="128.7656" y2="1351.2344"/><line style="stroke:#181818;stroke-width:0.5;stroke-dasharray:5.0,5.0;" x1="4337.5" x2="4337.5" y1="128.7656" y2="1351.2344"/><text fill="#000000" font-family="sans-serif" font-size="20" lengthAdjust="spacing" textLength="49" x="5" y="124.3711">Client</text><ellipse cx="32.5" cy="52.1094" fill="#E3E3E3" rx="8" ry="8" style="stroke:#181818;stroke-width:0.5;"/><path d="M32.5,60.1094 L32.5,87.1094 M19.5,68.1094 L45.5,68.1094 M32.5,87.1094 L19.5,102.1094 M32.5,87.1094 L45.5,102.1094 " fill="none" style="stroke:#181818;stroke-width:0.5;"/><text fill="#000000" font-family="sans-serif" font-size="20" lengthAdjust="spacing" textLength="49" x="5" y="1370.9961">Client</text><ellipse cx="32.5" cy="1383.8906" fill="#E3E3E3" rx="8" ry="8" style="stroke:#181818;stroke-width:0.5;"/><path d="M32.5,1391.8906 L32.5,1418.8906 M19.5,1399.8906 L45.5,1399.8906 M32.5,1418.8906 L19.5,1433.8906 M32.5,1418.8906 L45.5,1433.8906 " fill="none" style="stroke:#181818;stroke-width:0.5;"/><rect fill="#E3E3E3" height="39.1563" rx="2.5" ry="2.5" style="stroke:#181818;stroke-width:0.5;" width="165" x="651" y="88.6094"/><text fill="#000000" font-family="sans-serif" font-size="20" lengthAdjust="spacing" textLength="151" x="658" y="116.3711">:SendMessageUI</text><rect fill="#E3E3E3" height="39.1563" rx="2.5" ry="2.5" style="stroke:#181818;stroke-width:0.5;" width="165" x="651" y="1350.2344"/><text fill="#000000" font-family="sans-serif" font-size="20" lengthAdjust="spacing" textLength="151" x="658" y="1377.9961">:SendMessageUI</text><rect fill="#E3E3E3" height="39.1563" rx="2.5" ry="2.5" style="stroke:#181818;stroke-width:0.5;" width="231" x="1382" y="1350.2344"/><text fill="#000000" font-family="sans-serif" font-size="20" lengthAdjust="spacing" textLength="217" x="1389" y="1377.9961">:SendMessageController</text><rect fill="#E3E3E3" height="39.1563" rx="2.5" ry="2.5" style="stroke:#181818;stroke-width:0.5;" width="130" x="1937.5" y="88.6094"/><text fill="#000000" font-family="sans-serif" font-size="20" lengthAdjust="spacing" textLength="116" x="1944.5" y="116.3711">:Repositories</text><rect fill="#E3E3E3" height="39.1563" rx="2.5" ry="2.5" style="stroke:#181818;stroke-width:0.5;" width="130" x="1937.5" y="1350.2344"/><text fill="#000000" font-family="sans-serif" font-size="20" lengthAdjust="spacing" textLength="116" x="1944.5" y="1377.9961">:Repositories</text><rect fill="#E3E3E3" height="64.3125" rx="2.5" ry="2.5" style="stroke:#181818;stroke-width:0.5;" width="130" x="2077.5" y="63.4531"/><text fill="#000000" font-family="sans-serif" font-size="20" lengthAdjust="spacing" textLength="103" x="2091" y="91.2148">repositories</text><text fill="#000000" font-family="sans-serif" font-size="20" lengthAdjust="spacing" textLength="116" x="2084.5" y="116.3711">:Repositories</text><rect fill="#E3E3E3" height="64.3125" rx="2.5" ry="2.5" style="stroke:#181818;stroke-width:0.5;" width="130" x="2077.5" y="1350.2344"/><text fill="#000000" font-family="sans-serif" font-size="20" lengthAdjust="spacing" textLength="103" x="2091" y="1377.9961">repositories</text><text fill="#000000" font-family="sans-serif" font-size="20" lengthAdjust="spacing" textLength="116" x="2084.5" y="1403.1523">:Repositories</text><rect fill="#E3E3E3" height="64.3125" rx="2.5" ry="2.5" style="stroke:#181818;stroke-width:0.5;" width="184" x="2217.5" y="63.4531"/><text fill="#000000" font-family="sans-serif" font-size="20" lengthAdjust="spacing" textLength="102" x="2258.5" y="91.2148">appSession</text><text fill="#000000" font-family="sans-serif" font-size="20" lengthAdjust="spacing" textLength="170" x="2224.5" y="116.3711">:ApplicationSession</text><rect fill="#E3E3E3" height="64.3125" rx="2.5" ry="2.5" style="stroke:#181818;stroke-width:0.5;" width="184" x="2217.5" y="1350.2344"/><text fill="#000000" font-family="sans-serif" font-size="20" lengthAdjust="spacing" textLength="102" x="2258.5" y="1377.9961">appSession</text><text fill="#000000" font-family="sans-serif" font-size="20" lengthAdjust="spacing" textLength="170" x="2224.5" y="1403.1523">:ApplicationSession</text><rect fill="#E3E3E3" height="64.3125" rx="2.5" ry="2.5" style="stroke:#181818;stroke-width:0.5;" width="184" x="2411.5" y="63.4531"/><text fill="#000000" font-family="sans-serif" font-size="20" lengthAdjust="spacing" textLength="102" x="2452.5" y="91.2148">appSession</text><text fill="#000000" font-family="sans-serif" font-size="20" lengthAdjust="spacing" textLength="170" x="2418.5" y="116.3711">:ApplicationSession</text><rect fill="#E3E3E3" height="64.3125" rx="2.5" ry="2.5" style="stroke:#181818;stroke-width:0.5;" width="184" x="2411.5" y="1350.2344"/><text fill="#000000" font-family="sans-serif" font-size="20" lengthAdjust="spacing" textLength="102" x="2452.5" y="1377.9961">appSession</text><text fill="#000000" font-family="sans-serif" font-size="20" lengthAdjust="spacing" textLength="170" x="2418.5" y="1403.1523">:ApplicationSession</text><rect fill="#E3E3E3" height="64.3125" rx="2.5" ry="2.5" style="stroke:#181818;stroke-width:0.5;" width="144" x="2605.5" y="63.4531"/><text fill="#000000" font-family="sans-serif" font-size="20" lengthAdjust="spacing" textLength="130" x="2612.5" y="91.2148">currentSession</text><text fill="#000000" font-family="sans-serif" font-size="20" lengthAdjust="spacing" textLength="116" x="2619.5" y="116.3711">:UserSession</text><rect fill="#E3E3E3" height="64.3125" rx="2.5" ry="2.5" style="stroke:#181818;stroke-width:0.5;" width="144" x="2605.5" y="1350.2344"/><text fill="#000000" font-family="sans-serif" font-size="20" lengthAdjust="spacing" textLength="130" x="2612.5" y="1377.9961">currentSession</text><text fill="#000000" font-family="sans-serif" font-size="20" lengthAdjust="spacing" textLength="116" x="2619.5" y="1403.1523">:UserSession</text><rect fill="#E3E3E3" height="64.3125" rx="2.5" ry="2.5" style="stroke:#181818;stroke-width:0.5;" width="164" x="2759.5" y="63.4531"/><text fill="#000000" font-family="sans-serif" font-size="20" lengthAdjust="spacing" textLength="140" x="2771.5" y="91.2148">clientRepository</text><text fill="#000000" font-family="sans-serif" font-size="20" lengthAdjust="spacing" textLength="150" x="2766.5" y="116.3711">:ClientRepository</text><rect fill="#E3E3E3" height="64.3125" rx="2.5" ry="2.5" style="stroke:#181818;stroke-width:0.5;" width="164" x="2759.5" y="1350.2344"/><text fill="#000000" font-family="sans-serif" font-size="20" lengthAdjust="spacing" textLength="140" x="2771.5" y="1377.9961">clientRepository</text><text fill="#000000" font-family="sans-serif" font-size="20" lengthAdjust="spacing" textLength="150" x="2766.5" y="1403.1523">:ClientRepository</text><rect fill="#E3E3E3" height="64.3125" rx="2.5" ry="2.5" style="stroke:#181818;stroke-width:0.5;" width="327" x="2933.5" y="63.4531"/><text fill="#000000" font-family="sans-serif" font-size="20" lengthAdjust="spacing" textLength="305" x="2944.5" y="91.2148">publishedAnnouncementRepository</text><text fill="#000000" font-family="sans-serif" font-size="20" lengthAdjust="spacing" textLength="313" x="2940.5" y="116.3711">:PublishedAnnouncementRepository</text><rect fill="#E3E3E3" height="64.3125" rx="2.5" ry="2.5" style="stroke:#181818;stroke-width:0.5;" width="327" x="2933.5" y="1350.2344"/><text fill="#000000" font-family="sans-serif" font-size="20" lengthAdjust="spacing" textLength="305" x="2944.5" y="1377.9961">publishedAnnouncementRepository</text><text fill="#000000" font-family="sans-serif" font-size="20" lengthAdjust="spacing" textLength="313" x="2940.5" y="1403.1523">:PublishedAnnouncementRepository</text><rect fill="#E3E3E3" height="39.1563" rx="2.5" ry="2.5" style="stroke:#181818;stroke-width:0.5;" width="169" x="3270.5" y="88.6094"/><text fill="#000000" font-family="sans-serif" font-size="20" lengthAdjust="spacing" textLength="155" x="3277.5" y="116.3711">:MessageMapper</text><rect fill="#E3E3E3" height="39.1563" rx="2.5" ry="2.5" style="stroke:#181818;stroke-width:0.5;" width="169" x="3270.5" y="1350.2344"/><text fill="#000000" font-family="sans-serif" font-size="20" lengthAdjust="spacing" textLength="155" x="3277.5" y="1377.9961">:MessageMapper</text><rect fill="#E3E3E3" height="39.1563" rx="2.5" ry="2.5" style="stroke:#181818;stroke-width:0.5;" width="345" x="3449.5" y="88.6094"/><text fill="#000000" font-family="sans-serif" font-size="20" lengthAdjust="spacing" textLength="331" x="3456.5" y="116.3711">listOfPropertiesDTO:List&lt;Properties&gt;</text><rect fill="#E3E3E3" height="39.1563" rx="2.5" ry="2.5" style="stroke:#181818;stroke-width:0.5;" width="345" x="3449.5" y="1350.2344"/><text fill="#000000" font-family="sans-serif" font-size="20" lengthAdjust="spacing" textLength="331" x="3456.5" y="1377.9961">listOfPropertiesDTO:List&lt;Properties&gt;</text><rect fill="#E3E3E3" height="39.1563" rx="2.5" ry="2.5" style="stroke:#181818;stroke-width:0.5;" width="262" x="3804.5" y="88.6094"/><text fill="#000000" font-family="sans-serif" font-size="20" lengthAdjust="spacing" textLength="248" x="3811.5" y="116.3711">propertiesDto:PropertiesDto</text><rect fill="#E3E3E3" height="39.1563" rx="2.5" ry="2.5" style="stroke:#181818;stroke-width:0.5;" width="262" x="3804.5" y="1350.2344"/><text fill="#000000" font-family="sans-serif" font-size="20" lengthAdjust="spacing" textLength="248" x="3811.5" y="1377.9961">propertiesDto:PropertiesDto</text><rect fill="#E3E3E3" height="64.3125" rx="2.5" ry="2.5" style="stroke:#181818;stroke-width:0.5;" width="201" x="4076.5" y="63.4531"/><text fill="#000000" font-family="sans-serif" font-size="20" lengthAdjust="spacing" textLength="181" x="4083.5" y="91.2148">messageRepository:</text><text fill="#000000" font-family="sans-serif" font-size="20" lengthAdjust="spacing" textLength="182" x="4086" y="116.3711">Message Repository</text><rect fill="#E3E3E3" height="64.3125" rx="2.5" ry="2.5" style="stroke:#181818;stroke-width:0.5;" width="201" x="4076.5" y="1350.2344"/><text fill="#000000" font-family="sans-serif" font-size="20" lengthAdjust="spacing" textLength="181" x="4083.5" y="1377.9961">messageRepository:</text><text fill="#000000" font-family="sans-serif" font-size="20" lengthAdjust="spacing" textLength="182" x="4086" y="1403.1523">Message Repository</text><rect fill="#E3E3E3" height="64.3125" rx="2.5" ry="2.5" style="stroke:#181818;stroke-width:0.5;" width="100" x="4287.5" y="63.4531"/><text fill="#000000" font-family="sans-serif" font-size="20" lengthAdjust="spacing" textLength="86" x="4294.5" y="91.2148">message:</text><text fill="#000000" font-family="sans-serif" font-size="20" lengthAdjust="spacing" textLength="81" x="4297" y="116.3711">Message</text><rect fill="#E3E3E3" height="64.3125" rx="2.5" ry="2.5" style="stroke:#181818;stroke-width:0.5;" width="100" x="4287.5" y="1350.2344"/><text fill="#000000" font-family="sans-serif" font-size="20" lengthAdjust="spacing" textLength="86" x="4294.5" y="1377.9961">message:</text><text fill="#000000" font-family="sans-serif" font-size="20" lengthAdjust="spacing" textLength="81" x="4297" y="1403.1523">Message</text><rect fill="#FFFFFF" height="1203.4688" style="stroke:#181818;stroke-width:1.0;" width="10" x="27.5" y="138.7656"/><rect fill="#FFFFFF" height="489.3438" style="stroke:#181818;stroke-width:1.0;" width="10" x="728.5" y="169.9219"/><rect fill="#FFFFFF" height="64.3125" style="stroke:#181818;stroke-width:1.0;" width="10" x="728.5" y="698.4219"/><rect fill="#FFFFFF" height="531.3438" style="stroke:#181818;stroke-width:1.0;" width="10" x="728.5" y="801.8906"/><rect fill="#FFFFFF" height="360.875" style="stroke:#181818;stroke-width:1.0;" width="10" x="1492.5" y="259.2344"/><rect fill="#FFFFFF" height="501.1875" style="stroke:#181818;stroke-width:1.0;" width="10" x="1492.5" y="841.0469"/><rect fill="#FFFFFF" height="454.0313" style="stroke:#181818;stroke-width:1.0;" width="10" x="1497.5" y="888.2031"/><rect fill="#FFFFFF" height="154.7813" style="stroke:#181818;stroke-width:1.0;" width="10" x="4172" y="1100.1406"/><polygon fill="#181818" points="716.5,165.9219,726.5,169.9219,716.5,173.9219,720.5,169.9219" style="stroke:#181818;stroke-width:1.0;"/><line style="stroke:#181818;stroke-width:1.0;" x1="37.5" x2="722.5" y1="169.9219" y2="169.9219"/><text fill="#000000" font-family="sans-serif" font-size="20" font-weight="bold" lengthAdjust="spacing" textLength="11" x="44.5" y="163.5273">1</text><text fill="#000000" font-family="sans-serif" font-size="20" lengthAdjust="spacing" textLength="203" x="59.5" y="163.5273">asks to schedule a visit</text><polygon fill="#181818" points="1370,205.0781,1380,209.0781,1370,213.0781,1374,209.0781" style="stroke:#181818;stroke-width:1.0;"/><line style="stroke:#181818;stroke-width:1.0;" x1="738.5" x2="1376" y1="209.0781" y2="209.0781"/><text fill="#000000" font-family="sans-serif" font-size="20" font-weight="bold" lengthAdjust="spacing" textLength="11" x="745.5" y="202.6836">2</text><text fill="#000000" font-family="sans-serif" font-size="20" lengthAdjust="spacing" textLength="56" x="760.5" y="202.6836">create</text><rect fill="#E3E3E3" height="39.1563" rx="2.5" ry="2.5" style="stroke:#181818;stroke-width:0.5;" width="231" x="1382" y="177.9219"/><text fill="#000000" font-family="sans-serif" font-size="20" lengthAdjust="spacing" textLength="217" x="1389" y="205.6836">:SendMessageController</text><polygon fill="#181818" points="1480.5,255.2344,1490.5,259.2344,1480.5,263.2344,1484.5,259.2344" style="stroke:#181818;stroke-width:1.0;"/><line style="stroke:#181818;stroke-width:1.0;" x1="738.5" x2="1486.5" y1="259.2344" y2="259.2344"/><text fill="#000000" font-family="sans-serif" font-size="20" font-weight="bold" lengthAdjust="spacing" textLength="11" x="745.5" y="252.8398">3</text><text fill="#000000" font-family="sans-serif" font-size="20" lengthAdjust="spacing" textLength="186" x="760.5" y="252.8398">getListOfProperties()</text><rect fill="none" height="85.4688" style="stroke:#000000;stroke-width:1.5;" width="237" x="1379" y="267.2344"/><path d="M1379,267.2344 L1450,267.2344 L1450,284.2344 L1440,294.2344 L1379,294.2344 L1379,267.2344 " fill="#EEEEEE" style="stroke:#000000;stroke-width:2.0;"/><text fill="#000000" font-family="sans-serif" font-size="20" font-weight="bold" lengthAdjust="spacing" textLength="26" x="1392" y="289.9961">ref</text><text fill="#000000" font-family="sans-serif" font-size="20" lengthAdjust="spacing" textLength="171" x="1412" y="318.9961">Get Client By Email</text><text fill="#000000" font-family="sans-serif" font-size="20" lengthAdjust="spacing" textLength="6" x="1494.5" y="344.1523"> </text><rect fill="none" height="110.625" style="stroke:#000000;stroke-width:1.5;" width="383" x="1379" y="357.7031"/><path d="M1379,357.7031 L1450,357.7031 L1450,374.7031 L1440,384.7031 L1379,384.7031 L1379,357.7031 " fill="#EEEEEE" style="stroke:#000000;stroke-width:2.0;"/><text fill="#000000" font-family="sans-serif" font-size="20" font-weight="bold" lengthAdjust="spacing" textLength="26" x="1392" y="380.4648">ref</text><text fill="#000000" font-family="sans-serif" font-size="20" lengthAdjust="spacing" textLength="6" x="1567.5" y="409.4648"> </text><text fill="#000000" font-family="sans-serif" font-size="20" lengthAdjust="spacing" textLength="375" x="1383" y="434.6211">Get Properties List By Most Recent added</text><text fill="#000000" font-family="sans-serif" font-size="20" lengthAdjust="spacing" textLength="6" x="1567.5" y="459.7773"> </text><rect fill="none" height="110.625" style="stroke:#000000;stroke-width:1.5;" width="487" x="1379" y="473.3281"/><path d="M1379,473.3281 L1450,473.3281 L1450,490.3281 L1440,500.3281 L1379,500.3281 L1379,473.3281 " fill="#EEEEEE" style="stroke:#000000;stroke-width:2.0;"/><text fill="#000000" font-family="sans-serif" font-size="20" font-weight="bold" lengthAdjust="spacing" textLength="26" x="1392" y="496.0898">ref</text><text fill="#000000" font-family="sans-serif" font-size="20" lengthAdjust="spacing" textLength="6" x="1619.5" y="525.0898"> </text><text fill="#000000" font-family="sans-serif" font-size="20" lengthAdjust="spacing" textLength="479" x="1383" y="550.2461">Get Properties List By Most Recent Added Using DTO</text><text fill="#000000" font-family="sans-serif" font-size="20" lengthAdjust="spacing" textLength="6" x="1619.5" y="575.4023"> </text><polygon fill="#181818" points="749.5,616.1094,739.5,620.1094,749.5,624.1094,745.5,620.1094" style="stroke:#181818;stroke-width:1.0;"/><line style="stroke:#181818;stroke-width:1.0;stroke-dasharray:2.0,2.0;" x1="743.5" x2="1496.5" y1="620.1094" y2="620.1094"/><text fill="#000000" font-family="sans-serif" font-size="20" font-weight="bold" lengthAdjust="spacing" textLength="11" x="755.5" y="613.7148">4</text><text fill="#000000" font-family="sans-serif" font-size="20" lengthAdjust="spacing" textLength="179" x="770.5" y="613.7148">listOfPropertiesDTO</text><polygon fill="#181818" points="48.5,655.2656,38.5,659.2656,48.5,663.2656,44.5,659.2656" style="stroke:#181818;stroke-width:1.0;"/><line style="stroke:#181818;stroke-width:1.0;stroke-dasharray:2.0,2.0;" x1="42.5" x2="732.5" y1="659.2656" y2="659.2656"/><text fill="#000000" font-family="sans-serif" font-size="20" font-weight="bold" lengthAdjust="spacing" textLength="11" x="54.5" y="652.8711">5</text><text fill="#000000" font-family="sans-serif" font-size="20" lengthAdjust="spacing" textLength="652" x="69.5" y="652.8711">shows a list of properties sorted from the most recent entries to the oldest</text><polygon fill="#181818" points="716.5,694.4219,726.5,698.4219,716.5,702.4219,720.5,698.4219" style="stroke:#181818;stroke-width:1.0;"/><line style="stroke:#181818;stroke-width:1.0;" x1="37.5" x2="722.5" y1="698.4219" y2="698.4219"/><text fill="#000000" font-family="sans-serif" font-size="20" font-weight="bold" lengthAdjust="spacing" textLength="11" x="44.5" y="692.0273">6</text><text fill="#000000" font-family="sans-serif" font-size="20" lengthAdjust="spacing" textLength="283" x="59.5" y="692.0273">selects a property of his interest</text><polygon fill="#181818" points="48.5,758.7344,38.5,762.7344,48.5,766.7344,44.5,762.7344" style="stroke:#181818;stroke-width:1.0;"/><line style="stroke:#181818;stroke-width:1.0;stroke-dasharray:2.0,2.0;" x1="42.5" x2="732.5" y1="762.7344" y2="762.7344"/><text fill="#000000" font-family="sans-serif" font-size="20" font-weight="bold" lengthAdjust="spacing" textLength="11" x="54.5" y="743.7617">7</text><text fill="#000000" font-family="sans-serif" font-size="20" lengthAdjust="spacing" textLength="425" x="69.5" y="731.1836">requests the name, phone number and preferred</text><text fill="#000000" font-family="sans-serif" font-size="20" lengthAdjust="spacing" textLength="541" x="69.5" y="756.3398">date and time slot (from x hour to y hour) for the property visit</text><polygon fill="#181818" points="716.5,797.8906,726.5,801.8906,716.5,805.8906,720.5,801.8906" style="stroke:#181818;stroke-width:1.0;"/><line style="stroke:#181818;stroke-width:1.0;" x1="37.5" x2="722.5" y1="801.8906" y2="801.8906"/><text fill="#000000" font-family="sans-serif" font-size="20" font-weight="bold" lengthAdjust="spacing" textLength="11" x="44.5" y="795.4961">8</text><text fill="#000000" font-family="sans-serif" font-size="20" lengthAdjust="spacing" textLength="239" x="59.5" y="795.4961">submits the requested data</text><polygon fill="#181818" points="1480.5,837.0469,1490.5,841.0469,1480.5,845.0469,1484.5,841.0469" style="stroke:#181818;stroke-width:1.0;"/><line style="stroke:#181818;stroke-width:1.0;" x1="738.5" x2="1486.5" y1="841.0469" y2="841.0469"/><text fill="#000000" font-family="sans-serif" font-size="20" font-weight="bold" lengthAdjust="spacing" textLength="11" x="745.5" y="834.6523">9</text><text fill="#000000" font-family="sans-serif" font-size="20" lengthAdjust="spacing" textLength="720" x="760.5" y="834.6523">createMessage(propertyDescription, name, phone number and date and time slot)</text><line style="stroke:#181818;stroke-width:1.0;" x1="1502.5" x2="1549.5" y1="875.2031" y2="875.2031"/><line style="stroke:#181818;stroke-width:1.0;" x1="1549.5" x2="1549.5" y1="875.2031" y2="888.2031"/><line style="stroke:#181818;stroke-width:1.0;" x1="1508.5" x2="1549.5" y1="888.2031" y2="888.2031"/><polygon fill="#181818" points="1518.5,884.2031,1508.5,888.2031,1518.5,892.2031,1514.5,888.2031" style="stroke:#181818;stroke-width:1.0;"/><text fill="#000000" font-family="sans-serif" font-size="20" font-weight="bold" lengthAdjust="spacing" textLength="22" x="1514.5" y="868.8086">10</text><text fill="#000000" font-family="sans-serif" font-size="20" lengthAdjust="spacing" textLength="455" x="1540.5" y="868.8086">getPropertyDTOByDescription(PropertyDescription)</text><rect fill="none" height="110.625" style="stroke:#000000;stroke-width:1.5;" width="319" x="1379" y="901.2031"/><path d="M1379,901.2031 L1450,901.2031 L1450,918.2031 L1440,928.2031 L1379,928.2031 L1379,901.2031 " fill="#EEEEEE" style="stroke:#000000;stroke-width:2.0;"/><text fill="#000000" font-family="sans-serif" font-size="20" font-weight="bold" lengthAdjust="spacing" textLength="26" x="1392" y="923.9648">ref</text><text fill="#000000" font-family="sans-serif" font-size="20" lengthAdjust="spacing" textLength="6" x="1535.5" y="952.9648"> </text><text fill="#000000" font-family="sans-serif" font-size="20" lengthAdjust="spacing" textLength="311" x="1383" y="978.1211">Get Properties DTO By Description</text><text fill="#000000" font-family="sans-serif" font-size="20" lengthAdjust="spacing" textLength="6" x="1535.5" y="1003.2773"> </text><line style="stroke:#181818;stroke-width:1.0;stroke-dasharray:2.0,2.0;" x1="1507.5" x2="1549.5" y1="1047.9844" y2="1047.9844"/><line style="stroke:#181818;stroke-width:1.0;stroke-dasharray:2.0,2.0;" x1="1549.5" x2="1549.5" y1="1047.9844" y2="1060.9844"/><line style="stroke:#181818;stroke-width:1.0;stroke-dasharray:2.0,2.0;" x1="1508.5" x2="1549.5" y1="1060.9844" y2="1060.9844"/><polygon fill="#181818" points="1518.5,1056.9844,1508.5,1060.9844,1518.5,1064.9844,1514.5,1060.9844" style="stroke:#181818;stroke-width:1.0;"/><text fill="#000000" font-family="sans-serif" font-size="20" font-weight="bold" lengthAdjust="spacing" textLength="22" x="1514.5" y="1041.5898">11</text><text fill="#000000" font-family="sans-serif" font-size="20" lengthAdjust="spacing" textLength="118" x="1540.5" y="1041.5898">PropertyDTO</text><polygon fill="#181818" points="4160,1096.1406,4170,1100.1406,4160,1104.1406,4164,1100.1406" style="stroke:#181818;stroke-width:1.0;"/><line style="stroke:#181818;stroke-width:1.0;" x1="1507.5" x2="4166" y1="1100.1406" y2="1100.1406"/><text fill="#000000" font-family="sans-serif" font-size="20" font-weight="bold" lengthAdjust="spacing" textLength="22" x="1514.5" y="1093.7461">12</text><text fill="#000000" font-family="sans-serif" font-size="20" lengthAdjust="spacing" textLength="720" x="1540.5" y="1093.7461">createMessage(propertyDescription, name, phone number and date and time slot)</text><rect fill="none" height="110.625" style="stroke:#000000;stroke-width:1.5;" width="207" x="4073.5" y="1108.1406"/><path d="M4073.5,1108.1406 L4144.5,1108.1406 L4144.5,1125.1406 L4134.5,1135.1406 L4073.5,1135.1406 L4073.5,1108.1406 " fill="#EEEEEE" style="stroke:#000000;stroke-width:2.0;"/><text fill="#000000" font-family="sans-serif" font-size="20" font-weight="bold" lengthAdjust="spacing" textLength="26" x="4086.5" y="1130.9023">ref</text><text fill="#000000" font-family="sans-serif" font-size="20" lengthAdjust="spacing" textLength="6" x="4174" y="1159.9023"> </text><text fill="#000000" font-family="sans-serif" font-size="20" lengthAdjust="spacing" textLength="147" x="4103.5" y="1185.0586">Create Message</text><text fill="#000000" font-family="sans-serif" font-size="20" lengthAdjust="spacing" textLength="6" x="4174" y="1210.2148"> </text><polygon fill="#181818" points="1518.5,1250.9219,1508.5,1254.9219,1518.5,1258.9219,1514.5,1254.9219" style="stroke:#181818;stroke-width:1.0;"/><line style="stroke:#181818;stroke-width:1.0;stroke-dasharray:2.0,2.0;" x1="1512.5" x2="4176" y1="1254.9219" y2="1254.9219"/><text fill="#000000" font-family="sans-serif" font-size="20" font-weight="bold" lengthAdjust="spacing" textLength="22" x="1524.5" y="1248.5273">13</text><text fill="#000000" font-family="sans-serif" font-size="20" lengthAdjust="spacing" textLength="80" x="1550.5" y="1248.5273">message</text><polygon fill="#181818" points="749.5,1290.0781,739.5,1294.0781,749.5,1298.0781,745.5,1294.0781" style="stroke:#181818;stroke-width:1.0;"/><line style="stroke:#181818;stroke-width:1.0;stroke-dasharray:2.0,2.0;" x1="743.5" x2="1496.5" y1="1294.0781" y2="1294.0781"/><text fill="#000000" font-family="sans-serif" font-size="20" font-weight="bold" lengthAdjust="spacing" textLength="22" x="755.5" y="1287.6836">14</text><text fill="#000000" font-family="sans-serif" font-size="20" lengthAdjust="spacing" textLength="80" x="781.5" y="1287.6836">message</text><polygon fill="#181818" points="48.5,1329.2344,38.5,1333.2344,48.5,1337.2344,44.5,1333.2344" style="stroke:#181818;stroke-width:1.0;"/><line style="stroke:#181818;stroke-width:1.0;stroke-dasharray:2.0,2.0;" x1="42.5" x2="732.5" y1="1333.2344" y2="1333.2344"/><text fill="#000000" font-family="sans-serif" font-size="20" font-weight="bold" lengthAdjust="spacing" textLength="22" x="54.5" y="1326.8398">15</text><text fill="#000000" font-family="sans-serif" font-size="20" lengthAdjust="spacing" textLength="466" x="80.5" y="1326.8398">shows a success message and the message created</text><!--SRC=[lLNTJzim47_FNt7YPO2eX7XRD26Liar882fAttXnaqjZDR4psm6wltvdvzD9KvWqBLBLvFoxkv_lK- -uA9XYUIQZ7SOGOyBApFoGmgpuRuIhoq0t4CYba56gP8vWL8czau95ExR5bTbd20eZmyGswmDqocBvniKM4fPf30B33K7NgyklC8CL_YfHH0Ytd6qjV5Lat0G1AuqKPRv15GHVKXuZ95AQZNmFM6IaWfD5nb6O4s0QgjU0t1aUyO890oVX2aNyW5eJj_MTWwtlfY4BkhMIMOQgilZyT3y0Fs4XDIVN7BN3j8AzZrGzu8iufdVbAxAYM14RBWMfpGkAGyGCVTL2fqoOlrUQ3vMYKYcAMAUurgZw6lPxeE9Yt74dfSL0rCl5L6oASfDndM8y5qAMbFPyQ7Hv7E5yr5O62Qep-K0HgRFeINmqwPl7PAaadHZApEtpOtXFic-TwDhPiC1EDhXDfsvakEn_ELrFuglc5RNkOY6yY9el3AuxmXuq5RRwVQN0xoIe7-eX_ieCDgtZ3gftc5rJfuHaOwV1ID0H9QEaXcNmoid_s0RrLIjStrbzspxdvn12f90GXuxfS8lcVf26qxCMwjEq_LYPKPY0V4LLoHhaJpGD_vizVCyPppglrERTXw_l6UXuW2LcBJr8-d_2o1fcSOpnFxSwjrQfuUo0f2eSsFV2uU8sg_9pe80zR8o3uC7miRcmoQYY5jASbcyqO5p5WqoWgsxGKXaYcT3y1vCYRGE2g8e__UneiwLYZsGMepPZRpwbVidKT_EAJsD6cyIogLdiBQEKQ-32e9hoSCI-VzsGsDFUqUJ2aXOinmieKYdetRKAC16JRqoG9cLClHbRirPeEEr0dKa3fouUxv3AKjdhxztR6IqgvQosrFs- -NH8XZ4fDpcl2TVixTPcXXqq_ObmL9qOLarQ3u_JXlKjwaZnmkwIYwa0ZODo5anng5juT4TNqpKJcWZBnltpuqsVm-bopEi3PuEU7FGYER2js3CN1BRb3l2RDVnwv2OlCfxi_oU-uotHGTj870Cj7CrcQVOEneE8df4bQAFKh9xfMZz6OppgkbKsKUTJaqoNKKIwZRigacdhljvESV1XO_u1]--></g></svg>