<?xml version="1.0" encoding="us-ascii" standalone="no"?><svg xmlns="http://www.w3.org/2000/svg" xmlns:xlink="http://www.w3.org/1999/xlink" contentStyleType="text/css" height="359px" preserveAspectRatio="none" style="width:701px;height:359px;background:#FFFFFF;" version="1.1" viewBox="0 0 701 359" width="701px" zoomAndPan="magnify"><defs/><g><text fill="#000000" font-family="sans-serif" font-size="14" font-weight="bold" lengthAdjust="spacing" textLength="508" x="98.25" y="27.6738">US09 - Sequence Diagram Partial (Properties List By Most Recent Added)</text><rect fill="#FFFFFF" height="202.6641" style="stroke:#181818;stroke-width:1.0;" width="10" x="100" y="97.9219"/><rect fill="#FFFFFF" height="28.5234" style="stroke:#181818;stroke-width:1.0;" width="10" x="243.5" y="141.9688"/><rect fill="#FFFFFF" height="28.5234" style="stroke:#181818;stroke-width:1.0;" width="10" x="379" y="199.0156"/><rect fill="#FFFFFF" height="28.5234" style="stroke:#181818;stroke-width:1.0;" width="10" x="559" y="256.0625"/><rect fill="none" height="187.6641" style="stroke:#000000;stroke-width:1.5;" width="685.5" x="10" y="104.9219"/><line style="stroke:#181818;stroke-width:0.5;stroke-dasharray:5.0,5.0;" x1="105" x2="105" y1="87.9219" y2="309.5859"/><line style="stroke:#181818;stroke-width:0.5;stroke-dasharray:5.0,5.0;" x1="248" x2="248" y1="87.9219" y2="309.5859"/><line style="stroke:#181818;stroke-width:0.5;stroke-dasharray:5.0,5.0;" x1="383.5" x2="383.5" y1="87.9219" y2="309.5859"/><line style="stroke:#181818;stroke-width:0.5;stroke-dasharray:5.0,5.0;" x1="563.5" x2="563.5" y1="87.9219" y2="309.5859"/><rect fill="#E3E3E3" height="29.6406" rx="2.5" ry="2.5" style="stroke:#181818;stroke-width:0.5;" width="170" x="20" y="57.2813"/><text fill="#000000" font-family="sans-serif" font-size="14" lengthAdjust="spacing" textLength="156" x="27" y="76.9551">:SendMessageController</text><rect fill="#E3E3E3" height="29.6406" rx="2.5" ry="2.5" style="stroke:#181818;stroke-width:0.5;" width="170" x="20" y="308.5859"/><text fill="#000000" font-family="sans-serif" font-size="14" lengthAdjust="spacing" textLength="156" x="27" y="328.2598">:SendMessageController</text><rect fill="#E3E3E3" height="29.6406" rx="2.5" ry="2.5" style="stroke:#181818;stroke-width:0.5;" width="97" x="200" y="57.2813"/><text fill="#000000" font-family="sans-serif" font-size="14" lengthAdjust="spacing" textLength="83" x="207" y="76.9551">:Repositories</text><rect fill="#E3E3E3" height="29.6406" rx="2.5" ry="2.5" style="stroke:#181818;stroke-width:0.5;" width="97" x="200" y="308.5859"/><text fill="#000000" font-family="sans-serif" font-size="14" lengthAdjust="spacing" textLength="83" x="207" y="328.2598">:Repositories</text><rect fill="#E3E3E3" height="45.2813" rx="2.5" ry="2.5" style="stroke:#181818;stroke-width:0.5;" width="97" x="335.5" y="41.6406"/><text fill="#000000" font-family="sans-serif" font-size="14" lengthAdjust="spacing" textLength="74" x="347" y="61.3145">repositories</text><text fill="#000000" font-family="sans-serif" font-size="14" lengthAdjust="spacing" textLength="83" x="342.5" y="76.9551">:Repositories</text><rect fill="#E3E3E3" height="45.2813" rx="2.5" ry="2.5" style="stroke:#181818;stroke-width:0.5;" width="97" x="335.5" y="308.5859"/><text fill="#000000" font-family="sans-serif" font-size="14" lengthAdjust="spacing" textLength="74" x="347" y="328.2598">repositories</text><text fill="#000000" font-family="sans-serif" font-size="14" lengthAdjust="spacing" textLength="83" x="342.5" y="343.9004">:Repositories</text><rect fill="#E3E3E3" height="45.2813" rx="2.5" ry="2.5" style="stroke:#181818;stroke-width:0.5;" width="243" x="442.5" y="41.6406"/><text fill="#000000" font-family="sans-serif" font-size="14" lengthAdjust="spacing" textLength="224" x="452" y="61.3145">publishedAnnouncementRepository</text><text fill="#000000" font-family="sans-serif" font-size="14" lengthAdjust="spacing" textLength="229" x="449.5" y="76.9551">:PublishedAnnouncementRepository</text><rect fill="#E3E3E3" height="45.2813" rx="2.5" ry="2.5" style="stroke:#181818;stroke-width:0.5;" width="243" x="442.5" y="308.5859"/><text fill="#000000" font-family="sans-serif" font-size="14" lengthAdjust="spacing" textLength="224" x="452" y="328.2598">publishedAnnouncementRepository</text><text fill="#000000" font-family="sans-serif" font-size="14" lengthAdjust="spacing" textLength="229" x="449.5" y="343.9004">:PublishedAnnouncementRepository</text><rect fill="#FFFFFF" height="202.6641" style="stroke:#181818;stroke-width:1.0;" width="10" x="100" y="97.9219"/><rect fill="#FFFFFF" height="28.5234" style="stroke:#181818;stroke-width:1.0;" width="10" x="243.5" y="141.9688"/><rect fill="#FFFFFF" height="28.5234" style="stroke:#181818;stroke-width:1.0;" width="10" x="379" y="199.0156"/><rect fill="#FFFFFF" height="28.5234" style="stroke:#181818;stroke-width:1.0;" width="10" x="559" y="256.0625"/><path d="M10,104.9219 L318,104.9219 L318,111.4453 L308,121.4453 L10,121.4453 L10,104.9219 " fill="#EEEEEE" style="stroke:#000000;stroke-width:1.5;"/><rect fill="none" height="187.6641" style="stroke:#000000;stroke-width:1.5;" width="685.5" x="10" y="104.9219"/><text fill="#000000" font-family="sans-serif" font-size="13" font-weight="bold" lengthAdjust="spacing" textLength="263" x="25" y="117.6904">Get Properties List By Most Recent Added</text><polygon fill="#181818" points="231.5,137.9688,241.5,141.9688,231.5,145.9688,235.5,141.9688" style="stroke:#181818;stroke-width:1.0;"/><line style="stroke:#181818;stroke-width:1.0;" x1="110" x2="237.5" y1="141.9688" y2="141.9688"/><text fill="#000000" font-family="sans-serif" font-size="13" font-weight="bold" lengthAdjust="spacing" textLength="14" x="117" y="137.2139">13</text><text fill="#000000" font-family="sans-serif" font-size="13" lengthAdjust="spacing" textLength="75" x="135" y="137.2139">getInstance()</text><polygon fill="#181818" points="121,166.4922,111,170.4922,121,174.4922,117,170.4922" style="stroke:#181818;stroke-width:1.0;"/><line style="stroke:#181818;stroke-width:1.0;stroke-dasharray:2.0,2.0;" x1="115" x2="247.5" y1="170.4922" y2="170.4922"/><text fill="#000000" font-family="sans-serif" font-size="13" font-weight="bold" lengthAdjust="spacing" textLength="14" x="127" y="165.7373">14</text><text fill="#000000" font-family="sans-serif" font-size="13" lengthAdjust="spacing" textLength="69" x="145" y="165.7373">Repository2</text><polygon fill="#181818" points="367,195.0156,377,199.0156,367,203.0156,371,199.0156" style="stroke:#181818;stroke-width:1.0;"/><line style="stroke:#181818;stroke-width:1.0;" x1="110" x2="373" y1="199.0156" y2="199.0156"/><text fill="#000000" font-family="sans-serif" font-size="13" font-weight="bold" lengthAdjust="spacing" textLength="14" x="117" y="194.2607">15</text><text fill="#000000" font-family="sans-serif" font-size="13" lengthAdjust="spacing" textLength="232" x="135" y="194.2607">getPublishedAnnouncementRepository()</text><polygon fill="#181818" points="121,223.5391,111,227.5391,121,231.5391,117,227.5391" style="stroke:#181818;stroke-width:1.0;"/><line style="stroke:#181818;stroke-width:1.0;stroke-dasharray:2.0,2.0;" x1="115" x2="383" y1="227.5391" y2="227.5391"/><text fill="#000000" font-family="sans-serif" font-size="13" font-weight="bold" lengthAdjust="spacing" textLength="14" x="127" y="222.7842">16</text><text fill="#000000" font-family="sans-serif" font-size="13" lengthAdjust="spacing" textLength="204" x="145" y="222.7842">PublishedannouncementRepository</text><polygon fill="#181818" points="547,252.0625,557,256.0625,547,260.0625,551,256.0625" style="stroke:#181818;stroke-width:1.0;"/><line style="stroke:#181818;stroke-width:1.0;" x1="110" x2="553" y1="256.0625" y2="256.0625"/><text fill="#000000" font-family="sans-serif" font-size="13" font-weight="bold" lengthAdjust="spacing" textLength="14" x="117" y="251.3076">17</text><text fill="#000000" font-family="sans-serif" font-size="13" lengthAdjust="spacing" textLength="252" x="135" y="251.3076">getListOfPropertiesByDate(propertyByDate)</text><polygon fill="#181818" points="121,280.5859,111,284.5859,121,288.5859,117,284.5859" style="stroke:#181818;stroke-width:1.0;"/><line style="stroke:#181818;stroke-width:1.0;stroke-dasharray:2.0,2.0;" x1="115" x2="563" y1="284.5859" y2="284.5859"/><text fill="#000000" font-family="sans-serif" font-size="13" font-weight="bold" lengthAdjust="spacing" textLength="14" x="127" y="279.8311">18</text><text fill="#000000" font-family="sans-serif" font-size="13" lengthAdjust="spacing" textLength="132" x="145" y="279.8311">listOfPropertiesByDate</text><!--SRC=[ZLCzJyCm4DtzAqvTQ8TA42Ow8D5MGaYjg1hOMAxsDR6QsCPsWFnxdBRa0zg634voVlVklJlRxQGoQ367N2lDKwjp0cyBOgxUCSXtc53ioup04lUeagmDS2aA_IbL0blC737cfG_Gr_Zw3iOGqtj1YXFC9IOLV8NMIynWkBBQKFWc1mlfF4nBMEhmNXCdvU51218Znh3mMXNvXYpSt39sbKf1iDNQR_GNCnKPbmP3mc0Ian9BSYx8dMdbhSuoiWD01xENzU8NU4r6E-cr3GBsc3fGTf6s1NnJb_AYRg8fDfbqAOa7fNGHUf07NmqwSAqk8_RqHnR64giB0u_auJ-TOyYz_41F1-_L0kFxbjW99EIVb0lpv3GSCMWzTMwh9nr04uTnOAtO9vr6jC62Uld-oels-deQr2yxEgSxQeJNHV1aaNulqMapnybDWezgJC_RPcxJSXueXkOGA0-_PypK1w2zUmms9hAJ5Svf_-4C5-OR]--></g></svg>