<?xml version="1.0" encoding="us-ascii" standalone="no"?><svg xmlns="http://www.w3.org/2000/svg" xmlns:xlink="http://www.w3.org/1999/xlink" contentStyleType="text/css" height="1597px" preserveAspectRatio="none" style="width:1100px;height:1597px;background:#FFFFFF;" version="1.1" viewBox="0 0 1100 1597" width="1100px" zoomAndPan="magnify"><defs/><g><text fill="#000000" font-family="sans-serif" font-size="14" font-weight="bold" lengthAdjust="spacing" textLength="156" x="465" y="22.6738">US002 - Domain Model</text><!--class Address--><g id="elem_Address"><rect codeLine="14" fill="#F1F1F1" height="64.9219" id="Address" rx="2.5" ry="2.5" style="stroke:#181818;stroke-width:0.5;" width="69" x="941.5" y="1277.6406"/><text fill="#000000" font-family="sans-serif" font-size="14" lengthAdjust="spacing" textLength="52" x="950" y="1295.3145">Address</text><line style="stroke:#181818;stroke-width:0.5;" x1="942.5" x2="1009.5" y1="1303.2813" y2="1303.2813"/><text fill="#000000" font-family="sans-serif" font-size="14" lengthAdjust="spacing" textLength="38" x="947.5" y="1319.9551">Street</text><text fill="#000000" font-family="sans-serif" font-size="14" lengthAdjust="spacing" textLength="57" x="947.5" y="1335.5957">Zip Code</text></g><!--class City--><g id="elem_City"><rect codeLine="19" fill="#F1F1F1" height="49.2813" id="City" rx="2.5" ry="2.5" style="stroke:#181818;stroke-width:0.5;" width="48" x="1029" y="1124.6406"/><text fill="#000000" font-family="sans-serif" font-size="14" lengthAdjust="spacing" textLength="24" x="1041" y="1142.3145">City</text><line style="stroke:#181818;stroke-width:0.5;" x1="1030" x2="1076" y1="1150.2813" y2="1150.2813"/><text fill="#000000" font-family="sans-serif" font-size="14" lengthAdjust="spacing" textLength="36" x="1035" y="1166.9551">Name</text></g><!--class District--><g id="elem_District"><rect codeLine="23" fill="#F1F1F1" height="49.2813" id="District" rx="2.5" ry="2.5" style="stroke:#181818;stroke-width:0.5;" width="49" x="1029.5" y="975.6406"/><text fill="#000000" font-family="sans-serif" font-size="14" lengthAdjust="spacing" textLength="43" x="1032.5" y="993.3145">District</text><line style="stroke:#181818;stroke-width:0.5;" x1="1030.5" x2="1077.5" y1="1001.2813" y2="1001.2813"/><text fill="#000000" font-family="sans-serif" font-size="14" lengthAdjust="spacing" textLength="36" x="1035.5" y="1017.9551">Name</text></g><!--class State--><g id="elem_State"><rect codeLine="27" fill="#F1F1F1" height="49.2813" id="State" rx="2.5" ry="2.5" style="stroke:#181818;stroke-width:0.5;" width="48" x="1030" y="842.6406"/><text fill="#000000" font-family="sans-serif" font-size="14" lengthAdjust="spacing" textLength="33" x="1037.5" y="860.3145">State</text><line style="stroke:#181818;stroke-width:0.5;" x1="1031" x2="1077" y1="868.2813" y2="868.2813"/><text fill="#000000" font-family="sans-serif" font-size="14" lengthAdjust="spacing" textLength="36" x="1036" y="884.9551">Name</text></g><!--class Contacts--><g id="elem_Contacts"><rect codeLine="37" fill="#F1F1F1" height="64.9219" id="Contacts" rx="2.5" ry="2.5" style="stroke:#181818;stroke-width:0.5;" width="105" x="596.5" y="246.6406"/><text fill="#000000" font-family="sans-serif" font-size="14" lengthAdjust="spacing" textLength="56" x="621" y="264.3145">Contacts</text><line style="stroke:#181818;stroke-width:0.5;" x1="597.5" x2="700.5" y1="272.2813" y2="272.2813"/><text fill="#000000" font-family="sans-serif" font-size="14" lengthAdjust="spacing" textLength="93" x="602.5" y="288.9551">Phone number</text><text fill="#000000" font-family="sans-serif" font-size="14" lengthAdjust="spacing" textLength="81" x="602.5" y="304.5957">Email adress</text></g><!--class Business--><g id="elem_Business"><rect codeLine="42" fill="#F1F1F1" height="49.2813" id="Business" rx="2.5" ry="2.5" style="stroke:#181818;stroke-width:0.5;" width="138" x="246" y="1285.6406"/><text fill="#000000" font-family="sans-serif" font-size="14" lengthAdjust="spacing" textLength="57" x="286.5" y="1303.3145">Business</text><line style="stroke:#181818;stroke-width:0.5;" x1="247" x2="383" y1="1311.2813" y2="1311.2813"/><text fill="#000000" font-family="sans-serif" font-size="14" lengthAdjust="spacing" textLength="126" x="252" y="1327.9551">Price with comission</text></g><polygon fill="none" points="315.5373,1334.9219,322.9717,1354.7645,308.975,1355.0697" style="stroke:#181818;stroke-width:1.0;"/><line style="stroke:#181818;stroke-width:1.0;" x1="315.9733" x2="316" y1="1354.9171" y2="1356.1406"/><line style="stroke:#181818;stroke-width:1.0;" x1="246" x2="225.8" y1="1295.4984" y2="1291.1706"/><line style="stroke:#181818;stroke-width:1.0;" x1="278.6022" x2="248.69" y1="1285.6406" y2="1265.3906"/><line style="stroke:#181818;stroke-width:1.0;" x1="384" x2="404.32" y1="1290.4429" y2="1284.6006"/><line style="stroke:#181818;stroke-width:1.0;" x1="357.3955" x2="392.34" y1="1285.6406" y2="1265.3306"/><line style="stroke:#181818;stroke-width:1.0;" x1="315" x2="315" y1="1285.6406" y2="1265.5406"/><!--class Store--><g id="elem_Store"><rect codeLine="46" fill="#F1F1F1" height="49.2813" id="Store" rx="2.5" ry="2.5" style="stroke:#181818;stroke-width:0.5;" width="87" x="438.5" y="254.6406"/><text fill="#000000" font-family="sans-serif" font-size="14" lengthAdjust="spacing" textLength="34" x="465" y="272.3145">Store</text><line style="stroke:#181818;stroke-width:0.5;" x1="439.5" x2="524.5" y1="280.2813" y2="280.2813"/><text fill="#000000" font-family="sans-serif" font-size="14" lengthAdjust="spacing" textLength="75" x="444.5" y="296.9551">Designation</text></g><!--class Owner--><g id="elem_Owner"><rect codeLine="50" fill="#F1F1F1" height="64.9219" id="Owner" rx="2.5" ry="2.5" style="stroke:#181818;stroke-width:0.5;" width="87" x="605.5" y="43.6406"/><text fill="#000000" font-family="sans-serif" font-size="14" lengthAdjust="spacing" textLength="41" x="628.5" y="61.3145">Owner</text><line style="stroke:#181818;stroke-width:0.5;" x1="606.5" x2="691.5" y1="69.2813" y2="69.2813"/><text fill="#000000" font-family="sans-serif" font-size="14" lengthAdjust="spacing" textLength="36" x="611.5" y="85.9551">Name</text><text fill="#000000" font-family="sans-serif" font-size="14" lengthAdjust="spacing" textLength="75" x="611.5" y="101.5957">Tax number</text></g><!--class Agent--><g id="elem_Agent"><rect fill="#F1F1F1" height="33.6406" id="Agent" rx="2.5" ry="2.5" style="stroke:#181818;stroke-width:0.5;" width="43" x="460.5" y="465.1406"/><text fill="#000000" font-family="sans-serif" font-size="14" lengthAdjust="spacing" textLength="37" x="463.5" y="482.8145">Agent</text><line style="stroke:#181818;stroke-width:0.5;" x1="461.5" x2="502.5" y1="490.7813" y2="490.7813"/></g><!--class Residence--><g id="elem_Residence"><rect codeLine="62" fill="#F1F1F1" height="80.5625" id="Residence" rx="2.5" ry="2.5" style="stroke:#181818;stroke-width:0.5;" width="180" x="637" y="1108.6406"/><text fill="#000000" font-family="sans-serif" font-size="14" lengthAdjust="spacing" textLength="67" x="693.5" y="1126.3145">Residence</text><line style="stroke:#181818;stroke-width:0.5;" x1="638" x2="816" y1="1134.2813" y2="1134.2813"/><text fill="#000000" font-family="sans-serif" font-size="14" lengthAdjust="spacing" textLength="133" x="643" y="1150.9551">Number of Bedrooms</text><text fill="#000000" font-family="sans-serif" font-size="14" lengthAdjust="spacing" textLength="137" x="643" y="1166.5957">Number of Bathrooms</text><text fill="#000000" font-family="sans-serif" font-size="14" lengthAdjust="spacing" textLength="168" x="643" y="1182.2363">Number of Parking Spaces</text></g><!--class Property--><g id="elem_Property"><rect codeLine="68" fill="#F1F1F1" height="64.9219" id="Property" rx="2.5" ry="2.5" style="stroke:#181818;stroke-width:0.5;" width="192" x="659" y="967.6406"/><text fill="#000000" font-family="sans-serif" font-size="14" lengthAdjust="spacing" textLength="54" x="728" y="985.3145">Property</text><line style="stroke:#181818;stroke-width:0.5;" x1="660" x2="850" y1="993.2813" y2="993.2813"/><text fill="#000000" font-family="sans-serif" font-size="14" lengthAdjust="spacing" textLength="30" x="665" y="1009.9551">Area</text><text fill="#000000" font-family="sans-serif" font-size="14" lengthAdjust="spacing" textLength="180" x="665" y="1025.5957">Distance from the city center</text></g><!--class Photos--><g id="elem_Photos"><rect codeLine="73" fill="#F1F1F1" height="49.2813" id="Photos" rx="2.5" ry="2.5" style="stroke:#181818;stroke-width:0.5;" width="50" x="538" y="975.6406"/><text fill="#000000" font-family="sans-serif" font-size="14" lengthAdjust="spacing" textLength="44" x="541" y="993.3145">Photos</text><line style="stroke:#181818;stroke-width:0.5;" x1="539" x2="587" y1="1001.2813" y2="1001.2813"/><text fill="#000000" font-family="sans-serif" font-size="14" lengthAdjust="spacing" textLength="22" x="544" y="1017.9551">URI</text></g><!--class House--><g id="elem_House"><rect codeLine="77" fill="#F1F1F1" height="64.9219" id="House" rx="2.5" ry="2.5" style="stroke:#181818;stroke-width:0.5;" width="104" x="572" y="1277.6406"/><text fill="#000000" font-family="sans-serif" font-size="14" lengthAdjust="spacing" textLength="40" x="604" y="1295.3145">House</text><line style="stroke:#181818;stroke-width:0.5;" x1="573" x2="675" y1="1303.2813" y2="1303.2813"/><text fill="#000000" font-family="sans-serif" font-size="14" lengthAdjust="spacing" textLength="63" x="578" y="1319.9551">Basement</text><text fill="#000000" font-family="sans-serif" font-size="14" lengthAdjust="spacing" textLength="92" x="578" y="1335.5957">Inhabitable loft</text></g><!--class SunExposure--><g id="elem_SunExposure"><rect codeLine="82" fill="#F1F1F1" height="49.2813" id="SunExposure" rx="2.5" ry="2.5" style="stroke:#181818;stroke-width:0.5;" width="90" x="558" y="1533.6406"/><text fill="#000000" font-family="sans-serif" font-size="14" lengthAdjust="spacing" textLength="84" x="561" y="1551.3145">SunExposure</text><line style="stroke:#181818;stroke-width:0.5;" x1="559" x2="647" y1="1559.2813" y2="1559.2813"/><text fill="#000000" font-family="sans-serif" font-size="14" lengthAdjust="spacing" textLength="56" x="564" y="1575.9551">Direction</text></g><!--class AvailableEquipment--><g id="elem_AvailableEquipment"><rect codeLine="86" fill="#F1F1F1" height="49.2813" id="AvailableEquipment" rx="2.5" ry="2.5" style="stroke:#181818;stroke-width:0.5;" width="130" x="702" y="1415.6406"/><text fill="#000000" font-family="sans-serif" font-size="14" lengthAdjust="spacing" textLength="124" x="705" y="1433.3145">AvailableEquipment</text><line style="stroke:#181818;stroke-width:0.5;" x1="703" x2="831" y1="1441.2813" y2="1441.2813"/><text fill="#000000" font-family="sans-serif" font-size="14" lengthAdjust="spacing" textLength="67" x="708" y="1457.9551">Equipment</text></g><!--class Comission--><g id="elem_Comission"><rect codeLine="100" fill="#F1F1F1" height="49.2813" id="Comission" rx="2.5" ry="2.5" style="stroke:#181818;stroke-width:0.5;" width="112" x="7" y="763.6406"/><text fill="#000000" font-family="sans-serif" font-size="14" lengthAdjust="spacing" textLength="65" x="30.5" y="781.3145">Comission</text><line style="stroke:#181818;stroke-width:0.5;" x1="8" x2="118" y1="789.2813" y2="789.2813"/><text fill="#000000" font-family="sans-serif" font-size="14" lengthAdjust="spacing" textLength="100" x="13" y="805.9551">Final Comission</text></g><!--class ComissionValue--><g id="elem_ComissionValue"><rect codeLine="104" fill="#F1F1F1" height="64.9219" id="ComissionValue" rx="2.5" ry="2.5" style="stroke:#181818;stroke-width:0.5;" width="107" x="9.5" y="449.6406"/><text fill="#000000" font-family="sans-serif" font-size="14" lengthAdjust="spacing" textLength="101" x="12.5" y="467.3145">ComissionValue</text><line style="stroke:#181818;stroke-width:0.5;" x1="10.5" x2="115.5" y1="475.2813" y2="475.2813"/><text fill="#000000" font-family="sans-serif" font-size="14" lengthAdjust="spacing" textLength="73" x="15.5" y="491.9551">Percentage</text><text fill="#000000" font-family="sans-serif" font-size="14" lengthAdjust="spacing" textLength="75" x="15.5" y="507.5957">Static Value</text></g><!--class Sale--><g id="elem_Sale"><rect codeLine="109" fill="#F1F1F1" height="49.2813" id="Sale" rx="2.5" ry="2.5" style="stroke:#181818;stroke-width:0.5;" width="116" x="185" y="1533.6406"/><text fill="#000000" font-family="sans-serif" font-size="14" lengthAdjust="spacing" textLength="28" x="229" y="1551.3145">Sale</text><line style="stroke:#181818;stroke-width:0.5;" x1="186" x2="300" y1="1559.2813" y2="1559.2813"/><text fill="#000000" font-family="sans-serif" font-size="14" lengthAdjust="spacing" textLength="104" x="191" y="1575.9551">Requested price</text></g><!--class Lease--><g id="elem_Lease"><rect codeLine="113" fill="#F1F1F1" height="64.9219" id="Lease" rx="2.5" ry="2.5" style="stroke:#181818;stroke-width:0.5;" width="137" x="336.5" y="1525.6406"/><text fill="#000000" font-family="sans-serif" font-size="14" lengthAdjust="spacing" textLength="39" x="385.5" y="1543.3145">Lease</text><line style="stroke:#181818;stroke-width:0.5;" x1="337.5" x2="472.5" y1="1551.2813" y2="1551.2813"/><text fill="#000000" font-family="sans-serif" font-size="14" lengthAdjust="spacing" textLength="93" x="342.5" y="1567.9551">Requested fee</text><text fill="#000000" font-family="sans-serif" font-size="14" lengthAdjust="spacing" textLength="125" x="342.5" y="1583.5957">Duration of contract</text></g><!--class AnnouncementRequest--><g id="elem_AnnouncementRequest"><rect codeLine="118" fill="#F1F1F1" height="80.5625" id="AnnouncementRequest" rx="2.5" ry="2.5" style="stroke:#181818;stroke-width:0.5;" width="154" x="416" y="652.6406"/><text fill="#000000" font-family="sans-serif" font-size="14" lengthAdjust="spacing" textLength="148" x="419" y="670.3145">AnnouncementRequest</text><line style="stroke:#181818;stroke-width:0.5;" x1="417" x2="569" y1="678.2813" y2="678.2813"/><text fill="#000000" font-family="sans-serif" font-size="14" lengthAdjust="spacing" textLength="64" x="422" y="694.9551">Initial date</text><text fill="#000000" font-family="sans-serif" font-size="14" lengthAdjust="spacing" textLength="63" x="422" y="710.5957">Final date</text><text fill="#000000" font-family="sans-serif" font-size="14" lengthAdjust="spacing" textLength="85" x="422" y="726.2363">Contract type</text></g><!--class PublishedAnnouncement--><g id="elem_PublishedAnnouncement"><rect codeLine="124" fill="#F1F1F1" height="49.2813" id="PublishedAnnouncement" rx="2.5" ry="2.5" style="stroke:#181818;stroke-width:0.5;" width="163" x="233.5" y="975.6406"/><text fill="#000000" font-family="sans-serif" font-size="14" lengthAdjust="spacing" textLength="157" x="236.5" y="993.3145">PublishedAnnouncement</text><line style="stroke:#181818;stroke-width:0.5;" x1="234.5" x2="395.5" y1="1001.2813" y2="1001.2813"/><text fill="#000000" font-family="sans-serif" font-size="14" lengthAdjust="spacing" textLength="85" x="239.5" y="1017.9551">Contract type</text></g><!--link State to District--><g id="link_State_District"><path codeLine="32" d="M1054,891.8606 C1054,915.6006 1054,951.9106 1054,975.5906 " fill="none" id="State-District" style="stroke:#181818;stroke-width:1.0;"/><polygon fill="#000000" points="1059,924.9023,1056.0611,933.9474,1061.9389,933.9474,1059,924.9023" style="stroke:#000000;stroke-width:1.0;"/><text fill="#000000" font-family="sans-serif" font-size="13" lengthAdjust="spacing" textLength="24" x="1068" y="934.4092">is in</text><text fill="#000000" font-family="sans-serif" font-size="13" lengthAdjust="spacing" textLength="7" x="1046.1031" y="911.7885">1</text><text fill="#000000" font-family="sans-serif" font-size="13" lengthAdjust="spacing" textLength="5" x="1048.3281" y="964.9127">*</text></g><!--link District to City--><g id="link_District_City"><path codeLine="33" d="M1053.84,1024.7606 C1053.65,1052.1906 1053.35,1097.1706 1053.16,1124.5806 " fill="none" id="District-City" style="stroke:#181818;stroke-width:1.0;"/><polygon fill="#000000" points="1058.0341,1065.9025,1055.0336,1074.9273,1060.9113,1074.9674,1058.0341,1065.9025" style="stroke:#000000;stroke-width:1.0;"/><text fill="#000000" font-family="sans-serif" font-size="13" lengthAdjust="spacing" textLength="24" x="1067" y="1075.4092">is in</text><text fill="#000000" font-family="sans-serif" font-size="13" lengthAdjust="spacing" textLength="7" x="1045.9021" y="1044.6628">1</text><text fill="#000000" font-family="sans-serif" font-size="13" lengthAdjust="spacing" textLength="5" x="1047.5311" y="1113.9">*</text></g><!--link City to Address--><g id="link_City_Address"><path codeLine="34" d="M1041.47,1173.9406 C1028.13,1201.4906 1006.11,1246.9706 991.33,1277.4806 " fill="none" id="City-Address" style="stroke:#181818;stroke-width:1.0;"/><polygon fill="#000000" points="1027.1792,1223.4022,1020.5919,1230.2621,1025.8821,1232.8239,1027.1792,1223.4022" style="stroke:#000000;stroke-width:1.0;"/><text fill="#000000" font-family="sans-serif" font-size="13" lengthAdjust="spacing" textLength="24" x="1034" y="1232.4092">is in</text><text fill="#000000" font-family="sans-serif" font-size="13" lengthAdjust="spacing" textLength="7" x="1030.6186" y="1193.889">1</text><text fill="#000000" font-family="sans-serif" font-size="13" lengthAdjust="spacing" textLength="5" x="988.9762" y="1267.1313">*</text></g><!--link Owner to Contacts--><g id="link_Owner_Contacts"><path codeLine="55" d="M649,108.9906 C649,146.6306 649,208.8706 649,246.4406 " fill="none" id="Owner-Contacts" style="stroke:#181818;stroke-width:1.0;"/><polygon fill="#000000" points="654,182.9023,656.9389,173.8573,651.0611,173.8573,654,182.9023" style="stroke:#000000;stroke-width:1.0;"/><text fill="#000000" font-family="sans-serif" font-size="13" lengthAdjust="spacing" textLength="21" x="663" y="182.4092">has</text><text fill="#000000" font-family="sans-serif" font-size="13" lengthAdjust="spacing" textLength="7" x="641.3328" y="128.4129">1</text><text fill="#000000" font-family="sans-serif" font-size="13" lengthAdjust="spacing" textLength="7" x="641.2781" y="236.0831">1</text></g><!--link Store to Contacts--><g id="link_Store_Contacts"><path codeLine="56" d="M525.88,279.1406 C547.43,279.1406 573.56,279.1406 596.2,279.1406 " fill="none" id="Store-Contacts" style="stroke:#181818;stroke-width:1.0;"/><polygon fill="#000000" points="553,268.4023,543.9549,265.4634,543.9549,271.3413,553,268.4023" style="stroke:#000000;stroke-width:1.0;"/><text fill="#000000" font-family="sans-serif" font-size="13" lengthAdjust="spacing" textLength="21" x="557" y="272.9092">has</text><text fill="#000000" font-family="sans-serif" font-size="13" lengthAdjust="spacing" textLength="7" x="533.4312" y="275.8129">1</text><text fill="#000000" font-family="sans-serif" font-size="13" lengthAdjust="spacing" textLength="7" x="581.6347" y="276.009">1</text></g><!--link Owner to Address--><g id="link_Owner_Address"><path codeLine="57" d="M692.76,81.2106 C781.87,90.7106 976,118.1206 976,176.6406 C976,176.6406 976,176.6406 976,1150.1406 C976,1194.3106 976,1245.3706 976,1277.4606 " fill="none" id="Owner-Address" style="stroke:#181818;stroke-width:1.0;"/><polygon fill="#000000" points="982.152,588.7678,982.9279,579.289,977.2081,580.6432,982.152,588.7678" style="stroke:#000000;stroke-width:1.0;"/><text fill="#000000" font-family="sans-serif" font-size="13" lengthAdjust="spacing" textLength="21" x="990" y="588.4092">has</text><text fill="#000000" font-family="sans-serif" font-size="13" lengthAdjust="spacing" textLength="7" x="700.5874" y="78.7093">1</text><text fill="#000000" font-family="sans-serif" font-size="13" lengthAdjust="spacing" textLength="7" x="968.2781" y="1267.1072">1</text></g><!--link Owner to Store--><g id="link_Owner_Store"><path codeLine="58" d="M622.54,108.9906 C588.88,149.5006 531.53,218.5306 501.55,254.6006 " fill="none" id="Owner-Store" style="stroke:#181818;stroke-width:1.0;"/><polygon fill="#000000" points="573.8046,181.748,581.8456,176.6694,577.3247,172.9129,573.8046,181.748" style="stroke:#000000;stroke-width:1.0;"/><text fill="#000000" font-family="sans-serif" font-size="13" lengthAdjust="spacing" textLength="50" x="586" y="182.4092">contacts</text><text fill="#000000" font-family="sans-serif" font-size="13" lengthAdjust="spacing" textLength="7" x="609.8289" y="128.4129">1</text><text fill="#000000" font-family="sans-serif" font-size="13" lengthAdjust="spacing" textLength="7" x="498.8634" y="243.9253">1</text></g><!--link Store to Agent--><g id="link_Store_Agent"><path codeLine="59" d="M482,303.9906 C482,345.4806 482,429.8906 482,465.1206 " fill="none" id="Store-Agent" style="stroke:#181818;stroke-width:1.0;"/><polygon fill="#000000" points="487,385.9023,489.9389,376.8573,484.0611,376.8573,487,385.9023" style="stroke:#000000;stroke-width:1.0;"/><text fill="#000000" font-family="sans-serif" font-size="13" lengthAdjust="spacing" textLength="21" x="496" y="385.4092">has</text><text fill="#000000" font-family="sans-serif" font-size="13" lengthAdjust="spacing" textLength="7" x="474.1469" y="323.5521">1</text><text fill="#000000" font-family="sans-serif" font-size="13" lengthAdjust="spacing" textLength="5" x="476.1094" y="454.4893">*</text></g><!--reverse link Residence to House--><g id="link_Residence_House"><path codeLine="90" d="M690.26,1206.8506 C674.9,1230.5606 657.63,1257.2306 644.57,1277.3906 " fill="none" id="Residence-backto-House" style="stroke:#181818;stroke-width:1.0;"/><polygon fill="none" points="684.53,1202.8306,701.27,1189.8506,696.28,1210.4406,684.53,1202.8306" style="stroke:#181818;stroke-width:1.0;"/></g><!--reverse link Property to Residence--><g id="link_Property_Residence"><path codeLine="91" d="M745.2,1052.6106 C741.7,1070.9606 737.82,1091.3206 734.55,1108.5206 " fill="none" id="Property-backto-Residence" style="stroke:#181818;stroke-width:1.0;"/><polygon fill="none" points="738.37,1051.0106,748.99,1032.6806,752.13,1053.6306,738.37,1051.0106" style="stroke:#181818;stroke-width:1.0;"/></g><!--link Photos to Property--><g id="link_Photos_Property"><path codeLine="92" d="M588.1,1000.1406 C606.5,1000.1406 632.75,1000.1406 659,1000.1406 " fill="none" id="Photos-Property" style="stroke:#181818;stroke-width:1.0;"/><polygon fill="#000000" points="605.5,989.4023,614.5451,992.3413,614.5451,986.4634,605.5,989.4023" style="stroke:#000000;stroke-width:1.0;"/><text fill="#000000" font-family="sans-serif" font-size="13" lengthAdjust="spacing" textLength="21" x="619.5" y="993.9092">has</text><text fill="#000000" font-family="sans-serif" font-size="13" lengthAdjust="spacing" textLength="24" x="596.2156" y="1013.4669">1...*</text><text fill="#000000" font-family="sans-serif" font-size="13" lengthAdjust="spacing" textLength="7" x="644.0711" y="997.3753">1</text></g><!--link House to SunExposure--><g id="link_House_SunExposure"><path codeLine="93" d="M621.3,1342.8006 C617.03,1392.7606 608.84,1488.7806 605.03,1533.3406 " fill="none" id="House-SunExposure" style="stroke:#181818;stroke-width:1.0;"/><polygon fill="#000000" points="620.5746,1445.3842,624.2724,1436.622,618.4159,1436.1219,620.5746,1445.3842" style="stroke:#000000;stroke-width:1.0;"/><text fill="#000000" font-family="sans-serif" font-size="13" lengthAdjust="spacing" textLength="49" x="630" y="1444.9092">contains</text><text fill="#000000" font-family="sans-serif" font-size="13" lengthAdjust="spacing" textLength="5" x="615.2762" y="1362.4365">*</text><text fill="#000000" font-family="sans-serif" font-size="13" lengthAdjust="spacing" textLength="7" x="597.6533" y="1522.9915">1</text></g><!--link Property to Address--><g id="link_Property_Address"><path codeLine="94" d="M778.65,1033.0206 C794.43,1054.3506 815.57,1083.1006 834,1108.6406 C876.8,1167.9606 925.98,1237.7906 953.79,1277.4206 " fill="none" id="Property-Address" style="stroke:#181818;stroke-width:1.0;"/><polygon fill="#000000" points="898.9124,1153.4665,896.0327,1144.4025,891.2549,1147.8262,898.9124,1153.4665" style="stroke:#000000;stroke-width:1.0;"/><text fill="#000000" font-family="sans-serif" font-size="13" lengthAdjust="spacing" textLength="21" x="905" y="1153.9092">has</text><text fill="#000000" font-family="sans-serif" font-size="13" lengthAdjust="spacing" textLength="7" x="775.4911" y="1052.4486">1</text><text fill="#000000" font-family="sans-serif" font-size="13" lengthAdjust="spacing" textLength="7" x="941.4873" y="1267.059">1</text></g><!--link Owner to Property--><g id="link_Owner_Property"><path codeLine="95" d="M692.73,97.0906 C721.93,113.7306 755,140.5506 755,176.6406 C755,176.6406 755,176.6406 755,868.1406 C755,902.0306 755,940.8506 755,967.3706 " fill="none" id="Owner-Property" style="stroke:#181818;stroke-width:1.0;"/><polygon fill="#000000" points="760.3568,487.3896,762.6427,478.1578,756.7799,478.5773,760.3568,487.3896" style="stroke:#000000;stroke-width:1.0;"/><text fill="#000000" font-family="sans-serif" font-size="13" lengthAdjust="spacing" textLength="21" x="769" y="486.9092">has</text><text fill="#000000" font-family="sans-serif" font-size="13" lengthAdjust="spacing" textLength="7" x="700.5525" y="97.2195">1</text><text fill="#000000" font-family="sans-serif" font-size="13" lengthAdjust="spacing" textLength="5" x="749.4844" y="956.9987">*</text></g><!--link Residence to AvailableEquipment--><g id="link_Residence_AvailableEquipment"><path codeLine="96" d="M732.48,1189.7206 C740.93,1250.7806 756.89,1366.0806 763.74,1415.5806 " fill="none" id="Residence-AvailableEquipment" style="stroke:#181818;stroke-width:1.0;"/><polygon fill="#000000" points="761.6855,1315.3551,763.3566,1305.9925,757.5343,1306.7984,761.6855,1315.3551" style="stroke:#000000;stroke-width:1.0;"/><text fill="#000000" font-family="sans-serif" font-size="13" lengthAdjust="spacing" textLength="49" x="770" y="1314.9092">contains</text><text fill="#000000" font-family="sans-serif" font-size="13" lengthAdjust="spacing" textLength="7" x="725.7832" y="1208.8484">1</text><text fill="#000000" font-family="sans-serif" font-size="13" lengthAdjust="spacing" textLength="5" x="757.192" y="1404.9">*</text></g><!--link ComissionValue to Agent--><g id="link_ComissionValue_Agent"><path codeLine="128" d="M116.92,482.1406 C209.97,482.1406 396.83,482.1406 460.32,482.1406 " fill="none" id="ComissionValue-Agent" style="stroke:#181818;stroke-width:1.0;"/><polygon fill="#000000" points="260.5,471.4023,269.5451,474.3413,269.5451,468.4634,260.5,471.4023" style="stroke:#000000;stroke-width:1.0;"/><text fill="#000000" font-family="sans-serif" font-size="13" lengthAdjust="spacing" textLength="41" x="274.5" y="475.9092">defines</text><text fill="#000000" font-family="sans-serif" font-size="13" lengthAdjust="spacing" textLength="7" x="124.6358" y="479.009">1</text><text fill="#000000" font-family="sans-serif" font-size="13" lengthAdjust="spacing" textLength="7" x="445.6086" y="477.9006">1</text></g><!--link Comission to Business--><g id="link_Comission_Business"><path codeLine="129" d="M63,812.8406 C63,840.5906 63,887.9506 63,928.6406 C63,928.6406 63,928.6406 63,1150.1406 C63,1229.4206 153.31,1270.7606 225.8,1291.1706 " fill="none" id="Comission-Business" style="stroke:#181818;stroke-width:1.0;"/><polygon fill="#000000" points="66.389,995.669,66.5211,1005.1786,72.0855,1003.2848,66.389,995.669" style="stroke:#000000;stroke-width:1.0;"/><text fill="#000000" font-family="sans-serif" font-size="13" lengthAdjust="spacing" textLength="49" x="77" y="1004.9092">contains</text><text fill="#000000" font-family="sans-serif" font-size="13" lengthAdjust="spacing" textLength="7" x="55.1031" y="832.7633">1</text><text fill="#000000" font-family="sans-serif" font-size="13" lengthAdjust="spacing" textLength="7" x="211.1233" y="1286.7986">1</text></g><!--link ComissionValue to Comission--><g id="link_ComissionValue_Comission"><path codeLine="130" d="M63,514.8106 C63,575.9506 63,708.9606 63,763.3006 " fill="none" id="ComissionValue-Comission" style="stroke:#181818;stroke-width:1.0;"/><polygon fill="#000000" points="68,588.9023,70.9389,579.8573,65.0611,579.8573,68,588.9023" style="stroke:#000000;stroke-width:1.0;"/><text fill="#000000" font-family="sans-serif" font-size="13" lengthAdjust="spacing" textLength="32" x="77" y="588.4092">has a</text><text fill="#000000" font-family="sans-serif" font-size="13" lengthAdjust="spacing" textLength="7" x="55.3109" y="534.4484">1</text><text fill="#000000" font-family="sans-serif" font-size="13" lengthAdjust="spacing" textLength="5" x="57.3594" y="752.9412">*</text></g><!--link Owner to Business--><g id="link_Owner_Business"><path codeLine="131" d="M605.3,77.2006 C488.87,78.5206 180,90.1806 180,176.6406 C180,176.6406 180,176.6406 180,1150.1406 C180,1197.0306 214.55,1237.1706 248.69,1265.3906 " fill="none" id="Owner-Business" style="stroke:#181818;stroke-width:1.0;"/><polygon fill="#000000" points="183.5627,588.6913,188.9777,580.8728,183.3479,579.1832,183.5627,588.6913" style="stroke:#000000;stroke-width:1.0;"/><text fill="#000000" font-family="sans-serif" font-size="13" lengthAdjust="spacing" textLength="50" x="194" y="588.4092">requests</text><text fill="#000000" font-family="sans-serif" font-size="13" lengthAdjust="spacing" textLength="7" x="590.4825" y="74.0352">1</text><text fill="#000000" font-family="sans-serif" font-size="13" lengthAdjust="spacing" textLength="7" x="230.564" y="1254.9308">1</text></g><!--link Property to Business--><g id="link_Property_Business"><path codeLine="132" d="M683.97,1032.6506 C647.61,1051.1606 604.32,1077.1306 572,1108.6406 C524.4,1155.0406 543.72,1192.6706 493,1235.6406 C467.49,1257.2506 434.75,1273.2006 404.32,1284.6006 " fill="none" id="Property-Business" style="stroke:#181818;stroke-width:1.0;"/><polygon fill="#000000" points="580.7147,1146.0556,572.0275,1149.9265,575.9619,1154.2934,580.7147,1146.0556" style="stroke:#000000;stroke-width:1.0;"/><text fill="#000000" font-family="sans-serif" font-size="13" lengthAdjust="spacing" textLength="32" x="586" y="1153.9092">has a</text><text fill="#000000" font-family="sans-serif" font-size="13" lengthAdjust="spacing" textLength="7" x="662.2969" y="1052.2569">1</text><text fill="#000000" font-family="sans-serif" font-size="13" lengthAdjust="spacing" textLength="7" x="412.0067" y="1279.6845">1</text></g><!--link AnnouncementRequest to Business--><g id="link_AnnouncementRequest_Business"><path codeLine="133" d="M483.54,733.8506 C476.11,768.5506 467,820.3906 467,866.1406 C467,866.1406 467,866.1406 467,1150.1406 C467,1198.4506 429.89,1237.8406 392.34,1265.3306 " fill="none" id="AnnouncementRequest-Business" style="stroke:#181818;stroke-width:1.0;"/><polygon fill="#000000" points="471.1544,1005.3303,475.5807,996.9126,469.7875,995.9185,471.1544,1005.3303" style="stroke:#000000;stroke-width:1.0;"/><text fill="#000000" font-family="sans-serif" font-size="13" lengthAdjust="spacing" textLength="21" x="481" y="1004.9092">has</text><text fill="#000000" font-family="sans-serif" font-size="13" lengthAdjust="spacing" textLength="7" x="474.5555" y="752.9983">1</text><text fill="#000000" font-family="sans-serif" font-size="13" lengthAdjust="spacing" textLength="7" x="397.1083" y="1254.8613">1</text></g><!--link Agent to AnnouncementRequest--><g id="link_Agent_AnnouncementRequest"><path codeLine="134" d="M482.84,499.1906 C484.56,531.6906 488.47,606.1106 490.91,652.4506 " fill="none" id="Agent-AnnouncementRequest" style="stroke:#181818;stroke-width:1.0;"/><polygon fill="#000000" points="493.2629,588.8954,495.7222,579.7083,489.8524,580.0174,493.2629,588.8954" style="stroke:#000000;stroke-width:1.0;"/><text fill="#000000" font-family="sans-serif" font-size="13" lengthAdjust="spacing" textLength="42" x="502" y="588.4092">reviews</text><text fill="#000000" font-family="sans-serif" font-size="13" lengthAdjust="spacing" textLength="7" x="475.0254" y="518.4597">1</text><text fill="#000000" font-family="sans-serif" font-size="13" lengthAdjust="spacing" textLength="7" x="482.9143" y="641.81">1</text></g><!--link AnnouncementRequest to Property--><g id="link_AnnouncementRequest_Property"><path codeLine="135" d="M526.98,733.7006 C579.6,794.9506 679.71,911.5006 727.84,967.5206 " fill="none" id="AnnouncementRequest-Property" style="stroke:#181818;stroke-width:1.0;"/><polygon fill="#000000" points="667.2581,871.1951,663.5935,862.4189,659.1348,866.249,667.2581,871.1951" style="stroke:#000000;stroke-width:1.0;"/><text fill="#000000" font-family="sans-serif" font-size="13" lengthAdjust="spacing" textLength="32" x="673" y="871.9092">has a</text><text fill="#000000" font-family="sans-serif" font-size="13" lengthAdjust="spacing" textLength="7" x="524.6473" y="752.8254">1</text><text fill="#000000" font-family="sans-serif" font-size="13" lengthAdjust="spacing" textLength="7" x="714.1331" y="956.6881">1</text></g><!--reverse link AnnouncementRequest to PublishedAnnouncement--><g id="link_AnnouncementRequest_PublishedAnnouncement"><path codeLine="136" d="M449.75,750.4906 C446.71,754.8906 443.76,759.3006 441,763.6406 C393.57,838.1606 346.96,932.1806 326.21,975.4106 " fill="none" id="AnnouncementRequest-backto-PublishedAnnouncement" style="stroke:#181818;stroke-width:1.0;"/><polygon fill="none" points="444.35,746.0106,461.69,733.8306,455.73,754.1706,444.35,746.0106" style="stroke:#181818;stroke-width:1.0;"/></g><!--link PublishedAnnouncement to Agent--><g id="link_PublishedAnnouncement_Agent"><path codeLine="137" d="M313.84,975.4806 C312.66,949.2506 311,905.6806 311,868.1406 C311,582.6406 311,582.6406 311,582.6406 C311,514.2906 414.33,492.0806 460.34,485.5806 " fill="none" id="PublishedAnnouncement-Agent" style="stroke:#181818;stroke-width:1.0;"/><polygon fill="#000000" points="314.5675,698.1927,319.9747,690.3688,314.3432,688.6848,314.5675,698.1927" style="stroke:#000000;stroke-width:1.0;"/><text fill="#000000" font-family="sans-serif" font-size="13" lengthAdjust="spacing" textLength="55" x="325" y="697.9092">publishes</text><text fill="#000000" font-family="sans-serif" font-size="13" lengthAdjust="spacing" textLength="5" x="307.8564" y="964.7731">*</text><text fill="#000000" font-family="sans-serif" font-size="13" lengthAdjust="spacing" textLength="7" x="445.6347" y="500.6816">1</text></g><!--link PublishedAnnouncement to Business--><g id="link_PublishedAnnouncement_Business"><path codeLine="138" d="M315,1024.8006 C315,1076.3506 315,1199.5006 315,1265.5406 " fill="none" id="PublishedAnnouncement-Business" style="stroke:#181818;stroke-width:1.0;"/><polygon fill="#000000" points="320,1144.4023,317.0611,1153.4474,322.9389,1153.4474,320,1144.4023" style="stroke:#000000;stroke-width:1.0;"/><text fill="#000000" font-family="sans-serif" font-size="13" lengthAdjust="spacing" textLength="32" x="329" y="1153.9092">has a</text><text fill="#000000" font-family="sans-serif" font-size="13" lengthAdjust="spacing" textLength="7" x="307.1031" y="1044.7131">1</text><text fill="#000000" font-family="sans-serif" font-size="13" lengthAdjust="spacing" textLength="7" x="307.4203" y="1254.783">1</text></g><!--reverse link Business to Lease--><g id="link_Business_Lease"><path codeLine="139" d="M316,1356.1406 C316,1356.1406 325.6,1371.6006 332,1384.6406 C355.63,1432.8206 379.12,1490.5506 392.84,1525.5106 " fill="none" id="Business-backto-Lease" style="stroke:#181818;stroke-width:1.0;"/></g><!--reverse link Business to Sale--><g id="link_Business_Sale"><path codeLine="140" d="M316,1356.1406 C316,1356.1406 271,1480.0506 251.66,1533.2906 " fill="none" id="Business-backto-Sale" style="stroke:#181818;stroke-width:1.0;"/></g><!--SRC=[XLLDRzim3BthLn2v52YGekinA0QaJOSLs4VGh3lifjYCBTIMN4bkscNxxwCaMvRpqTqSyf5w91yPyoHampMleT2gRUvbYLfOBZE4AsQYirPIPQLMDOBLBIQUXcTFlC2LVQiGD6OKMrGfm9GyLriX2zZmoY0x6roLa6ZV6WIbRQdOMOKR2rQ15aLf8HSkdL0oIPPLt9YvjLgiMultcP8hyHlXafKYHyY4pkXj_rqZfSmDOrPOOlQukhoyWYaiLCs5XAygnuendmxcUQxHc1rRMOresI_Hm2q1sDyUSIlisuvzutLYMmX3D3AxRrzPRd4mClyR9XycqobCpYSnRWR2056vPhqb0Ra71u3xbJWxleC_qbJIyimQsB5bgII2REirQdP7DLV0VTH0zAOrr7_ZqVGymbRO4Z9L2sDSrvEAb4P2BT28Gd8xSdxVIjJGrVk3l_Pl4Y2uY3TCIG7IiQVldkGCIcxW8mlPFShF_GIiApe0dL0wd7yaWAvFlEXVc55bNNSeMO7I-bvEssQC2edwwXwev1pTDb25lZ1G6xZ1N2jLczJ4RRblMtBzv7I_eXr1mo3sRAbLWvfckcDpZTmBmA_SXZOCREcKJDwCI8PETc6biefa-lXmFnW_gzOuTZVSO4q1Z5QOhsc5rwJwIcriCiTMthqsohHXcd6z8c3-GZfnWNVFhMXSDiB5RuSR-d7z9xGu462nf6YFqC4tdjt5nGKD81GLnP1GzEWm7iBvPxeX2kbcD59476F_s3kIEDz7aI0EAn-h8rOpef1iNhSrE_P9I5uDXkI8zAQVl6hT19QetOZfUleZ8JBmdcHWlA9Bye3FBHgBEJHkJGVt5-H-z0DWWyWMhVOhwXJeg6hIV39YALLBPRWIkxWTIKPOGQHpkbGTV_zvsuM3EzA93jjr9Ko9UPgCU1p0zoe-s76_XZF8SUCEaJjqVK30Th3-K8rQVontVpnZbZ1UJWDEP72GLOS-E1sCfNg03Db8UeTTV2SYtfi4SIo3O_8YSEiZ_lF2MC3yH8JRHWeuFZ5sV8vUz-C1DHtGzVr4qBljYlyqWOxNxRxHQPtz0m00]--></g></svg>