<?xml version="1.0" encoding="UTF-8" standalone="no"?><svg xmlns="http://www.w3.org/2000/svg" xmlns:xlink="http://www.w3.org/1999/xlink" contentStyleType="text/css" height="435px" preserveAspectRatio="none" style="width:667px;height:435px;background:#FFFFFF;" version="1.1" viewBox="0 0 667 435" width="667px" zoomAndPan="magnify"><defs/><g><rect fill="#FFFFFF" height="277.0938" style="stroke:#181818;stroke-width:1.0;" width="10" x="108" y="80.3125"/><rect fill="#FFFFFF" height="39.1563" style="stroke:#181818;stroke-width:1.0;" width="10" x="276" y="145.625"/><rect fill="#FFFFFF" height="39.1563" style="stroke:#181818;stroke-width:1.0;" width="10" x="416" y="223.9375"/><rect fill="#FFFFFF" height="39.1563" style="stroke:#181818;stroke-width:1.0;" width="10" x="568.5" y="302.25"/><rect fill="none" height="262.0938" style="stroke:#000000;stroke-width:1.5;" width="651" x="10" y="87.3125"/><line style="stroke:#181818;stroke-width:0.5;stroke-dasharray:5.0,5.0;" x1="113" x2="113" y1="70.3125" y2="366.4063"/><line style="stroke:#181818;stroke-width:0.5;stroke-dasharray:5.0,5.0;" x1="281" x2="281" y1="70.3125" y2="366.4063"/><line style="stroke:#181818;stroke-width:0.5;stroke-dasharray:5.0,5.0;" x1="421" x2="421" y1="70.3125" y2="366.4063"/><line style="stroke:#181818;stroke-width:0.5;stroke-dasharray:5.0,5.0;" x1="573" x2="573" y1="70.3125" y2="366.4063"/><rect fill="#E2E2F0" height="39.1563" rx="2.5" ry="2.5" style="stroke:#181818;stroke-width:0.5;" width="186" x="20" y="30.1563"/><text fill="#000000" font-family="sans-serif" font-size="20" lengthAdjust="spacing" textLength="172" x="27" y="57.918">:ListDealsController</text><rect fill="#E2E2F0" height="39.1563" rx="2.5" ry="2.5" style="stroke:#181818;stroke-width:0.5;" width="186" x="20" y="365.4063"/><text fill="#000000" font-family="sans-serif" font-size="20" lengthAdjust="spacing" textLength="172" x="27" y="393.168">:ListDealsController</text><rect fill="#E2E2F0" height="39.1563" rx="2.5" ry="2.5" style="stroke:#181818;stroke-width:0.5;" width="130" x="216" y="30.1563"/><text fill="#000000" font-family="sans-serif" font-size="20" lengthAdjust="spacing" textLength="116" x="223" y="57.918">:Repositories</text><rect fill="#E2E2F0" height="39.1563" rx="2.5" ry="2.5" style="stroke:#181818;stroke-width:0.5;" width="130" x="216" y="365.4063"/><text fill="#000000" font-family="sans-serif" font-size="20" lengthAdjust="spacing" textLength="116" x="223" y="393.168">:Repositories</text><rect fill="#E2E2F0" height="64.3125" rx="2.5" ry="2.5" style="stroke:#181818;stroke-width:0.5;" width="130" x="356" y="5"/><text fill="#000000" font-family="sans-serif" font-size="20" lengthAdjust="spacing" textLength="103" x="369.5" y="32.7617">repositories</text><text fill="#000000" font-family="sans-serif" font-size="20" lengthAdjust="spacing" textLength="116" x="363" y="57.918">:Repositories</text><rect fill="#E2E2F0" height="64.3125" rx="2.5" ry="2.5" style="stroke:#181818;stroke-width:0.5;" width="130" x="356" y="365.4063"/><text fill="#000000" font-family="sans-serif" font-size="20" lengthAdjust="spacing" textLength="103" x="369.5" y="393.168">repositories</text><text fill="#000000" font-family="sans-serif" font-size="20" lengthAdjust="spacing" textLength="116" x="363" y="418.3242">:Repositories</text><rect fill="#E2E2F0" height="64.3125" rx="2.5" ry="2.5" style="stroke:#181818;stroke-width:0.5;" width="155" x="496" y="5"/><text fill="#000000" font-family="sans-serif" font-size="20" lengthAdjust="spacing" textLength="136" x="505.5" y="32.7617">offerRepository</text><text fill="#000000" font-family="sans-serif" font-size="20" lengthAdjust="spacing" textLength="141" x="503" y="57.918">OfferRepository</text><rect fill="#E2E2F0" height="64.3125" rx="2.5" ry="2.5" style="stroke:#181818;stroke-width:0.5;" width="155" x="496" y="365.4063"/><text fill="#000000" font-family="sans-serif" font-size="20" lengthAdjust="spacing" textLength="136" x="505.5" y="393.168">offerRepository</text><text fill="#000000" font-family="sans-serif" font-size="20" lengthAdjust="spacing" textLength="141" x="503" y="418.3242">OfferRepository</text><rect fill="#FFFFFF" height="277.0938" style="stroke:#181818;stroke-width:1.0;" width="10" x="108" y="80.3125"/><rect fill="#FFFFFF" height="39.1563" style="stroke:#181818;stroke-width:1.0;" width="10" x="276" y="145.625"/><rect fill="#FFFFFF" height="39.1563" style="stroke:#181818;stroke-width:1.0;" width="10" x="416" y="223.9375"/><rect fill="#FFFFFF" height="39.1563" style="stroke:#181818;stroke-width:1.0;" width="10" x="568.5" y="302.25"/><path d="M10,87.3125 L531,87.3125 L531,104.4688 L521,114.4688 L10,114.4688 L10,87.3125 " fill="#EEEEEE" style="stroke:#000000;stroke-width:1.5;"/><rect fill="none" height="262.0938" style="stroke:#000000;stroke-width:1.5;" width="651" x="10" y="87.3125"/><text fill="#000000" font-family="sans-serif" font-size="20" font-weight="bold" lengthAdjust="spacing" textLength="476" x="25" y="109.0742">Get Deals By Ascending Area Using Sort Selection</text><polygon fill="#181818" points="264,141.625,274,145.625,264,149.625,268,145.625" style="stroke:#181818;stroke-width:1.0;"/><line style="stroke:#181818;stroke-width:1.0;" x1="118" x2="270" y1="145.625" y2="145.625"/><text fill="#000000" font-family="sans-serif" font-size="20" font-weight="bold" lengthAdjust="spacing" textLength="11" x="125" y="139.2305">5</text><text fill="#000000" font-family="sans-serif" font-size="20" lengthAdjust="spacing" textLength="116" x="140" y="139.2305">getInstance()</text><polygon fill="#181818" points="129,180.7813,119,184.7813,129,188.7813,125,184.7813" style="stroke:#181818;stroke-width:1.0;"/><line style="stroke:#181818;stroke-width:1.0;stroke-dasharray:2.0,2.0;" x1="123" x2="280" y1="184.7813" y2="184.7813"/><text fill="#000000" font-family="sans-serif" font-size="20" font-weight="bold" lengthAdjust="spacing" textLength="11" x="135" y="178.3867">6</text><text fill="#000000" font-family="sans-serif" font-size="20" lengthAdjust="spacing" textLength="103" x="150" y="178.3867">repositories</text><polygon fill="#181818" points="404,219.9375,414,223.9375,404,227.9375,408,223.9375" style="stroke:#181818;stroke-width:1.0;"/><line style="stroke:#181818;stroke-width:1.0;" x1="118" x2="410" y1="223.9375" y2="223.9375"/><text fill="#000000" font-family="sans-serif" font-size="20" font-weight="bold" lengthAdjust="spacing" textLength="11" x="125" y="217.543">7</text><text fill="#000000" font-family="sans-serif" font-size="20" lengthAdjust="spacing" textLength="183" x="140" y="217.543">getOfferRepository()</text><polygon fill="#181818" points="129,259.0938,119,263.0938,129,267.0938,125,263.0938" style="stroke:#181818;stroke-width:1.0;"/><line style="stroke:#181818;stroke-width:1.0;stroke-dasharray:2.0,2.0;" x1="123" x2="420" y1="263.0938" y2="263.0938"/><text fill="#000000" font-family="sans-serif" font-size="20" font-weight="bold" lengthAdjust="spacing" textLength="11" x="135" y="256.6992">8</text><text fill="#000000" font-family="sans-serif" font-size="20" lengthAdjust="spacing" textLength="136" x="150" y="256.6992">offerRepository</text><polygon fill="#181818" points="556.5,298.25,566.5,302.25,556.5,306.25,560.5,302.25" style="stroke:#181818;stroke-width:1.0;"/><line style="stroke:#181818;stroke-width:1.0;" x1="118" x2="562.5" y1="302.25" y2="302.25"/><text fill="#000000" font-family="sans-serif" font-size="20" font-weight="bold" lengthAdjust="spacing" textLength="11" x="125" y="295.8555">9</text><text fill="#000000" font-family="sans-serif" font-size="20" lengthAdjust="spacing" textLength="364" x="140" y="295.8555">getDealsByAscendingAreaSortSelection()</text><polygon fill="#181818" points="129,337.4063,119,341.4063,129,345.4063,125,341.4063" style="stroke:#181818;stroke-width:1.0;"/><line style="stroke:#181818;stroke-width:1.0;stroke-dasharray:2.0,2.0;" x1="123" x2="572.5" y1="341.4063" y2="341.4063"/><text fill="#000000" font-family="sans-serif" font-size="20" font-weight="bold" lengthAdjust="spacing" textLength="22" x="135" y="335.0117">10</text><text fill="#000000" font-family="sans-serif" font-size="20" lengthAdjust="spacing" textLength="132" x="161" y="335.0117">offersListMade</text><!--SRC=[bPB1QiCm38RlVWhHqtOeZC4kEGpIZPL1nyQotNhn4gMOkdQmbK7szBFTaRMs4wWl2RAaNv_rsxrG7JVy87MznmOQR7alwKahgiGFmkqDO-wUH2qwhWWMnKPOUaGkxOFBCLfAD0lW5ZBngF8TEsq5QIFGXf8nC5H2xIIILkSbvgHYgz86Rvlouxn2josQ_xvRzNeU26LHZ37UE-d-y8K6xXXR6zrti4Q2m0Eh0KfReshSa50QvF1f_M-b3K654ciIRdB6tVUR4sQVWa5qCacmlC-z2HImGtfMbhYgyUewQJKAvnuqoVOdfx9qwfcX2ZZTGjAjmSlK9x3z9e-SqNBcSCFwitoXtIHGP98vfhp414Gq-f4dvAs6qK7UGDuvet7c21Edvc1ZsGbk-0Et_kw5DpZ7dGYxuNy1]--></g></svg>