<?xml version="1.0" encoding="UTF-8" standalone="no"?><svg xmlns="http://www.w3.org/2000/svg" xmlns:xlink="http://www.w3.org/1999/xlink" contentStyleType="text/css" height="2397px" preserveAspectRatio="none" style="width:1937px;height:2397px;background:#FFFFFF;" version="1.1" viewBox="0 0 1937 2397" width="1937px" zoomAndPan="magnify"><defs/><g><!--class Employee--><g id="elem_Employee"><rect codeLine="3" fill="#F1F1F1" height="176.9375" id="Employee" rx="2.5" ry="2.5" style="stroke:#181818;stroke-width:0.5;" width="762" x="184" y="1009"/><ellipse cx="517" cy="1026.5781" fill="#ADD1B2" rx="12" ry="12" style="stroke:#181818;stroke-width:1.0;"/><path d="M519.1406,1021.5 Q519.3281,1021.25 519.5469,1021.125 Q519.7656,1020.9844 520.0156,1020.9844 Q520.4531,1020.9844 520.7344,1021.2969 Q521.0156,1021.5938 521.0156,1022.3125 L521.0156,1024.0156 Q521.0156,1024.7344 520.7344,1025.0469 Q520.4531,1025.3594 520.0156,1025.3594 Q519.625,1025.3594 519.375,1025.125 Q519.125,1024.9063 519.0156,1024.2969 Q518.9531,1023.875 518.7344,1023.6563 Q518.3438,1023.2188 517.625,1022.9531 Q516.9063,1022.6875 516.1875,1022.6875 Q515.2813,1022.6875 514.5313,1023.0781 Q513.7813,1023.4688 513.2031,1024.3594 Q512.625,1025.2344 512.625,1026.4375 L512.625,1027.7344 Q512.625,1029.1875 513.6719,1030.1563 Q514.7344,1031.125 516.5938,1031.125 Q517.7031,1031.125 518.4844,1030.8125 Q518.9219,1030.6406 519.4375,1030.125 Q519.75,1029.8125 519.9219,1029.7188 Q520.0938,1029.625 520.3281,1029.625 Q520.7188,1029.625 521.0156,1029.9375 Q521.3281,1030.2344 521.3281,1030.6406 Q521.3281,1031.0469 520.9219,1031.5156 Q520.3281,1032.2031 519.3906,1032.5938 Q518.125,1033.125 516.6094,1033.125 Q514.8281,1033.125 513.4063,1032.3906 Q512.25,1031.7969 511.4375,1030.5313 Q510.625,1029.2656 510.625,1027.7813 L510.625,1026.4219 Q510.625,1024.8594 511.3438,1023.5156 Q512.0781,1022.1563 513.3594,1021.4219 Q514.6563,1020.6875 516.1094,1020.6875 Q516.9688,1020.6875 517.7188,1020.8906 Q518.4844,1021.0938 519.1406,1021.5 Z " fill="#000000"/><text fill="#000000" font-family="sans-serif" font-size="20" lengthAdjust="spacing" textLength="87" x="539" y="1034.7617">Employee</text><line style="stroke:#181818;stroke-width:0.5;" x1="185" x2="945" y1="1044.1563" y2="1044.1563"/><rect fill="none" height="6" style="stroke:#C82930;stroke-width:1.0;" width="6" x="192" y="1059.2344"/><text fill="#000000" font-family="sans-serif" font-size="20" lengthAdjust="spacing" textLength="99" x="205" y="1068.918">Store store</text><rect fill="none" height="6" style="stroke:#C82930;stroke-width:1.0;" width="6" x="192" y="1084.3906"/><text fill="#000000" font-family="sans-serif" font-size="20" lengthAdjust="spacing" textLength="134" x="205" y="1094.0742">List&lt;Role&gt; role</text><line style="stroke:#181818;stroke-width:0.5;" x1="185" x2="945" y1="1102.4688" y2="1102.4688"/><ellipse cx="195" cy="1120.5469" fill="#84BE84" rx="3" ry="3" style="stroke:#038048;stroke-width:1.0;"/><text fill="#000000" font-family="sans-serif" font-size="20" lengthAdjust="spacing" textLength="735" x="205" y="1127.2305">Employee(email,name,store,phoneNumber,role,adress,taxNumber,passportNumber)</text><ellipse cx="195" cy="1145.7031" fill="#84BE84" rx="3" ry="3" style="stroke:#038048;stroke-width:1.0;"/><text fill="#000000" font-family="sans-serif" font-size="20" lengthAdjust="spacing" textLength="90" x="205" y="1152.3867">getStore()</text><ellipse cx="195" cy="1170.8594" fill="#84BE84" rx="3" ry="3" style="stroke:#038048;stroke-width:1.0;"/><text fill="#000000" font-family="sans-serif" font-size="20" lengthAdjust="spacing" textLength="82" x="205" y="1177.543">getRole()</text></g><!--class Person--><g id="elem_Person"><rect codeLine="11" fill="#F1F1F1" height="378.1875" id="Person" rx="2.5" ry="2.5" style="stroke:#181818;stroke-width:0.5;" width="560" x="336" y="570"/><ellipse cx="580.5" cy="587.5781" fill="#ADD1B2" rx="12" ry="12" style="stroke:#181818;stroke-width:1.0;"/><path d="M582.6406,582.5 Q582.8281,582.25 583.0469,582.125 Q583.2656,581.9844 583.5156,581.9844 Q583.9531,581.9844 584.2344,582.2969 Q584.5156,582.5938 584.5156,583.3125 L584.5156,585.0156 Q584.5156,585.7344 584.2344,586.0469 Q583.9531,586.3594 583.5156,586.3594 Q583.125,586.3594 582.875,586.125 Q582.625,585.9063 582.5156,585.2969 Q582.4531,584.875 582.2344,584.6563 Q581.8438,584.2188 581.125,583.9531 Q580.4063,583.6875 579.6875,583.6875 Q578.7813,583.6875 578.0313,584.0781 Q577.2813,584.4688 576.7031,585.3594 Q576.125,586.2344 576.125,587.4375 L576.125,588.7344 Q576.125,590.1875 577.1719,591.1563 Q578.2344,592.125 580.0938,592.125 Q581.2031,592.125 581.9844,591.8125 Q582.4219,591.6406 582.9375,591.125 Q583.25,590.8125 583.4219,590.7188 Q583.5938,590.625 583.8281,590.625 Q584.2188,590.625 584.5156,590.9375 Q584.8281,591.2344 584.8281,591.6406 Q584.8281,592.0469 584.4219,592.5156 Q583.8281,593.2031 582.8906,593.5938 Q581.625,594.125 580.1094,594.125 Q578.3281,594.125 576.9063,593.3906 Q575.75,592.7969 574.9375,591.5313 Q574.125,590.2656 574.125,588.7813 L574.125,587.4219 Q574.125,585.8594 574.8438,584.5156 Q575.5781,583.1563 576.8594,582.4219 Q578.1563,581.6875 579.6094,581.6875 Q580.4688,581.6875 581.2188,581.8906 Q581.9844,582.0938 582.6406,582.5 Z " fill="#000000"/><text fill="#000000" font-family="sans-serif" font-size="20" lengthAdjust="spacing" textLength="62" x="602.5" y="595.7617">Person</text><line style="stroke:#181818;stroke-width:0.5;" x1="337" x2="895" y1="605.1563" y2="605.1563"/><rect fill="none" height="6" style="stroke:#C82930;stroke-width:1.0;" width="6" x="344" y="620.2344"/><text fill="#000000" font-family="sans-serif" font-size="20" lengthAdjust="spacing" textLength="103" x="357" y="629.918">String email</text><rect fill="none" height="6" style="stroke:#C82930;stroke-width:1.0;" width="6" x="344" y="645.3906"/><text fill="#000000" font-family="sans-serif" font-size="20" lengthAdjust="spacing" textLength="171" x="357" y="655.0742">int passportNumber</text><rect fill="none" height="6" style="stroke:#C82930;stroke-width:1.0;" width="6" x="344" y="670.5469"/><text fill="#000000" font-family="sans-serif" font-size="20" lengthAdjust="spacing" textLength="120" x="357" y="680.2305">int taxNumber</text><rect fill="none" height="6" style="stroke:#C82930;stroke-width:1.0;" width="6" x="344" y="695.7031"/><text fill="#000000" font-family="sans-serif" font-size="20" lengthAdjust="spacing" textLength="105" x="357" y="705.3867">String name</text><rect fill="none" height="6" style="stroke:#C82930;stroke-width:1.0;" width="6" x="344" y="720.8594"/><text fill="#000000" font-family="sans-serif" font-size="20" lengthAdjust="spacing" textLength="128" x="357" y="730.543">Adress adress</text><rect fill="none" height="6" style="stroke:#C82930;stroke-width:1.0;" width="6" x="344" y="746.0156"/><text fill="#000000" font-family="sans-serif" font-size="20" lengthAdjust="spacing" textLength="147" x="357" y="755.6992">int phoneNumber</text><line style="stroke:#181818;stroke-width:0.5;" x1="337" x2="895" y1="764.0938" y2="764.0938"/><ellipse cx="347" cy="782.1719" fill="#84BE84" rx="3" ry="3" style="stroke:#038048;stroke-width:1.0;"/><text fill="#000000" font-family="sans-serif" font-size="20" lengthAdjust="spacing" textLength="533" x="357" y="788.8555">User(email,passportNumber,taxNumber,name,phoneNumber)</text><ellipse cx="347" cy="807.3281" fill="#84BE84" rx="3" ry="3" style="stroke:#038048;stroke-width:1.0;"/><text fill="#000000" font-family="sans-serif" font-size="20" lengthAdjust="spacing" textLength="189" x="357" y="814.0117">getPassportNumber()</text><ellipse cx="347" cy="832.4844" fill="#84BE84" rx="3" ry="3" style="stroke:#038048;stroke-width:1.0;"/><text fill="#000000" font-family="sans-serif" font-size="20" lengthAdjust="spacing" textLength="142" x="357" y="839.168">getTaxNumber()</text><ellipse cx="347" cy="857.6406" fill="#84BE84" rx="3" ry="3" style="stroke:#038048;stroke-width:1.0;"/><text fill="#000000" font-family="sans-serif" font-size="20" lengthAdjust="spacing" textLength="90" x="357" y="864.3242">getEmail()</text><ellipse cx="347" cy="882.7969" fill="#84BE84" rx="3" ry="3" style="stroke:#038048;stroke-width:1.0;"/><text fill="#000000" font-family="sans-serif" font-size="20" lengthAdjust="spacing" textLength="104" x="357" y="889.4805">getAdress()</text><ellipse cx="347" cy="907.9531" fill="#84BE84" rx="3" ry="3" style="stroke:#038048;stroke-width:1.0;"/><text fill="#000000" font-family="sans-serif" font-size="20" lengthAdjust="spacing" textLength="93" x="357" y="914.6367">getName()</text><ellipse cx="347" cy="933.1094" fill="#84BE84" rx="3" ry="3" style="stroke:#038048;stroke-width:1.0;"/><text fill="#000000" font-family="sans-serif" font-size="20" lengthAdjust="spacing" textLength="165" x="357" y="939.793">getPhoneNumber()</text></g><!--class NetworkManager--><g id="elem_NetworkManager"><rect codeLine="28" fill="#F1F1F1" height="51.1563" id="NetworkManager" rx="2.5" ry="2.5" style="stroke:#181818;stroke-width:0.5;" width="185" x="511.5" y="1272"/><ellipse cx="527.5" cy="1289.5781" fill="#ADD1B2" rx="12" ry="12" style="stroke:#181818;stroke-width:1.0;"/><path d="M529.6406,1284.5 Q529.8281,1284.25 530.0469,1284.125 Q530.2656,1283.9844 530.5156,1283.9844 Q530.9531,1283.9844 531.2344,1284.2969 Q531.5156,1284.5938 531.5156,1285.3125 L531.5156,1287.0156 Q531.5156,1287.7344 531.2344,1288.0469 Q530.9531,1288.3594 530.5156,1288.3594 Q530.125,1288.3594 529.875,1288.125 Q529.625,1287.9063 529.5156,1287.2969 Q529.4531,1286.875 529.2344,1286.6563 Q528.8438,1286.2188 528.125,1285.9531 Q527.4063,1285.6875 526.6875,1285.6875 Q525.7813,1285.6875 525.0313,1286.0781 Q524.2813,1286.4688 523.7031,1287.3594 Q523.125,1288.2344 523.125,1289.4375 L523.125,1290.7344 Q523.125,1292.1875 524.1719,1293.1563 Q525.2344,1294.125 527.0938,1294.125 Q528.2031,1294.125 528.9844,1293.8125 Q529.4219,1293.6406 529.9375,1293.125 Q530.25,1292.8125 530.4219,1292.7188 Q530.5938,1292.625 530.8281,1292.625 Q531.2188,1292.625 531.5156,1292.9375 Q531.8281,1293.2344 531.8281,1293.6406 Q531.8281,1294.0469 531.4219,1294.5156 Q530.8281,1295.2031 529.8906,1295.5938 Q528.625,1296.125 527.1094,1296.125 Q525.3281,1296.125 523.9063,1295.3906 Q522.75,1294.7969 521.9375,1293.5313 Q521.125,1292.2656 521.125,1290.7813 L521.125,1289.4219 Q521.125,1287.8594 521.8438,1286.5156 Q522.5781,1285.1563 523.8594,1284.4219 Q525.1563,1283.6875 526.6094,1283.6875 Q527.4688,1283.6875 528.2188,1283.8906 Q528.9844,1284.0938 529.6406,1284.5 Z " fill="#000000"/><text fill="#000000" font-family="sans-serif" font-size="20" lengthAdjust="spacing" textLength="151" x="542.5" y="1297.7617">NetworkManager</text><line style="stroke:#181818;stroke-width:0.5;" x1="512.5" x2="695.5" y1="1307.1563" y2="1307.1563"/><line style="stroke:#181818;stroke-width:0.5;" x1="512.5" x2="695.5" y1="1315.1563" y2="1315.1563"/></g><!--class Offer--><g id="elem_Offer"><rect codeLine="31" fill="#F1F1F1" height="101.4688" id="Offer" rx="2.5" ry="2.5" style="stroke:#181818;stroke-width:0.5;" width="197" x="892.5" y="1247"/><ellipse cx="963.5" cy="1264.5781" fill="#ADD1B2" rx="12" ry="12" style="stroke:#181818;stroke-width:1.0;"/><path d="M965.6406,1259.5 Q965.8281,1259.25 966.0469,1259.125 Q966.2656,1258.9844 966.5156,1258.9844 Q966.9531,1258.9844 967.2344,1259.2969 Q967.5156,1259.5938 967.5156,1260.3125 L967.5156,1262.0156 Q967.5156,1262.7344 967.2344,1263.0469 Q966.9531,1263.3594 966.5156,1263.3594 Q966.125,1263.3594 965.875,1263.125 Q965.625,1262.9063 965.5156,1262.2969 Q965.4531,1261.875 965.2344,1261.6563 Q964.8438,1261.2188 964.125,1260.9531 Q963.4063,1260.6875 962.6875,1260.6875 Q961.7813,1260.6875 961.0313,1261.0781 Q960.2813,1261.4688 959.7031,1262.3594 Q959.125,1263.2344 959.125,1264.4375 L959.125,1265.7344 Q959.125,1267.1875 960.1719,1268.1563 Q961.2344,1269.125 963.0938,1269.125 Q964.2031,1269.125 964.9844,1268.8125 Q965.4219,1268.6406 965.9375,1268.125 Q966.25,1267.8125 966.4219,1267.7188 Q966.5938,1267.625 966.8281,1267.625 Q967.2188,1267.625 967.5156,1267.9375 Q967.8281,1268.2344 967.8281,1268.6406 Q967.8281,1269.0469 967.4219,1269.5156 Q966.8281,1270.2031 965.8906,1270.5938 Q964.625,1271.125 963.1094,1271.125 Q961.3281,1271.125 959.9063,1270.3906 Q958.75,1269.7969 957.9375,1268.5313 Q957.125,1267.2656 957.125,1265.7813 L957.125,1264.4219 Q957.125,1262.8594 957.8438,1261.5156 Q958.5781,1260.1563 959.8594,1259.4219 Q961.1563,1258.6875 962.6094,1258.6875 Q963.4688,1258.6875 964.2188,1258.8906 Q964.9844,1259.0938 965.6406,1259.5 Z " fill="#000000"/><text fill="#000000" font-family="sans-serif" font-size="20" lengthAdjust="spacing" textLength="46" x="985.5" y="1272.7617">Offer</text><line style="stroke:#181818;stroke-width:0.5;" x1="893.5" x2="1088.5" y1="1282.1563" y2="1282.1563"/><rect fill="none" height="6" style="stroke:#C82930;stroke-width:1.0;" width="6" x="900.5" y="1297.2344"/><text fill="#000000" font-family="sans-serif" font-size="20" lengthAdjust="spacing" textLength="105" x="913.5" y="1306.918">String name</text><rect fill="none" height="6" style="stroke:#C82930;stroke-width:1.0;" width="6" x="900.5" y="1322.3906"/><text fill="#000000" font-family="sans-serif" font-size="20" lengthAdjust="spacing" textLength="170" x="913.5" y="1332.0742">String orderAmount</text><line style="stroke:#181818;stroke-width:0.5;" x1="893.5" x2="1088.5" y1="1340.4688" y2="1340.4688"/></g><!--class OfferState--><g id="elem_OfferState"><rect codeLine="36" fill="#F1F1F1" height="126.625" id="OfferState" rx="2.5" ry="2.5" style="stroke:#181818;stroke-width:0.5;" width="167" x="894.5" y="1435"/><ellipse cx="928.5" cy="1452.5781" fill="#EB937F" rx="12" ry="12" style="stroke:#181818;stroke-width:1.0;"/><path d="M926.4531,1453.6406 L926.4531,1456.5781 L931.5469,1456.5781 L931.5469,1455.4844 Q931.5469,1454.7656 931.8281,1454.4688 Q932.1094,1454.1563 932.5625,1454.1563 Q933,1454.1563 933.2813,1454.4688 Q933.5625,1454.7656 933.5625,1455.4844 L933.5625,1458.5781 L924.125,1458.5781 Q923.4063,1458.5781 923.0938,1458.2969 Q922.7969,1458.0156 922.7969,1457.5781 Q922.7969,1457.125 923.1094,1456.8594 Q923.4219,1456.5781 924.125,1456.5781 L924.4375,1456.5781 L924.4375,1448.75 L924.125,1448.75 Q923.4063,1448.75 923.0938,1448.4688 Q922.7969,1448.1875 922.7969,1447.7344 Q922.7969,1447.2813 923.0938,1447.0156 Q923.4063,1446.7344 924.125,1446.7344 L933.1094,1446.7344 L933.1094,1449.7813 Q933.1094,1450.5 932.8281,1450.8125 Q932.5625,1451.1094 932.125,1451.1094 Q931.6719,1451.1094 931.3906,1450.8125 Q931.1094,1450.5156 931.1094,1449.7813 L931.1094,1448.75 L926.4531,1448.75 L926.4531,1451.6406 L928.2031,1451.6406 Q928.2031,1450.8594 928.3438,1450.625 Q928.6563,1450.1563 929.2031,1450.1563 Q929.6563,1450.1563 929.9219,1450.4688 Q930.2031,1450.7656 930.2031,1451.4844 L930.2031,1453.7969 Q930.2031,1454.4531 930.0469,1454.6719 Q929.7344,1455.125 929.2031,1455.125 Q928.6563,1455.125 928.3438,1454.6563 Q928.2031,1454.4219 928.2031,1453.6406 L926.4531,1453.6406 Z " fill="#000000"/><text fill="#000000" font-family="sans-serif" font-size="20" lengthAdjust="spacing" textLength="93" x="947.5" y="1460.7617">OfferState</text><line style="stroke:#181818;stroke-width:0.5;" x1="895.5" x2="1060.5" y1="1470.1563" y2="1470.1563"/><rect fill="none" height="6" style="stroke:#C82930;stroke-width:1.0;" width="6" x="902.5" y="1485.2344"/><text fill="#000000" font-family="sans-serif" font-size="20" lengthAdjust="spacing" textLength="140" x="915.5" y="1494.918">String Accepted</text><rect fill="none" height="6" style="stroke:#C82930;stroke-width:1.0;" width="6" x="902.5" y="1510.3906"/><text fill="#000000" font-family="sans-serif" font-size="20" lengthAdjust="spacing" textLength="127" x="915.5" y="1520.0742">String Pending</text><rect fill="none" height="6" style="stroke:#C82930;stroke-width:1.0;" width="6" x="902.5" y="1535.5469"/><text fill="#000000" font-family="sans-serif" font-size="20" lengthAdjust="spacing" textLength="135" x="915.5" y="1545.2305">String Rejected</text><line style="stroke:#181818;stroke-width:0.5;" x1="895.5" x2="1060.5" y1="1553.625" y2="1553.625"/></g><!--class Adress--><g id="elem_Adress"><rect codeLine="43" fill="#F1F1F1" height="202.0938" id="Adress" rx="2.5" ry="2.5" style="stroke:#181818;stroke-width:0.5;" width="405" x="1018.5" y="1649"/><ellipse cx="1185.5" cy="1666.5781" fill="#ADD1B2" rx="12" ry="12" style="stroke:#181818;stroke-width:1.0;"/><path d="M1187.6406,1661.5 Q1187.8281,1661.25 1188.0469,1661.125 Q1188.2656,1660.9844 1188.5156,1660.9844 Q1188.9531,1660.9844 1189.2344,1661.2969 Q1189.5156,1661.5938 1189.5156,1662.3125 L1189.5156,1664.0156 Q1189.5156,1664.7344 1189.2344,1665.0469 Q1188.9531,1665.3594 1188.5156,1665.3594 Q1188.125,1665.3594 1187.875,1665.125 Q1187.625,1664.9063 1187.5156,1664.2969 Q1187.4531,1663.875 1187.2344,1663.6563 Q1186.8438,1663.2188 1186.125,1662.9531 Q1185.4063,1662.6875 1184.6875,1662.6875 Q1183.7813,1662.6875 1183.0313,1663.0781 Q1182.2813,1663.4688 1181.7031,1664.3594 Q1181.125,1665.2344 1181.125,1666.4375 L1181.125,1667.7344 Q1181.125,1669.1875 1182.1719,1670.1563 Q1183.2344,1671.125 1185.0938,1671.125 Q1186.2031,1671.125 1186.9844,1670.8125 Q1187.4219,1670.6406 1187.9375,1670.125 Q1188.25,1669.8125 1188.4219,1669.7188 Q1188.5938,1669.625 1188.8281,1669.625 Q1189.2188,1669.625 1189.5156,1669.9375 Q1189.8281,1670.2344 1189.8281,1670.6406 Q1189.8281,1671.0469 1189.4219,1671.5156 Q1188.8281,1672.2031 1187.8906,1672.5938 Q1186.625,1673.125 1185.1094,1673.125 Q1183.3281,1673.125 1181.9063,1672.3906 Q1180.75,1671.7969 1179.9375,1670.5313 Q1179.125,1669.2656 1179.125,1667.7813 L1179.125,1666.4219 Q1179.125,1664.8594 1179.8438,1663.5156 Q1180.5781,1662.1563 1181.8594,1661.4219 Q1183.1563,1660.6875 1184.6094,1660.6875 Q1185.4688,1660.6875 1186.2188,1660.8906 Q1186.9844,1661.0938 1187.6406,1661.5 Z " fill="#000000"/><text fill="#000000" font-family="sans-serif" font-size="20" lengthAdjust="spacing" textLength="62" x="1207.5" y="1674.7617">Adress</text><line style="stroke:#181818;stroke-width:0.5;" x1="1019.5" x2="1422.5" y1="1684.1563" y2="1684.1563"/><rect fill="none" height="6" style="stroke:#C82930;stroke-width:1.0;" width="6" x="1026.5" y="1699.2344"/><text fill="#000000" font-family="sans-serif" font-size="20" lengthAdjust="spacing" textLength="159" x="1039.5" y="1708.918">String streetName</text><rect fill="none" height="6" style="stroke:#C82930;stroke-width:1.0;" width="6" x="1026.5" y="1724.3906"/><text fill="#000000" font-family="sans-serif" font-size="20" lengthAdjust="spacing" textLength="97" x="1039.5" y="1734.0742">int zipCode</text><line style="stroke:#181818;stroke-width:0.5;" x1="1019.5" x2="1422.5" y1="1742.4688" y2="1742.4688"/><ellipse cx="1029.5" cy="1760.5469" fill="#84BE84" rx="3" ry="3" style="stroke:#038048;stroke-width:1.0;"/><text fill="#000000" font-family="sans-serif" font-size="20" lengthAdjust="spacing" textLength="76" x="1039.5" y="1767.2305">getCity()</text><ellipse cx="1029.5" cy="1785.7031" fill="#84BE84" rx="3" ry="3" style="stroke:#038048;stroke-width:1.0;"/><text fill="#000000" font-family="sans-serif" font-size="20" lengthAdjust="spacing" textLength="103" x="1039.5" y="1792.3867">getDistrict()</text><ellipse cx="1029.5" cy="1810.8594" fill="#84BE84" rx="3" ry="3" style="stroke:#038048;stroke-width:1.0;"/><text fill="#000000" font-family="sans-serif" font-size="20" lengthAdjust="spacing" textLength="89" x="1039.5" y="1817.543">getState()</text><ellipse cx="1029.5" cy="1836.0156" fill="#84BE84" rx="3" ry="3" style="stroke:#038048;stroke-width:1.0;"/><text fill="#000000" font-family="sans-serif" font-size="20" lengthAdjust="spacing" textLength="378" x="1039.5" y="1842.6992">Adress(state, district, city, street, zipCode)</text></g><!--class Residence--><g id="elem_Residence"><rect codeLine="52" fill="#F1F1F1" height="126.625" id="Residence" rx="2.5" ry="2.5" style="stroke:#181818;stroke-width:0.5;" width="273" x="1525.5" y="1912"/><ellipse cx="1611.5" cy="1929.5781" fill="#ADD1B2" rx="12" ry="12" style="stroke:#181818;stroke-width:1.0;"/><path d="M1613.6406,1924.5 Q1613.8281,1924.25 1614.0469,1924.125 Q1614.2656,1923.9844 1614.5156,1923.9844 Q1614.9531,1923.9844 1615.2344,1924.2969 Q1615.5156,1924.5938 1615.5156,1925.3125 L1615.5156,1927.0156 Q1615.5156,1927.7344 1615.2344,1928.0469 Q1614.9531,1928.3594 1614.5156,1928.3594 Q1614.125,1928.3594 1613.875,1928.125 Q1613.625,1927.9063 1613.5156,1927.2969 Q1613.4531,1926.875 1613.2344,1926.6563 Q1612.8438,1926.2188 1612.125,1925.9531 Q1611.4063,1925.6875 1610.6875,1925.6875 Q1609.7813,1925.6875 1609.0313,1926.0781 Q1608.2813,1926.4688 1607.7031,1927.3594 Q1607.125,1928.2344 1607.125,1929.4375 L1607.125,1930.7344 Q1607.125,1932.1875 1608.1719,1933.1563 Q1609.2344,1934.125 1611.0938,1934.125 Q1612.2031,1934.125 1612.9844,1933.8125 Q1613.4219,1933.6406 1613.9375,1933.125 Q1614.25,1932.8125 1614.4219,1932.7188 Q1614.5938,1932.625 1614.8281,1932.625 Q1615.2188,1932.625 1615.5156,1932.9375 Q1615.8281,1933.2344 1615.8281,1933.6406 Q1615.8281,1934.0469 1615.4219,1934.5156 Q1614.8281,1935.2031 1613.8906,1935.5938 Q1612.625,1936.125 1611.1094,1936.125 Q1609.3281,1936.125 1607.9063,1935.3906 Q1606.75,1934.7969 1605.9375,1933.5313 Q1605.125,1932.2656 1605.125,1930.7813 L1605.125,1929.4219 Q1605.125,1927.8594 1605.8438,1926.5156 Q1606.5781,1925.1563 1607.8594,1924.4219 Q1609.1563,1923.6875 1610.6094,1923.6875 Q1611.4688,1923.6875 1612.2188,1923.8906 Q1612.9844,1924.0938 1613.6406,1924.5 Z " fill="#000000"/><text fill="#000000" font-family="sans-serif" font-size="20" lengthAdjust="spacing" textLength="92" x="1633.5" y="1937.7617">Residence</text><line style="stroke:#181818;stroke-width:0.5;" x1="1526.5" x2="1797.5" y1="1947.1563" y2="1947.1563"/><rect fill="none" height="6" style="stroke:#C82930;stroke-width:1.0;" width="6" x="1533.5" y="1962.2344"/><text fill="#000000" font-family="sans-serif" font-size="20" lengthAdjust="spacing" textLength="198" x="1546.5" y="1971.918">int numberofBedrooms</text><rect fill="none" height="6" style="stroke:#C82930;stroke-width:1.0;" width="6" x="1533.5" y="1987.3906"/><text fill="#000000" font-family="sans-serif" font-size="20" lengthAdjust="spacing" textLength="203" x="1546.5" y="1997.0742">int numberofBathrooms</text><rect fill="none" height="6" style="stroke:#C82930;stroke-width:1.0;" width="6" x="1533.5" y="2012.5469"/><text fill="#000000" font-family="sans-serif" font-size="20" lengthAdjust="spacing" textLength="246" x="1546.5" y="2022.2305">int numberofParking Spaces</text><line style="stroke:#181818;stroke-width:0.5;" x1="1526.5" x2="1797.5" y1="2030.625" y2="2030.625"/></g><!--class House--><g id="elem_House"><rect codeLine="58" fill="#F1F1F1" height="101.4688" id="House" rx="2.5" ry="2.5" style="stroke:#181818;stroke-width:0.5;" width="204" x="1440" y="2126"/><ellipse cx="1510" cy="2143.5781" fill="#ADD1B2" rx="12" ry="12" style="stroke:#181818;stroke-width:1.0;"/><path d="M1512.1406,2138.5 Q1512.3281,2138.25 1512.5469,2138.125 Q1512.7656,2137.9844 1513.0156,2137.9844 Q1513.4531,2137.9844 1513.7344,2138.2969 Q1514.0156,2138.5938 1514.0156,2139.3125 L1514.0156,2141.0156 Q1514.0156,2141.7344 1513.7344,2142.0469 Q1513.4531,2142.3594 1513.0156,2142.3594 Q1512.625,2142.3594 1512.375,2142.125 Q1512.125,2141.9063 1512.0156,2141.2969 Q1511.9531,2140.875 1511.7344,2140.6563 Q1511.3438,2140.2188 1510.625,2139.9531 Q1509.9063,2139.6875 1509.1875,2139.6875 Q1508.2813,2139.6875 1507.5313,2140.0781 Q1506.7813,2140.4688 1506.2031,2141.3594 Q1505.625,2142.2344 1505.625,2143.4375 L1505.625,2144.7344 Q1505.625,2146.1875 1506.6719,2147.1563 Q1507.7344,2148.125 1509.5938,2148.125 Q1510.7031,2148.125 1511.4844,2147.8125 Q1511.9219,2147.6406 1512.4375,2147.125 Q1512.75,2146.8125 1512.9219,2146.7188 Q1513.0938,2146.625 1513.3281,2146.625 Q1513.7188,2146.625 1514.0156,2146.9375 Q1514.3281,2147.2344 1514.3281,2147.6406 Q1514.3281,2148.0469 1513.9219,2148.5156 Q1513.3281,2149.2031 1512.3906,2149.5938 Q1511.125,2150.125 1509.6094,2150.125 Q1507.8281,2150.125 1506.4063,2149.3906 Q1505.25,2148.7969 1504.4375,2147.5313 Q1503.625,2146.2656 1503.625,2144.7813 L1503.625,2143.4219 Q1503.625,2141.8594 1504.3438,2140.5156 Q1505.0781,2139.1563 1506.3594,2138.4219 Q1507.6563,2137.6875 1509.1094,2137.6875 Q1509.9688,2137.6875 1510.7188,2137.8906 Q1511.4844,2138.0938 1512.1406,2138.5 Z " fill="#000000"/><text fill="#000000" font-family="sans-serif" font-size="20" lengthAdjust="spacing" textLength="55" x="1532" y="2151.7617">House</text><line style="stroke:#181818;stroke-width:0.5;" x1="1441" x2="1643" y1="2161.1563" y2="2161.1563"/><rect fill="none" height="6" style="stroke:#C82930;stroke-width:1.0;" width="6" x="1448" y="2176.2344"/><text fill="#000000" font-family="sans-serif" font-size="20" lengthAdjust="spacing" textLength="143" x="1461" y="2185.918">String basement</text><rect fill="none" height="6" style="stroke:#C82930;stroke-width:1.0;" width="6" x="1448" y="2201.3906"/><text fill="#000000" font-family="sans-serif" font-size="20" lengthAdjust="spacing" textLength="177" x="1461" y="2211.0742">String inhabitableloft</text><line style="stroke:#181818;stroke-width:0.5;" x1="1441" x2="1643" y1="2219.4688" y2="2219.4688"/></g><!--class SunExposure--><g id="elem_SunExposure"><rect codeLine="63" fill="#F1F1F1" height="76.3125" id="SunExposure" rx="2.5" ry="2.5" style="stroke:#181818;stroke-width:0.5;" width="158" x="1463" y="2314"/><ellipse cx="1483.05" cy="2331.5781" fill="#ADD1B2" rx="12" ry="12" style="stroke:#181818;stroke-width:1.0;"/><path d="M1485.1906,2326.5 Q1485.3781,2326.25 1485.5969,2326.125 Q1485.8156,2325.9844 1486.0656,2325.9844 Q1486.5031,2325.9844 1486.7844,2326.2969 Q1487.0656,2326.5938 1487.0656,2327.3125 L1487.0656,2329.0156 Q1487.0656,2329.7344 1486.7844,2330.0469 Q1486.5031,2330.3594 1486.0656,2330.3594 Q1485.675,2330.3594 1485.425,2330.125 Q1485.175,2329.9063 1485.0656,2329.2969 Q1485.0031,2328.875 1484.7844,2328.6563 Q1484.3938,2328.2188 1483.675,2327.9531 Q1482.9563,2327.6875 1482.2375,2327.6875 Q1481.3313,2327.6875 1480.5813,2328.0781 Q1479.8313,2328.4688 1479.2531,2329.3594 Q1478.675,2330.2344 1478.675,2331.4375 L1478.675,2332.7344 Q1478.675,2334.1875 1479.7219,2335.1563 Q1480.7844,2336.125 1482.6438,2336.125 Q1483.7531,2336.125 1484.5344,2335.8125 Q1484.9719,2335.6406 1485.4875,2335.125 Q1485.8,2334.8125 1485.9719,2334.7188 Q1486.1438,2334.625 1486.3781,2334.625 Q1486.7688,2334.625 1487.0656,2334.9375 Q1487.3781,2335.2344 1487.3781,2335.6406 Q1487.3781,2336.0469 1486.9719,2336.5156 Q1486.3781,2337.2031 1485.4406,2337.5938 Q1484.175,2338.125 1482.6594,2338.125 Q1480.8781,2338.125 1479.4563,2337.3906 Q1478.3,2336.7969 1477.4875,2335.5313 Q1476.675,2334.2656 1476.675,2332.7813 L1476.675,2331.4219 Q1476.675,2329.8594 1477.3938,2328.5156 Q1478.1281,2327.1563 1479.4094,2326.4219 Q1480.7063,2325.6875 1482.1594,2325.6875 Q1483.0188,2325.6875 1483.7688,2325.8906 Q1484.5344,2326.0938 1485.1906,2326.5 Z " fill="#000000"/><text fill="#000000" font-family="sans-serif" font-size="20" lengthAdjust="spacing" textLength="115" x="1498.95" y="2339.7617">SunExposure</text><line style="stroke:#181818;stroke-width:0.5;" x1="1464" x2="1620" y1="2349.1563" y2="2349.1563"/><rect fill="none" height="6" style="stroke:#C82930;stroke-width:1.0;" width="6" x="1471" y="2364.2344"/><text fill="#000000" font-family="sans-serif" font-size="20" lengthAdjust="spacing" textLength="131" x="1484" y="2373.918">String direction</text><line style="stroke:#181818;stroke-width:0.5;" x1="1464" x2="1620" y1="2382.3125" y2="2382.3125"/></g><!--class AvailableEquipment--><g id="elem_AvailableEquipment"><rect codeLine="67" fill="#F1F1F1" height="76.3125" id="AvailableEquipment" rx="2.5" ry="2.5" style="stroke:#181818;stroke-width:0.5;" width="204" x="1679" y="2138.5"/><ellipse cx="1695" cy="2156.0781" fill="#ADD1B2" rx="12" ry="12" style="stroke:#181818;stroke-width:1.0;"/><path d="M1697.1406,2151 Q1697.3281,2150.75 1697.5469,2150.625 Q1697.7656,2150.4844 1698.0156,2150.4844 Q1698.4531,2150.4844 1698.7344,2150.7969 Q1699.0156,2151.0938 1699.0156,2151.8125 L1699.0156,2153.5156 Q1699.0156,2154.2344 1698.7344,2154.5469 Q1698.4531,2154.8594 1698.0156,2154.8594 Q1697.625,2154.8594 1697.375,2154.625 Q1697.125,2154.4063 1697.0156,2153.7969 Q1696.9531,2153.375 1696.7344,2153.1563 Q1696.3438,2152.7188 1695.625,2152.4531 Q1694.9063,2152.1875 1694.1875,2152.1875 Q1693.2813,2152.1875 1692.5313,2152.5781 Q1691.7813,2152.9688 1691.2031,2153.8594 Q1690.625,2154.7344 1690.625,2155.9375 L1690.625,2157.2344 Q1690.625,2158.6875 1691.6719,2159.6563 Q1692.7344,2160.625 1694.5938,2160.625 Q1695.7031,2160.625 1696.4844,2160.3125 Q1696.9219,2160.1406 1697.4375,2159.625 Q1697.75,2159.3125 1697.9219,2159.2188 Q1698.0938,2159.125 1698.3281,2159.125 Q1698.7188,2159.125 1699.0156,2159.4375 Q1699.3281,2159.7344 1699.3281,2160.1406 Q1699.3281,2160.5469 1698.9219,2161.0156 Q1698.3281,2161.7031 1697.3906,2162.0938 Q1696.125,2162.625 1694.6094,2162.625 Q1692.8281,2162.625 1691.4063,2161.8906 Q1690.25,2161.2969 1689.4375,2160.0313 Q1688.625,2158.7656 1688.625,2157.2813 L1688.625,2155.9219 Q1688.625,2154.3594 1689.3438,2153.0156 Q1690.0781,2151.6563 1691.3594,2150.9219 Q1692.6563,2150.1875 1694.1094,2150.1875 Q1694.9688,2150.1875 1695.7188,2150.3906 Q1696.4844,2150.5938 1697.1406,2151 Z " fill="#000000"/><text fill="#000000" font-family="sans-serif" font-size="20" lengthAdjust="spacing" textLength="170" x="1710" y="2164.2617">AvailableEquipment</text><line style="stroke:#181818;stroke-width:0.5;" x1="1680" x2="1882" y1="2173.6563" y2="2173.6563"/><rect fill="none" height="6" style="stroke:#C82930;stroke-width:1.0;" width="6" x="1687" y="2188.7344"/><text fill="#000000" font-family="sans-serif" font-size="20" lengthAdjust="spacing" textLength="147" x="1700" y="2198.418">String equipment</text><line style="stroke:#181818;stroke-width:0.5;" x1="1680" x2="1882" y1="2206.8125" y2="2206.8125"/></g><!--class Business--><g id="elem_Business"><rect codeLine="72" fill="#F1F1F1" height="76.3125" id="Business" rx="2.5" ry="2.5" style="stroke:#181818;stroke-width:0.5;" width="167" x="1136.5" y="1259.5"/><ellipse cx="1177.25" cy="1277.0781" fill="#ADD1B2" rx="12" ry="12" style="stroke:#181818;stroke-width:1.0;"/><path d="M1179.3906,1272 Q1179.5781,1271.75 1179.7969,1271.625 Q1180.0156,1271.4844 1180.2656,1271.4844 Q1180.7031,1271.4844 1180.9844,1271.7969 Q1181.2656,1272.0938 1181.2656,1272.8125 L1181.2656,1274.5156 Q1181.2656,1275.2344 1180.9844,1275.5469 Q1180.7031,1275.8594 1180.2656,1275.8594 Q1179.875,1275.8594 1179.625,1275.625 Q1179.375,1275.4063 1179.2656,1274.7969 Q1179.2031,1274.375 1178.9844,1274.1563 Q1178.5938,1273.7188 1177.875,1273.4531 Q1177.1563,1273.1875 1176.4375,1273.1875 Q1175.5313,1273.1875 1174.7813,1273.5781 Q1174.0313,1273.9688 1173.4531,1274.8594 Q1172.875,1275.7344 1172.875,1276.9375 L1172.875,1278.2344 Q1172.875,1279.6875 1173.9219,1280.6563 Q1174.9844,1281.625 1176.8438,1281.625 Q1177.9531,1281.625 1178.7344,1281.3125 Q1179.1719,1281.1406 1179.6875,1280.625 Q1180,1280.3125 1180.1719,1280.2188 Q1180.3438,1280.125 1180.5781,1280.125 Q1180.9688,1280.125 1181.2656,1280.4375 Q1181.5781,1280.7344 1181.5781,1281.1406 Q1181.5781,1281.5469 1181.1719,1282.0156 Q1180.5781,1282.7031 1179.6406,1283.0938 Q1178.375,1283.625 1176.8594,1283.625 Q1175.0781,1283.625 1173.6563,1282.8906 Q1172.5,1282.2969 1171.6875,1281.0313 Q1170.875,1279.7656 1170.875,1278.2813 L1170.875,1276.9219 Q1170.875,1275.3594 1171.5938,1274.0156 Q1172.3281,1272.6563 1173.6094,1271.9219 Q1174.9063,1271.1875 1176.3594,1271.1875 Q1177.2188,1271.1875 1177.9688,1271.3906 Q1178.7344,1271.5938 1179.3906,1272 Z " fill="#000000"/><text fill="#000000" font-family="sans-serif" font-size="20" lengthAdjust="spacing" textLength="78" x="1197.75" y="1285.2617">Business</text><line style="stroke:#181818;stroke-width:0.5;" x1="1137.5" x2="1302.5" y1="1294.6563" y2="1294.6563"/><rect fill="none" height="6" style="stroke:#C82930;stroke-width:1.0;" width="6" x="1144.5" y="1309.7344"/><text fill="#000000" font-family="sans-serif" font-size="20" lengthAdjust="spacing" textLength="140" x="1157.5" y="1319.418">String totalPrice</text><line style="stroke:#181818;stroke-width:0.5;" x1="1137.5" x2="1302.5" y1="1327.8125" y2="1327.8125"/></g><!--class District--><g id="elem_District"><rect codeLine="77" fill="#F1F1F1" height="151.7813" id="District" rx="2.5" ry="2.5" style="stroke:#181818;stroke-width:0.5;" width="193" x="464.5" y="1674"/><ellipse cx="526" cy="1691.5781" fill="#ADD1B2" rx="12" ry="12" style="stroke:#181818;stroke-width:1.0;"/><path d="M528.1406,1686.5 Q528.3281,1686.25 528.5469,1686.125 Q528.7656,1685.9844 529.0156,1685.9844 Q529.4531,1685.9844 529.7344,1686.2969 Q530.0156,1686.5938 530.0156,1687.3125 L530.0156,1689.0156 Q530.0156,1689.7344 529.7344,1690.0469 Q529.4531,1690.3594 529.0156,1690.3594 Q528.625,1690.3594 528.375,1690.125 Q528.125,1689.9063 528.0156,1689.2969 Q527.9531,1688.875 527.7344,1688.6563 Q527.3438,1688.2188 526.625,1687.9531 Q525.9063,1687.6875 525.1875,1687.6875 Q524.2813,1687.6875 523.5313,1688.0781 Q522.7813,1688.4688 522.2031,1689.3594 Q521.625,1690.2344 521.625,1691.4375 L521.625,1692.7344 Q521.625,1694.1875 522.6719,1695.1563 Q523.7344,1696.125 525.5938,1696.125 Q526.7031,1696.125 527.4844,1695.8125 Q527.9219,1695.6406 528.4375,1695.125 Q528.75,1694.8125 528.9219,1694.7188 Q529.0938,1694.625 529.3281,1694.625 Q529.7188,1694.625 530.0156,1694.9375 Q530.3281,1695.2344 530.3281,1695.6406 Q530.3281,1696.0469 529.9219,1696.5156 Q529.3281,1697.2031 528.3906,1697.5938 Q527.125,1698.125 525.6094,1698.125 Q523.8281,1698.125 522.4063,1697.3906 Q521.25,1696.7969 520.4375,1695.5313 Q519.625,1694.2656 519.625,1692.7813 L519.625,1691.4219 Q519.625,1689.8594 520.3438,1688.5156 Q521.0781,1687.1563 522.3594,1686.4219 Q523.6563,1685.6875 525.1094,1685.6875 Q525.9688,1685.6875 526.7188,1685.8906 Q527.4844,1686.0938 528.1406,1686.5 Z " fill="#000000"/><text fill="#000000" font-family="sans-serif" font-size="20" lengthAdjust="spacing" textLength="61" x="548" y="1699.7617">District</text><line style="stroke:#181818;stroke-width:0.5;" x1="465.5" x2="656.5" y1="1709.1563" y2="1709.1563"/><rect fill="none" height="6" style="stroke:#C82930;stroke-width:1.0;" width="6" x="472.5" y="1724.2344"/><text fill="#000000" font-family="sans-serif" font-size="20" lengthAdjust="spacing" textLength="166" x="485.5" y="1733.918">String districtName</text><line style="stroke:#181818;stroke-width:0.5;" x1="465.5" x2="656.5" y1="1742.3125" y2="1742.3125"/><ellipse cx="475.5" cy="1760.3906" fill="#84BE84" rx="3" ry="3" style="stroke:#038048;stroke-width:1.0;"/><text fill="#000000" font-family="sans-serif" font-size="20" lengthAdjust="spacing" textLength="154" x="485.5" y="1767.0742">getDistrictName()</text><ellipse cx="475.5" cy="1785.5469" fill="#84BE84" rx="3" ry="3" style="stroke:#038048;stroke-width:1.0;"/><text fill="#000000" font-family="sans-serif" font-size="20" lengthAdjust="spacing" textLength="91" x="485.5" y="1792.2305">getCities()</text><ellipse cx="475.5" cy="1810.7031" fill="#84BE84" rx="3" ry="3" style="stroke:#038048;stroke-width:1.0;"/><text fill="#000000" font-family="sans-serif" font-size="20" lengthAdjust="spacing" textLength="82" x="485.5" y="1817.3867">toString()</text></g><!--class City--><g id="elem_City"><rect codeLine="86" fill="#F1F1F1" height="101.4688" id="City" rx="2.5" ry="2.5" style="stroke:#181818;stroke-width:0.5;" width="154" x="220" y="1699.5"/><ellipse cx="275.5" cy="1717.0781" fill="#ADD1B2" rx="12" ry="12" style="stroke:#181818;stroke-width:1.0;"/><path d="M277.6406,1712 Q277.8281,1711.75 278.0469,1711.625 Q278.2656,1711.4844 278.5156,1711.4844 Q278.9531,1711.4844 279.2344,1711.7969 Q279.5156,1712.0938 279.5156,1712.8125 L279.5156,1714.5156 Q279.5156,1715.2344 279.2344,1715.5469 Q278.9531,1715.8594 278.5156,1715.8594 Q278.125,1715.8594 277.875,1715.625 Q277.625,1715.4063 277.5156,1714.7969 Q277.4531,1714.375 277.2344,1714.1563 Q276.8438,1713.7188 276.125,1713.4531 Q275.4063,1713.1875 274.6875,1713.1875 Q273.7813,1713.1875 273.0313,1713.5781 Q272.2813,1713.9688 271.7031,1714.8594 Q271.125,1715.7344 271.125,1716.9375 L271.125,1718.2344 Q271.125,1719.6875 272.1719,1720.6563 Q273.2344,1721.625 275.0938,1721.625 Q276.2031,1721.625 276.9844,1721.3125 Q277.4219,1721.1406 277.9375,1720.625 Q278.25,1720.3125 278.4219,1720.2188 Q278.5938,1720.125 278.8281,1720.125 Q279.2188,1720.125 279.5156,1720.4375 Q279.8281,1720.7344 279.8281,1721.1406 Q279.8281,1721.5469 279.4219,1722.0156 Q278.8281,1722.7031 277.8906,1723.0938 Q276.625,1723.625 275.1094,1723.625 Q273.3281,1723.625 271.9063,1722.8906 Q270.75,1722.2969 269.9375,1721.0313 Q269.125,1719.7656 269.125,1718.2813 L269.125,1716.9219 Q269.125,1715.3594 269.8438,1714.0156 Q270.5781,1712.6563 271.8594,1711.9219 Q273.1563,1711.1875 274.6094,1711.1875 Q275.4688,1711.1875 276.2188,1711.3906 Q276.9844,1711.5938 277.6406,1712 Z " fill="#000000"/><text fill="#000000" font-family="sans-serif" font-size="20" lengthAdjust="spacing" textLength="34" x="297.5" y="1725.2617">City</text><line style="stroke:#181818;stroke-width:0.5;" x1="221" x2="373" y1="1734.6563" y2="1734.6563"/><rect fill="none" height="6" style="stroke:#C82930;stroke-width:1.0;" width="6" x="228" y="1749.7344"/><text fill="#000000" font-family="sans-serif" font-size="20" lengthAdjust="spacing" textLength="87" x="241" y="1759.418">String city</text><line style="stroke:#181818;stroke-width:0.5;" x1="221" x2="373" y1="1767.8125" y2="1767.8125"/><ellipse cx="231" cy="1785.8906" fill="#84BE84" rx="3" ry="3" style="stroke:#038048;stroke-width:1.0;"/><text fill="#000000" font-family="sans-serif" font-size="20" lengthAdjust="spacing" textLength="127" x="241" y="1792.5742">getCityName()</text></g><!--class Comission--><g id="elem_Comission"><rect codeLine="93" fill="#F1F1F1" height="76.3125" id="Comission" rx="2.5" ry="2.5" style="stroke:#181818;stroke-width:0.5;" width="139" x="1430.5" y="1460.5"/><ellipse cx="1453.25" cy="1478.0781" fill="#ADD1B2" rx="12" ry="12" style="stroke:#181818;stroke-width:1.0;"/><path d="M1455.3906,1473 Q1455.5781,1472.75 1455.7969,1472.625 Q1456.0156,1472.4844 1456.2656,1472.4844 Q1456.7031,1472.4844 1456.9844,1472.7969 Q1457.2656,1473.0938 1457.2656,1473.8125 L1457.2656,1475.5156 Q1457.2656,1476.2344 1456.9844,1476.5469 Q1456.7031,1476.8594 1456.2656,1476.8594 Q1455.875,1476.8594 1455.625,1476.625 Q1455.375,1476.4063 1455.2656,1475.7969 Q1455.2031,1475.375 1454.9844,1475.1563 Q1454.5938,1474.7188 1453.875,1474.4531 Q1453.1563,1474.1875 1452.4375,1474.1875 Q1451.5313,1474.1875 1450.7813,1474.5781 Q1450.0313,1474.9688 1449.4531,1475.8594 Q1448.875,1476.7344 1448.875,1477.9375 L1448.875,1479.2344 Q1448.875,1480.6875 1449.9219,1481.6563 Q1450.9844,1482.625 1452.8438,1482.625 Q1453.9531,1482.625 1454.7344,1482.3125 Q1455.1719,1482.1406 1455.6875,1481.625 Q1456,1481.3125 1456.1719,1481.2188 Q1456.3438,1481.125 1456.5781,1481.125 Q1456.9688,1481.125 1457.2656,1481.4375 Q1457.5781,1481.7344 1457.5781,1482.1406 Q1457.5781,1482.5469 1457.1719,1483.0156 Q1456.5781,1483.7031 1455.6406,1484.0938 Q1454.375,1484.625 1452.8594,1484.625 Q1451.0781,1484.625 1449.6563,1483.8906 Q1448.5,1483.2969 1447.6875,1482.0313 Q1446.875,1480.7656 1446.875,1479.2813 L1446.875,1477.9219 Q1446.875,1476.3594 1447.5938,1475.0156 Q1448.3281,1473.6563 1449.6094,1472.9219 Q1450.9063,1472.1875 1452.3594,1472.1875 Q1453.2188,1472.1875 1453.9688,1472.3906 Q1454.7344,1472.5938 1455.3906,1473 Z " fill="#000000"/><text fill="#000000" font-family="sans-serif" font-size="20" lengthAdjust="spacing" textLength="90" x="1469.75" y="1486.2617">Comission</text><line style="stroke:#181818;stroke-width:0.5;" x1="1431.5" x2="1568.5" y1="1495.6563" y2="1495.6563"/><rect fill="none" height="6" style="stroke:#C82930;stroke-width:1.0;" width="6" x="1438.5" y="1510.7344"/><text fill="#000000" font-family="sans-serif" font-size="20" lengthAdjust="spacing" textLength="112" x="1451.5" y="1520.418">Double value</text><line style="stroke:#181818;stroke-width:0.5;" x1="1431.5" x2="1568.5" y1="1528.8125" y2="1528.8125"/></g><!--class Photos--><g id="elem_Photos"><rect codeLine="100" fill="#F1F1F1" height="76.3125" id="Photos" rx="2.5" ry="2.5" style="stroke:#181818;stroke-width:0.5;" width="114" x="1605" y="1460.5"/><ellipse cx="1629.55" cy="1478.0781" fill="#ADD1B2" rx="12" ry="12" style="stroke:#181818;stroke-width:1.0;"/><path d="M1631.6906,1473 Q1631.8781,1472.75 1632.0969,1472.625 Q1632.3156,1472.4844 1632.5656,1472.4844 Q1633.0031,1472.4844 1633.2844,1472.7969 Q1633.5656,1473.0938 1633.5656,1473.8125 L1633.5656,1475.5156 Q1633.5656,1476.2344 1633.2844,1476.5469 Q1633.0031,1476.8594 1632.5656,1476.8594 Q1632.175,1476.8594 1631.925,1476.625 Q1631.675,1476.4063 1631.5656,1475.7969 Q1631.5031,1475.375 1631.2844,1475.1563 Q1630.8938,1474.7188 1630.175,1474.4531 Q1629.4563,1474.1875 1628.7375,1474.1875 Q1627.8313,1474.1875 1627.0813,1474.5781 Q1626.3313,1474.9688 1625.7531,1475.8594 Q1625.175,1476.7344 1625.175,1477.9375 L1625.175,1479.2344 Q1625.175,1480.6875 1626.2219,1481.6563 Q1627.2844,1482.625 1629.1438,1482.625 Q1630.2531,1482.625 1631.0344,1482.3125 Q1631.4719,1482.1406 1631.9875,1481.625 Q1632.3,1481.3125 1632.4719,1481.2188 Q1632.6438,1481.125 1632.8781,1481.125 Q1633.2688,1481.125 1633.5656,1481.4375 Q1633.8781,1481.7344 1633.8781,1482.1406 Q1633.8781,1482.5469 1633.4719,1483.0156 Q1632.8781,1483.7031 1631.9406,1484.0938 Q1630.675,1484.625 1629.1594,1484.625 Q1627.3781,1484.625 1625.9563,1483.8906 Q1624.8,1483.2969 1623.9875,1482.0313 Q1623.175,1480.7656 1623.175,1479.2813 L1623.175,1477.9219 Q1623.175,1476.3594 1623.8938,1475.0156 Q1624.6281,1473.6563 1625.9094,1472.9219 Q1627.2063,1472.1875 1628.6594,1472.1875 Q1629.5188,1472.1875 1630.2688,1472.3906 Q1631.0344,1472.5938 1631.6906,1473 Z " fill="#000000"/><text fill="#000000" font-family="sans-serif" font-size="20" lengthAdjust="spacing" textLength="61" x="1646.45" y="1486.2617">Photos</text><line style="stroke:#181818;stroke-width:0.5;" x1="1606" x2="1718" y1="1495.6563" y2="1495.6563"/><rect fill="none" height="6" style="stroke:#C82930;stroke-width:1.0;" width="6" x="1613" y="1510.7344"/><text fill="#000000" font-family="sans-serif" font-size="20" lengthAdjust="spacing" textLength="87" x="1626" y="1520.418">String uRI</text><line style="stroke:#181818;stroke-width:0.5;" x1="1606" x2="1718" y1="1528.8125" y2="1528.8125"/></g><!--class Property--><g id="elem_Property"><rect codeLine="104" fill="#F1F1F1" height="126.625" id="Property" rx="2.5" ry="2.5" style="stroke:#181818;stroke-width:0.5;" width="302" x="1511" y="1686.5"/><ellipse cx="1619.5" cy="1704.0781" fill="#ADD1B2" rx="12" ry="12" style="stroke:#181818;stroke-width:1.0;"/><path d="M1621.6406,1699 Q1621.8281,1698.75 1622.0469,1698.625 Q1622.2656,1698.4844 1622.5156,1698.4844 Q1622.9531,1698.4844 1623.2344,1698.7969 Q1623.5156,1699.0938 1623.5156,1699.8125 L1623.5156,1701.5156 Q1623.5156,1702.2344 1623.2344,1702.5469 Q1622.9531,1702.8594 1622.5156,1702.8594 Q1622.125,1702.8594 1621.875,1702.625 Q1621.625,1702.4063 1621.5156,1701.7969 Q1621.4531,1701.375 1621.2344,1701.1563 Q1620.8438,1700.7188 1620.125,1700.4531 Q1619.4063,1700.1875 1618.6875,1700.1875 Q1617.7813,1700.1875 1617.0313,1700.5781 Q1616.2813,1700.9688 1615.7031,1701.8594 Q1615.125,1702.7344 1615.125,1703.9375 L1615.125,1705.2344 Q1615.125,1706.6875 1616.1719,1707.6563 Q1617.2344,1708.625 1619.0938,1708.625 Q1620.2031,1708.625 1620.9844,1708.3125 Q1621.4219,1708.1406 1621.9375,1707.625 Q1622.25,1707.3125 1622.4219,1707.2188 Q1622.5938,1707.125 1622.8281,1707.125 Q1623.2188,1707.125 1623.5156,1707.4375 Q1623.8281,1707.7344 1623.8281,1708.1406 Q1623.8281,1708.5469 1623.4219,1709.0156 Q1622.8281,1709.7031 1621.8906,1710.0938 Q1620.625,1710.625 1619.1094,1710.625 Q1617.3281,1710.625 1615.9063,1709.8906 Q1614.75,1709.2969 1613.9375,1708.0313 Q1613.125,1706.7656 1613.125,1705.2813 L1613.125,1703.9219 Q1613.125,1702.3594 1613.8438,1701.0156 Q1614.5781,1699.6563 1615.8594,1698.9219 Q1617.1563,1698.1875 1618.6094,1698.1875 Q1619.4688,1698.1875 1620.2188,1698.3906 Q1620.9844,1698.5938 1621.6406,1699 Z " fill="#000000"/><text fill="#000000" font-family="sans-serif" font-size="20" lengthAdjust="spacing" textLength="76" x="1641.5" y="1712.2617">Property</text><line style="stroke:#181818;stroke-width:0.5;" x1="1512" x2="1812" y1="1721.6563" y2="1721.6563"/><rect fill="none" height="6" style="stroke:#C82930;stroke-width:1.0;" width="6" x="1519" y="1736.7344"/><text fill="#000000" font-family="sans-serif" font-size="20" lengthAdjust="spacing" textLength="66" x="1532" y="1746.418">int area</text><rect fill="none" height="6" style="stroke:#C82930;stroke-width:1.0;" width="6" x="1519" y="1761.8906"/><text fill="#000000" font-family="sans-serif" font-size="20" lengthAdjust="spacing" textLength="126" x="1532" y="1771.5742">Photos photos</text><rect fill="none" height="6" style="stroke:#C82930;stroke-width:1.0;" width="6" x="1519" y="1787.0469"/><text fill="#000000" font-family="sans-serif" font-size="20" lengthAdjust="spacing" textLength="275" x="1532" y="1796.7305">int distance from the city center</text><line style="stroke:#181818;stroke-width:0.5;" x1="1512" x2="1812" y1="1805.125" y2="1805.125"/></g><!--class PublishedAnnouncement--><g id="elem_PublishedAnnouncement"><rect codeLine="110" fill="#F1F1F1" height="51.1563" id="PublishedAnnouncement" rx="2.5" ry="2.5" style="stroke:#181818;stroke-width:0.5;" width="246" x="1097" y="1473"/><ellipse cx="1113" cy="1490.5781" fill="#ADD1B2" rx="12" ry="12" style="stroke:#181818;stroke-width:1.0;"/><path d="M1115.1406,1485.5 Q1115.3281,1485.25 1115.5469,1485.125 Q1115.7656,1484.9844 1116.0156,1484.9844 Q1116.4531,1484.9844 1116.7344,1485.2969 Q1117.0156,1485.5938 1117.0156,1486.3125 L1117.0156,1488.0156 Q1117.0156,1488.7344 1116.7344,1489.0469 Q1116.4531,1489.3594 1116.0156,1489.3594 Q1115.625,1489.3594 1115.375,1489.125 Q1115.125,1488.9063 1115.0156,1488.2969 Q1114.9531,1487.875 1114.7344,1487.6563 Q1114.3438,1487.2188 1113.625,1486.9531 Q1112.9063,1486.6875 1112.1875,1486.6875 Q1111.2813,1486.6875 1110.5313,1487.0781 Q1109.7813,1487.4688 1109.2031,1488.3594 Q1108.625,1489.2344 1108.625,1490.4375 L1108.625,1491.7344 Q1108.625,1493.1875 1109.6719,1494.1563 Q1110.7344,1495.125 1112.5938,1495.125 Q1113.7031,1495.125 1114.4844,1494.8125 Q1114.9219,1494.6406 1115.4375,1494.125 Q1115.75,1493.8125 1115.9219,1493.7188 Q1116.0938,1493.625 1116.3281,1493.625 Q1116.7188,1493.625 1117.0156,1493.9375 Q1117.3281,1494.2344 1117.3281,1494.6406 Q1117.3281,1495.0469 1116.9219,1495.5156 Q1116.3281,1496.2031 1115.3906,1496.5938 Q1114.125,1497.125 1112.6094,1497.125 Q1110.8281,1497.125 1109.4063,1496.3906 Q1108.25,1495.7969 1107.4375,1494.5313 Q1106.625,1493.2656 1106.625,1491.7813 L1106.625,1490.4219 Q1106.625,1488.8594 1107.3438,1487.5156 Q1108.0781,1486.1563 1109.3594,1485.4219 Q1110.6563,1484.6875 1112.1094,1484.6875 Q1112.9688,1484.6875 1113.7188,1484.8906 Q1114.4844,1485.0938 1115.1406,1485.5 Z " fill="#000000"/><text fill="#000000" font-family="sans-serif" font-size="20" lengthAdjust="spacing" textLength="212" x="1128" y="1498.7617">PublishedAnnouncement</text><line style="stroke:#181818;stroke-width:0.5;" x1="1098" x2="1342" y1="1508.1563" y2="1508.1563"/><line style="stroke:#181818;stroke-width:0.5;" x1="1098" x2="1342" y1="1516.1563" y2="1516.1563"/></g><!--class State--><g id="elem_State"><rect codeLine="113" fill="#F1F1F1" height="151.7813" id="State" rx="2.5" ry="2.5" style="stroke:#181818;stroke-width:0.5;" width="179" x="748.5" y="1674"/><ellipse cx="810" cy="1691.5781" fill="#ADD1B2" rx="12" ry="12" style="stroke:#181818;stroke-width:1.0;"/><path d="M812.1406,1686.5 Q812.3281,1686.25 812.5469,1686.125 Q812.7656,1685.9844 813.0156,1685.9844 Q813.4531,1685.9844 813.7344,1686.2969 Q814.0156,1686.5938 814.0156,1687.3125 L814.0156,1689.0156 Q814.0156,1689.7344 813.7344,1690.0469 Q813.4531,1690.3594 813.0156,1690.3594 Q812.625,1690.3594 812.375,1690.125 Q812.125,1689.9063 812.0156,1689.2969 Q811.9531,1688.875 811.7344,1688.6563 Q811.3438,1688.2188 810.625,1687.9531 Q809.9063,1687.6875 809.1875,1687.6875 Q808.2813,1687.6875 807.5313,1688.0781 Q806.7813,1688.4688 806.2031,1689.3594 Q805.625,1690.2344 805.625,1691.4375 L805.625,1692.7344 Q805.625,1694.1875 806.6719,1695.1563 Q807.7344,1696.125 809.5938,1696.125 Q810.7031,1696.125 811.4844,1695.8125 Q811.9219,1695.6406 812.4375,1695.125 Q812.75,1694.8125 812.9219,1694.7188 Q813.0938,1694.625 813.3281,1694.625 Q813.7188,1694.625 814.0156,1694.9375 Q814.3281,1695.2344 814.3281,1695.6406 Q814.3281,1696.0469 813.9219,1696.5156 Q813.3281,1697.2031 812.3906,1697.5938 Q811.125,1698.125 809.6094,1698.125 Q807.8281,1698.125 806.4063,1697.3906 Q805.25,1696.7969 804.4375,1695.5313 Q803.625,1694.2656 803.625,1692.7813 L803.625,1691.4219 Q803.625,1689.8594 804.3438,1688.5156 Q805.0781,1687.1563 806.3594,1686.4219 Q807.6563,1685.6875 809.1094,1685.6875 Q809.9688,1685.6875 810.7188,1685.8906 Q811.4844,1686.0938 812.1406,1686.5 Z " fill="#000000"/><text fill="#000000" font-family="sans-serif" font-size="20" lengthAdjust="spacing" textLength="47" x="832" y="1699.7617">State</text><line style="stroke:#181818;stroke-width:0.5;" x1="749.5" x2="926.5" y1="1709.1563" y2="1709.1563"/><rect fill="none" height="6" style="stroke:#C82930;stroke-width:1.0;" width="6" x="756.5" y="1724.2344"/><text fill="#000000" font-family="sans-serif" font-size="20" lengthAdjust="spacing" textLength="152" x="769.5" y="1733.918">String stateName</text><line style="stroke:#181818;stroke-width:0.5;" x1="749.5" x2="926.5" y1="1742.3125" y2="1742.3125"/><ellipse cx="759.5" cy="1760.3906" fill="#84BE84" rx="3" ry="3" style="stroke:#038048;stroke-width:1.0;"/><text fill="#000000" font-family="sans-serif" font-size="20" lengthAdjust="spacing" textLength="89" x="769.5" y="1767.0742">getState()</text><ellipse cx="759.5" cy="1785.5469" fill="#84BE84" rx="3" ry="3" style="stroke:#038048;stroke-width:1.0;"/><text fill="#000000" font-family="sans-serif" font-size="20" lengthAdjust="spacing" textLength="113" x="769.5" y="1792.2305">getDistricts()</text><ellipse cx="759.5" cy="1810.7031" fill="#84BE84" rx="3" ry="3" style="stroke:#038048;stroke-width:1.0;"/><text fill="#000000" font-family="sans-serif" font-size="20" lengthAdjust="spacing" textLength="82" x="769.5" y="1817.3867">toString()</text></g><!--class TypeOfProperty--><g id="elem_TypeOfProperty"><rect codeLine="124" fill="#F1F1F1" height="76.3125" id="TypeOfProperty" rx="2.5" ry="2.5" style="stroke:#181818;stroke-width:0.5;" width="176" x="1754" y="1460.5"/><ellipse cx="1770" cy="1478.0781" fill="#ADD1B2" rx="12" ry="12" style="stroke:#181818;stroke-width:1.0;"/><path d="M1772.1406,1473 Q1772.3281,1472.75 1772.5469,1472.625 Q1772.7656,1472.4844 1773.0156,1472.4844 Q1773.4531,1472.4844 1773.7344,1472.7969 Q1774.0156,1473.0938 1774.0156,1473.8125 L1774.0156,1475.5156 Q1774.0156,1476.2344 1773.7344,1476.5469 Q1773.4531,1476.8594 1773.0156,1476.8594 Q1772.625,1476.8594 1772.375,1476.625 Q1772.125,1476.4063 1772.0156,1475.7969 Q1771.9531,1475.375 1771.7344,1475.1563 Q1771.3438,1474.7188 1770.625,1474.4531 Q1769.9063,1474.1875 1769.1875,1474.1875 Q1768.2813,1474.1875 1767.5313,1474.5781 Q1766.7813,1474.9688 1766.2031,1475.8594 Q1765.625,1476.7344 1765.625,1477.9375 L1765.625,1479.2344 Q1765.625,1480.6875 1766.6719,1481.6563 Q1767.7344,1482.625 1769.5938,1482.625 Q1770.7031,1482.625 1771.4844,1482.3125 Q1771.9219,1482.1406 1772.4375,1481.625 Q1772.75,1481.3125 1772.9219,1481.2188 Q1773.0938,1481.125 1773.3281,1481.125 Q1773.7188,1481.125 1774.0156,1481.4375 Q1774.3281,1481.7344 1774.3281,1482.1406 Q1774.3281,1482.5469 1773.9219,1483.0156 Q1773.3281,1483.7031 1772.3906,1484.0938 Q1771.125,1484.625 1769.6094,1484.625 Q1767.8281,1484.625 1766.4063,1483.8906 Q1765.25,1483.2969 1764.4375,1482.0313 Q1763.625,1480.7656 1763.625,1479.2813 L1763.625,1477.9219 Q1763.625,1476.3594 1764.3438,1475.0156 Q1765.0781,1473.6563 1766.3594,1472.9219 Q1767.6563,1472.1875 1769.1094,1472.1875 Q1769.9688,1472.1875 1770.7188,1472.3906 Q1771.4844,1472.5938 1772.1406,1473 Z " fill="#000000"/><text fill="#000000" font-family="sans-serif" font-size="20" lengthAdjust="spacing" textLength="142" x="1785" y="1486.2617">TypeOfProperty</text><line style="stroke:#181818;stroke-width:0.5;" x1="1755" x2="1929" y1="1495.6563" y2="1495.6563"/><rect fill="none" height="6" style="stroke:#C82930;stroke-width:1.0;" width="6" x="1762" y="1510.7344"/><text fill="#000000" font-family="sans-serif" font-size="20" lengthAdjust="spacing" textLength="95" x="1775" y="1520.418">String type</text><line style="stroke:#181818;stroke-width:0.5;" x1="1755" x2="1929" y1="1528.8125" y2="1528.8125"/></g><!--class OfferMapper--><g id="elem_OfferMapper"><rect codeLine="152" fill="#F1F1F1" height="101.4688" id="OfferMapper" rx="2.5" ry="2.5" style="stroke:#181818;stroke-width:0.5;" width="188" x="113" y="346"/><ellipse cx="147" cy="363.5781" fill="#ADD1B2" rx="12" ry="12" style="stroke:#181818;stroke-width:1.0;"/><path d="M149.1406,358.5 Q149.3281,358.25 149.5469,358.125 Q149.7656,357.9844 150.0156,357.9844 Q150.4531,357.9844 150.7344,358.2969 Q151.0156,358.5938 151.0156,359.3125 L151.0156,361.0156 Q151.0156,361.7344 150.7344,362.0469 Q150.4531,362.3594 150.0156,362.3594 Q149.625,362.3594 149.375,362.125 Q149.125,361.9063 149.0156,361.2969 Q148.9531,360.875 148.7344,360.6563 Q148.3438,360.2188 147.625,359.9531 Q146.9063,359.6875 146.1875,359.6875 Q145.2813,359.6875 144.5313,360.0781 Q143.7813,360.4688 143.2031,361.3594 Q142.625,362.2344 142.625,363.4375 L142.625,364.7344 Q142.625,366.1875 143.6719,367.1563 Q144.7344,368.125 146.5938,368.125 Q147.7031,368.125 148.4844,367.8125 Q148.9219,367.6406 149.4375,367.125 Q149.75,366.8125 149.9219,366.7188 Q150.0938,366.625 150.3281,366.625 Q150.7188,366.625 151.0156,366.9375 Q151.3281,367.2344 151.3281,367.6406 Q151.3281,368.0469 150.9219,368.5156 Q150.3281,369.2031 149.3906,369.5938 Q148.125,370.125 146.6094,370.125 Q144.8281,370.125 143.4063,369.3906 Q142.25,368.7969 141.4375,367.5313 Q140.625,366.2656 140.625,364.7813 L140.625,363.4219 Q140.625,361.8594 141.3438,360.5156 Q142.0781,359.1563 143.3594,358.4219 Q144.6563,357.6875 146.1094,357.6875 Q146.9688,357.6875 147.7188,357.8906 Q148.4844,358.0938 149.1406,358.5 Z " fill="#000000"/><text fill="#000000" font-family="sans-serif" font-size="20" lengthAdjust="spacing" textLength="114" x="166" y="371.7617">OfferMapper</text><line style="stroke:#181818;stroke-width:0.5;" x1="114" x2="300" y1="381.1563" y2="381.1563"/><line style="stroke:#181818;stroke-width:0.5;" x1="114" x2="300" y1="389.1563" y2="389.1563"/><ellipse cx="124" cy="407.2344" fill="#84BE84" rx="3" ry="3" style="stroke:#038048;stroke-width:1.0;"/><text fill="#000000" font-family="sans-serif" font-size="20" lengthAdjust="spacing" textLength="134" x="134" y="413.918">toDto(offerList)</text><ellipse cx="124" cy="432.3906" fill="#84BE84" rx="3" ry="3" style="stroke:#038048;stroke-width:1.0;"/><text fill="#000000" font-family="sans-serif" font-size="20" lengthAdjust="spacing" textLength="161" x="134" y="439.0742">toDtoObject(offer)</text></g><!--class OfferRepository--><g id="elem_OfferRepository"><rect codeLine="157" fill="#F1F1F1" height="76.3125" id="OfferRepository" rx="2.5" ry="2.5" style="stroke:#181818;stroke-width:0.5;" width="383" x="755.5" y="358.5"/><ellipse cx="872" cy="376.0781" fill="#ADD1B2" rx="12" ry="12" style="stroke:#181818;stroke-width:1.0;"/><path d="M874.1406,371 Q874.3281,370.75 874.5469,370.625 Q874.7656,370.4844 875.0156,370.4844 Q875.4531,370.4844 875.7344,370.7969 Q876.0156,371.0938 876.0156,371.8125 L876.0156,373.5156 Q876.0156,374.2344 875.7344,374.5469 Q875.4531,374.8594 875.0156,374.8594 Q874.625,374.8594 874.375,374.625 Q874.125,374.4063 874.0156,373.7969 Q873.9531,373.375 873.7344,373.1563 Q873.3438,372.7188 872.625,372.4531 Q871.9063,372.1875 871.1875,372.1875 Q870.2813,372.1875 869.5313,372.5781 Q868.7813,372.9688 868.2031,373.8594 Q867.625,374.7344 867.625,375.9375 L867.625,377.2344 Q867.625,378.6875 868.6719,379.6563 Q869.7344,380.625 871.5938,380.625 Q872.7031,380.625 873.4844,380.3125 Q873.9219,380.1406 874.4375,379.625 Q874.75,379.3125 874.9219,379.2188 Q875.0938,379.125 875.3281,379.125 Q875.7188,379.125 876.0156,379.4375 Q876.3281,379.7344 876.3281,380.1406 Q876.3281,380.5469 875.9219,381.0156 Q875.3281,381.7031 874.3906,382.0938 Q873.125,382.625 871.6094,382.625 Q869.8281,382.625 868.4063,381.8906 Q867.25,381.2969 866.4375,380.0313 Q865.625,378.7656 865.625,377.2813 L865.625,375.9219 Q865.625,374.3594 866.3438,373.0156 Q867.0781,371.6563 868.3594,370.9219 Q869.6563,370.1875 871.1094,370.1875 Q871.9688,370.1875 872.7188,370.3906 Q873.4844,370.5938 874.1406,371 Z " fill="#000000"/><text fill="#000000" font-family="sans-serif" font-size="20" lengthAdjust="spacing" textLength="141" x="894" y="384.2617">OfferRepository</text><line style="stroke:#181818;stroke-width:0.5;" x1="756.5" x2="1137.5" y1="393.6563" y2="393.6563"/><line style="stroke:#181818;stroke-width:0.5;" x1="756.5" x2="1137.5" y1="401.6563" y2="401.6563"/><ellipse cx="766.5" cy="419.7344" fill="#84BE84" rx="3" ry="3" style="stroke:#038048;stroke-width:1.0;"/><text fill="#000000" font-family="sans-serif" font-size="20" lengthAdjust="spacing" textLength="356" x="776.5" y="426.418">getOrganizationByEmployeeEmail(email)</text></g><!--class Repositories--><g id="elem_Repositories"><rect codeLine="161" fill="#F1F1F1" height="126.625" id="Repositories" rx="2.5" ry="2.5" style="stroke:#181818;stroke-width:0.5;" width="271" x="811.5" y="69.5"/><ellipse cx="887.5" cy="87.0781" fill="#ADD1B2" rx="12" ry="12" style="stroke:#181818;stroke-width:1.0;"/><path d="M889.6406,82 Q889.8281,81.75 890.0469,81.625 Q890.2656,81.4844 890.5156,81.4844 Q890.9531,81.4844 891.2344,81.7969 Q891.5156,82.0938 891.5156,82.8125 L891.5156,84.5156 Q891.5156,85.2344 891.2344,85.5469 Q890.9531,85.8594 890.5156,85.8594 Q890.125,85.8594 889.875,85.625 Q889.625,85.4063 889.5156,84.7969 Q889.4531,84.375 889.2344,84.1563 Q888.8438,83.7188 888.125,83.4531 Q887.4063,83.1875 886.6875,83.1875 Q885.7813,83.1875 885.0313,83.5781 Q884.2813,83.9688 883.7031,84.8594 Q883.125,85.7344 883.125,86.9375 L883.125,88.2344 Q883.125,89.6875 884.1719,90.6563 Q885.2344,91.625 887.0938,91.625 Q888.2031,91.625 888.9844,91.3125 Q889.4219,91.1406 889.9375,90.625 Q890.25,90.3125 890.4219,90.2188 Q890.5938,90.125 890.8281,90.125 Q891.2188,90.125 891.5156,90.4375 Q891.8281,90.7344 891.8281,91.1406 Q891.8281,91.5469 891.4219,92.0156 Q890.8281,92.7031 889.8906,93.0938 Q888.625,93.625 887.1094,93.625 Q885.3281,93.625 883.9063,92.8906 Q882.75,92.2969 881.9375,91.0313 Q881.125,89.7656 881.125,88.2813 L881.125,86.9219 Q881.125,85.3594 881.8438,84.0156 Q882.5781,82.6563 883.8594,81.9219 Q885.1563,81.1875 886.6094,81.1875 Q887.4688,81.1875 888.2188,81.3906 Q888.9844,81.5938 889.6406,82 Z " fill="#000000"/><text fill="#000000" font-family="sans-serif" font-size="20" lengthAdjust="spacing" textLength="110" x="909.5" y="95.2617">Repositories</text><line style="stroke:#181818;stroke-width:0.5;" x1="812.5" x2="1081.5" y1="104.6563" y2="104.6563"/><line style="stroke:#181818;stroke-width:0.5;" x1="812.5" x2="1081.5" y1="112.6563" y2="112.6563"/><rect fill="#F24D5C" height="6" style="stroke:#C82930;stroke-width:1.0;" width="6" x="819.5" y="127.7344"/><text fill="#000000" font-family="sans-serif" font-size="20" lengthAdjust="spacing" textLength="124" x="832.5" y="137.418">Repositories()</text><ellipse cx="822.5" cy="155.8906" fill="#84BE84" rx="3" ry="3" style="stroke:#038048;stroke-width:1.0;"/><text fill="#000000" font-family="sans-serif" font-size="20" lengthAdjust="spacing" textLength="244" x="832.5" y="162.5742">getInstance() : Repositories</text><ellipse cx="822.5" cy="181.0469" fill="#84BE84" rx="3" ry="3" style="stroke:#038048;stroke-width:1.0;"/><text fill="#000000" font-family="sans-serif" font-size="20" lengthAdjust="spacing" textLength="183" x="832.5" y="187.7305">getOfferRepository()</text></g><!--class ListDealsController--><g id="elem_ListDealsController"><rect codeLine="167" fill="#F1F1F1" height="252.4063" id="ListDealsController" rx="2.5" ry="2.5" style="stroke:#181818;stroke-width:0.5;" width="403" x="268.5" y="7"/><ellipse cx="382.5" cy="24.5781" fill="#ADD1B2" rx="12" ry="12" style="stroke:#181818;stroke-width:1.0;"/><path d="M384.6406,19.5 Q384.8281,19.25 385.0469,19.125 Q385.2656,18.9844 385.5156,18.9844 Q385.9531,18.9844 386.2344,19.2969 Q386.5156,19.5938 386.5156,20.3125 L386.5156,22.0156 Q386.5156,22.7344 386.2344,23.0469 Q385.9531,23.3594 385.5156,23.3594 Q385.125,23.3594 384.875,23.125 Q384.625,22.9063 384.5156,22.2969 Q384.4531,21.875 384.2344,21.6563 Q383.8438,21.2188 383.125,20.9531 Q382.4063,20.6875 381.6875,20.6875 Q380.7813,20.6875 380.0313,21.0781 Q379.2813,21.4688 378.7031,22.3594 Q378.125,23.2344 378.125,24.4375 L378.125,25.7344 Q378.125,27.1875 379.1719,28.1563 Q380.2344,29.125 382.0938,29.125 Q383.2031,29.125 383.9844,28.8125 Q384.4219,28.6406 384.9375,28.125 Q385.25,27.8125 385.4219,27.7188 Q385.5938,27.625 385.8281,27.625 Q386.2188,27.625 386.5156,27.9375 Q386.8281,28.2344 386.8281,28.6406 Q386.8281,29.0469 386.4219,29.5156 Q385.8281,30.2031 384.8906,30.5938 Q383.625,31.125 382.1094,31.125 Q380.3281,31.125 378.9063,30.3906 Q377.75,29.7969 376.9375,28.5313 Q376.125,27.2656 376.125,25.7813 L376.125,24.4219 Q376.125,22.8594 376.8438,21.5156 Q377.5781,20.1563 378.8594,19.4219 Q380.1563,18.6875 381.6094,18.6875 Q382.4688,18.6875 383.2188,18.8906 Q383.9844,19.0938 384.6406,19.5 Z " fill="#000000"/><text fill="#000000" font-family="sans-serif" font-size="20" lengthAdjust="spacing" textLength="166" x="404.5" y="32.7617">ListDealsController</text><line style="stroke:#181818;stroke-width:0.5;" x1="269.5" x2="670.5" y1="42.1563" y2="42.1563"/><line style="stroke:#181818;stroke-width:0.5;" x1="269.5" x2="670.5" y1="50.1563" y2="50.1563"/><ellipse cx="279.5" cy="68.2344" fill="#84BE84" rx="3" ry="3" style="stroke:#038048;stroke-width:1.0;"/><text fill="#000000" font-family="sans-serif" font-size="20" lengthAdjust="spacing" textLength="316" x="289.5" y="74.918">ListDealsController(offerRepository)</text><ellipse cx="279.5" cy="93.3906" fill="#84BE84" rx="3" ry="3" style="stroke:#038048;stroke-width:1.0;"/><text fill="#000000" font-family="sans-serif" font-size="20" lengthAdjust="spacing" textLength="344" x="289.5" y="100.0742">getDealsByAscendingAreaBubbleSort()</text><ellipse cx="279.5" cy="118.5469" fill="#84BE84" rx="3" ry="3" style="stroke:#038048;stroke-width:1.0;"/><text fill="#000000" font-family="sans-serif" font-size="20" lengthAdjust="spacing" textLength="356" x="289.5" y="125.2305">getDealsByDescendingAreaBubbleSort()</text><ellipse cx="279.5" cy="143.7031" fill="#84BE84" rx="3" ry="3" style="stroke:#038048;stroke-width:1.0;"/><text fill="#000000" font-family="sans-serif" font-size="20" lengthAdjust="spacing" textLength="364" x="289.5" y="150.3867">getDealsByAscendingAreaSortSelection()</text><ellipse cx="279.5" cy="168.8594" fill="#84BE84" rx="3" ry="3" style="stroke:#038048;stroke-width:1.0;"/><text fill="#000000" font-family="sans-serif" font-size="20" lengthAdjust="spacing" textLength="376" x="289.5" y="175.543">getDealsByDescendingAreaSortSelection()</text><ellipse cx="279.5" cy="194.0156" fill="#84BE84" rx="3" ry="3" style="stroke:#038048;stroke-width:1.0;"/><text fill="#000000" font-family="sans-serif" font-size="20" lengthAdjust="spacing" textLength="194" x="289.5" y="200.6992">toDtoAscendingArea()</text><ellipse cx="279.5" cy="219.1719" fill="#84BE84" rx="3" ry="3" style="stroke:#038048;stroke-width:1.0;"/><text fill="#000000" font-family="sans-serif" font-size="20" lengthAdjust="spacing" textLength="206" x="289.5" y="225.8555">toDtoDescendingArea()</text><rect fill="#F24D5C" height="6" style="stroke:#C82930;stroke-width:1.0;" width="6" x="276.5" y="241.3281"/><text fill="#000000" font-family="sans-serif" font-size="20" lengthAdjust="spacing" textLength="183" x="289.5" y="251.0117">getOfferRepository()</text></g><!--class ListDealsUI--><g id="elem_ListDealsUI"><rect codeLine="178" fill="#F1F1F1" height="51.1563" id="ListDealsUI" rx="2.5" ry="2.5" style="stroke:#181818;stroke-width:0.5;" width="134" x="99" y="107.5"/><ellipse cx="115" cy="125.0781" fill="#ADD1B2" rx="12" ry="12" style="stroke:#181818;stroke-width:1.0;"/><path d="M117.1406,120 Q117.3281,119.75 117.5469,119.625 Q117.7656,119.4844 118.0156,119.4844 Q118.4531,119.4844 118.7344,119.7969 Q119.0156,120.0938 119.0156,120.8125 L119.0156,122.5156 Q119.0156,123.2344 118.7344,123.5469 Q118.4531,123.8594 118.0156,123.8594 Q117.625,123.8594 117.375,123.625 Q117.125,123.4063 117.0156,122.7969 Q116.9531,122.375 116.7344,122.1563 Q116.3438,121.7188 115.625,121.4531 Q114.9063,121.1875 114.1875,121.1875 Q113.2813,121.1875 112.5313,121.5781 Q111.7813,121.9688 111.2031,122.8594 Q110.625,123.7344 110.625,124.9375 L110.625,126.2344 Q110.625,127.6875 111.6719,128.6563 Q112.7344,129.625 114.5938,129.625 Q115.7031,129.625 116.4844,129.3125 Q116.9219,129.1406 117.4375,128.625 Q117.75,128.3125 117.9219,128.2188 Q118.0938,128.125 118.3281,128.125 Q118.7188,128.125 119.0156,128.4375 Q119.3281,128.7344 119.3281,129.1406 Q119.3281,129.5469 118.9219,130.0156 Q118.3281,130.7031 117.3906,131.0938 Q116.125,131.625 114.6094,131.625 Q112.8281,131.625 111.4063,130.8906 Q110.25,130.2969 109.4375,129.0313 Q108.625,127.7656 108.625,126.2813 L108.625,124.9219 Q108.625,123.3594 109.3438,122.0156 Q110.0781,120.6563 111.3594,119.9219 Q112.6563,119.1875 114.1094,119.1875 Q114.9688,119.1875 115.7188,119.3906 Q116.4844,119.5938 117.1406,120 Z " fill="#000000"/><text fill="#000000" font-family="sans-serif" font-size="20" lengthAdjust="spacing" textLength="100" x="130" y="133.2617">ListDealsUI</text><line style="stroke:#181818;stroke-width:0.5;" x1="100" x2="232" y1="142.6563" y2="142.6563"/><line style="stroke:#181818;stroke-width:0.5;" x1="100" x2="232" y1="150.6563" y2="150.6563"/></g><!--class OfferDto--><g id="elem_OfferDto"><rect codeLine="181" fill="#F1F1F1" height="151.7813" id="OfferDto" rx="2.5" ry="2.5" style="stroke:#181818;stroke-width:0.5;" width="294" x="7" y="683"/><ellipse cx="111" cy="700.5781" fill="#ADD1B2" rx="12" ry="12" style="stroke:#181818;stroke-width:1.0;"/><path d="M113.1406,695.5 Q113.3281,695.25 113.5469,695.125 Q113.7656,694.9844 114.0156,694.9844 Q114.4531,694.9844 114.7344,695.2969 Q115.0156,695.5938 115.0156,696.3125 L115.0156,698.0156 Q115.0156,698.7344 114.7344,699.0469 Q114.4531,699.3594 114.0156,699.3594 Q113.625,699.3594 113.375,699.125 Q113.125,698.9063 113.0156,698.2969 Q112.9531,697.875 112.7344,697.6563 Q112.3438,697.2188 111.625,696.9531 Q110.9063,696.6875 110.1875,696.6875 Q109.2813,696.6875 108.5313,697.0781 Q107.7813,697.4688 107.2031,698.3594 Q106.625,699.2344 106.625,700.4375 L106.625,701.7344 Q106.625,703.1875 107.6719,704.1563 Q108.7344,705.125 110.5938,705.125 Q111.7031,705.125 112.4844,704.8125 Q112.9219,704.6406 113.4375,704.125 Q113.75,703.8125 113.9219,703.7188 Q114.0938,703.625 114.3281,703.625 Q114.7188,703.625 115.0156,703.9375 Q115.3281,704.2344 115.3281,704.6406 Q115.3281,705.0469 114.9219,705.5156 Q114.3281,706.2031 113.3906,706.5938 Q112.125,707.125 110.6094,707.125 Q108.8281,707.125 107.4063,706.3906 Q106.25,705.7969 105.4375,704.5313 Q104.625,703.2656 104.625,701.7813 L104.625,700.4219 Q104.625,698.8594 105.3438,697.5156 Q106.0781,696.1563 107.3594,695.4219 Q108.6563,694.6875 110.1094,694.6875 Q110.9688,694.6875 111.7188,694.8906 Q112.4844,695.0938 113.1406,695.5 Z " fill="#000000"/><text fill="#000000" font-family="sans-serif" font-size="20" lengthAdjust="spacing" textLength="77" x="133" y="708.7617">OfferDto</text><line style="stroke:#181818;stroke-width:0.5;" x1="8" x2="300" y1="718.1563" y2="718.1563"/><rect fill="none" height="6" style="stroke:#C82930;stroke-width:1.0;" width="6" x="15" y="733.2344"/><text fill="#000000" font-family="sans-serif" font-size="20" lengthAdjust="spacing" textLength="105" x="28" y="742.918">String name</text><rect fill="none" height="6" style="stroke:#C82930;stroke-width:1.0;" width="6" x="15" y="758.3906"/><text fill="#000000" font-family="sans-serif" font-size="20" lengthAdjust="spacing" textLength="170" x="28" y="768.0742">String orderAmount</text><rect fill="none" height="6" style="stroke:#C82930;stroke-width:1.0;" width="6" x="15" y="783.5469"/><text fill="#000000" font-family="sans-serif" font-size="20" lengthAdjust="spacing" textLength="267" x="28" y="793.2305">String publishedAnnouncement</text><rect fill="none" height="6" style="stroke:#C82930;stroke-width:1.0;" width="6" x="15" y="808.7031"/><text fill="#000000" font-family="sans-serif" font-size="20" lengthAdjust="spacing" textLength="145" x="28" y="818.3867">String offerState</text><line style="stroke:#181818;stroke-width:0.5;" x1="8" x2="300" y1="826.7813" y2="826.7813"/></g><!--reverse link Person to Employee--><g id="link_Person_Employee"><path codeLine="128" d="M584.41,968.45 C582.28,982.46 580.22,996.07 578.28,1008.87 " fill="none" id="Person-backto-Employee" style="stroke:#181818;stroke-width:1.0;"/><polygon fill="none" points="577.53,967.14,587.44,948.42,591.37,969.24,577.53,967.14" style="stroke:#181818;stroke-width:1.0;"/></g><!--link Employee to NetworkManager--><g id="link_Employee_NetworkManager"><path codeLine="129" d="M582.28,1186.21 C588.43,1217.45 594.88,1250.21 599.14,1271.82 " fill="none" id="Employee-NetworkManager" style="stroke:#181818;stroke-width:1.0;"/></g><!--link NetworkManager to Offer--><g id="link_NetworkManager_Offer"><path codeLine="132" d="M696.7,1297.5 C755.73,1297.5 832.13,1297.5 892.3,1297.5 " fill="none" id="NetworkManager-Offer" style="stroke:#181818;stroke-width:1.0;"/><polygon fill="#000000" points="738,1281.0781,723.5279,1276.3758,723.5279,1285.7804,738,1281.0781" style="stroke:#000000;stroke-width:1.0;"/><text fill="#000000" font-family="sans-serif" font-size="20" lengthAdjust="spacing" textLength="123" x="743" y="1289.2617">intends to see</text><text fill="#000000" font-family="sans-serif" font-size="20" lengthAdjust="spacing" textLength="8" x="704.4058" y="1292.2656">*</text><text fill="#000000" font-family="sans-serif" font-size="20" lengthAdjust="spacing" textLength="8" x="876.437" y="1292.2927">*</text></g><!--link Offer to PublishedAnnouncement--><g id="link_Offer_PublishedAnnouncement"><path codeLine="133" d="M1048.2,1348.2 C1093.9,1387.92 1156.02,1441.9 1191.68,1472.89 " fill="none" id="Offer-PublishedAnnouncement" style="stroke:#181818;stroke-width:1.0;"/><polygon fill="#000000" points="1127.0384,1396.8258,1119.1993,1383.7834,1113.0303,1390.882,1127.0384,1396.8258" style="stroke:#000000;stroke-width:1.0;"/><text fill="#000000" font-family="sans-serif" font-size="20" lengthAdjust="spacing" textLength="31" x="1134" y="1399.7617">has</text><text fill="#000000" font-family="sans-serif" font-size="20" lengthAdjust="spacing" textLength="8" x="1047.0163" y="1377.0392">*</text><text fill="#000000" font-family="sans-serif" font-size="20" lengthAdjust="spacing" textLength="11" x="1173.7046" y="1460.7915">1</text></g><!--link PublishedAnnouncement to Property--><g id="link_PublishedAnnouncement_Property"><path codeLine="134" d="M1263.59,1524.11 C1329.8,1561.48 1457.84,1633.76 1550.95,1686.31 " fill="none" id="PublishedAnnouncement-Property" style="stroke:#181818;stroke-width:1.0;"/></g><!--link TypeOfProperty to Property--><g id="link_TypeOfProperty_Property"><path codeLine="135" d="M1815.25,1536.58 C1786.85,1575.95 1741.45,1638.87 1707.43,1686.03 " fill="none" id="TypeOfProperty-Property" style="stroke:#181818;stroke-width:1.0;"/><polygon fill="#000000" points="1785.6806,1599.0903,1773.3999,1608.0757,1781.0268,1613.5781,1785.6806,1599.0903" style="stroke:#000000;stroke-width:1.0;"/><text fill="#000000" font-family="sans-serif" font-size="20" lengthAdjust="spacing" textLength="31" x="1794" y="1613.7617">has</text></g><!--reverse link Property to Residence--><g id="link_Property_Residence"><path codeLine="136" d="M1662,1833.72 C1662,1859.6 1662,1887.71 1662,1911.96 " fill="none" id="Property-backto-Residence" style="stroke:#181818;stroke-width:1.0;"/><polygon fill="none" points="1655,1833.55,1662,1813.55,1669,1833.55,1655,1833.55" style="stroke:#181818;stroke-width:1.0;"/></g><!--link Photos to Property--><g id="link_Photos_Property"><path codeLine="137" d="M1662,1536.58 C1662,1575.95 1662,1638.87 1662,1686.03 " fill="none" id="Photos-Property" style="stroke:#181818;stroke-width:1.0;"/><polygon fill="#000000" points="1670,1597.5781,1665.2977,1612.0503,1674.7023,1612.0503,1670,1597.5781" style="stroke:#000000;stroke-width:1.0;"/><text fill="#000000" font-family="sans-serif" font-size="20" lengthAdjust="spacing" textLength="31" x="1683" y="1613.7617">has</text><text fill="#000000" font-family="sans-serif" font-size="20" lengthAdjust="spacing" textLength="45" x="1613.2734" y="1565.7061">1..30</text><text fill="#000000" font-family="sans-serif" font-size="20" lengthAdjust="spacing" textLength="11" x="1650.4328" y="1673.9331">1</text></g><!--reverse link Residence to House--><g id="link_Residence_House"><path codeLine="138" d="M1613.86,2056.32 C1599.73,2079.77 1584.67,2104.74 1572.01,2125.73 " fill="none" id="Residence-backto-House" style="stroke:#181818;stroke-width:1.0;"/><polygon fill="none" points="1607.87,2052.7,1624.2,2039.19,1619.86,2059.93,1607.87,2052.7" style="stroke:#181818;stroke-width:1.0;"/></g><!--link Residence to AvailableEquipment--><g id="link_Residence_AvailableEquipment"><path codeLine="139" d="M1699.49,2039.19 C1718.97,2071.77 1742.12,2110.49 1758.76,2138.32 " fill="none" id="Residence-AvailableEquipment" style="stroke:#181818;stroke-width:1.0;"/><polygon fill="#000000" points="1744.1054,2089.4444,1740.7146,2074.6101,1732.6428,2079.4363,1744.1054,2089.4444" style="stroke:#000000;stroke-width:1.0;"/><text fill="#000000" font-family="sans-serif" font-size="20" lengthAdjust="spacing" textLength="72" x="1753" y="2090.7617">contains</text><text fill="#000000" font-family="sans-serif" font-size="20" lengthAdjust="spacing" textLength="11" x="1691.639" y="2067.4778">1</text><text fill="#000000" font-family="sans-serif" font-size="20" lengthAdjust="spacing" textLength="8" x="1746.578" y="2125.9921">*</text></g><!--link House to SunExposure--><g id="link_House_SunExposure"><path codeLine="140" d="M1542,2227.22 C1542,2254.86 1542,2288.67 1542,2313.96 " fill="none" id="House-SunExposure" style="stroke:#181818;stroke-width:1.0;"/><polygon fill="#000000" points="1550,2278.5781,1554.7023,2264.106,1545.2977,2264.106,1550,2278.5781" style="stroke:#000000;stroke-width:1.0;"/><text fill="#000000" font-family="sans-serif" font-size="20" lengthAdjust="spacing" textLength="72" x="1563" y="2278.7617">contains</text><text fill="#000000" font-family="sans-serif" font-size="20" lengthAdjust="spacing" textLength="11" x="1530.2953" y="2256.0618">1</text><text fill="#000000" font-family="sans-serif" font-size="20" lengthAdjust="spacing" textLength="8" x="1533.3625" y="2301.6545">*</text></g><!--link PublishedAnnouncement to Comission--><g id="link_PublishedAnnouncement_Comission"><path codeLine="141" d="M1343.22,1498.5 C1373,1498.5 1403.82,1498.5 1430.16,1498.5 " fill="none" id="PublishedAnnouncement-Comission" style="stroke:#181818;stroke-width:1.0;"/><polygon fill="#000000" points="1376.25,1482.0781,1361.7779,1477.3758,1361.7779,1486.7804,1376.25,1482.0781" style="stroke:#000000;stroke-width:1.0;"/><text fill="#000000" font-family="sans-serif" font-size="20" lengthAdjust="spacing" textLength="31" x="1381.25" y="1490.2617">has</text><text fill="#000000" font-family="sans-serif" font-size="20" lengthAdjust="spacing" textLength="11" x="1351.0639" y="1493.5">1</text><text fill="#000000" font-family="sans-serif" font-size="20" lengthAdjust="spacing" textLength="11" x="1411.3906" y="1492.9646">1</text></g><!--link Business to PublishedAnnouncement--><g id="link_Business_PublishedAnnouncement"><path codeLine="142" d="M1220,1335.93 C1220,1376.01 1220,1438.47 1220,1472.81 " fill="none" id="Business-PublishedAnnouncement" style="stroke:#181818;stroke-width:1.0;"/><polygon fill="#000000" points="1228,1383.5781,1223.2977,1398.0503,1232.7023,1398.0503,1228,1383.5781" style="stroke:#000000;stroke-width:1.0;"/><text fill="#000000" font-family="sans-serif" font-size="20" lengthAdjust="spacing" textLength="31" x="1241" y="1399.7617">has</text><text fill="#000000" font-family="sans-serif" font-size="20" lengthAdjust="spacing" textLength="11" x="1208.1578" y="1364.4784">1</text><text fill="#000000" font-family="sans-serif" font-size="20" lengthAdjust="spacing" textLength="11" x="1207.8656" y="1460.695">1</text></g><!--link Adress to Property--><g id="link_Adress_Property"><path codeLine="144" d="M1423.75,1750 C1453.05,1750 1482.77,1750 1510.82,1750 " fill="none" id="Adress-Property" style="stroke:#181818;stroke-width:1.0;"/><polygon fill="#000000" points="1440.75,1733.5781,1455.2221,1738.2804,1455.2221,1728.8758,1440.75,1733.5781" style="stroke:#000000;stroke-width:1.0;"/><text fill="#000000" font-family="sans-serif" font-size="20" lengthAdjust="spacing" textLength="31" x="1461.75" y="1741.7617">has</text><text fill="#000000" font-family="sans-serif" font-size="20" lengthAdjust="spacing" textLength="11" x="1431.234" y="1745.3136">1</text><text fill="#000000" font-family="sans-serif" font-size="20" lengthAdjust="spacing" textLength="11" x="1492.2308" y="1745.1691">1</text></g><!--link District to State--><g id="link_District_State"><path codeLine="145" d="M657.88,1750 C687.21,1750 719.29,1750 748.14,1750 " fill="none" id="District-State" style="stroke:#181818;stroke-width:1.0;"/><polygon fill="#000000" points="691,1733.5781,676.5279,1728.8758,676.5279,1738.2804,691,1733.5781" style="stroke:#000000;stroke-width:1.0;"/><text fill="#000000" font-family="sans-serif" font-size="20" lengthAdjust="spacing" textLength="34" x="696" y="1741.7617">is in</text><text fill="#000000" font-family="sans-serif" font-size="20" lengthAdjust="spacing" textLength="8" x="665.6036" y="1744.819">*</text><text fill="#000000" font-family="sans-serif" font-size="20" lengthAdjust="spacing" textLength="11" x="729.541" y="1744.7806">1</text></g><!--link City to District--><g id="link_City_District"><path codeLine="146" d="M374.07,1750 C402.23,1750 434.44,1750 464.1,1750 " fill="none" id="City-District" style="stroke:#181818;stroke-width:1.0;"/><polygon fill="#000000" points="407.25,1733.5781,392.7779,1728.8758,392.7779,1738.2804,407.25,1733.5781" style="stroke:#000000;stroke-width:1.0;"/><text fill="#000000" font-family="sans-serif" font-size="20" lengthAdjust="spacing" textLength="34" x="412.25" y="1741.7617">is in</text><text fill="#000000" font-family="sans-serif" font-size="20" lengthAdjust="spacing" textLength="8" x="382.0503" y="1744.5159">*</text><text fill="#000000" font-family="sans-serif" font-size="20" lengthAdjust="spacing" textLength="11" x="445.58" y="1744.8575">1</text></g><!--link State to Adress--><g id="link_State_Adress"><path codeLine="147" d="M927.8,1750 C955.21,1750 986.55,1750 1018.29,1750 " fill="none" id="State-Adress" style="stroke:#181818;stroke-width:1.0;"/><polygon fill="#000000" points="961,1733.5781,946.5279,1728.8758,946.5279,1738.2804,961,1733.5781" style="stroke:#000000;stroke-width:1.0;"/><text fill="#000000" font-family="sans-serif" font-size="20" lengthAdjust="spacing" textLength="34" x="966" y="1741.7617">is in</text><text fill="#000000" font-family="sans-serif" font-size="20" lengthAdjust="spacing" textLength="11" x="935.3942" y="1744.7806">1</text><text fill="#000000" font-family="sans-serif" font-size="20" lengthAdjust="spacing" textLength="8" x="1002.2154" y="1745.2747">*</text></g><!--link ListDealsUI to ListDealsController--><g id="link_ListDealsUI_ListDealsController"><path codeLine="190" d="M233.09,133 C243.08,133 253.06,133 263.04,133 " fill="none" id="ListDealsUI-to-ListDealsController" style="stroke:#181818;stroke-width:1.0;stroke-dasharray:7.0,7.0;"/><polygon fill="#181818" points="268.26,133,259.26,129,263.26,133,259.26,137,268.26,133" style="stroke:#181818;stroke-width:1.0;"/></g><!--link ListDealsController to Repositories--><g id="link_ListDealsController_Repositories"><path codeLine="192" d="M671.6,133 C716.92,133 764.07,133 806.27,133 " fill="none" id="ListDealsController-to-Repositories" style="stroke:#181818;stroke-width:1.0;stroke-dasharray:7.0,7.0;"/><polygon fill="#181818" points="811.4,133,802.4,129,806.4,133,802.4,137,811.4,133" style="stroke:#181818;stroke-width:1.0;"/><text fill="#000000" font-family="sans-serif" font-size="20" lengthAdjust="spacing" textLength="103" x="690" y="124.7617">repositories</text></g><!--link Repositories to Repositories--><g id="link_Repositories_Repositories"><path codeLine="194" d="M1082.76,104.28 C1103.45,108.66 1117.5,118.23 1117.5,133 C1117.5,146.5 1105.76,155.66 1087.94,160.48 " fill="none" id="Repositories-to-Repositories" style="stroke:#181818;stroke-width:1.0;"/><polygon fill="#181818" points="1082.76,161.72,1092.4458,163.5049,1087.6214,160.551,1090.5753,155.7266,1082.76,161.72" style="stroke:#181818;stroke-width:1.0;"/><text fill="#000000" font-family="sans-serif" font-size="20" lengthAdjust="spacing" textLength="72" x="1123.5" y="141.2617">instance</text></g><!--link ListDealsController to OfferMapper--><g id="link_ListDealsController_OfferMapper"><path codeLine="196" d="M344.28,259.01 C314.7,288.42 284.72,318.22 260.37,342.44 " fill="none" id="ListDealsController-to-OfferMapper" style="stroke:#181818;stroke-width:1.0;stroke-dasharray:7.0,7.0;"/><polygon fill="#181818" points="256.81,345.97,266.0166,342.4716,260.3598,342.4488,260.3826,336.7919,256.81,345.97" style="stroke:#181818;stroke-width:1.0;"/></g><!--link OfferMapper to OfferDto--><g id="link_OfferMapper_OfferDto"><path codeLine="198" d="M199.69,447.25 C190.94,506.76 176.17,607.18 165.8,677.72 " fill="none" id="OfferMapper-to-OfferDto" style="stroke:#181818;stroke-width:1.0;stroke-dasharray:7.0,7.0;"/><polygon fill="#181818" points="165.06,682.75,170.3297,674.4295,165.7891,677.8034,162.4152,673.2629,165.06,682.75" style="stroke:#181818;stroke-width:1.0;"/></g><!--link Repositories to OfferRepository--><g id="link_Repositories_OfferRepository"><path codeLine="200" d="M947,196.64 C947,245.13 947,310.97 947,353.35 " fill="none" id="Repositories-to-OfferRepository" style="stroke:#181818;stroke-width:1.0;"/><polygon fill="#181818" points="947,358.4,951,349.4,947,353.4,943,349.4,947,358.4" style="stroke:#181818;stroke-width:1.0;"/><text fill="#000000" font-family="sans-serif" font-size="20" lengthAdjust="spacing" textLength="136" x="948" y="310.7617">offerRepository</text></g><!--link ListDealsController to OfferRepository--><g id="link_ListDealsController_OfferRepository"><path codeLine="202" d="M671.6,244.52 C743.82,284.11 820.66,326.24 874.77,355.9 " fill="none" id="ListDealsController-to-OfferRepository" style="stroke:#181818;stroke-width:1.0;stroke-dasharray:7.0,7.0;"/><polygon fill="#181818" points="879.28,358.37,873.3355,350.5174,874.9032,355.9527,869.4679,357.5204,879.28,358.37" style="stroke:#181818;stroke-width:1.0;"/></g><!--link OfferRepository to Offer--><g id="link_OfferRepository_Offer"><path codeLine="204" d="M974.37,434.62 C986.9,455.18 999,481.82 999,508 C999,508 999,508 999,1098.5 C999,1146.9 996.58,1201.9 994.41,1241.63 " fill="none" id="OfferRepository-to-Offer" style="stroke:#181818;stroke-width:1.0;"/><polygon fill="#181818" points="994.12,1246.89,998.6033,1238.1208,994.3918,1241.8974,990.6152,1237.6859,994.12,1246.89" style="stroke:#181818;stroke-width:1.0;"/></g><!--link Offer to OfferState--><g id="link_Offer_OfferState"><path codeLine="207" d="M987.75,1348.2 C986.15,1372.81 984.18,1402.89 982.44,1429.59 " fill="none" id="Offer-to-OfferState" style="stroke:#181818;stroke-width:1.0;"/><polygon fill="#181818" points="982.09,1434.88,986.6732,1426.1625,982.4188,1429.8908,978.6905,1425.6364,982.09,1434.88" style="stroke:#181818;stroke-width:1.0;"/></g><!--SRC=[ZLRRRjiu47tdLn1vsQIHWdRtpGW2s76A1jWcXjr-02sDRMuaKajItJhP_VSTtaJAKT3uGHQ7PyvSE3EKVkAYOugrZQoUeAOrx5ZVcCzIc0r_1lhxHq9-Qs1dg95KyVt1q9ehg0oNWbGDqvhUjLqZZm0lfDmOgO1g-oJbdroRwxLiu8OgV9BB23o7bl6c4Ao5mc6BxY05FFJj5bHXiGMh5MXT6FOpI3kqr4bb_FA2NEx1E6ld_jtQmTV_I71g1KfBWIxHZL5SxAcpYKik31sJ1U5WA-bO3t4rTyvGxrEaI1uJSlbTWmfHZRcp25oucPhtUpM2Xs2-HQMmlhFCuTqx4nOFo1bULuavpyC3c7-aUlhA1Dk3UaaRZxkTNPUZKCD2gXhKl9MzC5O1HDzIhx0np01DQlEgWiv0FGXM86hy7zPh-0kB1G784opx25u8ZHXj5FXO2CLVQVFxpBjRMNk13U-McoF65PTBh2t5AvE9d6jn7RAahQp0YlNeWbP8KmI3HJIIfMiDcjSWAXlZu8jmMPMx1THAobPFx31pU6DhnTIJ3NBJiGfqilH5zdgm4XAnPHfQmAJdGYuERCiDspRGo9r939jUtFtifExLAK_gq04y_u4bP3dk_kvvPusSw42KPoUrw3KNjlJJWHjfMBF2P4A6YwUHjLjCkJjLykhSGk5cfyj1Hu6HdYIlOtl-6RqzHp8gZi2OdBgLBTSQan03NSeUuwS_MDDxvuTPSP16kY0ZVR- -pqQ9aXqeSumyhl-P0kQNGRjpVnd2Pe3PIjefsL9p0ESqhJ35E3CIEph5zG7gkH3OS1M4iqd7R6lOTWiTsWK5Fg-JjP-bUIgbFdJF_UtOmUCk2t0uPjomG3z6wVM_PJdCUH9VA0h7ymM9nm9wzk4CFRTFDpzcDZKu8hIzJZHIt10dzpW4VZgRpiYC7fX6z7IwK3C6GKvYohQe9xacWy35DVGy2KTvzkdgwe-FoPzJzJGadBxhv4neTKeVyqJNpMY5TolZmaRZXq2caFNq23WTjbDqprJiCv-deNKZ-Lk97Q8YuPfp2kwcFua_0lqTu63smo1u7aiEJrZZ8ICkIbv1RRicM3Jx8GEXWhEIKAbcNRryPHtw53ho4ejfQUIvj3lsg-CY5pzkxGtaDozExhyrOAuvVaOS1ohidaUrPu8_Cpj15yTOxVuITfVywC8833Y_XW6H2sC7Mk9xuKV2-GLcFGTbjiTkvIFGHhO4rkXRh0lyIcgo14pi-OWJLUQ7GowESrtvstgEmspHRx5ED_WfSluQkOHtGqUa5hE1nbz6l-ITHhj37B6EjyOSOQzyRow_tzFJZoBaVCTtKPHrKqsLD8QF9ZzsSxjNDrF7bc6oSqRigD9cLENbGqQRPJb6ptYekpUuaJnhAaBo3hiQTZ4j4tPEssX6Jyhk5pPpu2bNQNy1Hy9sCkgpIiZ_]--></g></svg>