<?xml version="1.0" encoding="us-ascii" standalone="no"?><svg xmlns="http://www.w3.org/2000/svg" xmlns:xlink="http://www.w3.org/1999/xlink" contentStyleType="text/css" height="653px" preserveAspectRatio="none" style="width:1148px;height:653px;background:#FFFFFF;" version="1.1" viewBox="0 0 1148 653" width="1148px" zoomAndPan="magnify"><defs/><g><rect fill="#FFFFFF" height="555.5156" style="stroke:#181818;stroke-width:1.0;" width="10" x="69" y="45.6406"/><rect fill="#FFFFFF" height="543.9922" style="stroke:#181818;stroke-width:1.0;" width="10" x="239" y="66.1641"/><rect fill="#FFFFFF" height="28" style="stroke:#181818;stroke-width:1.0;" width="10" x="244" y="424.4688"/><rect fill="#FFFFFF" height="30" style="stroke:#181818;stroke-width:1.0;" width="10" x="739" y="528.6328"/><rect fill="#FFFFFF" height="30" style="stroke:#181818;stroke-width:1.0;" width="10" x="916" y="182.375"/><rect fill="#FFFFFF" height="30" style="stroke:#181818;stroke-width:1.0;" width="10" x="916" y="240.8984"/><rect fill="#FFFFFF" height="30" style="stroke:#181818;stroke-width:1.0;" width="10" x="916" y="299.4219"/><rect fill="#FFFFFF" height="30" style="stroke:#181818;stroke-width:1.0;" width="10" x="916" y="357.9453"/><rect fill="none" height="492.4688" style="stroke:#000000;stroke-width:1.5;" width="967.5" x="175" y="81.1641"/><rect fill="none" height="421.3047" style="stroke:#000000;stroke-width:1.5;" width="947.5" x="185" y="145.3281"/><line style="stroke:#181818;stroke-width:0.5;stroke-dasharray:5.0,5.0;" x1="74" x2="74" y1="35.6406" y2="619.1563"/><line style="stroke:#181818;stroke-width:0.5;stroke-dasharray:5.0,5.0;" x1="244" x2="244" y1="35.6406" y2="619.1563"/><line style="stroke:#181818;stroke-width:0.5;stroke-dasharray:5.0,5.0;" x1="743.5" x2="743.5" y1="128.0078" y2="619.1563"/><line style="stroke:#181818;stroke-width:0.5;stroke-dasharray:5.0,5.0;" x1="920.5" x2="920.5" y1="35.6406" y2="619.1563"/><line style="stroke:#181818;stroke-width:0.5;stroke-dasharray:5.0,5.0;" x1="1060.5" x2="1060.5" y1="497.7891" y2="619.1563"/><rect fill="#E2E2F0" height="29.6406" rx="2.5" ry="2.5" style="stroke:#181818;stroke-width:0.5;" width="138" x="5" y="5"/><text fill="#000000" font-family="sans-serif" font-size="14" lengthAdjust="spacing" textLength="124" x="12" y="24.6738">:ListDealsController</text><rect fill="#E2E2F0" height="29.6406" rx="2.5" ry="2.5" style="stroke:#181818;stroke-width:0.5;" width="138" x="5" y="618.1563"/><text fill="#000000" font-family="sans-serif" font-size="14" lengthAdjust="spacing" textLength="124" x="12" y="637.8301">:ListDealsController</text><rect fill="#E2E2F0" height="29.6406" rx="2.5" ry="2.5" style="stroke:#181818;stroke-width:0.5;" width="98" x="195" y="5"/><text fill="#000000" font-family="sans-serif" font-size="14" lengthAdjust="spacing" textLength="84" x="202" y="24.6738">:OfferMapper</text><rect fill="#E2E2F0" height="29.6406" rx="2.5" ry="2.5" style="stroke:#181818;stroke-width:0.5;" width="98" x="195" y="618.1563"/><text fill="#000000" font-family="sans-serif" font-size="14" lengthAdjust="spacing" textLength="84" x="202" y="637.8301">:OfferMapper</text><rect fill="#E2E2F0" height="29.6406" rx="2.5" ry="2.5" style="stroke:#181818;stroke-width:0.5;" width="197" x="645.5" y="618.1563"/><text fill="#000000" font-family="sans-serif" font-size="14" lengthAdjust="spacing" textLength="183" x="652.5" y="637.8301">listOfferDTO:List&lt;OfferDTO&gt;</text><rect fill="#E2E2F0" height="29.6406" rx="2.5" ry="2.5" style="stroke:#181818;stroke-width:0.5;" width="137" x="852.5" y="5"/><text fill="#000000" font-family="sans-serif" font-size="14" lengthAdjust="spacing" textLength="123" x="859.5" y="24.6738">listOffer:List&lt;Offer&gt;</text><rect fill="#E2E2F0" height="29.6406" rx="2.5" ry="2.5" style="stroke:#181818;stroke-width:0.5;" width="137" x="852.5" y="618.1563"/><text fill="#000000" font-family="sans-serif" font-size="14" lengthAdjust="spacing" textLength="123" x="859.5" y="637.8301">listOffer:List&lt;Offer&gt;</text><rect fill="#E2E2F0" height="29.6406" rx="2.5" ry="2.5" style="stroke:#181818;stroke-width:0.5;" width="123" x="999.5" y="618.1563"/><text fill="#000000" font-family="sans-serif" font-size="14" lengthAdjust="spacing" textLength="109" x="1006.5" y="637.8301">offerDto:OfferDto</text><rect fill="#FFFFFF" height="555.5156" style="stroke:#181818;stroke-width:1.0;" width="10" x="69" y="45.6406"/><rect fill="#FFFFFF" height="543.9922" style="stroke:#181818;stroke-width:1.0;" width="10" x="239" y="66.1641"/><rect fill="#FFFFFF" height="28" style="stroke:#181818;stroke-width:1.0;" width="10" x="244" y="424.4688"/><rect fill="#FFFFFF" height="30" style="stroke:#181818;stroke-width:1.0;" width="10" x="739" y="528.6328"/><rect fill="#FFFFFF" height="30" style="stroke:#181818;stroke-width:1.0;" width="10" x="916" y="182.375"/><rect fill="#FFFFFF" height="30" style="stroke:#181818;stroke-width:1.0;" width="10" x="916" y="240.8984"/><rect fill="#FFFFFF" height="30" style="stroke:#181818;stroke-width:1.0;" width="10" x="916" y="299.4219"/><rect fill="#FFFFFF" height="30" style="stroke:#181818;stroke-width:1.0;" width="10" x="916" y="357.9453"/><polygon fill="#181818" points="227,62.1641,237,66.1641,227,70.1641,231,66.1641" style="stroke:#181818;stroke-width:1.0;"/><line style="stroke:#181818;stroke-width:1.0;stroke-dasharray:2.0,2.0;" x1="79" x2="233" y1="66.1641" y2="66.1641"/><text fill="#000000" font-family="sans-serif" font-size="13" font-weight="bold" lengthAdjust="spacing" textLength="14" x="86" y="61.4092">32</text><text fill="#000000" font-family="sans-serif" font-size="13" lengthAdjust="spacing" textLength="123" x="104" y="61.4092">toDto(offersListMade)</text><path d="M175,81.1641 L312,81.1641 L312,87.6875 L302,97.6875 L175,97.6875 L175,81.1641 " fill="#EEEEEE" style="stroke:#000000;stroke-width:1.5;"/><rect fill="none" height="492.4688" style="stroke:#000000;stroke-width:1.5;" width="967.5" x="175" y="81.1641"/><text fill="#000000" font-family="sans-serif" font-size="13" font-weight="bold" lengthAdjust="spacing" textLength="92" x="190" y="93.9326">Get DTO Deals</text><polygon fill="#181818" points="633.5,114.2109,643.5,118.2109,633.5,122.2109,637.5,118.2109" style="stroke:#181818;stroke-width:1.0;"/><line style="stroke:#181818;stroke-width:1.0;" x1="249" x2="639.5" y1="118.2109" y2="118.2109"/><text fill="#000000" font-family="sans-serif" font-size="13" font-weight="bold" lengthAdjust="spacing" textLength="14" x="256" y="113.4561">33</text><text fill="#000000" font-family="sans-serif" font-size="13" lengthAdjust="spacing" textLength="56" x="274" y="113.4561">create(...)</text><rect fill="#E2E2F0" height="29.6406" rx="2.5" ry="2.5" style="stroke:#181818;stroke-width:0.5;" width="197" x="645.5" y="97.6875"/><text fill="#000000" font-family="sans-serif" font-size="14" lengthAdjust="spacing" textLength="183" x="652.5" y="117.3613">listOfferDTO:List&lt;OfferDTO&gt;</text><path d="M185,145.3281 L258,145.3281 L258,151.8516 L248,161.8516 L185,161.8516 L185,145.3281 " fill="#EEEEEE" style="stroke:#000000;stroke-width:1.5;"/><rect fill="none" height="421.3047" style="stroke:#000000;stroke-width:1.5;" width="947.5" x="185" y="145.3281"/><text fill="#000000" font-family="sans-serif" font-size="13" font-weight="bold" lengthAdjust="spacing" textLength="28" x="200" y="158.0967">loop</text><polygon fill="#181818" points="904,178.375,914,182.375,904,186.375,908,182.375" style="stroke:#181818;stroke-width:1.0;"/><line style="stroke:#181818;stroke-width:1.0;" x1="249" x2="910" y1="182.375" y2="182.375"/><text fill="#000000" font-family="sans-serif" font-size="13" font-weight="bold" lengthAdjust="spacing" textLength="14" x="256" y="177.6201">34</text><text fill="#000000" font-family="sans-serif" font-size="13" lengthAdjust="spacing" textLength="193" x="274" y="177.6201">orderAmount = getOrderAmount()</text><polygon fill="#181818" points="904,236.8984,914,240.8984,904,244.8984,908,240.8984" style="stroke:#181818;stroke-width:1.0;"/><line style="stroke:#181818;stroke-width:1.0;" x1="249" x2="910" y1="240.8984" y2="240.8984"/><text fill="#000000" font-family="sans-serif" font-size="13" font-weight="bold" lengthAdjust="spacing" textLength="14" x="256" y="236.1436">35</text><text fill="#000000" font-family="sans-serif" font-size="13" lengthAdjust="spacing" textLength="328" x="274" y="236.1436">publishedAnnouncement = getPublishedAnnouncement()</text><polygon fill="#181818" points="904,295.4219,914,299.4219,904,303.4219,908,299.4219" style="stroke:#181818;stroke-width:1.0;"/><line style="stroke:#181818;stroke-width:1.0;" x1="249" x2="910" y1="299.4219" y2="299.4219"/><text fill="#000000" font-family="sans-serif" font-size="13" font-weight="bold" lengthAdjust="spacing" textLength="14" x="256" y="294.667">36</text><text fill="#000000" font-family="sans-serif" font-size="13" lengthAdjust="spacing" textLength="108" x="274" y="294.667">name = getName()</text><polygon fill="#181818" points="904,353.9453,914,357.9453,904,361.9453,908,357.9453" style="stroke:#181818;stroke-width:1.0;"/><line style="stroke:#181818;stroke-width:1.0;" x1="249" x2="910" y1="357.9453" y2="357.9453"/><text fill="#000000" font-family="sans-serif" font-size="13" font-weight="bold" lengthAdjust="spacing" textLength="14" x="256" y="353.1904">37</text><text fill="#000000" font-family="sans-serif" font-size="13" lengthAdjust="spacing" textLength="155" x="274" y="353.1904">offerState = getOfferState()</text><line style="stroke:#181818;stroke-width:1.0;" x1="254" x2="296" y1="416.4688" y2="416.4688"/><line style="stroke:#181818;stroke-width:1.0;" x1="296" x2="296" y1="416.4688" y2="429.4688"/><line style="stroke:#181818;stroke-width:1.0;" x1="255" x2="296" y1="429.4688" y2="429.4688"/><polygon fill="#181818" points="265,425.4688,255,429.4688,265,433.4688,261,429.4688" style="stroke:#181818;stroke-width:1.0;"/><text fill="#000000" font-family="sans-serif" font-size="13" font-weight="bold" lengthAdjust="spacing" textLength="14" x="261" y="411.7139">38</text><text fill="#000000" font-family="sans-serif" font-size="13" lengthAdjust="spacing" textLength="458" x="279" y="411.7139">offerDTO = toDtoObject(orderAmount,name,offerState,publishedAnnouncement)</text><polygon fill="#181818" points="987.5,483.9922,997.5,487.9922,987.5,491.9922,991.5,487.9922" style="stroke:#181818;stroke-width:1.0;"/><line style="stroke:#181818;stroke-width:1.0;stroke-dasharray:2.0,2.0;" x1="249" x2="993.5" y1="487.9922" y2="487.9922"/><text fill="#000000" font-family="sans-serif" font-size="13" font-weight="bold" lengthAdjust="spacing" textLength="14" x="256" y="483.2373">39</text><text fill="#000000" font-family="sans-serif" font-size="13" lengthAdjust="spacing" textLength="52" x="274" y="483.2373">create(..)</text><rect fill="#E2E2F0" height="29.6406" rx="2.5" ry="2.5" style="stroke:#181818;stroke-width:0.5;" width="123" x="999.5" y="467.4688"/><text fill="#000000" font-family="sans-serif" font-size="14" lengthAdjust="spacing" textLength="109" x="1006.5" y="487.1426">offerDto:OfferDto</text><polygon fill="#181818" points="727,524.6328,737,528.6328,727,532.6328,731,528.6328" style="stroke:#181818;stroke-width:1.0;"/><line style="stroke:#181818;stroke-width:1.0;" x1="249" x2="733" y1="528.6328" y2="528.6328"/><text fill="#000000" font-family="sans-serif" font-size="13" font-weight="bold" lengthAdjust="spacing" textLength="14" x="256" y="523.8779">40</text><text fill="#000000" font-family="sans-serif" font-size="13" lengthAdjust="spacing" textLength="76" x="274" y="523.8779">add(OfferDto)</text><polygon fill="#181818" points="85,597.1563,75,601.1563,85,605.1563,81,601.1563" style="stroke:#181818;stroke-width:1.0;"/><line style="stroke:#181818;stroke-width:1.0;stroke-dasharray:2.0,2.0;" x1="79" x2="238" y1="601.1563" y2="601.1563"/><text fill="#000000" font-family="sans-serif" font-size="13" font-weight="bold" lengthAdjust="spacing" textLength="14" x="91" y="596.4014">41</text><text fill="#000000" font-family="sans-serif" font-size="13" lengthAdjust="spacing" textLength="110" x="109" y="596.4014">offersDTOListMade</text><!--SRC=[lLJBRi8m4BpxAwnU6X04gRsXWeIAnAKqbTeVCF42gHBRTPn-VzTv49Ew8QXgaH2iixCpknFlxT4ObSzdCvKoOOei3MEPpNBuA434CEK9EsYM4K8KqoQ94uLPz6R-bEHc3IpD7wKmMgOfw1lASkevxo2Z_HxqbYbL8vpuF3F5KkN3zLjKyZqqqV94LPqO-GFIWNKmvm1PbvatzLfbjZWXh31I5DaEDBs_mp0soISpu6sN4CyfdKwNRgjqJet4sa59dLl4bd4O4ThvdAZSEMsqB1JTWA4u3LfI8MqNwj8XkpklyHW5n1gmS126uOYaKgh11H0hDGUzocI1urlG0vYeFGXwkcWDwAPmy2HT8qaLEpJ-27mb1Cg88OD6t8llqL_AxDCfM0QLh6Vyvr4nHCPlTQ23zkVLs0ALWQVuVoKvOItAljEBwdf4ktU8JU2yRHCxlaahVkArlQy3zoBrzU3cNUYYQQEyMSx56btXY5q_b74UDD4W5-nw6cH4cmY24_kzq91dYTN-v6XGix183- -tnVW5]--></g></svg>