<?xml version="1.0" encoding="us-ascii" standalone="no"?><svg xmlns="http://www.w3.org/2000/svg" xmlns:xlink="http://www.w3.org/1999/xlink" contentStyleType="text/css" height="1686px" preserveAspectRatio="none" style="width:1706px;height:1686px;background:#FFFFFF;" version="1.1" viewBox="0 0 1706 1686" width="1706px" zoomAndPan="magnify"><defs/><g><rect fill="#FFFFFF" height="1497.7891" style="stroke:#181818;stroke-width:1.0;" width="10" x="58" y="90.6406"/><rect fill="#FFFFFF" height="28.5234" style="stroke:#181818;stroke-width:1.0;" width="10" x="497" y="111.1641"/><rect fill="#FFFFFF" height="28.5234" style="stroke:#181818;stroke-width:1.0;" width="10" x="497" y="168.2109"/><rect fill="#FFFFFF" height="1306.125" style="stroke:#181818;stroke-width:1.0;" width="10" x="497" y="225.2578"/><rect fill="#FFFFFF" height="28.5234" style="stroke:#181818;stroke-width:1.0;" width="10" x="497" y="1559.9063"/><rect fill="#FFFFFF" height="1255.9609" style="stroke:#181818;stroke-width:1.0;" width="10" x="663" y="341.4688"/><rect fill="#FFFFFF" height="168.0078" style="stroke:#181818;stroke-width:1.0;" width="10" x="668" y="568.5234"/><rect fill="#FFFFFF" height="730.6875" style="stroke:#181818;stroke-width:1.0;" width="10" x="668" y="866.7422"/><rect fill="#FFFFFF" height="168.0078" style="stroke:#181818;stroke-width:1.0;" width="10" x="673" y="1093.7969"/><rect fill="#FFFFFF" height="168.0078" style="stroke:#181818;stroke-width:1.0;" width="10" x="673" y="1327.8516"/><rect fill="none" height="511.2734" style="stroke:#000000;stroke-width:1.5;" width="319" x="438" y="240.2578"/><rect fill="none" height="253.6953" style="stroke:#000000;stroke-width:1.5;" width="299" x="448" y="263.7813"/><rect fill="none" height="213.0547" style="stroke:#000000;stroke-width:1.5;" width="299" x="448" y="531.4766"/><rect fill="none" height="511.2734" style="stroke:#000000;stroke-width:1.5;" width="319" x="438" y="765.5313"/><rect fill="none" height="253.6953" style="stroke:#000000;stroke-width:1.5;" width="299" x="448" y="789.0547"/><rect fill="none" height="213.0547" style="stroke:#000000;stroke-width:1.5;" width="299" x="448" y="1056.75"/><rect fill="none" height="213.0547" style="stroke:#000000;stroke-width:1.5;" width="299" x="448" y="1290.8047"/><line style="stroke:#181818;stroke-width:0.5;stroke-dasharray:5.0,5.0;" x1="63" x2="63" y1="80.6406" y2="1606.4297"/><line style="stroke:#181818;stroke-width:0.5;stroke-dasharray:5.0,5.0;" x1="502" x2="502" y1="80.6406" y2="1606.4297"/><line style="stroke:#181818;stroke-width:0.5;stroke-dasharray:5.0,5.0;" x1="668" x2="668" y1="835.8984" y2="1606.4297"/><line style="stroke:#181818;stroke-width:0.5;stroke-dasharray:5.0,5.0;" x1="825.5" x2="825.5" y1="80.6406" y2="1606.4297"/><line style="stroke:#181818;stroke-width:0.5;stroke-dasharray:5.0,5.0;" x1="932.5" x2="932.5" y1="80.6406" y2="1606.4297"/><line style="stroke:#181818;stroke-width:0.5;stroke-dasharray:5.0,5.0;" x1="1048.5" x2="1048.5" y1="80.6406" y2="1606.4297"/><line style="stroke:#181818;stroke-width:0.5;stroke-dasharray:5.0,5.0;" x1="1164.5" x2="1164.5" y1="80.6406" y2="1606.4297"/><line style="stroke:#181818;stroke-width:0.5;stroke-dasharray:5.0,5.0;" x1="1321.5" x2="1321.5" y1="80.6406" y2="1606.4297"/><line style="stroke:#181818;stroke-width:0.5;stroke-dasharray:5.0,5.0;" x1="1498.5" x2="1498.5" y1="80.6406" y2="1606.4297"/><line style="stroke:#181818;stroke-width:0.5;stroke-dasharray:5.0,5.0;" x1="1638.5" x2="1638.5" y1="80.6406" y2="1606.4297"/><text fill="#000000" font-family="sans-serif" font-size="14" lengthAdjust="spacing" textLength="110" x="5" y="77.6738">Network Manager</text><ellipse cx="63" cy="13.5" fill="#E3E3E3" rx="8" ry="8" style="stroke:#181818;stroke-width:0.5;"/><path d="M63,21.5 L63,48.5 M50,29.5 L76,29.5 M63,48.5 L50,63.5 M63,48.5 L76,63.5 " fill="none" style="stroke:#181818;stroke-width:0.5;"/><text fill="#000000" font-family="sans-serif" font-size="14" lengthAdjust="spacing" textLength="110" x="5" y="1618.1035">Network Manager</text><ellipse cx="63" cy="1629.5703" fill="#E3E3E3" rx="8" ry="8" style="stroke:#181818;stroke-width:0.5;"/><path d="M63,1637.5703 L63,1664.5703 M50,1645.5703 L76,1645.5703 M63,1664.5703 L50,1679.5703 M63,1664.5703 L76,1679.5703 " fill="none" style="stroke:#181818;stroke-width:0.5;"/><rect fill="#E3E3E3" height="29.6406" rx="2.5" ry="2.5" style="stroke:#181818;stroke-width:0.5;" width="88" x="458" y="50"/><text fill="#000000" font-family="sans-serif" font-size="14" lengthAdjust="spacing" textLength="74" x="465" y="69.6738">:ListDealsUI</text><rect fill="#E3E3E3" height="29.6406" rx="2.5" ry="2.5" style="stroke:#181818;stroke-width:0.5;" width="88" x="458" y="1605.4297"/><text fill="#000000" font-family="sans-serif" font-size="14" lengthAdjust="spacing" textLength="74" x="465" y="1625.1035">:ListDealsUI</text><rect fill="#E3E3E3" height="29.6406" rx="2.5" ry="2.5" style="stroke:#181818;stroke-width:0.5;" width="138" x="599" y="1605.4297"/><text fill="#000000" font-family="sans-serif" font-size="14" lengthAdjust="spacing" textLength="124" x="606" y="1625.1035">:ListDealsController</text><rect fill="#E3E3E3" height="29.6406" rx="2.5" ry="2.5" style="stroke:#181818;stroke-width:0.5;" width="97" x="777.5" y="50"/><text fill="#000000" font-family="sans-serif" font-size="14" lengthAdjust="spacing" textLength="83" x="784.5" y="69.6738">:Repositories</text><rect fill="#E3E3E3" height="29.6406" rx="2.5" ry="2.5" style="stroke:#181818;stroke-width:0.5;" width="97" x="777.5" y="1605.4297"/><text fill="#000000" font-family="sans-serif" font-size="14" lengthAdjust="spacing" textLength="83" x="784.5" y="1625.1035">:Repositories</text><rect fill="#E3E3E3" height="45.2813" rx="2.5" ry="2.5" style="stroke:#181818;stroke-width:0.5;" width="97" x="884.5" y="34.3594"/><text fill="#000000" font-family="sans-serif" font-size="14" lengthAdjust="spacing" textLength="74" x="896" y="54.0332">repositories</text><text fill="#000000" font-family="sans-serif" font-size="14" lengthAdjust="spacing" textLength="83" x="891.5" y="69.6738">:Repositories</text><rect fill="#E3E3E3" height="45.2813" rx="2.5" ry="2.5" style="stroke:#181818;stroke-width:0.5;" width="97" x="884.5" y="1605.4297"/><text fill="#000000" font-family="sans-serif" font-size="14" lengthAdjust="spacing" textLength="74" x="896" y="1625.1035">repositories</text><text fill="#000000" font-family="sans-serif" font-size="14" lengthAdjust="spacing" textLength="83" x="891.5" y="1640.7441">:Repositories</text><rect fill="#E3E3E3" height="45.2813" rx="2.5" ry="2.5" style="stroke:#181818;stroke-width:0.5;" width="114" x="991.5" y="34.3594"/><text fill="#000000" font-family="sans-serif" font-size="14" lengthAdjust="spacing" textLength="97" x="1000" y="54.0332">offerRepository</text><text fill="#000000" font-family="sans-serif" font-size="14" lengthAdjust="spacing" textLength="100" x="998.5" y="69.6738">OfferRepository</text><rect fill="#E3E3E3" height="45.2813" rx="2.5" ry="2.5" style="stroke:#181818;stroke-width:0.5;" width="114" x="991.5" y="1605.4297"/><text fill="#000000" font-family="sans-serif" font-size="14" lengthAdjust="spacing" textLength="97" x="1000" y="1625.1035">offerRepository</text><text fill="#000000" font-family="sans-serif" font-size="14" lengthAdjust="spacing" textLength="100" x="998.5" y="1640.7441">OfferRepository</text><rect fill="#E3E3E3" height="29.6406" rx="2.5" ry="2.5" style="stroke:#181818;stroke-width:0.5;" width="98" x="1115.5" y="50"/><text fill="#000000" font-family="sans-serif" font-size="14" lengthAdjust="spacing" textLength="84" x="1122.5" y="69.6738">:OfferMapper</text><rect fill="#E3E3E3" height="29.6406" rx="2.5" ry="2.5" style="stroke:#181818;stroke-width:0.5;" width="98" x="1115.5" y="1605.4297"/><text fill="#000000" font-family="sans-serif" font-size="14" lengthAdjust="spacing" textLength="84" x="1122.5" y="1625.1035">:OfferMapper</text><rect fill="#E3E3E3" height="29.6406" rx="2.5" ry="2.5" style="stroke:#181818;stroke-width:0.5;" width="197" x="1223.5" y="50"/><text fill="#000000" font-family="sans-serif" font-size="14" lengthAdjust="spacing" textLength="183" x="1230.5" y="69.6738">listOfferDTO:List&lt;OfferDTO&gt;</text><rect fill="#E3E3E3" height="29.6406" rx="2.5" ry="2.5" style="stroke:#181818;stroke-width:0.5;" width="197" x="1223.5" y="1605.4297"/><text fill="#000000" font-family="sans-serif" font-size="14" lengthAdjust="spacing" textLength="183" x="1230.5" y="1625.1035">listOfferDTO:List&lt;OfferDTO&gt;</text><rect fill="#E3E3E3" height="29.6406" rx="2.5" ry="2.5" style="stroke:#181818;stroke-width:0.5;" width="137" x="1430.5" y="50"/><text fill="#000000" font-family="sans-serif" font-size="14" lengthAdjust="spacing" textLength="123" x="1437.5" y="69.6738">listOffer:List&lt;Offer&gt;</text><rect fill="#E3E3E3" height="29.6406" rx="2.5" ry="2.5" style="stroke:#181818;stroke-width:0.5;" width="137" x="1430.5" y="1605.4297"/><text fill="#000000" font-family="sans-serif" font-size="14" lengthAdjust="spacing" textLength="123" x="1437.5" y="1625.1035">listOffer:List&lt;Offer&gt;</text><rect fill="#E3E3E3" height="29.6406" rx="2.5" ry="2.5" style="stroke:#181818;stroke-width:0.5;" width="123" x="1577.5" y="50"/><text fill="#000000" font-family="sans-serif" font-size="14" lengthAdjust="spacing" textLength="109" x="1584.5" y="69.6738">offerDto:OfferDto</text><rect fill="#E3E3E3" height="29.6406" rx="2.5" ry="2.5" style="stroke:#181818;stroke-width:0.5;" width="123" x="1577.5" y="1605.4297"/><text fill="#000000" font-family="sans-serif" font-size="14" lengthAdjust="spacing" textLength="109" x="1584.5" y="1625.1035">offerDto:OfferDto</text><rect fill="#FFFFFF" height="1497.7891" style="stroke:#181818;stroke-width:1.0;" width="10" x="58" y="90.6406"/><rect fill="#FFFFFF" height="28.5234" style="stroke:#181818;stroke-width:1.0;" width="10" x="497" y="111.1641"/><rect fill="#FFFFFF" height="28.5234" style="stroke:#181818;stroke-width:1.0;" width="10" x="497" y="168.2109"/><rect fill="#FFFFFF" height="1306.125" style="stroke:#181818;stroke-width:1.0;" width="10" x="497" y="225.2578"/><rect fill="#FFFFFF" height="28.5234" style="stroke:#181818;stroke-width:1.0;" width="10" x="497" y="1559.9063"/><rect fill="#FFFFFF" height="1255.9609" style="stroke:#181818;stroke-width:1.0;" width="10" x="663" y="341.4688"/><rect fill="#FFFFFF" height="168.0078" style="stroke:#181818;stroke-width:1.0;" width="10" x="668" y="568.5234"/><rect fill="#FFFFFF" height="730.6875" style="stroke:#181818;stroke-width:1.0;" width="10" x="668" y="866.7422"/><rect fill="#FFFFFF" height="168.0078" style="stroke:#181818;stroke-width:1.0;" width="10" x="673" y="1093.7969"/><rect fill="#FFFFFF" height="168.0078" style="stroke:#181818;stroke-width:1.0;" width="10" x="673" y="1327.8516"/><polygon fill="#181818" points="485,107.1641,495,111.1641,485,115.1641,489,111.1641" style="stroke:#181818;stroke-width:1.0;"/><line style="stroke:#181818;stroke-width:1.0;" x1="68" x2="491" y1="111.1641" y2="111.1641"/><text fill="#000000" font-family="sans-serif" font-size="13" font-weight="bold" lengthAdjust="spacing" textLength="7" x="75" y="106.4092">1</text><text fill="#000000" font-family="sans-serif" font-size="13" lengthAdjust="spacing" textLength="174" x="86" y="106.4092">asks to see list of deals made</text><polygon fill="#181818" points="79,135.6875,69,139.6875,79,143.6875,75,139.6875" style="stroke:#181818;stroke-width:1.0;"/><line style="stroke:#181818;stroke-width:1.0;stroke-dasharray:2.0,2.0;" x1="73" x2="501" y1="139.6875" y2="139.6875"/><text fill="#000000" font-family="sans-serif" font-size="13" font-weight="bold" lengthAdjust="spacing" textLength="7" x="85" y="134.9326">2</text><text fill="#000000" font-family="sans-serif" font-size="13" lengthAdjust="spacing" textLength="394" x="96" y="134.9326">requests algorithm(bubble sort/selection sort) to use to list the deals</text><polygon fill="#181818" points="485,164.2109,495,168.2109,485,172.2109,489,168.2109" style="stroke:#181818;stroke-width:1.0;"/><line style="stroke:#181818;stroke-width:1.0;" x1="68" x2="491" y1="168.2109" y2="168.2109"/><text fill="#000000" font-family="sans-serif" font-size="13" font-weight="bold" lengthAdjust="spacing" textLength="7" x="75" y="163.4561">3</text><text fill="#000000" font-family="sans-serif" font-size="13" lengthAdjust="spacing" textLength="257" x="86" y="163.4561">chooses the algorithm to list the deals made</text><polygon fill="#181818" points="79,192.7344,69,196.7344,79,200.7344,75,196.7344" style="stroke:#181818;stroke-width:1.0;"/><line style="stroke:#181818;stroke-width:1.0;stroke-dasharray:2.0,2.0;" x1="73" x2="501" y1="196.7344" y2="196.7344"/><text fill="#000000" font-family="sans-serif" font-size="13" font-weight="bold" lengthAdjust="spacing" textLength="7" x="85" y="191.9795">4</text><text fill="#000000" font-family="sans-serif" font-size="13" lengthAdjust="spacing" textLength="273" x="96" y="191.9795">requests sorting criteria(ascending/descending)</text><polygon fill="#181818" points="485,221.2578,495,225.2578,485,229.2578,489,225.2578" style="stroke:#181818;stroke-width:1.0;"/><line style="stroke:#181818;stroke-width:1.0;" x1="68" x2="491" y1="225.2578" y2="225.2578"/><text fill="#000000" font-family="sans-serif" font-size="13" font-weight="bold" lengthAdjust="spacing" textLength="7" x="75" y="220.5029">5</text><text fill="#000000" font-family="sans-serif" font-size="13" lengthAdjust="spacing" textLength="248" x="86" y="220.5029">chooses the criteria to sort the deals made</text><path d="M438,240.2578 L499,240.2578 L499,246.7813 L489,256.7813 L438,256.7813 L438,240.2578 " fill="#EEEEEE" style="stroke:#000000;stroke-width:1.5;"/><rect fill="none" height="511.2734" style="stroke:#000000;stroke-width:1.5;" width="319" x="438" y="240.2578"/><text fill="#000000" font-family="sans-serif" font-size="13" font-weight="bold" lengthAdjust="spacing" textLength="16" x="453" y="253.0264">alt</text><text fill="#000000" font-family="sans-serif" font-size="11" font-weight="bold" lengthAdjust="spacing" textLength="72" x="514" y="252.2158">[bubble sort]</text><path d="M448,263.7813 L509,263.7813 L509,270.3047 L499,280.3047 L448,280.3047 L448,263.7813 " fill="#EEEEEE" style="stroke:#000000;stroke-width:1.5;"/><rect fill="none" height="253.6953" style="stroke:#000000;stroke-width:1.5;" width="299" x="448" y="263.7813"/><text fill="#000000" font-family="sans-serif" font-size="13" font-weight="bold" lengthAdjust="spacing" textLength="16" x="463" y="276.5498">alt</text><text fill="#000000" font-family="sans-serif" font-size="11" font-weight="bold" lengthAdjust="spacing" textLength="65" x="524" y="275.7393">[ascending]</text><polygon fill="#181818" points="587,296.8281,597,300.8281,587,304.8281,591,300.8281" style="stroke:#181818;stroke-width:1.0;"/><line style="stroke:#181818;stroke-width:1.0;" x1="507" x2="593" y1="300.8281" y2="300.8281"/><text fill="#000000" font-family="sans-serif" font-size="13" font-weight="bold" lengthAdjust="spacing" textLength="7" x="514" y="296.0732">6</text><text fill="#000000" font-family="sans-serif" font-size="13" lengthAdjust="spacing" textLength="36" x="525" y="296.0732">create</text><rect fill="#E3E3E3" height="29.6406" rx="2.5" ry="2.5" style="stroke:#181818;stroke-width:0.5;" width="138" x="599" y="280.3047"/><text fill="#000000" font-family="sans-serif" font-size="14" lengthAdjust="spacing" textLength="124" x="606" y="299.9785">:ListDealsController</text><polygon fill="#181818" points="651,337.4688,661,341.4688,651,345.4688,655,341.4688" style="stroke:#181818;stroke-width:1.0;"/><line style="stroke:#181818;stroke-width:1.0;" x1="507" x2="657" y1="341.4688" y2="341.4688"/><text fill="#000000" font-family="sans-serif" font-size="13" font-weight="bold" lengthAdjust="spacing" textLength="7" x="514" y="336.7139">7</text><text fill="#000000" font-family="sans-serif" font-size="13" lengthAdjust="spacing" textLength="114" x="525" y="336.7139">getOffersListDeals()</text><rect fill="none" height="64.7422" style="stroke:#000000;stroke-width:1.5;" width="271" x="596" y="349.4688"/><path d="M596,349.4688 L658,349.4688 L658,355.4688 L648,365.4688 L596,365.4688 L596,349.4688 " fill="#EEEEEE" style="stroke:#000000;stroke-width:2.0;"/><text fill="#000000" font-family="sans-serif" font-size="13" font-weight="bold" lengthAdjust="spacing" textLength="17" x="609" y="363.2373">ref</text><text fill="#000000" font-family="sans-serif" font-size="12" lengthAdjust="spacing" textLength="3" x="730" y="380.332">&#160;</text><text fill="#000000" font-family="sans-serif" font-size="12" lengthAdjust="spacing" textLength="263" x="600" y="393.7383">Get Deals By Ascending Area Using Bubble Sort</text><text fill="#000000" font-family="sans-serif" font-size="12" lengthAdjust="spacing" textLength="3" x="730" y="407.1445">&#160;</text><rect fill="none" height="64.7422" style="stroke:#000000;stroke-width:1.5;" width="144" x="596" y="419.2109"/><path d="M596,419.2109 L658,419.2109 L658,425.2109 L648,435.2109 L596,435.2109 L596,419.2109 " fill="#EEEEEE" style="stroke:#000000;stroke-width:2.0;"/><text fill="#000000" font-family="sans-serif" font-size="13" font-weight="bold" lengthAdjust="spacing" textLength="17" x="609" y="432.9795">ref</text><text fill="#000000" font-family="sans-serif" font-size="12" lengthAdjust="spacing" textLength="3" x="666.5" y="450.0742">&#160;</text><text fill="#000000" font-family="sans-serif" font-size="12" lengthAdjust="spacing" textLength="83" x="626.5" y="463.4805">Get DTO Deals</text><text fill="#000000" font-family="sans-serif" font-size="12" lengthAdjust="spacing" textLength="3" x="666.5" y="476.8867">&#160;</text><polygon fill="#181818" points="518,505.4766,508,509.4766,518,513.4766,514,509.4766" style="stroke:#181818;stroke-width:1.0;"/><line style="stroke:#181818;stroke-width:1.0;stroke-dasharray:2.0,2.0;" x1="512" x2="662" y1="509.4766" y2="509.4766"/><text fill="#000000" font-family="sans-serif" font-size="13" font-weight="bold" lengthAdjust="spacing" textLength="14" x="524" y="504.7217">22</text><text fill="#000000" font-family="sans-serif" font-size="13" lengthAdjust="spacing" textLength="110" x="542" y="504.7217">offersDTOListMade</text><path d="M448,531.4766 L509,531.4766 L509,538 L499,548 L448,548 L448,531.4766 " fill="#EEEEEE" style="stroke:#000000;stroke-width:1.5;"/><rect fill="none" height="213.0547" style="stroke:#000000;stroke-width:1.5;" width="299" x="448" y="531.4766"/><text fill="#000000" font-family="sans-serif" font-size="13" font-weight="bold" lengthAdjust="spacing" textLength="16" x="463" y="544.2451">alt</text><text fill="#000000" font-family="sans-serif" font-size="11" font-weight="bold" lengthAdjust="spacing" textLength="73" x="524" y="543.4346">[descending]</text><polygon fill="#181818" points="656,564.5234,666,568.5234,656,572.5234,660,568.5234" style="stroke:#181818;stroke-width:1.0;"/><line style="stroke:#181818;stroke-width:1.0;" x1="507" x2="662" y1="568.5234" y2="568.5234"/><text fill="#000000" font-family="sans-serif" font-size="13" font-weight="bold" lengthAdjust="spacing" textLength="14" x="514" y="563.7686">23</text><text fill="#000000" font-family="sans-serif" font-size="13" lengthAdjust="spacing" textLength="114" x="532" y="563.7686">getOffersListDeals()</text><rect fill="none" height="64.7422" style="stroke:#000000;stroke-width:1.5;" width="280" x="596" y="576.5234"/><path d="M596,576.5234 L658,576.5234 L658,582.5234 L648,592.5234 L596,592.5234 L596,576.5234 " fill="#EEEEEE" style="stroke:#000000;stroke-width:2.0;"/><text fill="#000000" font-family="sans-serif" font-size="13" font-weight="bold" lengthAdjust="spacing" textLength="17" x="609" y="590.292">ref</text><text fill="#000000" font-family="sans-serif" font-size="12" lengthAdjust="spacing" textLength="3" x="734.5" y="607.3867">&#160;</text><text fill="#000000" font-family="sans-serif" font-size="12" lengthAdjust="spacing" textLength="272" x="600" y="620.793">Get Deals By Descending Area Using Bubble Sort</text><text fill="#000000" font-family="sans-serif" font-size="12" lengthAdjust="spacing" textLength="3" x="734.5" y="634.1992">&#160;</text><rect fill="none" height="64.7422" style="stroke:#000000;stroke-width:1.5;" width="144" x="596" y="646.2656"/><path d="M596,646.2656 L658,646.2656 L658,652.2656 L648,662.2656 L596,662.2656 L596,646.2656 " fill="#EEEEEE" style="stroke:#000000;stroke-width:2.0;"/><text fill="#000000" font-family="sans-serif" font-size="13" font-weight="bold" lengthAdjust="spacing" textLength="17" x="609" y="660.0342">ref</text><text fill="#000000" font-family="sans-serif" font-size="12" lengthAdjust="spacing" textLength="3" x="666.5" y="677.1289">&#160;</text><text fill="#000000" font-family="sans-serif" font-size="12" lengthAdjust="spacing" textLength="83" x="626.5" y="690.5352">Get DTO Deals</text><text fill="#000000" font-family="sans-serif" font-size="12" lengthAdjust="spacing" textLength="3" x="666.5" y="703.9414">&#160;</text><polygon fill="#181818" points="518,732.5313,508,736.5313,518,740.5313,514,736.5313" style="stroke:#181818;stroke-width:1.0;"/><line style="stroke:#181818;stroke-width:1.0;stroke-dasharray:2.0,2.0;" x1="512" x2="662" y1="736.5313" y2="736.5313"/><text fill="#000000" font-family="sans-serif" font-size="13" font-weight="bold" lengthAdjust="spacing" textLength="14" x="524" y="731.7764">42</text><text fill="#000000" font-family="sans-serif" font-size="13" lengthAdjust="spacing" textLength="110" x="542" y="731.7764">offersDTOListMade</text><path d="M438,765.5313 L499,765.5313 L499,772.0547 L489,782.0547 L438,782.0547 L438,765.5313 " fill="#EEEEEE" style="stroke:#000000;stroke-width:1.5;"/><rect fill="none" height="511.2734" style="stroke:#000000;stroke-width:1.5;" width="319" x="438" y="765.5313"/><text fill="#000000" font-family="sans-serif" font-size="13" font-weight="bold" lengthAdjust="spacing" textLength="16" x="453" y="778.2998">alt</text><text fill="#000000" font-family="sans-serif" font-size="11" font-weight="bold" lengthAdjust="spacing" textLength="85" x="514" y="777.4893">[sort selection]</text><path d="M448,789.0547 L509,789.0547 L509,795.5781 L499,805.5781 L448,805.5781 L448,789.0547 " fill="#EEEEEE" style="stroke:#000000;stroke-width:1.5;"/><rect fill="none" height="253.6953" style="stroke:#000000;stroke-width:1.5;" width="299" x="448" y="789.0547"/><text fill="#000000" font-family="sans-serif" font-size="13" font-weight="bold" lengthAdjust="spacing" textLength="16" x="463" y="801.8232">alt</text><text fill="#000000" font-family="sans-serif" font-size="11" font-weight="bold" lengthAdjust="spacing" textLength="65" x="524" y="801.0127">[ascending]</text><polygon fill="#181818" points="582,822.1016,592,826.1016,582,830.1016,586,826.1016" style="stroke:#181818;stroke-width:1.0;"/><line style="stroke:#181818;stroke-width:1.0;" x1="507" x2="588" y1="826.1016" y2="826.1016"/><text fill="#000000" font-family="sans-serif" font-size="13" font-weight="bold" lengthAdjust="spacing" textLength="14" x="514" y="821.3467">43</text><text fill="#000000" font-family="sans-serif" font-size="13" lengthAdjust="spacing" textLength="36" x="532" y="821.3467">create</text><rect fill="#E3E3E3" height="29.6406" rx="2.5" ry="2.5" style="stroke:#181818;stroke-width:0.5;" width="138" x="599" y="805.5781"/><text fill="#000000" font-family="sans-serif" font-size="14" lengthAdjust="spacing" textLength="124" x="606" y="825.252">:ListDealsController</text><polygon fill="#181818" points="656,862.7422,666,866.7422,656,870.7422,660,866.7422" style="stroke:#181818;stroke-width:1.0;"/><line style="stroke:#181818;stroke-width:1.0;" x1="507" x2="662" y1="866.7422" y2="866.7422"/><text fill="#000000" font-family="sans-serif" font-size="13" font-weight="bold" lengthAdjust="spacing" textLength="14" x="514" y="861.9873">44</text><text fill="#000000" font-family="sans-serif" font-size="13" lengthAdjust="spacing" textLength="114" x="532" y="861.9873">getOffersListDeals()</text><rect fill="none" height="64.7422" style="stroke:#000000;stroke-width:1.5;" width="283" x="596" y="874.7422"/><path d="M596,874.7422 L658,874.7422 L658,880.7422 L648,890.7422 L596,890.7422 L596,874.7422 " fill="#EEEEEE" style="stroke:#000000;stroke-width:2.0;"/><text fill="#000000" font-family="sans-serif" font-size="13" font-weight="bold" lengthAdjust="spacing" textLength="17" x="609" y="888.5107">ref</text><text fill="#000000" font-family="sans-serif" font-size="12" lengthAdjust="spacing" textLength="3" x="736" y="905.6055">&#160;</text><text fill="#000000" font-family="sans-serif" font-size="12" lengthAdjust="spacing" textLength="275" x="600" y="919.0117">Get Deals By Ascending Area Using Sort Selection</text><text fill="#000000" font-family="sans-serif" font-size="12" lengthAdjust="spacing" textLength="3" x="736" y="932.418">&#160;</text><rect fill="none" height="64.7422" style="stroke:#000000;stroke-width:1.5;" width="144" x="596" y="944.4844"/><path d="M596,944.4844 L658,944.4844 L658,950.4844 L648,960.4844 L596,960.4844 L596,944.4844 " fill="#EEEEEE" style="stroke:#000000;stroke-width:2.0;"/><text fill="#000000" font-family="sans-serif" font-size="13" font-weight="bold" lengthAdjust="spacing" textLength="17" x="609" y="958.2529">ref</text><text fill="#000000" font-family="sans-serif" font-size="12" lengthAdjust="spacing" textLength="3" x="666.5" y="975.3477">&#160;</text><text fill="#000000" font-family="sans-serif" font-size="12" lengthAdjust="spacing" textLength="83" x="626.5" y="988.7539">Get DTO Deals</text><text fill="#000000" font-family="sans-serif" font-size="12" lengthAdjust="spacing" textLength="3" x="666.5" y="1002.1602">&#160;</text><polygon fill="#181818" points="518,1030.75,508,1034.75,518,1038.75,514,1034.75" style="stroke:#181818;stroke-width:1.0;"/><line style="stroke:#181818;stroke-width:1.0;stroke-dasharray:2.0,2.0;" x1="512" x2="667" y1="1034.75" y2="1034.75"/><text fill="#000000" font-family="sans-serif" font-size="13" font-weight="bold" lengthAdjust="spacing" textLength="14" x="524" y="1029.9951">22</text><text fill="#000000" font-family="sans-serif" font-size="13" lengthAdjust="spacing" textLength="110" x="542" y="1029.9951">offersDTOListMade</text><path d="M448,1056.75 L509,1056.75 L509,1063.2734 L499,1073.2734 L448,1073.2734 L448,1056.75 " fill="#EEEEEE" style="stroke:#000000;stroke-width:1.5;"/><rect fill="none" height="213.0547" style="stroke:#000000;stroke-width:1.5;" width="299" x="448" y="1056.75"/><text fill="#000000" font-family="sans-serif" font-size="13" font-weight="bold" lengthAdjust="spacing" textLength="16" x="463" y="1069.5186">alt</text><text fill="#000000" font-family="sans-serif" font-size="11" font-weight="bold" lengthAdjust="spacing" textLength="73" x="524" y="1068.708">[descending]</text><polygon fill="#181818" points="661,1089.7969,671,1093.7969,661,1097.7969,665,1093.7969" style="stroke:#181818;stroke-width:1.0;"/><line style="stroke:#181818;stroke-width:1.0;" x1="507" x2="667" y1="1093.7969" y2="1093.7969"/><text fill="#000000" font-family="sans-serif" font-size="13" font-weight="bold" lengthAdjust="spacing" textLength="14" x="514" y="1089.042">23</text><text fill="#000000" font-family="sans-serif" font-size="13" lengthAdjust="spacing" textLength="114" x="532" y="1089.042">getOffersListDeals()</text><rect fill="none" height="64.7422" style="stroke:#000000;stroke-width:1.5;" width="292" x="596" y="1101.7969"/><path d="M596,1101.7969 L658,1101.7969 L658,1107.7969 L648,1117.7969 L596,1117.7969 L596,1101.7969 " fill="#EEEEEE" style="stroke:#000000;stroke-width:2.0;"/><text fill="#000000" font-family="sans-serif" font-size="13" font-weight="bold" lengthAdjust="spacing" textLength="17" x="609" y="1115.5654">ref</text><text fill="#000000" font-family="sans-serif" font-size="12" lengthAdjust="spacing" textLength="3" x="740.5" y="1132.6602">&#160;</text><text fill="#000000" font-family="sans-serif" font-size="12" lengthAdjust="spacing" textLength="284" x="600" y="1146.0664">Get Deals By Descending Area Using Sort Selection</text><text fill="#000000" font-family="sans-serif" font-size="12" lengthAdjust="spacing" textLength="3" x="740.5" y="1159.4727">&#160;</text><rect fill="none" height="64.7422" style="stroke:#000000;stroke-width:1.5;" width="144" x="596" y="1171.5391"/><path d="M596,1171.5391 L658,1171.5391 L658,1177.5391 L648,1187.5391 L596,1187.5391 L596,1171.5391 " fill="#EEEEEE" style="stroke:#000000;stroke-width:2.0;"/><text fill="#000000" font-family="sans-serif" font-size="13" font-weight="bold" lengthAdjust="spacing" textLength="17" x="609" y="1185.3076">ref</text><text fill="#000000" font-family="sans-serif" font-size="12" lengthAdjust="spacing" textLength="3" x="666.5" y="1202.4023">&#160;</text><text fill="#000000" font-family="sans-serif" font-size="12" lengthAdjust="spacing" textLength="83" x="626.5" y="1215.8086">Get DTO Deals</text><text fill="#000000" font-family="sans-serif" font-size="12" lengthAdjust="spacing" textLength="3" x="666.5" y="1229.2148">&#160;</text><polygon fill="#181818" points="518,1257.8047,508,1261.8047,518,1265.8047,514,1261.8047" style="stroke:#181818;stroke-width:1.0;"/><line style="stroke:#181818;stroke-width:1.0;stroke-dasharray:2.0,2.0;" x1="512" x2="667" y1="1261.8047" y2="1261.8047"/><text fill="#000000" font-family="sans-serif" font-size="13" font-weight="bold" lengthAdjust="spacing" textLength="14" x="524" y="1257.0498">42</text><text fill="#000000" font-family="sans-serif" font-size="13" lengthAdjust="spacing" textLength="110" x="542" y="1257.0498">offersDTOListMade</text><path d="M448,1290.8047 L509,1290.8047 L509,1297.3281 L499,1307.3281 L448,1307.3281 L448,1290.8047 " fill="#EEEEEE" style="stroke:#000000;stroke-width:1.5;"/><rect fill="none" height="213.0547" style="stroke:#000000;stroke-width:1.5;" width="299" x="448" y="1290.8047"/><text fill="#000000" font-family="sans-serif" font-size="13" font-weight="bold" lengthAdjust="spacing" textLength="16" x="463" y="1303.5732">alt</text><text fill="#000000" font-family="sans-serif" font-size="11" font-weight="bold" lengthAdjust="spacing" textLength="105" x="524" y="1302.7627">[by default sorting]</text><polygon fill="#181818" points="661,1323.8516,671,1327.8516,661,1331.8516,665,1327.8516" style="stroke:#181818;stroke-width:1.0;"/><line style="stroke:#181818;stroke-width:1.0;" x1="507" x2="667" y1="1327.8516" y2="1327.8516"/><text fill="#000000" font-family="sans-serif" font-size="13" font-weight="bold" lengthAdjust="spacing" textLength="14" x="514" y="1323.0967">43</text><text fill="#000000" font-family="sans-serif" font-size="13" lengthAdjust="spacing" textLength="114" x="532" y="1323.0967">getOffersListDeals()</text><rect fill="none" height="64.7422" style="stroke:#000000;stroke-width:1.5;" width="150" x="596" y="1335.8516"/><path d="M596,1335.8516 L658,1335.8516 L658,1341.8516 L648,1351.8516 L596,1351.8516 L596,1335.8516 " fill="#EEEEEE" style="stroke:#000000;stroke-width:2.0;"/><text fill="#000000" font-family="sans-serif" font-size="13" font-weight="bold" lengthAdjust="spacing" textLength="17" x="609" y="1349.6201">ref</text><text fill="#000000" font-family="sans-serif" font-size="12" lengthAdjust="spacing" textLength="3" x="669.5" y="1366.7148">&#160;</text><text fill="#000000" font-family="sans-serif" font-size="12" lengthAdjust="spacing" textLength="142" x="600" y="1380.1211">Get Deals By Most Recent</text><text fill="#000000" font-family="sans-serif" font-size="12" lengthAdjust="spacing" textLength="3" x="669.5" y="1393.5273">&#160;</text><rect fill="none" height="64.7422" style="stroke:#000000;stroke-width:1.5;" width="144" x="596" y="1405.5938"/><path d="M596,1405.5938 L658,1405.5938 L658,1411.5938 L648,1421.5938 L596,1421.5938 L596,1405.5938 " fill="#EEEEEE" style="stroke:#000000;stroke-width:2.0;"/><text fill="#000000" font-family="sans-serif" font-size="13" font-weight="bold" lengthAdjust="spacing" textLength="17" x="609" y="1419.3623">ref</text><text fill="#000000" font-family="sans-serif" font-size="12" lengthAdjust="spacing" textLength="3" x="666.5" y="1436.457">&#160;</text><text fill="#000000" font-family="sans-serif" font-size="12" lengthAdjust="spacing" textLength="83" x="626.5" y="1449.8633">Get DTO Deals</text><text fill="#000000" font-family="sans-serif" font-size="12" lengthAdjust="spacing" textLength="3" x="666.5" y="1463.2695">&#160;</text><polygon fill="#181818" points="518,1491.8594,508,1495.8594,518,1499.8594,514,1495.8594" style="stroke:#181818;stroke-width:1.0;"/><line style="stroke:#181818;stroke-width:1.0;stroke-dasharray:2.0,2.0;" x1="512" x2="667" y1="1495.8594" y2="1495.8594"/><text fill="#000000" font-family="sans-serif" font-size="13" font-weight="bold" lengthAdjust="spacing" textLength="14" x="524" y="1491.1045">42</text><text fill="#000000" font-family="sans-serif" font-size="13" lengthAdjust="spacing" textLength="110" x="542" y="1491.1045">offersDTOListMade</text><polygon fill="#181818" points="79,1527.3828,69,1531.3828,79,1535.3828,75,1531.3828" style="stroke:#181818;stroke-width:1.0;"/><line style="stroke:#181818;stroke-width:1.0;stroke-dasharray:2.0,2.0;" x1="73" x2="501" y1="1531.3828" y2="1531.3828"/><text fill="#000000" font-family="sans-serif" font-size="13" font-weight="bold" lengthAdjust="spacing" textLength="14" x="85" y="1526.6279">43</text><text fill="#000000" font-family="sans-serif" font-size="13" lengthAdjust="spacing" textLength="347" x="103" y="1526.6279">shows list deals made by the selected algorithm and criteria</text><polygon fill="#181818" points="485,1555.9063,495,1559.9063,485,1563.9063,489,1559.9063" style="stroke:#181818;stroke-width:1.0;"/><line style="stroke:#181818;stroke-width:1.0;" x1="68" x2="491" y1="1559.9063" y2="1559.9063"/><text fill="#000000" font-family="sans-serif" font-size="13" font-weight="bold" lengthAdjust="spacing" textLength="14" x="75" y="1555.1514">44</text><text fill="#000000" font-family="sans-serif" font-size="13" lengthAdjust="spacing" textLength="75" x="93" y="1555.1514">submits data</text><polygon fill="#181818" points="74,1584.4297,64,1588.4297,74,1592.4297,70,1588.4297" style="stroke:#181818;stroke-width:1.0;"/><line style="stroke:#181818;stroke-width:1.0;stroke-dasharray:2.0,2.0;" x1="68" x2="501" y1="1588.4297" y2="1588.4297"/><text fill="#000000" font-family="sans-serif" font-size="13" font-weight="bold" lengthAdjust="spacing" textLength="14" x="80" y="1583.6748">45</text><text fill="#000000" font-family="sans-serif" font-size="13" lengthAdjust="spacing" textLength="158" x="98" y="1583.6748">displays operation success</text><!--SRC=[vLVDRjim3BxhAOXUcXOj2XGx1KE1j0660SqwDDcj5yMcOo6sv4bokxpzADcnvSHPaWrejyuNMwJuzv6KARCKik2Qvv0hgQ9Kgnp1wXAPQJW5ZvPyWLExoX0qHfRBHHPkC2cFrOkG2qXuPf0nNbebotoEch7JLCG8YL9shdum7bcbuUGBsXUbbp3XaZJh4-06QbfDOgJQYaWKN5eu6TuBOyT8shzzzfk3zQwTTqfQhRAiLjz3tv1yn48PGVu9D5wa8QocmeLCGNL5T23n9BSLVBqVpReIAabGjtgVv4ENuCKsQ1jkUkw45qKTMB3kximeOiySpnuyB1_Ngvi6aOfYrGx9G6n3fYSiKZDSwsizSyfTsiKpjxYPP0RrqwN3vKsOOHYIjgK1gy0WWlCEL0AnuqBEOspKh9_6NbWdMxj24vTaikl4a6hzUud66k3PWf9gqtmmB-TpwWAZjBqoc54p22NzyiovLnfqB- -XJR5oSSikKG_oRoygKQgKGUDDDJvkEz2FqN5O7OsPmyGT2H4vXLhm0JSHofX8Lp6kFyzssZa8esFmMVlXguXy-oDuU6OXA0M_Rk9ZNIyxYDtqdKFdvyvNZMJbM54IN63LaQPX3xgmRaSG785COmBgcJJrSaCzdz22tm2tAnYjeuKHEGxVZFkyhI2PEaWOiQaQagCjp1ugAu66zdy2rzUCzU5msKt-4FoHP4YReqvSXfdNo7oosX8awkdhe_wxi8_nZN3_SBtx-DoT1kZBmxusx-04u7BcyrPbplTkS_IohTRxNtlF9H-cBIv_OVkzq-vx7UJVgW7RzlC_lHL99Boi6x7EOAYmdWj6uma4qq3CBOS1nOGQPOGNlWIqA1nY5m129ahdF8CdsULOZ58f8k9qo76fUVKLAMExgJ-jkXdkPe_t_qvfJIWEkd1GUTdtM47-OFxrx4Y6JAfUJ3MyjfEPgpatgrLdFiR1fCifolLSn_PCZeVCYwQSvwAkLdRORBnl7ew5AJA-Cg3eViQhsq8PHMYgQy6kCJUWRroPVW80]--></g></svg>