<?xml version="1.0" encoding="us-ascii" standalone="no"?><svg xmlns="http://www.w3.org/2000/svg" xmlns:xlink="http://www.w3.org/1999/xlink" contentStyleType="text/css" height="1851px" preserveAspectRatio="none" style="width:1472px;height:1851px;background:#FFFFFF;" version="1.1" viewBox="0 0 1472 1851" width="1472px" zoomAndPan="magnify"><defs/><g><!--class Employee--><g id="elem_Employee"><rect codeLine="3" fill="#F1F1F1" height="126.2031" id="Employee" rx="2.5" ry="2.5" style="stroke:#181818;stroke-width:0.5;" width="553" x="116.5" y="739"/><ellipse cx="357.75" cy="755" fill="#ADD1B2" rx="11" ry="11" style="stroke:#181818;stroke-width:1.0;"/><path d="M359.75,751.5 Q359.9531,751 360.1875,750.75 Q360.4219,750.5 360.6875,750.5 Q361.1563,750.5 361.4531,750.7813 Q361.75,751.0625 361.75,751.7188 L361.75,753.2813 Q361.75,753.9375 361.4688,754.2188 Q361.1875,754.5 360.75,754.5 Q360.3594,754.5 360.1094,754.3281 Q359.8594,754.1563 359.75,753.7031 Q359.7031,753.3906 359.5313,753.2188 Q359.2188,752.8906 358.6563,752.7031 Q358.0938,752.5 357.5313,752.5 Q356.8281,752.5 356.2344,752.7813 Q355.6563,753.0625 355.2031,753.6875 Q354.75,754.3125 354.75,755.1719 L354.75,756.0938 Q354.75,757.125 355.5938,757.8125 Q356.4375,758.5 357.9375,758.5 Q358.8281,758.5 359.4531,758.2969 Q359.8125,758.1875 360.2188,757.8281 Q360.4844,757.625 360.625,757.5625 Q360.7656,757.5 360.9375,757.5 Q361.2656,757.5 361.5,757.7656 Q361.75,758.0156 361.75,758.375 Q361.75,758.7188 361.4063,759.125 Q360.9063,759.7188 360.1094,760.0469 Q359.0625,760.5 357.7813,760.5 Q356.2813,760.5 355.0781,759.9063 Q354.1094,759.4375 353.4219,758.4219 Q352.75,757.4063 352.75,756.2031 L352.75,755.1094 Q352.75,753.8594 353.3438,752.7656 Q353.9531,751.6719 355,751.0938 Q356.0625,750.5 357.25,750.5 Q357.9688,750.5 358.5938,750.75 Q359.2188,751 359.75,751.5 Z " fill="#000000"/><text fill="#000000" font-family="sans-serif" font-size="14" lengthAdjust="spacing" textLength="62" x="378.25" y="759.8535">Employee</text><line style="stroke:#181818;stroke-width:0.5;" x1="117.5" x2="668.5" y1="771" y2="771"/><rect fill="none" height="6" style="stroke:#C82930;stroke-width:1.0;" width="6" x="124.5" y="781.3203"/><text fill="#000000" font-family="sans-serif" font-size="14" lengthAdjust="spacing" textLength="70" x="136.5" y="787.6738">Store store</text><rect fill="none" height="6" style="stroke:#C82930;stroke-width:1.0;" width="6" x="124.5" y="796.9609"/><text fill="#000000" font-family="sans-serif" font-size="14" lengthAdjust="spacing" textLength="95" x="136.5" y="803.3145">List&lt;Role&gt; role</text><line style="stroke:#181818;stroke-width:0.5;" x1="117.5" x2="668.5" y1="810.2813" y2="810.2813"/><ellipse cx="127.5" cy="823.6016" fill="#84BE84" rx="3" ry="3" style="stroke:#038048;stroke-width:1.0;"/><text fill="#000000" font-family="sans-serif" font-size="14" lengthAdjust="spacing" textLength="527" x="136.5" y="826.9551">Employee(email,name,store,phoneNumber,role,adress,taxNumber,passportNumber)</text><ellipse cx="127.5" cy="839.2422" fill="#84BE84" rx="3" ry="3" style="stroke:#038048;stroke-width:1.0;"/><text fill="#000000" font-family="sans-serif" font-size="14" lengthAdjust="spacing" textLength="64" x="136.5" y="842.5957">getStore()</text><ellipse cx="127.5" cy="854.8828" fill="#84BE84" rx="3" ry="3" style="stroke:#038048;stroke-width:1.0;"/><text fill="#000000" font-family="sans-serif" font-size="14" lengthAdjust="spacing" textLength="59" x="136.5" y="858.2363">getRole()</text></g><!--class Person--><g id="elem_Person"><rect codeLine="11" fill="#F1F1F1" height="251.3281" id="Person" rx="2.5" ry="2.5" style="stroke:#181818;stroke-width:0.5;" width="409" x="224.5" y="427"/><ellipse cx="402.25" cy="443" fill="#ADD1B2" rx="11" ry="11" style="stroke:#181818;stroke-width:1.0;"/><path d="M404.25,439.5 Q404.4531,439 404.6875,438.75 Q404.9219,438.5 405.1875,438.5 Q405.6563,438.5 405.9531,438.7813 Q406.25,439.0625 406.25,439.7188 L406.25,441.2813 Q406.25,441.9375 405.9688,442.2188 Q405.6875,442.5 405.25,442.5 Q404.8594,442.5 404.6094,442.3281 Q404.3594,442.1563 404.25,441.7031 Q404.2031,441.3906 404.0313,441.2188 Q403.7188,440.8906 403.1563,440.7031 Q402.5938,440.5 402.0313,440.5 Q401.3281,440.5 400.7344,440.7813 Q400.1563,441.0625 399.7031,441.6875 Q399.25,442.3125 399.25,443.1719 L399.25,444.0938 Q399.25,445.125 400.0938,445.8125 Q400.9375,446.5 402.4375,446.5 Q403.3281,446.5 403.9531,446.2969 Q404.3125,446.1875 404.7188,445.8281 Q404.9844,445.625 405.125,445.5625 Q405.2656,445.5 405.4375,445.5 Q405.7656,445.5 406,445.7656 Q406.25,446.0156 406.25,446.375 Q406.25,446.7188 405.9063,447.125 Q405.4063,447.7188 404.6094,448.0469 Q403.5625,448.5 402.2813,448.5 Q400.7813,448.5 399.5781,447.9063 Q398.6094,447.4375 397.9219,446.4219 Q397.25,445.4063 397.25,444.2031 L397.25,443.1094 Q397.25,441.8594 397.8438,440.7656 Q398.4531,439.6719 399.5,439.0938 Q400.5625,438.5 401.75,438.5 Q402.4688,438.5 403.0938,438.75 Q403.7188,439 404.25,439.5 Z " fill="#000000"/><text fill="#000000" font-family="sans-serif" font-size="14" lengthAdjust="spacing" textLength="45" x="422.75" y="447.8535">Person</text><line style="stroke:#181818;stroke-width:0.5;" x1="225.5" x2="632.5" y1="459" y2="459"/><rect fill="none" height="6" style="stroke:#C82930;stroke-width:1.0;" width="6" x="232.5" y="469.3203"/><text fill="#000000" font-family="sans-serif" font-size="14" lengthAdjust="spacing" textLength="74" x="244.5" y="475.6738">String email</text><rect fill="none" height="6" style="stroke:#C82930;stroke-width:1.0;" width="6" x="232.5" y="484.9609"/><text fill="#000000" font-family="sans-serif" font-size="14" lengthAdjust="spacing" textLength="123" x="244.5" y="491.3145">int passportNumber</text><rect fill="none" height="6" style="stroke:#C82930;stroke-width:1.0;" width="6" x="232.5" y="500.6016"/><text fill="#000000" font-family="sans-serif" font-size="14" lengthAdjust="spacing" textLength="86" x="244.5" y="506.9551">int taxNumber</text><rect fill="none" height="6" style="stroke:#C82930;stroke-width:1.0;" width="6" x="232.5" y="516.2422"/><text fill="#000000" font-family="sans-serif" font-size="14" lengthAdjust="spacing" textLength="76" x="244.5" y="522.5957">String name</text><rect fill="none" height="6" style="stroke:#C82930;stroke-width:1.0;" width="6" x="232.5" y="531.8828"/><text fill="#000000" font-family="sans-serif" font-size="14" lengthAdjust="spacing" textLength="91" x="244.5" y="538.2363">Adress adress</text><rect fill="none" height="6" style="stroke:#C82930;stroke-width:1.0;" width="6" x="232.5" y="547.5234"/><text fill="#000000" font-family="sans-serif" font-size="14" lengthAdjust="spacing" textLength="108" x="244.5" y="553.877">int phoneNumber</text><line style="stroke:#181818;stroke-width:0.5;" x1="225.5" x2="632.5" y1="560.8438" y2="560.8438"/><ellipse cx="235.5" cy="574.1641" fill="#84BE84" rx="3" ry="3" style="stroke:#038048;stroke-width:1.0;"/><text fill="#000000" font-family="sans-serif" font-size="14" lengthAdjust="spacing" textLength="383" x="244.5" y="577.5176">User(email,passportNumber,taxNumber,name,phoneNumber)</text><ellipse cx="235.5" cy="589.8047" fill="#84BE84" rx="3" ry="3" style="stroke:#038048;stroke-width:1.0;"/><text fill="#000000" font-family="sans-serif" font-size="14" lengthAdjust="spacing" textLength="135" x="244.5" y="593.1582">getPassportNumber()</text><ellipse cx="235.5" cy="605.4453" fill="#84BE84" rx="3" ry="3" style="stroke:#038048;stroke-width:1.0;"/><text fill="#000000" font-family="sans-serif" font-size="14" lengthAdjust="spacing" textLength="102" x="244.5" y="608.7988">getTaxNumber()</text><ellipse cx="235.5" cy="621.0859" fill="#84BE84" rx="3" ry="3" style="stroke:#038048;stroke-width:1.0;"/><text fill="#000000" font-family="sans-serif" font-size="14" lengthAdjust="spacing" textLength="64" x="244.5" y="624.4395">getEmail()</text><ellipse cx="235.5" cy="636.7266" fill="#84BE84" rx="3" ry="3" style="stroke:#038048;stroke-width:1.0;"/><text fill="#000000" font-family="sans-serif" font-size="14" lengthAdjust="spacing" textLength="74" x="244.5" y="640.0801">getAdress()</text><ellipse cx="235.5" cy="652.3672" fill="#84BE84" rx="3" ry="3" style="stroke:#038048;stroke-width:1.0;"/><text fill="#000000" font-family="sans-serif" font-size="14" lengthAdjust="spacing" textLength="66" x="244.5" y="655.7207">getName()</text><ellipse cx="235.5" cy="668.0078" fill="#84BE84" rx="3" ry="3" style="stroke:#038048;stroke-width:1.0;"/><text fill="#000000" font-family="sans-serif" font-size="14" lengthAdjust="spacing" textLength="120" x="244.5" y="671.3613">getPhoneNumber()</text></g><!--class NetworkManager--><g id="elem_NetworkManager"><rect codeLine="28" fill="#F1F1F1" height="48" id="NetworkManager" rx="2.5" ry="2.5" style="stroke:#181818;stroke-width:0.5;" width="138" x="358" y="941.5"/><ellipse cx="373" cy="957.5" fill="#ADD1B2" rx="11" ry="11" style="stroke:#181818;stroke-width:1.0;"/><path d="M375,954 Q375.2031,953.5 375.4375,953.25 Q375.6719,953 375.9375,953 Q376.4063,953 376.7031,953.2813 Q377,953.5625 377,954.2188 L377,955.7813 Q377,956.4375 376.7188,956.7188 Q376.4375,957 376,957 Q375.6094,957 375.3594,956.8281 Q375.1094,956.6563 375,956.2031 Q374.9531,955.8906 374.7813,955.7188 Q374.4688,955.3906 373.9063,955.2031 Q373.3438,955 372.7813,955 Q372.0781,955 371.4844,955.2813 Q370.9063,955.5625 370.4531,956.1875 Q370,956.8125 370,957.6719 L370,958.5938 Q370,959.625 370.8438,960.3125 Q371.6875,961 373.1875,961 Q374.0781,961 374.7031,960.7969 Q375.0625,960.6875 375.4688,960.3281 Q375.7344,960.125 375.875,960.0625 Q376.0156,960 376.1875,960 Q376.5156,960 376.75,960.2656 Q377,960.5156 377,960.875 Q377,961.2188 376.6563,961.625 Q376.1563,962.2188 375.3594,962.5469 Q374.3125,963 373.0313,963 Q371.5313,963 370.3281,962.4063 Q369.3594,961.9375 368.6719,960.9219 Q368,959.9063 368,958.7031 L368,957.6094 Q368,956.3594 368.5938,955.2656 Q369.2031,954.1719 370.25,953.5938 Q371.3125,953 372.5,953 Q373.2188,953 373.8438,953.25 Q374.4688,953.5 375,954 Z " fill="#000000"/><text fill="#000000" font-family="sans-serif" font-size="14" lengthAdjust="spacing" textLength="106" x="387" y="962.3535">NetworkManager</text><line style="stroke:#181818;stroke-width:0.5;" x1="359" x2="495" y1="973.5" y2="973.5"/><line style="stroke:#181818;stroke-width:0.5;" x1="359" x2="495" y1="981.5" y2="981.5"/></g><!--class Offer--><g id="elem_Offer"><rect codeLine="31" fill="#F1F1F1" height="79.2813" id="Offer" rx="2.5" ry="2.5" style="stroke:#181818;stroke-width:0.5;" width="149" x="641.5" y="926"/><ellipse cx="695.75" cy="942" fill="#ADD1B2" rx="11" ry="11" style="stroke:#181818;stroke-width:1.0;"/><path d="M697.75,938.5 Q697.9531,938 698.1875,937.75 Q698.4219,937.5 698.6875,937.5 Q699.1563,937.5 699.4531,937.7813 Q699.75,938.0625 699.75,938.7188 L699.75,940.2813 Q699.75,940.9375 699.4688,941.2188 Q699.1875,941.5 698.75,941.5 Q698.3594,941.5 698.1094,941.3281 Q697.8594,941.1563 697.75,940.7031 Q697.7031,940.3906 697.5313,940.2188 Q697.2188,939.8906 696.6563,939.7031 Q696.0938,939.5 695.5313,939.5 Q694.8281,939.5 694.2344,939.7813 Q693.6563,940.0625 693.2031,940.6875 Q692.75,941.3125 692.75,942.1719 L692.75,943.0938 Q692.75,944.125 693.5938,944.8125 Q694.4375,945.5 695.9375,945.5 Q696.8281,945.5 697.4531,945.2969 Q697.8125,945.1875 698.2188,944.8281 Q698.4844,944.625 698.625,944.5625 Q698.7656,944.5 698.9375,944.5 Q699.2656,944.5 699.5,944.7656 Q699.75,945.0156 699.75,945.375 Q699.75,945.7188 699.4063,946.125 Q698.9063,946.7188 698.1094,947.0469 Q697.0625,947.5 695.7813,947.5 Q694.2813,947.5 693.0781,946.9063 Q692.1094,946.4375 691.4219,945.4219 Q690.75,944.4063 690.75,943.2031 L690.75,942.1094 Q690.75,940.8594 691.3438,939.7656 Q691.9531,938.6719 693,938.0938 Q694.0625,937.5 695.25,937.5 Q695.9688,937.5 696.5938,937.75 Q697.2188,938 697.75,938.5 Z " fill="#000000"/><text fill="#000000" font-family="sans-serif" font-size="14" lengthAdjust="spacing" textLength="32" x="716.25" y="946.8535">Offer</text><line style="stroke:#181818;stroke-width:0.5;" x1="642.5" x2="789.5" y1="958" y2="958"/><rect fill="none" height="6" style="stroke:#C82930;stroke-width:1.0;" width="6" x="649.5" y="968.3203"/><text fill="#000000" font-family="sans-serif" font-size="14" lengthAdjust="spacing" textLength="76" x="661.5" y="974.6738">String name</text><rect fill="none" height="6" style="stroke:#C82930;stroke-width:1.0;" width="6" x="649.5" y="983.9609"/><text fill="#000000" font-family="sans-serif" font-size="14" lengthAdjust="spacing" textLength="123" x="661.5" y="990.3145">String orderAmount</text><line style="stroke:#181818;stroke-width:0.5;" x1="642.5" x2="789.5" y1="997.2813" y2="997.2813"/></g><!--class OfferState--><g id="elem_OfferState"><rect codeLine="36" fill="#F1F1F1" height="94.9219" id="OfferState" rx="2.5" ry="2.5" style="stroke:#181818;stroke-width:0.5;" width="126" x="643" y="1081"/><ellipse cx="671.05" cy="1097" fill="#EB937F" rx="11" ry="11" style="stroke:#181818;stroke-width:1.0;"/><path d="M669.55,1098 L669.55,1100 L673.55,1100 L673.55,1099 L673.55,1098.5156 L674.175,1098 L674.55,1098 L674.925,1098 L675.55,1098.5156 L675.55,1099 L675.55,1102 L667.55,1102 L667.0656,1102 L666.55,1101.375 L666.55,1101 L666.55,1100.625 L667.0656,1100 L667.55,1100 L667.55,1100 L667.55,1094 L667.55,1094 L667.0656,1094 L666.55,1093.375 L666.55,1093 L666.55,1092.625 L667.0656,1092 L667.55,1092 L675.55,1092 L675.55,1095 L675.55,1095.4844 L674.925,1096 L674.55,1096 L674.175,1096 L673.55,1095.4844 L673.55,1095 L673.55,1094 L669.55,1094 L669.55,1096 L670.55,1096 L670.55,1095.5156 L670.55,1095.5156 L671.175,1095 L671.55,1095 L671.925,1095 L672.55,1095.5156 L672.55,1096 L672.55,1098 L672.55,1098.4844 L671.925,1099 L671.925,1099 L671.55,1099 L671.175,1099 L670.55,1098.4844 L670.55,1098.4844 L670.55,1098 L669.55,1098 Z " fill="#000000"/><text fill="#000000" font-family="sans-serif" font-size="14" lengthAdjust="spacing" textLength="65" x="687.95" y="1101.8535">OfferState</text><line style="stroke:#181818;stroke-width:0.5;" x1="644" x2="768" y1="1113" y2="1113"/><rect fill="none" height="6" style="stroke:#C82930;stroke-width:1.0;" width="6" x="651" y="1123.3203"/><text fill="#000000" font-family="sans-serif" font-size="14" lengthAdjust="spacing" textLength="100" x="663" y="1129.6738">String Accepted</text><rect fill="none" height="6" style="stroke:#C82930;stroke-width:1.0;" width="6" x="651" y="1138.9609"/><text fill="#000000" font-family="sans-serif" font-size="14" lengthAdjust="spacing" textLength="93" x="663" y="1145.3145">String Pending</text><rect fill="none" height="6" style="stroke:#C82930;stroke-width:1.0;" width="6" x="651" y="1154.6016"/><text fill="#000000" font-family="sans-serif" font-size="14" lengthAdjust="spacing" textLength="97" x="663" y="1160.9551">String Rejected</text><line style="stroke:#181818;stroke-width:0.5;" x1="644" x2="768" y1="1167.9219" y2="1167.9219"/></g><!--class Adress--><g id="elem_Adress"><rect codeLine="43" fill="#F1F1F1" height="141.8438" id="Adress" rx="2.5" ry="2.5" style="stroke:#181818;stroke-width:0.5;" width="292" x="779" y="1252"/><ellipse cx="898.75" cy="1268" fill="#ADD1B2" rx="11" ry="11" style="stroke:#181818;stroke-width:1.0;"/><path d="M900.75,1264.5 Q900.9531,1264 901.1875,1263.75 Q901.4219,1263.5 901.6875,1263.5 Q902.1563,1263.5 902.4531,1263.7813 Q902.75,1264.0625 902.75,1264.7188 L902.75,1266.2813 Q902.75,1266.9375 902.4688,1267.2188 Q902.1875,1267.5 901.75,1267.5 Q901.3594,1267.5 901.1094,1267.3281 Q900.8594,1267.1563 900.75,1266.7031 Q900.7031,1266.3906 900.5313,1266.2188 Q900.2188,1265.8906 899.6563,1265.7031 Q899.0938,1265.5 898.5313,1265.5 Q897.8281,1265.5 897.2344,1265.7813 Q896.6563,1266.0625 896.2031,1266.6875 Q895.75,1267.3125 895.75,1268.1719 L895.75,1269.0938 Q895.75,1270.125 896.5938,1270.8125 Q897.4375,1271.5 898.9375,1271.5 Q899.8281,1271.5 900.4531,1271.2969 Q900.8125,1271.1875 901.2188,1270.8281 Q901.4844,1270.625 901.625,1270.5625 Q901.7656,1270.5 901.9375,1270.5 Q902.2656,1270.5 902.5,1270.7656 Q902.75,1271.0156 902.75,1271.375 Q902.75,1271.7188 902.4063,1272.125 Q901.9063,1272.7188 901.1094,1273.0469 Q900.0625,1273.5 898.7813,1273.5 Q897.2813,1273.5 896.0781,1272.9063 Q895.1094,1272.4375 894.4219,1271.4219 Q893.75,1270.4063 893.75,1269.2031 L893.75,1268.1094 Q893.75,1266.8594 894.3438,1265.7656 Q894.9531,1264.6719 896,1264.0938 Q897.0625,1263.5 898.25,1263.5 Q898.9688,1263.5 899.5938,1263.75 Q900.2188,1264 900.75,1264.5 Z " fill="#000000"/><text fill="#000000" font-family="sans-serif" font-size="14" lengthAdjust="spacing" textLength="44" x="919.25" y="1272.8535">Adress</text><line style="stroke:#181818;stroke-width:0.5;" x1="780" x2="1070" y1="1284" y2="1284"/><rect fill="none" height="6" style="stroke:#C82930;stroke-width:1.0;" width="6" x="787" y="1294.3203"/><text fill="#000000" font-family="sans-serif" font-size="14" lengthAdjust="spacing" textLength="113" x="799" y="1300.6738">String streetName</text><rect fill="none" height="6" style="stroke:#C82930;stroke-width:1.0;" width="6" x="787" y="1309.9609"/><text fill="#000000" font-family="sans-serif" font-size="14" lengthAdjust="spacing" textLength="70" x="799" y="1316.3145">int zipCode</text><line style="stroke:#181818;stroke-width:0.5;" x1="780" x2="1070" y1="1323.2813" y2="1323.2813"/><ellipse cx="790" cy="1336.6016" fill="#84BE84" rx="3" ry="3" style="stroke:#038048;stroke-width:1.0;"/><text fill="#000000" font-family="sans-serif" font-size="14" lengthAdjust="spacing" textLength="54" x="799" y="1339.9551">getCity()</text><ellipse cx="790" cy="1352.2422" fill="#84BE84" rx="3" ry="3" style="stroke:#038048;stroke-width:1.0;"/><text fill="#000000" font-family="sans-serif" font-size="14" lengthAdjust="spacing" textLength="73" x="799" y="1355.5957">getDistrict()</text><ellipse cx="790" cy="1367.8828" fill="#84BE84" rx="3" ry="3" style="stroke:#038048;stroke-width:1.0;"/><text fill="#000000" font-family="sans-serif" font-size="14" lengthAdjust="spacing" textLength="63" x="799" y="1371.2363">getState()</text><ellipse cx="790" cy="1383.5234" fill="#84BE84" rx="3" ry="3" style="stroke:#038048;stroke-width:1.0;"/><text fill="#000000" font-family="sans-serif" font-size="14" lengthAdjust="spacing" textLength="266" x="799" y="1386.877">Adress(state, district, city, street, zipCode)</text></g><!--class Residence--><g id="elem_Residence"><rect codeLine="52" fill="#F1F1F1" height="94.9219" id="Residence" rx="2.5" ry="2.5" style="stroke:#181818;stroke-width:0.5;" width="204" x="1151" y="1455"/><ellipse cx="1215.25" cy="1471" fill="#ADD1B2" rx="11" ry="11" style="stroke:#181818;stroke-width:1.0;"/><path d="M1217.25,1467.5 Q1217.4531,1467 1217.6875,1466.75 Q1217.9219,1466.5 1218.1875,1466.5 Q1218.6563,1466.5 1218.9531,1466.7813 Q1219.25,1467.0625 1219.25,1467.7188 L1219.25,1469.2813 Q1219.25,1469.9375 1218.9688,1470.2188 Q1218.6875,1470.5 1218.25,1470.5 Q1217.8594,1470.5 1217.6094,1470.3281 Q1217.3594,1470.1563 1217.25,1469.7031 Q1217.2031,1469.3906 1217.0313,1469.2188 Q1216.7188,1468.8906 1216.1563,1468.7031 Q1215.5938,1468.5 1215.0313,1468.5 Q1214.3281,1468.5 1213.7344,1468.7813 Q1213.1563,1469.0625 1212.7031,1469.6875 Q1212.25,1470.3125 1212.25,1471.1719 L1212.25,1472.0938 Q1212.25,1473.125 1213.0938,1473.8125 Q1213.9375,1474.5 1215.4375,1474.5 Q1216.3281,1474.5 1216.9531,1474.2969 Q1217.3125,1474.1875 1217.7188,1473.8281 Q1217.9844,1473.625 1218.125,1473.5625 Q1218.2656,1473.5 1218.4375,1473.5 Q1218.7656,1473.5 1219,1473.7656 Q1219.25,1474.0156 1219.25,1474.375 Q1219.25,1474.7188 1218.9063,1475.125 Q1218.4063,1475.7188 1217.6094,1476.0469 Q1216.5625,1476.5 1215.2813,1476.5 Q1213.7813,1476.5 1212.5781,1475.9063 Q1211.6094,1475.4375 1210.9219,1474.4219 Q1210.25,1473.4063 1210.25,1472.2031 L1210.25,1471.1094 Q1210.25,1469.8594 1210.8438,1468.7656 Q1211.4531,1467.6719 1212.5,1467.0938 Q1213.5625,1466.5 1214.75,1466.5 Q1215.4688,1466.5 1216.0938,1466.75 Q1216.7188,1467 1217.25,1467.5 Z " fill="#000000"/><text fill="#000000" font-family="sans-serif" font-size="14" lengthAdjust="spacing" textLength="67" x="1235.75" y="1475.8535">Residence</text><line style="stroke:#181818;stroke-width:0.5;" x1="1152" x2="1354" y1="1487" y2="1487"/><rect fill="none" height="6" style="stroke:#C82930;stroke-width:1.0;" width="6" x="1159" y="1497.3203"/><text fill="#000000" font-family="sans-serif" font-size="14" lengthAdjust="spacing" textLength="143" x="1171" y="1503.6738">int numberofBedrooms</text><rect fill="none" height="6" style="stroke:#C82930;stroke-width:1.0;" width="6" x="1159" y="1512.9609"/><text fill="#000000" font-family="sans-serif" font-size="14" lengthAdjust="spacing" textLength="147" x="1171" y="1519.3145">int numberofBathrooms</text><rect fill="none" height="6" style="stroke:#C82930;stroke-width:1.0;" width="6" x="1159" y="1528.6016"/><text fill="#000000" font-family="sans-serif" font-size="14" lengthAdjust="spacing" textLength="178" x="1171" y="1534.9551">int numberofParking Spaces</text><line style="stroke:#181818;stroke-width:0.5;" x1="1152" x2="1354" y1="1541.9219" y2="1541.9219"/></g><!--class House--><g id="elem_House"><rect codeLine="58" fill="#F1F1F1" height="79.2813" id="House" rx="2.5" ry="2.5" style="stroke:#181818;stroke-width:0.5;" width="155" x="1079.5" y="1626"/><ellipse cx="1132.75" cy="1642" fill="#ADD1B2" rx="11" ry="11" style="stroke:#181818;stroke-width:1.0;"/><path d="M1134.75,1638.5 Q1134.9531,1638 1135.1875,1637.75 Q1135.4219,1637.5 1135.6875,1637.5 Q1136.1563,1637.5 1136.4531,1637.7813 Q1136.75,1638.0625 1136.75,1638.7188 L1136.75,1640.2813 Q1136.75,1640.9375 1136.4688,1641.2188 Q1136.1875,1641.5 1135.75,1641.5 Q1135.3594,1641.5 1135.1094,1641.3281 Q1134.8594,1641.1563 1134.75,1640.7031 Q1134.7031,1640.3906 1134.5313,1640.2188 Q1134.2188,1639.8906 1133.6563,1639.7031 Q1133.0938,1639.5 1132.5313,1639.5 Q1131.8281,1639.5 1131.2344,1639.7813 Q1130.6563,1640.0625 1130.2031,1640.6875 Q1129.75,1641.3125 1129.75,1642.1719 L1129.75,1643.0938 Q1129.75,1644.125 1130.5938,1644.8125 Q1131.4375,1645.5 1132.9375,1645.5 Q1133.8281,1645.5 1134.4531,1645.2969 Q1134.8125,1645.1875 1135.2188,1644.8281 Q1135.4844,1644.625 1135.625,1644.5625 Q1135.7656,1644.5 1135.9375,1644.5 Q1136.2656,1644.5 1136.5,1644.7656 Q1136.75,1645.0156 1136.75,1645.375 Q1136.75,1645.7188 1136.4063,1646.125 Q1135.9063,1646.7188 1135.1094,1647.0469 Q1134.0625,1647.5 1132.7813,1647.5 Q1131.2813,1647.5 1130.0781,1646.9063 Q1129.1094,1646.4375 1128.4219,1645.4219 Q1127.75,1644.4063 1127.75,1643.2031 L1127.75,1642.1094 Q1127.75,1640.8594 1128.3438,1639.7656 Q1128.9531,1638.6719 1130,1638.0938 Q1131.0625,1637.5 1132.25,1637.5 Q1132.9688,1637.5 1133.5938,1637.75 Q1134.2188,1638 1134.75,1638.5 Z " fill="#000000"/><text fill="#000000" font-family="sans-serif" font-size="14" lengthAdjust="spacing" textLength="40" x="1153.25" y="1646.8535">House</text><line style="stroke:#181818;stroke-width:0.5;" x1="1080.5" x2="1233.5" y1="1658" y2="1658"/><rect fill="none" height="6" style="stroke:#C82930;stroke-width:1.0;" width="6" x="1087.5" y="1668.3203"/><text fill="#000000" font-family="sans-serif" font-size="14" lengthAdjust="spacing" textLength="103" x="1099.5" y="1674.6738">String basement</text><rect fill="none" height="6" style="stroke:#C82930;stroke-width:1.0;" width="6" x="1087.5" y="1683.9609"/><text fill="#000000" font-family="sans-serif" font-size="14" lengthAdjust="spacing" textLength="129" x="1099.5" y="1690.3145">String inhabitableloft</text><line style="stroke:#181818;stroke-width:0.5;" x1="1080.5" x2="1233.5" y1="1697.2813" y2="1697.2813"/></g><!--class SunExposure--><g id="elem_SunExposure"><rect codeLine="63" fill="#F1F1F1" height="63.6406" id="SunExposure" rx="2.5" ry="2.5" style="stroke:#181818;stroke-width:0.5;" width="121" x="1096.5" y="1781"/><ellipse cx="1113.75" cy="1797" fill="#ADD1B2" rx="11" ry="11" style="stroke:#181818;stroke-width:1.0;"/><path d="M1115.75,1793.5 Q1115.9531,1793 1116.1875,1792.75 Q1116.4219,1792.5 1116.6875,1792.5 Q1117.1563,1792.5 1117.4531,1792.7813 Q1117.75,1793.0625 1117.75,1793.7188 L1117.75,1795.2813 Q1117.75,1795.9375 1117.4688,1796.2188 Q1117.1875,1796.5 1116.75,1796.5 Q1116.3594,1796.5 1116.1094,1796.3281 Q1115.8594,1796.1563 1115.75,1795.7031 Q1115.7031,1795.3906 1115.5313,1795.2188 Q1115.2188,1794.8906 1114.6563,1794.7031 Q1114.0938,1794.5 1113.5313,1794.5 Q1112.8281,1794.5 1112.2344,1794.7813 Q1111.6563,1795.0625 1111.2031,1795.6875 Q1110.75,1796.3125 1110.75,1797.1719 L1110.75,1798.0938 Q1110.75,1799.125 1111.5938,1799.8125 Q1112.4375,1800.5 1113.9375,1800.5 Q1114.8281,1800.5 1115.4531,1800.2969 Q1115.8125,1800.1875 1116.2188,1799.8281 Q1116.4844,1799.625 1116.625,1799.5625 Q1116.7656,1799.5 1116.9375,1799.5 Q1117.2656,1799.5 1117.5,1799.7656 Q1117.75,1800.0156 1117.75,1800.375 Q1117.75,1800.7188 1117.4063,1801.125 Q1116.9063,1801.7188 1116.1094,1802.0469 Q1115.0625,1802.5 1113.7813,1802.5 Q1112.2813,1802.5 1111.0781,1801.9063 Q1110.1094,1801.4375 1109.4219,1800.4219 Q1108.75,1799.4063 1108.75,1798.2031 L1108.75,1797.1094 Q1108.75,1795.8594 1109.3438,1794.7656 Q1109.9531,1793.6719 1111,1793.0938 Q1112.0625,1792.5 1113.25,1792.5 Q1113.9688,1792.5 1114.5938,1792.75 Q1115.2188,1793 1115.75,1793.5 Z " fill="#000000"/><text fill="#000000" font-family="sans-serif" font-size="14" lengthAdjust="spacing" textLength="84" x="1128.25" y="1801.8535">SunExposure</text><line style="stroke:#181818;stroke-width:0.5;" x1="1097.5" x2="1216.5" y1="1813" y2="1813"/><rect fill="none" height="6" style="stroke:#C82930;stroke-width:1.0;" width="6" x="1104.5" y="1823.3203"/><text fill="#000000" font-family="sans-serif" font-size="14" lengthAdjust="spacing" textLength="95" x="1116.5" y="1829.6738">String direction</text><line style="stroke:#181818;stroke-width:0.5;" x1="1097.5" x2="1216.5" y1="1836.6406" y2="1836.6406"/></g><!--class AvailableEquipment--><g id="elem_AvailableEquipment"><rect codeLine="67" fill="#F1F1F1" height="63.6406" id="AvailableEquipment" rx="2.5" ry="2.5" style="stroke:#181818;stroke-width:0.5;" width="156" x="1270" y="1633.5"/><ellipse cx="1285" cy="1649.5" fill="#ADD1B2" rx="11" ry="11" style="stroke:#181818;stroke-width:1.0;"/><path d="M1287,1646 Q1287.2031,1645.5 1287.4375,1645.25 Q1287.6719,1645 1287.9375,1645 Q1288.4063,1645 1288.7031,1645.2813 Q1289,1645.5625 1289,1646.2188 L1289,1647.7813 Q1289,1648.4375 1288.7188,1648.7188 Q1288.4375,1649 1288,1649 Q1287.6094,1649 1287.3594,1648.8281 Q1287.1094,1648.6563 1287,1648.2031 Q1286.9531,1647.8906 1286.7813,1647.7188 Q1286.4688,1647.3906 1285.9063,1647.2031 Q1285.3438,1647 1284.7813,1647 Q1284.0781,1647 1283.4844,1647.2813 Q1282.9063,1647.5625 1282.4531,1648.1875 Q1282,1648.8125 1282,1649.6719 L1282,1650.5938 Q1282,1651.625 1282.8438,1652.3125 Q1283.6875,1653 1285.1875,1653 Q1286.0781,1653 1286.7031,1652.7969 Q1287.0625,1652.6875 1287.4688,1652.3281 Q1287.7344,1652.125 1287.875,1652.0625 Q1288.0156,1652 1288.1875,1652 Q1288.5156,1652 1288.75,1652.2656 Q1289,1652.5156 1289,1652.875 Q1289,1653.2188 1288.6563,1653.625 Q1288.1563,1654.2188 1287.3594,1654.5469 Q1286.3125,1655 1285.0313,1655 Q1283.5313,1655 1282.3281,1654.4063 Q1281.3594,1653.9375 1280.6719,1652.9219 Q1280,1651.9063 1280,1650.7031 L1280,1649.6094 Q1280,1648.3594 1280.5938,1647.2656 Q1281.2031,1646.1719 1282.25,1645.5938 Q1283.3125,1645 1284.5,1645 Q1285.2188,1645 1285.8438,1645.25 Q1286.4688,1645.5 1287,1646 Z " fill="#000000"/><text fill="#000000" font-family="sans-serif" font-size="14" lengthAdjust="spacing" textLength="124" x="1299" y="1654.3535">AvailableEquipment</text><line style="stroke:#181818;stroke-width:0.5;" x1="1271" x2="1425" y1="1665.5" y2="1665.5"/><rect fill="none" height="6" style="stroke:#C82930;stroke-width:1.0;" width="6" x="1278" y="1675.8203"/><text fill="#000000" font-family="sans-serif" font-size="14" lengthAdjust="spacing" textLength="107" x="1290" y="1682.1738">String equipment</text><line style="stroke:#181818;stroke-width:0.5;" x1="1271" x2="1425" y1="1689.1406" y2="1689.1406"/></g><!--class Business--><g id="elem_Business"><rect codeLine="72" fill="#F1F1F1" height="63.6406" id="Business" rx="2.5" ry="2.5" style="stroke:#181818;stroke-width:0.5;" width="126" x="836" y="933.5"/><ellipse cx="867.65" cy="949.5" fill="#ADD1B2" rx="11" ry="11" style="stroke:#181818;stroke-width:1.0;"/><path d="M869.65,946 Q869.8531,945.5 870.0875,945.25 Q870.3219,945 870.5875,945 Q871.0563,945 871.3531,945.2813 Q871.65,945.5625 871.65,946.2188 L871.65,947.7813 Q871.65,948.4375 871.3688,948.7188 Q871.0875,949 870.65,949 Q870.2594,949 870.0094,948.8281 Q869.7594,948.6563 869.65,948.2031 Q869.6031,947.8906 869.4313,947.7188 Q869.1188,947.3906 868.5563,947.2031 Q867.9938,947 867.4313,947 Q866.7281,947 866.1344,947.2813 Q865.5563,947.5625 865.1031,948.1875 Q864.65,948.8125 864.65,949.6719 L864.65,950.5938 Q864.65,951.625 865.4938,952.3125 Q866.3375,953 867.8375,953 Q868.7281,953 869.3531,952.7969 Q869.7125,952.6875 870.1188,952.3281 Q870.3844,952.125 870.525,952.0625 Q870.6656,952 870.8375,952 Q871.1656,952 871.4,952.2656 Q871.65,952.5156 871.65,952.875 Q871.65,953.2188 871.3063,953.625 Q870.8063,954.2188 870.0094,954.5469 Q868.9625,955 867.6813,955 Q866.1813,955 864.9781,954.4063 Q864.0094,953.9375 863.3219,952.9219 Q862.65,951.9063 862.65,950.7031 L862.65,949.6094 Q862.65,948.3594 863.2438,947.2656 Q863.8531,946.1719 864.9,945.5938 Q865.9625,945 867.15,945 Q867.8688,945 868.4938,945.25 Q869.1188,945.5 869.65,946 Z " fill="#000000"/><text fill="#000000" font-family="sans-serif" font-size="14" lengthAdjust="spacing" textLength="57" x="885.35" y="954.3535">Business</text><line style="stroke:#181818;stroke-width:0.5;" x1="837" x2="961" y1="965.5" y2="965.5"/><rect fill="none" height="6" style="stroke:#C82930;stroke-width:1.0;" width="6" x="844" y="975.8203"/><text fill="#000000" font-family="sans-serif" font-size="14" lengthAdjust="spacing" textLength="100" x="856" y="982.1738">String totalPrice</text><line style="stroke:#181818;stroke-width:0.5;" x1="837" x2="961" y1="989.1406" y2="989.1406"/></g><!--class District--><g id="elem_District"><rect codeLine="77" fill="#F1F1F1" height="110.5625" id="District" rx="2.5" ry="2.5" style="stroke:#181818;stroke-width:0.5;" width="144" x="353" y="1267.5"/><ellipse cx="399.25" cy="1283.5" fill="#ADD1B2" rx="11" ry="11" style="stroke:#181818;stroke-width:1.0;"/><path d="M401.25,1280 Q401.4531,1279.5 401.6875,1279.25 Q401.9219,1279 402.1875,1279 Q402.6563,1279 402.9531,1279.2813 Q403.25,1279.5625 403.25,1280.2188 L403.25,1281.7813 Q403.25,1282.4375 402.9688,1282.7188 Q402.6875,1283 402.25,1283 Q401.8594,1283 401.6094,1282.8281 Q401.3594,1282.6563 401.25,1282.2031 Q401.2031,1281.8906 401.0313,1281.7188 Q400.7188,1281.3906 400.1563,1281.2031 Q399.5938,1281 399.0313,1281 Q398.3281,1281 397.7344,1281.2813 Q397.1563,1281.5625 396.7031,1282.1875 Q396.25,1282.8125 396.25,1283.6719 L396.25,1284.5938 Q396.25,1285.625 397.0938,1286.3125 Q397.9375,1287 399.4375,1287 Q400.3281,1287 400.9531,1286.7969 Q401.3125,1286.6875 401.7188,1286.3281 Q401.9844,1286.125 402.125,1286.0625 Q402.2656,1286 402.4375,1286 Q402.7656,1286 403,1286.2656 Q403.25,1286.5156 403.25,1286.875 Q403.25,1287.2188 402.9063,1287.625 Q402.4063,1288.2188 401.6094,1288.5469 Q400.5625,1289 399.2813,1289 Q397.7813,1289 396.5781,1288.4063 Q395.6094,1287.9375 394.9219,1286.9219 Q394.25,1285.9063 394.25,1284.7031 L394.25,1283.6094 Q394.25,1282.3594 394.8438,1281.2656 Q395.4531,1280.1719 396.5,1279.5938 Q397.5625,1279 398.75,1279 Q399.4688,1279 400.0938,1279.25 Q400.7188,1279.5 401.25,1280 Z " fill="#000000"/><text fill="#000000" font-family="sans-serif" font-size="14" lengthAdjust="spacing" textLength="43" x="419.75" y="1288.3535">District</text><line style="stroke:#181818;stroke-width:0.5;" x1="354" x2="496" y1="1299.5" y2="1299.5"/><rect fill="none" height="6" style="stroke:#C82930;stroke-width:1.0;" width="6" x="361" y="1309.8203"/><text fill="#000000" font-family="sans-serif" font-size="14" lengthAdjust="spacing" textLength="118" x="373" y="1316.1738">String districtName</text><line style="stroke:#181818;stroke-width:0.5;" x1="354" x2="496" y1="1323.1406" y2="1323.1406"/><ellipse cx="364" cy="1336.4609" fill="#84BE84" rx="3" ry="3" style="stroke:#038048;stroke-width:1.0;"/><text fill="#000000" font-family="sans-serif" font-size="14" lengthAdjust="spacing" textLength="109" x="373" y="1339.8145">getDistrictName()</text><ellipse cx="364" cy="1352.1016" fill="#84BE84" rx="3" ry="3" style="stroke:#038048;stroke-width:1.0;"/><text fill="#000000" font-family="sans-serif" font-size="14" lengthAdjust="spacing" textLength="65" x="373" y="1355.4551">getCities()</text><ellipse cx="364" cy="1367.7422" fill="#84BE84" rx="3" ry="3" style="stroke:#038048;stroke-width:1.0;"/><text fill="#000000" font-family="sans-serif" font-size="14" lengthAdjust="spacing" textLength="59" x="373" y="1371.0957">toString()</text></g><!--class City--><g id="elem_City"><rect codeLine="86" fill="#F1F1F1" height="79.2813" id="City" rx="2.5" ry="2.5" style="stroke:#181818;stroke-width:0.5;" width="116" x="163" y="1283.5"/><ellipse cx="205" cy="1299.5" fill="#ADD1B2" rx="11" ry="11" style="stroke:#181818;stroke-width:1.0;"/><path d="M207,1296 Q207.2031,1295.5 207.4375,1295.25 Q207.6719,1295 207.9375,1295 Q208.4063,1295 208.7031,1295.2813 Q209,1295.5625 209,1296.2188 L209,1297.7813 Q209,1298.4375 208.7188,1298.7188 Q208.4375,1299 208,1299 Q207.6094,1299 207.3594,1298.8281 Q207.1094,1298.6563 207,1298.2031 Q206.9531,1297.8906 206.7813,1297.7188 Q206.4688,1297.3906 205.9063,1297.2031 Q205.3438,1297 204.7813,1297 Q204.0781,1297 203.4844,1297.2813 Q202.9063,1297.5625 202.4531,1298.1875 Q202,1298.8125 202,1299.6719 L202,1300.5938 Q202,1301.625 202.8438,1302.3125 Q203.6875,1303 205.1875,1303 Q206.0781,1303 206.7031,1302.7969 Q207.0625,1302.6875 207.4688,1302.3281 Q207.7344,1302.125 207.875,1302.0625 Q208.0156,1302 208.1875,1302 Q208.5156,1302 208.75,1302.2656 Q209,1302.5156 209,1302.875 Q209,1303.2188 208.6563,1303.625 Q208.1563,1304.2188 207.3594,1304.5469 Q206.3125,1305 205.0313,1305 Q203.5313,1305 202.3281,1304.4063 Q201.3594,1303.9375 200.6719,1302.9219 Q200,1301.9063 200,1300.7031 L200,1299.6094 Q200,1298.3594 200.5938,1297.2656 Q201.2031,1296.1719 202.25,1295.5938 Q203.3125,1295 204.5,1295 Q205.2188,1295 205.8438,1295.25 Q206.4688,1295.5 207,1296 Z " fill="#000000"/><text fill="#000000" font-family="sans-serif" font-size="14" lengthAdjust="spacing" textLength="24" x="225" y="1304.3535">City</text><line style="stroke:#181818;stroke-width:0.5;" x1="164" x2="278" y1="1315.5" y2="1315.5"/><rect fill="none" height="6" style="stroke:#C82930;stroke-width:1.0;" width="6" x="171" y="1325.8203"/><text fill="#000000" font-family="sans-serif" font-size="14" lengthAdjust="spacing" textLength="62" x="183" y="1332.1738">String city</text><line style="stroke:#181818;stroke-width:0.5;" x1="164" x2="278" y1="1339.1406" y2="1339.1406"/><ellipse cx="174" cy="1352.4609" fill="#84BE84" rx="3" ry="3" style="stroke:#038048;stroke-width:1.0;"/><text fill="#000000" font-family="sans-serif" font-size="14" lengthAdjust="spacing" textLength="90" x="183" y="1355.8145">getCityName()</text></g><!--class Comission--><g id="elem_Comission"><rect codeLine="93" fill="#F1F1F1" height="63.6406" id="Comission" rx="2.5" ry="2.5" style="stroke:#181818;stroke-width:0.5;" width="109" x="1064.5" y="1096.5"/><ellipse cx="1084.9" cy="1112.5" fill="#ADD1B2" rx="11" ry="11" style="stroke:#181818;stroke-width:1.0;"/><path d="M1086.9,1109 Q1087.1031,1108.5 1087.3375,1108.25 Q1087.5719,1108 1087.8375,1108 Q1088.3063,1108 1088.6031,1108.2813 Q1088.9,1108.5625 1088.9,1109.2188 L1088.9,1110.7813 Q1088.9,1111.4375 1088.6188,1111.7188 Q1088.3375,1112 1087.9,1112 Q1087.5094,1112 1087.2594,1111.8281 Q1087.0094,1111.6563 1086.9,1111.2031 Q1086.8531,1110.8906 1086.6813,1110.7188 Q1086.3688,1110.3906 1085.8063,1110.2031 Q1085.2438,1110 1084.6813,1110 Q1083.9781,1110 1083.3844,1110.2813 Q1082.8063,1110.5625 1082.3531,1111.1875 Q1081.9,1111.8125 1081.9,1112.6719 L1081.9,1113.5938 Q1081.9,1114.625 1082.7438,1115.3125 Q1083.5875,1116 1085.0875,1116 Q1085.9781,1116 1086.6031,1115.7969 Q1086.9625,1115.6875 1087.3688,1115.3281 Q1087.6344,1115.125 1087.775,1115.0625 Q1087.9156,1115 1088.0875,1115 Q1088.4156,1115 1088.65,1115.2656 Q1088.9,1115.5156 1088.9,1115.875 Q1088.9,1116.2188 1088.5563,1116.625 Q1088.0563,1117.2188 1087.2594,1117.5469 Q1086.2125,1118 1084.9313,1118 Q1083.4313,1118 1082.2281,1117.4063 Q1081.2594,1116.9375 1080.5719,1115.9219 Q1079.9,1114.9063 1079.9,1113.7031 L1079.9,1112.6094 Q1079.9,1111.3594 1080.4938,1110.2656 Q1081.1031,1109.1719 1082.15,1108.5938 Q1083.2125,1108 1084.4,1108 Q1085.1188,1108 1085.7438,1108.25 Q1086.3688,1108.5 1086.9,1109 Z " fill="#000000"/><text fill="#000000" font-family="sans-serif" font-size="14" lengthAdjust="spacing" textLength="65" x="1100.1" y="1117.3535">Comission</text><line style="stroke:#181818;stroke-width:0.5;" x1="1065.5" x2="1172.5" y1="1128.5" y2="1128.5"/><rect fill="none" height="6" style="stroke:#C82930;stroke-width:1.0;" width="6" x="1072.5" y="1138.8203"/><text fill="#000000" font-family="sans-serif" font-size="14" lengthAdjust="spacing" textLength="83" x="1084.5" y="1145.1738">Double value</text><line style="stroke:#181818;stroke-width:0.5;" x1="1065.5" x2="1172.5" y1="1152.1406" y2="1152.1406"/></g><!--class Photos--><g id="elem_Photos"><rect codeLine="100" fill="#F1F1F1" height="63.6406" id="Photos" rx="2.5" ry="2.5" style="stroke:#181818;stroke-width:0.5;" width="88" x="1209" y="1096.5"/><ellipse cx="1229.4" cy="1112.5" fill="#ADD1B2" rx="11" ry="11" style="stroke:#181818;stroke-width:1.0;"/><path d="M1231.4,1109 Q1231.6031,1108.5 1231.8375,1108.25 Q1232.0719,1108 1232.3375,1108 Q1232.8063,1108 1233.1031,1108.2813 Q1233.4,1108.5625 1233.4,1109.2188 L1233.4,1110.7813 Q1233.4,1111.4375 1233.1188,1111.7188 Q1232.8375,1112 1232.4,1112 Q1232.0094,1112 1231.7594,1111.8281 Q1231.5094,1111.6563 1231.4,1111.2031 Q1231.3531,1110.8906 1231.1813,1110.7188 Q1230.8688,1110.3906 1230.3063,1110.2031 Q1229.7438,1110 1229.1813,1110 Q1228.4781,1110 1227.8844,1110.2813 Q1227.3063,1110.5625 1226.8531,1111.1875 Q1226.4,1111.8125 1226.4,1112.6719 L1226.4,1113.5938 Q1226.4,1114.625 1227.2438,1115.3125 Q1228.0875,1116 1229.5875,1116 Q1230.4781,1116 1231.1031,1115.7969 Q1231.4625,1115.6875 1231.8688,1115.3281 Q1232.1344,1115.125 1232.275,1115.0625 Q1232.4156,1115 1232.5875,1115 Q1232.9156,1115 1233.15,1115.2656 Q1233.4,1115.5156 1233.4,1115.875 Q1233.4,1116.2188 1233.0563,1116.625 Q1232.5563,1117.2188 1231.7594,1117.5469 Q1230.7125,1118 1229.4313,1118 Q1227.9313,1118 1226.7281,1117.4063 Q1225.7594,1116.9375 1225.0719,1115.9219 Q1224.4,1114.9063 1224.4,1113.7031 L1224.4,1112.6094 Q1224.4,1111.3594 1224.9938,1110.2656 Q1225.6031,1109.1719 1226.65,1108.5938 Q1227.7125,1108 1228.9,1108 Q1229.6188,1108 1230.2438,1108.25 Q1230.8688,1108.5 1231.4,1109 Z " fill="#000000"/><text fill="#000000" font-family="sans-serif" font-size="14" lengthAdjust="spacing" textLength="44" x="1244.6" y="1117.3535">Photos</text><line style="stroke:#181818;stroke-width:0.5;" x1="1210" x2="1296" y1="1128.5" y2="1128.5"/><rect fill="none" height="6" style="stroke:#C82930;stroke-width:1.0;" width="6" x="1217" y="1138.8203"/><text fill="#000000" font-family="sans-serif" font-size="14" lengthAdjust="spacing" textLength="62" x="1229" y="1145.1738">String uRI</text><line style="stroke:#181818;stroke-width:0.5;" x1="1210" x2="1296" y1="1152.1406" y2="1152.1406"/></g><!--class Property--><g id="elem_Property"><rect codeLine="104" fill="#F1F1F1" height="94.9219" id="Property" rx="2.5" ry="2.5" style="stroke:#181818;stroke-width:0.5;" width="223" x="1141.5" y="1275.5"/><ellipse cx="1221.75" cy="1291.5" fill="#ADD1B2" rx="11" ry="11" style="stroke:#181818;stroke-width:1.0;"/><path d="M1223.75,1288 Q1223.9531,1287.5 1224.1875,1287.25 Q1224.4219,1287 1224.6875,1287 Q1225.1563,1287 1225.4531,1287.2813 Q1225.75,1287.5625 1225.75,1288.2188 L1225.75,1289.7813 Q1225.75,1290.4375 1225.4688,1290.7188 Q1225.1875,1291 1224.75,1291 Q1224.3594,1291 1224.1094,1290.8281 Q1223.8594,1290.6563 1223.75,1290.2031 Q1223.7031,1289.8906 1223.5313,1289.7188 Q1223.2188,1289.3906 1222.6563,1289.2031 Q1222.0938,1289 1221.5313,1289 Q1220.8281,1289 1220.2344,1289.2813 Q1219.6563,1289.5625 1219.2031,1290.1875 Q1218.75,1290.8125 1218.75,1291.6719 L1218.75,1292.5938 Q1218.75,1293.625 1219.5938,1294.3125 Q1220.4375,1295 1221.9375,1295 Q1222.8281,1295 1223.4531,1294.7969 Q1223.8125,1294.6875 1224.2188,1294.3281 Q1224.4844,1294.125 1224.625,1294.0625 Q1224.7656,1294 1224.9375,1294 Q1225.2656,1294 1225.5,1294.2656 Q1225.75,1294.5156 1225.75,1294.875 Q1225.75,1295.2188 1225.4063,1295.625 Q1224.9063,1296.2188 1224.1094,1296.5469 Q1223.0625,1297 1221.7813,1297 Q1220.2813,1297 1219.0781,1296.4063 Q1218.1094,1295.9375 1217.4219,1294.9219 Q1216.75,1293.9063 1216.75,1292.7031 L1216.75,1291.6094 Q1216.75,1290.3594 1217.3438,1289.2656 Q1217.9531,1288.1719 1219,1287.5938 Q1220.0625,1287 1221.25,1287 Q1221.9688,1287 1222.5938,1287.25 Q1223.2188,1287.5 1223.75,1288 Z " fill="#000000"/><text fill="#000000" font-family="sans-serif" font-size="14" lengthAdjust="spacing" textLength="54" x="1242.25" y="1296.3535">Property</text><line style="stroke:#181818;stroke-width:0.5;" x1="1142.5" x2="1363.5" y1="1307.5" y2="1307.5"/><rect fill="none" height="6" style="stroke:#C82930;stroke-width:1.0;" width="6" x="1149.5" y="1317.8203"/><text fill="#000000" font-family="sans-serif" font-size="14" lengthAdjust="spacing" textLength="48" x="1161.5" y="1324.1738">int area</text><rect fill="none" height="6" style="stroke:#C82930;stroke-width:1.0;" width="6" x="1149.5" y="1333.4609"/><text fill="#000000" font-family="sans-serif" font-size="14" lengthAdjust="spacing" textLength="91" x="1161.5" y="1339.8145">Photos photos</text><rect fill="none" height="6" style="stroke:#C82930;stroke-width:1.0;" width="6" x="1149.5" y="1349.1016"/><text fill="#000000" font-family="sans-serif" font-size="14" lengthAdjust="spacing" textLength="197" x="1161.5" y="1355.4551">int distance from the city center</text><line style="stroke:#181818;stroke-width:0.5;" x1="1142.5" x2="1363.5" y1="1362.4219" y2="1362.4219"/></g><!--class PublishedAnnouncement--><g id="elem_PublishedAnnouncement"><rect codeLine="110" fill="#F1F1F1" height="48" id="PublishedAnnouncement" rx="2.5" ry="2.5" style="stroke:#181818;stroke-width:0.5;" width="189" x="804.5" y="1104.5"/><ellipse cx="819.5" cy="1120.5" fill="#ADD1B2" rx="11" ry="11" style="stroke:#181818;stroke-width:1.0;"/><path d="M821.5,1117 Q821.7031,1116.5 821.9375,1116.25 Q822.1719,1116 822.4375,1116 Q822.9063,1116 823.2031,1116.2813 Q823.5,1116.5625 823.5,1117.2188 L823.5,1118.7813 Q823.5,1119.4375 823.2188,1119.7188 Q822.9375,1120 822.5,1120 Q822.1094,1120 821.8594,1119.8281 Q821.6094,1119.6563 821.5,1119.2031 Q821.4531,1118.8906 821.2813,1118.7188 Q820.9688,1118.3906 820.4063,1118.2031 Q819.8438,1118 819.2813,1118 Q818.5781,1118 817.9844,1118.2813 Q817.4063,1118.5625 816.9531,1119.1875 Q816.5,1119.8125 816.5,1120.6719 L816.5,1121.5938 Q816.5,1122.625 817.3438,1123.3125 Q818.1875,1124 819.6875,1124 Q820.5781,1124 821.2031,1123.7969 Q821.5625,1123.6875 821.9688,1123.3281 Q822.2344,1123.125 822.375,1123.0625 Q822.5156,1123 822.6875,1123 Q823.0156,1123 823.25,1123.2656 Q823.5,1123.5156 823.5,1123.875 Q823.5,1124.2188 823.1563,1124.625 Q822.6563,1125.2188 821.8594,1125.5469 Q820.8125,1126 819.5313,1126 Q818.0313,1126 816.8281,1125.4063 Q815.8594,1124.9375 815.1719,1123.9219 Q814.5,1122.9063 814.5,1121.7031 L814.5,1120.6094 Q814.5,1119.3594 815.0938,1118.2656 Q815.7031,1117.1719 816.75,1116.5938 Q817.8125,1116 819,1116 Q819.7188,1116 820.3438,1116.25 Q820.9688,1116.5 821.5,1117 Z " fill="#000000"/><text fill="#000000" font-family="sans-serif" font-size="14" lengthAdjust="spacing" textLength="157" x="833.5" y="1125.3535">PublishedAnnouncement</text><line style="stroke:#181818;stroke-width:0.5;" x1="805.5" x2="992.5" y1="1136.5" y2="1136.5"/><line style="stroke:#181818;stroke-width:0.5;" x1="805.5" x2="992.5" y1="1144.5" y2="1144.5"/></g><!--class State--><g id="elem_State"><rect codeLine="113" fill="#F1F1F1" height="110.5625" id="State" rx="2.5" ry="2.5" style="stroke:#181818;stroke-width:0.5;" width="134" x="571" y="1267.5"/><ellipse cx="617.25" cy="1283.5" fill="#ADD1B2" rx="11" ry="11" style="stroke:#181818;stroke-width:1.0;"/><path d="M619.25,1280 Q619.4531,1279.5 619.6875,1279.25 Q619.9219,1279 620.1875,1279 Q620.6563,1279 620.9531,1279.2813 Q621.25,1279.5625 621.25,1280.2188 L621.25,1281.7813 Q621.25,1282.4375 620.9688,1282.7188 Q620.6875,1283 620.25,1283 Q619.8594,1283 619.6094,1282.8281 Q619.3594,1282.6563 619.25,1282.2031 Q619.2031,1281.8906 619.0313,1281.7188 Q618.7188,1281.3906 618.1563,1281.2031 Q617.5938,1281 617.0313,1281 Q616.3281,1281 615.7344,1281.2813 Q615.1563,1281.5625 614.7031,1282.1875 Q614.25,1282.8125 614.25,1283.6719 L614.25,1284.5938 Q614.25,1285.625 615.0938,1286.3125 Q615.9375,1287 617.4375,1287 Q618.3281,1287 618.9531,1286.7969 Q619.3125,1286.6875 619.7188,1286.3281 Q619.9844,1286.125 620.125,1286.0625 Q620.2656,1286 620.4375,1286 Q620.7656,1286 621,1286.2656 Q621.25,1286.5156 621.25,1286.875 Q621.25,1287.2188 620.9063,1287.625 Q620.4063,1288.2188 619.6094,1288.5469 Q618.5625,1289 617.2813,1289 Q615.7813,1289 614.5781,1288.4063 Q613.6094,1287.9375 612.9219,1286.9219 Q612.25,1285.9063 612.25,1284.7031 L612.25,1283.6094 Q612.25,1282.3594 612.8438,1281.2656 Q613.4531,1280.1719 614.5,1279.5938 Q615.5625,1279 616.75,1279 Q617.4688,1279 618.0938,1279.25 Q618.7188,1279.5 619.25,1280 Z " fill="#000000"/><text fill="#000000" font-family="sans-serif" font-size="14" lengthAdjust="spacing" textLength="33" x="637.75" y="1288.3535">State</text><line style="stroke:#181818;stroke-width:0.5;" x1="572" x2="704" y1="1299.5" y2="1299.5"/><rect fill="none" height="6" style="stroke:#C82930;stroke-width:1.0;" width="6" x="579" y="1309.8203"/><text fill="#000000" font-family="sans-serif" font-size="14" lengthAdjust="spacing" textLength="108" x="591" y="1316.1738">String stateName</text><line style="stroke:#181818;stroke-width:0.5;" x1="572" x2="704" y1="1323.1406" y2="1323.1406"/><ellipse cx="582" cy="1336.4609" fill="#84BE84" rx="3" ry="3" style="stroke:#038048;stroke-width:1.0;"/><text fill="#000000" font-family="sans-serif" font-size="14" lengthAdjust="spacing" textLength="63" x="591" y="1339.8145">getState()</text><ellipse cx="582" cy="1352.1016" fill="#84BE84" rx="3" ry="3" style="stroke:#038048;stroke-width:1.0;"/><text fill="#000000" font-family="sans-serif" font-size="14" lengthAdjust="spacing" textLength="80" x="591" y="1355.4551">getDistricts()</text><ellipse cx="582" cy="1367.7422" fill="#84BE84" rx="3" ry="3" style="stroke:#038048;stroke-width:1.0;"/><text fill="#000000" font-family="sans-serif" font-size="14" lengthAdjust="spacing" textLength="59" x="591" y="1371.0957">toString()</text></g><!--class TypeOfProperty--><g id="elem_TypeOfProperty"><rect codeLine="124" fill="#F1F1F1" height="63.6406" id="TypeOfProperty" rx="2.5" ry="2.5" style="stroke:#181818;stroke-width:0.5;" width="133" x="1332.5" y="1096.5"/><ellipse cx="1347.5" cy="1112.5" fill="#ADD1B2" rx="11" ry="11" style="stroke:#181818;stroke-width:1.0;"/><path d="M1349.5,1109 Q1349.7031,1108.5 1349.9375,1108.25 Q1350.1719,1108 1350.4375,1108 Q1350.9063,1108 1351.2031,1108.2813 Q1351.5,1108.5625 1351.5,1109.2188 L1351.5,1110.7813 Q1351.5,1111.4375 1351.2188,1111.7188 Q1350.9375,1112 1350.5,1112 Q1350.1094,1112 1349.8594,1111.8281 Q1349.6094,1111.6563 1349.5,1111.2031 Q1349.4531,1110.8906 1349.2813,1110.7188 Q1348.9688,1110.3906 1348.4063,1110.2031 Q1347.8438,1110 1347.2813,1110 Q1346.5781,1110 1345.9844,1110.2813 Q1345.4063,1110.5625 1344.9531,1111.1875 Q1344.5,1111.8125 1344.5,1112.6719 L1344.5,1113.5938 Q1344.5,1114.625 1345.3438,1115.3125 Q1346.1875,1116 1347.6875,1116 Q1348.5781,1116 1349.2031,1115.7969 Q1349.5625,1115.6875 1349.9688,1115.3281 Q1350.2344,1115.125 1350.375,1115.0625 Q1350.5156,1115 1350.6875,1115 Q1351.0156,1115 1351.25,1115.2656 Q1351.5,1115.5156 1351.5,1115.875 Q1351.5,1116.2188 1351.1563,1116.625 Q1350.6563,1117.2188 1349.8594,1117.5469 Q1348.8125,1118 1347.5313,1118 Q1346.0313,1118 1344.8281,1117.4063 Q1343.8594,1116.9375 1343.1719,1115.9219 Q1342.5,1114.9063 1342.5,1113.7031 L1342.5,1112.6094 Q1342.5,1111.3594 1343.0938,1110.2656 Q1343.7031,1109.1719 1344.75,1108.5938 Q1345.8125,1108 1347,1108 Q1347.7188,1108 1348.3438,1108.25 Q1348.9688,1108.5 1349.5,1109 Z " fill="#000000"/><text fill="#000000" font-family="sans-serif" font-size="14" lengthAdjust="spacing" textLength="101" x="1361.5" y="1117.3535">TypeOfProperty</text><line style="stroke:#181818;stroke-width:0.5;" x1="1333.5" x2="1464.5" y1="1128.5" y2="1128.5"/><rect fill="none" height="6" style="stroke:#C82930;stroke-width:1.0;" width="6" x="1340.5" y="1138.8203"/><text fill="#000000" font-family="sans-serif" font-size="14" lengthAdjust="spacing" textLength="68" x="1352.5" y="1145.1738">String type</text><line style="stroke:#181818;stroke-width:0.5;" x1="1333.5" x2="1464.5" y1="1152.1406" y2="1152.1406"/></g><!--class OfferMapper--><g id="elem_OfferMapper"><rect codeLine="152" fill="#F1F1F1" height="79.2813" id="OfferMapper" rx="2.5" ry="2.5" style="stroke:#181818;stroke-width:0.5;" width="140" x="70" y="225"/><ellipse cx="97.6" cy="241" fill="#ADD1B2" rx="11" ry="11" style="stroke:#181818;stroke-width:1.0;"/><path d="M99.6,237.5 Q99.8031,237 100.0375,236.75 Q100.2719,236.5 100.5375,236.5 Q101.0063,236.5 101.3031,236.7813 Q101.6,237.0625 101.6,237.7188 L101.6,239.2813 Q101.6,239.9375 101.3188,240.2188 Q101.0375,240.5 100.6,240.5 Q100.2094,240.5 99.9594,240.3281 Q99.7094,240.1563 99.6,239.7031 Q99.5531,239.3906 99.3813,239.2188 Q99.0688,238.8906 98.5063,238.7031 Q97.9438,238.5 97.3813,238.5 Q96.6781,238.5 96.0844,238.7813 Q95.5063,239.0625 95.0531,239.6875 Q94.6,240.3125 94.6,241.1719 L94.6,242.0938 Q94.6,243.125 95.4438,243.8125 Q96.2875,244.5 97.7875,244.5 Q98.6781,244.5 99.3031,244.2969 Q99.6625,244.1875 100.0688,243.8281 Q100.3344,243.625 100.475,243.5625 Q100.6156,243.5 100.7875,243.5 Q101.1156,243.5 101.35,243.7656 Q101.6,244.0156 101.6,244.375 Q101.6,244.7188 101.2563,245.125 Q100.7563,245.7188 99.9594,246.0469 Q98.9125,246.5 97.6313,246.5 Q96.1313,246.5 94.9281,245.9063 Q93.9594,245.4375 93.2719,244.4219 Q92.6,243.4063 92.6,242.2031 L92.6,241.1094 Q92.6,239.8594 93.1938,238.7656 Q93.8031,237.6719 94.85,237.0938 Q95.9125,236.5 97.1,236.5 Q97.8188,236.5 98.4438,236.75 Q99.0688,237 99.6,237.5 Z " fill="#000000"/><text fill="#000000" font-family="sans-serif" font-size="14" lengthAdjust="spacing" textLength="80" x="114.4" y="245.8535">OfferMapper</text><line style="stroke:#181818;stroke-width:0.5;" x1="71" x2="209" y1="257" y2="257"/><line style="stroke:#181818;stroke-width:0.5;" x1="71" x2="209" y1="265" y2="265"/><ellipse cx="81" cy="278.3203" fill="#84BE84" rx="3" ry="3" style="stroke:#038048;stroke-width:1.0;"/><text fill="#000000" font-family="sans-serif" font-size="14" lengthAdjust="spacing" textLength="95" x="90" y="281.6738">toDto(offerList)</text><ellipse cx="81" cy="293.9609" fill="#84BE84" rx="3" ry="3" style="stroke:#038048;stroke-width:1.0;"/><text fill="#000000" font-family="sans-serif" font-size="14" lengthAdjust="spacing" textLength="114" x="90" y="297.3145">toDtoObject(offer)</text></g><!--class OfferRepository--><g id="elem_OfferRepository"><rect codeLine="157" fill="#F1F1F1" height="63.6406" id="OfferRepository" rx="2.5" ry="2.5" style="stroke:#181818;stroke-width:0.5;" width="281" x="541.5" y="232.5"/><ellipse cx="627.75" cy="248.5" fill="#ADD1B2" rx="11" ry="11" style="stroke:#181818;stroke-width:1.0;"/><path d="M629.75,245 Q629.9531,244.5 630.1875,244.25 Q630.4219,244 630.6875,244 Q631.1563,244 631.4531,244.2813 Q631.75,244.5625 631.75,245.2188 L631.75,246.7813 Q631.75,247.4375 631.4688,247.7188 Q631.1875,248 630.75,248 Q630.3594,248 630.1094,247.8281 Q629.8594,247.6563 629.75,247.2031 Q629.7031,246.8906 629.5313,246.7188 Q629.2188,246.3906 628.6563,246.2031 Q628.0938,246 627.5313,246 Q626.8281,246 626.2344,246.2813 Q625.6563,246.5625 625.2031,247.1875 Q624.75,247.8125 624.75,248.6719 L624.75,249.5938 Q624.75,250.625 625.5938,251.3125 Q626.4375,252 627.9375,252 Q628.8281,252 629.4531,251.7969 Q629.8125,251.6875 630.2188,251.3281 Q630.4844,251.125 630.625,251.0625 Q630.7656,251 630.9375,251 Q631.2656,251 631.5,251.2656 Q631.75,251.5156 631.75,251.875 Q631.75,252.2188 631.4063,252.625 Q630.9063,253.2188 630.1094,253.5469 Q629.0625,254 627.7813,254 Q626.2813,254 625.0781,253.4063 Q624.1094,252.9375 623.4219,251.9219 Q622.75,250.9063 622.75,249.7031 L622.75,248.6094 Q622.75,247.3594 623.3438,246.2656 Q623.9531,245.1719 625,244.5938 Q626.0625,244 627.25,244 Q627.9688,244 628.5938,244.25 Q629.2188,244.5 629.75,245 Z " fill="#000000"/><text fill="#000000" font-family="sans-serif" font-size="14" lengthAdjust="spacing" textLength="100" x="648.25" y="253.3535">OfferRepository</text><line style="stroke:#181818;stroke-width:0.5;" x1="542.5" x2="821.5" y1="264.5" y2="264.5"/><line style="stroke:#181818;stroke-width:0.5;" x1="542.5" x2="821.5" y1="272.5" y2="272.5"/><ellipse cx="552.5" cy="285.8203" fill="#84BE84" rx="3" ry="3" style="stroke:#038048;stroke-width:1.0;"/><text fill="#000000" font-family="sans-serif" font-size="14" lengthAdjust="spacing" textLength="255" x="561.5" y="289.1738">getOrganizationByEmployeeEmail(email)</text></g><!--class Repositories--><g id="elem_Repositories"><rect codeLine="161" fill="#F1F1F1" height="94.9219" id="Repositories" rx="2.5" ry="2.5" style="stroke:#181818;stroke-width:0.5;" width="200" x="582" y="30.5"/><ellipse cx="638.25" cy="46.5" fill="#ADD1B2" rx="11" ry="11" style="stroke:#181818;stroke-width:1.0;"/><path d="M640.25,43 Q640.4531,42.5 640.6875,42.25 Q640.9219,42 641.1875,42 Q641.6563,42 641.9531,42.2813 Q642.25,42.5625 642.25,43.2188 L642.25,44.7813 Q642.25,45.4375 641.9688,45.7188 Q641.6875,46 641.25,46 Q640.8594,46 640.6094,45.8281 Q640.3594,45.6563 640.25,45.2031 Q640.2031,44.8906 640.0313,44.7188 Q639.7188,44.3906 639.1563,44.2031 Q638.5938,44 638.0313,44 Q637.3281,44 636.7344,44.2813 Q636.1563,44.5625 635.7031,45.1875 Q635.25,45.8125 635.25,46.6719 L635.25,47.5938 Q635.25,48.625 636.0938,49.3125 Q636.9375,50 638.4375,50 Q639.3281,50 639.9531,49.7969 Q640.3125,49.6875 640.7188,49.3281 Q640.9844,49.125 641.125,49.0625 Q641.2656,49 641.4375,49 Q641.7656,49 642,49.2656 Q642.25,49.5156 642.25,49.875 Q642.25,50.2188 641.9063,50.625 Q641.4063,51.2188 640.6094,51.5469 Q639.5625,52 638.2813,52 Q636.7813,52 635.5781,51.4063 Q634.6094,50.9375 633.9219,49.9219 Q633.25,48.9063 633.25,47.7031 L633.25,46.6094 Q633.25,45.3594 633.8438,44.2656 Q634.4531,43.1719 635.5,42.5938 Q636.5625,42 637.75,42 Q638.4688,42 639.0938,42.25 Q639.7188,42.5 640.25,43 Z " fill="#000000"/><text fill="#000000" font-family="sans-serif" font-size="14" lengthAdjust="spacing" textLength="79" x="658.75" y="51.3535">Repositories</text><line style="stroke:#181818;stroke-width:0.5;" x1="583" x2="781" y1="62.5" y2="62.5"/><line style="stroke:#181818;stroke-width:0.5;" x1="583" x2="781" y1="70.5" y2="70.5"/><rect fill="#F24D5C" height="6" style="stroke:#C82930;stroke-width:1.0;" width="6" x="590" y="80.8203"/><text fill="#000000" font-family="sans-serif" font-size="14" lengthAdjust="spacing" textLength="89" x="602" y="87.1738">Repositories()</text><ellipse cx="593" cy="99.4609" fill="#84BE84" rx="3" ry="3" style="stroke:#038048;stroke-width:1.0;"/><text fill="#000000" font-family="sans-serif" font-size="14" lengthAdjust="spacing" textLength="174" x="602" y="102.8145">getInstance() : Repositories</text><ellipse cx="593" cy="115.1016" fill="#84BE84" rx="3" ry="3" style="stroke:#038048;stroke-width:1.0;"/><text fill="#000000" font-family="sans-serif" font-size="14" lengthAdjust="spacing" textLength="130" x="602" y="118.4551">getOfferRepository()</text></g><!--class ListDealsController--><g id="elem_ListDealsController"><rect codeLine="167" fill="#F1F1F1" height="141.8438" id="ListDealsController" rx="2.5" ry="2.5" style="stroke:#181818;stroke-width:0.5;" width="253" x="225.5" y="7"/><ellipse cx="287.75" cy="23" fill="#ADD1B2" rx="11" ry="11" style="stroke:#181818;stroke-width:1.0;"/><path d="M289.75,19.5 Q289.9531,19 290.1875,18.75 Q290.4219,18.5 290.6875,18.5 Q291.1563,18.5 291.4531,18.7813 Q291.75,19.0625 291.75,19.7188 L291.75,21.2813 Q291.75,21.9375 291.4688,22.2188 Q291.1875,22.5 290.75,22.5 Q290.3594,22.5 290.1094,22.3281 Q289.8594,22.1563 289.75,21.7031 Q289.7031,21.3906 289.5313,21.2188 Q289.2188,20.8906 288.6563,20.7031 Q288.0938,20.5 287.5313,20.5 Q286.8281,20.5 286.2344,20.7813 Q285.6563,21.0625 285.2031,21.6875 Q284.75,22.3125 284.75,23.1719 L284.75,24.0938 Q284.75,25.125 285.5938,25.8125 Q286.4375,26.5 287.9375,26.5 Q288.8281,26.5 289.4531,26.2969 Q289.8125,26.1875 290.2188,25.8281 Q290.4844,25.625 290.625,25.5625 Q290.7656,25.5 290.9375,25.5 Q291.2656,25.5 291.5,25.7656 Q291.75,26.0156 291.75,26.375 Q291.75,26.7188 291.4063,27.125 Q290.9063,27.7188 290.1094,28.0469 Q289.0625,28.5 287.7813,28.5 Q286.2813,28.5 285.0781,27.9063 Q284.1094,27.4375 283.4219,26.4219 Q282.75,25.4063 282.75,24.2031 L282.75,23.1094 Q282.75,21.8594 283.3438,20.7656 Q283.9531,19.6719 285,19.0938 Q286.0625,18.5 287.25,18.5 Q287.9688,18.5 288.5938,18.75 Q289.2188,19 289.75,19.5 Z " fill="#000000"/><text fill="#000000" font-family="sans-serif" font-size="14" lengthAdjust="spacing" textLength="120" x="308.25" y="27.8535">ListDealsController</text><line style="stroke:#181818;stroke-width:0.5;" x1="226.5" x2="477.5" y1="39" y2="39"/><line style="stroke:#181818;stroke-width:0.5;" x1="226.5" x2="477.5" y1="47" y2="47"/><ellipse cx="236.5" cy="60.3203" fill="#84BE84" rx="3" ry="3" style="stroke:#038048;stroke-width:1.0;"/><text fill="#000000" font-family="sans-serif" font-size="14" lengthAdjust="spacing" textLength="227" x="245.5" y="63.6738">ListDealsController(offerRepository)</text><ellipse cx="236.5" cy="75.9609" fill="#84BE84" rx="3" ry="3" style="stroke:#038048;stroke-width:1.0;"/><text fill="#000000" font-family="sans-serif" font-size="14" lengthAdjust="spacing" textLength="178" x="245.5" y="79.3145">getDealsByAscendingArea()</text><ellipse cx="236.5" cy="91.6016" fill="#84BE84" rx="3" ry="3" style="stroke:#038048;stroke-width:1.0;"/><text fill="#000000" font-family="sans-serif" font-size="14" lengthAdjust="spacing" textLength="187" x="245.5" y="94.9551">getDealsByDescendingArea()</text><ellipse cx="236.5" cy="107.2422" fill="#84BE84" rx="3" ry="3" style="stroke:#038048;stroke-width:1.0;"/><text fill="#000000" font-family="sans-serif" font-size="14" lengthAdjust="spacing" textLength="140" x="245.5" y="110.5957">toDtoAscendingArea()</text><ellipse cx="236.5" cy="122.8828" fill="#84BE84" rx="3" ry="3" style="stroke:#038048;stroke-width:1.0;"/><text fill="#000000" font-family="sans-serif" font-size="14" lengthAdjust="spacing" textLength="149" x="245.5" y="126.2363">toDtoDescendingArea()</text><rect fill="#F24D5C" height="6" style="stroke:#C82930;stroke-width:1.0;" width="6" x="233.5" y="135.5234"/><text fill="#000000" font-family="sans-serif" font-size="14" lengthAdjust="spacing" textLength="130" x="245.5" y="141.877">getOfferRepository()</text></g><!--class ListDealsUI--><g id="elem_ListDealsUI"><rect codeLine="176" fill="#F1F1F1" height="48" id="ListDealsUI" rx="2.5" ry="2.5" style="stroke:#181818;stroke-width:0.5;" width="102" x="88" y="54"/><ellipse cx="103" cy="70" fill="#ADD1B2" rx="11" ry="11" style="stroke:#181818;stroke-width:1.0;"/><path d="M105,66.5 Q105.2031,66 105.4375,65.75 Q105.6719,65.5 105.9375,65.5 Q106.4063,65.5 106.7031,65.7813 Q107,66.0625 107,66.7188 L107,68.2813 Q107,68.9375 106.7188,69.2188 Q106.4375,69.5 106,69.5 Q105.6094,69.5 105.3594,69.3281 Q105.1094,69.1563 105,68.7031 Q104.9531,68.3906 104.7813,68.2188 Q104.4688,67.8906 103.9063,67.7031 Q103.3438,67.5 102.7813,67.5 Q102.0781,67.5 101.4844,67.7813 Q100.9063,68.0625 100.4531,68.6875 Q100,69.3125 100,70.1719 L100,71.0938 Q100,72.125 100.8438,72.8125 Q101.6875,73.5 103.1875,73.5 Q104.0781,73.5 104.7031,73.2969 Q105.0625,73.1875 105.4688,72.8281 Q105.7344,72.625 105.875,72.5625 Q106.0156,72.5 106.1875,72.5 Q106.5156,72.5 106.75,72.7656 Q107,73.0156 107,73.375 Q107,73.7188 106.6563,74.125 Q106.1563,74.7188 105.3594,75.0469 Q104.3125,75.5 103.0313,75.5 Q101.5313,75.5 100.3281,74.9063 Q99.3594,74.4375 98.6719,73.4219 Q98,72.4063 98,71.2031 L98,70.1094 Q98,68.8594 98.5938,67.7656 Q99.2031,66.6719 100.25,66.0938 Q101.3125,65.5 102.5,65.5 Q103.2188,65.5 103.8438,65.75 Q104.4688,66 105,66.5 Z " fill="#000000"/><text fill="#000000" font-family="sans-serif" font-size="14" lengthAdjust="spacing" textLength="70" x="117" y="74.8535">ListDealsUI</text><line style="stroke:#181818;stroke-width:0.5;" x1="89" x2="189" y1="86" y2="86"/><line style="stroke:#181818;stroke-width:0.5;" x1="89" x2="189" y1="94" y2="94"/></g><!--class OfferDto--><g id="elem_OfferDto"><rect codeLine="179" fill="#F1F1F1" height="110.5625" id="OfferDto" rx="2.5" ry="2.5" style="stroke:#181818;stroke-width:0.5;" width="182" x="7" y="497"/><ellipse cx="66.75" cy="513" fill="#ADD1B2" rx="11" ry="11" style="stroke:#181818;stroke-width:1.0;"/><path d="M68.75,509.5 Q68.9531,509 69.1875,508.75 Q69.4219,508.5 69.6875,508.5 Q70.1563,508.5 70.4531,508.7813 Q70.75,509.0625 70.75,509.7188 L70.75,511.2813 Q70.75,511.9375 70.4688,512.2188 Q70.1875,512.5 69.75,512.5 Q69.3594,512.5 69.1094,512.3281 Q68.8594,512.1563 68.75,511.7031 Q68.7031,511.3906 68.5313,511.2188 Q68.2188,510.8906 67.6563,510.7031 Q67.0938,510.5 66.5313,510.5 Q65.8281,510.5 65.2344,510.7813 Q64.6563,511.0625 64.2031,511.6875 Q63.75,512.3125 63.75,513.1719 L63.75,514.0938 Q63.75,515.125 64.5938,515.8125 Q65.4375,516.5 66.9375,516.5 Q67.8281,516.5 68.4531,516.2969 Q68.8125,516.1875 69.2188,515.8281 Q69.4844,515.625 69.625,515.5625 Q69.7656,515.5 69.9375,515.5 Q70.2656,515.5 70.5,515.7656 Q70.75,516.0156 70.75,516.375 Q70.75,516.7188 70.4063,517.125 Q69.9063,517.7188 69.1094,518.0469 Q68.0625,518.5 66.7813,518.5 Q65.2813,518.5 64.0781,517.9063 Q63.1094,517.4375 62.4219,516.4219 Q61.75,515.4063 61.75,514.2031 L61.75,513.1094 Q61.75,511.8594 62.3438,510.7656 Q62.9531,509.6719 64,509.0938 Q65.0625,508.5 66.25,508.5 Q66.9688,508.5 67.5938,508.75 Q68.2188,509 68.75,509.5 Z " fill="#000000"/><text fill="#000000" font-family="sans-serif" font-size="14" lengthAdjust="spacing" textLength="54" x="87.25" y="517.8535">OfferDto</text><line style="stroke:#181818;stroke-width:0.5;" x1="8" x2="188" y1="529" y2="529"/><rect fill="none" height="6" style="stroke:#C82930;stroke-width:1.0;" width="6" x="15" y="539.3203"/><text fill="#000000" font-family="sans-serif" font-size="14" lengthAdjust="spacing" textLength="35" x="27" y="545.6738">name</text><rect fill="none" height="6" style="stroke:#C82930;stroke-width:1.0;" width="6" x="15" y="554.9609"/><text fill="#000000" font-family="sans-serif" font-size="14" lengthAdjust="spacing" textLength="82" x="27" y="561.3145">orderAmount</text><rect fill="none" height="6" style="stroke:#C82930;stroke-width:1.0;" width="6" x="15" y="570.6016"/><text fill="#000000" font-family="sans-serif" font-size="14" lengthAdjust="spacing" textLength="156" x="27" y="576.9551">publishedAnnouncement</text><rect fill="none" height="6" style="stroke:#C82930;stroke-width:1.0;" width="6" x="15" y="586.2422"/><text fill="#000000" font-family="sans-serif" font-size="14" lengthAdjust="spacing" textLength="62" x="27" y="592.5957">offerState</text><line style="stroke:#181818;stroke-width:0.5;" x1="8" x2="188" y1="599.5625" y2="599.5625"/></g><!--reverse link Person to Employee--><g id="link_Person_Employee"><path codeLine="128" d="M407.92,698.45 C405.87,712.55 403.87,726.27 402.04,738.86 " fill="none" id="Person-backto-Employee" style="stroke:#181818;stroke-width:1.0;"/><polygon fill="none" points="401.04,697.12,410.84,678.34,414.89,699.14,401.04,697.12" style="stroke:#181818;stroke-width:1.0;"/></g><!--link Employee to NetworkManager--><g id="link_Employee_NetworkManager"><path codeLine="129" d="M406.15,865.44 C411.75,892.07 417.95,921.5 422.12,941.31 " fill="none" id="Employee-NetworkManager" style="stroke:#181818;stroke-width:1.0;"/></g><!--link NetworkManager to Offer--><g id="link_NetworkManager_Offer"><path codeLine="132" d="M496.22,965.5 C539.97,965.5 596.5,965.5 641.27,965.5 " fill="none" id="NetworkManager-Offer" style="stroke:#181818;stroke-width:1.0;"/><polygon fill="#000000" points="530.25,954.7617,521.2049,951.8228,521.2049,957.7006,530.25,954.7617" style="stroke:#000000;stroke-width:1.0;"/><text fill="#000000" font-family="sans-serif" font-size="13" lengthAdjust="spacing" textLength="82" x="534.25" y="959.2686">intends to see</text><text fill="#000000" font-family="sans-serif" font-size="13" lengthAdjust="spacing" textLength="5" x="504.0644" y="962.5316">*</text><text fill="#000000" font-family="sans-serif" font-size="13" lengthAdjust="spacing" textLength="5" x="628.3057" y="962.5592">*</text></g><!--link Offer to PublishedAnnouncement--><g id="link_Offer_PublishedAnnouncement"><path codeLine="133" d="M759.83,1005.06 C795.04,1036.04 843.32,1078.52 872.78,1104.43 " fill="none" id="Offer-PublishedAnnouncement" style="stroke:#181818;stroke-width:1.0;"/><polygon fill="#000000" points="816.754,1046.5644,811.9042,1038.3833,808.0217,1042.7964,816.754,1046.5644" style="stroke:#000000;stroke-width:1.0;"/><text fill="#000000" font-family="sans-serif" font-size="13" lengthAdjust="spacing" textLength="21" x="822" y="1047.7686">has</text><text fill="#000000" font-family="sans-serif" font-size="13" lengthAdjust="spacing" textLength="5" x="762.1919" y="1025.1436">*</text><text fill="#000000" font-family="sans-serif" font-size="13" lengthAdjust="spacing" textLength="7" x="857.7928" y="1093.9188">1</text></g><!--link PublishedAnnouncement to Property--><g id="link_PublishedAnnouncement_Property"><path codeLine="134" d="M941.35,1152.53 C996.96,1182.77 1095.89,1236.57 1167.4,1275.45 " fill="none" id="PublishedAnnouncement-Property" style="stroke:#181818;stroke-width:1.0;"/></g><!--link TypeOfProperty to Property--><g id="link_TypeOfProperty_Property"><path codeLine="135" d="M1375.22,1160.86 C1351.7,1191.86 1315.44,1239.68 1288.51,1275.18 " fill="none" id="TypeOfProperty-Property" style="stroke:#181818;stroke-width:1.0;"/><polygon fill="#000000" points="1347.0216,1210.278,1339.2139,1215.7086,1343.8971,1219.2607,1347.0216,1210.278" style="stroke:#000000;stroke-width:1.0;"/><text fill="#000000" font-family="sans-serif" font-size="13" lengthAdjust="spacing" textLength="21" x="1353" y="1218.7686">has</text></g><!--reverse link Property to Residence--><g id="link_Property_Residence"><path codeLine="136" d="M1253,1390.77 C1253,1412.12 1253,1435.28 1253,1454.87 " fill="none" id="Property-backto-Residence" style="stroke:#181818;stroke-width:1.0;"/><polygon fill="none" points="1246,1390.64,1253,1370.64,1260,1390.64,1246,1390.64" style="stroke:#181818;stroke-width:1.0;"/></g><!--link Photos to Property--><g id="link_Photos_Property"><path codeLine="137" d="M1253,1160.86 C1253,1191.86 1253,1239.68 1253,1275.18 " fill="none" id="Photos-Property" style="stroke:#181818;stroke-width:1.0;"/><polygon fill="#000000" points="1258,1209.2617,1255.0611,1218.3068,1260.9389,1218.3068,1258,1209.2617" style="stroke:#000000;stroke-width:1.0;"/><text fill="#000000" font-family="sans-serif" font-size="13" lengthAdjust="spacing" textLength="21" x="1267" y="1218.7686">has</text><text fill="#000000" font-family="sans-serif" font-size="13" lengthAdjust="spacing" textLength="29" x="1221.3266" y="1179.9669">1..30</text><text fill="#000000" font-family="sans-serif" font-size="13" lengthAdjust="spacing" textLength="7" x="1245.4641" y="1264.6003">1</text></g><!--reverse link Residence to House--><g id="link_Residence_House"><path codeLine="138" d="M1214.93,1567.35 C1203.12,1587.16 1190.47,1608.37 1180.01,1625.91 " fill="none" id="Residence-backto-House" style="stroke:#181818;stroke-width:1.0;"/><polygon fill="none" points="1208.98,1563.66,1225.23,1550.07,1221,1570.83,1208.98,1563.66" style="stroke:#181818;stroke-width:1.0;"/></g><!--link Residence to AvailableEquipment--><g id="link_Residence_AvailableEquipment"><path codeLine="139" d="M1280.48,1550.07 C1296.26,1576.81 1315.65,1609.68 1329.6,1633.31 " fill="none" id="Residence-AvailableEquipment" style="stroke:#181818;stroke-width:1.0;"/><polygon fill="#000000" points="1313.5411,1592.5679,1311.4753,1583.2844,1306.4131,1586.2716,1313.5411,1592.5679" style="stroke:#000000;stroke-width:1.0;"/><text fill="#000000" font-family="sans-serif" font-size="13" lengthAdjust="spacing" textLength="49" x="1320" y="1592.7686">contains</text><text fill="#000000" font-family="sans-serif" font-size="13" lengthAdjust="spacing" textLength="7" x="1276.8522" y="1569.5548">1</text><text fill="#000000" font-family="sans-serif" font-size="13" lengthAdjust="spacing" textLength="5" x="1320.0281" y="1622.6023">*</text></g><!--link House to SunExposure--><g id="link_House_SunExposure"><path codeLine="140" d="M1157,1705.11 C1157,1728.68 1157,1758.44 1157,1780.57 " fill="none" id="House-SunExposure" style="stroke:#181818;stroke-width:1.0;"/><polygon fill="#000000" points="1162,1748.2617,1164.9389,1739.2166,1159.0611,1739.2166,1162,1748.2617" style="stroke:#000000;stroke-width:1.0;"/><text fill="#000000" font-family="sans-serif" font-size="13" lengthAdjust="spacing" textLength="49" x="1171" y="1747.7686">contains</text><text fill="#000000" font-family="sans-serif" font-size="13" lengthAdjust="spacing" textLength="7" x="1149.3984" y="1724.9105">1</text><text fill="#000000" font-family="sans-serif" font-size="13" lengthAdjust="spacing" textLength="5" x="1151.4844" y="1770.2972">*</text></g><!--link PublishedAnnouncement to Comission--><g id="link_PublishedAnnouncement_Comission"><path codeLine="141" d="M993.58,1128.5 C1017.8,1128.5 1043.04,1128.5 1064.48,1128.5 " fill="none" id="PublishedAnnouncement-Comission" style="stroke:#181818;stroke-width:1.0;"/><polygon fill="#000000" points="1021,1117.7617,1011.9549,1114.8228,1011.9549,1120.7006,1021,1117.7617" style="stroke:#000000;stroke-width:1.0;"/><text fill="#000000" font-family="sans-serif" font-size="13" lengthAdjust="spacing" textLength="21" x="1025" y="1122.2686">has</text><text fill="#000000" font-family="sans-serif" font-size="13" lengthAdjust="spacing" textLength="7" x="1001.3958" y="1125.7316">1</text><text fill="#000000" font-family="sans-serif" font-size="13" lengthAdjust="spacing" textLength="7" x="1049.3209" y="1125.3463">1</text></g><!--link Business to PublishedAnnouncement--><g id="link_Business_PublishedAnnouncement"><path codeLine="142" d="M899,997.54 C899,1028.79 899,1076.28 899,1104.37 " fill="none" id="Business-PublishedAnnouncement" style="stroke:#181818;stroke-width:1.0;"/><polygon fill="#000000" points="904,1038.2617,901.0611,1047.3068,906.9389,1047.3068,904,1038.2617" style="stroke:#000000;stroke-width:1.0;"/><text fill="#000000" font-family="sans-serif" font-size="13" lengthAdjust="spacing" textLength="21" x="913" y="1047.7686">has</text><text fill="#000000" font-family="sans-serif" font-size="13" lengthAdjust="spacing" textLength="7" x="891.3328" y="1016.8347">1</text><text fill="#000000" font-family="sans-serif" font-size="13" lengthAdjust="spacing" textLength="7" x="891.0594" y="1093.8427">1</text></g><!--link Adress to Property--><g id="link_Adress_Property"><path codeLine="144" d="M1071.25,1323 C1094.83,1323 1118.9,1323 1141.48,1323 " fill="none" id="Adress-Property" style="stroke:#181818;stroke-width:1.0;"/><polygon fill="#000000" points="1088.25,1312.2617,1097.2951,1315.2006,1097.2951,1309.3228,1088.25,1312.2617" style="stroke:#000000;stroke-width:1.0;"/><text fill="#000000" font-family="sans-serif" font-size="13" lengthAdjust="spacing" textLength="21" x="1102.25" y="1316.7686">has</text><text fill="#000000" font-family="sans-serif" font-size="13" lengthAdjust="spacing" textLength="7" x="1078.9715" y="1320.4251">1</text><text fill="#000000" font-family="sans-serif" font-size="13" lengthAdjust="spacing" textLength="7" x="1126.3927" y="1320.2975">1</text></g><!--link District to State--><g id="link_District_State"><path codeLine="145" d="M497.11,1323 C521.01,1323 547.49,1323 570.99,1323 " fill="none" id="District-State" style="stroke:#181818;stroke-width:1.0;"/><polygon fill="#000000" points="524.5,1312.2617,515.4549,1309.3228,515.4549,1315.2006,524.5,1312.2617" style="stroke:#000000;stroke-width:1.0;"/><text fill="#000000" font-family="sans-serif" font-size="13" lengthAdjust="spacing" textLength="24" x="528.5" y="1316.7686">is in</text><text fill="#000000" font-family="sans-serif" font-size="13" lengthAdjust="spacing" textLength="5" x="504.8042" y="1320.0962">*</text><text fill="#000000" font-family="sans-serif" font-size="13" lengthAdjust="spacing" textLength="7" x="555.8373" y="1320.0147">1</text></g><!--link City to District--><g id="link_City_District"><path codeLine="146" d="M279.19,1323 C302.15,1323 328.77,1323 352.94,1323 " fill="none" id="City-District" style="stroke:#181818;stroke-width:1.0;"/><polygon fill="#000000" points="306.5,1312.2617,297.4549,1309.3228,297.4549,1315.2006,306.5,1312.2617" style="stroke:#000000;stroke-width:1.0;"/><text fill="#000000" font-family="sans-serif" font-size="13" lengthAdjust="spacing" textLength="24" x="310.5" y="1316.7686">is in</text><text fill="#000000" font-family="sans-serif" font-size="13" lengthAdjust="spacing" textLength="5" x="286.9659" y="1319.8872">*</text><text fill="#000000" font-family="sans-serif" font-size="13" lengthAdjust="spacing" textLength="7" x="338.1479" y="1320.0962">1</text></g><!--link State to Adress--><g id="link_State_Adress"><path codeLine="147" d="M705.29,1323 C727.49,1323 753.12,1323 778.86,1323 " fill="none" id="State-Adress" style="stroke:#181818;stroke-width:1.0;"/><polygon fill="#000000" points="732.5,1312.2617,723.4549,1309.3228,723.4549,1315.2006,732.5,1312.2617" style="stroke:#000000;stroke-width:1.0;"/><text fill="#000000" font-family="sans-serif" font-size="13" lengthAdjust="spacing" textLength="24" x="736.5" y="1316.7686">is in</text><text fill="#000000" font-family="sans-serif" font-size="13" lengthAdjust="spacing" textLength="7" x="713.0327" y="1320.0555">1</text><text fill="#000000" font-family="sans-serif" font-size="13" lengthAdjust="spacing" textLength="5" x="766.1958" y="1320.4251">*</text></g><!--link ListDealsUI to ListDealsController--><g id="link_ListDealsUI_ListDealsController"><path codeLine="188" d="M190.17,78 C200.13,78 210.09,78 220.05,78 " fill="none" id="ListDealsUI-to-ListDealsController" style="stroke:#181818;stroke-width:1.0;stroke-dasharray:7.0,7.0;"/><polygon fill="#181818" points="225.25,78,216.25,74,220.25,78,216.25,82,225.25,78" style="stroke:#181818;stroke-width:1.0;"/></g><!--link ListDealsController to Repositories--><g id="link_ListDealsController_Repositories"><path codeLine="190" d="M478.64,78 C510.95,78 545.32,78 576.45,78 " fill="none" id="ListDealsController-to-Repositories" style="stroke:#181818;stroke-width:1.0;stroke-dasharray:7.0,7.0;"/><polygon fill="#181818" points="581.81,78,572.81,74,576.81,78,572.81,82,581.81,78" style="stroke:#181818;stroke-width:1.0;"/><text fill="#000000" font-family="sans-serif" font-size="13" lengthAdjust="spacing" textLength="67" x="496.75" y="71.7686">repositories</text></g><!--link Repositories to Repositories--><g id="link_Repositories_Repositories"><path codeLine="192" d="M782.09,58.52 C802.43,60.64 817,67.14 817,78 C817,87.93 804.83,94.21 787.2,96.83 " fill="none" id="Repositories-to-Repositories" style="stroke:#181818;stroke-width:1.0;"/><polygon fill="#181818" points="782.09,97.48,791.5136,100.3428,787.052,96.8651,790.5298,92.4036,782.09,97.48" style="stroke:#181818;stroke-width:1.0;"/><text fill="#000000" font-family="sans-serif" font-size="13" lengthAdjust="spacing" textLength="49" x="823" y="82.7686">instance</text></g><!--link ListDealsController to OfferMapper--><g id="link_ListDealsController_OfferMapper"><path codeLine="194" d="M271.55,149.01 C243.53,173.4 212.98,199.99 188.38,221.4 " fill="none" id="ListDealsController-to-OfferMapper" style="stroke:#181818;stroke-width:1.0;stroke-dasharray:7.0,7.0;"/><polygon fill="#181818" points="184.48,224.79,193.8935,221.894,188.25,221.5056,188.6384,215.8621,184.48,224.79" style="stroke:#181818;stroke-width:1.0;"/></g><!--link OfferMapper to OfferDto--><g id="link_OfferMapper_OfferDto"><path codeLine="196" d="M134.34,304.07 C127.25,352.32 115.04,435.45 106.75,491.91 " fill="none" id="OfferMapper-to-OfferDto" style="stroke:#181818;stroke-width:1.0;stroke-dasharray:7.0,7.0;"/><polygon fill="#181818" points="106.01,496.94,111.2797,488.6195,106.7391,491.9934,103.3652,487.4529,106.01,496.94" style="stroke:#181818;stroke-width:1.0;"/></g><!--link Repositories to OfferRepository--><g id="link_Repositories_OfferRepository"><path codeLine="198" d="M682,125.56 C682,157.01 682,197.95 682,227.04 " fill="none" id="Repositories-to-OfferRepository" style="stroke:#181818;stroke-width:1.0;"/><polygon fill="#181818" points="682,232.33,686,223.33,682,227.33,678,223.33,682,232.33" style="stroke:#181818;stroke-width:1.0;"/><text fill="#000000" font-family="sans-serif" font-size="13" lengthAdjust="spacing" textLength="86" x="683" y="191.7686">offerRepository</text></g><!--link ListDealsController to OfferRepository--><g id="link_ListDealsController_OfferRepository"><path codeLine="200" d="M477.23,149.01 C526.64,176.64 581.11,207.09 621.44,229.64 " fill="none" id="ListDealsController-to-OfferRepository" style="stroke:#181818;stroke-width:1.0;stroke-dasharray:7.0,7.0;"/><polygon fill="#181818" points="626.29,232.35,620.3848,224.4678,621.9253,229.9109,616.4822,231.4514,626.29,232.35" style="stroke:#181818;stroke-width:1.0;"/></g><!--link OfferRepository to Offer--><g id="link_OfferRepository_Offer"><path codeLine="202" d="M702.26,296.87 C712.59,315.82 723,340.9 723,365 C723,365 723,365 723,803 C723,842.83 720.85,888.12 718.93,920.59 " fill="none" id="OfferRepository-to-Offer" style="stroke:#181818;stroke-width:1.0;"/><polygon fill="#181818" points="718.63,925.69,723.1633,916.9465,718.9303,920.699,715.1778,916.466,718.63,925.69" style="stroke:#181818;stroke-width:1.0;"/></g><!--link Offer to OfferState--><g id="link_Offer_OfferState"><path codeLine="205" d="M713.6,1005.06 C712.29,1026.25 710.64,1052.82 709.21,1075.79 " fill="none" id="Offer-to-OfferState" style="stroke:#181818;stroke-width:1.0;"/><polygon fill="#181818" points="708.89,1080.93,713.4483,1072.1995,709.2046,1075.9399,705.4641,1071.6962,708.89,1080.93" style="stroke:#181818;stroke-width:1.0;"/></g><!--SRC=[ZLRRRjiu47tdLn1vgTD8mHPzCu80JXnW0smJmsu_W9R6DhSIgIMfRjrq_ts7Dv5I5BH-aCNXcJDN3lMkWOEXHbB5ZoT3QwwWCbmAKZLCQ_hGTeqy0xoGScUa0ghjavH_SMrkjhA1MwhmIQuYS04juqqXM0k5mnRTIGfuwjizgC9Y2rOhqBemx7kGTcYfayhuvIMvEe9nrXR-tTh1r_z8S6e3Iak1Bj6TKLmSgRE9IouC7PC5uM0hwLWFSRLopb3lKwH87XDozKM32b6DkRC8NBYPclTxCuA7O3v7fR1-iCpXtJiJ5a_86LutYJdFmnEOVwNw-ea9TWJraZQU3mUxBaUXXeLKDQXLAtjXh0A8lgLUOMUO0PhKLbK5dO5w46n0rFW_hBVmDpOB0f0dMFOHl10QCTeeyB4GYh_IvlS7x-vbxGKsl7jkpXXNNAwnjnIlJ2PohiLro9AsiW8xrgCBMY5D4GmMqKYMhYreNeEeR8o3By9bLHxke5PIjdfcXvdJ6riRfhxQ87STgq0dIt_ANWzMGYBsJ4CBcFHSoCM9xRbX-mOQUJ29OTUBX- -TrBsQygGJEe1Ntx25BCV3Fptlh9693aHvLgcxNdDXMpyLt4Z3cWqc4p9Sh4Pst6BANLN9gxg5nisgoq57WP6U9EzZM_-CtjQHZ9eZC2QdxcNBjSOan43NiiVuwJVMzDxvOLQSf94ko4ZVRn-pKQ9a1ygS8uyx_qm1yykWtRc_364pm6md7PHigJc1SvfMc6AS6OaTdUBw1FLA23nm5OJQf3BR7hQdXGx71GK-hxEzdwLvBgK-TC_z-Tp1yo4BS2WpRbYW7wFqvcTP3dEUn1UAml5yGUAnW5wylq3FxTFDZwLD3Ou8RQyJZHItnCaz3e4VBkOpigGdfX4zdoxKZ46GIKpP5lKaDsGGkBY6Cqz2AIy-N5z__2FvCrLFGyBfkvES2QrEwMEUENLBMabX61Ss6Zy4CeNiJ8-0ys4xHVTCpRxqUHgERYH_Ax53L2HSSqx1tVIJ-2FGtm4EPZyCWkUnvR326ekCk2Xv1RN7DS6YsVSP21MSbOHAFUlwvHFhqATm8g-mcTP6BgJTiLyTbxduUMzl8BzvERd_je2vvlWPSHweyFGygoCJ_0Up4_Jk7BlTNyBkaXzT6841vzSm879XF86M-57uaR2unApdeCpssAry1Dh8ri0QVOzzWLz9JPQ0cJqVSQBA_738k_DAL_wsNk4mMxpUNyCim6LrzVRMh5hvky5zUQJJhnJanCdalr3oJvEocsjen0nVAdxMvTpNjtEvoZ1PSX4xAk-IghncPBHPbcFqaeTYly6Dv5ad4vAtzVMmYw7Fs9dsxf9EQlqBcpbmobNQNy2Hi9sC-gmIyZy0]--></g></svg>