<?xml version="1.0" encoding="UTF-8" standalone="no"?><svg xmlns="http://www.w3.org/2000/svg" xmlns:xlink="http://www.w3.org/1999/xlink" contentStyleType="text/css" height="2977px" preserveAspectRatio="none" style="width:2435px;height:2977px;background:#FFFFFF;" version="1.1" viewBox="0 0 2435 2977" width="2435px" zoomAndPan="magnify"><defs/><g><!--class Employee--><g id="elem_Employee"><rect codeLine="3" fill="#F1F1F1" height="176.9375" id="Employee" rx="2.5" ry="2.5" style="stroke:#181818;stroke-width:0.5;" width="762" x="7" y="1499.5"/><ellipse cx="340" cy="1517.0781" fill="#ADD1B2" rx="12" ry="12" style="stroke:#181818;stroke-width:1.0;"/><path d="M342.1406,1512 Q342.3281,1511.75 342.5469,1511.625 Q342.7656,1511.4844 343.0156,1511.4844 Q343.4531,1511.4844 343.7344,1511.7969 Q344.0156,1512.0938 344.0156,1512.8125 L344.0156,1514.5156 Q344.0156,1515.2344 343.7344,1515.5469 Q343.4531,1515.8594 343.0156,1515.8594 Q342.625,1515.8594 342.375,1515.625 Q342.125,1515.4063 342.0156,1514.7969 Q341.9531,1514.375 341.7344,1514.1563 Q341.3438,1513.7188 340.625,1513.4531 Q339.9063,1513.1875 339.1875,1513.1875 Q338.2813,1513.1875 337.5313,1513.5781 Q336.7813,1513.9688 336.2031,1514.8594 Q335.625,1515.7344 335.625,1516.9375 L335.625,1518.2344 Q335.625,1519.6875 336.6719,1520.6563 Q337.7344,1521.625 339.5938,1521.625 Q340.7031,1521.625 341.4844,1521.3125 Q341.9219,1521.1406 342.4375,1520.625 Q342.75,1520.3125 342.9219,1520.2188 Q343.0938,1520.125 343.3281,1520.125 Q343.7188,1520.125 344.0156,1520.4375 Q344.3281,1520.7344 344.3281,1521.1406 Q344.3281,1521.5469 343.9219,1522.0156 Q343.3281,1522.7031 342.3906,1523.0938 Q341.125,1523.625 339.6094,1523.625 Q337.8281,1523.625 336.4063,1522.8906 Q335.25,1522.2969 334.4375,1521.0313 Q333.625,1519.7656 333.625,1518.2813 L333.625,1516.9219 Q333.625,1515.3594 334.3438,1514.0156 Q335.0781,1512.6563 336.3594,1511.9219 Q337.6563,1511.1875 339.1094,1511.1875 Q339.9688,1511.1875 340.7188,1511.3906 Q341.4844,1511.5938 342.1406,1512 Z " fill="#000000"/><text fill="#000000" font-family="sans-serif" font-size="20" lengthAdjust="spacing" textLength="87" x="362" y="1525.2617">Employee</text><line style="stroke:#181818;stroke-width:0.5;" x1="8" x2="768" y1="1534.6563" y2="1534.6563"/><rect fill="none" height="6" style="stroke:#C82930;stroke-width:1.0;" width="6" x="15" y="1549.7344"/><text fill="#000000" font-family="sans-serif" font-size="20" lengthAdjust="spacing" textLength="99" x="28" y="1559.418">Store store</text><rect fill="none" height="6" style="stroke:#C82930;stroke-width:1.0;" width="6" x="15" y="1574.8906"/><text fill="#000000" font-family="sans-serif" font-size="20" lengthAdjust="spacing" textLength="134" x="28" y="1584.5742">List&lt;Role&gt; role</text><line style="stroke:#181818;stroke-width:0.5;" x1="8" x2="768" y1="1592.9688" y2="1592.9688"/><ellipse cx="18" cy="1611.0469" fill="#84BE84" rx="3" ry="3" style="stroke:#038048;stroke-width:1.0;"/><text fill="#000000" font-family="sans-serif" font-size="20" lengthAdjust="spacing" textLength="735" x="28" y="1617.7305">Employee(email,name,store,phoneNumber,role,adress,taxNumber,passportNumber)</text><ellipse cx="18" cy="1636.2031" fill="#84BE84" rx="3" ry="3" style="stroke:#038048;stroke-width:1.0;"/><text fill="#000000" font-family="sans-serif" font-size="20" lengthAdjust="spacing" textLength="90" x="28" y="1642.8867">getStore()</text><ellipse cx="18" cy="1661.3594" fill="#84BE84" rx="3" ry="3" style="stroke:#038048;stroke-width:1.0;"/><text fill="#000000" font-family="sans-serif" font-size="20" lengthAdjust="spacing" textLength="82" x="28" y="1668.043">getRole()</text></g><!--class Person--><g id="elem_Person"><rect codeLine="11" fill="#F1F1F1" height="378.1875" id="Person" rx="2.5" ry="2.5" style="stroke:#181818;stroke-width:0.5;" width="560" x="108" y="1010"/><ellipse cx="352.5" cy="1027.5781" fill="#ADD1B2" rx="12" ry="12" style="stroke:#181818;stroke-width:1.0;"/><path d="M354.6406,1022.5 Q354.8281,1022.25 355.0469,1022.125 Q355.2656,1021.9844 355.5156,1021.9844 Q355.9531,1021.9844 356.2344,1022.2969 Q356.5156,1022.5938 356.5156,1023.3125 L356.5156,1025.0156 Q356.5156,1025.7344 356.2344,1026.0469 Q355.9531,1026.3594 355.5156,1026.3594 Q355.125,1026.3594 354.875,1026.125 Q354.625,1025.9063 354.5156,1025.2969 Q354.4531,1024.875 354.2344,1024.6563 Q353.8438,1024.2188 353.125,1023.9531 Q352.4063,1023.6875 351.6875,1023.6875 Q350.7813,1023.6875 350.0313,1024.0781 Q349.2813,1024.4688 348.7031,1025.3594 Q348.125,1026.2344 348.125,1027.4375 L348.125,1028.7344 Q348.125,1030.1875 349.1719,1031.1563 Q350.2344,1032.125 352.0938,1032.125 Q353.2031,1032.125 353.9844,1031.8125 Q354.4219,1031.6406 354.9375,1031.125 Q355.25,1030.8125 355.4219,1030.7188 Q355.5938,1030.625 355.8281,1030.625 Q356.2188,1030.625 356.5156,1030.9375 Q356.8281,1031.2344 356.8281,1031.6406 Q356.8281,1032.0469 356.4219,1032.5156 Q355.8281,1033.2031 354.8906,1033.5938 Q353.625,1034.125 352.1094,1034.125 Q350.3281,1034.125 348.9063,1033.3906 Q347.75,1032.7969 346.9375,1031.5313 Q346.125,1030.2656 346.125,1028.7813 L346.125,1027.4219 Q346.125,1025.8594 346.8438,1024.5156 Q347.5781,1023.1563 348.8594,1022.4219 Q350.1563,1021.6875 351.6094,1021.6875 Q352.4688,1021.6875 353.2188,1021.8906 Q353.9844,1022.0938 354.6406,1022.5 Z " fill="#000000"/><text fill="#000000" font-family="sans-serif" font-size="20" lengthAdjust="spacing" textLength="62" x="374.5" y="1035.7617">Person</text><line style="stroke:#181818;stroke-width:0.5;" x1="109" x2="667" y1="1045.1563" y2="1045.1563"/><rect fill="none" height="6" style="stroke:#C82930;stroke-width:1.0;" width="6" x="116" y="1060.2344"/><text fill="#000000" font-family="sans-serif" font-size="20" lengthAdjust="spacing" textLength="103" x="129" y="1069.918">String email</text><rect fill="none" height="6" style="stroke:#C82930;stroke-width:1.0;" width="6" x="116" y="1085.3906"/><text fill="#000000" font-family="sans-serif" font-size="20" lengthAdjust="spacing" textLength="171" x="129" y="1095.0742">int passportNumber</text><rect fill="none" height="6" style="stroke:#C82930;stroke-width:1.0;" width="6" x="116" y="1110.5469"/><text fill="#000000" font-family="sans-serif" font-size="20" lengthAdjust="spacing" textLength="120" x="129" y="1120.2305">int taxNumber</text><rect fill="none" height="6" style="stroke:#C82930;stroke-width:1.0;" width="6" x="116" y="1135.7031"/><text fill="#000000" font-family="sans-serif" font-size="20" lengthAdjust="spacing" textLength="105" x="129" y="1145.3867">String name</text><rect fill="none" height="6" style="stroke:#C82930;stroke-width:1.0;" width="6" x="116" y="1160.8594"/><text fill="#000000" font-family="sans-serif" font-size="20" lengthAdjust="spacing" textLength="128" x="129" y="1170.543">Adress adress</text><rect fill="none" height="6" style="stroke:#C82930;stroke-width:1.0;" width="6" x="116" y="1186.0156"/><text fill="#000000" font-family="sans-serif" font-size="20" lengthAdjust="spacing" textLength="147" x="129" y="1195.6992">int phoneNumber</text><line style="stroke:#181818;stroke-width:0.5;" x1="109" x2="667" y1="1204.0938" y2="1204.0938"/><ellipse cx="119" cy="1222.1719" fill="#84BE84" rx="3" ry="3" style="stroke:#038048;stroke-width:1.0;"/><text fill="#000000" font-family="sans-serif" font-size="20" lengthAdjust="spacing" textLength="533" x="129" y="1228.8555">User(email,passportNumber,taxNumber,name,phoneNumber)</text><ellipse cx="119" cy="1247.3281" fill="#84BE84" rx="3" ry="3" style="stroke:#038048;stroke-width:1.0;"/><text fill="#000000" font-family="sans-serif" font-size="20" lengthAdjust="spacing" textLength="189" x="129" y="1254.0117">getPassportNumber()</text><ellipse cx="119" cy="1272.4844" fill="#84BE84" rx="3" ry="3" style="stroke:#038048;stroke-width:1.0;"/><text fill="#000000" font-family="sans-serif" font-size="20" lengthAdjust="spacing" textLength="142" x="129" y="1279.168">getTaxNumber()</text><ellipse cx="119" cy="1297.6406" fill="#84BE84" rx="3" ry="3" style="stroke:#038048;stroke-width:1.0;"/><text fill="#000000" font-family="sans-serif" font-size="20" lengthAdjust="spacing" textLength="90" x="129" y="1304.3242">getEmail()</text><ellipse cx="119" cy="1322.7969" fill="#84BE84" rx="3" ry="3" style="stroke:#038048;stroke-width:1.0;"/><text fill="#000000" font-family="sans-serif" font-size="20" lengthAdjust="spacing" textLength="104" x="129" y="1329.4805">getAdress()</text><ellipse cx="119" cy="1347.9531" fill="#84BE84" rx="3" ry="3" style="stroke:#038048;stroke-width:1.0;"/><text fill="#000000" font-family="sans-serif" font-size="20" lengthAdjust="spacing" textLength="93" x="129" y="1354.6367">getName()</text><ellipse cx="119" cy="1373.1094" fill="#84BE84" rx="3" ry="3" style="stroke:#038048;stroke-width:1.0;"/><text fill="#000000" font-family="sans-serif" font-size="20" lengthAdjust="spacing" textLength="165" x="129" y="1379.793">getPhoneNumber()</text></g><!--class Offer--><g id="elem_Offer"><rect codeLine="29" fill="#F1F1F1" height="277.5625" id="Offer" rx="2.5" ry="2.5" style="stroke:#181818;stroke-width:0.5;" width="455" x="948.5" y="1449"/><ellipse cx="1148.5" cy="1466.5781" fill="#ADD1B2" rx="12" ry="12" style="stroke:#181818;stroke-width:1.0;"/><path d="M1150.6406,1461.5 Q1150.8281,1461.25 1151.0469,1461.125 Q1151.2656,1460.9844 1151.5156,1460.9844 Q1151.9531,1460.9844 1152.2344,1461.2969 Q1152.5156,1461.5938 1152.5156,1462.3125 L1152.5156,1464.0156 Q1152.5156,1464.7344 1152.2344,1465.0469 Q1151.9531,1465.3594 1151.5156,1465.3594 Q1151.125,1465.3594 1150.875,1465.125 Q1150.625,1464.9063 1150.5156,1464.2969 Q1150.4531,1463.875 1150.2344,1463.6563 Q1149.8438,1463.2188 1149.125,1462.9531 Q1148.4063,1462.6875 1147.6875,1462.6875 Q1146.7813,1462.6875 1146.0313,1463.0781 Q1145.2813,1463.4688 1144.7031,1464.3594 Q1144.125,1465.2344 1144.125,1466.4375 L1144.125,1467.7344 Q1144.125,1469.1875 1145.1719,1470.1563 Q1146.2344,1471.125 1148.0938,1471.125 Q1149.2031,1471.125 1149.9844,1470.8125 Q1150.4219,1470.6406 1150.9375,1470.125 Q1151.25,1469.8125 1151.4219,1469.7188 Q1151.5938,1469.625 1151.8281,1469.625 Q1152.2188,1469.625 1152.5156,1469.9375 Q1152.8281,1470.2344 1152.8281,1470.6406 Q1152.8281,1471.0469 1152.4219,1471.5156 Q1151.8281,1472.2031 1150.8906,1472.5938 Q1149.625,1473.125 1148.1094,1473.125 Q1146.3281,1473.125 1144.9063,1472.3906 Q1143.75,1471.7969 1142.9375,1470.5313 Q1142.125,1469.2656 1142.125,1467.7813 L1142.125,1466.4219 Q1142.125,1464.8594 1142.8438,1463.5156 Q1143.5781,1462.1563 1144.8594,1461.4219 Q1146.1563,1460.6875 1147.6094,1460.6875 Q1148.4688,1460.6875 1149.2188,1460.8906 Q1149.9844,1461.0938 1150.6406,1461.5 Z " fill="#000000"/><text fill="#000000" font-family="sans-serif" font-size="20" lengthAdjust="spacing" textLength="46" x="1170.5" y="1474.7617">Offer</text><line style="stroke:#181818;stroke-width:0.5;" x1="949.5" x2="1402.5" y1="1484.1563" y2="1484.1563"/><rect fill="none" height="6" style="stroke:#C82930;stroke-width:1.0;" width="6" x="956.5" y="1499.2344"/><text fill="#000000" font-family="sans-serif" font-size="20" lengthAdjust="spacing" textLength="100" x="969.5" y="1508.918">Client client</text><rect fill="none" height="6" style="stroke:#C82930;stroke-width:1.0;" width="6" x="956.5" y="1524.3906"/><text fill="#000000" font-family="sans-serif" font-size="20" lengthAdjust="spacing" textLength="428" x="969.5" y="1534.0742">PublishedAnnouncement publishedAnnouncement</text><rect fill="none" height="6" style="stroke:#C82930;stroke-width:1.0;" width="6" x="956.5" y="1549.5469"/><text fill="#000000" font-family="sans-serif" font-size="20" lengthAdjust="spacing" textLength="177" x="969.5" y="1559.2305">double orderAmount</text><line style="stroke:#181818;stroke-width:0.5;" x1="949.5" x2="1402.5" y1="1567.625" y2="1567.625"/><ellipse cx="959.5" cy="1598.2813" fill="#84BE84" rx="3" ry="3" style="stroke:#038048;stroke-width:1.0;"/><text fill="#000000" font-family="sans-serif" font-size="20" lengthAdjust="spacing" textLength="383" x="969.5" y="1592.3867">Offer (Client client, PublishedAnnouncement</text><text fill="#000000" font-family="sans-serif" font-size="20" lengthAdjust="spacing" textLength="406" x="969.5" y="1617.543">publishedAnnouncement, double orderAmount)</text><ellipse cx="959.5" cy="1636.0156" fill="#84BE84" rx="3" ry="3" style="stroke:#038048;stroke-width:1.0;"/><text fill="#000000" font-family="sans-serif" font-size="20" lengthAdjust="spacing" textLength="60" x="969.5" y="1642.6992">Offer()</text><ellipse cx="959.5" cy="1661.1719" fill="#84BE84" rx="3" ry="3" style="stroke:#038048;stroke-width:1.0;"/><text fill="#000000" font-family="sans-serif" font-size="20" lengthAdjust="spacing" textLength="160" x="969.5" y="1667.8555">getOrderAmount()</text><ellipse cx="959.5" cy="1686.3281" fill="#84BE84" rx="3" ry="3" style="stroke:#038048;stroke-width:1.0;"/><text fill="#000000" font-family="sans-serif" font-size="20" lengthAdjust="spacing" textLength="254" x="969.5" y="1693.0117">getPublishedAnnouncement()</text><ellipse cx="959.5" cy="1711.4844" fill="#84BE84" rx="3" ry="3" style="stroke:#038048;stroke-width:1.0;"/><text fill="#000000" font-family="sans-serif" font-size="20" lengthAdjust="spacing" textLength="91" x="969.5" y="1718.168">getClient()</text></g><!--class OfferState--><g id="elem_OfferState"><rect codeLine="42" fill="#F1F1F1" height="126.625" id="OfferState" rx="2.5" ry="2.5" style="stroke:#181818;stroke-width:0.5;" width="167" x="1092.5" y="1914.5"/><ellipse cx="1126.5" cy="1932.0781" fill="#EB937F" rx="12" ry="12" style="stroke:#181818;stroke-width:1.0;"/><path d="M1124.4531,1933.1406 L1124.4531,1936.0781 L1129.5469,1936.0781 L1129.5469,1934.9844 Q1129.5469,1934.2656 1129.8281,1933.9688 Q1130.1094,1933.6563 1130.5625,1933.6563 Q1131,1933.6563 1131.2813,1933.9688 Q1131.5625,1934.2656 1131.5625,1934.9844 L1131.5625,1938.0781 L1122.125,1938.0781 Q1121.4063,1938.0781 1121.0938,1937.7969 Q1120.7969,1937.5156 1120.7969,1937.0781 Q1120.7969,1936.625 1121.1094,1936.3594 Q1121.4219,1936.0781 1122.125,1936.0781 L1122.4375,1936.0781 L1122.4375,1928.25 L1122.125,1928.25 Q1121.4063,1928.25 1121.0938,1927.9688 Q1120.7969,1927.6875 1120.7969,1927.2344 Q1120.7969,1926.7813 1121.0938,1926.5156 Q1121.4063,1926.2344 1122.125,1926.2344 L1131.1094,1926.2344 L1131.1094,1929.2813 Q1131.1094,1930 1130.8281,1930.3125 Q1130.5625,1930.6094 1130.125,1930.6094 Q1129.6719,1930.6094 1129.3906,1930.3125 Q1129.1094,1930.0156 1129.1094,1929.2813 L1129.1094,1928.25 L1124.4531,1928.25 L1124.4531,1931.1406 L1126.2031,1931.1406 Q1126.2031,1930.3594 1126.3438,1930.125 Q1126.6563,1929.6563 1127.2031,1929.6563 Q1127.6563,1929.6563 1127.9219,1929.9688 Q1128.2031,1930.2656 1128.2031,1930.9844 L1128.2031,1933.2969 Q1128.2031,1933.9531 1128.0469,1934.1719 Q1127.7344,1934.625 1127.2031,1934.625 Q1126.6563,1934.625 1126.3438,1934.1563 Q1126.2031,1933.9219 1126.2031,1933.1406 L1124.4531,1933.1406 Z " fill="#000000"/><text fill="#000000" font-family="sans-serif" font-size="20" lengthAdjust="spacing" textLength="93" x="1145.5" y="1940.2617">OfferState</text><line style="stroke:#181818;stroke-width:0.5;" x1="1093.5" x2="1258.5" y1="1949.6563" y2="1949.6563"/><rect fill="none" height="6" style="stroke:#C82930;stroke-width:1.0;" width="6" x="1100.5" y="1964.7344"/><text fill="#000000" font-family="sans-serif" font-size="20" lengthAdjust="spacing" textLength="140" x="1113.5" y="1974.418">String Accepted</text><rect fill="none" height="6" style="stroke:#C82930;stroke-width:1.0;" width="6" x="1100.5" y="1989.8906"/><text fill="#000000" font-family="sans-serif" font-size="20" lengthAdjust="spacing" textLength="127" x="1113.5" y="1999.5742">String Pending</text><rect fill="none" height="6" style="stroke:#C82930;stroke-width:1.0;" width="6" x="1100.5" y="2015.0469"/><text fill="#000000" font-family="sans-serif" font-size="20" lengthAdjust="spacing" textLength="135" x="1113.5" y="2024.7305">String Rejected</text><line style="stroke:#181818;stroke-width:0.5;" x1="1093.5" x2="1258.5" y1="2033.125" y2="2033.125"/></g><!--class Adress--><g id="elem_Adress"><rect codeLine="49" fill="#F1F1F1" height="202.0938" id="Adress" rx="2.5" ry="2.5" style="stroke:#181818;stroke-width:0.5;" width="405" x="1516.5" y="2229"/><ellipse cx="1683.5" cy="2246.5781" fill="#ADD1B2" rx="12" ry="12" style="stroke:#181818;stroke-width:1.0;"/><path d="M1685.6406,2241.5 Q1685.8281,2241.25 1686.0469,2241.125 Q1686.2656,2240.9844 1686.5156,2240.9844 Q1686.9531,2240.9844 1687.2344,2241.2969 Q1687.5156,2241.5938 1687.5156,2242.3125 L1687.5156,2244.0156 Q1687.5156,2244.7344 1687.2344,2245.0469 Q1686.9531,2245.3594 1686.5156,2245.3594 Q1686.125,2245.3594 1685.875,2245.125 Q1685.625,2244.9063 1685.5156,2244.2969 Q1685.4531,2243.875 1685.2344,2243.6563 Q1684.8438,2243.2188 1684.125,2242.9531 Q1683.4063,2242.6875 1682.6875,2242.6875 Q1681.7813,2242.6875 1681.0313,2243.0781 Q1680.2813,2243.4688 1679.7031,2244.3594 Q1679.125,2245.2344 1679.125,2246.4375 L1679.125,2247.7344 Q1679.125,2249.1875 1680.1719,2250.1563 Q1681.2344,2251.125 1683.0938,2251.125 Q1684.2031,2251.125 1684.9844,2250.8125 Q1685.4219,2250.6406 1685.9375,2250.125 Q1686.25,2249.8125 1686.4219,2249.7188 Q1686.5938,2249.625 1686.8281,2249.625 Q1687.2188,2249.625 1687.5156,2249.9375 Q1687.8281,2250.2344 1687.8281,2250.6406 Q1687.8281,2251.0469 1687.4219,2251.5156 Q1686.8281,2252.2031 1685.8906,2252.5938 Q1684.625,2253.125 1683.1094,2253.125 Q1681.3281,2253.125 1679.9063,2252.3906 Q1678.75,2251.7969 1677.9375,2250.5313 Q1677.125,2249.2656 1677.125,2247.7813 L1677.125,2246.4219 Q1677.125,2244.8594 1677.8438,2243.5156 Q1678.5781,2242.1563 1679.8594,2241.4219 Q1681.1563,2240.6875 1682.6094,2240.6875 Q1683.4688,2240.6875 1684.2188,2240.8906 Q1684.9844,2241.0938 1685.6406,2241.5 Z " fill="#000000"/><text fill="#000000" font-family="sans-serif" font-size="20" lengthAdjust="spacing" textLength="62" x="1705.5" y="2254.7617">Adress</text><line style="stroke:#181818;stroke-width:0.5;" x1="1517.5" x2="1920.5" y1="2264.1563" y2="2264.1563"/><rect fill="none" height="6" style="stroke:#C82930;stroke-width:1.0;" width="6" x="1524.5" y="2279.2344"/><text fill="#000000" font-family="sans-serif" font-size="20" lengthAdjust="spacing" textLength="159" x="1537.5" y="2288.918">String streetName</text><rect fill="none" height="6" style="stroke:#C82930;stroke-width:1.0;" width="6" x="1524.5" y="2304.3906"/><text fill="#000000" font-family="sans-serif" font-size="20" lengthAdjust="spacing" textLength="97" x="1537.5" y="2314.0742">int zipCode</text><line style="stroke:#181818;stroke-width:0.5;" x1="1517.5" x2="1920.5" y1="2322.4688" y2="2322.4688"/><ellipse cx="1527.5" cy="2340.5469" fill="#84BE84" rx="3" ry="3" style="stroke:#038048;stroke-width:1.0;"/><text fill="#000000" font-family="sans-serif" font-size="20" lengthAdjust="spacing" textLength="76" x="1537.5" y="2347.2305">getCity()</text><ellipse cx="1527.5" cy="2365.7031" fill="#84BE84" rx="3" ry="3" style="stroke:#038048;stroke-width:1.0;"/><text fill="#000000" font-family="sans-serif" font-size="20" lengthAdjust="spacing" textLength="103" x="1537.5" y="2372.3867">getDistrict()</text><ellipse cx="1527.5" cy="2390.8594" fill="#84BE84" rx="3" ry="3" style="stroke:#038048;stroke-width:1.0;"/><text fill="#000000" font-family="sans-serif" font-size="20" lengthAdjust="spacing" textLength="89" x="1537.5" y="2397.543">getState()</text><ellipse cx="1527.5" cy="2416.0156" fill="#84BE84" rx="3" ry="3" style="stroke:#038048;stroke-width:1.0;"/><text fill="#000000" font-family="sans-serif" font-size="20" lengthAdjust="spacing" textLength="378" x="1537.5" y="2422.6992">Adress(state, district, city, street, zipCode)</text></g><!--class Residence--><g id="elem_Residence"><rect codeLine="58" fill="#F1F1F1" height="126.625" id="Residence" rx="2.5" ry="2.5" style="stroke:#181818;stroke-width:0.5;" width="273" x="2023.5" y="2492"/><ellipse cx="2109.5" cy="2509.5781" fill="#ADD1B2" rx="12" ry="12" style="stroke:#181818;stroke-width:1.0;"/><path d="M2111.6406,2504.5 Q2111.8281,2504.25 2112.0469,2504.125 Q2112.2656,2503.9844 2112.5156,2503.9844 Q2112.9531,2503.9844 2113.2344,2504.2969 Q2113.5156,2504.5938 2113.5156,2505.3125 L2113.5156,2507.0156 Q2113.5156,2507.7344 2113.2344,2508.0469 Q2112.9531,2508.3594 2112.5156,2508.3594 Q2112.125,2508.3594 2111.875,2508.125 Q2111.625,2507.9063 2111.5156,2507.2969 Q2111.4531,2506.875 2111.2344,2506.6563 Q2110.8438,2506.2188 2110.125,2505.9531 Q2109.4063,2505.6875 2108.6875,2505.6875 Q2107.7813,2505.6875 2107.0313,2506.0781 Q2106.2813,2506.4688 2105.7031,2507.3594 Q2105.125,2508.2344 2105.125,2509.4375 L2105.125,2510.7344 Q2105.125,2512.1875 2106.1719,2513.1563 Q2107.2344,2514.125 2109.0938,2514.125 Q2110.2031,2514.125 2110.9844,2513.8125 Q2111.4219,2513.6406 2111.9375,2513.125 Q2112.25,2512.8125 2112.4219,2512.7188 Q2112.5938,2512.625 2112.8281,2512.625 Q2113.2188,2512.625 2113.5156,2512.9375 Q2113.8281,2513.2344 2113.8281,2513.6406 Q2113.8281,2514.0469 2113.4219,2514.5156 Q2112.8281,2515.2031 2111.8906,2515.5938 Q2110.625,2516.125 2109.1094,2516.125 Q2107.3281,2516.125 2105.9063,2515.3906 Q2104.75,2514.7969 2103.9375,2513.5313 Q2103.125,2512.2656 2103.125,2510.7813 L2103.125,2509.4219 Q2103.125,2507.8594 2103.8438,2506.5156 Q2104.5781,2505.1563 2105.8594,2504.4219 Q2107.1563,2503.6875 2108.6094,2503.6875 Q2109.4688,2503.6875 2110.2188,2503.8906 Q2110.9844,2504.0938 2111.6406,2504.5 Z " fill="#000000"/><text fill="#000000" font-family="sans-serif" font-size="20" lengthAdjust="spacing" textLength="92" x="2131.5" y="2517.7617">Residence</text><line style="stroke:#181818;stroke-width:0.5;" x1="2024.5" x2="2295.5" y1="2527.1563" y2="2527.1563"/><rect fill="none" height="6" style="stroke:#C82930;stroke-width:1.0;" width="6" x="2031.5" y="2542.2344"/><text fill="#000000" font-family="sans-serif" font-size="20" lengthAdjust="spacing" textLength="198" x="2044.5" y="2551.918">int numberofBedrooms</text><rect fill="none" height="6" style="stroke:#C82930;stroke-width:1.0;" width="6" x="2031.5" y="2567.3906"/><text fill="#000000" font-family="sans-serif" font-size="20" lengthAdjust="spacing" textLength="203" x="2044.5" y="2577.0742">int numberofBathrooms</text><rect fill="none" height="6" style="stroke:#C82930;stroke-width:1.0;" width="6" x="2031.5" y="2592.5469"/><text fill="#000000" font-family="sans-serif" font-size="20" lengthAdjust="spacing" textLength="246" x="2044.5" y="2602.2305">int numberofParking Spaces</text><line style="stroke:#181818;stroke-width:0.5;" x1="2024.5" x2="2295.5" y1="2610.625" y2="2610.625"/></g><!--class House--><g id="elem_House"><rect codeLine="64" fill="#F1F1F1" height="101.4688" id="House" rx="2.5" ry="2.5" style="stroke:#181818;stroke-width:0.5;" width="204" x="1938" y="2706"/><ellipse cx="2008" cy="2723.5781" fill="#ADD1B2" rx="12" ry="12" style="stroke:#181818;stroke-width:1.0;"/><path d="M2010.1406,2718.5 Q2010.3281,2718.25 2010.5469,2718.125 Q2010.7656,2717.9844 2011.0156,2717.9844 Q2011.4531,2717.9844 2011.7344,2718.2969 Q2012.0156,2718.5938 2012.0156,2719.3125 L2012.0156,2721.0156 Q2012.0156,2721.7344 2011.7344,2722.0469 Q2011.4531,2722.3594 2011.0156,2722.3594 Q2010.625,2722.3594 2010.375,2722.125 Q2010.125,2721.9063 2010.0156,2721.2969 Q2009.9531,2720.875 2009.7344,2720.6563 Q2009.3438,2720.2188 2008.625,2719.9531 Q2007.9063,2719.6875 2007.1875,2719.6875 Q2006.2813,2719.6875 2005.5313,2720.0781 Q2004.7813,2720.4688 2004.2031,2721.3594 Q2003.625,2722.2344 2003.625,2723.4375 L2003.625,2724.7344 Q2003.625,2726.1875 2004.6719,2727.1563 Q2005.7344,2728.125 2007.5938,2728.125 Q2008.7031,2728.125 2009.4844,2727.8125 Q2009.9219,2727.6406 2010.4375,2727.125 Q2010.75,2726.8125 2010.9219,2726.7188 Q2011.0938,2726.625 2011.3281,2726.625 Q2011.7188,2726.625 2012.0156,2726.9375 Q2012.3281,2727.2344 2012.3281,2727.6406 Q2012.3281,2728.0469 2011.9219,2728.5156 Q2011.3281,2729.2031 2010.3906,2729.5938 Q2009.125,2730.125 2007.6094,2730.125 Q2005.8281,2730.125 2004.4063,2729.3906 Q2003.25,2728.7969 2002.4375,2727.5313 Q2001.625,2726.2656 2001.625,2724.7813 L2001.625,2723.4219 Q2001.625,2721.8594 2002.3438,2720.5156 Q2003.0781,2719.1563 2004.3594,2718.4219 Q2005.6563,2717.6875 2007.1094,2717.6875 Q2007.9688,2717.6875 2008.7188,2717.8906 Q2009.4844,2718.0938 2010.1406,2718.5 Z " fill="#000000"/><text fill="#000000" font-family="sans-serif" font-size="20" lengthAdjust="spacing" textLength="55" x="2030" y="2731.7617">House</text><line style="stroke:#181818;stroke-width:0.5;" x1="1939" x2="2141" y1="2741.1563" y2="2741.1563"/><rect fill="none" height="6" style="stroke:#C82930;stroke-width:1.0;" width="6" x="1946" y="2756.2344"/><text fill="#000000" font-family="sans-serif" font-size="20" lengthAdjust="spacing" textLength="143" x="1959" y="2765.918">String basement</text><rect fill="none" height="6" style="stroke:#C82930;stroke-width:1.0;" width="6" x="1946" y="2781.3906"/><text fill="#000000" font-family="sans-serif" font-size="20" lengthAdjust="spacing" textLength="177" x="1959" y="2791.0742">String inhabitableloft</text><line style="stroke:#181818;stroke-width:0.5;" x1="1939" x2="2141" y1="2799.4688" y2="2799.4688"/></g><!--class SunExposure--><g id="elem_SunExposure"><rect codeLine="69" fill="#F1F1F1" height="76.3125" id="SunExposure" rx="2.5" ry="2.5" style="stroke:#181818;stroke-width:0.5;" width="158" x="1961" y="2894"/><ellipse cx="1981.05" cy="2911.5781" fill="#ADD1B2" rx="12" ry="12" style="stroke:#181818;stroke-width:1.0;"/><path d="M1983.1906,2906.5 Q1983.3781,2906.25 1983.5969,2906.125 Q1983.8156,2905.9844 1984.0656,2905.9844 Q1984.5031,2905.9844 1984.7844,2906.2969 Q1985.0656,2906.5938 1985.0656,2907.3125 L1985.0656,2909.0156 Q1985.0656,2909.7344 1984.7844,2910.0469 Q1984.5031,2910.3594 1984.0656,2910.3594 Q1983.675,2910.3594 1983.425,2910.125 Q1983.175,2909.9063 1983.0656,2909.2969 Q1983.0031,2908.875 1982.7844,2908.6563 Q1982.3938,2908.2188 1981.675,2907.9531 Q1980.9563,2907.6875 1980.2375,2907.6875 Q1979.3313,2907.6875 1978.5813,2908.0781 Q1977.8313,2908.4688 1977.2531,2909.3594 Q1976.675,2910.2344 1976.675,2911.4375 L1976.675,2912.7344 Q1976.675,2914.1875 1977.7219,2915.1563 Q1978.7844,2916.125 1980.6438,2916.125 Q1981.7531,2916.125 1982.5344,2915.8125 Q1982.9719,2915.6406 1983.4875,2915.125 Q1983.8,2914.8125 1983.9719,2914.7188 Q1984.1438,2914.625 1984.3781,2914.625 Q1984.7688,2914.625 1985.0656,2914.9375 Q1985.3781,2915.2344 1985.3781,2915.6406 Q1985.3781,2916.0469 1984.9719,2916.5156 Q1984.3781,2917.2031 1983.4406,2917.5938 Q1982.175,2918.125 1980.6594,2918.125 Q1978.8781,2918.125 1977.4563,2917.3906 Q1976.3,2916.7969 1975.4875,2915.5313 Q1974.675,2914.2656 1974.675,2912.7813 L1974.675,2911.4219 Q1974.675,2909.8594 1975.3938,2908.5156 Q1976.1281,2907.1563 1977.4094,2906.4219 Q1978.7063,2905.6875 1980.1594,2905.6875 Q1981.0188,2905.6875 1981.7688,2905.8906 Q1982.5344,2906.0938 1983.1906,2906.5 Z " fill="#000000"/><text fill="#000000" font-family="sans-serif" font-size="20" lengthAdjust="spacing" textLength="115" x="1996.95" y="2919.7617">SunExposure</text><line style="stroke:#181818;stroke-width:0.5;" x1="1962" x2="2118" y1="2929.1563" y2="2929.1563"/><rect fill="none" height="6" style="stroke:#C82930;stroke-width:1.0;" width="6" x="1969" y="2944.2344"/><text fill="#000000" font-family="sans-serif" font-size="20" lengthAdjust="spacing" textLength="131" x="1982" y="2953.918">String direction</text><line style="stroke:#181818;stroke-width:0.5;" x1="1962" x2="2118" y1="2962.3125" y2="2962.3125"/></g><!--class AvailableEquipment--><g id="elem_AvailableEquipment"><rect codeLine="73" fill="#F1F1F1" height="76.3125" id="AvailableEquipment" rx="2.5" ry="2.5" style="stroke:#181818;stroke-width:0.5;" width="204" x="2177" y="2718.5"/><ellipse cx="2193" cy="2736.0781" fill="#ADD1B2" rx="12" ry="12" style="stroke:#181818;stroke-width:1.0;"/><path d="M2195.1406,2731 Q2195.3281,2730.75 2195.5469,2730.625 Q2195.7656,2730.4844 2196.0156,2730.4844 Q2196.4531,2730.4844 2196.7344,2730.7969 Q2197.0156,2731.0938 2197.0156,2731.8125 L2197.0156,2733.5156 Q2197.0156,2734.2344 2196.7344,2734.5469 Q2196.4531,2734.8594 2196.0156,2734.8594 Q2195.625,2734.8594 2195.375,2734.625 Q2195.125,2734.4063 2195.0156,2733.7969 Q2194.9531,2733.375 2194.7344,2733.1563 Q2194.3438,2732.7188 2193.625,2732.4531 Q2192.9063,2732.1875 2192.1875,2732.1875 Q2191.2813,2732.1875 2190.5313,2732.5781 Q2189.7813,2732.9688 2189.2031,2733.8594 Q2188.625,2734.7344 2188.625,2735.9375 L2188.625,2737.2344 Q2188.625,2738.6875 2189.6719,2739.6563 Q2190.7344,2740.625 2192.5938,2740.625 Q2193.7031,2740.625 2194.4844,2740.3125 Q2194.9219,2740.1406 2195.4375,2739.625 Q2195.75,2739.3125 2195.9219,2739.2188 Q2196.0938,2739.125 2196.3281,2739.125 Q2196.7188,2739.125 2197.0156,2739.4375 Q2197.3281,2739.7344 2197.3281,2740.1406 Q2197.3281,2740.5469 2196.9219,2741.0156 Q2196.3281,2741.7031 2195.3906,2742.0938 Q2194.125,2742.625 2192.6094,2742.625 Q2190.8281,2742.625 2189.4063,2741.8906 Q2188.25,2741.2969 2187.4375,2740.0313 Q2186.625,2738.7656 2186.625,2737.2813 L2186.625,2735.9219 Q2186.625,2734.3594 2187.3438,2733.0156 Q2188.0781,2731.6563 2189.3594,2730.9219 Q2190.6563,2730.1875 2192.1094,2730.1875 Q2192.9688,2730.1875 2193.7188,2730.3906 Q2194.4844,2730.5938 2195.1406,2731 Z " fill="#000000"/><text fill="#000000" font-family="sans-serif" font-size="20" lengthAdjust="spacing" textLength="170" x="2208" y="2744.2617">AvailableEquipment</text><line style="stroke:#181818;stroke-width:0.5;" x1="2178" x2="2380" y1="2753.6563" y2="2753.6563"/><rect fill="none" height="6" style="stroke:#C82930;stroke-width:1.0;" width="6" x="2185" y="2768.7344"/><text fill="#000000" font-family="sans-serif" font-size="20" lengthAdjust="spacing" textLength="147" x="2198" y="2778.418">String equipment</text><line style="stroke:#181818;stroke-width:0.5;" x1="2178" x2="2380" y1="2786.8125" y2="2786.8125"/></g><!--class Business--><g id="elem_Business"><rect codeLine="78" fill="#F1F1F1" height="76.3125" id="Business" rx="2.5" ry="2.5" style="stroke:#181818;stroke-width:0.5;" width="167" x="1438.5" y="1550"/><ellipse cx="1479.25" cy="1567.5781" fill="#ADD1B2" rx="12" ry="12" style="stroke:#181818;stroke-width:1.0;"/><path d="M1481.3906,1562.5 Q1481.5781,1562.25 1481.7969,1562.125 Q1482.0156,1561.9844 1482.2656,1561.9844 Q1482.7031,1561.9844 1482.9844,1562.2969 Q1483.2656,1562.5938 1483.2656,1563.3125 L1483.2656,1565.0156 Q1483.2656,1565.7344 1482.9844,1566.0469 Q1482.7031,1566.3594 1482.2656,1566.3594 Q1481.875,1566.3594 1481.625,1566.125 Q1481.375,1565.9063 1481.2656,1565.2969 Q1481.2031,1564.875 1480.9844,1564.6563 Q1480.5938,1564.2188 1479.875,1563.9531 Q1479.1563,1563.6875 1478.4375,1563.6875 Q1477.5313,1563.6875 1476.7813,1564.0781 Q1476.0313,1564.4688 1475.4531,1565.3594 Q1474.875,1566.2344 1474.875,1567.4375 L1474.875,1568.7344 Q1474.875,1570.1875 1475.9219,1571.1563 Q1476.9844,1572.125 1478.8438,1572.125 Q1479.9531,1572.125 1480.7344,1571.8125 Q1481.1719,1571.6406 1481.6875,1571.125 Q1482,1570.8125 1482.1719,1570.7188 Q1482.3438,1570.625 1482.5781,1570.625 Q1482.9688,1570.625 1483.2656,1570.9375 Q1483.5781,1571.2344 1483.5781,1571.6406 Q1483.5781,1572.0469 1483.1719,1572.5156 Q1482.5781,1573.2031 1481.6406,1573.5938 Q1480.375,1574.125 1478.8594,1574.125 Q1477.0781,1574.125 1475.6563,1573.3906 Q1474.5,1572.7969 1473.6875,1571.5313 Q1472.875,1570.2656 1472.875,1568.7813 L1472.875,1567.4219 Q1472.875,1565.8594 1473.5938,1564.5156 Q1474.3281,1563.1563 1475.6094,1562.4219 Q1476.9063,1561.6875 1478.3594,1561.6875 Q1479.2188,1561.6875 1479.9688,1561.8906 Q1480.7344,1562.0938 1481.3906,1562.5 Z " fill="#000000"/><text fill="#000000" font-family="sans-serif" font-size="20" lengthAdjust="spacing" textLength="78" x="1499.75" y="1575.7617">Business</text><line style="stroke:#181818;stroke-width:0.5;" x1="1439.5" x2="1604.5" y1="1585.1563" y2="1585.1563"/><rect fill="none" height="6" style="stroke:#C82930;stroke-width:1.0;" width="6" x="1446.5" y="1600.2344"/><text fill="#000000" font-family="sans-serif" font-size="20" lengthAdjust="spacing" textLength="140" x="1459.5" y="1609.918">String totalPrice</text><line style="stroke:#181818;stroke-width:0.5;" x1="1439.5" x2="1604.5" y1="1618.3125" y2="1618.3125"/></g><!--class District--><g id="elem_District"><rect codeLine="83" fill="#F1F1F1" height="151.7813" id="District" rx="2.5" ry="2.5" style="stroke:#181818;stroke-width:0.5;" width="193" x="962.5" y="2254"/><ellipse cx="1024" cy="2271.5781" fill="#ADD1B2" rx="12" ry="12" style="stroke:#181818;stroke-width:1.0;"/><path d="M1026.1406,2266.5 Q1026.3281,2266.25 1026.5469,2266.125 Q1026.7656,2265.9844 1027.0156,2265.9844 Q1027.4531,2265.9844 1027.7344,2266.2969 Q1028.0156,2266.5938 1028.0156,2267.3125 L1028.0156,2269.0156 Q1028.0156,2269.7344 1027.7344,2270.0469 Q1027.4531,2270.3594 1027.0156,2270.3594 Q1026.625,2270.3594 1026.375,2270.125 Q1026.125,2269.9063 1026.0156,2269.2969 Q1025.9531,2268.875 1025.7344,2268.6563 Q1025.3438,2268.2188 1024.625,2267.9531 Q1023.9063,2267.6875 1023.1875,2267.6875 Q1022.2813,2267.6875 1021.5313,2268.0781 Q1020.7813,2268.4688 1020.2031,2269.3594 Q1019.625,2270.2344 1019.625,2271.4375 L1019.625,2272.7344 Q1019.625,2274.1875 1020.6719,2275.1563 Q1021.7344,2276.125 1023.5938,2276.125 Q1024.7031,2276.125 1025.4844,2275.8125 Q1025.9219,2275.6406 1026.4375,2275.125 Q1026.75,2274.8125 1026.9219,2274.7188 Q1027.0938,2274.625 1027.3281,2274.625 Q1027.7188,2274.625 1028.0156,2274.9375 Q1028.3281,2275.2344 1028.3281,2275.6406 Q1028.3281,2276.0469 1027.9219,2276.5156 Q1027.3281,2277.2031 1026.3906,2277.5938 Q1025.125,2278.125 1023.6094,2278.125 Q1021.8281,2278.125 1020.4063,2277.3906 Q1019.25,2276.7969 1018.4375,2275.5313 Q1017.625,2274.2656 1017.625,2272.7813 L1017.625,2271.4219 Q1017.625,2269.8594 1018.3438,2268.5156 Q1019.0781,2267.1563 1020.3594,2266.4219 Q1021.6563,2265.6875 1023.1094,2265.6875 Q1023.9688,2265.6875 1024.7188,2265.8906 Q1025.4844,2266.0938 1026.1406,2266.5 Z " fill="#000000"/><text fill="#000000" font-family="sans-serif" font-size="20" lengthAdjust="spacing" textLength="61" x="1046" y="2279.7617">District</text><line style="stroke:#181818;stroke-width:0.5;" x1="963.5" x2="1154.5" y1="2289.1563" y2="2289.1563"/><rect fill="none" height="6" style="stroke:#C82930;stroke-width:1.0;" width="6" x="970.5" y="2304.2344"/><text fill="#000000" font-family="sans-serif" font-size="20" lengthAdjust="spacing" textLength="166" x="983.5" y="2313.918">String districtName</text><line style="stroke:#181818;stroke-width:0.5;" x1="963.5" x2="1154.5" y1="2322.3125" y2="2322.3125"/><ellipse cx="973.5" cy="2340.3906" fill="#84BE84" rx="3" ry="3" style="stroke:#038048;stroke-width:1.0;"/><text fill="#000000" font-family="sans-serif" font-size="20" lengthAdjust="spacing" textLength="154" x="983.5" y="2347.0742">getDistrictName()</text><ellipse cx="973.5" cy="2365.5469" fill="#84BE84" rx="3" ry="3" style="stroke:#038048;stroke-width:1.0;"/><text fill="#000000" font-family="sans-serif" font-size="20" lengthAdjust="spacing" textLength="91" x="983.5" y="2372.2305">getCities()</text><ellipse cx="973.5" cy="2390.7031" fill="#84BE84" rx="3" ry="3" style="stroke:#038048;stroke-width:1.0;"/><text fill="#000000" font-family="sans-serif" font-size="20" lengthAdjust="spacing" textLength="82" x="983.5" y="2397.3867">toString()</text></g><!--class City--><g id="elem_City"><rect codeLine="92" fill="#F1F1F1" height="101.4688" id="City" rx="2.5" ry="2.5" style="stroke:#181818;stroke-width:0.5;" width="154" x="718" y="2279.5"/><ellipse cx="773.5" cy="2297.0781" fill="#ADD1B2" rx="12" ry="12" style="stroke:#181818;stroke-width:1.0;"/><path d="M775.6406,2292 Q775.8281,2291.75 776.0469,2291.625 Q776.2656,2291.4844 776.5156,2291.4844 Q776.9531,2291.4844 777.2344,2291.7969 Q777.5156,2292.0938 777.5156,2292.8125 L777.5156,2294.5156 Q777.5156,2295.2344 777.2344,2295.5469 Q776.9531,2295.8594 776.5156,2295.8594 Q776.125,2295.8594 775.875,2295.625 Q775.625,2295.4063 775.5156,2294.7969 Q775.4531,2294.375 775.2344,2294.1563 Q774.8438,2293.7188 774.125,2293.4531 Q773.4063,2293.1875 772.6875,2293.1875 Q771.7813,2293.1875 771.0313,2293.5781 Q770.2813,2293.9688 769.7031,2294.8594 Q769.125,2295.7344 769.125,2296.9375 L769.125,2298.2344 Q769.125,2299.6875 770.1719,2300.6563 Q771.2344,2301.625 773.0938,2301.625 Q774.2031,2301.625 774.9844,2301.3125 Q775.4219,2301.1406 775.9375,2300.625 Q776.25,2300.3125 776.4219,2300.2188 Q776.5938,2300.125 776.8281,2300.125 Q777.2188,2300.125 777.5156,2300.4375 Q777.8281,2300.7344 777.8281,2301.1406 Q777.8281,2301.5469 777.4219,2302.0156 Q776.8281,2302.7031 775.8906,2303.0938 Q774.625,2303.625 773.1094,2303.625 Q771.3281,2303.625 769.9063,2302.8906 Q768.75,2302.2969 767.9375,2301.0313 Q767.125,2299.7656 767.125,2298.2813 L767.125,2296.9219 Q767.125,2295.3594 767.8438,2294.0156 Q768.5781,2292.6563 769.8594,2291.9219 Q771.1563,2291.1875 772.6094,2291.1875 Q773.4688,2291.1875 774.2188,2291.3906 Q774.9844,2291.5938 775.6406,2292 Z " fill="#000000"/><text fill="#000000" font-family="sans-serif" font-size="20" lengthAdjust="spacing" textLength="34" x="795.5" y="2305.2617">City</text><line style="stroke:#181818;stroke-width:0.5;" x1="719" x2="871" y1="2314.6563" y2="2314.6563"/><rect fill="none" height="6" style="stroke:#C82930;stroke-width:1.0;" width="6" x="726" y="2329.7344"/><text fill="#000000" font-family="sans-serif" font-size="20" lengthAdjust="spacing" textLength="87" x="739" y="2339.418">String city</text><line style="stroke:#181818;stroke-width:0.5;" x1="719" x2="871" y1="2347.8125" y2="2347.8125"/><ellipse cx="729" cy="2365.8906" fill="#84BE84" rx="3" ry="3" style="stroke:#038048;stroke-width:1.0;"/><text fill="#000000" font-family="sans-serif" font-size="20" lengthAdjust="spacing" textLength="127" x="739" y="2372.5742">getCityName()</text></g><!--class Comission--><g id="elem_Comission"><rect codeLine="99" fill="#F1F1F1" height="76.3125" id="Comission" rx="2.5" ry="2.5" style="stroke:#181818;stroke-width:0.5;" width="139" x="1928.5" y="1940"/><ellipse cx="1951.25" cy="1957.5781" fill="#ADD1B2" rx="12" ry="12" style="stroke:#181818;stroke-width:1.0;"/><path d="M1953.3906,1952.5 Q1953.5781,1952.25 1953.7969,1952.125 Q1954.0156,1951.9844 1954.2656,1951.9844 Q1954.7031,1951.9844 1954.9844,1952.2969 Q1955.2656,1952.5938 1955.2656,1953.3125 L1955.2656,1955.0156 Q1955.2656,1955.7344 1954.9844,1956.0469 Q1954.7031,1956.3594 1954.2656,1956.3594 Q1953.875,1956.3594 1953.625,1956.125 Q1953.375,1955.9063 1953.2656,1955.2969 Q1953.2031,1954.875 1952.9844,1954.6563 Q1952.5938,1954.2188 1951.875,1953.9531 Q1951.1563,1953.6875 1950.4375,1953.6875 Q1949.5313,1953.6875 1948.7813,1954.0781 Q1948.0313,1954.4688 1947.4531,1955.3594 Q1946.875,1956.2344 1946.875,1957.4375 L1946.875,1958.7344 Q1946.875,1960.1875 1947.9219,1961.1563 Q1948.9844,1962.125 1950.8438,1962.125 Q1951.9531,1962.125 1952.7344,1961.8125 Q1953.1719,1961.6406 1953.6875,1961.125 Q1954,1960.8125 1954.1719,1960.7188 Q1954.3438,1960.625 1954.5781,1960.625 Q1954.9688,1960.625 1955.2656,1960.9375 Q1955.5781,1961.2344 1955.5781,1961.6406 Q1955.5781,1962.0469 1955.1719,1962.5156 Q1954.5781,1963.2031 1953.6406,1963.5938 Q1952.375,1964.125 1950.8594,1964.125 Q1949.0781,1964.125 1947.6563,1963.3906 Q1946.5,1962.7969 1945.6875,1961.5313 Q1944.875,1960.2656 1944.875,1958.7813 L1944.875,1957.4219 Q1944.875,1955.8594 1945.5938,1954.5156 Q1946.3281,1953.1563 1947.6094,1952.4219 Q1948.9063,1951.6875 1950.3594,1951.6875 Q1951.2188,1951.6875 1951.9688,1951.8906 Q1952.7344,1952.0938 1953.3906,1952.5 Z " fill="#000000"/><text fill="#000000" font-family="sans-serif" font-size="20" lengthAdjust="spacing" textLength="90" x="1967.75" y="1965.7617">Comission</text><line style="stroke:#181818;stroke-width:0.5;" x1="1929.5" x2="2066.5" y1="1975.1563" y2="1975.1563"/><rect fill="none" height="6" style="stroke:#C82930;stroke-width:1.0;" width="6" x="1936.5" y="1990.2344"/><text fill="#000000" font-family="sans-serif" font-size="20" lengthAdjust="spacing" textLength="112" x="1949.5" y="1999.918">Double value</text><line style="stroke:#181818;stroke-width:0.5;" x1="1929.5" x2="2066.5" y1="2008.3125" y2="2008.3125"/></g><!--class Photos--><g id="elem_Photos"><rect codeLine="106" fill="#F1F1F1" height="76.3125" id="Photos" rx="2.5" ry="2.5" style="stroke:#181818;stroke-width:0.5;" width="114" x="2103" y="1940"/><ellipse cx="2127.55" cy="1957.5781" fill="#ADD1B2" rx="12" ry="12" style="stroke:#181818;stroke-width:1.0;"/><path d="M2129.6906,1952.5 Q2129.8781,1952.25 2130.0969,1952.125 Q2130.3156,1951.9844 2130.5656,1951.9844 Q2131.0031,1951.9844 2131.2844,1952.2969 Q2131.5656,1952.5938 2131.5656,1953.3125 L2131.5656,1955.0156 Q2131.5656,1955.7344 2131.2844,1956.0469 Q2131.0031,1956.3594 2130.5656,1956.3594 Q2130.175,1956.3594 2129.925,1956.125 Q2129.675,1955.9063 2129.5656,1955.2969 Q2129.5031,1954.875 2129.2844,1954.6563 Q2128.8938,1954.2188 2128.175,1953.9531 Q2127.4563,1953.6875 2126.7375,1953.6875 Q2125.8313,1953.6875 2125.0813,1954.0781 Q2124.3313,1954.4688 2123.7531,1955.3594 Q2123.175,1956.2344 2123.175,1957.4375 L2123.175,1958.7344 Q2123.175,1960.1875 2124.2219,1961.1563 Q2125.2844,1962.125 2127.1438,1962.125 Q2128.2531,1962.125 2129.0344,1961.8125 Q2129.4719,1961.6406 2129.9875,1961.125 Q2130.3,1960.8125 2130.4719,1960.7188 Q2130.6438,1960.625 2130.8781,1960.625 Q2131.2688,1960.625 2131.5656,1960.9375 Q2131.8781,1961.2344 2131.8781,1961.6406 Q2131.8781,1962.0469 2131.4719,1962.5156 Q2130.8781,1963.2031 2129.9406,1963.5938 Q2128.675,1964.125 2127.1594,1964.125 Q2125.3781,1964.125 2123.9563,1963.3906 Q2122.8,1962.7969 2121.9875,1961.5313 Q2121.175,1960.2656 2121.175,1958.7813 L2121.175,1957.4219 Q2121.175,1955.8594 2121.8938,1954.5156 Q2122.6281,1953.1563 2123.9094,1952.4219 Q2125.2063,1951.6875 2126.6594,1951.6875 Q2127.5188,1951.6875 2128.2688,1951.8906 Q2129.0344,1952.0938 2129.6906,1952.5 Z " fill="#000000"/><text fill="#000000" font-family="sans-serif" font-size="20" lengthAdjust="spacing" textLength="61" x="2144.45" y="1965.7617">Photos</text><line style="stroke:#181818;stroke-width:0.5;" x1="2104" x2="2216" y1="1975.1563" y2="1975.1563"/><rect fill="none" height="6" style="stroke:#C82930;stroke-width:1.0;" width="6" x="2111" y="1990.2344"/><text fill="#000000" font-family="sans-serif" font-size="20" lengthAdjust="spacing" textLength="87" x="2124" y="1999.918">String uRI</text><line style="stroke:#181818;stroke-width:0.5;" x1="2104" x2="2216" y1="2008.3125" y2="2008.3125"/></g><!--class Property--><g id="elem_Property"><rect codeLine="110" fill="#F1F1F1" height="126.625" id="Property" rx="2.5" ry="2.5" style="stroke:#181818;stroke-width:0.5;" width="302" x="2009" y="2266.5"/><ellipse cx="2117.5" cy="2284.0781" fill="#ADD1B2" rx="12" ry="12" style="stroke:#181818;stroke-width:1.0;"/><path d="M2119.6406,2279 Q2119.8281,2278.75 2120.0469,2278.625 Q2120.2656,2278.4844 2120.5156,2278.4844 Q2120.9531,2278.4844 2121.2344,2278.7969 Q2121.5156,2279.0938 2121.5156,2279.8125 L2121.5156,2281.5156 Q2121.5156,2282.2344 2121.2344,2282.5469 Q2120.9531,2282.8594 2120.5156,2282.8594 Q2120.125,2282.8594 2119.875,2282.625 Q2119.625,2282.4063 2119.5156,2281.7969 Q2119.4531,2281.375 2119.2344,2281.1563 Q2118.8438,2280.7188 2118.125,2280.4531 Q2117.4063,2280.1875 2116.6875,2280.1875 Q2115.7813,2280.1875 2115.0313,2280.5781 Q2114.2813,2280.9688 2113.7031,2281.8594 Q2113.125,2282.7344 2113.125,2283.9375 L2113.125,2285.2344 Q2113.125,2286.6875 2114.1719,2287.6563 Q2115.2344,2288.625 2117.0938,2288.625 Q2118.2031,2288.625 2118.9844,2288.3125 Q2119.4219,2288.1406 2119.9375,2287.625 Q2120.25,2287.3125 2120.4219,2287.2188 Q2120.5938,2287.125 2120.8281,2287.125 Q2121.2188,2287.125 2121.5156,2287.4375 Q2121.8281,2287.7344 2121.8281,2288.1406 Q2121.8281,2288.5469 2121.4219,2289.0156 Q2120.8281,2289.7031 2119.8906,2290.0938 Q2118.625,2290.625 2117.1094,2290.625 Q2115.3281,2290.625 2113.9063,2289.8906 Q2112.75,2289.2969 2111.9375,2288.0313 Q2111.125,2286.7656 2111.125,2285.2813 L2111.125,2283.9219 Q2111.125,2282.3594 2111.8438,2281.0156 Q2112.5781,2279.6563 2113.8594,2278.9219 Q2115.1563,2278.1875 2116.6094,2278.1875 Q2117.4688,2278.1875 2118.2188,2278.3906 Q2118.9844,2278.5938 2119.6406,2279 Z " fill="#000000"/><text fill="#000000" font-family="sans-serif" font-size="20" lengthAdjust="spacing" textLength="76" x="2139.5" y="2292.2617">Property</text><line style="stroke:#181818;stroke-width:0.5;" x1="2010" x2="2310" y1="2301.6563" y2="2301.6563"/><rect fill="none" height="6" style="stroke:#C82930;stroke-width:1.0;" width="6" x="2017" y="2316.7344"/><text fill="#000000" font-family="sans-serif" font-size="20" lengthAdjust="spacing" textLength="66" x="2030" y="2326.418">int area</text><rect fill="none" height="6" style="stroke:#C82930;stroke-width:1.0;" width="6" x="2017" y="2341.8906"/><text fill="#000000" font-family="sans-serif" font-size="20" lengthAdjust="spacing" textLength="126" x="2030" y="2351.5742">Photos photos</text><rect fill="none" height="6" style="stroke:#C82930;stroke-width:1.0;" width="6" x="2017" y="2367.0469"/><text fill="#000000" font-family="sans-serif" font-size="20" lengthAdjust="spacing" textLength="275" x="2030" y="2376.7305">int distance from the city center</text><line style="stroke:#181818;stroke-width:0.5;" x1="2010" x2="2310" y1="2385.125" y2="2385.125"/></g><!--class PublishedAnnouncement--><g id="elem_PublishedAnnouncement"><rect codeLine="116" fill="#F1F1F1" height="327.875" id="PublishedAnnouncement" rx="2.5" ry="2.5" style="stroke:#181818;stroke-width:0.5;" width="321" x="1328.5" y="1814"/><ellipse cx="1378.5" cy="1831.5781" fill="#ADD1B2" rx="12" ry="12" style="stroke:#181818;stroke-width:1.0;"/><path d="M1380.6406,1826.5 Q1380.8281,1826.25 1381.0469,1826.125 Q1381.2656,1825.9844 1381.5156,1825.9844 Q1381.9531,1825.9844 1382.2344,1826.2969 Q1382.5156,1826.5938 1382.5156,1827.3125 L1382.5156,1829.0156 Q1382.5156,1829.7344 1382.2344,1830.0469 Q1381.9531,1830.3594 1381.5156,1830.3594 Q1381.125,1830.3594 1380.875,1830.125 Q1380.625,1829.9063 1380.5156,1829.2969 Q1380.4531,1828.875 1380.2344,1828.6563 Q1379.8438,1828.2188 1379.125,1827.9531 Q1378.4063,1827.6875 1377.6875,1827.6875 Q1376.7813,1827.6875 1376.0313,1828.0781 Q1375.2813,1828.4688 1374.7031,1829.3594 Q1374.125,1830.2344 1374.125,1831.4375 L1374.125,1832.7344 Q1374.125,1834.1875 1375.1719,1835.1563 Q1376.2344,1836.125 1378.0938,1836.125 Q1379.2031,1836.125 1379.9844,1835.8125 Q1380.4219,1835.6406 1380.9375,1835.125 Q1381.25,1834.8125 1381.4219,1834.7188 Q1381.5938,1834.625 1381.8281,1834.625 Q1382.2188,1834.625 1382.5156,1834.9375 Q1382.8281,1835.2344 1382.8281,1835.6406 Q1382.8281,1836.0469 1382.4219,1836.5156 Q1381.8281,1837.2031 1380.8906,1837.5938 Q1379.625,1838.125 1378.1094,1838.125 Q1376.3281,1838.125 1374.9063,1837.3906 Q1373.75,1836.7969 1372.9375,1835.5313 Q1372.125,1834.2656 1372.125,1832.7813 L1372.125,1831.4219 Q1372.125,1829.8594 1372.8438,1828.5156 Q1373.5781,1827.1563 1374.8594,1826.4219 Q1376.1563,1825.6875 1377.6094,1825.6875 Q1378.4688,1825.6875 1379.2188,1825.8906 Q1379.9844,1826.0938 1380.6406,1826.5 Z " fill="#000000"/><text fill="#000000" font-family="sans-serif" font-size="20" lengthAdjust="spacing" textLength="212" x="1400.5" y="1839.7617">PublishedAnnouncement</text><line style="stroke:#181818;stroke-width:0.5;" x1="1329.5" x2="1648.5" y1="1849.1563" y2="1849.1563"/><rect fill="none" height="6" style="stroke:#C82930;stroke-width:1.0;" width="6" x="1336.5" y="1864.2344"/><text fill="#000000" font-family="sans-serif" font-size="20" lengthAdjust="spacing" textLength="93" x="1349.5" y="1873.918">Date date;</text><rect fill="none" height="6" style="stroke:#C82930;stroke-width:1.0;" width="6" x="1336.5" y="1889.3906"/><text fill="#000000" font-family="sans-serif" font-size="20" lengthAdjust="spacing" textLength="294" x="1349.5" y="1899.0742">TypeOfBusiness typeOfBusiness;</text><rect fill="none" height="6" style="stroke:#C82930;stroke-width:1.0;" width="6" x="1336.5" y="1914.5469"/><text fill="#000000" font-family="sans-serif" font-size="20" lengthAdjust="spacing" textLength="162" x="1349.5" y="1924.2305">Property property;</text><rect fill="none" height="6" style="stroke:#C82930;stroke-width:1.0;" width="6" x="1336.5" y="1939.7031"/><text fill="#000000" font-family="sans-serif" font-size="20" lengthAdjust="spacing" textLength="250" x="1349.5" y="1949.3867">PropertyType propertyType;</text><rect fill="none" height="6" style="stroke:#C82930;stroke-width:1.0;" width="6" x="1336.5" y="1964.8594"/><text fill="#000000" font-family="sans-serif" font-size="20" lengthAdjust="spacing" textLength="188" x="1349.5" y="1974.543">Comission comission;</text><rect fill="none" height="6" style="stroke:#C82930;stroke-width:1.0;" width="6" x="1336.5" y="1990.0156"/><text fill="#000000" font-family="sans-serif" font-size="20" lengthAdjust="spacing" textLength="166" x="1349.5" y="1999.6992">Business business;</text><rect fill="none" height="6" style="stroke:#C82930;stroke-width:1.0;" width="6" x="1336.5" y="2015.1719"/><text fill="#000000" font-family="sans-serif" font-size="20" lengthAdjust="spacing" textLength="199" x="1349.5" y="2024.8555">int durationOfContract;</text><rect fill="none" height="6" style="stroke:#C82930;stroke-width:1.0;" width="6" x="1336.5" y="2040.3281"/><text fill="#000000" font-family="sans-serif" font-size="20" lengthAdjust="spacing" textLength="148" x="1349.5" y="2050.0117">Employee agent;</text><rect fill="none" height="6" style="stroke:#C82930;stroke-width:1.0;" width="6" x="1336.5" y="2065.4844"/><text fill="#000000" font-family="sans-serif" font-size="20" lengthAdjust="spacing" textLength="106" x="1349.5" y="2075.168">Client client;</text><rect fill="none" height="6" style="stroke:#C82930;stroke-width:1.0;" width="6" x="1336.5" y="2090.6406"/><text fill="#000000" font-family="sans-serif" font-size="20" lengthAdjust="spacing" textLength="126" x="1349.5" y="2100.3242">int propertyID;</text><rect fill="none" height="6" style="stroke:#C82930;stroke-width:1.0;" width="6" x="1336.5" y="2115.7969"/><text fill="#000000" font-family="sans-serif" font-size="20" lengthAdjust="spacing" textLength="105" x="1349.5" y="2125.4805">Store store;</text><line style="stroke:#181818;stroke-width:0.5;" x1="1329.5" x2="1648.5" y1="2133.875" y2="2133.875"/></g><!--class AnnouncementState--><g id="elem_AnnouncementState"><rect codeLine="130" fill="#F1F1F1" height="101.4688" id="AnnouncementState" rx="2.5" ry="2.5" style="stroke:#181818;stroke-width:0.5;" width="209" x="1684.5" y="1927.5"/><ellipse cx="1700.5" cy="1945.0781" fill="#EB937F" rx="12" ry="12" style="stroke:#181818;stroke-width:1.0;"/><path d="M1698.4531,1946.1406 L1698.4531,1949.0781 L1703.5469,1949.0781 L1703.5469,1947.9844 Q1703.5469,1947.2656 1703.8281,1946.9688 Q1704.1094,1946.6563 1704.5625,1946.6563 Q1705,1946.6563 1705.2813,1946.9688 Q1705.5625,1947.2656 1705.5625,1947.9844 L1705.5625,1951.0781 L1696.125,1951.0781 Q1695.4063,1951.0781 1695.0938,1950.7969 Q1694.7969,1950.5156 1694.7969,1950.0781 Q1694.7969,1949.625 1695.1094,1949.3594 Q1695.4219,1949.0781 1696.125,1949.0781 L1696.4375,1949.0781 L1696.4375,1941.25 L1696.125,1941.25 Q1695.4063,1941.25 1695.0938,1940.9688 Q1694.7969,1940.6875 1694.7969,1940.2344 Q1694.7969,1939.7813 1695.0938,1939.5156 Q1695.4063,1939.2344 1696.125,1939.2344 L1705.1094,1939.2344 L1705.1094,1942.2813 Q1705.1094,1943 1704.8281,1943.3125 Q1704.5625,1943.6094 1704.125,1943.6094 Q1703.6719,1943.6094 1703.3906,1943.3125 Q1703.1094,1943.0156 1703.1094,1942.2813 L1703.1094,1941.25 L1698.4531,1941.25 L1698.4531,1944.1406 L1700.2031,1944.1406 Q1700.2031,1943.3594 1700.3438,1943.125 Q1700.6563,1942.6563 1701.2031,1942.6563 Q1701.6563,1942.6563 1701.9219,1942.9688 Q1702.2031,1943.2656 1702.2031,1943.9844 L1702.2031,1946.2969 Q1702.2031,1946.9531 1702.0469,1947.1719 Q1701.7344,1947.625 1701.2031,1947.625 Q1700.6563,1947.625 1700.3438,1947.1563 Q1700.2031,1946.9219 1700.2031,1946.1406 L1698.4531,1946.1406 Z " fill="#000000"/><text fill="#000000" font-family="sans-serif" font-size="20" lengthAdjust="spacing" textLength="175" x="1715.5" y="1953.2617">AnnouncementState</text><line style="stroke:#181818;stroke-width:0.5;" x1="1685.5" x2="1892.5" y1="1962.6563" y2="1962.6563"/><rect fill="none" height="6" style="stroke:#C82930;stroke-width:1.0;" width="6" x="1692.5" y="1977.7344"/><text fill="#000000" font-family="sans-serif" font-size="20" lengthAdjust="spacing" textLength="133" x="1705.5" y="1987.418">String available</text><rect fill="none" height="6" style="stroke:#C82930;stroke-width:1.0;" width="6" x="1692.5" y="2002.8906"/><text fill="#000000" font-family="sans-serif" font-size="20" lengthAdjust="spacing" textLength="93" x="1705.5" y="2012.5742">String sold</text><line style="stroke:#181818;stroke-width:0.5;" x1="1685.5" x2="1892.5" y1="2020.9688" y2="2020.9688"/></g><!--class State--><g id="elem_State"><rect codeLine="135" fill="#F1F1F1" height="151.7813" id="State" rx="2.5" ry="2.5" style="stroke:#181818;stroke-width:0.5;" width="179" x="1246.5" y="2254"/><ellipse cx="1308" cy="2271.5781" fill="#ADD1B2" rx="12" ry="12" style="stroke:#181818;stroke-width:1.0;"/><path d="M1310.1406,2266.5 Q1310.3281,2266.25 1310.5469,2266.125 Q1310.7656,2265.9844 1311.0156,2265.9844 Q1311.4531,2265.9844 1311.7344,2266.2969 Q1312.0156,2266.5938 1312.0156,2267.3125 L1312.0156,2269.0156 Q1312.0156,2269.7344 1311.7344,2270.0469 Q1311.4531,2270.3594 1311.0156,2270.3594 Q1310.625,2270.3594 1310.375,2270.125 Q1310.125,2269.9063 1310.0156,2269.2969 Q1309.9531,2268.875 1309.7344,2268.6563 Q1309.3438,2268.2188 1308.625,2267.9531 Q1307.9063,2267.6875 1307.1875,2267.6875 Q1306.2813,2267.6875 1305.5313,2268.0781 Q1304.7813,2268.4688 1304.2031,2269.3594 Q1303.625,2270.2344 1303.625,2271.4375 L1303.625,2272.7344 Q1303.625,2274.1875 1304.6719,2275.1563 Q1305.7344,2276.125 1307.5938,2276.125 Q1308.7031,2276.125 1309.4844,2275.8125 Q1309.9219,2275.6406 1310.4375,2275.125 Q1310.75,2274.8125 1310.9219,2274.7188 Q1311.0938,2274.625 1311.3281,2274.625 Q1311.7188,2274.625 1312.0156,2274.9375 Q1312.3281,2275.2344 1312.3281,2275.6406 Q1312.3281,2276.0469 1311.9219,2276.5156 Q1311.3281,2277.2031 1310.3906,2277.5938 Q1309.125,2278.125 1307.6094,2278.125 Q1305.8281,2278.125 1304.4063,2277.3906 Q1303.25,2276.7969 1302.4375,2275.5313 Q1301.625,2274.2656 1301.625,2272.7813 L1301.625,2271.4219 Q1301.625,2269.8594 1302.3438,2268.5156 Q1303.0781,2267.1563 1304.3594,2266.4219 Q1305.6563,2265.6875 1307.1094,2265.6875 Q1307.9688,2265.6875 1308.7188,2265.8906 Q1309.4844,2266.0938 1310.1406,2266.5 Z " fill="#000000"/><text fill="#000000" font-family="sans-serif" font-size="20" lengthAdjust="spacing" textLength="47" x="1330" y="2279.7617">State</text><line style="stroke:#181818;stroke-width:0.5;" x1="1247.5" x2="1424.5" y1="2289.1563" y2="2289.1563"/><rect fill="none" height="6" style="stroke:#C82930;stroke-width:1.0;" width="6" x="1254.5" y="2304.2344"/><text fill="#000000" font-family="sans-serif" font-size="20" lengthAdjust="spacing" textLength="152" x="1267.5" y="2313.918">String stateName</text><line style="stroke:#181818;stroke-width:0.5;" x1="1247.5" x2="1424.5" y1="2322.3125" y2="2322.3125"/><ellipse cx="1257.5" cy="2340.3906" fill="#84BE84" rx="3" ry="3" style="stroke:#038048;stroke-width:1.0;"/><text fill="#000000" font-family="sans-serif" font-size="20" lengthAdjust="spacing" textLength="89" x="1267.5" y="2347.0742">getState()</text><ellipse cx="1257.5" cy="2365.5469" fill="#84BE84" rx="3" ry="3" style="stroke:#038048;stroke-width:1.0;"/><text fill="#000000" font-family="sans-serif" font-size="20" lengthAdjust="spacing" textLength="113" x="1267.5" y="2372.2305">getDistricts()</text><ellipse cx="1257.5" cy="2390.7031" fill="#84BE84" rx="3" ry="3" style="stroke:#038048;stroke-width:1.0;"/><text fill="#000000" font-family="sans-serif" font-size="20" lengthAdjust="spacing" textLength="82" x="1267.5" y="2397.3867">toString()</text></g><!--class TypeOfProperty--><g id="elem_TypeOfProperty"><rect codeLine="146" fill="#F1F1F1" height="76.3125" id="TypeOfProperty" rx="2.5" ry="2.5" style="stroke:#181818;stroke-width:0.5;" width="176" x="2252" y="1940"/><ellipse cx="2268" cy="1957.5781" fill="#ADD1B2" rx="12" ry="12" style="stroke:#181818;stroke-width:1.0;"/><path d="M2270.1406,1952.5 Q2270.3281,1952.25 2270.5469,1952.125 Q2270.7656,1951.9844 2271.0156,1951.9844 Q2271.4531,1951.9844 2271.7344,1952.2969 Q2272.0156,1952.5938 2272.0156,1953.3125 L2272.0156,1955.0156 Q2272.0156,1955.7344 2271.7344,1956.0469 Q2271.4531,1956.3594 2271.0156,1956.3594 Q2270.625,1956.3594 2270.375,1956.125 Q2270.125,1955.9063 2270.0156,1955.2969 Q2269.9531,1954.875 2269.7344,1954.6563 Q2269.3438,1954.2188 2268.625,1953.9531 Q2267.9063,1953.6875 2267.1875,1953.6875 Q2266.2813,1953.6875 2265.5313,1954.0781 Q2264.7813,1954.4688 2264.2031,1955.3594 Q2263.625,1956.2344 2263.625,1957.4375 L2263.625,1958.7344 Q2263.625,1960.1875 2264.6719,1961.1563 Q2265.7344,1962.125 2267.5938,1962.125 Q2268.7031,1962.125 2269.4844,1961.8125 Q2269.9219,1961.6406 2270.4375,1961.125 Q2270.75,1960.8125 2270.9219,1960.7188 Q2271.0938,1960.625 2271.3281,1960.625 Q2271.7188,1960.625 2272.0156,1960.9375 Q2272.3281,1961.2344 2272.3281,1961.6406 Q2272.3281,1962.0469 2271.9219,1962.5156 Q2271.3281,1963.2031 2270.3906,1963.5938 Q2269.125,1964.125 2267.6094,1964.125 Q2265.8281,1964.125 2264.4063,1963.3906 Q2263.25,1962.7969 2262.4375,1961.5313 Q2261.625,1960.2656 2261.625,1958.7813 L2261.625,1957.4219 Q2261.625,1955.8594 2262.3438,1954.5156 Q2263.0781,1953.1563 2264.3594,1952.4219 Q2265.6563,1951.6875 2267.1094,1951.6875 Q2267.9688,1951.6875 2268.7188,1951.8906 Q2269.4844,1952.0938 2270.1406,1952.5 Z " fill="#000000"/><text fill="#000000" font-family="sans-serif" font-size="20" lengthAdjust="spacing" textLength="142" x="2283" y="1965.7617">TypeOfProperty</text><line style="stroke:#181818;stroke-width:0.5;" x1="2253" x2="2427" y1="1975.1563" y2="1975.1563"/><rect fill="none" height="6" style="stroke:#C82930;stroke-width:1.0;" width="6" x="2260" y="1990.2344"/><text fill="#000000" font-family="sans-serif" font-size="20" lengthAdjust="spacing" textLength="95" x="2273" y="1999.918">String type</text><line style="stroke:#181818;stroke-width:0.5;" x1="2253" x2="2427" y1="2008.3125" y2="2008.3125"/></g><!--class OfferMapper--><g id="elem_OfferMapper"><rect codeLine="150" fill="#F1F1F1" height="101.4688" id="OfferMapper" rx="2.5" ry="2.5" style="stroke:#181818;stroke-width:0.5;" width="188" x="657" y="573"/><ellipse cx="691" cy="590.5781" fill="#ADD1B2" rx="12" ry="12" style="stroke:#181818;stroke-width:1.0;"/><path d="M693.1406,585.5 Q693.3281,585.25 693.5469,585.125 Q693.7656,584.9844 694.0156,584.9844 Q694.4531,584.9844 694.7344,585.2969 Q695.0156,585.5938 695.0156,586.3125 L695.0156,588.0156 Q695.0156,588.7344 694.7344,589.0469 Q694.4531,589.3594 694.0156,589.3594 Q693.625,589.3594 693.375,589.125 Q693.125,588.9063 693.0156,588.2969 Q692.9531,587.875 692.7344,587.6563 Q692.3438,587.2188 691.625,586.9531 Q690.9063,586.6875 690.1875,586.6875 Q689.2813,586.6875 688.5313,587.0781 Q687.7813,587.4688 687.2031,588.3594 Q686.625,589.2344 686.625,590.4375 L686.625,591.7344 Q686.625,593.1875 687.6719,594.1563 Q688.7344,595.125 690.5938,595.125 Q691.7031,595.125 692.4844,594.8125 Q692.9219,594.6406 693.4375,594.125 Q693.75,593.8125 693.9219,593.7188 Q694.0938,593.625 694.3281,593.625 Q694.7188,593.625 695.0156,593.9375 Q695.3281,594.2344 695.3281,594.6406 Q695.3281,595.0469 694.9219,595.5156 Q694.3281,596.2031 693.3906,596.5938 Q692.125,597.125 690.6094,597.125 Q688.8281,597.125 687.4063,596.3906 Q686.25,595.7969 685.4375,594.5313 Q684.625,593.2656 684.625,591.7813 L684.625,590.4219 Q684.625,588.8594 685.3438,587.5156 Q686.0781,586.1563 687.3594,585.4219 Q688.6563,584.6875 690.1094,584.6875 Q690.9688,584.6875 691.7188,584.8906 Q692.4844,585.0938 693.1406,585.5 Z " fill="#000000"/><text fill="#000000" font-family="sans-serif" font-size="20" lengthAdjust="spacing" textLength="114" x="710" y="598.7617">OfferMapper</text><line style="stroke:#181818;stroke-width:0.5;" x1="658" x2="844" y1="608.1563" y2="608.1563"/><line style="stroke:#181818;stroke-width:0.5;" x1="658" x2="844" y1="616.1563" y2="616.1563"/><ellipse cx="668" cy="634.2344" fill="#84BE84" rx="3" ry="3" style="stroke:#038048;stroke-width:1.0;"/><text fill="#000000" font-family="sans-serif" font-size="20" lengthAdjust="spacing" textLength="134" x="678" y="640.918">toDto(offerList)</text><ellipse cx="668" cy="659.3906" fill="#84BE84" rx="3" ry="3" style="stroke:#038048;stroke-width:1.0;"/><text fill="#000000" font-family="sans-serif" font-size="20" lengthAdjust="spacing" textLength="161" x="678" y="666.0742">toDtoObject(offer)</text></g><!--class OfferRepository--><g id="elem_OfferRepository"><rect codeLine="155" fill="#F1F1F1" height="76.3125" id="OfferRepository" rx="2.5" ry="2.5" style="stroke:#181818;stroke-width:0.5;" width="383" x="984.5" y="585.5"/><ellipse cx="1101" cy="603.0781" fill="#ADD1B2" rx="12" ry="12" style="stroke:#181818;stroke-width:1.0;"/><path d="M1103.1406,598 Q1103.3281,597.75 1103.5469,597.625 Q1103.7656,597.4844 1104.0156,597.4844 Q1104.4531,597.4844 1104.7344,597.7969 Q1105.0156,598.0938 1105.0156,598.8125 L1105.0156,600.5156 Q1105.0156,601.2344 1104.7344,601.5469 Q1104.4531,601.8594 1104.0156,601.8594 Q1103.625,601.8594 1103.375,601.625 Q1103.125,601.4063 1103.0156,600.7969 Q1102.9531,600.375 1102.7344,600.1563 Q1102.3438,599.7188 1101.625,599.4531 Q1100.9063,599.1875 1100.1875,599.1875 Q1099.2813,599.1875 1098.5313,599.5781 Q1097.7813,599.9688 1097.2031,600.8594 Q1096.625,601.7344 1096.625,602.9375 L1096.625,604.2344 Q1096.625,605.6875 1097.6719,606.6563 Q1098.7344,607.625 1100.5938,607.625 Q1101.7031,607.625 1102.4844,607.3125 Q1102.9219,607.1406 1103.4375,606.625 Q1103.75,606.3125 1103.9219,606.2188 Q1104.0938,606.125 1104.3281,606.125 Q1104.7188,606.125 1105.0156,606.4375 Q1105.3281,606.7344 1105.3281,607.1406 Q1105.3281,607.5469 1104.9219,608.0156 Q1104.3281,608.7031 1103.3906,609.0938 Q1102.125,609.625 1100.6094,609.625 Q1098.8281,609.625 1097.4063,608.8906 Q1096.25,608.2969 1095.4375,607.0313 Q1094.625,605.7656 1094.625,604.2813 L1094.625,602.9219 Q1094.625,601.3594 1095.3438,600.0156 Q1096.0781,598.6563 1097.3594,597.9219 Q1098.6563,597.1875 1100.1094,597.1875 Q1100.9688,597.1875 1101.7188,597.3906 Q1102.4844,597.5938 1103.1406,598 Z " fill="#000000"/><text fill="#000000" font-family="sans-serif" font-size="20" lengthAdjust="spacing" textLength="141" x="1123" y="611.2617">OfferRepository</text><line style="stroke:#181818;stroke-width:0.5;" x1="985.5" x2="1366.5" y1="620.6563" y2="620.6563"/><line style="stroke:#181818;stroke-width:0.5;" x1="985.5" x2="1366.5" y1="628.6563" y2="628.6563"/><ellipse cx="995.5" cy="646.7344" fill="#84BE84" rx="3" ry="3" style="stroke:#038048;stroke-width:1.0;"/><text fill="#000000" font-family="sans-serif" font-size="20" lengthAdjust="spacing" textLength="356" x="1005.5" y="653.418">getOrganizationByEmployeeEmail(email)</text></g><!--class Repositories--><g id="elem_Repositories"><rect codeLine="159" fill="#F1F1F1" height="478.8125" id="Repositories" rx="2.5" ry="2.5" style="stroke:#181818;stroke-width:0.5;" width="376" x="1092" y="7"/><ellipse cx="1220.5" cy="24.5781" fill="#ADD1B2" rx="12" ry="12" style="stroke:#181818;stroke-width:1.0;"/><path d="M1222.6406,19.5 Q1222.8281,19.25 1223.0469,19.125 Q1223.2656,18.9844 1223.5156,18.9844 Q1223.9531,18.9844 1224.2344,19.2969 Q1224.5156,19.5938 1224.5156,20.3125 L1224.5156,22.0156 Q1224.5156,22.7344 1224.2344,23.0469 Q1223.9531,23.3594 1223.5156,23.3594 Q1223.125,23.3594 1222.875,23.125 Q1222.625,22.9063 1222.5156,22.2969 Q1222.4531,21.875 1222.2344,21.6563 Q1221.8438,21.2188 1221.125,20.9531 Q1220.4063,20.6875 1219.6875,20.6875 Q1218.7813,20.6875 1218.0313,21.0781 Q1217.2813,21.4688 1216.7031,22.3594 Q1216.125,23.2344 1216.125,24.4375 L1216.125,25.7344 Q1216.125,27.1875 1217.1719,28.1563 Q1218.2344,29.125 1220.0938,29.125 Q1221.2031,29.125 1221.9844,28.8125 Q1222.4219,28.6406 1222.9375,28.125 Q1223.25,27.8125 1223.4219,27.7188 Q1223.5938,27.625 1223.8281,27.625 Q1224.2188,27.625 1224.5156,27.9375 Q1224.8281,28.2344 1224.8281,28.6406 Q1224.8281,29.0469 1224.4219,29.5156 Q1223.8281,30.2031 1222.8906,30.5938 Q1221.625,31.125 1220.1094,31.125 Q1218.3281,31.125 1216.9063,30.3906 Q1215.75,29.7969 1214.9375,28.5313 Q1214.125,27.2656 1214.125,25.7813 L1214.125,24.4219 Q1214.125,22.8594 1214.8438,21.5156 Q1215.5781,20.1563 1216.8594,19.4219 Q1218.1563,18.6875 1219.6094,18.6875 Q1220.4688,18.6875 1221.2188,18.8906 Q1221.9844,19.0938 1222.6406,19.5 Z " fill="#000000"/><text fill="#000000" font-family="sans-serif" font-size="20" lengthAdjust="spacing" textLength="110" x="1242.5" y="32.7617">Repositories</text><line style="stroke:#181818;stroke-width:0.5;" x1="1093" x2="1467" y1="42.1563" y2="42.1563"/><line style="stroke:#181818;stroke-width:0.5;" x1="1093" x2="1467" y1="50.1563" y2="50.1563"/><rect fill="#F24D5C" height="6" style="stroke:#C82930;stroke-width:1.0;" width="6" x="1100" y="65.2344"/><text fill="#000000" font-family="sans-serif" font-size="20" lengthAdjust="spacing" textLength="124" x="1113" y="74.918">Repositories()</text><ellipse cx="1103" cy="93.3906" fill="#84BE84" rx="3" ry="3" style="stroke:#038048;stroke-width:1.0;"/><text fill="#000000" font-family="sans-serif" font-size="20" lengthAdjust="spacing" textLength="232" x="1113" y="100.0742">getInstance():Repositories</text><ellipse cx="1103" cy="118.5469" fill="#84BE84" rx="3" ry="3" style="stroke:#038048;stroke-width:1.0;"/><text fill="#000000" font-family="sans-serif" font-size="20" lengthAdjust="spacing" textLength="224" x="1113" y="125.2305">getEmployeeRepository()</text><ellipse cx="1103" cy="143.7031" fill="#84BE84" rx="3" ry="3" style="stroke:#038048;stroke-width:1.0;"/><text fill="#000000" font-family="sans-serif" font-size="20" lengthAdjust="spacing" textLength="227" x="1113" y="150.3867">getComissionRepository()</text><ellipse cx="1103" cy="168.8594" fill="#84BE84" rx="3" ry="3" style="stroke:#038048;stroke-width:1.0;"/><text fill="#000000" font-family="sans-serif" font-size="20" lengthAdjust="spacing" textLength="349" x="1113" y="175.543">getPublishedAnnouncementRepository()</text><ellipse cx="1103" cy="194.0156" fill="#84BE84" rx="3" ry="3" style="stroke:#038048;stroke-width:1.0;"/><text fill="#000000" font-family="sans-serif" font-size="20" lengthAdjust="spacing" textLength="259" x="1113" y="200.6992">getAuthenticationRepository()</text><ellipse cx="1103" cy="219.1719" fill="#84BE84" rx="3" ry="3" style="stroke:#038048;stroke-width:1.0;"/><text fill="#000000" font-family="sans-serif" font-size="20" lengthAdjust="spacing" textLength="338" x="1113" y="225.8555">getAnnouncementRequestRepository()</text><ellipse cx="1103" cy="244.3281" fill="#84BE84" rx="3" ry="3" style="stroke:#038048;stroke-width:1.0;"/><text fill="#000000" font-family="sans-serif" font-size="20" lengthAdjust="spacing" textLength="185" x="1113" y="251.0117">getStoreRepository()</text><ellipse cx="1103" cy="269.4844" fill="#84BE84" rx="3" ry="3" style="stroke:#038048;stroke-width:1.0;"/><text fill="#000000" font-family="sans-serif" font-size="20" lengthAdjust="spacing" textLength="177" x="1113" y="276.168">getRoleRepository()</text><ellipse cx="1103" cy="294.6406" fill="#84BE84" rx="3" ry="3" style="stroke:#038048;stroke-width:1.0;"/><text fill="#000000" font-family="sans-serif" font-size="20" lengthAdjust="spacing" textLength="184" x="1113" y="301.3242">getStateRepository()</text><ellipse cx="1103" cy="319.7969" fill="#84BE84" rx="3" ry="3" style="stroke:#038048;stroke-width:1.0;"/><text fill="#000000" font-family="sans-serif" font-size="20" lengthAdjust="spacing" textLength="186" x="1113" y="326.4805">getClientRepository()</text><ellipse cx="1103" cy="344.9531" fill="#84BE84" rx="3" ry="3" style="stroke:#038048;stroke-width:1.0;"/><text fill="#000000" font-family="sans-serif" font-size="20" lengthAdjust="spacing" textLength="257" x="1113" y="351.6367">getPropertyTypeRepository()</text><ellipse cx="1103" cy="370.1094" fill="#84BE84" rx="3" ry="3" style="stroke:#038048;stroke-width:1.0;"/><text fill="#000000" font-family="sans-serif" font-size="20" lengthAdjust="spacing" textLength="281" x="1113" y="376.793">getTypeOfBusinessRepository()</text><ellipse cx="1103" cy="395.2656" fill="#84BE84" rx="3" ry="3" style="stroke:#038048;stroke-width:1.0;"/><text fill="#000000" font-family="sans-serif" font-size="20" lengthAdjust="spacing" textLength="218" x="1113" y="401.9492">getMessageRepository()</text><ellipse cx="1103" cy="420.4219" fill="#84BE84" rx="3" ry="3" style="stroke:#038048;stroke-width:1.0;"/><text fill="#000000" font-family="sans-serif" font-size="20" lengthAdjust="spacing" textLength="183" x="1113" y="427.1055">getOfferRepository()</text><ellipse cx="1103" cy="445.5781" fill="#84BE84" rx="3" ry="3" style="stroke:#038048;stroke-width:1.0;"/><text fill="#000000" font-family="sans-serif" font-size="20" lengthAdjust="spacing" textLength="85" x="1113" y="452.2617">serialize()</text><ellipse cx="1103" cy="470.7344" fill="#84BE84" rx="3" ry="3" style="stroke:#038048;stroke-width:1.0;"/><text fill="#000000" font-family="sans-serif" font-size="20" lengthAdjust="spacing" textLength="107" x="1113" y="477.418">deserialize()</text></g><!--class ListDealsController--><g id="elem_ListDealsController"><rect codeLine="179" fill="#F1F1F1" height="327.875" id="ListDealsController" rx="2.5" ry="2.5" style="stroke:#181818;stroke-width:0.5;" width="403" x="549.5" y="82.5"/><ellipse cx="663.5" cy="100.0781" fill="#ADD1B2" rx="12" ry="12" style="stroke:#181818;stroke-width:1.0;"/><path d="M665.6406,95 Q665.8281,94.75 666.0469,94.625 Q666.2656,94.4844 666.5156,94.4844 Q666.9531,94.4844 667.2344,94.7969 Q667.5156,95.0938 667.5156,95.8125 L667.5156,97.5156 Q667.5156,98.2344 667.2344,98.5469 Q666.9531,98.8594 666.5156,98.8594 Q666.125,98.8594 665.875,98.625 Q665.625,98.4063 665.5156,97.7969 Q665.4531,97.375 665.2344,97.1563 Q664.8438,96.7188 664.125,96.4531 Q663.4063,96.1875 662.6875,96.1875 Q661.7813,96.1875 661.0313,96.5781 Q660.2813,96.9688 659.7031,97.8594 Q659.125,98.7344 659.125,99.9375 L659.125,101.2344 Q659.125,102.6875 660.1719,103.6563 Q661.2344,104.625 663.0938,104.625 Q664.2031,104.625 664.9844,104.3125 Q665.4219,104.1406 665.9375,103.625 Q666.25,103.3125 666.4219,103.2188 Q666.5938,103.125 666.8281,103.125 Q667.2188,103.125 667.5156,103.4375 Q667.8281,103.7344 667.8281,104.1406 Q667.8281,104.5469 667.4219,105.0156 Q666.8281,105.7031 665.8906,106.0938 Q664.625,106.625 663.1094,106.625 Q661.3281,106.625 659.9063,105.8906 Q658.75,105.2969 657.9375,104.0313 Q657.125,102.7656 657.125,101.2813 L657.125,99.9219 Q657.125,98.3594 657.8438,97.0156 Q658.5781,95.6563 659.8594,94.9219 Q661.1563,94.1875 662.6094,94.1875 Q663.4688,94.1875 664.2188,94.3906 Q664.9844,94.5938 665.6406,95 Z " fill="#000000"/><text fill="#000000" font-family="sans-serif" font-size="20" lengthAdjust="spacing" textLength="166" x="685.5" y="108.2617">ListDealsController</text><line style="stroke:#181818;stroke-width:0.5;" x1="550.5" x2="951.5" y1="117.6563" y2="117.6563"/><line style="stroke:#181818;stroke-width:0.5;" x1="550.5" x2="951.5" y1="125.6563" y2="125.6563"/><ellipse cx="560.5" cy="143.7344" fill="#84BE84" rx="3" ry="3" style="stroke:#038048;stroke-width:1.0;"/><text fill="#000000" font-family="sans-serif" font-size="20" lengthAdjust="spacing" textLength="316" x="570.5" y="150.418">ListDealsController(offerRepository)</text><ellipse cx="560.5" cy="168.8906" fill="#84BE84" rx="3" ry="3" style="stroke:#038048;stroke-width:1.0;"/><text fill="#000000" font-family="sans-serif" font-size="20" lengthAdjust="spacing" textLength="344" x="570.5" y="175.5742">getDealsByAscendingAreaBubbleSort()</text><ellipse cx="560.5" cy="194.0469" fill="#84BE84" rx="3" ry="3" style="stroke:#038048;stroke-width:1.0;"/><text fill="#000000" font-family="sans-serif" font-size="20" lengthAdjust="spacing" textLength="356" x="570.5" y="200.7305">getDealsByDescendingAreaBubbleSort()</text><ellipse cx="560.5" cy="219.2031" fill="#84BE84" rx="3" ry="3" style="stroke:#038048;stroke-width:1.0;"/><text fill="#000000" font-family="sans-serif" font-size="20" lengthAdjust="spacing" textLength="364" x="570.5" y="225.8867">getDealsByAscendingAreaSortSelection()</text><ellipse cx="560.5" cy="244.3594" fill="#84BE84" rx="3" ry="3" style="stroke:#038048;stroke-width:1.0;"/><text fill="#000000" font-family="sans-serif" font-size="20" lengthAdjust="spacing" textLength="376" x="570.5" y="251.043">getDealsByDescendingAreaSortSelection()</text><ellipse cx="560.5" cy="269.5156" fill="#84BE84" rx="3" ry="3" style="stroke:#038048;stroke-width:1.0;"/><text fill="#000000" font-family="sans-serif" font-size="20" lengthAdjust="spacing" textLength="303" x="570.5" y="276.1992">toDtoDescendingAreaBubbleSort()</text><ellipse cx="560.5" cy="294.6719" fill="#84BE84" rx="3" ry="3" style="stroke:#038048;stroke-width:1.0;"/><text fill="#000000" font-family="sans-serif" font-size="20" lengthAdjust="spacing" textLength="291" x="570.5" y="301.3555">toDtoAscendingAreaBubbleSort()</text><ellipse cx="560.5" cy="319.8281" fill="#84BE84" rx="3" ry="3" style="stroke:#038048;stroke-width:1.0;"/><text fill="#000000" font-family="sans-serif" font-size="20" lengthAdjust="spacing" textLength="323" x="570.5" y="326.5117">toDtoDescendingAreaSortSelection()</text><ellipse cx="560.5" cy="344.9844" fill="#84BE84" rx="3" ry="3" style="stroke:#038048;stroke-width:1.0;"/><text fill="#000000" font-family="sans-serif" font-size="20" lengthAdjust="spacing" textLength="311" x="570.5" y="351.668">toDtoAscendingAreaSortSelection()</text><ellipse cx="560.5" cy="370.1406" fill="#84BE84" rx="3" ry="3" style="stroke:#038048;stroke-width:1.0;"/><text fill="#000000" font-family="sans-serif" font-size="20" lengthAdjust="spacing" textLength="224" x="570.5" y="376.8242">toDtoOffersMostRecent()</text><rect fill="#F24D5C" height="6" style="stroke:#C82930;stroke-width:1.0;" width="6" x="557.5" y="392.2969"/><text fill="#000000" font-family="sans-serif" font-size="20" lengthAdjust="spacing" textLength="183" x="570.5" y="401.9805">getOfferRepository()</text></g><!--class ListDealsUI--><g id="elem_ListDealsUI"><rect codeLine="193" fill="#F1F1F1" height="51.1563" id="ListDealsUI" rx="2.5" ry="2.5" style="stroke:#181818;stroke-width:0.5;" width="134" x="380" y="221"/><ellipse cx="396" cy="238.5781" fill="#ADD1B2" rx="12" ry="12" style="stroke:#181818;stroke-width:1.0;"/><path d="M398.1406,233.5 Q398.3281,233.25 398.5469,233.125 Q398.7656,232.9844 399.0156,232.9844 Q399.4531,232.9844 399.7344,233.2969 Q400.0156,233.5938 400.0156,234.3125 L400.0156,236.0156 Q400.0156,236.7344 399.7344,237.0469 Q399.4531,237.3594 399.0156,237.3594 Q398.625,237.3594 398.375,237.125 Q398.125,236.9063 398.0156,236.2969 Q397.9531,235.875 397.7344,235.6563 Q397.3438,235.2188 396.625,234.9531 Q395.9063,234.6875 395.1875,234.6875 Q394.2813,234.6875 393.5313,235.0781 Q392.7813,235.4688 392.2031,236.3594 Q391.625,237.2344 391.625,238.4375 L391.625,239.7344 Q391.625,241.1875 392.6719,242.1563 Q393.7344,243.125 395.5938,243.125 Q396.7031,243.125 397.4844,242.8125 Q397.9219,242.6406 398.4375,242.125 Q398.75,241.8125 398.9219,241.7188 Q399.0938,241.625 399.3281,241.625 Q399.7188,241.625 400.0156,241.9375 Q400.3281,242.2344 400.3281,242.6406 Q400.3281,243.0469 399.9219,243.5156 Q399.3281,244.2031 398.3906,244.5938 Q397.125,245.125 395.6094,245.125 Q393.8281,245.125 392.4063,244.3906 Q391.25,243.7969 390.4375,242.5313 Q389.625,241.2656 389.625,239.7813 L389.625,238.4219 Q389.625,236.8594 390.3438,235.5156 Q391.0781,234.1563 392.3594,233.4219 Q393.6563,232.6875 395.1094,232.6875 Q395.9688,232.6875 396.7188,232.8906 Q397.4844,233.0938 398.1406,233.5 Z " fill="#000000"/><text fill="#000000" font-family="sans-serif" font-size="20" lengthAdjust="spacing" textLength="100" x="411" y="246.7617">ListDealsUI</text><line style="stroke:#181818;stroke-width:0.5;" x1="381" x2="513" y1="256.1563" y2="256.1563"/><line style="stroke:#181818;stroke-width:0.5;" x1="381" x2="513" y1="264.1563" y2="264.1563"/></g><!--class OfferDto--><g id="elem_OfferDto"><rect codeLine="196" fill="#F1F1F1" height="151.7813" id="OfferDto" rx="2.5" ry="2.5" style="stroke:#181818;stroke-width:0.5;" width="294" x="604" y="797"/><ellipse cx="708" cy="814.5781" fill="#ADD1B2" rx="12" ry="12" style="stroke:#181818;stroke-width:1.0;"/><path d="M710.1406,809.5 Q710.3281,809.25 710.5469,809.125 Q710.7656,808.9844 711.0156,808.9844 Q711.4531,808.9844 711.7344,809.2969 Q712.0156,809.5938 712.0156,810.3125 L712.0156,812.0156 Q712.0156,812.7344 711.7344,813.0469 Q711.4531,813.3594 711.0156,813.3594 Q710.625,813.3594 710.375,813.125 Q710.125,812.9063 710.0156,812.2969 Q709.9531,811.875 709.7344,811.6563 Q709.3438,811.2188 708.625,810.9531 Q707.9063,810.6875 707.1875,810.6875 Q706.2813,810.6875 705.5313,811.0781 Q704.7813,811.4688 704.2031,812.3594 Q703.625,813.2344 703.625,814.4375 L703.625,815.7344 Q703.625,817.1875 704.6719,818.1563 Q705.7344,819.125 707.5938,819.125 Q708.7031,819.125 709.4844,818.8125 Q709.9219,818.6406 710.4375,818.125 Q710.75,817.8125 710.9219,817.7188 Q711.0938,817.625 711.3281,817.625 Q711.7188,817.625 712.0156,817.9375 Q712.3281,818.2344 712.3281,818.6406 Q712.3281,819.0469 711.9219,819.5156 Q711.3281,820.2031 710.3906,820.5938 Q709.125,821.125 707.6094,821.125 Q705.8281,821.125 704.4063,820.3906 Q703.25,819.7969 702.4375,818.5313 Q701.625,817.2656 701.625,815.7813 L701.625,814.4219 Q701.625,812.8594 702.3438,811.5156 Q703.0781,810.1563 704.3594,809.4219 Q705.6563,808.6875 707.1094,808.6875 Q707.9688,808.6875 708.7188,808.8906 Q709.4844,809.0938 710.1406,809.5 Z " fill="#000000"/><text fill="#000000" font-family="sans-serif" font-size="20" lengthAdjust="spacing" textLength="77" x="730" y="822.7617">OfferDto</text><line style="stroke:#181818;stroke-width:0.5;" x1="605" x2="897" y1="832.1563" y2="832.1563"/><rect fill="none" height="6" style="stroke:#C82930;stroke-width:1.0;" width="6" x="612" y="847.2344"/><text fill="#000000" font-family="sans-serif" font-size="20" lengthAdjust="spacing" textLength="105" x="625" y="856.918">String name</text><rect fill="none" height="6" style="stroke:#C82930;stroke-width:1.0;" width="6" x="612" y="872.3906"/><text fill="#000000" font-family="sans-serif" font-size="20" lengthAdjust="spacing" textLength="170" x="625" y="882.0742">String orderAmount</text><rect fill="none" height="6" style="stroke:#C82930;stroke-width:1.0;" width="6" x="612" y="897.5469"/><text fill="#000000" font-family="sans-serif" font-size="20" lengthAdjust="spacing" textLength="267" x="625" y="907.2305">String publishedAnnouncement</text><rect fill="none" height="6" style="stroke:#C82930;stroke-width:1.0;" width="6" x="612" y="922.7031"/><text fill="#000000" font-family="sans-serif" font-size="20" lengthAdjust="spacing" textLength="145" x="625" y="932.3867">String offerState</text><line style="stroke:#181818;stroke-width:0.5;" x1="605" x2="897" y1="940.7813" y2="940.7813"/></g><!--reverse link Person to Employee--><g id="link_Person_Employee"><path codeLine="204" d="M388,1408.15 C388,1440.26 388,1471.84 388,1499.3 " fill="none" id="Person-backto-Employee" style="stroke:#181818;stroke-width:1.0;"/><polygon fill="none" points="381,1408.12,388,1388.12,395,1408.12,381,1408.12" style="stroke:#181818;stroke-width:1.0;"/></g><!--link Employee to Offer--><g id="link_Employee_Offer"><path codeLine="207" d="M769.02,1588 C830.33,1588 892.06,1588 948.27,1588 " fill="none" id="Employee-Offer" style="stroke:#181818;stroke-width:1.0;"/><polygon fill="#000000" points="802.25,1571.5781,787.7779,1566.8758,787.7779,1576.2804,802.25,1571.5781" style="stroke:#000000;stroke-width:1.0;"/><text fill="#000000" font-family="sans-serif" font-size="20" lengthAdjust="spacing" textLength="123" x="807.25" y="1579.7617">intends to see</text><text fill="#000000" font-family="sans-serif" font-size="20" lengthAdjust="spacing" textLength="8" x="776.8407" y="1583.51">*</text><text fill="#000000" font-family="sans-serif" font-size="20" lengthAdjust="spacing" textLength="8" x="932.6664" y="1583.3613">*</text></g><!--link Offer to PublishedAnnouncement--><g id="link_Offer_PublishedAnnouncement"><path codeLine="208" d="M1287.45,1727.16 C1310.11,1755.25 1334.15,1785.04 1357.43,1813.9 " fill="none" id="Offer-PublishedAnnouncement" style="stroke:#181818;stroke-width:1.0;"/><polygon fill="#000000" points="1346.0233,1776.8044,1340.5958,1762.5883,1333.2764,1768.4935,1346.0233,1776.8044" style="stroke:#000000;stroke-width:1.0;"/><text fill="#000000" font-family="sans-serif" font-size="20" lengthAdjust="spacing" textLength="31" x="1354" y="1778.7617">has</text><text fill="#000000" font-family="sans-serif" font-size="20" lengthAdjust="spacing" textLength="8" x="1284.6546" y="1755.2821">*</text><text fill="#000000" font-family="sans-serif" font-size="20" lengthAdjust="spacing" textLength="11" x="1340.219" y="1801.6659">1</text></g><!--link PublishedAnnouncement to Property--><g id="link_PublishedAnnouncement_Property"><path codeLine="209" d="M1649.71,2131.3 C1655.43,2135.06 1661.2,2138.64 1667,2142 C1776.8,2205.67 1820.54,2183.43 1939,2229 C1968.28,2240.26 1999.24,2253.44 2028.41,2266.46 " fill="none" id="PublishedAnnouncement-Property" style="stroke:#181818;stroke-width:1.0;"/></g><!--link TypeOfProperty to Property--><g id="link_TypeOfProperty_Property"><path codeLine="210" d="M2320.91,2016.12 C2290.23,2075.77 2229.64,2193.59 2192.19,2266.4 " fill="none" id="TypeOfProperty-Property" style="stroke:#181818;stroke-width:1.0;"/><polygon fill="#000000" points="2250.6589,2178.4639,2239.8582,2189.183,2248.2215,2193.4843,2250.6589,2178.4639" style="stroke:#000000;stroke-width:1.0;"/><text fill="#000000" font-family="sans-serif" font-size="20" lengthAdjust="spacing" textLength="31" x="2260" y="2193.7617">has</text></g><!--reverse link Property to Residence--><g id="link_Property_Residence"><path codeLine="211" d="M2160,2413.72 C2160,2439.6 2160,2467.71 2160,2491.96 " fill="none" id="Property-backto-Residence" style="stroke:#181818;stroke-width:1.0;"/><polygon fill="none" points="2153,2413.55,2160,2393.55,2167,2413.55,2153,2413.55" style="stroke:#181818;stroke-width:1.0;"/></g><!--link Photos to Property--><g id="link_Photos_Property"><path codeLine="212" d="M2160,2016.12 C2160,2075.77 2160,2193.59 2160,2266.4 " fill="none" id="Photos-Property" style="stroke:#181818;stroke-width:1.0;"/><polygon fill="#000000" points="2168,2177.5781,2163.2977,2192.0503,2172.7023,2192.0503,2168,2177.5781" style="stroke:#000000;stroke-width:1.0;"/><text fill="#000000" font-family="sans-serif" font-size="20" lengthAdjust="spacing" textLength="31" x="2181" y="2193.7617">has</text><text fill="#000000" font-family="sans-serif" font-size="20" lengthAdjust="spacing" textLength="45" x="2111.4141" y="2044.9368">1..30</text><text fill="#000000" font-family="sans-serif" font-size="20" lengthAdjust="spacing" textLength="11" x="2148.4328" y="2254.3413">1</text></g><!--reverse link Residence to House--><g id="link_Residence_House"><path codeLine="213" d="M2111.86,2636.32 C2097.73,2659.77 2082.67,2684.74 2070.01,2705.73 " fill="none" id="Residence-backto-House" style="stroke:#181818;stroke-width:1.0;"/><polygon fill="none" points="2105.87,2632.7,2122.2,2619.19,2117.86,2639.93,2105.87,2632.7" style="stroke:#181818;stroke-width:1.0;"/></g><!--link Residence to AvailableEquipment--><g id="link_Residence_AvailableEquipment"><path codeLine="214" d="M2197.49,2619.19 C2216.97,2651.77 2240.12,2690.49 2256.76,2718.32 " fill="none" id="Residence-AvailableEquipment" style="stroke:#181818;stroke-width:1.0;"/><polygon fill="#000000" points="2242.1054,2669.4444,2238.7146,2654.6101,2230.6428,2659.4363,2242.1054,2669.4444" style="stroke:#000000;stroke-width:1.0;"/><text fill="#000000" font-family="sans-serif" font-size="20" lengthAdjust="spacing" textLength="72" x="2251" y="2670.7617">contains</text><text fill="#000000" font-family="sans-serif" font-size="20" lengthAdjust="spacing" textLength="11" x="2189.639" y="2647.4778">1</text><text fill="#000000" font-family="sans-serif" font-size="20" lengthAdjust="spacing" textLength="8" x="2244.578" y="2705.9921">*</text></g><!--link House to SunExposure--><g id="link_House_SunExposure"><path codeLine="215" d="M2040,2807.22 C2040,2834.86 2040,2868.67 2040,2893.96 " fill="none" id="House-SunExposure" style="stroke:#181818;stroke-width:1.0;"/><polygon fill="#000000" points="2048,2858.5781,2052.7023,2844.106,2043.2977,2844.106,2048,2858.5781" style="stroke:#000000;stroke-width:1.0;"/><text fill="#000000" font-family="sans-serif" font-size="20" lengthAdjust="spacing" textLength="72" x="2061" y="2858.7617">contains</text><text fill="#000000" font-family="sans-serif" font-size="20" lengthAdjust="spacing" textLength="11" x="2028.2953" y="2836.0618">1</text><text fill="#000000" font-family="sans-serif" font-size="20" lengthAdjust="spacing" textLength="8" x="2031.3625" y="2881.6545">*</text></g><!--link PublishedAnnouncement to Comission--><g id="link_PublishedAnnouncement_Comission"><path codeLine="216" d="M1649.64,1824.02 C1655.37,1820.47 1661.16,1817.12 1667,1814 C1705.51,1793.44 1719.15,1796.15 1762.5,1791 C1828.82,1783.13 1858.23,1773.07 1911,1814 C1951.88,1845.7 1975.69,1902.12 1987.78,1939.8 " fill="none" id="PublishedAnnouncement-Comission" style="stroke:#181818;stroke-width:1.0;"/><polygon fill="#000000" points="1778.0686,1773.1696,1765.9001,1764.0328,1762.8536,1772.9303,1778.0686,1773.1696" style="stroke:#000000;stroke-width:1.0;"/><text fill="#000000" font-family="sans-serif" font-size="20" lengthAdjust="spacing" textLength="31" x="1783.5" y="1778.7617">has</text><text fill="#000000" font-family="sans-serif" font-size="20" lengthAdjust="spacing" textLength="11" x="1657.6874" y="1811.7247">1</text><text fill="#000000" font-family="sans-serif" font-size="20" lengthAdjust="spacing" textLength="11" x="1974.2746" y="1927.469">1</text></g><!--link Business to PublishedAnnouncement--><g id="link_Business_PublishedAnnouncement"><path codeLine="217" d="M1518.84,1626.2 C1515.14,1669.64 1508.78,1744.4 1502.88,1813.77 " fill="none" id="Business-PublishedAnnouncement" style="stroke:#181818;stroke-width:1.0;"/><polygon fill="#000000" points="1516.6783,1762.6069,1510.7659,1776.6283,1520.1366,1777.4256,1516.6783,1762.6069" style="stroke:#000000;stroke-width:1.0;"/><text fill="#000000" font-family="sans-serif" font-size="20" lengthAdjust="spacing" textLength="31" x="1529" y="1778.7617">has</text><text fill="#000000" font-family="sans-serif" font-size="20" lengthAdjust="spacing" textLength="11" x="1506.4598" y="1655.0296">1</text><text fill="#000000" font-family="sans-serif" font-size="20" lengthAdjust="spacing" textLength="11" x="1492.2597" y="1801.53">1</text></g><!--link Adress to Property--><g id="link_Adress_Property"><path codeLine="219" d="M1921.75,2330 C1951.05,2330 1980.77,2330 2008.82,2330 " fill="none" id="Adress-Property" style="stroke:#181818;stroke-width:1.0;"/><polygon fill="#000000" points="1938.75,2313.5781,1953.2221,2318.2804,1953.2221,2308.8758,1938.75,2313.5781" style="stroke:#000000;stroke-width:1.0;"/><text fill="#000000" font-family="sans-serif" font-size="20" lengthAdjust="spacing" textLength="31" x="1959.75" y="2321.7617">has</text><text fill="#000000" font-family="sans-serif" font-size="20" lengthAdjust="spacing" textLength="11" x="1929.234" y="2325.3136">1</text><text fill="#000000" font-family="sans-serif" font-size="20" lengthAdjust="spacing" textLength="11" x="1990.2308" y="2325.1691">1</text></g><!--link District to State--><g id="link_District_State"><path codeLine="220" d="M1155.88,2330 C1185.21,2330 1217.29,2330 1246.14,2330 " fill="none" id="District-State" style="stroke:#181818;stroke-width:1.0;"/><polygon fill="#000000" points="1189,2313.5781,1174.5279,2308.8758,1174.5279,2318.2804,1189,2313.5781" style="stroke:#000000;stroke-width:1.0;"/><text fill="#000000" font-family="sans-serif" font-size="20" lengthAdjust="spacing" textLength="34" x="1194" y="2321.7617">is in</text><text fill="#000000" font-family="sans-serif" font-size="20" lengthAdjust="spacing" textLength="8" x="1163.6036" y="2324.819">*</text><text fill="#000000" font-family="sans-serif" font-size="20" lengthAdjust="spacing" textLength="11" x="1227.541" y="2324.7806">1</text></g><!--link City to District--><g id="link_City_District"><path codeLine="221" d="M872.07,2330 C900.23,2330 932.44,2330 962.1,2330 " fill="none" id="City-District" style="stroke:#181818;stroke-width:1.0;"/><polygon fill="#000000" points="905.25,2313.5781,890.7779,2308.8758,890.7779,2318.2804,905.25,2313.5781" style="stroke:#000000;stroke-width:1.0;"/><text fill="#000000" font-family="sans-serif" font-size="20" lengthAdjust="spacing" textLength="34" x="910.25" y="2321.7617">is in</text><text fill="#000000" font-family="sans-serif" font-size="20" lengthAdjust="spacing" textLength="8" x="880.0503" y="2324.5159">*</text><text fill="#000000" font-family="sans-serif" font-size="20" lengthAdjust="spacing" textLength="11" x="943.58" y="2324.8575">1</text></g><!--link State to Adress--><g id="link_State_Adress"><path codeLine="222" d="M1425.8,2330 C1453.21,2330 1484.55,2330 1516.29,2330 " fill="none" id="State-Adress" style="stroke:#181818;stroke-width:1.0;"/><polygon fill="#000000" points="1459,2313.5781,1444.5279,2308.8758,1444.5279,2318.2804,1459,2313.5781" style="stroke:#000000;stroke-width:1.0;"/><text fill="#000000" font-family="sans-serif" font-size="20" lengthAdjust="spacing" textLength="34" x="1464" y="2321.7617">is in</text><text fill="#000000" font-family="sans-serif" font-size="20" lengthAdjust="spacing" textLength="11" x="1433.3942" y="2324.7806">1</text><text fill="#000000" font-family="sans-serif" font-size="20" lengthAdjust="spacing" textLength="8" x="1500.2154" y="2325.2747">*</text></g><!--link ListDealsUI to ListDealsController--><g id="link_ListDealsUI_ListDealsController"><path codeLine="225" d="M514.09,246.5 C524.08,246.5 534.06,246.5 544.04,246.5 " fill="none" id="ListDealsUI-to-ListDealsController" style="stroke:#181818;stroke-width:1.0;stroke-dasharray:7.0,7.0;"/><polygon fill="#181818" points="549.26,246.5,540.26,242.5,544.26,246.5,540.26,250.5,549.26,246.5" style="stroke:#181818;stroke-width:1.0;"/></g><!--link ListDealsController to Repositories--><g id="link_ListDealsController_Repositories"><path codeLine="227" d="M952.5,246.5 C996.5,246.5 1042.97,246.5 1086.64,246.5 " fill="none" id="ListDealsController-to-Repositories" style="stroke:#181818;stroke-width:1.0;stroke-dasharray:7.0,7.0;"/><polygon fill="#181818" points="1091.68,246.5,1082.68,242.5,1086.68,246.5,1082.68,250.5,1091.68,246.5" style="stroke:#181818;stroke-width:1.0;"/><text fill="#000000" font-family="sans-serif" font-size="20" lengthAdjust="spacing" textLength="103" x="970.75" y="238.2617">repositories</text></g><!--link Repositories to Repositories--><g id="link_Repositories_Repositories"><path codeLine="229" d="M1468.31,201.86 C1489.37,210.28 1503,225.16 1503,246.5 C1503,266.18 1491.42,280.36 1473.11,289.05 " fill="none" id="Repositories-to-Repositories" style="stroke:#181818;stroke-width:1.0;"/><polygon fill="#181818" points="1468.31,291.14,1478.1584,291.2343,1472.8983,289.1532,1474.9795,283.8931,1468.31,291.14" style="stroke:#181818;stroke-width:1.0;"/><text fill="#000000" font-family="sans-serif" font-size="20" lengthAdjust="spacing" textLength="72" x="1509" y="254.7617">instance</text></g><!--link ListDealsController to OfferMapper--><g id="link_ListDealsController_OfferMapper"><path codeLine="231" d="M751,410.62 C751,466.87 751,526.11 751,567.6 " fill="none" id="ListDealsController-to-OfferMapper" style="stroke:#181818;stroke-width:1.0;stroke-dasharray:7.0,7.0;"/><polygon fill="#181818" points="751,572.82,755,563.82,751,567.82,747,563.82,751,572.82" style="stroke:#181818;stroke-width:1.0;"/></g><!--link OfferMapper to OfferDto--><g id="link_OfferMapper_OfferDto"><path codeLine="233" d="M751,674.29 C751,707.93 751,753.08 751,791.75 " fill="none" id="OfferMapper-to-OfferDto" style="stroke:#181818;stroke-width:1.0;stroke-dasharray:7.0,7.0;"/><polygon fill="#181818" points="751,796.91,755,787.91,751,791.91,747,787.91,751,796.91" style="stroke:#181818;stroke-width:1.0;"/></g><!--link Repositories to OfferRepository--><g id="link_Repositories_OfferRepository"><path codeLine="235" d="M1213.84,486.06 C1203.78,522.35 1194.48,555.88 1187.62,580.62 " fill="none" id="Repositories-to-OfferRepository" style="stroke:#181818;stroke-width:1.0;"/><polygon fill="#181818" points="1186.28,585.45,1192.551,577.8556,1187.6234,580.6338,1184.8452,575.7062,1186.28,585.45" style="stroke:#181818;stroke-width:1.0;"/><text fill="#000000" font-family="sans-serif" font-size="20" lengthAdjust="spacing" textLength="136" x="1205" y="537.7617">offerRepository</text></g><!--link ListDealsController to OfferRepository--><g id="link_ListDealsController_OfferRepository"><path codeLine="237" d="M935.87,410.62 C1007.28,473.63 1082.93,540.38 1129.81,581.75 " fill="none" id="ListDealsController-to-OfferRepository" style="stroke:#181818;stroke-width:1.0;stroke-dasharray:7.0,7.0;"/><polygon fill="#181818" points="1133.7,585.18,1129.5968,576.2266,1129.9504,581.8724,1124.3046,582.2259,1133.7,585.18" style="stroke:#181818;stroke-width:1.0;"/></g><!--link OfferRepository to Offer--><g id="link_OfferRepository_Offer"><path codeLine="239" d="M1176,661.59 C1176,683.04 1176,710.54 1176,735 C1176,735 1176,735 1176,1200 C1176,1280.54 1176,1370.51 1176,1443.41 " fill="none" id="OfferRepository-to-Offer" style="stroke:#181818;stroke-width:1.0;"/><polygon fill="#181818" points="1176,1448.63,1180,1439.63,1176,1443.63,1172,1439.63,1176,1448.63" style="stroke:#181818;stroke-width:1.0;"/></g><!--link PublishedAnnouncement to AnnouncementState--><g id="link_PublishedAnnouncement_AnnouncementState"><path codeLine="242" d="M1649.55,1978 C1661.17,1978 1672.79,1978 1684.41,1978 " fill="none" id="PublishedAnnouncement-AnnouncementState" style="stroke:#181818;stroke-width:1.0;"/></g><!--link Offer to OfferState--><g id="link_Offer_OfferState"><path codeLine="244" d="M1176,1727.16 C1176,1788.94 1176,1858.98 1176,1909.15 " fill="none" id="Offer-to-OfferState" style="stroke:#181818;stroke-width:1.0;"/><polygon fill="#181818" points="1176,1914.25,1180,1905.25,1176,1909.25,1172,1905.25,1176,1914.25" style="stroke:#181818;stroke-width:1.0;"/></g><!--SRC=[ZLTBRziu4BxpLn2vhDtOGRjxSuC0Jfp51jWqHjpUza9BuvWRcLH9ggZRxd_VuPko52G-oEBCnvaXvodzp4NB53iqidg6cjQmOrrZ_fJ2RFWFeB-_9-It1dQ66aaLVzeRMdC5bU5IaAfXMjFRGzl88y1FCjyOgO1g-oJplxasbu-oWIkgy4dE8t021yQRcM07c3dihDrB0P-wmnRKp69dh5QWzSomxu7QegPMAkENKtB-1CPfc_XtgmTV_oF1g3KeBGMQH3T6SV54dKvSSc5eNrWW9brvZxKGLqjd3FKsHH7POaBElsXGuLHzsSK9t76BRTxkTGyU3lCvRWhhMoivl7jZmk8JoWolwopPtqEuY8VT3fIzXvk60nfUkJz2vtJTRHkkzr0lXP2TgE1W-UqOrS9hYHoWKjMWbWTa6KBekPTF9ptfinTa_oD6fSz6P4-Jx8bxnHC-P6wYZUf9N6yKBkrzWEWEr8lS66Q0kdXrVbvM5RG6waHOWwZnFwqVuLyCUGJaU_L- -8at4p3QAF0U8HH_SnibFtXx8sjFi4wwuUPehGlB5MQ8ufKfICwqk0w-rfQ6bnJGCrgXc5bGE8jAYk1_1CrhmDl0CoPRX8iDkRk6Mabvq2CSPlOliDPCFTj3RbfMWSwQ_fATJbh2HMoP3a5J4BdOioqt3DtSo9t94ZQTkFtUIjsfKpcvpYJmyXicWfLn-xNZhOkf_Xw8zC9JrvtcmYPmThYHXZLhl4meSD4RHT68L-wyIWP-2-bNU9U3ZWGZlP2oAbd_5-Aj7qalE8B4RDIDF72jyHBYGLS-LRwnflF6fugtbqQwGqRntUDTKH2LR46POvJZgXXJmFmox6xTNu6mDy1i9EsKF52p1sSqhV2AiV9bwQFv7bMjRBhL-FWO29-FBJpiacDCRnb1oU8sl9moh9J4j8i8o9TMnRV8IZgt9zhSOJl5RC0zx6wm_obMcSYDhOko9pnOqbCMlL9GDEfk5Qb5P_oOgb5vMIxnSuIo6Ec9ecLJ5sdZuJGvsnK97wUZjQG8sx4GzQ7aPNll506JqWOPsGHNIkzPYwZWwNDCh9MH4savjlrFI_B3rXPHpvoUY7a4B04SR-UOHBcA_yG4_-5ySdsCFl3Tq7NRNiqB4Z05qU9o6JhadV2XF9akIcxei5vsjYDiIg4qu8o6_02rx31dXE6LEyIGtTlxjGCz5E52Pq2r0yy853q-F8EBp-41YimPCFiPEc3V8n5JOK0_SQQbucZ4MOEpf5tKK2wJysoih80rskMTR9eYf4PuFeQoccaE6OUyFYvrvLlu4YlSTRV5HDhWb3KP8bVmPcXFgCLieF4TwbMvusYN5gyQu53Bju3Uh7FvHfnpfxwNDYghC5cvSZRgwg4xlzoX6_kPZb9pGV43TbYKasMaZK-ZQKSQvbpvyZC_lVmrpmKRoQbsdxqxGzFjqrcoiAKQhq7RJnkD_2lYXrc7G-27i_6-jg1xfX4ztlJckK6HaqfQiAWNSaaImPcT9ZSI6lBPXukBFzvdUqwtvr7FxNVpM46qU-R-p2EpqmBxep2C2tiQFyeL6uh9h0SSFxRRw9wv-oxyFQMU6uM_TB7fL2HyShaDxglpvFmHw2Tv1xCVgS7osEZGmngTZBX86K3jq9LXKUsx0eGRd9QC8gGCy8khiH9LO8gQXjYozU1vLTc9I8yvd_VH2nuQs0koKNZHaWaf-_D5ucB-ZUWvRS8BUb9YNz5P0azbpUqlu6oMZcVDS1WAah9zWKh-1m00]--></g></svg>