<?xml version="1.0" encoding="us-ascii" standalone="no"?><svg xmlns="http://www.w3.org/2000/svg" xmlns:xlink="http://www.w3.org/1999/xlink" contentStyleType="text/css" height="2243px" preserveAspectRatio="none" style="width:1865px;height:2243px;background:#FFFFFF;" version="1.1" viewBox="0 0 1865 2243" width="1865px" zoomAndPan="magnify"><defs/><g><!--class Employee--><g id="elem_Employee"><rect codeLine="3" fill="#F1F1F1" height="126.2031" id="Employee" rx="2.5" ry="2.5" style="stroke:#181818;stroke-width:0.5;" width="553" x="7" y="1114.5"/><ellipse cx="248.25" cy="1130.5" fill="#ADD1B2" rx="11" ry="11" style="stroke:#181818;stroke-width:1.0;"/><path d="M250.25,1127 Q250.4531,1126.5 250.6875,1126.25 Q250.9219,1126 251.1875,1126 Q251.6563,1126 251.9531,1126.2813 Q252.25,1126.5625 252.25,1127.2188 L252.25,1128.7813 Q252.25,1129.4375 251.9688,1129.7188 Q251.6875,1130 251.25,1130 Q250.8594,1130 250.6094,1129.8281 Q250.3594,1129.6563 250.25,1129.2031 Q250.2031,1128.8906 250.0313,1128.7188 Q249.7188,1128.3906 249.1563,1128.2031 Q248.5938,1128 248.0313,1128 Q247.3281,1128 246.7344,1128.2813 Q246.1563,1128.5625 245.7031,1129.1875 Q245.25,1129.8125 245.25,1130.6719 L245.25,1131.5938 Q245.25,1132.625 246.0938,1133.3125 Q246.9375,1134 248.4375,1134 Q249.3281,1134 249.9531,1133.7969 Q250.3125,1133.6875 250.7188,1133.3281 Q250.9844,1133.125 251.125,1133.0625 Q251.2656,1133 251.4375,1133 Q251.7656,1133 252,1133.2656 Q252.25,1133.5156 252.25,1133.875 Q252.25,1134.2188 251.9063,1134.625 Q251.4063,1135.2188 250.6094,1135.5469 Q249.5625,1136 248.2813,1136 Q246.7813,1136 245.5781,1135.4063 Q244.6094,1134.9375 243.9219,1133.9219 Q243.25,1132.9063 243.25,1131.7031 L243.25,1130.6094 Q243.25,1129.3594 243.8438,1128.2656 Q244.4531,1127.1719 245.5,1126.5938 Q246.5625,1126 247.75,1126 Q248.4688,1126 249.0938,1126.25 Q249.7188,1126.5 250.25,1127 Z " fill="#000000"/><text fill="#000000" font-family="sans-serif" font-size="14" lengthAdjust="spacing" textLength="62" x="268.75" y="1135.3535">Employee</text><line style="stroke:#181818;stroke-width:0.5;" x1="8" x2="559" y1="1146.5" y2="1146.5"/><rect fill="none" height="6" style="stroke:#C82930;stroke-width:1.0;" width="6" x="15" y="1156.8203"/><text fill="#000000" font-family="sans-serif" font-size="14" lengthAdjust="spacing" textLength="70" x="27" y="1163.1738">Store store</text><rect fill="none" height="6" style="stroke:#C82930;stroke-width:1.0;" width="6" x="15" y="1172.4609"/><text fill="#000000" font-family="sans-serif" font-size="14" lengthAdjust="spacing" textLength="95" x="27" y="1178.8145">List&lt;Role&gt; role</text><line style="stroke:#181818;stroke-width:0.5;" x1="8" x2="559" y1="1185.7813" y2="1185.7813"/><ellipse cx="18" cy="1199.1016" fill="#84BE84" rx="3" ry="3" style="stroke:#038048;stroke-width:1.0;"/><text fill="#000000" font-family="sans-serif" font-size="14" lengthAdjust="spacing" textLength="527" x="27" y="1202.4551">Employee(email,name,store,phoneNumber,role,adress,taxNumber,passportNumber)</text><ellipse cx="18" cy="1214.7422" fill="#84BE84" rx="3" ry="3" style="stroke:#038048;stroke-width:1.0;"/><text fill="#000000" font-family="sans-serif" font-size="14" lengthAdjust="spacing" textLength="64" x="27" y="1218.0957">getStore()</text><ellipse cx="18" cy="1230.3828" fill="#84BE84" rx="3" ry="3" style="stroke:#038048;stroke-width:1.0;"/><text fill="#000000" font-family="sans-serif" font-size="14" lengthAdjust="spacing" textLength="59" x="27" y="1233.7363">getRole()</text></g><!--class Person--><g id="elem_Person"><rect codeLine="11" fill="#F1F1F1" height="251.3281" id="Person" rx="2.5" ry="2.5" style="stroke:#181818;stroke-width:0.5;" width="409" x="79" y="771"/><ellipse cx="256.75" cy="787" fill="#ADD1B2" rx="11" ry="11" style="stroke:#181818;stroke-width:1.0;"/><path d="M258.75,783.5 Q258.9531,783 259.1875,782.75 Q259.4219,782.5 259.6875,782.5 Q260.1563,782.5 260.4531,782.7813 Q260.75,783.0625 260.75,783.7188 L260.75,785.2813 Q260.75,785.9375 260.4688,786.2188 Q260.1875,786.5 259.75,786.5 Q259.3594,786.5 259.1094,786.3281 Q258.8594,786.1563 258.75,785.7031 Q258.7031,785.3906 258.5313,785.2188 Q258.2188,784.8906 257.6563,784.7031 Q257.0938,784.5 256.5313,784.5 Q255.8281,784.5 255.2344,784.7813 Q254.6563,785.0625 254.2031,785.6875 Q253.75,786.3125 253.75,787.1719 L253.75,788.0938 Q253.75,789.125 254.5938,789.8125 Q255.4375,790.5 256.9375,790.5 Q257.8281,790.5 258.4531,790.2969 Q258.8125,790.1875 259.2188,789.8281 Q259.4844,789.625 259.625,789.5625 Q259.7656,789.5 259.9375,789.5 Q260.2656,789.5 260.5,789.7656 Q260.75,790.0156 260.75,790.375 Q260.75,790.7188 260.4063,791.125 Q259.9063,791.7188 259.1094,792.0469 Q258.0625,792.5 256.7813,792.5 Q255.2813,792.5 254.0781,791.9063 Q253.1094,791.4375 252.4219,790.4219 Q251.75,789.4063 251.75,788.2031 L251.75,787.1094 Q251.75,785.8594 252.3438,784.7656 Q252.9531,783.6719 254,783.0938 Q255.0625,782.5 256.25,782.5 Q256.9688,782.5 257.5938,782.75 Q258.2188,783 258.75,783.5 Z " fill="#000000"/><text fill="#000000" font-family="sans-serif" font-size="14" lengthAdjust="spacing" textLength="45" x="277.25" y="791.8535">Person</text><line style="stroke:#181818;stroke-width:0.5;" x1="80" x2="487" y1="803" y2="803"/><rect fill="none" height="6" style="stroke:#C82930;stroke-width:1.0;" width="6" x="87" y="813.3203"/><text fill="#000000" font-family="sans-serif" font-size="14" lengthAdjust="spacing" textLength="74" x="99" y="819.6738">String email</text><rect fill="none" height="6" style="stroke:#C82930;stroke-width:1.0;" width="6" x="87" y="828.9609"/><text fill="#000000" font-family="sans-serif" font-size="14" lengthAdjust="spacing" textLength="123" x="99" y="835.3145">int passportNumber</text><rect fill="none" height="6" style="stroke:#C82930;stroke-width:1.0;" width="6" x="87" y="844.6016"/><text fill="#000000" font-family="sans-serif" font-size="14" lengthAdjust="spacing" textLength="86" x="99" y="850.9551">int taxNumber</text><rect fill="none" height="6" style="stroke:#C82930;stroke-width:1.0;" width="6" x="87" y="860.2422"/><text fill="#000000" font-family="sans-serif" font-size="14" lengthAdjust="spacing" textLength="76" x="99" y="866.5957">String name</text><rect fill="none" height="6" style="stroke:#C82930;stroke-width:1.0;" width="6" x="87" y="875.8828"/><text fill="#000000" font-family="sans-serif" font-size="14" lengthAdjust="spacing" textLength="91" x="99" y="882.2363">Adress adress</text><rect fill="none" height="6" style="stroke:#C82930;stroke-width:1.0;" width="6" x="87" y="891.5234"/><text fill="#000000" font-family="sans-serif" font-size="14" lengthAdjust="spacing" textLength="108" x="99" y="897.877">int phoneNumber</text><line style="stroke:#181818;stroke-width:0.5;" x1="80" x2="487" y1="904.8438" y2="904.8438"/><ellipse cx="90" cy="918.1641" fill="#84BE84" rx="3" ry="3" style="stroke:#038048;stroke-width:1.0;"/><text fill="#000000" font-family="sans-serif" font-size="14" lengthAdjust="spacing" textLength="383" x="99" y="921.5176">User(email,passportNumber,taxNumber,name,phoneNumber)</text><ellipse cx="90" cy="933.8047" fill="#84BE84" rx="3" ry="3" style="stroke:#038048;stroke-width:1.0;"/><text fill="#000000" font-family="sans-serif" font-size="14" lengthAdjust="spacing" textLength="135" x="99" y="937.1582">getPassportNumber()</text><ellipse cx="90" cy="949.4453" fill="#84BE84" rx="3" ry="3" style="stroke:#038048;stroke-width:1.0;"/><text fill="#000000" font-family="sans-serif" font-size="14" lengthAdjust="spacing" textLength="102" x="99" y="952.7988">getTaxNumber()</text><ellipse cx="90" cy="965.0859" fill="#84BE84" rx="3" ry="3" style="stroke:#038048;stroke-width:1.0;"/><text fill="#000000" font-family="sans-serif" font-size="14" lengthAdjust="spacing" textLength="64" x="99" y="968.4395">getEmail()</text><ellipse cx="90" cy="980.7266" fill="#84BE84" rx="3" ry="3" style="stroke:#038048;stroke-width:1.0;"/><text fill="#000000" font-family="sans-serif" font-size="14" lengthAdjust="spacing" textLength="74" x="99" y="984.0801">getAdress()</text><ellipse cx="90" cy="996.3672" fill="#84BE84" rx="3" ry="3" style="stroke:#038048;stroke-width:1.0;"/><text fill="#000000" font-family="sans-serif" font-size="14" lengthAdjust="spacing" textLength="66" x="99" y="999.7207">getName()</text><ellipse cx="90" cy="1012.0078" fill="#84BE84" rx="3" ry="3" style="stroke:#038048;stroke-width:1.0;"/><text fill="#000000" font-family="sans-serif" font-size="14" lengthAdjust="spacing" textLength="120" x="99" y="1015.3613">getPhoneNumber()</text></g><!--class Offer--><g id="elem_Offer"><rect codeLine="29" fill="#F1F1F1" height="188.7656" id="Offer" rx="2.5" ry="2.5" style="stroke:#181818;stroke-width:0.5;" width="343" x="692" y="1083"/><ellipse cx="843.25" cy="1099" fill="#ADD1B2" rx="11" ry="11" style="stroke:#181818;stroke-width:1.0;"/><path d="M845.25,1095.5 Q845.4531,1095 845.6875,1094.75 Q845.9219,1094.5 846.1875,1094.5 Q846.6563,1094.5 846.9531,1094.7813 Q847.25,1095.0625 847.25,1095.7188 L847.25,1097.2813 Q847.25,1097.9375 846.9688,1098.2188 Q846.6875,1098.5 846.25,1098.5 Q845.8594,1098.5 845.6094,1098.3281 Q845.3594,1098.1563 845.25,1097.7031 Q845.2031,1097.3906 845.0313,1097.2188 Q844.7188,1096.8906 844.1563,1096.7031 Q843.5938,1096.5 843.0313,1096.5 Q842.3281,1096.5 841.7344,1096.7813 Q841.1563,1097.0625 840.7031,1097.6875 Q840.25,1098.3125 840.25,1099.1719 L840.25,1100.0938 Q840.25,1101.125 841.0938,1101.8125 Q841.9375,1102.5 843.4375,1102.5 Q844.3281,1102.5 844.9531,1102.2969 Q845.3125,1102.1875 845.7188,1101.8281 Q845.9844,1101.625 846.125,1101.5625 Q846.2656,1101.5 846.4375,1101.5 Q846.7656,1101.5 847,1101.7656 Q847.25,1102.0156 847.25,1102.375 Q847.25,1102.7188 846.9063,1103.125 Q846.4063,1103.7188 845.6094,1104.0469 Q844.5625,1104.5 843.2813,1104.5 Q841.7813,1104.5 840.5781,1103.9063 Q839.6094,1103.4375 838.9219,1102.4219 Q838.25,1101.4063 838.25,1100.2031 L838.25,1099.1094 Q838.25,1097.8594 838.8438,1096.7656 Q839.4531,1095.6719 840.5,1095.0938 Q841.5625,1094.5 842.75,1094.5 Q843.4688,1094.5 844.0938,1094.75 Q844.7188,1095 845.25,1095.5 Z " fill="#000000"/><text fill="#000000" font-family="sans-serif" font-size="14" lengthAdjust="spacing" textLength="32" x="863.75" y="1103.8535">Offer</text><line style="stroke:#181818;stroke-width:0.5;" x1="693" x2="1034" y1="1115" y2="1115"/><rect fill="none" height="6" style="stroke:#C82930;stroke-width:1.0;" width="6" x="700" y="1125.3203"/><text fill="#000000" font-family="sans-serif" font-size="14" lengthAdjust="spacing" textLength="73" x="712" y="1131.6738">Client client</text><rect fill="none" height="6" style="stroke:#C82930;stroke-width:1.0;" width="6" x="700" y="1140.9609"/><text fill="#000000" font-family="sans-serif" font-size="14" lengthAdjust="spacing" textLength="317" x="712" y="1147.3145">PublishedAnnouncement publishedAnnouncement</text><rect fill="none" height="6" style="stroke:#C82930;stroke-width:1.0;" width="6" x="700" y="1156.6016"/><text fill="#000000" font-family="sans-serif" font-size="14" lengthAdjust="spacing" textLength="129" x="712" y="1162.9551">double orderAmount</text><line style="stroke:#181818;stroke-width:0.5;" x1="693" x2="1034" y1="1169.9219" y2="1169.9219"/><ellipse cx="703" cy="1191.0625" fill="#84BE84" rx="3" ry="3" style="stroke:#038048;stroke-width:1.0;"/><text fill="#000000" font-family="sans-serif" font-size="14" lengthAdjust="spacing" textLength="279" x="712" y="1186.5957">Offer (Client client, PublishedAnnouncement</text><text fill="#000000" font-family="sans-serif" font-size="14" lengthAdjust="spacing" textLength="298" x="712" y="1202.2363">publishedAnnouncement, double orderAmount)</text><ellipse cx="703" cy="1214.5234" fill="#84BE84" rx="3" ry="3" style="stroke:#038048;stroke-width:1.0;"/><text fill="#000000" font-family="sans-serif" font-size="14" lengthAdjust="spacing" textLength="42" x="712" y="1217.877">Offer()</text><ellipse cx="703" cy="1230.1641" fill="#84BE84" rx="3" ry="3" style="stroke:#038048;stroke-width:1.0;"/><text fill="#000000" font-family="sans-serif" font-size="14" lengthAdjust="spacing" textLength="115" x="712" y="1233.5176">getOrderAmount()</text><ellipse cx="703" cy="1245.8047" fill="#84BE84" rx="3" ry="3" style="stroke:#038048;stroke-width:1.0;"/><text fill="#000000" font-family="sans-serif" font-size="14" lengthAdjust="spacing" textLength="187" x="712" y="1249.1582">getPublishedAnnouncement()</text><ellipse cx="703" cy="1261.4453" fill="#84BE84" rx="3" ry="3" style="stroke:#038048;stroke-width:1.0;"/><text fill="#000000" font-family="sans-serif" font-size="14" lengthAdjust="spacing" textLength="66" x="712" y="1264.7988">getClient()</text></g><!--class OfferState--><g id="elem_OfferState"><rect codeLine="42" fill="#F1F1F1" height="94.9219" id="OfferState" rx="2.5" ry="2.5" style="stroke:#181818;stroke-width:0.5;" width="126" x="800.5" y="1410.5"/><ellipse cx="828.55" cy="1426.5" fill="#EB937F" rx="11" ry="11" style="stroke:#181818;stroke-width:1.0;"/><path d="M827.05,1427.5 L827.05,1429.5 L831.05,1429.5 L831.05,1428.5 L831.05,1428.0156 L831.675,1427.5 L832.05,1427.5 L832.425,1427.5 L833.05,1428.0156 L833.05,1428.5 L833.05,1431.5 L825.05,1431.5 L824.5656,1431.5 L824.05,1430.875 L824.05,1430.5 L824.05,1430.125 L824.5656,1429.5 L825.05,1429.5 L825.05,1429.5 L825.05,1423.5 L825.05,1423.5 L824.5656,1423.5 L824.05,1422.875 L824.05,1422.5 L824.05,1422.125 L824.5656,1421.5 L825.05,1421.5 L833.05,1421.5 L833.05,1424.5 L833.05,1424.9844 L832.425,1425.5 L832.05,1425.5 L831.675,1425.5 L831.05,1424.9844 L831.05,1424.5 L831.05,1423.5 L827.05,1423.5 L827.05,1425.5 L828.05,1425.5 L828.05,1425.0156 L828.05,1425.0156 L828.675,1424.5 L829.05,1424.5 L829.425,1424.5 L830.05,1425.0156 L830.05,1425.5 L830.05,1427.5 L830.05,1427.9844 L829.425,1428.5 L829.425,1428.5 L829.05,1428.5 L828.675,1428.5 L828.05,1427.9844 L828.05,1427.9844 L828.05,1427.5 L827.05,1427.5 Z " fill="#000000"/><text fill="#000000" font-family="sans-serif" font-size="14" lengthAdjust="spacing" textLength="65" x="845.45" y="1431.3535">OfferState</text><line style="stroke:#181818;stroke-width:0.5;" x1="801.5" x2="925.5" y1="1442.5" y2="1442.5"/><rect fill="none" height="6" style="stroke:#C82930;stroke-width:1.0;" width="6" x="808.5" y="1452.8203"/><text fill="#000000" font-family="sans-serif" font-size="14" lengthAdjust="spacing" textLength="100" x="820.5" y="1459.1738">String Accepted</text><rect fill="none" height="6" style="stroke:#C82930;stroke-width:1.0;" width="6" x="808.5" y="1468.4609"/><text fill="#000000" font-family="sans-serif" font-size="14" lengthAdjust="spacing" textLength="93" x="820.5" y="1474.8145">String Pending</text><rect fill="none" height="6" style="stroke:#C82930;stroke-width:1.0;" width="6" x="808.5" y="1484.1016"/><text fill="#000000" font-family="sans-serif" font-size="14" lengthAdjust="spacing" textLength="97" x="820.5" y="1490.4551">String Rejected</text><line style="stroke:#181818;stroke-width:0.5;" x1="801.5" x2="925.5" y1="1497.4219" y2="1497.4219"/></g><!--class Adress--><g id="elem_Adress"><rect codeLine="49" fill="#F1F1F1" height="141.8438" id="Adress" rx="2.5" ry="2.5" style="stroke:#181818;stroke-width:0.5;" width="292" x="1171.5" y="1644"/><ellipse cx="1291.25" cy="1660" fill="#ADD1B2" rx="11" ry="11" style="stroke:#181818;stroke-width:1.0;"/><path d="M1293.25,1656.5 Q1293.4531,1656 1293.6875,1655.75 Q1293.9219,1655.5 1294.1875,1655.5 Q1294.6563,1655.5 1294.9531,1655.7813 Q1295.25,1656.0625 1295.25,1656.7188 L1295.25,1658.2813 Q1295.25,1658.9375 1294.9688,1659.2188 Q1294.6875,1659.5 1294.25,1659.5 Q1293.8594,1659.5 1293.6094,1659.3281 Q1293.3594,1659.1563 1293.25,1658.7031 Q1293.2031,1658.3906 1293.0313,1658.2188 Q1292.7188,1657.8906 1292.1563,1657.7031 Q1291.5938,1657.5 1291.0313,1657.5 Q1290.3281,1657.5 1289.7344,1657.7813 Q1289.1563,1658.0625 1288.7031,1658.6875 Q1288.25,1659.3125 1288.25,1660.1719 L1288.25,1661.0938 Q1288.25,1662.125 1289.0938,1662.8125 Q1289.9375,1663.5 1291.4375,1663.5 Q1292.3281,1663.5 1292.9531,1663.2969 Q1293.3125,1663.1875 1293.7188,1662.8281 Q1293.9844,1662.625 1294.125,1662.5625 Q1294.2656,1662.5 1294.4375,1662.5 Q1294.7656,1662.5 1295,1662.7656 Q1295.25,1663.0156 1295.25,1663.375 Q1295.25,1663.7188 1294.9063,1664.125 Q1294.4063,1664.7188 1293.6094,1665.0469 Q1292.5625,1665.5 1291.2813,1665.5 Q1289.7813,1665.5 1288.5781,1664.9063 Q1287.6094,1664.4375 1286.9219,1663.4219 Q1286.25,1662.4063 1286.25,1661.2031 L1286.25,1660.1094 Q1286.25,1658.8594 1286.8438,1657.7656 Q1287.4531,1656.6719 1288.5,1656.0938 Q1289.5625,1655.5 1290.75,1655.5 Q1291.4688,1655.5 1292.0938,1655.75 Q1292.7188,1656 1293.25,1656.5 Z " fill="#000000"/><text fill="#000000" font-family="sans-serif" font-size="14" lengthAdjust="spacing" textLength="44" x="1311.75" y="1664.8535">Adress</text><line style="stroke:#181818;stroke-width:0.5;" x1="1172.5" x2="1462.5" y1="1676" y2="1676"/><rect fill="none" height="6" style="stroke:#C82930;stroke-width:1.0;" width="6" x="1179.5" y="1686.3203"/><text fill="#000000" font-family="sans-serif" font-size="14" lengthAdjust="spacing" textLength="113" x="1191.5" y="1692.6738">String streetName</text><rect fill="none" height="6" style="stroke:#C82930;stroke-width:1.0;" width="6" x="1179.5" y="1701.9609"/><text fill="#000000" font-family="sans-serif" font-size="14" lengthAdjust="spacing" textLength="70" x="1191.5" y="1708.3145">int zipCode</text><line style="stroke:#181818;stroke-width:0.5;" x1="1172.5" x2="1462.5" y1="1715.2813" y2="1715.2813"/><ellipse cx="1182.5" cy="1728.6016" fill="#84BE84" rx="3" ry="3" style="stroke:#038048;stroke-width:1.0;"/><text fill="#000000" font-family="sans-serif" font-size="14" lengthAdjust="spacing" textLength="54" x="1191.5" y="1731.9551">getCity()</text><ellipse cx="1182.5" cy="1744.2422" fill="#84BE84" rx="3" ry="3" style="stroke:#038048;stroke-width:1.0;"/><text fill="#000000" font-family="sans-serif" font-size="14" lengthAdjust="spacing" textLength="73" x="1191.5" y="1747.5957">getDistrict()</text><ellipse cx="1182.5" cy="1759.8828" fill="#84BE84" rx="3" ry="3" style="stroke:#038048;stroke-width:1.0;"/><text fill="#000000" font-family="sans-serif" font-size="14" lengthAdjust="spacing" textLength="63" x="1191.5" y="1763.2363">getState()</text><ellipse cx="1182.5" cy="1775.5234" fill="#84BE84" rx="3" ry="3" style="stroke:#038048;stroke-width:1.0;"/><text fill="#000000" font-family="sans-serif" font-size="14" lengthAdjust="spacing" textLength="266" x="1191.5" y="1778.877">Adress(state, district, city, street, zipCode)</text></g><!--class Residence--><g id="elem_Residence"><rect codeLine="58" fill="#F1F1F1" height="94.9219" id="Residence" rx="2.5" ry="2.5" style="stroke:#181818;stroke-width:0.5;" width="204" x="1543.5" y="1847"/><ellipse cx="1607.75" cy="1863" fill="#ADD1B2" rx="11" ry="11" style="stroke:#181818;stroke-width:1.0;"/><path d="M1609.75,1859.5 Q1609.9531,1859 1610.1875,1858.75 Q1610.4219,1858.5 1610.6875,1858.5 Q1611.1563,1858.5 1611.4531,1858.7813 Q1611.75,1859.0625 1611.75,1859.7188 L1611.75,1861.2813 Q1611.75,1861.9375 1611.4688,1862.2188 Q1611.1875,1862.5 1610.75,1862.5 Q1610.3594,1862.5 1610.1094,1862.3281 Q1609.8594,1862.1563 1609.75,1861.7031 Q1609.7031,1861.3906 1609.5313,1861.2188 Q1609.2188,1860.8906 1608.6563,1860.7031 Q1608.0938,1860.5 1607.5313,1860.5 Q1606.8281,1860.5 1606.2344,1860.7813 Q1605.6563,1861.0625 1605.2031,1861.6875 Q1604.75,1862.3125 1604.75,1863.1719 L1604.75,1864.0938 Q1604.75,1865.125 1605.5938,1865.8125 Q1606.4375,1866.5 1607.9375,1866.5 Q1608.8281,1866.5 1609.4531,1866.2969 Q1609.8125,1866.1875 1610.2188,1865.8281 Q1610.4844,1865.625 1610.625,1865.5625 Q1610.7656,1865.5 1610.9375,1865.5 Q1611.2656,1865.5 1611.5,1865.7656 Q1611.75,1866.0156 1611.75,1866.375 Q1611.75,1866.7188 1611.4063,1867.125 Q1610.9063,1867.7188 1610.1094,1868.0469 Q1609.0625,1868.5 1607.7813,1868.5 Q1606.2813,1868.5 1605.0781,1867.9063 Q1604.1094,1867.4375 1603.4219,1866.4219 Q1602.75,1865.4063 1602.75,1864.2031 L1602.75,1863.1094 Q1602.75,1861.8594 1603.3438,1860.7656 Q1603.9531,1859.6719 1605,1859.0938 Q1606.0625,1858.5 1607.25,1858.5 Q1607.9688,1858.5 1608.5938,1858.75 Q1609.2188,1859 1609.75,1859.5 Z " fill="#000000"/><text fill="#000000" font-family="sans-serif" font-size="14" lengthAdjust="spacing" textLength="67" x="1628.25" y="1867.8535">Residence</text><line style="stroke:#181818;stroke-width:0.5;" x1="1544.5" x2="1746.5" y1="1879" y2="1879"/><rect fill="none" height="6" style="stroke:#C82930;stroke-width:1.0;" width="6" x="1551.5" y="1889.3203"/><text fill="#000000" font-family="sans-serif" font-size="14" lengthAdjust="spacing" textLength="143" x="1563.5" y="1895.6738">int numberofBedrooms</text><rect fill="none" height="6" style="stroke:#C82930;stroke-width:1.0;" width="6" x="1551.5" y="1904.9609"/><text fill="#000000" font-family="sans-serif" font-size="14" lengthAdjust="spacing" textLength="147" x="1563.5" y="1911.3145">int numberofBathrooms</text><rect fill="none" height="6" style="stroke:#C82930;stroke-width:1.0;" width="6" x="1551.5" y="1920.6016"/><text fill="#000000" font-family="sans-serif" font-size="14" lengthAdjust="spacing" textLength="178" x="1563.5" y="1926.9551">int numberofParking Spaces</text><line style="stroke:#181818;stroke-width:0.5;" x1="1544.5" x2="1746.5" y1="1933.9219" y2="1933.9219"/></g><!--class House--><g id="elem_House"><rect codeLine="64" fill="#F1F1F1" height="79.2813" id="House" rx="2.5" ry="2.5" style="stroke:#181818;stroke-width:0.5;" width="155" x="1472" y="2018"/><ellipse cx="1525.25" cy="2034" fill="#ADD1B2" rx="11" ry="11" style="stroke:#181818;stroke-width:1.0;"/><path d="M1527.25,2030.5 Q1527.4531,2030 1527.6875,2029.75 Q1527.9219,2029.5 1528.1875,2029.5 Q1528.6563,2029.5 1528.9531,2029.7813 Q1529.25,2030.0625 1529.25,2030.7188 L1529.25,2032.2813 Q1529.25,2032.9375 1528.9688,2033.2188 Q1528.6875,2033.5 1528.25,2033.5 Q1527.8594,2033.5 1527.6094,2033.3281 Q1527.3594,2033.1563 1527.25,2032.7031 Q1527.2031,2032.3906 1527.0313,2032.2188 Q1526.7188,2031.8906 1526.1563,2031.7031 Q1525.5938,2031.5 1525.0313,2031.5 Q1524.3281,2031.5 1523.7344,2031.7813 Q1523.1563,2032.0625 1522.7031,2032.6875 Q1522.25,2033.3125 1522.25,2034.1719 L1522.25,2035.0938 Q1522.25,2036.125 1523.0938,2036.8125 Q1523.9375,2037.5 1525.4375,2037.5 Q1526.3281,2037.5 1526.9531,2037.2969 Q1527.3125,2037.1875 1527.7188,2036.8281 Q1527.9844,2036.625 1528.125,2036.5625 Q1528.2656,2036.5 1528.4375,2036.5 Q1528.7656,2036.5 1529,2036.7656 Q1529.25,2037.0156 1529.25,2037.375 Q1529.25,2037.7188 1528.9063,2038.125 Q1528.4063,2038.7188 1527.6094,2039.0469 Q1526.5625,2039.5 1525.2813,2039.5 Q1523.7813,2039.5 1522.5781,2038.9063 Q1521.6094,2038.4375 1520.9219,2037.4219 Q1520.25,2036.4063 1520.25,2035.2031 L1520.25,2034.1094 Q1520.25,2032.8594 1520.8438,2031.7656 Q1521.4531,2030.6719 1522.5,2030.0938 Q1523.5625,2029.5 1524.75,2029.5 Q1525.4688,2029.5 1526.0938,2029.75 Q1526.7188,2030 1527.25,2030.5 Z " fill="#000000"/><text fill="#000000" font-family="sans-serif" font-size="14" lengthAdjust="spacing" textLength="40" x="1545.75" y="2038.8535">House</text><line style="stroke:#181818;stroke-width:0.5;" x1="1473" x2="1626" y1="2050" y2="2050"/><rect fill="none" height="6" style="stroke:#C82930;stroke-width:1.0;" width="6" x="1480" y="2060.3203"/><text fill="#000000" font-family="sans-serif" font-size="14" lengthAdjust="spacing" textLength="103" x="1492" y="2066.6738">String basement</text><rect fill="none" height="6" style="stroke:#C82930;stroke-width:1.0;" width="6" x="1480" y="2075.9609"/><text fill="#000000" font-family="sans-serif" font-size="14" lengthAdjust="spacing" textLength="129" x="1492" y="2082.3145">String inhabitableloft</text><line style="stroke:#181818;stroke-width:0.5;" x1="1473" x2="1626" y1="2089.2813" y2="2089.2813"/></g><!--class SunExposure--><g id="elem_SunExposure"><rect codeLine="69" fill="#F1F1F1" height="63.6406" id="SunExposure" rx="2.5" ry="2.5" style="stroke:#181818;stroke-width:0.5;" width="121" x="1489" y="2173"/><ellipse cx="1506.25" cy="2189" fill="#ADD1B2" rx="11" ry="11" style="stroke:#181818;stroke-width:1.0;"/><path d="M1508.25,2185.5 Q1508.4531,2185 1508.6875,2184.75 Q1508.9219,2184.5 1509.1875,2184.5 Q1509.6563,2184.5 1509.9531,2184.7813 Q1510.25,2185.0625 1510.25,2185.7188 L1510.25,2187.2813 Q1510.25,2187.9375 1509.9688,2188.2188 Q1509.6875,2188.5 1509.25,2188.5 Q1508.8594,2188.5 1508.6094,2188.3281 Q1508.3594,2188.1563 1508.25,2187.7031 Q1508.2031,2187.3906 1508.0313,2187.2188 Q1507.7188,2186.8906 1507.1563,2186.7031 Q1506.5938,2186.5 1506.0313,2186.5 Q1505.3281,2186.5 1504.7344,2186.7813 Q1504.1563,2187.0625 1503.7031,2187.6875 Q1503.25,2188.3125 1503.25,2189.1719 L1503.25,2190.0938 Q1503.25,2191.125 1504.0938,2191.8125 Q1504.9375,2192.5 1506.4375,2192.5 Q1507.3281,2192.5 1507.9531,2192.2969 Q1508.3125,2192.1875 1508.7188,2191.8281 Q1508.9844,2191.625 1509.125,2191.5625 Q1509.2656,2191.5 1509.4375,2191.5 Q1509.7656,2191.5 1510,2191.7656 Q1510.25,2192.0156 1510.25,2192.375 Q1510.25,2192.7188 1509.9063,2193.125 Q1509.4063,2193.7188 1508.6094,2194.0469 Q1507.5625,2194.5 1506.2813,2194.5 Q1504.7813,2194.5 1503.5781,2193.9063 Q1502.6094,2193.4375 1501.9219,2192.4219 Q1501.25,2191.4063 1501.25,2190.2031 L1501.25,2189.1094 Q1501.25,2187.8594 1501.8438,2186.7656 Q1502.4531,2185.6719 1503.5,2185.0938 Q1504.5625,2184.5 1505.75,2184.5 Q1506.4688,2184.5 1507.0938,2184.75 Q1507.7188,2185 1508.25,2185.5 Z " fill="#000000"/><text fill="#000000" font-family="sans-serif" font-size="14" lengthAdjust="spacing" textLength="84" x="1520.75" y="2193.8535">SunExposure</text><line style="stroke:#181818;stroke-width:0.5;" x1="1490" x2="1609" y1="2205" y2="2205"/><rect fill="none" height="6" style="stroke:#C82930;stroke-width:1.0;" width="6" x="1497" y="2215.3203"/><text fill="#000000" font-family="sans-serif" font-size="14" lengthAdjust="spacing" textLength="95" x="1509" y="2221.6738">String direction</text><line style="stroke:#181818;stroke-width:0.5;" x1="1490" x2="1609" y1="2228.6406" y2="2228.6406"/></g><!--class AvailableEquipment--><g id="elem_AvailableEquipment"><rect codeLine="73" fill="#F1F1F1" height="63.6406" id="AvailableEquipment" rx="2.5" ry="2.5" style="stroke:#181818;stroke-width:0.5;" width="156" x="1662.5" y="2025.5"/><ellipse cx="1677.5" cy="2041.5" fill="#ADD1B2" rx="11" ry="11" style="stroke:#181818;stroke-width:1.0;"/><path d="M1679.5,2038 Q1679.7031,2037.5 1679.9375,2037.25 Q1680.1719,2037 1680.4375,2037 Q1680.9063,2037 1681.2031,2037.2813 Q1681.5,2037.5625 1681.5,2038.2188 L1681.5,2039.7813 Q1681.5,2040.4375 1681.2188,2040.7188 Q1680.9375,2041 1680.5,2041 Q1680.1094,2041 1679.8594,2040.8281 Q1679.6094,2040.6563 1679.5,2040.2031 Q1679.4531,2039.8906 1679.2813,2039.7188 Q1678.9688,2039.3906 1678.4063,2039.2031 Q1677.8438,2039 1677.2813,2039 Q1676.5781,2039 1675.9844,2039.2813 Q1675.4063,2039.5625 1674.9531,2040.1875 Q1674.5,2040.8125 1674.5,2041.6719 L1674.5,2042.5938 Q1674.5,2043.625 1675.3438,2044.3125 Q1676.1875,2045 1677.6875,2045 Q1678.5781,2045 1679.2031,2044.7969 Q1679.5625,2044.6875 1679.9688,2044.3281 Q1680.2344,2044.125 1680.375,2044.0625 Q1680.5156,2044 1680.6875,2044 Q1681.0156,2044 1681.25,2044.2656 Q1681.5,2044.5156 1681.5,2044.875 Q1681.5,2045.2188 1681.1563,2045.625 Q1680.6563,2046.2188 1679.8594,2046.5469 Q1678.8125,2047 1677.5313,2047 Q1676.0313,2047 1674.8281,2046.4063 Q1673.8594,2045.9375 1673.1719,2044.9219 Q1672.5,2043.9063 1672.5,2042.7031 L1672.5,2041.6094 Q1672.5,2040.3594 1673.0938,2039.2656 Q1673.7031,2038.1719 1674.75,2037.5938 Q1675.8125,2037 1677,2037 Q1677.7188,2037 1678.3438,2037.25 Q1678.9688,2037.5 1679.5,2038 Z " fill="#000000"/><text fill="#000000" font-family="sans-serif" font-size="14" lengthAdjust="spacing" textLength="124" x="1691.5" y="2046.3535">AvailableEquipment</text><line style="stroke:#181818;stroke-width:0.5;" x1="1663.5" x2="1817.5" y1="2057.5" y2="2057.5"/><rect fill="none" height="6" style="stroke:#C82930;stroke-width:1.0;" width="6" x="1670.5" y="2067.8203"/><text fill="#000000" font-family="sans-serif" font-size="14" lengthAdjust="spacing" textLength="107" x="1682.5" y="2074.1738">String equipment</text><line style="stroke:#181818;stroke-width:0.5;" x1="1663.5" x2="1817.5" y1="2081.1406" y2="2081.1406"/></g><!--class Business--><g id="elem_Business"><rect codeLine="78" fill="#F1F1F1" height="63.6406" id="Business" rx="2.5" ry="2.5" style="stroke:#181818;stroke-width:0.5;" width="126" x="1070.5" y="1145.5"/><ellipse cx="1102.15" cy="1161.5" fill="#ADD1B2" rx="11" ry="11" style="stroke:#181818;stroke-width:1.0;"/><path d="M1104.15,1158 Q1104.3531,1157.5 1104.5875,1157.25 Q1104.8219,1157 1105.0875,1157 Q1105.5563,1157 1105.8531,1157.2813 Q1106.15,1157.5625 1106.15,1158.2188 L1106.15,1159.7813 Q1106.15,1160.4375 1105.8688,1160.7188 Q1105.5875,1161 1105.15,1161 Q1104.7594,1161 1104.5094,1160.8281 Q1104.2594,1160.6563 1104.15,1160.2031 Q1104.1031,1159.8906 1103.9313,1159.7188 Q1103.6188,1159.3906 1103.0563,1159.2031 Q1102.4938,1159 1101.9313,1159 Q1101.2281,1159 1100.6344,1159.2813 Q1100.0563,1159.5625 1099.6031,1160.1875 Q1099.15,1160.8125 1099.15,1161.6719 L1099.15,1162.5938 Q1099.15,1163.625 1099.9938,1164.3125 Q1100.8375,1165 1102.3375,1165 Q1103.2281,1165 1103.8531,1164.7969 Q1104.2125,1164.6875 1104.6188,1164.3281 Q1104.8844,1164.125 1105.025,1164.0625 Q1105.1656,1164 1105.3375,1164 Q1105.6656,1164 1105.9,1164.2656 Q1106.15,1164.5156 1106.15,1164.875 Q1106.15,1165.2188 1105.8063,1165.625 Q1105.3063,1166.2188 1104.5094,1166.5469 Q1103.4625,1167 1102.1813,1167 Q1100.6813,1167 1099.4781,1166.4063 Q1098.5094,1165.9375 1097.8219,1164.9219 Q1097.15,1163.9063 1097.15,1162.7031 L1097.15,1161.6094 Q1097.15,1160.3594 1097.7438,1159.2656 Q1098.3531,1158.1719 1099.4,1157.5938 Q1100.4625,1157 1101.65,1157 Q1102.3688,1157 1102.9938,1157.25 Q1103.6188,1157.5 1104.15,1158 Z " fill="#000000"/><text fill="#000000" font-family="sans-serif" font-size="14" lengthAdjust="spacing" textLength="57" x="1119.85" y="1166.3535">Business</text><line style="stroke:#181818;stroke-width:0.5;" x1="1071.5" x2="1195.5" y1="1177.5" y2="1177.5"/><rect fill="none" height="6" style="stroke:#C82930;stroke-width:1.0;" width="6" x="1078.5" y="1187.8203"/><text fill="#000000" font-family="sans-serif" font-size="14" lengthAdjust="spacing" textLength="100" x="1090.5" y="1194.1738">String totalPrice</text><line style="stroke:#181818;stroke-width:0.5;" x1="1071.5" x2="1195.5" y1="1201.1406" y2="1201.1406"/></g><!--class District--><g id="elem_District"><rect codeLine="83" fill="#F1F1F1" height="110.5625" id="District" rx="2.5" ry="2.5" style="stroke:#181818;stroke-width:0.5;" width="144" x="745.5" y="1659.5"/><ellipse cx="791.75" cy="1675.5" fill="#ADD1B2" rx="11" ry="11" style="stroke:#181818;stroke-width:1.0;"/><path d="M793.75,1672 Q793.9531,1671.5 794.1875,1671.25 Q794.4219,1671 794.6875,1671 Q795.1563,1671 795.4531,1671.2813 Q795.75,1671.5625 795.75,1672.2188 L795.75,1673.7813 Q795.75,1674.4375 795.4688,1674.7188 Q795.1875,1675 794.75,1675 Q794.3594,1675 794.1094,1674.8281 Q793.8594,1674.6563 793.75,1674.2031 Q793.7031,1673.8906 793.5313,1673.7188 Q793.2188,1673.3906 792.6563,1673.2031 Q792.0938,1673 791.5313,1673 Q790.8281,1673 790.2344,1673.2813 Q789.6563,1673.5625 789.2031,1674.1875 Q788.75,1674.8125 788.75,1675.6719 L788.75,1676.5938 Q788.75,1677.625 789.5938,1678.3125 Q790.4375,1679 791.9375,1679 Q792.8281,1679 793.4531,1678.7969 Q793.8125,1678.6875 794.2188,1678.3281 Q794.4844,1678.125 794.625,1678.0625 Q794.7656,1678 794.9375,1678 Q795.2656,1678 795.5,1678.2656 Q795.75,1678.5156 795.75,1678.875 Q795.75,1679.2188 795.4063,1679.625 Q794.9063,1680.2188 794.1094,1680.5469 Q793.0625,1681 791.7813,1681 Q790.2813,1681 789.0781,1680.4063 Q788.1094,1679.9375 787.4219,1678.9219 Q786.75,1677.9063 786.75,1676.7031 L786.75,1675.6094 Q786.75,1674.3594 787.3438,1673.2656 Q787.9531,1672.1719 789,1671.5938 Q790.0625,1671 791.25,1671 Q791.9688,1671 792.5938,1671.25 Q793.2188,1671.5 793.75,1672 Z " fill="#000000"/><text fill="#000000" font-family="sans-serif" font-size="14" lengthAdjust="spacing" textLength="43" x="812.25" y="1680.3535">District</text><line style="stroke:#181818;stroke-width:0.5;" x1="746.5" x2="888.5" y1="1691.5" y2="1691.5"/><rect fill="none" height="6" style="stroke:#C82930;stroke-width:1.0;" width="6" x="753.5" y="1701.8203"/><text fill="#000000" font-family="sans-serif" font-size="14" lengthAdjust="spacing" textLength="118" x="765.5" y="1708.1738">String districtName</text><line style="stroke:#181818;stroke-width:0.5;" x1="746.5" x2="888.5" y1="1715.1406" y2="1715.1406"/><ellipse cx="756.5" cy="1728.4609" fill="#84BE84" rx="3" ry="3" style="stroke:#038048;stroke-width:1.0;"/><text fill="#000000" font-family="sans-serif" font-size="14" lengthAdjust="spacing" textLength="109" x="765.5" y="1731.8145">getDistrictName()</text><ellipse cx="756.5" cy="1744.1016" fill="#84BE84" rx="3" ry="3" style="stroke:#038048;stroke-width:1.0;"/><text fill="#000000" font-family="sans-serif" font-size="14" lengthAdjust="spacing" textLength="65" x="765.5" y="1747.4551">getCities()</text><ellipse cx="756.5" cy="1759.7422" fill="#84BE84" rx="3" ry="3" style="stroke:#038048;stroke-width:1.0;"/><text fill="#000000" font-family="sans-serif" font-size="14" lengthAdjust="spacing" textLength="59" x="765.5" y="1763.0957">toString()</text></g><!--class City--><g id="elem_City"><rect codeLine="92" fill="#F1F1F1" height="79.2813" id="City" rx="2.5" ry="2.5" style="stroke:#181818;stroke-width:0.5;" width="116" x="555.5" y="1675.5"/><ellipse cx="597.5" cy="1691.5" fill="#ADD1B2" rx="11" ry="11" style="stroke:#181818;stroke-width:1.0;"/><path d="M599.5,1688 Q599.7031,1687.5 599.9375,1687.25 Q600.1719,1687 600.4375,1687 Q600.9063,1687 601.2031,1687.2813 Q601.5,1687.5625 601.5,1688.2188 L601.5,1689.7813 Q601.5,1690.4375 601.2188,1690.7188 Q600.9375,1691 600.5,1691 Q600.1094,1691 599.8594,1690.8281 Q599.6094,1690.6563 599.5,1690.2031 Q599.4531,1689.8906 599.2813,1689.7188 Q598.9688,1689.3906 598.4063,1689.2031 Q597.8438,1689 597.2813,1689 Q596.5781,1689 595.9844,1689.2813 Q595.4063,1689.5625 594.9531,1690.1875 Q594.5,1690.8125 594.5,1691.6719 L594.5,1692.5938 Q594.5,1693.625 595.3438,1694.3125 Q596.1875,1695 597.6875,1695 Q598.5781,1695 599.2031,1694.7969 Q599.5625,1694.6875 599.9688,1694.3281 Q600.2344,1694.125 600.375,1694.0625 Q600.5156,1694 600.6875,1694 Q601.0156,1694 601.25,1694.2656 Q601.5,1694.5156 601.5,1694.875 Q601.5,1695.2188 601.1563,1695.625 Q600.6563,1696.2188 599.8594,1696.5469 Q598.8125,1697 597.5313,1697 Q596.0313,1697 594.8281,1696.4063 Q593.8594,1695.9375 593.1719,1694.9219 Q592.5,1693.9063 592.5,1692.7031 L592.5,1691.6094 Q592.5,1690.3594 593.0938,1689.2656 Q593.7031,1688.1719 594.75,1687.5938 Q595.8125,1687 597,1687 Q597.7188,1687 598.3438,1687.25 Q598.9688,1687.5 599.5,1688 Z " fill="#000000"/><text fill="#000000" font-family="sans-serif" font-size="14" lengthAdjust="spacing" textLength="24" x="617.5" y="1696.3535">City</text><line style="stroke:#181818;stroke-width:0.5;" x1="556.5" x2="670.5" y1="1707.5" y2="1707.5"/><rect fill="none" height="6" style="stroke:#C82930;stroke-width:1.0;" width="6" x="563.5" y="1717.8203"/><text fill="#000000" font-family="sans-serif" font-size="14" lengthAdjust="spacing" textLength="62" x="575.5" y="1724.1738">String city</text><line style="stroke:#181818;stroke-width:0.5;" x1="556.5" x2="670.5" y1="1731.1406" y2="1731.1406"/><ellipse cx="566.5" cy="1744.4609" fill="#84BE84" rx="3" ry="3" style="stroke:#038048;stroke-width:1.0;"/><text fill="#000000" font-family="sans-serif" font-size="14" lengthAdjust="spacing" textLength="90" x="575.5" y="1747.8145">getCityName()</text></g><!--class Comission--><g id="elem_Comission"><rect codeLine="99" fill="#F1F1F1" height="63.6406" id="Comission" rx="2.5" ry="2.5" style="stroke:#181818;stroke-width:0.5;" width="109" x="1457" y="1426"/><ellipse cx="1477.4" cy="1442" fill="#ADD1B2" rx="11" ry="11" style="stroke:#181818;stroke-width:1.0;"/><path d="M1479.4,1438.5 Q1479.6031,1438 1479.8375,1437.75 Q1480.0719,1437.5 1480.3375,1437.5 Q1480.8063,1437.5 1481.1031,1437.7813 Q1481.4,1438.0625 1481.4,1438.7188 L1481.4,1440.2813 Q1481.4,1440.9375 1481.1188,1441.2188 Q1480.8375,1441.5 1480.4,1441.5 Q1480.0094,1441.5 1479.7594,1441.3281 Q1479.5094,1441.1563 1479.4,1440.7031 Q1479.3531,1440.3906 1479.1813,1440.2188 Q1478.8688,1439.8906 1478.3063,1439.7031 Q1477.7438,1439.5 1477.1813,1439.5 Q1476.4781,1439.5 1475.8844,1439.7813 Q1475.3063,1440.0625 1474.8531,1440.6875 Q1474.4,1441.3125 1474.4,1442.1719 L1474.4,1443.0938 Q1474.4,1444.125 1475.2438,1444.8125 Q1476.0875,1445.5 1477.5875,1445.5 Q1478.4781,1445.5 1479.1031,1445.2969 Q1479.4625,1445.1875 1479.8688,1444.8281 Q1480.1344,1444.625 1480.275,1444.5625 Q1480.4156,1444.5 1480.5875,1444.5 Q1480.9156,1444.5 1481.15,1444.7656 Q1481.4,1445.0156 1481.4,1445.375 Q1481.4,1445.7188 1481.0563,1446.125 Q1480.5563,1446.7188 1479.7594,1447.0469 Q1478.7125,1447.5 1477.4313,1447.5 Q1475.9313,1447.5 1474.7281,1446.9063 Q1473.7594,1446.4375 1473.0719,1445.4219 Q1472.4,1444.4063 1472.4,1443.2031 L1472.4,1442.1094 Q1472.4,1440.8594 1472.9938,1439.7656 Q1473.6031,1438.6719 1474.65,1438.0938 Q1475.7125,1437.5 1476.9,1437.5 Q1477.6188,1437.5 1478.2438,1437.75 Q1478.8688,1438 1479.4,1438.5 Z " fill="#000000"/><text fill="#000000" font-family="sans-serif" font-size="14" lengthAdjust="spacing" textLength="65" x="1492.6" y="1446.8535">Comission</text><line style="stroke:#181818;stroke-width:0.5;" x1="1458" x2="1565" y1="1458" y2="1458"/><rect fill="none" height="6" style="stroke:#C82930;stroke-width:1.0;" width="6" x="1465" y="1468.3203"/><text fill="#000000" font-family="sans-serif" font-size="14" lengthAdjust="spacing" textLength="83" x="1477" y="1474.6738">Double value</text><line style="stroke:#181818;stroke-width:0.5;" x1="1458" x2="1565" y1="1481.6406" y2="1481.6406"/></g><!--class Photos--><g id="elem_Photos"><rect codeLine="106" fill="#F1F1F1" height="63.6406" id="Photos" rx="2.5" ry="2.5" style="stroke:#181818;stroke-width:0.5;" width="88" x="1601.5" y="1426"/><ellipse cx="1621.9" cy="1442" fill="#ADD1B2" rx="11" ry="11" style="stroke:#181818;stroke-width:1.0;"/><path d="M1623.9,1438.5 Q1624.1031,1438 1624.3375,1437.75 Q1624.5719,1437.5 1624.8375,1437.5 Q1625.3063,1437.5 1625.6031,1437.7813 Q1625.9,1438.0625 1625.9,1438.7188 L1625.9,1440.2813 Q1625.9,1440.9375 1625.6188,1441.2188 Q1625.3375,1441.5 1624.9,1441.5 Q1624.5094,1441.5 1624.2594,1441.3281 Q1624.0094,1441.1563 1623.9,1440.7031 Q1623.8531,1440.3906 1623.6813,1440.2188 Q1623.3688,1439.8906 1622.8063,1439.7031 Q1622.2438,1439.5 1621.6813,1439.5 Q1620.9781,1439.5 1620.3844,1439.7813 Q1619.8063,1440.0625 1619.3531,1440.6875 Q1618.9,1441.3125 1618.9,1442.1719 L1618.9,1443.0938 Q1618.9,1444.125 1619.7438,1444.8125 Q1620.5875,1445.5 1622.0875,1445.5 Q1622.9781,1445.5 1623.6031,1445.2969 Q1623.9625,1445.1875 1624.3688,1444.8281 Q1624.6344,1444.625 1624.775,1444.5625 Q1624.9156,1444.5 1625.0875,1444.5 Q1625.4156,1444.5 1625.65,1444.7656 Q1625.9,1445.0156 1625.9,1445.375 Q1625.9,1445.7188 1625.5563,1446.125 Q1625.0563,1446.7188 1624.2594,1447.0469 Q1623.2125,1447.5 1621.9313,1447.5 Q1620.4313,1447.5 1619.2281,1446.9063 Q1618.2594,1446.4375 1617.5719,1445.4219 Q1616.9,1444.4063 1616.9,1443.2031 L1616.9,1442.1094 Q1616.9,1440.8594 1617.4938,1439.7656 Q1618.1031,1438.6719 1619.15,1438.0938 Q1620.2125,1437.5 1621.4,1437.5 Q1622.1188,1437.5 1622.7438,1437.75 Q1623.3688,1438 1623.9,1438.5 Z " fill="#000000"/><text fill="#000000" font-family="sans-serif" font-size="14" lengthAdjust="spacing" textLength="44" x="1637.1" y="1446.8535">Photos</text><line style="stroke:#181818;stroke-width:0.5;" x1="1602.5" x2="1688.5" y1="1458" y2="1458"/><rect fill="none" height="6" style="stroke:#C82930;stroke-width:1.0;" width="6" x="1609.5" y="1468.3203"/><text fill="#000000" font-family="sans-serif" font-size="14" lengthAdjust="spacing" textLength="62" x="1621.5" y="1474.6738">String uRI</text><line style="stroke:#181818;stroke-width:0.5;" x1="1602.5" x2="1688.5" y1="1481.6406" y2="1481.6406"/></g><!--class Property--><g id="elem_Property"><rect codeLine="110" fill="#F1F1F1" height="94.9219" id="Property" rx="2.5" ry="2.5" style="stroke:#181818;stroke-width:0.5;" width="223" x="1534" y="1667.5"/><ellipse cx="1614.25" cy="1683.5" fill="#ADD1B2" rx="11" ry="11" style="stroke:#181818;stroke-width:1.0;"/><path d="M1616.25,1680 Q1616.4531,1679.5 1616.6875,1679.25 Q1616.9219,1679 1617.1875,1679 Q1617.6563,1679 1617.9531,1679.2813 Q1618.25,1679.5625 1618.25,1680.2188 L1618.25,1681.7813 Q1618.25,1682.4375 1617.9688,1682.7188 Q1617.6875,1683 1617.25,1683 Q1616.8594,1683 1616.6094,1682.8281 Q1616.3594,1682.6563 1616.25,1682.2031 Q1616.2031,1681.8906 1616.0313,1681.7188 Q1615.7188,1681.3906 1615.1563,1681.2031 Q1614.5938,1681 1614.0313,1681 Q1613.3281,1681 1612.7344,1681.2813 Q1612.1563,1681.5625 1611.7031,1682.1875 Q1611.25,1682.8125 1611.25,1683.6719 L1611.25,1684.5938 Q1611.25,1685.625 1612.0938,1686.3125 Q1612.9375,1687 1614.4375,1687 Q1615.3281,1687 1615.9531,1686.7969 Q1616.3125,1686.6875 1616.7188,1686.3281 Q1616.9844,1686.125 1617.125,1686.0625 Q1617.2656,1686 1617.4375,1686 Q1617.7656,1686 1618,1686.2656 Q1618.25,1686.5156 1618.25,1686.875 Q1618.25,1687.2188 1617.9063,1687.625 Q1617.4063,1688.2188 1616.6094,1688.5469 Q1615.5625,1689 1614.2813,1689 Q1612.7813,1689 1611.5781,1688.4063 Q1610.6094,1687.9375 1609.9219,1686.9219 Q1609.25,1685.9063 1609.25,1684.7031 L1609.25,1683.6094 Q1609.25,1682.3594 1609.8438,1681.2656 Q1610.4531,1680.1719 1611.5,1679.5938 Q1612.5625,1679 1613.75,1679 Q1614.4688,1679 1615.0938,1679.25 Q1615.7188,1679.5 1616.25,1680 Z " fill="#000000"/><text fill="#000000" font-family="sans-serif" font-size="14" lengthAdjust="spacing" textLength="54" x="1634.75" y="1688.3535">Property</text><line style="stroke:#181818;stroke-width:0.5;" x1="1535" x2="1756" y1="1699.5" y2="1699.5"/><rect fill="none" height="6" style="stroke:#C82930;stroke-width:1.0;" width="6" x="1542" y="1709.8203"/><text fill="#000000" font-family="sans-serif" font-size="14" lengthAdjust="spacing" textLength="48" x="1554" y="1716.1738">int area</text><rect fill="none" height="6" style="stroke:#C82930;stroke-width:1.0;" width="6" x="1542" y="1725.4609"/><text fill="#000000" font-family="sans-serif" font-size="14" lengthAdjust="spacing" textLength="91" x="1554" y="1731.8145">Photos photos</text><rect fill="none" height="6" style="stroke:#C82930;stroke-width:1.0;" width="6" x="1542" y="1741.1016"/><text fill="#000000" font-family="sans-serif" font-size="14" lengthAdjust="spacing" textLength="197" x="1554" y="1747.4551">int distance from the city center</text><line style="stroke:#181818;stroke-width:0.5;" x1="1535" x2="1756" y1="1754.4219" y2="1754.4219"/></g><!--class PublishedAnnouncement--><g id="elem_PublishedAnnouncement"><rect codeLine="116" fill="#F1F1F1" height="220.0469" id="PublishedAnnouncement" rx="2.5" ry="2.5" style="stroke:#181818;stroke-width:0.5;" width="237" x="989" y="1348"/><ellipse cx="1025.6" cy="1364" fill="#ADD1B2" rx="11" ry="11" style="stroke:#181818;stroke-width:1.0;"/><path d="M1027.6,1360.5 Q1027.8031,1360 1028.0375,1359.75 Q1028.2719,1359.5 1028.5375,1359.5 Q1029.0063,1359.5 1029.3031,1359.7813 Q1029.6,1360.0625 1029.6,1360.7188 L1029.6,1362.2813 Q1029.6,1362.9375 1029.3188,1363.2188 Q1029.0375,1363.5 1028.6,1363.5 Q1028.2094,1363.5 1027.9594,1363.3281 Q1027.7094,1363.1563 1027.6,1362.7031 Q1027.5531,1362.3906 1027.3813,1362.2188 Q1027.0688,1361.8906 1026.5063,1361.7031 Q1025.9438,1361.5 1025.3813,1361.5 Q1024.6781,1361.5 1024.0844,1361.7813 Q1023.5062,1362.0625 1023.0531,1362.6875 Q1022.6,1363.3125 1022.6,1364.1719 L1022.6,1365.0938 Q1022.6,1366.125 1023.4437,1366.8125 Q1024.2875,1367.5 1025.7875,1367.5 Q1026.6781,1367.5 1027.3031,1367.2969 Q1027.6625,1367.1875 1028.0688,1366.8281 Q1028.3344,1366.625 1028.475,1366.5625 Q1028.6156,1366.5 1028.7875,1366.5 Q1029.1156,1366.5 1029.35,1366.7656 Q1029.6,1367.0156 1029.6,1367.375 Q1029.6,1367.7188 1029.2563,1368.125 Q1028.7563,1368.7188 1027.9594,1369.0469 Q1026.9125,1369.5 1025.6313,1369.5 Q1024.1313,1369.5 1022.9281,1368.9063 Q1021.9594,1368.4375 1021.2719,1367.4219 Q1020.6,1366.4063 1020.6,1365.2031 L1020.6,1364.1094 Q1020.6,1362.8594 1021.1937,1361.7656 Q1021.8031,1360.6719 1022.85,1360.0938 Q1023.9125,1359.5 1025.1,1359.5 Q1025.8188,1359.5 1026.4438,1359.75 Q1027.0688,1360 1027.6,1360.5 Z " fill="#000000"/><text fill="#000000" font-family="sans-serif" font-size="14" lengthAdjust="spacing" textLength="157" x="1044.4" y="1368.8535">PublishedAnnouncement</text><line style="stroke:#181818;stroke-width:0.5;" x1="990" x2="1225" y1="1380" y2="1380"/><rect fill="none" height="6" style="stroke:#C82930;stroke-width:1.0;" width="6" x="997" y="1390.3203"/><text fill="#000000" font-family="sans-serif" font-size="14" lengthAdjust="spacing" textLength="66" x="1009" y="1396.6738">Date date;</text><rect fill="none" height="6" style="stroke:#C82930;stroke-width:1.0;" width="6" x="997" y="1405.9609"/><text fill="#000000" font-family="sans-serif" font-size="14" lengthAdjust="spacing" textLength="211" x="1009" y="1412.3145">TypeOfBusiness typeOfBusiness;</text><rect fill="none" height="6" style="stroke:#C82930;stroke-width:1.0;" width="6" x="997" y="1421.6016"/><text fill="#000000" font-family="sans-serif" font-size="14" lengthAdjust="spacing" textLength="115" x="1009" y="1427.9551">Property property;</text><rect fill="none" height="6" style="stroke:#C82930;stroke-width:1.0;" width="6" x="997" y="1437.2422"/><text fill="#000000" font-family="sans-serif" font-size="14" lengthAdjust="spacing" textLength="179" x="1009" y="1443.5957">PropertyType propertyType;</text><rect fill="none" height="6" style="stroke:#C82930;stroke-width:1.0;" width="6" x="997" y="1452.8828"/><text fill="#000000" font-family="sans-serif" font-size="14" lengthAdjust="spacing" textLength="135" x="1009" y="1459.2363">Comission comission;</text><rect fill="none" height="6" style="stroke:#C82930;stroke-width:1.0;" width="6" x="997" y="1468.5234"/><text fill="#000000" font-family="sans-serif" font-size="14" lengthAdjust="spacing" textLength="121" x="1009" y="1474.877">Business business;</text><rect fill="none" height="6" style="stroke:#C82930;stroke-width:1.0;" width="6" x="997" y="1484.1641"/><text fill="#000000" font-family="sans-serif" font-size="14" lengthAdjust="spacing" textLength="144" x="1009" y="1490.5176">int durationOfContract;</text><rect fill="none" height="6" style="stroke:#C82930;stroke-width:1.0;" width="6" x="997" y="1499.8047"/><text fill="#000000" font-family="sans-serif" font-size="14" lengthAdjust="spacing" textLength="106" x="1009" y="1506.1582">Employee agent;</text><rect fill="none" height="6" style="stroke:#C82930;stroke-width:1.0;" width="6" x="997" y="1515.4453"/><text fill="#000000" font-family="sans-serif" font-size="14" lengthAdjust="spacing" textLength="77" x="1009" y="1521.7988">Client client;</text><rect fill="none" height="6" style="stroke:#C82930;stroke-width:1.0;" width="6" x="997" y="1531.0859"/><text fill="#000000" font-family="sans-serif" font-size="14" lengthAdjust="spacing" textLength="89" x="1009" y="1537.4395">int propertyID;</text><rect fill="none" height="6" style="stroke:#C82930;stroke-width:1.0;" width="6" x="997" y="1546.7266"/><text fill="#000000" font-family="sans-serif" font-size="14" lengthAdjust="spacing" textLength="74" x="1009" y="1553.0801">Store store;</text><line style="stroke:#181818;stroke-width:0.5;" x1="990" x2="1225" y1="1560.0469" y2="1560.0469"/></g><!--class AnnouncementState--><g id="elem_AnnouncementState"><rect codeLine="130" fill="#F1F1F1" height="79.2813" id="AnnouncementState" rx="2.5" ry="2.5" style="stroke:#181818;stroke-width:0.5;" width="160" x="1261.5" y="1418.5"/><ellipse cx="1276.5" cy="1434.5" fill="#EB937F" rx="11" ry="11" style="stroke:#181818;stroke-width:1.0;"/><path d="M1275,1435.5 L1275,1437.5 L1279,1437.5 L1279,1436.5 L1279,1436.0156 L1279.625,1435.5 L1280,1435.5 L1280.375,1435.5 L1281,1436.0156 L1281,1436.5 L1281,1439.5 L1273,1439.5 L1272.5156,1439.5 L1272,1438.875 L1272,1438.5 L1272,1438.125 L1272.5156,1437.5 L1273,1437.5 L1273,1437.5 L1273,1431.5 L1273,1431.5 L1272.5156,1431.5 L1272,1430.875 L1272,1430.5 L1272,1430.125 L1272.5156,1429.5 L1273,1429.5 L1281,1429.5 L1281,1432.5 L1281,1432.9844 L1280.375,1433.5 L1280,1433.5 L1279.625,1433.5 L1279,1432.9844 L1279,1432.5 L1279,1431.5 L1275,1431.5 L1275,1433.5 L1276,1433.5 L1276,1433.0156 L1276,1433.0156 L1276.625,1432.5 L1277,1432.5 L1277.375,1432.5 L1278,1433.0156 L1278,1433.5 L1278,1435.5 L1278,1435.9844 L1277.375,1436.5 L1277.375,1436.5 L1277,1436.5 L1276.625,1436.5 L1276,1435.9844 L1276,1435.9844 L1276,1435.5 L1275,1435.5 Z " fill="#000000"/><text fill="#000000" font-family="sans-serif" font-size="14" lengthAdjust="spacing" textLength="128" x="1290.5" y="1439.3535">AnnouncementState</text><line style="stroke:#181818;stroke-width:0.5;" x1="1262.5" x2="1420.5" y1="1450.5" y2="1450.5"/><rect fill="none" height="6" style="stroke:#C82930;stroke-width:1.0;" width="6" x="1269.5" y="1460.8203"/><text fill="#000000" font-family="sans-serif" font-size="14" lengthAdjust="spacing" textLength="97" x="1281.5" y="1467.1738">String available</text><rect fill="none" height="6" style="stroke:#C82930;stroke-width:1.0;" width="6" x="1269.5" y="1476.4609"/><text fill="#000000" font-family="sans-serif" font-size="14" lengthAdjust="spacing" textLength="67" x="1281.5" y="1482.8145">String sold</text><line style="stroke:#181818;stroke-width:0.5;" x1="1262.5" x2="1420.5" y1="1489.7813" y2="1489.7813"/></g><!--class State--><g id="elem_State"><rect codeLine="135" fill="#F1F1F1" height="110.5625" id="State" rx="2.5" ry="2.5" style="stroke:#181818;stroke-width:0.5;" width="134" x="963.5" y="1659.5"/><ellipse cx="1009.75" cy="1675.5" fill="#ADD1B2" rx="11" ry="11" style="stroke:#181818;stroke-width:1.0;"/><path d="M1011.75,1672 Q1011.9531,1671.5 1012.1875,1671.25 Q1012.4219,1671 1012.6875,1671 Q1013.1563,1671 1013.4531,1671.2813 Q1013.75,1671.5625 1013.75,1672.2188 L1013.75,1673.7813 Q1013.75,1674.4375 1013.4688,1674.7188 Q1013.1875,1675 1012.75,1675 Q1012.3594,1675 1012.1094,1674.8281 Q1011.8594,1674.6563 1011.75,1674.2031 Q1011.7031,1673.8906 1011.5313,1673.7188 Q1011.2188,1673.3906 1010.6563,1673.2031 Q1010.0938,1673 1009.5313,1673 Q1008.8281,1673 1008.2344,1673.2813 Q1007.6563,1673.5625 1007.2031,1674.1875 Q1006.75,1674.8125 1006.75,1675.6719 L1006.75,1676.5938 Q1006.75,1677.625 1007.5938,1678.3125 Q1008.4375,1679 1009.9375,1679 Q1010.8281,1679 1011.4531,1678.7969 Q1011.8125,1678.6875 1012.2188,1678.3281 Q1012.4844,1678.125 1012.625,1678.0625 Q1012.7656,1678 1012.9375,1678 Q1013.2656,1678 1013.5,1678.2656 Q1013.75,1678.5156 1013.75,1678.875 Q1013.75,1679.2188 1013.4063,1679.625 Q1012.9063,1680.2188 1012.1094,1680.5469 Q1011.0625,1681 1009.7813,1681 Q1008.2813,1681 1007.0781,1680.4063 Q1006.1094,1679.9375 1005.4219,1678.9219 Q1004.75,1677.9063 1004.75,1676.7031 L1004.75,1675.6094 Q1004.75,1674.3594 1005.3438,1673.2656 Q1005.9531,1672.1719 1007,1671.5938 Q1008.0625,1671 1009.25,1671 Q1009.9688,1671 1010.5938,1671.25 Q1011.2188,1671.5 1011.75,1672 Z " fill="#000000"/><text fill="#000000" font-family="sans-serif" font-size="14" lengthAdjust="spacing" textLength="33" x="1030.25" y="1680.3535">State</text><line style="stroke:#181818;stroke-width:0.5;" x1="964.5" x2="1096.5" y1="1691.5" y2="1691.5"/><rect fill="none" height="6" style="stroke:#C82930;stroke-width:1.0;" width="6" x="971.5" y="1701.8203"/><text fill="#000000" font-family="sans-serif" font-size="14" lengthAdjust="spacing" textLength="108" x="983.5" y="1708.1738">String stateName</text><line style="stroke:#181818;stroke-width:0.5;" x1="964.5" x2="1096.5" y1="1715.1406" y2="1715.1406"/><ellipse cx="974.5" cy="1728.4609" fill="#84BE84" rx="3" ry="3" style="stroke:#038048;stroke-width:1.0;"/><text fill="#000000" font-family="sans-serif" font-size="14" lengthAdjust="spacing" textLength="63" x="983.5" y="1731.8145">getState()</text><ellipse cx="974.5" cy="1744.1016" fill="#84BE84" rx="3" ry="3" style="stroke:#038048;stroke-width:1.0;"/><text fill="#000000" font-family="sans-serif" font-size="14" lengthAdjust="spacing" textLength="80" x="983.5" y="1747.4551">getDistricts()</text><ellipse cx="974.5" cy="1759.7422" fill="#84BE84" rx="3" ry="3" style="stroke:#038048;stroke-width:1.0;"/><text fill="#000000" font-family="sans-serif" font-size="14" lengthAdjust="spacing" textLength="59" x="983.5" y="1763.0957">toString()</text></g><!--class TypeOfProperty--><g id="elem_TypeOfProperty"><rect codeLine="146" fill="#F1F1F1" height="63.6406" id="TypeOfProperty" rx="2.5" ry="2.5" style="stroke:#181818;stroke-width:0.5;" width="133" x="1725" y="1426"/><ellipse cx="1740" cy="1442" fill="#ADD1B2" rx="11" ry="11" style="stroke:#181818;stroke-width:1.0;"/><path d="M1742,1438.5 Q1742.2031,1438 1742.4375,1437.75 Q1742.6719,1437.5 1742.9375,1437.5 Q1743.4063,1437.5 1743.7031,1437.7813 Q1744,1438.0625 1744,1438.7188 L1744,1440.2813 Q1744,1440.9375 1743.7188,1441.2188 Q1743.4375,1441.5 1743,1441.5 Q1742.6094,1441.5 1742.3594,1441.3281 Q1742.1094,1441.1563 1742,1440.7031 Q1741.9531,1440.3906 1741.7813,1440.2188 Q1741.4688,1439.8906 1740.9063,1439.7031 Q1740.3438,1439.5 1739.7813,1439.5 Q1739.0781,1439.5 1738.4844,1439.7813 Q1737.9063,1440.0625 1737.4531,1440.6875 Q1737,1441.3125 1737,1442.1719 L1737,1443.0938 Q1737,1444.125 1737.8438,1444.8125 Q1738.6875,1445.5 1740.1875,1445.5 Q1741.0781,1445.5 1741.7031,1445.2969 Q1742.0625,1445.1875 1742.4688,1444.8281 Q1742.7344,1444.625 1742.875,1444.5625 Q1743.0156,1444.5 1743.1875,1444.5 Q1743.5156,1444.5 1743.75,1444.7656 Q1744,1445.0156 1744,1445.375 Q1744,1445.7188 1743.6563,1446.125 Q1743.1563,1446.7188 1742.3594,1447.0469 Q1741.3125,1447.5 1740.0313,1447.5 Q1738.5313,1447.5 1737.3281,1446.9063 Q1736.3594,1446.4375 1735.6719,1445.4219 Q1735,1444.4063 1735,1443.2031 L1735,1442.1094 Q1735,1440.8594 1735.5938,1439.7656 Q1736.2031,1438.6719 1737.25,1438.0938 Q1738.3125,1437.5 1739.5,1437.5 Q1740.2188,1437.5 1740.8438,1437.75 Q1741.4688,1438 1742,1438.5 Z " fill="#000000"/><text fill="#000000" font-family="sans-serif" font-size="14" lengthAdjust="spacing" textLength="101" x="1754" y="1446.8535">TypeOfProperty</text><line style="stroke:#181818;stroke-width:0.5;" x1="1726" x2="1857" y1="1458" y2="1458"/><rect fill="none" height="6" style="stroke:#C82930;stroke-width:1.0;" width="6" x="1733" y="1468.3203"/><text fill="#000000" font-family="sans-serif" font-size="14" lengthAdjust="spacing" textLength="68" x="1745" y="1474.6738">String type</text><line style="stroke:#181818;stroke-width:0.5;" x1="1726" x2="1857" y1="1481.6406" y2="1481.6406"/></g><!--class OfferMapper--><g id="elem_OfferMapper"><rect codeLine="150" fill="#F1F1F1" height="79.2813" id="OfferMapper" rx="2.5" ry="2.5" style="stroke:#181818;stroke-width:0.5;" width="140" x="474.5" y="397"/><ellipse cx="502.1" cy="413" fill="#ADD1B2" rx="11" ry="11" style="stroke:#181818;stroke-width:1.0;"/><path d="M504.1,409.5 Q504.3031,409 504.5375,408.75 Q504.7719,408.5 505.0375,408.5 Q505.5063,408.5 505.8031,408.7813 Q506.1,409.0625 506.1,409.7188 L506.1,411.2813 Q506.1,411.9375 505.8188,412.2188 Q505.5375,412.5 505.1,412.5 Q504.7094,412.5 504.4594,412.3281 Q504.2094,412.1563 504.1,411.7031 Q504.0531,411.3906 503.8813,411.2188 Q503.5688,410.8906 503.0063,410.7031 Q502.4438,410.5 501.8813,410.5 Q501.1781,410.5 500.5844,410.7813 Q500.0063,411.0625 499.5531,411.6875 Q499.1,412.3125 499.1,413.1719 L499.1,414.0938 Q499.1,415.125 499.9438,415.8125 Q500.7875,416.5 502.2875,416.5 Q503.1781,416.5 503.8031,416.2969 Q504.1625,416.1875 504.5688,415.8281 Q504.8344,415.625 504.975,415.5625 Q505.1156,415.5 505.2875,415.5 Q505.6156,415.5 505.85,415.7656 Q506.1,416.0156 506.1,416.375 Q506.1,416.7188 505.7563,417.125 Q505.2563,417.7188 504.4594,418.0469 Q503.4125,418.5 502.1313,418.5 Q500.6313,418.5 499.4281,417.9063 Q498.4594,417.4375 497.7719,416.4219 Q497.1,415.4063 497.1,414.2031 L497.1,413.1094 Q497.1,411.8594 497.6938,410.7656 Q498.3031,409.6719 499.35,409.0938 Q500.4125,408.5 501.6,408.5 Q502.3188,408.5 502.9438,408.75 Q503.5688,409 504.1,409.5 Z " fill="#000000"/><text fill="#000000" font-family="sans-serif" font-size="14" lengthAdjust="spacing" textLength="80" x="518.9" y="417.8535">OfferMapper</text><line style="stroke:#181818;stroke-width:0.5;" x1="475.5" x2="613.5" y1="429" y2="429"/><line style="stroke:#181818;stroke-width:0.5;" x1="475.5" x2="613.5" y1="437" y2="437"/><ellipse cx="485.5" cy="450.3203" fill="#84BE84" rx="3" ry="3" style="stroke:#038048;stroke-width:1.0;"/><text fill="#000000" font-family="sans-serif" font-size="14" lengthAdjust="spacing" textLength="95" x="494.5" y="453.6738">toDto(offerList)</text><ellipse cx="485.5" cy="465.9609" fill="#84BE84" rx="3" ry="3" style="stroke:#038048;stroke-width:1.0;"/><text fill="#000000" font-family="sans-serif" font-size="14" lengthAdjust="spacing" textLength="114" x="494.5" y="469.3145">toDtoObject(offer)</text></g><!--class OfferRepository--><g id="elem_OfferRepository"><rect codeLine="155" fill="#F1F1F1" height="63.6406" id="OfferRepository" rx="2.5" ry="2.5" style="stroke:#181818;stroke-width:0.5;" width="281" x="723" y="404.5"/><ellipse cx="809.25" cy="420.5" fill="#ADD1B2" rx="11" ry="11" style="stroke:#181818;stroke-width:1.0;"/><path d="M811.25,417 Q811.4531,416.5 811.6875,416.25 Q811.9219,416 812.1875,416 Q812.6563,416 812.9531,416.2813 Q813.25,416.5625 813.25,417.2188 L813.25,418.7813 Q813.25,419.4375 812.9688,419.7188 Q812.6875,420 812.25,420 Q811.8594,420 811.6094,419.8281 Q811.3594,419.6563 811.25,419.2031 Q811.2031,418.8906 811.0313,418.7188 Q810.7188,418.3906 810.1563,418.2031 Q809.5938,418 809.0313,418 Q808.3281,418 807.7344,418.2813 Q807.1563,418.5625 806.7031,419.1875 Q806.25,419.8125 806.25,420.6719 L806.25,421.5938 Q806.25,422.625 807.0938,423.3125 Q807.9375,424 809.4375,424 Q810.3281,424 810.9531,423.7969 Q811.3125,423.6875 811.7188,423.3281 Q811.9844,423.125 812.125,423.0625 Q812.2656,423 812.4375,423 Q812.7656,423 813,423.2656 Q813.25,423.5156 813.25,423.875 Q813.25,424.2188 812.9063,424.625 Q812.4063,425.2188 811.6094,425.5469 Q810.5625,426 809.2813,426 Q807.7813,426 806.5781,425.4063 Q805.6094,424.9375 804.9219,423.9219 Q804.25,422.9063 804.25,421.7031 L804.25,420.6094 Q804.25,419.3594 804.8438,418.2656 Q805.4531,417.1719 806.5,416.5938 Q807.5625,416 808.75,416 Q809.4688,416 810.0938,416.25 Q810.7188,416.5 811.25,417 Z " fill="#000000"/><text fill="#000000" font-family="sans-serif" font-size="14" lengthAdjust="spacing" textLength="100" x="829.75" y="425.3535">OfferRepository</text><line style="stroke:#181818;stroke-width:0.5;" x1="724" x2="1003" y1="436.5" y2="436.5"/><line style="stroke:#181818;stroke-width:0.5;" x1="724" x2="1003" y1="444.5" y2="444.5"/><ellipse cx="734" cy="457.8203" fill="#84BE84" rx="3" ry="3" style="stroke:#038048;stroke-width:1.0;"/><text fill="#000000" font-family="sans-serif" font-size="14" lengthAdjust="spacing" textLength="255" x="743" y="461.1738">getOrganizationByEmployeeEmail(email)</text></g><!--class Repositories--><g id="elem_Repositories"><rect codeLine="159" fill="#F1F1F1" height="313.8906" id="Repositories" rx="2.5" ry="2.5" style="stroke:#181818;stroke-width:0.5;" width="281" x="797" y="7"/><ellipse cx="893.75" cy="23" fill="#ADD1B2" rx="11" ry="11" style="stroke:#181818;stroke-width:1.0;"/><path d="M895.75,19.5 Q895.9531,19 896.1875,18.75 Q896.4219,18.5 896.6875,18.5 Q897.1563,18.5 897.4531,18.7813 Q897.75,19.0625 897.75,19.7188 L897.75,21.2813 Q897.75,21.9375 897.4688,22.2188 Q897.1875,22.5 896.75,22.5 Q896.3594,22.5 896.1094,22.3281 Q895.8594,22.1563 895.75,21.7031 Q895.7031,21.3906 895.5313,21.2188 Q895.2188,20.8906 894.6563,20.7031 Q894.0938,20.5 893.5313,20.5 Q892.8281,20.5 892.2344,20.7813 Q891.6563,21.0625 891.2031,21.6875 Q890.75,22.3125 890.75,23.1719 L890.75,24.0938 Q890.75,25.125 891.5938,25.8125 Q892.4375,26.5 893.9375,26.5 Q894.8281,26.5 895.4531,26.2969 Q895.8125,26.1875 896.2188,25.8281 Q896.4844,25.625 896.625,25.5625 Q896.7656,25.5 896.9375,25.5 Q897.2656,25.5 897.5,25.7656 Q897.75,26.0156 897.75,26.375 Q897.75,26.7188 897.4063,27.125 Q896.9063,27.7188 896.1094,28.0469 Q895.0625,28.5 893.7813,28.5 Q892.2813,28.5 891.0781,27.9063 Q890.1094,27.4375 889.4219,26.4219 Q888.75,25.4063 888.75,24.2031 L888.75,23.1094 Q888.75,21.8594 889.3438,20.7656 Q889.9531,19.6719 891,19.0938 Q892.0625,18.5 893.25,18.5 Q893.9688,18.5 894.5938,18.75 Q895.2188,19 895.75,19.5 Z " fill="#000000"/><text fill="#000000" font-family="sans-serif" font-size="14" lengthAdjust="spacing" textLength="79" x="914.25" y="27.8535">Repositories</text><line style="stroke:#181818;stroke-width:0.5;" x1="798" x2="1077" y1="39" y2="39"/><line style="stroke:#181818;stroke-width:0.5;" x1="798" x2="1077" y1="47" y2="47"/><rect fill="#F24D5C" height="6" style="stroke:#C82930;stroke-width:1.0;" width="6" x="805" y="57.3203"/><text fill="#000000" font-family="sans-serif" font-size="14" lengthAdjust="spacing" textLength="89" x="817" y="63.6738">Repositories()</text><ellipse cx="808" cy="75.9609" fill="#84BE84" rx="3" ry="3" style="stroke:#038048;stroke-width:1.0;"/><text fill="#000000" font-family="sans-serif" font-size="14" lengthAdjust="spacing" textLength="166" x="817" y="79.3145">getInstance():Repositories</text><ellipse cx="808" cy="91.6016" fill="#84BE84" rx="3" ry="3" style="stroke:#038048;stroke-width:1.0;"/><text fill="#000000" font-family="sans-serif" font-size="14" lengthAdjust="spacing" textLength="160" x="817" y="94.9551">getEmployeeRepository()</text><ellipse cx="808" cy="107.2422" fill="#84BE84" rx="3" ry="3" style="stroke:#038048;stroke-width:1.0;"/><text fill="#000000" font-family="sans-serif" font-size="14" lengthAdjust="spacing" textLength="163" x="817" y="110.5957">getComissionRepository()</text><ellipse cx="808" cy="122.8828" fill="#84BE84" rx="3" ry="3" style="stroke:#038048;stroke-width:1.0;"/><text fill="#000000" font-family="sans-serif" font-size="14" lengthAdjust="spacing" textLength="255" x="817" y="126.2363">getPublishedAnnouncementRepository()</text><ellipse cx="808" cy="138.5234" fill="#84BE84" rx="3" ry="3" style="stroke:#038048;stroke-width:1.0;"/><text fill="#000000" font-family="sans-serif" font-size="14" lengthAdjust="spacing" textLength="188" x="817" y="141.877">getAuthenticationRepository()</text><ellipse cx="808" cy="154.1641" fill="#84BE84" rx="3" ry="3" style="stroke:#038048;stroke-width:1.0;"/><text fill="#000000" font-family="sans-serif" font-size="14" lengthAdjust="spacing" textLength="246" x="817" y="157.5176">getAnnouncementRequestRepository()</text><ellipse cx="808" cy="169.8047" fill="#84BE84" rx="3" ry="3" style="stroke:#038048;stroke-width:1.0;"/><text fill="#000000" font-family="sans-serif" font-size="14" lengthAdjust="spacing" textLength="132" x="817" y="173.1582">getStoreRepository()</text><ellipse cx="808" cy="185.4453" fill="#84BE84" rx="3" ry="3" style="stroke:#038048;stroke-width:1.0;"/><text fill="#000000" font-family="sans-serif" font-size="14" lengthAdjust="spacing" textLength="127" x="817" y="188.7988">getRoleRepository()</text><ellipse cx="808" cy="201.0859" fill="#84BE84" rx="3" ry="3" style="stroke:#038048;stroke-width:1.0;"/><text fill="#000000" font-family="sans-serif" font-size="14" lengthAdjust="spacing" textLength="131" x="817" y="204.4395">getStateRepository()</text><ellipse cx="808" cy="216.7266" fill="#84BE84" rx="3" ry="3" style="stroke:#038048;stroke-width:1.0;"/><text fill="#000000" font-family="sans-serif" font-size="14" lengthAdjust="spacing" textLength="134" x="817" y="220.0801">getClientRepository()</text><ellipse cx="808" cy="232.3672" fill="#84BE84" rx="3" ry="3" style="stroke:#038048;stroke-width:1.0;"/><text fill="#000000" font-family="sans-serif" font-size="14" lengthAdjust="spacing" textLength="184" x="817" y="235.7207">getPropertyTypeRepository()</text><ellipse cx="808" cy="248.0078" fill="#84BE84" rx="3" ry="3" style="stroke:#038048;stroke-width:1.0;"/><text fill="#000000" font-family="sans-serif" font-size="14" lengthAdjust="spacing" textLength="202" x="817" y="251.3613">getTypeOfBusinessRepository()</text><ellipse cx="808" cy="263.6484" fill="#84BE84" rx="3" ry="3" style="stroke:#038048;stroke-width:1.0;"/><text fill="#000000" font-family="sans-serif" font-size="14" lengthAdjust="spacing" textLength="155" x="817" y="267.002">getMessageRepository()</text><ellipse cx="808" cy="279.2891" fill="#84BE84" rx="3" ry="3" style="stroke:#038048;stroke-width:1.0;"/><text fill="#000000" font-family="sans-serif" font-size="14" lengthAdjust="spacing" textLength="130" x="817" y="282.6426">getOfferRepository()</text><ellipse cx="808" cy="294.9297" fill="#84BE84" rx="3" ry="3" style="stroke:#038048;stroke-width:1.0;"/><text fill="#000000" font-family="sans-serif" font-size="14" lengthAdjust="spacing" textLength="61" x="817" y="298.2832">serialize()</text><ellipse cx="808" cy="310.5703" fill="#84BE84" rx="3" ry="3" style="stroke:#038048;stroke-width:1.0;"/><text fill="#000000" font-family="sans-serif" font-size="14" lengthAdjust="spacing" textLength="77" x="817" y="313.9238">deserialize()</text></g><!--class ListDealsController--><g id="elem_ListDealsController"><rect codeLine="179" fill="#F1F1F1" height="220.0469" id="ListDealsController" rx="2.5" ry="2.5" style="stroke:#181818;stroke-width:0.5;" width="297" x="396" y="54"/><ellipse cx="480.25" cy="70" fill="#ADD1B2" rx="11" ry="11" style="stroke:#181818;stroke-width:1.0;"/><path d="M482.25,66.5 Q482.4531,66 482.6875,65.75 Q482.9219,65.5 483.1875,65.5 Q483.6563,65.5 483.9531,65.7813 Q484.25,66.0625 484.25,66.7188 L484.25,68.2813 Q484.25,68.9375 483.9688,69.2188 Q483.6875,69.5 483.25,69.5 Q482.8594,69.5 482.6094,69.3281 Q482.3594,69.1563 482.25,68.7031 Q482.2031,68.3906 482.0313,68.2188 Q481.7188,67.8906 481.1563,67.7031 Q480.5938,67.5 480.0313,67.5 Q479.3281,67.5 478.7344,67.7813 Q478.1563,68.0625 477.7031,68.6875 Q477.25,69.3125 477.25,70.1719 L477.25,71.0938 Q477.25,72.125 478.0938,72.8125 Q478.9375,73.5 480.4375,73.5 Q481.3281,73.5 481.9531,73.2969 Q482.3125,73.1875 482.7188,72.8281 Q482.9844,72.625 483.125,72.5625 Q483.2656,72.5 483.4375,72.5 Q483.7656,72.5 484,72.7656 Q484.25,73.0156 484.25,73.375 Q484.25,73.7188 483.9063,74.125 Q483.4063,74.7188 482.6094,75.0469 Q481.5625,75.5 480.2813,75.5 Q478.7813,75.5 477.5781,74.9063 Q476.6094,74.4375 475.9219,73.4219 Q475.25,72.4063 475.25,71.2031 L475.25,70.1094 Q475.25,68.8594 475.8438,67.7656 Q476.4531,66.6719 477.5,66.0938 Q478.5625,65.5 479.75,65.5 Q480.4688,65.5 481.0938,65.75 Q481.7188,66 482.25,66.5 Z " fill="#000000"/><text fill="#000000" font-family="sans-serif" font-size="14" lengthAdjust="spacing" textLength="120" x="500.75" y="74.8535">ListDealsController</text><line style="stroke:#181818;stroke-width:0.5;" x1="397" x2="692" y1="86" y2="86"/><line style="stroke:#181818;stroke-width:0.5;" x1="397" x2="692" y1="94" y2="94"/><ellipse cx="407" cy="107.3203" fill="#84BE84" rx="3" ry="3" style="stroke:#038048;stroke-width:1.0;"/><text fill="#000000" font-family="sans-serif" font-size="14" lengthAdjust="spacing" textLength="227" x="416" y="110.6738">ListDealsController(offerRepository)</text><ellipse cx="407" cy="122.9609" fill="#84BE84" rx="3" ry="3" style="stroke:#038048;stroke-width:1.0;"/><text fill="#000000" font-family="sans-serif" font-size="14" lengthAdjust="spacing" textLength="248" x="416" y="126.3145">getDealsByAscendingAreaBubbleSort()</text><ellipse cx="407" cy="138.6016" fill="#84BE84" rx="3" ry="3" style="stroke:#038048;stroke-width:1.0;"/><text fill="#000000" font-family="sans-serif" font-size="14" lengthAdjust="spacing" textLength="257" x="416" y="141.9551">getDealsByDescendingAreaBubbleSort()</text><ellipse cx="407" cy="154.2422" fill="#84BE84" rx="3" ry="3" style="stroke:#038048;stroke-width:1.0;"/><text fill="#000000" font-family="sans-serif" font-size="14" lengthAdjust="spacing" textLength="262" x="416" y="157.5957">getDealsByAscendingAreaSortSelection()</text><ellipse cx="407" cy="169.8828" fill="#84BE84" rx="3" ry="3" style="stroke:#038048;stroke-width:1.0;"/><text fill="#000000" font-family="sans-serif" font-size="14" lengthAdjust="spacing" textLength="271" x="416" y="173.2363">getDealsByDescendingAreaSortSelection()</text><ellipse cx="407" cy="185.5234" fill="#84BE84" rx="3" ry="3" style="stroke:#038048;stroke-width:1.0;"/><text fill="#000000" font-family="sans-serif" font-size="14" lengthAdjust="spacing" textLength="219" x="416" y="188.877">toDtoDescendingAreaBubbleSort()</text><ellipse cx="407" cy="201.1641" fill="#84BE84" rx="3" ry="3" style="stroke:#038048;stroke-width:1.0;"/><text fill="#000000" font-family="sans-serif" font-size="14" lengthAdjust="spacing" textLength="210" x="416" y="204.5176">toDtoAscendingAreaBubbleSort()</text><ellipse cx="407" cy="216.8047" fill="#84BE84" rx="3" ry="3" style="stroke:#038048;stroke-width:1.0;"/><text fill="#000000" font-family="sans-serif" font-size="14" lengthAdjust="spacing" textLength="233" x="416" y="220.1582">toDtoDescendingAreaSortSelection()</text><ellipse cx="407" cy="232.4453" fill="#84BE84" rx="3" ry="3" style="stroke:#038048;stroke-width:1.0;"/><text fill="#000000" font-family="sans-serif" font-size="14" lengthAdjust="spacing" textLength="224" x="416" y="235.7988">toDtoAscendingAreaSortSelection()</text><ellipse cx="407" cy="248.0859" fill="#84BE84" rx="3" ry="3" style="stroke:#038048;stroke-width:1.0;"/><text fill="#000000" font-family="sans-serif" font-size="14" lengthAdjust="spacing" textLength="158" x="416" y="251.4395">toDtoOffersMostRecent()</text><rect fill="#F24D5C" height="6" style="stroke:#C82930;stroke-width:1.0;" width="6" x="404" y="260.7266"/><text fill="#000000" font-family="sans-serif" font-size="14" lengthAdjust="spacing" textLength="130" x="416" y="267.0801">getOfferRepository()</text></g><!--class ListDealsUI--><g id="elem_ListDealsUI"><rect codeLine="193" fill="#F1F1F1" height="48" id="ListDealsUI" rx="2.5" ry="2.5" style="stroke:#181818;stroke-width:0.5;" width="102" x="258.5" y="140"/><ellipse cx="273.5" cy="156" fill="#ADD1B2" rx="11" ry="11" style="stroke:#181818;stroke-width:1.0;"/><path d="M275.5,152.5 Q275.7031,152 275.9375,151.75 Q276.1719,151.5 276.4375,151.5 Q276.9063,151.5 277.2031,151.7813 Q277.5,152.0625 277.5,152.7188 L277.5,154.2813 Q277.5,154.9375 277.2188,155.2188 Q276.9375,155.5 276.5,155.5 Q276.1094,155.5 275.8594,155.3281 Q275.6094,155.1563 275.5,154.7031 Q275.4531,154.3906 275.2813,154.2188 Q274.9688,153.8906 274.4063,153.7031 Q273.8438,153.5 273.2813,153.5 Q272.5781,153.5 271.9844,153.7813 Q271.4063,154.0625 270.9531,154.6875 Q270.5,155.3125 270.5,156.1719 L270.5,157.0938 Q270.5,158.125 271.3438,158.8125 Q272.1875,159.5 273.6875,159.5 Q274.5781,159.5 275.2031,159.2969 Q275.5625,159.1875 275.9688,158.8281 Q276.2344,158.625 276.375,158.5625 Q276.5156,158.5 276.6875,158.5 Q277.0156,158.5 277.25,158.7656 Q277.5,159.0156 277.5,159.375 Q277.5,159.7188 277.1563,160.125 Q276.6563,160.7188 275.8594,161.0469 Q274.8125,161.5 273.5313,161.5 Q272.0313,161.5 270.8281,160.9063 Q269.8594,160.4375 269.1719,159.4219 Q268.5,158.4063 268.5,157.2031 L268.5,156.1094 Q268.5,154.8594 269.0938,153.7656 Q269.7031,152.6719 270.75,152.0938 Q271.8125,151.5 273,151.5 Q273.7188,151.5 274.3438,151.75 Q274.9688,152 275.5,152.5 Z " fill="#000000"/><text fill="#000000" font-family="sans-serif" font-size="14" lengthAdjust="spacing" textLength="70" x="287.5" y="160.8535">ListDealsUI</text><line style="stroke:#181818;stroke-width:0.5;" x1="259.5" x2="359.5" y1="172" y2="172"/><line style="stroke:#181818;stroke-width:0.5;" x1="259.5" x2="359.5" y1="180" y2="180"/></g><!--class OfferDto--><g id="elem_OfferDto"><rect codeLine="196" fill="#F1F1F1" height="110.5625" id="OfferDto" rx="2.5" ry="2.5" style="stroke:#181818;stroke-width:0.5;" width="223" x="433" y="599"/><ellipse cx="513.25" cy="615" fill="#ADD1B2" rx="11" ry="11" style="stroke:#181818;stroke-width:1.0;"/><path d="M515.25,611.5 Q515.4531,611 515.6875,610.75 Q515.9219,610.5 516.1875,610.5 Q516.6563,610.5 516.9531,610.7813 Q517.25,611.0625 517.25,611.7188 L517.25,613.2813 Q517.25,613.9375 516.9688,614.2188 Q516.6875,614.5 516.25,614.5 Q515.8594,614.5 515.6094,614.3281 Q515.3594,614.1563 515.25,613.7031 Q515.2031,613.3906 515.0313,613.2188 Q514.7188,612.8906 514.1563,612.7031 Q513.5938,612.5 513.0313,612.5 Q512.3281,612.5 511.7344,612.7813 Q511.1563,613.0625 510.7031,613.6875 Q510.25,614.3125 510.25,615.1719 L510.25,616.0938 Q510.25,617.125 511.0938,617.8125 Q511.9375,618.5 513.4375,618.5 Q514.3281,618.5 514.9531,618.2969 Q515.3125,618.1875 515.7188,617.8281 Q515.9844,617.625 516.125,617.5625 Q516.2656,617.5 516.4375,617.5 Q516.7656,617.5 517,617.7656 Q517.25,618.0156 517.25,618.375 Q517.25,618.7188 516.9063,619.125 Q516.4063,619.7188 515.6094,620.0469 Q514.5625,620.5 513.2813,620.5 Q511.7813,620.5 510.5781,619.9063 Q509.6094,619.4375 508.9219,618.4219 Q508.25,617.4063 508.25,616.2031 L508.25,615.1094 Q508.25,613.8594 508.8438,612.7656 Q509.4531,611.6719 510.5,611.0938 Q511.5625,610.5 512.75,610.5 Q513.4688,610.5 514.0938,610.75 Q514.7188,611 515.25,611.5 Z " fill="#000000"/><text fill="#000000" font-family="sans-serif" font-size="14" lengthAdjust="spacing" textLength="54" x="533.75" y="619.8535">OfferDto</text><line style="stroke:#181818;stroke-width:0.5;" x1="434" x2="655" y1="631" y2="631"/><rect fill="none" height="6" style="stroke:#C82930;stroke-width:1.0;" width="6" x="441" y="641.3203"/><text fill="#000000" font-family="sans-serif" font-size="14" lengthAdjust="spacing" textLength="76" x="453" y="647.6738">String name</text><rect fill="none" height="6" style="stroke:#C82930;stroke-width:1.0;" width="6" x="441" y="656.9609"/><text fill="#000000" font-family="sans-serif" font-size="14" lengthAdjust="spacing" textLength="123" x="453" y="663.3145">String orderAmount</text><rect fill="none" height="6" style="stroke:#C82930;stroke-width:1.0;" width="6" x="441" y="672.6016"/><text fill="#000000" font-family="sans-serif" font-size="14" lengthAdjust="spacing" textLength="197" x="453" y="678.9551">String publishedAnnouncement</text><rect fill="none" height="6" style="stroke:#C82930;stroke-width:1.0;" width="6" x="441" y="688.2422"/><text fill="#000000" font-family="sans-serif" font-size="14" lengthAdjust="spacing" textLength="103" x="453" y="694.5957">String offerState</text><line style="stroke:#181818;stroke-width:0.5;" x1="434" x2="655" y1="701.5625" y2="701.5625"/></g><!--reverse link Person to Employee--><g id="link_Person_Employee"><path codeLine="204" d="M283.5,1042.59 C283.5,1067.88 283.5,1092.93 283.5,1114.4 " fill="none" id="Person-backto-Employee" style="stroke:#181818;stroke-width:1.0;"/><polygon fill="none" points="276.5,1042.31,283.5,1022.31,290.5,1042.31,276.5,1042.31" style="stroke:#181818;stroke-width:1.0;"/></g><!--link Employee to Offer--><g id="link_Employee_Offer"><path codeLine="207" d="M560.34,1177.5 C605.23,1177.5 650.54,1177.5 691.96,1177.5 " fill="none" id="Employee-Offer" style="stroke:#181818;stroke-width:1.0;"/><polygon fill="#000000" points="587.5,1166.7617,578.4549,1163.8228,578.4549,1169.7006,587.5,1166.7617" style="stroke:#000000;stroke-width:1.0;"/><text fill="#000000" font-family="sans-serif" font-size="13" lengthAdjust="spacing" textLength="82" x="591.5" y="1171.2686">intends to see</text><text fill="#000000" font-family="sans-serif" font-size="13" lengthAdjust="spacing" textLength="5" x="567.76" y="1175.0869">*</text><text fill="#000000" font-family="sans-serif" font-size="13" lengthAdjust="spacing" textLength="5" x="679.0738" y="1174.9685">*</text></g><!--link Offer to PublishedAnnouncement--><g id="link_Offer_PublishedAnnouncement"><path codeLine="208" d="M945.43,1272.01 C966.75,1296.35 989.91,1322.78 1011.87,1347.84 " fill="none" id="Offer-PublishedAnnouncement" style="stroke:#181818;stroke-width:1.0;"/><polygon fill="#000000" points="993.795,1314.0224,990.0448,1305.2825,985.6238,1309.156,993.795,1314.0224" style="stroke:#000000;stroke-width:1.0;"/><text fill="#000000" font-family="sans-serif" font-size="13" lengthAdjust="spacing" textLength="21" x="999.5" y="1314.7686">has</text><text fill="#000000" font-family="sans-serif" font-size="13" lengthAdjust="spacing" textLength="5" x="946.5114" y="1291.5794">*</text><text fill="#000000" font-family="sans-serif" font-size="13" lengthAdjust="spacing" textLength="7" x="997.8999" y="1337.3875">1</text></g><!--link PublishedAnnouncement to Property--><g id="link_PublishedAnnouncement_Property"><path codeLine="209" d="M1226.36,1558.07 C1232.04,1561.59 1237.77,1564.92 1243.5,1568 C1340.95,1620.35 1376.81,1605.47 1480.5,1644 C1499.75,1651.15 1520.04,1659.27 1539.56,1667.38 " fill="none" id="PublishedAnnouncement-Property" style="stroke:#181818;stroke-width:1.0;"/></g><!--link TypeOfProperty to Property--><g id="link_TypeOfProperty_Property"><path codeLine="210" d="M1773.74,1490.01 C1748.44,1534.21 1701.8,1615.67 1672.28,1667.22 " fill="none" id="TypeOfProperty-Property" style="stroke:#181818;stroke-width:1.0;"/><polygon fill="#000000" points="1716.9843,1601.9226,1709.9397,1608.3119,1715.0406,1611.2324,1716.9843,1601.9226" style="stroke:#000000;stroke-width:1.0;"/><text fill="#000000" font-family="sans-serif" font-size="13" lengthAdjust="spacing" textLength="21" x="1723.5" y="1610.7686">has</text></g><!--reverse link Property to Residence--><g id="link_Property_Residence"><path codeLine="211" d="M1645.5,1782.77 C1645.5,1804.12 1645.5,1827.28 1645.5,1846.87 " fill="none" id="Property-backto-Residence" style="stroke:#181818;stroke-width:1.0;"/><polygon fill="none" points="1638.5,1782.64,1645.5,1762.64,1652.5,1782.64,1638.5,1782.64" style="stroke:#181818;stroke-width:1.0;"/></g><!--link Photos to Property--><g id="link_Photos_Property"><path codeLine="212" d="M1645.5,1490.01 C1645.5,1534.21 1645.5,1615.67 1645.5,1667.22 " fill="none" id="Photos-Property" style="stroke:#181818;stroke-width:1.0;"/><polygon fill="#000000" points="1650.5,1601.2617,1647.5611,1610.3068,1653.4389,1610.3068,1650.5,1601.2617" style="stroke:#000000;stroke-width:1.0;"/><text fill="#000000" font-family="sans-serif" font-size="13" lengthAdjust="spacing" textLength="21" x="1659.5" y="1610.7686">has</text><text fill="#000000" font-family="sans-serif" font-size="13" lengthAdjust="spacing" textLength="29" x="1613.7359" y="1509.299">1..30</text><text fill="#000000" font-family="sans-serif" font-size="13" lengthAdjust="spacing" textLength="7" x="1637.9641" y="1656.6464">1</text></g><!--reverse link Residence to House--><g id="link_Residence_House"><path codeLine="213" d="M1607.43,1959.35 C1595.62,1979.16 1582.97,2000.37 1572.51,2017.91 " fill="none" id="Residence-backto-House" style="stroke:#181818;stroke-width:1.0;"/><polygon fill="none" points="1601.48,1955.66,1617.73,1942.07,1613.5,1962.83,1601.48,1955.66" style="stroke:#181818;stroke-width:1.0;"/></g><!--link Residence to AvailableEquipment--><g id="link_Residence_AvailableEquipment"><path codeLine="214" d="M1672.98,1942.07 C1688.76,1968.81 1708.15,2001.68 1722.1,2025.31 " fill="none" id="Residence-AvailableEquipment" style="stroke:#181818;stroke-width:1.0;"/><polygon fill="#000000" points="1706.0411,1984.5679,1703.9753,1975.2844,1698.9131,1978.2716,1706.0411,1984.5679" style="stroke:#000000;stroke-width:1.0;"/><text fill="#000000" font-family="sans-serif" font-size="13" lengthAdjust="spacing" textLength="49" x="1712.5" y="1984.7686">contains</text><text fill="#000000" font-family="sans-serif" font-size="13" lengthAdjust="spacing" textLength="7" x="1669.3522" y="1961.5548">1</text><text fill="#000000" font-family="sans-serif" font-size="13" lengthAdjust="spacing" textLength="5" x="1712.5281" y="2014.6023">*</text></g><!--link House to SunExposure--><g id="link_House_SunExposure"><path codeLine="215" d="M1549.5,2097.11 C1549.5,2120.68 1549.5,2150.44 1549.5,2172.57 " fill="none" id="House-SunExposure" style="stroke:#181818;stroke-width:1.0;"/><polygon fill="#000000" points="1554.5,2140.2617,1557.4389,2131.2166,1551.5611,2131.2166,1554.5,2140.2617" style="stroke:#000000;stroke-width:1.0;"/><text fill="#000000" font-family="sans-serif" font-size="13" lengthAdjust="spacing" textLength="49" x="1563.5" y="2139.7686">contains</text><text fill="#000000" font-family="sans-serif" font-size="13" lengthAdjust="spacing" textLength="7" x="1541.8984" y="2116.9105">1</text><text fill="#000000" font-family="sans-serif" font-size="13" lengthAdjust="spacing" textLength="5" x="1543.9844" y="2162.2972">*</text></g><!--link PublishedAnnouncement to Comission--><g id="link_PublishedAnnouncement_Comission"><path codeLine="216" d="M1226.16,1357.7 C1231.9,1354.24 1237.69,1350.98 1243.5,1348 C1276.31,1331.16 1286.96,1330.93 1323.5,1326 C1375.07,1319.04 1396.4,1317.42 1438.5,1348 C1465.76,1367.8 1485.78,1401.13 1497.89,1425.93 " fill="none" id="PublishedAnnouncement-Comission" style="stroke:#181818;stroke-width:1.0;"/><polygon fill="#000000" points="1333.3495,1311.4794,1325.2924,1306.4262,1323.861,1312.127,1333.3495,1311.4794" style="stroke:#000000;stroke-width:1.0;"/><text fill="#000000" font-family="sans-serif" font-size="13" lengthAdjust="spacing" textLength="21" x="1337.5" y="1314.7686">has</text><text fill="#000000" font-family="sans-serif" font-size="13" lengthAdjust="spacing" textLength="7" x="1233.9859" y="1348.6099">1</text><text fill="#000000" font-family="sans-serif" font-size="13" lengthAdjust="spacing" textLength="7" x="1487.1472" y="1415.2485">1</text></g><!--link Business to PublishedAnnouncement--><g id="link_Business_PublishedAnnouncement"><path codeLine="217" d="M1130.59,1209.64 C1127.47,1243.06 1122.34,1298.07 1117.7,1347.74 " fill="none" id="Business-PublishedAnnouncement" style="stroke:#181818;stroke-width:1.0;"/><polygon fill="#000000" points="1126.9647,1305.2834,1123.1979,1314.0162,1129.0503,1314.5624,1126.9647,1305.2834" style="stroke:#000000;stroke-width:1.0;"/><text fill="#000000" font-family="sans-serif" font-size="13" lengthAdjust="spacing" textLength="21" x="1135.5" y="1314.7686">has</text><text fill="#000000" font-family="sans-serif" font-size="13" lengthAdjust="spacing" textLength="7" x="1122.3681" y="1228.9538">1</text><text fill="#000000" font-family="sans-serif" font-size="13" lengthAdjust="spacing" textLength="7" x="1111.1711" y="1337.2805">1</text></g><!--link Adress to Property--><g id="link_Adress_Property"><path codeLine="219" d="M1463.75,1715 C1487.33,1715 1511.4,1715 1533.98,1715 " fill="none" id="Adress-Property" style="stroke:#181818;stroke-width:1.0;"/><polygon fill="#000000" points="1480.75,1704.2617,1489.7951,1707.2006,1489.7951,1701.3228,1480.75,1704.2617" style="stroke:#000000;stroke-width:1.0;"/><text fill="#000000" font-family="sans-serif" font-size="13" lengthAdjust="spacing" textLength="21" x="1494.75" y="1708.7686">has</text><text fill="#000000" font-family="sans-serif" font-size="13" lengthAdjust="spacing" textLength="7" x="1471.4715" y="1712.4251">1</text><text fill="#000000" font-family="sans-serif" font-size="13" lengthAdjust="spacing" textLength="7" x="1518.8927" y="1712.2975">1</text></g><!--link District to State--><g id="link_District_State"><path codeLine="220" d="M889.61,1715 C913.51,1715 939.99,1715 963.49,1715 " fill="none" id="District-State" style="stroke:#181818;stroke-width:1.0;"/><polygon fill="#000000" points="917,1704.2617,907.9549,1701.3228,907.9549,1707.2006,917,1704.2617" style="stroke:#000000;stroke-width:1.0;"/><text fill="#000000" font-family="sans-serif" font-size="13" lengthAdjust="spacing" textLength="24" x="921" y="1708.7686">is in</text><text fill="#000000" font-family="sans-serif" font-size="13" lengthAdjust="spacing" textLength="5" x="897.3042" y="1712.0962">*</text><text fill="#000000" font-family="sans-serif" font-size="13" lengthAdjust="spacing" textLength="7" x="948.3373" y="1712.0147">1</text></g><!--link City to District--><g id="link_City_District"><path codeLine="221" d="M671.69,1715 C694.65,1715 721.27,1715 745.44,1715 " fill="none" id="City-District" style="stroke:#181818;stroke-width:1.0;"/><polygon fill="#000000" points="699,1704.2617,689.9549,1701.3228,689.9549,1707.2006,699,1704.2617" style="stroke:#000000;stroke-width:1.0;"/><text fill="#000000" font-family="sans-serif" font-size="13" lengthAdjust="spacing" textLength="24" x="703" y="1708.7686">is in</text><text fill="#000000" font-family="sans-serif" font-size="13" lengthAdjust="spacing" textLength="5" x="679.4659" y="1711.8872">*</text><text fill="#000000" font-family="sans-serif" font-size="13" lengthAdjust="spacing" textLength="7" x="730.6479" y="1712.0962">1</text></g><!--link State to Adress--><g id="link_State_Adress"><path codeLine="222" d="M1097.79,1715 C1119.99,1715 1145.62,1715 1171.36,1715 " fill="none" id="State-Adress" style="stroke:#181818;stroke-width:1.0;"/><polygon fill="#000000" points="1125,1704.2617,1115.9549,1701.3228,1115.9549,1707.2006,1125,1704.2617" style="stroke:#000000;stroke-width:1.0;"/><text fill="#000000" font-family="sans-serif" font-size="13" lengthAdjust="spacing" textLength="24" x="1129" y="1708.7686">is in</text><text fill="#000000" font-family="sans-serif" font-size="13" lengthAdjust="spacing" textLength="7" x="1105.5327" y="1712.0555">1</text><text fill="#000000" font-family="sans-serif" font-size="13" lengthAdjust="spacing" textLength="5" x="1158.6957" y="1712.4251">*</text></g><!--link ListDealsUI to ListDealsController--><g id="link_ListDealsUI_ListDealsController"><path codeLine="225" d="M360.91,164 C370.78,164 380.65,164 390.53,164 " fill="none" id="ListDealsUI-to-ListDealsController" style="stroke:#181818;stroke-width:1.0;stroke-dasharray:7.0,7.0;"/><polygon fill="#181818" points="395.69,164,386.69,160,390.69,164,386.69,168,395.69,164" style="stroke:#181818;stroke-width:1.0;"/></g><!--link ListDealsController to Repositories--><g id="link_ListDealsController_Repositories"><path codeLine="227" d="M693.08,164 C725.37,164 759.5,164 791.68,164 " fill="none" id="ListDealsController-to-Repositories" style="stroke:#181818;stroke-width:1.0;stroke-dasharray:7.0,7.0;"/><polygon fill="#181818" points="796.83,164,787.83,160,791.83,164,787.83,168,796.83,164" style="stroke:#181818;stroke-width:1.0;"/><text fill="#000000" font-family="sans-serif" font-size="13" lengthAdjust="spacing" textLength="67" x="711.5" y="157.7686">repositories</text></g><!--link Repositories to Repositories--><g id="link_Repositories_Repositories"><path codeLine="229" d="M1078.3,131.09 C1099.02,136.26 1113,147.23 1113,164 C1113,179.33 1101.32,189.81 1083.49,195.45 " fill="none" id="Repositories-to-Repositories" style="stroke:#181818;stroke-width:1.0;"/><polygon fill="#181818" points="1078.3,196.91,1088.0477,198.318,1083.1124,195.5534,1085.8771,190.6181,1078.3,196.91" style="stroke:#181818;stroke-width:1.0;"/><text fill="#000000" font-family="sans-serif" font-size="13" lengthAdjust="spacing" textLength="49" x="1119" y="168.7686">instance</text></g><!--link ListDealsController to OfferMapper--><g id="link_ListDealsController_OfferMapper"><path codeLine="231" d="M544.5,274.24 C544.5,315.27 544.5,359.62 544.5,391.4 " fill="none" id="ListDealsController-to-OfferMapper" style="stroke:#181818;stroke-width:1.0;stroke-dasharray:7.0,7.0;"/><polygon fill="#181818" points="544.5,396.79,548.5,387.79,544.5,391.79,540.5,387.79,544.5,396.79" style="stroke:#181818;stroke-width:1.0;"/></g><!--link OfferMapper to OfferDto--><g id="link_OfferMapper_OfferDto"><path codeLine="233" d="M544.5,476.12 C544.5,508.87 544.5,556.38 544.5,593.99 " fill="none" id="OfferMapper-to-OfferDto" style="stroke:#181818;stroke-width:1.0;stroke-dasharray:7.0,7.0;"/><polygon fill="#181818" points="544.5,598.99,548.5,589.99,544.5,593.99,540.5,589.99,544.5,598.99" style="stroke:#181818;stroke-width:1.0;"/></g><!--link Repositories to OfferRepository--><g id="link_Repositories_OfferRepository"><path codeLine="235" d="M894.78,321.18 C886.77,350.46 879.12,378.4 873.4,399.32 " fill="none" id="Repositories-to-OfferRepository" style="stroke:#181818;stroke-width:1.0;"/><polygon fill="#181818" points="872.06,404.22,878.3101,396.6084,873.3901,399.4002,870.5983,394.4802,872.06,404.22" style="stroke:#181818;stroke-width:1.0;"/><text fill="#000000" font-family="sans-serif" font-size="13" lengthAdjust="spacing" textLength="86" x="886.5" y="363.7686">offerRepository</text></g><!--link ListDealsController to OfferRepository--><g id="link_ListDealsController_OfferRepository"><path codeLine="237" d="M673.33,274.24 C726.72,319.51 784.87,368.83 822.63,400.84 " fill="none" id="ListDealsController-to-OfferRepository" style="stroke:#181818;stroke-width:1.0;stroke-dasharray:7.0,7.0;"/><polygon fill="#181818" points="826.67,404.27,822.3848,395.4023,822.8536,401.0396,817.2162,401.5085,826.67,404.27" style="stroke:#181818;stroke-width:1.0;"/></g><!--link OfferRepository to Offer--><g id="link_OfferRepository_Offer"><path codeLine="239" d="M863.5,468.87 C863.5,488.46 863.5,514.2 863.5,537 C863.5,537 863.5,537 863.5,897.5 C863.5,957.33 863.5,1024.37 863.5,1077.74 " fill="none" id="OfferRepository-to-Offer" style="stroke:#181818;stroke-width:1.0;"/><polygon fill="#181818" points="863.5,1082.86,867.5,1073.86,863.5,1077.86,859.5,1073.86,863.5,1082.86" style="stroke:#181818;stroke-width:1.0;"/></g><!--link PublishedAnnouncement to AnnouncementState--><g id="link_PublishedAnnouncement_AnnouncementState"><path codeLine="242" d="M1226.33,1458 C1238.03,1458 1249.72,1458 1261.42,1458 " fill="none" id="PublishedAnnouncement-AnnouncementState" style="stroke:#181818;stroke-width:1.0;"/></g><!--link Offer to OfferState--><g id="link_Offer_OfferState"><path codeLine="244" d="M863.5,1272.01 C863.5,1316.29 863.5,1367.51 863.5,1404.82 " fill="none" id="Offer-to-OfferState" style="stroke:#181818;stroke-width:1.0;"/><polygon fill="#181818" points="863.5,1410.22,867.5,1401.22,863.5,1405.22,859.5,1401.22,863.5,1410.22" style="stroke:#181818;stroke-width:1.0;"/></g><!--SRC=[ZLTBRziu4BxpLn2vh5tBmHPxSuC0JXnW0smQ8svlUw4bEkQkBAeaLTJfxd_lSFZK8qXyaCMPZpD3pbE_rVnWg95KYUUZePLGl3H2DgIicTRqxjJMyipvJxBS6QaurVP9bdy9RQwUPCslgO8dMGJWZ9-Og8k6dNY1sA8zoeP_xavxhWgBBLYbkDQ5OJyyjGLDhLJ6BUTaySmDQfkvTwi7NlydtgWjLresO1BT6IMQPuewOIaQG_l2F37gIdkiXR1Qep7KsHH498i9MNpLNFbJzMLd9y3ZPjkStTiUt1_cIzZartTMidztnlZ5Pv3fNxT9ihi7Vn6FXmDNzXvkQy71y1B_25tIRRUlXJxoQjqqicjAVhByTefguPK43gTILLojJy0oXD25aqzdFUd5AxB_RYQb5nEovr7s35_XX8-96scJUYBN6GLBUn-ywKxKYTmPPZZ5U4K_hykIjuPNaR3bJGN_SVt4_u6G1q2wL-U7dt0p7gEDuiuZXC9lQQFaHRItid84wwHROSxMEh_SG8OeKPgCXAQ5jVUrjZIu98ykQ0bY2g-m24gou7_YMbGSRWFE66rfC3RauOPNIigJdk0mSto5jMNgNtl8NSjAhfEcFsMdenP_4NkcVT1aHD4SsLuO1cwkvS4a2RkkkVlHIjsfePnKPo9u_HqImSgu-zQ95cEgluS7UkQfcqwBnYPmShYHXjLRk4oUuO8tig8HhXozIaP-y-cNULTm7GX6EY5vLRB-pyHRFv9US7Y9oQXRUH9QmoM4WsvSgdndTUUCZnNlA8t4GmRntTDzLX2LRBaovo07gnXJdBcbtztYNuQmDy1i91sKF55pv6WqBU6AeV8bwPFv7bHjRBfLyFZa2L_EBNyyHCUOtZA0eiMjVnaoh9J8j8i0I9TMXhV0YZht0srus4un6t2FXrlP6CLA4xYXTL7s30UBUlAYbmiAHjrl0ZNhZ9zYDSel2nC_HIWBaHufMjPLbZOEJgEpiKYuE9si9LdOJeMe2oKdstad2vYODi189c0fVM0jeBod5v1O6oDdqd9i-v_dvCUzBQAEEH-8UU9G0WJSpZcAmeh_p1hnWZwvEGSVk6w8tRPNyxm4I46mE5_w3ddVk52UpLSvrtTO9plPuJV5K1fn9aD-X5fta3ED4IKUOipkxVtMSJqMWQ4pejg1Pm8A7X-V0UDpV80iSqRCVeQEs0z0X5GOqGVEj5GOZGIhnGiEAXNFbz5vDbOsdDKQyqxMTHPI4pmNGqdDF8KC8c_EQrsw5hw62dVJxI6HTZ1bpSR83Nytj2VKOdQyTXtgJRdJQ4oBDmr0rFeze7VhNByJX-xK3z96PUadAondawuUk_FhFRYnd-aWDHKKDs3xHJvP1jhqD1ftn64EovUR-UdLVyjKi84SQ_V5XmimtJxHafKjrN0DsdxQQE1V4pVC8Ww07o-c-zgA7fa6z7JJMwO6HGQLD6DH9-IAH0AQ7IStuXlonSVBopz-J_OCjwTH3_VZF9OHxPwbE_F4xBI2_jWO9Xfx6ZVAPHkooQm7d3usRiHdwhuhTq-nvmRXhrriF1Nndrou0Ryw1-SFG3V98yn-f7hBGwC33sjmCk02PGIrGrU21RKVCX1iG2q9HKWUu9VNKoKgmsGr3R1vwu7pghmJaHvpkUoZLy8ti5TaW_2i9HEIz-VBo8Nycz0pRC8hEYYnR-ZCWKDPI_lpE9kbqrap7eQyf6IVfv9V]--></g></svg>