<?xml version="1.0" encoding="UTF-8" standalone="no"?><svg xmlns="http://www.w3.org/2000/svg" xmlns:xlink="http://www.w3.org/1999/xlink" contentStyleType="text/css" height="822px" preserveAspectRatio="none" style="width:1696px;height:822px;background:#FFFFFF;" version="1.1" viewBox="0 0 1696 822" width="1696px" zoomAndPan="magnify"><defs/><g><rect fill="#FFFFFF" height="624.1875" style="stroke:#181818;stroke-width:1.0;" width="10" x="128" y="111.4688"/><rect fill="#FFFFFF" height="624.1875" style="stroke:#181818;stroke-width:1.0;" width="10" x="449" y="111.4688"/><rect fill="#FFFFFF" height="30" style="stroke:#181818;stroke-width:1.0;" width="10" x="1180" y="270.25"/><rect fill="#FFFFFF" height="30" style="stroke:#181818;stroke-width:1.0;" width="10" x="1180" y="339.4063"/><rect fill="#FFFFFF" height="30" style="stroke:#181818;stroke-width:1.0;" width="10" x="1180" y="408.5625"/><rect fill="#FFFFFF" height="30" style="stroke:#181818;stroke-width:1.0;" width="10" x="1332.5" y="522.0313"/><rect fill="#FFFFFF" height="46.1563" style="stroke:#181818;stroke-width:1.0;" width="10" x="1549.5" y="650.3438"/><rect fill="none" height="456.5625" style="stroke:#000000;stroke-width:1.5;" width="1368" x="322.5" y="201.7813"/><rect fill="none" height="106.4688" style="stroke:#000000;stroke-width:1.5;" width="1096" x="332.5" y="453.5625"/><line style="stroke:#181818;stroke-width:0.5;stroke-dasharray:5.0,5.0;" x1="133" x2="133" y1="70.3125" y2="753.6563"/><line style="stroke:#181818;stroke-width:0.5;stroke-dasharray:5.0,5.0;" x1="453.5" x2="453.5" y1="70.3125" y2="753.6563"/><line style="stroke:#181818;stroke-width:0.5;stroke-dasharray:5.0,5.0;" x1="1184.5" x2="1184.5" y1="70.3125" y2="753.6563"/><line style="stroke:#181818;stroke-width:0.5;stroke-dasharray:5.0,5.0;" x1="1337.5" x2="1337.5" y1="70.3125" y2="753.6563"/><line style="stroke:#181818;stroke-width:0.5;stroke-dasharray:5.0,5.0;" x1="1554.5" x2="1554.5" y1="167.125" y2="753.6563"/><rect fill="#E3E3E3" height="39.1563" rx="2.5" ry="2.5" style="stroke:#181818;stroke-width:0.5;" width="256" x="5" y="30.1563"/><text fill="#000000" font-family="sans-serif" font-size="20" lengthAdjust="spacing" textLength="242" x="12" y="57.918">:DisplayEmployeeController</text><rect fill="#E3E3E3" height="39.1563" rx="2.5" ry="2.5" style="stroke:#181818;stroke-width:0.5;" width="256" x="5" y="752.6563"/><text fill="#000000" font-family="sans-serif" font-size="20" lengthAdjust="spacing" textLength="242" x="12" y="780.418">:DisplayEmployeeController</text><rect fill="#E3E3E3" height="39.1563" rx="2.5" ry="2.5" style="stroke:#181818;stroke-width:0.5;" width="223" x="342.5" y="30.1563"/><text fill="#000000" font-family="sans-serif" font-size="20" lengthAdjust="spacing" textLength="209" x="349.5" y="57.918">:StoreEmployeeMapper</text><rect fill="#E3E3E3" height="39.1563" rx="2.5" ry="2.5" style="stroke:#181818;stroke-width:0.5;" width="223" x="342.5" y="752.6563"/><text fill="#000000" font-family="sans-serif" font-size="20" lengthAdjust="spacing" textLength="209" x="349.5" y="780.418">:StoreEmployeeMapper</text><rect fill="#E3E3E3" height="64.3125" rx="2.5" ry="2.5" style="stroke:#181818;stroke-width:0.5;" width="123" x="1123.5" y="5"/><text fill="#000000" font-family="sans-serif" font-size="20" lengthAdjust="spacing" textLength="79" x="1145.5" y="32.7617">StoreList</text><text fill="#000000" font-family="sans-serif" font-size="20" lengthAdjust="spacing" textLength="109" x="1130.5" y="57.918">:List&lt;Store&gt;</text><rect fill="#E3E3E3" height="64.3125" rx="2.5" ry="2.5" style="stroke:#181818;stroke-width:0.5;" width="123" x="1123.5" y="752.6563"/><text fill="#000000" font-family="sans-serif" font-size="20" lengthAdjust="spacing" textLength="79" x="1145.5" y="780.418">StoreList</text><text fill="#000000" font-family="sans-serif" font-size="20" lengthAdjust="spacing" textLength="109" x="1130.5" y="805.5742">:List&lt;Store&gt;</text><rect fill="#E3E3E3" height="64.3125" rx="2.5" ry="2.5" style="stroke:#181818;stroke-width:0.5;" width="162" x="1256.5" y="5"/><text fill="#000000" font-family="sans-serif" font-size="20" lengthAdjust="spacing" textLength="118" x="1278.5" y="32.7617">EmployeeList</text><text fill="#000000" font-family="sans-serif" font-size="20" lengthAdjust="spacing" textLength="148" x="1263.5" y="57.918">:List&lt;Employee&gt;</text><rect fill="#E3E3E3" height="64.3125" rx="2.5" ry="2.5" style="stroke:#181818;stroke-width:0.5;" width="162" x="1256.5" y="752.6563"/><text fill="#000000" font-family="sans-serif" font-size="20" lengthAdjust="spacing" textLength="118" x="1278.5" y="780.418">EmployeeList</text><text fill="#000000" font-family="sans-serif" font-size="20" lengthAdjust="spacing" textLength="148" x="1263.5" y="805.5742">:List&lt;Employee&gt;</text><rect fill="#E3E3E3" height="64.3125" rx="2.5" ry="2.5" style="stroke:#181818;stroke-width:0.5;" width="252" x="1428.5" y="752.6563"/><text fill="#000000" font-family="sans-serif" font-size="20" lengthAdjust="spacing" textLength="208" x="1450.5" y="780.418">StoreEmployeeListDTO</text><text fill="#000000" font-family="sans-serif" font-size="20" lengthAdjust="spacing" textLength="238" x="1435.5" y="805.5742">:List&lt;StoreEmployeeDTO&gt;</text><rect fill="#FFFFFF" height="624.1875" style="stroke:#181818;stroke-width:1.0;" width="10" x="128" y="111.4688"/><rect fill="#FFFFFF" height="624.1875" style="stroke:#181818;stroke-width:1.0;" width="10" x="449" y="111.4688"/><rect fill="#FFFFFF" height="30" style="stroke:#181818;stroke-width:1.0;" width="10" x="1180" y="270.25"/><rect fill="#FFFFFF" height="30" style="stroke:#181818;stroke-width:1.0;" width="10" x="1180" y="339.4063"/><rect fill="#FFFFFF" height="30" style="stroke:#181818;stroke-width:1.0;" width="10" x="1180" y="408.5625"/><rect fill="#FFFFFF" height="30" style="stroke:#181818;stroke-width:1.0;" width="10" x="1332.5" y="522.0313"/><rect fill="#FFFFFF" height="46.1563" style="stroke:#181818;stroke-width:1.0;" width="10" x="1549.5" y="650.3438"/><polygon fill="#181818" points="437,107.4688,447,111.4688,437,115.4688,441,111.4688" style="stroke:#181818;stroke-width:1.0;"/><line style="stroke:#181818;stroke-width:1.0;" x1="138" x2="443" y1="111.4688" y2="111.4688"/><text fill="#000000" font-family="sans-serif" font-size="20" font-weight="bold" lengthAdjust="spacing" textLength="11" x="145" y="105.0742">1</text><text fill="#000000" font-family="sans-serif" font-size="20" lengthAdjust="spacing" textLength="282" x="160" y="105.0742">toDTO(StoreList, EmployeeList)</text><polygon fill="#181818" points="1416.5,146.625,1426.5,150.625,1416.5,154.625,1420.5,150.625" style="stroke:#181818;stroke-width:1.0;"/><line style="stroke:#181818;stroke-width:1.0;stroke-dasharray:2.0,2.0;" x1="459" x2="1422.5" y1="150.625" y2="150.625"/><text fill="#000000" font-family="sans-serif" font-size="20" font-weight="bold" lengthAdjust="spacing" textLength="11" x="466" y="144.2305">2</text><text fill="#000000" font-family="sans-serif" font-size="20" lengthAdjust="spacing" textLength="70" x="481" y="144.2305">create()</text><rect fill="#E3E3E3" height="64.3125" rx="2.5" ry="2.5" style="stroke:#181818;stroke-width:0.5;" width="252" x="1428.5" y="119.4688"/><text fill="#000000" font-family="sans-serif" font-size="20" lengthAdjust="spacing" textLength="208" x="1450.5" y="147.2305">StoreEmployeeListDTO</text><text fill="#000000" font-family="sans-serif" font-size="20" lengthAdjust="spacing" textLength="238" x="1435.5" y="172.3867">:List&lt;StoreEmployeeDTO&gt;</text><path d="M322.5,201.7813 L408.5,201.7813 L408.5,218.9375 L398.5,228.9375 L322.5,228.9375 L322.5,201.7813 " fill="#EEEEEE" style="stroke:#000000;stroke-width:1.5;"/><rect fill="none" height="456.5625" style="stroke:#000000;stroke-width:1.5;" width="1368" x="322.5" y="201.7813"/><text fill="#000000" font-family="sans-serif" font-size="20" font-weight="bold" lengthAdjust="spacing" textLength="41" x="337.5" y="223.543">loop</text><text fill="#000000" font-family="sans-serif" font-size="20" font-weight="bold" lengthAdjust="spacing" textLength="211" x="423.5" y="224.543">[for each store object]</text><polygon fill="#181818" points="1168,266.25,1178,270.25,1168,274.25,1172,270.25" style="stroke:#181818;stroke-width:1.0;"/><line style="stroke:#181818;stroke-width:1.0;" x1="459" x2="1174" y1="270.25" y2="270.25"/><text fill="#000000" font-family="sans-serif" font-size="20" font-weight="bold" lengthAdjust="spacing" textLength="11" x="466" y="263.8555">3</text><text fill="#000000" font-family="sans-serif" font-size="20" lengthAdjust="spacing" textLength="264" x="481" y="263.8555">storeName = getDesignation()</text><polygon fill="#181818" points="1168,335.4063,1178,339.4063,1168,343.4063,1172,339.4063" style="stroke:#181818;stroke-width:1.0;"/><line style="stroke:#181818;stroke-width:1.0;" x1="459" x2="1174" y1="339.4063" y2="339.4063"/><text fill="#000000" font-family="sans-serif" font-size="20" font-weight="bold" lengthAdjust="spacing" textLength="11" x="466" y="333.0117">4</text><text fill="#000000" font-family="sans-serif" font-size="20" lengthAdjust="spacing" textLength="145" x="481" y="333.0117">storeId = getId()</text><polygon fill="#181818" points="1168,404.5625,1178,408.5625,1168,412.5625,1172,408.5625" style="stroke:#181818;stroke-width:1.0;"/><line style="stroke:#181818;stroke-width:1.0;" x1="459" x2="1174" y1="408.5625" y2="408.5625"/><text fill="#000000" font-family="sans-serif" font-size="20" font-weight="bold" lengthAdjust="spacing" textLength="11" x="466" y="402.168">5</text><text fill="#000000" font-family="sans-serif" font-size="20" lengthAdjust="spacing" textLength="332" x="481" y="402.168">availableListing = getAvailableListing()</text><path d="M332.5,453.5625 L418.5,453.5625 L418.5,470.7188 L408.5,480.7188 L332.5,480.7188 L332.5,453.5625 " fill="#EEEEEE" style="stroke:#000000;stroke-width:1.5;"/><rect fill="none" height="106.4688" style="stroke:#000000;stroke-width:1.5;" width="1096" x="332.5" y="453.5625"/><text fill="#000000" font-family="sans-serif" font-size="20" font-weight="bold" lengthAdjust="spacing" textLength="41" x="347.5" y="475.3242">loop</text><text fill="#000000" font-family="sans-serif" font-size="20" font-weight="bold" lengthAdjust="spacing" textLength="252" x="433.5" y="476.3242">[for each employee object]</text><polygon fill="#181818" points="1320.5,518.0313,1330.5,522.0313,1320.5,526.0313,1324.5,522.0313" style="stroke:#181818;stroke-width:1.0;"/><line style="stroke:#181818;stroke-width:1.0;" x1="459" x2="1326.5" y1="522.0313" y2="522.0313"/><text fill="#000000" font-family="sans-serif" font-size="20" font-weight="bold" lengthAdjust="spacing" textLength="11" x="466" y="515.6367">6</text><text fill="#000000" font-family="sans-serif" font-size="20" lengthAdjust="spacing" textLength="311" x="481" y="515.6367">employees(i) = getEmployee(store)</text><line style="stroke:#181818;stroke-width:1.0;stroke-dasharray:2.0,2.0;" x1="459" x2="501" y1="598.1875" y2="598.1875"/><line style="stroke:#181818;stroke-width:1.0;stroke-dasharray:2.0,2.0;" x1="501" x2="501" y1="598.1875" y2="611.1875"/><line style="stroke:#181818;stroke-width:1.0;stroke-dasharray:2.0,2.0;" x1="460" x2="501" y1="611.1875" y2="611.1875"/><polygon fill="#181818" points="470,607.1875,460,611.1875,470,615.1875,466,611.1875" style="stroke:#181818;stroke-width:1.0;"/><text fill="#000000" font-family="sans-serif" font-size="20" font-weight="bold" lengthAdjust="spacing" textLength="11" x="466" y="591.793">7</text><text fill="#000000" font-family="sans-serif" font-size="20" lengthAdjust="spacing" textLength="692" x="481" y="591.793">storeEmployeeDTO = toDTO(storeName, storeId, availableListing, employees)</text><polygon fill="#181818" points="1537.5,646.3438,1547.5,650.3438,1537.5,654.3438,1541.5,650.3438" style="stroke:#181818;stroke-width:1.0;"/><line style="stroke:#181818;stroke-width:1.0;" x1="459" x2="1543.5" y1="650.3438" y2="650.3438"/><text fill="#000000" font-family="sans-serif" font-size="20" font-weight="bold" lengthAdjust="spacing" textLength="11" x="466" y="643.9492">8</text><text fill="#000000" font-family="sans-serif" font-size="20" lengthAdjust="spacing" textLength="221" x="481" y="643.9492">add(storeEmployeeDTO)</text><polygon fill="#181818" points="470,692.5,460,696.5,470,700.5,466,696.5" style="stroke:#181818;stroke-width:1.0;"/><line style="stroke:#181818;stroke-width:1.0;stroke-dasharray:2.0,2.0;" x1="464" x2="1553.5" y1="696.5" y2="696.5"/><text fill="#000000" font-family="sans-serif" font-size="20" font-weight="bold" lengthAdjust="spacing" textLength="11" x="476" y="690.1055">9</text><text fill="#000000" font-family="sans-serif" font-size="20" lengthAdjust="spacing" textLength="208" x="491" y="690.1055">StoreEmployeeListDTO</text><polygon fill="#181818" points="144,731.6563,134,735.6563,144,739.6563,140,735.6563" style="stroke:#181818;stroke-width:1.0;"/><line style="stroke:#181818;stroke-width:1.0;stroke-dasharray:2.0,2.0;" x1="138" x2="453" y1="735.6563" y2="735.6563"/><text fill="#000000" font-family="sans-serif" font-size="20" font-weight="bold" lengthAdjust="spacing" textLength="22" x="150" y="729.2617">10</text><text fill="#000000" font-family="sans-serif" font-size="20" lengthAdjust="spacing" textLength="208" x="176" y="729.2617">StoreEmployeeListDTO</text><!--SRC=[nLJ1Rjim3BtxAuHUPXSfCFGOR066fGCAhDiXE-x2M8oZHXODIUcMVVraEt8iMogAea1rCKmzak-H5Cr1g0Oqr9BA0tB6SGT7QR-HiXln3zdjnynu2Aj9KRdNL2Ep-eYZcmRA0rIuiIU9J6DfGLLo331xuFH7g8hjG1hCCZXQKiTwYphBFkm5HxOZiblwcpa7AqhHWBBiQhaMff5mkgiRIIV4huwO9YbHNp4mB7axYRAnfD6Z7g1fpluHU-ZP0RuBOt-hPVlvr1bM5-VM6BhuS6ClR-iTnuX8kl7r-jVF8BE_S_RLN44NC6FdaomEkrd5bBCbi-G2vuEmHK2r6293QSKJM7oc_ZDehDG3gjGumtHYF216zsOge_MuldOo-d1vSKaWYHetOPeXb7jcMYz6sqStgGDaV09ZDFVgqdwNi0lu0zp3-Cmgj6iqeb9W1Qcy26A5vGWajeTZ1F0gClUyftBFtu41F86Gi9NTV_leEofV9jQt9XRs6CyCVPjdVKxe60-Ja-B3c5mKlGmFoBiw5xEu0yte84Va976e-0jAdtpCPh8m7Ft-VG_Jkl2pifYrR75HNhou_PFQ0UVvbCHpFOyMeYr2D7UN9Aq-jagpr3355sYgtEd5-igqvtKuR9yHBhrX_mC0]--></g></svg>