<?xml version="1.0" encoding="UTF-8" standalone="no"?><svg xmlns="http://www.w3.org/2000/svg" xmlns:xlink="http://www.w3.org/1999/xlink" contentStyleType="text/css" height="2164px" preserveAspectRatio="none" style="width:3665px;height:2164px;background:#FFFFFF;" version="1.1" viewBox="0 0 3665 2164" width="3665px" zoomAndPan="magnify"><defs/><g><rect fill="#FFFFFF" height="1956.5" style="stroke:#181818;stroke-width:1.0;" width="10" x="81.5" y="100.1563"/><rect fill="#FFFFFF" height="1925.3438" style="stroke:#181818;stroke-width:1.0;" width="10" x="746.5" y="131.3125"/><rect fill="#FFFFFF" height="1746.5625" style="stroke:#181818;stroke-width:1.0;" width="10" x="1014.5" y="220.625"/><rect fill="#FFFFFF" height="39.1563" style="stroke:#181818;stroke-width:1.0;" width="10" x="1206.5" y="259.7813"/><rect fill="#FFFFFF" height="39.1563" style="stroke:#181818;stroke-width:1.0;" width="10" x="1328" y="338.0938"/><rect fill="#FFFFFF" height="39.1563" style="stroke:#181818;stroke-width:1.0;" width="10" x="1328" y="820.9688"/><rect fill="#FFFFFF" height="365.4063" style="stroke:#181818;stroke-width:1.0;" width="10" x="1429.5" y="416.4063"/><rect fill="#FFFFFF" height="39.1563" style="stroke:#181818;stroke-width:1.0;" width="10" x="1694.5" y="575.1875"/><rect fill="#FFFFFF" height="365.4063" style="stroke:#181818;stroke-width:1.0;" width="10" x="1839.5" y="899.2813"/><rect fill="#FFFFFF" height="39.1563" style="stroke:#181818;stroke-width:1.0;" width="10" x="2184.5" y="1058.0625"/><rect fill="#FFFFFF" height="624.1875" style="stroke:#181818;stroke-width:1.0;" width="10" x="2407" y="1303.8438"/><rect fill="#FFFFFF" height="30" style="stroke:#181818;stroke-width:1.0;" width="10" x="3149" y="705.6563"/><rect fill="#FFFFFF" height="30" style="stroke:#181818;stroke-width:1.0;" width="10" x="3149" y="1462.625"/><rect fill="#FFFFFF" height="30" style="stroke:#181818;stroke-width:1.0;" width="10" x="3149" y="1531.7813"/><rect fill="#FFFFFF" height="30" style="stroke:#181818;stroke-width:1.0;" width="10" x="3149" y="1600.9375"/><rect fill="#FFFFFF" height="30" style="stroke:#181818;stroke-width:1.0;" width="10" x="3301.5" y="1188.5313"/><rect fill="#FFFFFF" height="30" style="stroke:#181818;stroke-width:1.0;" width="10" x="3301.5" y="1714.4063"/><rect fill="#FFFFFF" height="46.1563" style="stroke:#181818;stroke-width:1.0;" width="10" x="3518.5" y="1842.7188"/><rect fill="none" height="236.9375" style="stroke:#000000;stroke-width:1.5;" width="1835" x="1390.5" y="506.7188"/><rect fill="none" height="236.9375" style="stroke:#000000;stroke-width:1.5;" width="1616.5" x="1781" y="989.5938"/><rect fill="none" height="456.5625" style="stroke:#000000;stroke-width:1.5;" width="1379" x="2280.5" y="1394.1563"/><rect fill="none" height="106.4688" style="stroke:#000000;stroke-width:1.5;" width="1107" x="2290.5" y="1645.9375"/><line style="stroke:#181818;stroke-width:0.5;stroke-dasharray:5.0,5.0;" x1="86" x2="86" y1="90.1563" y2="2074.6563"/><line style="stroke:#181818;stroke-width:0.5;stroke-dasharray:5.0,5.0;" x1="751.5" x2="751.5" y1="90.1563" y2="2074.6563"/><line style="stroke:#181818;stroke-width:0.5;stroke-dasharray:5.0,5.0;" x1="1019.5" x2="1019.5" y1="174.3906" y2="2074.6563"/><line style="stroke:#181818;stroke-width:0.5;stroke-dasharray:5.0,5.0;" x1="1211.5" x2="1211.5" y1="90.1563" y2="2074.6563"/><line style="stroke:#181818;stroke-width:0.5;stroke-dasharray:5.0,5.0;" x1="1332.5" x2="1332.5" y1="90.1563" y2="2074.6563"/><line style="stroke:#181818;stroke-width:0.5;stroke-dasharray:5.0,5.0;" x1="1434.5" x2="1434.5" y1="90.1563" y2="2074.6563"/><line style="stroke:#181818;stroke-width:0.5;stroke-dasharray:5.0,5.0;" x1="1699" x2="1699" y1="90.1563" y2="2074.6563"/><line style="stroke:#181818;stroke-width:0.5;stroke-dasharray:5.0,5.0;" x1="1844" x2="1844" y1="90.1563" y2="2074.6563"/><line style="stroke:#181818;stroke-width:0.5;stroke-dasharray:5.0,5.0;" x1="2189.5" x2="2189.5" y1="90.1563" y2="2074.6563"/><line style="stroke:#181818;stroke-width:0.5;stroke-dasharray:5.0,5.0;" x1="2411.5" x2="2411.5" y1="90.1563" y2="2074.6563"/><line style="stroke:#181818;stroke-width:0.5;stroke-dasharray:5.0,5.0;" x1="3153.5" x2="3153.5" y1="472.0625" y2="2074.6563"/><line style="stroke:#181818;stroke-width:0.5;stroke-dasharray:5.0,5.0;" x1="3306.5" x2="3306.5" y1="954.9375" y2="2074.6563"/><line style="stroke:#181818;stroke-width:0.5;stroke-dasharray:5.0,5.0;" x1="3523.5" x2="3523.5" y1="1359.5" y2="2074.6563"/><text fill="#000000" font-family="sans-serif" font-size="20" lengthAdjust="spacing" textLength="157" x="5" y="85.7617">Network Manager</text><ellipse cx="86.5" cy="13.5" fill="#E3E3E3" rx="8" ry="8" style="stroke:#181818;stroke-width:0.5;"/><path d="M86.5,21.5 L86.5,48.5 M73.5,29.5 L99.5,29.5 M86.5,48.5 L73.5,63.5 M86.5,48.5 L99.5,63.5 " fill="none" style="stroke:#181818;stroke-width:0.5;"/><text fill="#000000" font-family="sans-serif" font-size="20" lengthAdjust="spacing" textLength="157" x="5" y="2094.418">Network Manager</text><ellipse cx="86.5" cy="2107.3125" fill="#E3E3E3" rx="8" ry="8" style="stroke:#181818;stroke-width:0.5;"/><path d="M86.5,2115.3125 L86.5,2142.3125 M73.5,2123.3125 L99.5,2123.3125 M86.5,2142.3125 L73.5,2157.3125 M86.5,2142.3125 L99.5,2157.3125 " fill="none" style="stroke:#181818;stroke-width:0.5;"/><rect fill="#E3E3E3" height="39.1563" rx="2.5" ry="2.5" style="stroke:#181818;stroke-width:0.5;" width="190" x="656.5" y="50"/><text fill="#000000" font-family="sans-serif" font-size="20" lengthAdjust="spacing" textLength="176" x="663.5" y="77.7617">:DisplayEmployeeUI</text><rect fill="#E3E3E3" height="39.1563" rx="2.5" ry="2.5" style="stroke:#181818;stroke-width:0.5;" width="190" x="656.5" y="2073.6563"/><text fill="#000000" font-family="sans-serif" font-size="20" lengthAdjust="spacing" textLength="176" x="663.5" y="2101.418">:DisplayEmployeeUI</text><rect fill="#E3E3E3" height="39.1563" rx="2.5" ry="2.5" style="stroke:#181818;stroke-width:0.5;" width="256" x="891.5" y="2073.6563"/><text fill="#000000" font-family="sans-serif" font-size="20" lengthAdjust="spacing" textLength="242" x="898.5" y="2101.418">:DisplayEmployeeController</text><rect fill="#E3E3E3" height="39.1563" rx="2.5" ry="2.5" style="stroke:#181818;stroke-width:0.5;" width="108" x="1157.5" y="50"/><text fill="#000000" font-family="sans-serif" font-size="20" lengthAdjust="spacing" textLength="94" x="1164.5" y="77.7617">:repository</text><rect fill="#E3E3E3" height="39.1563" rx="2.5" ry="2.5" style="stroke:#181818;stroke-width:0.5;" width="108" x="1157.5" y="2073.6563"/><text fill="#000000" font-family="sans-serif" font-size="20" lengthAdjust="spacing" textLength="94" x="1164.5" y="2101.418">:repository</text><rect fill="#E3E3E3" height="64.3125" rx="2.5" ry="2.5" style="stroke:#181818;stroke-width:0.5;" width="115" x="1275.5" y="24.8438"/><text fill="#000000" font-family="sans-serif" font-size="20" lengthAdjust="spacing" textLength="88" x="1289" y="52.6055">repository</text><text fill="#000000" font-family="sans-serif" font-size="20" lengthAdjust="spacing" textLength="101" x="1282.5" y="77.7617">:Repository</text><rect fill="#E3E3E3" height="64.3125" rx="2.5" ry="2.5" style="stroke:#181818;stroke-width:0.5;" width="115" x="1275.5" y="2073.6563"/><text fill="#000000" font-family="sans-serif" font-size="20" lengthAdjust="spacing" textLength="88" x="1289" y="2101.418">repository</text><text fill="#000000" font-family="sans-serif" font-size="20" lengthAdjust="spacing" textLength="101" x="1282.5" y="2126.5742">:Repository</text><rect fill="#E3E3E3" height="64.3125" rx="2.5" ry="2.5" style="stroke:#181818;stroke-width:0.5;" width="68" x="1400.5" y="24.8438"/><text fill="#000000" font-family="sans-serif" font-size="20" lengthAdjust="spacing" textLength="48" x="1410.5" y="52.6055">Store</text><text fill="#000000" font-family="sans-serif" font-size="20" lengthAdjust="spacing" textLength="54" x="1407.5" y="77.7617">:Store</text><rect fill="#E3E3E3" height="64.3125" rx="2.5" ry="2.5" style="stroke:#181818;stroke-width:0.5;" width="68" x="1400.5" y="2073.6563"/><text fill="#000000" font-family="sans-serif" font-size="20" lengthAdjust="spacing" textLength="48" x="1410.5" y="2101.418">Store</text><text fill="#000000" font-family="sans-serif" font-size="20" lengthAdjust="spacing" textLength="54" x="1407.5" y="2126.5742">:Store</text><rect fill="#E3E3E3" height="64.3125" rx="2.5" ry="2.5" style="stroke:#181818;stroke-width:0.5;" width="163" x="1618" y="24.8438"/><text fill="#000000" font-family="sans-serif" font-size="20" lengthAdjust="spacing" textLength="140" x="1629.5" y="52.6055">storeRepository</text><text fill="#000000" font-family="sans-serif" font-size="20" lengthAdjust="spacing" textLength="149" x="1625" y="77.7617">:StoreRepository</text><rect fill="#E3E3E3" height="64.3125" rx="2.5" ry="2.5" style="stroke:#181818;stroke-width:0.5;" width="163" x="1618" y="2073.6563"/><text fill="#000000" font-family="sans-serif" font-size="20" lengthAdjust="spacing" textLength="140" x="1629.5" y="2101.418">storeRepository</text><text fill="#000000" font-family="sans-serif" font-size="20" lengthAdjust="spacing" textLength="149" x="1625" y="2126.5742">:StoreRepository</text><rect fill="#E3E3E3" height="64.3125" rx="2.5" ry="2.5" style="stroke:#181818;stroke-width:0.5;" width="107" x="1791" y="24.8438"/><text fill="#000000" font-family="sans-serif" font-size="20" lengthAdjust="spacing" textLength="87" x="1801" y="52.6055">Employee</text><text fill="#000000" font-family="sans-serif" font-size="20" lengthAdjust="spacing" textLength="93" x="1798" y="77.7617">:Employee</text><rect fill="#E3E3E3" height="64.3125" rx="2.5" ry="2.5" style="stroke:#181818;stroke-width:0.5;" width="107" x="1791" y="2073.6563"/><text fill="#000000" font-family="sans-serif" font-size="20" lengthAdjust="spacing" textLength="87" x="1801" y="2101.418">Employee</text><text fill="#000000" font-family="sans-serif" font-size="20" lengthAdjust="spacing" textLength="93" x="1798" y="2126.5742">:Employee</text><rect fill="#E3E3E3" height="64.3125" rx="2.5" ry="2.5" style="stroke:#181818;stroke-width:0.5;" width="202" x="2088.5" y="24.8438"/><text fill="#000000" font-family="sans-serif" font-size="20" lengthAdjust="spacing" textLength="180" x="2099.5" y="52.6055">employeeRepository</text><text fill="#000000" font-family="sans-serif" font-size="20" lengthAdjust="spacing" textLength="188" x="2095.5" y="77.7617">:EmployeeRepository</text><rect fill="#E3E3E3" height="64.3125" rx="2.5" ry="2.5" style="stroke:#181818;stroke-width:0.5;" width="202" x="2088.5" y="2073.6563"/><text fill="#000000" font-family="sans-serif" font-size="20" lengthAdjust="spacing" textLength="180" x="2099.5" y="2101.418">employeeRepository</text><text fill="#000000" font-family="sans-serif" font-size="20" lengthAdjust="spacing" textLength="188" x="2095.5" y="2126.5742">:EmployeeRepository</text><rect fill="#E3E3E3" height="39.1563" rx="2.5" ry="2.5" style="stroke:#181818;stroke-width:0.5;" width="223" x="2300.5" y="50"/><text fill="#000000" font-family="sans-serif" font-size="20" lengthAdjust="spacing" textLength="209" x="2307.5" y="77.7617">:StoreEmployeeMapper</text><rect fill="#E3E3E3" height="39.1563" rx="2.5" ry="2.5" style="stroke:#181818;stroke-width:0.5;" width="223" x="2300.5" y="2073.6563"/><text fill="#000000" font-family="sans-serif" font-size="20" lengthAdjust="spacing" textLength="209" x="2307.5" y="2101.418">:StoreEmployeeMapper</text><rect fill="#E3E3E3" height="64.3125" rx="2.5" ry="2.5" style="stroke:#181818;stroke-width:0.5;" width="123" x="3092.5" y="2073.6563"/><text fill="#000000" font-family="sans-serif" font-size="20" lengthAdjust="spacing" textLength="79" x="3114.5" y="2101.418">StoreList</text><text fill="#000000" font-family="sans-serif" font-size="20" lengthAdjust="spacing" textLength="109" x="3099.5" y="2126.5742">:List&lt;Store&gt;</text><rect fill="#E3E3E3" height="64.3125" rx="2.5" ry="2.5" style="stroke:#181818;stroke-width:0.5;" width="162" x="3225.5" y="2073.6563"/><text fill="#000000" font-family="sans-serif" font-size="20" lengthAdjust="spacing" textLength="118" x="3247.5" y="2101.418">EmployeeList</text><text fill="#000000" font-family="sans-serif" font-size="20" lengthAdjust="spacing" textLength="148" x="3232.5" y="2126.5742">:List&lt;Employee&gt;</text><rect fill="#E3E3E3" height="64.3125" rx="2.5" ry="2.5" style="stroke:#181818;stroke-width:0.5;" width="252" x="3397.5" y="2073.6563"/><text fill="#000000" font-family="sans-serif" font-size="20" lengthAdjust="spacing" textLength="208" x="3419.5" y="2101.418">StoreEmployeeListDTO</text><text fill="#000000" font-family="sans-serif" font-size="20" lengthAdjust="spacing" textLength="238" x="3404.5" y="2126.5742">:List&lt;StoreEmployeeDTO&gt;</text><rect fill="#FFFFFF" height="1956.5" style="stroke:#181818;stroke-width:1.0;" width="10" x="81.5" y="100.1563"/><rect fill="#FFFFFF" height="1925.3438" style="stroke:#181818;stroke-width:1.0;" width="10" x="746.5" y="131.3125"/><rect fill="#FFFFFF" height="1746.5625" style="stroke:#181818;stroke-width:1.0;" width="10" x="1014.5" y="220.625"/><rect fill="#FFFFFF" height="39.1563" style="stroke:#181818;stroke-width:1.0;" width="10" x="1206.5" y="259.7813"/><rect fill="#FFFFFF" height="39.1563" style="stroke:#181818;stroke-width:1.0;" width="10" x="1328" y="338.0938"/><rect fill="#FFFFFF" height="39.1563" style="stroke:#181818;stroke-width:1.0;" width="10" x="1328" y="820.9688"/><rect fill="#FFFFFF" height="365.4063" style="stroke:#181818;stroke-width:1.0;" width="10" x="1429.5" y="416.4063"/><rect fill="#FFFFFF" height="39.1563" style="stroke:#181818;stroke-width:1.0;" width="10" x="1694.5" y="575.1875"/><rect fill="#FFFFFF" height="365.4063" style="stroke:#181818;stroke-width:1.0;" width="10" x="1839.5" y="899.2813"/><rect fill="#FFFFFF" height="39.1563" style="stroke:#181818;stroke-width:1.0;" width="10" x="2184.5" y="1058.0625"/><rect fill="#FFFFFF" height="624.1875" style="stroke:#181818;stroke-width:1.0;" width="10" x="2407" y="1303.8438"/><rect fill="#FFFFFF" height="30" style="stroke:#181818;stroke-width:1.0;" width="10" x="3149" y="705.6563"/><rect fill="#FFFFFF" height="30" style="stroke:#181818;stroke-width:1.0;" width="10" x="3149" y="1462.625"/><rect fill="#FFFFFF" height="30" style="stroke:#181818;stroke-width:1.0;" width="10" x="3149" y="1531.7813"/><rect fill="#FFFFFF" height="30" style="stroke:#181818;stroke-width:1.0;" width="10" x="3149" y="1600.9375"/><rect fill="#FFFFFF" height="30" style="stroke:#181818;stroke-width:1.0;" width="10" x="3301.5" y="1188.5313"/><rect fill="#FFFFFF" height="30" style="stroke:#181818;stroke-width:1.0;" width="10" x="3301.5" y="1714.4063"/><rect fill="#FFFFFF" height="46.1563" style="stroke:#181818;stroke-width:1.0;" width="10" x="3518.5" y="1842.7188"/><polygon fill="#181818" points="734.5,127.3125,744.5,131.3125,734.5,135.3125,738.5,131.3125" style="stroke:#181818;stroke-width:1.0;"/><line style="stroke:#181818;stroke-width:1.0;" x1="91.5" x2="740.5" y1="131.3125" y2="131.3125"/><text fill="#000000" font-family="sans-serif" font-size="20" font-weight="bold" lengthAdjust="spacing" textLength="11" x="98.5" y="124.918">1</text><text fill="#000000" font-family="sans-serif" font-size="20" lengthAdjust="spacing" textLength="480" x="113.5" y="124.918">asks to see list of all employees working in every store</text><polygon fill="#181818" points="879.5,166.4688,889.5,170.4688,879.5,174.4688,883.5,170.4688" style="stroke:#181818;stroke-width:1.0;"/><line style="stroke:#181818;stroke-width:1.0;stroke-dasharray:2.0,2.0;" x1="756.5" x2="885.5" y1="170.4688" y2="170.4688"/><text fill="#000000" font-family="sans-serif" font-size="20" font-weight="bold" lengthAdjust="spacing" textLength="11" x="763.5" y="164.0742">2</text><text fill="#000000" font-family="sans-serif" font-size="20" lengthAdjust="spacing" textLength="56" x="778.5" y="164.0742">create</text><rect fill="#E3E3E3" height="39.1563" rx="2.5" ry="2.5" style="stroke:#181818;stroke-width:0.5;" width="256" x="891.5" y="139.3125"/><text fill="#000000" font-family="sans-serif" font-size="20" lengthAdjust="spacing" textLength="242" x="898.5" y="167.0742">:DisplayEmployeeController</text><polygon fill="#181818" points="1002.5,216.625,1012.5,220.625,1002.5,224.625,1006.5,220.625" style="stroke:#181818;stroke-width:1.0;"/><line style="stroke:#181818;stroke-width:1.0;" x1="756.5" x2="1008.5" y1="220.625" y2="220.625"/><text fill="#000000" font-family="sans-serif" font-size="20" font-weight="bold" lengthAdjust="spacing" textLength="11" x="763.5" y="214.2305">3</text><text fill="#000000" font-family="sans-serif" font-size="20" lengthAdjust="spacing" textLength="208" x="778.5" y="214.2305">getStoreEmployeeList()</text><polygon fill="#181818" points="1194.5,255.7813,1204.5,259.7813,1194.5,263.7813,1198.5,259.7813" style="stroke:#181818;stroke-width:1.0;"/><line style="stroke:#181818;stroke-width:1.0;" x1="1024.5" x2="1200.5" y1="259.7813" y2="259.7813"/><text fill="#000000" font-family="sans-serif" font-size="20" font-weight="bold" lengthAdjust="spacing" textLength="11" x="1031.5" y="253.3867">4</text><text fill="#000000" font-family="sans-serif" font-size="20" lengthAdjust="spacing" textLength="116" x="1046.5" y="253.3867">getInstance()</text><polygon fill="#181818" points="1035.5,294.9375,1025.5,298.9375,1035.5,302.9375,1031.5,298.9375" style="stroke:#181818;stroke-width:1.0;"/><line style="stroke:#181818;stroke-width:1.0;stroke-dasharray:2.0,2.0;" x1="1029.5" x2="1210.5" y1="298.9375" y2="298.9375"/><text fill="#000000" font-family="sans-serif" font-size="20" font-weight="bold" lengthAdjust="spacing" textLength="11" x="1041.5" y="292.543">5</text><text fill="#000000" font-family="sans-serif" font-size="20" lengthAdjust="spacing" textLength="88" x="1056.5" y="292.543">repository</text><polygon fill="#181818" points="1316,334.0938,1326,338.0938,1316,342.0938,1320,338.0938" style="stroke:#181818;stroke-width:1.0;"/><line style="stroke:#181818;stroke-width:1.0;" x1="1024.5" x2="1322" y1="338.0938" y2="338.0938"/><text fill="#000000" font-family="sans-serif" font-size="20" font-weight="bold" lengthAdjust="spacing" textLength="11" x="1031.5" y="331.6992">6</text><text fill="#000000" font-family="sans-serif" font-size="20" lengthAdjust="spacing" textLength="185" x="1046.5" y="331.6992">getStoreRepository()</text><polygon fill="#181818" points="1035.5,373.25,1025.5,377.25,1035.5,381.25,1031.5,377.25" style="stroke:#181818;stroke-width:1.0;"/><line style="stroke:#181818;stroke-width:1.0;stroke-dasharray:2.0,2.0;" x1="1029.5" x2="1332" y1="377.25" y2="377.25"/><text fill="#000000" font-family="sans-serif" font-size="20" font-weight="bold" lengthAdjust="spacing" textLength="11" x="1041.5" y="370.8555">7</text><text fill="#000000" font-family="sans-serif" font-size="20" lengthAdjust="spacing" textLength="143" x="1056.5" y="370.8555">StoreRepository</text><polygon fill="#181818" points="1417.5,412.4063,1427.5,416.4063,1417.5,420.4063,1421.5,416.4063" style="stroke:#181818;stroke-width:1.0;"/><line style="stroke:#181818;stroke-width:1.0;" x1="1024.5" x2="1423.5" y1="416.4063" y2="416.4063"/><text fill="#000000" font-family="sans-serif" font-size="20" font-weight="bold" lengthAdjust="spacing" textLength="11" x="1031.5" y="410.0117">8</text><text fill="#000000" font-family="sans-serif" font-size="20" lengthAdjust="spacing" textLength="131" x="1046.5" y="410.0117">getStoresList()</text><polygon fill="#181818" points="3080.5,451.5625,3090.5,455.5625,3080.5,459.5625,3084.5,455.5625" style="stroke:#181818;stroke-width:1.0;"/><line style="stroke:#181818;stroke-width:1.0;stroke-dasharray:2.0,2.0;" x1="1439.5" x2="3086.5" y1="455.5625" y2="455.5625"/><text fill="#000000" font-family="sans-serif" font-size="20" font-weight="bold" lengthAdjust="spacing" textLength="11" x="1446.5" y="449.168">9</text><text fill="#000000" font-family="sans-serif" font-size="20" lengthAdjust="spacing" textLength="70" x="1461.5" y="449.168">create()</text><rect fill="#E3E3E3" height="64.3125" rx="2.5" ry="2.5" style="stroke:#181818;stroke-width:0.5;" width="123" x="3092.5" y="424.4063"/><text fill="#000000" font-family="sans-serif" font-size="20" lengthAdjust="spacing" textLength="79" x="3114.5" y="452.168">StoreList</text><text fill="#000000" font-family="sans-serif" font-size="20" lengthAdjust="spacing" textLength="109" x="3099.5" y="477.3242">:List&lt;Store&gt;</text><path d="M1390.5,506.7188 L1476.5,506.7188 L1476.5,523.875 L1466.5,533.875 L1390.5,533.875 L1390.5,506.7188 " fill="#EEEEEE" style="stroke:#000000;stroke-width:1.5;"/><rect fill="none" height="236.9375" style="stroke:#000000;stroke-width:1.5;" width="1835" x="1390.5" y="506.7188"/><text fill="#000000" font-family="sans-serif" font-size="20" font-weight="bold" lengthAdjust="spacing" textLength="41" x="1405.5" y="528.4805">loop</text><text fill="#000000" font-family="sans-serif" font-size="20" font-weight="bold" lengthAdjust="spacing" textLength="147" x="1491.5" y="529.4805">[for each store]</text><polygon fill="#181818" points="1682.5,571.1875,1692.5,575.1875,1682.5,579.1875,1686.5,575.1875" style="stroke:#181818;stroke-width:1.0;"/><line style="stroke:#181818;stroke-width:1.0;" x1="1439.5" x2="1688.5" y1="575.1875" y2="575.1875"/><text fill="#000000" font-family="sans-serif" font-size="20" font-weight="bold" lengthAdjust="spacing" textLength="22" x="1446.5" y="568.793">10</text><text fill="#000000" font-family="sans-serif" font-size="20" lengthAdjust="spacing" textLength="94" x="1472.5" y="568.793">getStore(i)</text><polygon fill="#181818" points="1450.5,610.3438,1440.5,614.3438,1450.5,618.3438,1446.5,614.3438" style="stroke:#181818;stroke-width:1.0;"/><line style="stroke:#181818;stroke-width:1.0;stroke-dasharray:2.0,2.0;" x1="1444.5" x2="1698.5" y1="614.3438" y2="614.3438"/><text fill="#000000" font-family="sans-serif" font-size="20" font-weight="bold" lengthAdjust="spacing" textLength="22" x="1456.5" y="607.9492">11</text><text fill="#000000" font-family="sans-serif" font-size="20" lengthAdjust="spacing" textLength="48" x="1482.5" y="607.9492">Store</text><line style="stroke:#181818;stroke-width:1.0;stroke-dasharray:2.0,2.0;" x1="1439.5" x2="1481.5" y1="653.5" y2="653.5"/><line style="stroke:#181818;stroke-width:1.0;stroke-dasharray:2.0,2.0;" x1="1481.5" x2="1481.5" y1="653.5" y2="666.5"/><line style="stroke:#181818;stroke-width:1.0;stroke-dasharray:2.0,2.0;" x1="1440.5" x2="1481.5" y1="666.5" y2="666.5"/><polygon fill="#181818" points="1450.5,662.5,1440.5,666.5,1450.5,670.5,1446.5,666.5" style="stroke:#181818;stroke-width:1.0;"/><text fill="#000000" font-family="sans-serif" font-size="20" font-weight="bold" lengthAdjust="spacing" textLength="22" x="1446.5" y="647.1055">12</text><text fill="#000000" font-family="sans-serif" font-size="20" lengthAdjust="spacing" textLength="215" x="1472.5" y="647.1055">compare(store1, store2)</text><polygon fill="#181818" points="3137,701.6563,3147,705.6563,3137,709.6563,3141,705.6563" style="stroke:#181818;stroke-width:1.0;"/><line style="stroke:#181818;stroke-width:1.0;" x1="1439.5" x2="3143" y1="705.6563" y2="705.6563"/><text fill="#000000" font-family="sans-serif" font-size="20" font-weight="bold" lengthAdjust="spacing" textLength="22" x="1446.5" y="699.2617">13</text><text fill="#000000" font-family="sans-serif" font-size="20" lengthAdjust="spacing" textLength="92" x="1472.5" y="699.2617">add(store)</text><polygon fill="#181818" points="1035.5,777.8125,1025.5,781.8125,1035.5,785.8125,1031.5,781.8125" style="stroke:#181818;stroke-width:1.0;"/><line style="stroke:#181818;stroke-width:1.0;stroke-dasharray:2.0,2.0;" x1="1029.5" x2="1433.5" y1="781.8125" y2="781.8125"/><text fill="#000000" font-family="sans-serif" font-size="20" font-weight="bold" lengthAdjust="spacing" textLength="22" x="1041.5" y="775.418">14</text><text fill="#000000" font-family="sans-serif" font-size="20" lengthAdjust="spacing" textLength="79" x="1067.5" y="775.418">StoreList</text><polygon fill="#181818" points="1316,816.9688,1326,820.9688,1316,824.9688,1320,820.9688" style="stroke:#181818;stroke-width:1.0;"/><line style="stroke:#181818;stroke-width:1.0;" x1="1024.5" x2="1322" y1="820.9688" y2="820.9688"/><text fill="#000000" font-family="sans-serif" font-size="20" font-weight="bold" lengthAdjust="spacing" textLength="22" x="1031.5" y="814.5742">15</text><text fill="#000000" font-family="sans-serif" font-size="20" lengthAdjust="spacing" textLength="224" x="1057.5" y="814.5742">getEmployeeRepository()</text><polygon fill="#181818" points="1035.5,856.125,1025.5,860.125,1035.5,864.125,1031.5,860.125" style="stroke:#181818;stroke-width:1.0;"/><line style="stroke:#181818;stroke-width:1.0;stroke-dasharray:2.0,2.0;" x1="1029.5" x2="1332" y1="860.125" y2="860.125"/><text fill="#000000" font-family="sans-serif" font-size="20" font-weight="bold" lengthAdjust="spacing" textLength="22" x="1041.5" y="853.7305">16</text><text fill="#000000" font-family="sans-serif" font-size="20" lengthAdjust="spacing" textLength="182" x="1067.5" y="853.7305">EmployeeRepository</text><polygon fill="#181818" points="1827.5,895.2813,1837.5,899.2813,1827.5,903.2813,1831.5,899.2813" style="stroke:#181818;stroke-width:1.0;"/><line style="stroke:#181818;stroke-width:1.0;" x1="1024.5" x2="1833.5" y1="899.2813" y2="899.2813"/><text fill="#000000" font-family="sans-serif" font-size="20" font-weight="bold" lengthAdjust="spacing" textLength="22" x="1031.5" y="892.8867">17</text><text fill="#000000" font-family="sans-serif" font-size="20" lengthAdjust="spacing" textLength="170" x="1057.5" y="892.8867">getEmployeesList()</text><polygon fill="#181818" points="3213.5,934.4375,3223.5,938.4375,3213.5,942.4375,3217.5,938.4375" style="stroke:#181818;stroke-width:1.0;"/><line style="stroke:#181818;stroke-width:1.0;stroke-dasharray:2.0,2.0;" x1="1849.5" x2="3219.5" y1="938.4375" y2="938.4375"/><text fill="#000000" font-family="sans-serif" font-size="20" font-weight="bold" lengthAdjust="spacing" textLength="22" x="1856.5" y="932.043">18</text><text fill="#000000" font-family="sans-serif" font-size="20" lengthAdjust="spacing" textLength="70" x="1882.5" y="932.043">create()</text><rect fill="#E3E3E3" height="64.3125" rx="2.5" ry="2.5" style="stroke:#181818;stroke-width:0.5;" width="162" x="3225.5" y="907.2813"/><text fill="#000000" font-family="sans-serif" font-size="20" lengthAdjust="spacing" textLength="118" x="3247.5" y="935.043">EmployeeList</text><text fill="#000000" font-family="sans-serif" font-size="20" lengthAdjust="spacing" textLength="148" x="3232.5" y="960.1992">:List&lt;Employee&gt;</text><path d="M1781,989.5938 L1867,989.5938 L1867,1006.75 L1857,1016.75 L1781,1016.75 L1781,989.5938 " fill="#EEEEEE" style="stroke:#000000;stroke-width:1.5;"/><rect fill="none" height="236.9375" style="stroke:#000000;stroke-width:1.5;" width="1616.5" x="1781" y="989.5938"/><text fill="#000000" font-family="sans-serif" font-size="20" font-weight="bold" lengthAdjust="spacing" textLength="41" x="1796" y="1011.3555">loop</text><text fill="#000000" font-family="sans-serif" font-size="20" font-weight="bold" lengthAdjust="spacing" textLength="188" x="1882" y="1012.3555">[for each employee]</text><polygon fill="#181818" points="2172.5,1054.0625,2182.5,1058.0625,2172.5,1062.0625,2176.5,1058.0625" style="stroke:#181818;stroke-width:1.0;"/><line style="stroke:#181818;stroke-width:1.0;" x1="1849.5" x2="2178.5" y1="1058.0625" y2="1058.0625"/><text fill="#000000" font-family="sans-serif" font-size="20" font-weight="bold" lengthAdjust="spacing" textLength="22" x="1856.5" y="1051.668">19</text><text fill="#000000" font-family="sans-serif" font-size="20" lengthAdjust="spacing" textLength="133" x="1882.5" y="1051.668">getEmployee(i)</text><polygon fill="#181818" points="1860.5,1093.2188,1850.5,1097.2188,1860.5,1101.2188,1856.5,1097.2188" style="stroke:#181818;stroke-width:1.0;"/><line style="stroke:#181818;stroke-width:1.0;stroke-dasharray:2.0,2.0;" x1="1854.5" x2="2188.5" y1="1097.2188" y2="1097.2188"/><text fill="#000000" font-family="sans-serif" font-size="20" font-weight="bold" lengthAdjust="spacing" textLength="22" x="1866.5" y="1090.8242">20</text><text fill="#000000" font-family="sans-serif" font-size="20" lengthAdjust="spacing" textLength="87" x="1892.5" y="1090.8242">Employee</text><line style="stroke:#181818;stroke-width:1.0;stroke-dasharray:2.0,2.0;" x1="1849.5" x2="1891.5" y1="1136.375" y2="1136.375"/><line style="stroke:#181818;stroke-width:1.0;stroke-dasharray:2.0,2.0;" x1="1891.5" x2="1891.5" y1="1136.375" y2="1149.375"/><line style="stroke:#181818;stroke-width:1.0;stroke-dasharray:2.0,2.0;" x1="1850.5" x2="1891.5" y1="1149.375" y2="1149.375"/><polygon fill="#181818" points="1860.5,1145.375,1850.5,1149.375,1860.5,1153.375,1856.5,1149.375" style="stroke:#181818;stroke-width:1.0;"/><text fill="#000000" font-family="sans-serif" font-size="20" font-weight="bold" lengthAdjust="spacing" textLength="22" x="1856.5" y="1129.9805">21</text><text fill="#000000" font-family="sans-serif" font-size="20" lengthAdjust="spacing" textLength="295" x="1882.5" y="1129.9805">compare(employee1, employee2)</text><polygon fill="#181818" points="3289.5,1184.5313,3299.5,1188.5313,3289.5,1192.5313,3293.5,1188.5313" style="stroke:#181818;stroke-width:1.0;"/><line style="stroke:#181818;stroke-width:1.0;" x1="1849.5" x2="3295.5" y1="1188.5313" y2="1188.5313"/><text fill="#000000" font-family="sans-serif" font-size="20" font-weight="bold" lengthAdjust="spacing" textLength="22" x="1856.5" y="1182.1367">22</text><text fill="#000000" font-family="sans-serif" font-size="20" lengthAdjust="spacing" textLength="132" x="1882.5" y="1182.1367">add(employee)</text><polygon fill="#181818" points="1035.5,1260.6875,1025.5,1264.6875,1035.5,1268.6875,1031.5,1264.6875" style="stroke:#181818;stroke-width:1.0;"/><line style="stroke:#181818;stroke-width:1.0;stroke-dasharray:2.0,2.0;" x1="1029.5" x2="1843.5" y1="1264.6875" y2="1264.6875"/><text fill="#000000" font-family="sans-serif" font-size="20" font-weight="bold" lengthAdjust="spacing" textLength="22" x="1041.5" y="1258.293">23</text><text fill="#000000" font-family="sans-serif" font-size="20" lengthAdjust="spacing" textLength="118" x="1067.5" y="1258.293">EmployeeList</text><polygon fill="#181818" points="2395,1299.8438,2405,1303.8438,2395,1307.8438,2399,1303.8438" style="stroke:#181818;stroke-width:1.0;"/><line style="stroke:#181818;stroke-width:1.0;" x1="1024.5" x2="2401" y1="1303.8438" y2="1303.8438"/><text fill="#000000" font-family="sans-serif" font-size="20" font-weight="bold" lengthAdjust="spacing" textLength="22" x="1031.5" y="1297.4492">24</text><text fill="#000000" font-family="sans-serif" font-size="20" lengthAdjust="spacing" textLength="282" x="1057.5" y="1297.4492">toDTO(StoreList, EmployeeList)</text><polygon fill="#181818" points="3385.5,1339,3395.5,1343,3385.5,1347,3389.5,1343" style="stroke:#181818;stroke-width:1.0;"/><line style="stroke:#181818;stroke-width:1.0;stroke-dasharray:2.0,2.0;" x1="2417" x2="3391.5" y1="1343" y2="1343"/><text fill="#000000" font-family="sans-serif" font-size="20" font-weight="bold" lengthAdjust="spacing" textLength="22" x="2424" y="1336.6055">25</text><text fill="#000000" font-family="sans-serif" font-size="20" lengthAdjust="spacing" textLength="70" x="2450" y="1336.6055">create()</text><rect fill="#E3E3E3" height="64.3125" rx="2.5" ry="2.5" style="stroke:#181818;stroke-width:0.5;" width="252" x="3397.5" y="1311.8438"/><text fill="#000000" font-family="sans-serif" font-size="20" lengthAdjust="spacing" textLength="208" x="3419.5" y="1339.6055">StoreEmployeeListDTO</text><text fill="#000000" font-family="sans-serif" font-size="20" lengthAdjust="spacing" textLength="238" x="3404.5" y="1364.7617">:List&lt;StoreEmployeeDTO&gt;</text><path d="M2280.5,1394.1563 L2366.5,1394.1563 L2366.5,1411.3125 L2356.5,1421.3125 L2280.5,1421.3125 L2280.5,1394.1563 " fill="#EEEEEE" style="stroke:#000000;stroke-width:1.5;"/><rect fill="none" height="456.5625" style="stroke:#000000;stroke-width:1.5;" width="1379" x="2280.5" y="1394.1563"/><text fill="#000000" font-family="sans-serif" font-size="20" font-weight="bold" lengthAdjust="spacing" textLength="41" x="2295.5" y="1415.918">loop</text><text fill="#000000" font-family="sans-serif" font-size="20" font-weight="bold" lengthAdjust="spacing" textLength="211" x="2381.5" y="1416.918">[for each store object]</text><polygon fill="#181818" points="3137,1458.625,3147,1462.625,3137,1466.625,3141,1462.625" style="stroke:#181818;stroke-width:1.0;"/><line style="stroke:#181818;stroke-width:1.0;" x1="2417" x2="3143" y1="1462.625" y2="1462.625"/><text fill="#000000" font-family="sans-serif" font-size="20" font-weight="bold" lengthAdjust="spacing" textLength="22" x="2424" y="1456.2305">26</text><text fill="#000000" font-family="sans-serif" font-size="20" lengthAdjust="spacing" textLength="264" x="2450" y="1456.2305">storeName = getDesignation()</text><polygon fill="#181818" points="3137,1527.7813,3147,1531.7813,3137,1535.7813,3141,1531.7813" style="stroke:#181818;stroke-width:1.0;"/><line style="stroke:#181818;stroke-width:1.0;" x1="2417" x2="3143" y1="1531.7813" y2="1531.7813"/><text fill="#000000" font-family="sans-serif" font-size="20" font-weight="bold" lengthAdjust="spacing" textLength="22" x="2424" y="1525.3867">27</text><text fill="#000000" font-family="sans-serif" font-size="20" lengthAdjust="spacing" textLength="145" x="2450" y="1525.3867">storeId = getId()</text><polygon fill="#181818" points="3137,1596.9375,3147,1600.9375,3137,1604.9375,3141,1600.9375" style="stroke:#181818;stroke-width:1.0;"/><line style="stroke:#181818;stroke-width:1.0;" x1="2417" x2="3143" y1="1600.9375" y2="1600.9375"/><text fill="#000000" font-family="sans-serif" font-size="20" font-weight="bold" lengthAdjust="spacing" textLength="22" x="2424" y="1594.543">28</text><text fill="#000000" font-family="sans-serif" font-size="20" lengthAdjust="spacing" textLength="332" x="2450" y="1594.543">availableListing = getAvailableListing()</text><path d="M2290.5,1645.9375 L2376.5,1645.9375 L2376.5,1663.0938 L2366.5,1673.0938 L2290.5,1673.0938 L2290.5,1645.9375 " fill="#EEEEEE" style="stroke:#000000;stroke-width:1.5;"/><rect fill="none" height="106.4688" style="stroke:#000000;stroke-width:1.5;" width="1107" x="2290.5" y="1645.9375"/><text fill="#000000" font-family="sans-serif" font-size="20" font-weight="bold" lengthAdjust="spacing" textLength="41" x="2305.5" y="1667.6992">loop</text><text fill="#000000" font-family="sans-serif" font-size="20" font-weight="bold" lengthAdjust="spacing" textLength="252" x="2391.5" y="1668.6992">[for each employee object]</text><polygon fill="#181818" points="3289.5,1710.4063,3299.5,1714.4063,3289.5,1718.4063,3293.5,1714.4063" style="stroke:#181818;stroke-width:1.0;"/><line style="stroke:#181818;stroke-width:1.0;" x1="2417" x2="3295.5" y1="1714.4063" y2="1714.4063"/><text fill="#000000" font-family="sans-serif" font-size="20" font-weight="bold" lengthAdjust="spacing" textLength="22" x="2424" y="1708.0117">29</text><text fill="#000000" font-family="sans-serif" font-size="20" lengthAdjust="spacing" textLength="311" x="2450" y="1708.0117">employees(i) = getEmployee(store)</text><line style="stroke:#181818;stroke-width:1.0;stroke-dasharray:2.0,2.0;" x1="2417" x2="2459" y1="1790.5625" y2="1790.5625"/><line style="stroke:#181818;stroke-width:1.0;stroke-dasharray:2.0,2.0;" x1="2459" x2="2459" y1="1790.5625" y2="1803.5625"/><line style="stroke:#181818;stroke-width:1.0;stroke-dasharray:2.0,2.0;" x1="2418" x2="2459" y1="1803.5625" y2="1803.5625"/><polygon fill="#181818" points="2428,1799.5625,2418,1803.5625,2428,1807.5625,2424,1803.5625" style="stroke:#181818;stroke-width:1.0;"/><text fill="#000000" font-family="sans-serif" font-size="20" font-weight="bold" lengthAdjust="spacing" textLength="22" x="2424" y="1784.168">30</text><text fill="#000000" font-family="sans-serif" font-size="20" lengthAdjust="spacing" textLength="692" x="2450" y="1784.168">storeEmployeeDTO = toDTO(storeName, storeId, availableListing, employees)</text><polygon fill="#181818" points="3506.5,1838.7188,3516.5,1842.7188,3506.5,1846.7188,3510.5,1842.7188" style="stroke:#181818;stroke-width:1.0;"/><line style="stroke:#181818;stroke-width:1.0;" x1="2417" x2="3512.5" y1="1842.7188" y2="1842.7188"/><text fill="#000000" font-family="sans-serif" font-size="20" font-weight="bold" lengthAdjust="spacing" textLength="22" x="2424" y="1836.3242">31</text><text fill="#000000" font-family="sans-serif" font-size="20" lengthAdjust="spacing" textLength="221" x="2450" y="1836.3242">add(storeEmployeeDTO)</text><polygon fill="#181818" points="2428,1884.875,2418,1888.875,2428,1892.875,2424,1888.875" style="stroke:#181818;stroke-width:1.0;"/><line style="stroke:#181818;stroke-width:1.0;stroke-dasharray:2.0,2.0;" x1="2422" x2="3522.5" y1="1888.875" y2="1888.875"/><text fill="#000000" font-family="sans-serif" font-size="20" font-weight="bold" lengthAdjust="spacing" textLength="22" x="2434" y="1882.4805">32</text><text fill="#000000" font-family="sans-serif" font-size="20" lengthAdjust="spacing" textLength="208" x="2460" y="1882.4805">StoreEmployeeListDTO</text><polygon fill="#181818" points="1035.5,1924.0313,1025.5,1928.0313,1035.5,1932.0313,1031.5,1928.0313" style="stroke:#181818;stroke-width:1.0;"/><line style="stroke:#181818;stroke-width:1.0;stroke-dasharray:2.0,2.0;" x1="1029.5" x2="2411" y1="1928.0313" y2="1928.0313"/><text fill="#000000" font-family="sans-serif" font-size="20" font-weight="bold" lengthAdjust="spacing" textLength="22" x="1041.5" y="1921.6367">33</text><text fill="#000000" font-family="sans-serif" font-size="20" lengthAdjust="spacing" textLength="208" x="1067.5" y="1921.6367">StoreEmployeeListDTO</text><polygon fill="#181818" points="767.5,1963.1875,757.5,1967.1875,767.5,1971.1875,763.5,1967.1875" style="stroke:#181818;stroke-width:1.0;"/><line style="stroke:#181818;stroke-width:1.0;stroke-dasharray:2.0,2.0;" x1="761.5" x2="1018.5" y1="1967.1875" y2="1967.1875"/><text fill="#000000" font-family="sans-serif" font-size="20" font-weight="bold" lengthAdjust="spacing" textLength="22" x="773.5" y="1960.793">34</text><text fill="#000000" font-family="sans-serif" font-size="20" lengthAdjust="spacing" textLength="208" x="799.5" y="1960.793">StoreEmployeeListDTO</text><polygon fill="#181818" points="97.5,2052.6563,87.5,2056.6563,97.5,2060.6563,93.5,2056.6563" style="stroke:#181818;stroke-width:1.0;"/><line style="stroke:#181818;stroke-width:1.0;stroke-dasharray:2.0,2.0;" x1="91.5" x2="750.5" y1="2056.6563" y2="2056.6563"/><text fill="#000000" font-family="sans-serif" font-size="20" font-weight="bold" lengthAdjust="spacing" textLength="22" x="103.5" y="2025.1055">35</text><text fill="#000000" font-family="sans-serif" font-size="20" lengthAdjust="spacing" textLength="605" x="129.5" y="1999.9492">provides a list of employees (Id, name and role) alphabetically sorted</text><text fill="#000000" font-family="sans-serif" font-size="20" lengthAdjust="spacing" textLength="590" x="129.5" y="2025.1055">and grouped by store (Id, name and number of listings) sorted from</text><text fill="#000000" font-family="sans-serif" font-size="20" lengthAdjust="spacing" textLength="463" x="129.5" y="2050.2617">the one with more listings to the one with less listings</text><!--SRC=[pLX1Z-ic4BxxLupsqkHf8xLxNBMHgkwhj5BVgvIqjxsGU9BG4B0CsMtwwmius80nTlAaghuaXfdvPWRc6umyKbwHcfoOs1wnX19tvCpKhuAhDVq7uUdxGZeHE0akjeTQd11KVKPlfYBR8zdZMbqOGerRHVYU-GBoG4hnGVaUTeH9B0foLeAVJnkiY-Ax0oqHTaAeZVYx85ibQdZuYkf3r4VuGhYsN3y0aUv_eMqgkgKLuGeUdb-eh1YvV3vLJ5mG_torihtHlDOlEk9QC7P56foDhDHO2KcrmnUhjcfVrzHaGCSOAdJoR_nv5IftSw7EMW-X5hU_LjB-2uMa6LhvrjVXIAUu6i1nmMfTzzSgkPTG6g-Z0URdtc1WOGYvyTL9VI5LTLs6n7WYDxzHgJIu-VdH3YmxPJEO3jFNScFBmDs-Rk2FcNxvu_S0sStfyMK_0clGR73wJXIssxa0_LnVOB7iRrrurgQE4fG0YGXCcm6n0y8Ok6MGOAh551ZbWEzONy1k2MkxHUmNXPtVrfYOzJQz4UfxjUZxskby-gIzRWnRzI4R6HFQm1vLBuEpkRML2ynpFONhGMZyHD4soAzSQYBROWemLUcjb7jIbXSZ4Nii4DWhSJfsDjmEmCjlPr876zXgKOSSCuzdSoo-c8A6Wip1PUEp05veCjeplS0QDktDNukYOv5Oe05QE4WZustwE8_kOK9KkjVLe4CzU3KQFyb13tOPPz8BUKRdW-fXsDv2PF5MuGAx7Ay7tOzMCxlgcQIQT8gJvc2SsLJzyDYax6bUJ4oGMHR3dsNPM9YQcUII3qNM22V5aPT5PkkCbahJCyOSkB56OWxeD-XPEa-JolCELaYS44RoVZS_kD4myb6MQ4z1GqGHDFbOfWLTU1xSnHWuw4SVQvd8QnZs9AQOk3W-TiGNNixRF4wehJk0OpZ77Yvjca3StwVvJIdqYCHPk25tK-aaF2fE9fGW_2c5blGduSSzpJSyi6jG9VHvUDRIsMFWnLXdZex_sJwTZIxbsoBsUK9D9ZeuYCrV-gjtUYDF-X9sB6luAz4Vsp-PYdr1IVUSA2hu63Vd-rUoTtsJawzbu-9h-J_oZBmJoiY6sNVpNMHT_3aQ_QySJdEuspRveqm_peYIscz0pUPDc2szJptoV1DDJMQfoLNOCeUCFgfrU0sPjDNnwFRWOs_9EwgNyvktKOBsOsUcx9rieaoIiZvPyE7ifAuZHe-A-Gupj3oZvzHxtHYYzKoR6RWYkTMDs-uChlSTxfhc6QfQlDCI9P3sGgQxZ9cP_SWDUHDUWZQBSo2iEf0DAhebZ5r0YbfX-SQDmBuMvmfBs5nlRIBzvgBK8B1cPylvLHrsjJZ16rS7JIOSuOEg0voC1ITfBes2MOPIThDDUnhEYhiYcfOtJyfTRlqB]--></g></svg>