<?xml version="1.0" encoding="UTF-8" standalone="no"?><svg xmlns="http://www.w3.org/2000/svg" xmlns:xlink="http://www.w3.org/1999/xlink" contentStyleType="text/css" height="803px" preserveAspectRatio="none" style="width:1129px;height:803px;background:#FFFFFF;" version="1.1" viewBox="0 0 1129 803" width="1129px" zoomAndPan="magnify"><defs/><g><rect fill="#FFFFFF" height="595.9688" style="stroke:#181818;stroke-width:1.0;" width="10" x="81.5" y="100.1563"/><rect fill="#FFFFFF" height="564.8125" style="stroke:#181818;stroke-width:1.0;" width="10" x="735.5" y="131.3125"/><rect fill="#FFFFFF" height="386.0313" style="stroke:#181818;stroke-width:1.0;" width="10" x="987.5" y="220.625"/><line style="stroke:#181818;stroke-width:0.5;stroke-dasharray:5.0,5.0;" x1="86" x2="86" y1="90.1563" y2="714.125"/><line style="stroke:#181818;stroke-width:0.5;stroke-dasharray:5.0,5.0;" x1="740.5" x2="740.5" y1="90.1563" y2="714.125"/><line style="stroke:#181818;stroke-width:0.5;stroke-dasharray:5.0,5.0;" x1="992.5" x2="992.5" y1="174.3906" y2="714.125"/><text fill="#000000" font-family="sans-serif" font-size="20" lengthAdjust="spacing" textLength="157" x="5" y="85.7617">Network Manager</text><ellipse cx="86.5" cy="13.5" fill="#E3E3E3" rx="8" ry="8" style="stroke:#181818;stroke-width:0.5;"/><path d="M86.5,21.5 L86.5,48.5 M73.5,29.5 L99.5,29.5 M86.5,48.5 L73.5,63.5 M86.5,48.5 L99.5,63.5 " fill="none" style="stroke:#181818;stroke-width:0.5;"/><text fill="#000000" font-family="sans-serif" font-size="20" lengthAdjust="spacing" textLength="157" x="5" y="733.8867">Network Manager</text><ellipse cx="86.5" cy="746.7813" fill="#E3E3E3" rx="8" ry="8" style="stroke:#181818;stroke-width:0.5;"/><path d="M86.5,754.7813 L86.5,781.7813 M73.5,762.7813 L99.5,762.7813 M86.5,781.7813 L73.5,796.7813 M86.5,781.7813 L99.5,796.7813 " fill="none" style="stroke:#181818;stroke-width:0.5;"/><rect fill="#E3E3E3" height="39.1563" rx="2.5" ry="2.5" style="stroke:#181818;stroke-width:0.5;" width="190" x="645.5" y="50"/><text fill="#000000" font-family="sans-serif" font-size="20" lengthAdjust="spacing" textLength="176" x="652.5" y="77.7617">:DisplayEmployeeUI</text><rect fill="#E3E3E3" height="39.1563" rx="2.5" ry="2.5" style="stroke:#181818;stroke-width:0.5;" width="190" x="645.5" y="713.125"/><text fill="#000000" font-family="sans-serif" font-size="20" lengthAdjust="spacing" textLength="176" x="652.5" y="740.8867">:DisplayEmployeeUI</text><rect fill="#E3E3E3" height="39.1563" rx="2.5" ry="2.5" style="stroke:#181818;stroke-width:0.5;" width="256" x="864.5" y="713.125"/><text fill="#000000" font-family="sans-serif" font-size="20" lengthAdjust="spacing" textLength="242" x="871.5" y="740.8867">:DisplayEmployeeController</text><rect fill="#FFFFFF" height="595.9688" style="stroke:#181818;stroke-width:1.0;" width="10" x="81.5" y="100.1563"/><rect fill="#FFFFFF" height="564.8125" style="stroke:#181818;stroke-width:1.0;" width="10" x="735.5" y="131.3125"/><rect fill="#FFFFFF" height="386.0313" style="stroke:#181818;stroke-width:1.0;" width="10" x="987.5" y="220.625"/><polygon fill="#181818" points="723.5,127.3125,733.5,131.3125,723.5,135.3125,727.5,131.3125" style="stroke:#181818;stroke-width:1.0;"/><line style="stroke:#181818;stroke-width:1.0;" x1="91.5" x2="729.5" y1="131.3125" y2="131.3125"/><text fill="#000000" font-family="sans-serif" font-size="20" font-weight="bold" lengthAdjust="spacing" textLength="11" x="98.5" y="124.918">1</text><text fill="#000000" font-family="sans-serif" font-size="20" lengthAdjust="spacing" textLength="480" x="113.5" y="124.918">asks to see list of all employees working in every store</text><polygon fill="#181818" points="852.5,166.4688,862.5,170.4688,852.5,174.4688,856.5,170.4688" style="stroke:#181818;stroke-width:1.0;"/><line style="stroke:#181818;stroke-width:1.0;stroke-dasharray:2.0,2.0;" x1="745.5" x2="858.5" y1="170.4688" y2="170.4688"/><text fill="#000000" font-family="sans-serif" font-size="20" font-weight="bold" lengthAdjust="spacing" textLength="11" x="752.5" y="164.0742">2</text><text fill="#000000" font-family="sans-serif" font-size="20" lengthAdjust="spacing" textLength="56" x="767.5" y="164.0742">create</text><rect fill="#E3E3E3" height="39.1563" rx="2.5" ry="2.5" style="stroke:#181818;stroke-width:0.5;" width="256" x="864.5" y="139.3125"/><text fill="#000000" font-family="sans-serif" font-size="20" lengthAdjust="spacing" textLength="242" x="871.5" y="167.0742">:DisplayEmployeeController</text><polygon fill="#181818" points="975.5,216.625,985.5,220.625,975.5,224.625,979.5,220.625" style="stroke:#181818;stroke-width:1.0;"/><line style="stroke:#181818;stroke-width:1.0;" x1="745.5" x2="981.5" y1="220.625" y2="220.625"/><text fill="#000000" font-family="sans-serif" font-size="20" font-weight="bold" lengthAdjust="spacing" textLength="11" x="752.5" y="214.2305">3</text><text fill="#000000" font-family="sans-serif" font-size="20" lengthAdjust="spacing" textLength="208" x="767.5" y="214.2305">getStoreEmployeeList()</text><rect fill="none" height="110.625" style="stroke:#000000;stroke-width:1.5;" width="262" x="861.5" y="228.625"/><path d="M861.5,228.625 L932.5,228.625 L932.5,245.625 L922.5,255.625 L861.5,255.625 L861.5,228.625 " fill="#EEEEEE" style="stroke:#000000;stroke-width:2.0;"/><text fill="#000000" font-family="sans-serif" font-size="20" font-weight="bold" lengthAdjust="spacing" textLength="26" x="874.5" y="251.3867">ref</text><text fill="#000000" font-family="sans-serif" font-size="20" lengthAdjust="spacing" textLength="6" x="989.5" y="280.3867"> </text><text fill="#000000" font-family="sans-serif" font-size="20" lengthAdjust="spacing" textLength="134" x="925.5" y="305.543">Get Stores List</text><text fill="#000000" font-family="sans-serif" font-size="20" lengthAdjust="spacing" textLength="6" x="989.5" y="330.6992"> </text><rect fill="none" height="110.625" style="stroke:#000000;stroke-width:1.5;" width="262" x="861.5" y="344.25"/><path d="M861.5,344.25 L932.5,344.25 L932.5,361.25 L922.5,371.25 L861.5,371.25 L861.5,344.25 " fill="#EEEEEE" style="stroke:#000000;stroke-width:2.0;"/><text fill="#000000" font-family="sans-serif" font-size="20" font-weight="bold" lengthAdjust="spacing" textLength="26" x="874.5" y="367.0117">ref</text><text fill="#000000" font-family="sans-serif" font-size="20" lengthAdjust="spacing" textLength="6" x="989.5" y="396.0117"> </text><text fill="#000000" font-family="sans-serif" font-size="20" lengthAdjust="spacing" textLength="173" x="906" y="421.168">Get Employees List</text><text fill="#000000" font-family="sans-serif" font-size="20" lengthAdjust="spacing" textLength="6" x="989.5" y="446.3242"> </text><rect fill="none" height="110.625" style="stroke:#000000;stroke-width:1.5;" width="262" x="861.5" y="459.875"/><path d="M861.5,459.875 L932.5,459.875 L932.5,476.875 L922.5,486.875 L861.5,486.875 L861.5,459.875 " fill="#EEEEEE" style="stroke:#000000;stroke-width:2.0;"/><text fill="#000000" font-family="sans-serif" font-size="20" font-weight="bold" lengthAdjust="spacing" textLength="26" x="874.5" y="482.6367">ref</text><text fill="#000000" font-family="sans-serif" font-size="20" lengthAdjust="spacing" textLength="6" x="989.5" y="511.6367"> </text><text fill="#000000" font-family="sans-serif" font-size="20" lengthAdjust="spacing" textLength="81" x="952" y="536.793">Get DTO</text><text fill="#000000" font-family="sans-serif" font-size="20" lengthAdjust="spacing" textLength="6" x="989.5" y="561.9492"> </text><polygon fill="#181818" points="756.5,602.6563,746.5,606.6563,756.5,610.6563,752.5,606.6563" style="stroke:#181818;stroke-width:1.0;"/><line style="stroke:#181818;stroke-width:1.0;stroke-dasharray:2.0,2.0;" x1="750.5" x2="991.5" y1="606.6563" y2="606.6563"/><text fill="#000000" font-family="sans-serif" font-size="20" font-weight="bold" lengthAdjust="spacing" textLength="11" x="762.5" y="600.2617">4</text><text fill="#000000" font-family="sans-serif" font-size="20" lengthAdjust="spacing" textLength="166" x="777.5" y="600.2617">StoreEmployeeList</text><polygon fill="#181818" points="97.5,692.125,87.5,696.125,97.5,700.125,93.5,696.125" style="stroke:#181818;stroke-width:1.0;"/><line style="stroke:#181818;stroke-width:1.0;stroke-dasharray:2.0,2.0;" x1="91.5" x2="739.5" y1="696.125" y2="696.125"/><text fill="#000000" font-family="sans-serif" font-size="20" font-weight="bold" lengthAdjust="spacing" textLength="11" x="103.5" y="664.5742">5</text><text fill="#000000" font-family="sans-serif" font-size="20" lengthAdjust="spacing" textLength="605" x="118.5" y="639.418">provides a list of employees (Id, name and role) alphabetically sorted</text><text fill="#000000" font-family="sans-serif" font-size="20" lengthAdjust="spacing" textLength="590" x="118.5" y="664.5742">and grouped by store (Id, name and number of listings) sorted from</text><text fill="#000000" font-family="sans-serif" font-size="20" lengthAdjust="spacing" textLength="463" x="118.5" y="689.7305">the one with more listings to the one with less listings</text><!--SRC=[jLHDZvj03BtpAwnSkbarKjLZ3hrqjzLA_JYalUt50GCZXZ6QCKdJNryF0KBB4aLQTKumx_dvOso7ohW6FTQMqueoo2Z7riedTh8plmdUlql2G86Q7QUbvvf0V4iJfC6qme9sSh84db91LzWf8PIOyT6u0dAqWP84Ms7NrdloIVAcD1b1pYnx_fLWAknXzOtaoBw2h-XKsQy0m_2TgAQOr3Je15RR1nCQYwV7kh5y8lhvr75djzUjFch6dgtjFIsYIOpF751eZ2O1FVqFR3xCFSDM9Qi0mX28m9eWm3cWjK0zAK1CDjR7EA03-HC4BGDrsgF7UKuTddfw0Pt474dpg3RpM2ysz_SQzLcuCr_Ik2AX0WN9BgOnW5yqzRjrftKjiMcv1wwd75WBSmitdiyaqFaE4BrUG79P57kTykFuRlz1_E77zokAo_NUB3JVx0b6hOnkVOANssVe-YqqdWywnG5mxEzBRzyzPM_1eUuDZDcmfRLsVrFYddGYTGwqszaBPSyk4WhFRQFBQDyFmJ_svxKHFKHFEZDXtPj3hii9dfsK1Em8ZaPAtLgUHcQSmRzGIo5Sq7ERBrTbcBZRwZPX3RlY3m00]--></g></svg>