<?xml version="1.0" encoding="UTF-8" standalone="no"?><svg xmlns="http://www.w3.org/2000/svg" xmlns:xlink="http://www.w3.org/1999/xlink" contentStyleType="text/css" height="642px" preserveAspectRatio="none" style="width:1190px;height:642px;background:#FFFFFF;" version="1.1" viewBox="0 0 1190 642" width="1190px" zoomAndPan="magnify"><defs/><g><rect fill="#FFFFFF" height="474.875" style="stroke:#181818;stroke-width:1.0;" width="10" x="128" y="80.3125"/><rect fill="#FFFFFF" height="39.1563" style="stroke:#181818;stroke-width:1.0;" width="10" x="441.5" y="111.4688"/><rect fill="#FFFFFF" height="365.4063" style="stroke:#181818;stroke-width:1.0;" width="10" x="562.5" y="189.7813"/><rect fill="#FFFFFF" height="39.1563" style="stroke:#181818;stroke-width:1.0;" width="10" x="896.5" y="348.5625"/><rect fill="#FFFFFF" height="30" style="stroke:#181818;stroke-width:1.0;" width="10" x="1088.5" y="479.0313"/><rect fill="none" height="236.9375" style="stroke:#000000;stroke-width:1.5;" width="680.5" x="504" y="280.0938"/><line style="stroke:#181818;stroke-width:0.5;stroke-dasharray:5.0,5.0;" x1="133" x2="133" y1="70.3125" y2="573.1875"/><line style="stroke:#181818;stroke-width:0.5;stroke-dasharray:5.0,5.0;" x1="325" x2="325" y1="70.3125" y2="573.1875"/><line style="stroke:#181818;stroke-width:0.5;stroke-dasharray:5.0,5.0;" x1="446" x2="446" y1="70.3125" y2="573.1875"/><line style="stroke:#181818;stroke-width:0.5;stroke-dasharray:5.0,5.0;" x1="567" x2="567" y1="70.3125" y2="573.1875"/><line style="stroke:#181818;stroke-width:0.5;stroke-dasharray:5.0,5.0;" x1="901.5" x2="901.5" y1="70.3125" y2="573.1875"/><line style="stroke:#181818;stroke-width:0.5;stroke-dasharray:5.0,5.0;" x1="1093.5" x2="1093.5" y1="245.4375" y2="573.1875"/><rect fill="#E3E3E3" height="39.1563" rx="2.5" ry="2.5" style="stroke:#181818;stroke-width:0.5;" width="256" x="5" y="30.1563"/><text fill="#000000" font-family="sans-serif" font-size="20" lengthAdjust="spacing" textLength="242" x="12" y="57.918">:DisplayEmployeeController</text><rect fill="#E3E3E3" height="39.1563" rx="2.5" ry="2.5" style="stroke:#181818;stroke-width:0.5;" width="256" x="5" y="572.1875"/><text fill="#000000" font-family="sans-serif" font-size="20" lengthAdjust="spacing" textLength="242" x="12" y="599.9492">:DisplayEmployeeController</text><rect fill="#E3E3E3" height="39.1563" rx="2.5" ry="2.5" style="stroke:#181818;stroke-width:0.5;" width="108" x="271" y="30.1563"/><text fill="#000000" font-family="sans-serif" font-size="20" lengthAdjust="spacing" textLength="94" x="278" y="57.918">:repository</text><rect fill="#E3E3E3" height="39.1563" rx="2.5" ry="2.5" style="stroke:#181818;stroke-width:0.5;" width="108" x="271" y="572.1875"/><text fill="#000000" font-family="sans-serif" font-size="20" lengthAdjust="spacing" textLength="94" x="278" y="599.9492">:repository</text><rect fill="#E3E3E3" height="64.3125" rx="2.5" ry="2.5" style="stroke:#181818;stroke-width:0.5;" width="115" x="389" y="5"/><text fill="#000000" font-family="sans-serif" font-size="20" lengthAdjust="spacing" textLength="88" x="402.5" y="32.7617">repository</text><text fill="#000000" font-family="sans-serif" font-size="20" lengthAdjust="spacing" textLength="101" x="396" y="57.918">:Repository</text><rect fill="#E3E3E3" height="64.3125" rx="2.5" ry="2.5" style="stroke:#181818;stroke-width:0.5;" width="115" x="389" y="572.1875"/><text fill="#000000" font-family="sans-serif" font-size="20" lengthAdjust="spacing" textLength="88" x="402.5" y="599.9492">repository</text><text fill="#000000" font-family="sans-serif" font-size="20" lengthAdjust="spacing" textLength="101" x="396" y="625.1055">:Repository</text><rect fill="#E3E3E3" height="64.3125" rx="2.5" ry="2.5" style="stroke:#181818;stroke-width:0.5;" width="107" x="514" y="5"/><text fill="#000000" font-family="sans-serif" font-size="20" lengthAdjust="spacing" textLength="87" x="524" y="32.7617">Employee</text><text fill="#000000" font-family="sans-serif" font-size="20" lengthAdjust="spacing" textLength="93" x="521" y="57.918">:Employee</text><rect fill="#E3E3E3" height="64.3125" rx="2.5" ry="2.5" style="stroke:#181818;stroke-width:0.5;" width="107" x="514" y="572.1875"/><text fill="#000000" font-family="sans-serif" font-size="20" lengthAdjust="spacing" textLength="87" x="524" y="599.9492">Employee</text><text fill="#000000" font-family="sans-serif" font-size="20" lengthAdjust="spacing" textLength="93" x="521" y="625.1055">:Employee</text><rect fill="#E3E3E3" height="64.3125" rx="2.5" ry="2.5" style="stroke:#181818;stroke-width:0.5;" width="202" x="800.5" y="5"/><text fill="#000000" font-family="sans-serif" font-size="20" lengthAdjust="spacing" textLength="180" x="811.5" y="32.7617">employeeRepository</text><text fill="#000000" font-family="sans-serif" font-size="20" lengthAdjust="spacing" textLength="188" x="807.5" y="57.918">:EmployeeRepository</text><rect fill="#E3E3E3" height="64.3125" rx="2.5" ry="2.5" style="stroke:#181818;stroke-width:0.5;" width="202" x="800.5" y="572.1875"/><text fill="#000000" font-family="sans-serif" font-size="20" lengthAdjust="spacing" textLength="180" x="811.5" y="599.9492">employeeRepository</text><text fill="#000000" font-family="sans-serif" font-size="20" lengthAdjust="spacing" textLength="188" x="807.5" y="625.1055">:EmployeeRepository</text><rect fill="#E3E3E3" height="64.3125" rx="2.5" ry="2.5" style="stroke:#181818;stroke-width:0.5;" width="162" x="1012.5" y="572.1875"/><text fill="#000000" font-family="sans-serif" font-size="20" lengthAdjust="spacing" textLength="118" x="1034.5" y="599.9492">EmployeeList</text><text fill="#000000" font-family="sans-serif" font-size="20" lengthAdjust="spacing" textLength="148" x="1019.5" y="625.1055">:List&lt;Employee&gt;</text><rect fill="#FFFFFF" height="474.875" style="stroke:#181818;stroke-width:1.0;" width="10" x="128" y="80.3125"/><rect fill="#FFFFFF" height="39.1563" style="stroke:#181818;stroke-width:1.0;" width="10" x="441.5" y="111.4688"/><rect fill="#FFFFFF" height="365.4063" style="stroke:#181818;stroke-width:1.0;" width="10" x="562.5" y="189.7813"/><rect fill="#FFFFFF" height="39.1563" style="stroke:#181818;stroke-width:1.0;" width="10" x="896.5" y="348.5625"/><rect fill="#FFFFFF" height="30" style="stroke:#181818;stroke-width:1.0;" width="10" x="1088.5" y="479.0313"/><polygon fill="#181818" points="429.5,107.4688,439.5,111.4688,429.5,115.4688,433.5,111.4688" style="stroke:#181818;stroke-width:1.0;"/><line style="stroke:#181818;stroke-width:1.0;" x1="138" x2="435.5" y1="111.4688" y2="111.4688"/><text fill="#000000" font-family="sans-serif" font-size="20" font-weight="bold" lengthAdjust="spacing" textLength="11" x="145" y="105.0742">1</text><text fill="#000000" font-family="sans-serif" font-size="20" lengthAdjust="spacing" textLength="224" x="160" y="105.0742">getEmployeeRepository()</text><polygon fill="#181818" points="149,146.625,139,150.625,149,154.625,145,150.625" style="stroke:#181818;stroke-width:1.0;"/><line style="stroke:#181818;stroke-width:1.0;stroke-dasharray:2.0,2.0;" x1="143" x2="445.5" y1="150.625" y2="150.625"/><text fill="#000000" font-family="sans-serif" font-size="20" font-weight="bold" lengthAdjust="spacing" textLength="11" x="155" y="144.2305">2</text><text fill="#000000" font-family="sans-serif" font-size="20" lengthAdjust="spacing" textLength="182" x="170" y="144.2305">EmployeeRepository</text><polygon fill="#181818" points="550.5,185.7813,560.5,189.7813,550.5,193.7813,554.5,189.7813" style="stroke:#181818;stroke-width:1.0;"/><line style="stroke:#181818;stroke-width:1.0;" x1="138" x2="556.5" y1="189.7813" y2="189.7813"/><text fill="#000000" font-family="sans-serif" font-size="20" font-weight="bold" lengthAdjust="spacing" textLength="11" x="145" y="183.3867">3</text><text fill="#000000" font-family="sans-serif" font-size="20" lengthAdjust="spacing" textLength="170" x="160" y="183.3867">getEmployeesList()</text><polygon fill="#181818" points="1000.5,224.9375,1010.5,228.9375,1000.5,232.9375,1004.5,228.9375" style="stroke:#181818;stroke-width:1.0;"/><line style="stroke:#181818;stroke-width:1.0;stroke-dasharray:2.0,2.0;" x1="572.5" x2="1006.5" y1="228.9375" y2="228.9375"/><text fill="#000000" font-family="sans-serif" font-size="20" font-weight="bold" lengthAdjust="spacing" textLength="11" x="579.5" y="222.543">4</text><text fill="#000000" font-family="sans-serif" font-size="20" lengthAdjust="spacing" textLength="70" x="594.5" y="222.543">create()</text><rect fill="#E3E3E3" height="64.3125" rx="2.5" ry="2.5" style="stroke:#181818;stroke-width:0.5;" width="162" x="1012.5" y="197.7813"/><text fill="#000000" font-family="sans-serif" font-size="20" lengthAdjust="spacing" textLength="118" x="1034.5" y="225.543">EmployeeList</text><text fill="#000000" font-family="sans-serif" font-size="20" lengthAdjust="spacing" textLength="148" x="1019.5" y="250.6992">:List&lt;Employee&gt;</text><path d="M504,280.0938 L590,280.0938 L590,297.25 L580,307.25 L504,307.25 L504,280.0938 " fill="#EEEEEE" style="stroke:#000000;stroke-width:1.5;"/><rect fill="none" height="236.9375" style="stroke:#000000;stroke-width:1.5;" width="680.5" x="504" y="280.0938"/><text fill="#000000" font-family="sans-serif" font-size="20" font-weight="bold" lengthAdjust="spacing" textLength="41" x="519" y="301.8555">loop</text><text fill="#000000" font-family="sans-serif" font-size="20" font-weight="bold" lengthAdjust="spacing" textLength="188" x="605" y="302.8555">[for each employee]</text><polygon fill="#181818" points="884.5,344.5625,894.5,348.5625,884.5,352.5625,888.5,348.5625" style="stroke:#181818;stroke-width:1.0;"/><line style="stroke:#181818;stroke-width:1.0;" x1="572.5" x2="890.5" y1="348.5625" y2="348.5625"/><text fill="#000000" font-family="sans-serif" font-size="20" font-weight="bold" lengthAdjust="spacing" textLength="11" x="579.5" y="342.168">5</text><text fill="#000000" font-family="sans-serif" font-size="20" lengthAdjust="spacing" textLength="133" x="594.5" y="342.168">getEmployee(i)</text><polygon fill="#181818" points="583.5,383.7188,573.5,387.7188,583.5,391.7188,579.5,387.7188" style="stroke:#181818;stroke-width:1.0;"/><line style="stroke:#181818;stroke-width:1.0;stroke-dasharray:2.0,2.0;" x1="577.5" x2="900.5" y1="387.7188" y2="387.7188"/><text fill="#000000" font-family="sans-serif" font-size="20" font-weight="bold" lengthAdjust="spacing" textLength="11" x="589.5" y="381.3242">6</text><text fill="#000000" font-family="sans-serif" font-size="20" lengthAdjust="spacing" textLength="87" x="604.5" y="381.3242">Employee</text><line style="stroke:#181818;stroke-width:1.0;stroke-dasharray:2.0,2.0;" x1="572.5" x2="614.5" y1="426.875" y2="426.875"/><line style="stroke:#181818;stroke-width:1.0;stroke-dasharray:2.0,2.0;" x1="614.5" x2="614.5" y1="426.875" y2="439.875"/><line style="stroke:#181818;stroke-width:1.0;stroke-dasharray:2.0,2.0;" x1="573.5" x2="614.5" y1="439.875" y2="439.875"/><polygon fill="#181818" points="583.5,435.875,573.5,439.875,583.5,443.875,579.5,439.875" style="stroke:#181818;stroke-width:1.0;"/><text fill="#000000" font-family="sans-serif" font-size="20" font-weight="bold" lengthAdjust="spacing" textLength="11" x="579.5" y="420.4805">7</text><text fill="#000000" font-family="sans-serif" font-size="20" lengthAdjust="spacing" textLength="295" x="594.5" y="420.4805">compare(employee1, employee2)</text><polygon fill="#181818" points="1076.5,475.0313,1086.5,479.0313,1076.5,483.0313,1080.5,479.0313" style="stroke:#181818;stroke-width:1.0;"/><line style="stroke:#181818;stroke-width:1.0;" x1="572.5" x2="1082.5" y1="479.0313" y2="479.0313"/><text fill="#000000" font-family="sans-serif" font-size="20" font-weight="bold" lengthAdjust="spacing" textLength="11" x="579.5" y="472.6367">8</text><text fill="#000000" font-family="sans-serif" font-size="20" lengthAdjust="spacing" textLength="132" x="594.5" y="472.6367">add(employee)</text><polygon fill="#181818" points="144,551.1875,134,555.1875,144,559.1875,140,555.1875" style="stroke:#181818;stroke-width:1.0;"/><line style="stroke:#181818;stroke-width:1.0;stroke-dasharray:2.0,2.0;" x1="138" x2="566.5" y1="555.1875" y2="555.1875"/><text fill="#000000" font-family="sans-serif" font-size="20" font-weight="bold" lengthAdjust="spacing" textLength="11" x="150" y="548.793">9</text><text fill="#000000" font-family="sans-serif" font-size="20" lengthAdjust="spacing" textLength="118" x="165" y="548.793">EmployeeList</text><!--SRC=[dLF1Ki8m5BpdAp9S14Pcb6F7uQ9uybIkNaBxA1dIl4wIglNhJQijIPiMC1VeoxxTVPj4dxWic6AvmEG4AKtXm4fXNb6Q7Vy6kduWkeNG72KcHuKvKADAS7OAbfnO1ZjJ2Q0A4iDa9bo0Fh8KFxdCw8493OImqg0iypqeGkwEF0LwG3Hx_2AsmV245qmQEejUk2u4gxPv8R02UBR650e1QaQPfgExFHO51MfkK5LDMznzxdXjr5hn6yxuTnd5VlDvp-zfJTYEzc-3RpzyDFnLOrTfEoXw3F45vJUkZMMfVvxQsiPZgBS8eNQnnF0FPc0YmWRdhb4eNMsSM6X4Cp13q_F5WD5puWGR1DRBKLbPqN57KIYr46CALncOdBsj-fFhEkt0q9rUTpC6a4I12sYEhO_fH5UEWngvN5eVlmnMFJYqG2piWrFK3d-aCEfZgBK9vEgFFUUBKPx1w1SEnzME_QDtCkzo7ADmplWVmdsv17Fx_63UnlPutoMuNjmKONrQbf2bQKTsGtR1Mp4nyldnznV8b4pVhsiUMj1Fm0TnQgEyFm00]--></g></svg>