<?xml version="1.0" encoding="us-ascii" standalone="no"?><svg xmlns="http://www.w3.org/2000/svg" xmlns:xlink="http://www.w3.org/1999/xlink" contentStyleType="text/css" height="1799px" preserveAspectRatio="none" style="width:730px;height:1799px;background:#FFFFFF;" version="1.1" viewBox="0 0 730 1799" width="730px" zoomAndPan="magnify"><defs><filter height="300%" id="f1wpk72tfjc2r0" width="300%" x="-1" y="-1"><feGaussianBlur result="blurOut" stdDeviation="2.0"/><feColorMatrix in="blurOut" result="blurOut2" type="matrix" values="0 0 0 0 0 0 0 0 0 0 0 0 0 0 0 0 0 0 .4 0"/><feOffset dx="4.0" dy="4.0" in="blurOut2" result="blurOut3"/><feBlend in="SourceGraphic" in2="blurOut3" mode="normal"/></filter></defs><g><text fill="#000000" font-family="sans-serif" font-size="14" font-weight="bold" lengthAdjust="spacing" textLength="169" x="273.5" y="23.5352">US016 - Domain Model</text><!--class Agent--><g id="elem_Agent"><rect codeLine="11" fill="#F1F1F1" filter="url(#f1wpk72tfjc2r0)" height="34.4883" id="Agent" rx="2.5" ry="2.5" style="stroke:#181818;stroke-width:0.5;" width="47" x="407" y="474.4883"/><text fill="#000000" font-family="sans-serif" font-size="14" lengthAdjust="spacing" textLength="41" x="410" y="493.0234">Agent</text><line style="stroke:#181818;stroke-width:0.5;" x1="408" x2="453" y1="500.9766" y2="500.9766"/></g><!--class Client--><g id="elem_Client"><rect codeLine="15" fill="#F1F1F1" filter="url(#f1wpk72tfjc2r0)" height="34.4883" id="Client" rx="2.5" ry="2.5" style="stroke:#181818;stroke-width:0.5;" width="46" x="308.5" y="348.4883"/><text fill="#000000" font-family="sans-serif" font-size="14" lengthAdjust="spacing" textLength="40" x="311.5" y="367.0234">Client</text><line style="stroke:#181818;stroke-width:0.5;" x1="309.5" x2="353.5" y1="374.9766" y2="374.9766"/></g><!--class Message--><g id="elem_Message"><rect codeLine="19" fill="#F1F1F1" filter="url(#f1wpk72tfjc2r0)" height="133.418" id="Message" rx="2.5" ry="2.5" style="stroke:#181818;stroke-width:0.5;" width="114" x="360.5" y="647.4883"/><text fill="#000000" font-family="sans-serif" font-size="14" lengthAdjust="spacing" textLength="59" x="388" y="666.0234">Message</text><line style="stroke:#181818;stroke-width:0.5;" x1="361.5" x2="473.5" y1="673.9766" y2="673.9766"/><text fill="#000000" font-family="sans-serif" font-size="14" lengthAdjust="spacing" textLength="39" x="366.5" y="691.5117">Name</text><text fill="#000000" font-family="sans-serif" font-size="14" lengthAdjust="spacing" textLength="102" x="366.5" y="708">Phone Number</text><text fill="#000000" font-family="sans-serif" font-size="14" lengthAdjust="spacing" textLength="31" x="366.5" y="724.4883">Date</text><text fill="#000000" font-family="sans-serif" font-size="14" lengthAdjust="spacing" textLength="76" x="366.5" y="740.9766">Initial Time</text><text fill="#000000" font-family="sans-serif" font-size="14" lengthAdjust="spacing" textLength="64" x="366.5" y="757.4648">End Time</text><text fill="#000000" font-family="sans-serif" font-size="14" lengthAdjust="spacing" textLength="78" x="366.5" y="773.9531">Description</text></g><!--class Employee--><g id="elem_Employee"><rect codeLine="28" fill="#F1F1F1" filter="url(#f1wpk72tfjc2r0)" height="34.4883" id="Employee" rx="2.5" ry="2.5" style="stroke:#181818;stroke-width:0.5;" width="72" x="392.5" y="284.4883"/><text fill="#000000" font-family="sans-serif" font-size="14" lengthAdjust="spacing" textLength="66" x="395.5" y="303.0234">Employee</text><line style="stroke:#181818;stroke-width:0.5;" x1="393.5" x2="463.5" y1="310.9766" y2="310.9766"/></g><!--class Role--><g id="elem_Role"><rect codeLine="32" fill="#F1F1F1" filter="url(#f1wpk72tfjc2r0)" height="34.4883" id="Role" rx="2.5" ry="2.5" style="stroke:#181818;stroke-width:0.5;" width="36" x="536.5" y="284.4883"/><text fill="#000000" font-family="sans-serif" font-size="14" lengthAdjust="spacing" textLength="30" x="539.5" y="303.0234">Role</text><line style="stroke:#181818;stroke-width:0.5;" x1="537.5" x2="571.5" y1="310.9766" y2="310.9766"/></g><!--class Person--><g id="elem_Person"><rect codeLine="36" fill="#F1F1F1" filter="url(#f1wpk72tfjc2r0)" height="116.9297" id="Person" rx="2.5" ry="2.5" style="stroke:#181818;stroke-width:0.5;" width="130" x="306.5" y="44.4883"/><text fill="#000000" font-family="sans-serif" font-size="14" lengthAdjust="spacing" textLength="47" x="348" y="63.0234">Person</text><line style="stroke:#181818;stroke-width:0.5;" x1="307.5" x2="435.5" y1="70.9766" y2="70.9766"/><text fill="#000000" font-family="sans-serif" font-size="14" lengthAdjust="spacing" textLength="39" x="312.5" y="88.5117">Name</text><text fill="#000000" font-family="sans-serif" font-size="14" lengthAdjust="spacing" textLength="37" x="312.5" y="105">Email</text><text fill="#000000" font-family="sans-serif" font-size="14" lengthAdjust="spacing" textLength="102" x="312.5" y="121.4883">Phone Number</text><text fill="#000000" font-family="sans-serif" font-size="14" lengthAdjust="spacing" textLength="85" x="312.5" y="137.9766">Tax Number</text><text fill="#000000" font-family="sans-serif" font-size="14" lengthAdjust="spacing" textLength="118" x="312.5" y="154.4648">Passport Number</text></g><!--class PublishedAnnouncement--><g id="elem_PublishedAnnouncement"><rect codeLine="44" fill="#F1F1F1" filter="url(#f1wpk72tfjc2r0)" height="50.9766" id="PublishedAnnouncement" rx="2.5" ry="2.5" style="stroke:#181818;stroke-width:0.5;" width="178" x="391.5" y="919.4883"/><text fill="#000000" font-family="sans-serif" font-size="14" lengthAdjust="spacing" textLength="172" x="394.5" y="938.0234">PublishedAnnouncement</text><line style="stroke:#181818;stroke-width:0.5;" x1="392.5" x2="568.5" y1="945.9766" y2="945.9766"/><text fill="#000000" font-family="sans-serif" font-size="14" lengthAdjust="spacing" textLength="96" x="397.5" y="963.5117">Contract Type</text></g><!--class Property--><g id="elem_Property"><rect codeLine="48" fill="#F1F1F1" filter="url(#f1wpk72tfjc2r0)" height="67.4648" id="Property" rx="2.5" ry="2.5" style="stroke:#181818;stroke-width:0.5;" width="190" x="215.5" y="1159.4883"/><text fill="#000000" font-family="sans-serif" font-size="14" lengthAdjust="spacing" textLength="58" x="281.5" y="1178.0234">Property</text><line style="stroke:#181818;stroke-width:0.5;" x1="216.5" x2="404.5" y1="1185.9766" y2="1185.9766"/><text fill="#000000" font-family="sans-serif" font-size="14" lengthAdjust="spacing" textLength="32" x="221.5" y="1203.5117">Area</text><text fill="#000000" font-family="sans-serif" font-size="14" lengthAdjust="spacing" textLength="178" x="221.5" y="1220">Distance From City Center</text></g><!--class TypeOfProperty--><g id="elem_TypeOfProperty"><rect codeLine="53" fill="#F1F1F1" filter="url(#f1wpk72tfjc2r0)" height="50.9766" id="TypeOfProperty" rx="2.5" ry="2.5" style="stroke:#181818;stroke-width:0.5;" width="113" x="7" y="1167.4883"/><text fill="#000000" font-family="sans-serif" font-size="14" lengthAdjust="spacing" textLength="107" x="10" y="1186.0234">TypeOfProperty</text><line style="stroke:#181818;stroke-width:0.5;" x1="8" x2="119" y1="1193.9766" y2="1193.9766"/><text fill="#000000" font-family="sans-serif" font-size="14" lengthAdjust="spacing" textLength="33" x="13" y="1211.5117">Type</text></g><!--class Photos--><g id="elem_Photos"><rect codeLine="57" fill="#F1F1F1" filter="url(#f1wpk72tfjc2r0)" height="50.9766" id="Photos" rx="2.5" ry="2.5" style="stroke:#181818;stroke-width:0.5;" width="53" x="283" y="1031.4883"/><text fill="#000000" font-family="sans-serif" font-size="14" lengthAdjust="spacing" textLength="47" x="286" y="1050.0234">Photos</text><line style="stroke:#181818;stroke-width:0.5;" x1="284" x2="335" y1="1057.9766" y2="1057.9766"/><text fill="#000000" font-family="sans-serif" font-size="14" lengthAdjust="spacing" textLength="23" x="289" y="1075.5117">URI</text></g><!--class Business--><g id="elem_Business"><rect codeLine="61" fill="#F1F1F1" filter="url(#f1wpk72tfjc2r0)" height="50.9766" id="Business" rx="2.5" ry="2.5" style="stroke:#181818;stroke-width:0.5;" width="121" x="495" y="1167.4883"/><text fill="#000000" font-family="sans-serif" font-size="14" lengthAdjust="spacing" textLength="59" x="526" y="1186.0234">Business</text><line style="stroke:#181818;stroke-width:0.5;" x1="496" x2="615" y1="1193.9766" y2="1193.9766"/><text fill="#000000" font-family="sans-serif" font-size="14" lengthAdjust="spacing" textLength="109" x="501" y="1211.5117">Requested Price</text></g><!--class Comission--><g id="elem_Comission"><rect codeLine="65" fill="#F1F1F1" filter="url(#f1wpk72tfjc2r0)" height="50.9766" id="Comission" rx="2.5" ry="2.5" style="stroke:#181818;stroke-width:0.5;" width="78" x="509.5" y="1319.9883"/><text fill="#000000" font-family="sans-serif" font-size="14" lengthAdjust="spacing" textLength="72" x="512.5" y="1338.5234">Comission</text><line style="stroke:#181818;stroke-width:0.5;" x1="510.5" x2="586.5" y1="1346.4766" y2="1346.4766"/><text fill="#000000" font-family="sans-serif" font-size="14" lengthAdjust="spacing" textLength="38" x="515.5" y="1364.0117">Value</text></g><!--class Rent--><g id="elem_Rent"><rect codeLine="69" fill="#F1F1F1" filter="url(#f1wpk72tfjc2r0)" height="50.9766" id="Rent" rx="2.5" ry="2.5" style="stroke:#181818;stroke-width:0.5;" width="155" x="563" y="1472.4883"/><text fill="#000000" font-family="sans-serif" font-size="14" lengthAdjust="spacing" textLength="31" x="625" y="1491.0234">Rent</text><line style="stroke:#181818;stroke-width:0.5;" x1="564" x2="717" y1="1498.9766" y2="1498.9766"/><text fill="#000000" font-family="sans-serif" font-size="14" lengthAdjust="spacing" textLength="143" x="569" y="1516.5117">Duration Of Contract</text></g><!--class Address--><g id="elem_Address"><rect codeLine="73" fill="#F1F1F1" filter="url(#f1wpk72tfjc2r0)" height="67.4648" id="Address" rx="2.5" ry="2.5" style="stroke:#181818;stroke-width:0.5;" width="95" x="98" y="1311.9883"/><text fill="#000000" font-family="sans-serif" font-size="14" lengthAdjust="spacing" textLength="56" x="117.5" y="1330.5234">Address</text><line style="stroke:#181818;stroke-width:0.5;" x1="99" x2="192" y1="1338.4766" y2="1338.4766"/><text fill="#000000" font-family="sans-serif" font-size="14" lengthAdjust="spacing" textLength="83" x="104" y="1356.0117">Street Name</text><text fill="#000000" font-family="sans-serif" font-size="14" lengthAdjust="spacing" textLength="61" x="104" y="1372.5">Zip Code</text></g><!--class Residence--><g id="elem_Residence"><rect codeLine="78" fill="#F1F1F1" filter="url(#f1wpk72tfjc2r0)" height="83.9531" id="Residence" rx="2.5" ry="2.5" style="stroke:#181818;stroke-width:0.5;" width="194" x="228.5" y="1303.4883"/><text fill="#000000" font-family="sans-serif" font-size="14" lengthAdjust="spacing" textLength="69" x="291" y="1322.0234">Residence</text><line style="stroke:#181818;stroke-width:0.5;" x1="229.5" x2="421.5" y1="1329.9766" y2="1329.9766"/><text fill="#000000" font-family="sans-serif" font-size="14" lengthAdjust="spacing" textLength="153" x="234.5" y="1347.5117">Number Of Bathrooms</text><text fill="#000000" font-family="sans-serif" font-size="14" lengthAdjust="spacing" textLength="148" x="234.5" y="1364">Number Of Bedrooms</text><text fill="#000000" font-family="sans-serif" font-size="14" lengthAdjust="spacing" textLength="182" x="234.5" y="1380.4883">Number Of Parking Spaces</text></g><!--class State--><g id="elem_State"><rect codeLine="84" fill="#F1F1F1" filter="url(#f1wpk72tfjc2r0)" height="50.9766" id="State" rx="2.5" ry="2.5" style="stroke:#181818;stroke-width:0.5;" width="89" x="101" y="1472.4883"/><text fill="#000000" font-family="sans-serif" font-size="14" lengthAdjust="spacing" textLength="34" x="128.5" y="1491.0234">State</text><line style="stroke:#181818;stroke-width:0.5;" x1="102" x2="189" y1="1498.9766" y2="1498.9766"/><text fill="#000000" font-family="sans-serif" font-size="14" lengthAdjust="spacing" textLength="77" x="107" y="1516.5117">State Name</text></g><!--class House--><g id="elem_House"><rect codeLine="88" fill="#F1F1F1" filter="url(#f1wpk72tfjc2r0)" height="67.4648" id="House" rx="2.5" ry="2.5" style="stroke:#181818;stroke-width:0.5;" width="119" x="229" y="1464.4883"/><text fill="#000000" font-family="sans-serif" font-size="14" lengthAdjust="spacing" textLength="43" x="267" y="1483.0234">House</text><line style="stroke:#181818;stroke-width:0.5;" x1="230" x2="347" y1="1490.9766" y2="1490.9766"/><text fill="#000000" font-family="sans-serif" font-size="14" lengthAdjust="spacing" textLength="66" x="235" y="1508.5117">Basement</text><text fill="#000000" font-family="sans-serif" font-size="14" lengthAdjust="spacing" textLength="107" x="235" y="1525">Inhabitable Loft</text></g><!--class AvailableEquipment--><g id="elem_AvailableEquipment"><rect codeLine="93" fill="#F1F1F1" filter="url(#f1wpk72tfjc2r0)" height="50.9766" id="AvailableEquipment" rx="2.5" ry="2.5" style="stroke:#181818;stroke-width:0.5;" width="142" x="383.5" y="1472.4883"/><text fill="#000000" font-family="sans-serif" font-size="14" lengthAdjust="spacing" textLength="136" x="386.5" y="1491.0234">AvailableEquipment</text><line style="stroke:#181818;stroke-width:0.5;" x1="384.5" x2="524.5" y1="1498.9766" y2="1498.9766"/><text fill="#000000" font-family="sans-serif" font-size="14" lengthAdjust="spacing" textLength="74" x="389.5" y="1516.5117">Equipment</text></g><!--class District--><g id="elem_District"><rect codeLine="97" fill="#F1F1F1" filter="url(#f1wpk72tfjc2r0)" height="50.9766" id="District" rx="2.5" ry="2.5" style="stroke:#181818;stroke-width:0.5;" width="103" x="94" y="1608.4883"/><text fill="#000000" font-family="sans-serif" font-size="14" lengthAdjust="spacing" textLength="48" x="121.5" y="1627.0234">District</text><line style="stroke:#181818;stroke-width:0.5;" x1="95" x2="196" y1="1634.9766" y2="1634.9766"/><text fill="#000000" font-family="sans-serif" font-size="14" lengthAdjust="spacing" textLength="91" x="100" y="1652.5117">District Name</text></g><!--class SunExposure--><g id="elem_SunExposure"><rect codeLine="101" fill="#F1F1F1" filter="url(#f1wpk72tfjc2r0)" height="50.9766" id="SunExposure" rx="2.5" ry="2.5" style="stroke:#181818;stroke-width:0.5;" width="97" x="240" y="1736.4883"/><text fill="#000000" font-family="sans-serif" font-size="14" lengthAdjust="spacing" textLength="91" x="243" y="1755.0234">SunExposure</text><line style="stroke:#181818;stroke-width:0.5;" x1="241" x2="336" y1="1762.9766" y2="1762.9766"/><text fill="#000000" font-family="sans-serif" font-size="14" lengthAdjust="spacing" textLength="62" x="246" y="1780.5117">Direction</text></g><!--class City--><g id="elem_City"><rect codeLine="105" fill="#F1F1F1" filter="url(#f1wpk72tfjc2r0)" height="50.9766" id="City" rx="2.5" ry="2.5" style="stroke:#181818;stroke-width:0.5;" width="81" x="105" y="1736.4883"/><text fill="#000000" font-family="sans-serif" font-size="14" lengthAdjust="spacing" textLength="26" x="132.5" y="1755.0234">City</text><line style="stroke:#181818;stroke-width:0.5;" x1="106" x2="185" y1="1762.9766" y2="1762.9766"/><text fill="#000000" font-family="sans-serif" font-size="14" lengthAdjust="spacing" textLength="69" x="111" y="1780.5117">City Name</text></g><!--link Agent to Message--><g id="link_Agent_Message"><path codeLine="109" d="M429.54,508.6983 C427.84,537.5483 424.21,599.2483 421.37,647.3383 " fill="none" id="Agent-Message" style="stroke:#181818;stroke-width:1.0;"/><polygon fill="#000000" points="430.2059,583.1349,433.6718,574.2784,427.8041,573.9326,430.2059,583.1349" style="stroke:#000000;stroke-width:1.0;"/><text fill="#000000" font-family="sans-serif" font-size="13" lengthAdjust="spacing" textLength="58" x="439.5" y="583.0566">responds</text><text fill="#000000" font-family="sans-serif" font-size="13" lengthAdjust="spacing" textLength="8" x="419.897" y="529.4224">1</text><text fill="#000000" font-family="sans-serif" font-size="13" lengthAdjust="spacing" textLength="6" x="415.4652" y="636.7906">*</text></g><!--link Agent to PublishedAnnouncement--><g id="link_Agent_PublishedAnnouncement"><path codeLine="110" d="M454.4,498.5983 C487.83,508.7483 544.5,532.5183 544.5,576.9883 C544.5,576.9883 544.5,576.9883 544.5,850.9883 C544.5,877.4483 526.7,901.8583 509.88,919.0283 " fill="none" id="Agent-PublishedAnnouncement" style="stroke:#181818;stroke-width:1.0;"/><polygon fill="#000000" points="550.1541,719.1006,551.8845,709.7487,546.0571,710.5177,550.1541,719.1006" style="stroke:#000000;stroke-width:1.0;"/><text fill="#000000" font-family="sans-serif" font-size="13" lengthAdjust="spacing" textLength="61" x="558.5" y="719.0566">publishes</text><text fill="#000000" font-family="sans-serif" font-size="13" lengthAdjust="spacing" textLength="8" x="461.8981" y="496.0379">1</text><text fill="#000000" font-family="sans-serif" font-size="13" lengthAdjust="spacing" textLength="6" x="509.9804" y="908.8976">*</text></g><!--link Address to State--><g id="link_Address_State"><path codeLine="112" d="M145.5,1379.1483 C145.5,1407.1583 145.5,1446.9083 145.5,1472.3183 " fill="none" id="Address-State" style="stroke:#181818;stroke-width:1.0;"/><polygon fill="#000000" points="150.5,1421.1436,147.5611,1430.1886,153.4389,1430.1886,150.5,1421.1436" style="stroke:#000000;stroke-width:1.0;"/><text fill="#000000" font-family="sans-serif" font-size="13" lengthAdjust="spacing" textLength="22" x="159.5" y="1431.0566">has</text><text fill="#000000" font-family="sans-serif" font-size="13" lengthAdjust="spacing" textLength="6" x="138.8813" y="1400.19">*</text><text fill="#000000" font-family="sans-serif" font-size="13" lengthAdjust="spacing" textLength="8" x="136.525" y="1461.8422">1</text></g><!--link State to District--><g id="link_State_District"><path codeLine="114" d="M145.5,1523.8783 C145.5,1547.9483 145.5,1584.2083 145.5,1608.2283 " fill="none" id="State-District" style="stroke:#181818;stroke-width:1.0;"/><polygon fill="#000000" points="150.5,1565.1436,147.5611,1574.1886,153.4389,1574.1886,150.5,1565.1436" style="stroke:#000000;stroke-width:1.0;"/><text fill="#000000" font-family="sans-serif" font-size="13" lengthAdjust="spacing" textLength="22" x="159.5" y="1575.0566">has</text><text fill="#000000" font-family="sans-serif" font-size="13" lengthAdjust="spacing" textLength="6" x="138.8063" y="1544.2067">*</text><text fill="#000000" font-family="sans-serif" font-size="13" lengthAdjust="spacing" textLength="8" x="136.525" y="1597.7302">1</text></g><!--link District to City--><g id="link_District_City"><path codeLine="116" d="M145.5,1659.8783 C145.5,1681.9683 145.5,1714.0683 145.5,1736.1483 " fill="none" id="District-City" style="stroke:#181818;stroke-width:1.0;"/><polygon fill="#000000" points="150.5,1693.1436,147.5611,1702.1886,153.4389,1702.1886,150.5,1693.1436" style="stroke:#000000;stroke-width:1.0;"/><text fill="#000000" font-family="sans-serif" font-size="13" lengthAdjust="spacing" textLength="22" x="159.5" y="1703.0566">has</text><text fill="#000000" font-family="sans-serif" font-size="13" lengthAdjust="spacing" textLength="6" x="138.8063" y="1680.2067">*</text><text fill="#000000" font-family="sans-serif" font-size="13" lengthAdjust="spacing" textLength="8" x="136.525" y="1725.6307">1</text></g><!--link PublishedAnnouncement to Property--><g id="link_PublishedAnnouncement_Property"><path codeLine="118" d="M462.34,970.8683 C450.07,987.8183 433.59,1010.8583 419.5,1031.4883 C390.17,1074.4483 384.93,1086.5883 355.5,1129.4883 C348.84,1139.1883 341.45,1149.6083 334.6,1159.0983 " fill="none" id="PublishedAnnouncement-Property" style="stroke:#181818;stroke-width:1.0;"/><polygon fill="#000000" points="421.6923,1061.2808,429.2033,1055.4468,424.3397,1052.1461,421.6923,1061.2808" style="stroke:#000000;stroke-width:1.0;"/><text fill="#000000" font-family="sans-serif" font-size="13" lengthAdjust="spacing" textLength="64" x="433.5" y="1062.0566">advertises</text><text fill="#000000" font-family="sans-serif" font-size="13" lengthAdjust="spacing" textLength="6" x="451.4467" y="991.1944">*</text><text fill="#000000" font-family="sans-serif" font-size="13" lengthAdjust="spacing" textLength="6" x="332.6222" y="1148.762">*</text></g><!--link PublishedAnnouncement to Business--><g id="link_PublishedAnnouncement_Business"><path codeLine="119" d="M488.1,970.9283 C502.52,1018.1983 533.65,1120.3083 547.99,1167.3483 " fill="none" id="PublishedAnnouncement-Business" style="stroke:#181818;stroke-width:1.0;"/><polygon fill="#000000" points="525.0417,1052.3609,524.8686,1061.8699,530.4909,1060.1556,525.0417,1052.3609" style="stroke:#000000;stroke-width:1.0;"/><text fill="#000000" font-family="sans-serif" font-size="13" lengthAdjust="spacing" textLength="22" x="535.5" y="1062.0566">has</text><text fill="#000000" font-family="sans-serif" font-size="13" lengthAdjust="spacing" textLength="8" x="480.8875" y="990.8482">1</text><text fill="#000000" font-family="sans-serif" font-size="13" lengthAdjust="spacing" textLength="8" x="537.1844" y="1156.8795">1</text></g><!--link Message to PublishedAnnouncement--><g id="link_Message_PublishedAnnouncement"><path codeLine="121" d="M429.64,780.8583 C434.71,805.4183 441.14,833.4183 448.5,858.4883 C454.61,879.3183 463.35,902.3483 470.15,919.2483 " fill="none" id="Message-PublishedAnnouncement" style="stroke:#181818;stroke-width:1.0;"/><polygon fill="#000000" points="452.0953,845.3449,451.8158,854.8514,457.457,853.2001,452.0953,845.3449" style="stroke:#000000;stroke-width:1.0;"/><text fill="#000000" font-family="sans-serif" font-size="13" lengthAdjust="spacing" textLength="55" x="462.5" y="855.0566">can have</text><text fill="#000000" font-family="sans-serif" font-size="13" lengthAdjust="spacing" textLength="6" x="424.6397" y="801.555">*</text><text fill="#000000" font-family="sans-serif" font-size="13" lengthAdjust="spacing" textLength="8" x="458.6522" y="908.7551">1</text></g><!--reverse link Business to Rent--><g id="link_Business_Rent"><path codeLine="123" d="M603.7,1234.1283 C609.53,1241.0083 614.75,1248.5283 618.5,1256.4883 C652.54,1328.7383 648.1,1426.6383 643.6,1471.9983 " fill="none" id="Business-backto-Rent" style="stroke:#181818;stroke-width:1.0;"/><polygon fill="none" points="598.86,1239.1883,589.92,1219.9783,608.89,1229.4183,598.86,1239.1883" style="stroke:#181818;stroke-width:1.0;"/></g><!--link Business to Comission--><g id="link_Business_Comission"><path codeLine="124" d="M550.6,1218.8183 C548.58,1230.2383 546.49,1243.9983 545.5,1256.4883 C543.8,1277.8183 544.86,1302.1383 546.17,1319.7983 " fill="none" id="Business-Comission" style="stroke:#181818;stroke-width:1.0;"/><polygon fill="#000000" points="550.2809,1270.1388,553.6134,1261.2312,547.7412,1260.9735,550.2809,1270.1388" style="stroke:#000000;stroke-width:1.0;"/><text fill="#000000" font-family="sans-serif" font-size="13" lengthAdjust="spacing" textLength="54" x="559.5" y="1270.0566">contains</text><text fill="#000000" font-family="sans-serif" font-size="13" lengthAdjust="spacing" textLength="8" x="540.5419" y="1239.1328">1</text><text fill="#000000" font-family="sans-serif" font-size="13" lengthAdjust="spacing" textLength="8" x="536.6271" y="1309.3173">1</text></g><!--link TypeOfProperty to Property--><g id="link_TypeOfProperty_Property"><path codeLine="126" d="M120.48,1192.9883 C148.54,1192.9883 183.14,1192.9883 215.1,1192.9883 " fill="none" id="TypeOfProperty-Property" style="stroke:#181818;stroke-width:1.0;"/><polygon fill="#000000" points="147.25,1181.6436,138.2049,1178.7046,138.2049,1184.5825,147.25,1181.6436" style="stroke:#000000;stroke-width:1.0;"/><text fill="#000000" font-family="sans-serif" font-size="13" lengthAdjust="spacing" textLength="46" x="151.25" y="1186.5566">defines</text><text fill="#000000" font-family="sans-serif" font-size="13" lengthAdjust="spacing" textLength="8" x="127.9119" y="1189.6629">1</text><text fill="#000000" font-family="sans-serif" font-size="13" lengthAdjust="spacing" textLength="8" x="199.4897" y="1189.9765">1</text></g><!--link Photos to Property--><g id="link_Photos_Property"><path codeLine="127" d="M309.69,1082.8783 C309.85,1104.3783 310.08,1135.5983 310.25,1159.1383 " fill="none" id="Photos-Property" style="stroke:#181818;stroke-width:1.0;"/><polygon fill="#000000" points="315.4633,1116.1437,312.5909,1125.2101,318.4686,1125.1669,315.4633,1116.1437" style="stroke:#000000;stroke-width:1.0;"/><text fill="#000000" font-family="sans-serif" font-size="13" lengthAdjust="spacing" textLength="22" x="324.5" y="1126.0566">has</text><text fill="#000000" font-family="sans-serif" font-size="13" lengthAdjust="spacing" textLength="32" x="274.0339" y="1103.2067">1..30</text><text fill="#000000" font-family="sans-serif" font-size="13" lengthAdjust="spacing" textLength="8" x="301.4398" y="1148.8096">1</text></g><!--link Property to Address--><g id="link_Property_Address"><path codeLine="128" d="M274.7,1226.6483 C247.12,1251.7983 209.15,1286.4283 181.52,1311.6383 " fill="none" id="Property-Address" style="stroke:#181818;stroke-width:1.0;"/><polygon fill="#000000" points="239.8058,1268.513,248.4691,1264.589,244.5081,1260.2462,239.8058,1268.513" style="stroke:#000000;stroke-width:1.0;"/><text fill="#000000" font-family="sans-serif" font-size="13" lengthAdjust="spacing" textLength="22" x="252.5" y="1270.0566">has</text><text fill="#000000" font-family="sans-serif" font-size="13" lengthAdjust="spacing" textLength="8" x="258.4913" y="1247.69">1</text><text fill="#000000" font-family="sans-serif" font-size="13" lengthAdjust="spacing" textLength="8" x="179.6238" y="1301.3096">1</text></g><!--reverse link Property to Residence--><g id="link_Property_Residence"><path codeLine="129" d="M315.88,1247.9183 C317.68,1266.0483 319.67,1285.9783 321.37,1303.0083 " fill="none" id="Property-backto-Residence" style="stroke:#181818;stroke-width:1.0;"/><polygon fill="none" points="308.92,1248.7483,313.9,1228.1483,322.85,1247.3583,308.92,1248.7483" style="stroke:#181818;stroke-width:1.0;"/></g><!--reverse link Residence to House--><g id="link_Residence_House"><path codeLine="131" d="M310.29,1408.3683 C305.6,1427.4283 300.62,1447.6883 296.61,1464.0083 " fill="none" id="Residence-backto-House" style="stroke:#181818;stroke-width:1.0;"/><polygon fill="none" points="303.46,1406.8383,315.03,1389.0783,317.05,1410.1783,303.46,1406.8383" style="stroke:#181818;stroke-width:1.0;"/></g><!--link Residence to AvailableEquipment--><g id="link_Residence_AvailableEquipment"><path codeLine="132" d="M360.75,1387.6083 C384.02,1414.7683 413.75,1449.4383 433.41,1472.3883 " fill="none" id="Residence-AvailableEquipment" style="stroke:#181818;stroke-width:1.0;"/><polygon fill="#000000" points="405.7537,1429.94,402.0992,1421.1596,397.6362,1424.9846,405.7537,1429.94" style="stroke:#000000;stroke-width:1.0;"/><text fill="#000000" font-family="sans-serif" font-size="13" lengthAdjust="spacing" textLength="54" x="411.5" y="1431.0566">contains</text><text fill="#000000" font-family="sans-serif" font-size="13" lengthAdjust="spacing" textLength="8" x="357.7305" y="1408.1133">1</text><text fill="#000000" font-family="sans-serif" font-size="13" lengthAdjust="spacing" textLength="6" x="421.5381" y="1461.9292">*</text></g><!--link House to SunExposure--><g id="link_House_SunExposure"><path codeLine="134" d="M288.5,1531.9083 C288.5,1585.0983 288.5,1688.7583 288.5,1736.1983 " fill="none" id="House-SunExposure" style="stroke:#181818;stroke-width:1.0;"/><polygon fill="#000000" points="293.5,1639.1436,296.4389,1630.0985,290.5611,1630.0985,293.5,1639.1436" style="stroke:#000000;stroke-width:1.0;"/><text fill="#000000" font-family="sans-serif" font-size="13" lengthAdjust="spacing" textLength="54" x="302.5" y="1639.0566">contains</text><text fill="#000000" font-family="sans-serif" font-size="13" lengthAdjust="spacing" textLength="6" x="281.9094" y="1552.616">*</text><text fill="#000000" font-family="sans-serif" font-size="13" lengthAdjust="spacing" textLength="8" x="279.525" y="1725.6929">1</text></g><!--reverse link Employee to Agent--><g id="link_Employee_Agent"><path codeLine="136" d="M428.9,340.1183 C429.33,380.9583 430.01,444.3083 430.32,474.0383 " fill="none" id="Employee-backto-Agent" style="stroke:#181818;stroke-width:1.0;"/><polygon fill="none" points="421.9,340.4283,428.69,320.3583,435.9,340.2783,421.9,340.4283" style="stroke:#181818;stroke-width:1.0;"/></g><!--link Employee to Role--><g id="link_Employee_Role"><path codeLine="137" d="M464.94,301.4883 C488.35,301.4883 517.74,301.4883 536.32,301.4883 " fill="none" id="Employee-Role" style="stroke:#181818;stroke-width:1.0;"/><polygon fill="#000000" points="492,290.1436,482.9549,287.2046,482.9549,293.0825,492,290.1436" style="stroke:#000000;stroke-width:1.0;"/><text fill="#000000" font-family="sans-serif" font-size="13" lengthAdjust="spacing" textLength="22" x="496" y="295.0566">has</text><text fill="#000000" font-family="sans-serif" font-size="13" lengthAdjust="spacing" textLength="6" x="472.4583" y="297.61">*</text><text fill="#000000" font-family="sans-serif" font-size="13" lengthAdjust="spacing" textLength="8" x="520.4184" y="296.3531">1</text></g><!--link Client to Message--><g id="link_Client_Message"><path codeLine="139" d="M331.17,382.7083 C330.88,398.2983 330.5,422.4983 330.5,443.4883 C330.5,443.4883 330.5,443.4883 330.5,578.9883 C330.5,606.8683 343.91,633.5083 360.2,655.5883 " fill="none" id="Client-Message" style="stroke:#181818;stroke-width:1.0;"/><text fill="#000000" font-family="sans-serif" font-size="13" lengthAdjust="spacing" textLength="39" x="331.5" y="496.5566">leaves</text><text fill="#000000" font-family="sans-serif" font-size="13" lengthAdjust="spacing" textLength="8" x="321.7357" y="403.4357">1</text><text fill="#000000" font-family="sans-serif" font-size="13" lengthAdjust="spacing" textLength="22" x="330.3028" y="645.5307">1..*</text></g><!--reverse link Person to Client--><g id="link_Person_Client"><path codeLine="141" d="M359.39,182.8283 C350.44,241.1283 338.98,315.8083 333.99,348.2383 " fill="none" id="Person-backto-Client" style="stroke:#181818;stroke-width:1.0;"/><polygon fill="none" points="352.44,182.0083,362.39,163.2983,366.28,184.1283,352.44,182.0083" style="stroke:#181818;stroke-width:1.0;"/></g><!--reverse link Person to Employee--><g id="link_Person_Employee"><path codeLine="142" d="M394.27,182.4983 C405.18,220.0883 417.25,261.7083 423.74,284.0883 " fill="none" id="Person-backto-Employee" style="stroke:#181818;stroke-width:1.0;"/><polygon fill="none" points="387.56,184.4983,388.72,163.3383,401.01,180.5983,387.56,184.4983" style="stroke:#181818;stroke-width:1.0;"/></g><!--SRC=[TLLDRzim3BthLmWv5aZHOC0EHb4WJJAimDe6IRl3RehDn49joTL7r-pZlu-IB5dEqfCLaeyK7nyLmqq3z7bxDVjCftGfMyO5lPSLD8Je5ouwfbXBMobaMIlP0ZNAGkRfMFd23h0rHqoZe3HC79eyGDUiaZ-vE9mYouPfFJT6yPqrS5TAiUM_W5wHcbT0IwvApEFFBPXQLfeG3w7p0mX3VnFoDreM3JyrtOFMU2-qFR0MoBgM0kY3RNUWo98P87U26yuQ-iJHlH9LE2n1buftXainv5grNIEF0AC26zcC3MjGMefOS8L4DkEoJ-mz7jS8wAGoyVUGnEuQhckeva98AqfeGsCBAOnYfQ5FnmwoS2KxKEQ84NC5Z2ovnW6KGB_WhEY2esU12V8ABi7ZFWEUPAobaHhDpvkxmNfhDHV8ADety6f16wYmE2ypv4AsN6lkAVZE6fkvDg69fLNCCKiVzpGsD0JDgqg54bkZ090Rn-CFtc5iDKgcKHIkIQJQq-VotJA3-fIjpcrGdPhMJBquBMvHjw27f5k3cl2btTTNJhwlqchdksNQZmEbKxCTDso72lWcztaFRpXrPr-zMjxriqld8SxD2TdpfCJZkEZMYjLx9xLLu8FSQer4wOUBmd2V20sRCPbDw7GwfPEBILg30dSJ5ISgJM_EX9sNNK6xtkvG90x80HmEyO6kWjPCqslIivVvKtCf95coADz3YZX_bn3UtpQAjw2iUiCJr_w67o1Zd_XDEaxL8a4f_-m3DWfQCe6eDt2mbEZwZqCvWG-sK36qbfO2yIXvV5qzbwa57zl0teJua-qiQ0LxbnHhZY6sSu3BoqzNaxYpeQURay2GDyxklnXt_s6b21csotkyzZDZJ8bidT7wkCUmDpcnkQZ7iUc93NnwXGv6dqFnGzspvD_UsCemGgJZOiHc_xzGq0PmRlW7qh_HeKZmZcsn9Fa7]--></g></svg>