<?xml version="1.0" encoding="UTF-8" standalone="no"?><svg xmlns="http://www.w3.org/2000/svg" xmlns:xlink="http://www.w3.org/1999/xlink" contentStyleType="text/css" height="2165px" preserveAspectRatio="none" style="width:898px;height:2165px;background:#FFFFFF;" version="1.1" viewBox="0 0 898 2165" width="898px" zoomAndPan="magnify"><defs><filter height="300%" id="f1qvflhjtu6n71" width="300%" x="-1" y="-1"><feGaussianBlur result="blurOut" stdDeviation="2.0"/><feColorMatrix in="blurOut" result="blurOut2" type="matrix" values="0 0 0 0 0 0 0 0 0 0 0 0 0 0 0 0 0 0 .4 0"/><feOffset dx="4.0" dy="4.0" in="blurOut2" result="blurOut3"/><feBlend in="SourceGraphic" in2="blurOut3" mode="normal"/></filter></defs><g><text fill="#000000" font-family="sans-serif" font-size="14" font-weight="bold" lengthAdjust="spacing" textLength="156" x="364" y="24.5332">US016 - Domain Model</text><!--class Agent--><g id="elem_Agent"><rect codeLine="11" fill="#F1F1F1" filter="url(#f1qvflhjtu6n71)" height="43.1563" id="Agent" rx="2.5" ry="2.5" style="stroke:#181818;stroke-width:0.5;" width="57" x="518.5" y="545.6094"/><text fill="#000000" font-family="sans-serif" font-size="20" lengthAdjust="spacing" textLength="51" x="521.5" y="571.3711">Agent</text><line style="stroke:#181818;stroke-width:0.5;" x1="519.5" x2="574.5" y1="580.7656" y2="580.7656"/></g><!--class Client--><g id="elem_Client"><rect codeLine="15" fill="#F1F1F1" filter="url(#f1qvflhjtu6n71)" height="43.1563" id="Client" rx="2.5" ry="2.5" style="stroke:#181818;stroke-width:0.5;" width="55" x="400.5" y="410.6094"/><text fill="#000000" font-family="sans-serif" font-size="20" lengthAdjust="spacing" textLength="49" x="403.5" y="436.3711">Client</text><line style="stroke:#181818;stroke-width:0.5;" x1="401.5" x2="454.5" y1="445.7656" y2="445.7656"/></g><!--class Message--><g id="elem_Message"><rect codeLine="19" fill="#F1F1F1" filter="url(#f1qvflhjtu6n71)" height="194.0938" id="Message" rx="2.5" ry="2.5" style="stroke:#181818;stroke-width:0.5;" width="141" x="442.5" y="737.6094"/><text fill="#000000" font-family="sans-serif" font-size="20" lengthAdjust="spacing" textLength="81" x="472.5" y="763.3711">Message</text><line style="stroke:#181818;stroke-width:0.5;" x1="443.5" x2="582.5" y1="772.7656" y2="772.7656"/><text fill="#000000" font-family="sans-serif" font-size="20" lengthAdjust="spacing" textLength="51" x="448.5" y="797.5273">Name</text><text fill="#000000" font-family="sans-serif" font-size="20" lengthAdjust="spacing" textLength="129" x="448.5" y="822.6836">Phone Number</text><text fill="#000000" font-family="sans-serif" font-size="20" lengthAdjust="spacing" textLength="42" x="448.5" y="847.8398">Date</text><text fill="#000000" font-family="sans-serif" font-size="20" lengthAdjust="spacing" textLength="94" x="448.5" y="872.9961">Initial Time</text><text fill="#000000" font-family="sans-serif" font-size="20" lengthAdjust="spacing" textLength="83" x="448.5" y="898.1523">End Time</text><text fill="#000000" font-family="sans-serif" font-size="20" lengthAdjust="spacing" textLength="98" x="448.5" y="923.3086">Description</text></g><!--class Employee--><g id="elem_Employee"><rect codeLine="28" fill="#F1F1F1" filter="url(#f1qvflhjtu6n71)" height="43.1563" id="Employee" rx="2.5" ry="2.5" style="stroke:#181818;stroke-width:0.5;" width="93" x="497.5" y="337.6094"/><text fill="#000000" font-family="sans-serif" font-size="20" lengthAdjust="spacing" textLength="87" x="500.5" y="363.3711">Employee</text><line style="stroke:#181818;stroke-width:0.5;" x1="498.5" x2="589.5" y1="372.7656" y2="372.7656"/></g><!--class Role--><g id="elem_Role"><rect codeLine="32" fill="#F1F1F1" filter="url(#f1qvflhjtu6n71)" height="43.1563" id="Role" rx="2.5" ry="2.5" style="stroke:#181818;stroke-width:0.5;" width="46" x="678" y="337.6094"/><text fill="#000000" font-family="sans-serif" font-size="20" lengthAdjust="spacing" textLength="40" x="681" y="363.3711">Role</text><line style="stroke:#181818;stroke-width:0.5;" x1="679" x2="723" y1="372.7656" y2="372.7656"/></g><!--class Person--><g id="elem_Person"><rect codeLine="36" fill="#F1F1F1" filter="url(#f1qvflhjtu6n71)" height="168.9375" id="Person" rx="2.5" ry="2.5" style="stroke:#181818;stroke-width:0.5;" width="165" x="391.5" y="45.6094"/><text fill="#000000" font-family="sans-serif" font-size="20" lengthAdjust="spacing" textLength="62" x="443" y="71.3711">Person</text><line style="stroke:#181818;stroke-width:0.5;" x1="392.5" x2="555.5" y1="80.7656" y2="80.7656"/><text fill="#000000" font-family="sans-serif" font-size="20" lengthAdjust="spacing" textLength="51" x="397.5" y="105.5273">Name</text><text fill="#000000" font-family="sans-serif" font-size="20" lengthAdjust="spacing" textLength="48" x="397.5" y="130.6836">Email</text><text fill="#000000" font-family="sans-serif" font-size="20" lengthAdjust="spacing" textLength="129" x="397.5" y="155.8398">Phone Number</text><text fill="#000000" font-family="sans-serif" font-size="20" lengthAdjust="spacing" textLength="106" x="397.5" y="180.9961">Tax Number</text><text fill="#000000" font-family="sans-serif" font-size="20" lengthAdjust="spacing" textLength="153" x="397.5" y="206.1523">Passport Number</text></g><!--class PublishedAnnouncement--><g id="elem_PublishedAnnouncement"><rect codeLine="44" fill="#F1F1F1" filter="url(#f1qvflhjtu6n71)" height="68.3125" id="PublishedAnnouncement" rx="2.5" ry="2.5" style="stroke:#181818;stroke-width:0.5;" width="218" x="482" y="1080.6094"/><text fill="#000000" font-family="sans-serif" font-size="20" lengthAdjust="spacing" textLength="212" x="485" y="1106.3711">PublishedAnnouncement</text><line style="stroke:#181818;stroke-width:0.5;" x1="483" x2="699" y1="1115.7656" y2="1115.7656"/><text fill="#000000" font-family="sans-serif" font-size="20" lengthAdjust="spacing" textLength="125" x="488" y="1140.5273">Contract Type</text></g><!--class Property--><g id="elem_Property"><rect codeLine="48" fill="#F1F1F1" filter="url(#f1qvflhjtu6n71)" height="93.4688" id="Property" rx="2.5" ry="2.5" style="stroke:#181818;stroke-width:0.5;" width="245" x="274.5" y="1364.6094"/><text fill="#000000" font-family="sans-serif" font-size="20" lengthAdjust="spacing" textLength="76" x="359" y="1390.3711">Property</text><line style="stroke:#181818;stroke-width:0.5;" x1="275.5" x2="518.5" y1="1399.7656" y2="1399.7656"/><text fill="#000000" font-family="sans-serif" font-size="20" lengthAdjust="spacing" textLength="42" x="280.5" y="1424.5273">Area</text><text fill="#000000" font-family="sans-serif" font-size="20" lengthAdjust="spacing" textLength="233" x="280.5" y="1449.6836">Distance From City Center</text></g><!--class TypeOfProperty--><g id="elem_TypeOfProperty"><rect codeLine="53" fill="#F1F1F1" filter="url(#f1qvflhjtu6n71)" height="68.3125" id="TypeOfProperty" rx="2.5" ry="2.5" style="stroke:#181818;stroke-width:0.5;" width="148" x="7" y="1377.1094"/><text fill="#000000" font-family="sans-serif" font-size="20" lengthAdjust="spacing" textLength="142" x="10" y="1402.8711">TypeOfProperty</text><line style="stroke:#181818;stroke-width:0.5;" x1="8" x2="154" y1="1412.2656" y2="1412.2656"/><text fill="#000000" font-family="sans-serif" font-size="20" lengthAdjust="spacing" textLength="44" x="13" y="1437.0273">Type</text></g><!--class Photos--><g id="elem_Photos"><rect codeLine="57" fill="#F1F1F1" filter="url(#f1qvflhjtu6n71)" height="68.3125" id="Photos" rx="2.5" ry="2.5" style="stroke:#181818;stroke-width:0.5;" width="67" x="362.5" y="1209.6094"/><text fill="#000000" font-family="sans-serif" font-size="20" lengthAdjust="spacing" textLength="61" x="365.5" y="1235.3711">Photos</text><line style="stroke:#181818;stroke-width:0.5;" x1="363.5" x2="428.5" y1="1244.7656" y2="1244.7656"/><text fill="#000000" font-family="sans-serif" font-size="20" lengthAdjust="spacing" textLength="33" x="368.5" y="1269.5273">URI</text></g><!--class Business--><g id="elem_Business"><rect codeLine="61" fill="#F1F1F1" filter="url(#f1qvflhjtu6n71)" height="68.3125" id="Business" rx="2.5" ry="2.5" style="stroke:#181818;stroke-width:0.5;" width="158" x="603" y="1377.1094"/><text fill="#000000" font-family="sans-serif" font-size="20" lengthAdjust="spacing" textLength="78" x="643" y="1402.8711">Business</text><line style="stroke:#181818;stroke-width:0.5;" x1="604" x2="760" y1="1412.2656" y2="1412.2656"/><text fill="#000000" font-family="sans-serif" font-size="20" lengthAdjust="spacing" textLength="146" x="609" y="1437.0273">Requested Price</text></g><!--class Comission--><g id="elem_Comission"><rect codeLine="65" fill="#F1F1F1" filter="url(#f1qvflhjtu6n71)" height="68.3125" id="Comission" rx="2.5" ry="2.5" style="stroke:#181818;stroke-width:0.5;" width="96" x="624" y="1570.1094"/><text fill="#000000" font-family="sans-serif" font-size="20" lengthAdjust="spacing" textLength="90" x="627" y="1595.8711">Comission</text><line style="stroke:#181818;stroke-width:0.5;" x1="625" x2="719" y1="1605.2656" y2="1605.2656"/><text fill="#000000" font-family="sans-serif" font-size="20" lengthAdjust="spacing" textLength="49" x="630" y="1630.0273">Value</text></g><!--class Rent--><g id="elem_Rent"><rect codeLine="69" fill="#F1F1F1" filter="url(#f1qvflhjtu6n71)" height="68.3125" id="Rent" rx="2.5" ry="2.5" style="stroke:#181818;stroke-width:0.5;" width="194" x="692" y="1763.1094"/><text fill="#000000" font-family="sans-serif" font-size="20" lengthAdjust="spacing" textLength="41" x="768.5" y="1788.8711">Rent</text><line style="stroke:#181818;stroke-width:0.5;" x1="693" x2="885" y1="1798.2656" y2="1798.2656"/><text fill="#000000" font-family="sans-serif" font-size="20" lengthAdjust="spacing" textLength="182" x="698" y="1823.0273">Duration Of Contract</text></g><!--class Address--><g id="elem_Address"><rect codeLine="73" fill="#F1F1F1" filter="url(#f1qvflhjtu6n71)" height="93.4688" id="Address" rx="2.5" ry="2.5" style="stroke:#181818;stroke-width:0.5;" width="123" x="135.5" y="1557.6094"/><text fill="#000000" font-family="sans-serif" font-size="20" lengthAdjust="spacing" textLength="73" x="160.5" y="1583.3711">Address</text><line style="stroke:#181818;stroke-width:0.5;" x1="136.5" x2="257.5" y1="1592.7656" y2="1592.7656"/><text fill="#000000" font-family="sans-serif" font-size="20" lengthAdjust="spacing" textLength="111" x="141.5" y="1617.5273">Street Name</text><text fill="#000000" font-family="sans-serif" font-size="20" lengthAdjust="spacing" textLength="80" x="141.5" y="1642.6836">Zip Code</text></g><!--class Residence--><g id="elem_Residence"><rect codeLine="78" fill="#F1F1F1" filter="url(#f1qvflhjtu6n71)" height="118.625" id="Residence" rx="2.5" ry="2.5" style="stroke:#181818;stroke-width:0.5;" width="252" x="294" y="1544.6094"/><text fill="#000000" font-family="sans-serif" font-size="20" lengthAdjust="spacing" textLength="92" x="374" y="1570.3711">Residence</text><line style="stroke:#181818;stroke-width:0.5;" x1="295" x2="545" y1="1579.7656" y2="1579.7656"/><text fill="#000000" font-family="sans-serif" font-size="20" lengthAdjust="spacing" textLength="197" x="300" y="1604.5273">Number Of Bathrooms</text><text fill="#000000" font-family="sans-serif" font-size="20" lengthAdjust="spacing" textLength="192" x="300" y="1629.6836">Number Of Bedrooms</text><text fill="#000000" font-family="sans-serif" font-size="20" lengthAdjust="spacing" textLength="240" x="300" y="1654.8398">Number Of Parking Spaces</text></g><!--class State--><g id="elem_State"><rect codeLine="84" fill="#F1F1F1" filter="url(#f1qvflhjtu6n71)" height="68.3125" id="State" rx="2.5" ry="2.5" style="stroke:#181818;stroke-width:0.5;" width="116" x="139" y="1763.1094"/><text fill="#000000" font-family="sans-serif" font-size="20" lengthAdjust="spacing" textLength="47" x="173.5" y="1788.8711">State</text><line style="stroke:#181818;stroke-width:0.5;" x1="140" x2="254" y1="1798.2656" y2="1798.2656"/><text fill="#000000" font-family="sans-serif" font-size="20" lengthAdjust="spacing" textLength="104" x="145" y="1823.0273">State Name</text></g><!--class House--><g id="elem_House"><rect codeLine="88" fill="#F1F1F1" filter="url(#f1qvflhjtu6n71)" height="93.4688" id="House" rx="2.5" ry="2.5" style="stroke:#181818;stroke-width:0.5;" width="147" x="295.5" y="1750.6094"/><text fill="#000000" font-family="sans-serif" font-size="20" lengthAdjust="spacing" textLength="55" x="341.5" y="1776.3711">House</text><line style="stroke:#181818;stroke-width:0.5;" x1="296.5" x2="441.5" y1="1785.7656" y2="1785.7656"/><text fill="#000000" font-family="sans-serif" font-size="20" lengthAdjust="spacing" textLength="88" x="301.5" y="1810.5273">Basement</text><text fill="#000000" font-family="sans-serif" font-size="20" lengthAdjust="spacing" textLength="135" x="301.5" y="1835.6836">Inhabitable Loft</text></g><!--class AvailableEquipment--><g id="elem_AvailableEquipment"><rect codeLine="93" fill="#F1F1F1" filter="url(#f1qvflhjtu6n71)" height="68.3125" id="AvailableEquipment" rx="2.5" ry="2.5" style="stroke:#181818;stroke-width:0.5;" width="176" x="478" y="1763.1094"/><text fill="#000000" font-family="sans-serif" font-size="20" lengthAdjust="spacing" textLength="170" x="481" y="1788.8711">AvailableEquipment</text><line style="stroke:#181818;stroke-width:0.5;" x1="479" x2="653" y1="1798.2656" y2="1798.2656"/><text fill="#000000" font-family="sans-serif" font-size="20" lengthAdjust="spacing" textLength="92" x="484" y="1823.0273">Equipment</text></g><!--class District--><g id="elem_District"><rect codeLine="97" fill="#F1F1F1" filter="url(#f1qvflhjtu6n71)" height="68.3125" id="District" rx="2.5" ry="2.5" style="stroke:#181818;stroke-width:0.5;" width="130" x="132" y="1930.6094"/><text fill="#000000" font-family="sans-serif" font-size="20" lengthAdjust="spacing" textLength="61" x="166.5" y="1956.3711">District</text><line style="stroke:#181818;stroke-width:0.5;" x1="133" x2="261" y1="1965.7656" y2="1965.7656"/><text fill="#000000" font-family="sans-serif" font-size="20" lengthAdjust="spacing" textLength="118" x="138" y="1990.5273">District Name</text></g><!--class SunExposure--><g id="elem_SunExposure"><rect codeLine="101" fill="#F1F1F1" filter="url(#f1qvflhjtu6n71)" height="68.3125" id="SunExposure" rx="2.5" ry="2.5" style="stroke:#181818;stroke-width:0.5;" width="121" x="308.5" y="2085.6094"/><text fill="#000000" font-family="sans-serif" font-size="20" lengthAdjust="spacing" textLength="115" x="311.5" y="2111.3711">SunExposure</text><line style="stroke:#181818;stroke-width:0.5;" x1="309.5" x2="428.5" y1="2120.7656" y2="2120.7656"/><text fill="#000000" font-family="sans-serif" font-size="20" lengthAdjust="spacing" textLength="77" x="314.5" y="2145.5273">Direction</text></g><!--class City--><g id="elem_City"><rect codeLine="105" fill="#F1F1F1" filter="url(#f1qvflhjtu6n71)" height="68.3125" id="City" rx="2.5" ry="2.5" style="stroke:#181818;stroke-width:0.5;" width="103" x="145.5" y="2085.6094"/><text fill="#000000" font-family="sans-serif" font-size="20" lengthAdjust="spacing" textLength="34" x="180" y="2111.3711">City</text><line style="stroke:#181818;stroke-width:0.5;" x1="146.5" x2="247.5" y1="2120.7656" y2="2120.7656"/><text fill="#000000" font-family="sans-serif" font-size="20" lengthAdjust="spacing" textLength="91" x="151.5" y="2145.5273">City Name</text></g><!--link Agent to Message--><g id="link_Agent_Message"><path codeLine="109" d="M544.33,588.9394 C540.25,620.7894 532.21,683.5594 525.3,737.5494 " fill="none" id="Agent-Message" style="stroke:#181818;stroke-width:1.0;"/><polygon fill="#000000" points="542.9839,671.1227,549.4863,657.365,540.1579,656.1705,542.9839,671.1227" style="stroke:#000000;stroke-width:1.0;"/><text fill="#000000" font-family="sans-serif" font-size="20" lengthAdjust="spacing" textLength="81" x="557" y="671.3711">responds</text><text fill="#000000" font-family="sans-serif" font-size="20" lengthAdjust="spacing" textLength="11" x="531.4407" y="617.6399">1</text><text fill="#000000" font-family="sans-serif" font-size="20" lengthAdjust="spacing" textLength="8" x="517.9095" y="725.2676">*</text></g><!--link Agent to PublishedAnnouncement--><g id="link_Agent_PublishedAnnouncement"><path codeLine="110" d="M575.6,576.2294 C611.66,588.4194 669,615.1794 669,662.1094 C669,662.1094 669,662.1094 669,1007.1094 C669,1035.5294 650.7,1061.3994 631.83,1080.5294 " fill="none" id="Agent-PublishedAnnouncement" style="stroke:#181818;stroke-width:1.0;"/><polygon fill="#000000" points="677.8865,842.6382,680.9561,827.7341,671.6095,828.7763,677.8865,842.6382" style="stroke:#000000;stroke-width:1.0;"/><text fill="#000000" font-family="sans-serif" font-size="20" lengthAdjust="spacing" textLength="81" x="690" y="842.8711">publishes</text><text fill="#000000" font-family="sans-serif" font-size="20" lengthAdjust="spacing" textLength="11" x="583.4856" y="571.2095">1</text><text fill="#000000" font-family="sans-serif" font-size="20" lengthAdjust="spacing" textLength="8" x="630.1602" y="1068.2717">*</text></g><!--link Address to State--><g id="link_Address_State"><path codeLine="112" d="M197,1650.8594 C197,1685.3994 197,1731.9894 197,1762.9894 " fill="none" id="Address-State" style="stroke:#181818;stroke-width:1.0;"/><polygon fill="#000000" points="205,1699.1875,200.2977,1713.6596,209.7023,1713.6596,205,1699.1875" style="stroke:#000000;stroke-width:1.0;"/><text fill="#000000" font-family="sans-serif" font-size="20" lengthAdjust="spacing" textLength="31" x="218" y="1715.3711">has</text><text fill="#000000" font-family="sans-serif" font-size="20" lengthAdjust="spacing" textLength="8" x="188.4375" y="1679.9312">*</text><text fill="#000000" font-family="sans-serif" font-size="20" lengthAdjust="spacing" textLength="11" x="185.0547" y="1750.7249">1</text></g><!--link State to District--><g id="link_State_District"><path codeLine="114" d="M197,1831.1994 C197,1860.0694 197,1901.7294 197,1930.5694 " fill="none" id="State-District" style="stroke:#181818;stroke-width:1.0;"/><polygon fill="#000000" points="205,1879.1875,200.2977,1893.6596,209.7023,1893.6596,205,1879.1875" style="stroke:#000000;stroke-width:1.0;"/><text fill="#000000" font-family="sans-serif" font-size="20" lengthAdjust="spacing" textLength="31" x="218" y="1895.3711">has</text><text fill="#000000" font-family="sans-serif" font-size="20" lengthAdjust="spacing" textLength="8" x="188.2875" y="1860.246">*</text><text fill="#000000" font-family="sans-serif" font-size="20" lengthAdjust="spacing" textLength="11" x="185.0547" y="1918.3186">1</text></g><!--link District to City--><g id="link_District_City"><path codeLine="116" d="M197,1998.8094 C197,2024.4694 197,2059.8294 197,2085.4794 " fill="none" id="District-City" style="stroke:#181818;stroke-width:1.0;"/><polygon fill="#000000" points="205,2034.1875,200.2977,2048.6596,209.7023,2048.6596,205,2034.1875" style="stroke:#000000;stroke-width:1.0;"/><text fill="#000000" font-family="sans-serif" font-size="20" lengthAdjust="spacing" textLength="31" x="218" y="2050.3711">has</text><text fill="#000000" font-family="sans-serif" font-size="20" lengthAdjust="spacing" textLength="8" x="188.3125" y="2027.5842">*</text><text fill="#000000" font-family="sans-serif" font-size="20" lengthAdjust="spacing" textLength="11" x="185.0547" y="2073.2131">1</text></g><!--link PublishedAnnouncement to Property--><g id="link_PublishedAnnouncement_Property"><path codeLine="118" d="M551.41,1149.0094 C533.67,1165.6894 513.7,1187.0994 500,1209.6094 C469.53,1259.6794 486.19,1283.2294 458,1334.6094 C452.41,1344.7994 445.4,1354.9894 438.14,1364.4294 " fill="none" id="PublishedAnnouncement-Property" style="stroke:#181818;stroke-width:1.0;"/><polygon fill="#000000" points="504.2768,1250.7683,515.1741,1240.1474,506.8501,1235.7706,504.2768,1250.7683" style="stroke:#000000;stroke-width:1.0;"/><text fill="#000000" font-family="sans-serif" font-size="20" lengthAdjust="spacing" textLength="90" x="521" y="1251.8711">advertises</text><text fill="#000000" font-family="sans-serif" font-size="20" lengthAdjust="spacing" textLength="8" x="535.918" y="1177.8186">*</text><text fill="#000000" font-family="sans-serif" font-size="20" lengthAdjust="spacing" textLength="8" x="435.1307" y="1352.2178">*</text></g><!--link PublishedAnnouncement to Business--><g id="link_PublishedAnnouncement_Business"><path codeLine="119" d="M601.26,1148.8194 C618.79,1205.5294 654.28,1320.3894 671.78,1377.0194 " fill="none" id="PublishedAnnouncement-Business" style="stroke:#181818;stroke-width:1.0;"/><polygon fill="#000000" points="646.638,1236.0441,646.4182,1251.2595,655.4036,1248.4828,646.638,1236.0441" style="stroke:#000000;stroke-width:1.0;"/><text fill="#000000" font-family="sans-serif" font-size="20" lengthAdjust="spacing" textLength="31" x="662" y="1251.8711">has</text><text fill="#000000" font-family="sans-serif" font-size="20" lengthAdjust="spacing" textLength="11" x="591.0781" y="1177.5959">1</text><text fill="#000000" font-family="sans-serif" font-size="20" lengthAdjust="spacing" textLength="11" x="658.0781" y="1364.76">1</text></g><!--link Message to PublishedAnnouncement--><g id="link_Message_PublishedAnnouncement"><path codeLine="121" d="M522.96,931.9894 C527.45,960.6294 533.87,991.7794 543,1019.6094 C549.91,1040.6794 561.01,1062.8294 570.8,1080.3394 " fill="none" id="Message-PublishedAnnouncement" style="stroke:#181818;stroke-width:1.0;"/><polygon fill="#000000" points="548.5447,998.5736,548.5111,1013.7905,557.4617,1010.9041,548.5447,998.5736" style="stroke:#000000;stroke-width:1.0;"/><text fill="#000000" font-family="sans-serif" font-size="20" lengthAdjust="spacing" textLength="78" x="564" y="1014.3711">can have</text><text fill="#000000" font-family="sans-serif" font-size="20" lengthAdjust="spacing" textLength="8" x="515.3791" y="960.4792">*</text><text fill="#000000" font-family="sans-serif" font-size="20" lengthAdjust="spacing" textLength="11" x="555.5434" y="1068.3419">1</text></g><!--reverse link Business to Rent--><g id="link_Business_Rent"><path codeLine="123" d="M746.72,1459.2094 C754.76,1467.7794 761.92,1477.2994 767,1487.6094 C811.98,1578.8794 802.42,1704.0694 794.42,1762.9494 " fill="none" id="Business-backto-Rent" style="stroke:#181818;stroke-width:1.0;"/><polygon fill="none" points="741.76,1464.1594,732.07,1445.3094,751.4,1454.0094,741.76,1464.1594" style="stroke:#181818;stroke-width:1.0;"/></g><!--link Business to Comission--><g id="link_Business_Comission"><path codeLine="124" d="M675.01,1445.3994 C672.59,1458.4894 670.19,1473.6994 669,1487.6094 C666.63,1515.2894 667.71,1546.8294 669.19,1569.9394 " fill="none" id="Business-Comission" style="stroke:#181818;stroke-width:1.0;"/><polygon fill="#000000" points="676.6266,1509.1788,681.9993,1494.9419,672.605,1494.5029,676.6266,1509.1788" style="stroke:#000000;stroke-width:1.0;"/><text fill="#000000" font-family="sans-serif" font-size="20" lengthAdjust="spacing" textLength="72" x="690" y="1509.3711">contains</text><text fill="#000000" font-family="sans-serif" font-size="20" lengthAdjust="spacing" textLength="11" x="661.8633" y="1474.1897">1</text><text fill="#000000" font-family="sans-serif" font-size="20" lengthAdjust="spacing" textLength="11" x="656.7617" y="1557.6663">1</text></g><!--link TypeOfProperty to Property--><g id="link_TypeOfProperty_Property"><path codeLine="126" d="M155.09,1411.1094 C190.57,1411.1094 234,1411.1094 274.23,1411.1094 " fill="none" id="TypeOfProperty-Property" style="stroke:#181818;stroke-width:1.0;"/><polygon fill="#000000" points="188.25,1394.6875,173.7779,1389.9852,173.7779,1399.3898,188.25,1394.6875" style="stroke:#000000;stroke-width:1.0;"/><text fill="#000000" font-family="sans-serif" font-size="20" lengthAdjust="spacing" textLength="63" x="193.25" y="1402.8711">defines</text><text fill="#000000" font-family="sans-serif" font-size="20" lengthAdjust="spacing" textLength="11" x="162.9246" y="1405.6329">1</text><text fill="#000000" font-family="sans-serif" font-size="20" lengthAdjust="spacing" textLength="11" x="255.4135" y="1406.0999">1</text></g><!--link Photos to Property--><g id="link_Photos_Property"><path codeLine="127" d="M396.2,1277.6994 C396.35,1302.6094 396.56,1337.0294 396.72,1364.5394 " fill="none" id="Photos-Property" style="stroke:#181818;stroke-width:1.0;"/><polygon fill="#000000" points="404.9521,1313.1876,400.3366,1327.6877,409.741,1327.6314,404.9521,1313.1876" style="stroke:#000000;stroke-width:1.0;"/><text fill="#000000" font-family="sans-serif" font-size="20" lengthAdjust="spacing" textLength="31" x="418" y="1329.3711">has</text><text fill="#000000" font-family="sans-serif" font-size="20" lengthAdjust="spacing" textLength="45" x="347.2278" y="1306.746">1..30</text><text fill="#000000" font-family="sans-serif" font-size="20" lengthAdjust="spacing" textLength="11" x="384.9433" y="1352.3426">1</text></g><!--link Property to Address--><g id="link_Property_Address"><path codeLine="128" d="M349.35,1457.6194 C317.81,1487.7394 276.59,1527.0994 244.98,1557.2894 " fill="none" id="Property-Address" style="stroke:#181818;stroke-width:1.0;"/><polygon fill="#000000" points="317.2144,1506.7126,330.9282,1500.1183,324.4331,1493.3169,317.2144,1506.7126" style="stroke:#000000;stroke-width:1.0;"/><text fill="#000000" font-family="sans-serif" font-size="20" lengthAdjust="spacing" textLength="31" x="336" y="1509.3711">has</text><text fill="#000000" font-family="sans-serif" font-size="20" lengthAdjust="spacing" textLength="11" x="330.8758" y="1486.6574">1</text><text fill="#000000" font-family="sans-serif" font-size="20" lengthAdjust="spacing" textLength="11" x="239.6882" y="1545.059">1</text></g><!--reverse link Property to Residence--><g id="link_Property_Residence"><path codeLine="129" d="M404.9,1477.7294 C407.51,1499.3594 410.38,1523.2594 412.92,1544.3394 " fill="none" id="Property-backto-Residence" style="stroke:#181818;stroke-width:1.0;"/><polygon fill="none" points="397.95,1478.5494,402.51,1457.8594,411.85,1476.8794,397.95,1478.5494" style="stroke:#181818;stroke-width:1.0;"/></g><!--reverse link Residence to House--><g id="link_Residence_House"><path codeLine="131" d="M399.13,1683.2694 C393.04,1706.0794 386.58,1730.2594 381.22,1750.3494 " fill="none" id="Residence-backto-House" style="stroke:#181818;stroke-width:1.0;"/><polygon fill="none" points="392.43,1681.2294,404.35,1663.7094,405.96,1684.8394,392.43,1681.2294" style="stroke:#181818;stroke-width:1.0;"/></g><!--link Residence to AvailableEquipment--><g id="link_Residence_AvailableEquipment"><path codeLine="132" d="M464.8,1663.7094 C489.69,1696.2794 519.76,1735.6194 540.62,1762.9094 " fill="none" id="Residence-AvailableEquipment" style="stroke:#181818;stroke-width:1.0;"/><polygon fill="#000000" points="518.858,1713.5436,513.8058,1699.1899,506.3338,1704.9008,518.858,1713.5436" style="stroke:#000000;stroke-width:1.0;"/><text fill="#000000" font-family="sans-serif" font-size="20" lengthAdjust="spacing" textLength="72" x="527" y="1715.3711">contains</text><text fill="#000000" font-family="sans-serif" font-size="20" lengthAdjust="spacing" textLength="11" x="457.8528" y="1691.9338">1</text><text fill="#000000" font-family="sans-serif" font-size="20" lengthAdjust="spacing" textLength="8" x="527.5703" y="1750.6311">*</text></g><!--link House to SunExposure--><g id="link_House_SunExposure"><path codeLine="134" d="M369,1843.6894 C369,1909.0194 369,2027.7294 369,2085.3994 " fill="none" id="House-SunExposure" style="stroke:#181818;stroke-width:1.0;"/><polygon fill="#000000" points="377,1972.6875,381.7023,1958.2154,372.2977,1958.2154,377,1972.6875" style="stroke:#000000;stroke-width:1.0;"/><text fill="#000000" font-family="sans-serif" font-size="20" lengthAdjust="spacing" textLength="72" x="390" y="1972.8711">contains</text><text fill="#000000" font-family="sans-serif" font-size="20" lengthAdjust="spacing" textLength="8" x="360.4375" y="1872.7372">*</text><text fill="#000000" font-family="sans-serif" font-size="20" lengthAdjust="spacing" textLength="11" x="357.0547" y="2073.1194">1</text></g><!--reverse link Employee to Agent--><g id="link_Employee_Agent"><path codeLine="136" d="M544.59,400.6194 C545.22,444.1494 546.21,511.6194 546.7,545.3794 " fill="none" id="Employee-backto-Agent" style="stroke:#181818;stroke-width:1.0;"/><polygon fill="none" points="537.59,400.7194,544.3,380.6194,551.59,400.5094,537.59,400.7194" style="stroke:#181818;stroke-width:1.0;"/></g><!--link Employee to Role--><g id="link_Employee_Role"><path codeLine="137" d="M590.68,359.1094 C619.42,359.1094 655.02,359.1094 677.87,359.1094 " fill="none" id="Employee-Role" style="stroke:#181818;stroke-width:1.0;"/><polygon fill="#000000" points="623.75,342.6875,609.2779,337.9852,609.2779,347.3898,623.75,342.6875" style="stroke:#000000;stroke-width:1.0;"/><text fill="#000000" font-family="sans-serif" font-size="20" lengthAdjust="spacing" textLength="31" x="628.75" y="350.8711">has</text><text fill="#000000" font-family="sans-serif" font-size="20" lengthAdjust="spacing" textLength="8" x="598.4404" y="352.957">*</text><text fill="#000000" font-family="sans-serif" font-size="20" lengthAdjust="spacing" textLength="11" x="659.1757" y="351.5117">1</text></g><!--link Client to Message--><g id="link_Client_Message"><path codeLine="139" d="M426.81,453.8694 C425.98,470.3394 425,493.9394 425,514.6094 C425,514.6094 425,514.6094 425,664.1094 C425,689.3094 432.76,714.4894 443.66,737.4294 " fill="none" id="Client-Message" style="stroke:#181818;stroke-width:1.0;"/><text fill="#000000" font-family="sans-serif" font-size="20" lengthAdjust="spacing" textLength="56" x="426" y="575.3711">leaves</text><text fill="#000000" font-family="sans-serif" font-size="20" lengthAdjust="spacing" textLength="11" x="414.2629" y="482.5537">1</text><text fill="#000000" font-family="sans-serif" font-size="20" lengthAdjust="spacing" textLength="31" x="406.4296" y="725.1388">1..*</text></g><!--reverse link Person to Client--><g id="link_Person_Client"><path codeLine="141" d="M458.09,234.8494 C448.33,298.5194 436.68,374.5094 431.18,410.3994 " fill="none" id="Person-backto-Client" style="stroke:#181818;stroke-width:1.0;"/><polygon fill="none" points="451.24,233.3794,461.19,214.6794,465.07,235.5094,451.24,233.3794" style="stroke:#181818;stroke-width:1.0;"/></g><!--reverse link Person to Employee--><g id="link_Person_Employee"><path codeLine="142" d="M505.7,233.9094 C517.73,272.9294 530.29,313.6494 537.62,337.4094 " fill="none" id="Person-backto-Employee" style="stroke:#181818;stroke-width:1.0;"/><polygon fill="none" points="498.97,235.8394,499.77,214.6694,512.35,231.7194,498.97,235.8394" style="stroke:#181818;stroke-width:1.0;"/></g><!--SRC=[TLLBRzim3BxhLmWv5aYHRi0EHb4WJLAimDe6SRl3RehDn49aoTMZQ_RuxwCaouyiFLaX-P7Ynu-AEN3PCCrgeOe3bBI47NF2tYbfS_uBwASP8PPR0VGbdrrzeLEwL3NZaZwe4WGX9k5fhQGgAgrge5Ox67WQLXpO7d9xn3GQ2ilaNWm3JCLAzPFB_Ico4CoOkRMQRvs5-qB9SAaPgNW9jE2wm3pXN8EjL6a82H0wtuEqz3SXVvDb8VYfwG6CmNkXxP7LGDQLaa0VNRq5JPRC0hcNt78cw3D7zqgMyR04KsZUMAvadsjLDq8T0KO5DagC3MlGHibKS8L4Yd7PP_QUZci4D4hRzBjFuhQ2cmhAkPJAoGBgsDW2PwPPOUdpiO51k5ODQ7l4YBa6HfRSu00Ae7SuAxhWw5bWWc45d-1fDm2UPAoKLGRDBvlxtdhh39V8ADetyEh0M9JJMlDYW5oecXl30mNVcN03roOsiNIQUMRfquwcXlgWULdgM2At6W2vyJp-u0t6bgDa1aNXcqIg0tq-tospg4zLcw4DobFJckc3rsAEkWNJ9yqjQYAKzjzGkVDzLSvutoqpOHmedOfjkMLRLC0tjHlsy8PJz_RLg-DDExlktCVvEI5xWPHq71VDdLozDyeu3I78hzP8b66uA0p_IT2u6PEh2PrEftHoCUdM8CFTHCN9qj2RCs7dPPVHfhLx54a3yW2FGtoaAwCLC_IQjEmD_5rpNKXd6KI57hg8ytU9uUrjatWpoietF74JRlW1ClM9tqx7NRL4K9V_wWCsCbemYQWtyB0kqVKVZ_82xssnOcojMmh4e-JnTGrSTYs4M04x6-DFjZFpRxPFYZN74DTumENbvzaaxMpiwUOaCEPDi_ilnj-_Nob2-kqAdg3zWJ6bHBREQ7tSOzoR8R53KOzZkoSsyXaKsXj33ittLSjIU7jJA_q8aOwB4Plj_q961U3Sy0-aVQDZaUWTsr99yWy0]--></g></svg>