<?xml version="1.0" encoding="UTF-8" standalone="no"?><svg xmlns="http://www.w3.org/2000/svg" xmlns:xlink="http://www.w3.org/1999/xlink" contentStyleType="text/css" height="2115px" preserveAspectRatio="none" style="width:898px;height:2115px;background:#FFFFFF;" version="1.1" viewBox="0 0 898 2115" width="898px" zoomAndPan="magnify"><defs><filter height="300%" id="fuvc1r6mdvj5f" width="300%" x="-1" y="-1"><feGaussianBlur result="blurOut" stdDeviation="2.0"/><feColorMatrix in="blurOut" result="blurOut2" type="matrix" values="0 0 0 0 0 0 0 0 0 0 0 0 0 0 0 0 0 0 .4 0"/><feOffset dx="4.0" dy="4.0" in="blurOut2" result="blurOut3"/><feBlend in="SourceGraphic" in2="blurOut3" mode="normal"/></filter></defs><g><text fill="#000000" font-family="sans-serif" font-size="14" font-weight="bold" lengthAdjust="spacing" textLength="156" x="364" y="24.5332">US016 - Domain Model</text><!--class Agent--><g id="elem_Agent"><rect codeLine="11" fill="#F1F1F1" filter="url(#fuvc1r6mdvj5f)" height="43.1563" id="Agent" rx="2.5" ry="2.5" style="stroke:#181818;stroke-width:0.5;" width="57" x="518.5" y="545.6094"/><text fill="#000000" font-family="sans-serif" font-size="20" lengthAdjust="spacing" textLength="51" x="521.5" y="571.3711">Agent</text><line style="stroke:#181818;stroke-width:0.5;" x1="519.5" x2="574.5" y1="580.7656" y2="580.7656"/></g><!--class Client--><g id="elem_Client"><rect codeLine="15" fill="#F1F1F1" filter="url(#fuvc1r6mdvj5f)" height="43.1563" id="Client" rx="2.5" ry="2.5" style="stroke:#181818;stroke-width:0.5;" width="55" x="400.5" y="410.6094"/><text fill="#000000" font-family="sans-serif" font-size="20" lengthAdjust="spacing" textLength="49" x="403.5" y="436.3711">Client</text><line style="stroke:#181818;stroke-width:0.5;" x1="401.5" x2="454.5" y1="445.7656" y2="445.7656"/></g><!--class Message--><g id="elem_Message"><rect codeLine="19" fill="#F1F1F1" filter="url(#fuvc1r6mdvj5f)" height="143.7813" id="Message" rx="2.5" ry="2.5" style="stroke:#181818;stroke-width:0.5;" width="110" x="458" y="737.6094"/><text fill="#000000" font-family="sans-serif" font-size="20" lengthAdjust="spacing" textLength="81" x="472.5" y="763.3711">Message</text><line style="stroke:#181818;stroke-width:0.5;" x1="459" x2="567" y1="772.7656" y2="772.7656"/><text fill="#000000" font-family="sans-serif" font-size="20" lengthAdjust="spacing" textLength="42" x="464" y="797.5273">Date</text><text fill="#000000" font-family="sans-serif" font-size="20" lengthAdjust="spacing" textLength="94" x="464" y="822.6836">Initial Time</text><text fill="#000000" font-family="sans-serif" font-size="20" lengthAdjust="spacing" textLength="83" x="464" y="847.8398">End Time</text><text fill="#000000" font-family="sans-serif" font-size="20" lengthAdjust="spacing" textLength="98" x="464" y="872.9961">Description</text></g><!--class Employee--><g id="elem_Employee"><rect codeLine="26" fill="#F1F1F1" filter="url(#fuvc1r6mdvj5f)" height="43.1563" id="Employee" rx="2.5" ry="2.5" style="stroke:#181818;stroke-width:0.5;" width="93" x="497.5" y="337.6094"/><text fill="#000000" font-family="sans-serif" font-size="20" lengthAdjust="spacing" textLength="87" x="500.5" y="363.3711">Employee</text><line style="stroke:#181818;stroke-width:0.5;" x1="498.5" x2="589.5" y1="372.7656" y2="372.7656"/></g><!--class Role--><g id="elem_Role"><rect codeLine="30" fill="#F1F1F1" filter="url(#fuvc1r6mdvj5f)" height="43.1563" id="Role" rx="2.5" ry="2.5" style="stroke:#181818;stroke-width:0.5;" width="46" x="678" y="337.6094"/><text fill="#000000" font-family="sans-serif" font-size="20" lengthAdjust="spacing" textLength="40" x="681" y="363.3711">Role</text><line style="stroke:#181818;stroke-width:0.5;" x1="679" x2="723" y1="372.7656" y2="372.7656"/></g><!--class Person--><g id="elem_Person"><rect codeLine="34" fill="#F1F1F1" filter="url(#fuvc1r6mdvj5f)" height="168.9375" id="Person" rx="2.5" ry="2.5" style="stroke:#181818;stroke-width:0.5;" width="165" x="391.5" y="45.6094"/><text fill="#000000" font-family="sans-serif" font-size="20" lengthAdjust="spacing" textLength="62" x="443" y="71.3711">Person</text><line style="stroke:#181818;stroke-width:0.5;" x1="392.5" x2="555.5" y1="80.7656" y2="80.7656"/><text fill="#000000" font-family="sans-serif" font-size="20" lengthAdjust="spacing" textLength="51" x="397.5" y="105.5273">Name</text><text fill="#000000" font-family="sans-serif" font-size="20" lengthAdjust="spacing" textLength="48" x="397.5" y="130.6836">Email</text><text fill="#000000" font-family="sans-serif" font-size="20" lengthAdjust="spacing" textLength="129" x="397.5" y="155.8398">Phone Number</text><text fill="#000000" font-family="sans-serif" font-size="20" lengthAdjust="spacing" textLength="106" x="397.5" y="180.9961">Tax Number</text><text fill="#000000" font-family="sans-serif" font-size="20" lengthAdjust="spacing" textLength="153" x="397.5" y="206.1523">Passport Number</text></g><!--class PublishedAnnouncement--><g id="elem_PublishedAnnouncement"><rect codeLine="42" fill="#F1F1F1" filter="url(#fuvc1r6mdvj5f)" height="68.3125" id="PublishedAnnouncement" rx="2.5" ry="2.5" style="stroke:#181818;stroke-width:0.5;" width="218" x="482" y="1030.6094"/><text fill="#000000" font-family="sans-serif" font-size="20" lengthAdjust="spacing" textLength="212" x="485" y="1056.3711">PublishedAnnouncement</text><line style="stroke:#181818;stroke-width:0.5;" x1="483" x2="699" y1="1065.7656" y2="1065.7656"/><text fill="#000000" font-family="sans-serif" font-size="20" lengthAdjust="spacing" textLength="125" x="488" y="1090.5273">Contract Type</text></g><!--class Property--><g id="elem_Property"><rect codeLine="46" fill="#F1F1F1" filter="url(#fuvc1r6mdvj5f)" height="93.4688" id="Property" rx="2.5" ry="2.5" style="stroke:#181818;stroke-width:0.5;" width="245" x="274.5" y="1314.6094"/><text fill="#000000" font-family="sans-serif" font-size="20" lengthAdjust="spacing" textLength="76" x="359" y="1340.3711">Property</text><line style="stroke:#181818;stroke-width:0.5;" x1="275.5" x2="518.5" y1="1349.7656" y2="1349.7656"/><text fill="#000000" font-family="sans-serif" font-size="20" lengthAdjust="spacing" textLength="42" x="280.5" y="1374.5273">Area</text><text fill="#000000" font-family="sans-serif" font-size="20" lengthAdjust="spacing" textLength="233" x="280.5" y="1399.6836">Distance From City Center</text></g><!--class TypeOfProperty--><g id="elem_TypeOfProperty"><rect codeLine="51" fill="#F1F1F1" filter="url(#fuvc1r6mdvj5f)" height="68.3125" id="TypeOfProperty" rx="2.5" ry="2.5" style="stroke:#181818;stroke-width:0.5;" width="148" x="7" y="1327.1094"/><text fill="#000000" font-family="sans-serif" font-size="20" lengthAdjust="spacing" textLength="142" x="10" y="1352.8711">TypeOfProperty</text><line style="stroke:#181818;stroke-width:0.5;" x1="8" x2="154" y1="1362.2656" y2="1362.2656"/><text fill="#000000" font-family="sans-serif" font-size="20" lengthAdjust="spacing" textLength="44" x="13" y="1387.0273">Type</text></g><!--class Photos--><g id="elem_Photos"><rect codeLine="55" fill="#F1F1F1" filter="url(#fuvc1r6mdvj5f)" height="68.3125" id="Photos" rx="2.5" ry="2.5" style="stroke:#181818;stroke-width:0.5;" width="67" x="362.5" y="1159.6094"/><text fill="#000000" font-family="sans-serif" font-size="20" lengthAdjust="spacing" textLength="61" x="365.5" y="1185.3711">Photos</text><line style="stroke:#181818;stroke-width:0.5;" x1="363.5" x2="428.5" y1="1194.7656" y2="1194.7656"/><text fill="#000000" font-family="sans-serif" font-size="20" lengthAdjust="spacing" textLength="33" x="368.5" y="1219.5273">URI</text></g><!--class Business--><g id="elem_Business"><rect codeLine="59" fill="#F1F1F1" filter="url(#fuvc1r6mdvj5f)" height="68.3125" id="Business" rx="2.5" ry="2.5" style="stroke:#181818;stroke-width:0.5;" width="158" x="603" y="1327.1094"/><text fill="#000000" font-family="sans-serif" font-size="20" lengthAdjust="spacing" textLength="78" x="643" y="1352.8711">Business</text><line style="stroke:#181818;stroke-width:0.5;" x1="604" x2="760" y1="1362.2656" y2="1362.2656"/><text fill="#000000" font-family="sans-serif" font-size="20" lengthAdjust="spacing" textLength="146" x="609" y="1387.0273">Requested Price</text></g><!--class Comission--><g id="elem_Comission"><rect codeLine="63" fill="#F1F1F1" filter="url(#fuvc1r6mdvj5f)" height="68.3125" id="Comission" rx="2.5" ry="2.5" style="stroke:#181818;stroke-width:0.5;" width="96" x="624" y="1520.1094"/><text fill="#000000" font-family="sans-serif" font-size="20" lengthAdjust="spacing" textLength="90" x="627" y="1545.8711">Comission</text><line style="stroke:#181818;stroke-width:0.5;" x1="625" x2="719" y1="1555.2656" y2="1555.2656"/><text fill="#000000" font-family="sans-serif" font-size="20" lengthAdjust="spacing" textLength="49" x="630" y="1580.0273">Value</text></g><!--class Rent--><g id="elem_Rent"><rect codeLine="67" fill="#F1F1F1" filter="url(#fuvc1r6mdvj5f)" height="68.3125" id="Rent" rx="2.5" ry="2.5" style="stroke:#181818;stroke-width:0.5;" width="194" x="692" y="1713.1094"/><text fill="#000000" font-family="sans-serif" font-size="20" lengthAdjust="spacing" textLength="41" x="768.5" y="1738.8711">Rent</text><line style="stroke:#181818;stroke-width:0.5;" x1="693" x2="885" y1="1748.2656" y2="1748.2656"/><text fill="#000000" font-family="sans-serif" font-size="20" lengthAdjust="spacing" textLength="182" x="698" y="1773.0273">Duration Of Contract</text></g><!--class Address--><g id="elem_Address"><rect codeLine="71" fill="#F1F1F1" filter="url(#fuvc1r6mdvj5f)" height="93.4688" id="Address" rx="2.5" ry="2.5" style="stroke:#181818;stroke-width:0.5;" width="123" x="135.5" y="1507.6094"/><text fill="#000000" font-family="sans-serif" font-size="20" lengthAdjust="spacing" textLength="73" x="160.5" y="1533.3711">Address</text><line style="stroke:#181818;stroke-width:0.5;" x1="136.5" x2="257.5" y1="1542.7656" y2="1542.7656"/><text fill="#000000" font-family="sans-serif" font-size="20" lengthAdjust="spacing" textLength="111" x="141.5" y="1567.5273">Street Name</text><text fill="#000000" font-family="sans-serif" font-size="20" lengthAdjust="spacing" textLength="80" x="141.5" y="1592.6836">Zip Code</text></g><!--class Residence--><g id="elem_Residence"><rect codeLine="76" fill="#F1F1F1" filter="url(#fuvc1r6mdvj5f)" height="118.625" id="Residence" rx="2.5" ry="2.5" style="stroke:#181818;stroke-width:0.5;" width="252" x="294" y="1494.6094"/><text fill="#000000" font-family="sans-serif" font-size="20" lengthAdjust="spacing" textLength="92" x="374" y="1520.3711">Residence</text><line style="stroke:#181818;stroke-width:0.5;" x1="295" x2="545" y1="1529.7656" y2="1529.7656"/><text fill="#000000" font-family="sans-serif" font-size="20" lengthAdjust="spacing" textLength="197" x="300" y="1554.5273">Number Of Bathrooms</text><text fill="#000000" font-family="sans-serif" font-size="20" lengthAdjust="spacing" textLength="192" x="300" y="1579.6836">Number Of Bedrooms</text><text fill="#000000" font-family="sans-serif" font-size="20" lengthAdjust="spacing" textLength="240" x="300" y="1604.8398">Number Of Parking Spaces</text></g><!--class State--><g id="elem_State"><rect codeLine="82" fill="#F1F1F1" filter="url(#fuvc1r6mdvj5f)" height="68.3125" id="State" rx="2.5" ry="2.5" style="stroke:#181818;stroke-width:0.5;" width="116" x="139" y="1713.1094"/><text fill="#000000" font-family="sans-serif" font-size="20" lengthAdjust="spacing" textLength="47" x="173.5" y="1738.8711">State</text><line style="stroke:#181818;stroke-width:0.5;" x1="140" x2="254" y1="1748.2656" y2="1748.2656"/><text fill="#000000" font-family="sans-serif" font-size="20" lengthAdjust="spacing" textLength="104" x="145" y="1773.0273">State Name</text></g><!--class House--><g id="elem_House"><rect codeLine="86" fill="#F1F1F1" filter="url(#fuvc1r6mdvj5f)" height="93.4688" id="House" rx="2.5" ry="2.5" style="stroke:#181818;stroke-width:0.5;" width="147" x="295.5" y="1700.6094"/><text fill="#000000" font-family="sans-serif" font-size="20" lengthAdjust="spacing" textLength="55" x="341.5" y="1726.3711">House</text><line style="stroke:#181818;stroke-width:0.5;" x1="296.5" x2="441.5" y1="1735.7656" y2="1735.7656"/><text fill="#000000" font-family="sans-serif" font-size="20" lengthAdjust="spacing" textLength="88" x="301.5" y="1760.5273">Basement</text><text fill="#000000" font-family="sans-serif" font-size="20" lengthAdjust="spacing" textLength="135" x="301.5" y="1785.6836">Inhabitable Loft</text></g><!--class AvailableEquipment--><g id="elem_AvailableEquipment"><rect codeLine="91" fill="#F1F1F1" filter="url(#fuvc1r6mdvj5f)" height="68.3125" id="AvailableEquipment" rx="2.5" ry="2.5" style="stroke:#181818;stroke-width:0.5;" width="176" x="478" y="1713.1094"/><text fill="#000000" font-family="sans-serif" font-size="20" lengthAdjust="spacing" textLength="170" x="481" y="1738.8711">AvailableEquipment</text><line style="stroke:#181818;stroke-width:0.5;" x1="479" x2="653" y1="1748.2656" y2="1748.2656"/><text fill="#000000" font-family="sans-serif" font-size="20" lengthAdjust="spacing" textLength="92" x="484" y="1773.0273">Equipment</text></g><!--class District--><g id="elem_District"><rect codeLine="95" fill="#F1F1F1" filter="url(#fuvc1r6mdvj5f)" height="68.3125" id="District" rx="2.5" ry="2.5" style="stroke:#181818;stroke-width:0.5;" width="130" x="132" y="1880.6094"/><text fill="#000000" font-family="sans-serif" font-size="20" lengthAdjust="spacing" textLength="61" x="166.5" y="1906.3711">District</text><line style="stroke:#181818;stroke-width:0.5;" x1="133" x2="261" y1="1915.7656" y2="1915.7656"/><text fill="#000000" font-family="sans-serif" font-size="20" lengthAdjust="spacing" textLength="118" x="138" y="1940.5273">District Name</text></g><!--class SunExposure--><g id="elem_SunExposure"><rect codeLine="99" fill="#F1F1F1" filter="url(#fuvc1r6mdvj5f)" height="68.3125" id="SunExposure" rx="2.5" ry="2.5" style="stroke:#181818;stroke-width:0.5;" width="121" x="308.5" y="2035.6094"/><text fill="#000000" font-family="sans-serif" font-size="20" lengthAdjust="spacing" textLength="115" x="311.5" y="2061.3711">SunExposure</text><line style="stroke:#181818;stroke-width:0.5;" x1="309.5" x2="428.5" y1="2070.7656" y2="2070.7656"/><text fill="#000000" font-family="sans-serif" font-size="20" lengthAdjust="spacing" textLength="77" x="314.5" y="2095.5273">Direction</text></g><!--class City--><g id="elem_City"><rect codeLine="103" fill="#F1F1F1" filter="url(#fuvc1r6mdvj5f)" height="68.3125" id="City" rx="2.5" ry="2.5" style="stroke:#181818;stroke-width:0.5;" width="103" x="145.5" y="2035.6094"/><text fill="#000000" font-family="sans-serif" font-size="20" lengthAdjust="spacing" textLength="34" x="180" y="2061.3711">City</text><line style="stroke:#181818;stroke-width:0.5;" x1="146.5" x2="247.5" y1="2070.7656" y2="2070.7656"/><text fill="#000000" font-family="sans-serif" font-size="20" lengthAdjust="spacing" textLength="91" x="151.5" y="2095.5273">City Name</text></g><!--link Agent to Message--><g id="link_Agent_Message"><path codeLine="107" d="M544.1,588.6094 C539.49,621.2194 530.28,686.3894 523.07,737.3794 " fill="none" id="Agent-Message" style="stroke:#181818;stroke-width:1.0;"/><polygon fill="#000000" points="541.8803,671.1087,548.5619,657.4372,539.2499,656.1209,541.8803,671.1087" style="stroke:#000000;stroke-width:1.0;"/><text fill="#000000" font-family="sans-serif" font-size="20" lengthAdjust="spacing" textLength="81" x="556" y="671.3711">responds</text><text fill="#000000" font-family="sans-serif" font-size="20" lengthAdjust="spacing" textLength="11" x="531.0525" y="617.6586">1</text><text fill="#000000" font-family="sans-serif" font-size="20" lengthAdjust="spacing" textLength="8" x="515.6485" y="725.0831">*</text></g><!--link Agent to PublishedAnnouncement--><g id="link_Agent_PublishedAnnouncement"><path codeLine="108" d="M575.6,576.2294 C611.66,588.4194 669,615.1794 669,662.1094 C669,662.1094 669,662.1094 669,957.1094 C669,985.5294 650.7,1011.3994 631.83,1030.5294 " fill="none" id="Agent-PublishedAnnouncement" style="stroke:#181818;stroke-width:1.0;"/><polygon fill="#000000" points="677.9827,817.6269,680.8717,802.6868,671.5383,803.842,677.9827,817.6269" style="stroke:#000000;stroke-width:1.0;"/><text fill="#000000" font-family="sans-serif" font-size="20" lengthAdjust="spacing" textLength="81" x="690" y="817.8711">publishes</text><text fill="#000000" font-family="sans-serif" font-size="20" lengthAdjust="spacing" textLength="11" x="583.4856" y="571.2095">1</text><text fill="#000000" font-family="sans-serif" font-size="20" lengthAdjust="spacing" textLength="8" x="630.1602" y="1018.2717">*</text></g><!--link Address to State--><g id="link_Address_State"><path codeLine="110" d="M197,1600.8594 C197,1635.3994 197,1681.9894 197,1712.9894 " fill="none" id="Address-State" style="stroke:#181818;stroke-width:1.0;"/><polygon fill="#000000" points="205,1649.1875,200.2977,1663.6596,209.7023,1663.6596,205,1649.1875" style="stroke:#000000;stroke-width:1.0;"/><text fill="#000000" font-family="sans-serif" font-size="20" lengthAdjust="spacing" textLength="31" x="218" y="1665.3711">has</text><text fill="#000000" font-family="sans-serif" font-size="20" lengthAdjust="spacing" textLength="8" x="188.4375" y="1629.9312">*</text><text fill="#000000" font-family="sans-serif" font-size="20" lengthAdjust="spacing" textLength="11" x="185.0547" y="1700.7249">1</text></g><!--link State to District--><g id="link_State_District"><path codeLine="112" d="M197,1781.1994 C197,1810.0694 197,1851.7294 197,1880.5694 " fill="none" id="State-District" style="stroke:#181818;stroke-width:1.0;"/><polygon fill="#000000" points="205,1829.1875,200.2977,1843.6596,209.7023,1843.6596,205,1829.1875" style="stroke:#000000;stroke-width:1.0;"/><text fill="#000000" font-family="sans-serif" font-size="20" lengthAdjust="spacing" textLength="31" x="218" y="1845.3711">has</text><text fill="#000000" font-family="sans-serif" font-size="20" lengthAdjust="spacing" textLength="8" x="188.2875" y="1810.246">*</text><text fill="#000000" font-family="sans-serif" font-size="20" lengthAdjust="spacing" textLength="11" x="185.0547" y="1868.3186">1</text></g><!--link District to City--><g id="link_District_City"><path codeLine="114" d="M197,1948.8094 C197,1974.4694 197,2009.8294 197,2035.4794 " fill="none" id="District-City" style="stroke:#181818;stroke-width:1.0;"/><polygon fill="#000000" points="205,1984.1875,200.2977,1998.6596,209.7023,1998.6596,205,1984.1875" style="stroke:#000000;stroke-width:1.0;"/><text fill="#000000" font-family="sans-serif" font-size="20" lengthAdjust="spacing" textLength="31" x="218" y="2000.3711">has</text><text fill="#000000" font-family="sans-serif" font-size="20" lengthAdjust="spacing" textLength="8" x="188.3125" y="1977.5842">*</text><text fill="#000000" font-family="sans-serif" font-size="20" lengthAdjust="spacing" textLength="11" x="185.0547" y="2023.2131">1</text></g><!--link PublishedAnnouncement to Property--><g id="link_PublishedAnnouncement_Property"><path codeLine="116" d="M551.41,1099.0094 C533.67,1115.6894 513.7,1137.0994 500,1159.6094 C469.53,1209.6794 486.19,1233.2294 458,1284.6094 C452.41,1294.7994 445.4,1304.9894 438.14,1314.4294 " fill="none" id="PublishedAnnouncement-Property" style="stroke:#181818;stroke-width:1.0;"/><polygon fill="#000000" points="504.2768,1200.7683,515.1741,1190.1474,506.8501,1185.7706,504.2768,1200.7683" style="stroke:#000000;stroke-width:1.0;"/><text fill="#000000" font-family="sans-serif" font-size="20" lengthAdjust="spacing" textLength="90" x="521" y="1201.8711">advertises</text><text fill="#000000" font-family="sans-serif" font-size="20" lengthAdjust="spacing" textLength="8" x="535.918" y="1127.8186">*</text><text fill="#000000" font-family="sans-serif" font-size="20" lengthAdjust="spacing" textLength="8" x="435.1307" y="1302.2178">*</text></g><!--link PublishedAnnouncement to Business--><g id="link_PublishedAnnouncement_Business"><path codeLine="117" d="M601.26,1098.8194 C618.79,1155.5294 654.28,1270.3894 671.78,1327.0194 " fill="none" id="PublishedAnnouncement-Business" style="stroke:#181818;stroke-width:1.0;"/><polygon fill="#000000" points="646.638,1186.0441,646.4182,1201.2595,655.4036,1198.4828,646.638,1186.0441" style="stroke:#000000;stroke-width:1.0;"/><text fill="#000000" font-family="sans-serif" font-size="20" lengthAdjust="spacing" textLength="31" x="662" y="1201.8711">has</text><text fill="#000000" font-family="sans-serif" font-size="20" lengthAdjust="spacing" textLength="11" x="591.0781" y="1127.5959">1</text><text fill="#000000" font-family="sans-serif" font-size="20" lengthAdjust="spacing" textLength="11" x="658.0781" y="1314.76">1</text></g><!--link Message to PublishedAnnouncement--><g id="link_Message_PublishedAnnouncement"><path codeLine="119" d="M521.98,881.7794 C526.64,909.6294 533.42,941.5694 543,969.6094 C550.17,990.5894 561.29,1012.7394 571.02,1030.2594 " fill="none" id="Message-PublishedAnnouncement" style="stroke:#181818;stroke-width:1.0;"/><polygon fill="#000000" points="548.4911,948.5911,548.5647,963.8078,557.4948,960.8584,548.4911,948.5911" style="stroke:#000000;stroke-width:1.0;"/><text fill="#000000" font-family="sans-serif" font-size="20" lengthAdjust="spacing" textLength="78" x="564" y="964.3711">can have</text><text fill="#000000" font-family="sans-serif" font-size="20" lengthAdjust="spacing" textLength="8" x="514.4235" y="910.0987">*</text><text fill="#000000" font-family="sans-serif" font-size="20" lengthAdjust="spacing" textLength="11" x="555.7999" y="1018.2486">1</text></g><!--reverse link Business to Rent--><g id="link_Business_Rent"><path codeLine="121" d="M746.72,1409.2094 C754.76,1417.7794 761.92,1427.2994 767,1437.6094 C811.98,1528.8794 802.42,1654.0694 794.42,1712.9494 " fill="none" id="Business-backto-Rent" style="stroke:#181818;stroke-width:1.0;"/><polygon fill="none" points="741.76,1414.1594,732.07,1395.3094,751.4,1404.0094,741.76,1414.1594" style="stroke:#181818;stroke-width:1.0;"/></g><!--link Business to Comission--><g id="link_Business_Comission"><path codeLine="122" d="M675.01,1395.3994 C672.59,1408.4894 670.19,1423.6994 669,1437.6094 C666.63,1465.2894 667.71,1496.8294 669.19,1519.9394 " fill="none" id="Business-Comission" style="stroke:#181818;stroke-width:1.0;"/><polygon fill="#000000" points="676.6266,1459.1788,681.9993,1444.9419,672.605,1444.5029,676.6266,1459.1788" style="stroke:#000000;stroke-width:1.0;"/><text fill="#000000" font-family="sans-serif" font-size="20" lengthAdjust="spacing" textLength="72" x="690" y="1459.3711">contains</text><text fill="#000000" font-family="sans-serif" font-size="20" lengthAdjust="spacing" textLength="11" x="661.8633" y="1424.1897">1</text><text fill="#000000" font-family="sans-serif" font-size="20" lengthAdjust="spacing" textLength="11" x="656.7617" y="1507.6663">1</text></g><!--link TypeOfProperty to Property--><g id="link_TypeOfProperty_Property"><path codeLine="124" d="M155.09,1361.1094 C190.57,1361.1094 234,1361.1094 274.23,1361.1094 " fill="none" id="TypeOfProperty-Property" style="stroke:#181818;stroke-width:1.0;"/><polygon fill="#000000" points="188.25,1344.6875,173.7779,1339.9852,173.7779,1349.3898,188.25,1344.6875" style="stroke:#000000;stroke-width:1.0;"/><text fill="#000000" font-family="sans-serif" font-size="20" lengthAdjust="spacing" textLength="63" x="193.25" y="1352.8711">defines</text><text fill="#000000" font-family="sans-serif" font-size="20" lengthAdjust="spacing" textLength="11" x="162.9246" y="1355.6329">1</text><text fill="#000000" font-family="sans-serif" font-size="20" lengthAdjust="spacing" textLength="11" x="255.4135" y="1356.0999">1</text></g><!--link Photos to Property--><g id="link_Photos_Property"><path codeLine="125" d="M396.2,1227.6994 C396.35,1252.6094 396.56,1287.0294 396.72,1314.5394 " fill="none" id="Photos-Property" style="stroke:#181818;stroke-width:1.0;"/><polygon fill="#000000" points="404.9521,1263.1876,400.3366,1277.6877,409.741,1277.6314,404.9521,1263.1876" style="stroke:#000000;stroke-width:1.0;"/><text fill="#000000" font-family="sans-serif" font-size="20" lengthAdjust="spacing" textLength="31" x="418" y="1279.3711">has</text><text fill="#000000" font-family="sans-serif" font-size="20" lengthAdjust="spacing" textLength="45" x="347.2278" y="1256.746">1..30</text><text fill="#000000" font-family="sans-serif" font-size="20" lengthAdjust="spacing" textLength="11" x="384.9433" y="1302.3426">1</text></g><!--link Property to Address--><g id="link_Property_Address"><path codeLine="126" d="M349.35,1407.6194 C317.81,1437.7394 276.59,1477.0994 244.98,1507.2894 " fill="none" id="Property-Address" style="stroke:#181818;stroke-width:1.0;"/><polygon fill="#000000" points="317.2144,1456.7126,330.9282,1450.1183,324.4331,1443.3169,317.2144,1456.7126" style="stroke:#000000;stroke-width:1.0;"/><text fill="#000000" font-family="sans-serif" font-size="20" lengthAdjust="spacing" textLength="31" x="336" y="1459.3711">has</text><text fill="#000000" font-family="sans-serif" font-size="20" lengthAdjust="spacing" textLength="11" x="330.8758" y="1436.6574">1</text><text fill="#000000" font-family="sans-serif" font-size="20" lengthAdjust="spacing" textLength="11" x="239.6882" y="1495.059">1</text></g><!--reverse link Property to Residence--><g id="link_Property_Residence"><path codeLine="127" d="M404.9,1427.7294 C407.51,1449.3594 410.38,1473.2594 412.92,1494.3394 " fill="none" id="Property-backto-Residence" style="stroke:#181818;stroke-width:1.0;"/><polygon fill="none" points="397.95,1428.5494,402.51,1407.8594,411.85,1426.8794,397.95,1428.5494" style="stroke:#181818;stroke-width:1.0;"/></g><!--reverse link Residence to House--><g id="link_Residence_House"><path codeLine="129" d="M399.13,1633.2694 C393.04,1656.0794 386.58,1680.2594 381.22,1700.3494 " fill="none" id="Residence-backto-House" style="stroke:#181818;stroke-width:1.0;"/><polygon fill="none" points="392.43,1631.2294,404.35,1613.7094,405.96,1634.8394,392.43,1631.2294" style="stroke:#181818;stroke-width:1.0;"/></g><!--link Residence to AvailableEquipment--><g id="link_Residence_AvailableEquipment"><path codeLine="130" d="M464.8,1613.7094 C489.69,1646.2794 519.76,1685.6194 540.62,1712.9094 " fill="none" id="Residence-AvailableEquipment" style="stroke:#181818;stroke-width:1.0;"/><polygon fill="#000000" points="518.858,1663.5436,513.8058,1649.1899,506.3338,1654.9008,518.858,1663.5436" style="stroke:#000000;stroke-width:1.0;"/><text fill="#000000" font-family="sans-serif" font-size="20" lengthAdjust="spacing" textLength="72" x="527" y="1665.3711">contains</text><text fill="#000000" font-family="sans-serif" font-size="20" lengthAdjust="spacing" textLength="11" x="457.8528" y="1641.9338">1</text><text fill="#000000" font-family="sans-serif" font-size="20" lengthAdjust="spacing" textLength="8" x="527.5703" y="1700.6311">*</text></g><!--link House to SunExposure--><g id="link_House_SunExposure"><path codeLine="132" d="M369,1793.6894 C369,1859.0194 369,1977.7294 369,2035.3994 " fill="none" id="House-SunExposure" style="stroke:#181818;stroke-width:1.0;"/><polygon fill="#000000" points="377,1922.6875,381.7023,1908.2154,372.2977,1908.2154,377,1922.6875" style="stroke:#000000;stroke-width:1.0;"/><text fill="#000000" font-family="sans-serif" font-size="20" lengthAdjust="spacing" textLength="72" x="390" y="1922.8711">contains</text><text fill="#000000" font-family="sans-serif" font-size="20" lengthAdjust="spacing" textLength="8" x="360.4375" y="1822.7372">*</text><text fill="#000000" font-family="sans-serif" font-size="20" lengthAdjust="spacing" textLength="11" x="357.0547" y="2023.1194">1</text></g><!--link Employee to Agent--><g id="link_Employee_Agent"><path codeLine="134" d="M544.3,380.6194 C544.87,419.9994 546.12,505.8194 546.7,545.3794 " fill="none" id="Employee-Agent" style="stroke:#181818;stroke-width:1.0;"/></g><!--link Employee to Role--><g id="link_Employee_Role"><path codeLine="135" d="M590.68,359.1094 C619.42,359.1094 655.02,359.1094 677.87,359.1094 " fill="none" id="Employee-Role" style="stroke:#181818;stroke-width:1.0;"/><polygon fill="#000000" points="623.75,342.6875,609.2779,337.9852,609.2779,347.3898,623.75,342.6875" style="stroke:#000000;stroke-width:1.0;"/><text fill="#000000" font-family="sans-serif" font-size="20" lengthAdjust="spacing" textLength="31" x="628.75" y="350.8711">has</text><text fill="#000000" font-family="sans-serif" font-size="20" lengthAdjust="spacing" textLength="8" x="598.4404" y="352.957">*</text><text fill="#000000" font-family="sans-serif" font-size="20" lengthAdjust="spacing" textLength="11" x="659.1757" y="351.5117">1</text></g><!--link Client to Message--><g id="link_Client_Message"><path codeLine="137" d="M426.81,453.8694 C425.98,470.3394 425,493.9394 425,514.6094 C425,514.6094 425,514.6094 425,664.1094 C425,695.2494 440.09,725.3694 457.77,749.9794 " fill="none" id="Client-Message" style="stroke:#181818;stroke-width:1.0;"/><text fill="#000000" font-family="sans-serif" font-size="20" lengthAdjust="spacing" textLength="56" x="426" y="575.3711">leaves</text><text fill="#000000" font-family="sans-serif" font-size="20" lengthAdjust="spacing" textLength="11" x="414.2629" y="482.5537">1</text><text fill="#000000" font-family="sans-serif" font-size="20" lengthAdjust="spacing" textLength="31" x="419.0339" y="737.8724">1..*</text></g><!--reverse link Person to Client--><g id="link_Person_Client"><path codeLine="139" d="M458.09,234.8494 C448.33,298.5194 436.68,374.5094 431.18,410.3994 " fill="none" id="Person-backto-Client" style="stroke:#181818;stroke-width:1.0;"/><polygon fill="none" points="451.24,233.3794,461.19,214.6794,465.07,235.5094,451.24,233.3794" style="stroke:#181818;stroke-width:1.0;"/></g><!--reverse link Person to Employee--><g id="link_Person_Employee"><path codeLine="140" d="M505.7,233.9094 C517.73,272.9294 530.29,313.6494 537.62,337.4094 " fill="none" id="Person-backto-Employee" style="stroke:#181818;stroke-width:1.0;"/><polygon fill="none" points="498.97,235.8394,499.77,214.6694,512.35,231.7194,498.97,235.8394" style="stroke:#181818;stroke-width:1.0;"/></g><!--SRC=[TLLBRzim3BxhLmWv5aYHRi0EHb4WJLAimDe6SRl3RehDn49aoTMZQ_RuxwCaouyiFLaX-P7Ynu-AEN3PCCrgeOe3bBI47NF2tYbfS_uBwASP8PPR0VGbdrrzeLEwL3NZaZwe4WGX9k5fhQGgAgrge5Ox67WQLXpO7d9xn3GQ2ilaNWm3JCLAzPFB_Ico4CoOkRMQRvs5-qB9SAaPgNW9jE2wm3pXN8EjL6a82H0wtuEqz3SXVvDb8VYfwG6CmNkXRSaia7l9BMU2FlCQo4gMyR04KsZUMAvaZrpLZL17W56wZH9ZmngqKH9DZyndHDe4MLTA0drqzHOqUMRlwRX6GAEqJR_x96uhkAcWd4kfd2oWZcqiS4AQ5PO-7niOX6lLWBP7Z9XhO6J93T9T0Bt3oT05Hyy24mmh-0HFkm7m96Ebh39eVjdSzzPRPxX4_j2-WLS7ng9urfeN0-H2rTmO7YZupeGRk3QnYQNJp3DBdtOqDTG7pSjInnAvrG38ZUVn1symjXmbCoW1toHI7UZp-MwPHJMgsWnjK9wQramVlF9oL2cOFcbkKHEXjF-6oftlgtB6-swP2UD0wLHiootReWA-gTsmXpUSkhUlNXrlsjbrvpxEpmdP2wIauxXexkJglL76wQ1OxXTf9CemN1I6_oHet8F9rOHEfrCwkPXqeizm4r5niZJqvapOUTbbj6dj7aNIW3p0un0VwSfenGoz9Yrx0t_NN1VIMGPHeOSkulnTOdXxsoJUZBBo3K_SX1j-W4nzuhVJSLSj4TJbl_g0ZOmMJ2Bg3JoiItJznwEym7jRh1XRwvO2yIXvV4i3brqB8LR0piRua-tC_0ljasBDCSGr7d1v-NasIJiRUxev2Onvq-p-Y_7txrUAa7wxWYTeVs1CAP6jCreVznZtPaZiKDJZsEw9zQ51dxqfPD1yNxKSXPStDT8F4Ccu677P_WTaL01E3VyisXSwZYnwnxPKalm3]--></g></svg>