<?xml version="1.0" encoding="UTF-8" standalone="no"?><svg xmlns="http://www.w3.org/2000/svg" xmlns:xlink="http://www.w3.org/1999/xlink" contentStyleType="text/css" height="1391px" preserveAspectRatio="none" style="width:1338px;height:1391px;background:#FFFFFF;" version="1.1" viewBox="0 0 1338 1391" width="1338px" zoomAndPan="magnify"><defs/><g><text fill="#000000" font-family="sans-serif" font-size="14" font-weight="bold" lengthAdjust="spacing" textLength="156" x="584.25" y="24.5332">US010 - Domain Model</text><!--class Address--><g id="elem_Address"><rect codeLine="14" fill="#F1F1F1" height="93.4688" id="Address" rx="2.5" ry="2.5" style="stroke:#181818;stroke-width:0.5;" width="92" x="627" y="688.6094"/><text fill="#000000" font-family="sans-serif" font-size="20" lengthAdjust="spacing" textLength="73" x="636.5" y="714.3711">Address</text><line style="stroke:#181818;stroke-width:0.5;" x1="628" x2="718" y1="723.7656" y2="723.7656"/><text fill="#000000" font-family="sans-serif" font-size="20" lengthAdjust="spacing" textLength="54" x="633" y="748.5273">Street</text><text fill="#000000" font-family="sans-serif" font-size="20" lengthAdjust="spacing" textLength="80" x="633" y="773.6836">Zip Code</text></g><!--class AvailableEquipment--><g id="elem_AvailableEquipment"><rect codeLine="19" fill="#F1F1F1" height="68.3125" id="AvailableEquipment" rx="2.5" ry="2.5" style="stroke:#181818;stroke-width:0.5;" width="176" x="358" y="1149.1094"/><text fill="#000000" font-family="sans-serif" font-size="20" lengthAdjust="spacing" textLength="170" x="361" y="1174.8711">AvailableEquipment</text><line style="stroke:#181818;stroke-width:0.5;" x1="359" x2="533" y1="1184.2656" y2="1184.2656"/><text fill="#000000" font-family="sans-serif" font-size="20" lengthAdjust="spacing" textLength="92" x="364" y="1209.0273">Equipment</text></g><!--class Business--><g id="elem_Business"><rect codeLine="24" fill="#F1F1F1" height="68.3125" id="Business" rx="2.5" ry="2.5" style="stroke:#181818;stroke-width:0.5;" width="105" x="105.5" y="430.6094"/><text fill="#000000" font-family="sans-serif" font-size="20" lengthAdjust="spacing" textLength="78" x="119" y="456.3711">Business</text><line style="stroke:#181818;stroke-width:0.5;" x1="106.5" x2="209.5" y1="465.7656" y2="465.7656"/><text fill="#000000" font-family="sans-serif" font-size="20" lengthAdjust="spacing" textLength="93" x="111.5" y="490.5273">Total price</text></g><!--class City--><g id="elem_City"><rect codeLine="29" fill="#F1F1F1" height="68.3125" id="City" rx="2.5" ry="2.5" style="stroke:#181818;stroke-width:0.5;" width="103" x="1228.5" y="701.1094"/><text fill="#000000" font-family="sans-serif" font-size="20" lengthAdjust="spacing" textLength="34" x="1263" y="726.8711">City</text><line style="stroke:#181818;stroke-width:0.5;" x1="1229.5" x2="1330.5" y1="736.2656" y2="736.2656"/><text fill="#000000" font-family="sans-serif" font-size="20" lengthAdjust="spacing" textLength="91" x="1234.5" y="761.0273">City Name</text></g><!--class Comission--><g id="elem_Comission"><rect codeLine="33" fill="#F1F1F1" height="68.3125" id="Comission" rx="2.5" ry="2.5" style="stroke:#181818;stroke-width:0.5;" width="96" x="110" y="96.1094"/><text fill="#000000" font-family="sans-serif" font-size="20" lengthAdjust="spacing" textLength="90" x="113" y="121.8711">Comission</text><line style="stroke:#181818;stroke-width:0.5;" x1="111" x2="205" y1="131.2656" y2="131.2656"/><text fill="#000000" font-family="sans-serif" font-size="20" lengthAdjust="spacing" textLength="49" x="116" y="156.0273">Value</text></g><!--class District--><g id="elem_District"><rect codeLine="43" fill="#F1F1F1" height="68.3125" id="District" rx="2.5" ry="2.5" style="stroke:#181818;stroke-width:0.5;" width="130" x="1011" y="701.1094"/><text fill="#000000" font-family="sans-serif" font-size="20" lengthAdjust="spacing" textLength="61" x="1045.5" y="726.8711">District</text><line style="stroke:#181818;stroke-width:0.5;" x1="1012" x2="1140" y1="736.2656" y2="736.2656"/><text fill="#000000" font-family="sans-serif" font-size="20" lengthAdjust="spacing" textLength="118" x="1017" y="761.0273">District Name</text></g><!--class House--><g id="elem_House"><rect codeLine="48" fill="#F1F1F1" height="93.4688" id="House" rx="2.5" ry="2.5" style="stroke:#181818;stroke-width:0.5;" width="147" x="569.5" y="1136.6094"/><text fill="#000000" font-family="sans-serif" font-size="20" lengthAdjust="spacing" textLength="55" x="615.5" y="1162.3711">House</text><line style="stroke:#181818;stroke-width:0.5;" x1="570.5" x2="715.5" y1="1171.7656" y2="1171.7656"/><text fill="#000000" font-family="sans-serif" font-size="20" lengthAdjust="spacing" textLength="88" x="575.5" y="1196.5273">Basement</text><text fill="#000000" font-family="sans-serif" font-size="20" lengthAdjust="spacing" textLength="135" x="575.5" y="1221.6836">Inhabitable Loft</text></g><!--class Person--><g id="elem_Person"><rect codeLine="53" fill="#F1F1F1" height="168.9375" id="Person" rx="2.5" ry="2.5" style="stroke:#181818;stroke-width:0.5;" width="165" x="523.5" y="45.6094"/><text fill="#000000" font-family="sans-serif" font-size="20" lengthAdjust="spacing" textLength="62" x="575" y="71.3711">Person</text><line style="stroke:#181818;stroke-width:0.5;" x1="524.5" x2="687.5" y1="80.7656" y2="80.7656"/><text fill="#000000" font-family="sans-serif" font-size="20" lengthAdjust="spacing" textLength="51" x="529.5" y="105.5273">Name</text><text fill="#000000" font-family="sans-serif" font-size="20" lengthAdjust="spacing" textLength="48" x="529.5" y="130.6836">Email</text><text fill="#000000" font-family="sans-serif" font-size="20" lengthAdjust="spacing" textLength="129" x="529.5" y="155.8398">Phone Number</text><text fill="#000000" font-family="sans-serif" font-size="20" lengthAdjust="spacing" textLength="106" x="529.5" y="180.9961">Tax Number</text><text fill="#000000" font-family="sans-serif" font-size="20" lengthAdjust="spacing" textLength="153" x="529.5" y="206.1523">Passport Number</text></g><!--class Photos--><g id="elem_Photos"><rect codeLine="61" fill="#F1F1F1" height="68.3125" id="Photos" rx="2.5" ry="2.5" style="stroke:#181818;stroke-width:0.5;" width="67" x="306.5" y="894.1094"/><text fill="#000000" font-family="sans-serif" font-size="20" lengthAdjust="spacing" textLength="61" x="309.5" y="919.8711">Photos</text><line style="stroke:#181818;stroke-width:0.5;" x1="307.5" x2="372.5" y1="929.2656" y2="929.2656"/><text fill="#000000" font-family="sans-serif" font-size="20" lengthAdjust="spacing" textLength="33" x="312.5" y="954.0273">URI</text></g><!--class Property--><g id="elem_Property"><rect codeLine="65" fill="#F1F1F1" height="93.4688" id="Property" rx="2.5" ry="2.5" style="stroke:#181818;stroke-width:0.5;" width="264" x="275" y="688.6094"/><text fill="#000000" font-family="sans-serif" font-size="20" lengthAdjust="spacing" textLength="76" x="369" y="714.3711">Property</text><line style="stroke:#181818;stroke-width:0.5;" x1="276" x2="538" y1="723.7656" y2="723.7656"/><text fill="#000000" font-family="sans-serif" font-size="20" lengthAdjust="spacing" textLength="42" x="281" y="748.5273">Area</text><text fill="#000000" font-family="sans-serif" font-size="20" lengthAdjust="spacing" textLength="252" x="281" y="773.6836">Distance from the city center</text></g><!--class PublishedAnnouncement--><g id="elem_PublishedAnnouncement"><rect codeLine="70" fill="#F1F1F1" height="68.3125" id="PublishedAnnouncement" rx="2.5" ry="2.5" style="stroke:#181818;stroke-width:0.5;" width="218" x="298" y="430.6094"/><text fill="#000000" font-family="sans-serif" font-size="20" lengthAdjust="spacing" textLength="212" x="301" y="456.3711">PublishedAnnouncement</text><line style="stroke:#181818;stroke-width:0.5;" x1="299" x2="515" y1="465.7656" y2="465.7656"/><text fill="#000000" font-family="sans-serif" font-size="20" lengthAdjust="spacing" textLength="125" x="304" y="490.5273">Contract Type</text></g><!--class Rent--><g id="elem_Rent"><rect codeLine="76" fill="#F1F1F1" height="68.3125" id="Rent" rx="2.5" ry="2.5" style="stroke:#181818;stroke-width:0.5;" width="185" x="65.5" y="559.6094"/><text fill="#000000" font-family="sans-serif" font-size="20" lengthAdjust="spacing" textLength="41" x="137.5" y="585.3711">Rent</text><line style="stroke:#181818;stroke-width:0.5;" x1="66.5" x2="249.5" y1="594.7656" y2="594.7656"/><text fill="#000000" font-family="sans-serif" font-size="20" lengthAdjust="spacing" textLength="173" x="71.5" y="619.5273">Duration of contract</text></g><!--class Residence--><g id="elem_Residence"><rect codeLine="81" fill="#F1F1F1" height="118.625" id="Residence" rx="2.5" ry="2.5" style="stroke:#181818;stroke-width:0.5;" width="247" x="408.5" y="868.6094"/><text fill="#000000" font-family="sans-serif" font-size="20" lengthAdjust="spacing" textLength="92" x="486" y="894.3711">Residence</text><line style="stroke:#181818;stroke-width:0.5;" x1="409.5" x2="654.5" y1="903.7656" y2="903.7656"/><text fill="#000000" font-family="sans-serif" font-size="20" lengthAdjust="spacing" textLength="187" x="414.5" y="928.5273">Number of Bedrooms</text><text fill="#000000" font-family="sans-serif" font-size="20" lengthAdjust="spacing" textLength="192" x="414.5" y="953.6836">Number of Bathrooms</text><text fill="#000000" font-family="sans-serif" font-size="20" lengthAdjust="spacing" textLength="235" x="414.5" y="978.8398">Number of Parking Spaces</text></g><!--class State--><g id="elem_State"><rect codeLine="88" fill="#F1F1F1" height="68.3125" id="State" rx="2.5" ry="2.5" style="stroke:#181818;stroke-width:0.5;" width="116" x="807" y="701.1094"/><text fill="#000000" font-family="sans-serif" font-size="20" lengthAdjust="spacing" textLength="47" x="841.5" y="726.8711">State</text><line style="stroke:#181818;stroke-width:0.5;" x1="808" x2="922" y1="736.2656" y2="736.2656"/><text fill="#000000" font-family="sans-serif" font-size="20" lengthAdjust="spacing" textLength="104" x="813" y="761.0273">State Name</text></g><!--class SunExposure--><g id="elem_SunExposure"><rect codeLine="92" fill="#F1F1F1" height="68.3125" id="SunExposure" rx="2.5" ry="2.5" style="stroke:#181818;stroke-width:0.5;" width="121" x="582.5" y="1316.6094"/><text fill="#000000" font-family="sans-serif" font-size="20" lengthAdjust="spacing" textLength="115" x="585.5" y="1342.3711">SunExposure</text><line style="stroke:#181818;stroke-width:0.5;" x1="583.5" x2="702.5" y1="1351.7656" y2="1351.7656"/><text fill="#000000" font-family="sans-serif" font-size="20" lengthAdjust="spacing" textLength="77" x="588.5" y="1376.5273">Direction</text></g><!--class TypeOfProperty--><g id="elem_TypeOfProperty"><rect codeLine="96" fill="#F1F1F1" height="68.3125" id="TypeOfProperty" rx="2.5" ry="2.5" style="stroke:#181818;stroke-width:0.5;" width="148" x="7" y="701.1094"/><text fill="#000000" font-family="sans-serif" font-size="20" lengthAdjust="spacing" textLength="142" x="10" y="726.8711">TypeOfProperty</text><line style="stroke:#181818;stroke-width:0.5;" x1="8" x2="154" y1="736.2656" y2="736.2656"/><text fill="#000000" font-family="sans-serif" font-size="20" lengthAdjust="spacing" textLength="44" x="13" y="761.0273">Type</text></g><!--class Client--><g id="elem_Client"><rect codeLine="100" fill="#F1F1F1" height="43.1563" id="Client" rx="2.5" ry="2.5" style="stroke:#181818;stroke-width:0.5;" width="55" x="578.5" y="288.1094"/><text fill="#000000" font-family="sans-serif" font-size="20" lengthAdjust="spacing" textLength="49" x="581.5" y="313.8711">Client</text><line style="stroke:#181818;stroke-width:0.5;" x1="579.5" x2="632.5" y1="323.2656" y2="323.2656"/></g><!--class Offer--><g id="elem_Offer"><rect codeLine="103" fill="#F1F1F1" height="68.3125" id="Offer" rx="2.5" ry="2.5" style="stroke:#181818;stroke-width:0.5;" width="113" x="350.5" y="275.6094"/><text fill="#000000" font-family="sans-serif" font-size="20" lengthAdjust="spacing" textLength="46" x="384" y="301.3711">Offer</text><line style="stroke:#181818;stroke-width:0.5;" x1="351.5" x2="462.5" y1="310.7656" y2="310.7656"/><text fill="#000000" font-family="sans-serif" font-size="20" lengthAdjust="spacing" textLength="101" x="356.5" y="335.5273">Offer Value</text></g><!--reverse link Business to Rent--><g id="link_Business_Rent"><path codeLine="109" d="M158,518.6694 C158,532.4294 158,546.8694 158,559.2994 " fill="none" id="Business-backto-Rent" style="stroke:#181818;stroke-width:1.0;"/><polygon fill="none" points="151,518.6494,158,498.6494,165,518.6494,151,518.6494" style="stroke:#181818;stroke-width:1.0;"/></g><!--link Comission to Business--><g id="link_Comission_Business"><path codeLine="111" d="M158,164.2094 C158,227.7794 158,366.2994 158,430.1494 " fill="none" id="Comission-Business" style="stroke:#181818;stroke-width:1.0;"/><polygon fill="#000000" points="166,301.6875,161.2977,316.1596,170.7023,316.1596,166,301.6875" style="stroke:#000000;stroke-width:1.0;"/><text fill="#000000" font-family="sans-serif" font-size="20" lengthAdjust="spacing" textLength="72" x="179" y="317.8711">contains</text><text fill="#000000" font-family="sans-serif" font-size="20" lengthAdjust="spacing" textLength="11" x="146.0203" y="193.2578">1</text><text fill="#000000" font-family="sans-serif" font-size="20" lengthAdjust="spacing" textLength="11" x="146.0891" y="418.1204">1</text></g><!--link District to City--><g id="link_District_City"><path codeLine="114" d="M1141.11,735.1094 C1169.33,735.1094 1201.9,735.1094 1228.4,735.1094 " fill="none" id="District-City" style="stroke:#181818;stroke-width:1.0;"/><polygon fill="#000000" points="1174.25,718.6875,1159.7779,713.9852,1159.7779,723.3898,1174.25,718.6875" style="stroke:#000000;stroke-width:1.0;"/><text fill="#000000" font-family="sans-serif" font-size="20" lengthAdjust="spacing" textLength="31" x="1179.25" y="726.8711">has</text><text fill="#000000" font-family="sans-serif" font-size="20" lengthAdjust="spacing" textLength="11" x="1148.833" y="729.4954">1</text><text fill="#000000" font-family="sans-serif" font-size="20" lengthAdjust="spacing" textLength="8" x="1212.5813" y="729.1023">*</text></g><!--link House to SunExposure--><g id="link_House_SunExposure"><path codeLine="116" d="M643,1229.7694 C643,1257.2294 643,1291.5594 643,1316.4294 " fill="none" id="House-SunExposure" style="stroke:#181818;stroke-width:1.0;"/><polygon fill="#000000" points="651,1281.1875,655.7023,1266.7154,646.2977,1266.7154,651,1281.1875" style="stroke:#000000;stroke-width:1.0;"/><text fill="#000000" font-family="sans-serif" font-size="20" lengthAdjust="spacing" textLength="72" x="664" y="1281.3711">contains</text><text fill="#000000" font-family="sans-serif" font-size="20" lengthAdjust="spacing" textLength="11" x="631.2266" y="1258.8285">1</text><text fill="#000000" font-family="sans-serif" font-size="20" lengthAdjust="spacing" textLength="11" x="631.0547" y="1304.1545">1</text></g><!--link Offer to PublishedAnnouncement--><g id="link_Offer_PublishedAnnouncement"><path codeLine="118" d="M407,343.8094 C407,369.4694 407,404.8294 407,430.4794 " fill="none" id="Offer-PublishedAnnouncement" style="stroke:#181818;stroke-width:1.0;"/><polygon fill="#000000" points="415,379.1875,410.2977,393.6596,419.7023,393.6596,415,379.1875" style="stroke:#000000;stroke-width:1.0;"/><text fill="#000000" font-family="sans-serif" font-size="20" lengthAdjust="spacing" textLength="31" x="428" y="395.3711">has</text><text fill="#000000" font-family="sans-serif" font-size="20" lengthAdjust="spacing" textLength="8" x="398.3125" y="372.5842">*</text><text fill="#000000" font-family="sans-serif" font-size="20" lengthAdjust="spacing" textLength="11" x="395.0547" y="418.2131">1</text></g><!--reverse link Person to Client--><g id="link_Person_Client"><path codeLine="120" d="M606,234.6794 C606,254.9194 606,274.1094 606,287.8694 " fill="none" id="Person-backto-Client" style="stroke:#181818;stroke-width:1.0;"/><polygon fill="none" points="599,234.6594,606,214.6594,613,234.6594,599,234.6594" style="stroke:#181818;stroke-width:1.0;"/></g><!--reverse link Property to Residence--><g id="link_Property_Residence"><path codeLine="121" d="M447.99,798.7394 C462.64,821.1394 479.1,846.2794 493.54,868.3394 " fill="none" id="Property-backto-Residence" style="stroke:#181818;stroke-width:1.0;"/><polygon fill="none" points="442.04,802.4294,436.94,781.8594,453.75,794.7594,442.04,802.4294" style="stroke:#181818;stroke-width:1.0;"/></g><!--link Property to Address--><g id="link_Property_Address"><path codeLine="122" d="M539.22,735.1094 C570.77,735.1094 602.39,735.1094 626.95,735.1094 " fill="none" id="Property-Address" style="stroke:#181818;stroke-width:1.0;"/><polygon fill="#000000" points="572.5,718.6875,558.0279,713.9852,558.0279,723.3898,572.5,718.6875" style="stroke:#000000;stroke-width:1.0;"/><text fill="#000000" font-family="sans-serif" font-size="20" lengthAdjust="spacing" textLength="31" x="577.5" y="726.8711">has</text><text fill="#000000" font-family="sans-serif" font-size="20" lengthAdjust="spacing" textLength="8" x="547.0952" y="730.1394">*</text><text fill="#000000" font-family="sans-serif" font-size="20" lengthAdjust="spacing" textLength="11" x="608.0564" y="728.9331">1</text></g><!--link Property to Photos--><g id="link_Property_Photos"><path codeLine="123" d="M390.95,781.8594 C378.83,816.3994 362.49,862.9894 351.62,893.9894 " fill="none" id="Property-Photos" style="stroke:#181818;stroke-width:1.0;"/><polygon fill="#000000" points="385.3521,832.7366,394.5794,820.6365,385.7049,817.5238,385.3521,832.7366" style="stroke:#000000;stroke-width:1.0;"/><text fill="#000000" font-family="sans-serif" font-size="20" lengthAdjust="spacing" textLength="31" x="401" y="833.3711">has</text><text fill="#000000" font-family="sans-serif" font-size="20" lengthAdjust="spacing" textLength="11" x="376.9195" y="810.9312">1</text><text fill="#000000" font-family="sans-serif" font-size="20" lengthAdjust="spacing" textLength="45" x="304.75" y="881.7249">1..30</text></g><!--link Business to PublishedAnnouncement--><g id="link_Business_PublishedAnnouncement"><path codeLine="124" d="M210.5,464.6094 C235.97,464.6094 267.56,464.6094 297.92,464.6094 " fill="none" id="Business-PublishedAnnouncement" style="stroke:#181818;stroke-width:1.0;"/><polygon fill="#000000" points="243.75,448.1875,229.2779,443.4852,229.2779,452.8898,243.75,448.1875" style="stroke:#000000;stroke-width:1.0;"/><text fill="#000000" font-family="sans-serif" font-size="20" lengthAdjust="spacing" textLength="31" x="248.75" y="456.3711">has</text><text fill="#000000" font-family="sans-serif" font-size="20" lengthAdjust="spacing" textLength="11" x="218.6563" y="458.6023">1</text><text fill="#000000" font-family="sans-serif" font-size="20" lengthAdjust="spacing" textLength="11" x="278.8636" y="459.4867">1</text></g><!--link PublishedAnnouncement to Property--><g id="link_PublishedAnnouncement_Property"><path codeLine="125" d="M407,498.7994 C407,546.5094 407,634.6194 407,688.4394 " fill="none" id="PublishedAnnouncement-Property" style="stroke:#181818;stroke-width:1.0;"/><polygon fill="#000000" points="415,601.6875,419.7023,587.2154,410.2977,587.2154,415,601.6875" style="stroke:#000000;stroke-width:1.0;"/><text fill="#000000" font-family="sans-serif" font-size="20" lengthAdjust="spacing" textLength="90" x="428" y="601.8711">advertises</text><text fill="#000000" font-family="sans-serif" font-size="20" lengthAdjust="spacing" textLength="8" x="398.3125" y="527.5725">*</text><text fill="#000000" font-family="sans-serif" font-size="20" lengthAdjust="spacing" textLength="8" x="398.4625" y="676.2291">*</text></g><!--link Residence to AvailableEquipment--><g id="link_Residence_AvailableEquipment"><path codeLine="127" d="M512.05,987.7894 C495.03,1037.8594 471.17,1108.0494 457.28,1148.9394 " fill="none" id="Residence-AvailableEquipment" style="stroke:#181818;stroke-width:1.0;"/><polygon fill="#000000" points="497.4257,1069.762,506.5349,1057.5728,497.6305,1054.5465,497.4257,1069.762" style="stroke:#000000;stroke-width:1.0;"/><text fill="#000000" font-family="sans-serif" font-size="20" lengthAdjust="spacing" textLength="72" x="513" y="1070.3711">contains</text><text fill="#000000" font-family="sans-serif" font-size="20" lengthAdjust="spacing" textLength="11" x="498.4255" y="1016.022">1</text><text fill="#000000" font-family="sans-serif" font-size="20" lengthAdjust="spacing" textLength="8" x="450.5312" y="1136.6663">*</text></g><!--reverse link Residence to House--><g id="link_Residence_House"><path codeLine="128" d="M571.72,1005.6694 C583.83,1028.9994 594,1048.6094 594,1048.6094 C594,1048.6094 612.08,1097.8694 626.27,1136.5394 " fill="none" id="Residence-backto-House" style="stroke:#181818;stroke-width:1.0;"/><polygon fill="none" points="565.45,1008.7894,562.46,987.8094,577.88,1002.3394,565.45,1008.7894" style="stroke:#181818;stroke-width:1.0;"/></g><!--link State to District--><g id="link_State_District"><path codeLine="130" d="M923.22,735.1094 C950.42,735.1094 982.91,735.1094 1010.92,735.1094 " fill="none" id="State-District" style="stroke:#181818;stroke-width:1.0;"/><polygon fill="#000000" points="956.5,718.6875,942.0279,713.9852,942.0279,723.3898,956.5,718.6875" style="stroke:#000000;stroke-width:1.0;"/><text fill="#000000" font-family="sans-serif" font-size="20" lengthAdjust="spacing" textLength="31" x="961.5" y="726.8711">has</text><text fill="#000000" font-family="sans-serif" font-size="20" lengthAdjust="spacing" textLength="11" x="930.9859" y="729.3381">1</text><text fill="#000000" font-family="sans-serif" font-size="20" lengthAdjust="spacing" textLength="8" x="994.9326" y="729.4167">*</text></g><!--link Address to State--><g id="link_Address_State"><path codeLine="131" d="M719.48,735.1094 C745.78,735.1094 778.91,735.1094 806.92,735.1094 " fill="none" id="Address-State" style="stroke:#181818;stroke-width:1.0;"/><polygon fill="#000000" points="736.5,718.6875,750.9721,723.3898,750.9721,713.9852,736.5,718.6875" style="stroke:#000000;stroke-width:1.0;"/><text fill="#000000" font-family="sans-serif" font-size="20" lengthAdjust="spacing" textLength="31" x="757.5" y="726.8711">has</text><text fill="#000000" font-family="sans-serif" font-size="20" lengthAdjust="spacing" textLength="8" x="726.8943" y="729.0122">*</text><text fill="#000000" font-family="sans-serif" font-size="20" lengthAdjust="spacing" textLength="11" x="788.1712" y="729.3381">1</text></g><!--link TypeOfProperty to Property--><g id="link_TypeOfProperty_Property"><path codeLine="133" d="M155.38,735.1094 C190.71,735.1094 234.02,735.1094 274.69,735.1094 " fill="none" id="TypeOfProperty-Property" style="stroke:#181818;stroke-width:1.0;"/><polygon fill="#000000" points="188.5,718.6875,174.0279,713.9852,174.0279,723.3898,188.5,718.6875" style="stroke:#000000;stroke-width:1.0;"/><text fill="#000000" font-family="sans-serif" font-size="20" lengthAdjust="spacing" textLength="63" x="193.5" y="726.8711">defines</text><text fill="#000000" font-family="sans-serif" font-size="20" lengthAdjust="spacing" textLength="11" x="162.9936" y="729.6722">1</text><text fill="#000000" font-family="sans-serif" font-size="20" lengthAdjust="spacing" textLength="11" x="256.1535" y="730.179">1</text></g><!--link Offer to Client--><g id="link_Offer_Client"><path codeLine="135" d="M463.76,309.6094 C501.33,309.6094 548.93,309.6094 578.42,309.6094 " fill="none" id="Offer-Client" style="stroke:#181818;stroke-width:1.0;"/><polygon fill="#000000" points="481,293.1875,495.4721,297.8898,495.4721,288.4852,481,293.1875" style="stroke:#000000;stroke-width:1.0;"/><text fill="#000000" font-family="sans-serif" font-size="20" lengthAdjust="spacing" textLength="58" x="502" y="301.3711">makes</text><text fill="#000000" font-family="sans-serif" font-size="20" lengthAdjust="spacing" textLength="8" x="471.5449" y="303.7595">*</text><text fill="#000000" font-family="sans-serif" font-size="20" lengthAdjust="spacing" textLength="11" x="559.3567" y="302.3242">1</text></g><!--SRC=[TLNBRjim4BplLn2-60ZWrcblHX30SL8qG9iOKT93RxIqiWXJfCf76ZVfltT9lMZ7FP4YPnypEwRjJgY66rvBdU-mO0MMt4ltHIkNYJ_8Fiq1d70IsLCsFv-p6RlMDHUAVTS5IW3RnxEjqRwvLHKQuRZAAJIvhBNIUMLqZSmPZybDm_CTtsBczbJ3O4wnMva2RCKB_LkeBIkvjEbDBhcrI-UCs7Y7jxbMiULv0f52eTito1ejz-43Ab4WouN9PRUlqLMwi00Gyx5bKHYazHKoPn0T_1GDMn5R-3j0dhcGV2FnvfSNJOtA4NhO1rm7lFAMQiPaZzfnoHeZSam0A-7sT1cNErudDLQw5jOAhUZw1vS-N4q_0aoFhjTeSYfA4X9mcdorGTEnrhMm95KUUXssVSqEybLx6_9SSOkH2isJRsYUn9LzqwKR-wDADZONKzoG9oIiAwsGtVbwWmOU-Kk_NLD0euthlySabNOwgFFqS9kS6jsWYS8i3VBORNHKIGPYhWhpezj0z22PtqXXAooMIcbF-6umA_AouKJsaOm02Tk7zlxQ6-w2qBfaUOSzG5coIIXFN6F_0NY5XT6wjkaHTzNnsPgRNR1kHZP7csJD77SOFHRMmz5dNjsyDDfwWt5MuLT1_Os0GEI-J6IAp4RhID4o6qxkovBwUOLsxUq4qzxha_C9cytYqirrmNAkMCMVaLq033w-U2DOq0rWD6WRtOOFo4NKabuA2eBfARjIpDlbQ6GONHaJ6h6j72KzcxI_aWLrOzabG6lIfELKhwGiGLk-8SMCtX3LCJpfapOzSUq4Y4nR9M5GkgFV6M8yZnNwXgb4hslVymZik_xmuVDyqlj_W9tiBCP8BDqxXTkE_nDrrWs5rhxyWl7YcJR2OfHdjFOmGaAVUDqEL1sZWXopzj60pid7enjcsdDCO1sdi_TwmP733xAUZuGeWFwmWXmXgFFzKUxM0mjMyrs4_GC0]--></g></svg>