<?xml version="1.0" encoding="UTF-8" standalone="no"?><svg xmlns="http://www.w3.org/2000/svg" xmlns:xlink="http://www.w3.org/1999/xlink" contentStyleType="text/css" height="1316px" preserveAspectRatio="none" style="width:1180px;height:1316px;background:#FFFFFF;" version="1.1" viewBox="0 0 1180 1316" width="1180px" zoomAndPan="magnify"><defs/><g><!--class Employee--><g id="elem_Employee"><rect codeLine="13" fill="#F1F1F1" height="43.1563" id="Employee" rx="2.5" ry="2.5" style="stroke:#181818;stroke-width:0.5;" width="93" x="116" y="262"/><text fill="#000000" font-family="sans-serif" font-size="20" lengthAdjust="spacing" textLength="87" x="119" y="287.7617">Employee</text><line style="stroke:#181818;stroke-width:0.5;" x1="117" x2="208" y1="297.1563" y2="297.1563"/></g><!--class Person--><g id="elem_Person"><rect codeLine="16" fill="#F1F1F1" height="194.0938" id="Person" rx="2.5" ry="2.5" style="stroke:#181818;stroke-width:0.5;" width="165" x="80" y="7"/><text fill="#000000" font-family="sans-serif" font-size="20" lengthAdjust="spacing" textLength="62" x="131.5" y="32.7617">Person</text><line style="stroke:#181818;stroke-width:0.5;" x1="81" x2="244" y1="42.1563" y2="42.1563"/><text fill="#000000" font-family="sans-serif" font-size="20" lengthAdjust="spacing" textLength="51" x="86" y="66.918">Name</text><text fill="#000000" font-family="sans-serif" font-size="20" lengthAdjust="spacing" textLength="48" x="86" y="92.0742">Email</text><text fill="#000000" font-family="sans-serif" font-size="20" lengthAdjust="spacing" textLength="129" x="86" y="117.2305">Phone Number</text><text fill="#000000" font-family="sans-serif" font-size="20" lengthAdjust="spacing" textLength="106" x="86" y="142.3867">Tax Number</text><text fill="#000000" font-family="sans-serif" font-size="20" lengthAdjust="spacing" textLength="153" x="86" y="167.543">Passport Number</text><text fill="#000000" font-family="sans-serif" font-size="20" lengthAdjust="spacing" textLength="73" x="86" y="192.6992">Address</text></g><!--class NetworkManager--><g id="elem_NetworkManager"><rect codeLine="25" fill="#F1F1F1" height="43.1563" id="NetworkManager" rx="2.5" ry="2.5" style="stroke:#181818;stroke-width:0.5;" width="157" x="84" y="391"/><text fill="#000000" font-family="sans-serif" font-size="20" lengthAdjust="spacing" textLength="151" x="87" y="416.7617">NetworkManager</text><line style="stroke:#181818;stroke-width:0.5;" x1="85" x2="240" y1="426.1563" y2="426.1563"/></g><!--class Offer--><g id="elem_Offer"><rect codeLine="28" fill="#F1F1F1" height="93.4688" id="Offer" rx="2.5" ry="2.5" style="stroke:#181818;stroke-width:0.5;" width="152" x="420.5" y="366"/><text fill="#000000" font-family="sans-serif" font-size="20" lengthAdjust="spacing" textLength="46" x="473.5" y="391.7617">Offer</text><line style="stroke:#181818;stroke-width:0.5;" x1="421.5" x2="571.5" y1="401.1563" y2="401.1563"/><text fill="#000000" font-family="sans-serif" font-size="20" lengthAdjust="spacing" textLength="51" x="426.5" y="425.918">Name</text><text fill="#000000" font-family="sans-serif" font-size="20" lengthAdjust="spacing" textLength="140" x="426.5" y="451.0742">Order Ammount</text></g><!--class Address--><g id="elem_Address"><rect codeLine="33" fill="#F1F1F1" height="93.4688" id="Address" rx="2.5" ry="2.5" style="stroke:#181818;stroke-width:0.5;" width="92" x="628.5" y="701"/><text fill="#000000" font-family="sans-serif" font-size="20" lengthAdjust="spacing" textLength="73" x="638" y="726.7617">Address</text><line style="stroke:#181818;stroke-width:0.5;" x1="629.5" x2="719.5" y1="736.1563" y2="736.1563"/><text fill="#000000" font-family="sans-serif" font-size="20" lengthAdjust="spacing" textLength="54" x="634.5" y="760.918">Street</text><text fill="#000000" font-family="sans-serif" font-size="20" lengthAdjust="spacing" textLength="80" x="634.5" y="786.0742">Zip Code</text></g><!--class AvailableEquipment--><g id="elem_AvailableEquipment"><rect codeLine="38" fill="#F1F1F1" height="68.3125" id="AvailableEquipment" rx="2.5" ry="2.5" style="stroke:#181818;stroke-width:0.5;" width="176" x="794.5" y="1073.5"/><text fill="#000000" font-family="sans-serif" font-size="20" lengthAdjust="spacing" textLength="170" x="797.5" y="1099.2617">AvailableEquipment</text><line style="stroke:#181818;stroke-width:0.5;" x1="795.5" x2="969.5" y1="1108.6563" y2="1108.6563"/><text fill="#000000" font-family="sans-serif" font-size="20" lengthAdjust="spacing" textLength="92" x="800.5" y="1133.418">Equipment</text></g><!--class Business--><g id="elem_Business"><rect codeLine="43" fill="#F1F1F1" height="68.3125" id="Business" rx="2.5" ry="2.5" style="stroke:#181818;stroke-width:0.5;" width="105" x="608" y="378.5"/><text fill="#000000" font-family="sans-serif" font-size="20" lengthAdjust="spacing" textLength="78" x="621.5" y="404.2617">Business</text><line style="stroke:#181818;stroke-width:0.5;" x1="609" x2="712" y1="413.6563" y2="413.6563"/><text fill="#000000" font-family="sans-serif" font-size="20" lengthAdjust="spacing" textLength="93" x="614" y="438.418">Total price</text></g><!--class City--><g id="elem_City"><rect codeLine="48" fill="#F1F1F1" height="68.3125" id="City" rx="2.5" ry="2.5" style="stroke:#181818;stroke-width:0.5;" width="103" x="7" y="713.5"/><text fill="#000000" font-family="sans-serif" font-size="20" lengthAdjust="spacing" textLength="34" x="41.5" y="739.2617">City</text><line style="stroke:#181818;stroke-width:0.5;" x1="8" x2="109" y1="748.6563" y2="748.6563"/><text fill="#000000" font-family="sans-serif" font-size="20" lengthAdjust="spacing" textLength="91" x="13" y="773.418">City Name</text></g><!--class Comission--><g id="elem_Comission"><rect codeLine="52" fill="#F1F1F1" height="68.3125" id="Comission" rx="2.5" ry="2.5" style="stroke:#181818;stroke-width:0.5;" width="96" x="775.5" y="546"/><text fill="#000000" font-family="sans-serif" font-size="20" lengthAdjust="spacing" textLength="90" x="778.5" y="571.7617">Comission</text><line style="stroke:#181818;stroke-width:0.5;" x1="776.5" x2="870.5" y1="581.1563" y2="581.1563"/><text fill="#000000" font-family="sans-serif" font-size="20" lengthAdjust="spacing" textLength="49" x="781.5" y="605.918">Value</text></g><!--class District--><g id="elem_District"><rect codeLine="57" fill="#F1F1F1" height="68.3125" id="District" rx="2.5" ry="2.5" style="stroke:#181818;stroke-width:0.5;" width="130" x="200.5" y="713.5"/><text fill="#000000" font-family="sans-serif" font-size="20" lengthAdjust="spacing" textLength="61" x="235" y="739.2617">District</text><line style="stroke:#181818;stroke-width:0.5;" x1="201.5" x2="329.5" y1="748.6563" y2="748.6563"/><text fill="#000000" font-family="sans-serif" font-size="20" lengthAdjust="spacing" textLength="118" x="206.5" y="773.418">District Name</text></g><!--class House--><g id="elem_House"><rect codeLine="62" fill="#F1F1F1" height="93.4688" id="House" rx="2.5" ry="2.5" style="stroke:#181818;stroke-width:0.5;" width="147" x="1006" y="1061"/><text fill="#000000" font-family="sans-serif" font-size="20" lengthAdjust="spacing" textLength="55" x="1052" y="1086.7617">House</text><line style="stroke:#181818;stroke-width:0.5;" x1="1007" x2="1152" y1="1096.1563" y2="1096.1563"/><text fill="#000000" font-family="sans-serif" font-size="20" lengthAdjust="spacing" textLength="88" x="1012" y="1120.918">Basement</text><text fill="#000000" font-family="sans-serif" font-size="20" lengthAdjust="spacing" textLength="135" x="1012" y="1146.0742">Inhabitable Loft</text></g><!--class Photos--><g id="elem_Photos"><rect codeLine="68" fill="#F1F1F1" height="68.3125" id="Photos" rx="2.5" ry="2.5" style="stroke:#181818;stroke-width:0.5;" width="67" x="907" y="546"/><text fill="#000000" font-family="sans-serif" font-size="20" lengthAdjust="spacing" textLength="61" x="910" y="571.7617">Photos</text><line style="stroke:#181818;stroke-width:0.5;" x1="908" x2="973" y1="581.1563" y2="581.1563"/><text fill="#000000" font-family="sans-serif" font-size="20" lengthAdjust="spacing" textLength="33" x="913" y="605.918">URI</text></g><!--class Property--><g id="elem_Property"><rect codeLine="72" fill="#F1F1F1" height="93.4688" id="Property" rx="2.5" ry="2.5" style="stroke:#181818;stroke-width:0.5;" width="264" x="808.5" y="701"/><text fill="#000000" font-family="sans-serif" font-size="20" lengthAdjust="spacing" textLength="76" x="902.5" y="726.7617">Property</text><line style="stroke:#181818;stroke-width:0.5;" x1="809.5" x2="1071.5" y1="736.1563" y2="736.1563"/><text fill="#000000" font-family="sans-serif" font-size="20" lengthAdjust="spacing" textLength="42" x="814.5" y="760.918">Area</text><text fill="#000000" font-family="sans-serif" font-size="20" lengthAdjust="spacing" textLength="252" x="814.5" y="786.0742">Distance from the city center</text></g><!--class PublishedAnnouncement--><g id="elem_PublishedAnnouncement"><rect codeLine="77" fill="#F1F1F1" height="43.1563" id="PublishedAnnouncement" rx="2.5" ry="2.5" style="stroke:#181818;stroke-width:0.5;" width="218" x="469.5" y="558.5"/><text fill="#000000" font-family="sans-serif" font-size="20" lengthAdjust="spacing" textLength="212" x="472.5" y="584.2617">PublishedAnnouncement</text><line style="stroke:#181818;stroke-width:0.5;" x1="470.5" x2="686.5" y1="593.6563" y2="593.6563"/></g><!--class Residence--><g id="elem_Residence"><rect codeLine="80" fill="#F1F1F1" height="118.625" id="Residence" rx="2.5" ry="2.5" style="stroke:#181818;stroke-width:0.5;" width="247" x="817" y="855"/><text fill="#000000" font-family="sans-serif" font-size="20" lengthAdjust="spacing" textLength="92" x="894.5" y="880.7617">Residence</text><line style="stroke:#181818;stroke-width:0.5;" x1="818" x2="1063" y1="890.1563" y2="890.1563"/><text fill="#000000" font-family="sans-serif" font-size="20" lengthAdjust="spacing" textLength="187" x="823" y="914.918">Number of Bedrooms</text><text fill="#000000" font-family="sans-serif" font-size="20" lengthAdjust="spacing" textLength="192" x="823" y="940.0742">Number of Bathrooms</text><text fill="#000000" font-family="sans-serif" font-size="20" lengthAdjust="spacing" textLength="235" x="823" y="965.2305">Number of Parking Spaces</text></g><!--class State--><g id="elem_State"><rect codeLine="87" fill="#F1F1F1" height="68.3125" id="State" rx="2.5" ry="2.5" style="stroke:#181818;stroke-width:0.5;" width="116" x="421.5" y="713.5"/><text fill="#000000" font-family="sans-serif" font-size="20" lengthAdjust="spacing" textLength="47" x="456" y="739.2617">State</text><line style="stroke:#181818;stroke-width:0.5;" x1="422.5" x2="536.5" y1="748.6563" y2="748.6563"/><text fill="#000000" font-family="sans-serif" font-size="20" lengthAdjust="spacing" textLength="104" x="427.5" y="773.418">State Name</text></g><!--class SunExposure--><g id="elem_SunExposure"><rect codeLine="91" fill="#F1F1F1" height="68.3125" id="SunExposure" rx="2.5" ry="2.5" style="stroke:#181818;stroke-width:0.5;" width="121" x="1019" y="1241"/><text fill="#000000" font-family="sans-serif" font-size="20" lengthAdjust="spacing" textLength="115" x="1022" y="1266.7617">SunExposure</text><line style="stroke:#181818;stroke-width:0.5;" x1="1020" x2="1139" y1="1276.1563" y2="1276.1563"/><text fill="#000000" font-family="sans-serif" font-size="20" lengthAdjust="spacing" textLength="77" x="1025" y="1300.918">Direction</text></g><!--class TypeOfProperty--><g id="elem_TypeOfProperty"><rect codeLine="95" fill="#F1F1F1" height="68.3125" id="TypeOfProperty" rx="2.5" ry="2.5" style="stroke:#181818;stroke-width:0.5;" width="148" x="1009.5" y="546"/><text fill="#000000" font-family="sans-serif" font-size="20" lengthAdjust="spacing" textLength="142" x="1012.5" y="571.7617">TypeOfProperty</text><line style="stroke:#181818;stroke-width:0.5;" x1="1010.5" x2="1156.5" y1="581.1563" y2="581.1563"/><text fill="#000000" font-family="sans-serif" font-size="20" lengthAdjust="spacing" textLength="44" x="1015.5" y="605.918">Type</text></g><!--reverse link Person to Employee--><g id="link_Person_Employee"><path codeLine="99" d="M162.5,221.2 C162.5,236.73 162.5,251.02 162.5,261.89 " fill="none" id="Person-backto-Employee" style="stroke:#181818;stroke-width:1.0;"/><polygon fill="none" points="155.5,221.02,162.5,201.02,169.5,221.02,155.5,221.02" style="stroke:#181818;stroke-width:1.0;"/></g><!--link Employee to NetworkManager--><g id="link_Employee_NetworkManager"><path codeLine="100" d="M162.5,305.19 C162.5,328.8 162.5,367.21 162.5,390.82 " fill="none" id="Employee-NetworkManager" style="stroke:#181818;stroke-width:1.0;"/></g><!--link NetworkManager to Offer--><g id="link_NetworkManager_Offer"><path codeLine="103" d="M241.23,412.5 C295.33,412.5 366.77,412.5 420.31,412.5 " fill="none" id="NetworkManager-Offer" style="stroke:#181818;stroke-width:1.0;"/><polygon fill="#000000" points="274.25,396.0781,259.7779,391.3758,259.7779,400.7804,274.25,396.0781" style="stroke:#000000;stroke-width:1.0;"/><text fill="#000000" font-family="sans-serif" font-size="20" lengthAdjust="spacing" textLength="123" x="279.25" y="404.2617">intends to see</text><text fill="#000000" font-family="sans-serif" font-size="20" lengthAdjust="spacing" textLength="8" x="249.1152" y="407.0703">*</text><text fill="#000000" font-family="sans-serif" font-size="20" lengthAdjust="spacing" textLength="8" x="404.4163" y="407.0159">*</text></g><!--link Offer to PublishedAnnouncement--><g id="link_Offer_PublishedAnnouncement"><path codeLine="104" d="M519.12,459.16 C535.15,491.5 555.89,533.37 568.14,558.09 " fill="none" id="Offer-PublishedAnnouncement" style="stroke:#181818;stroke-width:1.0;"/><polygon fill="#000000" points="559.0519,509.7464,556.8399,494.6911,548.4131,498.8666,559.0519,509.7464" style="stroke:#000000;stroke-width:1.0;"/><text fill="#000000" font-family="sans-serif" font-size="20" lengthAdjust="spacing" textLength="31" x="568.5" y="510.7617">has</text><text fill="#000000" font-family="sans-serif" font-size="20" lengthAdjust="spacing" textLength="8" x="513.7384" y="488.2191">*</text><text fill="#000000" font-family="sans-serif" font-size="20" lengthAdjust="spacing" textLength="11" x="553.4724" y="545.8944">1</text></g><!--link PublishedAnnouncement to Property--><g id="link_PublishedAnnouncement_Property"><path codeLine="105" d="M623.62,601.63 C677.63,626.32 769.7,668.41 840.72,700.88 " fill="none" id="PublishedAnnouncement-Property" style="stroke:#181818;stroke-width:1.0;"/></g><!--link TypeOfProperty to Property--><g id="link_TypeOfProperty_Property"><path codeLine="106" d="M1054.91,614.09 C1033.39,639 1003.64,673.42 979.88,700.93 " fill="none" id="TypeOfProperty-Property" style="stroke:#181818;stroke-width:1.0;"/><polygon fill="#000000" points="1041.7302,651.5246,1028.7105,659.4012,1035.8268,665.5498,1041.7302,651.5246" style="stroke:#000000;stroke-width:1.0;"/><text fill="#000000" font-family="sans-serif" font-size="20" lengthAdjust="spacing" textLength="31" x="1049.5" y="665.7617">has</text><text fill="#000000" font-family="sans-serif" font-size="20" lengthAdjust="spacing" textLength="11" x="1037.8377" y="643.1366">1</text><text fill="#000000" font-family="sans-serif" font-size="20" lengthAdjust="spacing" textLength="11" x="973.4326" y="688.7332">1</text></g><!--reverse link Property to Residence--><g id="link_Property_Residence"><path codeLine="107" d="M940.5,814.33 C940.5,827.71 940.5,841.7 940.5,854.81 " fill="none" id="Property-backto-Residence" style="stroke:#181818;stroke-width:1.0;"/><polygon fill="none" points="933.5,814.02,940.5,794.02,947.5,814.02,933.5,814.02" style="stroke:#181818;stroke-width:1.0;"/></g><!--link Photos to Property--><g id="link_Photos_Property"><path codeLine="108" d="M940.5,614.09 C940.5,639 940.5,673.42 940.5,700.93 " fill="none" id="Photos-Property" style="stroke:#181818;stroke-width:1.0;"/><polygon fill="#000000" points="948.5,649.5781,943.7977,664.0503,953.2023,664.0503,948.5,649.5781" style="stroke:#000000;stroke-width:1.0;"/><text fill="#000000" font-family="sans-serif" font-size="20" lengthAdjust="spacing" textLength="31" x="961.5" y="665.7617">has</text><text fill="#000000" font-family="sans-serif" font-size="20" lengthAdjust="spacing" textLength="45" x="891.4922" y="643.1366">1..30</text><text fill="#000000" font-family="sans-serif" font-size="20" lengthAdjust="spacing" textLength="11" x="928.7609" y="688.7332">1</text></g><!--reverse link Residence to House--><g id="link_Residence_House"><path codeLine="109" d="M1004.86,989.92 C1008.53,994.63 1012.1,999.35 1015.5,1004 C1028.67,1022.05 1041.96,1042.82 1052.99,1060.92 " fill="none" id="Residence-backto-House" style="stroke:#181818;stroke-width:1.0;"/><polygon fill="none" points="999.19,994.03,992.15,974.05,1010.11,985.28,999.19,994.03" style="stroke:#181818;stroke-width:1.0;"/></g><!--link Residence to AvailableEquipment--><g id="link_Residence_AvailableEquipment"><path codeLine="110" d="M922.7,974.1 C912.81,1006.67 900.87,1046.01 892.58,1073.3 " fill="none" id="Residence-AvailableEquipment" style="stroke:#181818;stroke-width:1.0;"/><polygon fill="#000000" points="919.1757,1025.233,927.8798,1012.7513,918.8809,1010.019,919.1757,1025.233" style="stroke:#000000;stroke-width:1.0;"/><text fill="#000000" font-family="sans-serif" font-size="20" lengthAdjust="spacing" textLength="72" x="934.5" y="1025.7617">contains</text><text fill="#000000" font-family="sans-serif" font-size="20" lengthAdjust="spacing" textLength="11" x="909.2972" y="1002.3244">1</text><text fill="#000000" font-family="sans-serif" font-size="20" lengthAdjust="spacing" textLength="8" x="885.625" y="1061.0217">*</text></g><!--link House to SunExposure--><g id="link_House_SunExposure"><path codeLine="111" d="M1079.5,1154.16 C1079.5,1181.62 1079.5,1215.95 1079.5,1240.82 " fill="none" id="House-SunExposure" style="stroke:#181818;stroke-width:1.0;"/><polygon fill="#000000" points="1087.5,1205.5781,1092.2023,1191.106,1082.7977,1191.106,1087.5,1205.5781" style="stroke:#000000;stroke-width:1.0;"/><text fill="#000000" font-family="sans-serif" font-size="20" lengthAdjust="spacing" textLength="72" x="1100.5" y="1205.7617">contains</text><text fill="#000000" font-family="sans-serif" font-size="20" lengthAdjust="spacing" textLength="11" x="1067.7266" y="1183.2191">1</text><text fill="#000000" font-family="sans-serif" font-size="20" lengthAdjust="spacing" textLength="8" x="1070.8125" y="1228.5452">*</text></g><!--link PublishedAnnouncement to Comission--><g id="link_PublishedAnnouncement_Comission"><path codeLine="112" d="M687.74,580 C718.37,580 750.11,580 775.2,580 " fill="none" id="PublishedAnnouncement-Comission" style="stroke:#181818;stroke-width:1.0;"/><polygon fill="#000000" points="721,563.5781,706.5279,558.8758,706.5279,568.2804,721,563.5781" style="stroke:#000000;stroke-width:1.0;"/><text fill="#000000" font-family="sans-serif" font-size="20" lengthAdjust="spacing" textLength="31" x="726" y="571.7617">has</text><text fill="#000000" font-family="sans-serif" font-size="20" lengthAdjust="spacing" textLength="11" x="695.4491" y="574.9219">1</text><text fill="#000000" font-family="sans-serif" font-size="20" lengthAdjust="spacing" textLength="11" x="756.6344" y="573.9929">1</text></g><!--link Business to PublishedAnnouncement--><g id="link_Business_PublishedAnnouncement"><path codeLine="113" d="M644.1,446.59 C627.56,479.99 602.53,530.5 588.66,558.49 " fill="none" id="Business-PublishedAnnouncement" style="stroke:#181818;stroke-width:1.0;"/><polygon fill="#000000" points="634.0515,495.4097,623.4132,506.29,631.8402,510.4651,634.0515,495.4097" style="stroke:#000000;stroke-width:1.0;"/><text fill="#000000" font-family="sans-serif" font-size="20" lengthAdjust="spacing" textLength="31" x="643.5" y="510.7617">has</text><text fill="#000000" font-family="sans-serif" font-size="20" lengthAdjust="spacing" textLength="11" x="629.1991" y="475.6366">1</text><text fill="#000000" font-family="sans-serif" font-size="20" lengthAdjust="spacing" textLength="11" x="578.7959" y="545.9618">1</text></g><!--link Address to Property--><g id="link_Address_Property"><path codeLine="115" d="M720.53,747.5 C745.14,747.5 776.82,747.5 808.44,747.5 " fill="none" id="Address-Property" style="stroke:#181818;stroke-width:1.0;"/><polygon fill="#000000" points="738,731.0781,752.4721,735.7804,752.4721,726.3758,738,731.0781" style="stroke:#000000;stroke-width:1.0;"/><text fill="#000000" font-family="sans-serif" font-size="20" lengthAdjust="spacing" textLength="31" x="759" y="739.2617">has</text><text fill="#000000" font-family="sans-serif" font-size="20" lengthAdjust="spacing" textLength="11" x="728.4205" y="741.3237">1</text><text fill="#000000" font-family="sans-serif" font-size="20" lengthAdjust="spacing" textLength="11" x="789.4873" y="742.53">1</text></g><!--link District to State--><g id="link_District_State"><path codeLine="116" d="M330.58,747.5 C359.48,747.5 393.22,747.5 421.27,747.5 " fill="none" id="District-State" style="stroke:#181818;stroke-width:1.0;"/><polygon fill="#000000" points="364,731.0781,349.5279,726.3758,349.5279,735.7804,364,731.0781" style="stroke:#000000;stroke-width:1.0;"/><text fill="#000000" font-family="sans-serif" font-size="20" lengthAdjust="spacing" textLength="34" x="369" y="739.2617">is in</text><text fill="#000000" font-family="sans-serif" font-size="20" lengthAdjust="spacing" textLength="8" x="338.5674" y="741.8074">*</text><text fill="#000000" font-family="sans-serif" font-size="20" lengthAdjust="spacing" textLength="11" x="402.5029" y="741.7288">1</text></g><!--link City to District--><g id="link_City_District"><path codeLine="117" d="M110.2,747.5 C137.5,747.5 171.29,747.5 200.36,747.5 " fill="none" id="City-District" style="stroke:#181818;stroke-width:1.0;"/><polygon fill="#000000" points="143.25,731.0781,128.7779,726.3758,128.7779,735.7804,143.25,731.0781" style="stroke:#000000;stroke-width:1.0;"/><text fill="#000000" font-family="sans-serif" font-size="20" lengthAdjust="spacing" textLength="34" x="148.25" y="739.2617">is in</text><text fill="#000000" font-family="sans-serif" font-size="20" lengthAdjust="spacing" textLength="8" x="118.0328" y="741.4929">*</text><text fill="#000000" font-family="sans-serif" font-size="20" lengthAdjust="spacing" textLength="11" x="181.6338" y="741.886">1</text></g><!--link State to Address--><g id="link_State_Address"><path codeLine="118" d="M537.74,747.5 C566.7,747.5 601.2,747.5 628.3,747.5 " fill="none" id="State-Address" style="stroke:#181818;stroke-width:1.0;"/><polygon fill="#000000" points="571,731.0781,556.5279,726.3758,556.5279,735.7804,571,731.0781" style="stroke:#000000;stroke-width:1.0;"/><text fill="#000000" font-family="sans-serif" font-size="20" lengthAdjust="spacing" textLength="34" x="576" y="739.2617">is in</text><text fill="#000000" font-family="sans-serif" font-size="20" lengthAdjust="spacing" textLength="11" x="545.5083" y="741.7288">1</text><text fill="#000000" font-family="sans-serif" font-size="20" lengthAdjust="spacing" textLength="8" x="612.6131" y="741.3237">*</text></g><!--SRC=[TLHDRzim3BthLn2v32YG8jrkGJ4WxJAimDO6JTV3RefDnq9aqPFajLct_pvAZcmbo2wsJBt7ZqVIRgTCAwriD1KxBA74IdRQVoRZr-etmlkPS0a23HagQaiDWhSTPZUjB7PoYsk_rmWM2o_DLkS0LykINfJPGYMrGo7UQQmyU0AhjhM7KWMM8YCoKg6bSmllhTfq7kyACZ6dcH2rAX4APGiE4iyD-ffA9uI895WshQOzuflucqmhj8xCcxYN3Ofb8vKMgveCmdtNRD2A9_cQZYl6jsHz-bwKfKNdHb_tw5_8xhv9mrNRBCX3LONl6EF1bcXXqJJK6Jz23ixWJQozHVJYXshXbahC8ByuExdHkFpPgRP1unazd0Fk0Bpfd3AzioVoKaDhLO4Pu5RvFL_6LqngY75BZNAE5UVhPwcxdFL9EHQz2567Os8V85-eSyZtDz9XJEhEr7AZVCWQlbALPyaoUmevVd-yo_fXgKKRqrjOb36ID0L2nHC6lWuDvjk2dNCBHbgtqShLM2wCOM4BFCWp01xHyKG4Hzo7s3-W2cwmj4IDoqtIrwUsbRIxCALhdcXqMGrhBpt6deNtiPJhpYnVMtATnQXO6kK1yBHlyQ7A2Ww6SDtF95p_cKw7aHNf06my7ZJEvjW0aui9JECpJjuS5AjbIXSsox6BZoBQUnm3hoRd1Pn3BHsZpwlBp9IyEAc5FIQ_oTJxkXQ38POtj4KSnc5oTNdvOJQcTKeV-nZvSU0oO-1C-zBFhCiS-6_XfJAXg7vMCqBMi2FW-UeZCJx7dPdtSWtxbvp_Jz-XglGlwHdnvtSYG4BsanPXuLzvI3tj8tVQSRCPDspeAJGi_GWRubvaA6R4C2DC_0C0]--></g></svg>