<?xml version="1.0" encoding="us-ascii" standalone="no"?><svg xmlns="http://www.w3.org/2000/svg" xmlns:xlink="http://www.w3.org/1999/xlink" contentStyleType="text/css" height="1036px" preserveAspectRatio="none" style="width:903px;height:1036px;background:#FFFFFF;" version="1.1" viewBox="0 0 903 1036" width="903px" zoomAndPan="magnify"><defs/><g><!--class Employee--><g id="elem_Employee"><rect codeLine="13" fill="#F1F1F1" height="33.6406" id="Employee" rx="2.5" ry="2.5" style="stroke:#181818;stroke-width:0.5;" width="68" x="92" y="195"/><text fill="#000000" font-family="sans-serif" font-size="14" lengthAdjust="spacing" textLength="62" x="95" y="212.6738">Employee</text><line style="stroke:#181818;stroke-width:0.5;" x1="93" x2="159" y1="220.6406" y2="220.6406"/></g><!--class Person--><g id="elem_Person"><rect codeLine="16" fill="#F1F1F1" height="127.4844" id="Person" rx="2.5" ry="2.5" style="stroke:#181818;stroke-width:0.5;" width="121" x="65.5" y="7"/><text fill="#000000" font-family="sans-serif" font-size="14" lengthAdjust="spacing" textLength="45" x="103.5" y="24.6738">Person</text><line style="stroke:#181818;stroke-width:0.5;" x1="66.5" x2="185.5" y1="32.6406" y2="32.6406"/><text fill="#000000" font-family="sans-serif" font-size="14" lengthAdjust="spacing" textLength="36" x="71.5" y="49.3145">Name</text><text fill="#000000" font-family="sans-serif" font-size="14" lengthAdjust="spacing" textLength="34" x="71.5" y="64.9551">Email</text><text fill="#000000" font-family="sans-serif" font-size="14" lengthAdjust="spacing" textLength="94" x="71.5" y="80.5957">Phone Number</text><text fill="#000000" font-family="sans-serif" font-size="14" lengthAdjust="spacing" textLength="76" x="71.5" y="96.2363">Tax Number</text><text fill="#000000" font-family="sans-serif" font-size="14" lengthAdjust="spacing" textLength="109" x="71.5" y="111.877">Passport Number</text><text fill="#000000" font-family="sans-serif" font-size="14" lengthAdjust="spacing" textLength="52" x="71.5" y="127.5176">Address</text></g><!--class NetworkManager--><g id="elem_NetworkManager"><rect codeLine="25" fill="#F1F1F1" height="33.6406" id="NetworkManager" rx="2.5" ry="2.5" style="stroke:#181818;stroke-width:0.5;" width="112" x="70" y="305.5"/><text fill="#000000" font-family="sans-serif" font-size="14" lengthAdjust="spacing" textLength="106" x="73" y="323.1738">NetworkManager</text><line style="stroke:#181818;stroke-width:0.5;" x1="71" x2="181" y1="331.1406" y2="331.1406"/></g><!--class Offer--><g id="elem_Offer"><rect codeLine="28" fill="#F1F1F1" height="64.9219" id="Offer" rx="2.5" ry="2.5" style="stroke:#181818;stroke-width:0.5;" width="112" x="314" y="290"/><text fill="#000000" font-family="sans-serif" font-size="14" lengthAdjust="spacing" textLength="32" x="354" y="307.6738">Offer</text><line style="stroke:#181818;stroke-width:0.5;" x1="315" x2="425" y1="315.6406" y2="315.6406"/><text fill="#000000" font-family="sans-serif" font-size="14" lengthAdjust="spacing" textLength="36" x="320" y="332.3145">Name</text><text fill="#000000" font-family="sans-serif" font-size="14" lengthAdjust="spacing" textLength="100" x="320" y="347.9551">Order Ammount</text></g><!--class Address--><g id="elem_Address"><rect codeLine="33" fill="#F1F1F1" height="64.9219" id="Address" rx="2.5" ry="2.5" style="stroke:#181818;stroke-width:0.5;" width="69" x="484.5" y="556"/><text fill="#000000" font-family="sans-serif" font-size="14" lengthAdjust="spacing" textLength="52" x="493" y="573.6738">Address</text><line style="stroke:#181818;stroke-width:0.5;" x1="485.5" x2="552.5" y1="581.6406" y2="581.6406"/><text fill="#000000" font-family="sans-serif" font-size="14" lengthAdjust="spacing" textLength="38" x="490.5" y="598.3145">Street</text><text fill="#000000" font-family="sans-serif" font-size="14" lengthAdjust="spacing" textLength="57" x="490.5" y="613.9551">Zip Code</text></g><!--class AvailableEquipment--><g id="elem_AvailableEquipment"><rect codeLine="38" fill="#F1F1F1" height="49.2813" id="AvailableEquipment" rx="2.5" ry="2.5" style="stroke:#181818;stroke-width:0.5;" width="130" x="612" y="847"/><text fill="#000000" font-family="sans-serif" font-size="14" lengthAdjust="spacing" textLength="124" x="615" y="864.6738">AvailableEquipment</text><line style="stroke:#181818;stroke-width:0.5;" x1="613" x2="741" y1="872.6406" y2="872.6406"/><text fill="#000000" font-family="sans-serif" font-size="14" lengthAdjust="spacing" textLength="67" x="618" y="889.3145">Equipment</text></g><!--class Business--><g id="elem_Business"><rect codeLine="43" fill="#F1F1F1" height="49.2813" id="Business" rx="2.5" ry="2.5" style="stroke:#181818;stroke-width:0.5;" width="79" x="461.5" y="298"/><text fill="#000000" font-family="sans-serif" font-size="14" lengthAdjust="spacing" textLength="57" x="472.5" y="315.6738">Business</text><line style="stroke:#181818;stroke-width:0.5;" x1="462.5" x2="539.5" y1="323.6406" y2="323.6406"/><text fill="#000000" font-family="sans-serif" font-size="14" lengthAdjust="spacing" textLength="67" x="467.5" y="340.3145">Total price</text></g><!--class City--><g id="elem_City"><rect codeLine="48" fill="#F1F1F1" height="49.2813" id="City" rx="2.5" ry="2.5" style="stroke:#181818;stroke-width:0.5;" width="76" x="7" y="564"/><text fill="#000000" font-family="sans-serif" font-size="14" lengthAdjust="spacing" textLength="24" x="33" y="581.6738">City</text><line style="stroke:#181818;stroke-width:0.5;" x1="8" x2="82" y1="589.6406" y2="589.6406"/><text fill="#000000" font-family="sans-serif" font-size="14" lengthAdjust="spacing" textLength="64" x="13" y="606.3145">City Name</text></g><!--class Comission--><g id="elem_Comission"><rect codeLine="52" fill="#F1F1F1" height="49.2813" id="Comission" rx="2.5" ry="2.5" style="stroke:#181818;stroke-width:0.5;" width="71" x="588.5" y="431"/><text fill="#000000" font-family="sans-serif" font-size="14" lengthAdjust="spacing" textLength="65" x="591.5" y="448.6738">Comission</text><line style="stroke:#181818;stroke-width:0.5;" x1="589.5" x2="658.5" y1="456.6406" y2="456.6406"/><text fill="#000000" font-family="sans-serif" font-size="14" lengthAdjust="spacing" textLength="36" x="594.5" y="473.3145">Value</text></g><!--class District--><g id="elem_District"><rect codeLine="57" fill="#F1F1F1" height="49.2813" id="District" rx="2.5" ry="2.5" style="stroke:#181818;stroke-width:0.5;" width="95" x="156.5" y="564"/><text fill="#000000" font-family="sans-serif" font-size="14" lengthAdjust="spacing" textLength="43" x="182.5" y="581.6738">District</text><line style="stroke:#181818;stroke-width:0.5;" x1="157.5" x2="250.5" y1="589.6406" y2="589.6406"/><text fill="#000000" font-family="sans-serif" font-size="14" lengthAdjust="spacing" textLength="83" x="162.5" y="606.3145">District Name</text></g><!--class House--><g id="elem_House"><rect codeLine="62" fill="#F1F1F1" height="64.9219" id="House" rx="2.5" ry="2.5" style="stroke:#181818;stroke-width:0.5;" width="109" x="777.5" y="839"/><text fill="#000000" font-family="sans-serif" font-size="14" lengthAdjust="spacing" textLength="40" x="812" y="856.6738">House</text><line style="stroke:#181818;stroke-width:0.5;" x1="778.5" x2="885.5" y1="864.6406" y2="864.6406"/><text fill="#000000" font-family="sans-serif" font-size="14" lengthAdjust="spacing" textLength="63" x="783.5" y="881.3145">Basement</text><text fill="#000000" font-family="sans-serif" font-size="14" lengthAdjust="spacing" textLength="97" x="783.5" y="896.9551">Inhabitable Loft</text></g><!--class Photos--><g id="elem_Photos"><rect codeLine="68" fill="#F1F1F1" height="49.2813" id="Photos" rx="2.5" ry="2.5" style="stroke:#181818;stroke-width:0.5;" width="50" x="695" y="431"/><text fill="#000000" font-family="sans-serif" font-size="14" lengthAdjust="spacing" textLength="44" x="698" y="448.6738">Photos</text><line style="stroke:#181818;stroke-width:0.5;" x1="696" x2="744" y1="456.6406" y2="456.6406"/><text fill="#000000" font-family="sans-serif" font-size="14" lengthAdjust="spacing" textLength="22" x="701" y="473.3145">URI</text></g><!--class Property--><g id="elem_Property"><rect codeLine="72" fill="#F1F1F1" height="64.9219" id="Property" rx="2.5" ry="2.5" style="stroke:#181818;stroke-width:0.5;" width="192" x="624" y="556"/><text fill="#000000" font-family="sans-serif" font-size="14" lengthAdjust="spacing" textLength="54" x="693" y="573.6738">Property</text><line style="stroke:#181818;stroke-width:0.5;" x1="625" x2="815" y1="581.6406" y2="581.6406"/><text fill="#000000" font-family="sans-serif" font-size="14" lengthAdjust="spacing" textLength="30" x="630" y="598.3145">Area</text><text fill="#000000" font-family="sans-serif" font-size="14" lengthAdjust="spacing" textLength="180" x="630" y="613.9551">Distance from the city center</text></g><!--class PublishedAnnouncement--><g id="elem_PublishedAnnouncement"><rect codeLine="77" fill="#F1F1F1" height="33.6406" id="PublishedAnnouncement" rx="2.5" ry="2.5" style="stroke:#181818;stroke-width:0.5;" width="163" x="354.5" y="438.5"/><text fill="#000000" font-family="sans-serif" font-size="14" lengthAdjust="spacing" textLength="157" x="357.5" y="456.1738">PublishedAnnouncement</text><line style="stroke:#181818;stroke-width:0.5;" x1="355.5" x2="516.5" y1="464.1406" y2="464.1406"/></g><!--class Residence--><g id="elem_Residence"><rect codeLine="80" fill="#F1F1F1" height="80.5625" id="Residence" rx="2.5" ry="2.5" style="stroke:#181818;stroke-width:0.5;" width="180" x="630" y="682"/><text fill="#000000" font-family="sans-serif" font-size="14" lengthAdjust="spacing" textLength="67" x="686.5" y="699.6738">Residence</text><line style="stroke:#181818;stroke-width:0.5;" x1="631" x2="809" y1="707.6406" y2="707.6406"/><text fill="#000000" font-family="sans-serif" font-size="14" lengthAdjust="spacing" textLength="133" x="636" y="724.3145">Number of Bedrooms</text><text fill="#000000" font-family="sans-serif" font-size="14" lengthAdjust="spacing" textLength="137" x="636" y="739.9551">Number of Bathrooms</text><text fill="#000000" font-family="sans-serif" font-size="14" lengthAdjust="spacing" textLength="168" x="636" y="755.5957">Number of Parking Spaces</text></g><!--class State--><g id="elem_State"><rect codeLine="87" fill="#F1F1F1" height="49.2813" id="State" rx="2.5" ry="2.5" style="stroke:#181818;stroke-width:0.5;" width="85" x="325.5" y="564"/><text fill="#000000" font-family="sans-serif" font-size="14" lengthAdjust="spacing" textLength="33" x="351.5" y="581.6738">State</text><line style="stroke:#181818;stroke-width:0.5;" x1="326.5" x2="409.5" y1="589.6406" y2="589.6406"/><text fill="#000000" font-family="sans-serif" font-size="14" lengthAdjust="spacing" textLength="73" x="331.5" y="606.3145">State Name</text></g><!--class SunExposure--><g id="elem_SunExposure"><rect codeLine="91" fill="#F1F1F1" height="49.2813" id="SunExposure" rx="2.5" ry="2.5" style="stroke:#181818;stroke-width:0.5;" width="90" x="787" y="980"/><text fill="#000000" font-family="sans-serif" font-size="14" lengthAdjust="spacing" textLength="84" x="790" y="997.6738">SunExposure</text><line style="stroke:#181818;stroke-width:0.5;" x1="788" x2="876" y1="1005.6406" y2="1005.6406"/><text fill="#000000" font-family="sans-serif" font-size="14" lengthAdjust="spacing" textLength="56" x="793" y="1022.3145">Direction</text></g><!--class TypeOfProperty--><g id="elem_TypeOfProperty"><rect codeLine="95" fill="#F1F1F1" height="49.2813" id="TypeOfProperty" rx="2.5" ry="2.5" style="stroke:#181818;stroke-width:0.5;" width="107" x="780.5" y="431"/><text fill="#000000" font-family="sans-serif" font-size="14" lengthAdjust="spacing" textLength="101" x="783.5" y="448.6738">TypeOfProperty</text><line style="stroke:#181818;stroke-width:0.5;" x1="781.5" x2="886.5" y1="456.6406" y2="456.6406"/><text fill="#000000" font-family="sans-serif" font-size="14" lengthAdjust="spacing" textLength="32" x="786.5" y="473.3145">Type</text></g><!--reverse link Person to Employee--><g id="link_Person_Employee"><path codeLine="99" d="M126,154.42 C126,169.81 126,184.32 126,194.79 " fill="none" id="Person-backto-Employee" style="stroke:#181818;stroke-width:1.0;"/><polygon fill="none" points="119,154.31,126,134.31,133,154.31,119,154.31" style="stroke:#181818;stroke-width:1.0;"/></g><!--link Employee to NetworkManager--><g id="link_Employee_NetworkManager"><path codeLine="100" d="M126,229.01 C126,249.52 126,284.88 126,305.42 " fill="none" id="Employee-NetworkManager" style="stroke:#181818;stroke-width:1.0;"/></g><!--link NetworkManager to Offer--><g id="link_NetworkManager_Offer"><path codeLine="103" d="M182.28,322.5 C221.83,322.5 274.51,322.5 314,322.5 " fill="none" id="NetworkManager-Offer" style="stroke:#181818;stroke-width:1.0;"/><polygon fill="#000000" points="209.5,311.7617,200.4549,308.8228,200.4549,314.7006,209.5,311.7617" style="stroke:#000000;stroke-width:1.0;"/><text fill="#000000" font-family="sans-serif" font-size="13" lengthAdjust="spacing" textLength="82" x="213.5" y="316.2686">intends to see</text><text fill="#000000" font-family="sans-serif" font-size="13" lengthAdjust="spacing" textLength="5" x="190.1786" y="319.3872">*</text><text fill="#000000" font-family="sans-serif" font-size="13" lengthAdjust="spacing" textLength="5" x="301.1391" y="319.3683">*</text></g><!--link Offer to PublishedAnnouncement--><g id="link_Offer_PublishedAnnouncement"><path codeLine="104" d="M385.98,355.21 C399.18,381.41 417.38,417.54 427.8,438.22 " fill="none" id="Offer-PublishedAnnouncement" style="stroke:#181818;stroke-width:1.0;"/><polygon fill="#000000" points="416.2496,397.7271,414.8047,388.3269,409.5554,390.9715,416.2496,397.7271" style="stroke:#000000;stroke-width:1.0;"/><text fill="#000000" font-family="sans-serif" font-size="13" lengthAdjust="spacing" textLength="21" x="423" y="397.7686">has</text><text fill="#000000" font-family="sans-serif" font-size="13" lengthAdjust="spacing" textLength="5" x="383.5496" y="374.6056">*</text><text fill="#000000" font-family="sans-serif" font-size="13" lengthAdjust="spacing" textLength="7" x="416.7781" y="427.794">1</text></g><!--link PublishedAnnouncement to Property--><g id="link_PublishedAnnouncement_Property"><path codeLine="105" d="M470.82,472.56 C515.63,493.23 594.47,529.6 651.49,555.9 " fill="none" id="PublishedAnnouncement-Property" style="stroke:#181818;stroke-width:1.0;"/></g><!--link TypeOfProperty to Property--><g id="link_TypeOfProperty_Property"><path codeLine="106" d="M813.36,480.22 C795,501.31 768.03,532.31 747.78,555.57 " fill="none" id="TypeOfProperty-Property" style="stroke:#181818;stroke-width:1.0;"/><polygon fill="#000000" points="795.2826,514.4901,787.1275,519.3836,791.5612,523.2424,795.2826,514.4901" style="stroke:#000000;stroke-width:1.0;"/><text fill="#000000" font-family="sans-serif" font-size="13" lengthAdjust="spacing" textLength="21" x="801" y="522.7686">has</text><text fill="#000000" font-family="sans-serif" font-size="13" lengthAdjust="spacing" textLength="7" x="800.1741" y="500.1478">1</text><text fill="#000000" font-family="sans-serif" font-size="13" lengthAdjust="spacing" textLength="7" x="745.7878" y="545.165">1</text></g><!--reverse link Property to Residence--><g id="link_Property_Residence"><path codeLine="107" d="M720,641.2 C720,654.64 720,668.9 720,681.62 " fill="none" id="Property-backto-Residence" style="stroke:#181818;stroke-width:1.0;"/><polygon fill="none" points="713,641.12,720,621.12,727,641.12,713,641.12" style="stroke:#181818;stroke-width:1.0;"/></g><!--link Photos to Property--><g id="link_Photos_Property"><path codeLine="108" d="M720,480.22 C720,501.31 720,532.31 720,555.57 " fill="none" id="Photos-Property" style="stroke:#181818;stroke-width:1.0;"/><polygon fill="#000000" points="725,513.2617,722.0611,522.3068,727.9389,522.3068,725,513.2617" style="stroke:#000000;stroke-width:1.0;"/><text fill="#000000" font-family="sans-serif" font-size="13" lengthAdjust="spacing" textLength="21" x="734" y="522.7686">has</text><text fill="#000000" font-family="sans-serif" font-size="13" lengthAdjust="spacing" textLength="29" x="687.2844" y="500.1478">1..30</text><text fill="#000000" font-family="sans-serif" font-size="13" lengthAdjust="spacing" textLength="7" x="712.2781" y="545.165">1</text></g><!--reverse link Residence to House--><g id="link_Residence_House"><path codeLine="109" d="M762.44,779.21 C777.74,799.28 794.47,821.24 807.69,838.6 " fill="none" id="Residence-backto-House" style="stroke:#181818;stroke-width:1.0;"/><polygon fill="none" points="756.86,783.43,750.31,763.28,768,774.95,756.86,783.43" style="stroke:#181818;stroke-width:1.0;"/></g><!--link Residence to AvailableEquipment--><g id="link_Residence_AvailableEquipment"><path codeLine="110" d="M708.36,763.28 C700.55,789.98 690.53,824.26 683.94,846.78 " fill="none" id="Residence-AvailableEquipment" style="stroke:#181818;stroke-width:1.0;"/><polygon fill="#000000" points="702.5965,806.0607,707.9562,798.2042,702.3147,796.5543,702.5965,806.0607" style="stroke:#000000;stroke-width:1.0;"/><text fill="#000000" font-family="sans-serif" font-size="13" lengthAdjust="spacing" textLength="49" x="713" y="805.7686">contains</text><text fill="#000000" font-family="sans-serif" font-size="13" lengthAdjust="spacing" textLength="7" x="699.0417" y="782.4384">1</text><text fill="#000000" font-family="sans-serif" font-size="13" lengthAdjust="spacing" textLength="5" x="680.1333" y="836.0563">*</text></g><!--link House to SunExposure--><g id="link_House_SunExposure"><path codeLine="111" d="M832,904.21 C832,927.53 832,958.73 832,979.88 " fill="none" id="House-SunExposure" style="stroke:#181818;stroke-width:1.0;"/><polygon fill="#000000" points="837,947.2617,839.9389,938.2166,834.0611,938.2166,837,947.2617" style="stroke:#000000;stroke-width:1.0;"/><text fill="#000000" font-family="sans-serif" font-size="13" lengthAdjust="spacing" textLength="49" x="846" y="946.7686">contains</text><text fill="#000000" font-family="sans-serif" font-size="13" lengthAdjust="spacing" textLength="7" x="824.3328" y="923.6056">1</text><text fill="#000000" font-family="sans-serif" font-size="13" lengthAdjust="spacing" textLength="5" x="826.3281" y="969.1832">*</text></g><!--link PublishedAnnouncement to Comission--><g id="link_PublishedAnnouncement_Comission"><path codeLine="112" d="M517.64,455.5 C542.41,455.5 568.35,455.5 588.41,455.5 " fill="none" id="PublishedAnnouncement-Comission" style="stroke:#181818;stroke-width:1.0;"/><polygon fill="#000000" points="545,444.7617,535.9549,441.8228,535.9549,447.7006,545,444.7617" style="stroke:#000000;stroke-width:1.0;"/><text fill="#000000" font-family="sans-serif" font-size="13" lengthAdjust="spacing" textLength="21" x="549" y="449.2686">has</text><text fill="#000000" font-family="sans-serif" font-size="13" lengthAdjust="spacing" textLength="7" x="525.4888" y="452.6639">1</text><text fill="#000000" font-family="sans-serif" font-size="13" lengthAdjust="spacing" textLength="7" x="573.3477" y="451.8498">1</text></g><!--link Business to PublishedAnnouncement--><g id="link_Business_PublishedAnnouncement"><path codeLine="113" d="M489.23,347.22 C476.13,373.62 455.33,415.55 444,438.39 " fill="none" id="Business-PublishedAnnouncement" style="stroke:#181818;stroke-width:1.0;"/><polygon fill="#000000" points="478.2221,388.7826,471.5695,395.5793,476.835,398.1915,478.2221,388.7826" style="stroke:#000000;stroke-width:1.0;"/><text fill="#000000" font-family="sans-serif" font-size="13" lengthAdjust="spacing" textLength="21" x="485" y="397.7686">has</text><text fill="#000000" font-family="sans-serif" font-size="13" lengthAdjust="spacing" textLength="7" x="478.3171" y="367.1478">1</text><text fill="#000000" font-family="sans-serif" font-size="13" lengthAdjust="spacing" textLength="7" x="438.6031" y="427.7266">1</text></g><!--link Address to Property--><g id="link_Address_Property"><path codeLine="115" d="M553.55,588.5 C573.08,588.5 598.56,588.5 623.69,588.5 " fill="none" id="Address-Property" style="stroke:#181818;stroke-width:1.0;"/><polygon fill="#000000" points="570.75,577.7617,579.7951,580.7006,579.7951,574.8228,570.75,577.7617" style="stroke:#000000;stroke-width:1.0;"/><text fill="#000000" font-family="sans-serif" font-size="13" lengthAdjust="spacing" textLength="21" x="584.75" y="582.2686">has</text><text fill="#000000" font-family="sans-serif" font-size="13" lengthAdjust="spacing" textLength="7" x="561.3978" y="584.8868">1</text><text fill="#000000" font-family="sans-serif" font-size="13" lengthAdjust="spacing" textLength="7" x="609.0483" y="585.7556">1</text></g><!--link District to State--><g id="link_District_State"><path codeLine="116" d="M251.88,588.5 C275.13,588.5 302.85,588.5 325.37,588.5 " fill="none" id="District-State" style="stroke:#181818;stroke-width:1.0;"/><polygon fill="#000000" points="279,577.7617,269.9549,574.8228,269.9549,580.7006,279,577.7617" style="stroke:#000000;stroke-width:1.0;"/><text fill="#000000" font-family="sans-serif" font-size="13" lengthAdjust="spacing" textLength="24" x="283" y="582.2686">is in</text><text fill="#000000" font-family="sans-serif" font-size="13" lengthAdjust="spacing" textLength="5" x="259.5944" y="585.2152">*</text><text fill="#000000" font-family="sans-serif" font-size="13" lengthAdjust="spacing" textLength="7" x="310.4414" y="585.0862">1</text></g><!--link City to District--><g id="link_City_District"><path codeLine="117" d="M83.08,588.5 C105.04,588.5 132.85,588.5 156.26,588.5 " fill="none" id="City-District" style="stroke:#181818;stroke-width:1.0;"/><polygon fill="#000000" points="110.25,577.7617,101.2049,574.8228,101.2049,580.7006,110.25,577.7617" style="stroke:#000000;stroke-width:1.0;"/><text fill="#000000" font-family="sans-serif" font-size="13" lengthAdjust="spacing" textLength="24" x="114.25" y="582.2686">is in</text><text fill="#000000" font-family="sans-serif" font-size="13" lengthAdjust="spacing" textLength="5" x="91.0692" y="584.9143">*</text><text fill="#000000" font-family="sans-serif" font-size="13" lengthAdjust="spacing" textLength="7" x="141.4139" y="585.2152">1</text></g><!--link State to Address--><g id="link_State_Address"><path codeLine="118" d="M410.87,588.5 C434.06,588.5 462.34,588.5 484.16,588.5 " fill="none" id="State-Address" style="stroke:#181818;stroke-width:1.0;"/><polygon fill="#000000" points="438,577.7617,428.9549,574.8228,428.9549,580.7006,438,577.7617" style="stroke:#000000;stroke-width:1.0;"/><text fill="#000000" font-family="sans-serif" font-size="13" lengthAdjust="spacing" textLength="24" x="442" y="582.2686">is in</text><text fill="#000000" font-family="sans-serif" font-size="13" lengthAdjust="spacing" textLength="7" x="418.55" y="585.1292">1</text><text fill="#000000" font-family="sans-serif" font-size="13" lengthAdjust="spacing" textLength="5" x="471.4586" y="584.8868">*</text></g><!--SRC=[TLHDZzem4BtxLuouL5g9rQvwGwjAB8jKf1RGGdlepIGJOX7RgUrqbzB-zuuTx1X4BuapVcy-tip47eHgkU4If5Qwg8sM2Cvqo6owQNbnu7lSk6E3OB1mNEsR761hNketeVPGySOYOnyQh1mu3KRiQmUby2oX5Sj8HSEjdJfdnAvpk2YqseZV20-CrQ94A8GfA4WuItIrBYrZB91WBjj67n5Fx6yqhT5OhKvioIMokUIYOUjQAuHb9tTes9Q_n-EQyAqsBdvFozAWjOEl9RetRGvVkQAgJHPaLLN-EyHOcH8DJANKdN83vEmCJcpZ3A9ZFqGBCrrY1lb5sV5TW_EVdMWbAaVeTFQuC_2viqBrphRQyGPQ8mhC03FXZdGPNY6f56EcfR2M5AVhxxpfSjQBi2HwuQEcOsIV8PzrPv7kdxd5aDH2rNmddCyQlkWgpv9aTjhd-ErraVN3w1PDI6zga8T8N1K85KqOkDetc6uBSauj66ZThX6sndAg50bRu5cU17X5InFX7L4VGlz0L_2CfT5Qsjp4NNrjMtDpy5EweOb6czMmSTnXw9b_NqgvwTJylTMsCnWKYwES0DjZYwigAzWR_7K_a_3qPpnE8ylY0SXuEMYKpQK1HdSZ68TdcBm9259BbTPlbYKNdrYmzpW2Fevk2pY1cbj2trQNc35vTbKBUOn-ewdtzSII8PINsiBEup1wlB__-32aTKqV-XZuOU0oe-UC-z9lhCi4w6_Xk52-g7vMCqBMi0lWxUe3CJo7dPdqSgNzYyx_fs-gAlvBUaRu-Lq9497zf0MO_rUUKu_xI9ssr6p2fGszXlgb7s0fxbs68aO8Cy3OFm00]--></g></svg>