<?xml version="1.0" encoding="UTF-8" standalone="no"?><svg xmlns="http://www.w3.org/2000/svg" xmlns:xlink="http://www.w3.org/1999/xlink" contentStyleType="text/css" height="1291px" preserveAspectRatio="none" style="width:1180px;height:1291px;background:#FFFFFF;" version="1.1" viewBox="0 0 1180 1291" width="1180px" zoomAndPan="magnify"><defs/><g><!--class Employee--><g id="elem_Employee"><rect codeLine="13" fill="#F1F1F1" height="43.1563" id="Employee" rx="2.5" ry="2.5" style="stroke:#181818;stroke-width:0.5;" width="93" x="116" y="237"/><text fill="#000000" font-family="sans-serif" font-size="20" lengthAdjust="spacing" textLength="87" x="119" y="262.7617">Employee</text><line style="stroke:#181818;stroke-width:0.5;" x1="117" x2="208" y1="272.1563" y2="272.1563"/></g><!--class Person--><g id="elem_Person"><rect codeLine="16" fill="#F1F1F1" height="168.9375" id="Person" rx="2.5" ry="2.5" style="stroke:#181818;stroke-width:0.5;" width="165" x="80" y="7"/><text fill="#000000" font-family="sans-serif" font-size="20" lengthAdjust="spacing" textLength="62" x="131.5" y="32.7617">Person</text><line style="stroke:#181818;stroke-width:0.5;" x1="81" x2="244" y1="42.1563" y2="42.1563"/><text fill="#000000" font-family="sans-serif" font-size="20" lengthAdjust="spacing" textLength="51" x="86" y="66.918">Name</text><text fill="#000000" font-family="sans-serif" font-size="20" lengthAdjust="spacing" textLength="48" x="86" y="92.0742">Email</text><text fill="#000000" font-family="sans-serif" font-size="20" lengthAdjust="spacing" textLength="129" x="86" y="117.2305">Phone Number</text><text fill="#000000" font-family="sans-serif" font-size="20" lengthAdjust="spacing" textLength="106" x="86" y="142.3867">Tax Number</text><text fill="#000000" font-family="sans-serif" font-size="20" lengthAdjust="spacing" textLength="153" x="86" y="167.543">Passport Number</text></g><!--class NetworkManager--><g id="elem_NetworkManager"><rect codeLine="24" fill="#F1F1F1" height="43.1563" id="NetworkManager" rx="2.5" ry="2.5" style="stroke:#181818;stroke-width:0.5;" width="157" x="84" y="366"/><text fill="#000000" font-family="sans-serif" font-size="20" lengthAdjust="spacing" textLength="151" x="87" y="391.7617">NetworkManager</text><line style="stroke:#181818;stroke-width:0.5;" x1="85" x2="240" y1="401.1563" y2="401.1563"/></g><!--class Offer--><g id="elem_Offer"><rect codeLine="27" fill="#F1F1F1" height="93.4688" id="Offer" rx="2.5" ry="2.5" style="stroke:#181818;stroke-width:0.5;" width="152" x="420.5" y="341"/><text fill="#000000" font-family="sans-serif" font-size="20" lengthAdjust="spacing" textLength="46" x="473.5" y="366.7617">Offer</text><line style="stroke:#181818;stroke-width:0.5;" x1="421.5" x2="571.5" y1="376.1563" y2="376.1563"/><text fill="#000000" font-family="sans-serif" font-size="20" lengthAdjust="spacing" textLength="51" x="426.5" y="400.918">Name</text><text fill="#000000" font-family="sans-serif" font-size="20" lengthAdjust="spacing" textLength="140" x="426.5" y="426.0742">Order Ammount</text></g><!--class Address--><g id="elem_Address"><rect codeLine="32" fill="#F1F1F1" height="93.4688" id="Address" rx="2.5" ry="2.5" style="stroke:#181818;stroke-width:0.5;" width="92" x="628.5" y="676"/><text fill="#000000" font-family="sans-serif" font-size="20" lengthAdjust="spacing" textLength="73" x="638" y="701.7617">Address</text><line style="stroke:#181818;stroke-width:0.5;" x1="629.5" x2="719.5" y1="711.1563" y2="711.1563"/><text fill="#000000" font-family="sans-serif" font-size="20" lengthAdjust="spacing" textLength="54" x="634.5" y="735.918">Street</text><text fill="#000000" font-family="sans-serif" font-size="20" lengthAdjust="spacing" textLength="80" x="634.5" y="761.0742">Zip Code</text></g><!--class AvailableEquipment--><g id="elem_AvailableEquipment"><rect codeLine="37" fill="#F1F1F1" height="68.3125" id="AvailableEquipment" rx="2.5" ry="2.5" style="stroke:#181818;stroke-width:0.5;" width="176" x="794.5" y="1048.5"/><text fill="#000000" font-family="sans-serif" font-size="20" lengthAdjust="spacing" textLength="170" x="797.5" y="1074.2617">AvailableEquipment</text><line style="stroke:#181818;stroke-width:0.5;" x1="795.5" x2="969.5" y1="1083.6563" y2="1083.6563"/><text fill="#000000" font-family="sans-serif" font-size="20" lengthAdjust="spacing" textLength="92" x="800.5" y="1108.418">Equipment</text></g><!--class Business--><g id="elem_Business"><rect codeLine="42" fill="#F1F1F1" height="68.3125" id="Business" rx="2.5" ry="2.5" style="stroke:#181818;stroke-width:0.5;" width="105" x="608" y="353.5"/><text fill="#000000" font-family="sans-serif" font-size="20" lengthAdjust="spacing" textLength="78" x="621.5" y="379.2617">Business</text><line style="stroke:#181818;stroke-width:0.5;" x1="609" x2="712" y1="388.6563" y2="388.6563"/><text fill="#000000" font-family="sans-serif" font-size="20" lengthAdjust="spacing" textLength="93" x="614" y="413.418">Total price</text></g><!--class City--><g id="elem_City"><rect codeLine="47" fill="#F1F1F1" height="68.3125" id="City" rx="2.5" ry="2.5" style="stroke:#181818;stroke-width:0.5;" width="103" x="7" y="688.5"/><text fill="#000000" font-family="sans-serif" font-size="20" lengthAdjust="spacing" textLength="34" x="41.5" y="714.2617">City</text><line style="stroke:#181818;stroke-width:0.5;" x1="8" x2="109" y1="723.6563" y2="723.6563"/><text fill="#000000" font-family="sans-serif" font-size="20" lengthAdjust="spacing" textLength="91" x="13" y="748.418">City Name</text></g><!--class Comission--><g id="elem_Comission"><rect codeLine="51" fill="#F1F1F1" height="68.3125" id="Comission" rx="2.5" ry="2.5" style="stroke:#181818;stroke-width:0.5;" width="96" x="775.5" y="521"/><text fill="#000000" font-family="sans-serif" font-size="20" lengthAdjust="spacing" textLength="90" x="778.5" y="546.7617">Comission</text><line style="stroke:#181818;stroke-width:0.5;" x1="776.5" x2="870.5" y1="556.1563" y2="556.1563"/><text fill="#000000" font-family="sans-serif" font-size="20" lengthAdjust="spacing" textLength="49" x="781.5" y="580.918">Value</text></g><!--class District--><g id="elem_District"><rect codeLine="56" fill="#F1F1F1" height="68.3125" id="District" rx="2.5" ry="2.5" style="stroke:#181818;stroke-width:0.5;" width="130" x="200.5" y="688.5"/><text fill="#000000" font-family="sans-serif" font-size="20" lengthAdjust="spacing" textLength="61" x="235" y="714.2617">District</text><line style="stroke:#181818;stroke-width:0.5;" x1="201.5" x2="329.5" y1="723.6563" y2="723.6563"/><text fill="#000000" font-family="sans-serif" font-size="20" lengthAdjust="spacing" textLength="118" x="206.5" y="748.418">District Name</text></g><!--class House--><g id="elem_House"><rect codeLine="61" fill="#F1F1F1" height="93.4688" id="House" rx="2.5" ry="2.5" style="stroke:#181818;stroke-width:0.5;" width="147" x="1006" y="1036"/><text fill="#000000" font-family="sans-serif" font-size="20" lengthAdjust="spacing" textLength="55" x="1052" y="1061.7617">House</text><line style="stroke:#181818;stroke-width:0.5;" x1="1007" x2="1152" y1="1071.1563" y2="1071.1563"/><text fill="#000000" font-family="sans-serif" font-size="20" lengthAdjust="spacing" textLength="88" x="1012" y="1095.918">Basement</text><text fill="#000000" font-family="sans-serif" font-size="20" lengthAdjust="spacing" textLength="135" x="1012" y="1121.0742">Inhabitable Loft</text></g><!--class Photos--><g id="elem_Photos"><rect codeLine="67" fill="#F1F1F1" height="68.3125" id="Photos" rx="2.5" ry="2.5" style="stroke:#181818;stroke-width:0.5;" width="67" x="907" y="521"/><text fill="#000000" font-family="sans-serif" font-size="20" lengthAdjust="spacing" textLength="61" x="910" y="546.7617">Photos</text><line style="stroke:#181818;stroke-width:0.5;" x1="908" x2="973" y1="556.1563" y2="556.1563"/><text fill="#000000" font-family="sans-serif" font-size="20" lengthAdjust="spacing" textLength="33" x="913" y="580.918">URI</text></g><!--class Property--><g id="elem_Property"><rect codeLine="71" fill="#F1F1F1" height="93.4688" id="Property" rx="2.5" ry="2.5" style="stroke:#181818;stroke-width:0.5;" width="264" x="808.5" y="676"/><text fill="#000000" font-family="sans-serif" font-size="20" lengthAdjust="spacing" textLength="76" x="902.5" y="701.7617">Property</text><line style="stroke:#181818;stroke-width:0.5;" x1="809.5" x2="1071.5" y1="711.1563" y2="711.1563"/><text fill="#000000" font-family="sans-serif" font-size="20" lengthAdjust="spacing" textLength="42" x="814.5" y="735.918">Area</text><text fill="#000000" font-family="sans-serif" font-size="20" lengthAdjust="spacing" textLength="252" x="814.5" y="761.0742">Distance from the city center</text></g><!--class PublishedAnnouncement--><g id="elem_PublishedAnnouncement"><rect codeLine="76" fill="#F1F1F1" height="43.1563" id="PublishedAnnouncement" rx="2.5" ry="2.5" style="stroke:#181818;stroke-width:0.5;" width="218" x="469.5" y="533.5"/><text fill="#000000" font-family="sans-serif" font-size="20" lengthAdjust="spacing" textLength="212" x="472.5" y="559.2617">PublishedAnnouncement</text><line style="stroke:#181818;stroke-width:0.5;" x1="470.5" x2="686.5" y1="568.6563" y2="568.6563"/></g><!--class Residence--><g id="elem_Residence"><rect codeLine="79" fill="#F1F1F1" height="118.625" id="Residence" rx="2.5" ry="2.5" style="stroke:#181818;stroke-width:0.5;" width="247" x="817" y="830"/><text fill="#000000" font-family="sans-serif" font-size="20" lengthAdjust="spacing" textLength="92" x="894.5" y="855.7617">Residence</text><line style="stroke:#181818;stroke-width:0.5;" x1="818" x2="1063" y1="865.1563" y2="865.1563"/><text fill="#000000" font-family="sans-serif" font-size="20" lengthAdjust="spacing" textLength="187" x="823" y="889.918">Number of Bedrooms</text><text fill="#000000" font-family="sans-serif" font-size="20" lengthAdjust="spacing" textLength="192" x="823" y="915.0742">Number of Bathrooms</text><text fill="#000000" font-family="sans-serif" font-size="20" lengthAdjust="spacing" textLength="235" x="823" y="940.2305">Number of Parking Spaces</text></g><!--class State--><g id="elem_State"><rect codeLine="86" fill="#F1F1F1" height="68.3125" id="State" rx="2.5" ry="2.5" style="stroke:#181818;stroke-width:0.5;" width="116" x="421.5" y="688.5"/><text fill="#000000" font-family="sans-serif" font-size="20" lengthAdjust="spacing" textLength="47" x="456" y="714.2617">State</text><line style="stroke:#181818;stroke-width:0.5;" x1="422.5" x2="536.5" y1="723.6563" y2="723.6563"/><text fill="#000000" font-family="sans-serif" font-size="20" lengthAdjust="spacing" textLength="104" x="427.5" y="748.418">State Name</text></g><!--class SunExposure--><g id="elem_SunExposure"><rect codeLine="90" fill="#F1F1F1" height="68.3125" id="SunExposure" rx="2.5" ry="2.5" style="stroke:#181818;stroke-width:0.5;" width="121" x="1019" y="1216"/><text fill="#000000" font-family="sans-serif" font-size="20" lengthAdjust="spacing" textLength="115" x="1022" y="1241.7617">SunExposure</text><line style="stroke:#181818;stroke-width:0.5;" x1="1020" x2="1139" y1="1251.1563" y2="1251.1563"/><text fill="#000000" font-family="sans-serif" font-size="20" lengthAdjust="spacing" textLength="77" x="1025" y="1275.918">Direction</text></g><!--class TypeOfProperty--><g id="elem_TypeOfProperty"><rect codeLine="94" fill="#F1F1F1" height="68.3125" id="TypeOfProperty" rx="2.5" ry="2.5" style="stroke:#181818;stroke-width:0.5;" width="148" x="1009.5" y="521"/><text fill="#000000" font-family="sans-serif" font-size="20" lengthAdjust="spacing" textLength="142" x="1012.5" y="546.7617">TypeOfProperty</text><line style="stroke:#181818;stroke-width:0.5;" x1="1010.5" x2="1156.5" y1="556.1563" y2="556.1563"/><text fill="#000000" font-family="sans-serif" font-size="20" lengthAdjust="spacing" textLength="44" x="1015.5" y="580.918">Type</text></g><!--reverse link Person to Employee--><g id="link_Person_Employee"><path codeLine="98" d="M162.5,196.49 C162.5,211.7 162.5,225.87 162.5,236.72 " fill="none" id="Person-backto-Employee" style="stroke:#181818;stroke-width:1.0;"/><polygon fill="none" points="155.5,196.45,162.5,176.45,169.5,196.45,155.5,196.45" style="stroke:#181818;stroke-width:1.0;"/></g><!--link Employee to NetworkManager--><g id="link_Employee_NetworkManager"><path codeLine="99" d="M162.5,280.19 C162.5,303.8 162.5,342.21 162.5,365.82 " fill="none" id="Employee-NetworkManager" style="stroke:#181818;stroke-width:1.0;"/></g><!--link NetworkManager to Offer--><g id="link_NetworkManager_Offer"><path codeLine="102" d="M241.23,387.5 C295.33,387.5 366.77,387.5 420.31,387.5 " fill="none" id="NetworkManager-Offer" style="stroke:#181818;stroke-width:1.0;"/><polygon fill="#000000" points="274.25,371.0781,259.7779,366.3758,259.7779,375.7804,274.25,371.0781" style="stroke:#000000;stroke-width:1.0;"/><text fill="#000000" font-family="sans-serif" font-size="20" lengthAdjust="spacing" textLength="123" x="279.25" y="379.2617">intends to see</text><text fill="#000000" font-family="sans-serif" font-size="20" lengthAdjust="spacing" textLength="8" x="249.1152" y="382.0703">*</text><text fill="#000000" font-family="sans-serif" font-size="20" lengthAdjust="spacing" textLength="8" x="404.4163" y="382.0159">*</text></g><!--link Offer to PublishedAnnouncement--><g id="link_Offer_PublishedAnnouncement"><path codeLine="103" d="M519.12,434.16 C535.15,466.5 555.89,508.37 568.14,533.09 " fill="none" id="Offer-PublishedAnnouncement" style="stroke:#181818;stroke-width:1.0;"/><polygon fill="#000000" points="559.0519,484.7464,556.8399,469.6911,548.4131,473.8666,559.0519,484.7464" style="stroke:#000000;stroke-width:1.0;"/><text fill="#000000" font-family="sans-serif" font-size="20" lengthAdjust="spacing" textLength="31" x="568.5" y="485.7617">has</text><text fill="#000000" font-family="sans-serif" font-size="20" lengthAdjust="spacing" textLength="8" x="513.7384" y="463.2191">*</text><text fill="#000000" font-family="sans-serif" font-size="20" lengthAdjust="spacing" textLength="11" x="553.4724" y="520.8944">1</text></g><!--link PublishedAnnouncement to Property--><g id="link_PublishedAnnouncement_Property"><path codeLine="104" d="M623.62,576.63 C677.63,601.32 769.7,643.41 840.72,675.88 " fill="none" id="PublishedAnnouncement-Property" style="stroke:#181818;stroke-width:1.0;"/></g><!--link TypeOfProperty to Property--><g id="link_TypeOfProperty_Property"><path codeLine="105" d="M1054.91,589.09 C1033.39,614 1003.64,648.42 979.88,675.93 " fill="none" id="TypeOfProperty-Property" style="stroke:#181818;stroke-width:1.0;"/><polygon fill="#000000" points="1041.7302,626.5246,1028.7105,634.4012,1035.8268,640.5498,1041.7302,626.5246" style="stroke:#000000;stroke-width:1.0;"/><text fill="#000000" font-family="sans-serif" font-size="20" lengthAdjust="spacing" textLength="31" x="1049.5" y="640.7617">has</text></g><!--reverse link Property to Residence--><g id="link_Property_Residence"><path codeLine="106" d="M940.5,789.33 C940.5,802.71 940.5,816.7 940.5,829.81 " fill="none" id="Property-backto-Residence" style="stroke:#181818;stroke-width:1.0;"/><polygon fill="none" points="933.5,789.02,940.5,769.02,947.5,789.02,933.5,789.02" style="stroke:#181818;stroke-width:1.0;"/></g><!--link Photos to Property--><g id="link_Photos_Property"><path codeLine="107" d="M940.5,589.09 C940.5,614 940.5,648.42 940.5,675.93 " fill="none" id="Photos-Property" style="stroke:#181818;stroke-width:1.0;"/><polygon fill="#000000" points="948.5,624.5781,943.7977,639.0503,953.2023,639.0503,948.5,624.5781" style="stroke:#000000;stroke-width:1.0;"/><text fill="#000000" font-family="sans-serif" font-size="20" lengthAdjust="spacing" textLength="31" x="961.5" y="640.7617">has</text><text fill="#000000" font-family="sans-serif" font-size="20" lengthAdjust="spacing" textLength="45" x="891.4922" y="618.1366">1..30</text><text fill="#000000" font-family="sans-serif" font-size="20" lengthAdjust="spacing" textLength="11" x="928.7609" y="663.7332">1</text></g><!--reverse link Residence to House--><g id="link_Residence_House"><path codeLine="108" d="M1004.86,964.92 C1008.53,969.63 1012.1,974.35 1015.5,979 C1028.67,997.05 1041.96,1017.82 1052.99,1035.92 " fill="none" id="Residence-backto-House" style="stroke:#181818;stroke-width:1.0;"/><polygon fill="none" points="999.19,969.03,992.15,949.05,1010.11,960.28,999.19,969.03" style="stroke:#181818;stroke-width:1.0;"/></g><!--link Residence to AvailableEquipment--><g id="link_Residence_AvailableEquipment"><path codeLine="109" d="M922.7,949.1 C912.81,981.67 900.87,1021.01 892.58,1048.3 " fill="none" id="Residence-AvailableEquipment" style="stroke:#181818;stroke-width:1.0;"/><polygon fill="#000000" points="919.1757,1000.233,927.8798,987.7513,918.8809,985.019,919.1757,1000.233" style="stroke:#000000;stroke-width:1.0;"/><text fill="#000000" font-family="sans-serif" font-size="20" lengthAdjust="spacing" textLength="72" x="934.5" y="1000.7617">contains</text><text fill="#000000" font-family="sans-serif" font-size="20" lengthAdjust="spacing" textLength="11" x="909.2972" y="977.3244">1</text><text fill="#000000" font-family="sans-serif" font-size="20" lengthAdjust="spacing" textLength="8" x="885.625" y="1036.0217">*</text></g><!--link House to SunExposure--><g id="link_House_SunExposure"><path codeLine="110" d="M1079.5,1129.16 C1079.5,1156.62 1079.5,1190.95 1079.5,1215.82 " fill="none" id="House-SunExposure" style="stroke:#181818;stroke-width:1.0;"/><polygon fill="#000000" points="1087.5,1180.5781,1092.2023,1166.106,1082.7977,1166.106,1087.5,1180.5781" style="stroke:#000000;stroke-width:1.0;"/><text fill="#000000" font-family="sans-serif" font-size="20" lengthAdjust="spacing" textLength="72" x="1100.5" y="1180.7617">contains</text><text fill="#000000" font-family="sans-serif" font-size="20" lengthAdjust="spacing" textLength="11" x="1067.7266" y="1158.2191">1</text><text fill="#000000" font-family="sans-serif" font-size="20" lengthAdjust="spacing" textLength="8" x="1070.8125" y="1203.5452">*</text></g><!--link PublishedAnnouncement to Comission--><g id="link_PublishedAnnouncement_Comission"><path codeLine="111" d="M687.74,555 C718.37,555 750.11,555 775.2,555 " fill="none" id="PublishedAnnouncement-Comission" style="stroke:#181818;stroke-width:1.0;"/><polygon fill="#000000" points="721,538.5781,706.5279,533.8758,706.5279,543.2804,721,538.5781" style="stroke:#000000;stroke-width:1.0;"/><text fill="#000000" font-family="sans-serif" font-size="20" lengthAdjust="spacing" textLength="31" x="726" y="546.7617">has</text><text fill="#000000" font-family="sans-serif" font-size="20" lengthAdjust="spacing" textLength="11" x="695.4491" y="549.9219">1</text><text fill="#000000" font-family="sans-serif" font-size="20" lengthAdjust="spacing" textLength="11" x="756.6344" y="548.9929">1</text></g><!--link Business to PublishedAnnouncement--><g id="link_Business_PublishedAnnouncement"><path codeLine="112" d="M644.1,421.59 C627.56,454.99 602.53,505.5 588.66,533.49 " fill="none" id="Business-PublishedAnnouncement" style="stroke:#181818;stroke-width:1.0;"/><polygon fill="#000000" points="634.0515,470.4097,623.4132,481.29,631.8402,485.4651,634.0515,470.4097" style="stroke:#000000;stroke-width:1.0;"/><text fill="#000000" font-family="sans-serif" font-size="20" lengthAdjust="spacing" textLength="31" x="643.5" y="485.7617">has</text><text fill="#000000" font-family="sans-serif" font-size="20" lengthAdjust="spacing" textLength="11" x="629.1991" y="450.6366">1</text><text fill="#000000" font-family="sans-serif" font-size="20" lengthAdjust="spacing" textLength="11" x="578.7959" y="520.9618">1</text></g><!--link Address to Property--><g id="link_Address_Property"><path codeLine="114" d="M720.53,722.5 C745.14,722.5 776.82,722.5 808.44,722.5 " fill="none" id="Address-Property" style="stroke:#181818;stroke-width:1.0;"/><polygon fill="#000000" points="738,706.0781,752.4721,710.7804,752.4721,701.3758,738,706.0781" style="stroke:#000000;stroke-width:1.0;"/><text fill="#000000" font-family="sans-serif" font-size="20" lengthAdjust="spacing" textLength="31" x="759" y="714.2617">has</text><text fill="#000000" font-family="sans-serif" font-size="20" lengthAdjust="spacing" textLength="11" x="728.4205" y="716.3237">1</text><text fill="#000000" font-family="sans-serif" font-size="20" lengthAdjust="spacing" textLength="11" x="789.4873" y="717.53">1</text></g><!--link District to State--><g id="link_District_State"><path codeLine="115" d="M330.58,722.5 C359.48,722.5 393.22,722.5 421.27,722.5 " fill="none" id="District-State" style="stroke:#181818;stroke-width:1.0;"/><polygon fill="#000000" points="364,706.0781,349.5279,701.3758,349.5279,710.7804,364,706.0781" style="stroke:#000000;stroke-width:1.0;"/><text fill="#000000" font-family="sans-serif" font-size="20" lengthAdjust="spacing" textLength="34" x="369" y="714.2617">is in</text><text fill="#000000" font-family="sans-serif" font-size="20" lengthAdjust="spacing" textLength="8" x="338.5674" y="716.8074">*</text><text fill="#000000" font-family="sans-serif" font-size="20" lengthAdjust="spacing" textLength="11" x="402.5029" y="716.7288">1</text></g><!--link City to District--><g id="link_City_District"><path codeLine="116" d="M110.2,722.5 C137.5,722.5 171.29,722.5 200.36,722.5 " fill="none" id="City-District" style="stroke:#181818;stroke-width:1.0;"/><polygon fill="#000000" points="143.25,706.0781,128.7779,701.3758,128.7779,710.7804,143.25,706.0781" style="stroke:#000000;stroke-width:1.0;"/><text fill="#000000" font-family="sans-serif" font-size="20" lengthAdjust="spacing" textLength="34" x="148.25" y="714.2617">is in</text><text fill="#000000" font-family="sans-serif" font-size="20" lengthAdjust="spacing" textLength="8" x="118.0328" y="716.4929">*</text><text fill="#000000" font-family="sans-serif" font-size="20" lengthAdjust="spacing" textLength="11" x="181.6338" y="716.886">1</text></g><!--link State to Address--><g id="link_State_Address"><path codeLine="117" d="M537.74,722.5 C566.7,722.5 601.2,722.5 628.3,722.5 " fill="none" id="State-Address" style="stroke:#181818;stroke-width:1.0;"/><polygon fill="#000000" points="571,706.0781,556.5279,701.3758,556.5279,710.7804,571,706.0781" style="stroke:#000000;stroke-width:1.0;"/><text fill="#000000" font-family="sans-serif" font-size="20" lengthAdjust="spacing" textLength="34" x="576" y="714.2617">is in</text><text fill="#000000" font-family="sans-serif" font-size="20" lengthAdjust="spacing" textLength="11" x="545.5083" y="716.7288">1</text><text fill="#000000" font-family="sans-serif" font-size="20" lengthAdjust="spacing" textLength="8" x="612.6131" y="716.3237">*</text></g><!--SRC=[TLJ1Rjim3BthAuXS1XJ8q6wte1YGTXbMO6k3fjjXDyMcOo6ow4dqsgpRlu-IOqS9ieija-zHv2Ffi3MkrLutbeejbb1YfJlBdyZnoln6U7UfmW21XXmLjQS6WNs7cQVLnLPlSCKxY-2nOEqsDWU4MfVqRDm6Acq3AlN6OiN01DviQeRIH9OXfp9IONK8SsPlrXtZNK4kvNIfL6rAXCBuGYv9vmQvfZ8efH895arhQOVugluEfYNwGEvLtUi6rQBHngfbJGxXlclMwDMJVXcEIy6tv7du7cFS8p-JttxLJghrMV27gehVAVQ3Bz73l6ceSto0pClIexnVrOez8giVfeLRAZ63_9AizDhYucTdsWOT2teyHzmUUDC5u_fWJyJQGkjDWHdWrl1EdEcLaXhlkAN6X21AY_kxjbtE-cY2Y5t4MyVZmDv3FbCNKFmtEc1AwixLUcquPWrVgCgp57cPOexV7k-oFdXgqQVqvXvrkacx0g6IoGAkOsF5MqZmNFfbjxOcr5ZEdHDX2zpBCm8UCSWan43IXzGte0fkiFH4JSXDckjJsrBxRPpEbKmoXgo65Ml6rBFuFfPorRd5IqkXyvWK6qPu13pjMdoeieAZ8RhxMOJhFzFfEAfgE80OZmTDiZasmEHY0jFqJ9Ct0oDgkJB4ZGeIueDAzXudmAl9UG5dKEiWwFFg2dD8NftKahcW3tAjHaEgQ-o7si_1vEhjs_UNXtnEwOS69dwQjCmOETE-vZDxCWFvFR0sBbRJ3sb6o3fr13nVTYAcvs5PPhrEu-8DmVydx5YL6lO-CTBVxaI00TcFM8B5d-C-zM4HfSL1kYouSJLFeN7R3x3nteiC9OnqpG6c_W40]--></g></svg>