<?xml version="1.0" encoding="us-ascii" standalone="no"?><svg xmlns="http://www.w3.org/2000/svg" xmlns:xlink="http://www.w3.org/1999/xlink" contentStyleType="text/css" height="877.6px" preserveAspectRatio="none" style="width:1042px;height:877px;background:#FFFFFF;" version="1.1" viewBox="0 0 1042 877" width="1042.4px" zoomAndPan="magnify"><defs/><g><!--class UnregisteredUser--><g id="elem_UnregisteredUser"><rect codeLine="137" fill="#F1F1F1" height="77.5813" id="UnregisteredUser" rx="2" ry="2" style="stroke:#181818;stroke-width:0.4000000000000001;" width="127.2" x="236.8" y="24"/><ellipse cx="248.8" cy="36.8" fill="#ADD1B2" rx="8.8" ry="8.8" style="stroke:#181818;stroke-width:0.8000000000000002;"/><path d="M250.4,34 Q250.5625,33.6 250.75,33.4 Q250.9375,33.2 251.15,33.2 Q251.525,33.2 251.7625,33.425 Q252,33.65 252,34.175 L252,35.425 Q252,35.95 251.775,36.175 Q251.55,36.4 251.2,36.4 Q250.8875,36.4 250.6875,36.2625 Q250.4875,36.125 250.4,35.7625 Q250.3625,35.5125 250.225,35.375 Q249.975,35.1125 249.525,34.9625 Q249.075,34.8 248.625,34.8 Q248.0625,34.8 247.5875,35.025 Q247.125,35.25 246.7625,35.75 Q246.4,36.25 246.4,36.9375 L246.4,37.675 Q246.4,38.5 247.075,39.05 Q247.75,39.6 248.95,39.6 Q249.6625,39.6 250.1625,39.4375 Q250.45,39.35 250.775,39.0625 Q250.9875,38.9 251.1,38.85 Q251.2125,38.8 251.35,38.8 Q251.6125,38.8 251.8,39.0125 Q252,39.2125 252,39.5 Q252,39.775 251.725,40.1 Q251.325,40.575 250.6875,40.8375 Q249.85,41.2 248.825,41.2 Q247.625,41.2 246.6625,40.725 Q245.8875,40.35 245.3375,39.5375 Q244.8,38.725 244.8,37.7625 L244.8,36.8875 Q244.8,35.8875 245.275,35.0125 Q245.7625,34.1375 246.6,33.675 Q247.45,33.2 248.4,33.2 Q248.975,33.2 249.475,33.4 Q249.975,33.6 250.4,34 Z " fill="#000000"/><text fill="#000000" font-family="sans-serif" font-size="13.6" lengthAdjust="spacing" textLength="101.6" x="260" y="41.5148">UnregisteredUser</text><line style="stroke:#181818;stroke-width:0.4000000000000001;" x1="237.6" x2="363.2" y1="49.6" y2="49.6"/><rect fill="none" height="4.8" style="stroke:#C82930;stroke-width:0.8000000000000002;" width="4.8" x="243.2" y="59.1969"/><text fill="#000000" font-family="sans-serif" font-size="13.6" lengthAdjust="spacing" textLength="92.8" x="252.8" y="65.1117">type of property</text><rect fill="none" height="4.8" style="stroke:#C82930;stroke-width:0.8000000000000002;" width="4.8" x="243.2" y="74.3906"/><text fill="#000000" font-family="sans-serif" font-size="13.6" lengthAdjust="spacing" textLength="95.2" x="252.8" y="80.3055">type of business</text><rect fill="none" height="4.8" style="stroke:#C82930;stroke-width:0.8000000000000002;" width="4.8" x="243.2" y="89.5844"/><text fill="#000000" font-family="sans-serif" font-size="13.6" lengthAdjust="spacing" textLength="99.2" x="252.8" y="95.4992">number of rooms</text></g><!--class SystemAdministrator--><g id="elem_SystemAdministrator"><rect codeLine="45" fill="#F1F1F1" height="25.6" id="SystemAdministrator" rx="2" ry="2" style="stroke:#181818;stroke-width:0.4000000000000001;" width="145.6" x="526" y="660"/><ellipse cx="538" cy="672.8" fill="#ADD1B2" rx="8.8" ry="8.8" style="stroke:#181818;stroke-width:0.8000000000000002;"/><path d="M539.6,670 Q539.7625,669.6 539.95,669.4 Q540.1375,669.2 540.35,669.2 Q540.725,669.2 540.9625,669.425 Q541.2,669.65 541.2,670.175 L541.2,671.425 Q541.2,671.95 540.975,672.175 Q540.75,672.4 540.4,672.4 Q540.0875,672.4 539.8875,672.2625 Q539.6875,672.125 539.6,671.7625 Q539.5625,671.5125 539.425,671.375 Q539.175,671.1125 538.725,670.9625 Q538.275,670.8 537.825,670.8 Q537.2625,670.8 536.7875,671.025 Q536.325,671.25 535.9625,671.75 Q535.6,672.25 535.6,672.9375 L535.6,673.675 Q535.6,674.5 536.275,675.05 Q536.95,675.6 538.15,675.6 Q538.8625,675.6 539.3625,675.4375 Q539.65,675.35 539.975,675.0625 Q540.1875,674.9 540.3,674.85 Q540.4125,674.8 540.55,674.8 Q540.8125,674.8 541,675.0125 Q541.2,675.2125 541.2,675.5 Q541.2,675.775 540.925,676.1 Q540.525,676.575 539.8875,676.8375 Q539.05,677.2 538.025,677.2 Q536.825,677.2 535.8625,676.725 Q535.0875,676.35 534.5375,675.5375 Q534,674.725 534,673.7625 L534,672.8875 Q534,671.8875 534.475,671.0125 Q534.9625,670.1375 535.8,669.675 Q536.65,669.2 537.6,669.2 Q538.175,669.2 538.675,669.4 Q539.175,669.6 539.6,670 Z " fill="#000000"/><text fill="#000000" font-family="sans-serif" font-size="13.6" lengthAdjust="spacing" textLength="120" x="549.2" y="677.5148">SystemAdministrator</text></g><!--class Agent--><g id="elem_Agent"><rect codeLine="57" fill="#F1F1F1" height="25.6" id="Agent" rx="2" ry="2" style="stroke:#181818;stroke-width:0.4000000000000001;" width="59.2" x="475.6" y="199.2"/><ellipse cx="487.6" cy="212" fill="#ADD1B2" rx="8.8" ry="8.8" style="stroke:#181818;stroke-width:0.8000000000000002;"/><path d="M489.2,209.2 Q489.3625,208.8 489.55,208.6 Q489.7375,208.4 489.95,208.4 Q490.325,208.4 490.5625,208.625 Q490.8,208.85 490.8,209.375 L490.8,210.625 Q490.8,211.15 490.575,211.375 Q490.35,211.6 490,211.6 Q489.6875,211.6 489.4875,211.4625 Q489.2875,211.325 489.2,210.9625 Q489.1625,210.7125 489.025,210.575 Q488.775,210.3125 488.325,210.1625 Q487.875,210 487.425,210 Q486.8625,210 486.3875,210.225 Q485.925,210.45 485.5625,210.95 Q485.2,211.45 485.2,212.1375 L485.2,212.875 Q485.2,213.7 485.875,214.25 Q486.55,214.8 487.75,214.8 Q488.4625,214.8 488.9625,214.6375 Q489.25,214.55 489.575,214.2625 Q489.7875,214.1 489.9,214.05 Q490.0125,214 490.15,214 Q490.4125,214 490.6,214.2125 Q490.8,214.4125 490.8,214.7 Q490.8,214.975 490.525,215.3 Q490.125,215.775 489.4875,216.0375 Q488.65,216.4 487.625,216.4 Q486.425,216.4 485.4625,215.925 Q484.6875,215.55 484.1375,214.7375 Q483.6,213.925 483.6,212.9625 L483.6,212.0875 Q483.6,211.0875 484.075,210.2125 Q484.5625,209.3375 485.4,208.875 Q486.25,208.4 487.2,208.4 Q487.775,208.4 488.275,208.6 Q488.775,208.8 489.2,209.2 Z " fill="#000000"/><text fill="#000000" font-family="sans-serif" font-size="13.6" lengthAdjust="spacing" textLength="33.6" x="498.8" y="216.7148">Agent</text></g><!--class Store--><g id="elem_Store"><rect codeLine="61" fill="#F1F1F1" height="92.775" id="Store" rx="2" ry="2" style="stroke:#181818;stroke-width:0.4000000000000001;" width="111.2" x="751.2" y="626.4"/><ellipse cx="787.8" cy="639.2" fill="#ADD1B2" rx="8.8" ry="8.8" style="stroke:#181818;stroke-width:0.8000000000000002;"/><path d="M789.4,636.4 Q789.5625,636 789.75,635.8 Q789.9375,635.6 790.15,635.6 Q790.525,635.6 790.7625,635.825 Q791,636.05 791,636.575 L791,637.825 Q791,638.35 790.775,638.575 Q790.55,638.8 790.2,638.8 Q789.8875,638.8 789.6875,638.6625 Q789.4875,638.525 789.4,638.1625 Q789.3625,637.9125 789.225,637.775 Q788.975,637.5125 788.525,637.3625 Q788.075,637.2 787.625,637.2 Q787.0625,637.2 786.5875,637.425 Q786.125,637.65 785.7625,638.15 Q785.4,638.65 785.4,639.3375 L785.4,640.075 Q785.4,640.9 786.075,641.45 Q786.75,642 787.95,642 Q788.6625,642 789.1625,641.8375 Q789.45,641.75 789.775,641.4625 Q789.9875,641.3 790.1,641.25 Q790.2125,641.2 790.35,641.2 Q790.6125,641.2 790.8,641.4125 Q791,641.6125 791,641.9 Q791,642.175 790.725,642.5 Q790.325,642.975 789.6875,643.2375 Q788.85,643.6 787.825,643.6 Q786.625,643.6 785.6625,643.125 Q784.8875,642.75 784.3375,641.9375 Q783.8,641.125 783.8,640.1625 L783.8,639.2875 Q783.8,638.2875 784.275,637.4125 Q784.7625,636.5375 785.6,636.075 Q786.45,635.6 787.4,635.6 Q787.975,635.6 788.475,635.8 Q788.975,636 789.4,636.4 Z " fill="#000000"/><text fill="#000000" font-family="sans-serif" font-size="13.6" lengthAdjust="spacing" textLength="31.2" x="804.2" y="643.9148">Store</text><line style="stroke:#181818;stroke-width:0.4000000000000001;" x1="752" x2="861.6" y1="652" y2="652"/><rect fill="none" height="4.8" style="stroke:#C82930;stroke-width:0.8000000000000002;" width="4.8" x="757.6" y="661.5969"/><text fill="#000000" font-family="sans-serif" font-size="13.6" lengthAdjust="spacing" textLength="66.4" x="767.2" y="667.5117">designation</text><rect fill="none" height="4.8" style="stroke:#C82930;stroke-width:0.8000000000000002;" width="4.8" x="757.6" y="676.7906"/><text fill="#000000" font-family="sans-serif" font-size="13.6" lengthAdjust="spacing" textLength="44.8" x="767.2" y="682.7055">location</text><rect fill="none" height="4.8" style="stroke:#C82930;stroke-width:0.8000000000000002;" width="4.8" x="757.6" y="691.9844"/><text fill="#000000" font-family="sans-serif" font-size="13.6" lengthAdjust="spacing" textLength="30.4" x="767.2" y="697.8992">email</text><rect fill="none" height="4.8" style="stroke:#C82930;stroke-width:0.8000000000000002;" width="4.8" x="757.6" y="707.1781"/><text fill="#000000" font-family="sans-serif" font-size="13.6" lengthAdjust="spacing" textLength="90.4" x="767.2" y="713.093">contact number</text></g><!--class StoreManager--><g id="elem_StoreManager"><rect codeLine="68" fill="#F1F1F1" height="25.6" id="StoreManager" rx="2" ry="2" style="stroke:#181818;stroke-width:0.4000000000000001;" width="108" x="928.8" y="821.2"/><ellipse cx="940.8" cy="834" fill="#ADD1B2" rx="8.8" ry="8.8" style="stroke:#181818;stroke-width:0.8000000000000002;"/><path d="M942.4,831.2 Q942.5625,830.8 942.75,830.6 Q942.9375,830.4 943.15,830.4 Q943.525,830.4 943.7625,830.625 Q944,830.85 944,831.375 L944,832.625 Q944,833.15 943.775,833.375 Q943.55,833.6 943.2,833.6 Q942.8875,833.6 942.6875,833.4625 Q942.4875,833.325 942.4,832.9625 Q942.3625,832.7125 942.225,832.575 Q941.975,832.3125 941.525,832.1625 Q941.075,832 940.625,832 Q940.0625,832 939.5875,832.225 Q939.125,832.45 938.7625,832.95 Q938.4,833.45 938.4,834.1375 L938.4,834.875 Q938.4,835.7 939.075,836.25 Q939.75,836.8 940.95,836.8 Q941.6625,836.8 942.1625,836.6375 Q942.45,836.55 942.775,836.2625 Q942.9875,836.1 943.1,836.05 Q943.2125,836 943.35,836 Q943.6125,836 943.8,836.2125 Q944,836.4125 944,836.7 Q944,836.975 943.725,837.3 Q943.325,837.775 942.6875,838.0375 Q941.85,838.4 940.825,838.4 Q939.625,838.4 938.6625,837.925 Q937.8875,837.55 937.3375,836.7375 Q936.8,835.925 936.8,834.9625 L936.8,834.0875 Q936.8,833.0875 937.275,832.2125 Q937.7625,831.3375 938.6,830.875 Q939.45,830.4 940.4,830.4 Q940.975,830.4 941.475,830.6 Q941.975,830.8 942.4,831.2 Z " fill="#000000"/><text fill="#000000" font-family="sans-serif" font-size="13.6" lengthAdjust="spacing" textLength="82.4" x="952" y="838.7148">StoreManager</text></g><!--class Owner--><g id="elem_Owner"><rect codeLine="73" fill="#F1F1F1" height="62.3875" id="Owner" rx="2" ry="2" style="stroke:#181818;stroke-width:0.4000000000000001;" width="159.2" x="678.4" y="180.8"/><ellipse cx="735.8" cy="193.6" fill="#ADD1B2" rx="8.8" ry="8.8" style="stroke:#181818;stroke-width:0.8000000000000002;"/><path d="M737.4,190.8 Q737.5625,190.4 737.75,190.2 Q737.9375,190 738.15,190 Q738.525,190 738.7625,190.225 Q739,190.45 739,190.975 L739,192.225 Q739,192.75 738.775,192.975 Q738.55,193.2 738.2,193.2 Q737.8875,193.2 737.6875,193.0625 Q737.4875,192.925 737.4,192.5625 Q737.3625,192.3125 737.225,192.175 Q736.975,191.9125 736.525,191.7625 Q736.075,191.6 735.625,191.6 Q735.0625,191.6 734.5875,191.825 Q734.125,192.05 733.7625,192.55 Q733.4,193.05 733.4,193.7375 L733.4,194.475 Q733.4,195.3 734.075,195.85 Q734.75,196.4 735.95,196.4 Q736.6625,196.4 737.1625,196.2375 Q737.45,196.15 737.775,195.8625 Q737.9875,195.7 738.1,195.65 Q738.2125,195.6 738.35,195.6 Q738.6125,195.6 738.8,195.8125 Q739,196.0125 739,196.3 Q739,196.575 738.725,196.9 Q738.325,197.375 737.6875,197.6375 Q736.85,198 735.825,198 Q734.625,198 733.6625,197.525 Q732.8875,197.15 732.3375,196.3375 Q731.8,195.525 731.8,194.5625 L731.8,193.6875 Q731.8,192.6875 732.275,191.8125 Q732.7625,190.9375 733.6,190.475 Q734.45,190 735.4,190 Q735.975,190 736.475,190.2 Q736.975,190.4 737.4,190.8 Z " fill="#000000"/><text fill="#000000" font-family="sans-serif" font-size="13.6" lengthAdjust="spacing" textLength="37.6" x="752.2" y="198.3148">Owner</text><line style="stroke:#181818;stroke-width:0.4000000000000001;" x1="679.2" x2="836.8" y1="206.4" y2="206.4"/><rect fill="none" height="4.8" style="stroke:#C82930;stroke-width:0.8000000000000002;" width="4.8" x="684.8" y="215.9969"/><text fill="#000000" font-family="sans-serif" font-size="13.6" lengthAdjust="spacing" textLength="138.4" x="694.4" y="221.9117">property characteristics</text><rect fill="none" height="4.8" style="stroke:#C82930;stroke-width:0.8000000000000002;" width="4.8" x="684.8" y="231.1906"/><text fill="#000000" font-family="sans-serif" font-size="13.6" lengthAdjust="spacing" textLength="91.2" x="694.4" y="237.1055">requested price</text></g><!--class StoreNetworkManager--><g id="elem_StoreNetworkManager"><rect codeLine="78" fill="#F1F1F1" height="25.6" id="StoreNetworkManager" rx="2" ry="2" style="stroke:#181818;stroke-width:0.4000000000000001;" width="154.4" x="757.6" y="498.8"/><ellipse cx="769.6" cy="511.6" fill="#ADD1B2" rx="8.8" ry="8.8" style="stroke:#181818;stroke-width:0.8000000000000002;"/><path d="M771.2,508.8 Q771.3625,508.4 771.55,508.2 Q771.7375,508 771.95,508 Q772.325,508 772.5625,508.225 Q772.8,508.45 772.8,508.975 L772.8,510.225 Q772.8,510.75 772.575,510.975 Q772.35,511.2 772,511.2 Q771.6875,511.2 771.4875,511.0625 Q771.2875,510.925 771.2,510.5625 Q771.1625,510.3125 771.025,510.175 Q770.775,509.9125 770.325,509.7625 Q769.875,509.6 769.425,509.6 Q768.8625,509.6 768.3875,509.825 Q767.925,510.05 767.5625,510.55 Q767.2,511.05 767.2,511.7375 L767.2,512.475 Q767.2,513.3 767.875,513.85 Q768.55,514.4 769.75,514.4 Q770.4625,514.4 770.9625,514.2375 Q771.25,514.15 771.575,513.8625 Q771.7875,513.7 771.9,513.65 Q772.0125,513.6 772.15,513.6 Q772.4125,513.6 772.6,513.8125 Q772.8,514.0125 772.8,514.3 Q772.8,514.575 772.525,514.9 Q772.125,515.375 771.4875,515.6375 Q770.65,516 769.625,516 Q768.425,516 767.4625,515.525 Q766.6875,515.15 766.1375,514.3375 Q765.6,513.525 765.6,512.5625 L765.6,511.6875 Q765.6,510.6875 766.075,509.8125 Q766.5625,508.9375 767.4,508.475 Q768.25,508 769.2,508 Q769.775,508 770.275,508.2 Q770.775,508.4 771.2,508.8 Z " fill="#000000"/><text fill="#000000" font-family="sans-serif" font-size="13.6" lengthAdjust="spacing" textLength="128.8" x="780.8" y="516.3148">StoreNetworkManager</text></g><!--class ListOfProprieties--><g id="elem_ListOfProprieties"><rect codeLine="90" fill="#F1F1F1" height="25.6" id="ListOfProprieties" rx="2" ry="2" style="stroke:#181818;stroke-width:0.4000000000000001;" width="122.4" x="269.6" y="199.2"/><ellipse cx="281.6" cy="212" fill="#ADD1B2" rx="8.8" ry="8.8" style="stroke:#181818;stroke-width:0.8000000000000002;"/><path d="M283.2,209.2 Q283.3625,208.8 283.55,208.6 Q283.7375,208.4 283.95,208.4 Q284.325,208.4 284.5625,208.625 Q284.8,208.85 284.8,209.375 L284.8,210.625 Q284.8,211.15 284.575,211.375 Q284.35,211.6 284,211.6 Q283.6875,211.6 283.4875,211.4625 Q283.2875,211.325 283.2,210.9625 Q283.1625,210.7125 283.025,210.575 Q282.775,210.3125 282.325,210.1625 Q281.875,210 281.425,210 Q280.8625,210 280.3875,210.225 Q279.925,210.45 279.5625,210.95 Q279.2,211.45 279.2,212.1375 L279.2,212.875 Q279.2,213.7 279.875,214.25 Q280.55,214.8 281.75,214.8 Q282.4625,214.8 282.9625,214.6375 Q283.25,214.55 283.575,214.2625 Q283.7875,214.1 283.9,214.05 Q284.0125,214 284.15,214 Q284.4125,214 284.6,214.2125 Q284.8,214.4125 284.8,214.7 Q284.8,214.975 284.525,215.3 Q284.125,215.775 283.4875,216.0375 Q282.65,216.4 281.625,216.4 Q280.425,216.4 279.4625,215.925 Q278.6875,215.55 278.1375,214.7375 Q277.6,213.925 277.6,212.9625 L277.6,212.0875 Q277.6,211.0875 278.075,210.2125 Q278.5625,209.3375 279.4,208.875 Q280.25,208.4 281.2,208.4 Q281.775,208.4 282.275,208.6 Q282.775,208.8 283.2,209.2 Z " fill="#000000"/><text fill="#000000" font-family="sans-serif" font-size="13.6" lengthAdjust="spacing" textLength="96.8" x="292.8" y="216.7148">ListOfProprieties</text></g><!--class Client--><g id="elem_Client"><rect codeLine="81" fill="#F1F1F1" height="114.3688" id="Client" rx="2" ry="2" style="stroke:#181818;stroke-width:0.4000000000000001;" width="225.6" x="392.4" y="5.6"/><ellipse cx="485.4" cy="18.4" fill="#ADD1B2" rx="8.8" ry="8.8" style="stroke:#181818;stroke-width:0.8000000000000002;"/><path d="M487,15.6 Q487.1625,15.2 487.35,15 Q487.5375,14.8 487.75,14.8 Q488.125,14.8 488.3625,15.025 Q488.6,15.25 488.6,15.775 L488.6,17.025 Q488.6,17.55 488.375,17.775 Q488.15,18 487.8,18 Q487.4875,18 487.2875,17.8625 Q487.0875,17.725 487,17.3625 Q486.9625,17.1125 486.825,16.975 Q486.575,16.7125 486.125,16.5625 Q485.675,16.4 485.225,16.4 Q484.6625,16.4 484.1875,16.625 Q483.725,16.85 483.3625,17.35 Q483,17.85 483,18.5375 L483,19.275 Q483,20.1 483.675,20.65 Q484.35,21.2 485.55,21.2 Q486.2625,21.2 486.7625,21.0375 Q487.05,20.95 487.375,20.6625 Q487.5875,20.5 487.7,20.45 Q487.8125,20.4 487.95,20.4 Q488.2125,20.4 488.4,20.6125 Q488.6,20.8125 488.6,21.1 Q488.6,21.375 488.325,21.7 Q487.925,22.175 487.2875,22.4375 Q486.45,22.8 485.425,22.8 Q484.225,22.8 483.2625,22.325 Q482.4875,21.95 481.9375,21.1375 Q481.4,20.325 481.4,19.3625 L481.4,18.4875 Q481.4,17.4875 481.875,16.6125 Q482.3625,15.7375 483.2,15.275 Q484.05,14.8 485,14.8 Q485.575,14.8 486.075,15 Q486.575,15.2 487,15.6 Z " fill="#000000"/><text fill="#000000" font-family="sans-serif" font-size="13.6" lengthAdjust="spacing" textLength="32.8" x="501.8" y="23.1148">Client</text><line style="stroke:#181818;stroke-width:0.4000000000000001;" x1="393.2" x2="617.2" y1="31.2" y2="31.2"/><rect fill="none" height="4.8" style="stroke:#C82930;stroke-width:0.8000000000000002;" width="4.8" x="398.8" y="40.7969"/><text fill="#000000" font-family="sans-serif" font-size="13.6" lengthAdjust="spacing" textLength="32" x="408.4" y="46.7117">name</text><rect fill="none" height="4.8" style="stroke:#C82930;stroke-width:0.8000000000000002;" width="4.8" x="398.8" y="55.9906"/><text fill="#000000" font-family="sans-serif" font-size="13.6" lengthAdjust="spacing" textLength="92.8" x="408.4" y="61.9055">type of property</text><rect fill="none" height="4.8" style="stroke:#C82930;stroke-width:0.8000000000000002;" width="4.8" x="398.8" y="71.1844"/><text fill="#000000" font-family="sans-serif" font-size="13.6" lengthAdjust="spacing" textLength="95.2" x="408.4" y="77.0992">type of business</text><rect fill="none" height="4.8" style="stroke:#C82930;stroke-width:0.8000000000000002;" width="4.8" x="398.8" y="86.3781"/><text fill="#000000" font-family="sans-serif" font-size="13.6" lengthAdjust="spacing" textLength="99.2" x="408.4" y="92.293">number of rooms</text><line style="stroke:#181818;stroke-width:0.4000000000000001;" x1="393.2" x2="617.2" y1="98.375" y2="98.375"/><rect fill="#F24D5C" height="4.8" style="stroke:#C82930;stroke-width:0.8000000000000002;" width="4.8" x="398.8" y="107.9719"/><text fill="#000000" font-family="sans-serif" font-size="13.6" lengthAdjust="spacing" textLength="204.8" x="408.4" y="113.8867">sorting criteria(price and/or parish)</text></g><!--class Apartment--><g id="elem_Apartment"><rect codeLine="93" fill="#F1F1F1" height="62.3875" id="Apartment" rx="2" ry="2" style="stroke:#181818;stroke-width:0.4000000000000001;" width="110.4" x="26" y="641.6"/><ellipse cx="49.52" cy="654.4" fill="#ADD1B2" rx="8.8" ry="8.8" style="stroke:#181818;stroke-width:0.8000000000000002;"/><path d="M51.12,651.6 Q51.2825,651.2 51.47,651 Q51.6575,650.8 51.87,650.8 Q52.245,650.8 52.4825,651.025 Q52.72,651.25 52.72,651.775 L52.72,653.025 Q52.72,653.55 52.495,653.775 Q52.27,654 51.92,654 Q51.6075,654 51.4075,653.8625 Q51.2075,653.725 51.12,653.3625 Q51.0825,653.1125 50.945,652.975 Q50.695,652.7125 50.245,652.5625 Q49.795,652.4 49.345,652.4 Q48.7825,652.4 48.3075,652.625 Q47.845,652.85 47.4825,653.35 Q47.12,653.85 47.12,654.5375 L47.12,655.275 Q47.12,656.1 47.795,656.65 Q48.47,657.2 49.67,657.2 Q50.3825,657.2 50.8825,657.0375 Q51.17,656.95 51.495,656.6625 Q51.7075,656.5 51.82,656.45 Q51.9325,656.4 52.07,656.4 Q52.3325,656.4 52.52,656.6125 Q52.72,656.8125 52.72,657.1 Q52.72,657.375 52.445,657.7 Q52.045,658.175 51.4075,658.4375 Q50.57,658.8 49.545,658.8 Q48.345,658.8 47.3825,658.325 Q46.6075,657.95 46.0575,657.1375 Q45.52,656.325 45.52,655.3625 L45.52,654.4875 Q45.52,653.4875 45.995,652.6125 Q46.4825,651.7375 47.32,651.275 Q48.17,650.8 49.12,650.8 Q49.695,650.8 50.195,651 Q50.695,651.2 51.12,651.6 Z " fill="#000000"/><text fill="#000000" font-family="sans-serif" font-size="13.6" lengthAdjust="spacing" textLength="59.2" x="63.28" y="659.1148">Apartment</text><line style="stroke:#181818;stroke-width:0.4000000000000001;" x1="26.8" x2="135.6" y1="667.2" y2="667.2"/><rect fill="none" height="4.8" style="stroke:#C82930;stroke-width:0.8000000000000002;" width="4.8" x="32.4" y="676.7969"/><text fill="#000000" font-family="sans-serif" font-size="13.6" lengthAdjust="spacing" textLength="85.6" x="42" y="682.7117">central heating</text><rect fill="none" height="4.8" style="stroke:#C82930;stroke-width:0.8000000000000002;" width="4.8" x="32.4" y="691.9906"/><text fill="#000000" font-family="sans-serif" font-size="13.6" lengthAdjust="spacing" textLength="89.6" x="42" y="697.9055">air conditioning</text></g><!--class House--><g id="elem_House"><rect codeLine="99" fill="#F1F1F1" height="62.3875" id="House" rx="2" ry="2" style="stroke:#181818;stroke-width:0.4000000000000001;" width="104" x="167.6" y="641.6"/><ellipse cx="198.32" cy="654.4" fill="#ADD1B2" rx="8.8" ry="8.8" style="stroke:#181818;stroke-width:0.8000000000000002;"/><path d="M199.92,651.6 Q200.0825,651.2 200.27,651 Q200.4575,650.8 200.67,650.8 Q201.045,650.8 201.2825,651.025 Q201.52,651.25 201.52,651.775 L201.52,653.025 Q201.52,653.55 201.295,653.775 Q201.07,654 200.72,654 Q200.4075,654 200.2075,653.8625 Q200.0075,653.725 199.92,653.3625 Q199.8825,653.1125 199.745,652.975 Q199.495,652.7125 199.045,652.5625 Q198.595,652.4 198.145,652.4 Q197.5825,652.4 197.1075,652.625 Q196.645,652.85 196.2825,653.35 Q195.92,653.85 195.92,654.5375 L195.92,655.275 Q195.92,656.1 196.595,656.65 Q197.27,657.2 198.47,657.2 Q199.1825,657.2 199.6825,657.0375 Q199.97,656.95 200.295,656.6625 Q200.5075,656.5 200.62,656.45 Q200.7325,656.4 200.87,656.4 Q201.1325,656.4 201.32,656.6125 Q201.52,656.8125 201.52,657.1 Q201.52,657.375 201.245,657.7 Q200.845,658.175 200.2075,658.4375 Q199.37,658.8 198.345,658.8 Q197.145,658.8 196.1825,658.325 Q195.4075,657.95 194.8575,657.1375 Q194.32,656.325 194.32,655.3625 L194.32,654.4875 Q194.32,653.4875 194.795,652.6125 Q195.2825,651.7375 196.12,651.275 Q196.97,650.8 197.92,650.8 Q198.495,650.8 198.995,651 Q199.495,651.2 199.92,651.6 Z " fill="#000000"/><text fill="#000000" font-family="sans-serif" font-size="13.6" lengthAdjust="spacing" textLength="36.8" x="213.68" y="659.1148">House</text><line style="stroke:#181818;stroke-width:0.4000000000000001;" x1="168.4" x2="270.8" y1="667.2" y2="667.2"/><rect fill="none" height="4.8" style="stroke:#C82930;stroke-width:0.8000000000000002;" width="4.8" x="174" y="676.7969"/><text fill="#000000" font-family="sans-serif" font-size="13.6" lengthAdjust="spacing" textLength="56" x="183.6" y="682.7117">basement</text><rect fill="none" height="4.8" style="stroke:#C82930;stroke-width:0.8000000000000002;" width="4.8" x="174" y="691.9906"/><text fill="#000000" font-family="sans-serif" font-size="13.6" lengthAdjust="spacing" textLength="83.2" x="183.6" y="697.9055">inhabitable loft</text></g><!--class Land--><g id="elem_Land"><rect codeLine="104" fill="#F1F1F1" height="25.6" id="Land" rx="2" ry="2" style="stroke:#181818;stroke-width:0.4000000000000001;" width="54.4" x="373.2" y="498.8"/><ellipse cx="385.2" cy="511.6" fill="#ADD1B2" rx="8.8" ry="8.8" style="stroke:#181818;stroke-width:0.8000000000000002;"/><path d="M386.8,508.8 Q386.9625,508.4 387.15,508.2 Q387.3375,508 387.55,508 Q387.925,508 388.1625,508.225 Q388.4,508.45 388.4,508.975 L388.4,510.225 Q388.4,510.75 388.175,510.975 Q387.95,511.2 387.6,511.2 Q387.2875,511.2 387.0875,511.0625 Q386.8875,510.925 386.8,510.5625 Q386.7625,510.3125 386.625,510.175 Q386.375,509.9125 385.925,509.7625 Q385.475,509.6 385.025,509.6 Q384.4625,509.6 383.9875,509.825 Q383.525,510.05 383.1625,510.55 Q382.8,511.05 382.8,511.7375 L382.8,512.475 Q382.8,513.3 383.475,513.85 Q384.15,514.4 385.35,514.4 Q386.0625,514.4 386.5625,514.2375 Q386.85,514.15 387.175,513.8625 Q387.3875,513.7 387.5,513.65 Q387.6125,513.6 387.75,513.6 Q388.0125,513.6 388.2,513.8125 Q388.4,514.0125 388.4,514.3 Q388.4,514.575 388.125,514.9 Q387.725,515.375 387.0875,515.6375 Q386.25,516 385.225,516 Q384.025,516 383.0625,515.525 Q382.2875,515.15 381.7375,514.3375 Q381.2,513.525 381.2,512.5625 L381.2,511.6875 Q381.2,510.6875 381.675,509.8125 Q382.1625,508.9375 383,508.475 Q383.85,508 384.8,508 Q385.375,508 385.875,508.2 Q386.375,508.4 386.8,508.8 Z " fill="#000000"/><text fill="#000000" font-family="sans-serif" font-size="13.6" lengthAdjust="spacing" textLength="28.8" x="396.4" y="516.3148">Land</text></g><!--class AvailableEquipment--><g id="elem_AvailableEquipment"><rect codeLine="107" fill="#F1F1F1" height="62.3875" id="AvailableEquipment" rx="2" ry="2" style="stroke:#181818;stroke-width:0.4000000000000001;" width="138.4" x="5.6" y="802.8"/><ellipse cx="17.6" cy="815.6" fill="#ADD1B2" rx="8.8" ry="8.8" style="stroke:#181818;stroke-width:0.8000000000000002;"/><path d="M19.2,812.8 Q19.3625,812.4 19.55,812.2 Q19.7375,812 19.95,812 Q20.325,812 20.5625,812.225 Q20.8,812.45 20.8,812.975 L20.8,814.225 Q20.8,814.75 20.575,814.975 Q20.35,815.2 20,815.2 Q19.6875,815.2 19.4875,815.0625 Q19.2875,814.925 19.2,814.5625 Q19.1625,814.3125 19.025,814.175 Q18.775,813.9125 18.325,813.7625 Q17.875,813.6 17.425,813.6 Q16.8625,813.6 16.3875,813.825 Q15.925,814.05 15.5625,814.55 Q15.2,815.05 15.2,815.7375 L15.2,816.475 Q15.2,817.3 15.875,817.85 Q16.55,818.4 17.75,818.4 Q18.4625,818.4 18.9625,818.2375 Q19.25,818.15 19.575,817.8625 Q19.7875,817.7 19.9,817.65 Q20.0125,817.6 20.15,817.6 Q20.4125,817.6 20.6,817.8125 Q20.8,818.0125 20.8,818.3 Q20.8,818.575 20.525,818.9 Q20.125,819.375 19.4875,819.6375 Q18.65,820 17.625,820 Q16.425,820 15.4625,819.525 Q14.6875,819.15 14.1375,818.3375 Q13.6,817.525 13.6,816.5625 L13.6,815.6875 Q13.6,814.6875 14.075,813.8125 Q14.5625,812.9375 15.4,812.475 Q16.25,812 17.2,812 Q17.775,812 18.275,812.2 Q18.775,812.4 19.2,812.8 Z " fill="#000000"/><text fill="#000000" font-family="sans-serif" font-size="13.6" lengthAdjust="spacing" textLength="112.8" x="28.8" y="820.3148">AvailableEquipment</text><line style="stroke:#181818;stroke-width:0.4000000000000001;" x1="6.4" x2="143.2" y1="828.4" y2="828.4"/><rect fill="none" height="4.8" style="stroke:#C82930;stroke-width:0.8000000000000002;" width="4.8" x="12" y="837.9969"/><text fill="#000000" font-family="sans-serif" font-size="13.6" lengthAdjust="spacing" textLength="85.6" x="21.6" y="843.9117">central heating</text><rect fill="none" height="4.8" style="stroke:#C82930;stroke-width:0.8000000000000002;" width="4.8" x="12" y="853.1906"/><text fill="#000000" font-family="sans-serif" font-size="13.6" lengthAdjust="spacing" textLength="89.6" x="21.6" y="859.1055">air conditioning</text></g><!--class SunExposure--><g id="elem_SunExposure"><rect codeLine="112" fill="#F1F1F1" height="47.1938" id="SunExposure" rx="2" ry="2" style="stroke:#181818;stroke-width:0.4000000000000001;" width="103.2" x="172" y="810.4"/><ellipse cx="184" cy="823.2" fill="#ADD1B2" rx="8.8" ry="8.8" style="stroke:#181818;stroke-width:0.8000000000000002;"/><path d="M185.6,820.4 Q185.7625,820 185.95,819.8 Q186.1375,819.6 186.35,819.6 Q186.725,819.6 186.9625,819.825 Q187.2,820.05 187.2,820.575 L187.2,821.825 Q187.2,822.35 186.975,822.575 Q186.75,822.8 186.4,822.8 Q186.0875,822.8 185.8875,822.6625 Q185.6875,822.525 185.6,822.1625 Q185.5625,821.9125 185.425,821.775 Q185.175,821.5125 184.725,821.3625 Q184.275,821.2 183.825,821.2 Q183.2625,821.2 182.7875,821.425 Q182.325,821.65 181.9625,822.15 Q181.6,822.65 181.6,823.3375 L181.6,824.075 Q181.6,824.9 182.275,825.45 Q182.95,826 184.15,826 Q184.8625,826 185.3625,825.8375 Q185.65,825.75 185.975,825.4625 Q186.1875,825.3 186.3,825.25 Q186.4125,825.2 186.55,825.2 Q186.8125,825.2 187,825.4125 Q187.2,825.6125 187.2,825.9 Q187.2,826.175 186.925,826.5 Q186.525,826.975 185.8875,827.2375 Q185.05,827.6 184.025,827.6 Q182.825,827.6 181.8625,827.125 Q181.0875,826.75 180.5375,825.9375 Q180,825.125 180,824.1625 L180,823.2875 Q180,822.2875 180.475,821.4125 Q180.9625,820.5375 181.8,820.075 Q182.65,819.6 183.6,819.6 Q184.175,819.6 184.675,819.8 Q185.175,820 185.6,820.4 Z " fill="#000000"/><text fill="#000000" font-family="sans-serif" font-size="13.6" lengthAdjust="spacing" textLength="77.6" x="195.2" y="827.9148">SunExposure</text><line style="stroke:#181818;stroke-width:0.4000000000000001;" x1="172.8" x2="274.4" y1="836" y2="836"/><rect fill="none" height="4.8" style="stroke:#C82930;stroke-width:0.8000000000000002;" width="4.8" x="178.4" y="845.5969"/><text fill="#000000" font-family="sans-serif" font-size="13.6" lengthAdjust="spacing" textLength="43.2" x="188" y="851.5117">regions</text></g><!--class LocationOrAdress--><g id="elem_LocationOrAdress"><rect codeLine="117" fill="#F1F1F1" height="77.5813" id="LocationOrAdress" rx="2" ry="2" style="stroke:#181818;stroke-width:0.4000000000000001;" width="130.4" x="418.4" y="795.2"/><ellipse cx="430.4" cy="808" fill="#ADD1B2" rx="8.8" ry="8.8" style="stroke:#181818;stroke-width:0.8000000000000002;"/><path d="M432,805.2 Q432.1625,804.8 432.35,804.6 Q432.5375,804.4 432.75,804.4 Q433.125,804.4 433.3625,804.625 Q433.6,804.85 433.6,805.375 L433.6,806.625 Q433.6,807.15 433.375,807.375 Q433.15,807.6 432.8,807.6 Q432.4875,807.6 432.2875,807.4625 Q432.0875,807.325 432,806.9625 Q431.9625,806.7125 431.825,806.575 Q431.575,806.3125 431.125,806.1625 Q430.675,806 430.225,806 Q429.6625,806 429.1875,806.225 Q428.725,806.45 428.3625,806.95 Q428,807.45 428,808.1375 L428,808.875 Q428,809.7 428.675,810.25 Q429.35,810.8 430.55,810.8 Q431.2625,810.8 431.7625,810.6375 Q432.05,810.55 432.375,810.2625 Q432.5875,810.1 432.7,810.05 Q432.8125,810 432.95,810 Q433.2125,810 433.4,810.2125 Q433.6,810.4125 433.6,810.7 Q433.6,810.975 433.325,811.3 Q432.925,811.775 432.2875,812.0375 Q431.45,812.4 430.425,812.4 Q429.225,812.4 428.2625,811.925 Q427.4875,811.55 426.9375,810.7375 Q426.4,809.925 426.4,808.9625 L426.4,808.0875 Q426.4,807.0875 426.875,806.2125 Q427.3625,805.3375 428.2,804.875 Q429.05,804.4 430,804.4 Q430.575,804.4 431.075,804.6 Q431.575,804.8 432,805.2 Z " fill="#000000"/><text fill="#000000" font-family="sans-serif" font-size="13.6" lengthAdjust="spacing" textLength="104.8" x="441.6" y="812.7148">LocationOrAdress</text><line style="stroke:#181818;stroke-width:0.4000000000000001;" x1="419.2" x2="548" y1="820.8" y2="820.8"/><rect fill="none" height="4.8" style="stroke:#C82930;stroke-width:0.8000000000000002;" width="4.8" x="424.8" y="830.3969"/><text fill="#000000" font-family="sans-serif" font-size="13.6" lengthAdjust="spacing" textLength="32" x="434.4" y="836.3117">street</text><rect fill="none" height="4.8" style="stroke:#C82930;stroke-width:0.8000000000000002;" width="4.8" x="424.8" y="845.5906"/><text fill="#000000" font-family="sans-serif" font-size="13.6" lengthAdjust="spacing" textLength="95.2" x="434.4" y="851.5055">adressExtension</text><rect fill="none" height="4.8" style="stroke:#C82930;stroke-width:0.8000000000000002;" width="4.8" x="424.8" y="860.7844"/><text fill="#000000" font-family="sans-serif" font-size="13.6" lengthAdjust="spacing" textLength="48" x="434.4" y="866.6992">zipCode</text></g><!--class Employee--><g id="elem_Employee"><rect codeLine="48" fill="#F1F1F1" height="123.1625" id="Employee" rx="2" ry="2" style="stroke:#181818;stroke-width:0.4000000000000001;" width="84.8" x="940.4" y="611.2"/><ellipse cx="953.12" cy="624" fill="#ADD1B2" rx="8.8" ry="8.8" style="stroke:#181818;stroke-width:0.8000000000000002;"/><path d="M954.72,621.2 Q954.8825,620.8 955.07,620.6 Q955.2575,620.4 955.47,620.4 Q955.845,620.4 956.0825,620.625 Q956.32,620.85 956.32,621.375 L956.32,622.625 Q956.32,623.15 956.095,623.375 Q955.87,623.6 955.52,623.6 Q955.2075,623.6 955.0075,623.4625 Q954.8075,623.325 954.72,622.9625 Q954.6825,622.7125 954.545,622.575 Q954.295,622.3125 953.845,622.1625 Q953.395,622 952.945,622 Q952.3825,622 951.9075,622.225 Q951.445,622.45 951.0825,622.95 Q950.72,623.45 950.72,624.1375 L950.72,624.875 Q950.72,625.7 951.395,626.25 Q952.07,626.8 953.27,626.8 Q953.9825,626.8 954.4825,626.6375 Q954.77,626.55 955.095,626.2625 Q955.3075,626.1 955.42,626.05 Q955.5325,626 955.67,626 Q955.9325,626 956.12,626.2125 Q956.32,626.4125 956.32,626.7 Q956.32,626.975 956.045,627.3 Q955.645,627.775 955.0075,628.0375 Q954.17,628.4 953.145,628.4 Q951.945,628.4 950.9825,627.925 Q950.2075,627.55 949.6575,626.7375 Q949.12,625.925 949.12,624.9625 L949.12,624.0875 Q949.12,623.0875 949.595,622.2125 Q950.0825,621.3375 950.92,620.875 Q951.77,620.4 952.72,620.4 Q953.295,620.4 953.795,620.6 Q954.295,620.8 954.72,621.2 Z " fill="#000000"/><text fill="#000000" font-family="sans-serif" font-size="13.6" lengthAdjust="spacing" textLength="57.6" x="964.48" y="628.7148">Employee</text><line style="stroke:#181818;stroke-width:0.4000000000000001;" x1="941.2" x2="1024.4" y1="636.8" y2="636.8"/><rect fill="none" height="4.8" style="stroke:#C82930;stroke-width:0.8000000000000002;" width="4.8" x="946.8" y="646.3969"/><text fill="#000000" font-family="sans-serif" font-size="13.6" lengthAdjust="spacing" textLength="32" x="956.4" y="652.3117">name</text><rect fill="none" height="4.8" style="stroke:#C82930;stroke-width:0.8000000000000002;" width="4.8" x="946.8" y="661.5906"/><text fill="#000000" font-family="sans-serif" font-size="13.6" lengthAdjust="spacing" textLength="10.4" x="956.4" y="667.5055">id</text><rect fill="none" height="4.8" style="stroke:#C82930;stroke-width:0.8000000000000002;" width="4.8" x="946.8" y="676.7844"/><text fill="#000000" font-family="sans-serif" font-size="13.6" lengthAdjust="spacing" textLength="44" x="956.4" y="682.6992">number</text><rect fill="none" height="4.8" style="stroke:#C82930;stroke-width:0.8000000000000002;" width="4.8" x="946.8" y="691.9781"/><text fill="#000000" font-family="sans-serif" font-size="13.6" lengthAdjust="spacing" textLength="43.2" x="956.4" y="697.893">agency</text><rect fill="none" height="4.8" style="stroke:#C82930;stroke-width:0.8000000000000002;" width="4.8" x="946.8" y="707.1719"/><text fill="#000000" font-family="sans-serif" font-size="13.6" lengthAdjust="spacing" textLength="64" x="956.4" y="713.0867">tax number</text><rect fill="none" height="4.8" style="stroke:#C82930;stroke-width:0.8000000000000002;" width="4.8" x="946.8" y="722.3656"/><text fill="#000000" font-family="sans-serif" font-size="13.6" lengthAdjust="spacing" textLength="21.6" x="956.4" y="728.2805">role</text></g><!--class Properties--><g id="elem_Properties"><rect codeLine="123" fill="#F1F1F1" height="107.9688" id="Properties" rx="2" ry="2" style="stroke:#181818;stroke-width:0.4000000000000001;" width="187.2" x="237.2" y="304"/><ellipse cx="297.4" cy="316.8" fill="#ADD1B2" rx="8.8" ry="8.8" style="stroke:#181818;stroke-width:0.8000000000000002;"/><path d="M299,314 Q299.1625,313.6 299.35,313.4 Q299.5375,313.2 299.75,313.2 Q300.125,313.2 300.3625,313.425 Q300.6,313.65 300.6,314.175 L300.6,315.425 Q300.6,315.95 300.375,316.175 Q300.15,316.4 299.8,316.4 Q299.4875,316.4 299.2875,316.2625 Q299.0875,316.125 299,315.7625 Q298.9625,315.5125 298.825,315.375 Q298.575,315.1125 298.125,314.9625 Q297.675,314.8 297.225,314.8 Q296.6625,314.8 296.1875,315.025 Q295.725,315.25 295.3625,315.75 Q295,316.25 295,316.9375 L295,317.675 Q295,318.5 295.675,319.05 Q296.35,319.6 297.55,319.6 Q298.2625,319.6 298.7625,319.4375 Q299.05,319.35 299.375,319.0625 Q299.5875,318.9 299.7,318.85 Q299.8125,318.8 299.95,318.8 Q300.2125,318.8 300.4,319.0125 Q300.6,319.2125 300.6,319.5 Q300.6,319.775 300.325,320.1 Q299.925,320.575 299.2875,320.8375 Q298.45,321.2 297.425,321.2 Q296.225,321.2 295.2625,320.725 Q294.4875,320.35 293.9375,319.5375 Q293.4,318.725 293.4,317.7625 L293.4,316.8875 Q293.4,315.8875 293.875,315.0125 Q294.3625,314.1375 295.2,313.675 Q296.05,313.2 297,313.2 Q297.575,313.2 298.075,313.4 Q298.575,313.6 299,314 Z " fill="#000000"/><text fill="#000000" font-family="sans-serif" font-size="13.6" lengthAdjust="spacing" textLength="60" x="313.8" y="321.5148">Properties</text><line style="stroke:#181818;stroke-width:0.4000000000000001;" x1="238" x2="423.6" y1="329.6" y2="329.6"/><rect fill="none" height="4.8" style="stroke:#C82930;stroke-width:0.8000000000000002;" width="4.8" x="243.6" y="339.1969"/><text fill="#000000" font-family="sans-serif" font-size="13.6" lengthAdjust="spacing" textLength="26.4" x="253.2" y="345.1117">area</text><rect fill="none" height="4.8" style="stroke:#C82930;stroke-width:0.8000000000000002;" width="4.8" x="243.6" y="354.3906"/><text fill="#000000" font-family="sans-serif" font-size="13.6" lengthAdjust="spacing" textLength="44.8" x="253.2" y="360.3055">location</text><rect fill="none" height="4.8" style="stroke:#C82930;stroke-width:0.8000000000000002;" width="4.8" x="243.6" y="369.5844"/><text fill="#000000" font-family="sans-serif" font-size="13.6" lengthAdjust="spacing" textLength="38.4" x="253.2" y="375.4992">photos</text><rect fill="none" height="4.8" style="stroke:#C82930;stroke-width:0.8000000000000002;" width="4.8" x="243.6" y="384.7781"/><text fill="#000000" font-family="sans-serif" font-size="13.6" lengthAdjust="spacing" textLength="166.4" x="253.2" y="390.693">distance from the city center</text><rect fill="none" height="4.8" style="stroke:#C82930;stroke-width:0.8000000000000002;" width="4.8" x="243.6" y="399.9719"/><text fill="#000000" font-family="sans-serif" font-size="13.6" lengthAdjust="spacing" textLength="112.8" x="253.2" y="405.8867">the requested price</text></g><!--class Residences--><g id="elem_Residences"><rect codeLine="131" fill="#F1F1F1" height="77.5813" id="Residences" rx="2" ry="2" style="stroke:#181818;stroke-width:0.4000000000000001;" width="172.8" x="115.6" y="472.8"/><ellipse cx="164.6" cy="485.6" fill="#ADD1B2" rx="8.8" ry="8.8" style="stroke:#181818;stroke-width:0.8000000000000002;"/><path d="M166.2,482.8 Q166.3625,482.4 166.55,482.2 Q166.7375,482 166.95,482 Q167.325,482 167.5625,482.225 Q167.8,482.45 167.8,482.975 L167.8,484.225 Q167.8,484.75 167.575,484.975 Q167.35,485.2 167,485.2 Q166.6875,485.2 166.4875,485.0625 Q166.2875,484.925 166.2,484.5625 Q166.1625,484.3125 166.025,484.175 Q165.775,483.9125 165.325,483.7625 Q164.875,483.6 164.425,483.6 Q163.8625,483.6 163.3875,483.825 Q162.925,484.05 162.5625,484.55 Q162.2,485.05 162.2,485.7375 L162.2,486.475 Q162.2,487.3 162.875,487.85 Q163.55,488.4 164.75,488.4 Q165.4625,488.4 165.9625,488.2375 Q166.25,488.15 166.575,487.8625 Q166.7875,487.7 166.9,487.65 Q167.0125,487.6 167.15,487.6 Q167.4125,487.6 167.6,487.8125 Q167.8,488.0125 167.8,488.3 Q167.8,488.575 167.525,488.9 Q167.125,489.375 166.4875,489.6375 Q165.65,490 164.625,490 Q163.425,490 162.4625,489.525 Q161.6875,489.15 161.1375,488.3375 Q160.6,487.525 160.6,486.5625 L160.6,485.6875 Q160.6,484.6875 161.075,483.8125 Q161.5625,482.9375 162.4,482.475 Q163.25,482 164.2,482 Q164.775,482 165.275,482.2 Q165.775,482.4 166.2,482.8 Z " fill="#000000"/><text fill="#000000" font-family="sans-serif" font-size="13.6" lengthAdjust="spacing" textLength="68" x="181" y="490.3148">Residences</text><line style="stroke:#181818;stroke-width:0.4000000000000001;" x1="116.4" x2="287.6" y1="498.4" y2="498.4"/><rect fill="none" height="4.8" style="stroke:#C82930;stroke-width:0.8000000000000002;" width="4.8" x="122" y="507.9969"/><text fill="#000000" font-family="sans-serif" font-size="13.6" lengthAdjust="spacing" textLength="120.8" x="131.6" y="513.9117">number of bedrooms</text><rect fill="none" height="4.8" style="stroke:#C82930;stroke-width:0.8000000000000002;" width="4.8" x="122" y="523.1906"/><text fill="#000000" font-family="sans-serif" font-size="13.6" lengthAdjust="spacing" textLength="124" x="131.6" y="529.1055">number of bathrooms</text><rect fill="none" height="4.8" style="stroke:#C82930;stroke-width:0.8000000000000002;" width="4.8" x="122" y="538.3844"/><text fill="#000000" font-family="sans-serif" font-size="13.6" lengthAdjust="spacing" textLength="152" x="131.6" y="544.2992">number of parking spaces</text></g><!--link ListOfProprieties to Properties--><g id="link_ListOfProprieties_Properties"><path codeLine="144" d="M330.8,224.864 C330.8,242.144 330.8,275.04 330.8,303.712 " fill="none" id="ListOfProprieties-Properties" style="stroke:#181818;stroke-width:0.8000000000000002;"/><polygon fill="#000000" points="334.8,277.8094,337.1511,270.5733,332.4489,270.5733,334.8,277.8094" style="stroke:#000000;stroke-width:0.8000000000000002;"/><text fill="#000000" font-family="sans-serif" font-size="10.4" lengthAdjust="spacing" textLength="39.2" x="342" y="277.4148">contains</text><text fill="#000000" font-family="sans-serif" font-size="10.4" lengthAdjust="spacing" textLength="5.6" x="324.2375" y="240.6978">1</text><text fill="#000000" font-family="sans-serif" font-size="10.4" lengthAdjust="spacing" textLength="4" x="326.5813" y="295.4012">*</text></g><!--link Properties to Land--><g id="link_Properties_Land"><path codeLine="146" d="M355.24,412.176 C369.496,443.312 386.312,480.024 394.832,498.648 " fill="none" id="Properties-Land" style="stroke:#181818;stroke-width:0.8000000000000002;"/><polygon fill="#000000" points="373.9348,438.9725,374.8094,446.5305,379.0849,444.5729,373.9348,438.9725" style="stroke:#000000;stroke-width:0.8000000000000002;"/><text fill="#000000" font-family="sans-serif" font-size="10.4" lengthAdjust="spacing" textLength="28.8" x="382.8" y="446.2148">part of</text><text fill="#000000" font-family="sans-serif" font-size="10.4" lengthAdjust="spacing" textLength="5.6" x="351.8716" y="427.7784">1</text><text fill="#000000" font-family="sans-serif" font-size="10.4" lengthAdjust="spacing" textLength="4" x="388.0413" y="490.099">*</text></g><!--link Properties to Residences--><g id="link_Properties_Residences"><path codeLine="147" d="M285.568,412.176 C268.68,432.104 249.856,454.32 234.36,472.616 " fill="none" id="Properties-Residences" style="stroke:#181818;stroke-width:0.8000000000000002;"/><polygon fill="#000000" points="268.5857,439.5575,262.1142,443.5586,265.702,446.5983,268.5857,439.5575" style="stroke:#000000;stroke-width:0.8000000000000002;"/><text fill="#000000" font-family="sans-serif" font-size="10.4" lengthAdjust="spacing" textLength="28.8" x="273.2" y="446.2148">part of</text><text fill="#000000" font-family="sans-serif" font-size="10.4" lengthAdjust="spacing" textLength="5.6" x="275.0147" y="427.7784">1</text><text fill="#000000" font-family="sans-serif" font-size="10.4" lengthAdjust="spacing" textLength="4" x="234.8191" y="464.3147">*</text></g><!--link Residences to House--><g id="link_Residences_House"><path codeLine="148" d="M206.192,550.424 C209.264,578.272 213.376,615.568 216.232,641.472 " fill="none" id="Residences-House" style="stroke:#181818;stroke-width:0.8000000000000002;"/><polygon fill="#000000" points="213.5616,577.0335,212.0177,584.4836,216.6917,583.9682,213.5616,577.0335" style="stroke:#000000;stroke-width:0.8000000000000002;"/><text fill="#000000" font-family="sans-serif" font-size="10.4" lengthAdjust="spacing" textLength="28.8" x="221.2" y="584.6148">part of</text><text fill="#000000" font-family="sans-serif" font-size="10.4" lengthAdjust="spacing" textLength="5.6" x="200.7878" y="566.1167">1</text><text fill="#000000" font-family="sans-serif" font-size="10.4" lengthAdjust="spacing" textLength="4" x="211.2423" y="632.918">*</text></g><!--link Residences to Apartment--><g id="link_Residences_Apartment"><path codeLine="149" d="M173.216,550.424 C152.144,578.272 123.912,615.568 104.304,641.472 " fill="none" id="Residences-Apartment" style="stroke:#181818;stroke-width:0.8000000000000002;"/><polygon fill="#000000" points="159.614,577.8199,153.3723,582.1708,157.1217,585.0086,159.614,577.8199" style="stroke:#000000;stroke-width:0.8000000000000002;"/><text fill="#000000" font-family="sans-serif" font-size="10.4" lengthAdjust="spacing" textLength="28.8" x="164.4" y="584.6148">part of</text><text fill="#000000" font-family="sans-serif" font-size="10.4" lengthAdjust="spacing" textLength="5.6" x="163.1745" y="566.1167">1</text><text fill="#000000" font-family="sans-serif" font-size="10.4" lengthAdjust="spacing" textLength="4" x="104.1951" y="632.918">*</text></g><!--link House to SunExposure--><g id="link_House_SunExposure"><path codeLine="150" d="M220.368,704.376 C221.144,735.352 222.328,782.424 223.024,810.272 " fill="none" id="House-SunExposure" style="stroke:#181818;stroke-width:0.8000000000000002;"/><polygon fill="#000000" points="226.1003,769.0081,228.2693,761.7154,223.5685,761.8333,226.1003,769.0081" style="stroke:#000000;stroke-width:0.8000000000000002;"/><text fill="#000000" font-family="sans-serif" font-size="10.4" lengthAdjust="spacing" textLength="39.2" x="233.2" y="768.6148">contains</text><text fill="#000000" font-family="sans-serif" font-size="10.4" lengthAdjust="spacing" textLength="5.6" x="214.4442" y="719.7501">1</text><text fill="#000000" font-family="sans-serif" font-size="10.4" lengthAdjust="spacing" textLength="5.6" x="216.6433" y="801.7539">1</text></g><!--link Apartment to AvailableEquipment--><g id="link_Apartment_AvailableEquipment"><path codeLine="151" d="M79.968,704.376 C78.832,732.728 77.152,774.56 76.016,802.792 " fill="none" id="Apartment-AvailableEquipment" style="stroke:#181818;stroke-width:0.8000000000000002;"/><polygon fill="#000000" points="81.8395,769.0062,84.4791,761.8702,79.7806,761.6816,81.8395,769.0062" style="stroke:#000000;stroke-width:0.8000000000000002;"/><text fill="#000000" font-family="sans-serif" font-size="10.4" lengthAdjust="spacing" textLength="39.2" x="89.2" y="768.6148">contains</text><text fill="#000000" font-family="sans-serif" font-size="10.4" lengthAdjust="spacing" textLength="5.6" x="73.7254" y="719.7501">1</text><text fill="#000000" font-family="sans-serif" font-size="10.4" lengthAdjust="spacing" textLength="5.6" x="70.124" y="794.2601">1</text></g><!--link Properties to LocationOrAdress--><g id="link_Properties_LocationOrAdress"><path codeLine="153" d="M335,412.056 C338.984,450.96 346.392,504.672 359.6,550.4 C385.936,641.56 435.128,741.856 462.984,795.072 " fill="none" id="Properties-LocationOrAdress" style="stroke:#181818;stroke-width:0.8000000000000002;"/><polygon fill="#000000" points="375.2677,584.8032,375.2044,577.195,370.7445,578.6853,375.2677,584.8032" style="stroke:#000000;stroke-width:0.8000000000000002;"/><text fill="#000000" font-family="sans-serif" font-size="10.4" lengthAdjust="spacing" textLength="48.8" x="381.2" y="584.6148">Located at</text><text fill="#000000" font-family="sans-serif" font-size="10.4" lengthAdjust="spacing" textLength="5.6" x="329.5444" y="427.6461">1</text><text fill="#000000" font-family="sans-serif" font-size="10.4" lengthAdjust="spacing" textLength="5.6" x="453.7984" y="786.502">1</text></g><!--link Agent to LocationOrAdress--><g id="link_Agent_LocationOrAdress"><path codeLine="155" d="M502.104,225.072 C496.136,249.864 483.6,307.768 483.6,357.2 C483.6,357.2 483.6,357.2 483.6,673.6 C483.6,715.16 483.6,762.816 483.6,795.152 " fill="none" id="Agent-LocationOrAdress" style="stroke:#181818;stroke-width:0.8000000000000002;"/><polygon fill="#000000" points="487.4702,515.8073,490.0549,508.6513,485.3551,508.4987,487.4702,515.8073" style="stroke:#000000;stroke-width:0.8000000000000002;"/><text fill="#000000" font-family="sans-serif" font-size="10.4" lengthAdjust="spacing" textLength="16.8" x="494.8" y="515.4148">has</text><text fill="#000000" font-family="sans-serif" font-size="10.4" lengthAdjust="spacing" textLength="5.6" x="494.6247" y="240.5053">1</text><text fill="#000000" font-family="sans-serif" font-size="10.4" lengthAdjust="spacing" textLength="5.6" x="477.5713" y="786.5942">1</text></g><!--link Agent to Employee--><g id="link_Agent_Employee"><path codeLine="157" d="M534.872,222.536 C611.84,249.328 819.288,331.712 926,472.8 C956.368,512.952 970.512,568.768 977.088,611.096 " fill="none" id="Agent-Employee" style="stroke:#181818;stroke-width:0.8000000000000002;"/><polygon fill="#000000" points="909.8048,445.2496,905.9209,438.7072,902.8171,442.2396,909.8048,445.2496" style="stroke:#000000;stroke-width:0.8000000000000002;"/><text fill="#000000" font-family="sans-serif" font-size="10.4" lengthAdjust="spacing" textLength="22.4" x="914" y="446.2148">is an</text><text fill="#000000" font-family="sans-serif" font-size="10.4" lengthAdjust="spacing" textLength="5.6" x="541.2649" y="235.1688">1</text><text fill="#000000" font-family="sans-serif" font-size="10.4" lengthAdjust="spacing" textLength="5.6" x="970.6102" y="602.3936">1</text></g><!--link Employee to LocationOrAdress--><g id="link_Employee_LocationOrAdress"><path codeLine="159" d="M940.144,701.528 C921.216,712.976 898.304,725.576 876.4,734.4 C765.344,779.112 628.28,808.056 548.912,822.424 " fill="none" id="Employee-LocationOrAdress" style="stroke:#181818;stroke-width:0.8000000000000002;"/><polygon fill="#000000" points="802.9783,766.1903,810.586,766.3003,809.1977,761.8076,802.9783,766.1903" style="stroke:#000000;stroke-width:0.8000000000000002;"/><text fill="#000000" font-family="sans-serif" font-size="10.4" lengthAdjust="spacing" textLength="16.8" x="814" y="768.6148">has</text><text fill="#000000" font-family="sans-serif" font-size="10.4" lengthAdjust="spacing" textLength="5.6" x="928.4359" y="702.8813">1</text><text fill="#000000" font-family="sans-serif" font-size="10.4" lengthAdjust="spacing" textLength="5.6" x="555.1911" y="819.0756">1</text></g><!--link StoreNetworkManager to Employee--><g id="link_StoreNetworkManager_Employee"><path codeLine="161" d="M846.168,524.656 C866,546.048 907.88,591.208 940.08,625.928 " fill="none" id="StoreNetworkManager-Employee" style="stroke:#181818;stroke-width:0.8000000000000002;"/><polygon fill="#000000" points="906.3198,583.9424,903.1236,577.0378,899.6756,580.2352,906.3198,583.9424" style="stroke:#000000;stroke-width:0.8000000000000002;"/><text fill="#000000" font-family="sans-serif" font-size="10.4" lengthAdjust="spacing" textLength="16.8" x="910.8" y="584.6148">is a</text><text fill="#000000" font-family="sans-serif" font-size="10.4" lengthAdjust="spacing" textLength="5.6" x="843.4062" y="540.32">1</text><text fill="#000000" font-family="sans-serif" font-size="10.4" lengthAdjust="spacing" textLength="5.6" x="928.3633" y="617.1226">1</text></g><!--link Employee to StoreManager--><g id="link_Employee_StoreManager"><path codeLine="163" d="M982.8,734.624 C982.8,766.48 982.8,802.568 982.8,820.976 " fill="none" id="Employee-StoreManager" style="stroke:#181818;stroke-width:0.8000000000000002;"/><polygon fill="#000000" points="986.8,761.0094,984.4489,768.2454,989.1511,768.2454,986.8,761.0094" style="stroke:#000000;stroke-width:0.8000000000000002;"/><text fill="#000000" font-family="sans-serif" font-size="10.4" lengthAdjust="spacing" textLength="42.4" x="994" y="768.6148">manages</text><text fill="#000000" font-family="sans-serif" font-size="10.4" lengthAdjust="spacing" textLength="4" x="978.6156" y="750.2755">*</text><text fill="#000000" font-family="sans-serif" font-size="10.4" lengthAdjust="spacing" textLength="5.6" x="976.2025" y="812.6306">1</text></g><!--link SystemAdministrator to Store--><g id="link_SystemAdministrator_Store"><path codeLine="165" d="M671.84,672.8 C697.824,672.8 726.648,672.8 750.968,672.8 " fill="none" id="SystemAdministrator-Store" style="stroke:#181818;stroke-width:0.8000000000000002;"/><polygon fill="#000000" points="693.4,664.2094,686.1639,661.8582,686.1639,666.5605,693.4,664.2094" style="stroke:#000000;stroke-width:0.8000000000000002;"/><text fill="#000000" font-family="sans-serif" font-size="10.4" lengthAdjust="spacing" textLength="40" x="696.6" y="667.8148">registers</text><text fill="#000000" font-family="sans-serif" font-size="10.4" lengthAdjust="spacing" textLength="5.6" x="677.8835" y="670.5853">1</text><text fill="#000000" font-family="sans-serif" font-size="10.4" lengthAdjust="spacing" textLength="4" x="740.6426" y="670.4266">*</text></g><!--link Store to Employee--><g id="link_Store_Employee"><path codeLine="167" d="M862.488,672.8 C887.664,672.8 916.936,672.8 940.304,672.8 " fill="none" id="Store-Employee" style="stroke:#181818;stroke-width:0.8000000000000002;"/><polygon fill="#000000" points="876.2,664.2094,883.4361,666.5605,883.4361,661.8582,876.2,664.2094" style="stroke:#000000;stroke-width:0.8000000000000002;"/><text fill="#000000" font-family="sans-serif" font-size="10.4" lengthAdjust="spacing" textLength="38.4" x="887.4" y="667.8148">works in</text><text fill="#000000" font-family="sans-serif" font-size="10.4" lengthAdjust="spacing" textLength="5.6" x="868.8851" y="670.4266">1</text><text fill="#000000" font-family="sans-serif" font-size="10.4" lengthAdjust="spacing" textLength="4" x="930.0468" y="670.2594">*</text></g><!--link SystemAdministrator to Employee--><g id="link_SystemAdministrator_Employee"><path codeLine="169" d="M608.808,659.8 C624.856,640.144 658.464,603.68 696.8,589.6 C781.624,558.448 883.912,608.592 940.296,643.56 " fill="none" id="SystemAdministrator-Employee" style="stroke:#181818;stroke-width:0.8000000000000002;"/><polygon fill="#000000" points="704.7952,580.8136,697.4528,578.8194,697.6829,583.516,704.7952,580.8136" style="stroke:#000000;stroke-width:0.8000000000000002;"/><text fill="#000000" font-family="sans-serif" font-size="10.4" lengthAdjust="spacing" textLength="40" x="708" y="584.6148">registers</text><text fill="#000000" font-family="sans-serif" font-size="10.4" lengthAdjust="spacing" textLength="5.6" x="605.7759" y="651.4632">1</text><text fill="#000000" font-family="sans-serif" font-size="10.4" lengthAdjust="spacing" textLength="4" x="930.0376" y="636.9075">*</text></g><!--link StoreNetworkManager to Store--><g id="link_StoreNetworkManager_Store"><path codeLine="171" d="M832.648,524.656 C828.888,546.12 820.92,591.512 814.824,626.28 " fill="none" id="StoreNetworkManager-Store" style="stroke:#181818;stroke-width:0.8000000000000002;"/><polygon fill="#000000" points="826.109,584.9492,829.6748,578.2281,825.0433,577.4158,826.109,584.9492" style="stroke:#000000;stroke-width:0.8000000000000002;"/><text fill="#000000" font-family="sans-serif" font-size="10.4" lengthAdjust="spacing" textLength="42.4" x="834" y="584.6148">manages</text><text fill="#000000" font-family="sans-serif" font-size="10.4" lengthAdjust="spacing" textLength="5.6" x="825.4077" y="540.32">1</text><text fill="#000000" font-family="sans-serif" font-size="10.4" lengthAdjust="spacing" textLength="4" x="811.5958" y="617.8454">*</text></g><!--link ListOfProprieties to Agent--><g id="link_ListOfProprieties_Agent"><path codeLine="173" d="M392.04,212 C420.312,212 452.576,212 475.408,212 " fill="none" id="ListOfProprieties-Agent" style="stroke:#181818;stroke-width:0.8000000000000002;"/><polygon fill="#000000" points="405.8,203.4094,413.0361,205.7605,413.0361,201.0582,405.8,203.4094" style="stroke:#000000;stroke-width:0.8000000000000002;"/><text fill="#000000" font-family="sans-serif" font-size="10.4" lengthAdjust="spacing" textLength="44" x="417" y="207.0148">publishes</text><text fill="#000000" font-family="sans-serif" font-size="10.4" lengthAdjust="spacing" textLength="4" x="398.5616" y="209.6589">*</text><text fill="#000000" font-family="sans-serif" font-size="10.4" lengthAdjust="spacing" textLength="4" x="465.149" y="209.1536">*</text></g><!--link Agent to Owner--><g id="link_Agent_Owner"><path codeLine="175" d="M534.944,212 C569.92,212 629.4,212 678.136,212 " fill="none" id="Agent-Owner" style="stroke:#181818;stroke-width:0.8000000000000002;"/><polygon fill="#000000" points="556.6,203.4094,549.3639,201.0582,549.3639,205.7605,556.6,203.4094" style="stroke:#000000;stroke-width:0.8000000000000002;"/><text fill="#000000" font-family="sans-serif" font-size="10.4" lengthAdjust="spacing" textLength="104" x="559.8" y="207.0148">requests to sell or rent</text><text fill="#000000" font-family="sans-serif" font-size="10.4" lengthAdjust="spacing" textLength="5.6" x="541.1477" y="209.1873">1</text><text fill="#000000" font-family="sans-serif" font-size="10.4" lengthAdjust="spacing" textLength="5.6" x="666.4654" y="209.8194">1</text></g><!--link Client to Agent--><g id="link_Client_Agent"><path codeLine="177" d="M505.2,120.032 C505.2,149.008 505.2,181.76 505.2,199.032 " fill="none" id="Client-Agent" style="stroke:#181818;stroke-width:0.8000000000000002;"/><polygon fill="#000000" points="509.2,154.6094,511.5511,147.3733,506.8489,147.3733,509.2,154.6094" style="stroke:#000000;stroke-width:0.8000000000000002;"/><text fill="#000000" font-family="sans-serif" font-size="10.4" lengthAdjust="spacing" textLength="126.4" x="516.4" y="154.2148">requests to schedule a visit</text><text fill="#000000" font-family="sans-serif" font-size="10.4" lengthAdjust="spacing" textLength="5.6" x="499.3113" y="135.9496">1</text><text fill="#000000" font-family="sans-serif" font-size="10.4" lengthAdjust="spacing" textLength="5.6" x="498.6025" y="190.7066">1</text></g><!--link Client to ListOfProprieties--><g id="link_Client_ListOfProprieties"><path codeLine="179" d="M438.52,120.032 C404.288,149.008 365.584,181.76 345.176,199.032 " fill="none" id="Client-ListOfProprieties" style="stroke:#181818;stroke-width:0.8000000000000002;"/><polygon fill="#000000" points="407.7467,153.1935,414.789,150.3135,411.7513,146.7241,407.7467,153.1935" style="stroke:#000000;stroke-width:0.8000000000000002;"/><text fill="#000000" font-family="sans-serif" font-size="10.4" lengthAdjust="spacing" textLength="75.2" x="418" y="154.2148">display/consults</text><text fill="#000000" font-family="sans-serif" font-size="10.4" lengthAdjust="spacing" textLength="5.6" x="425.7549" y="135.9496">1</text><text fill="#000000" font-family="sans-serif" font-size="10.4" lengthAdjust="spacing" textLength="5.6" x="343.7" y="190.7066">1</text></g><!--link UnregisteredUser to ListOfProprieties--><g id="link_UnregisteredUser_ListOfProprieties"><path codeLine="181" d="M297.568,101.768 C297.264,118.848 298.264,139.08 302.8,156.8 C306.776,172.336 315.8,188.472 322.536,199.096 " fill="none" id="UnregisteredUser-ListOfProprieties" style="stroke:#181818;stroke-width:0.8000000000000002;"/><polygon fill="#000000" points="307.794,154.4839,308.2733,146.8906,303.7185,148.059,307.794,154.4839" style="stroke:#000000;stroke-width:0.8000000000000002;"/><text fill="#000000" font-family="sans-serif" font-size="10.4" lengthAdjust="spacing" textLength="32.8" x="314" y="154.2148">display</text><text fill="#000000" font-family="sans-serif" font-size="10.4" lengthAdjust="spacing" textLength="5.6" x="291.176" y="117.481">1</text><text fill="#000000" font-family="sans-serif" font-size="10.4" lengthAdjust="spacing" textLength="5.6" x="312.8562" y="190.5647">1</text></g><!--SRC=[dLLTRzCm57tthxZg2r0fZ0aaf0eXLLCH3uCX9dw0wzmcrX8xivrjNTN_phNJn4xQmk0foVMvd-Vunjv9rN33QoYCRXju__OTAsMEW7NZjb1ZlKPZcHrWLnMtzejMxbO-8rn-P5Rm2k43-J4c_27yKWOBQHqQp7zPDBtzTaksUfdNKj6fuKuFHyi2bHjmT82ZZszSyI86kdbKILGF-8xkKPkx2UwQqjniVXZT68bEekqFhYgPv5jIPwvE35zrQuS2hhdA1-G3bnLVLxYwRsMJkjosQlNKQDl6og-ru4vgTMEMkK4x95_LJQMtEE1yVMZIydwY9GgKy9Rpizkn_JJaZcMAryWocTDRwxbZ6Kr4YItB77-2tcPqXT4zJ7_7eY7Cb8BbL4YXGXSigmxzi0nh6WFB1Ac02zS7tP-Yh8kQyaPXcwxZBOYID2L8ADIJ59RgmliMgTCSY3A1avXZbfF-Epw7xjssGT0RwFD4oxgrKdak3jFnDgDrJGQhYGDLW33I5yHVXmg0sB_G1aWYqfPlacQEn9NKCoYAsiy4FGsle4Jk4n0XqW3DBfT-cjwo7mcFsbXpYq5TcLGbNqldDGULthY8zRfCKnv9S_TFgHC1xpmF1G5iskv4pGGY7I9IZJmOLayEbGtwU9RDbSuJzgB4oOqRvAcQcb8xJGJaD51EeeUDqJMu4a58hn7gmKlM6yxA8zwONKhj6lC3kucDk_B8I7pTUV9jm_sjsvzRPRl_4nV5UvLSyoFfmEno1ba6i_aicTK2mWsJoi9dng8zHNiLmCBNxtowJsTWSJuZS69Em465By0DAXzXE-yUHez4MJ1gAVedw6CTmxav1A_WD1KdkGGJ2OKxxnGst1_n9RTZO7OegD-jX96Mre57zRQaxcd88UA9pPMuzP6wuAFOypZ1PA4ke0ulbaRDJlmL3atE3ruBw0KSYucGcDrNPq6glqQDBiU1JtSPI-ah9_o9Ap3lKmGEI5BjkgATstKw8J3yIM3HBmGBJeF5gW9QrSPhXb9qFuLKMaMdff6JA35lQRboU91MddOyBdO1jAsQYcylI9gshLneQhejNXR2U_u6]--></g></svg>